ISO-10303-21;
HEADER;
FILE_DESCRIPTION (( 'STEP AP214' ),
    '1' );
FILE_NAME ('99688-SI10-M06+S9MT1003-090.STEP',
    '2023-09-26T05:46:19',
    ( '' ),
    ( '' ),
    'SwSTEP 2.0',
    'SolidWorks 2020',
    '' );
FILE_SCHEMA (( 'AUTOMOTIVE_DESIGN' ));
ENDSEC;

DATA;
#1 = EDGE_CURVE ( 'NONE', #393, #125, #847, .T. ) ;
#2 = ORIENTED_EDGE ( 'NONE', *, *, #902, .T. ) ;
#3 = DIRECTION ( 'NONE',  ( -1.000000000000000000, -4.495918367346943426E-15, 0.000000000000000000 ) ) ;
#4 = EDGE_LOOP ( 'NONE', ( #592, #593, #507, #921 ) ) ;
#5 = DIRECTION ( 'NONE',  ( -4.495918367346943426E-15, 1.000000000000000000, -0.000000000000000000 ) ) ;
#6 = AXIS2_PLACEMENT_3D ( 'NONE', #121, #426, #211 ) ;
#7 = CIRCLE ( 'NONE', #915, 3.249999999999866773 ) ;
#8 = CONICAL_SURFACE ( 'NONE', #828, 5.999999999999919176, 0.7853981633968628584 ) ;
#9 = DIRECTION ( 'NONE',  ( 0.000000000000000000, -0.000000000000000000, -1.000000000000000000 ) ) ;
#10 = LINE ( 'NONE', #727, #584 ) ;
#11 = EDGE_LOOP ( 'NONE', ( #873, #838, #341, #787 ) ) ;
#12 = CARTESIAN_POINT ( 'NONE',  ( -3.050000000000136158, 41.24161984870961817, 0.000000000000000000 ) ) ;
#13 = ORIENTED_EDGE ( 'NONE', *, *, #383, .T. ) ;
#14 = DIRECTION ( 'NONE',  ( -1.000000000000000000, -4.625929269271536598E-15, 0.000000000000000000 ) ) ;
#15 = PRODUCT_DEFINITION ( 'UNKNOWN', '', #497, #816 ) ;
#16 = LINE ( 'NONE', #644, #352 ) ;
#17 = EDGE_LOOP ( 'NONE', ( #201, #272, #143, #628 ) ) ;
#18 = DIRECTION ( 'NONE',  ( -4.495918367346943426E-15, 1.000000000000000000, -0.000000000000000000 ) ) ;
#19 = VECTOR ( 'NONE', #287, 1000.000000000000000 ) ;
#20 = AXIS2_PLACEMENT_3D ( 'NONE', #227, #249, #731 ) ;
#21 = EDGE_LOOP ( 'NONE', ( #1013, #926, #658, #40 ) ) ;
#22 = EDGE_CURVE ( 'NONE', #907, #54, #134, .T. ) ;
#23 = DIRECTION ( 'NONE',  ( 0.5000000000000203171, -0.8660254037844269392, 0.000000000000000000 ) ) ;
#24 = VERTEX_POINT ( 'NONE', #435 ) ;
#25 = DIRECTION ( 'NONE',  ( -0.4082482904632280252, 0.9128709291755608968, 0.000000000000000000 ) ) ;
#26 = ORIENTED_EDGE ( 'NONE', *, *, #959, .F. ) ;
#27 = ADVANCED_FACE ( 'NONE', ( #373 ), #899, .T. ) ;
#28 = FACE_OUTER_BOUND ( 'NONE', #181, .T. ) ;
#29 = DIRECTION ( 'NONE',  ( -4.495918367346943426E-15, 1.000000000000000000, -0.000000000000000000 ) ) ;
#30 = ORIENTED_EDGE ( 'NONE', *, *, #554, .F. ) ;
#31 = DIRECTION ( 'NONE',  ( -4.495918367346943426E-15, 1.000000000000000000, -0.000000000000000000 ) ) ;
#32 = CARTESIAN_POINT ( 'NONE',  ( 2.249999999999737543, 48.99999999999995737, 2.755455298081493009E-16 ) ) ;
#33 = CARTESIAN_POINT ( 'NONE',  ( -1.551091836734700018E-13, 34.50000000000010658, 0.000000000000000000 ) ) ;
#34 = AXIS2_PLACEMENT_3D ( 'NONE', #882, #532, #389 ) ;
#35 = ORIENTED_EDGE ( 'NONE', *, *, #719, .T. ) ;
#36 = CARTESIAN_POINT ( 'NONE',  ( -1.845299461620945491, 48.99999999999993605, 2.966890238292093493E-16 ) ) ;
#37 = DIRECTION ( 'NONE',  ( 1.000000000000000000, 4.270088556250750202E-15, 0.000000000000000000 ) ) ;
#38 = DIRECTION ( 'NONE',  ( -4.495918367346943426E-15, 1.000000000000000000, -0.000000000000000000 ) ) ;
#39 = DIRECTION ( 'NONE',  ( -4.495918367346943426E-15, 1.000000000000000000, -0.000000000000000000 ) ) ;
#40 = ORIENTED_EDGE ( 'NONE', *, *, #719, .F. ) ;
#41 = ADVANCED_FACE ( 'NONE', ( #363 ), #621, .F. ) ;
#42 = ORIENTED_EDGE ( 'NONE', *, *, #89, .T. ) ;
#43 = DIRECTION ( 'NONE',  ( -1.000000000000000000, -5.046468293750763469E-15, 0.000000000000000000 ) ) ;
#44 = DIRECTION ( 'NONE',  ( -1.000000000000000000, -4.445228907183137899E-15, 0.000000000000000000 ) ) ;
#45 = CARTESIAN_POINT ( 'NONE',  ( -1.000000000001674216, 0.5773502691907042017, 0.000000000000000000 ) ) ;
#46 = CARTESIAN_POINT ( 'NONE',  ( 5.999999999999764633, 34.39999999999996305, 0.000000000000000000 ) ) ;
#47 = ORIENTED_EDGE ( 'NONE', *, *, #299, .F. ) ;
#48 = ADVANCED_FACE ( 'NONE', ( #690 ), #684, .T. ) ;
#49 = CARTESIAN_POINT ( 'NONE',  ( 5.000000000004586553, 48.99999999999997158, 6.123233995742652171E-16 ) ) ;
#50 = CARTESIAN_POINT ( 'NONE',  ( -1.856154119295183591E-13, 41.24161984870963238, 0.000000000000000000 ) ) ;
#51 = CIRCLE ( 'NONE', #776, 3.249999999999887201 ) ;
#52 = CIRCLE ( 'NONE', #972, 1.000000000001671552 ) ;
#53 = VECTOR ( 'NONE', #131, 1000.000000000000000 ) ;
#54 = VERTEX_POINT ( 'NONE', #945 ) ;
#55 = CYLINDRICAL_SURFACE ( 'NONE', #758, 2.949999999999890932 ) ;
#56 = AXIS2_PLACEMENT_3D ( 'NONE', #504, #837, #591 ) ;
#57 = VECTOR ( 'NONE', #767, 1000.000000000000000 ) ;
#58 = VECTOR ( 'NONE', #663, 1000.000000000000000 ) ;
#59 = FACE_OUTER_BOUND ( 'NONE', #11, .T. ) ;
#60 = FACE_OUTER_BOUND ( 'NONE', #854, .T. ) ;
#61 = DIRECTION ( 'NONE',  ( -1.000000000000000000, -4.486912934895896824E-15, 0.000000000000000000 ) ) ;
#62 = EDGE_CURVE ( 'NONE', #743, #901, #52, .T. ) ;
#63 = DIRECTION ( 'NONE',  ( -4.495918367346943426E-15, 1.000000000000000000, -0.000000000000000000 ) ) ;
#64 = ORIENTED_EDGE ( 'NONE', *, *, #378, .T. ) ;
#65 = CARTESIAN_POINT ( 'NONE',  ( -1.587830561314664200E-13, 35.31715728752541139, 0.000000000000000000 ) ) ;
#66 = EDGE_CURVE ( 'NONE', #843, #125, #986, .T. ) ;
#67 = CARTESIAN_POINT ( 'NONE',  ( -3.067157287525414944, 35.31715728752539718, 0.000000000000000000 ) ) ;
#68 = AXIS2_PLACEMENT_3D ( 'NONE', #322, #392, #3 ) ;
#69 = EDGE_LOOP ( 'NONE', ( #802, #286, #165, #639 ) ) ;
#70 = COLOUR_RGB ( '',0.7921568627450980005, 0.8196078431372548767, 0.9333333333333333481 ) ;
#71 = CARTESIAN_POINT ( 'NONE',  ( 3.499999999999882316, 34.50000000000012079, 4.286263797015781954E-16 ) ) ;
#72 = ADVANCED_FACE ( 'NONE', ( #189 ), #757, .T. ) ;
#73 = ORIENTED_EDGE ( 'NONE', *, *, #902, .F. ) ;
#74 = DIRECTION ( 'NONE',  ( 4.495918367346943426E-15, -1.000000000000000000, 0.000000000000000000 ) ) ;
#75 = DIRECTION ( 'NONE',  ( -1.000000000000000000, 0.000000000000000000, 0.000000000000000000 ) ) ;
#76 = ORIENTED_EDGE ( 'NONE', *, *, #271, .F. ) ;
#77 = CARTESIAN_POINT ( 'NONE',  ( -1.551091836734700018E-13, 34.50000000000010658, 0.000000000000000000 ) ) ;
#78 = CARTESIAN_POINT ( 'NONE',  ( -2.950000000000111200, 48.99999999999993605, 0.000000000000000000 ) ) ;
#79 = ORIENTED_EDGE ( 'NONE', *, *, #458, .T. ) ;
#80 = AXIS2_PLACEMENT_3D ( 'NONE', #214, #545, #1052 ) ;
#81 = ADVANCED_FACE ( 'NONE', ( #358 ), #335, .T. ) ;
#82 = CARTESIAN_POINT ( 'NONE',  ( 3.049999999999765343, 41.24161984870964659, 3.735172737399366996E-16 ) ) ;
#83 = CARTESIAN_POINT ( 'NONE',  ( 2.499999999999417799, 42.49999999999969447, 3.061616997867904401E-16 ) ) ;
#84 = EDGE_LOOP ( 'NONE', ( #681, #834, #366, #992 ) ) ;
#85 = CARTESIAN_POINT ( 'NONE',  ( -5.000000000004823697, 4.577350269193791732, 0.000000000000000000 ) ) ;
#86 = ADVANCED_FACE ( 'NONE', ( #60 ), #734, .T. ) ;
#87 = ORIENTED_EDGE ( 'NONE', *, *, #575, .T. ) ;
#88 = DIRECTION ( 'NONE',  ( -4.495918367346943426E-15, 1.000000000000000000, -0.000000000000000000 ) ) ;
#89 = EDGE_CURVE ( 'NONE', #125, #798, #1011, .T. ) ;
#90 = ORIENTED_EDGE ( 'NONE', *, *, #126, .F. ) ;
#91 = DIRECTION ( 'NONE',  ( 0.7071067811865936470, 0.7071067811865014985, 8.659560562355538062E-17 ) ) ;
#92 = VECTOR ( 'NONE', #207, 1000.000000000000000 ) ;
#93 = AXIS2_PLACEMENT_3D ( 'NONE', #877, #144, #788 ) ;
#94 = VECTOR ( 'NONE', #927, 1000.000000000000000 ) ;
#95 = TOROIDAL_SURFACE ( 'NONE', #697, 3.049999999999950973, 0.7999999999999986011 ) ;
#96 = EDGE_CURVE ( 'NONE', #229, #129, #518, .T. ) ;
#97 = LINE ( 'NONE', #365, #256 ) ;
#98 = DIRECTION ( 'NONE',  ( 0.7071067811865465735, 0.7071067811865484609, 8.659560562354961208E-17 ) ) ;
#99 = DIRECTION ( 'NONE',  ( 4.495918367346943426E-15, -1.000000000000000000, 0.000000000000000000 ) ) ;
#100 = ORIENTED_EDGE ( 'NONE', *, *, #344, .T. ) ;
#101 = FACE_OUTER_BOUND ( 'NONE', #936, .T. ) ;
#102 = APPLICATION_PROTOCOL_DEFINITION ( 'draft international standard', 'automotive_design', 1998, #772 ) ;
#103 = ORIENTED_EDGE ( 'NONE', *, *, #982, .F. ) ;
#104 = CARTESIAN_POINT ( 'NONE',  ( 5.000000000004765965, 10.26393202249708558, 6.123233995742655129E-16 ) ) ;
#105 = DIRECTION ( 'NONE',  ( 4.495918367346943426E-15, -1.000000000000000000, 0.000000000000000000 ) ) ;
#106 = VERTEX_POINT ( 'NONE', #765 ) ;
#107 = CARTESIAN_POINT ( 'NONE',  ( -1.000000000001674438, 0.5773502691907040907, 0.000000000000000000 ) ) ;
#108 = CARTESIAN_POINT ( 'NONE',  ( -1.798367346938777749E-13, 40.00000000000000711, 0.000000000000000000 ) ) ;
#109 = CARTESIAN_POINT ( 'NONE',  ( 2.999999999999762412, 42.99999999999997868, 3.673940397442005634E-16 ) ) ;
#110 = EDGE_CURVE ( 'NONE', #544, #106, #186, .T. ) ;
#111 = AXIS2_PLACEMENT_3D ( 'NONE', #967, #871, #140 ) ;
#112 = ORIENTED_EDGE ( 'NONE', *, *, #801, .T. ) ;
#113 = AXIS2_PLACEMENT_3D ( 'NONE', #375, #1038, #282 ) ;
#114 = DIRECTION ( 'NONE',  ( 1.000000000000000000, 4.495918367346943426E-15, 0.000000000000000000 ) ) ;
#115 = VECTOR ( 'NONE', #146, 1000.000000000000227 ) ;
#116 = DIRECTION ( 'NONE',  ( -0.5000000000000125455, -0.8660254037844313801, 6.123233995736965716E-17 ) ) ;
#117 = DIRECTION ( 'NONE',  ( -0.7071067811865531239, 0.7071067811865420216, 0.000000000000000000 ) ) ;
#118 = DIRECTION ( 'NONE',  ( 1.000000000000000000, 4.625929269271547642E-15, 0.000000000000000000 ) ) ;
#119 = EDGE_CURVE ( 'NONE', #528, #907, #290, .T. ) ;
#120 = ORIENTED_EDGE ( 'NONE', *, *, #997, .T. ) ;
#121 = CARTESIAN_POINT ( 'NONE',  ( -1.910765306122436685E-13, 42.49999999999968736, 0.000000000000000000 ) ) ;
#122 = ORIENTED_EDGE ( 'NONE', *, *, #197, .F. ) ;
#123 = DIRECTION ( 'NONE',  ( -1.000000000000000000, -4.510281037535357344E-15, 0.000000000000000000 ) ) ;
#124 = CARTESIAN_POINT ( 'NONE',  ( 3.067157287525097420, 35.31715728752541850, 3.756184354649283026E-16 ) ) ;
#125 = VERTEX_POINT ( 'NONE', #104 ) ;
#126 = EDGE_CURVE ( 'NONE', #751, #544, #202, .T. ) ;
#127 = ORIENTED_EDGE ( 'NONE', *, *, #806, .T. ) ;
#128 = DIRECTION ( 'NONE',  ( -1.000000000000000000, -4.704334850106769541E-15, 0.000000000000000000 ) ) ;
#129 = VERTEX_POINT ( 'NONE', #109 ) ;
#130 = CARTESIAN_POINT ( 'NONE',  ( 1.845299461620504955, 48.99999999999995026, 0.000000000000000000 ) ) ;
#131 = DIRECTION ( 'NONE',  ( -4.495918367346943426E-15, 1.000000000000000000, -0.000000000000000000 ) ) ;
#132 = VECTOR ( 'NONE', #744, 1000.000000000000114 ) ;
#133 = AXIS2_PLACEMENT_3D ( 'NONE', #521, #279, #216 ) ;
#134 = LINE ( 'NONE', #195, #408 ) ;
#135 = FACE_OUTER_BOUND ( 'NONE', #635, .T. ) ;
#136 = EDGE_CURVE ( 'NONE', #565, #601, #830, .T. ) ;
#137 = TOROIDAL_SURFACE ( 'NONE', #411, 3.049999999999950973, 0.7999999999999986011 ) ;
#138 = CARTESIAN_POINT ( 'NONE',  ( -3.500000000000186517, 34.50000000000009237, 0.000000000000000000 ) ) ;
#139 = VECTOR ( 'NONE', #441, 1000.000000000000114 ) ;
#140 = DIRECTION ( 'NONE',  ( -1.000000000000000000, 0.000000000000000000, 0.000000000000000000 ) ) ;
#141 = DIRECTION ( 'NONE',  ( -4.495918367346943426E-15, 1.000000000000000000, -0.000000000000000000 ) ) ;
#142 = DIRECTION ( 'NONE',  ( -1.000000000000000000, -4.704334850106689866E-15, 0.000000000000000000 ) ) ;
#143 = ORIENTED_EDGE ( 'NONE', *, *, #673, .T. ) ;
#144 = DIRECTION ( 'NONE',  ( -4.495918367346943426E-15, 1.000000000000000000, -0.000000000000000000 ) ) ;
#145 = DIRECTION ( 'NONE',  ( -4.495918367346943426E-15, 1.000000000000000000, -0.000000000000000000 ) ) ;
#146 = DIRECTION ( 'NONE',  ( -0.8660254037843967412, 0.5000000000000724976, 0.000000000000000000 ) ) ;
#147 = ORIENTED_EDGE ( 'NONE', *, *, #288, .T. ) ;
#148 = CARTESIAN_POINT ( 'NONE',  ( -2.203000000000000054E-13, 48.99999999999995026, 0.000000000000000000 ) ) ;
#149 = EDGE_CURVE ( 'NONE', #747, #522, #465, .T. ) ;
#150 = FACE_OUTER_BOUND ( 'NONE', #766, .T. ) ;
#151 = CIRCLE ( 'NONE', #111, 0.1999999999999996503 ) ;
#152 = ORIENTED_EDGE ( 'NONE', *, *, #353, .T. ) ;
#153 = CIRCLE ( 'NONE', #568, 2.949999999999894484 ) ;
#154 = CARTESIAN_POINT ( 'NONE',  ( -1.933244897959183669E-13, 42.99999999999996447, 0.000000000000000000 ) ) ;
#155 = AXIS2_PLACEMENT_3D ( 'NONE', #148, #553, #1047 ) ;
#156 = CARTESIAN_POINT ( 'NONE',  ( -2.499999999999800160, 42.49999999999967315, 0.000000000000000000 ) ) ;
#157 = CARTESIAN_POINT ( 'NONE',  ( 2.949999999999739497, 34.52886751345950245, 3.796405077356677575E-16 ) ) ;
#158 = ORIENTED_EDGE ( 'NONE', *, *, #215, .T. ) ;
#159 = FACE_OUTER_BOUND ( 'NONE', #21, .T. ) ;
#160 = ADVANCED_FACE ( 'NONE', ( #263 ), #254, .F. ) ;
#161 = ORIENTED_EDGE ( 'NONE', *, *, #209, .T. ) ;
#162 = FACE_OUTER_BOUND ( 'NONE', #421, .T. ) ;
#163 = DIRECTION ( 'NONE',  ( 1.000000000000000000, 4.495918367346943426E-15, 0.000000000000000000 ) ) ;
#164 = EDGE_CURVE ( 'NONE', #901, #573, #514, .T. ) ;
#165 = ORIENTED_EDGE ( 'NONE', *, *, #875, .T. ) ;
#166 = AXIS2_PLACEMENT_3D ( 'NONE', #77, #979, #327 ) ;
#167 = CARTESIAN_POINT ( 'NONE',  ( -6.000000000000073719, 34.39999999999991331, 7.347880794884020142E-16 ) ) ;
#168 = AXIS2_PLACEMENT_3D ( 'NONE', #976, #243, #722 ) ;
#169 = STYLED_ITEM ( 'NONE', ( #415 ), #185 ) ;
#170 = DIRECTION ( 'NONE',  ( 4.495918367346943426E-15, -1.000000000000000000, 0.000000000000000000 ) ) ;
#171 = ORIENTED_EDGE ( 'NONE', *, *, #613, .T. ) ;
#172 = DIRECTION ( 'NONE',  ( 0.000000000000000000, -0.000000000000000000, -1.000000000000000000 ) ) ;
#173 = EDGE_CURVE ( 'NONE', #762, #798, #848, .T. ) ;
#174 = ORIENTED_EDGE ( 'NONE', *, *, #417, .T. ) ;
#175 = DIRECTION ( 'NONE',  ( -1.000000000000000000, -3.083952846181057925E-15, 0.000000000000000000 ) ) ;
#176 = ADVANCED_FACE ( 'NONE', ( #428 ), #540, .T. ) ;
#177 = SURFACE_STYLE_USAGE ( .BOTH. , #824 ) ;
#178 = ORIENTED_EDGE ( 'NONE', *, *, #383, .F. ) ;
#179 = FACE_OUTER_BOUND ( 'NONE', #184, .T. ) ;
#180 = AXIS2_PLACEMENT_3D ( 'NONE', #817, #394, #245 ) ;
#181 = EDGE_LOOP ( 'NONE', ( #965, #570, #505, #752 ) ) ;
#182 = CONICAL_SURFACE ( 'NONE', #323, 2.499999999999610534, 0.7853981633975181120 ) ;
#183 = CIRCLE ( 'NONE', #811, 5.000000000004801493 ) ;
#184 = EDGE_LOOP ( 'NONE', ( #625, #439, #457, #815 ) ) ;
#185 = ADVANCED_BREP_SHAPE_REPRESENTATION ( '99688-SI10-M06+S9MT1003-090', ( #853, #205 ), #797 ) ;
#186 = LINE ( 'NONE', #583, #92 ) ;
#187 = ORIENTED_EDGE ( 'NONE', *, *, #554, .T. ) ;
#188 = DIRECTION ( 'NONE',  ( -4.495918367346943426E-15, 1.000000000000000000, -0.000000000000000000 ) ) ;
#189 = FACE_OUTER_BOUND ( 'NONE', #17, .T. ) ;
#190 = ADVANCED_FACE ( 'NONE', ( #179 ), #397, .T. ) ;
#191 = CARTESIAN_POINT ( 'NONE',  ( -5.619897959179134418E-14, 12.49999999998989431, 0.000000000000000000 ) ) ;
#192 = LINE ( 'NONE', #680, #139 ) ;
#193 = ORIENTED_EDGE ( 'NONE', *, *, #209, .F. ) ;
#194 = EDGE_LOOP ( 'NONE', ( #960, #425, #90, #178 ) ) ;
#195 = CARTESIAN_POINT ( 'NONE',  ( -3.000000000000187406, 47.00000000000002132, 3.673940397442030286E-16 ) ) ;
#196 = DIRECTION ( 'NONE',  ( -4.495918367346943426E-15, 1.000000000000000000, -0.000000000000000000 ) ) ;
#197 = EDGE_CURVE ( 'NONE', #862, #1024, #221, .T. ) ;
#198 = DIRECTION ( 'NONE',  ( -1.000000000000000000, -3.760307770215682624E-15, 0.000000000000000000 ) ) ;
#199 = CARTESIAN_POINT ( 'NONE',  ( -1.910765306122436685E-13, 42.49999999999968736, 0.000000000000000000 ) ) ;
#200 = CIRCLE ( 'NONE', #34, 2.749999999999971578 ) ;
#201 = ORIENTED_EDGE ( 'NONE', *, *, #452, .F. ) ;
#202 = CIRCLE ( 'NONE', #869, 3.249999999999866773 ) ;
#203 = CARTESIAN_POINT ( 'NONE',  ( 2.749999999999789502, 40.50000000000007105, 0.000000000000000000 ) ) ;
#204 = MECHANICAL_DESIGN_GEOMETRIC_PRESENTATION_REPRESENTATION (  '', ( #647 ), #466 ) ;
#205 = AXIS2_PLACEMENT_3D ( 'NONE', #764, #676, #261 ) ;
#206 = CARTESIAN_POINT ( 'NONE',  ( -1.551091836734700018E-13, 34.50000000000010658, 0.000000000000000000 ) ) ;
#207 = DIRECTION ( 'NONE',  ( -4.495918367346943426E-15, 1.000000000000000000, -0.000000000000000000 ) ) ;
#208 = DIRECTION ( 'NONE',  ( -1.000000000000000000, -5.551115123126647294E-15, 0.000000000000000000 ) ) ;
#209 = EDGE_CURVE ( 'NONE', #862, #129, #359, .T. ) ;
#210 = ORIENTED_EDGE ( 'NONE', *, *, #324, .T. ) ;
#211 = DIRECTION ( 'NONE',  ( -1.000000000000000000, -5.551115123126647294E-15, 0.000000000000000000 ) ) ;
#212 = ORIENTED_EDGE ( 'NONE', *, *, #344, .F. ) ;
#213 = DIRECTION ( 'NONE',  ( 0.7071067811863975816, 0.7071067811866974528, 8.659560562353135734E-17 ) ) ;
#214 = CARTESIAN_POINT ( 'NONE',  ( -2.595719679647199671E-15, 0.5773502691907086426, 0.000000000000000000 ) ) ;
#215 = EDGE_CURVE ( 'NONE', #751, #763, #685, .T. ) ;
#216 = DIRECTION ( 'NONE',  ( -1.000000000000000000, -4.625929269271522399E-15, 0.000000000000000000 ) ) ;
#217 = DIRECTION ( 'NONE',  ( -1.000000000000000000, -3.965082230804091960E-15, 0.000000000000000000 ) ) ;
#218 = DIRECTION ( 'NONE',  ( -4.495918367346943426E-15, 1.000000000000000000, -0.000000000000000000 ) ) ;
#219 = DIRECTION ( 'NONE',  ( 1.000000000000000000, 4.625929269271522399E-15, 0.000000000000000000 ) ) ;
#220 = AXIS2_PLACEMENT_3D ( 'NONE', #946, #695, #225 ) ;
#221 = CIRCLE ( 'NONE', #810, 2.499999999999610534 ) ;
#222 = CIRCLE ( 'NONE', #778, 0.7999999999999994893 ) ;
#223 = DIRECTION ( 'NONE',  ( -1.000000000000000000, -4.495918367346943426E-15, 0.000000000000000000 ) ) ;
#224 = VERTEX_POINT ( 'NONE', #603 ) ;
#225 = DIRECTION ( 'NONE',  ( -1.000000000000000000, -3.760307770215682624E-15, 0.000000000000000000 ) ) ;
#226 = DIRECTION ( 'NONE',  ( -1.000000000000000000, -4.524641714416864339E-15, 0.000000000000000000 ) ) ;
#227 = CARTESIAN_POINT ( 'NONE',  ( -1.546595918367345623E-13, 34.39999999999993463, 0.000000000000000000 ) ) ;
#228 = EDGE_CURVE ( 'NONE', #528, #894, #410, .T. ) ;
#229 = VERTEX_POINT ( 'NONE', #340 ) ;
#230 = DIRECTION ( 'NONE',  ( 0.7071067811864562014, -0.7071067811866387220, 0.000000000000000000 ) ) ;
#231 = DIRECTION ( 'NONE',  ( -4.495918367346943426E-15, 1.000000000000000000, -0.000000000000000000 ) ) ;
#232 = CARTESIAN_POINT ( 'NONE',  ( -1.544602537535590428E-13, 34.35566243270261566, 0.000000000000000000 ) ) ;
#233 = ORIENTED_EDGE ( 'NONE', *, *, #470, .T. ) ;
#234 = EDGE_CURVE ( 'NONE', #743, #393, #657, .T. ) ;
#235 = DIRECTION ( 'NONE',  ( -1.000000000000000000, -4.704334850106689866E-15, 0.000000000000000000 ) ) ;
#236 = CARTESIAN_POINT ( 'NONE',  ( -2.203000000000000054E-13, 48.99999999999995026, 0.000000000000000000 ) ) ;
#237 = AXIS2_PLACEMENT_3D ( 'NONE', #640, #566, #483 ) ;
#238 = ORIENTED_EDGE ( 'NONE', *, *, #136, .T. ) ;
#239 = CIRCLE ( 'NONE', #826, 3.500000000000034195 ) ;
#240 = AXIS2_PLACEMENT_3D ( 'NONE', #1028, #218, #756 ) ;
#241 = CARTESIAN_POINT ( 'NONE',  ( -1.854189561769538882E-13, 41.24161984870963948, 0.000000000000000000 ) ) ;
#242 = ADVANCED_FACE ( 'NONE', ( #28 ), #956, .T. ) ;
#243 = DIRECTION ( 'NONE',  ( -4.495918367346943426E-15, 1.000000000000000000, -0.000000000000000000 ) ) ;
#244 = ORIENTED_EDGE ( 'NONE', *, *, #149, .F. ) ;
#245 = DIRECTION ( 'NONE',  ( -1.000000000000000000, -5.551115123126647294E-15, 0.000000000000000000 ) ) ;
#246 = LINE ( 'NONE', #78, #870 ) ;
#247 = ORIENTED_EDGE ( 'NONE', *, *, #259, .F. ) ;
#248 = CARTESIAN_POINT ( 'NONE',  ( -1.544602537535590428E-13, 34.35566243270261566, 0.000000000000000000 ) ) ;
#249 = DIRECTION ( 'NONE',  ( 4.495918367346943426E-15, -1.000000000000000000, 0.000000000000000000 ) ) ;
#250 = EDGE_LOOP ( 'NONE', ( #677, #482, #1051, #980 ) ) ;
#251 = ADVANCED_FACE ( 'NONE', ( #954 ), #137, .F. ) ;
#252 = VECTOR ( 'NONE', #318, 1000.000000000000000 ) ;
#253 = CYLINDRICAL_SURFACE ( 'NONE', #237, 5.000000000004806822 ) ;
#254 = TOROIDAL_SURFACE ( 'NONE', #777, 3.149999999999894662, 0.1999999999999995948 ) ;
#255 = AXIS2_PLACEMENT_3D ( 'NONE', #236, #884, #805 ) ;
#256 = VECTOR ( 'NONE', #998, 1000.000000000000000 ) ;
#257 = FILL_AREA_STYLE ('',( #990 ) ) ;
#258 = ORIENTED_EDGE ( 'NONE', *, *, #730, .F. ) ;
#259 = EDGE_CURVE ( 'NONE', #547, #262, #721, .T. ) ;
#260 = CARTESIAN_POINT ( 'NONE',  ( -3.350000000000045386, 35.03431457505078583, 0.000000000000000000 ) ) ;
#261 = DIRECTION ( 'NONE',  ( 1.000000000000000000, 0.000000000000000000, 0.000000000000000000 ) ) ;
#262 = VERTEX_POINT ( 'NONE', #786 ) ;
#263 = FACE_OUTER_BOUND ( 'NONE', #672, .T. ) ;
#264 = CARTESIAN_POINT ( 'NONE',  ( -1.798367346938777749E-13, 40.00000000000000711, 0.000000000000000000 ) ) ;
#265 = ORIENTED_EDGE ( 'NONE', *, *, #569, .T. ) ;
#266 = SURFACE_SIDE_STYLE ('',( #660 ) ) ;
#267 = VERTEX_POINT ( 'NONE', #138 ) ;
#268 = CARTESIAN_POINT ( 'NONE',  ( -1.910765306122436685E-13, 42.49999999999968736, 0.000000000000000000 ) ) ;
#269 = AXIS2_PLACEMENT_3D ( 'NONE', #822, #475, #905 ) ;
#270 = CYLINDRICAL_SURFACE ( 'NONE', #155, 2.249999999999957812 ) ;
#271 = EDGE_CURVE ( 'NONE', #1024, #229, #964, .T. ) ;
#272 = ORIENTED_EDGE ( 'NONE', *, *, #362, .T. ) ;
#273 = CYLINDRICAL_SURFACE ( 'NONE', #355, 5.000000000004806822 ) ;
#274 =( NAMED_UNIT ( * ) PLANE_ANGLE_UNIT ( ) SI_UNIT ( $, .RADIAN. ) );
#275 = DIRECTION ( 'NONE',  ( -1.000000000000000000, -4.625929269271585507E-15, 0.000000000000000000 ) ) ;
#276 = DIRECTION ( 'NONE',  ( -1.000000000000000000, -4.524641714416864339E-15, 0.000000000000000000 ) ) ;
#277 = ORIENTED_EDGE ( 'NONE', *, *, #228, .T. ) ;
#278 = ORIENTED_EDGE ( 'NONE', *, *, #197, .T. ) ;
#279 = DIRECTION ( 'NONE',  ( -4.495918367346943426E-15, 1.000000000000000000, -0.000000000000000000 ) ) ;
#280 =( NAMED_UNIT ( * ) SI_UNIT ( $, .STERADIAN. ) SOLID_ANGLE_UNIT ( ) );
#281 = EDGE_CURVE ( 'NONE', #559, #688, #336, .T. ) ;
#282 = DIRECTION ( 'NONE',  ( 1.000000000000000000, 4.625929269271522399E-15, 0.000000000000000000 ) ) ;
#283 = FACE_OUTER_BOUND ( 'NONE', #609, .T. ) ;
#284 = EDGE_LOOP ( 'NONE', ( #615, #147, #244, #827 ) ) ;
#285 = DIRECTION ( 'NONE',  ( -4.495918367346943426E-15, 1.000000000000000000, -0.000000000000000000 ) ) ;
#286 = ORIENTED_EDGE ( 'NONE', *, *, #602, .T. ) ;
#287 = DIRECTION ( 'NONE',  ( -4.495918367346943426E-15, 1.000000000000000000, -0.000000000000000000 ) ) ;
#288 = EDGE_CURVE ( 'NONE', #798, #522, #97, .T. ) ;
#289 = LINE ( 'NONE', #931, #58 ) ;
#290 = CIRCLE ( 'NONE', #492, 1.845299461620725223 ) ;
#291 = AXIS2_PLACEMENT_3D ( 'NONE', #12, #172, #574 ) ;
#292 = ORIENTED_EDGE ( 'NONE', *, *, #470, .F. ) ;
#293 = AXIS2_PLACEMENT_3D ( 'NONE', #343, #662, #303 ) ;
#294 = DIRECTION ( 'NONE',  ( -4.495918367346943426E-15, 1.000000000000000000, -0.000000000000000000 ) ) ;
#295 = CIRCLE ( 'NONE', #974, 2.749999999999971578 ) ;
#296 = AXIS2_PLACEMENT_3D ( 'NONE', #509, #761, #1012 ) ;
#297 = DIRECTION ( 'NONE',  ( -4.495918367346943426E-15, 1.000000000000000000, -0.000000000000000000 ) ) ;
#298 = ORIENTED_EDGE ( 'NONE', *, *, #119, .F. ) ;
#299 = EDGE_CURVE ( 'NONE', #862, #601, #670, .T. ) ;
#300 = CARTESIAN_POINT ( 'NONE',  ( -2.250000000000136335, 41.24161984870963238, 0.000000000000000000 ) ) ;
#301 = CYLINDRICAL_SURFACE ( 'NONE', #412, 2.249999999999957812 ) ;
#302 = DIRECTION ( 'NONE',  ( -4.495918367346943426E-15, 1.000000000000000000, -0.000000000000000000 ) ) ;
#303 = DIRECTION ( 'NONE',  ( -1.000000000000000000, -4.510281037535357344E-15, 0.000000000000000000 ) ) ;
#304 = CARTESIAN_POINT ( 'NONE',  ( -2.203000000000000054E-13, 48.99999999999995026, 0.000000000000000000 ) ) ;
#305 = CARTESIAN_POINT ( 'NONE',  ( -1.552577510999242349E-13, 34.52886751345949534, 0.000000000000000000 ) ) ;
#306 = CARTESIAN_POINT ( 'NONE',  ( -4.614580050114497762E-14, 10.26393202249706249, 0.000000000000000000 ) ) ;
#307 = DIRECTION ( 'NONE',  ( -4.495918367346943426E-15, 1.000000000000000000, -0.000000000000000000 ) ) ;
#308 = EDGE_CURVE ( 'NONE', #262, #522, #606, .T. ) ;
#309 = CYLINDRICAL_SURFACE ( 'NONE', #668, 3.249999999999876987 ) ;
#310 = AXIS2_PLACEMENT_3D ( 'NONE', #264, #105, #350 ) ;
#311 = CARTESIAN_POINT ( 'NONE',  ( -5.000000000005027090, 48.99999999999992895, 0.000000000000000000 ) ) ;
#312 = ADVANCED_FACE ( 'NONE', ( #909 ), #479, .T. ) ;
#313 = ORIENTED_EDGE ( 'NONE', *, *, #768, .T. ) ;
#314 = FACE_OUTER_BOUND ( 'NONE', #194, .T. ) ;
#315 = DIRECTION ( 'NONE',  ( -4.495918367346943426E-15, 1.000000000000000000, -0.000000000000000000 ) ) ;
#316 = VERTEX_POINT ( 'NONE', #671 ) ;
#317 = EDGE_CURVE ( 'NONE', #224, #601, #939, .T. ) ;
#318 = DIRECTION ( 'NONE',  ( -0.7071067811861303509, -0.7071067811869646835, 8.659560562349863194E-17 ) ) ;
#319 = CIRCLE ( 'NONE', #910, 0.3999999999999997446 ) ;
#320 = PRESENTATION_LAYER_ASSIGNMENT (  '', '', ( #647 ) ) ;
#321 = EDGE_LOOP ( 'NONE', ( #438, #298, #277, #950 ) ) ;
#322 = CARTESIAN_POINT ( 'NONE',  ( -1.574261554448952438E-13, 35.03431457505080004, 0.000000000000000000 ) ) ;
#323 = AXIS2_PLACEMENT_3D ( 'NONE', #199, #1004, #208 ) ;
#324 = EDGE_CURVE ( 'NONE', #741, #24, #1029, .T. ) ;
#325 = DIRECTION ( 'NONE',  ( -4.495918367346943426E-15, 1.000000000000000000, -0.000000000000000000 ) ) ;
#326 = EDGE_LOOP ( 'NONE', ( #728, #948, #511, #520 ) ) ;
#327 = DIRECTION ( 'NONE',  ( -1.000000000000000000, -3.965082230804091960E-15, 0.000000000000000000 ) ) ;
#328 = EDGE_LOOP ( 'NONE', ( #26, #919, #127, #432 ) ) ;
#329 = FACE_OUTER_BOUND ( 'NONE', #820, .T. ) ;
#330 = DIRECTION ( 'NONE',  ( 0.8660254037844191677, 0.5000000000000336398, 1.060575238724885714E-16 ) ) ;
#331 = EDGE_CURVE ( 'NONE', #510, #267, #239, .T. ) ;
#332 = VERTEX_POINT ( 'NONE', #124 ) ;
#333 = CIRCLE ( 'NONE', #1006, 3.067157287525256848 ) ;
#334 = DIRECTION ( 'NONE',  ( -1.000000000000000000, -4.270088556250750202E-15, 0.000000000000000000 ) ) ;
#335 = CONICAL_SURFACE ( 'NONE', #1045, 5.000000000004812151, 0.4205343352832650039 ) ;
#336 = CIRCLE ( 'NONE', #400, 2.949999999999887823 ) ;
#337 = AXIS2_PLACEMENT_3D ( 'NONE', #379, #231, #226 ) ;
#338 = SURFACE_STYLE_USAGE ( .BOTH. , #266 ) ;
#339 = ORIENTED_EDGE ( 'NONE', *, *, #324, .F. ) ;
#340 = CARTESIAN_POINT ( 'NONE',  ( -3.000000000000154543, 42.99999999999995026, 0.000000000000000000 ) ) ;
#341 = ORIENTED_EDGE ( 'NONE', *, *, #881, .T. ) ;
#342 = ORIENTED_EDGE ( 'NONE', *, *, #308, .T. ) ;
#343 = CARTESIAN_POINT ( 'NONE',  ( -4.614580050114497762E-14, 10.26393202249706249, 0.000000000000000000 ) ) ;
#344 = EDGE_CURVE ( 'NONE', #332, #688, #973, .T. ) ;
#345 = DIRECTION ( 'NONE',  ( -1.000000000000000000, -4.704334850106764019E-15, 0.000000000000000000 ) ) ;
#346 = ORIENTED_EDGE ( 'NONE', *, *, #749, .F. ) ;
#347 = ORIENTED_EDGE ( 'NONE', *, *, #228, .F. ) ;
#348 = CARTESIAN_POINT ( 'NONE',  ( -1.546595918367345623E-13, 34.39999999999993463, 0.000000000000000000 ) ) ;
#349 = CIRCLE ( 'NONE', #220, 1.845299461620725223 ) ;
#350 = DIRECTION ( 'NONE',  ( 1.000000000000000000, 4.270088556250750202E-15, 0.000000000000000000 ) ) ;
#351 = VECTOR ( 'NONE', #91, 999.9999999999998863 ) ;
#352 = VECTOR ( 'NONE', #25, 1000.000000000000227 ) ;
#353 = EDGE_CURVE ( 'NONE', #267, #510, #780, .T. ) ;
#354 = VECTOR ( 'NONE', #750, 999.9999999999998863 ) ;
#355 = AXIS2_PLACEMENT_3D ( 'NONE', #587, #294, #370 ) ;
#356 = ORIENTED_EDGE ( 'NONE', *, *, #331, .F. ) ;
#357 = LINE ( 'NONE', #675, #53 ) ;
#358 = FACE_OUTER_BOUND ( 'NONE', #832, .T. ) ;
#359 = LINE ( 'NONE', #523, #351 ) ;
#360 = DIRECTION ( 'NONE',  ( -1.000000000000000000, -3.965082230804091960E-15, 0.000000000000000000 ) ) ;
#361 = EDGE_LOOP ( 'NONE', ( #64, #420, #416, #407 ) ) ;
#362 = EDGE_CURVE ( 'NONE', #942, #763, #192, .T. ) ;
#363 = FACE_OUTER_BOUND ( 'NONE', #642, .T. ) ;
#364 = CARTESIAN_POINT ( 'NONE',  ( -1.587830561314664200E-13, 35.31715728752541139, 0.000000000000000000 ) ) ;
#365 = CARTESIAN_POINT ( 'NONE',  ( 5.999999999999650058, 48.99999999999997868, 7.347880794883959992E-16 ) ) ;
#366 = ORIENTED_EDGE ( 'NONE', *, *, #406, .T. ) ;
#367 = CARTESIAN_POINT ( 'NONE',  ( -2.595719679647199671E-15, 0.5773502691907086426, 0.000000000000000000 ) ) ;
#368 = ADVANCED_FACE ( 'NONE', ( #283 ), #8, .T. ) ;
#369 = CIRCLE ( 'NONE', #80, 1.000000000001671552 ) ;
#370 = DIRECTION ( 'NONE',  ( -1.000000000000000000, -4.163336342340334346E-15, 0.000000000000000000 ) ) ;
#371 = CIRCLE ( 'NONE', #585, 2.949999999999894484 ) ;
#372 = AXIS2_PLACEMENT_3D ( 'NONE', #650, #718, #978 ) ;
#373 = FACE_OUTER_BOUND ( 'NONE', #250, .T. ) ;
#374 = CYLINDRICAL_SURFACE ( 'NONE', #736, 5.999999999999870326 ) ;
#375 = CARTESIAN_POINT ( 'NONE',  ( -2.113081632653064877E-13, 47.00000000000003553, 0.000000000000000000 ) ) ;
#376 = CARTESIAN_POINT ( 'NONE',  ( -1.552389696574516786E-13, 34.52886751345948824, 0.000000000000000000 ) ) ;
#377 = FACE_OUTER_BOUND ( 'NONE', #999, .T. ) ;
#378 = EDGE_CURVE ( 'NONE', #600, #741, #371, .T. ) ;
#379 = CARTESIAN_POINT ( 'NONE',  ( -1.587830561314664200E-13, 35.31715728752541139, 0.000000000000000000 ) ) ;
#380 = CARTESIAN_POINT ( 'NONE',  ( -3.250000000000067057, 39.99999999999999289, 0.000000000000000000 ) ) ;
#381 = EDGE_LOOP ( 'NONE', ( #610, #356 ) ) ;
#382 = CARTESIAN_POINT ( 'NONE',  ( -5.900000000000035882, 34.50000000000006395, 7.286648454926629691E-16 ) ) ;
#383 = EDGE_CURVE ( 'NONE', #1007, #751, #289, .T. ) ;
#384 = CIRCLE ( 'NONE', #1026, 5.999999999999919176 ) ;
#385 = AXIS2_PLACEMENT_3D ( 'NONE', #232, #315, #968 ) ;
#386 = CARTESIAN_POINT ( 'NONE',  ( -5.999999999999877431, 12.49999999998986588, 0.000000000000000000 ) ) ;
#387 = AXIS2_PLACEMENT_3D ( 'NONE', #419, #424, #771 ) ;
#388 = EDGE_LOOP ( 'NONE', ( #193, #278, #586, #580 ) ) ;
#389 = DIRECTION ( 'NONE',  ( -1.000000000000000000, -5.046468293750763469E-15, 0.000000000000000000 ) ) ;
#390 = ADVANCED_FACE ( 'NONE', ( #941 ), #182, .T. ) ;
#391 = ORIENTED_EDGE ( 'NONE', *, *, #534, .F. ) ;
#392 = DIRECTION ( 'NONE',  ( -4.495918367346943426E-15, 1.000000000000000000, -0.000000000000000000 ) ) ;
#393 = VERTEX_POINT ( 'NONE', #524 ) ;
#394 = DIRECTION ( 'NONE',  ( -4.495918367346943426E-15, 1.000000000000000000, -0.000000000000000000 ) ) ;
#395 = DIRECTION ( 'NONE',  ( -1.000000000000000000, -4.704334850106764019E-15, 0.000000000000000000 ) ) ;
#396 = CIRCLE ( 'NONE', #567, 5.899999999999881339 ) ;
#397 = CONICAL_SURFACE ( 'NONE', #667, 1.000000000001671552, 0.7853981633974514986 ) ;
#398 = CIRCLE ( 'NONE', #495, 2.249999999999950706 ) ;
#399 = ORIENTED_EDGE ( 'NONE', *, *, #417, .F. ) ;
#400 = AXIS2_PLACEMENT_3D ( 'NONE', #530, #444, #821 ) ;
#401 = CARTESIAN_POINT ( 'NONE',  ( -3.000000000000187406, 48.99999999999993605, 0.000000000000000000 ) ) ;
#402 = CARTESIAN_POINT ( 'NONE',  ( -1.820846938775514383E-13, 40.50000000000005684, 0.000000000000000000 ) ) ;
#403 = CARTESIAN_POINT ( 'NONE',  ( -2.203000000000000054E-13, 48.99999999999995026, 0.000000000000000000 ) ) ;
#404 = ADVANCED_FACE ( 'NONE', ( #517 ), #270, .T. ) ;
#405 = LINE ( 'NONE', #167, #252 ) ;
#406 = EDGE_CURVE ( 'NONE', #573, #843, #629, .T. ) ;
#407 = ORIENTED_EDGE ( 'NONE', *, *, #806, .F. ) ;
#408 = VECTOR ( 'NONE', #116, 1000.000000000000114 ) ;
#409 = AXIS2_PLACEMENT_3D ( 'NONE', #241, #88, #175 ) ;
#410 = LINE ( 'NONE', #740, #760 ) ;
#411 = AXIS2_PLACEMENT_3D ( 'NONE', #867, #1043, #223 ) ;
#412 = AXIS2_PLACEMENT_3D ( 'NONE', #947, #944, #839 ) ;
#413 = TOROIDAL_SURFACE ( 'NONE', #866, 3.349999999999887734, 0.3999999999999996336 ) ;
#414 = CARTESIAN_POINT ( 'NONE',  ( -5.000000000004858336, 10.26393202249704117, 0.000000000000000000 ) ) ;
#415 = PRESENTATION_STYLE_ASSIGNMENT (( #338 ) ) ;
#416 = ORIENTED_EDGE ( 'NONE', *, *, #281, .F. ) ;
#417 = EDGE_CURVE ( 'NONE', #601, #224, #917, .T. ) ;
#418 = DIRECTION ( 'NONE',  ( -4.495918367346943426E-15, 1.000000000000000000, -0.000000000000000000 ) ) ;
#419 = CARTESIAN_POINT ( 'NONE',  ( -1.884646380678488003E-13, 41.91905249806891476, 0.000000000000000000 ) ) ;
#420 = ORIENTED_EDGE ( 'NONE', *, *, #959, .T. ) ;
#421 = EDGE_LOOP ( 'NONE', ( #468, #723, #526, #916 ) ) ;
#422 = ADVANCED_FACE ( 'NONE', ( #712 ), #1032, .T. ) ;
#423 = CARTESIAN_POINT ( 'NONE',  ( -2.202999999999999549E-13, 48.99999999999994316, 0.000000000000000000 ) ) ;
#424 = DIRECTION ( 'NONE',  ( -4.495918367346943426E-15, 1.000000000000000000, -0.000000000000000000 ) ) ;
#425 = ORIENTED_EDGE ( 'NONE', *, *, #1040, .T. ) ;
#426 = DIRECTION ( 'NONE',  ( -4.495918367346943426E-15, 1.000000000000000000, -0.000000000000000000 ) ) ;
#427 = EDGE_LOOP ( 'NONE', ( #73, #705, #885, #1044 ) ) ;
#428 = FACE_OUTER_BOUND ( 'NONE', #513, .T. ) ;
#429 = CIRCLE ( 'NONE', #953, 2.949999999999887823 ) ;
#430 = CARTESIAN_POINT ( 'NONE',  ( 3.149999999999739231, 34.52886751345950955, 3.857637417314033513E-16 ) ) ;
#431 = AXIS2_PLACEMENT_3D ( 'NONE', #1041, #624, #958 ) ;
#432 = ORIENTED_EDGE ( 'NONE', *, *, #578, .F. ) ;
#433 = ORIENTED_EDGE ( 'NONE', *, *, #299, .T. ) ;
#434 = DIRECTION ( 'NONE',  ( -4.495918367346943426E-15, 1.000000000000000000, -0.000000000000000000 ) ) ;
#435 = CARTESIAN_POINT ( 'NONE',  ( 3.249999999999758415, 34.35566243270262987, 4.133182947122284133E-16 ) ) ;
#436 = DIRECTION ( 'NONE',  ( -1.000000000000000000, -4.625929269271623373E-15, 0.000000000000000000 ) ) ;
#437 = ADVANCED_FACE ( 'NONE', ( #377 ), #413, .F. ) ;
#438 = ORIENTED_EDGE ( 'NONE', *, *, #22, .F. ) ;
#439 = ORIENTED_EDGE ( 'NONE', *, *, #62, .T. ) ;
#440 = FACE_OUTER_BOUND ( 'NONE', #328, .T. ) ;
#441 = DIRECTION ( 'NONE',  ( -0.7071067811864497621, -0.7071067811866452724, 8.659560562353775451E-17 ) ) ;
#442 = CARTESIAN_POINT ( 'NONE',  ( -2.250000000000178080, 48.99999999999994316, 0.000000000000000000 ) ) ;
#443 = DIRECTION ( 'NONE',  ( -4.495918367346943426E-15, 1.000000000000000000, -0.000000000000000000 ) ) ;
#444 = DIRECTION ( 'NONE',  ( -4.495918367346943426E-15, 1.000000000000000000, -0.000000000000000000 ) ) ;
#445 = ORIENTED_EDGE ( 'NONE', *, *, #136, .F. ) ;
#446 = DIRECTION ( 'NONE',  ( -4.495918367346943426E-15, 1.000000000000000000, -0.000000000000000000 ) ) ;
#447 = AXIS2_PLACEMENT_3D ( 'NONE', #450, #666, #588 ) ;
#448 = FACE_OUTER_BOUND ( 'NONE', #326, .T. ) ;
#449 = AXIS2_PLACEMENT_3D ( 'NONE', #863, #63, #612 ) ;
#450 = CARTESIAN_POINT ( 'NONE',  ( -4.614580050114497762E-14, 10.26393202249706249, 0.000000000000000000 ) ) ;
#451 = CARTESIAN_POINT ( 'NONE',  ( -4.495918367346943514E-12, 1000.000000000000000, 0.000000000000000000 ) ) ;
#452 = EDGE_CURVE ( 'NONE', #942, #896, #200, .T. ) ;
#453 = ORIENTED_EDGE ( 'NONE', *, *, #564, .F. ) ;
#454 = LINE ( 'NONE', #1034, #754 ) ;
#455 = LINE ( 'NONE', #638, #115 ) ;
#456 = DIRECTION ( 'NONE',  ( -4.495918367346943426E-15, 1.000000000000000000, -0.000000000000000000 ) ) ;
#457 = ORIENTED_EDGE ( 'NONE', *, *, #164, .T. ) ;
#458 = EDGE_CURVE ( 'NONE', #600, #769, #151, .T. ) ;
#459 = DIRECTION ( 'NONE',  ( -4.495918367346943426E-15, 1.000000000000000000, -0.000000000000000000 ) ) ;
#460 = APPLICATION_CONTEXT ( 'automotive_design' ) ;
#461 = ORIENTED_EDGE ( 'NONE', *, *, #119, .T. ) ;
#462 = CARTESIAN_POINT ( 'NONE',  ( -1.587830561314664200E-13, 35.31715728752541139, 0.000000000000000000 ) ) ;
#463 = EDGE_CURVE ( 'NONE', #129, #229, #935, .T. ) ;
#464 = AXIS2_PLACEMENT_3D ( 'NONE', #191, #908, #436 ) ;
#465 = CIRCLE ( 'NONE', #934, 5.999999999999919176 ) ;
#466 =( GEOMETRIC_REPRESENTATION_CONTEXT ( 3 ) GLOBAL_UNCERTAINTY_ASSIGNED_CONTEXT ( ( #589 ) ) GLOBAL_UNIT_ASSIGNED_CONTEXT ( ( #490, #819, #1000 ) ) REPRESENTATION_CONTEXT ( 'NONE', 'WORKASPACE' ) );
#467 = VECTOR ( 'NONE', #213, 1000.000000000000000 ) ;
#468 = ORIENTED_EDGE ( 'NONE', *, *, #126, .T. ) ;
#469 = DIRECTION ( 'NONE',  ( -1.000000000000000000, -4.524641714416864339E-15, 0.000000000000000000 ) ) ;
#470 = EDGE_CURVE ( 'NONE', #262, #547, #396, .T. ) ;
#471 = ORIENTED_EDGE ( 'NONE', *, *, #952, .F. ) ;
#472 = DIRECTION ( 'NONE',  ( -4.495918367346943426E-15, 1.000000000000000000, -0.000000000000000000 ) ) ;
#473 = CARTESIAN_POINT ( 'NONE',  ( -2.113081632653064877E-13, 47.00000000000003553, 0.000000000000000000 ) ) ;
#474 = EDGE_LOOP ( 'NONE', ( #339, #579, #79, #171 ) ) ;
#475 = DIRECTION ( 'NONE',  ( -4.495918367346943426E-15, 1.000000000000000000, -0.000000000000000000 ) ) ;
#476 = DIRECTION ( 'NONE',  ( -4.495918367346943426E-15, 1.000000000000000000, -0.000000000000000000 ) ) ;
#477 = CIRCLE ( 'NONE', #291, 0.7999999999999986011 ) ;
#478 = ORIENTED_EDGE ( 'NONE', *, *, #991, .F. ) ;
#479 = CONICAL_SURFACE ( 'NONE', #310, 3.249999999999887201, 0.7853981633973147192 ) ;
#480 = EDGE_CURVE ( 'NONE', #896, #106, #454, .T. ) ;
#481 = FACE_OUTER_BOUND ( 'NONE', #499, .T. ) ;
#482 = ORIENTED_EDGE ( 'NONE', *, *, #234, .T. ) ;
#483 = DIRECTION ( 'NONE',  ( -1.000000000000000000, -4.163336342340334346E-15, 0.000000000000000000 ) ) ;
#484 = EDGE_CURVE ( 'NONE', #1007, #332, #333, .T. ) ;
#485 = PLANE ( 'NONE',  #1030 ) ;
#486 = ORIENTED_EDGE ( 'NONE', *, *, #911, .T. ) ;
#487 = UNCERTAINTY_MEASURE_WITH_UNIT (LENGTH_MEASURE( 1.000000000000000082E-05 ), #654, 'distance_accuracy_value', 'NONE');
#488 = DIRECTION ( 'NONE',  ( -1.000000000000000000, 0.000000000000000000, 0.000000000000000000 ) ) ;
#489 = ADVANCED_FACE ( 'NONE', ( #784 ), #620, .T. ) ;
#490 =( LENGTH_UNIT ( ) NAMED_UNIT ( * ) SI_UNIT ( .MILLI., .METRE. ) );
#491 = ORIENTED_EDGE ( 'NONE', *, *, #952, .T. ) ;
#492 = AXIS2_PLACEMENT_3D ( 'NONE', #423, #836, #198 ) ;
#493 = CIRCLE ( 'NONE', #6, 2.499999999999610534 ) ;
#494 = CARTESIAN_POINT ( 'NONE',  ( 1.000000000001669109, 0.5773502691907131945, 1.224646799149400301E-16 ) ) ;
#495 = AXIS2_PLACEMENT_3D ( 'NONE', #512, #188, #933 ) ;
#496 = AXIS2_PLACEMENT_3D ( 'NONE', #842, #686, #360 ) ;
#497 = PRODUCT_DEFINITION_FORMATION_WITH_SPECIFIED_SOURCE ( 'ANY', '', #949, .NOT_KNOWN. ) ;
#498 = DIRECTION ( 'NONE',  ( -4.495918367346943426E-15, 1.000000000000000000, -0.000000000000000000 ) ) ;
#499 = EDGE_LOOP ( 'NONE', ( #923, #2, #912, #453 ) ) ;
#500 =( NAMED_UNIT ( * ) SI_UNIT ( $, .STERADIAN. ) SOLID_ANGLE_UNIT ( ) );
#501 = EDGE_CURVE ( 'NONE', #907, #528, #349, .T. ) ;
#502 = VERTEX_POINT ( 'NONE', #300 ) ;
#503 = DIRECTION ( 'NONE',  ( -4.495918367346943426E-15, 1.000000000000000000, -0.000000000000000000 ) ) ;
#504 = CARTESIAN_POINT ( 'NONE',  ( 3.049999999999776001, 41.91905249806892186, 3.735172737399384252E-16 ) ) ;
#505 = ORIENTED_EDGE ( 'NONE', *, *, #841, .T. ) ;
#506 = FACE_OUTER_BOUND ( 'NONE', #932, .T. ) ;
#507 = ORIENTED_EDGE ( 'NONE', *, *, #480, .T. ) ;
#508 = DIRECTION ( 'NONE',  ( -4.495918367346943426E-15, 1.000000000000000000, -0.000000000000000000 ) ) ;
#509 = CARTESIAN_POINT ( 'NONE',  ( 3.349999999999730527, 35.03431457505081426, 4.102566777143495723E-16 ) ) ;
#510 = VERTEX_POINT ( 'NONE', #71 ) ;
#511 = ORIENTED_EDGE ( 'NONE', *, *, #597, .T. ) ;
#512 = CARTESIAN_POINT ( 'NONE',  ( -1.854189561769538882E-13, 41.24161984870963948, 0.000000000000000000 ) ) ;
#513 = EDGE_LOOP ( 'NONE', ( #1027, #120, #13, #103 ) ) ;
#514 = LINE ( 'NONE', #45, #694 ) ;
#515 = AXIS2_PLACEMENT_3D ( 'NONE', #792, #74, #219 ) ;
#516 = EDGE_CURVE ( 'NONE', #901, #743, #369, .T. ) ;
#517 = FACE_OUTER_BOUND ( 'NONE', #655, .T. ) ;
#518 = CIRCLE ( 'NONE', #707, 2.999999999999958256 ) ;
#519 = CONICAL_SURFACE ( 'NONE', #20, 5.999999999999919176, 0.7853981633968628584 ) ;
#520 = ORIENTED_EDGE ( 'NONE', *, *, #452, .T. ) ;
#521 = CARTESIAN_POINT ( 'NONE',  ( -2.113081632653064877E-13, 47.00000000000003553, 0.000000000000000000 ) ) ;
#522 = VERTEX_POINT ( 'NONE', #626 ) ;
#523 = CARTESIAN_POINT ( 'NONE',  ( 2.499999999999419131, 42.49999999999969447, 3.061616997867906373E-16 ) ) ;
#524 = CARTESIAN_POINT ( 'NONE',  ( 5.000000000004781953, 4.577350269193836141, 6.123233995742648227E-16 ) ) ;
#525 = PRODUCT_RELATED_PRODUCT_CATEGORY ( 'part', '', ( #949 ) ) ;
#526 = ORIENTED_EDGE ( 'NONE', *, *, #673, .F. ) ;
#527 = CARTESIAN_POINT ( 'NONE',  ( -2.750000000000153655, 40.50000000000004263, 3.673940397441974079E-16 ) ) ;
#528 = VERTEX_POINT ( 'NONE', #130 ) ;
#529 = DIRECTION ( 'NONE',  ( -4.495918367346943426E-15, 1.000000000000000000, -0.000000000000000000 ) ) ;
#530 = CARTESIAN_POINT ( 'NONE',  ( -1.575114183853817379E-13, 35.03431457505082847, 0.000000000000000000 ) ) ;
#531 = ORIENTED_EDGE ( 'NONE', *, *, #484, .F. ) ;
#532 = DIRECTION ( 'NONE',  ( -4.495918367346943426E-15, 1.000000000000000000, -0.000000000000000000 ) ) ;
#533 = FACE_OUTER_BOUND ( 'NONE', #693, .T. ) ;
#534 = EDGE_CURVE ( 'NONE', #106, #763, #538, .T. ) ;
#535 = DIRECTION ( 'NONE',  ( -4.495918367346943426E-15, 1.000000000000000000, -0.000000000000000000 ) ) ;
#536 = LINE ( 'NONE', #865, #94 ) ;
#537 = DIRECTION ( 'NONE',  ( -4.495918367346943426E-15, 1.000000000000000000, -0.000000000000000000 ) ) ;
#538 = CIRCLE ( 'NONE', #93, 3.249999999999887201 ) ;
#539 = ORIENTED_EDGE ( 'NONE', *, *, #991, .T. ) ;
#540 = CONICAL_SURFACE ( 'NONE', #823, 3.067157287525256848, 0.7853981633972407783 ) ;
#541 = CIRCLE ( 'NONE', #900, 2.999999999999976019 ) ;
#542 = COLOUR_RGB ( '',0.7921568627450980005, 0.8196078431372548767, 0.9333333333333333481 ) ;
#543 = ADVANCED_FACE ( 'NONE', ( #314 ), #665, .T. ) ;
#544 = VERTEX_POINT ( 'NONE', #961 ) ;
#545 = DIRECTION ( 'NONE',  ( -4.495918367346943426E-15, 1.000000000000000000, -0.000000000000000000 ) ) ;
#546 = CARTESIAN_POINT ( 'NONE',  ( -2.057939314904893306E-14, 4.577350269193813936, 0.000000000000000000 ) ) ;
#547 = VERTEX_POINT ( 'NONE', #382 ) ;
#548 = ADVANCED_FACE ( 'NONE', ( #59 ), #374, .T. ) ;
#549 = DIRECTION ( 'NONE',  ( -4.495918367346943426E-15, 1.000000000000000000, -0.000000000000000000 ) ) ;
#550 = DIRECTION ( 'NONE',  ( -1.000000000000000000, -4.510281037535367599E-15, 0.000000000000000000 ) ) ;
#551 = FACE_OUTER_BOUND ( 'NONE', #427, .T. ) ;
#552 = ORIENTED_EDGE ( 'NONE', *, *, #1, .T. ) ;
#553 = DIRECTION ( 'NONE',  ( -4.495918367346943426E-15, 1.000000000000000000, -0.000000000000000000 ) ) ;
#554 = EDGE_CURVE ( 'NONE', #547, #747, #405, .T. ) ;
#555 = CARTESIAN_POINT ( 'NONE',  ( 4.930380657631323784E-29, 1.108329447832838545E-43, 3.018987445473111600E-45 ) ) ;
#556 = AXIS2_PLACEMENT_3D ( 'NONE', #154, #549, #799 ) ;
#557 = DIRECTION ( 'NONE',  ( -4.495918367346943426E-15, 1.000000000000000000, -0.000000000000000000 ) ) ;
#558 = AXIS2_PLACEMENT_3D ( 'NONE', #1036, #886, #706 ) ;
#559 = VERTEX_POINT ( 'NONE', #631 ) ;
#560 = LINE ( 'NONE', #879, #467 ) ;
#561 = FACE_OUTER_BOUND ( 'NONE', #1002, .T. ) ;
#562 = ORIENTED_EDGE ( 'NONE', *, *, #458, .F. ) ;
#563 = DIRECTION ( 'NONE',  ( -4.495918367346943426E-15, 1.000000000000000000, -0.000000000000000000 ) ) ;
#564 = EDGE_CURVE ( 'NONE', #229, #54, #636, .T. ) ;
#565 = VERTEX_POINT ( 'NONE', #903 ) ;
#566 = DIRECTION ( 'NONE',  ( -4.495918367346943426E-15, 1.000000000000000000, -0.000000000000000000 ) ) ;
#567 = AXIS2_PLACEMENT_3D ( 'NONE', #955, #702, #235 ) ;
#568 = AXIS2_PLACEMENT_3D ( 'NONE', #376, #196, #395 ) ;
#569 = EDGE_CURVE ( 'NONE', #502, #565, #605, .T. ) ;
#570 = ORIENTED_EDGE ( 'NONE', *, *, #709, .T. ) ;
#571 = FACE_OUTER_BOUND ( 'NONE', #711, .T. ) ;
#572 = SURFACE_STYLE_FILL_AREA ( #257 ) ;
#573 = VERTEX_POINT ( 'NONE', #85 ) ;
#574 = DIRECTION ( 'NONE',  ( -1.000000000000000000, 0.000000000000000000, 0.000000000000000000 ) ) ;
#575 = EDGE_CURVE ( 'NONE', #522, #747, #384, .T. ) ;
#576 = FACE_BOUND ( 'NONE', #381, .T. ) ;
#577 = CARTESIAN_POINT ( 'NONE',  ( -1.933244897959183669E-13, 42.99999999999996447, 0.000000000000000000 ) ) ;
#578 = EDGE_CURVE ( 'NONE', #688, #559, #429, .T. ) ;
#579 = ORIENTED_EDGE ( 'NONE', *, *, #378, .F. ) ;
#580 = ORIENTED_EDGE ( 'NONE', *, *, #463, .F. ) ;
#581 = AXIS2_PLACEMENT_3D ( 'NONE', #108, #755, #37 ) ;
#582 = CIRCLE ( 'NONE', #133, 2.999999999999976019 ) ;
#583 = CARTESIAN_POINT ( 'NONE',  ( 3.249999999999656719, 48.99999999999996447, 3.980102097228747362E-16 ) ) ;
#584 = VECTOR ( 'NONE', #330, 1000.000000000000114 ) ;
#585 = AXIS2_PLACEMENT_3D ( 'NONE', #745, #29, #345 ) ;
#586 = ORIENTED_EDGE ( 'NONE', *, *, #271, .T. ) ;
#587 = CARTESIAN_POINT ( 'NONE',  ( -2.203000000000000054E-13, 48.99999999999995026, 0.000000000000000000 ) ) ;
#588 = DIRECTION ( 'NONE',  ( -1.000000000000000000, -4.510281037535357344E-15, 0.000000000000000000 ) ) ;
#589 = UNCERTAINTY_MEASURE_WITH_UNIT (LENGTH_MEASURE( 1.000000000000000082E-05 ), #490, 'distance_accuracy_value', 'NONE');
#590 = CARTESIAN_POINT ( 'NONE',  ( -2.595719679647199671E-15, 0.5773502691907086426, 0.000000000000000000 ) ) ;
#591 = DIRECTION ( 'NONE',  ( 1.000000000000000000, 0.000000000000000000, 1.224646799147353454E-16 ) ) ;
#592 = ORIENTED_EDGE ( 'NONE', *, *, #362, .F. ) ;
#593 = ORIENTED_EDGE ( 'NONE', *, *, #875, .F. ) ;
#594 = CARTESIAN_POINT ( 'NONE',  ( -2.202999999999999802E-13, 48.99999999999994316, 0.000000000000000000 ) ) ;
#595 = PRODUCT_CONTEXT ( 'NONE', #772, 'mechanical' ) ;
#596 = ORIENTED_EDGE ( 'NONE', *, *, #906, .T. ) ;
#597 = EDGE_CURVE ( 'NONE', #502, #942, #477, .T. ) ;
#598 = DIRECTION ( 'NONE',  ( -4.495918367346943426E-15, 1.000000000000000000, -0.000000000000000000 ) ) ;
#599 = CARTESIAN_POINT ( 'NONE',  ( -1.546595918367345623E-13, 34.39999999999993463, 0.000000000000000000 ) ) ;
#600 = VERTEX_POINT ( 'NONE', #720 ) ;
#601 = VERTEX_POINT ( 'NONE', #971 ) ;
#602 = EDGE_CURVE ( 'NONE', #565, #896, #898, .T. ) ;
#603 = CARTESIAN_POINT ( 'NONE',  ( -2.250000000000153655, 41.91905249806890765, 0.000000000000000000 ) ) ;
#604 = AXIS2_PLACEMENT_3D ( 'NONE', #1035, #698, #275 ) ;
#605 = CIRCLE ( 'NONE', #409, 2.249999999999950706 ) ;
#606 = LINE ( 'NONE', #46, #354 ) ;
#607 = AXIS2_PLACEMENT_3D ( 'NONE', #833, #476, #812 ) ;
#608 = VECTOR ( 'NONE', #434, 1000.000000000000000 ) ;
#609 = EDGE_LOOP ( 'NONE', ( #247, #187, #791, #732 ) ) ;
#610 = ORIENTED_EDGE ( 'NONE', *, *, #353, .F. ) ;
#611 = DIRECTION ( 'NONE',  ( -0.7071067811866000863, 0.7071067811864949482, 0.000000000000000000 ) ) ;
#612 = DIRECTION ( 'NONE',  ( -1.000000000000000000, -3.083952846181038598E-15, 0.000000000000000000 ) ) ;
#613 = EDGE_CURVE ( 'NONE', #769, #24, #1042, .T. ) ;
#614 = CARTESIAN_POINT ( 'NONE',  ( 2.999999999999746869, 48.99999999999996447, 3.673940397442019439E-16 ) ) ;
#615 = ORIENTED_EDGE ( 'NONE', *, *, #173, .T. ) ;
#616 = DIRECTION ( 'NONE',  ( -4.495918367346943426E-15, 1.000000000000000000, -0.000000000000000000 ) ) ;
#617 = ADVANCED_FACE ( 'NONE', ( #561 ), #888, .F. ) ;
#618 = ORIENTED_EDGE ( 'NONE', *, *, #173, .F. ) ;
#619 = DIRECTION ( 'NONE',  ( -1.000000000000000000, -4.495918367346943426E-15, 0.000000000000000000 ) ) ;
#620 = CONICAL_SURFACE ( 'NONE', #515, 2.999999999999976019, 0.5235987755983178005 ) ;
#621 = CONICAL_SURFACE ( 'NONE', #646, 3.500000000000034195, 1.047197551196563436 ) ;
#622 = CIRCLE ( 'NONE', #633, 5.000000000004812151 ) ;
#623 = AXIS2_PLACEMENT_3D ( 'NONE', #594, #689, #114 ) ;
#624 = DIRECTION ( 'NONE',  ( -4.495918367346943426E-15, 1.000000000000000000, -0.000000000000000000 ) ) ;
#625 = ORIENTED_EDGE ( 'NONE', *, *, #234, .F. ) ;
#626 = CARTESIAN_POINT ( 'NONE',  ( 5.999999999999764633, 34.39999999999996305, 7.347880794883991546E-16 ) ) ;
#627 = CYLINDRICAL_SURFACE ( 'NONE', #255, 2.999999999999967137 ) ;
#628 = ORIENTED_EDGE ( 'NONE', *, *, #480, .F. ) ;
#629 = LINE ( 'NONE', #311, #738 ) ;
#630 = ORIENTED_EDGE ( 'NONE', *, *, #62, .F. ) ;
#631 = CARTESIAN_POINT ( 'NONE',  ( -2.950000000000045475, 35.03431457505081426, 0.000000000000000000 ) ) ;
#632 = CONICAL_SURFACE ( 'NONE', #180, 2.499999999999610534, 0.7853981633975181120 ) ;
#633 = AXIS2_PLACEMENT_3D ( 'NONE', #783, #297, #123 ) ;
#634 = CARTESIAN_POINT ( 'NONE',  ( 5.999999999999764633, 12.49999999998992273, 7.347880794883900827E-16 ) ) ;
#635 = EDGE_LOOP ( 'NONE', ( #478, #746, #630 ) ) ;
#636 = LINE ( 'NONE', #401, #809 ) ;
#637 = ADVANCED_FACE ( 'NONE', ( #159 ), #645, .F. ) ;
#638 = CARTESIAN_POINT ( 'NONE',  ( 0.000000000000000000, -1.108329447832838545E-43, 0.000000000000000000 ) ) ;
#639 = ORIENTED_EDGE ( 'NONE', *, *, #597, .F. ) ;
#640 = CARTESIAN_POINT ( 'NONE',  ( -2.203000000000000054E-13, 48.99999999999995026, 0.000000000000000000 ) ) ;
#641 = ADVANCED_FACE ( 'NONE', ( #329 ), #253, .T. ) ;
#642 = EDGE_LOOP ( 'NONE', ( #857, #983, #35, #152 ) ) ;
#643 = DIRECTION ( 'NONE',  ( -1.000000000000000000, -4.625929269271547642E-15, 0.000000000000000000 ) ) ;
#644 = CARTESIAN_POINT ( 'NONE',  ( -5.000000000004858336, 10.26393202249704117, 0.000000000000000000 ) ) ;
#645 = CONICAL_SURFACE ( 'NONE', #166, 3.500000000000034195, 1.047197551196563436 ) ;
#646 = AXIS2_PLACEMENT_3D ( 'NONE', #206, #443, #217 ) ;
#647 = STYLED_ITEM ( 'NONE', ( #735 ), #853 ) ;
#648 = ORIENTED_EDGE ( 'NONE', *, *, #317, .F. ) ;
#649 = ADVANCED_FACE ( 'NONE', ( #481 ), #814, .T. ) ;
#650 = CARTESIAN_POINT ( 'NONE',  ( -1.886511780124777715E-13, 41.91905249806890765, 0.000000000000000000 ) ) ;
#651 = VECTOR ( 'NONE', #611, 1000.000000000000000 ) ;
#652 = CIRCLE ( 'NONE', #337, 3.067157287525256848 ) ;
#653 = DIRECTION ( 'NONE',  ( 0.000000000000000000, -0.000000000000000000, -1.000000000000000000 ) ) ;
#654 =( LENGTH_UNIT ( ) NAMED_UNIT ( * ) SI_UNIT ( .MILLI., .METRE. ) );
#655 = EDGE_LOOP ( 'NONE', ( #265, #238, #648, #471 ) ) ;
#656 = ADVANCED_FACE ( 'NONE', ( #571 ), #632, .T. ) ;
#657 = LINE ( 'NONE', #494, #889 ) ;
#658 = ORIENTED_EDGE ( 'NONE', *, *, #331, .T. ) ;
#659 = CARTESIAN_POINT ( 'NONE',  ( 3.499999999999879208, 34.50000000000011369, 0.000000000000000000 ) ) ;
#660 = SURFACE_STYLE_FILL_AREA ( #845 ) ;
#661 = ORIENTED_EDGE ( 'NONE', *, *, #795, .F. ) ;
#662 = DIRECTION ( 'NONE',  ( -4.495918367346943426E-15, 1.000000000000000000, -0.000000000000000000 ) ) ;
#663 = DIRECTION ( 'NONE',  ( -0.7071067811864041319, 0.7071067811866910136, 0.000000000000000000 ) ) ;
#664 = EDGE_LOOP ( 'NONE', ( #47, #876, #859, #856 ) ) ;
#665 = CONICAL_SURFACE ( 'NONE', #846, 3.067157287525256848, 0.7853981633972407783 ) ;
#666 = DIRECTION ( 'NONE',  ( -4.495918367346943426E-15, 1.000000000000000000, -0.000000000000000000 ) ) ;
#667 = AXIS2_PLACEMENT_3D ( 'NONE', #590, #508, #759 ) ;
#668 = AXIS2_PLACEMENT_3D ( 'NONE', #713, #141, #790 ) ;
#669 = DIRECTION ( 'NONE',  ( -4.495918367346943426E-15, 1.000000000000000000, -0.000000000000000000 ) ) ;
#670 = CIRCLE ( 'NONE', #56, 0.7999999999999994893 ) ;
#671 = CARTESIAN_POINT ( 'NONE',  ( 0.000000000000000000, 0.000000000000000000, 0.000000000000000000 ) ) ;
#672 = EDGE_LOOP ( 'NONE', ( #258, #210, #313, #562 ) ) ;
#673 = EDGE_CURVE ( 'NONE', #763, #106, #51, .T. ) ;
#674 = ORIENTED_EDGE ( 'NONE', *, *, #110, .F. ) ;
#675 = CARTESIAN_POINT ( 'NONE',  ( -6.000000000000090594, 48.99999999999992895, 0.000000000000000000 ) ) ;
#676 = DIRECTION ( 'NONE',  ( 0.000000000000000000, 0.000000000000000000, 1.000000000000000000 ) ) ;
#677 = ORIENTED_EDGE ( 'NONE', *, *, #516, .T. ) ;
#678 = CARTESIAN_POINT ( 'NONE',  ( -2.203000000000000054E-13, 48.99999999999995026, 0.000000000000000000 ) ) ;
#679 = CARTESIAN_POINT ( 'NONE',  ( -3.250000000000097256, 48.99999999999993605, 0.000000000000000000 ) ) ;
#680 = CARTESIAN_POINT ( 'NONE',  ( -3.250000000000067057, 39.99999999999999289, 3.980102097228759688E-16 ) ) ;
#681 = ORIENTED_EDGE ( 'NONE', *, *, #1, .F. ) ;
#682 = LINE ( 'NONE', #614, #57 ) ;
#683 = EDGE_CURVE ( 'NONE', #1007, #559, #319, .T. ) ;
#684 = CYLINDRICAL_SURFACE ( 'NONE', #604, 5.999999999999870326 ) ;
#685 = LINE ( 'NONE', #679, #19 ) ;
#686 = DIRECTION ( 'NONE',  ( -4.495918367346943426E-15, 1.000000000000000000, -0.000000000000000000 ) ) ;
#687 = ORIENTED_EDGE ( 'NONE', *, *, #997, .F. ) ;
#688 = VERTEX_POINT ( 'NONE', #895 ) ;
#689 = DIRECTION ( 'NONE',  ( 4.495918367346943426E-15, -1.000000000000000000, 0.000000000000000000 ) ) ;
#690 = FACE_OUTER_BOUND ( 'NONE', #284, .T. ) ;
#691 = FACE_OUTER_BOUND ( 'NONE', #361, .T. ) ;
#692 = ADVANCED_FACE ( 'NONE', ( #162 ), #993, .T. ) ;
#693 = EDGE_LOOP ( 'NONE', ( #461, #904 ) ) ;
#694 = VECTOR ( 'NONE', #117, 999.9999999999998863 ) ;
#695 = DIRECTION ( 'NONE',  ( -4.495918367346943426E-15, 1.000000000000000000, -0.000000000000000000 ) ) ;
#696 = CIRCLE ( 'NONE', #168, 5.000000000004801493 ) ;
#697 = AXIS2_PLACEMENT_3D ( 'NONE', #50, #1019, #700 ) ;
#698 = DIRECTION ( 'NONE',  ( -4.495918367346943426E-15, 1.000000000000000000, -0.000000000000000000 ) ) ;
#699 = ADVANCED_FACE ( 'NONE', ( #691 ), #774, .T. ) ;
#700 = DIRECTION ( 'NONE',  ( -1.000000000000000000, -4.495918367346943426E-15, 0.000000000000000000 ) ) ;
#701 = DIRECTION ( 'NONE',  ( -1.000000000000000000, -4.510281037535357344E-15, 0.000000000000000000 ) ) ;
#702 = DIRECTION ( 'NONE',  ( -4.495918367346943426E-15, 1.000000000000000000, -0.000000000000000000 ) ) ;
#703 = LINE ( 'NONE', #555, #829 ) ;
#704 = FACE_OUTER_BOUND ( 'NONE', #1016, .T. ) ;
#705 = ORIENTED_EDGE ( 'NONE', *, *, #463, .T. ) ;
#706 = DIRECTION ( 'NONE',  ( -1.000000000000000000, -4.486912934895896824E-15, 0.000000000000000000 ) ) ;
#707 = AXIS2_PLACEMENT_3D ( 'NONE', #577, #1003, #938 ) ;
#708 = MECHANICAL_DESIGN_GEOMETRIC_PRESENTATION_REPRESENTATION (  '', ( #169 ), #739 ) ;
#709 = EDGE_CURVE ( 'NONE', #125, #843, #622, .T. ) ;
#710 = CARTESIAN_POINT ( 'NONE',  ( 1.000000000001669331, 0.5773502691907131945, 1.224646799149400548E-16 ) ) ;
#711 = EDGE_LOOP ( 'NONE', ( #596, #161, #715, #76 ) ) ;
#712 = FACE_OUTER_BOUND ( 'NONE', #1018, .T. ) ;
#713 = CARTESIAN_POINT ( 'NONE',  ( -2.203000000000000054E-13, 48.99999999999995026, 0.000000000000000000 ) ) ;
#714 = ADVANCED_FACE ( 'NONE', ( #440 ), #55, .T. ) ;
#715 = ORIENTED_EDGE ( 'NONE', *, *, #96, .F. ) ;
#716 = CARTESIAN_POINT ( 'NONE',  ( -1.575114183853817379E-13, 35.03431457505082847, 0.000000000000000000 ) ) ;
#717 = ORIENTED_EDGE ( 'NONE', *, *, #22, .T. ) ;
#718 = DIRECTION ( 'NONE',  ( -4.495918367346943426E-15, 1.000000000000000000, -0.000000000000000000 ) ) ;
#719 = EDGE_CURVE ( 'NONE', #769, #267, #536, .T. ) ;
#720 = CARTESIAN_POINT ( 'NONE',  ( -2.950000000000049916, 34.52886751345947403, 0.000000000000000000 ) ) ;
#721 = CIRCLE ( 'NONE', #872, 5.899999999999881339 ) ;
#722 = DIRECTION ( 'NONE',  ( -1.000000000000000000, -4.510281037535367599E-15, 0.000000000000000000 ) ) ;
#723 = ORIENTED_EDGE ( 'NONE', *, *, #110, .T. ) ;
#724 = DIRECTION ( 'NONE',  ( -4.495918367346943426E-15, 1.000000000000000000, -0.000000000000000000 ) ) ;
#725 = ADVANCED_FACE ( 'NONE', ( #135 ), #794, .T. ) ;
#726 = DIRECTION ( 'NONE',  ( -4.495918367346943426E-15, 1.000000000000000000, -0.000000000000000000 ) ) ;
#727 = CARTESIAN_POINT ( 'NONE',  ( 3.499999999999879208, 34.50000000000012079, 4.286263797015778010E-16 ) ) ;
#728 = ORIENTED_EDGE ( 'NONE', *, *, #602, .F. ) ;
#729 = DIRECTION ( 'NONE',  ( -4.495918367346943426E-15, 1.000000000000000000, -0.000000000000000000 ) ) ;
#730 = EDGE_CURVE ( 'NONE', #741, #600, #153, .T. ) ;
#731 = DIRECTION ( 'NONE',  ( 1.000000000000000000, 4.625929269271547642E-15, 0.000000000000000000 ) ) ;
#732 = ORIENTED_EDGE ( 'NONE', *, *, #308, .F. ) ;
#733 = CARTESIAN_POINT ( 'NONE',  ( -1.798367346938777749E-13, 40.00000000000000711, 0.000000000000000000 ) ) ;
#734 = CONICAL_SURFACE ( 'NONE', #113, 2.999999999999976019, 0.5235987755983178005 ) ;
#735 = PRESENTATION_STYLE_ASSIGNMENT (( #177 ) ) ;
#736 = AXIS2_PLACEMENT_3D ( 'NONE', #304, #616, #951 ) ;
#737 = ADVANCED_FACE ( 'NONE', ( #150 ), #309, .T. ) ;
#738 = VECTOR ( 'NONE', #537, 1000.000000000000000 ) ;
#739 =( GEOMETRIC_REPRESENTATION_CONTEXT ( 3 ) GLOBAL_UNCERTAINTY_ASSIGNED_CONTEXT ( ( #928 ) ) GLOBAL_UNIT_ASSIGNED_CONTEXT ( ( #994, #1001, #280 ) ) REPRESENTATION_CONTEXT ( 'NONE', 'WORKASPACE' ) );
#740 = CARTESIAN_POINT ( 'NONE',  ( 2.999999999999765077, 47.00000000000004974, 0.000000000000000000 ) ) ;
#741 = VERTEX_POINT ( 'NONE', #157 ) ;
#742 = SHAPE_DEFINITION_REPRESENTATION ( #781, #185 ) ;
#743 = VERTEX_POINT ( 'NONE', #710 ) ;
#744 = DIRECTION ( 'NONE',  ( 0.4082482904632196985, 0.9128709291755644495, 4.999599621731659779E-17 ) ) ;
#745 = CARTESIAN_POINT ( 'NONE',  ( -1.552389696574516786E-13, 34.52886751345948824, 0.000000000000000000 ) ) ;
#746 = ORIENTED_EDGE ( 'NONE', *, *, #749, .T. ) ;
#747 = VERTEX_POINT ( 'NONE', #878 ) ;
#748 = CARTESIAN_POINT ( 'NONE',  ( -1.596051020408168995E-13, 35.50000000000009237, 0.000000000000000000 ) ) ;
#749 = EDGE_CURVE ( 'NONE', #316, #901, #455, .T. ) ;
#750 = DIRECTION ( 'NONE',  ( 0.7071067811861369012, -0.7071067811869582442, 0.000000000000000000 ) ) ;
#751 = VERTEX_POINT ( 'NONE', #1049 ) ;
#752 = ORIENTED_EDGE ( 'NONE', *, *, #858, .F. ) ;
#753 = LINE ( 'NONE', #920, #957 ) ;
#754 = VECTOR ( 'NONE', #230, 1000.000000000000114 ) ;
#755 = DIRECTION ( 'NONE',  ( 4.495918367346943426E-15, -1.000000000000000000, 0.000000000000000000 ) ) ;
#756 = DIRECTION ( 'NONE',  ( -1.000000000000000000, -4.704334850106769541E-15, 0.000000000000000000 ) ) ;
#757 = CONICAL_SURFACE ( 'NONE', #581, 3.249999999999887201, 0.7853981633973147192 ) ;
#758 = AXIS2_PLACEMENT_3D ( 'NONE', #678, #529, #128 ) ;
#759 = DIRECTION ( 'NONE',  ( -1.000000000000000000, -4.445228907183137899E-15, 0.000000000000000000 ) ) ;
#760 = VECTOR ( 'NONE', #23, 999.9999999999998863 ) ;
#761 = DIRECTION ( 'NONE',  ( -1.224646799147353207E-16, -5.505912037799228575E-31, 1.000000000000000000 ) ) ;
#762 = VERTEX_POINT ( 'NONE', #386 ) ;
#763 = VERTEX_POINT ( 'NONE', #380 ) ;
#764 = CARTESIAN_POINT ( 'NONE',  ( 0.000000000000000000, 0.000000000000000000, 0.000000000000000000 ) ) ;
#765 = CARTESIAN_POINT ( 'NONE',  ( 3.249999999999706901, 40.00000000000002132, 3.980102097228753771E-16 ) ) ;
#766 = EDGE_LOOP ( 'NONE', ( #674, #868, #158, #391 ) ) ;
#767 = DIRECTION ( 'NONE',  ( -4.495918367346943426E-15, 1.000000000000000000, -0.000000000000000000 ) ) ;
#768 = EDGE_CURVE ( 'NONE', #24, #769, #1046, .T. ) ;
#769 = VERTEX_POINT ( 'NONE', #785 ) ;
#770 = CARTESIAN_POINT ( 'NONE',  ( -2.499999999999801936, 42.49999999999967315, 0.000000000000000000 ) ) ;
#771 = DIRECTION ( 'NONE',  ( -1.000000000000000000, -3.083952846181038598E-15, 0.000000000000000000 ) ) ;
#772 = APPLICATION_CONTEXT ( 'automotive_design' ) ;
#773 = ORIENTED_EDGE ( 'NONE', *, *, #66, .T. ) ;
#774 = CYLINDRICAL_SURFACE ( 'NONE', #240, 2.949999999999890932 ) ;
#775 = ADVANCED_FACE ( 'NONE', ( #551 ), #627, .T. ) ;
#776 = AXIS2_PLACEMENT_3D ( 'NONE', #733, #18, #334 ) ;
#777 = AXIS2_PLACEMENT_3D ( 'NONE', #850, #669, #922 ) ;
#778 = AXIS2_PLACEMENT_3D ( 'NONE', #800, #9, #75 ) ;
#779 = DIRECTION ( 'NONE',  ( -1.000000000000000000, -4.524641714416864339E-15, 0.000000000000000000 ) ) ;
#780 = CIRCLE ( 'NONE', #496, 3.500000000000034195 ) ;
#781 = PRODUCT_DEFINITION_SHAPE ( 'NONE', 'NONE',  #15 ) ;
#782 = DIRECTION ( 'NONE',  ( -4.495918367346943426E-15, 1.000000000000000000, -0.000000000000000000 ) ) ;
#783 = CARTESIAN_POINT ( 'NONE',  ( -4.614580050114497762E-14, 10.26393202249706249, 0.000000000000000000 ) ) ;
#784 = FACE_OUTER_BOUND ( 'NONE', #321, .T. ) ;
#785 = CARTESIAN_POINT ( 'NONE',  ( -3.250000000000067057, 34.35566243270260145, 0.000000000000000000 ) ) ;
#786 = CARTESIAN_POINT ( 'NONE',  ( 5.899999999999725908, 34.50000000000012079, 0.000000000000000000 ) ) ;
#787 = ORIENTED_EDGE ( 'NONE', *, *, #575, .F. ) ;
#788 = DIRECTION ( 'NONE',  ( -1.000000000000000000, -4.270088556250750202E-15, 0.000000000000000000 ) ) ;
#789 = EDGE_CURVE ( 'NONE', #894, #54, #541, .T. ) ;
#790 = DIRECTION ( 'NONE',  ( -1.000000000000000000, -4.270088556250763613E-15, 0.000000000000000000 ) ) ;
#791 = ORIENTED_EDGE ( 'NONE', *, *, #149, .T. ) ;
#792 = CARTESIAN_POINT ( 'NONE',  ( -2.113081632653064877E-13, 47.00000000000003553, 0.000000000000000000 ) ) ;
#793 = VECTOR ( 'NONE', #503, 1000.000000000000000 ) ;
#794 = CONICAL_SURFACE ( 'NONE', #849, 1732.050807568524306, 1.047197551196509480 ) ;
#795 = EDGE_CURVE ( 'NONE', #1024, #224, #222, .T. ) ;
#796 = DIRECTION ( 'NONE',  ( -1.000000000000000000, -4.495918367346943426E-15, 0.000000000000000000 ) ) ;
#797 =( GEOMETRIC_REPRESENTATION_CONTEXT ( 3 ) GLOBAL_UNCERTAINTY_ASSIGNED_CONTEXT ( ( #487 ) ) GLOBAL_UNIT_ASSIGNED_CONTEXT ( ( #654, #274, #500 ) ) REPRESENTATION_CONTEXT ( 'NONE', 'WORKASPACE' ) );
#798 = VERTEX_POINT ( 'NONE', #634 ) ;
#799 = DIRECTION ( 'NONE',  ( -1.000000000000000000, -4.625929269271550009E-15, 0.000000000000000000 ) ) ;
#800 = CARTESIAN_POINT ( 'NONE',  ( -3.050000000000153477, 41.91905249806889344, 0.000000000000000000 ) ) ;
#801 = EDGE_CURVE ( 'NONE', #573, #393, #696, .T. ) ;
#802 = ORIENTED_EDGE ( 'NONE', *, *, #893, .F. ) ;
#803 = CARTESIAN_POINT ( 'NONE',  ( -1.546595918367345623E-13, 34.39999999999993463, 0.000000000000000000 ) ) ;
#804 = DIRECTION ( 'NONE',  ( -1.000000000000000000, -4.270088556250777024E-15, 0.000000000000000000 ) ) ;
#805 = DIRECTION ( 'NONE',  ( -1.000000000000000000, -4.625929269271536598E-15, 0.000000000000000000 ) ) ;
#806 = EDGE_CURVE ( 'NONE', #600, #559, #246, .T. ) ;
#807 = ORIENTED_EDGE ( 'NONE', *, *, #893, .T. ) ;
#808 = DIRECTION ( 'NONE',  ( -1.000000000000000000, -4.704334850106774274E-15, 0.000000000000000000 ) ) ;
#809 = VECTOR ( 'NONE', #724, 1000.000000000000000 ) ;
#810 = AXIS2_PLACEMENT_3D ( 'NONE', #268, #39, #996 ) ;
#811 = AXIS2_PLACEMENT_3D ( 'NONE', #546, #145, #550 ) ;
#812 = DIRECTION ( 'NONE',  ( -1.000000000000000000, -4.625929269271623373E-15, 0.000000000000000000 ) ) ;
#813 = ORIENTED_EDGE ( 'NONE', *, *, #281, .T. ) ;
#814 = CYLINDRICAL_SURFACE ( 'NONE', #970, 2.999999999999967137 ) ;
#815 = ORIENTED_EDGE ( 'NONE', *, *, #1005, .F. ) ;
#816 = PRODUCT_DEFINITION_CONTEXT ( 'detailed design', #460, 'design' ) ;
#817 = CARTESIAN_POINT ( 'NONE',  ( -1.910765306122436685E-13, 42.49999999999968736, 0.000000000000000000 ) ) ;
#818 = ADVANCED_FACE ( 'NONE', ( #874 ), #987, .F. ) ;
#819 =( NAMED_UNIT ( * ) PLANE_ANGLE_UNIT ( ) SI_UNIT ( $, .RADIAN. ) );
#820 = EDGE_LOOP ( 'NONE', ( #112, #552, #969, #880 ) ) ;
#821 = DIRECTION ( 'NONE',  ( -1.000000000000000000, -4.704334850106774274E-15, 0.000000000000000000 ) ) ;
#822 = CARTESIAN_POINT ( 'NONE',  ( -2.203000000000000054E-13, 48.99999999999995026, 0.000000000000000000 ) ) ;
#823 = AXIS2_PLACEMENT_3D ( 'NONE', #364, #1017, #276 ) ;
#824 = SURFACE_SIDE_STYLE ('',( #572 ) ) ;
#825 = AXIS2_PLACEMENT_3D ( 'NONE', #248, #472, #984 ) ;
#826 = AXIS2_PLACEMENT_3D ( 'NONE', #33, #498, #831 ) ;
#827 = ORIENTED_EDGE ( 'NONE', *, *, #881, .F. ) ;
#828 = AXIS2_PLACEMENT_3D ( 'NONE', #599, #99, #118 ) ;
#829 = VECTOR ( 'NONE', #962, 1000.000000000000000 ) ;
#830 = LINE ( 'NONE', #32, #793 ) ;
#831 = DIRECTION ( 'NONE',  ( -1.000000000000000000, -3.965082230804091960E-15, 0.000000000000000000 ) ) ;
#832 = EDGE_LOOP ( 'NONE', ( #773, #42, #618, #861 ) ) ;
#833 = CARTESIAN_POINT ( 'NONE',  ( -5.619897959179134418E-14, 12.49999999998989431, 0.000000000000000000 ) ) ;
#834 = ORIENTED_EDGE ( 'NONE', *, *, #1005, .T. ) ;
#835 = ADVANCED_FACE ( 'NONE', ( #704 ), #519, .T. ) ;
#836 = DIRECTION ( 'NONE',  ( -4.495918367346943426E-15, 1.000000000000000000, -0.000000000000000000 ) ) ;
#837 = DIRECTION ( 'NONE',  ( -1.224646799147353207E-16, -5.505912037799228575E-31, 1.000000000000000000 ) ) ;
#838 = ORIENTED_EDGE ( 'NONE', *, *, #858, .T. ) ;
#839 = DIRECTION ( 'NONE',  ( -1.000000000000000000, -3.083952846181048065E-15, 0.000000000000000000 ) ) ;
#840 = CARTESIAN_POINT ( 'NONE',  ( -2.595719679647199671E-15, 0.5773502691907086426, 0.000000000000000000 ) ) ;
#841 = EDGE_CURVE ( 'NONE', #843, #762, #16, .T. ) ;
#842 = CARTESIAN_POINT ( 'NONE',  ( -1.551091836734700018E-13, 34.50000000000010658, 0.000000000000000000 ) ) ;
#843 = VERTEX_POINT ( 'NONE', #414 ) ;
#844 = CARTESIAN_POINT ( 'NONE',  ( 2.999999999999765521, 47.00000000000004974, 3.673940397442024862E-16 ) ) ;
#845 = FILL_AREA_STYLE ('',( #1008 ) ) ;
#846 = AXIS2_PLACEMENT_3D ( 'NONE', #65, #446, #779 ) ;
#847 = LINE ( 'NONE', #49, #887 ) ;
#848 = CIRCLE ( 'NONE', #464, 5.999999999999821476 ) ;
#849 = AXIS2_PLACEMENT_3D ( 'NONE', #451, #38, #61 ) ;
#850 = CARTESIAN_POINT ( 'NONE',  ( -1.552577510999242349E-13, 34.52886751345949534, 0.000000000000000000 ) ) ;
#851 = DIRECTION ( 'NONE',  ( 1.000000000000000000, 0.000000000000000000, 1.224646799147353454E-16 ) ) ;
#852 = ADVANCED_FACE ( 'NONE', ( #576, #101 ), #485, .F. ) ;
#853 = MANIFOLD_SOLID_BREP ( '±ÛÂà1', #913 ) ;
#854 = EDGE_LOOP ( 'NONE', ( #943, #717, #486, #347 ) ) ;
#855 = PLANE ( 'NONE',  #623 ) ;
#856 = ORIENTED_EDGE ( 'NONE', *, *, #317, .T. ) ;
#857 = ORIENTED_EDGE ( 'NONE', *, *, #1050, .F. ) ;
#858 = EDGE_CURVE ( 'NONE', #798, #762, #914, .T. ) ;
#859 = ORIENTED_EDGE ( 'NONE', *, *, #795, .T. ) ;
#860 = LINE ( 'NONE', #442, #608 ) ;
#861 = ORIENTED_EDGE ( 'NONE', *, *, #841, .F. ) ;
#862 = VERTEX_POINT ( 'NONE', #83 ) ;
#863 = CARTESIAN_POINT ( 'NONE',  ( -1.884646380678488003E-13, 41.91905249806891476, 0.000000000000000000 ) ) ;
#864 = DIRECTION ( 'NONE',  ( -1.000000000000000000, -4.445228907183137899E-15, 0.000000000000000000 ) ) ;
#865 = CARTESIAN_POINT ( 'NONE',  ( -3.500000000000189626, 34.50000000000009237, 0.000000000000000000 ) ) ;
#866 = AXIS2_PLACEMENT_3D ( 'NONE', #1039, #307, #619 ) ;
#867 = CARTESIAN_POINT ( 'NONE',  ( -1.856154119295183591E-13, 41.24161984870963238, 0.000000000000000000 ) ) ;
#868 = ORIENTED_EDGE ( 'NONE', *, *, #982, .T. ) ;
#869 = AXIS2_PLACEMENT_3D ( 'NONE', #748, #598, #929 ) ;
#870 = VECTOR ( 'NONE', #325, 1000.000000000000000 ) ;
#871 = DIRECTION ( 'NONE',  ( 0.000000000000000000, -0.000000000000000000, -1.000000000000000000 ) ) ;
#872 = AXIS2_PLACEMENT_3D ( 'NONE', #1031, #456, #142 ) ;
#873 = ORIENTED_EDGE ( 'NONE', *, *, #288, .F. ) ;
#874 = FACE_OUTER_BOUND ( 'NONE', #664, .T. ) ;
#875 = EDGE_CURVE ( 'NONE', #896, #942, #295, .T. ) ;
#876 = ORIENTED_EDGE ( 'NONE', *, *, #906, .F. ) ;
#877 = CARTESIAN_POINT ( 'NONE',  ( -1.798367346938777749E-13, 40.00000000000000711, 0.000000000000000000 ) ) ;
#878 = CARTESIAN_POINT ( 'NONE',  ( -6.000000000000073719, 34.39999999999991331, 0.000000000000000000 ) ) ;
#879 = CARTESIAN_POINT ( 'NONE',  ( 3.067157287525097864, 35.31715728752541850, 3.756184354649284012E-16 ) ) ;
#880 = ORIENTED_EDGE ( 'NONE', *, *, #406, .F. ) ;
#881 = EDGE_CURVE ( 'NONE', #762, #747, #357, .T. ) ;
#882 = CARTESIAN_POINT ( 'NONE',  ( -1.820846938775514383E-13, 40.50000000000005684, 0.000000000000000000 ) ) ;
#883 = DIRECTION ( 'NONE',  ( -4.495918367346943426E-15, 1.000000000000000000, -0.000000000000000000 ) ) ;
#884 = DIRECTION ( 'NONE',  ( -4.495918367346943426E-15, 1.000000000000000000, -0.000000000000000000 ) ) ;
#885 = ORIENTED_EDGE ( 'NONE', *, *, #564, .T. ) ;
#886 = DIRECTION ( 'NONE',  ( -4.495918367346943426E-15, 1.000000000000000000, -0.000000000000000000 ) ) ;
#887 = VECTOR ( 'NONE', #31, 1000.000000000000000 ) ;
#888 = TOROIDAL_SURFACE ( 'NONE', #68, 3.349999999999887734, 0.3999999999999996336 ) ;
#889 = VECTOR ( 'NONE', #98, 1000.000000000000000 ) ;
#890 = ADVANCED_FACE ( 'NONE', ( #506 ), #301, .T. ) ;
#891 = FACE_OUTER_BOUND ( 'NONE', #474, .T. ) ;
#892 = ORIENTED_EDGE ( 'NONE', *, *, #683, .F. ) ;
#893 = EDGE_CURVE ( 'NONE', #565, #502, #398, .T. ) ;
#894 = VERTEX_POINT ( 'NONE', #844 ) ;
#895 = CARTESIAN_POINT ( 'NONE',  ( 2.949999999999730615, 35.03431457505084268, 3.612708057484556511E-16 ) ) ;
#896 = VERTEX_POINT ( 'NONE', #203 ) ;
#897 = DIRECTION ( 'NONE',  ( -1.224646799147353207E-16, -5.505912037799228575E-31, 1.000000000000000000 ) ) ;
#898 = CIRCLE ( 'NONE', #985, 0.7999999999999986011 ) ;
#899 = CONICAL_SURFACE ( 'NONE', #937, 1.000000000001671552, 0.7853981633974514986 ) ;
#900 = AXIS2_PLACEMENT_3D ( 'NONE', #473, #557, #963 ) ;
#901 = VERTEX_POINT ( 'NONE', #107 ) ;
#902 = EDGE_CURVE ( 'NONE', #129, #894, #682, .T. ) ;
#903 = CARTESIAN_POINT ( 'NONE',  ( 2.249999999999765077, 41.24161984870964659, 3.061616997868334823E-16 ) ) ;
#904 = ORIENTED_EDGE ( 'NONE', *, *, #501, .T. ) ;
#905 = DIRECTION ( 'NONE',  ( -1.000000000000000000, -4.270088556250763613E-15, 0.000000000000000000 ) ) ;
#906 = EDGE_CURVE ( 'NONE', #1024, #862, #493, .T. ) ;
#907 = VERTEX_POINT ( 'NONE', #36 ) ;
#908 = DIRECTION ( 'NONE',  ( -4.495918367346943426E-15, 1.000000000000000000, -0.000000000000000000 ) ) ;
#909 = FACE_OUTER_BOUND ( 'NONE', #4, .T. ) ;
#910 = AXIS2_PLACEMENT_3D ( 'NONE', #260, #653, #488 ) ;
#911 = EDGE_CURVE ( 'NONE', #54, #894, #582, .T. ) ;
#912 = ORIENTED_EDGE ( 'NONE', *, *, #911, .F. ) ;
#913 = CLOSED_SHELL ( 'NONE', ( #86, #649, #656, #1037, #404, #251, #72, #692, #543, #617, #699, #160, #637, #368, #48, #81, #641, #27, #422, #725, #190, #940, #242, #548, #835, #852, #41, #1021, #714, #437, #176, #737, #312, #966, #890, #818, #390, #775, #489, #930 ) ) ;
#914 = CIRCLE ( 'NONE', #607, 5.999999999999821476 ) ;
#915 = AXIS2_PLACEMENT_3D ( 'NONE', #924, #285, #804 ) ;
#916 = ORIENTED_EDGE ( 'NONE', *, *, #215, .F. ) ;
#917 = CIRCLE ( 'NONE', #449, 2.249999999999964917 ) ;
#918 = CARTESIAN_POINT ( 'NONE',  ( 5.000000000004765965, 10.26393202249708558, 6.123233995742659073E-16 ) ) ;
#919 = ORIENTED_EDGE ( 'NONE', *, *, #730, .T. ) ;
#920 = CARTESIAN_POINT ( 'NONE',  ( 2.949999999999670663, 48.99999999999996447, 3.612708057484558483E-16 ) ) ;
#921 = ORIENTED_EDGE ( 'NONE', *, *, #534, .T. ) ;
#922 = DIRECTION ( 'NONE',  ( -1.000000000000000000, -4.495918367346943426E-15, 0.000000000000000000 ) ) ;
#923 = ORIENTED_EDGE ( 'NONE', *, *, #96, .T. ) ;
#924 = CARTESIAN_POINT ( 'NONE',  ( -1.596051020408168995E-13, 35.50000000000009237, 0.000000000000000000 ) ) ;
#925 = APPLICATION_PROTOCOL_DEFINITION ( 'draft international standard', 'automotive_design', 1998, #460 ) ;
#926 = ORIENTED_EDGE ( 'NONE', *, *, #1050, .T. ) ;
#927 = DIRECTION ( 'NONE',  ( -0.8660254037844237196, 0.5000000000000258682, 0.000000000000000000 ) ) ;
#928 = UNCERTAINTY_MEASURE_WITH_UNIT (LENGTH_MEASURE( 1.000000000000000082E-05 ), #994, 'distance_accuracy_value', 'NONE');
#929 = DIRECTION ( 'NONE',  ( -1.000000000000000000, -4.270088556250777024E-15, 0.000000000000000000 ) ) ;
#930 = ADVANCED_FACE ( 'NONE', ( #533 ), #855, .F. ) ;
#931 = CARTESIAN_POINT ( 'NONE',  ( -3.067157287525415388, 35.31715728752539718, 0.000000000000000000 ) ) ;
#932 = EDGE_LOOP ( 'NONE', ( #445, #807, #491, #399 ) ) ;
#933 = DIRECTION ( 'NONE',  ( -1.000000000000000000, -3.083952846181057925E-15, 0.000000000000000000 ) ) ;
#934 = AXIS2_PLACEMENT_3D ( 'NONE', #348, #418, #1022 ) ;
#935 = CIRCLE ( 'NONE', #556, 2.999999999999958256 ) ;
#936 = EDGE_LOOP ( 'NONE', ( #233, #1014 ) ) ;
#937 = AXIS2_PLACEMENT_3D ( 'NONE', #367, #535, #44 ) ;
#938 = DIRECTION ( 'NONE',  ( -1.000000000000000000, -4.625929269271550009E-15, 0.000000000000000000 ) ) ;
#939 = CIRCLE ( 'NONE', #387, 2.249999999999964917 ) ;
#940 = ADVANCED_FACE ( 'NONE', ( #1025 ), #273, .T. ) ;
#941 = FACE_OUTER_BOUND ( 'NONE', #388, .T. ) ;
#942 = VERTEX_POINT ( 'NONE', #527 ) ;
#943 = ORIENTED_EDGE ( 'NONE', *, *, #501, .F. ) ;
#944 = DIRECTION ( 'NONE',  ( -4.495918367346943426E-15, 1.000000000000000000, -0.000000000000000000 ) ) ;
#945 = CARTESIAN_POINT ( 'NONE',  ( -3.000000000000187406, 47.00000000000002132, 0.000000000000000000 ) ) ;
#946 = CARTESIAN_POINT ( 'NONE',  ( -2.202999999999999549E-13, 48.99999999999994316, 0.000000000000000000 ) ) ;
#947 = CARTESIAN_POINT ( 'NONE',  ( -2.203000000000000054E-13, 48.99999999999995026, 0.000000000000000000 ) ) ;
#948 = ORIENTED_EDGE ( 'NONE', *, *, #569, .F. ) ;
#949 = PRODUCT ( '99688-SI10-M06+S9MT1003-090', '99688-SI10-M06+S9MT1003-090', '', ( #595 ) ) ;
#950 = ORIENTED_EDGE ( 'NONE', *, *, #789, .T. ) ;
#951 = DIRECTION ( 'NONE',  ( -1.000000000000000000, -4.625929269271585507E-15, 0.000000000000000000 ) ) ;
#952 = EDGE_CURVE ( 'NONE', #502, #224, #860, .T. ) ;
#953 = AXIS2_PLACEMENT_3D ( 'NONE', #716, #5, #808 ) ;
#954 = FACE_OUTER_BOUND ( 'NONE', #69, .T. ) ;
#955 = CARTESIAN_POINT ( 'NONE',  ( -1.551091836734699513E-13, 34.50000000000009237, 0.000000000000000000 ) ) ;
#956 = CONICAL_SURFACE ( 'NONE', #293, 5.000000000004812151, 0.4205343352832650039 ) ;
#957 = VECTOR ( 'NONE', #1015, 1000.000000000000000 ) ;
#958 = DIRECTION ( 'NONE',  ( -1.000000000000000000, -4.495918367346943426E-15, 0.000000000000000000 ) ) ;
#959 = EDGE_CURVE ( 'NONE', #741, #688, #753, .T. ) ;
#960 = ORIENTED_EDGE ( 'NONE', *, *, #484, .T. ) ;
#961 = CARTESIAN_POINT ( 'NONE',  ( 3.249999999999706901, 35.50000000000010658, 3.980102097228734543E-16 ) ) ;
#962 = DIRECTION ( 'NONE',  ( 0.8660254037843923003, 0.5000000000000802691, 1.060575238724852804E-16 ) ) ;
#963 = DIRECTION ( 'NONE',  ( -1.000000000000000000, -4.625929269271522399E-15, 0.000000000000000000 ) ) ;
#964 = LINE ( 'NONE', #770, #651 ) ;
#965 = ORIENTED_EDGE ( 'NONE', *, *, #89, .F. ) ;
#966 = ADVANCED_FACE ( 'NONE', ( #448 ), #95, .F. ) ;
#967 = CARTESIAN_POINT ( 'NONE',  ( -3.150000000000050093, 34.52886751345948113, 0.000000000000000000 ) ) ;
#968 = DIRECTION ( 'NONE',  ( -1.000000000000000000, -4.270088556250717070E-15, 0.000000000000000000 ) ) ;
#969 = ORIENTED_EDGE ( 'NONE', *, *, #66, .F. ) ;
#970 = AXIS2_PLACEMENT_3D ( 'NONE', #403, #729, #14 ) ;
#971 = CARTESIAN_POINT ( 'NONE',  ( 2.249999999999776623, 41.91905249806892186, 2.755455298081499911E-16 ) ) ;
#972 = AXIS2_PLACEMENT_3D ( 'NONE', #840, #302, #864 ) ;
#973 = CIRCLE ( 'NONE', #296, 0.3999999999999997446 ) ;
#974 = AXIS2_PLACEMENT_3D ( 'NONE', #402, #726, #43 ) ;
#975 = FACE_OUTER_BOUND ( 'NONE', #1020, .T. ) ;
#976 = CARTESIAN_POINT ( 'NONE',  ( -2.057939314904893306E-14, 4.577350269193813936, 0.000000000000000000 ) ) ;
#977 = ORIENTED_EDGE ( 'NONE', *, *, #516, .F. ) ;
#978 = DIRECTION ( 'NONE',  ( -1.000000000000000000, -4.495918367346943426E-15, 0.000000000000000000 ) ) ;
#979 = DIRECTION ( 'NONE',  ( -4.495918367346943426E-15, 1.000000000000000000, -0.000000000000000000 ) ) ;
#980 = ORIENTED_EDGE ( 'NONE', *, *, #164, .F. ) ;
#981 = DIRECTION ( 'NONE',  ( 1.000000000000000000, 0.000000000000000000, 1.224646799147353454E-16 ) ) ;
#982 = EDGE_CURVE ( 'NONE', #544, #751, #7, .T. ) ;
#983 = ORIENTED_EDGE ( 'NONE', *, *, #613, .F. ) ;
#984 = DIRECTION ( 'NONE',  ( -1.000000000000000000, -4.270088556250717070E-15, 0.000000000000000000 ) ) ;
#985 = AXIS2_PLACEMENT_3D ( 'NONE', #82, #897, #981 ) ;
#986 = CIRCLE ( 'NONE', #447, 5.000000000004812151 ) ;
#987 = TOROIDAL_SURFACE ( 'NONE', #431, 3.049999999999964739, 0.7999999999999992673 ) ;
#988 = AXIS2_PLACEMENT_3D ( 'NONE', #430, #1023, #851 ) ;
#989 = TOROIDAL_SURFACE ( 'NONE', #1009, 3.149999999999894662, 0.1999999999999995948 ) ;
#990 = FILL_AREA_STYLE_COLOUR ( '', #70 ) ;
#991 = EDGE_CURVE ( 'NONE', #316, #743, #703, .T. ) ;
#992 = ORIENTED_EDGE ( 'NONE', *, *, #709, .F. ) ;
#993 = CYLINDRICAL_SURFACE ( 'NONE', #269, 3.249999999999876987 ) ;
#994 =( LENGTH_UNIT ( ) NAMED_UNIT ( * ) SI_UNIT ( .MILLI., .METRE. ) );
#995 = ORIENTED_EDGE ( 'NONE', *, *, #578, .T. ) ;
#996 = DIRECTION ( 'NONE',  ( -1.000000000000000000, -5.551115123126647294E-15, 0.000000000000000000 ) ) ;
#997 = EDGE_CURVE ( 'NONE', #332, #1007, #652, .T. ) ;
#998 = DIRECTION ( 'NONE',  ( -4.495918367346943426E-15, 1.000000000000000000, -0.000000000000000000 ) ) ;
#999 = EDGE_LOOP ( 'NONE', ( #212, #531, #1010, #813 ) ) ;
#1000 =( NAMED_UNIT ( * ) SI_UNIT ( $, .STERADIAN. ) SOLID_ANGLE_UNIT ( ) );
#1001 =( NAMED_UNIT ( * ) PLANE_ANGLE_UNIT ( ) SI_UNIT ( $, .RADIAN. ) );
#1002 = EDGE_LOOP ( 'NONE', ( #687, #100, #995, #892 ) ) ;
#1003 = DIRECTION ( 'NONE',  ( -4.495918367346943426E-15, 1.000000000000000000, -0.000000000000000000 ) ) ;
#1004 = DIRECTION ( 'NONE',  ( -4.495918367346943426E-15, 1.000000000000000000, -0.000000000000000000 ) ) ;
#1005 = EDGE_CURVE ( 'NONE', #393, #573, #183, .T. ) ;
#1006 = AXIS2_PLACEMENT_3D ( 'NONE', #462, #459, #469 ) ;
#1007 = VERTEX_POINT ( 'NONE', #67 ) ;
#1008 = FILL_AREA_STYLE_COLOUR ( '', #542 ) ;
#1009 = AXIS2_PLACEMENT_3D ( 'NONE', #305, #883, #796 ) ;
#1010 = ORIENTED_EDGE ( 'NONE', *, *, #683, .T. ) ;
#1011 = LINE ( 'NONE', #918, #132 ) ;
#1012 = DIRECTION ( 'NONE',  ( 1.000000000000000000, 0.000000000000000000, 1.224646799147352221E-16 ) ) ;
#1013 = ORIENTED_EDGE ( 'NONE', *, *, #768, .F. ) ;
#1014 = ORIENTED_EDGE ( 'NONE', *, *, #259, .T. ) ;
#1015 = DIRECTION ( 'NONE',  ( -4.495918367346943426E-15, 1.000000000000000000, -0.000000000000000000 ) ) ;
#1016 = EDGE_LOOP ( 'NONE', ( #30, #292, #342, #87 ) ) ;
#1017 = DIRECTION ( 'NONE',  ( -4.495918367346943426E-15, 1.000000000000000000, -0.000000000000000000 ) ) ;
#1018 = EDGE_LOOP ( 'NONE', ( #346, #539, #977 ) ) ;
#1019 = DIRECTION ( 'NONE',  ( -4.495918367346943426E-15, 1.000000000000000000, -0.000000000000000000 ) ) ;
#1020 = EDGE_LOOP ( 'NONE', ( #122, #433, #174, #661 ) ) ;
#1021 = ADVANCED_FACE ( 'NONE', ( #891 ), #989, .F. ) ;
#1022 = DIRECTION ( 'NONE',  ( -1.000000000000000000, -4.625929269271547642E-15, 0.000000000000000000 ) ) ;
#1023 = DIRECTION ( 'NONE',  ( -1.224646799147353207E-16, -5.505912037799228575E-31, 1.000000000000000000 ) ) ;
#1024 = VERTEX_POINT ( 'NONE', #156 ) ;
#1025 = FACE_OUTER_BOUND ( 'NONE', #84, .T. ) ;
#1026 = AXIS2_PLACEMENT_3D ( 'NONE', #803, #563, #643 ) ;
#1027 = ORIENTED_EDGE ( 'NONE', *, *, #1040, .F. ) ;
#1028 = CARTESIAN_POINT ( 'NONE',  ( -2.203000000000000054E-13, 48.99999999999995026, 0.000000000000000000 ) ) ;
#1029 = CIRCLE ( 'NONE', #988, 0.1999999999999996503 ) ;
#1030 = AXIS2_PLACEMENT_3D ( 'NONE', #659, #170, #163 ) ;
#1031 = CARTESIAN_POINT ( 'NONE',  ( -1.551091836734699513E-13, 34.50000000000009237, 0.000000000000000000 ) ) ;
#1032 = CONICAL_SURFACE ( 'NONE', #558, 1732.050807568524306, 1.047197551196509480 ) ;
#1033 = PRESENTATION_LAYER_ASSIGNMENT (  '', '', ( #169 ) ) ;
#1034 = CARTESIAN_POINT ( 'NONE',  ( 3.249999999999706901, 40.00000000000002132, 0.000000000000000000 ) ) ;
#1035 = CARTESIAN_POINT ( 'NONE',  ( -2.203000000000000054E-13, 48.99999999999995026, 0.000000000000000000 ) ) ;
#1036 = CARTESIAN_POINT ( 'NONE',  ( -4.495918367346943514E-12, 1000.000000000000000, 0.000000000000000000 ) ) ;
#1037 = ADVANCED_FACE ( 'NONE', ( #975 ), #1048, .F. ) ;
#1038 = DIRECTION ( 'NONE',  ( 4.495918367346943426E-15, -1.000000000000000000, 0.000000000000000000 ) ) ;
#1039 = CARTESIAN_POINT ( 'NONE',  ( -1.574261554448952438E-13, 35.03431457505080004, 0.000000000000000000 ) ) ;
#1040 = EDGE_CURVE ( 'NONE', #332, #544, #560, .T. ) ;
#1041 = CARTESIAN_POINT ( 'NONE',  ( -1.886511780124777715E-13, 41.91905249806890765, 0.000000000000000000 ) ) ;
#1042 = CIRCLE ( 'NONE', #825, 3.249999999999912514 ) ;
#1043 = DIRECTION ( 'NONE',  ( -4.495918367346943426E-15, 1.000000000000000000, -0.000000000000000000 ) ) ;
#1044 = ORIENTED_EDGE ( 'NONE', *, *, #789, .F. ) ;
#1045 = AXIS2_PLACEMENT_3D ( 'NONE', #306, #782, #701 ) ;
#1046 = CIRCLE ( 'NONE', #385, 3.249999999999912514 ) ;
#1047 = DIRECTION ( 'NONE',  ( -1.000000000000000000, -3.083952846181048065E-15, 0.000000000000000000 ) ) ;
#1048 = TOROIDAL_SURFACE ( 'NONE', #372, 3.049999999999964739, 0.7999999999999992673 ) ;
#1049 = CARTESIAN_POINT ( 'NONE',  ( -3.250000000000026201, 35.50000000000007816, 0.000000000000000000 ) ) ;
#1050 = EDGE_CURVE ( 'NONE', #24, #510, #10, .T. ) ;
#1051 = ORIENTED_EDGE ( 'NONE', *, *, #801, .F. ) ;
#1052 = DIRECTION ( 'NONE',  ( -1.000000000000000000, -4.445228907183137899E-15, 0.000000000000000000 ) ) ;
ENDSEC;
END-ISO-10303-21;
