ISO-10303-21;
HEADER;
FILE_DESCRIPTION (( 'STEP AP214' ),
    '1' );
FILE_NAME ('99688-SI12-12+S9MT1203-060.STEP',
    '2022-11-03T01:07:40',
    ( 'User' ),
    ( 'GENUINE' ),
    'SwSTEP 2.0',
    'SolidWorks 2012',
    '' );
FILE_SCHEMA (( 'AUTOMOTIVE_DESIGN' ));
ENDSEC;

DATA;
#1 = DIRECTION ( 'NONE',  ( -2.265377428129336200E-014, 1.000000000000000000, 0.0000000000000000000 ) ) ;
#2 = CARTESIAN_POINT ( 'NONE',  ( -9.061509712516871800E-013, 39.99999999999791800, 0.0000000000000000000 ) ) ;
#3 = DIRECTION ( 'NONE',  ( 1.000000000000000000, 2.312964634635783900E-014, 0.0000000000000000000 ) ) ;
#4 = DIRECTION ( 'NONE',  ( 2.265377428129336200E-014, -1.000000000000000000, -0.0000000000000000000 ) ) ;
#5 = CARTESIAN_POINT ( 'NONE',  ( -1.918774681625481000E-012, 84.69999999999707500, 0.0000000000000000000 ) ) ;
#6 = DIRECTION ( 'NONE',  ( 1.000000000000000000, 2.265377428129336200E-014, 0.0000000000000000000 ) ) ;
#7 = DIRECTION ( 'NONE',  ( 2.265377428129336200E-014, -1.000000000000000000, -0.0000000000000000000 ) ) ;
#8 = CARTESIAN_POINT ( 'NONE',  ( -9.063930161978817100E-013, 39.99999999999796800, 0.0000000000000000000 ) ) ;
#9 = DIRECTION ( 'NONE',  ( 1.000000000000000000, 2.265377428129336200E-014, 0.0000000000000000000 ) ) ;
#10 = DIRECTION ( 'NONE',  ( 2.265377428129336200E-014, -1.000000000000000000, -0.0000000000000000000 ) ) ;
#11 = DIRECTION ( 'NONE',  ( 2.265377428129336200E-014, -1.000000000000000000, -0.0000000000000000000 ) ) ;
#12 = CARTESIAN_POINT ( 'NONE',  ( 5.999999999999415600, 1.430280730453479300E-013, 0.0000000000000000000 ) ) ;
#13 = LINE ( 'NONE', #12, #206 ) ;
#14 = CARTESIAN_POINT ( 'NONE',  ( 0.0000000000000000000, 7.105427357601001900E-015, 0.0000000000000000000 ) ) ;
#15 = DIRECTION ( 'NONE',  ( 1.000000000000000000, 2.312964634636151800E-014, 0.0000000000000000000 ) ) ;
#16 = DIRECTION ( 'NONE',  ( -1.000000000000000000, -2.271661694731882800E-014, 0.0000000000000000000 ) ) ;
#17 =( GEOMETRIC_REPRESENTATION_CONTEXT ( 3 ) GLOBAL_UNCERTAINTY_ASSIGNED_CONTEXT ( ( #202 ) ) GLOBAL_UNIT_ASSIGNED_CONTEXT ( ( #366, #367, #368 ) ) REPRESENTATION_CONTEXT ( 'NONE', 'WORKASPACE' ) );
#18 =( GEOMETRIC_REPRESENTATION_CONTEXT ( 3 ) GLOBAL_UNCERTAINTY_ASSIGNED_CONTEXT ( ( #201 ) ) GLOBAL_UNIT_ASSIGNED_CONTEXT ( ( #391, #392, #393 ) ) REPRESENTATION_CONTEXT ( 'NONE', 'WORKASPACE' ) );
#19 =( GEOMETRIC_REPRESENTATION_CONTEXT ( 3 ) GLOBAL_UNCERTAINTY_ASSIGNED_CONTEXT ( ( #203 ) ) GLOBAL_UNIT_ASSIGNED_CONTEXT ( ( #401, #402, #403 ) ) REPRESENTATION_CONTEXT ( 'NONE', 'WORKASPACE' ) );
#20 = CYLINDRICAL_SURFACE ( 'NONE', #75, 7.750000000000933500 ) ;
#21 = MECHANICAL_DESIGN_GEOMETRIC_PRESENTATION_REPRESENTATION (  '', ( #47 ), #17 ) ;
#22 = PRESENTATION_LAYER_ASSIGNMENT (  '', '', ( #47 ) ) ;
#23 = PRODUCT_DEFINITION_FORMATION_WITH_SPECIFIED_SOURCE ( 'ANY', '', #200, .NOT_KNOWN. ) ;
#24 = AXIS2_PLACEMENT_3D ( 'NONE', #404, #405, #406 ) ;
#25 = FACE_OUTER_BOUND ( 'NONE', #445, .T. ) ;
#26 = VECTOR ( 'NONE', #353, 1000.000000000000000 ) ;
#27 = MECHANICAL_DESIGN_GEOMETRIC_PRESENTATION_REPRESENTATION (  '', ( #30 ), #19 ) ;
#28 = AXIS2_PLACEMENT_3D ( 'NONE', #338, #354, #355 ) ;
#29 = PRESENTATION_LAYER_ASSIGNMENT (  '', '', ( #30 ) ) ;
#30 = STYLED_ITEM ( 'NONE', ( #400 ), #204 ) ;
#31 = VECTOR ( 'NONE', #350, 1000.000000000000000 ) ;
#32 = VECTOR ( 'NONE', #347, 1000.000000000000000 ) ;
#33 = AXIS2_PLACEMENT_3D ( 'NONE', #8, #7, #6 ) ;
#34 = VECTOR ( 'NONE', #344, 1000.000000000000000 ) ;
#35 = FACE_OUTER_BOUND ( 'NONE', #446, .T. ) ;
#36 = VECTOR ( 'NONE', #341, 1000.000000000000000 ) ;
#37 = AXIS2_PLACEMENT_3D ( 'NONE', #246, #247, #248 ) ;
#38 = FACE_OUTER_BOUND ( 'NONE', #447, .T. ) ;
#39 = AXIS2_PLACEMENT_3D ( 'NONE', #249, #250, #251 ) ;
#40 = FACE_OUTER_BOUND ( 'NONE', #448, .T. ) ;
#41 = VECTOR ( 'NONE', #335, 1000.000000000000000 ) ;
#42 = AXIS2_PLACEMENT_3D ( 'NONE', #356, #357, #358 ) ;
#43 = VECTOR ( 'NONE', #332, 999.9999999999998900 ) ;
#44 = AXIS2_PLACEMENT_3D ( 'NONE', #329, #336, #337 ) ;
#45 = AXIS2_PLACEMENT_3D ( 'NONE', #243, #244, #245 ) ;
#46 = VECTOR ( 'NONE', #326, 999.9999999999998900 ) ;
#47 = STYLED_ITEM ( 'NONE', ( #365 ), #439 ) ;
#48 = VECTOR ( 'NONE', #323, 1000.000000000000100 ) ;
#49 = FACE_OUTER_BOUND ( 'NONE', #440, .T. ) ;
#50 = FACE_OUTER_BOUND ( 'NONE', #479, .T. ) ;
#51 = AXIS2_PLACEMENT_3D ( 'NONE', #316, #327, #328 ) ;
#52 = VECTOR ( 'NONE', #320, 1000.000000000000000 ) ;
#53 = AXIS2_PLACEMENT_3D ( 'NONE', #5, #4, #3 ) ;
#54 = AXIS2_PLACEMENT_3D ( 'NONE', #240, #241, #242 ) ;
#55 = AXIS2_PLACEMENT_3D ( 'NONE', #313, #314, #315 ) ;
#56 = AXIS2_PLACEMENT_3D ( 'NONE', #310, #311, #312 ) ;
#57 = FACE_OUTER_BOUND ( 'NONE', #443, .T. ) ;
#58 = AXIS2_PLACEMENT_3D ( 'NONE', #304, #305, #306 ) ;
#59 = AXIS2_PLACEMENT_3D ( 'NONE', #307, #308, #309 ) ;
#60 = FACE_OUTER_BOUND ( 'NONE', #441, .T. ) ;
#61 = AXIS2_PLACEMENT_3D ( 'NONE', #295, #296, #297 ) ;
#62 = CYLINDRICAL_SURFACE ( 'NONE', #45, 6.000000000000435200 ) ;
#63 = AXIS2_PLACEMENT_3D ( 'NONE', #298, #299, #300 ) ;
#64 = AXIS2_PLACEMENT_3D ( 'NONE', #301, #302, #303 ) ;
#65 = AXIS2_PLACEMENT_3D ( 'NONE', #286, #287, #288 ) ;
#66 = AXIS2_PLACEMENT_3D ( 'NONE', #2, #1, #16 ) ;
#67 = AXIS2_PLACEMENT_3D ( 'NONE', #319, #235, #236 ) ;
#68 = AXIS2_PLACEMENT_3D ( 'NONE', #283, #284, #285 ) ;
#69 = VECTOR ( 'NONE', #280, 1000.000000000000000 ) ;
#70 = AXIS2_PLACEMENT_3D ( 'NONE', #277, #281, #282 ) ;
#71 = VECTOR ( 'NONE', #276, 1000.000000000000000 ) ;
#72 = AXIS2_PLACEMENT_3D ( 'NONE', #271, #272, #273 ) ;
#73 = FACE_OUTER_BOUND ( 'NONE', #450, .T. ) ;
#74 = FACE_OUTER_BOUND ( 'NONE', #442, .T. ) ;
#75 = AXIS2_PLACEMENT_3D ( 'NONE', #237, #238, #239 ) ;
#76 = AXIS2_PLACEMENT_3D ( 'NONE', #289, #290, #291 ) ;
#77 = FACE_OUTER_BOUND ( 'NONE', #454, .T. ) ;
#78 = AXIS2_PLACEMENT_3D ( 'NONE', #267, #268, #269 ) ;
#79 = FACE_BOUND ( 'NONE', #453, .T. ) ;
#80 = AXIS2_PLACEMENT_3D ( 'NONE', #292, #293, #294 ) ;
#81 = CYLINDRICAL_SURFACE ( 'NONE', #82, 7.750000000000933500 ) ;
#82 = AXIS2_PLACEMENT_3D ( 'NONE', #264, #265, #266 ) ;
#83 = AXIS2_PLACEMENT_3D ( 'NONE', #261, #262, #263 ) ;
#84 = FACE_OUTER_BOUND ( 'NONE', #451, .T. ) ;
#85 = FACE_OUTER_BOUND ( 'NONE', #444, .T. ) ;
#86 = FACE_OUTER_BOUND ( 'NONE', #452, .T. ) ;
#87 = CYLINDRICAL_SURFACE ( 'NONE', #88, 6.000000000000435200 ) ;
#88 = AXIS2_PLACEMENT_3D ( 'NONE', #258, #259, #260 ) ;
#89 = AXIS2_PLACEMENT_3D ( 'NONE', #255, #256, #257 ) ;
#90 = FACE_OUTER_BOUND ( 'NONE', #449, .T. ) ;
#91 = AXIS2_PLACEMENT_3D ( 'NONE', #252, #253, #254 ) ;
#92 = APPLICATION_CONTEXT ( 'automotive_design' ) ;
#93 = APPLICATION_CONTEXT ( 'automotive_design' ) ;
#94 = CIRCLE ( 'NONE', #56, 5.999999999999493700 ) ;
#95 = CONICAL_SURFACE ( 'NONE', #233, 6.719999999998965900, 1.047197551196724900 ) ;
#96 = CIRCLE ( 'NONE', #59, 6.000000000001376700 ) ;
#97 = CIRCLE ( 'NONE', #58, 7.750000000000657300 ) ;
#98 = PRODUCT_DEFINITION ( 'UNKNOWN', '', #23, #438 ) ;
#99 = PRODUCT_RELATED_PRODUCT_CATEGORY ( 'part', '', ( #200 ) ) ;
#100 = COLOUR_RGB ( '',0.7921568627450980000, 0.8196078431372548800, 0.9333333333333333500 ) ;
#101 = COLOUR_RGB ( '',0.7921568627450980000, 0.8196078431372548800, 0.9333333333333333500 ) ;
#102 = CIRCLE ( 'NONE', #42, 7.750000000001209700 ) ;
#103 = CIRCLE ( 'NONE', #28, 7.630000000001192700 ) ;
#104 = CIRCLE ( 'NONE', #44, 5.999999999999493700 ) ;
#105 = CIRCLE ( 'NONE', #51, 1.200000000000373700 ) ;
#106 = CIRCLE ( 'NONE', #64, 7.750000000001209700 ) ;
#107 = CIRCLE ( 'NONE', #63, 7.630000000001192700 ) ;
#108 = CIRCLE ( 'NONE', #61, 6.719999999998965900 ) ;
#109 = CIRCLE ( 'NONE', #55, 1.200000000000373700 ) ;
#110 = CIRCLE ( 'NONE', #80, 6.359999999998886500 ) ;
#111 = CIRCLE ( 'NONE', #76, 5.999999999999893400 ) ;
#112 = CIRCLE ( 'NONE', #65, 5.699999999999946000 ) ;
#113 = CIRCLE ( 'NONE', #70, 7.750000000000657300 ) ;
#114 = CONICAL_SURFACE ( 'NONE', #78, 7.750000000001209700, 0.7853981633971917100 ) ;
#115 = CONICAL_SURFACE ( 'NONE', #83, 6.000000000001376700, 0.4124839038990536500 ) ;
#116 = CIRCLE ( 'NONE', #68, 6.000000000001376700 ) ;
#117 = CONICAL_SURFACE ( 'NONE', #89, 1.200000000000373700, 0.5235987755983140300 ) ;
#118 = CONICAL_SURFACE ( 'NONE', #91, 1732.050807568606200, 1.047197551196529900 ) ;
#119 = CONICAL_SURFACE ( 'NONE', #37, 1.200000000000373700, 0.5235987755983140300 ) ;
#120 = CONICAL_SURFACE ( 'NONE', #54, 6.000000000001376700, 0.4124839038990536500 ) ;
#121 = CONICAL_SURFACE ( 'NONE', #39, 1732.050807568606200, 1.047197551196529900 ) ;
#122 = CONICAL_SURFACE ( 'NONE', #67, 7.750000000001209700, 0.7853981633971917100 ) ;
#123 = TOROIDAL_SURFACE ( 'NONE', #33, 6.239999999998938000, 0.2399999999999996000 ) ;
#124 = CONICAL_SURFACE ( 'NONE', #66, 6.719999999998965900, 1.047197551196724900 ) ;
#125 = CONICAL_SURFACE ( 'NONE', #53, 5.999999999999893400, 0.7853981633973224900 ) ;
#126 = CIRCLE ( 'NONE', #226, 5.999999999998938600 ) ;
#127 = CIRCLE ( 'NONE', #217, 0.2399999999999997700 ) ;
#128 = CIRCLE ( 'NONE', #211, 6.359999999998886500 ) ;
#129 = CIRCLE ( 'NONE', #213, 5.999999999998938600 ) ;
#130 = CIRCLE ( 'NONE', #218, 0.2399999999999997700 ) ;
#131 = CIRCLE ( 'NONE', #219, 5.699999999999946000 ) ;
#132 = CIRCLE ( 'NONE', #223, 5.999999999999893400 ) ;
#133 = TOROIDAL_SURFACE ( 'NONE', #229, 6.239999999998938000, 0.2399999999999996000 ) ;
#134 = CIRCLE ( 'NONE', #220, 6.719999999998965900 ) ;
#135 = CONICAL_SURFACE ( 'NONE', #224, 5.999999999999893400, 0.7853981633973224900 ) ;
#136 = ADVANCED_FACE ( 'NONE', ( #216 ), #95, .F. ) ;
#137 = ADVANCED_FACE ( 'NONE', ( #232 ), #133, .F. ) ;
#138 = ADVANCED_FACE ( 'NONE', ( #207 ), #227, .T. ) ;
#139 = ADVANCED_FACE ( 'NONE', ( #231 ), #135, .T. ) ;
#140 = ADVANCED_FACE ( 'NONE', ( #225 ), #580, .T. ) ;
#141 = EDGE_CURVE ( 'NONE', #496, #495, #576, .T. ) ;
#142 = EDGE_CURVE ( 'NONE', #477, #476, #132, .T. ) ;
#143 = EDGE_CURVE ( 'NONE', #494, #495, #134, .T. ) ;
#144 = EDGE_CURVE ( 'NONE', #478, #480, #131, .T. ) ;
#145 = EDGE_CURVE ( 'NONE', #496, #559, #130, .T. ) ;
#146 = EDGE_CURVE ( 'NONE', #486, #489, #431, .T. ) ;
#147 = EDGE_CURVE ( 'NONE', #480, #476, #428, .T. ) ;
#148 = EDGE_CURVE ( 'NONE', #478, #477, #425, .T. ) ;
#149 = EDGE_CURVE ( 'NONE', #560, #559, #129, .T. ) ;
#150 = EDGE_CURVE ( 'NONE', #497, #496, #128, .T. ) ;
#151 = EDGE_CURVE ( 'NONE', #476, #560, #416, .T. ) ;
#152 = EDGE_CURVE ( 'NONE', #497, #560, #127, .T. ) ;
#153 = EDGE_CURVE ( 'NONE', #559, #560, #126, .T. ) ;
#154 = EDGE_CURVE ( 'NONE', #477, #559, #13, .T. ) ;
#155 = ADVANCED_FACE ( 'NONE', ( #210 ), #230, .T. ) ;
#156 = ADVANCED_FACE ( 'NONE', ( #208 ), #123, .F. ) ;
#157 = ADVANCED_FACE ( 'NONE', ( #50 ), #125, .T. ) ;
#158 = ADVANCED_FACE ( 'NONE', ( #49 ), #124, .F. ) ;
#159 = ADVANCED_FACE ( 'NONE', ( #60 ), #122, .T. ) ;
#160 = ADVANCED_FACE ( 'NONE', ( #74 ), #20, .T. ) ;
#161 = ADVANCED_FACE ( 'NONE', ( #57 ), #120, .T. ) ;
#162 = ADVANCED_FACE ( 'NONE', ( #85 ), #62, .T. ) ;
#163 = ADVANCED_FACE ( 'NONE', ( #25 ), #119, .T. ) ;
#164 = ADVANCED_FACE ( 'NONE', ( #35 ), #121, .T. ) ;
#165 = ADVANCED_FACE ( 'NONE', ( #38 ), #118, .T. ) ;
#166 = ADVANCED_FACE ( 'NONE', ( #40 ), #117, .T. ) ;
#167 = ADVANCED_FACE ( 'NONE', ( #90 ), #87, .T. ) ;
#168 = ADVANCED_FACE ( 'NONE', ( #73 ), #115, .T. ) ;
#169 = ADVANCED_FACE ( 'NONE', ( #84 ), #81, .T. ) ;
#170 = ADVANCED_FACE ( 'NONE', ( #86 ), #114, .T. ) ;
#171 = ADVANCED_FACE ( 'NONE', ( #79, #77 ), #270, .T. ) ;
#172 = EDGE_CURVE ( 'NONE', #493, #490, #274, .T. ) ;
#173 = EDGE_CURVE ( 'NONE', #491, #489, #278, .T. ) ;
#174 = EDGE_CURVE ( 'NONE', #488, #489, #113, .T. ) ;
#175 = EDGE_CURVE ( 'NONE', #487, #486, #116, .T. ) ;
#176 = EDGE_CURVE ( 'NONE', #480, #478, #112, .T. ) ;
#177 = EDGE_CURVE ( 'NONE', #476, #477, #111, .T. ) ;
#178 = EDGE_CURVE ( 'NONE', #496, #497, #110, .T. ) ;
#179 = EDGE_CURVE ( 'NONE', #495, #494, #108, .T. ) ;
#180 = EDGE_CURVE ( 'NONE', #492, #493, #107, .T. ) ;
#181 = EDGE_CURVE ( 'NONE', #491, #490, #106, .T. ) ;
#182 = EDGE_CURVE ( 'NONE', #489, #488, #97, .T. ) ;
#183 = EDGE_CURVE ( 'NONE', #486, #487, #96, .T. ) ;
#184 = EDGE_CURVE ( 'NONE', #485, #484, #94, .T. ) ;
#185 = EDGE_CURVE ( 'NONE', #482, #483, #109, .T. ) ;
#186 = EDGE_CURVE ( 'NONE', #481, #482, #317, .T. ) ;
#187 = EDGE_CURVE ( 'NONE', #481, #483, #321, .T. ) ;
#188 = EDGE_CURVE ( 'NONE', #482, #485, #324, .T. ) ;
#189 = EDGE_CURVE ( 'NONE', #483, #482, #105, .T. ) ;
#190 = EDGE_CURVE ( 'NONE', #483, #484, #330, .T. ) ;
#191 = EDGE_CURVE ( 'NONE', #487, #484, #333, .T. ) ;
#192 = EDGE_CURVE ( 'NONE', #484, #485, #104, .T. ) ;
#193 = EDGE_CURVE ( 'NONE', #486, #485, #339, .T. ) ;
#194 = EDGE_CURVE ( 'NONE', #490, #488, #342, .T. ) ;
#195 = EDGE_CURVE ( 'NONE', #487, #488, #345, .T. ) ;
#196 = EDGE_CURVE ( 'NONE', #497, #494, #348, .T. ) ;
#197 = EDGE_CURVE ( 'NONE', #492, #491, #351, .T. ) ;
#198 = EDGE_CURVE ( 'NONE', #493, #492, #103, .T. ) ;
#199 = EDGE_CURVE ( 'NONE', #490, #491, #102, .T. ) ;
#200 = PRODUCT ( '99688-SI12-12+S9MT1203-060', '99688-SI12-12+S9MT1203-060', '', ( #408 ) ) ;
#201 = UNCERTAINTY_MEASURE_WITH_UNIT (LENGTH_MEASURE( 1.000000000000000100E-005 ), #391, 'distance_accuracy_value', 'NONE');
#202 = UNCERTAINTY_MEASURE_WITH_UNIT (LENGTH_MEASURE( 1.000000000000000100E-005 ), #366, 'distance_accuracy_value', 'NONE');
#203 = UNCERTAINTY_MEASURE_WITH_UNIT (LENGTH_MEASURE( 1.000000000000000100E-005 ), #401, 'distance_accuracy_value', 'NONE');
#204 = ADVANCED_BREP_SHAPE_REPRESENTATION ( '99688-SI12-12+S9MT1203-060', ( #439, #24 ), #18 ) ;
#205 = AXIS2_PLACEMENT_3D ( 'NONE', #14, #10, #9 ) ;
#206 = VECTOR ( 'NONE', #11, 1000.000000000000000 ) ;
#207 = FACE_OUTER_BOUND ( 'NONE', #457, .T. ) ;
#208 = FACE_OUTER_BOUND ( 'NONE', #596, .T. ) ;
#209 = VECTOR ( 'NONE', #414, 1000.000000000000000 ) ;
#210 = FACE_OUTER_BOUND ( 'NONE', #595, .T. ) ;
#211 = AXIS2_PLACEMENT_3D ( 'NONE', #420, #419, #418 ) ;
#212 = VECTOR ( 'NONE', #423, 1000.000000000000000 ) ;
#213 = AXIS2_PLACEMENT_3D ( 'NONE', #432, #422, #421 ) ;
#214 = VECTOR ( 'NONE', #426, 999.9999999999998900 ) ;
#215 = VECTOR ( 'NONE', #429, 1000.000000000000300 ) ;
#216 = FACE_OUTER_BOUND ( 'NONE', #455, .T. ) ;
#217 = AXIS2_PLACEMENT_3D ( 'NONE', #417, #413, #412 ) ;
#218 = AXIS2_PLACEMENT_3D ( 'NONE', #435, #434, #433 ) ;
#219 = AXIS2_PLACEMENT_3D ( 'NONE', #567, #566, #436 ) ;
#220 = AXIS2_PLACEMENT_3D ( 'NONE', #570, #569, #568 ) ;
#221 = VECTOR ( 'NONE', #574, 1000.000000000000000 ) ;
#222 = AXIS2_PLACEMENT_3D ( 'NONE', #579, #578, #577 ) ;
#223 = AXIS2_PLACEMENT_3D ( 'NONE', #573, #572, #571 ) ;
#224 = AXIS2_PLACEMENT_3D ( 'NONE', #583, #582, #581 ) ;
#225 = FACE_OUTER_BOUND ( 'NONE', #459, .T. ) ;
#226 = AXIS2_PLACEMENT_3D ( 'NONE', #411, #410, #15 ) ;
#227 = CYLINDRICAL_SURFACE ( 'NONE', #228, 5.999999999999415600 ) ;
#228 = AXIS2_PLACEMENT_3D ( 'NONE', #586, #585, #584 ) ;
#229 = AXIS2_PLACEMENT_3D ( 'NONE', #589, #588, #587 ) ;
#230 = CYLINDRICAL_SURFACE ( 'NONE', #205, 5.999999999999415600 ) ;
#231 = FACE_OUTER_BOUND ( 'NONE', #458, .T. ) ;
#232 = FACE_OUTER_BOUND ( 'NONE', #456, .T. ) ;
#233 = AXIS2_PLACEMENT_3D ( 'NONE', #592, #591, #590 ) ;
#234 = CLOSED_SHELL ( 'NONE', ( #157, #155, #156, #158, #159, #160, #161, #162, #163, #164, #165, #166, #167, #168, #169, #170, #171, #136, #137, #138, #139, #140 ) ) ;
#235 = DIRECTION ( 'NONE',  ( 2.265377428129336200E-014, -1.000000000000000000, -0.0000000000000000000 ) ) ;
#236 = DIRECTION ( 'NONE',  ( 1.000000000000000000, 2.238352872227788700E-014, 0.0000000000000000000 ) ) ;
#237 = CARTESIAN_POINT ( 'NONE',  ( 0.0000000000000000000, 7.105427357601001900E-015, 0.0000000000000000000 ) ) ;
#238 = DIRECTION ( 'NONE',  ( 2.265377428129336200E-014, -1.000000000000000000, -0.0000000000000000000 ) ) ;
#239 = DIRECTION ( 'NONE',  ( 1.000000000000000000, 2.265377428129336200E-014, 0.0000000000000000000 ) ) ;
#240 = CARTESIAN_POINT ( 'NONE',  ( -2.750944911528700300E-013, 12.14342862858102000, 0.0000000000000000000 ) ) ;
#241 = DIRECTION ( 'NONE',  ( -2.265377428129336200E-014, 1.000000000000000000, 0.0000000000000000000 ) ) ;
#242 = DIRECTION ( 'NONE',  ( -1.000000000000000000, -2.255140518769331700E-014, 0.0000000000000000000 ) ) ;
#243 = CARTESIAN_POINT ( 'NONE',  ( 0.0000000000000000000, 7.105427357601001900E-015, 0.0000000000000000000 ) ) ;
#244 = DIRECTION ( 'NONE',  ( 2.265377428129336200E-014, -1.000000000000000000, -0.0000000000000000000 ) ) ;
#245 = DIRECTION ( 'NONE',  ( 1.000000000000000000, 2.265377428129336500E-014, 0.0000000000000000000 ) ) ;
#246 = CARTESIAN_POINT ( 'NONE',  ( -1.569499521536623800E-014, 0.6928203230278823200, 0.0000000000000000000 ) ) ;
#247 = DIRECTION ( 'NONE',  ( -2.265377428129336200E-014, 1.000000000000000000, 0.0000000000000000000 ) ) ;
#248 = DIRECTION ( 'NONE',  ( -1.000000000000000000, -2.267789544114807100E-014, 0.0000000000000000000 ) ) ;
#249 = CARTESIAN_POINT ( 'NONE',  ( -2.265377428129336100E-011, 1000.000000000000000, 0.0000000000000000000 ) ) ;
#250 = DIRECTION ( 'NONE',  ( -2.265377428129336200E-014, 1.000000000000000000, 0.0000000000000000000 ) ) ;
#251 = DIRECTION ( 'NONE',  ( -1.000000000000000000, -2.262686094311681200E-014, 0.0000000000000000000 ) ) ;
#252 = CARTESIAN_POINT ( 'NONE',  ( -2.265377428129336100E-011, 1000.000000000000000, 0.0000000000000000000 ) ) ;
#253 = DIRECTION ( 'NONE',  ( -2.265377428129336200E-014, 1.000000000000000000, 0.0000000000000000000 ) ) ;
#254 = DIRECTION ( 'NONE',  ( -1.000000000000000000, -2.262686094311681200E-014, 0.0000000000000000000 ) ) ;
#255 = CARTESIAN_POINT ( 'NONE',  ( -1.569499521536623800E-014, 0.6928203230278823200, 0.0000000000000000000 ) ) ;
#256 = DIRECTION ( 'NONE',  ( -2.265377428129336200E-014, 1.000000000000000000, 0.0000000000000000000 ) ) ;
#257 = DIRECTION ( 'NONE',  ( -1.000000000000000000, -2.267789544114807100E-014, 0.0000000000000000000 ) ) ;
#258 = CARTESIAN_POINT ( 'NONE',  ( 0.0000000000000000000, 7.105427357601001900E-015, 0.0000000000000000000 ) ) ;
#259 = DIRECTION ( 'NONE',  ( 2.265377428129336200E-014, -1.000000000000000000, -0.0000000000000000000 ) ) ;
#260 = DIRECTION ( 'NONE',  ( 1.000000000000000000, 2.265377428129336500E-014, 0.0000000000000000000 ) ) ;
#261 = CARTESIAN_POINT ( 'NONE',  ( -2.750944911528700300E-013, 12.14342862858102000, 0.0000000000000000000 ) ) ;
#262 = DIRECTION ( 'NONE',  ( -2.265377428129336200E-014, 1.000000000000000000, 0.0000000000000000000 ) ) ;
#263 = DIRECTION ( 'NONE',  ( -1.000000000000000000, -2.255140518769331700E-014, 0.0000000000000000000 ) ) ;
#264 = CARTESIAN_POINT ( 'NONE',  ( 0.0000000000000000000, 7.105427357601001900E-015, 0.0000000000000000000 ) ) ;
#265 = DIRECTION ( 'NONE',  ( 2.265377428129336200E-014, -1.000000000000000000, -0.0000000000000000000 ) ) ;
#266 = DIRECTION ( 'NONE',  ( 1.000000000000000000, 2.265377428129336200E-014, 0.0000000000000000000 ) ) ;
#267 = CARTESIAN_POINT ( 'NONE',  ( -9.034325183379315300E-013, 39.87999999999789900, 0.0000000000000000000 ) ) ;
#268 = DIRECTION ( 'NONE',  ( 2.265377428129336200E-014, -1.000000000000000000, -0.0000000000000000000 ) ) ;
#269 = DIRECTION ( 'NONE',  ( 1.000000000000000000, 2.238352872227788700E-014, 0.0000000000000000000 ) ) ;
#270 = PLANE ( 'NONE',  #72 ) ;
#271 = CARTESIAN_POINT ( 'NONE',  ( 6.719999999998059100, 39.99999999999810300, 0.0000000000000000000 ) ) ;
#272 = DIRECTION ( 'NONE',  ( -2.265377428129336200E-014, 1.000000000000000000, 0.0000000000000000000 ) ) ;
#273 = DIRECTION ( 'NONE',  ( -1.000000000000000000, -2.265377428129336200E-014, 0.0000000000000000000 ) ) ;
#274 = LINE ( 'NONE', #275, #71 ) ;
#275 = CARTESIAN_POINT ( 'NONE',  ( 7.750000000000306400, 39.87999999999807000, 0.0000000000000000000 ) ) ;
#276 = DIRECTION ( 'NONE',  ( 0.7071067811863820400, -0.7071067811867130000, 0.0000000000000000000 ) ) ;
#277 = CARTESIAN_POINT ( 'NONE',  ( -3.656914634459536500E-013, 16.14262854856500000, 0.0000000000000000000 ) ) ;
#278 = LINE ( 'NONE', #279, #69 ) ;
#279 = CARTESIAN_POINT ( 'NONE',  ( -7.750000000000933500, -1.684613233224436900E-013, 9.491012693393129700E-016 ) ) ;
#280 = DIRECTION ( 'NONE',  ( 2.265377428129336200E-014, -1.000000000000000000, -0.0000000000000000000 ) ) ;
#281 = DIRECTION ( 'NONE',  ( 2.265377428129336200E-014, -1.000000000000000000, -0.0000000000000000000 ) ) ;
#282 = DIRECTION ( 'NONE',  ( 1.000000000000000000, 2.283119929672507300E-014, 0.0000000000000000000 ) ) ;
#283 = CARTESIAN_POINT ( 'NONE',  ( -2.750944911528700300E-013, 12.14342862858102000, 0.0000000000000000000 ) ) ;
#284 = DIRECTION ( 'NONE',  ( 2.265377428129336200E-014, -1.000000000000000000, -0.0000000000000000000 ) ) ;
#285 = DIRECTION ( 'NONE',  ( 1.000000000000000000, 2.255140518769331700E-014, 0.0000000000000000000 ) ) ;
#286 = CARTESIAN_POINT ( 'NONE',  ( -1.925570813909869500E-012, 84.99999999999708700, 0.0000000000000000000 ) ) ;
#287 = DIRECTION ( 'NONE',  ( 2.265377428129336200E-014, -1.000000000000000000, -0.0000000000000000000 ) ) ;
#288 = DIRECTION ( 'NONE',  ( 1.000000000000000000, 2.191229653865461200E-014, 0.0000000000000000000 ) ) ;
#289 = CARTESIAN_POINT ( 'NONE',  ( -1.918774681625481000E-012, 84.69999999999707500, 0.0000000000000000000 ) ) ;
#290 = DIRECTION ( 'NONE',  ( 2.265377428129336200E-014, -1.000000000000000000, -0.0000000000000000000 ) ) ;
#291 = DIRECTION ( 'NONE',  ( 1.000000000000000000, 2.312964634635783900E-014, 0.0000000000000000000 ) ) ;
#292 = CARTESIAN_POINT ( 'NONE',  ( -9.014424726870797800E-013, 39.79215390308967000, 0.0000000000000000000 ) ) ;
#293 = DIRECTION ( 'NONE',  ( 2.265377428129336200E-014, -1.000000000000000000, -0.0000000000000000000 ) ) ;
#294 = DIRECTION ( 'NONE',  ( 1.000000000000000000, 2.291144213554674700E-014, 0.0000000000000000000 ) ) ;
#295 = CARTESIAN_POINT ( 'NONE',  ( -9.061509712516871800E-013, 39.99999999999791800, 0.0000000000000000000 ) ) ;
#296 = DIRECTION ( 'NONE',  ( 2.265377428129336200E-014, -1.000000000000000000, -0.0000000000000000000 ) ) ;
#297 = DIRECTION ( 'NONE',  ( 1.000000000000000000, 2.271661694731882800E-014, 0.0000000000000000000 ) ) ;
#298 = CARTESIAN_POINT ( 'NONE',  ( -9.061509712516885000E-013, 39.99999999999797500, 0.0000000000000000000 ) ) ;
#299 = DIRECTION ( 'NONE',  ( 2.265377428129336200E-014, -1.000000000000000000, -0.0000000000000000000 ) ) ;
#300 = DIRECTION ( 'NONE',  ( 1.000000000000000000, 2.273556325002013000E-014, 0.0000000000000000000 ) ) ;
#301 = CARTESIAN_POINT ( 'NONE',  ( -9.034325183379315300E-013, 39.87999999999789900, 0.0000000000000000000 ) ) ;
#302 = DIRECTION ( 'NONE',  ( 2.265377428129336200E-014, -1.000000000000000000, -0.0000000000000000000 ) ) ;
#303 = DIRECTION ( 'NONE',  ( 1.000000000000000000, 2.238352872227788700E-014, 0.0000000000000000000 ) ) ;
#304 = CARTESIAN_POINT ( 'NONE',  ( -3.656914634459536500E-013, 16.14262854856500000, 0.0000000000000000000 ) ) ;
#305 = DIRECTION ( 'NONE',  ( 2.265377428129336200E-014, -1.000000000000000000, -0.0000000000000000000 ) ) ;
#306 = DIRECTION ( 'NONE',  ( 1.000000000000000000, 2.283119929672507300E-014, 0.0000000000000000000 ) ) ;
#307 = CARTESIAN_POINT ( 'NONE',  ( -2.750944911528700300E-013, 12.14342862858102000, 0.0000000000000000000 ) ) ;
#308 = DIRECTION ( 'NONE',  ( 2.265377428129336200E-014, -1.000000000000000000, -0.0000000000000000000 ) ) ;
#309 = DIRECTION ( 'NONE',  ( 1.000000000000000000, 2.255140518769331700E-014, 0.0000000000000000000 ) ) ;
#310 = CARTESIAN_POINT ( 'NONE',  ( -2.040349377996318000E-013, 9.006664199356677600, 0.0000000000000000000 ) ) ;
#311 = DIRECTION ( 'NONE',  ( 2.265377428129336200E-014, -1.000000000000000000, -0.0000000000000000000 ) ) ;
#312 = DIRECTION ( 'NONE',  ( 1.000000000000000000, 2.255140518770039500E-014, 0.0000000000000000000 ) ) ;
#313 = CARTESIAN_POINT ( 'NONE',  ( -1.569499521536623800E-014, 0.6928203230278823200, 0.0000000000000000000 ) ) ;
#314 = DIRECTION ( 'NONE',  ( 2.265377428129336200E-014, -1.000000000000000000, -0.0000000000000000000 ) ) ;
#315 = DIRECTION ( 'NONE',  ( 1.000000000000000000, 2.267789544114807100E-014, 0.0000000000000000000 ) ) ;
#316 = CARTESIAN_POINT ( 'NONE',  ( -1.569499521536623800E-014, 0.6928203230278823200, 0.0000000000000000000 ) ) ;
#317 = LINE ( 'NONE', #318, #52 ) ;
#318 = CARTESIAN_POINT ( 'NONE',  ( 0.0000000000000000000, 7.105427357601001900E-015, 0.0000000000000000000 ) ) ;
#319 = CARTESIAN_POINT ( 'NONE',  ( -9.034325183379315300E-013, 39.87999999999789900, 0.0000000000000000000 ) ) ;
#320 = DIRECTION ( 'NONE',  ( -0.8660254037844160600, 0.5000000000000390800, 0.0000000000000000000 ) ) ;
#321 = LINE ( 'NONE', #322, #48 ) ;
#322 = CARTESIAN_POINT ( 'NONE',  ( 0.0000000000000000000, 7.105427357601001900E-015, 0.0000000000000000000 ) ) ;
#323 = DIRECTION ( 'NONE',  ( 0.8660254037843934100, 0.5000000000000783800, 1.060575238724865300E-016 ) ) ;
#324 = LINE ( 'NONE', #325, #46 ) ;
#325 = CARTESIAN_POINT ( 'NONE',  ( -1.200000000000389400, 0.6928203230278551200, 0.0000000000000000000 ) ) ;
#326 = DIRECTION ( 'NONE',  ( -0.5000000000000327500, 0.8660254037844198300, 0.0000000000000000000 ) ) ;
#327 = DIRECTION ( 'NONE',  ( 2.265377428129336200E-014, -1.000000000000000000, -0.0000000000000000000 ) ) ;
#328 = DIRECTION ( 'NONE',  ( 1.000000000000000000, 2.267789544114807100E-014, 0.0000000000000000000 ) ) ;
#329 = CARTESIAN_POINT ( 'NONE',  ( -2.040349377996318000E-013, 9.006664199356677600, 0.0000000000000000000 ) ) ;
#330 = LINE ( 'NONE', #331, #43 ) ;
#331 = CARTESIAN_POINT ( 'NONE',  ( 1.200000000000358100, 0.6928203230279095200, 1.469576158977281600E-016 ) ) ;
#332 = DIRECTION ( 'NONE',  ( 0.4999999999999935600, 0.8660254037844424800, 6.123233995736927500E-017 ) ) ;
#333 = LINE ( 'NONE', #334, #41 ) ;
#334 = CARTESIAN_POINT ( 'NONE',  ( 6.000000000000435200, 1.430280730453710500E-013, 0.0000000000000000000 ) ) ;
#335 = DIRECTION ( 'NONE',  ( 2.265377428129336200E-014, -1.000000000000000000, -0.0000000000000000000 ) ) ;
#336 = DIRECTION ( 'NONE',  ( 2.265377428129336200E-014, -1.000000000000000000, -0.0000000000000000000 ) ) ;
#337 = DIRECTION ( 'NONE',  ( 1.000000000000000000, 2.255140518770039500E-014, 0.0000000000000000000 ) ) ;
#338 = CARTESIAN_POINT ( 'NONE',  ( -9.061509712516885000E-013, 39.99999999999797500, 0.0000000000000000000 ) ) ;
#339 = LINE ( 'NONE', #340, #36 ) ;
#340 = CARTESIAN_POINT ( 'NONE',  ( -6.000000000000435200, -1.288172183301690400E-013, 7.347880794884653200E-016 ) ) ;
#341 = DIRECTION ( 'NONE',  ( 2.265377428129336200E-014, -1.000000000000000000, -0.0000000000000000000 ) ) ;
#342 = LINE ( 'NONE', #343, #34 ) ;
#343 = CARTESIAN_POINT ( 'NONE',  ( 7.750000000000933500, 1.826721780376457000E-013, 0.0000000000000000000 ) ) ;
#344 = DIRECTION ( 'NONE',  ( 2.265377428129336200E-014, -1.000000000000000000, -0.0000000000000000000 ) ) ;
#345 = LINE ( 'NONE', #346, #32 ) ;
#346 = CARTESIAN_POINT ( 'NONE',  ( 6.000000000001101300, 12.14342862858115500, 7.347880794885805900E-016 ) ) ;
#347 = DIRECTION ( 'NONE',  ( 0.4008861359645853900, 0.9161278873560088100, 4.909439232316055600E-017 ) ) ;
#348 = LINE ( 'NONE', #349, #31 ) ;
#349 = CARTESIAN_POINT ( 'NONE',  ( -6.719999999999871900, 39.99999999999776900, 0.0000000000000000000 ) ) ;
#350 = DIRECTION ( 'NONE',  ( -0.8660254037845135400, 0.4999999999998703300, 0.0000000000000000000 ) ) ;
#351 = LINE ( 'NONE', #352, #26 ) ;
#352 = CARTESIAN_POINT ( 'NONE',  ( -7.750000000002113900, 39.87999999999772200, 9.491012693393468900E-016 ) ) ;
#353 = DIRECTION ( 'NONE',  ( -0.7071067811863500600, -0.7071067811867449700, 8.659560562352710500E-017 ) ) ;
#354 = DIRECTION ( 'NONE',  ( 2.265377428129336200E-014, -1.000000000000000000, -0.0000000000000000000 ) ) ;
#355 = DIRECTION ( 'NONE',  ( 1.000000000000000000, 2.273556325002013000E-014, 0.0000000000000000000 ) ) ;
#356 = CARTESIAN_POINT ( 'NONE',  ( -9.034325183379315300E-013, 39.87999999999789900, 0.0000000000000000000 ) ) ;
#357 = DIRECTION ( 'NONE',  ( 2.265377428129336200E-014, -1.000000000000000000, -0.0000000000000000000 ) ) ;
#358 = DIRECTION ( 'NONE',  ( 1.000000000000000000, 2.238352872227788700E-014, 0.0000000000000000000 ) ) ;
#359 = CARTESIAN_POINT ( 'NONE',  ( -6.000000000001811900, 84.69999999999693300, 7.347880794884609800E-016 ) ) ;
#360 = FILL_AREA_STYLE_COLOUR ( '', #101 ) ;
#361 = FILL_AREA_STYLE ('',( #360 ) ) ;
#362 = SURFACE_STYLE_FILL_AREA ( #361 ) ;
#363 = SURFACE_SIDE_STYLE ('',( #362 ) ) ;
#364 = SURFACE_STYLE_USAGE ( .BOTH. , #363 ) ;
#365 = PRESENTATION_STYLE_ASSIGNMENT (( #364 ) ) ;
#366 =( LENGTH_UNIT ( ) NAMED_UNIT ( * ) SI_UNIT ( .MILLI., .METRE. ) );
#367 =( NAMED_UNIT ( * ) PLANE_ANGLE_UNIT ( ) SI_UNIT ( $, .RADIAN. ) );
#368 =( NAMED_UNIT ( * ) SI_UNIT ( $, .STERADIAN. ) SOLID_ANGLE_UNIT ( ) );
#369 = CARTESIAN_POINT ( 'NONE',  ( 5.999999999997975000, 84.69999999999720300, 0.0000000000000000000 ) ) ;
#370 = CARTESIAN_POINT ( 'NONE',  ( 5.699999999998021300, 84.99999999999721500, 0.0000000000000000000 ) ) ;
#371 = CARTESIAN_POINT ( 'NONE',  ( -5.700000000001871600, 84.99999999999697300, 7.164183775011920800E-016 ) ) ;
#372 = CARTESIAN_POINT ( 'NONE',  ( 0.0000000000000000000, 7.105427357601001900E-015, 0.0000000000000000000 ) ) ;
#373 = CARTESIAN_POINT ( 'NONE',  ( -1.200000000000389400, 0.6928203230278550100, 0.0000000000000000000 ) ) ;
#374 = CARTESIAN_POINT ( 'NONE',  ( 1.200000000000357900, 0.6928203230279095200, 1.469576158977281600E-016 ) ) ;
#375 = CARTESIAN_POINT ( 'NONE',  ( 5.999999999999289500, 9.006664199356814400, 7.347880794883498500E-016 ) ) ;
#376 = CARTESIAN_POINT ( 'NONE',  ( -5.999999999999697100, 9.006664199356542600, 0.0000000000000000000 ) ) ;
#377 = CARTESIAN_POINT ( 'NONE',  ( -6.000000000001652000, 12.14342862858088500, 7.347880794885849300E-016 ) ) ;
#378 = CARTESIAN_POINT ( 'NONE',  ( 6.000000000001101300, 12.14342862858115500, 0.0000000000000000000 ) ) ;
#379 = CARTESIAN_POINT ( 'NONE',  ( 7.750000000000292200, 16.14262854856517700, 9.491012693392792400E-016 ) ) ;
#380 = CARTESIAN_POINT ( 'NONE',  ( -7.750000000001022300, 16.14262854856482600, 0.0000000000000000000 ) ) ;
#381 = CARTESIAN_POINT ( 'NONE',  ( 7.750000000000306400, 39.87999999999807000, 0.0000000000000000000 ) ) ;
#382 = CARTESIAN_POINT ( 'NONE',  ( -7.750000000002113900, 39.87999999999772200, 9.491012693393798200E-016 ) ) ;
#383 = CARTESIAN_POINT ( 'NONE',  ( -7.630000000002100400, 39.99999999999780400, 9.417533885444620400E-016 ) ) ;
#384 = CARTESIAN_POINT ( 'NONE',  ( 7.630000000000286800, 39.99999999999814500, 0.0000000000000000000 ) ) ;
#385 = CARTESIAN_POINT ( 'NONE',  ( -6.719999999999872700, 39.99999999999776900, 0.0000000000000000000 ) ) ;
#386 = CARTESIAN_POINT ( 'NONE',  ( 6.719999999998058200, 39.99999999999807400, 8.229626490268946000E-016 ) ) ;
#387 = CARTESIAN_POINT ( 'NONE',  ( 6.359999999997985000, 39.79215390308981200, 8.009190066422375100E-016 ) ) ;
#388 = CARTESIAN_POINT ( 'NONE',  ( -6.359999999999788000, 39.79215390308952000, 0.0000000000000000000 ) ) ;
#389 = CARTESIAN_POINT ( 'NONE',  ( 5.999999999998031800, 39.99999999999807400, 0.0000000000000000000 ) ) ;
#390 = CARTESIAN_POINT ( 'NONE',  ( -5.999999999999844600, 39.99999999999779700, 7.568317218729310100E-016 ) ) ;
#391 =( LENGTH_UNIT ( ) NAMED_UNIT ( * ) SI_UNIT ( .MILLI., .METRE. ) );
#392 =( NAMED_UNIT ( * ) PLANE_ANGLE_UNIT ( ) SI_UNIT ( $, .RADIAN. ) );
#393 =( NAMED_UNIT ( * ) SI_UNIT ( $, .STERADIAN. ) SOLID_ANGLE_UNIT ( ) );
#394 = APPLICATION_PROTOCOL_DEFINITION ( 'draft international standard', 'automotive_design', 1998, #92 ) ;
#395 = FILL_AREA_STYLE_COLOUR ( '', #100 ) ;
#396 = FILL_AREA_STYLE ('',( #395 ) ) ;
#397 = SURFACE_STYLE_FILL_AREA ( #396 ) ;
#398 = SURFACE_SIDE_STYLE ('',( #397 ) ) ;
#399 = SURFACE_STYLE_USAGE ( .BOTH. , #398 ) ;
#400 = PRESENTATION_STYLE_ASSIGNMENT (( #399 ) ) ;
#401 =( LENGTH_UNIT ( ) NAMED_UNIT ( * ) SI_UNIT ( .MILLI., .METRE. ) );
#402 =( NAMED_UNIT ( * ) PLANE_ANGLE_UNIT ( ) SI_UNIT ( $, .RADIAN. ) );
#403 =( NAMED_UNIT ( * ) SI_UNIT ( $, .STERADIAN. ) SOLID_ANGLE_UNIT ( ) );
#404 = CARTESIAN_POINT ( 'NONE',  ( 0.0000000000000000000, 0.0000000000000000000, 0.0000000000000000000 ) ) ;
#405 = DIRECTION ( 'NONE',  ( 0.0000000000000000000, 0.0000000000000000000, 1.000000000000000000 ) ) ;
#406 = DIRECTION ( 'NONE',  ( 1.000000000000000000, 0.0000000000000000000, 0.0000000000000000000 ) ) ;
#407 = SHAPE_DEFINITION_REPRESENTATION ( #437, #204 ) ;
#408 = PRODUCT_CONTEXT ( 'NONE', #92, 'mechanical' ) ;
#409 = APPLICATION_PROTOCOL_DEFINITION ( 'draft international standard', 'automotive_design', 1998, #93 ) ;
#410 = DIRECTION ( 'NONE',  ( 2.265377428129336200E-014, -1.000000000000000000, -0.0000000000000000000 ) ) ;
#411 = CARTESIAN_POINT ( 'NONE',  ( -9.061509712516874900E-013, 39.99999999999793200, 0.0000000000000000000 ) ) ;
#412 = DIRECTION ( 'NONE',  ( 1.000000000000000000, 0.0000000000000000000, -1.224646799147352000E-016 ) ) ;
#413 = DIRECTION ( 'NONE',  ( 1.224646799147353200E-016, 2.774287216219254600E-030, 1.000000000000000000 ) ) ;
#414 = DIRECTION ( 'NONE',  ( 2.265377428129336200E-014, -1.000000000000000000, -0.0000000000000000000 ) ) ;
#415 = CARTESIAN_POINT ( 'NONE',  ( -5.999999999999415600, -1.288172183301459200E-013, 7.347880794883403800E-016 ) ) ;
#416 = LINE ( 'NONE', #415, #209 ) ;
#417 = CARTESIAN_POINT ( 'NONE',  ( -6.239999999999844800, 39.99999999999782600, 7.641796026678183200E-016 ) ) ;
#418 = DIRECTION ( 'NONE',  ( 1.000000000000000000, 2.291144213554674700E-014, 0.0000000000000000000 ) ) ;
#419 = DIRECTION ( 'NONE',  ( 2.265377428129336200E-014, -1.000000000000000000, -0.0000000000000000000 ) ) ;
#420 = CARTESIAN_POINT ( 'NONE',  ( -9.014424726870797800E-013, 39.79215390308967000, 0.0000000000000000000 ) ) ;
#421 = DIRECTION ( 'NONE',  ( 1.000000000000000000, 2.312964634636151800E-014, 0.0000000000000000000 ) ) ;
#422 = DIRECTION ( 'NONE',  ( 2.265377428129336200E-014, -1.000000000000000000, -0.0000000000000000000 ) ) ;
#423 = DIRECTION ( 'NONE',  ( 0.7071067811864745200, -0.7071067811866205100, 0.0000000000000000000 ) ) ;
#424 = CARTESIAN_POINT ( 'NONE',  ( 5.999999999997975000, 84.69999999999720300, 0.0000000000000000000 ) ) ;
#425 = LINE ( 'NONE', #424, #212 ) ;
#426 = DIRECTION ( 'NONE',  ( -0.7071067811864425500, -0.7071067811866526000, 8.659560562353844500E-017 ) ) ;
#427 = CARTESIAN_POINT ( 'NONE',  ( -6.000000000001811900, 84.69999999999693300, 7.347880794883988600E-016 ) ) ;
#428 = LINE ( 'NONE', #427, #214 ) ;
#429 = DIRECTION ( 'NONE',  ( -0.4008861359646269100, 0.9161278873559906000, 0.0000000000000000000 ) ) ;
#430 = CARTESIAN_POINT ( 'NONE',  ( -6.000000000001652000, 12.14342862858088500, 0.0000000000000000000 ) ) ;
#431 = LINE ( 'NONE', #430, #215 ) ;
#432 = CARTESIAN_POINT ( 'NONE',  ( -9.061509712516874900E-013, 39.99999999999793200, 0.0000000000000000000 ) ) ;
#433 = DIRECTION ( 'NONE',  ( -1.000000000000000000, 0.0000000000000000000, 0.0000000000000000000 ) ) ;
#434 = DIRECTION ( 'NONE',  ( 0.0000000000000000000, 0.0000000000000000000, -1.000000000000000000 ) ) ;
#435 = CARTESIAN_POINT ( 'NONE',  ( 6.239999999998032000, 39.99999999999811000, 0.0000000000000000000 ) ) ;
#436 = DIRECTION ( 'NONE',  ( 1.000000000000000000, 2.191229653865461200E-014, 0.0000000000000000000 ) ) ;
#437 = PRODUCT_DEFINITION_SHAPE ( 'NONE', 'NONE',  #98 ) ;
#438 = PRODUCT_DEFINITION_CONTEXT ( 'detailed design', #93, 'design' ) ;
#439 = MANIFOLD_SOLID_BREP ( '±ÛÂà1', #234 ) ;
#440 = EDGE_LOOP ( 'NONE', ( #470, #466, #472, #464 ) ) ;
#441 = EDGE_LOOP ( 'NONE', ( #562, #564, #563, #565 ) ) ;
#442 = EDGE_LOOP ( 'NONE', ( #498, #500, #499, #501 ) ) ;
#443 = EDGE_LOOP ( 'NONE', ( #561, #593, #594, #558 ) ) ;
#444 = EDGE_LOOP ( 'NONE', ( #556, #555, #557, #554 ) ) ;
#445 = EDGE_LOOP ( 'NONE', ( #553, #551, #552, #550 ) ) ;
#446 = EDGE_LOOP ( 'NONE', ( #549, #547, #548 ) ) ;
#447 = EDGE_LOOP ( 'NONE', ( #546, #545, #544 ) ) ;
#448 = EDGE_LOOP ( 'NONE', ( #542, #541, #540, #543 ) ) ;
#449 = EDGE_LOOP ( 'NONE', ( #538, #537, #539, #535 ) ) ;
#450 = EDGE_LOOP ( 'NONE', ( #534, #533, #532, #536 ) ) ;
#451 = EDGE_LOOP ( 'NONE', ( #530, #529, #531, #527 ) ) ;
#452 = EDGE_LOOP ( 'NONE', ( #526, #525, #528, #523 ) ) ;
#453 = EDGE_LOOP ( 'NONE', ( #522, #521 ) ) ;
#454 = EDGE_LOOP ( 'NONE', ( #519, #520 ) ) ;
#455 = EDGE_LOOP ( 'NONE', ( #518, #517, #524, #515 ) ) ;
#456 = EDGE_LOOP ( 'NONE', ( #514, #513, #512, #516 ) ) ;
#457 = EDGE_LOOP ( 'NONE', ( #510, #509, #511, #507 ) ) ;
#458 = EDGE_LOOP ( 'NONE', ( #506, #505, #508, #504 ) ) ;
#459 = EDGE_LOOP ( 'NONE', ( #503, #502 ) ) ;
#460 = ORIENTED_EDGE ( 'NONE', *, *, #153, .F. ) ;
#461 = ORIENTED_EDGE ( 'NONE', *, *, #142, .F. ) ;
#462 = ORIENTED_EDGE ( 'NONE', *, *, #148, .F. ) ;
#463 = ORIENTED_EDGE ( 'NONE', *, *, #142, .T. ) ;
#464 = ORIENTED_EDGE ( 'NONE', *, *, #196, .F. ) ;
#465 = ORIENTED_EDGE ( 'NONE', *, *, #154, .F. ) ;
#466 = ORIENTED_EDGE ( 'NONE', *, *, #141, .T. ) ;
#467 = ORIENTED_EDGE ( 'NONE', *, *, #144, .T. ) ;
#468 = ORIENTED_EDGE ( 'NONE', *, *, #147, .T. ) ;
#469 = ORIENTED_EDGE ( 'NONE', *, *, #151, .T. ) ;
#470 = ORIENTED_EDGE ( 'NONE', *, *, #150, .T. ) ;
#471 = ORIENTED_EDGE ( 'NONE', *, *, #149, .T. ) ;
#472 = ORIENTED_EDGE ( 'NONE', *, *, #143, .F. ) ;
#473 = ORIENTED_EDGE ( 'NONE', *, *, #145, .F. ) ;
#474 = ORIENTED_EDGE ( 'NONE', *, *, #152, .T. ) ;
#475 = ORIENTED_EDGE ( 'NONE', *, *, #150, .F. ) ;
#476 = VERTEX_POINT ( 'NONE', #359 ) ;
#477 = VERTEX_POINT ( 'NONE', #369 ) ;
#478 = VERTEX_POINT ( 'NONE', #370 ) ;
#479 = EDGE_LOOP ( 'NONE', ( #467, #468, #461, #462 ) ) ;
#480 = VERTEX_POINT ( 'NONE', #371 ) ;
#481 = VERTEX_POINT ( 'NONE', #372 ) ;
#482 = VERTEX_POINT ( 'NONE', #373 ) ;
#483 = VERTEX_POINT ( 'NONE', #374 ) ;
#484 = VERTEX_POINT ( 'NONE', #375 ) ;
#485 = VERTEX_POINT ( 'NONE', #376 ) ;
#486 = VERTEX_POINT ( 'NONE', #377 ) ;
#487 = VERTEX_POINT ( 'NONE', #378 ) ;
#488 = VERTEX_POINT ( 'NONE', #379 ) ;
#489 = VERTEX_POINT ( 'NONE', #380 ) ;
#490 = VERTEX_POINT ( 'NONE', #381 ) ;
#491 = VERTEX_POINT ( 'NONE', #382 ) ;
#492 = VERTEX_POINT ( 'NONE', #383 ) ;
#493 = VERTEX_POINT ( 'NONE', #384 ) ;
#494 = VERTEX_POINT ( 'NONE', #385 ) ;
#495 = VERTEX_POINT ( 'NONE', #386 ) ;
#496 = VERTEX_POINT ( 'NONE', #387 ) ;
#497 = VERTEX_POINT ( 'NONE', #388 ) ;
#498 = ORIENTED_EDGE ( 'NONE', *, *, #199, .T. ) ;
#499 = ORIENTED_EDGE ( 'NONE', *, *, #174, .F. ) ;
#500 = ORIENTED_EDGE ( 'NONE', *, *, #173, .T. ) ;
#501 = ORIENTED_EDGE ( 'NONE', *, *, #194, .F. ) ;
#502 = ORIENTED_EDGE ( 'NONE', *, *, #176, .F. ) ;
#503 = ORIENTED_EDGE ( 'NONE', *, *, #144, .F. ) ;
#504 = ORIENTED_EDGE ( 'NONE', *, *, #177, .F. ) ;
#505 = ORIENTED_EDGE ( 'NONE', *, *, #176, .T. ) ;
#506 = ORIENTED_EDGE ( 'NONE', *, *, #147, .F. ) ;
#507 = ORIENTED_EDGE ( 'NONE', *, *, #149, .F. ) ;
#508 = ORIENTED_EDGE ( 'NONE', *, *, #148, .T. ) ;
#509 = ORIENTED_EDGE ( 'NONE', *, *, #177, .T. ) ;
#510 = ORIENTED_EDGE ( 'NONE', *, *, #151, .F. ) ;
#511 = ORIENTED_EDGE ( 'NONE', *, *, #154, .T. ) ;
#512 = ORIENTED_EDGE ( 'NONE', *, *, #145, .T. ) ;
#513 = ORIENTED_EDGE ( 'NONE', *, *, #178, .F. ) ;
#514 = ORIENTED_EDGE ( 'NONE', *, *, #152, .F. ) ;
#515 = ORIENTED_EDGE ( 'NONE', *, *, #179, .F. ) ;
#516 = ORIENTED_EDGE ( 'NONE', *, *, #153, .T. ) ;
#517 = ORIENTED_EDGE ( 'NONE', *, *, #178, .T. ) ;
#518 = ORIENTED_EDGE ( 'NONE', *, *, #141, .F. ) ;
#519 = ORIENTED_EDGE ( 'NONE', *, *, #198, .F. ) ;
#520 = ORIENTED_EDGE ( 'NONE', *, *, #180, .F. ) ;
#521 = ORIENTED_EDGE ( 'NONE', *, *, #179, .T. ) ;
#522 = ORIENTED_EDGE ( 'NONE', *, *, #143, .T. ) ;
#523 = ORIENTED_EDGE ( 'NONE', *, *, #181, .F. ) ;
#524 = ORIENTED_EDGE ( 'NONE', *, *, #196, .T. ) ;
#525 = ORIENTED_EDGE ( 'NONE', *, *, #180, .T. ) ;
#526 = ORIENTED_EDGE ( 'NONE', *, *, #197, .F. ) ;
#527 = ORIENTED_EDGE ( 'NONE', *, *, #182, .F. ) ;
#528 = ORIENTED_EDGE ( 'NONE', *, *, #172, .T. ) ;
#529 = ORIENTED_EDGE ( 'NONE', *, *, #181, .T. ) ;
#530 = ORIENTED_EDGE ( 'NONE', *, *, #173, .F. ) ;
#531 = ORIENTED_EDGE ( 'NONE', *, *, #194, .T. ) ;
#532 = ORIENTED_EDGE ( 'NONE', *, *, #146, .T. ) ;
#533 = ORIENTED_EDGE ( 'NONE', *, *, #183, .F. ) ;
#534 = ORIENTED_EDGE ( 'NONE', *, *, #195, .F. ) ;
#535 = ORIENTED_EDGE ( 'NONE', *, *, #184, .F. ) ;
#536 = ORIENTED_EDGE ( 'NONE', *, *, #182, .T. ) ;
#537 = ORIENTED_EDGE ( 'NONE', *, *, #183, .T. ) ;
#538 = ORIENTED_EDGE ( 'NONE', *, *, #193, .F. ) ;
#539 = ORIENTED_EDGE ( 'NONE', *, *, #191, .T. ) ;
#540 = ORIENTED_EDGE ( 'NONE', *, *, #188, .T. ) ;
#541 = ORIENTED_EDGE ( 'NONE', *, *, #185, .F. ) ;
#542 = ORIENTED_EDGE ( 'NONE', *, *, #190, .F. ) ;
#543 = ORIENTED_EDGE ( 'NONE', *, *, #184, .T. ) ;
#544 = ORIENTED_EDGE ( 'NONE', *, *, #185, .T. ) ;
#545 = ORIENTED_EDGE ( 'NONE', *, *, #186, .T. ) ;
#546 = ORIENTED_EDGE ( 'NONE', *, *, #187, .F. ) ;
#547 = ORIENTED_EDGE ( 'NONE', *, *, #187, .T. ) ;
#548 = ORIENTED_EDGE ( 'NONE', *, *, #189, .T. ) ;
#549 = ORIENTED_EDGE ( 'NONE', *, *, #186, .F. ) ;
#550 = ORIENTED_EDGE ( 'NONE', *, *, #188, .F. ) ;
#551 = ORIENTED_EDGE ( 'NONE', *, *, #190, .T. ) ;
#552 = ORIENTED_EDGE ( 'NONE', *, *, #192, .T. ) ;
#553 = ORIENTED_EDGE ( 'NONE', *, *, #189, .F. ) ;
#554 = ORIENTED_EDGE ( 'NONE', *, *, #191, .F. ) ;
#555 = ORIENTED_EDGE ( 'NONE', *, *, #193, .T. ) ;
#556 = ORIENTED_EDGE ( 'NONE', *, *, #175, .T. ) ;
#557 = ORIENTED_EDGE ( 'NONE', *, *, #192, .F. ) ;
#558 = ORIENTED_EDGE ( 'NONE', *, *, #146, .F. ) ;
#559 = VERTEX_POINT ( 'NONE', #389 ) ;
#560 = VERTEX_POINT ( 'NONE', #390 ) ;
#561 = ORIENTED_EDGE ( 'NONE', *, *, #175, .F. ) ;
#562 = ORIENTED_EDGE ( 'NONE', *, *, #198, .T. ) ;
#563 = ORIENTED_EDGE ( 'NONE', *, *, #199, .F. ) ;
#564 = ORIENTED_EDGE ( 'NONE', *, *, #197, .T. ) ;
#565 = ORIENTED_EDGE ( 'NONE', *, *, #172, .F. ) ;
#566 = DIRECTION ( 'NONE',  ( 2.265377428129336200E-014, -1.000000000000000000, -0.0000000000000000000 ) ) ;
#567 = CARTESIAN_POINT ( 'NONE',  ( -1.925570813909869500E-012, 84.99999999999708700, 0.0000000000000000000 ) ) ;
#568 = DIRECTION ( 'NONE',  ( 1.000000000000000000, 2.271661694731882800E-014, 0.0000000000000000000 ) ) ;
#569 = DIRECTION ( 'NONE',  ( 2.265377428129336200E-014, -1.000000000000000000, -0.0000000000000000000 ) ) ;
#570 = CARTESIAN_POINT ( 'NONE',  ( -9.061509712516871800E-013, 39.99999999999791800, 0.0000000000000000000 ) ) ;
#571 = DIRECTION ( 'NONE',  ( 1.000000000000000000, 2.312964634635783900E-014, 0.0000000000000000000 ) ) ;
#572 = DIRECTION ( 'NONE',  ( 2.265377428129336200E-014, -1.000000000000000000, -0.0000000000000000000 ) ) ;
#573 = CARTESIAN_POINT ( 'NONE',  ( -1.918774681625481000E-012, 84.69999999999707500, 0.0000000000000000000 ) ) ;
#574 = DIRECTION ( 'NONE',  ( 0.8660254037844908900, 0.4999999999999095200, 1.060575238724984700E-016 ) ) ;
#575 = CARTESIAN_POINT ( 'NONE',  ( 6.719999999998059100, 39.99999999999807400, 8.229626490268947000E-016 ) ) ;
#576 = LINE ( 'NONE', #575, #221 ) ;
#577 = DIRECTION ( 'NONE',  ( -1.000000000000000000, -2.265377428129336200E-014, 0.0000000000000000000 ) ) ;
#578 = DIRECTION ( 'NONE',  ( -2.265377428129336200E-014, 1.000000000000000000, 0.0000000000000000000 ) ) ;
#579 = CARTESIAN_POINT ( 'NONE',  ( -1.925570813909870300E-012, 84.99999999999712900, 0.0000000000000000000 ) ) ;
#580 = PLANE ( 'NONE',  #222 ) ;
#581 = DIRECTION ( 'NONE',  ( 1.000000000000000000, 2.312964634635783900E-014, 0.0000000000000000000 ) ) ;
#582 = DIRECTION ( 'NONE',  ( 2.265377428129336200E-014, -1.000000000000000000, -0.0000000000000000000 ) ) ;
#583 = CARTESIAN_POINT ( 'NONE',  ( -1.918774681625481000E-012, 84.69999999999707500, 0.0000000000000000000 ) ) ;
#584 = DIRECTION ( 'NONE',  ( 1.000000000000000000, 2.265377428129336200E-014, 0.0000000000000000000 ) ) ;
#585 = DIRECTION ( 'NONE',  ( 2.265377428129336200E-014, -1.000000000000000000, -0.0000000000000000000 ) ) ;
#586 = CARTESIAN_POINT ( 'NONE',  ( 0.0000000000000000000, 7.105427357601001900E-015, 0.0000000000000000000 ) ) ;
#587 = DIRECTION ( 'NONE',  ( 1.000000000000000000, 2.265377428129336200E-014, 0.0000000000000000000 ) ) ;
#588 = DIRECTION ( 'NONE',  ( 2.265377428129336200E-014, -1.000000000000000000, -0.0000000000000000000 ) ) ;
#589 = CARTESIAN_POINT ( 'NONE',  ( -9.063930161978817100E-013, 39.99999999999796800, 0.0000000000000000000 ) ) ;
#590 = DIRECTION ( 'NONE',  ( -1.000000000000000000, -2.271661694731882800E-014, 0.0000000000000000000 ) ) ;
#591 = DIRECTION ( 'NONE',  ( -2.265377428129336200E-014, 1.000000000000000000, 0.0000000000000000000 ) ) ;
#592 = CARTESIAN_POINT ( 'NONE',  ( -9.061509712516871800E-013, 39.99999999999791800, 0.0000000000000000000 ) ) ;
#593 = ORIENTED_EDGE ( 'NONE', *, *, #195, .T. ) ;
#594 = ORIENTED_EDGE ( 'NONE', *, *, #174, .T. ) ;
#595 = EDGE_LOOP ( 'NONE', ( #463, #469, #460, #465 ) ) ;
#596 = EDGE_LOOP ( 'NONE', ( #475, #474, #471, #473 ) ) ;
ENDSEC;
END-ISO-10303-21;
