ISO-10303-21;
HEADER;
FILE_DESCRIPTION (( 'STEP AP214' ),
    '1' );
FILE_NAME ('99688-SI12-M08+S9MT1203-090.STEP',
    '2023-09-26T05:50:55',
    ( '' ),
    ( '' ),
    'SwSTEP 2.0',
    'SolidWorks 2020',
    '' );
FILE_SCHEMA (( 'AUTOMOTIVE_DESIGN' ));
ENDSEC;

DATA;
#1 = CYLINDRICAL_SURFACE ( 'NONE', #682, 8.000000000000000000 ) ;
#2 = CARTESIAN_POINT ( 'NONE',  ( 0.000000000000000000, 33.50000000000000000, 0.000000000000000000 ) ) ;
#3 = DIRECTION ( 'NONE',  ( -0.000000000000000000, -1.000000000000000000, -0.000000000000000000 ) ) ;
#4 = DIRECTION ( 'NONE',  ( 0.000000000000000000, 0.000000000000000000, 1.000000000000000000 ) ) ;
#5 = ORIENTED_EDGE ( 'NONE', *, *, #716, .T. ) ;
#6 = CARTESIAN_POINT ( 'NONE',  ( 0.000000000000000000, 34.03431499999999943, 0.000000000000000000 ) ) ;
#7 = ORIENTED_EDGE ( 'NONE', *, *, #674, .T. ) ;
#8 = CARTESIAN_POINT ( 'NONE',  ( 0.000000000000000000, 48.50000000000000000, -4.000000000000000000 ) ) ;
#9 = DIRECTION ( 'NONE',  ( -0.000000000000000000, -1.000000000000000000, -0.000000000000000000 ) ) ;
#10 = AXIS2_PLACEMENT_3D ( 'NONE', #673, #509, #412 ) ;
#11 = ORIENTED_EDGE ( 'NONE', *, *, #962, .F. ) ;
#12 = ADVANCED_FACE ( 'NONE', ( #134 ), #457, .T. ) ;
#13 = AXIS2_PLACEMENT_3D ( 'NONE', #32, #528, #861 ) ;
#14 = VERTEX_POINT ( 'NONE', #1016 ) ;
#15 = CONICAL_SURFACE ( 'NONE', #222, 3.499999995516229756, 0.7853976655676686569 ) ;
#16 = CARTESIAN_POINT ( 'NONE',  ( 0.000000000000000000, 40.91905200000000775, 0.000000000000000000 ) ) ;
#17 = CIRCLE ( 'NONE', #108, 6.000000000000000000 ) ;
#18 = CARTESIAN_POINT ( 'NONE',  ( 0.000000000000000000, 33.38000000000000256, 0.000000000000000000 ) ) ;
#19 = CARTESIAN_POINT ( 'NONE',  ( 0.000000000000000000, 33.38000000000000256, 0.000000000000000000 ) ) ;
#20 = CIRCLE ( 'NONE', #292, 4.250000000000000000 ) ;
#21 = SHAPE_DEFINITION_REPRESENTATION ( #945, #107 ) ;
#22 = ORIENTED_EDGE ( 'NONE', *, *, #784, .T. ) ;
#23 = EDGE_LOOP ( 'NONE', ( #11, #792, #89 ) ) ;
#24 = EDGE_CURVE ( 'NONE', #261, #175, #448, .T. ) ;
#25 = DIRECTION ( 'NONE',  ( -0.000000000000000000, -1.000000000000000000, -0.000000000000000000 ) ) ;
#26 = DIRECTION ( 'NONE',  ( 0.000000000000000000, 0.000000000000000000, 1.000000000000000000 ) ) ;
#27 = DIRECTION ( 'NONE',  ( -0.000000000000000000, -1.000000000000000000, -0.000000000000000000 ) ) ;
#28 = ORIENTED_EDGE ( 'NONE', *, *, #115, .F. ) ;
#29 = ORIENTED_EDGE ( 'NONE', *, *, #325, .F. ) ;
#30 = CARTESIAN_POINT ( 'NONE',  ( 0.000000000000000000, 40.91905200000000775, 0.000000000000000000 ) ) ;
#31 = EDGE_CURVE ( 'NONE', #471, #850, #205, .T. ) ;
#32 = CARTESIAN_POINT ( 'NONE',  ( 0.000000000000000000, 34.03431499999999943, -4.349999999999997868 ) ) ;
#33 = VERTEX_POINT ( 'NONE', #787 ) ;
#34 = CIRCLE ( 'NONE', #576, 4.000000000000000000 ) ;
#35 = FILL_AREA_STYLE_COLOUR ( '', #127 ) ;
#36 = CIRCLE ( 'NONE', #163, 3.499999995516229756 ) ;
#37 = DIRECTION ( 'NONE',  ( 0.000000000000000000, 0.000000000000000000, -1.000000000000000000 ) ) ;
#38 = CONICAL_SURFACE ( 'NONE', #628, 4.500000000000000888, 1.047196253089808682 ) ;
#39 = PRODUCT_RELATED_PRODUCT_CATEGORY ( 'part', '', ( #314 ) ) ;
#40 = EDGE_LOOP ( 'NONE', ( #839, #1013, #173, #592 ) ) ;
#41 = EDGE_LOOP ( 'NONE', ( #86, #130, #394, #975 ) ) ;
#42 = DIRECTION ( 'NONE',  ( -0.000000000000000000, -1.000000000000000000, -0.000000000000000000 ) ) ;
#43 = DIRECTION ( 'NONE',  ( 0.000000000000000000, 0.000000000000000000, -1.000000000000000000 ) ) ;
#44 = ADVANCED_FACE ( 'NONE', ( #367 ), #529, .T. ) ;
#45 = LINE ( 'NONE', #371, #336 ) ;
#46 = FACE_OUTER_BOUND ( 'NONE', #912, .T. ) ;
#47 = DIRECTION ( 'NONE',  ( 0.000000000000000000, 0.000000000000000000, 1.000000000000000000 ) ) ;
#48 = DIRECTION ( 'NONE',  ( -0.000000000000000000, -1.000000000000000000, -0.000000000000000000 ) ) ;
#49 = VECTOR ( 'NONE', #1012, 1000.000000000000114 ) ;
#50 = AXIS2_PLACEMENT_3D ( 'NONE', #490, #817, #84 ) ;
#51 = CONICAL_SURFACE ( 'NONE', #660, 4.067157287525378528, 0.7853993254610842634 ) ;
#52 = ORIENTED_EDGE ( 'NONE', *, *, #320, .F. ) ;
#53 = DIRECTION ( 'NONE',  ( -0.000000000000000000, -1.000000000000000000, -0.000000000000000000 ) ) ;
#54 = ORIENTED_EDGE ( 'NONE', *, *, #234, .F. ) ;
#55 = DIRECTION ( 'NONE',  ( 0.000000000000000000, 0.000000000000000000, 1.000000000000000000 ) ) ;
#56 = EDGE_CURVE ( 'NONE', #766, #468, #135, .T. ) ;
#57 = DIRECTION ( 'NONE',  ( 0.000000000000000000, 0.000000000000000000, 1.000000000000000000 ) ) ;
#58 = DIRECTION ( 'NONE',  ( 0.000000000000000000, 0.000000000000000000, -1.000000000000000000 ) ) ;
#59 = AXIS2_PLACEMENT_3D ( 'NONE', #1024, #533, #444 ) ;
#60 = AXIS2_PLACEMENT_3D ( 'NONE', #226, #402, #805 ) ;
#61 = ORIENTED_EDGE ( 'NONE', *, *, #474, .T. ) ;
#62 = DIRECTION ( 'NONE',  ( -0.000000000000000000, -1.000000000000000000, -0.000000000000000000 ) ) ;
#63 = AXIS2_PLACEMENT_3D ( 'NONE', #583, #507, #979 ) ;
#64 = EDGE_CURVE ( 'NONE', #249, #175, #1048, .T. ) ;
#65 = CARTESIAN_POINT ( 'NONE',  ( 5.510910596163089556E-16, 33.50000000000000000, -4.500000000000000888 ) ) ;
#66 = CARTESIAN_POINT ( 'NONE',  ( 0.000000000000000000, 41.49999949768619700, -3.499999995516229312 ) ) ;
#67 = PRESENTATION_LAYER_ASSIGNMENT (  '', '', ( #713 ) ) ;
#68 = FACE_OUTER_BOUND ( 'NONE', #639, .T. ) ;
#69 = ORIENTED_EDGE ( 'NONE', *, *, #243, .F. ) ;
#70 = EDGE_CURVE ( 'NONE', #761, #602, #544, .T. ) ;
#71 = CARTESIAN_POINT ( 'NONE',  ( 4.959819536546777642E-16, 40.24161999999999750, 4.049999999999998046 ) ) ;
#72 = CARTESIAN_POINT ( 'NONE',  ( 0.000000000000000000, 10.21394300000000399, 0.000000000000000000 ) ) ;
#73 = ADVANCED_FACE ( 'NONE', ( #524 ), #849, .T. ) ;
#74 = DIRECTION ( 'NONE',  ( 0.000000000000000000, 0.000000000000000000, -1.000000000000000000 ) ) ;
#75 = DIRECTION ( 'NONE',  ( -0.000000000000000000, -1.000000000000000000, -0.000000000000000000 ) ) ;
#76 = APPLICATION_CONTEXT ( 'automotive_design' ) ;
#77 = AXIS2_PLACEMENT_3D ( 'NONE', #943, #770, #685 ) ;
#78 = DIRECTION ( 'NONE',  ( 0.000000000000000000, 0.000000000000000000, -1.000000000000000000 ) ) ;
#79 = CONICAL_SURFACE ( 'NONE', #221, 4.000000000000000000, 0.5235988237060776873 ) ;
#80 = ORIENTED_EDGE ( 'NONE', *, *, #690, .T. ) ;
#81 = CARTESIAN_POINT ( 'NONE',  ( 0.000000000000000000, 34.50000000000000000, 0.000000000000000000 ) ) ;
#82 = DIRECTION ( 'NONE',  ( 0.000000000000000000, 0.000000000000000000, -1.000000000000000000 ) ) ;
#83 = EDGE_CURVE ( 'NONE', #818, #516, #364, .T. ) ;
#84 = DIRECTION ( 'NONE',  ( -1.224646799147351482E-16, 0.000000000000000000, -1.000000000000000000 ) ) ;
#85 = ORIENTED_EDGE ( 'NONE', *, *, #921, .T. ) ;
#86 = ORIENTED_EDGE ( 'NONE', *, *, #821, .F. ) ;
#87 = DIRECTION ( 'NONE',  ( -0.000000000000000000, -1.000000000000000000, -0.000000000000000000 ) ) ;
#88 = ORIENTED_EDGE ( 'NONE', *, *, #614, .T. ) ;
#89 = ORIENTED_EDGE ( 'NONE', *, *, #545, .T. ) ;
#90 = DIRECTION ( 'NONE',  ( 8.659559263123073087E-17, -0.7071068872768641045, 0.7071066750962150538 ) ) ;
#91 = ADVANCED_FACE ( 'NONE', ( #46 ), #611, .T. ) ;
#92 = DIRECTION ( 'NONE',  ( 0.000000000000000000, 0.000000000000000000, -1.000000000000000000 ) ) ;
#93 = PRODUCT_CONTEXT ( 'NONE', #940, 'mechanical' ) ;
#94 = ORIENTED_EDGE ( 'NONE', *, *, #64, .F. ) ;
#95 = ORIENTED_EDGE ( 'NONE', *, *, #83, .F. ) ;
#96 = FACE_OUTER_BOUND ( 'NONE', #182, .T. ) ;
#97 = EDGE_LOOP ( 'NONE', ( #437, #378, #615, #909 ) ) ;
#98 = CARTESIAN_POINT ( 'NONE',  ( 9.797174393178825657E-16, -6.499999999999028333, 8.000000000000000000 ) ) ;
#99 = DIRECTION ( 'NONE',  ( 1.060575238724847134E-16, 0.5000000000000847100, -0.8660254037843897468 ) ) ;
#100 = AXIS2_PLACEMENT_3D ( 'NONE', #928, #289, #200 ) ;
#101 = ORIENTED_EDGE ( 'NONE', *, *, #257, .F. ) ;
#102 = AXIS2_PLACEMENT_3D ( 'NONE', #72, #62, #952 ) ;
#103 = EDGE_CURVE ( 'NONE', #655, #435, #215, .T. ) ;
#104 = ORIENTED_EDGE ( 'NONE', *, *, #829, .T. ) ;
#105 = DIRECTION ( 'NONE',  ( 0.000000000000000000, 0.000000000000000000, -1.000000000000000000 ) ) ;
#106 = VERTEX_POINT ( 'NONE', #396 ) ;
#107 = ADVANCED_BREP_SHAPE_REPRESENTATION ( '99688-SI12-M08+S9MT1203-090', ( #939, #379 ), #729 ) ;
#108 = AXIS2_PLACEMENT_3D ( 'NONE', #840, #970, #493 ) ;
#109 = CARTESIAN_POINT ( 'NONE',  ( 0.000000000000000000, 39.50000015214367721, 0.000000000000000000 ) ) ;
#110 = CYLINDRICAL_SURFACE ( 'NONE', #1007, 4.000000000000000000 ) ;
#111 = MECHANICAL_DESIGN_GEOMETRIC_PRESENTATION_REPRESENTATION (  '', ( #713 ), #362 ) ;
#112 = DIRECTION ( 'NONE',  ( -0.000000000000000000, -1.000000000000000000, -0.000000000000000000 ) ) ;
#113 = EDGE_LOOP ( 'NONE', ( #417, #343, #172, #649 ) ) ;
#114 = ORIENTED_EDGE ( 'NONE', *, *, #847, .T. ) ;
#115 = EDGE_CURVE ( 'NONE', #435, #768, #560, .T. ) ;
#116 = DIRECTION ( 'NONE',  ( 8.659560562354883554E-17, 0.7071067811865516806, -0.7071067811865434649 ) ) ;
#117 = ORIENTED_EDGE ( 'NONE', *, *, #455, .F. ) ;
#118 = DIRECTION ( 'NONE',  ( 0.000000000000000000, 0.000000000000000000, -1.000000000000000000 ) ) ;
#119 = ORIENTED_EDGE ( 'NONE', *, *, #438, .T. ) ;
#120 = VERTEX_POINT ( 'NONE', #721 ) ;
#121 = CARTESIAN_POINT ( 'NONE',  ( 0.000000000000000000, 34.31715771247462499, 0.000000000000000000 ) ) ;
#122 = DIRECTION ( 'NONE',  ( -0.000000000000000000, -1.000000000000000000, -0.000000000000000000 ) ) ;
#123 = CARTESIAN_POINT ( 'NONE',  ( 0.000000000000000000, -6.499999999999028333, 0.000000000000000000 ) ) ;
#124 = CIRCLE ( 'NONE', #10, 4.067157287525378528 ) ;
#125 = CIRCLE ( 'NONE', #559, 8.000000000000000000 ) ;
#126 = CARTESIAN_POINT ( 'NONE',  ( 0.000000000000000000, 34.03431499999999943, 0.000000000000000000 ) ) ;
#127 = COLOUR_RGB ( '',0.7921568627450980005, 0.8196078431372548767, 0.9333333333333333481 ) ;
#128 = CIRCLE ( 'NONE', #50, 0.2000000000000031197 ) ;
#129 = ADVANCED_FACE ( 'NONE', ( #956 ), #235, .F. ) ;
#130 = ORIENTED_EDGE ( 'NONE', *, *, #847, .F. ) ;
#131 = ORIENTED_EDGE ( 'NONE', *, *, #291, .F. ) ;
#132 = CARTESIAN_POINT ( 'NONE',  ( 3.980102097228895766E-16, 40.91905200000000775, 3.249999999999998224 ) ) ;
#133 = EDGE_CURVE ( 'NONE', #279, #435, #321, .T. ) ;
#134 = FACE_OUTER_BOUND ( 'NONE', #811, .T. ) ;
#135 = LINE ( 'NONE', #688, #772 ) ;
#136 = PRESENTATION_STYLE_ASSIGNMENT (( #1014 ) ) ;
#137 = ADVANCED_FACE ( 'NONE', ( #794 ), #1028, .T. ) ;
#138 = VECTOR ( 'NONE', #1026, 1000.000000000000000 ) ;
#139 = DIRECTION ( 'NONE',  ( 0.000000000000000000, 0.000000000000000000, -1.000000000000000000 ) ) ;
#140 = CONICAL_SURFACE ( 'NONE', #774, 4.500000000000000888, 1.047196253089808682 ) ;
#141 = CONICAL_SURFACE ( 'NONE', #934, 8.000000000000000000, 0.7853981633974410625 ) ;
#142 = DIRECTION ( 'NONE',  ( -0.000000000000000000, -1.000000000000000000, -0.000000000000000000 ) ) ;
#143 = EDGE_CURVE ( 'NONE', #966, #33, #707, .T. ) ;
#144 = DIRECTION ( 'NONE',  ( -0.000000000000000000, -1.000000000000000000, -0.000000000000000000 ) ) ;
#145 = VERTEX_POINT ( 'NONE', #623 ) ;
#146 = CARTESIAN_POINT ( 'NONE',  ( 0.000000000000000000, 40.91905200000000775, 0.000000000000000000 ) ) ;
#147 = LINE ( 'NONE', #65, #684 ) ;
#148 = ORIENTED_EDGE ( 'NONE', *, *, #295, .F. ) ;
#149 = CYLINDRICAL_SURFACE ( 'NONE', #951, 3.949999999999997069 ) ;
#150 = AXIS2_PLACEMENT_3D ( 'NONE', #537, #765, #43 ) ;
#151 = AXIS2_PLACEMENT_3D ( 'NONE', #904, #354, #659 ) ;
#152 = CIRCLE ( 'NONE', #786, 6.000000000000000000 ) ;
#153 = AXIS2_PLACEMENT_3D ( 'NONE', #123, #783, #776 ) ;
#154 = LINE ( 'NONE', #1043, #1006 ) ;
#155 = CARTESIAN_POINT ( 'NONE',  ( 0.000000000000000000, 33.38000000000000256, -8.000000000000000000 ) ) ;
#156 = EDGE_LOOP ( 'NONE', ( #737, #657, #618, #287 ) ) ;
#157 = CARTESIAN_POINT ( 'NONE',  ( 0.000000000000000000, -6.499999999999028333, 0.000000000000000000 ) ) ;
#158 = CARTESIAN_POINT ( 'NONE',  ( 0.000000000000000000, 41.49999949768619700, 3.499999995516229756 ) ) ;
#159 = ADVANCED_FACE ( 'NONE', ( #223 ), #79, .T. ) ;
#160 = CARTESIAN_POINT ( 'NONE',  ( 0.000000000000000000, -6.499999999999028333, 0.000000000000000000 ) ) ;
#161 = DIRECTION ( 'NONE',  ( 0.000000000000000000, 0.000000000000000000, -1.000000000000000000 ) ) ;
#162 = CLOSED_SHELL ( 'NONE', ( #12, #752, #210, #585, #368, #398, #129, #550, #392, #726, #341, #44, #762, #733, #601, #885, #363, #773, #941, #647, #816, #199, #574, #280, #265, #137, #534, #933, #978, #480, #593, #1027, #860, #216, #73, #159, #1017, #890, #91, #513 ) ) ;
#163 = AXIS2_PLACEMENT_3D ( 'NONE', #749, #245, #653 ) ;
#164 = SURFACE_SIDE_STYLE ('',( #434 ) ) ;
#165 = TOROIDAL_SURFACE ( 'NONE', #919, 4.049999999999998046, 0.7999999999999988232 ) ;
#166 = EDGE_LOOP ( 'NONE', ( #590, #856, #385 ) ) ;
#167 = CARTESIAN_POINT ( 'NONE',  ( 0.000000000000000000, 34.03431499999999943, 0.000000000000000000 ) ) ;
#168 = EDGE_CURVE ( 'NONE', #743, #145, #154, .T. ) ;
#169 = DIRECTION ( 'NONE',  ( -0.000000000000000000, -1.000000000000000000, -0.000000000000000000 ) ) ;
#170 = AXIS2_PLACEMENT_3D ( 'NONE', #443, #322, #381 ) ;
#171 = DIRECTION ( 'NONE',  ( -0.000000000000000000, -1.000000000000000000, -0.000000000000000000 ) ) ;
#172 = ORIENTED_EDGE ( 'NONE', *, *, #83, .T. ) ;
#173 = ORIENTED_EDGE ( 'NONE', *, *, #420, .F. ) ;
#174 = DIRECTION ( 'NONE',  ( 0.000000000000000000, 0.000000000000000000, -1.000000000000000000 ) ) ;
#175 = VERTEX_POINT ( 'NONE', #963 ) ;
#176 = DIRECTION ( 'NONE',  ( 0.000000000000000000, 0.000000000000000000, 1.000000000000000000 ) ) ;
#177 = CYLINDRICAL_SURFACE ( 'NONE', #712, 4.250000000000000000 ) ;
#178 = EDGE_CURVE ( 'NONE', #261, #505, #357, .T. ) ;
#179 = CARTESIAN_POINT ( 'NONE',  ( 0.000000000000000000, 33.50000000000000000, 0.000000000000000000 ) ) ;
#180 = DIRECTION ( 'NONE',  ( 0.000000000000000000, 0.000000000000000000, -1.000000000000000000 ) ) ;
#181 = ORIENTED_EDGE ( 'NONE', *, *, #517, .F. ) ;
#182 = EDGE_LOOP ( 'NONE', ( #353, #582, #331, #777 ) ) ;
#183 = DIRECTION ( 'NONE',  ( -1.000000000000000000, 0.000000000000000000, 0.000000000000000000 ) ) ;
#184 = DIRECTION ( 'NONE',  ( 0.000000000000000000, 1.000000000000000000, 0.000000000000000000 ) ) ;
#185 = DIRECTION ( 'NONE',  ( 0.000000000000000000, 0.7071071332052729641, 0.7071064291676468772 ) ) ;
#186 = EDGE_CURVE ( 'NONE', #743, #1029, #36, .T. ) ;
#187 = AXIS2_PLACEMENT_3D ( 'NONE', #109, #169, #998 ) ;
#188 =( LENGTH_UNIT ( ) NAMED_UNIT ( * ) SI_UNIT ( .MILLI., .METRE. ) );
#189 = ORIENTED_EDGE ( 'NONE', *, *, #320, .T. ) ;
#190 = VERTEX_POINT ( 'NONE', #330 ) ;
#191 = CARTESIAN_POINT ( 'NONE',  ( 0.000000000000000000, -5.807179676971053084, 1.200000000000464029 ) ) ;
#192 = ORIENTED_EDGE ( 'NONE', *, *, #614, .F. ) ;
#193 = LINE ( 'NONE', #607, #138 ) ;
#194 = DIRECTION ( 'NONE',  ( 0.000000000000000000, 0.000000000000000000, -1.000000000000000000 ) ) ;
#195 = ORIENTED_EDGE ( 'NONE', *, *, #1035, .F. ) ;
#196 = ORIENTED_EDGE ( 'NONE', *, *, #56, .T. ) ;
#197 = DIRECTION ( 'NONE',  ( -1.224646799147353454E-16, 0.000000000000000000, -1.000000000000000000 ) ) ;
#198 = EDGE_LOOP ( 'NONE', ( #296, #916, #492, #61 ) ) ;
#199 = ADVANCED_FACE ( 'NONE', ( #984 ), #141, .T. ) ;
#200 = DIRECTION ( 'NONE',  ( 0.000000000000000000, 0.000000000000000000, -1.000000000000000000 ) ) ;
#201 = DIRECTION ( 'NONE',  ( 0.000000000000000000, 0.000000000000000000, 1.000000000000000000 ) ) ;
#202 = VERTEX_POINT ( 'NONE', #972 ) ;
#203 = AXIS2_PLACEMENT_3D ( 'NONE', #983, #820, #82 ) ;
#204 = CIRCLE ( 'NONE', #511, 3.949999999999997069 ) ;
#205 = CIRCLE ( 'NONE', #977, 4.500000000000000888 ) ;
#206 = FACE_OUTER_BOUND ( 'NONE', #97, .T. ) ;
#207 = EDGE_CURVE ( 'NONE', #731, #106, #433, .T. ) ;
#208 = VERTEX_POINT ( 'NONE', #512 ) ;
#209 = DIRECTION ( 'NONE',  ( -0.000000000000000000, -1.000000000000000000, -0.000000000000000000 ) ) ;
#210 = ADVANCED_FACE ( 'NONE', ( #413 ), #547, .T. ) ;
#211 = ORIENTED_EDGE ( 'NONE', *, *, #854, .T. ) ;
#212 = EDGE_LOOP ( 'NONE', ( #52, #694, #382, #1052 ) ) ;
#213 = CARTESIAN_POINT ( 'NONE',  ( 0.000000000000000000, 51.50000000000000711, 0.000000000000000000 ) ) ;
#214 = FACE_OUTER_BOUND ( 'NONE', #662, .T. ) ;
#215 = LINE ( 'NONE', #477, #275 ) ;
#216 = ADVANCED_FACE ( 'NONE', ( #992 ), #15, .T. ) ;
#217 = ORIENTED_EDGE ( 'NONE', *, *, #807, .F. ) ;
#218 = CIRCLE ( 'NONE', #949, 3.249999999999999112 ) ;
#219 = DIRECTION ( 'NONE',  ( 0.000000000000000000, 0.5000011241930348849, 0.8660247547303143723 ) ) ;
#220 = CIRCLE ( 'NONE', #746, 3.249999999999998224 ) ;
#221 = AXIS2_PLACEMENT_3D ( 'NONE', #299, #633, #557 ) ;
#222 = AXIS2_PLACEMENT_3D ( 'NONE', #727, #822, #1050 ) ;
#223 = FACE_OUTER_BOUND ( 'NONE', #584, .T. ) ;
#224 = CARTESIAN_POINT ( 'NONE',  ( 7.347880794884120722E-16, -1.007179676971460269, -6.000000000000000000 ) ) ;
#225 = CIRCLE ( 'NONE', #900, 4.000000000000000000 ) ;
#226 = CARTESIAN_POINT ( 'NONE',  ( 0.000000000000000000, 33.50000000000000000, 0.000000000000000000 ) ) ;
#227 = DIRECTION ( 'NONE',  ( 4.909439407455185099E-17, 0.9161278810979749387, -0.4008861502658013776 ) ) ;
#228 = DIRECTION ( 'NONE',  ( -0.000000000000000000, -1.000000000000000000, -0.000000000000000000 ) ) ;
#229 = CARTESIAN_POINT ( 'NONE',  ( 0.000000000000000000, 33.38000000000000256, 0.000000000000000000 ) ) ;
#230 = CARTESIAN_POINT ( 'NONE',  ( 0.000000000000000000, 40.91905200000000775, 0.000000000000000000 ) ) ;
#231 = DIRECTION ( 'NONE',  ( 0.000000000000000000, -0.7071067811865526798, -0.7071067811865423547 ) ) ;
#232 = CARTESIAN_POINT ( 'NONE',  ( 0.000000000000000000, 34.31715771247462499, 0.000000000000000000 ) ) ;
#233 = TOROIDAL_SURFACE ( 'NONE', #59, 4.049999999999998046, 0.7999999999999989342 ) ;
#234 = EDGE_CURVE ( 'NONE', #106, #516, #1020, .T. ) ;
#235 = TOROIDAL_SURFACE ( 'NONE', #1032, 4.049999999999998046, 0.7999999999999988232 ) ;
#236 = CARTESIAN_POINT ( 'NONE',  ( 0.000000000000000000, 39.50000015214367721, 0.000000000000000000 ) ) ;
#237 = CIRCLE ( 'NONE', #377, 8.000000000000000000 ) ;
#238 = CARTESIAN_POINT ( 'NONE',  ( 0.000000000000000000, -6.499999999999028333, 0.000000000000000000 ) ) ;
#239 = ORIENTED_EDGE ( 'NONE', *, *, #716, .F. ) ;
#240 = DIRECTION ( 'NONE',  ( 0.000000000000000000, 0.000000000000000000, -1.000000000000000000 ) ) ;
#241 = PRODUCT_DEFINITION_FORMATION_WITH_SPECIFIED_SOURCE ( 'ANY', '', #314, .NOT_KNOWN. ) ;
#242 = FACE_OUTER_BOUND ( 'NONE', #156, .T. ) ;
#243 = EDGE_CURVE ( 'NONE', #145, #120, #775, .T. ) ;
#244 = CYLINDRICAL_SURFACE ( 'NONE', #531, 8.000000000000000000 ) ;
#245 = DIRECTION ( 'NONE',  ( -0.000000000000000000, -1.000000000000000000, -0.000000000000000000 ) ) ;
#246 = VERTEX_POINT ( 'NONE', #969 ) ;
#247 = EDGE_CURVE ( 'NONE', #766, #846, #835, .T. ) ;
#248 = ORIENTED_EDGE ( 'NONE', *, *, #698, .T. ) ;
#249 = VERTEX_POINT ( 'NONE', #906 ) ;
#250 = CIRCLE ( 'NONE', #879, 0.7999999999999990452 ) ;
#251 = MECHANICAL_DESIGN_GEOMETRIC_PRESENTATION_REPRESENTATION (  '', ( #789 ), #711 ) ;
#252 = ORIENTED_EDGE ( 'NONE', *, *, #133, .F. ) ;
#253 = VECTOR ( 'NONE', #122, 1000.000000000000000 ) ;
#254 = ORIENTED_EDGE ( 'NONE', *, *, #989, .T. ) ;
#255 = DIRECTION ( 'NONE',  ( -0.000000000000000000, -1.000000000000000000, -0.000000000000000000 ) ) ;
#256 = EDGE_LOOP ( 'NONE', ( #887, #573, #927, #1002 ) ) ;
#257 = EDGE_CURVE ( 'NONE', #595, #249, #646, .T. ) ;
#258 = CARTESIAN_POINT ( 'NONE',  ( 0.000000000000000000, -6.499999999999028333, -4.000000000000000000 ) ) ;
#259 = AXIS2_PLACEMENT_3D ( 'NONE', #491, #346, #1051 ) ;
#260 = CARTESIAN_POINT ( 'NONE',  ( 3.980102097228896259E-16, -6.499999999999028333, 3.249999999999998668 ) ) ;
#261 = VERTEX_POINT ( 'NONE', #419 ) ;
#262 = EDGE_LOOP ( 'NONE', ( #117, #717, #651, #895 ) ) ;
#263 = ORIENTED_EDGE ( 'NONE', *, *, #445, .T. ) ;
#264 = DIRECTION ( 'NONE',  ( 0.000000000000000000, 0.000000000000000000, -1.000000000000000000 ) ) ;
#265 = ADVANCED_FACE ( 'NONE', ( #345 ), #514, .F. ) ;
#266 = CARTESIAN_POINT ( 'NONE',  ( 0.000000000000000000, 34.50000000000000000, 0.000000000000000000 ) ) ;
#267 =( NAMED_UNIT ( * ) PLANE_ANGLE_UNIT ( ) SI_UNIT ( $, .RADIAN. ) );
#268 = EDGE_LOOP ( 'NONE', ( #920, #670, #831, #672 ) ) ;
#269 = EDGE_LOOP ( 'NONE', ( #902, #189, #7, #663 ) ) ;
#270 = FACE_OUTER_BOUND ( 'NONE', #1009, .T. ) ;
#271 = CARTESIAN_POINT ( 'NONE',  ( 0.000000000000000000, 39.00000000000000000, 0.000000000000000000 ) ) ;
#272 = DIRECTION ( 'NONE',  ( 0.000000000000000000, 0.000000000000000000, -1.000000000000000000 ) ) ;
#273 = AXIS2_PLACEMENT_3D ( 'NONE', #1011, #42, #139 ) ;
#274 = VECTOR ( 'NONE', #561, 1000.000000000000114 ) ;
#275 = VECTOR ( 'NONE', #719, 1000.000000000000000 ) ;
#276 = ORIENTED_EDGE ( 'NONE', *, *, #234, .T. ) ;
#277 = AXIS2_PLACEMENT_3D ( 'NONE', #266, #642, #78 ) ;
#278 = ORIENTED_EDGE ( 'NONE', *, *, #674, .F. ) ;
#279 = VERTEX_POINT ( 'NONE', #337 ) ;
#280 = ADVANCED_FACE ( 'NONE', ( #242 ), #38, .F. ) ;
#281 = FACE_OUTER_BOUND ( 'NONE', #41, .T. ) ;
#282 = ORIENTED_EDGE ( 'NONE', *, *, #624, .F. ) ;
#283 = EDGE_CURVE ( 'NONE', #988, #846, #828, .T. ) ;
#284 = PLANE ( 'NONE',  #447 ) ;
#285 = UNCERTAINTY_MEASURE_WITH_UNIT (LENGTH_MEASURE( 1.000000000000000082E-05 ), #467, 'distance_accuracy_value', 'NONE');
#286 = DIRECTION ( 'NONE',  ( 0.000000000000000000, 0.000000000000000000, 1.000000000000000000 ) ) ;
#287 = ORIENTED_EDGE ( 'NONE', *, *, #31, .F. ) ;
#288 = CIRCLE ( 'NONE', #60, 4.500000000000000888 ) ;
#289 = DIRECTION ( 'NONE',  ( -0.000000000000000000, -1.000000000000000000, -0.000000000000000000 ) ) ;
#290 = AXIS2_PLACEMENT_3D ( 'NONE', #411, #87, #105 ) ;
#291 = EDGE_CURVE ( 'NONE', #892, #761, #679, .T. ) ;
#292 = AXIS2_PLACEMENT_3D ( 'NONE', #327, #504, #428 ) ;
#293 = FILL_AREA_STYLE ('',( #35 ) ) ;
#294 = DIRECTION ( 'NONE',  ( 1.000000000000000000, 0.000000000000000000, -1.224646799147353207E-16 ) ) ;
#295 = EDGE_CURVE ( 'NONE', #1029, #120, #891, .T. ) ;
#296 = ORIENTED_EDGE ( 'NONE', *, *, #168, .F. ) ;
#297 = ORIENTED_EDGE ( 'NONE', *, *, #495, .F. ) ;
#298 = CARTESIAN_POINT ( 'NONE',  ( 4.898587195297850312E-16, 39.50000015214367721, 3.749999997890719250 ) ) ;
#299 = CARTESIAN_POINT ( 'NONE',  ( 0.000000000000000000, 48.50000000000000000, 0.000000000000000000 ) ) ;
#300 = CONICAL_SURFACE ( 'NONE', #852, 3.499999995516229756, 0.7853976655676686569 ) ;
#301 = AXIS2_PLACEMENT_3D ( 'NONE', #395, #793, #55 ) ;
#302 = CARTESIAN_POINT ( 'NONE',  ( 0.000000000000000000, 39.00000000000000000, -4.250000000000000000 ) ) ;
#303 = AXIS2_PLACEMENT_3D ( 'NONE', #1033, #306, #57 ) ;
#304 = CONICAL_SURFACE ( 'NONE', #801, 1732.050807568485880, 1.047197551196499932 ) ;
#305 = AXIS2_PLACEMENT_3D ( 'NONE', #482, #408, #161 ) ;
#306 = DIRECTION ( 'NONE',  ( 0.000000000000000000, 1.000000000000000000, 0.000000000000000000 ) ) ;
#307 = CYLINDRICAL_SURFACE ( 'NONE', #751, 4.250000000000000000 ) ;
#308 = AXIS2_PLACEMENT_3D ( 'NONE', #993, #27, #180 ) ;
#309 = DIRECTION ( 'NONE',  ( 0.000000000000000000, 1.000000000000000000, 0.000000000000000000 ) ) ;
#310 = DIRECTION ( 'NONE',  ( 0.000000000000000000, 1.000000000000000000, 0.000000000000000000 ) ) ;
#311 = ORIENTED_EDGE ( 'NONE', *, *, #666, .T. ) ;
#312 = EDGE_CURVE ( 'NONE', #246, #190, #918, .T. ) ;
#313 = DIRECTION ( 'NONE',  ( 0.000000000000000000, 0.000000000000000000, -1.000000000000000000 ) ) ;
#314 = PRODUCT ( '99688-SI12-M08+S9MT1203-090', '99688-SI12-M08+S9MT1203-090', '', ( #93 ) ) ;
#315 = DIRECTION ( 'NONE',  ( 8.659556251366733790E-17, 0.7071071332052729641, -0.7071064291676468772 ) ) ;
#316 = EDGE_LOOP ( 'NONE', ( #131, #896, #758, #530 ) ) ;
#317 = CARTESIAN_POINT ( 'NONE',  ( 4.898587196589412829E-16, 48.50000000000000000, 4.000000000000000000 ) ) ;
#318 = AXIS2_PLACEMENT_3D ( 'NONE', #853, #454, #37 ) ;
#319 = VECTOR ( 'NONE', #1042, 1000.000000000000000 ) ;
#320 = EDGE_CURVE ( 'NONE', #987, #190, #128, .T. ) ;
#321 = LINE ( 'NONE', #466, #373 ) ;
#322 = DIRECTION ( 'NONE',  ( 0.000000000000000000, 1.000000000000000000, 0.000000000000000000 ) ) ;
#323 = ORIENTED_EDGE ( 'NONE', *, *, #608, .F. ) ;
#324 = DIRECTION ( 'NONE',  ( -1.224646799147352961E-16, 0.000000000000000000, -1.000000000000000000 ) ) ;
#325 = EDGE_CURVE ( 'NONE', #1001, #468, #810, .T. ) ;
#326 = CARTESIAN_POINT ( 'NONE',  ( 0.000000000000000000, 993.5000000000009095, 0.000000000000000000 ) ) ;
#327 = CARTESIAN_POINT ( 'NONE',  ( 0.000000000000000000, 33.35566200000000947, 0.000000000000000000 ) ) ;
#328 = CARTESIAN_POINT ( 'NONE',  ( 0.000000000000000000, 48.50000000000000000, -4.000000000000000000 ) ) ;
#329 = CARTESIAN_POINT ( 'NONE',  ( 0.000000000000000000, 48.50000000000000000, 0.000000000000000000 ) ) ;
#330 = CARTESIAN_POINT ( 'NONE',  ( 5.021051876505488449E-16, 33.52886800000000278, 3.949999999999997069 ) ) ;
#331 = ORIENTED_EDGE ( 'NONE', *, *, #877, .T. ) ;
#332 = CARTESIAN_POINT ( 'NONE',  ( 0.000000000000000000, 993.5000000000009095, 0.000000000000000000 ) ) ;
#333 = DIRECTION ( 'NONE',  ( -0.000000000000000000, -1.000000000000000000, -0.000000000000000000 ) ) ;
#334 = ORIENTED_EDGE ( 'NONE', *, *, #501, .T. ) ;
#335 = ORIENTED_EDGE ( 'NONE', *, *, #403, .F. ) ;
#336 = VECTOR ( 'NONE', #53, 1000.000000000000000 ) ;
#337 = CARTESIAN_POINT ( 'NONE',  ( 8.572527594031473190E-16, 5.643429000000001139, -6.000000000000000000 ) ) ;
#338 = ORIENTED_EDGE ( 'NONE', *, *, #455, .T. ) ;
#339 = ORIENTED_EDGE ( 'NONE', *, *, #1046, .T. ) ;
#340 = ORIENTED_EDGE ( 'NONE', *, *, #103, .T. ) ;
#341 = ADVANCED_FACE ( 'NONE', ( #605 ), #177, .T. ) ;
#342 = DIRECTION ( 'NONE',  ( 0.000000000000000000, 0.000000000000000000, -1.000000000000000000 ) ) ;
#343 = ORIENTED_EDGE ( 'NONE', *, *, #429, .F. ) ;
#344 = CARTESIAN_POINT ( 'NONE',  ( 5.510910596163089556E-16, 33.50000000000000000, -4.500000000000000888 ) ) ;
#345 = FACE_OUTER_BOUND ( 'NONE', #212, .T. ) ;
#346 = DIRECTION ( 'NONE',  ( -0.000000000000000000, -1.000000000000000000, -0.000000000000000000 ) ) ;
#347 = ORIENTED_EDGE ( 'NONE', *, *, #798, .F. ) ;
#348 = ORIENTED_EDGE ( 'NONE', *, *, #168, .T. ) ;
#349 = DIRECTION ( 'NONE',  ( -0.000000000000000000, -1.000000000000000000, -0.000000000000000000 ) ) ;
#350 = CARTESIAN_POINT ( 'NONE',  ( 0.000000000000000000, -1.007179676971460269, 0.000000000000000000 ) ) ;
#351 = ORIENTED_EDGE ( 'NONE', *, *, #1041, .T. ) ;
#352 = ORIENTED_EDGE ( 'NONE', *, *, #243, .T. ) ;
#353 = ORIENTED_EDGE ( 'NONE', *, *, #563, .F. ) ;
#354 = DIRECTION ( 'NONE',  ( -0.000000000000000000, -1.000000000000000000, -0.000000000000000000 ) ) ;
#355 = EDGE_CURVE ( 'NONE', #33, #768, #502, .T. ) ;
#356 = AXIS2_PLACEMENT_3D ( 'NONE', #705, #874, #389 ) ;
#357 = CIRCLE ( 'NONE', #487, 3.749999997890719250 ) ;
#358 = ORIENTED_EDGE ( 'NONE', *, *, #257, .T. ) ;
#359 = AXIS2_PLACEMENT_3D ( 'NONE', #30, #349, #825 ) ;
#360 = SURFACE_STYLE_FILL_AREA ( #293 ) ;
#361 = DIRECTION ( 'NONE',  ( 0.000000000000000000, 0.9161278810979749387, 0.4008861502658013776 ) ) ;
#362 =( GEOMETRIC_REPRESENTATION_CONTEXT ( 3 ) GLOBAL_UNCERTAINTY_ASSIGNED_CONTEXT ( ( #944 ) ) GLOBAL_UNIT_ASSIGNED_CONTEXT ( ( #188, #757, #568 ) ) REPRESENTATION_CONTEXT ( 'NONE', 'WORKASPACE' ) );
#363 = ADVANCED_FACE ( 'NONE', ( #827 ), #390, .T. ) ;
#364 = LINE ( 'NONE', #686, #49 ) ;
#365 = ORIENTED_EDGE ( 'NONE', *, *, #631, .T. ) ;
#366 = FACE_OUTER_BOUND ( 'NONE', #1022, .T. ) ;
#367 = FACE_OUTER_BOUND ( 'NONE', #980, .T. ) ;
#368 = ADVANCED_FACE ( 'NONE', ( #991 ), #110, .T. ) ;
#369 = ORIENTED_EDGE ( 'NONE', *, *, #666, .F. ) ;
#370 = EDGE_CURVE ( 'NONE', #644, #120, #764, .T. ) ;
#371 = CARTESIAN_POINT ( 'NONE',  ( 4.837354856632041113E-16, -6.499999999999028333, 3.949999999999997069 ) ) ;
#372 = CONICAL_SURFACE ( 'NONE', #706, 4.000000000000000000, 0.5235988237060776873 ) ;
#373 = VECTOR ( 'NONE', #227, 1000.000000000000000 ) ;
#374 = AXIS2_PLACEMENT_3D ( 'NONE', #898, #587, #92 ) ;
#375 = EDGE_CURVE ( 'NONE', #202, #246, #532, .T. ) ;
#376 = DIRECTION ( 'NONE',  ( 0.000000000000000000, 0.000000000000000000, -1.000000000000000000 ) ) ;
#377 = AXIS2_PLACEMENT_3D ( 'NONE', #936, #767, #851 ) ;
#378 = ORIENTED_EDGE ( 'NONE', *, *, #178, .F. ) ;
#379 = AXIS2_PLACEMENT_3D ( 'NONE', #497, #4, #823 ) ;
#380 = DIRECTION ( 'NONE',  ( 0.000000000000000000, 0.000000000000000000, -1.000000000000000000 ) ) ;
#381 = DIRECTION ( 'NONE',  ( 0.000000000000000000, 0.000000000000000000, 1.000000000000000000 ) ) ;
#382 = ORIENTED_EDGE ( 'NONE', *, *, #375, .T. ) ;
#383 = CARTESIAN_POINT ( 'NONE',  ( 0.000000000000000000, 51.50000000000000711, -2.267949000000000659 ) ) ;
#384 = DIRECTION ( 'NONE',  ( -0.000000000000000000, -1.000000000000000000, -0.000000000000000000 ) ) ;
#385 = ORIENTED_EDGE ( 'NONE', *, *, #247, .T. ) ;
#386 = CARTESIAN_POINT ( 'NONE',  ( 0.000000000000000000, 40.91905200000000775, -3.249999999999998224 ) ) ;
#387 = LINE ( 'NONE', #948, #855 ) ;
#388 = AXIS2_PLACEMENT_3D ( 'NONE', #6, #333, #760 ) ;
#389 = DIRECTION ( 'NONE',  ( 0.000000000000000000, 0.000000000000000000, 1.000000000000000000 ) ) ;
#390 = CONICAL_SURFACE ( 'NONE', #407, 8.000000000000000000, 0.7853981633974410625 ) ;
#391 = DIRECTION ( 'NONE',  ( 8.659560562354869996E-17, -0.7071067811865526798, 0.7071067811865423547 ) ) ;
#392 = ADVANCED_FACE ( 'NONE', ( #834 ), #973, .F. ) ;
#393 = PLANE ( 'NONE',  #431 ) ;
#394 = ORIENTED_EDGE ( 'NONE', *, *, #70, .T. ) ;
#395 = CARTESIAN_POINT ( 'NONE',  ( 0.000000000000000000, -5.807179676971053084, 0.000000000000000000 ) ) ;
#396 = CARTESIAN_POINT ( 'NONE',  ( 5.204748896376251685E-16, 34.50000000000000000, -4.250000000000000000 ) ) ;
#397 = FACE_OUTER_BOUND ( 'NONE', #538, .T. ) ;
#398 = ADVANCED_FACE ( 'NONE', ( #738 ), #300, .T. ) ;
#399 = CARTESIAN_POINT ( 'NONE',  ( 7.347880794884119736E-16, -6.499999999999028333, 6.000000000000000000 ) ) ;
#400 = LINE ( 'NONE', #886, #463 ) ;
#401 = ORIENTED_EDGE ( 'NONE', *, *, #31, .T. ) ;
#402 = DIRECTION ( 'NONE',  ( -0.000000000000000000, -1.000000000000000000, -0.000000000000000000 ) ) ;
#403 = EDGE_CURVE ( 'NONE', #768, #435, #1018, .T. ) ;
#404 = CONICAL_SURFACE ( 'NONE', #486, 6.000000000000000000, 0.4124839195095327815 ) ;
#405 = VECTOR ( 'NONE', #391, 1000.000000000000000 ) ;
#406 = CIRCLE ( 'NONE', #63, 3.499999995516229756 ) ;
#407 = AXIS2_PLACEMENT_3D ( 'NONE', #18, #843, #118 ) ;
#408 = DIRECTION ( 'NONE',  ( -0.000000000000000000, -1.000000000000000000, -0.000000000000000000 ) ) ;
#409 =( NAMED_UNIT ( * ) SI_UNIT ( $, .STERADIAN. ) SOLID_ANGLE_UNIT ( ) );
#410 = ORIENTED_EDGE ( 'NONE', *, *, #103, .F. ) ;
#411 = CARTESIAN_POINT ( 'NONE',  ( 0.000000000000000000, 39.00000000000000000, 0.000000000000000000 ) ) ;
#412 = DIRECTION ( 'NONE',  ( 0.000000000000000000, 0.000000000000000000, -1.000000000000000000 ) ) ;
#413 = FACE_OUTER_BOUND ( 'NONE', #23, .T. ) ;
#414 = CYLINDRICAL_SURFACE ( 'NONE', #259, 3.249999999999998668 ) ;
#415 = ORIENTED_EDGE ( 'NONE', *, *, #133, .T. ) ;
#416 = FACE_OUTER_BOUND ( 'NONE', #421, .T. ) ;
#417 = ORIENTED_EDGE ( 'NONE', *, *, #999, .F. ) ;
#418 = LINE ( 'NONE', #8, #745 ) ;
#419 = CARTESIAN_POINT ( 'NONE',  ( 0.000000000000000000, 39.50000015214367721, -3.749999997890719250 ) ) ;
#420 = EDGE_CURVE ( 'NONE', #731, #14, #472, .T. ) ;
#421 = EDGE_LOOP ( 'NONE', ( #797, #710, #28, #410 ) ) ;
#422 = DIRECTION ( 'NONE',  ( 0.000000000000000000, 0.000000000000000000, -1.000000000000000000 ) ) ;
#423 = ORIENTED_EDGE ( 'NONE', *, *, #115, .T. ) ;
#424 = DIRECTION ( 'NONE',  ( 0.000000000000000000, 0.000000000000000000, -1.000000000000000000 ) ) ;
#425 = VECTOR ( 'NONE', #219, 1000.000000000000114 ) ;
#426 = AXIS2_PLACEMENT_3D ( 'NONE', #612, #844, #201 ) ;
#427 = DIRECTION ( 'NONE',  ( 0.000000000000000000, 0.000000000000000000, -1.000000000000000000 ) ) ;
#428 = DIRECTION ( 'NONE',  ( 0.000000000000000000, 0.000000000000000000, -1.000000000000000000 ) ) ;
#429 = EDGE_CURVE ( 'NONE', #818, #602, #124, .T. ) ;
#430 = CARTESIAN_POINT ( 'NONE',  ( 0.000000000000000000, -1.007179676971460269, 6.000000000000000000 ) ) ;
#431 = AXIS2_PLACEMENT_3D ( 'NONE', #1039, #310, #634 ) ;
#432 = DIRECTION ( 'NONE',  ( -0.000000000000000000, -1.000000000000000000, -0.000000000000000000 ) ) ;
#433 = LINE ( 'NONE', #809, #869 ) ;
#434 = SURFACE_STYLE_FILL_AREA ( #830 ) ;
#435 = VERTEX_POINT ( 'NONE', #732 ) ;
#436 = DIRECTION ( 'NONE',  ( -0.000000000000000000, -1.000000000000000000, -0.000000000000000000 ) ) ;
#437 = ORIENTED_EDGE ( 'NONE', *, *, #696, .F. ) ;
#438 = EDGE_CURVE ( 'NONE', #208, #966, #833, .T. ) ;
#439 = DIRECTION ( 'NONE',  ( 0.000000000000000000, -0.8660253797305482726, -0.5000000416625579591 ) ) ;
#440 = CARTESIAN_POINT ( 'NONE',  ( 0.000000000000000000, -6.499999999999028333, 0.000000000000000000 ) ) ;
#441 = ORIENTED_EDGE ( 'NONE', *, *, #637, .T. ) ;
#442 = ORIENTED_EDGE ( 'NONE', *, *, #556, .T. ) ;
#443 = CARTESIAN_POINT ( 'NONE',  ( 0.000000000000000000, 5.643429000000001139, 0.000000000000000000 ) ) ;
#444 = DIRECTION ( 'NONE',  ( 0.000000000000000000, 0.000000000000000000, -1.000000000000000000 ) ) ;
#445 = EDGE_CURVE ( 'NONE', #838, #644, #769, .T. ) ;
#446 = DIRECTION ( 'NONE',  ( -0.000000000000000000, -1.000000000000000000, -0.000000000000000000 ) ) ;
#447 = AXIS2_PLACEMENT_3D ( 'NONE', #1019, #609, #785 ) ;
#448 = CIRCLE ( 'NONE', #880, 0.7999999999999990452 ) ;
#449 = AXIS2_PLACEMENT_3D ( 'NONE', #167, #897, #483 ) ;
#450 = CARTESIAN_POINT ( 'NONE',  ( 0.000000000000000000, 33.50000000000000000, 0.000000000000000000 ) ) ;
#451 = ORIENTED_EDGE ( 'NONE', *, *, #624, .T. ) ;
#452 = CIRCLE ( 'NONE', #599, 0.4000000000000001887 ) ;
#453 = DIRECTION ( 'NONE',  ( 0.000000000000000000, 1.000000000000000000, 0.000000000000000000 ) ) ;
#454 = DIRECTION ( 'NONE',  ( -0.000000000000000000, -1.000000000000000000, -0.000000000000000000 ) ) ;
#455 = EDGE_CURVE ( 'NONE', #505, #261, #893, .T. ) ;
#456 = DIRECTION ( 'NONE',  ( -1.000000000000000000, 0.000000000000000000, 0.000000000000000000 ) ) ;
#457 = CYLINDRICAL_SURFACE ( 'NONE', #150, 6.000000000000000000 ) ;
#458 = EDGE_CURVE ( 'NONE', #505, #14, #494, .T. ) ;
#459 = CYLINDRICAL_SURFACE ( 'NONE', #273, 6.000000000000000000 ) ;
#460 = CARTESIAN_POINT ( 'NONE',  ( 0.000000000000000000, 40.24161999999999750, 0.000000000000000000 ) ) ;
#461 = CARTESIAN_POINT ( 'NONE',  ( 0.000000000000000000, 40.24161999999999750, 0.000000000000000000 ) ) ;
#462 = PRESENTATION_LAYER_ASSIGNMENT (  '', '', ( #789 ) ) ;
#463 = VECTOR ( 'NONE', #800, 1000.000000000000000 ) ;
#464 = CARTESIAN_POINT ( 'NONE',  ( 0.000000000000000000, 51.50000000000000711, 0.000000000000000000 ) ) ;
#465 = EDGE_CURVE ( 'NONE', #759, #838, #418, .T. ) ;
#466 = CARTESIAN_POINT ( 'NONE',  ( 7.347880794884119736E-16, 5.643429000000001139, -6.000000000000000000 ) ) ;
#467 =( LENGTH_UNIT ( ) NAMED_UNIT ( * ) SI_UNIT ( .MILLI., .METRE. ) );
#468 = VERTEX_POINT ( 'NONE', #430 ) ;
#469 = DIRECTION ( 'NONE',  ( -0.000000000000000000, -1.000000000000000000, -0.000000000000000000 ) ) ;
#470 = EDGE_CURVE ( 'NONE', #838, #145, #598, .T. ) ;
#471 = VERTEX_POINT ( 'NONE', #344 ) ;
#472 = CIRCLE ( 'NONE', #203, 4.250000000000000000 ) ;
#473 = FACE_OUTER_BOUND ( 'NONE', #268, .T. ) ;
#474 = EDGE_CURVE ( 'NONE', #120, #145, #34, .T. ) ;
#475 = CARTESIAN_POINT ( 'NONE',  ( 0.000000000000000000, -6.499999999999028333, 0.000000000000000000 ) ) ;
#476 = DIRECTION ( 'NONE',  ( -0.000000000000000000, -1.000000000000000000, -0.000000000000000000 ) ) ;
#477 = CARTESIAN_POINT ( 'NONE',  ( 0.000000000000000000, -6.499999999999028333, -8.000000000000000000 ) ) ;
#478 = LINE ( 'NONE', #1044, #937 ) ;
#479 = EDGE_LOOP ( 'NONE', ( #119, #930, #997, #913 ) ) ;
#480 = ADVANCED_FACE ( 'NONE', ( #990 ), #558, .T. ) ;
#481 = FACE_OUTER_BOUND ( 'NONE', #40, .T. ) ;
#482 = CARTESIAN_POINT ( 'NONE',  ( 0.000000000000000000, 33.52886800000000278, 0.000000000000000000 ) ) ;
#483 = DIRECTION ( 'NONE',  ( 0.000000000000000000, 0.000000000000000000, -1.000000000000000000 ) ) ;
#484 = VECTOR ( 'NONE', #763, 1000.000000000000000 ) ;
#485 = CIRCLE ( 'NONE', #318, 1.200000000000464251 ) ;
#486 = AXIS2_PLACEMENT_3D ( 'NONE', #873, #309, #808 ) ;
#487 = AXIS2_PLACEMENT_3D ( 'NONE', #236, #564, #496 ) ;
#488 = CIRCLE ( 'NONE', #695, 0.7999999999999986011 ) ;
#489 = AXIS2_PLACEMENT_3D ( 'NONE', #668, #9, #594 ) ;
#490 = CARTESIAN_POINT ( 'NONE',  ( 5.082284216458927693E-16, 33.52886708075568123, 4.149999999997887379 ) ) ;
#491 = CARTESIAN_POINT ( 'NONE',  ( 0.000000000000000000, -6.499999999999028333, 0.000000000000000000 ) ) ;
#492 = ORIENTED_EDGE ( 'NONE', *, *, #295, .T. ) ;
#493 = DIRECTION ( 'NONE',  ( 0.000000000000000000, 0.000000000000000000, -1.000000000000000000 ) ) ;
#494 = LINE ( 'NONE', #842, #542 ) ;
#495 = EDGE_CURVE ( 'NONE', #761, #246, #193, .T. ) ;
#496 = DIRECTION ( 'NONE',  ( 0.000000000000000000, 0.000000000000000000, -1.000000000000000000 ) ) ;
#497 = CARTESIAN_POINT ( 'NONE',  ( 0.000000000000000000, 0.000000000000000000, 0.000000000000000000 ) ) ;
#498 = ORIENTED_EDGE ( 'NONE', *, *, #742, .F. ) ;
#499 = ORIENTED_EDGE ( 'NONE', *, *, #784, .F. ) ;
#500 = CARTESIAN_POINT ( 'NONE',  ( 4.980831153796786857E-16, 34.31715771247462499, 4.067157287525378528 ) ) ;
#501 = EDGE_CURVE ( 'NONE', #14, #516, #938, .T. ) ;
#502 = LINE ( 'NONE', #98, #253 ) ;
#503 = DIRECTION ( 'NONE',  ( 0.000000000000000000, 1.000000000000000000, 0.000000000000000000 ) ) ;
#504 = DIRECTION ( 'NONE',  ( -0.000000000000000000, -1.000000000000000000, -0.000000000000000000 ) ) ;
#505 = VERTEX_POINT ( 'NONE', #298 ) ;
#506 = ORIENTED_EDGE ( 'NONE', *, *, #798, .T. ) ;
#507 = DIRECTION ( 'NONE',  ( -0.000000000000000000, -1.000000000000000000, -0.000000000000000000 ) ) ;
#508 = ORIENTED_EDGE ( 'NONE', *, *, #247, .F. ) ;
#509 = DIRECTION ( 'NONE',  ( -0.000000000000000000, -1.000000000000000000, -0.000000000000000000 ) ) ;
#510 = TOROIDAL_SURFACE ( 'NONE', #692, 4.349999999999997868, 0.4000000000000003553 ) ;
#511 = AXIS2_PLACEMENT_3D ( 'NONE', #725, #476, #74 ) ;
#512 = CARTESIAN_POINT ( 'NONE',  ( 0.000000000000000000, 33.50000000000000000, -7.879999999999999893 ) ) ;
#513 = ADVANCED_FACE ( 'NONE', ( #214 ), #459, .T. ) ;
#514 = TOROIDAL_SURFACE ( 'NONE', #489, 4.149999999997887379, 0.2000000000000030642 ) ;
#515 = AXIS2_PLACEMENT_3D ( 'NONE', #213, #858, #543 ) ;
#516 = VERTEX_POINT ( 'NONE', #526 ) ;
#517 = EDGE_CURVE ( 'NONE', #966, #208, #878, .T. ) ;
#518 = ORIENTED_EDGE ( 'NONE', *, *, #630, .F. ) ;
#519 = CARTESIAN_POINT ( 'NONE',  ( 0.000000000000000000, 10.21394300000000399, 8.000000000000000000 ) ) ;
#520 = CIRCLE ( 'NONE', #308, 6.000000000000000000 ) ;
#521 = ORIENTED_EDGE ( 'NONE', *, *, #495, .T. ) ;
#522 = ORIENTED_EDGE ( 'NONE', *, *, #420, .T. ) ;
#523 = DIRECTION ( 'NONE',  ( -0.000000000000000000, -1.000000000000000000, -0.000000000000000000 ) ) ;
#524 = FACE_OUTER_BOUND ( 'NONE', #589, .T. ) ;
#525 = EDGE_LOOP ( 'NONE', ( #80, #401 ) ) ;
#526 = CARTESIAN_POINT ( 'NONE',  ( 0.000000000000000000, 34.50000000000000000, 4.250000000000000000 ) ) ;
#527 = AXIS2_PLACEMENT_3D ( 'NONE', #271, #25, #917 ) ;
#528 = DIRECTION ( 'NONE',  ( -1.000000000000000000, 0.000000000000000000, 0.000000000000000000 ) ) ;
#529 = CONICAL_SURFACE ( 'NONE', #426, 4.067157287525378528, 0.7853993254610842634 ) ;
#530 = ORIENTED_EDGE ( 'NONE', *, *, #70, .F. ) ;
#531 = AXIS2_PLACEMENT_3D ( 'NONE', #658, #671, #914 ) ;
#532 = CIRCLE ( 'NONE', #356, 0.2000000000000031197 ) ;
#533 = DIRECTION ( 'NONE',  ( -0.000000000000000000, -1.000000000000000000, -0.000000000000000000 ) ) ;
#534 = ADVANCED_FACE ( 'NONE', ( #281 ), #510, .F. ) ;
#535 = DIRECTION ( 'NONE',  ( 0.000000000000000000, 0.7071067811865516806, 0.7071067811865434649 ) ) ;
#536 = CYLINDRICAL_SURFACE ( 'NONE', #722, 3.249999999999998668 ) ;
#537 = CARTESIAN_POINT ( 'NONE',  ( 0.000000000000000000, -6.499999999999028333, 0.000000000000000000 ) ) ;
#538 = EDGE_LOOP ( 'NONE', ( #101, #211, #506, #94 ) ) ;
#539 = FACE_OUTER_BOUND ( 'NONE', #113, .T. ) ;
#540 = CARTESIAN_POINT ( 'NONE',  ( 5.204748896376250699E-16, -6.499999999999028333, 4.250000000000000000 ) ) ;
#541 = UNCERTAINTY_MEASURE_WITH_UNIT (LENGTH_MEASURE( 1.000000000000000082E-05 ), #571, 'distance_accuracy_value', 'NONE');
#542 = VECTOR ( 'NONE', #90, 1000.000000000000114 ) ;
#543 = DIRECTION ( 'NONE',  ( 0.000000000000000000, 0.000000000000000000, -1.000000000000000000 ) ) ;
#544 = CIRCLE ( 'NONE', #13, 0.4000000000000001887 ) ;
#545 = EDGE_CURVE ( 'NONE', #846, #766, #485, .T. ) ;
#546 = AXIS2_PLACEMENT_3D ( 'NONE', #81, #255, #422 ) ;
#547 = CONICAL_SURFACE ( 'NONE', #600, 1732.050807568485880, 1.047197551196499932 ) ;
#548 = DIRECTION ( 'NONE',  ( -0.000000000000000000, -1.000000000000000000, -0.000000000000000000 ) ) ;
#549 = CONICAL_SURFACE ( 'NONE', #170, 6.000000000000000000, 0.4124839195095327815 ) ;
#550 = ADVANCED_FACE ( 'NONE', ( #366 ), #536, .T. ) ;
#551 = DIRECTION ( 'NONE',  ( 0.000000000000000000, 0.000000000000000000, -1.000000000000000000 ) ) ;
#552 = CARTESIAN_POINT ( 'NONE',  ( 9.797174393178825657E-16, 33.38000000000000256, 8.000000000000000000 ) ) ;
#553 = CARTESIAN_POINT ( 'NONE',  ( 0.000000000000000000, 33.35566200000000947, 4.250000000000000000 ) ) ;
#554 = ORIENTED_EDGE ( 'NONE', *, *, #207, .F. ) ;
#555 = FACE_OUTER_BOUND ( 'NONE', #635, .T. ) ;
#556 = EDGE_CURVE ( 'NONE', #689, #768, #1015, .T. ) ;
#557 = DIRECTION ( 'NONE',  ( 0.000000000000000000, 0.000000000000000000, -1.000000000000000000 ) ) ;
#558 = CONICAL_SURFACE ( 'NONE', #527, 4.250000000000000000, 0.7853980133630724669 ) ;
#559 = AXIS2_PLACEMENT_3D ( 'NONE', #229, #640, #876 ) ;
#560 = CIRCLE ( 'NONE', #102, 8.000000000000000000 ) ;
#561 = DIRECTION ( 'NONE',  ( 0.000000000000000000, -0.7071068872768641045, -0.7071066750962150538 ) ) ;
#562 = AXIS2_PLACEMENT_3D ( 'NONE', #837, #661, #580 ) ;
#563 = EDGE_CURVE ( 'NONE', #595, #1029, #680, .T. ) ;
#564 = DIRECTION ( 'NONE',  ( -0.000000000000000000, -1.000000000000000000, -0.000000000000000000 ) ) ;
#565 = CARTESIAN_POINT ( 'NONE',  ( 0.000000000000000000, 39.00000000000000000, -4.250000000000000000 ) ) ;
#566 = ORIENTED_EDGE ( 'NONE', *, *, #458, .F. ) ;
#567 = CARTESIAN_POINT ( 'NONE',  ( 0.000000000000000000, 34.03431499999999943, 0.000000000000000000 ) ) ;
#568 =( NAMED_UNIT ( * ) SI_UNIT ( $, .STERADIAN. ) SOLID_ANGLE_UNIT ( ) );
#569 = DIRECTION ( 'NONE',  ( -0.000000000000000000, -1.000000000000000000, -0.000000000000000000 ) ) ;
#570 = DIRECTION ( 'NONE',  ( 0.000000000000000000, 0.000000000000000000, 1.000000000000000000 ) ) ;
#571 =( LENGTH_UNIT ( ) NAMED_UNIT ( * ) SI_UNIT ( .MILLI., .METRE. ) );
#572 = EDGE_LOOP ( 'NONE', ( #929, #5, #340, #335 ) ) ;
#573 = ORIENTED_EDGE ( 'NONE', *, *, #563, .T. ) ;
#574 = ADVANCED_FACE ( 'NONE', ( #613, #859 ), #284, .T. ) ;
#575 = LINE ( 'NONE', #903, #868 ) ;
#576 = AXIS2_PLACEMENT_3D ( 'NONE', #667, #754, #264 ) ;
#577 = VERTEX_POINT ( 'NONE', #866 ) ;
#578 = DIRECTION ( 'NONE',  ( 0.000000000000000000, 0.000000000000000000, -1.000000000000000000 ) ) ;
#579 = CIRCLE ( 'NONE', #515, 2.267949000000000659 ) ;
#580 = DIRECTION ( 'NONE',  ( 0.000000000000000000, 0.000000000000000000, -1.000000000000000000 ) ) ;
#581 = ORIENTED_EDGE ( 'NONE', *, *, #702, .F. ) ;
#582 = ORIENTED_EDGE ( 'NONE', *, *, #656, .F. ) ;
#583 = CARTESIAN_POINT ( 'NONE',  ( 0.000000000000000000, 41.49999949768619700, 0.000000000000000000 ) ) ;
#584 = EDGE_LOOP ( 'NONE', ( #498, #85, #741, #899 ) ) ;
#585 = ADVANCED_FACE ( 'NONE', ( #862 ), #372, .T. ) ;
#586 = DIRECTION ( 'NONE',  ( 0.000000000000000000, 0.000000000000000000, -1.000000000000000000 ) ) ;
#587 = DIRECTION ( 'NONE',  ( -0.000000000000000000, -1.000000000000000000, -0.000000000000000000 ) ) ;
#588 = SURFACE_STYLE_USAGE ( .BOTH. , #164 ) ;
#589 = EDGE_LOOP ( 'NONE', ( #1037, #339, #845, #781 ) ) ;
#590 = ORIENTED_EDGE ( 'NONE', *, *, #283, .F. ) ;
#591 = FACE_OUTER_BOUND ( 'NONE', #572, .T. ) ;
#592 = ORIENTED_EDGE ( 'NONE', *, *, #631, .F. ) ;
#593 = ADVANCED_FACE ( 'NONE', ( #206 ), #233, .F. ) ;
#594 = DIRECTION ( 'NONE',  ( 0.000000000000000000, 0.000000000000000000, -1.000000000000000000 ) ) ;
#595 = VERTEX_POINT ( 'NONE', #132 ) ;
#596 = ORIENTED_EDGE ( 'NONE', *, *, #698, .F. ) ;
#597 = CARTESIAN_POINT ( 'NONE',  ( 0.000000000000000000, 33.50000000000000000, 0.000000000000000000 ) ) ;
#598 = LINE ( 'NONE', #258, #484 ) ;
#599 = AXIS2_PLACEMENT_3D ( 'NONE', #971, #813, #744 ) ;
#600 = AXIS2_PLACEMENT_3D ( 'NONE', #326, #734, #26 ) ;
#601 = ADVANCED_FACE ( 'NONE', ( #697 ), #1003, .F. ) ;
#602 = VERTEX_POINT ( 'NONE', #782 ) ;
#603 = DIRECTION ( 'NONE',  ( 0.000000000000000000, 1.000000000000000000, 0.000000000000000000 ) ) ;
#604 = CARTESIAN_POINT ( 'NONE',  ( 0.000000000000000000, 41.49999949768619700, 0.000000000000000000 ) ) ;
#605 = FACE_OUTER_BOUND ( 'NONE', #806, .T. ) ;
#606 = CARTESIAN_POINT ( 'NONE',  ( 0.000000000000000000, 40.24161999999999750, -4.049999999999998046 ) ) ;
#607 = CARTESIAN_POINT ( 'NONE',  ( 0.000000000000000000, -6.499999999999028333, -3.949999999999997069 ) ) ;
#608 = EDGE_CURVE ( 'NONE', #175, #249, #218, .T. ) ;
#609 = DIRECTION ( 'NONE',  ( 0.000000000000000000, 1.000000000000000000, 0.000000000000000000 ) ) ;
#610 = AXIS2_PLACEMENT_3D ( 'NONE', #652, #910, #924 ) ;
#611 = CONICAL_SURFACE ( 'NONE', #303, 1.200000000000464251, 0.7853981633974423948 ) ;
#612 = CARTESIAN_POINT ( 'NONE',  ( 0.000000000000000000, 34.31715771247462499, 0.000000000000000000 ) ) ;
#613 = FACE_BOUND ( 'NONE', #525, .T. ) ;
#614 = EDGE_CURVE ( 'NONE', #892, #190, #45, .T. ) ;
#615 = ORIENTED_EDGE ( 'NONE', *, *, #24, .T. ) ;
#616 = CARTESIAN_POINT ( 'NONE',  ( 4.837354856632042099E-16, 34.03431499999999943, 3.949999999999997957 ) ) ;
#617 = DIRECTION ( 'NONE',  ( -0.000000000000000000, -1.000000000000000000, -0.000000000000000000 ) ) ;
#618 = ORIENTED_EDGE ( 'NONE', *, *, #702, .T. ) ;
#619 = ORIENTED_EDGE ( 'NONE', *, *, #143, .F. ) ;
#620 = CARTESIAN_POINT ( 'NONE',  ( 4.959819536546777642E-16, 40.91905200000000775, 4.049999999999998046 ) ) ;
#621 = FACE_OUTER_BOUND ( 'NONE', #166, .T. ) ;
#622 = VECTOR ( 'NONE', #523, 1000.000000000000000 ) ;
#623 = CARTESIAN_POINT ( 'NONE',  ( 4.898587196589413815E-16, 42.00000000000000000, -4.000000000000000000 ) ) ;
#624 = EDGE_CURVE ( 'NONE', #279, #1001, #691, .T. ) ;
#625 = TOROIDAL_SURFACE ( 'NONE', #449, 4.349999999999997868, 0.4000000000000003553 ) ;
#626 = DIRECTION ( 'NONE',  ( 0.000000000000000000, 0.000000000000000000, -1.000000000000000000 ) ) ;
#627 = ORIENTED_EDGE ( 'NONE', *, *, #517, .T. ) ;
#628 = AXIS2_PLACEMENT_3D ( 'NONE', #179, #503, #570 ) ;
#629 = LINE ( 'NONE', #302, #274 ) ;
#630 = EDGE_CURVE ( 'NONE', #602, #818, #976, .T. ) ;
#631 = EDGE_CURVE ( 'NONE', #261, #731, #629, .T. ) ;
#632 = DIRECTION ( 'NONE',  ( 0.000000000000000000, 0.000000000000000000, -1.000000000000000000 ) ) ;
#633 = DIRECTION ( 'NONE',  ( -0.000000000000000000, -1.000000000000000000, -0.000000000000000000 ) ) ;
#634 = DIRECTION ( 'NONE',  ( 0.000000000000000000, -0.000000000000000000, 1.000000000000000000 ) ) ;
#635 = EDGE_LOOP ( 'NONE', ( #114, #88, #986, #297 ) ) ;
#636 = DIRECTION ( 'NONE',  ( 1.000000000000000000, 0.000000000000000000, -1.224646799147353207E-16 ) ) ;
#637 = EDGE_CURVE ( 'NONE', #689, #279, #152, .T. ) ;
#638 = CARTESIAN_POINT ( 'NONE',  ( 4.898587196589412829E-16, -6.499999999999028333, 4.000000000000000000 ) ) ;
#639 = EDGE_LOOP ( 'NONE', ( #369, #665 ) ) ;
#640 = DIRECTION ( 'NONE',  ( -0.000000000000000000, -1.000000000000000000, -0.000000000000000000 ) ) ;
#641 = AXIS2_PLACEMENT_3D ( 'NONE', #350, #1000, #586 ) ;
#642 = DIRECTION ( 'NONE',  ( -0.000000000000000000, -1.000000000000000000, -0.000000000000000000 ) ) ;
#643 = CARTESIAN_POINT ( 'NONE',  ( 0.000000000000000000, 33.35566200000000947, 0.000000000000000000 ) ) ;
#644 = VERTEX_POINT ( 'NONE', #317 ) ;
#645 = DIRECTION ( 'NONE',  ( 0.000000000000000000, 1.000000000000000000, 0.000000000000000000 ) ) ;
#646 = LINE ( 'NONE', #260, #967 ) ;
#647 = ADVANCED_FACE ( 'NONE', ( #1038 ), #404, .T. ) ;
#648 = PRESENTATION_STYLE_ASSIGNMENT (( #588 ) ) ;
#649 = ORIENTED_EDGE ( 'NONE', *, *, #780, .T. ) ;
#650 = LINE ( 'NONE', #819, #1034 ) ;
#651 = ORIENTED_EDGE ( 'NONE', *, *, #64, .T. ) ;
#652 = CARTESIAN_POINT ( 'NONE',  ( 0.000000000000000000, 10.21394300000000399, 0.000000000000000000 ) ) ;
#653 = DIRECTION ( 'NONE',  ( 0.000000000000000000, 0.000000000000000000, -1.000000000000000000 ) ) ;
#654 = APPLICATION_PROTOCOL_DEFINITION ( 'draft international standard', 'automotive_design', 1998, #940 ) ;
#655 = VERTEX_POINT ( 'NONE', #155 ) ;
#656 = EDGE_CURVE ( 'NONE', #946, #595, #220, .T. ) ;
#657 = ORIENTED_EDGE ( 'NONE', *, *, #958, .T. ) ;
#658 = CARTESIAN_POINT ( 'NONE',  ( 0.000000000000000000, -6.499999999999028333, 0.000000000000000000 ) ) ;
#659 = DIRECTION ( 'NONE',  ( 0.000000000000000000, 0.000000000000000000, -1.000000000000000000 ) ) ;
#660 = AXIS2_PLACEMENT_3D ( 'NONE', #121, #453, #47 ) ;
#661 = DIRECTION ( 'NONE',  ( -0.000000000000000000, -1.000000000000000000, -0.000000000000000000 ) ) ;
#662 = EDGE_LOOP ( 'NONE', ( #596, #441, #451, #195 ) ) ;
#663 = ORIENTED_EDGE ( 'NONE', *, *, #375, .F. ) ;
#664 = CARTESIAN_POINT ( 'NONE',  ( 0.000000000000000000, 40.91905200000000775, -4.049999999999998046 ) ) ;
#665 = ORIENTED_EDGE ( 'NONE', *, *, #921, .F. ) ;
#666 = EDGE_CURVE ( 'NONE', #759, #577, #964, .T. ) ;
#667 = CARTESIAN_POINT ( 'NONE',  ( 0.000000000000000000, 42.00000000000000000, 0.000000000000000000 ) ) ;
#668 = CARTESIAN_POINT ( 'NONE',  ( 0.000000000000000000, 33.52886708075568123, 0.000000000000000000 ) ) ;
#669 = CARTESIAN_POINT ( 'NONE',  ( 4.286263791524701152E-16, 41.49999949768619700, 3.499999995516229312 ) ) ;
#670 = ORIENTED_EDGE ( 'NONE', *, *, #807, .T. ) ;
#671 = DIRECTION ( 'NONE',  ( -0.000000000000000000, -1.000000000000000000, -0.000000000000000000 ) ) ;
#672 = ORIENTED_EDGE ( 'NONE', *, *, #56, .F. ) ;
#673 = CARTESIAN_POINT ( 'NONE',  ( 0.000000000000000000, 34.31715771247462499, 0.000000000000000000 ) ) ;
#674 = EDGE_CURVE ( 'NONE', #190, #246, #204, .T. ) ;
#675 = DIRECTION ( 'NONE',  ( 0.000000000000000000, 0.000000000000000000, -1.000000000000000000 ) ) ;
#676 = ORIENTED_EDGE ( 'NONE', *, *, #501, .F. ) ;
#677 = ORIENTED_EDGE ( 'NONE', *, *, #556, .F. ) ;
#678 = ORIENTED_EDGE ( 'NONE', *, *, #465, .F. ) ;
#679 = CIRCLE ( 'NONE', #748, 3.949999999999997957 ) ;
#680 = CIRCLE ( 'NONE', #867, 0.7999999999999986011 ) ;
#681 = PRODUCT_DEFINITION ( 'UNKNOWN', '', #241, #925 ) ;
#682 = AXIS2_PLACEMENT_3D ( 'NONE', #160, #436, #174 ) ;
#683 = ORIENTED_EDGE ( 'NONE', *, *, #780, .F. ) ;
#684 = VECTOR ( 'NONE', #870, 1000.000000000000114 ) ;
#685 = DIRECTION ( 'NONE',  ( 0.000000000000000000, 0.000000000000000000, -1.000000000000000000 ) ) ;
#686 = CARTESIAN_POINT ( 'NONE',  ( 0.000000000000000000, 34.31715771247462499, 4.067157287525378528 ) ) ;
#687 = CARTESIAN_POINT ( 'NONE',  ( 0.000000000000000000, -6.499999999999028333, 0.000000000000000000 ) ) ;
#688 = CARTESIAN_POINT ( 'NONE',  ( 0.000000000000000000, -5.807179676971053084, 1.200000000000464251 ) ) ;
#689 = VERTEX_POINT ( 'NONE', #796 ) ;
#690 = EDGE_CURVE ( 'NONE', #850, #471, #288, .T. ) ;
#691 = LINE ( 'NONE', #871, #931 ) ;
#692 = AXIS2_PLACEMENT_3D ( 'NONE', #126, #209, #779 ) ;
#693 = ORIENTED_EDGE ( 'NONE', *, *, #370, .T. ) ;
#694 = ORIENTED_EDGE ( 'NONE', *, *, #958, .F. ) ;
#695 = AXIS2_PLACEMENT_3D ( 'NONE', #664, #183, #996 ) ;
#696 = EDGE_CURVE ( 'NONE', #505, #249, #250, .T. ) ;
#697 = FACE_OUTER_BOUND ( 'NONE', #269, .T. ) ;
#698 = EDGE_CURVE ( 'NONE', #689, #468, #959, .T. ) ;
#699 = ORIENTED_EDGE ( 'NONE', *, *, #742, .T. ) ;
#700 = ORIENTED_EDGE ( 'NONE', *, *, #403, .T. ) ;
#701 = CARTESIAN_POINT ( 'NONE',  ( 0.000000000000000000, 5.643429000000001139, 6.000000000000000000 ) ) ;
#702 = EDGE_CURVE ( 'NONE', #987, #850, #955, .T. ) ;
#703 = CARTESIAN_POINT ( 'NONE',  ( 9.723695585229985121E-16, 33.50000000000000000, 7.879999999999999893 ) ) ;
#704 = CARTESIAN_POINT ( 'NONE',  ( 0.000000000000000000, 34.03431499999999943, -3.949999999999997957 ) ) ;
#705 = CARTESIAN_POINT ( 'NONE',  ( 0.000000000000000000, 33.52886708075568123, -4.149999999997887379 ) ) ;
#706 = AXIS2_PLACEMENT_3D ( 'NONE', #932, #848, #376 ) ;
#707 = LINE ( 'NONE', #552, #405 ) ;
#708 = CONICAL_SURFACE ( 'NONE', #812, 4.250000000000000000, 0.7853980133630724669 ) ;
#709 = FACE_OUTER_BOUND ( 'NONE', #1004, .T. ) ;
#710 = ORIENTED_EDGE ( 'NONE', *, *, #355, .T. ) ;
#711 =( GEOMETRIC_REPRESENTATION_CONTEXT ( 3 ) GLOBAL_UNCERTAINTY_ASSIGNED_CONTEXT ( ( #285 ) ) GLOBAL_UNIT_ASSIGNED_CONTEXT ( ( #467, #715, #795 ) ) REPRESENTATION_CONTEXT ( 'NONE', 'WORKASPACE' ) );
#712 = AXIS2_PLACEMENT_3D ( 'NONE', #755, #446, #272 ) ;
#713 = STYLED_ITEM ( 'NONE', ( #648 ), #107 ) ;
#714 = DIRECTION ( 'NONE',  ( 0.000000000000000000, 0.000000000000000000, -1.000000000000000000 ) ) ;
#715 =( NAMED_UNIT ( * ) PLANE_ANGLE_UNIT ( ) SI_UNIT ( $, .RADIAN. ) );
#716 = EDGE_CURVE ( 'NONE', #33, #655, #125, .T. ) ;
#717 = ORIENTED_EDGE ( 'NONE', *, *, #696, .T. ) ;
#718 = DIRECTION ( 'NONE',  ( -0.000000000000000000, -1.000000000000000000, -0.000000000000000000 ) ) ;
#719 = DIRECTION ( 'NONE',  ( -0.000000000000000000, -1.000000000000000000, -0.000000000000000000 ) ) ;
#720 = DIRECTION ( 'NONE',  ( 0.000000000000000000, 0.000000000000000000, -1.000000000000000000 ) ) ;
#721 = CARTESIAN_POINT ( 'NONE',  ( 0.000000000000000000, 42.00000000000000000, 4.000000000000000000 ) ) ;
#722 = AXIS2_PLACEMENT_3D ( 'NONE', #687, #48, #380 ) ;
#723 = AXIS2_PLACEMENT_3D ( 'NONE', #232, #548, #551 ) ;
#724 = AXIS2_PLACEMENT_3D ( 'NONE', #960, #384, #714 ) ;
#725 = CARTESIAN_POINT ( 'NONE',  ( 0.000000000000000000, 33.52886800000000278, 0.000000000000000000 ) ) ;
#726 = ADVANCED_FACE ( 'NONE', ( #481 ), #708, .T. ) ;
#727 = CARTESIAN_POINT ( 'NONE',  ( 0.000000000000000000, 41.49999949768619700, 0.000000000000000000 ) ) ;
#728 = ORIENTED_EDGE ( 'NONE', *, *, #690, .F. ) ;
#729 =( GEOMETRIC_REPRESENTATION_CONTEXT ( 3 ) GLOBAL_UNCERTAINTY_ASSIGNED_CONTEXT ( ( #541 ) ) GLOBAL_UNIT_ASSIGNED_CONTEXT ( ( #571, #267, #409 ) ) REPRESENTATION_CONTEXT ( 'NONE', 'WORKASPACE' ) );
#730 = DIRECTION ( 'NONE',  ( -0.000000000000000000, -1.000000000000000000, -0.000000000000000000 ) ) ;
#731 = VERTEX_POINT ( 'NONE', #565 ) ;
#732 = CARTESIAN_POINT ( 'NONE',  ( 9.797174393178825657E-16, 10.21394300000000399, -8.000000000000000000 ) ) ;
#733 = ADVANCED_FACE ( 'NONE', ( #555 ), #149, .T. ) ;
#734 = DIRECTION ( 'NONE',  ( 0.000000000000000000, 1.000000000000000000, 0.000000000000000000 ) ) ;
#735 = EDGE_LOOP ( 'NONE', ( #252, #753, #442, #700 ) ) ;
#736 = CARTESIAN_POINT ( 'NONE',  ( 1.469576158977391779E-16, -5.807179676971053084, -1.200000000000464029 ) ) ;
#737 = ORIENTED_EDGE ( 'NONE', *, *, #1008, .F. ) ;
#738 = FACE_OUTER_BOUND ( 'NONE', #881, .T. ) ;
#739 = CARTESIAN_POINT ( 'NONE',  ( 0.000000000000000000, -6.499999999999028333, 0.000000000000000000 ) ) ;
#740 = APPLICATION_PROTOCOL_DEFINITION ( 'draft international standard', 'automotive_design', 1998, #76 ) ;
#741 = ORIENTED_EDGE ( 'NONE', *, *, #465, .T. ) ;
#742 = EDGE_CURVE ( 'NONE', #577, #644, #387, .T. ) ;
#743 = VERTEX_POINT ( 'NONE', #66 ) ;
#744 = DIRECTION ( 'NONE',  ( -1.224646799147353207E-16, 0.000000000000000000, -1.000000000000000000 ) ) ;
#745 = VECTOR ( 'NONE', #439, 1000.000000000000000 ) ;
#746 = AXIS2_PLACEMENT_3D ( 'NONE', #146, #1045, #313 ) ;
#747 = DIRECTION ( 'NONE',  ( -0.000000000000000000, -1.000000000000000000, -0.000000000000000000 ) ) ;
#748 = AXIS2_PLACEMENT_3D ( 'NONE', #567, #889, #911 ) ;
#749 = CARTESIAN_POINT ( 'NONE',  ( 0.000000000000000000, 41.49999949768619700, 0.000000000000000000 ) ) ;
#750 = ORIENTED_EDGE ( 'NONE', *, *, #829, .F. ) ;
#751 = AXIS2_PLACEMENT_3D ( 'NONE', #238, #228, #626 ) ;
#752 = ADVANCED_FACE ( 'NONE', ( #473 ), #771, .T. ) ;
#753 = ORIENTED_EDGE ( 'NONE', *, *, #637, .F. ) ;
#754 = DIRECTION ( 'NONE',  ( -0.000000000000000000, -1.000000000000000000, -0.000000000000000000 ) ) ;
#755 = CARTESIAN_POINT ( 'NONE',  ( 0.000000000000000000, -6.499999999999028333, 0.000000000000000000 ) ) ;
#756 = DIRECTION ( 'NONE',  ( -0.000000000000000000, -1.000000000000000000, -0.000000000000000000 ) ) ;
#757 =( NAMED_UNIT ( * ) PLANE_ANGLE_UNIT ( ) SI_UNIT ( $, .RADIAN. ) );
#758 = ORIENTED_EDGE ( 'NONE', *, *, #429, .T. ) ;
#759 = VERTEX_POINT ( 'NONE', #383 ) ;
#760 = DIRECTION ( 'NONE',  ( 0.000000000000000000, 0.000000000000000000, -1.000000000000000000 ) ) ;
#761 = VERTEX_POINT ( 'NONE', #704 ) ;
#762 = ADVANCED_FACE ( 'NONE', ( #1031 ), #625, .F. ) ;
#763 = DIRECTION ( 'NONE',  ( -0.000000000000000000, -1.000000000000000000, -0.000000000000000000 ) ) ;
#764 = LINE ( 'NONE', #638, #982 ) ;
#765 = DIRECTION ( 'NONE',  ( -0.000000000000000000, -1.000000000000000000, -0.000000000000000000 ) ) ;
#766 = VERTEX_POINT ( 'NONE', #191 ) ;
#767 = DIRECTION ( 'NONE',  ( -0.000000000000000000, -1.000000000000000000, -0.000000000000000000 ) ) ;
#768 = VERTEX_POINT ( 'NONE', #519 ) ;
#769 = CIRCLE ( 'NONE', #1047, 4.000000000000000000 ) ;
#770 = DIRECTION ( 'NONE',  ( -0.000000000000000000, -1.000000000000000000, -0.000000000000000000 ) ) ;
#771 = CONICAL_SURFACE ( 'NONE', #301, 1.200000000000464251, 0.7853981633974423948 ) ;
#772 = VECTOR ( 'NONE', #535, 999.9999999999998863 ) ;
#773 = ADVANCED_FACE ( 'NONE', ( #416 ), #244, .T. ) ;
#774 = AXIS2_PLACEMENT_3D ( 'NONE', #597, #645, #791 ) ;
#775 = CIRCLE ( 'NONE', #562, 4.000000000000000000 ) ;
#776 = DIRECTION ( 'NONE',  ( 0.000000000000000000, 0.000000000000000000, -1.000000000000000000 ) ) ;
#777 = ORIENTED_EDGE ( 'NONE', *, *, #186, .T. ) ;
#778 = AXIS2_PLACEMENT_3D ( 'NONE', #643, #965, #1036 ) ;
#779 = DIRECTION ( 'NONE',  ( 0.000000000000000000, 0.000000000000000000, -1.000000000000000000 ) ) ;
#780 = EDGE_CURVE ( 'NONE', #516, #106, #836, .T. ) ;
#781 = ORIENTED_EDGE ( 'NONE', *, *, #474, .F. ) ;
#782 = CARTESIAN_POINT ( 'NONE',  ( 0.000000000000000000, 34.31715771247462499, -4.067157287525378528 ) ) ;
#783 = DIRECTION ( 'NONE',  ( -0.000000000000000000, -1.000000000000000000, -0.000000000000000000 ) ) ;
#784 = EDGE_CURVE ( 'NONE', #279, #689, #17, .T. ) ;
#785 = DIRECTION ( 'NONE',  ( 0.000000000000000000, -0.000000000000000000, 1.000000000000000000 ) ) ;
#786 = AXIS2_PLACEMENT_3D ( 'NONE', #884, #718, #632 ) ;
#787 = CARTESIAN_POINT ( 'NONE',  ( 9.797174393178825657E-16, 33.38000000000000256, 8.000000000000000000 ) ) ;
#788 = VECTOR ( 'NONE', #99, 1000.000000000000000 ) ;
#789 = STYLED_ITEM ( 'NONE', ( #136 ), #939 ) ;
#790 = DIRECTION ( 'NONE',  ( 0.000000000000000000, 0.000000000000000000, -1.000000000000000000 ) ) ;
#791 = DIRECTION ( 'NONE',  ( 0.000000000000000000, 0.000000000000000000, 1.000000000000000000 ) ) ;
#792 = ORIENTED_EDGE ( 'NONE', *, *, #283, .T. ) ;
#793 = DIRECTION ( 'NONE',  ( 0.000000000000000000, 1.000000000000000000, 0.000000000000000000 ) ) ;
#794 = FACE_OUTER_BOUND ( 'NONE', #1025, .T. ) ;
#795 =( NAMED_UNIT ( * ) SI_UNIT ( $, .STERADIAN. ) SOLID_ANGLE_UNIT ( ) );
#796 = CARTESIAN_POINT ( 'NONE',  ( 0.000000000000000000, 5.643429000000001139, 6.000000000000000000 ) ) ;
#797 = ORIENTED_EDGE ( 'NONE', *, *, #905, .T. ) ;
#798 = EDGE_CURVE ( 'NONE', #946, #175, #650, .T. ) ;
#799 = AXIS2_PLACEMENT_3D ( 'NONE', #460, #935, #926 ) ;
#800 = DIRECTION ( 'NONE',  ( 0.000000000000000000, 0.5000000000000847100, 0.8660254037843897468 ) ) ;
#801 = AXIS2_PLACEMENT_3D ( 'NONE', #332, #603, #947 ) ;
#802 = DIRECTION ( 'NONE',  ( -0.000000000000000000, -1.000000000000000000, -0.000000000000000000 ) ) ;
#803 = EDGE_CURVE ( 'NONE', #1029, #743, #406, .T. ) ;
#804 = EDGE_LOOP ( 'NONE', ( #311, #699, #994, #678 ) ) ;
#805 = DIRECTION ( 'NONE',  ( 0.000000000000000000, 0.000000000000000000, -1.000000000000000000 ) ) ;
#806 = EDGE_LOOP ( 'NONE', ( #522, #334, #54, #554 ) ) ;
#807 = EDGE_CURVE ( 'NONE', #846, #1001, #575, .T. ) ;
#808 = DIRECTION ( 'NONE',  ( 0.000000000000000000, 0.000000000000000000, 1.000000000000000000 ) ) ;
#809 = CARTESIAN_POINT ( 'NONE',  ( 0.000000000000000000, -6.499999999999028333, -4.250000000000000000 ) ) ;
#810 = CIRCLE ( 'NONE', #641, 6.000000000000000000 ) ;
#811 = EDGE_LOOP ( 'NONE', ( #22, #248, #29, #282 ) ) ;
#812 = AXIS2_PLACEMENT_3D ( 'NONE', #968, #1049, #240 ) ;
#813 = DIRECTION ( 'NONE',  ( 1.000000000000000000, 0.000000000000000000, -1.224646799147353207E-16 ) ) ;
#814 = CIRCLE ( 'NONE', #290, 4.250000000000000000 ) ;
#815 = VECTOR ( 'NONE', #185, 1000.000000000000000 ) ;
#816 = ADVANCED_FACE ( 'NONE', ( #591 ), #1, .T. ) ;
#817 = DIRECTION ( 'NONE',  ( 1.000000000000000000, 0.000000000000000000, -1.224646799147353207E-16 ) ) ;
#818 = VERTEX_POINT ( 'NONE', #500 ) ;
#819 = CARTESIAN_POINT ( 'NONE',  ( 0.000000000000000000, -6.499999999999028333, -3.249999999999998668 ) ) ;
#820 = DIRECTION ( 'NONE',  ( -0.000000000000000000, -1.000000000000000000, -0.000000000000000000 ) ) ;
#821 = EDGE_CURVE ( 'NONE', #892, #818, #452, .T. ) ;
#822 = DIRECTION ( 'NONE',  ( 0.000000000000000000, 1.000000000000000000, 0.000000000000000000 ) ) ;
#823 = DIRECTION ( 'NONE',  ( 1.000000000000000000, 0.000000000000000000, 0.000000000000000000 ) ) ;
#824 = ORIENTED_EDGE ( 'NONE', *, *, #438, .F. ) ;
#825 = DIRECTION ( 'NONE',  ( 0.000000000000000000, 0.000000000000000000, -1.000000000000000000 ) ) ;
#826 = DIRECTION ( 'NONE',  ( -0.000000000000000000, -1.000000000000000000, -0.000000000000000000 ) ) ;
#827 = FACE_OUTER_BOUND ( 'NONE', #479, .T. ) ;
#828 = LINE ( 'NONE', #739, #788 ) ;
#829 = EDGE_CURVE ( 'NONE', #14, #731, #814, .T. ) ;
#830 = FILL_AREA_STYLE ('',( #894 ) ) ;
#831 = ORIENTED_EDGE ( 'NONE', *, *, #325, .T. ) ;
#832 = CARTESIAN_POINT ( 'NONE',  ( 0.000000000000000000, 33.50000000000000000, 4.500000000000000888 ) ) ;
#833 = CIRCLE ( 'NONE', #950, 7.879999999999999893 ) ;
#834 = FACE_OUTER_BOUND ( 'NONE', #262, .T. ) ;
#835 = CIRCLE ( 'NONE', #374, 1.200000000000464251 ) ;
#836 = CIRCLE ( 'NONE', #546, 4.250000000000000000 ) ;
#837 = CARTESIAN_POINT ( 'NONE',  ( 0.000000000000000000, 42.00000000000000000, 0.000000000000000000 ) ) ;
#838 = VERTEX_POINT ( 'NONE', #328 ) ;
#839 = ORIENTED_EDGE ( 'NONE', *, *, #178, .T. ) ;
#840 = CARTESIAN_POINT ( 'NONE',  ( 0.000000000000000000, 5.643429000000001139, 0.000000000000000000 ) ) ;
#841 = ORIENTED_EDGE ( 'NONE', *, *, #999, .T. ) ;
#842 = CARTESIAN_POINT ( 'NONE',  ( 5.204748896376250699E-16, 39.00000000000000000, 4.250000000000000000 ) ) ;
#843 = DIRECTION ( 'NONE',  ( -0.000000000000000000, -1.000000000000000000, -0.000000000000000000 ) ) ;
#844 = DIRECTION ( 'NONE',  ( 0.000000000000000000, 1.000000000000000000, 0.000000000000000000 ) ) ;
#845 = ORIENTED_EDGE ( 'NONE', *, *, #470, .T. ) ;
#846 = VERTEX_POINT ( 'NONE', #736 ) ;
#847 = EDGE_CURVE ( 'NONE', #761, #892, #883, .T. ) ;
#848 = DIRECTION ( 'NONE',  ( -0.000000000000000000, -1.000000000000000000, -0.000000000000000000 ) ) ;
#849 = CYLINDRICAL_SURFACE ( 'NONE', #153, 4.000000000000000000 ) ;
#850 = VERTEX_POINT ( 'NONE', #832 ) ;
#851 = DIRECTION ( 'NONE',  ( 0.000000000000000000, 0.000000000000000000, -1.000000000000000000 ) ) ;
#852 = AXIS2_PLACEMENT_3D ( 'NONE', #604, #184, #176 ) ;
#853 = CARTESIAN_POINT ( 'NONE',  ( 0.000000000000000000, -5.807179676971053084, 0.000000000000000000 ) ) ;
#854 = EDGE_CURVE ( 'NONE', #595, #946, #1021, .T. ) ;
#855 = VECTOR ( 'NONE', #888, 1000.000000000000000 ) ;
#856 = ORIENTED_EDGE ( 'NONE', *, *, #962, .T. ) ;
#857 = EDGE_LOOP ( 'NONE', ( #824, #181 ) ) ;
#858 = DIRECTION ( 'NONE',  ( -0.000000000000000000, -1.000000000000000000, -0.000000000000000000 ) ) ;
#859 = FACE_OUTER_BOUND ( 'NONE', #857, .T. ) ;
#860 = ADVANCED_FACE ( 'NONE', ( #96 ), #165, .F. ) ;
#861 = DIRECTION ( 'NONE',  ( 0.000000000000000000, 0.000000000000000000, 1.000000000000000000 ) ) ;
#862 = FACE_OUTER_BOUND ( 'NONE', #804, .T. ) ;
#863 = DIRECTION ( 'NONE',  ( -0.000000000000000000, -1.000000000000000000, -0.000000000000000000 ) ) ;
#864 = EDGE_LOOP ( 'NONE', ( #566, #338, #365, #750 ) ) ;
#865 = SURFACE_SIDE_STYLE ('',( #360 ) ) ;
#866 = CARTESIAN_POINT ( 'NONE',  ( 3.838011840034426466E-16, 51.50000000000000711, 2.267949000000000659 ) ) ;
#867 = AXIS2_PLACEMENT_3D ( 'NONE', #620, #294, #197 ) ;
#868 = VECTOR ( 'NONE', #116, 999.9999999999998863 ) ;
#869 = VECTOR ( 'NONE', #756, 1000.000000000000000 ) ;
#870 = DIRECTION ( 'NONE',  ( 1.060574443862851195E-16, 0.5000011241930348849, -0.8660247547303143723 ) ) ;
#871 = CARTESIAN_POINT ( 'NONE',  ( 0.000000000000000000, -6.499999999999028333, -6.000000000000000000 ) ) ;
#872 = DIRECTION ( 'NONE',  ( 0.000000000000000000, 0.000000000000000000, -1.000000000000000000 ) ) ;
#873 = CARTESIAN_POINT ( 'NONE',  ( 0.000000000000000000, 5.643429000000001139, 0.000000000000000000 ) ) ;
#874 = DIRECTION ( 'NONE',  ( -1.000000000000000000, 0.000000000000000000, 0.000000000000000000 ) ) ;
#875 = DIRECTION ( 'NONE',  ( 8.659570625309520771E-17, 0.7071059594829929296, -0.7071076028891472021 ) ) ;
#876 = DIRECTION ( 'NONE',  ( 0.000000000000000000, 0.000000000000000000, -1.000000000000000000 ) ) ;
#877 = EDGE_CURVE ( 'NONE', #946, #743, #488, .T. ) ;
#878 = CIRCLE ( 'NONE', #100, 7.879999999999999893 ) ;
#879 = AXIS2_PLACEMENT_3D ( 'NONE', #71, #636, #324 ) ;
#880 = AXIS2_PLACEMENT_3D ( 'NONE', #606, #456, #286 ) ;
#881 = EDGE_LOOP ( 'NONE', ( #908, #348, #352, #148 ) ) ;
#882 = EDGE_LOOP ( 'NONE', ( #499, #415, #423, #677 ) ) ;
#883 = CIRCLE ( 'NONE', #388, 3.949999999999997957 ) ;
#884 = CARTESIAN_POINT ( 'NONE',  ( 0.000000000000000000, 5.643429000000001139, 0.000000000000000000 ) ) ;
#885 = ADVANCED_FACE ( 'NONE', ( #270 ), #140, .F. ) ;
#886 = CARTESIAN_POINT ( 'NONE',  ( 0.000000000000000000, -6.499999999999028333, 0.000000000000000000 ) ) ;
#887 = ORIENTED_EDGE ( 'NONE', *, *, #854, .F. ) ;
#888 = DIRECTION ( 'NONE',  ( 6.123234505955948679E-17, -0.8660253797305482726, 0.5000000416625579591 ) ) ;
#889 = DIRECTION ( 'NONE',  ( -0.000000000000000000, -1.000000000000000000, -0.000000000000000000 ) ) ;
#890 = ADVANCED_FACE ( 'NONE', ( #621 ), #304, .T. ) ;
#891 = LINE ( 'NONE', #158, #815 ) ;
#892 = VERTEX_POINT ( 'NONE', #616 ) ;
#893 = CIRCLE ( 'NONE', #187, 3.749999997890719250 ) ;
#894 = FILL_AREA_STYLE_COLOUR ( '', #1023 ) ;
#895 = ORIENTED_EDGE ( 'NONE', *, *, #24, .F. ) ;
#896 = ORIENTED_EDGE ( 'NONE', *, *, #821, .T. ) ;
#897 = DIRECTION ( 'NONE',  ( -0.000000000000000000, -1.000000000000000000, -0.000000000000000000 ) ) ;
#898 = CARTESIAN_POINT ( 'NONE',  ( 0.000000000000000000, -5.807179676971053084, 0.000000000000000000 ) ) ;
#899 = ORIENTED_EDGE ( 'NONE', *, *, #1046, .F. ) ;
#900 = AXIS2_PLACEMENT_3D ( 'NONE', #985, #112, #974 ) ;
#901 = ORIENTED_EDGE ( 'NONE', *, *, #1035, .T. ) ;
#902 = ORIENTED_EDGE ( 'NONE', *, *, #1041, .F. ) ;
#903 = CARTESIAN_POINT ( 'NONE',  ( 1.469576158977392272E-16, -5.807179676971053084, -1.200000000000464251 ) ) ;
#904 = CARTESIAN_POINT ( 'NONE',  ( 0.000000000000000000, 40.24161999999999750, 0.000000000000000000 ) ) ;
#905 = EDGE_CURVE ( 'NONE', #655, #33, #237, .T. ) ;
#906 = CARTESIAN_POINT ( 'NONE',  ( 4.286263795724173585E-16, 40.24161999999999750, 3.249999999999999112 ) ) ;
#907 = ORIENTED_EDGE ( 'NONE', *, *, #291, .T. ) ;
#908 = ORIENTED_EDGE ( 'NONE', *, *, #186, .F. ) ;
#909 = ORIENTED_EDGE ( 'NONE', *, *, #608, .T. ) ;
#910 = DIRECTION ( 'NONE',  ( -0.000000000000000000, -1.000000000000000000, -0.000000000000000000 ) ) ;
#911 = DIRECTION ( 'NONE',  ( 0.000000000000000000, 0.000000000000000000, -1.000000000000000000 ) ) ;
#912 = EDGE_LOOP ( 'NONE', ( #217, #508, #196, #901 ) ) ;
#913 = ORIENTED_EDGE ( 'NONE', *, *, #989, .F. ) ;
#914 = DIRECTION ( 'NONE',  ( 0.000000000000000000, 0.000000000000000000, -1.000000000000000000 ) ) ;
#915 = VECTOR ( 'NONE', #361, 1000.000000000000000 ) ;
#916 = ORIENTED_EDGE ( 'NONE', *, *, #803, .F. ) ;
#917 = DIRECTION ( 'NONE',  ( 0.000000000000000000, 0.000000000000000000, -1.000000000000000000 ) ) ;
#918 = CIRCLE ( 'NONE', #305, 3.949999999999997069 ) ;
#919 = AXIS2_PLACEMENT_3D ( 'NONE', #16, #730, #342 ) ;
#920 = ORIENTED_EDGE ( 'NONE', *, *, #545, .F. ) ;
#921 = EDGE_CURVE ( 'NONE', #577, #759, #579, .T. ) ;
#922 = VECTOR ( 'NONE', #231, 1000.000000000000000 ) ;
#923 = EDGE_LOOP ( 'NONE', ( #619, #627, #254, #239 ) ) ;
#924 = DIRECTION ( 'NONE',  ( 0.000000000000000000, 0.000000000000000000, -1.000000000000000000 ) ) ;
#925 = PRODUCT_DEFINITION_CONTEXT ( 'detailed design', #76, 'design' ) ;
#926 = DIRECTION ( 'NONE',  ( 0.000000000000000000, 0.000000000000000000, -1.000000000000000000 ) ) ;
#927 = ORIENTED_EDGE ( 'NONE', *, *, #803, .T. ) ;
#928 = CARTESIAN_POINT ( 'NONE',  ( 0.000000000000000000, 33.50000000000000000, 0.000000000000000000 ) ) ;
#929 = ORIENTED_EDGE ( 'NONE', *, *, #355, .F. ) ;
#930 = ORIENTED_EDGE ( 'NONE', *, *, #143, .T. ) ;
#931 = VECTOR ( 'NONE', #469, 1000.000000000000000 ) ;
#932 = CARTESIAN_POINT ( 'NONE',  ( 0.000000000000000000, 48.50000000000000000, 0.000000000000000000 ) ) ;
#933 = ADVANCED_FACE ( 'NONE', ( #539 ), #51, .T. ) ;
#934 = AXIS2_PLACEMENT_3D ( 'NONE', #19, #171, #427 ) ;
#935 = DIRECTION ( 'NONE',  ( -0.000000000000000000, -1.000000000000000000, -0.000000000000000000 ) ) ;
#936 = CARTESIAN_POINT ( 'NONE',  ( 0.000000000000000000, 33.38000000000000256, 0.000000000000000000 ) ) ;
#937 = VECTOR ( 'NONE', #875, 1000.000000000000114 ) ;
#938 = LINE ( 'NONE', #540, #622 ) ;
#939 = MANIFOLD_SOLID_BREP ( '±ÛÂà1', #162 ) ;
#940 = APPLICATION_CONTEXT ( 'automotive_design' ) ;
#941 = ADVANCED_FACE ( 'NONE', ( #957 ), #549, .T. ) ;
#942 = EDGE_LOOP ( 'NONE', ( #263, #693, #69, #995 ) ) ;
#943 = CARTESIAN_POINT ( 'NONE',  ( 0.000000000000000000, 33.52886708075568123, 0.000000000000000000 ) ) ;
#944 = UNCERTAINTY_MEASURE_WITH_UNIT (LENGTH_MEASURE( 1.000000000000000082E-05 ), #188, 'distance_accuracy_value', 'NONE');
#945 = PRODUCT_DEFINITION_SHAPE ( 'NONE', 'NONE',  #681 ) ;
#946 = VERTEX_POINT ( 'NONE', #386 ) ;
#947 = DIRECTION ( 'NONE',  ( 0.000000000000000000, 0.000000000000000000, 1.000000000000000000 ) ) ;
#948 = CARTESIAN_POINT ( 'NONE',  ( 4.898587196589412829E-16, 48.50000000000000000, 4.000000000000000000 ) ) ;
#949 = AXIS2_PLACEMENT_3D ( 'NONE', #461, #617, #790 ) ;
#950 = AXIS2_PLACEMENT_3D ( 'NONE', #2, #826, #424 ) ;
#951 = AXIS2_PLACEMENT_3D ( 'NONE', #157, #802, #58 ) ;
#952 = DIRECTION ( 'NONE',  ( 0.000000000000000000, 0.000000000000000000, -1.000000000000000000 ) ) ;
#953 = CARTESIAN_POINT ( 'NONE',  ( 0.000000000000000000, 33.38000000000000256, -8.000000000000000000 ) ) ;
#954 = ORIENTED_EDGE ( 'NONE', *, *, #207, .T. ) ;
#955 = LINE ( 'NONE', #961, #425 ) ;
#956 = FACE_OUTER_BOUND ( 'NONE', #256, .T. ) ;
#957 = FACE_OUTER_BOUND ( 'NONE', #882, .T. ) ;
#958 = EDGE_CURVE ( 'NONE', #202, #987, #981, .T. ) ;
#959 = LINE ( 'NONE', #399, #319 ) ;
#960 = CARTESIAN_POINT ( 'NONE',  ( 0.000000000000000000, -6.499999999999028333, 0.000000000000000000 ) ) ;
#961 = CARTESIAN_POINT ( 'NONE',  ( 0.000000000000000000, 33.50000000000000000, 4.500000000000000888 ) ) ;
#962 = EDGE_CURVE ( 'NONE', #988, #766, #400, .T. ) ;
#963 = CARTESIAN_POINT ( 'NONE',  ( 0.000000000000000000, 40.24161999999999750, -3.249999999999999112 ) ) ;
#964 = CIRCLE ( 'NONE', #1005, 2.267949000000000659 ) ;
#965 = DIRECTION ( 'NONE',  ( -0.000000000000000000, -1.000000000000000000, -0.000000000000000000 ) ) ;
#966 = VERTEX_POINT ( 'NONE', #703 ) ;
#967 = VECTOR ( 'NONE', #3, 1000.000000000000000 ) ;
#968 = CARTESIAN_POINT ( 'NONE',  ( 0.000000000000000000, 39.00000000000000000, 0.000000000000000000 ) ) ;
#969 = CARTESIAN_POINT ( 'NONE',  ( 0.000000000000000000, 33.52886800000000278, -3.949999999999997069 ) ) ;
#970 = DIRECTION ( 'NONE',  ( -0.000000000000000000, -1.000000000000000000, -0.000000000000000000 ) ) ;
#971 = CARTESIAN_POINT ( 'NONE',  ( 5.327213576290984270E-16, 34.03431499999999943, 4.349999999999997868 ) ) ;
#972 = CARTESIAN_POINT ( 'NONE',  ( 5.357829746269669634E-16, 33.35566200000000947, -4.250000000000000000 ) ) ;
#973 = TOROIDAL_SURFACE ( 'NONE', #151, 4.049999999999998046, 0.7999999999999989342 ) ;
#974 = DIRECTION ( 'NONE',  ( 0.000000000000000000, 0.000000000000000000, -1.000000000000000000 ) ) ;
#975 = ORIENTED_EDGE ( 'NONE', *, *, #630, .T. ) ;
#976 = CIRCLE ( 'NONE', #723, 4.067157287525378528 ) ;
#977 = AXIS2_PLACEMENT_3D ( 'NONE', #450, #863, #194 ) ;
#978 = ADVANCED_FACE ( 'NONE', ( #709 ), #307, .T. ) ;
#979 = DIRECTION ( 'NONE',  ( 0.000000000000000000, 0.000000000000000000, -1.000000000000000000 ) ) ;
#980 = EDGE_LOOP ( 'NONE', ( #518, #841, #276, #95 ) ) ;
#981 = CIRCLE ( 'NONE', #778, 4.250000000000000000 ) ;
#982 = VECTOR ( 'NONE', #75, 1000.000000000000000 ) ;
#983 = CARTESIAN_POINT ( 'NONE',  ( 0.000000000000000000, 39.00000000000000000, 0.000000000000000000 ) ) ;
#984 = FACE_OUTER_BOUND ( 'NONE', #923, .T. ) ;
#985 = CARTESIAN_POINT ( 'NONE',  ( 0.000000000000000000, 48.50000000000000000, 0.000000000000000000 ) ) ;
#986 = ORIENTED_EDGE ( 'NONE', *, *, #312, .F. ) ;
#987 = VERTEX_POINT ( 'NONE', #553 ) ;
#988 = VERTEX_POINT ( 'NONE', #475 ) ;
#989 = EDGE_CURVE ( 'NONE', #208, #655, #1030, .T. ) ;
#990 = FACE_OUTER_BOUND ( 'NONE', #864, .T. ) ;
#991 = FACE_OUTER_BOUND ( 'NONE', #942, .T. ) ;
#992 = FACE_OUTER_BOUND ( 'NONE', #198, .T. ) ;
#993 = CARTESIAN_POINT ( 'NONE',  ( 0.000000000000000000, -1.007179676971460269, 0.000000000000000000 ) ) ;
#994 = ORIENTED_EDGE ( 'NONE', *, *, #445, .F. ) ;
#995 = ORIENTED_EDGE ( 'NONE', *, *, #470, .F. ) ;
#996 = DIRECTION ( 'NONE',  ( 0.000000000000000000, 0.000000000000000000, 1.000000000000000000 ) ) ;
#997 = ORIENTED_EDGE ( 'NONE', *, *, #905, .F. ) ;
#998 = DIRECTION ( 'NONE',  ( 0.000000000000000000, 0.000000000000000000, -1.000000000000000000 ) ) ;
#999 = EDGE_CURVE ( 'NONE', #602, #106, #478, .T. ) ;
#1000 = DIRECTION ( 'NONE',  ( -0.000000000000000000, -1.000000000000000000, -0.000000000000000000 ) ) ;
#1001 = VERTEX_POINT ( 'NONE', #224 ) ;
#1002 = ORIENTED_EDGE ( 'NONE', *, *, #877, .F. ) ;
#1003 = TOROIDAL_SURFACE ( 'NONE', #77, 4.149999999997887379, 0.2000000000000030642 ) ;
#1004 = EDGE_LOOP ( 'NONE', ( #676, #104, #954, #683 ) ) ;
#1005 = AXIS2_PLACEMENT_3D ( 'NONE', #464, #144, #720 ) ;
#1006 = VECTOR ( 'NONE', #315, 1000.000000000000000 ) ;
#1007 = AXIS2_PLACEMENT_3D ( 'NONE', #440, #432, #675 ) ;
#1008 = EDGE_CURVE ( 'NONE', #202, #471, #147, .T. ) ;
#1009 = EDGE_LOOP ( 'NONE', ( #351, #1040, #728, #581 ) ) ;
#1010 = ORIENTED_EDGE ( 'NONE', *, *, #656, .T. ) ;
#1011 = CARTESIAN_POINT ( 'NONE',  ( 0.000000000000000000, -6.499999999999028333, 0.000000000000000000 ) ) ;
#1012 = DIRECTION ( 'NONE',  ( 0.000000000000000000, 0.7071059594829929296, 0.7071076028891472021 ) ) ;
#1013 = ORIENTED_EDGE ( 'NONE', *, *, #458, .T. ) ;
#1014 = SURFACE_STYLE_USAGE ( .BOTH. , #865 ) ;
#1015 = LINE ( 'NONE', #701, #915 ) ;
#1016 = CARTESIAN_POINT ( 'NONE',  ( 5.204748896376250699E-16, 39.00000000000000000, 4.250000000000000000 ) ) ;
#1017 = ADVANCED_FACE ( 'NONE', ( #68 ), #393, .T. ) ;
#1018 = CIRCLE ( 'NONE', #610, 8.000000000000000000 ) ;
#1019 = CARTESIAN_POINT ( 'NONE',  ( 4.500000000000000888, 33.50000000000000000, 0.000000000000000000 ) ) ;
#1020 = CIRCLE ( 'NONE', #277, 4.250000000000000000 ) ;
#1021 = CIRCLE ( 'NONE', #359, 3.249999999999998224 ) ;
#1022 = EDGE_LOOP ( 'NONE', ( #1010, #358, #323, #347 ) ) ;
#1023 = COLOUR_RGB ( '',0.7921568627450980005, 0.8196078431372548767, 0.9333333333333333481 ) ;
#1024 = CARTESIAN_POINT ( 'NONE',  ( 0.000000000000000000, 40.24161999999999750, 0.000000000000000000 ) ) ;
#1025 = EDGE_LOOP ( 'NONE', ( #192, #907, #521, #278 ) ) ;
#1026 = DIRECTION ( 'NONE',  ( -0.000000000000000000, -1.000000000000000000, -0.000000000000000000 ) ) ;
#1027 = ADVANCED_FACE ( 'NONE', ( #397 ), #414, .T. ) ;
#1028 = CYLINDRICAL_SURFACE ( 'NONE', #724, 3.949999999999997069 ) ;
#1029 = VERTEX_POINT ( 'NONE', #669 ) ;
#1030 = LINE ( 'NONE', #953, #922 ) ;
#1031 = FACE_OUTER_BOUND ( 'NONE', #316, .T. ) ;
#1032 = AXIS2_PLACEMENT_3D ( 'NONE', #230, #142, #872 ) ;
#1033 = CARTESIAN_POINT ( 'NONE',  ( 0.000000000000000000, -5.807179676971053084, 0.000000000000000000 ) ) ;
#1034 = VECTOR ( 'NONE', #569, 1000.000000000000000 ) ;
#1035 = EDGE_CURVE ( 'NONE', #468, #1001, #520, .T. ) ;
#1036 = DIRECTION ( 'NONE',  ( 0.000000000000000000, 0.000000000000000000, -1.000000000000000000 ) ) ;
#1037 = ORIENTED_EDGE ( 'NONE', *, *, #370, .F. ) ;
#1038 = FACE_OUTER_BOUND ( 'NONE', #735, .T. ) ;
#1039 = CARTESIAN_POINT ( 'NONE',  ( 0.000000000000000000, 51.50000000000000711, 0.000000000000000000 ) ) ;
#1040 = ORIENTED_EDGE ( 'NONE', *, *, #1008, .T. ) ;
#1041 = EDGE_CURVE ( 'NONE', #987, #202, #20, .T. ) ;
#1042 = DIRECTION ( 'NONE',  ( -0.000000000000000000, -1.000000000000000000, -0.000000000000000000 ) ) ;
#1043 = CARTESIAN_POINT ( 'NONE',  ( 4.286263791524701645E-16, 41.49999949768619700, -3.499999995516229756 ) ) ;
#1044 = CARTESIAN_POINT ( 'NONE',  ( 4.980831153796786857E-16, 34.31715771247462499, -4.067157287525378528 ) ) ;
#1045 = DIRECTION ( 'NONE',  ( -0.000000000000000000, -1.000000000000000000, -0.000000000000000000 ) ) ;
#1046 = EDGE_CURVE ( 'NONE', #644, #838, #225, .T. ) ;
#1047 = AXIS2_PLACEMENT_3D ( 'NONE', #329, #747, #578 ) ;
#1048 = CIRCLE ( 'NONE', #799, 3.249999999999999112 ) ;
#1049 = DIRECTION ( 'NONE',  ( -0.000000000000000000, -1.000000000000000000, -0.000000000000000000 ) ) ;
#1050 = DIRECTION ( 'NONE',  ( 0.000000000000000000, 0.000000000000000000, 1.000000000000000000 ) ) ;
#1051 = DIRECTION ( 'NONE',  ( 0.000000000000000000, 0.000000000000000000, -1.000000000000000000 ) ) ;
#1052 = ORIENTED_EDGE ( 'NONE', *, *, #312, .T. ) ;
ENDSEC;
END-ISO-10303-21;
