ISO-10303-21;
HEADER;
FILE_DESCRIPTION (( 'STEP AP214' ),
    '1' );
FILE_NAME ('99688-SI12-M08+S9MT1203-120.STEP',
    '2023-09-26T06:08:30',
    ( '' ),
    ( '' ),
    'SwSTEP 2.0',
    'SolidWorks 2020',
    '' );
FILE_SCHEMA (( 'AUTOMOTIVE_DESIGN' ));
ENDSEC;

DATA;
#1 = VECTOR ( 'NONE', #224, 1000.000000000000000 ) ;
#2 = CONICAL_SURFACE ( 'NONE', #800, 4.067157287525716924, 0.7853993254610842634 ) ;
#3 = EDGE_CURVE ( 'NONE', #397, #281, #696, .T. ) ;
#4 = DIRECTION ( 'NONE',  ( -0.000000000000000000, -1.000000000000000000, -0.000000000000000000 ) ) ;
#5 = FACE_OUTER_BOUND ( 'NONE', #649, .T. ) ;
#6 = DIRECTION ( 'NONE',  ( 0.000000000000000000, 0.000000000000000000, -1.000000000000000000 ) ) ;
#7 = CARTESIAN_POINT ( 'NONE',  ( 0.000000000000000000, 34.31715771247403524, 0.000000000000000000 ) ) ;
#8 = DIRECTION ( 'NONE',  ( 0.000000000000000000, 0.000000000000000000, -1.000000000000000000 ) ) ;
#9 = CARTESIAN_POINT ( 'NONE',  ( 0.000000000000000000, -6.499999999999028333, 0.000000000000000000 ) ) ;
#10 = ORIENTED_EDGE ( 'NONE', *, *, #935, .F. ) ;
#11 = DIRECTION ( 'NONE',  ( 0.000000000000000000, 0.000000000000000000, -1.000000000000000000 ) ) ;
#12 = CIRCLE ( 'NONE', #707, 2.267949000000338611 ) ;
#13 = DIRECTION ( 'NONE',  ( 0.000000000000000000, 1.000000000000000000, 0.000000000000000000 ) ) ;
#14 = CARTESIAN_POINT ( 'NONE',  ( 0.000000000000000000, 34.49999999999941025, 4.250000000000338396 ) ) ;
#15 = ORIENTED_EDGE ( 'NONE', *, *, #394, .T. ) ;
#16 = FACE_OUTER_BOUND ( 'NONE', #489, .T. ) ;
#17 = ORIENTED_EDGE ( 'NONE', *, *, #847, .T. ) ;
#18 = EDGE_CURVE ( 'NONE', #838, #574, #611, .T. ) ;
#19 = AXIS2_PLACEMENT_3D ( 'NONE', #355, #443, #744 ) ;
#20 = ORIENTED_EDGE ( 'NONE', *, *, #988, .F. ) ;
#21 = MECHANICAL_DESIGN_GEOMETRIC_PRESENTATION_REPRESENTATION (  '', ( #239 ), #637 ) ;
#22 = DIRECTION ( 'NONE',  ( 0.000000000000000000, 0.7071071332052739633, 0.7071064291676458780 ) ) ;
#23 = AXIS2_PLACEMENT_3D ( 'NONE', #814, #677, #750 ) ;
#24 = EDGE_LOOP ( 'NONE', ( #702, #526, #667, #568 ) ) ;
#25 = VECTOR ( 'NONE', #416, 1000.000000000000114 ) ;
#26 = CIRCLE ( 'NONE', #160, 3.250000000000338396 ) ;
#27 = CARTESIAN_POINT ( 'NONE',  ( 0.000000000000000000, -6.499999999999028333, 0.000000000000000000 ) ) ;
#28 = ADVANCED_FACE ( 'NONE', ( #57 ), #495, .T. ) ;
#29 = ADVANCED_FACE ( 'NONE', ( #987 ), #459, .T. ) ;
#30 = AXIS2_PLACEMENT_3D ( 'NONE', #945, #13, #546 ) ;
#31 = ORIENTED_EDGE ( 'NONE', *, *, #157, .T. ) ;
#32 = EDGE_CURVE ( 'NONE', #382, #851, #510, .T. ) ;
#33 = ORIENTED_EDGE ( 'NONE', *, *, #274, .T. ) ;
#34 = AXIS2_PLACEMENT_3D ( 'NONE', #508, #656, #59 ) ;
#35 = EDGE_LOOP ( 'NONE', ( #413, #113, #645, #302 ) ) ;
#36 = TOROIDAL_SURFACE ( 'NONE', #636, 4.050000000000337330, 0.7999999999999986011 ) ;
#37 = ORIENTED_EDGE ( 'NONE', *, *, #531, .F. ) ;
#38 = CARTESIAN_POINT ( 'NONE',  ( 4.898587196589827967E-16, 48.49999999999941025, 4.000000000000338396 ) ) ;
#39 = TOROIDAL_SURFACE ( 'NONE', #712, 4.050000000000337330, 0.7999999999999986011 ) ;
#40 = DIRECTION ( 'NONE',  ( -0.000000000000000000, -1.000000000000000000, -0.000000000000000000 ) ) ;
#41 = EDGE_CURVE ( 'NONE', #109, #870, #465, .T. ) ;
#42 = FACE_OUTER_BOUND ( 'NONE', #208, .T. ) ;
#43 = ADVANCED_FACE ( 'NONE', ( #552 ), #90, .T. ) ;
#44 = ORIENTED_EDGE ( 'NONE', *, *, #793, .F. ) ;
#45 = FACE_OUTER_BOUND ( 'NONE', #405, .T. ) ;
#46 = CYLINDRICAL_SURFACE ( 'NONE', #739, 4.250000000000338396 ) ;
#47 =( NAMED_UNIT ( * ) PLANE_ANGLE_UNIT ( ) SI_UNIT ( $, .RADIAN. ) );
#48 = EDGE_LOOP ( 'NONE', ( #587, #670, #179, #228 ) ) ;
#49 = FACE_OUTER_BOUND ( 'NONE', #620, .T. ) ;
#50 = VERTEX_POINT ( 'NONE', #998 ) ;
#51 = CARTESIAN_POINT ( 'NONE',  ( 0.000000000000000000, 40.91905199999941800, 0.000000000000000000 ) ) ;
#52 = AXIS2_PLACEMENT_3D ( 'NONE', #856, #630, #8 ) ;
#53 = EDGE_CURVE ( 'NONE', #574, #858, #642, .T. ) ;
#54 = CARTESIAN_POINT ( 'NONE',  ( 4.837354856632456251E-16, 34.03431499999940968, 3.950000000000335909 ) ) ;
#55 = ORIENTED_EDGE ( 'NONE', *, *, #698, .F. ) ;
#56 = DIRECTION ( 'NONE',  ( -1.000000000000000000, 0.000000000000000000, 0.000000000000000000 ) ) ;
#57 = FACE_OUTER_BOUND ( 'NONE', #889, .T. ) ;
#58 = DIRECTION ( 'NONE',  ( -0.000000000000000000, -1.000000000000000000, -0.000000000000000000 ) ) ;
#59 = DIRECTION ( 'NONE',  ( 0.000000000000000000, 0.000000000000000000, -1.000000000000000000 ) ) ;
#60 = EDGE_CURVE ( 'NONE', #694, #573, #482, .T. ) ;
#61 = EDGE_LOOP ( 'NONE', ( #485, #733, #886, #326 ) ) ;
#62 = FACE_OUTER_BOUND ( 'NONE', #408, .T. ) ;
#63 = ORIENTED_EDGE ( 'NONE', *, *, #107, .T. ) ;
#64 = DIRECTION ( 'NONE',  ( -0.000000000000000000, -1.000000000000000000, -0.000000000000000000 ) ) ;
#65 = PRODUCT_RELATED_PRODUCT_CATEGORY ( 'part', '', ( #415 ) ) ;
#66 = EDGE_LOOP ( 'NONE', ( #96, #628, #801, #512 ) ) ;
#67 = DIRECTION ( 'NONE',  ( -0.000000000000000000, -1.000000000000000000, -0.000000000000000000 ) ) ;
#68 = CARTESIAN_POINT ( 'NONE',  ( 0.000000000000000000, 5.643428999999411388, 6.000000000000338396 ) ) ;
#69 = VERTEX_POINT ( 'NONE', #407 ) ;
#70 = LINE ( 'NONE', #383, #648 ) ;
#71 = FACE_OUTER_BOUND ( 'NONE', #595, .T. ) ;
#72 = CARTESIAN_POINT ( 'NONE',  ( 0.000000000000000000, -6.499999999999028333, -3.950000000000335021 ) ) ;
#73 = CARTESIAN_POINT ( 'NONE',  ( 0.000000000000000000, 10.21394299999941246, 0.000000000000000000 ) ) ;
#74 = ADVANCED_FACE ( 'NONE', ( #618 ), #903, .T. ) ;
#75 = AXIS2_PLACEMENT_3D ( 'NONE', #669, #64, #277 ) ;
#76 = ORIENTED_EDGE ( 'NONE', *, *, #718, .F. ) ;
#77 = DIRECTION ( 'NONE',  ( 0.000000000000000000, 1.000000000000000000, 0.000000000000000000 ) ) ;
#78 = AXIS2_PLACEMENT_3D ( 'NONE', #816, #638, #181 ) ;
#79 = CARTESIAN_POINT ( 'NONE',  ( 0.000000000000000000, 34.03431499999940968, 0.000000000000000000 ) ) ;
#80 = VECTOR ( 'NONE', #769, 1000.000000000000000 ) ;
#81 = DIRECTION ( 'NONE',  ( -0.000000000000000000, -1.000000000000000000, -0.000000000000000000 ) ) ;
#82 = CARTESIAN_POINT ( 'NONE',  ( 0.000000000000000000, -3.035898384861078103, 6.000000000000337508 ) ) ;
#83 = VECTOR ( 'NONE', #395, 1000.000000000000000 ) ;
#84 = DIRECTION ( 'NONE',  ( -0.000000000000000000, -1.000000000000000000, -0.000000000000000000 ) ) ;
#85 = DIRECTION ( 'NONE',  ( -0.000000000000000000, -1.000000000000000000, -0.000000000000000000 ) ) ;
#86 = ADVANCED_FACE ( 'NONE', ( #933 ), #316, .F. ) ;
#87 = UNCERTAINTY_MEASURE_WITH_UNIT (LENGTH_MEASURE( 1.000000000000000082E-05 ), #584, 'distance_accuracy_value', 'NONE');
#88 = ORIENTED_EDGE ( 'NONE', *, *, #207, .T. ) ;
#89 = DIRECTION ( 'NONE',  ( -0.000000000000000000, -1.000000000000000000, -0.000000000000000000 ) ) ;
#90 = CYLINDRICAL_SURFACE ( 'NONE', #737, 4.000000000000338396 ) ;
#91 = CARTESIAN_POINT ( 'NONE',  ( 7.347880794884533888E-16, 5.643428999999411388, -6.000000000000338396 ) ) ;
#92 = VERTEX_POINT ( 'NONE', #471 ) ;
#93 = AXIS2_PLACEMENT_3D ( 'NONE', #386, #317, #11 ) ;
#94 = DIRECTION ( 'NONE',  ( -0.000000000000000000, -1.000000000000000000, -0.000000000000000000 ) ) ;
#95 = ADVANCED_FACE ( 'NONE', ( #313 ), #616, .T. ) ;
#96 = ORIENTED_EDGE ( 'NONE', *, *, #250, .T. ) ;
#97 = AXIS2_PLACEMENT_3D ( 'NONE', #783, #85, #396 ) ;
#98 = AXIS2_PLACEMENT_3D ( 'NONE', #315, #617, #542 ) ;
#99 = DIRECTION ( 'NONE',  ( -0.000000000000000000, -1.000000000000000000, -0.000000000000000000 ) ) ;
#100 = CIRCLE ( 'NONE', #487, 0.7999999999999986011 ) ;
#101 = ORIENTED_EDGE ( 'NONE', *, *, #888, .T. ) ;
#102 = EDGE_CURVE ( 'NONE', #251, #281, #781, .T. ) ;
#103 = CARTESIAN_POINT ( 'NONE',  ( 9.797174393179239809E-16, 10.21394299999941246, -8.000000000000339284 ) ) ;
#104 = AXIS2_PLACEMENT_3D ( 'NONE', #131, #367, #680 ) ;
#105 = EDGE_LOOP ( 'NONE', ( #804, #424, #477, #496 ) ) ;
#106 = COLOUR_RGB ( '',0.7921568627450980005, 0.8196078431372548767, 0.9333333333333333481 ) ;
#107 = EDGE_CURVE ( 'NONE', #749, #92, #807, .T. ) ;
#108 = FACE_OUTER_BOUND ( 'NONE', #320, .T. ) ;
#109 = VERTEX_POINT ( 'NONE', #539 ) ;
#110 = VECTOR ( 'NONE', #857, 1000.000000000000000 ) ;
#111 = ORIENTED_EDGE ( 'NONE', *, *, #3, .F. ) ;
#112 = AXIS2_PLACEMENT_3D ( 'NONE', #684, #520, #842 ) ;
#113 = ORIENTED_EDGE ( 'NONE', *, *, #887, .T. ) ;
#114 = ORIENTED_EDGE ( 'NONE', *, *, #847, .F. ) ;
#115 = VECTOR ( 'NONE', #89, 1000.000000000000000 ) ;
#116 = CARTESIAN_POINT ( 'NONE',  ( 9.797174393179239809E-16, -6.499999999999028333, 8.000000000000339284 ) ) ;
#117 = EDGE_CURVE ( 'NONE', #838, #641, #419, .T. ) ;
#118 = DIRECTION ( 'NONE',  ( 0.000000000000000000, 1.000000000000000000, 0.000000000000000000 ) ) ;
#119 = CARTESIAN_POINT ( 'NONE',  ( 0.000000000000000000, 40.24161999999940775, -4.050000000000337330 ) ) ;
#120 = AXIS2_PLACEMENT_3D ( 'NONE', #990, #914, #605 ) ;
#121 = DIRECTION ( 'NONE',  ( 0.000000000000000000, 0.000000000000000000, -1.000000000000000000 ) ) ;
#122 = ORIENTED_EDGE ( 'NONE', *, *, #60, .F. ) ;
#123 = CARTESIAN_POINT ( 'NONE',  ( 0.000000000000000000, 5.643428999999411388, 0.000000000000000000 ) ) ;
#124 = CIRCLE ( 'NONE', #714, 4.000000000000338396 ) ;
#125 = DIRECTION ( 'NONE',  ( -0.000000000000000000, -1.000000000000000000, -0.000000000000000000 ) ) ;
#126 = FILL_AREA_STYLE_COLOUR ( '', #252 ) ;
#127 = DIRECTION ( 'NONE',  ( -0.000000000000000000, -1.000000000000000000, -0.000000000000000000 ) ) ;
#128 = ORIENTED_EDGE ( 'NONE', *, *, #394, .F. ) ;
#129 = CYLINDRICAL_SURFACE ( 'NONE', #23, 6.000000000000338396 ) ;
#130 = CARTESIAN_POINT ( 'NONE',  ( 5.510910596163502721E-16, 33.49999999999941025, -4.500000000000337508 ) ) ;
#131 = CARTESIAN_POINT ( 'NONE',  ( 0.000000000000000000, -3.035898384861078103, 0.000000000000000000 ) ) ;
#132 = SHAPE_DEFINITION_REPRESENTATION ( #264, #222 ) ;
#133 = ADVANCED_FACE ( 'NONE', ( #389 ), #399, .T. ) ;
#134 = VERTEX_POINT ( 'NONE', #695 ) ;
#135 = DIRECTION ( 'NONE',  ( 0.000000000000000000, -0.7071067811865526798, -0.7071067811865423547 ) ) ;
#136 = CARTESIAN_POINT ( 'NONE',  ( 0.000000000000000000, 33.49999999999941025, 0.000000000000000000 ) ) ;
#137 = AXIS2_PLACEMENT_3D ( 'NONE', #297, #446, #513 ) ;
#138 = CARTESIAN_POINT ( 'NONE',  ( 0.000000000000000000, 33.49999999999941025, 4.500000000000337508 ) ) ;
#139 =( NAMED_UNIT ( * ) SI_UNIT ( $, .STERADIAN. ) SOLID_ANGLE_UNIT ( ) );
#140 = CARTESIAN_POINT ( 'NONE',  ( 5.327213576291398421E-16, 34.03431499999940968, 4.350000000000336264 ) ) ;
#141 = ORIENTED_EDGE ( 'NONE', *, *, #729, .F. ) ;
#142 = CARTESIAN_POINT ( 'NONE',  ( 0.000000000000000000, -6.499999999999028333, -6.000000000000338396 ) ) ;
#143 = ORIENTED_EDGE ( 'NONE', *, *, #250, .F. ) ;
#144 = CARTESIAN_POINT ( 'NONE',  ( 0.000000000000000000, 10.21394299999941246, 0.000000000000000000 ) ) ;
#145 = CIRCLE ( 'NONE', #227, 0.7999999999999986011 ) ;
#146 = PRESENTATION_STYLE_ASSIGNMENT (( #745 ) ) ;
#147 = ORIENTED_EDGE ( 'NONE', *, *, #604, .F. ) ;
#148 = CARTESIAN_POINT ( 'NONE',  ( 0.000000000000000000, 33.49999999999941025, 4.500000000000337508 ) ) ;
#149 = DIRECTION ( 'NONE',  ( -0.000000000000000000, -1.000000000000000000, -0.000000000000000000 ) ) ;
#150 = ORIENTED_EDGE ( 'NONE', *, *, #409, .F. ) ;
#151 = DIRECTION ( 'NONE',  ( 1.060575238724906792E-16, 0.5000000000000001110, -0.8660254037844385966 ) ) ;
#152 = CARTESIAN_POINT ( 'NONE',  ( 5.204748896376665837E-16, -6.499999999999028333, 4.250000000000338396 ) ) ;
#153 = FACE_BOUND ( 'NONE', #812, .T. ) ;
#154 = CARTESIAN_POINT ( 'NONE',  ( 0.000000000000000000, -6.499999999999028333, -4.000000000000338396 ) ) ;
#155 = FACE_OUTER_BOUND ( 'NONE', #35, .T. ) ;
#156 = VECTOR ( 'NONE', #151, 1000.000000000000000 ) ;
#157 = EDGE_CURVE ( 'NONE', #751, #298, #339, .T. ) ;
#158 = DIRECTION ( 'NONE',  ( 0.000000000000000000, 0.000000000000000000, -1.000000000000000000 ) ) ;
#159 = DIRECTION ( 'NONE',  ( -0.000000000000000000, -1.000000000000000000, -0.000000000000000000 ) ) ;
#160 = AXIS2_PLACEMENT_3D ( 'NONE', #934, #149, #464 ) ;
#161 = ORIENTED_EDGE ( 'NONE', *, *, #180, .T. ) ;
#162 = LINE ( 'NONE', #537, #156 ) ;
#163 = DIRECTION ( 'NONE',  ( -0.000000000000000000, -1.000000000000000000, -0.000000000000000000 ) ) ;
#164 = DIRECTION ( 'NONE',  ( 4.909439407455185099E-17, 0.9161278810979749387, -0.4008861502658013776 ) ) ;
#165 = ORIENTED_EDGE ( 'NONE', *, *, #3, .T. ) ;
#166 = DIRECTION ( 'NONE',  ( -0.000000000000000000, -1.000000000000000000, -0.000000000000000000 ) ) ;
#167 = EDGE_CURVE ( 'NONE', #646, #335, #938, .T. ) ;
#168 = CIRCLE ( 'NONE', #104, 6.000000000000338396 ) ;
#169 = DIRECTION ( 'NONE',  ( 1.000000000000000000, 0.000000000000000000, -1.224646799147353207E-16 ) ) ;
#170 = ORIENTED_EDGE ( 'NONE', *, *, #550, .T. ) ;
#171 = CIRCLE ( 'NONE', #647, 4.067157287525716924 ) ;
#172 = CARTESIAN_POINT ( 'NONE',  ( 0.000000000000000000, 38.99999999999941025, 0.000000000000000000 ) ) ;
#173 = EDGE_CURVE ( 'NONE', #764, #109, #310, .T. ) ;
#174 = TOROIDAL_SURFACE ( 'NONE', #329, 4.149999999998226663, 0.2000000000000043687 ) ;
#175 = ORIENTED_EDGE ( 'NONE', *, *, #859, .T. ) ;
#176 = CIRCLE ( 'NONE', #732, 4.250000000000337508 ) ;
#177 = CYLINDRICAL_SURFACE ( 'NONE', #589, 3.250000000000338396 ) ;
#178 = AXIS2_PLACEMENT_3D ( 'NONE', #278, #974, #583 ) ;
#179 = ORIENTED_EDGE ( 'NONE', *, *, #993, .T. ) ;
#180 = EDGE_CURVE ( 'NONE', #281, #397, #185, .T. ) ;
#181 = DIRECTION ( 'NONE',  ( 0.000000000000000000, 0.000000000000000000, -1.000000000000000000 ) ) ;
#182 = ORIENTED_EDGE ( 'NONE', *, *, #274, .F. ) ;
#183 = EDGE_CURVE ( 'NONE', #571, #69, #625, .T. ) ;
#184 = ORIENTED_EDGE ( 'NONE', *, *, #257, .T. ) ;
#185 = CIRCLE ( 'NONE', #796, 4.500000000000337508 ) ;
#186 = ORIENTED_EDGE ( 'NONE', *, *, #651, .T. ) ;
#187 = EDGE_CURVE ( 'NONE', #922, #199, #469, .T. ) ;
#188 = ORIENTED_EDGE ( 'NONE', *, *, #698, .T. ) ;
#189 = DIRECTION ( 'NONE',  ( 0.000000000000000000, 0.000000000000000000, 1.000000000000000000 ) ) ;
#190 = DIRECTION ( 'NONE',  ( 0.000000000000000000, 1.000000000000000000, 0.000000000000000000 ) ) ;
#191 = DIRECTION ( 'NONE',  ( 0.000000000000000000, 0.000000000000000000, -1.000000000000000000 ) ) ;
#192 = ORIENTED_EDGE ( 'NONE', *, *, #345, .F. ) ;
#193 = AXIS2_PLACEMENT_3D ( 'NONE', #247, #692, #455 ) ;
#194 = CARTESIAN_POINT ( 'NONE',  ( 0.000000000000000000, 51.49999999999941735, 0.000000000000000000 ) ) ;
#195 = CARTESIAN_POINT ( 'NONE',  ( 0.000000000000000000, 40.91905199999941800, -3.250000000000337952 ) ) ;
#196 = VECTOR ( 'NONE', #22, 1000.000000000000000 ) ;
#197 = VECTOR ( 'NONE', #675, 1000.000000000000000 ) ;
#198 = LINE ( 'NONE', #221, #899 ) ;
#199 = VERTEX_POINT ( 'NONE', #710 ) ;
#200 = CARTESIAN_POINT ( 'NONE',  ( 0.000000000000000000, 33.52886708075509148, -4.149999999998226663 ) ) ;
#201 = ADVANCED_FACE ( 'NONE', ( #16 ), #174, .F. ) ;
#202 = ADVANCED_FACE ( 'NONE', ( #490 ), #755, .T. ) ;
#203 = DIRECTION ( 'NONE',  ( -0.000000000000000000, -1.000000000000000000, -0.000000000000000000 ) ) ;
#204 = DIRECTION ( 'NONE',  ( 8.659570625309520771E-17, 0.7071059594829929296, -0.7071076028891472021 ) ) ;
#205 = APPLICATION_PROTOCOL_DEFINITION ( 'draft international standard', 'automotive_design', 1998, #486 ) ;
#206 = CARTESIAN_POINT ( 'NONE',  ( 0.000000000000000000, -6.499999999999028333, -4.250000000000338396 ) ) ;
#207 = EDGE_CURVE ( 'NONE', #681, #69, #258, .T. ) ;
#208 = EDGE_LOOP ( 'NONE', ( #826, #795, #997, #290 ) ) ;
#209 = DIRECTION ( 'NONE',  ( 0.000000000000000000, 0.000000000000000000, -1.000000000000000000 ) ) ;
#210 = ORIENTED_EDGE ( 'NONE', *, *, #786, .T. ) ;
#211 = FACE_OUTER_BOUND ( 'NONE', #370, .T. ) ;
#212 = DIRECTION ( 'NONE',  ( 0.000000000000000000, 0.000000000000000000, 1.000000000000000000 ) ) ;
#213 = SURFACE_STYLE_FILL_AREA ( #309 ) ;
#214 = CARTESIAN_POINT ( 'NONE',  ( 0.000000000000000000, 41.49999949768560725, 0.000000000000000000 ) ) ;
#215 = ORIENTED_EDGE ( 'NONE', *, *, #183, .F. ) ;
#216 = CYLINDRICAL_SURFACE ( 'NONE', #721, 3.250000000000338396 ) ;
#217 = ORIENTED_EDGE ( 'NONE', *, *, #282, .F. ) ;
#218 = DIRECTION ( 'NONE',  ( 0.000000000000000000, 0.000000000000000000, -1.000000000000000000 ) ) ;
#219 = FACE_OUTER_BOUND ( 'NONE', #61, .T. ) ;
#220 = VECTOR ( 'NONE', #135, 1000.000000000000000 ) ;
#221 = CARTESIAN_POINT ( 'NONE',  ( 4.898587196589827967E-16, 48.49999999999941025, 4.000000000000338396 ) ) ;
#222 = ADVANCED_BREP_SHAPE_REPRESENTATION ( '99688-SI12-M08+S9MT1203-120', ( #411, #969 ), #333 ) ;
#223 = PLANE ( 'NONE',  #506 ) ;
#224 = DIRECTION ( 'NONE',  ( -0.000000000000000000, -1.000000000000000000, -0.000000000000000000 ) ) ;
#225 = APPLICATION_CONTEXT ( 'automotive_design' ) ;
#226 = CARTESIAN_POINT ( 'NONE',  ( 3.838011840034840618E-16, 51.49999999999941735, 2.267949000000338611 ) ) ;
#227 = AXIS2_PLACEMENT_3D ( 'NONE', #655, #891, #591 ) ;
#228 = ORIENTED_EDGE ( 'NONE', *, *, #604, .T. ) ;
#229 = DIRECTION ( 'NONE',  ( 0.000000000000000000, 0.000000000000000000, -1.000000000000000000 ) ) ;
#230 = EDGE_CURVE ( 'NONE', #69, #134, #256, .T. ) ;
#231 = DIRECTION ( 'NONE',  ( 0.000000000000000000, 0.000000000000000000, -1.000000000000000000 ) ) ;
#232 = DIRECTION ( 'NONE',  ( 0.000000000000000000, 0.000000000000000000, -1.000000000000000000 ) ) ;
#233 = ADVANCED_FACE ( 'NONE', ( #108 ), #177, .T. ) ;
#234 = EDGE_CURVE ( 'NONE', #991, #573, #567, .T. ) ;
#235 = CARTESIAN_POINT ( 'NONE',  ( 0.000000000000000000, -6.499999999999028333, 0.000000000000000000 ) ) ;
#236 = AXIS2_PLACEMENT_3D ( 'NONE', #829, #190, #982 ) ;
#237 = CARTESIAN_POINT ( 'NONE',  ( 0.000000000000000000, 51.49999999999971578, 0.000000000000000000 ) ) ;
#238 = DIRECTION ( 'NONE',  ( 0.000000000000000000, -0.000000000000000000, 1.000000000000000000 ) ) ;
#239 = STYLED_ITEM ( 'NONE', ( #528 ), #411 ) ;
#240 = CARTESIAN_POINT ( 'NONE',  ( 0.000000000000000000, -6.499999999999028333, 0.000000000000000000 ) ) ;
#241 = DIRECTION ( 'NONE',  ( -0.000000000000000000, -1.000000000000000000, -0.000000000000000000 ) ) ;
#242 = CARTESIAN_POINT ( 'NONE',  ( 0.000000000000000000, -6.499999999999028333, -8.000000000000339284 ) ) ;
#243 = DIRECTION ( 'NONE',  ( -0.000000000000000000, -1.000000000000000000, -0.000000000000000000 ) ) ;
#244 = AXIS2_PLACEMENT_3D ( 'NONE', #214, #303, #846 ) ;
#245 = ORIENTED_EDGE ( 'NONE', *, *, #651, .F. ) ;
#246 = EDGE_CURVE ( 'NONE', #991, #641, #448, .T. ) ;
#247 = CARTESIAN_POINT ( 'NONE',  ( 0.000000000000000000, 33.37999999999941281, 0.000000000000000000 ) ) ;
#248 = CIRCLE ( 'NONE', #534, 3.950000000000334133 ) ;
#249 = CARTESIAN_POINT ( 'NONE',  ( 0.000000000000000000, 40.24161999999940775, 0.000000000000000000 ) ) ;
#250 = EDGE_CURVE ( 'NONE', #272, #694, #878, .T. ) ;
#251 = VERTEX_POINT ( 'NONE', #285 ) ;
#252 = COLOUR_RGB ( '',0.7921568627450980005, 0.8196078431372548767, 0.9333333333333333481 ) ;
#253 = DIRECTION ( 'NONE',  ( -0.000000000000000000, -1.000000000000000000, -0.000000000000000000 ) ) ;
#254 = ORIENTED_EDGE ( 'NONE', *, *, #541, .F. ) ;
#255 = AXIS2_PLACEMENT_3D ( 'NONE', #359, #973, #441 ) ;
#256 = LINE ( 'NONE', #262, #196 ) ;
#257 = EDGE_CURVE ( 'NONE', #199, #751, #145, .T. ) ;
#258 = CIRCLE ( 'NONE', #78, 3.499999995516569484 ) ;
#259 = ORIENTED_EDGE ( 'NONE', *, *, #917, .F. ) ;
#260 = AXIS2_PLACEMENT_3D ( 'NONE', #837, #586, #592 ) ;
#261 = AXIS2_PLACEMENT_3D ( 'NONE', #136, #757, #6 ) ;
#262 = CARTESIAN_POINT ( 'NONE',  ( 0.000000000000000000, 41.49999949768560725, 3.499999995516569484 ) ) ;
#263 = ORIENTED_EDGE ( 'NONE', *, *, #935, .T. ) ;
#264 = PRODUCT_DEFINITION_SHAPE ( 'NONE', 'NONE',  #565 ) ;
#265 = ADVANCED_FACE ( 'NONE', ( #949 ), #2, .T. ) ;
#266 = CARTESIAN_POINT ( 'NONE',  ( 0.000000000000000000, 38.99999999999941025, 0.000000000000000000 ) ) ;
#267 = EDGE_LOOP ( 'NONE', ( #491, #711, #427, #365 ) ) ;
#268 = VECTOR ( 'NONE', #967, 1000.000000000000000 ) ;
#269 = ORIENTED_EDGE ( 'NONE', *, *, #541, .T. ) ;
#270 = AXIS2_PLACEMENT_3D ( 'NONE', #511, #456, #362 ) ;
#271 = EDGE_CURVE ( 'NONE', #382, #109, #499, .T. ) ;
#272 = VERTEX_POINT ( 'NONE', #662 ) ;
#273 = DIRECTION ( 'NONE',  ( 0.000000000000000000, 0.000000000000000000, -1.000000000000000000 ) ) ;
#274 = EDGE_CURVE ( 'NONE', #870, #134, #124, .T. ) ;
#275 = DIRECTION ( 'NONE',  ( -0.000000000000000000, -1.000000000000000000, -0.000000000000000000 ) ) ;
#276 = ORIENTED_EDGE ( 'NONE', *, *, #117, .T. ) ;
#277 = DIRECTION ( 'NONE',  ( 0.000000000000000000, 0.000000000000000000, -1.000000000000000000 ) ) ;
#278 = CARTESIAN_POINT ( 'NONE',  ( 0.000000000000000000, 33.37999999999941281, 0.000000000000000000 ) ) ;
#279 = CARTESIAN_POINT ( 'NONE',  ( 4.980831153797200022E-16, 34.31715771247403524, 4.067157287525716924 ) ) ;
#280 = FACE_OUTER_BOUND ( 'NONE', #957, .T. ) ;
#281 = VERTEX_POINT ( 'NONE', #130 ) ;
#282 = EDGE_CURVE ( 'NONE', #726, #646, #964, .T. ) ;
#283 = AXIS2_PLACEMENT_3D ( 'NONE', #284, #827, #209 ) ;
#284 = CARTESIAN_POINT ( 'NONE',  ( 0.000000000000000000, 40.24161999999940775, 0.000000000000000000 ) ) ;
#285 = CARTESIAN_POINT ( 'NONE',  ( 5.357829746270083786E-16, 33.35566199999941972, -4.250000000000337508 ) ) ;
#286 = CARTESIAN_POINT ( 'NONE',  ( 5.204748896376665837E-16, 34.49999999999941025, -4.250000000000338396 ) ) ;
#287 =( NAMED_UNIT ( * ) SI_UNIT ( $, .STERADIAN. ) SOLID_ANGLE_UNIT ( ) );
#288 = TOROIDAL_SURFACE ( 'NONE', #860, 4.050000000000337330, 0.7999999999999986011 ) ;
#289 = CARTESIAN_POINT ( 'NONE',  ( 0.000000000000000000, 33.35566199999941972, 0.000000000000000000 ) ) ;
#290 = ORIENTED_EDGE ( 'NONE', *, *, #925, .F. ) ;
#291 = LINE ( 'NONE', #452, #815 ) ;
#292 = VECTOR ( 'NONE', #942, 1000.000000000000114 ) ;
#293 = ORIENTED_EDGE ( 'NONE', *, *, #420, .T. ) ;
#294 = CARTESIAN_POINT ( 'NONE',  ( 0.000000000000000000, 48.49999999999941025, 0.000000000000000000 ) ) ;
#295 = CARTESIAN_POINT ( 'NONE',  ( 0.000000000000000000, 34.03431499999940968, 0.000000000000000000 ) ) ;
#296 = ORIENTED_EDGE ( 'NONE', *, *, #311, .T. ) ;
#297 = CARTESIAN_POINT ( 'NONE',  ( 0.000000000000000000, 33.37999999999941281, 0.000000000000000000 ) ) ;
#298 = VERTEX_POINT ( 'NONE', #823 ) ;
#299 = AXIS2_PLACEMENT_3D ( 'NONE', #381, #817, #437 ) ;
#300 = SURFACE_STYLE_FILL_AREA ( #597 ) ;
#301 = DIRECTION ( 'NONE',  ( -1.000000000000000000, 0.000000000000000000, 0.000000000000000000 ) ) ;
#302 = ORIENTED_EDGE ( 'NONE', *, *, #234, .F. ) ;
#303 = DIRECTION ( 'NONE',  ( 0.000000000000000000, 1.000000000000000000, 0.000000000000000000 ) ) ;
#304 = FACE_OUTER_BOUND ( 'NONE', #48, .T. ) ;
#305 = VERTEX_POINT ( 'NONE', #195 ) ;
#306 = AXIS2_PLACEMENT_3D ( 'NONE', #868, #166, #544 ) ;
#307 = DIRECTION ( 'NONE',  ( -0.000000000000000000, -1.000000000000000000, -0.000000000000000000 ) ) ;
#308 = DIRECTION ( 'NONE',  ( -0.000000000000000000, -1.000000000000000000, -0.000000000000000000 ) ) ;
#309 = FILL_AREA_STYLE ('',( #126 ) ) ;
#310 = CIRCLE ( 'NONE', #731, 4.000000000000338396 ) ;
#311 = EDGE_CURVE ( 'NONE', #646, #726, #535, .T. ) ;
#312 = ORIENTED_EDGE ( 'NONE', *, *, #41, .T. ) ;
#313 = FACE_OUTER_BOUND ( 'NONE', #947, .T. ) ;
#314 = DIRECTION ( 'NONE',  ( 0.000000000000000000, 0.000000000000000000, -1.000000000000000000 ) ) ;
#315 = CARTESIAN_POINT ( 'NONE',  ( 0.000000000000000000, 51.49999999999941735, 0.000000000000000000 ) ) ;
#316 = CONICAL_SURFACE ( 'NONE', #30, 4.500000000000337508, 1.047196253089808682 ) ;
#317 = DIRECTION ( 'NONE',  ( -0.000000000000000000, -1.000000000000000000, -0.000000000000000000 ) ) ;
#318 = CARTESIAN_POINT ( 'NONE',  ( 0.000000000000000000, 33.52886799999941303, 0.000000000000000000 ) ) ;
#319 = LINE ( 'NONE', #91, #819 ) ;
#320 = EDGE_LOOP ( 'NONE', ( #263, #497, #147, #55 ) ) ;
#321 = LINE ( 'NONE', #785, #115 ) ;
#322 = CONICAL_SURFACE ( 'NONE', #236, 4.500000000000337508, 1.047196253089808682 ) ;
#323 = CARTESIAN_POINT ( 'NONE',  ( 0.000000000000000000, 34.03431499999940968, -4.350000000000336264 ) ) ;
#324 = DIRECTION ( 'NONE',  ( 0.000000000000000000, 0.000000000000000000, -1.000000000000000000 ) ) ;
#325 = ADVANCED_FACE ( 'NONE', ( #488 ), #46, .T. ) ;
#326 = ORIENTED_EDGE ( 'NONE', *, *, #173, .F. ) ;
#327 = AXIS2_PLACEMENT_3D ( 'NONE', #906, #821, #833 ) ;
#328 = DIRECTION ( 'NONE',  ( -0.000000000000000000, -1.000000000000000000, -0.000000000000000000 ) ) ;
#329 = AXIS2_PLACEMENT_3D ( 'NONE', #880, #342, #954 ) ;
#330 = DIRECTION ( 'NONE',  ( 0.000000000000000000, 0.000000000000000000, -1.000000000000000000 ) ) ;
#331 = EDGE_LOOP ( 'NONE', ( #451, #269, #33, #959 ) ) ;
#332 = ORIENTED_EDGE ( 'NONE', *, *, #117, .F. ) ;
#333 =( GEOMETRIC_REPRESENTATION_CONTEXT ( 3 ) GLOBAL_UNCERTAINTY_ASSIGNED_CONTEXT ( ( #87 ) ) GLOBAL_UNIT_ASSIGNED_CONTEXT ( ( #584, #47, #139 ) ) REPRESENTATION_CONTEXT ( 'NONE', 'WORKASPACE' ) );
#334 = DIRECTION ( 'NONE',  ( -0.000000000000000000, -1.000000000000000000, -0.000000000000000000 ) ) ;
#335 = VERTEX_POINT ( 'NONE', #103 ) ;
#336 = CIRCLE ( 'NONE', #916, 0.2000000000000040079 ) ;
#337 = DIRECTION ( 'NONE',  ( -0.000000000000000000, -1.000000000000000000, -0.000000000000000000 ) ) ;
#338 = CIRCLE ( 'NONE', #931, 3.499999995516569484 ) ;
#339 = CIRCLE ( 'NONE', #709, 3.250000000000338396 ) ;
#340 = ORIENTED_EDGE ( 'NONE', *, *, #468, .F. ) ;
#341 = CONICAL_SURFACE ( 'NONE', #805, 3.499999995516569484, 0.7853976655676673246 ) ;
#342 = DIRECTION ( 'NONE',  ( -0.000000000000000000, -1.000000000000000000, -0.000000000000000000 ) ) ;
#343 = ORIENTED_EDGE ( 'NONE', *, *, #438, .T. ) ;
#344 = ORIENTED_EDGE ( 'NONE', *, *, #420, .F. ) ;
#345 = EDGE_CURVE ( 'NONE', #305, #681, #100, .T. ) ;
#346 = CIRCLE ( 'NONE', #75, 4.000000000000338396 ) ;
#347 = EDGE_LOOP ( 'NONE', ( #37, #358, #186, #217 ) ) ;
#348 = AXIS2_PLACEMENT_3D ( 'NONE', #357, #984, #918 ) ;
#349 = ADVANCED_FACE ( 'NONE', ( #874 ), #39, .F. ) ;
#350 = AXIS2_PLACEMENT_3D ( 'NONE', #318, #84, #787 ) ;
#351 = ORIENTED_EDGE ( 'NONE', *, *, #230, .T. ) ;
#352 = VECTOR ( 'NONE', #430, 1000.000000000000000 ) ;
#353 = CARTESIAN_POINT ( 'NONE',  ( 8.572527594031886356E-16, 5.643428999999411388, -6.000000000000338396 ) ) ;
#354 = CARTESIAN_POINT ( 'NONE',  ( 0.000000000000000000, 48.49999999999941025, -4.000000000000338396 ) ) ;
#355 = CARTESIAN_POINT ( 'NONE',  ( 0.000000000000000000, -6.499999999999028333, 0.000000000000000000 ) ) ;
#356 = EDGE_CURVE ( 'NONE', #858, #574, #248, .T. ) ;
#357 = CARTESIAN_POINT ( 'NONE',  ( 0.000000000000000000, -6.499999999999028333, 0.000000000000000000 ) ) ;
#358 = ORIENTED_EDGE ( 'NONE', *, *, #640, .T. ) ;
#359 = CARTESIAN_POINT ( 'NONE',  ( 0.000000000000000000, 34.03431499999940968, 0.000000000000000000 ) ) ;
#360 = CARTESIAN_POINT ( 'NONE',  ( 0.000000000000000000, -6.499999999999028333, 0.000000000000000000 ) ) ;
#361 = CYLINDRICAL_SURFACE ( 'NONE', #19, 8.000000000000339284 ) ;
#362 = DIRECTION ( 'NONE',  ( 0.000000000000000000, 0.000000000000000000, 1.000000000000000000 ) ) ;
#363 = ORIENTED_EDGE ( 'NONE', *, *, #925, .T. ) ;
#364 = DIRECTION ( 'NONE',  ( 0.000000000000000000, 0.000000000000000000, 1.000000000000000000 ) ) ;
#365 = ORIENTED_EDGE ( 'NONE', *, *, #18, .F. ) ;
#366 = CARTESIAN_POINT ( 'NONE',  ( 0.000000000000000000, 40.24161999999940775, 0.000000000000000000 ) ) ;
#367 = DIRECTION ( 'NONE',  ( -0.000000000000000000, -1.000000000000000000, -0.000000000000000000 ) ) ;
#368 = TOROIDAL_SURFACE ( 'NONE', #953, 4.350000000000336264, 0.4000000000000003553 ) ;
#369 = DIRECTION ( 'NONE',  ( 0.000000000000000000, -0.7071068872768644376, -0.7071066750962147207 ) ) ;
#370 = EDGE_LOOP ( 'NONE', ( #101, #548, #182, #867 ) ) ;
#371 = FACE_OUTER_BOUND ( 'NONE', #955, .T. ) ;
#372 = CARTESIAN_POINT ( 'NONE',  ( 0.000000000000000000, 5.643428999999411388, 0.000000000000000000 ) ) ;
#373 = FILL_AREA_STYLE_COLOUR ( '', #106 ) ;
#374 = FACE_OUTER_BOUND ( 'NONE', #615, .T. ) ;
#375 = CARTESIAN_POINT ( 'NONE',  ( 0.000000000000000000, 38.99999999999941025, 0.000000000000000000 ) ) ;
#376 = CYLINDRICAL_SURFACE ( 'NONE', #327, 8.000000000000339284 ) ;
#377 = EDGE_LOOP ( 'NONE', ( #924, #462, #877, #873 ) ) ;
#378 = PRESENTATION_LAYER_ASSIGNMENT (  '', '', ( #810 ) ) ;
#379 = ADVANCED_FACE ( 'NONE', ( #767 ), #943, .T. ) ;
#380 = DIRECTION ( 'NONE',  ( 0.000000000000000000, 0.000000000000000000, -1.000000000000000000 ) ) ;
#381 = CARTESIAN_POINT ( 'NONE',  ( 0.000000000000000000, 48.49999999999941025, 0.000000000000000000 ) ) ;
#382 = VERTEX_POINT ( 'NONE', #989 ) ;
#383 = CARTESIAN_POINT ( 'NONE',  ( 4.286263791525117769E-16, 41.49999949768560725, -3.499999995516569484 ) ) ;
#384 = CARTESIAN_POINT ( 'NONE',  ( 0.000000000000000000, 39.50000015214308746, 0.000000000000000000 ) ) ;
#385 = DIRECTION ( 'NONE',  ( -0.000000000000000000, -1.000000000000000000, -0.000000000000000000 ) ) ;
#386 = CARTESIAN_POINT ( 'NONE',  ( 0.000000000000000000, 33.52886708075509148, 0.000000000000000000 ) ) ;
#387 = CONICAL_SURFACE ( 'NONE', #244, 3.499999995516569484, 0.7853976655676673246 ) ;
#388 = EDGE_LOOP ( 'NONE', ( #962, #1001, #312, #141 ) ) ;
#389 = FACE_OUTER_BOUND ( 'NONE', #883, .T. ) ;
#390 = CARTESIAN_POINT ( 'NONE',  ( 0.000000000000000000, -6.499999999999028333, 0.000000000000000000 ) ) ;
#391 = ORIENTED_EDGE ( 'NONE', *, *, #311, .F. ) ;
#392 = FACE_OUTER_BOUND ( 'NONE', #24, .T. ) ;
#393 = ADVANCED_FACE ( 'NONE', ( #211 ), #679, .T. ) ;
#394 = EDGE_CURVE ( 'NONE', #771, #809, #845, .T. ) ;
#395 = DIRECTION ( 'NONE',  ( -0.000000000000000000, -1.000000000000000000, -0.000000000000000000 ) ) ;
#396 = DIRECTION ( 'NONE',  ( 0.000000000000000000, 0.000000000000000000, -1.000000000000000000 ) ) ;
#397 = VERTEX_POINT ( 'NONE', #138 ) ;
#398 = FACE_OUTER_BOUND ( 'NONE', #910, .T. ) ;
#399 = CYLINDRICAL_SURFACE ( 'NONE', #52, 6.000000000000338396 ) ;
#400 = FACE_OUTER_BOUND ( 'NONE', #331, .T. ) ;
#401 = ORIENTED_EDGE ( 'NONE', *, *, #859, .F. ) ;
#402 = CONICAL_SURFACE ( 'NONE', #960, 6.000000000000338396, 0.4124839195095327815 ) ;
#403 = DIRECTION ( 'NONE',  ( 0.000000000000000000, 0.000000000000000000, -1.000000000000000000 ) ) ;
#404 = AXIS2_PLACEMENT_3D ( 'NONE', #295, #599, #893 ) ;
#405 = EDGE_LOOP ( 'NONE', ( #653, #607, #474, #363 ) ) ;
#406 = AXIS2_PLACEMENT_3D ( 'NONE', #722, #337, #956 ) ;
#407 = CARTESIAN_POINT ( 'NONE',  ( 4.286263791525117276E-16, 41.49999949768560725, 3.499999995516569484 ) ) ;
#408 = EDGE_LOOP ( 'NONE', ( #150, #834, #632, #44 ) ) ;
#409 = EDGE_CURVE ( 'NONE', #199, #694, #449, .T. ) ;
#410 = CONICAL_SURFACE ( 'NONE', #299, 4.000000000000338396, 0.5235988237060776873 ) ;
#411 = MANIFOLD_SOLID_BREP ( '±ÛÂà1', #876 ) ;
#412 = CARTESIAN_POINT ( 'NONE',  ( 0.000000000000000000, 34.31715771247403524, 0.000000000000000000 ) ) ;
#413 = ORIENTED_EDGE ( 'NONE', *, *, #808, .F. ) ;
#414 = VECTOR ( 'NONE', #498, 1000.000000000000000 ) ;
#415 = PRODUCT ( '99688-SI12-M08+S9MT1203-120', '99688-SI12-M08+S9MT1203-120', '', ( #664 ) ) ;
#416 = DIRECTION ( 'NONE',  ( 0.000000000000000000, 0.7071059594829929296, 0.7071076028891472021 ) ) ;
#417 = VERTEX_POINT ( 'NONE', #54 ) ;
#418 = VECTOR ( 'NONE', #444, 1000.000000000000114 ) ;
#419 = CIRCLE ( 'NONE', #555, 0.4000000000000001887 ) ;
#420 = EDGE_CURVE ( 'NONE', #69, #681, #338, .T. ) ;
#421 = ORIENTED_EDGE ( 'NONE', *, *, #271, .F. ) ;
#422 = EDGE_CURVE ( 'NONE', #977, #573, #746, .T. ) ;
#423 = VECTOR ( 'NONE', #971, 1000.000000000000000 ) ;
#424 = ORIENTED_EDGE ( 'NONE', *, *, #484, .T. ) ;
#425 = ADVANCED_FACE ( 'NONE', ( #666 ), #532, .T. ) ;
#426 = AXIS2_PLACEMENT_3D ( 'NONE', #73, #328, #923 ) ;
#427 = ORIENTED_EDGE ( 'NONE', *, *, #53, .F. ) ;
#428 = CARTESIAN_POINT ( 'NONE',  ( 0.000000000000000000, 33.49999999999941025, -7.880000000000338289 ) ) ;
#429 = AXIS2_PLACEMENT_3D ( 'NONE', #869, #169, #479 ) ;
#430 = DIRECTION ( 'NONE',  ( 0.000000000000000000, -0.8660253797305482726, -0.5000000416625579591 ) ) ;
#431 = AXIS2_PLACEMENT_3D ( 'NONE', #172, #99, #158 ) ;
#432 = DIRECTION ( 'NONE',  ( -0.000000000000000000, -1.000000000000000000, -0.000000000000000000 ) ) ;
#433 = ORIENTED_EDGE ( 'NONE', *, *, #952, .F. ) ;
#434 = AXIS2_PLACEMENT_3D ( 'NONE', #507, #902, #743 ) ;
#435 = DIRECTION ( 'NONE',  ( 0.000000000000000000, 0.000000000000000000, -1.000000000000000000 ) ) ;
#436 = DIRECTION ( 'NONE',  ( 0.000000000000000000, 0.000000000000000000, -1.000000000000000000 ) ) ;
#437 = DIRECTION ( 'NONE',  ( 0.000000000000000000, 0.000000000000000000, -1.000000000000000000 ) ) ;
#438 = EDGE_CURVE ( 'NONE', #851, #764, #198, .T. ) ;
#439 = DIRECTION ( 'NONE',  ( 0.000000000000000000, 0.000000000000000000, -1.000000000000000000 ) ) ;
#440 = ORIENTED_EDGE ( 'NONE', *, *, #640, .F. ) ;
#441 = DIRECTION ( 'NONE',  ( 0.000000000000000000, 0.000000000000000000, -1.000000000000000000 ) ) ;
#442 =( LENGTH_UNIT ( ) NAMED_UNIT ( * ) SI_UNIT ( .MILLI., .METRE. ) );
#443 = DIRECTION ( 'NONE',  ( -0.000000000000000000, -1.000000000000000000, -0.000000000000000000 ) ) ;
#444 = DIRECTION ( 'NONE',  ( 0.000000000000000000, 0.5000011241930348849, 0.8660247547303143723 ) ) ;
#445 = ORIENTED_EDGE ( 'NONE', *, *, #493, .F. ) ;
#446 = DIRECTION ( 'NONE',  ( -0.000000000000000000, -1.000000000000000000, -0.000000000000000000 ) ) ;
#447 = ORIENTED_EDGE ( 'NONE', *, *, #183, .T. ) ;
#448 = CIRCLE ( 'NONE', #406, 4.067157287525716924 ) ;
#449 = LINE ( 'NONE', #454, #545 ) ;
#450 = DIRECTION ( 'NONE',  ( 1.000000000000000000, 0.000000000000000000, -1.224646799147353207E-16 ) ) ;
#451 = ORIENTED_EDGE ( 'NONE', *, *, #207, .F. ) ;
#452 = CARTESIAN_POINT ( 'NONE',  ( 0.000000000000000000, -6.499999999999028333, -3.250000000000338396 ) ) ;
#453 = ORIENTED_EDGE ( 'NONE', *, *, #596, .T. ) ;
#454 = CARTESIAN_POINT ( 'NONE',  ( 5.204748896376665837E-16, 38.99999999999941025, 4.250000000000338396 ) ) ;
#455 = DIRECTION ( 'NONE',  ( 0.000000000000000000, 0.000000000000000000, -1.000000000000000000 ) ) ;
#456 = DIRECTION ( 'NONE',  ( 0.000000000000000000, 1.000000000000000000, 0.000000000000000000 ) ) ;
#457 = FACE_OUTER_BOUND ( 'NONE', #951, .T. ) ;
#458 = ADVANCED_FACE ( 'NONE', ( #659 ), #840, .T. ) ;
#459 = CYLINDRICAL_SURFACE ( 'NONE', #760, 4.250000000000338396 ) ;
#460 = AXIS2_PLACEMENT_3D ( 'NONE', #892, #768, #965 ) ;
#461 = CARTESIAN_POINT ( 'NONE',  ( 4.898587196589827967E-16, -6.499999999999028333, 4.000000000000338396 ) ) ;
#462 = ORIENTED_EDGE ( 'NONE', *, *, #246, .F. ) ;
#463 = DIRECTION ( 'NONE',  ( 0.000000000000000000, -0.000000000000000000, 1.000000000000000000 ) ) ;
#464 = DIRECTION ( 'NONE',  ( 0.000000000000000000, 0.000000000000000000, -1.000000000000000000 ) ) ;
#465 = LINE ( 'NONE', #154, #981 ) ;
#466 = AXIS2_PLACEMENT_3D ( 'NONE', #200, #56, #364 ) ;
#467 = DIRECTION ( 'NONE',  ( 0.000000000000000000, 1.000000000000000000, 0.000000000000000000 ) ) ;
#468 = EDGE_CURVE ( 'NONE', #809, #820, #825, .T. ) ;
#469 = CIRCLE ( 'NONE', #919, 3.749999997891058090 ) ;
#470 = CIRCLE ( 'NONE', #260, 3.950000000000335909 ) ;
#471 = CARTESIAN_POINT ( 'NONE',  ( 9.723695585230399273E-16, 33.49999999999941025, 7.880000000000338289 ) ) ;
#472 = DIRECTION ( 'NONE',  ( 0.000000000000000000, 0.000000000000000000, -1.000000000000000000 ) ) ;
#473 = UNCERTAINTY_MEASURE_WITH_UNIT (LENGTH_MEASURE( 1.000000000000000082E-05 ), #442, 'distance_accuracy_value', 'NONE');
#474 = ORIENTED_EDGE ( 'NONE', *, *, #917, .T. ) ;
#475 = CARTESIAN_POINT ( 'NONE',  ( 0.000000000000000000, 48.49999999999941025, 0.000000000000000000 ) ) ;
#476 = DIRECTION ( 'NONE',  ( -0.000000000000000000, -1.000000000000000000, -0.000000000000000000 ) ) ;
#477 = ORIENTED_EDGE ( 'NONE', *, *, #509, .T. ) ;
#478 = DIRECTION ( 'NONE',  ( -0.000000000000000000, -1.000000000000000000, -0.000000000000000000 ) ) ;
#479 = DIRECTION ( 'NONE',  ( -1.224646799147353454E-16, 0.000000000000000000, -1.000000000000000000 ) ) ;
#480 = ORIENTED_EDGE ( 'NONE', *, *, #246, .T. ) ;
#481 = CIRCLE ( 'NONE', #306, 4.250000000000338396 ) ;
#482 = LINE ( 'NONE', #152, #83 ) ;
#483 = AXIS2_PLACEMENT_3D ( 'NONE', #375, #275, #502 ) ;
#484 = EDGE_CURVE ( 'NONE', #251, #50, #176, .T. ) ;
#485 = ORIENTED_EDGE ( 'NONE', *, *, #438, .F. ) ;
#486 = APPLICATION_CONTEXT ( 'automotive_design' ) ;
#487 = AXIS2_PLACEMENT_3D ( 'NONE', #715, #634, #563 ) ;
#488 = FACE_OUTER_BOUND ( 'NONE', #66, .T. ) ;
#489 = EDGE_LOOP ( 'NONE', ( #683, #716, #900, #503 ) ) ;
#490 = FACE_OUTER_BOUND ( 'NONE', #936, .T. ) ;
#491 = ORIENTED_EDGE ( 'NONE', *, *, #493, .T. ) ;
#492 = ADVANCED_FACE ( 'NONE', ( #280 ), #387, .T. ) ;
#493 = EDGE_CURVE ( 'NONE', #838, #417, #470, .T. ) ;
#494 = ORIENTED_EDGE ( 'NONE', *, *, #629, .F. ) ;
#495 = CONICAL_SURFACE ( 'NONE', #782, 6.000000000000338396, 0.4124839195095327815 ) ;
#496 = ORIENTED_EDGE ( 'NONE', *, *, #180, .F. ) ;
#497 = ORIENTED_EDGE ( 'NONE', *, *, #862, .T. ) ;
#498 = DIRECTION ( 'NONE',  ( -0.000000000000000000, -1.000000000000000000, -0.000000000000000000 ) ) ;
#499 = LINE ( 'NONE', #354, #352 ) ;
#500 = DIRECTION ( 'NONE',  ( 0.000000000000000000, 0.000000000000000000, -1.000000000000000000 ) ) ;
#501 = CONICAL_SURFACE ( 'NONE', #193, 8.000000000000339284, 0.7853981633974410625 ) ;
#502 = DIRECTION ( 'NONE',  ( 0.000000000000000000, 0.000000000000000000, -1.000000000000000000 ) ) ;
#503 = ORIENTED_EDGE ( 'NONE', *, *, #53, .T. ) ;
#504 = DIRECTION ( 'NONE',  ( -0.000000000000000000, -1.000000000000000000, -0.000000000000000000 ) ) ;
#505 = EDGE_CURVE ( 'NONE', #272, #977, #904, .T. ) ;
#506 = AXIS2_PLACEMENT_3D ( 'NONE', #788, #533, #238 ) ;
#507 = CARTESIAN_POINT ( 'NONE',  ( 0.000000000000000000, 33.37999999999941281, 0.000000000000000000 ) ) ;
#508 = CARTESIAN_POINT ( 'NONE',  ( 0.000000000000000000, 48.49999999999941025, 0.000000000000000000 ) ) ;
#509 = EDGE_CURVE ( 'NONE', #50, #397, #831, .T. ) ;
#510 = CIRCLE ( 'NONE', #98, 2.267949000000338611 ) ;
#511 = CARTESIAN_POINT ( 'NONE',  ( 0.000000000000000000, 993.5000000000009095, 0.000000000000000000 ) ) ;
#512 = ORIENTED_EDGE ( 'NONE', *, *, #505, .F. ) ;
#513 = DIRECTION ( 'NONE',  ( 0.000000000000000000, 0.000000000000000000, -1.000000000000000000 ) ) ;
#514 = CARTESIAN_POINT ( 'NONE',  ( 0.000000000000000000, 34.31715771247403524, 4.067157287525716924 ) ) ;
#515 =( NAMED_UNIT ( * ) PLANE_ANGLE_UNIT ( ) SI_UNIT ( $, .RADIAN. ) );
#516 = DIRECTION ( 'NONE',  ( 6.123234505955948679E-17, -0.8660253797305482726, 0.5000000416625579591 ) ) ;
#517 = ORIENTED_EDGE ( 'NONE', *, *, #32, .F. ) ;
#518 = LINE ( 'NONE', #142, #268 ) ;
#519 = ORIENTED_EDGE ( 'NONE', *, *, #356, .F. ) ;
#520 = DIRECTION ( 'NONE',  ( -0.000000000000000000, -1.000000000000000000, -0.000000000000000000 ) ) ;
#521 = LINE ( 'NONE', #753, #658 ) ;
#522 = EDGE_CURVE ( 'NONE', #922, #272, #754, .T. ) ;
#523 = CARTESIAN_POINT ( 'NONE',  ( 0.000000000000000000, 34.49999999999941025, 0.000000000000000000 ) ) ;
#524 = CIRCLE ( 'NONE', #609, 4.250000000000337508 ) ;
#525 = DIRECTION ( 'NONE',  ( 0.000000000000000000, 1.000000000000000000, 0.000000000000000000 ) ) ;
#526 = ORIENTED_EDGE ( 'NONE', *, *, #693, .T. ) ;
#527 = EDGE_CURVE ( 'NONE', #417, #838, #779, .T. ) ;
#528 = PRESENTATION_STYLE_ASSIGNMENT (( #752 ) ) ;
#529 = CIRCLE ( 'NONE', #97, 6.000000000000338396 ) ;
#530 = CARTESIAN_POINT ( 'NONE',  ( 7.347880794884531916E-16, -3.035898384861078103, -6.000000000000337508 ) ) ;
#531 = EDGE_CURVE ( 'NONE', #92, #726, #909, .T. ) ;
#532 = CYLINDRICAL_SURFACE ( 'NONE', #348, 3.950000000000335021 ) ;
#533 = DIRECTION ( 'NONE',  ( 0.000000000000000000, 1.000000000000000000, 0.000000000000000000 ) ) ;
#534 = AXIS2_PLACEMENT_3D ( 'NONE', #672, #67, #980 ) ;
#535 = CIRCLE ( 'NONE', #434, 8.000000000000339284 ) ;
#536 = DIRECTION ( 'NONE',  ( 0.000000000000000000, 0.000000000000000000, 1.000000000000000000 ) ) ;
#537 = CARTESIAN_POINT ( 'NONE',  ( 0.000000000000000000, -6.499999999999028333, 0.000000000000000000 ) ) ;
#538 = ORIENTED_EDGE ( 'NONE', *, *, #187, .T. ) ;
#539 = CARTESIAN_POINT ( 'NONE',  ( 0.000000000000000000, 48.49999999999941025, -4.000000000000338396 ) ) ;
#540 = CARTESIAN_POINT ( 'NONE',  ( 0.000000000000000000, 33.49999999999941025, 0.000000000000000000 ) ) ;
#541 = EDGE_CURVE ( 'NONE', #681, #870, #70, .T. ) ;
#542 = DIRECTION ( 'NONE',  ( 0.000000000000000000, 0.000000000000000000, -1.000000000000000000 ) ) ;
#543 = VECTOR ( 'NONE', #759, 1000.000000000000000 ) ;
#544 = DIRECTION ( 'NONE',  ( 0.000000000000000000, 0.000000000000000000, -1.000000000000000000 ) ) ;
#545 = VECTOR ( 'NONE', #603, 1000.000000000000000 ) ;
#546 = DIRECTION ( 'NONE',  ( 0.000000000000000000, 0.000000000000000000, 1.000000000000000000 ) ) ;
#547 = CARTESIAN_POINT ( 'NONE',  ( 0.000000000000000000, 41.49999949768560725, 0.000000000000000000 ) ) ;
#548 = ORIENTED_EDGE ( 'NONE', *, *, #866, .T. ) ;
#549 = CARTESIAN_POINT ( 'NONE',  ( 0.000000000000000000, 33.35566199999941972, 0.000000000000000000 ) ) ;
#550 = EDGE_CURVE ( 'NONE', #417, #991, #1000, .T. ) ;
#551 = VECTOR ( 'NONE', #369, 1000.000000000000000 ) ;
#552 = FACE_OUTER_BOUND ( 'NONE', #388, .T. ) ;
#553 = CARTESIAN_POINT ( 'NONE',  ( 3.980102097229311890E-16, 40.91905199999941800, 3.250000000000337952 ) ) ;
#554 = EDGE_LOOP ( 'NONE', ( #122, #635, #966, #799 ) ) ;
#555 = AXIS2_PLACEMENT_3D ( 'NONE', #323, #775, #701 ) ;
#556 = DIRECTION ( 'NONE',  ( -0.000000000000000000, -1.000000000000000000, -0.000000000000000000 ) ) ;
#557 = DIRECTION ( 'NONE',  ( 0.000000000000000000, 0.000000000000000000, -1.000000000000000000 ) ) ;
#558 = ORIENTED_EDGE ( 'NONE', *, *, #993, .F. ) ;
#559 = ADVANCED_FACE ( 'NONE', ( #62 ), #921, .T. ) ;
#560 = CARTESIAN_POINT ( 'NONE',  ( 0.000000000000000000, 33.49999999999941025, 0.000000000000000000 ) ) ;
#561 = ORIENTED_EDGE ( 'NONE', *, *, #633, .F. ) ;
#562 = CONICAL_SURFACE ( 'NONE', #137, 8.000000000000339284, 0.7853981633974410625 ) ;
#563 = DIRECTION ( 'NONE',  ( 0.000000000000000000, 0.000000000000000000, 1.000000000000000000 ) ) ;
#564 = CIRCLE ( 'NONE', #590, 6.000000000000338396 ) ;
#565 = PRODUCT_DEFINITION ( 'UNKNOWN', '', #852, #968 ) ;
#566 = ORIENTED_EDGE ( 'NONE', *, *, #102, .T. ) ;
#567 = LINE ( 'NONE', #514, #25 ) ;
#568 = ORIENTED_EDGE ( 'NONE', *, *, #706, .F. ) ;
#569 = EDGE_CURVE ( 'NONE', #771, #335, #319, .T. ) ;
#570 = ADVANCED_FACE ( 'NONE', ( #400 ), #341, .T. ) ;
#571 = VERTEX_POINT ( 'NONE', #553 ) ;
#572 = TOROIDAL_SURFACE ( 'NONE', #283, 4.050000000000337330, 0.7999999999999986011 ) ;
#573 = VERTEX_POINT ( 'NONE', #14 ) ;
#574 = VERTEX_POINT ( 'NONE', #777 ) ;
#575 = DIRECTION ( 'NONE',  ( -0.000000000000000000, -1.000000000000000000, -0.000000000000000000 ) ) ;
#576 = CARTESIAN_POINT ( 'NONE',  ( 4.837354856632455265E-16, -6.499999999999028333, 3.950000000000335021 ) ) ;
#577 = CIRCLE ( 'NONE', #789, 8.000000000000339284 ) ;
#578 = ADVANCED_FACE ( 'NONE', ( #5 ), #368, .F. ) ;
#579 = DIRECTION ( 'NONE',  ( -0.000000000000000000, -1.000000000000000000, -0.000000000000000000 ) ) ;
#580 = ORIENTED_EDGE ( 'NONE', *, *, #531, .T. ) ;
#581 = FACE_OUTER_BOUND ( 'NONE', #600, .T. ) ;
#582 = ADVANCED_FACE ( 'NONE', ( #153, #71 ), #223, .T. ) ;
#583 = DIRECTION ( 'NONE',  ( 0.000000000000000000, 0.000000000000000000, -1.000000000000000000 ) ) ;
#584 =( LENGTH_UNIT ( ) NAMED_UNIT ( * ) SI_UNIT ( .MILLI., .METRE. ) );
#585 = AXIS2_PLACEMENT_3D ( 'NONE', #861, #467, #780 ) ;
#586 = DIRECTION ( 'NONE',  ( -0.000000000000000000, -1.000000000000000000, -0.000000000000000000 ) ) ;
#587 = ORIENTED_EDGE ( 'NONE', *, *, #257, .F. ) ;
#588 = DIRECTION ( 'NONE',  ( -1.224646799147355919E-16, 0.000000000000000000, -1.000000000000000000 ) ) ;
#589 = AXIS2_PLACEMENT_3D ( 'NONE', #27, #575, #719 ) ;
#590 = AXIS2_PLACEMENT_3D ( 'NONE', #999, #243, #848 ) ;
#591 = DIRECTION ( 'NONE',  ( -1.224646799147353454E-16, 0.000000000000000000, -1.000000000000000000 ) ) ;
#592 = DIRECTION ( 'NONE',  ( 0.000000000000000000, 0.000000000000000000, -1.000000000000000000 ) ) ;
#593 = VERTEX_POINT ( 'NONE', #9 ) ;
#594 = CARTESIAN_POINT ( 'NONE',  ( 5.082284216459343817E-16, 33.52886708075509148, 4.149999999998226663 ) ) ;
#595 = EDGE_LOOP ( 'NONE', ( #708, #440 ) ) ;
#596 = EDGE_CURVE ( 'NONE', #809, #771, #564, .T. ) ;
#597 = FILL_AREA_STYLE ('',( #373 ) ) ;
#598 = AXIS2_PLACEMENT_3D ( 'NONE', #119, #301, #212 ) ;
#599 = DIRECTION ( 'NONE',  ( -0.000000000000000000, -1.000000000000000000, -0.000000000000000000 ) ) ;
#600 = EDGE_LOOP ( 'NONE', ( #979, #894, #188, #907 ) ) ;
#601 = DIRECTION ( 'NONE',  ( 0.000000000000000000, 0.000000000000000000, 1.000000000000000000 ) ) ;
#602 = ORIENTED_EDGE ( 'NONE', *, *, #729, .T. ) ;
#603 = DIRECTION ( 'NONE',  ( 8.659559263123068156E-17, -0.7071068872768644376, 0.7071066750962147207 ) ) ;
#604 = EDGE_CURVE ( 'NONE', #298, #751, #26, .T. ) ;
#605 = DIRECTION ( 'NONE',  ( 0.000000000000000000, 0.000000000000000000, -1.000000000000000000 ) ) ;
#606 = DIRECTION ( 'NONE',  ( 1.000000000000000000, 0.000000000000000000, 0.000000000000000000 ) ) ;
#607 = ORIENTED_EDGE ( 'NONE', *, *, #596, .F. ) ;
#608 = DIRECTION ( 'NONE',  ( 8.659556251366721465E-17, 0.7071071332052739633, -0.7071064291676458780 ) ) ;
#609 = AXIS2_PLACEMENT_3D ( 'NONE', #549, #556, #855 ) ;
#610 = FACE_OUTER_BOUND ( 'NONE', #849, .T. ) ;
#611 = LINE ( 'NONE', #72, #1 ) ;
#612 = VECTOR ( 'NONE', #863, 1000.000000000000000 ) ;
#613 = AXIS2_PLACEMENT_3D ( 'NONE', #523, #688, #121 ) ;
#614 = CARTESIAN_POINT ( 'NONE',  ( 0.000000000000000000, 34.03431499999940968, -3.950000000000335909 ) ) ;
#615 = EDGE_LOOP ( 'NONE', ( #210, #566, #111, #806 ) ) ;
#616 = PLANE ( 'NONE',  #725 ) ;
#617 = DIRECTION ( 'NONE',  ( -0.000000000000000000, -1.000000000000000000, -0.000000000000000000 ) ) ;
#618 = FACE_OUTER_BOUND ( 'NONE', #944, .T. ) ;
#619 = CARTESIAN_POINT ( 'NONE',  ( 0.000000000000000000, 34.31715771247403524, -4.067157287525716924 ) ) ;
#620 = EDGE_LOOP ( 'NONE', ( #63, #580, #391, #245 ) ) ;
#621 = DIRECTION ( 'NONE',  ( 0.000000000000000000, 0.000000000000000000, -1.000000000000000000 ) ) ;
#622 = DIRECTION ( 'NONE',  ( 0.000000000000000000, 0.000000000000000000, -1.000000000000000000 ) ) ;
#623 = CARTESIAN_POINT ( 'NONE',  ( 0.000000000000000000, 33.37999999999941281, -8.000000000000339284 ) ) ;
#624 = ORIENTED_EDGE ( 'NONE', *, *, #18, .T. ) ;
#625 = CIRCLE ( 'NONE', #429, 0.7999999999999986011 ) ;
#626 = FACE_OUTER_BOUND ( 'NONE', #347, .T. ) ;
#627 = CARTESIAN_POINT ( 'NONE',  ( 0.000000000000000000, 33.49999999999941025, 0.000000000000000000 ) ) ;
#628 = ORIENTED_EDGE ( 'NONE', *, *, #60, .T. ) ;
#629 = EDGE_CURVE ( 'NONE', #199, #922, #671, .T. ) ;
#630 = DIRECTION ( 'NONE',  ( -0.000000000000000000, -1.000000000000000000, -0.000000000000000000 ) ) ;
#631 = ADVANCED_FACE ( 'NONE', ( #457 ), #288, .F. ) ;
#632 = ORIENTED_EDGE ( 'NONE', *, *, #522, .T. ) ;
#633 = EDGE_CURVE ( 'NONE', #593, #820, #865, .T. ) ;
#634 = DIRECTION ( 'NONE',  ( -1.000000000000000000, 0.000000000000000000, 0.000000000000000000 ) ) ;
#635 = ORIENTED_EDGE ( 'NONE', *, *, #793, .T. ) ;
#636 = AXIS2_PLACEMENT_3D ( 'NONE', #700, #703, #621 ) ;
#637 =( GEOMETRIC_REPRESENTATION_CONTEXT ( 3 ) GLOBAL_UNCERTAINTY_ASSIGNED_CONTEXT ( ( #473 ) ) GLOBAL_UNIT_ASSIGNED_CONTEXT ( ( #442, #748, #740 ) ) REPRESENTATION_CONTEXT ( 'NONE', 'WORKASPACE' ) );
#638 = DIRECTION ( 'NONE',  ( -0.000000000000000000, -1.000000000000000000, -0.000000000000000000 ) ) ;
#639 = AXIS2_PLACEMENT_3D ( 'NONE', #384, #690, #314 ) ;
#640 = EDGE_CURVE ( 'NONE', #92, #749, #961, .T. ) ;
#641 = VERTEX_POINT ( 'NONE', #619 ) ;
#642 = CIRCLE ( 'NONE', #350, 3.950000000000334133 ) ;
#643 = EDGE_CURVE ( 'NONE', #912, #820, #529, .T. ) ;
#644 = DIRECTION ( 'NONE',  ( 0.000000000000000000, 0.000000000000000000, 1.000000000000000000 ) ) ;
#645 = ORIENTED_EDGE ( 'NONE', *, *, #422, .T. ) ;
#646 = VERTEX_POINT ( 'NONE', #623 ) ;
#647 = AXIS2_PLACEMENT_3D ( 'NONE', #7, #478, #1002 ) ;
#648 = VECTOR ( 'NONE', #608, 1000.000000000000000 ) ;
#649 = EDGE_LOOP ( 'NONE', ( #660, #170, #480, #332 ) ) ;
#650 = UNCERTAINTY_MEASURE_WITH_UNIT (LENGTH_MEASURE( 1.000000000000000082E-05 ), #673, 'distance_accuracy_value', 'NONE');
#651 = EDGE_CURVE ( 'NONE', #749, #646, #939, .T. ) ;
#652 = ADVANCED_FACE ( 'NONE', ( #49 ), #562, .T. ) ;
#653 = ORIENTED_EDGE ( 'NONE', *, *, #569, .F. ) ;
#654 = CARTESIAN_POINT ( 'NONE',  ( 5.204748896376665837E-16, 38.99999999999941025, 4.250000000000338396 ) ) ;
#655 = CARTESIAN_POINT ( 'NONE',  ( 4.959819536547192780E-16, 40.24161999999940775, 4.050000000000337330 ) ) ;
#656 = DIRECTION ( 'NONE',  ( -0.000000000000000000, -1.000000000000000000, -0.000000000000000000 ) ) ;
#657 = SURFACE_SIDE_STYLE ('',( #213 ) ) ;
#658 = VECTOR ( 'NONE', #204, 1000.000000000000114 ) ;
#659 = FACE_OUTER_BOUND ( 'NONE', #784, .T. ) ;
#660 = ORIENTED_EDGE ( 'NONE', *, *, #527, .F. ) ;
#661 = CARTESIAN_POINT ( 'NONE',  ( 0.000000000000000000, 33.37999999999941281, -8.000000000000339284 ) ) ;
#662 = CARTESIAN_POINT ( 'NONE',  ( 0.000000000000000000, 38.99999999999941025, -4.250000000000338396 ) ) ;
#663 = LINE ( 'NONE', #576, #423 ) ;
#664 = PRODUCT_CONTEXT ( 'NONE', #225, 'mechanical' ) ;
#665 = ADVANCED_FACE ( 'NONE', ( #920 ), #836, .F. ) ;
#666 = FACE_OUTER_BOUND ( 'NONE', #267, .T. ) ;
#667 = ORIENTED_EDGE ( 'NONE', *, *, #356, .T. ) ;
#668 = ADVANCED_FACE ( 'NONE', ( #304 ), #572, .F. ) ;
#669 = CARTESIAN_POINT ( 'NONE',  ( 0.000000000000000000, 41.99999999999941025, 0.000000000000000000 ) ) ;
#670 = ORIENTED_EDGE ( 'NONE', *, *, #187, .F. ) ;
#671 = CIRCLE ( 'NONE', #639, 3.749999997891058090 ) ;
#672 = CARTESIAN_POINT ( 'NONE',  ( 0.000000000000000000, 33.52886799999941303, 0.000000000000000000 ) ) ;
#673 =( LENGTH_UNIT ( ) NAMED_UNIT ( * ) SI_UNIT ( .MILLI., .METRE. ) );
#674 = EDGE_CURVE ( 'NONE', #726, #766, #978, .T. ) ;
#675 = DIRECTION ( 'NONE',  ( -0.000000000000000000, -1.000000000000000000, -0.000000000000000000 ) ) ;
#676 = EDGE_LOOP ( 'NONE', ( #699, #447, #293, #192 ) ) ;
#677 = DIRECTION ( 'NONE',  ( -0.000000000000000000, -1.000000000000000000, -0.000000000000000000 ) ) ;
#678 = DIRECTION ( 'NONE',  ( 0.000000000000000000, 1.000000000000000000, 0.000000000000000000 ) ) ;
#679 = CYLINDRICAL_SURFACE ( 'NONE', #112, 4.000000000000338396 ) ;
#680 = DIRECTION ( 'NONE',  ( 0.000000000000000000, 0.000000000000000000, -1.000000000000000000 ) ) ;
#681 = VERTEX_POINT ( 'NONE', #765 ) ;
#682 = DIRECTION ( 'NONE',  ( 1.000000000000000000, 0.000000000000000000, -1.224646799147353207E-16 ) ) ;
#683 = ORIENTED_EDGE ( 'NONE', *, *, #693, .F. ) ;
#684 = CARTESIAN_POINT ( 'NONE',  ( 0.000000000000000000, -6.499999999999028333, 0.000000000000000000 ) ) ;
#685 = PRESENTATION_LAYER_ASSIGNMENT (  '', '', ( #239 ) ) ;
#686 = CYLINDRICAL_SURFACE ( 'NONE', #730, 3.950000000000335021 ) ;
#687 = ORIENTED_EDGE ( 'NONE', *, *, #674, .T. ) ;
#688 = DIRECTION ( 'NONE',  ( -0.000000000000000000, -1.000000000000000000, -0.000000000000000000 ) ) ;
#689 = VECTOR ( 'NONE', #241, 1000.000000000000000 ) ;
#690 = DIRECTION ( 'NONE',  ( -0.000000000000000000, -1.000000000000000000, -0.000000000000000000 ) ) ;
#691 = ORIENTED_EDGE ( 'NONE', *, *, #32, .T. ) ;
#692 = DIRECTION ( 'NONE',  ( -0.000000000000000000, -1.000000000000000000, -0.000000000000000000 ) ) ;
#693 = EDGE_CURVE ( 'NONE', #50, #858, #336, .T. ) ;
#694 = VERTEX_POINT ( 'NONE', #654 ) ;
#695 = CARTESIAN_POINT ( 'NONE',  ( 0.000000000000000000, 41.99999999999941025, 4.000000000000338396 ) ) ;
#696 = CIRCLE ( 'NONE', #261, 4.500000000000337508 ) ;
#697 = DIRECTION ( 'NONE',  ( -0.000000000000000000, -1.000000000000000000, -0.000000000000000000 ) ) ;
#698 = EDGE_CURVE ( 'NONE', #305, #298, #291, .T. ) ;
#699 = ORIENTED_EDGE ( 'NONE', *, *, #884, .F. ) ;
#700 = CARTESIAN_POINT ( 'NONE',  ( 0.000000000000000000, 40.91905199999941800, 0.000000000000000000 ) ) ;
#701 = DIRECTION ( 'NONE',  ( 0.000000000000000000, 0.000000000000000000, 1.000000000000000000 ) ) ;
#702 = ORIENTED_EDGE ( 'NONE', *, *, #786, .F. ) ;
#703 = DIRECTION ( 'NONE',  ( -0.000000000000000000, -1.000000000000000000, -0.000000000000000000 ) ) ;
#704 = DIRECTION ( 'NONE',  ( -0.000000000000000000, -1.000000000000000000, -0.000000000000000000 ) ) ;
#705 = DIRECTION ( 'NONE',  ( 0.000000000000000000, 0.000000000000000000, 1.000000000000000000 ) ) ;
#706 = EDGE_CURVE ( 'NONE', #251, #574, #794, .T. ) ;
#707 = AXIS2_PLACEMENT_3D ( 'NONE', #194, #504, #742 ) ;
#708 = ORIENTED_EDGE ( 'NONE', *, *, #107, .F. ) ;
#709 = AXIS2_PLACEMENT_3D ( 'NONE', #249, #4, #622 ) ;
#710 = CARTESIAN_POINT ( 'NONE',  ( 4.898587195298266436E-16, 39.50000015214308746, 3.749999997891058090 ) ) ;
#711 = ORIENTED_EDGE ( 'NONE', *, *, #952, .T. ) ;
#712 = AXIS2_PLACEMENT_3D ( 'NONE', #366, #908, #995 ) ;
#713 = ADVANCED_FACE ( 'NONE', ( #371 ), #129, .T. ) ;
#714 = AXIS2_PLACEMENT_3D ( 'NONE', #736, #40, #970 ) ;
#715 = CARTESIAN_POINT ( 'NONE',  ( 0.000000000000000000, 40.91905199999941800, -4.050000000000337330 ) ) ;
#716 = ORIENTED_EDGE ( 'NONE', *, *, #484, .F. ) ;
#717 = MECHANICAL_DESIGN_GEOMETRIC_PRESENTATION_REPRESENTATION (  '', ( #810 ), #946 ) ;
#718 = EDGE_CURVE ( 'NONE', #771, #912, #518, .T. ) ;
#719 = DIRECTION ( 'NONE',  ( 0.000000000000000000, 0.000000000000000000, -1.000000000000000000 ) ) ;
#720 = ORIENTED_EDGE ( 'NONE', *, *, #522, .F. ) ;
#721 = AXIS2_PLACEMENT_3D ( 'NONE', #839, #896, #435 ) ;
#722 = CARTESIAN_POINT ( 'NONE',  ( 0.000000000000000000, 34.31715771247403524, 0.000000000000000000 ) ) ;
#723 = VECTOR ( 'NONE', #432, 1000.000000000000000 ) ;
#724 = ORIENTED_EDGE ( 'NONE', *, *, #569, .T. ) ;
#725 = AXIS2_PLACEMENT_3D ( 'NONE', #237, #77, #463 ) ;
#726 = VERTEX_POINT ( 'NONE', #986 ) ;
#727 = CIRCLE ( 'NONE', #882, 3.250000000000337952 ) ;
#728 = ORIENTED_EDGE ( 'NONE', *, *, #643, .T. ) ;
#729 = EDGE_CURVE ( 'NONE', #134, #870, #346, .T. ) ;
#730 = AXIS2_PLACEMENT_3D ( 'NONE', #235, #308, #996 ) ;
#731 = AXIS2_PLACEMENT_3D ( 'NONE', #475, #704, #330 ) ;
#732 = AXIS2_PLACEMENT_3D ( 'NONE', #289, #579, #191 ) ;
#733 = ORIENTED_EDGE ( 'NONE', *, *, #774, .T. ) ;
#734 = CARTESIAN_POINT ( 'NONE',  ( 4.286263795724589216E-16, 40.24161999999940775, 3.250000000000338396 ) ) ;
#735 = ADVANCED_FACE ( 'NONE', ( #610 ), #376, .T. ) ;
#736 = CARTESIAN_POINT ( 'NONE',  ( 0.000000000000000000, 41.99999999999941025, 0.000000000000000000 ) ) ;
#737 = AXIS2_PLACEMENT_3D ( 'NONE', #853, #871, #798 ) ;
#738 = DIRECTION ( 'NONE',  ( -0.000000000000000000, -1.000000000000000000, -0.000000000000000000 ) ) ;
#739 = AXIS2_PLACEMENT_3D ( 'NONE', #360, #203, #828 ) ;
#740 =( NAMED_UNIT ( * ) SI_UNIT ( $, .STERADIAN. ) SOLID_ANGLE_UNIT ( ) );
#741 = EDGE_LOOP ( 'NONE', ( #494, #184, #31, #558 ) ) ;
#742 = DIRECTION ( 'NONE',  ( 0.000000000000000000, 0.000000000000000000, -1.000000000000000000 ) ) ;
#743 = DIRECTION ( 'NONE',  ( 0.000000000000000000, 0.000000000000000000, -1.000000000000000000 ) ) ;
#744 = DIRECTION ( 'NONE',  ( 0.000000000000000000, 0.000000000000000000, -1.000000000000000000 ) ) ;
#745 = SURFACE_STYLE_USAGE ( .BOTH. , #657 ) ;
#746 = CIRCLE ( 'NONE', #613, 4.250000000000338396 ) ;
#747 = ADVANCED_FACE ( 'NONE', ( #45 ), #402, .T. ) ;
#748 =( NAMED_UNIT ( * ) PLANE_ANGLE_UNIT ( ) SI_UNIT ( $, .RADIAN. ) );
#749 = VERTEX_POINT ( 'NONE', #428 ) ;
#750 = DIRECTION ( 'NONE',  ( 0.000000000000000000, 0.000000000000000000, -1.000000000000000000 ) ) ;
#751 = VERTEX_POINT ( 'NONE', #734 ) ;
#752 = SURFACE_STYLE_USAGE ( .BOTH. , #913 ) ;
#753 = CARTESIAN_POINT ( 'NONE',  ( 4.980831153797200022E-16, 34.31715771247403524, -4.067157287525716924 ) ) ;
#754 = LINE ( 'NONE', #992, #551 ) ;
#755 = CONICAL_SURFACE ( 'NONE', #885, 1732.050807568876735, 1.047197551196597631 ) ;
#756 = ORIENTED_EDGE ( 'NONE', *, *, #774, .F. ) ;
#757 = DIRECTION ( 'NONE',  ( -0.000000000000000000, -1.000000000000000000, -0.000000000000000000 ) ) ;
#758 = CARTESIAN_POINT ( 'NONE',  ( 0.000000000000000000, 41.49999949768560725, 0.000000000000000000 ) ) ;
#759 = DIRECTION ( 'NONE',  ( 0.000000000000000000, 0.9161278810979749387, 0.4008861502658013776 ) ) ;
#760 = AXIS2_PLACEMENT_3D ( 'NONE', #240, #385, #232 ) ;
#761 = ORIENTED_EDGE ( 'NONE', *, *, #643, .F. ) ;
#762 = AXIS2_PLACEMENT_3D ( 'NONE', #294, #307, #380 ) ;
#763 = CARTESIAN_POINT ( 'NONE',  ( 9.797174393179239809E-16, 33.37999999999941281, 8.000000000000339284 ) ) ;
#764 = VERTEX_POINT ( 'NONE', #38 ) ;
#765 = CARTESIAN_POINT ( 'NONE',  ( 0.000000000000000000, 41.49999949768560725, -3.499999995516569484 ) ) ;
#766 = VERTEX_POINT ( 'NONE', #911 ) ;
#767 = FACE_OUTER_BOUND ( 'NONE', #905, .T. ) ;
#768 = DIRECTION ( 'NONE',  ( -0.000000000000000000, -1.000000000000000000, -0.000000000000000000 ) ) ;
#769 = DIRECTION ( 'NONE',  ( 8.659560562354869996E-17, -0.7071067811865526798, 0.7071067811865423547 ) ) ;
#770 = DIRECTION ( 'NONE',  ( 0.000000000000000000, 1.000000000000000000, 0.000000000000000000 ) ) ;
#771 = VERTEX_POINT ( 'NONE', #353 ) ;
#772 = ADVANCED_FACE ( 'NONE', ( #581 ), #216, .T. ) ;
#773 = CARTESIAN_POINT ( 'NONE',  ( 4.898587196589827967E-16, 41.99999999999941025, -4.000000000000338396 ) ) ;
#774 = EDGE_CURVE ( 'NONE', #851, #382, #12, .T. ) ;
#775 = DIRECTION ( 'NONE',  ( -1.000000000000000000, 0.000000000000000000, 0.000000000000000000 ) ) ;
#776 = CIRCLE ( 'NONE', #426, 8.000000000000339284 ) ;
#777 = CARTESIAN_POINT ( 'NONE',  ( 0.000000000000000000, 33.52886799999941303, -3.950000000000334133 ) ) ;
#778 = ORIENTED_EDGE ( 'NONE', *, *, #527, .T. ) ;
#779 = CIRCLE ( 'NONE', #404, 3.950000000000335909 ) ;
#780 = DIRECTION ( 'NONE',  ( 0.000000000000000000, 0.000000000000000000, 1.000000000000000000 ) ) ;
#781 = LINE ( 'NONE', #927, #292 ) ;
#782 = AXIS2_PLACEMENT_3D ( 'NONE', #372, #678, #536 ) ;
#783 = CARTESIAN_POINT ( 'NONE',  ( 0.000000000000000000, -3.035898384861078103, 0.000000000000000000 ) ) ;
#784 = EDGE_LOOP ( 'NONE', ( #401, #972, #844 ) ) ;
#785 = CARTESIAN_POINT ( 'NONE',  ( 3.980102097229312383E-16, -6.499999999999028333, 3.250000000000338396 ) ) ;
#786 = EDGE_CURVE ( 'NONE', #50, #251, #524, .T. ) ;
#787 = DIRECTION ( 'NONE',  ( 0.000000000000000000, 0.000000000000000000, -1.000000000000000000 ) ) ;
#788 = CARTESIAN_POINT ( 'NONE',  ( 4.500000000000337508, 33.49999999999941025, 0.000000000000000000 ) ) ;
#789 = AXIS2_PLACEMENT_3D ( 'NONE', #144, #125, #273 ) ;
#790 = ORIENTED_EDGE ( 'NONE', *, *, #345, .T. ) ;
#791 = ADVANCED_FACE ( 'NONE', ( #392 ), #897, .F. ) ;
#792 = CARTESIAN_POINT ( 'NONE',  ( 0.000000000000000000, 39.50000015214308746, 0.000000000000000000 ) ) ;
#793 = EDGE_CURVE ( 'NONE', #694, #272, #481, .T. ) ;
#794 = CIRCLE ( 'NONE', #466, 0.2000000000000040079 ) ;
#795 = ORIENTED_EDGE ( 'NONE', *, *, #282, .T. ) ;
#796 = AXIS2_PLACEMENT_3D ( 'NONE', #627, #253, #557 ) ;
#797 = AXIS2_PLACEMENT_3D ( 'NONE', #540, #697, #324 ) ;
#798 = DIRECTION ( 'NONE',  ( 0.000000000000000000, 0.000000000000000000, -1.000000000000000000 ) ) ;
#799 = ORIENTED_EDGE ( 'NONE', *, *, #879, .F. ) ;
#800 = AXIS2_PLACEMENT_3D ( 'NONE', #412, #118, #189 ) ;
#801 = ORIENTED_EDGE ( 'NONE', *, *, #422, .F. ) ;
#802 = CIRCLE ( 'NONE', #598, 0.7999999999999986011 ) ;
#803 = DIRECTION ( 'NONE',  ( 0.000000000000000000, 1.000000000000000000, 0.000000000000000000 ) ) ;
#804 = ORIENTED_EDGE ( 'NONE', *, *, #102, .F. ) ;
#805 = AXIS2_PLACEMENT_3D ( 'NONE', #547, #770, #705 ) ;
#806 = ORIENTED_EDGE ( 'NONE', *, *, #509, .F. ) ;
#807 = CIRCLE ( 'NONE', #864, 7.880000000000338289 ) ;
#808 = EDGE_CURVE ( 'NONE', #641, #991, #171, .T. ) ;
#809 = VERTEX_POINT ( 'NONE', #930 ) ;
#810 = STYLED_ITEM ( 'NONE', ( #146 ), #222 ) ;
#811 = ADVANCED_FACE ( 'NONE', ( #398 ), #686, .T. ) ;
#812 = EDGE_LOOP ( 'NONE', ( #165, #161 ) ) ;
#813 = ADVANCED_FACE ( 'NONE', ( #155 ), #872, .T. ) ;
#814 = CARTESIAN_POINT ( 'NONE',  ( 0.000000000000000000, -6.499999999999028333, 0.000000000000000000 ) ) ;
#815 = VECTOR ( 'NONE', #901, 1000.000000000000000 ) ;
#816 = CARTESIAN_POINT ( 'NONE',  ( 0.000000000000000000, 41.49999949768560725, 0.000000000000000000 ) ) ;
#817 = DIRECTION ( 'NONE',  ( -0.000000000000000000, -1.000000000000000000, -0.000000000000000000 ) ) ;
#818 = DIRECTION ( 'NONE',  ( -1.224646799147353207E-16, 0.000000000000000000, -1.000000000000000000 ) ) ;
#819 = VECTOR ( 'NONE', #164, 1000.000000000000000 ) ;
#820 = VERTEX_POINT ( 'NONE', #82 ) ;
#821 = DIRECTION ( 'NONE',  ( -0.000000000000000000, -1.000000000000000000, -0.000000000000000000 ) ) ;
#822 = ADVANCED_FACE ( 'NONE', ( #941 ), #36, .F. ) ;
#823 = CARTESIAN_POINT ( 'NONE',  ( 0.000000000000000000, 40.24161999999940775, -3.250000000000338396 ) ) ;
#824 = LINE ( 'NONE', #68, #543 ) ;
#825 = LINE ( 'NONE', #975, #723 ) ;
#826 = ORIENTED_EDGE ( 'NONE', *, *, #674, .F. ) ;
#827 = DIRECTION ( 'NONE',  ( -0.000000000000000000, -1.000000000000000000, -0.000000000000000000 ) ) ;
#828 = DIRECTION ( 'NONE',  ( 0.000000000000000000, 0.000000000000000000, -1.000000000000000000 ) ) ;
#829 = CARTESIAN_POINT ( 'NONE',  ( 0.000000000000000000, 33.49999999999941025, 0.000000000000000000 ) ) ;
#830 = CARTESIAN_POINT ( 'NONE',  ( 0.000000000000000000, 0.000000000000000000, 0.000000000000000000 ) ) ;
#831 = LINE ( 'NONE', #148, #418 ) ;
#832 = ORIENTED_EDGE ( 'NONE', *, *, #409, .T. ) ;
#833 = DIRECTION ( 'NONE',  ( 0.000000000000000000, 0.000000000000000000, -1.000000000000000000 ) ) ;
#834 = ORIENTED_EDGE ( 'NONE', *, *, #629, .T. ) ;
#835 = CARTESIAN_POINT ( 'NONE',  ( 0.000000000000000000, 5.643428999999411388, 0.000000000000000000 ) ) ;
#836 = TOROIDAL_SURFACE ( 'NONE', #255, 4.350000000000336264, 0.4000000000000003553 ) ;
#837 = CARTESIAN_POINT ( 'NONE',  ( 0.000000000000000000, 34.03431499999940968, 0.000000000000000000 ) ) ;
#838 = VERTEX_POINT ( 'NONE', #614 ) ;
#839 = CARTESIAN_POINT ( 'NONE',  ( 0.000000000000000000, -6.499999999999028333, 0.000000000000000000 ) ) ;
#840 = CONICAL_SURFACE ( 'NONE', #270, 1732.050807568876735, 1.047197551196597631 ) ;
#841 = ORIENTED_EDGE ( 'NONE', *, *, #468, .T. ) ;
#842 = DIRECTION ( 'NONE',  ( 0.000000000000000000, 0.000000000000000000, -1.000000000000000000 ) ) ;
#843 = CARTESIAN_POINT ( 'NONE',  ( 0.000000000000000000, 39.50000015214308746, -3.749999997891058090 ) ) ;
#844 = ORIENTED_EDGE ( 'NONE', *, *, #988, .T. ) ;
#845 = CIRCLE ( 'NONE', #963, 6.000000000000338396 ) ;
#846 = DIRECTION ( 'NONE',  ( 0.000000000000000000, 0.000000000000000000, 1.000000000000000000 ) ) ;
#847 = EDGE_CURVE ( 'NONE', #335, #766, #776, .T. ) ;
#848 = DIRECTION ( 'NONE',  ( 0.000000000000000000, 0.000000000000000000, -1.000000000000000000 ) ) ;
#849 = EDGE_LOOP ( 'NONE', ( #296, #687, #114, #854 ) ) ;
#850 = CARTESIAN_POINT ( 'NONE',  ( 5.021051876505900629E-16, 33.52886799999941303, 3.950000000000334133 ) ) ;
#851 = VERTEX_POINT ( 'NONE', #226 ) ;
#852 = PRODUCT_DEFINITION_FORMATION_WITH_SPECIFIED_SOURCE ( 'ANY', '', #415, .NOT_KNOWN. ) ;
#853 = CARTESIAN_POINT ( 'NONE',  ( 0.000000000000000000, -6.499999999999028333, 0.000000000000000000 ) ) ;
#854 = ORIENTED_EDGE ( 'NONE', *, *, #167, .F. ) ;
#855 = DIRECTION ( 'NONE',  ( 0.000000000000000000, 0.000000000000000000, -1.000000000000000000 ) ) ;
#856 = CARTESIAN_POINT ( 'NONE',  ( 0.000000000000000000, -6.499999999999028333, 0.000000000000000000 ) ) ;
#857 = DIRECTION ( 'NONE',  ( 0.000000000000000000, 0.5000000000000001110, 0.8660254037844385966 ) ) ;
#858 = VERTEX_POINT ( 'NONE', #850 ) ;
#859 = EDGE_CURVE ( 'NONE', #593, #912, #162, .T. ) ;
#860 = AXIS2_PLACEMENT_3D ( 'NONE', #928, #159, #472 ) ;
#861 = CARTESIAN_POINT ( 'NONE',  ( 0.000000000000000000, 34.31715771247403524, 0.000000000000000000 ) ) ;
#862 = EDGE_CURVE ( 'NONE', #571, #751, #321, .T. ) ;
#863 = DIRECTION ( 'NONE',  ( -0.000000000000000000, -1.000000000000000000, -0.000000000000000000 ) ) ;
#864 = AXIS2_PLACEMENT_3D ( 'NONE', #560, #163, #229 ) ;
#865 = LINE ( 'NONE', #390, #110 ) ;
#866 = EDGE_CURVE ( 'NONE', #764, #134, #937, .T. ) ;
#867 = ORIENTED_EDGE ( 'NONE', *, *, #41, .F. ) ;
#868 = CARTESIAN_POINT ( 'NONE',  ( 0.000000000000000000, 38.99999999999941025, 0.000000000000000000 ) ) ;
#869 = CARTESIAN_POINT ( 'NONE',  ( 4.959819536547192780E-16, 40.91905199999941800, 4.050000000000337330 ) ) ;
#870 = VERTEX_POINT ( 'NONE', #773 ) ;
#871 = DIRECTION ( 'NONE',  ( -0.000000000000000000, -1.000000000000000000, -0.000000000000000000 ) ) ;
#872 = CONICAL_SURFACE ( 'NONE', #585, 4.067157287525716924, 0.7853993254610842634 ) ;
#873 = ORIENTED_EDGE ( 'NONE', *, *, #879, .T. ) ;
#874 = FACE_OUTER_BOUND ( 'NONE', #741, .T. ) ;
#875 = ADVANCED_FACE ( 'NONE', ( #626 ), #501, .T. ) ;
#876 = CLOSED_SHELL ( 'NONE', ( #713, #202, #379, #393, #570, #822, #233, #349, #74, #325, #813, #578, #425, #791, #958, #652, #735, #28, #747, #948, #875, #582, #86, #201, #811, #665, #265, #29, #559, #668, #772, #631, #492, #43, #895, #95, #458, #133 ) ) ;
#877 = ORIENTED_EDGE ( 'NONE', *, *, #234, .T. ) ;
#878 = CIRCLE ( 'NONE', #926, 4.250000000000338396 ) ;
#879 = EDGE_CURVE ( 'NONE', #573, #977, #950, .T. ) ;
#880 = CARTESIAN_POINT ( 'NONE',  ( 0.000000000000000000, 33.52886708075509148, 0.000000000000000000 ) ) ;
#881 = ORIENTED_EDGE ( 'NONE', *, *, #550, .F. ) ;
#882 = AXIS2_PLACEMENT_3D ( 'NONE', #51, #738, #500 ) ;
#883 = EDGE_LOOP ( 'NONE', ( #340, #453, #940, #20 ) ) ;
#884 = EDGE_CURVE ( 'NONE', #571, #305, #727, .T. ) ;
#885 = AXIS2_PLACEMENT_3D ( 'NONE', #898, #803, #644 ) ;
#886 = ORIENTED_EDGE ( 'NONE', *, *, #271, .T. ) ;
#887 = EDGE_CURVE ( 'NONE', #641, #977, #521, .T. ) ;
#888 = EDGE_CURVE ( 'NONE', #109, #764, #890, .T. ) ;
#889 = EDGE_LOOP ( 'NONE', ( #128, #724, #17, #259 ) ) ;
#890 = CIRCLE ( 'NONE', #34, 4.000000000000338396 ) ;
#891 = DIRECTION ( 'NONE',  ( 1.000000000000000000, 0.000000000000000000, -1.224646799147353207E-16 ) ) ;
#892 = CARTESIAN_POINT ( 'NONE',  ( 0.000000000000000000, 40.91905199999941800, 0.000000000000000000 ) ) ;
#893 = DIRECTION ( 'NONE',  ( 0.000000000000000000, 0.000000000000000000, -1.000000000000000000 ) ) ;
#894 = ORIENTED_EDGE ( 'NONE', *, *, #884, .T. ) ;
#895 = ADVANCED_FACE ( 'NONE', ( #219 ), #410, .T. ) ;
#896 = DIRECTION ( 'NONE',  ( -0.000000000000000000, -1.000000000000000000, -0.000000000000000000 ) ) ;
#897 = TOROIDAL_SURFACE ( 'NONE', #93, 4.149999999998226663, 0.2000000000000043687 ) ;
#898 = CARTESIAN_POINT ( 'NONE',  ( 0.000000000000000000, 993.5000000000009095, 0.000000000000000000 ) ) ;
#899 = VECTOR ( 'NONE', #516, 1000.000000000000000 ) ;
#900 = ORIENTED_EDGE ( 'NONE', *, *, #706, .T. ) ;
#901 = DIRECTION ( 'NONE',  ( -0.000000000000000000, -1.000000000000000000, -0.000000000000000000 ) ) ;
#902 = DIRECTION ( 'NONE',  ( -0.000000000000000000, -1.000000000000000000, -0.000000000000000000 ) ) ;
#903 = CONICAL_SURFACE ( 'NONE', #431, 4.250000000000338396, 0.7853980133630720228 ) ;
#904 = LINE ( 'NONE', #206, #197 ) ;
#905 = EDGE_LOOP ( 'NONE', ( #691, #343, #929, #421 ) ) ;
#906 = CARTESIAN_POINT ( 'NONE',  ( 0.000000000000000000, -6.499999999999028333, 0.000000000000000000 ) ) ;
#907 = ORIENTED_EDGE ( 'NONE', *, *, #157, .F. ) ;
#908 = DIRECTION ( 'NONE',  ( -0.000000000000000000, -1.000000000000000000, -0.000000000000000000 ) ) ;
#909 = LINE ( 'NONE', #763, #80 ) ;
#910 = EDGE_LOOP ( 'NONE', ( #433, #778, #624, #519 ) ) ;
#911 = CARTESIAN_POINT ( 'NONE',  ( 0.000000000000000000, 10.21394299999941246, 8.000000000000339284 ) ) ;
#912 = VERTEX_POINT ( 'NONE', #530 ) ;
#913 = SURFACE_SIDE_STYLE ('',( #300 ) ) ;
#914 = DIRECTION ( 'NONE',  ( -0.000000000000000000, -1.000000000000000000, -0.000000000000000000 ) ) ;
#915 = APPLICATION_PROTOCOL_DEFINITION ( 'draft international standard', 'automotive_design', 1998, #225 ) ;
#916 = AXIS2_PLACEMENT_3D ( 'NONE', #594, #682, #588 ) ;
#917 = EDGE_CURVE ( 'NONE', #809, #766, #824, .T. ) ;
#918 = DIRECTION ( 'NONE',  ( 0.000000000000000000, 0.000000000000000000, -1.000000000000000000 ) ) ;
#919 = AXIS2_PLACEMENT_3D ( 'NONE', #792, #94, #403 ) ;
#920 = FACE_OUTER_BOUND ( 'NONE', #985, .T. ) ;
#921 = CONICAL_SURFACE ( 'NONE', #483, 4.250000000000338396, 0.7853980133630720228 ) ;
#922 = VERTEX_POINT ( 'NONE', #843 ) ;
#923 = DIRECTION ( 'NONE',  ( 0.000000000000000000, 0.000000000000000000, -1.000000000000000000 ) ) ;
#924 = ORIENTED_EDGE ( 'NONE', *, *, #887, .F. ) ;
#925 = EDGE_CURVE ( 'NONE', #766, #335, #577, .T. ) ;
#926 = AXIS2_PLACEMENT_3D ( 'NONE', #266, #334, #436 ) ;
#927 = CARTESIAN_POINT ( 'NONE',  ( 5.510910596163502721E-16, 33.49999999999941025, -4.500000000000337508 ) ) ;
#928 = CARTESIAN_POINT ( 'NONE',  ( 0.000000000000000000, 40.91905199999941800, 0.000000000000000000 ) ) ;
#929 = ORIENTED_EDGE ( 'NONE', *, *, #888, .F. ) ;
#930 = CARTESIAN_POINT ( 'NONE',  ( 0.000000000000000000, 5.643428999999411388, 6.000000000000338396 ) ) ;
#931 = AXIS2_PLACEMENT_3D ( 'NONE', #758, #127, #439 ) ;
#932 = CIRCLE ( 'NONE', #460, 3.250000000000337952 ) ;
#933 = FACE_OUTER_BOUND ( 'NONE', #105, .T. ) ;
#934 = CARTESIAN_POINT ( 'NONE',  ( 0.000000000000000000, 40.24161999999940775, 0.000000000000000000 ) ) ;
#935 = EDGE_CURVE ( 'NONE', #305, #571, #932, .T. ) ;
#936 = EDGE_LOOP ( 'NONE', ( #561, #175, #728 ) ) ;
#937 = LINE ( 'NONE', #461, #689 ) ;
#938 = LINE ( 'NONE', #242, #612 ) ;
#939 = LINE ( 'NONE', #661, #220 ) ;
#940 = ORIENTED_EDGE ( 'NONE', *, *, #718, .T. ) ;
#941 = FACE_OUTER_BOUND ( 'NONE', #676, .T. ) ;
#942 = DIRECTION ( 'NONE',  ( 1.060574443862851195E-16, 0.5000011241930348849, -0.8660247547303143723 ) ) ;
#943 = CONICAL_SURFACE ( 'NONE', #762, 4.000000000000338396, 0.5235988237060776873 ) ;
#944 = EDGE_LOOP ( 'NONE', ( #538, #832, #143, #720 ) ) ;
#945 = CARTESIAN_POINT ( 'NONE',  ( 0.000000000000000000, 33.49999999999941025, 0.000000000000000000 ) ) ;
#946 =( GEOMETRIC_REPRESENTATION_CONTEXT ( 3 ) GLOBAL_UNCERTAINTY_ASSIGNED_CONTEXT ( ( #650 ) ) GLOBAL_UNIT_ASSIGNED_CONTEXT ( ( #673, #515, #287 ) ) REPRESENTATION_CONTEXT ( 'NONE', 'WORKASPACE' ) );
#947 = EDGE_LOOP ( 'NONE', ( #517, #756 ) ) ;
#948 = ADVANCED_FACE ( 'NONE', ( #42 ), #361, .T. ) ;
#949 = FACE_OUTER_BOUND ( 'NONE', #377, .T. ) ;
#950 = CIRCLE ( 'NONE', #120, 4.250000000000338396 ) ;
#951 = EDGE_LOOP ( 'NONE', ( #215, #10, #790, #88 ) ) ;
#952 = EDGE_CURVE ( 'NONE', #417, #858, #663, .T. ) ;
#953 = AXIS2_PLACEMENT_3D ( 'NONE', #79, #476, #231 ) ;
#954 = DIRECTION ( 'NONE',  ( 0.000000000000000000, 0.000000000000000000, -1.000000000000000000 ) ) ;
#955 = EDGE_LOOP ( 'NONE', ( #15, #841, #761, #76 ) ) ;
#956 = DIRECTION ( 'NONE',  ( 0.000000000000000000, 0.000000000000000000, -1.000000000000000000 ) ) ;
#957 = EDGE_LOOP ( 'NONE', ( #254, #344, #351, #602 ) ) ;
#958 = ADVANCED_FACE ( 'NONE', ( #374 ), #322, .F. ) ;
#959 = ORIENTED_EDGE ( 'NONE', *, *, #230, .F. ) ;
#960 = AXIS2_PLACEMENT_3D ( 'NONE', #123, #525, #601 ) ;
#961 = CIRCLE ( 'NONE', #797, 7.880000000000338289 ) ;
#962 = ORIENTED_EDGE ( 'NONE', *, *, #866, .F. ) ;
#963 = AXIS2_PLACEMENT_3D ( 'NONE', #835, #58, #218 ) ;
#964 = CIRCLE ( 'NONE', #178, 8.000000000000339284 ) ;
#965 = DIRECTION ( 'NONE',  ( 0.000000000000000000, 0.000000000000000000, -1.000000000000000000 ) ) ;
#966 = ORIENTED_EDGE ( 'NONE', *, *, #505, .T. ) ;
#967 = DIRECTION ( 'NONE',  ( -0.000000000000000000, -1.000000000000000000, -0.000000000000000000 ) ) ;
#968 = PRODUCT_DEFINITION_CONTEXT ( 'detailed design', #486, 'design' ) ;
#969 = AXIS2_PLACEMENT_3D ( 'NONE', #830, #983, #606 ) ;
#970 = DIRECTION ( 'NONE',  ( 0.000000000000000000, 0.000000000000000000, -1.000000000000000000 ) ) ;
#971 = DIRECTION ( 'NONE',  ( -0.000000000000000000, -1.000000000000000000, -0.000000000000000000 ) ) ;
#972 = ORIENTED_EDGE ( 'NONE', *, *, #633, .T. ) ;
#973 = DIRECTION ( 'NONE',  ( -0.000000000000000000, -1.000000000000000000, -0.000000000000000000 ) ) ;
#974 = DIRECTION ( 'NONE',  ( -0.000000000000000000, -1.000000000000000000, -0.000000000000000000 ) ) ;
#975 = CARTESIAN_POINT ( 'NONE',  ( 7.347880794884533888E-16, -6.499999999999028333, 6.000000000000338396 ) ) ;
#976 = AXIS2_PLACEMENT_3D ( 'NONE', #140, #450, #818 ) ;
#977 = VERTEX_POINT ( 'NONE', #286 ) ;
#978 = LINE ( 'NONE', #116, #414 ) ;
#979 = ORIENTED_EDGE ( 'NONE', *, *, #862, .F. ) ;
#980 = DIRECTION ( 'NONE',  ( 0.000000000000000000, 0.000000000000000000, -1.000000000000000000 ) ) ;
#981 = VECTOR ( 'NONE', #81, 1000.000000000000000 ) ;
#982 = DIRECTION ( 'NONE',  ( 0.000000000000000000, 0.000000000000000000, 1.000000000000000000 ) ) ;
#983 = DIRECTION ( 'NONE',  ( 0.000000000000000000, 0.000000000000000000, 1.000000000000000000 ) ) ;
#984 = DIRECTION ( 'NONE',  ( -0.000000000000000000, -1.000000000000000000, -0.000000000000000000 ) ) ;
#985 = EDGE_LOOP ( 'NONE', ( #881, #445, #276, #994 ) ) ;
#986 = CARTESIAN_POINT ( 'NONE',  ( 9.797174393179239809E-16, 33.37999999999941281, 8.000000000000339284 ) ) ;
#987 = FACE_OUTER_BOUND ( 'NONE', #554, .T. ) ;
#988 = EDGE_CURVE ( 'NONE', #820, #912, #168, .T. ) ;
#989 = CARTESIAN_POINT ( 'NONE',  ( 0.000000000000000000, 51.49999999999941735, -2.267949000000338611 ) ) ;
#990 = CARTESIAN_POINT ( 'NONE',  ( 0.000000000000000000, 34.49999999999941025, 0.000000000000000000 ) ) ;
#991 = VERTEX_POINT ( 'NONE', #279 ) ;
#992 = CARTESIAN_POINT ( 'NONE',  ( 0.000000000000000000, 38.99999999999941025, -4.250000000000338396 ) ) ;
#993 = EDGE_CURVE ( 'NONE', #922, #298, #802, .T. ) ;
#994 = ORIENTED_EDGE ( 'NONE', *, *, #808, .T. ) ;
#995 = DIRECTION ( 'NONE',  ( 0.000000000000000000, 0.000000000000000000, -1.000000000000000000 ) ) ;
#996 = DIRECTION ( 'NONE',  ( 0.000000000000000000, 0.000000000000000000, -1.000000000000000000 ) ) ;
#997 = ORIENTED_EDGE ( 'NONE', *, *, #167, .T. ) ;
#998 = CARTESIAN_POINT ( 'NONE',  ( 0.000000000000000000, 33.35566199999941972, 4.250000000000337508 ) ) ;
#999 = CARTESIAN_POINT ( 'NONE',  ( 0.000000000000000000, 5.643428999999411388, 0.000000000000000000 ) ) ;
#1000 = CIRCLE ( 'NONE', #976, 0.4000000000000001887 ) ;
#1001 = ORIENTED_EDGE ( 'NONE', *, *, #173, .T. ) ;
#1002 = DIRECTION ( 'NONE',  ( 0.000000000000000000, 0.000000000000000000, -1.000000000000000000 ) ) ;
ENDSEC;
END-ISO-10303-21;
