ISO-10303-21;
HEADER;
FILE_DESCRIPTION (( 'STEP AP214' ),
    '1' );
FILE_NAME ('99688-SI08-M05+S9MT0802-142.STEP',
    '2023-09-26T05:30:08',
    ( '' ),
    ( '' ),
    'SwSTEP 2.0',
    'SolidWorks 2020',
    '' );
FILE_SCHEMA (( 'AUTOMOTIVE_DESIGN' ));
ENDSEC;

DATA;
#1 = DIRECTION ( 'NONE',  ( 1.000000000000000000, 0.000000000000000000, 0.000000000000000000 ) ) ;
#2 = LINE ( 'NONE', #674, #652 ) ;
#3 = DIRECTION ( 'NONE',  ( -5.073170731707320046E-16, -1.000000000000000000, -0.000000000000000000 ) ) ;
#4 = FACE_OUTER_BOUND ( 'NONE', #714, .T. ) ;
#5 = EDGE_CURVE ( 'NONE', #159, #779, #597, .T. ) ;
#6 = CARTESIAN_POINT ( 'NONE',  ( 1.724146341463415165E-14, 33.99999999999997158, 0.000000000000000000 ) ) ;
#7 = DIRECTION ( 'NONE',  ( -1.000000000000000000, 0.000000000000000000, 0.000000000000000000 ) ) ;
#8 = CARTESIAN_POINT ( 'NONE',  ( 1.474514954580286030E-14, 29.02886699999993425, 0.000000000000000000 ) ) ;
#9 = AXIS2_PLACEMENT_3D ( 'NONE', #337, #192, #476 ) ;
#10 = EDGE_CURVE ( 'NONE', #301, #496, #702, .T. ) ;
#11 = LINE ( 'NONE', #402, #219 ) ;
#12 = PRODUCT_DEFINITION_FORMATION_WITH_SPECIFIED_SOURCE ( 'ANY', '', #191, .NOT_KNOWN. ) ;
#13 = AXIS2_PLACEMENT_3D ( 'NONE', #622, #27, #840 ) ;
#14 = DIRECTION ( 'NONE',  ( 0.7071067811865473507, -0.7071067811865477948, 0.000000000000000000 ) ) ;
#15 = CYLINDRICAL_SURFACE ( 'NONE', #595, 2.099999999999898836 ) ;
#16 = CARTESIAN_POINT ( 'NONE',  ( -3.999999999997035260, 7.928768482281131291, 4.898587196585788999E-16 ) ) ;
#17 = FACE_OUTER_BOUND ( 'NONE', #499, .T. ) ;
#18 = ORIENTED_EDGE ( 'NONE', *, *, #856, .T. ) ;
#19 = DIRECTION ( 'NONE',  ( 1.000000000000000000, 0.000000000000000000, 0.000000000000000000 ) ) ;
#20 = EDGE_CURVE ( 'NONE', #580, #300, #312, .T. ) ;
#21 = DIRECTION ( 'NONE',  ( 1.000000000000000000, -5.310377987684295152E-16, 0.000000000000000000 ) ) ;
#22 = FACE_OUTER_BOUND ( 'NONE', #224, .T. ) ;
#23 = DIRECTION ( 'NONE',  ( -5.073170731707320046E-16, -1.000000000000000000, -0.000000000000000000 ) ) ;
#24 = DIRECTION ( 'NONE',  ( -5.073170731707320046E-16, -1.000000000000000000, -0.000000000000000000 ) ) ;
#25 = EDGE_CURVE ( 'NONE', #221, #696, #452, .T. ) ;
#26 = CARTESIAN_POINT ( 'NONE',  ( 1.691170731707318338E-14, 33.34999999999999432, 0.000000000000000000 ) ) ;
#27 = DIRECTION ( 'NONE',  ( -5.073170731707320046E-16, -1.000000000000000000, -0.000000000000000000 ) ) ;
#28 = DIRECTION ( 'NONE',  ( -5.073170731707320046E-16, -1.000000000000000000, -0.000000000000000000 ) ) ;
#29 = CONICAL_SURFACE ( 'NONE', #197, 2904.210877675656775, 1.239183768915956385 ) ;
#30 = VERTEX_POINT ( 'NONE', #538 ) ;
#31 = PRESENTATION_LAYER_ASSIGNMENT (  '', '', ( #685 ) ) ;
#32 = AXIS2_PLACEMENT_3D ( 'NONE', #330, #252, #874 ) ;
#33 = CARTESIAN_POINT ( 'NONE',  ( 2.099999999999899281, 0.9999999999999813483, 0.000000000000000000 ) ) ;
#34 = EDGE_LOOP ( 'NONE', ( #95, #83, #55, #649 ) ) ;
#35 = DIRECTION ( 'NONE',  ( 1.000000000000000000, -6.938893903907241197E-16, 0.000000000000000000 ) ) ;
#36 = ORIENTED_EDGE ( 'NONE', *, *, #465, .F. ) ;
#37 = ADVANCED_FACE ( 'NONE', ( #594 ), #585, .F. ) ;
#38 = ORIENTED_EDGE ( 'NONE', *, *, #315, .F. ) ;
#39 = APPLICATION_CONTEXT ( 'automotive_design' ) ;
#40 = ORIENTED_EDGE ( 'NONE', *, *, #483, .T. ) ;
#41 = SURFACE_SIDE_STYLE ('',( #697 ) ) ;
#42 = AXIS2_PLACEMENT_3D ( 'NONE', #764, #24, #568 ) ;
#43 = AXIS2_PLACEMENT_3D ( 'NONE', #635, #75, #609 ) ;
#44 = ORIENTED_EDGE ( 'NONE', *, *, #639, .T. ) ;
#45 =( NAMED_UNIT ( * ) SI_UNIT ( $, .STERADIAN. ) SOLID_ANGLE_UNIT ( ) );
#46 = ORIENTED_EDGE ( 'NONE', *, *, #682, .T. ) ;
#47 = ORIENTED_EDGE ( 'NONE', *, *, #823, .F. ) ;
#48 = DIRECTION ( 'NONE',  ( -5.073170731707320046E-16, -1.000000000000000000, -0.000000000000000000 ) ) ;
#49 = AXIS2_PLACEMENT_3D ( 'NONE', #748, #825, #743 ) ;
#50 = VECTOR ( 'NONE', #524, 1000.000000000000114 ) ;
#51 = VECTOR ( 'NONE', #213, 1000.000000000000000 ) ;
#52 = EDGE_CURVE ( 'NONE', #516, #187, #799, .T. ) ;
#53 = EDGE_LOOP ( 'NONE', ( #155, #709, #617, #18 ) ) ;
#54 = CYLINDRICAL_SURFACE ( 'NONE', #32, 2.499999999999860112 ) ;
#55 = ORIENTED_EDGE ( 'NONE', *, *, #223, .T. ) ;
#56 = ORIENTED_EDGE ( 'NONE', *, *, #475, .T. ) ;
#57 = EDGE_CURVE ( 'NONE', #853, #696, #359, .T. ) ;
#58 = DIRECTION ( 'NONE',  ( 1.000000000000000000, 0.000000000000000000, 0.000000000000000000 ) ) ;
#59 = ORIENTED_EDGE ( 'NONE', *, *, #447, .T. ) ;
#60 = DIRECTION ( 'NONE',  ( -1.000000000000000000, 0.000000000000000000, 0.000000000000000000 ) ) ;
#61 = CARTESIAN_POINT ( 'NONE',  ( 1.511943574634149838E-14, 29.81715700000004077, 0.000000000000000000 ) ) ;
#62 = VECTOR ( 'NONE', #681, 1000.000000000000000 ) ;
#63 = AXIS2_PLACEMENT_3D ( 'NONE', #61, #321, #729 ) ;
#64 = AXIS2_PLACEMENT_3D ( 'NONE', #180, #724, #732 ) ;
#65 = FACE_OUTER_BOUND ( 'NONE', #53, .T. ) ;
#66 = EDGE_LOOP ( 'NONE', ( #331, #783, #228, #584 ) ) ;
#67 = PRESENTATION_STYLE_ASSIGNMENT (( #398 ) ) ;
#68 = EDGE_CURVE ( 'NONE', #653, #480, #327, .T. ) ;
#69 = LINE ( 'NONE', #286, #451 ) ;
#70 = DIRECTION ( 'NONE',  ( -1.000000000000000000, 5.351926220038092974E-16, 0.000000000000000000 ) ) ;
#71 = CARTESIAN_POINT ( 'NONE',  ( 2.750000017484310444, 28.85566196971615938, 3.520859558254613460E-16 ) ) ;
#72 = ORIENTED_EDGE ( 'NONE', *, *, #229, .F. ) ;
#73 = CARTESIAN_POINT ( 'NONE',  ( -3.999999999997040590, 0.9999999999999844569, 4.898587196585789985E-16 ) ) ;
#74 = DIRECTION ( 'NONE',  ( -5.073170731707320046E-16, -1.000000000000000000, -0.000000000000000000 ) ) ;
#75 = DIRECTION ( 'NONE',  ( -5.073170731707320046E-16, -1.000000000000000000, -0.000000000000000000 ) ) ;
#76 = DIRECTION ( 'NONE',  ( -5.073170731707320046E-16, -1.000000000000000000, -0.000000000000000000 ) ) ;
#77 = CARTESIAN_POINT ( 'NONE',  ( 5.000000000000000389E-16, 0.9999999999999824585, 0.000000000000000000 ) ) ;
#78 = DIRECTION ( 'NONE',  ( 5.073170731707320046E-16, 1.000000000000000000, 0.000000000000000000 ) ) ;
#79 = FACE_OUTER_BOUND ( 'NONE', #34, .T. ) ;
#80 = VECTOR ( 'NONE', #672, 1000.000000000000000 ) ;
#81 = EDGE_CURVE ( 'NONE', #696, #772, #262, .T. ) ;
#82 = CARTESIAN_POINT ( 'NONE',  ( 2.130000000000000138E-14, 41.99999999999996447, 0.000000000000000000 ) ) ;
#83 = ORIENTED_EDGE ( 'NONE', *, *, #823, .T. ) ;
#84 = DIRECTION ( 'NONE',  ( -5.073170731707320046E-16, -1.000000000000000000, -0.000000000000000000 ) ) ;
#85 = DIRECTION ( 'NONE',  ( 1.000000000000000000, -6.938893903907241197E-16, 0.000000000000000000 ) ) ;
#86 = CARTESIAN_POINT ( 'NONE',  ( -2.499999999999837463, 40.99999999999995737, 3.061616997868209592E-16 ) ) ;
#87 = CARTESIAN_POINT ( 'NONE',  ( 2.099999999999916156, 34.99999999999995026, 0.000000000000000000 ) ) ;
#88 = LINE ( 'NONE', #544, #51 ) ;
#89 = ADVANCED_FACE ( 'NONE', ( #869 ), #141, .F. ) ;
#90 = CARTESIAN_POINT ( 'NONE',  ( 4.999999999999879208, 10.69041050590347908, 6.123233995736611468E-16 ) ) ;
#91 = DIRECTION ( 'NONE',  ( 1.000000000000000000, 0.000000000000000000, 0.000000000000000000 ) ) ;
#92 = FACE_OUTER_BOUND ( 'NONE', #521, .T. ) ;
#93 = PLANE ( 'NONE',  #109 ) ;
#94 = ORIENTED_EDGE ( 'NONE', *, *, #315, .T. ) ;
#95 = ORIENTED_EDGE ( 'NONE', *, *, #536, .F. ) ;
#96 = ORIENTED_EDGE ( 'NONE', *, *, #500, .F. ) ;
#97 = SURFACE_STYLE_USAGE ( .BOTH. , #41 ) ;
#98 = DIRECTION ( 'NONE',  ( 1.000000000000000000, -5.310377987684295152E-16, 0.000000000000000000 ) ) ;
#99 = MECHANICAL_DESIGN_GEOMETRIC_PRESENTATION_REPRESENTATION (  '', ( #685 ), #813 ) ;
#100 = CIRCLE ( 'NONE', #645, 1.499999999999877653 ) ;
#101 = VERTEX_POINT ( 'NONE', #130 ) ;
#102 = ORIENTED_EDGE ( 'NONE', *, *, #399, .T. ) ;
#103 = ORIENTED_EDGE ( 'NONE', *, *, #447, .F. ) ;
#104 = EDGE_CURVE ( 'NONE', #708, #580, #805, .T. ) ;
#105 = EDGE_LOOP ( 'NONE', ( #294, #633, #161, #369 ) ) ;
#106 = ORIENTED_EDGE ( 'NONE', *, *, #104, .T. ) ;
#107 = EDGE_CURVE ( 'NONE', #300, #301, #253, .T. ) ;
#108 = CIRCLE ( 'NONE', #699, 3.999999999997039701 ) ;
#109 = AXIS2_PLACEMENT_3D ( 'NONE', #82, #833, #293 ) ;
#110 = EDGE_CURVE ( 'NONE', #354, #545, #116, .T. ) ;
#111 = CARTESIAN_POINT ( 'NONE',  ( 1.691170731707318338E-14, 33.34999999999999432, 0.000000000000000000 ) ) ;
#112 = ORIENTED_EDGE ( 'NONE', *, *, #417, .F. ) ;
#113 = ORIENTED_EDGE ( 'NONE', *, *, #796, .F. ) ;
#114 = AXIS2_PLACEMENT_3D ( 'NONE', #210, #541, #264 ) ;
#115 = CIRCLE ( 'NONE', #240, 4.920000000000163354 ) ;
#116 = CIRCLE ( 'NONE', #413, 2.099999999999898836 ) ;
#117 = AXIS2_PLACEMENT_3D ( 'NONE', #565, #750, #226 ) ;
#118 = PRODUCT_RELATED_PRODUCT_CATEGORY ( 'part', '', ( #191 ) ) ;
#119 = CARTESIAN_POINT ( 'NONE',  ( 5.000000000000000389E-16, 0.9999999999999824585, 0.000000000000000000 ) ) ;
#120 = SURFACE_STYLE_FILL_AREA ( #203 ) ;
#121 = DIRECTION ( 'NONE',  ( 1.000000000000000000, -5.204170427930490309E-16, 0.000000000000000000 ) ) ;
#122 = DIRECTION ( 'NONE',  ( 0.7071067811868070319, 0.7071067811862881136, 8.659560562358106791E-17 ) ) ;
#123 = CARTESIAN_POINT ( 'NONE',  ( 2.999999999999900524, 28.99999999999997513, 3.673940397441919352E-16 ) ) ;
#124 = CARTESIAN_POINT ( 'NONE',  ( 2.499999999999879208, 40.99999999999995737, 0.000000000000000000 ) ) ;
#125 = DIRECTION ( 'NONE',  ( -5.073170731707320046E-16, -1.000000000000000000, -0.000000000000000000 ) ) ;
#126 = CYLINDRICAL_SURFACE ( 'NONE', #217, 2.449999999999911360 ) ;
#127 = DIRECTION ( 'NONE',  ( -5.073170731707320046E-16, -1.000000000000000000, -0.000000000000000000 ) ) ;
#128 = AXIS2_PLACEMENT_3D ( 'NONE', #877, #194, #623 ) ;
#129 = EDGE_LOOP ( 'NONE', ( #848, #706 ) ) ;
#130 = CARTESIAN_POINT ( 'NONE',  ( 2.449999999999938005, 29.02886699999995912, 0.000000000000000000 ) ) ;
#131 = DIRECTION ( 'NONE',  ( 1.000000000000000000, -5.162867488026460598E-16, 0.000000000000000000 ) ) ;
#132 = CARTESIAN_POINT ( 'NONE',  ( -2.849999999999473399, 29.53431457505076096, 3.490243377569329903E-16 ) ) ;
#133 = DIRECTION ( 'NONE',  ( 1.000000000000000000, 0.000000000000000000, 0.000000000000000000 ) ) ;
#134 = CYLINDRICAL_SURFACE ( 'NONE', #198, 2.499999999999860112 ) ;
#135 = EDGE_CURVE ( 'NONE', #432, #789, #574, .T. ) ;
#136 = DIRECTION ( 'NONE',  ( -5.073170731707320046E-16, -1.000000000000000000, -0.000000000000000000 ) ) ;
#137 = DIRECTION ( 'NONE',  ( -1.000000000000000000, 0.000000000000000000, 0.000000000000000000 ) ) ;
#138 = DIRECTION ( 'NONE',  ( 1.000000000000000000, 0.000000000000000000, 0.000000000000000000 ) ) ;
#139 = CARTESIAN_POINT ( 'NONE',  ( 3.999999999997044142, 7.928768482281127739, 0.000000000000000000 ) ) ;
#140 = DIRECTION ( 'NONE',  ( -5.073170731707320046E-16, -1.000000000000000000, -0.000000000000000000 ) ) ;
#141 = CONICAL_SURFACE ( 'NONE', #469, 2.999999999999885425, 1.047196131954551079 ) ;
#142 = DIRECTION ( 'NONE',  ( -5.073170731707320046E-16, -1.000000000000000000, -0.000000000000000000 ) ) ;
#143 = EDGE_LOOP ( 'NONE', ( #440, #767, #844, #231 ) ) ;
#144 = VECTOR ( 'NONE', #28, 1000.000000000000000 ) ;
#145 = CARTESIAN_POINT ( 'NONE',  ( 2.449999999999915801, 29.53431400000005169, 0.000000000000000000 ) ) ;
#146 = CARTESIAN_POINT ( 'NONE',  ( -2.099999999999880629, 34.99999999999995026, 2.571758278209317711E-16 ) ) ;
#147 = DIRECTION ( 'NONE',  ( 0.3404697182689928603, 0.9402554817398475207, 4.169551506847226849E-17 ) ) ;
#148 = MANIFOLD_SOLID_BREP ( '±ÛÂà1', #859 ) ;
#149 = DIRECTION ( 'NONE',  ( -5.073170731707320046E-16, -1.000000000000000000, -0.000000000000000000 ) ) ;
#150 = DIRECTION ( 'NONE',  ( -5.073170731707320046E-16, -1.000000000000000000, -0.000000000000000000 ) ) ;
#151 = DIRECTION ( 'NONE',  ( 1.000000000000000000, -3.469446951953701950E-16, 0.000000000000000000 ) ) ;
#152 = ORIENTED_EDGE ( 'NONE', *, *, #455, .T. ) ;
#153 = DIRECTION ( 'NONE',  ( -0.7071067811865480168, -0.7071067811865470176, 8.659560562354935323E-17 ) ) ;
#154 = LINE ( 'NONE', #427, #741 ) ;
#155 = ORIENTED_EDGE ( 'NONE', *, *, #81, .F. ) ;
#156 = CARTESIAN_POINT ( 'NONE',  ( 5.000000000000000389E-16, 0.9999999999999824585, 0.000000000000000000 ) ) ;
#157 = EDGE_CURVE ( 'NONE', #300, #580, #631, .T. ) ;
#158 = PRODUCT_DEFINITION_CONTEXT ( 'detailed design', #39, 'design' ) ;
#159 = VERTEX_POINT ( 'NONE', #453 ) ;
#160 = VECTOR ( 'NONE', #533, 1000.000000000000000 ) ;
#161 = ORIENTED_EDGE ( 'NONE', *, *, #589, .T. ) ;
#162 = AXIS2_PLACEMENT_3D ( 'NONE', #795, #181, #1 ) ;
#163 = DIRECTION ( 'NONE',  ( -5.073170731707320046E-16, -1.000000000000000000, -0.000000000000000000 ) ) ;
#164 = EDGE_CURVE ( 'NONE', #853, #762, #306, .T. ) ;
#165 = VERTEX_POINT ( 'NONE', #553 ) ;
#166 = EDGE_LOOP ( 'NONE', ( #56, #376 ) ) ;
#167 = DIRECTION ( 'NONE',  ( 1.000000000000000000, 0.000000000000000000, 0.000000000000000000 ) ) ;
#168 = ADVANCED_FACE ( 'NONE', ( #489 ), #430, .T. ) ;
#169 = ORIENTED_EDGE ( 'NONE', *, *, #52, .F. ) ;
#170 = ORIENTED_EDGE ( 'NONE', *, *, #571, .T. ) ;
#171 = AXIS2_PLACEMENT_3D ( 'NONE', #688, #486, #627 ) ;
#172 = VECTOR ( 'NONE', #390, 1000.000000000000000 ) ;
#173 = AXIS2_PLACEMENT_3D ( 'NONE', #111, #48, #311 ) ;
#174 = CIRCLE ( 'NONE', #64, 2.750000017484295345 ) ;
#175 = ORIENTED_EDGE ( 'NONE', *, *, #707, .T. ) ;
#176 = ORIENTED_EDGE ( 'NONE', *, *, #135, .F. ) ;
#177 = ORIENTED_EDGE ( 'NONE', *, *, #399, .F. ) ;
#178 = ORIENTED_EDGE ( 'NONE', *, *, #157, .F. ) ;
#179 = ORIENTED_EDGE ( 'NONE', *, *, #682, .F. ) ;
#180 = CARTESIAN_POINT ( 'NONE',  ( 1.463165290170967822E-14, 28.85566196971615938, 0.000000000000000000 ) ) ;
#181 = DIRECTION ( 'NONE',  ( -5.073170731707320046E-16, -1.000000000000000000, -0.000000000000000000 ) ) ;
#182 = EDGE_CURVE ( 'NONE', #857, #165, #234, .T. ) ;
#183 = CYLINDRICAL_SURFACE ( 'NONE', #216, 4.999999999999933387 ) ;
#184 = ORIENTED_EDGE ( 'NONE', *, *, #164, .T. ) ;
#185 = CARTESIAN_POINT ( 'NONE',  ( 1.470487804878049084E-14, 28.99999999999997513, 0.000000000000000000 ) ) ;
#186 = EDGE_CURVE ( 'NONE', #276, #507, #739, .T. ) ;
#187 = VERTEX_POINT ( 'NONE', #139 ) ;
#188 = CARTESIAN_POINT ( 'NONE',  ( -2.499999999999843681, 34.99999999999995026, 3.061616997868215015E-16 ) ) ;
#189 = ORIENTED_EDGE ( 'NONE', *, *, #110, .T. ) ;
#190 = CARTESIAN_POINT ( 'NONE',  ( -2.499999999999859668, 0.9999999999999837907, 3.061616997868211564E-16 ) ) ;
#191 = PRODUCT ( '99688-SI08-M05+S9MT0802-142', '99688-SI08-M05+S9MT0802-142', '', ( #508 ) ) ;
#192 = DIRECTION ( 'NONE',  ( -5.073170731707320046E-16, -1.000000000000000000, -0.000000000000000000 ) ) ;
#193 = FACE_OUTER_BOUND ( 'NONE', #166, .T. ) ;
#194 = DIRECTION ( 'NONE',  ( -5.073170731707320046E-16, -1.000000000000000000, -0.000000000000000000 ) ) ;
#195 = ORIENTED_EDGE ( 'NONE', *, *, #57, .F. ) ;
#196 = CARTESIAN_POINT ( 'NONE',  ( 2.499999999999879208, 40.99999999999995737, 0.000000000000000000 ) ) ;
#197 = AXIS2_PLACEMENT_3D ( 'NONE', #626, #534, #70 ) ;
#198 = AXIS2_PLACEMENT_3D ( 'NONE', #278, #76, #624 ) ;
#199 = CARTESIAN_POINT ( 'NONE',  ( -2.750000017484280690, 28.85566196971615938, 0.000000000000000000 ) ) ;
#200 = DIRECTION ( 'NONE',  ( 1.000000000000000000, 0.000000000000000000, 0.000000000000000000 ) ) ;
#201 = DIRECTION ( 'NONE',  ( 1.000000000000000000, 0.000000000000000000, 0.000000000000000000 ) ) ;
#202 = DIRECTION ( 'NONE',  ( 1.000000000000000000, 0.000000000000000000, 0.000000000000000000 ) ) ;
#203 = FILL_AREA_STYLE ('',( #667 ) ) ;
#204 = ADVANCED_FACE ( 'NONE', ( #220 ), #776, .T. ) ;
#205 = FACE_OUTER_BOUND ( 'NONE', #858, .T. ) ;
#206 = CARTESIAN_POINT ( 'NONE',  ( -4.999999999999932498, 0.9999999999999850120, 6.123233995736684438E-16 ) ) ;
#207 = CARTESIAN_POINT ( 'NONE',  ( -4.999999999999976019, 28.92000000000005855, 6.123233995736749519E-16 ) ) ;
#208 = DIRECTION ( 'NONE',  ( -5.073170731707320046E-16, -1.000000000000000000, -0.000000000000000000 ) ) ;
#209 = ADVANCED_FACE ( 'NONE', ( #758 ), #341, .T. ) ;
#210 = CARTESIAN_POINT ( 'NONE',  ( 2.130000000000000138E-14, 41.99999999999996447, 0.000000000000000000 ) ) ;
#211 = DIRECTION ( 'NONE',  ( 1.000000000000000000, -6.938893903907241197E-16, 0.000000000000000000 ) ) ;
#212 = DIRECTION ( 'NONE',  ( 1.224646799147353207E-16, -6.212842298113405639E-32, 1.000000000000000000 ) ) ;
#213 = DIRECTION ( 'NONE',  ( -0.9455185755993109620, 0.3255681544571737973, 0.000000000000000000 ) ) ;
#214 = DIRECTION ( 'NONE',  ( 0.000000000000000000, 0.000000000000000000, -1.000000000000000000 ) ) ;
#215 = CARTESIAN_POINT ( 'NONE',  ( 5.000000000000000389E-16, 0.9999999999999824585, 0.000000000000000000 ) ) ;
#216 = AXIS2_PLACEMENT_3D ( 'NONE', #456, #725, #121 ) ;
#217 = AXIS2_PLACEMENT_3D ( 'NONE', #77, #687, #21 ) ;
#218 = CARTESIAN_POINT ( 'NONE',  ( 2.130000000000000138E-14, 41.99999999999996447, 0.000000000000000000 ) ) ;
#219 = VECTOR ( 'NONE', #487, 1000.000000000000000 ) ;
#220 = FACE_OUTER_BOUND ( 'NONE', #722, .T. ) ;
#221 = VERTEX_POINT ( 'NONE', #355 ) ;
#222 = CARTESIAN_POINT ( 'NONE',  ( 5.416110695677877088E-15, 10.69041050590348263, 0.000000000000000000 ) ) ;
#223 = EDGE_CURVE ( 'NONE', #354, #779, #437, .T. ) ;
#224 = EDGE_LOOP ( 'NONE', ( #569, #449, #238, #361 ) ) ;
#225 =( NAMED_UNIT ( * ) PLANE_ANGLE_UNIT ( ) SI_UNIT ( $, .RADIAN. ) );
#226 = DIRECTION ( 'NONE',  ( -1.000000000000000000, 4.336808689945227414E-16, 0.000000000000000000 ) ) ;
#227 = ORIENTED_EDGE ( 'NONE', *, *, #417, .T. ) ;
#228 = ORIENTED_EDGE ( 'NONE', *, *, #830, .T. ) ;
#229 = EDGE_CURVE ( 'NONE', #717, #261, #362, .T. ) ;
#230 = DIRECTION ( 'NONE',  ( -5.073170731707320046E-16, -1.000000000000000000, -0.000000000000000000 ) ) ;
#231 = ORIENTED_EDGE ( 'NONE', *, *, #320, .F. ) ;
#232 = AXIS2_PLACEMENT_3D ( 'NONE', #314, #246, #519 ) ;
#233 = ORIENTED_EDGE ( 'NONE', *, *, #792, .T. ) ;
#234 = CIRCLE ( 'NONE', #242, 4.999999999999873879 ) ;
#235 = AXIS2_PLACEMENT_3D ( 'NONE', #607, #765, #543 ) ;
#236 = EDGE_CURVE ( 'NONE', #779, #772, #279, .T. ) ;
#237 = VERTEX_POINT ( 'NONE', #843 ) ;
#238 = ORIENTED_EDGE ( 'NONE', *, *, #236, .T. ) ;
#239 = ORIENTED_EDGE ( 'NONE', *, *, #517, .T. ) ;
#240 = AXIS2_PLACEMENT_3D ( 'NONE', #395, #803, #669 ) ;
#241 = EDGE_LOOP ( 'NONE', ( #865, #46, #298, #103 ) ) ;
#242 = AXIS2_PLACEMENT_3D ( 'NONE', #350, #346, #151 ) ;
#243 = CIRCLE ( 'NONE', #43, 3.999999999997042366 ) ;
#244 = ORIENTED_EDGE ( 'NONE', *, *, #223, .F. ) ;
#245 = ORIENTED_EDGE ( 'NONE', *, *, #356, .F. ) ;
#246 = DIRECTION ( 'NONE',  ( -5.073170731707320046E-16, -1.000000000000000000, -0.000000000000000000 ) ) ;
#247 = ORIENTED_EDGE ( 'NONE', *, *, #186, .F. ) ;
#248 = DIRECTION ( 'NONE',  ( -5.073170731707320046E-16, -1.000000000000000000, -0.000000000000000000 ) ) ;
#249 = ADVANCED_FACE ( 'NONE', ( #482 ), #586, .T. ) ;
#250 = ORIENTED_EDGE ( 'NONE', *, *, #25, .T. ) ;
#251 = ADVANCED_BREP_SHAPE_REPRESENTATION ( '99688-SI08-M05+S9MT0802-142', ( #148, #433 ), #786 ) ;
#252 = DIRECTION ( 'NONE',  ( -5.073170731707320046E-16, -1.000000000000000000, -0.000000000000000000 ) ) ;
#253 = LINE ( 'NONE', #190, #80 ) ;
#254 = CONICAL_SURFACE ( 'NONE', #304, 2.499999999999858336, 0.7853981633974380649 ) ;
#255 = COLOUR_RGB ( '',0.7921568627450980005, 0.8196078431372548767, 0.9333333333333333481 ) ;
#256 = EDGE_CURVE ( 'NONE', #789, #432, #307, .T. ) ;
#257 = CIRCLE ( 'NONE', #599, 2.449999999999923350 ) ;
#258 = FACE_OUTER_BOUND ( 'NONE', #577, .T. ) ;
#259 = ORIENTED_EDGE ( 'NONE', *, *, #746, .T. ) ;
#260 = CARTESIAN_POINT ( 'NONE',  ( 3.999999999997042366, 2.377310453157701620, 4.898587196585790971E-16 ) ) ;
#261 = VERTEX_POINT ( 'NONE', #284 ) ;
#262 = LINE ( 'NONE', #462, #787 ) ;
#263 = EDGE_CURVE ( 'NONE', #310, #101, #686, .T. ) ;
#264 = DIRECTION ( 'NONE',  ( 1.000000000000000000, 0.000000000000000000, 0.000000000000000000 ) ) ;
#265 = ORIENTED_EDGE ( 'NONE', *, *, #707, .F. ) ;
#266 = DIRECTION ( 'NONE',  ( -5.073170731707320046E-16, -1.000000000000000000, -0.000000000000000000 ) ) ;
#267 = CARTESIAN_POINT ( 'NONE',  ( -2.567156999999806732, 29.81715700000004077, 0.000000000000000000 ) ) ;
#268 = CARTESIAN_POINT ( 'NONE',  ( 1.499999999999898970, 41.99999999999996447, 0.000000000000000000 ) ) ;
#269 = CARTESIAN_POINT ( 'NONE',  ( 1.511943574634149838E-14, 29.81715700000004077, 0.000000000000000000 ) ) ;
#270 = FACE_OUTER_BOUND ( 'NONE', #345, .T. ) ;
#271 = DIRECTION ( 'NONE',  ( 5.073170731707320046E-16, 1.000000000000000000, 0.000000000000000000 ) ) ;
#272 = VECTOR ( 'NONE', #484, 1000.000000000000114 ) ;
#273 = DIRECTION ( 'NONE',  ( 1.000000000000000000, -5.073170731707320046E-16, 0.000000000000000000 ) ) ;
#274 = PLANE ( 'NONE',  #235 ) ;
#275 = DIRECTION ( 'NONE',  ( -5.073170731707320046E-16, -1.000000000000000000, -0.000000000000000000 ) ) ;
#276 = VERTEX_POINT ( 'NONE', #146 ) ;
#277 = ADVANCED_FACE ( 'NONE', ( #637 ), #690, .T. ) ;
#278 = CARTESIAN_POINT ( 'NONE',  ( 5.000000000000000389E-16, 0.9999999999999824585, 0.000000000000000000 ) ) ;
#279 = LINE ( 'NONE', #684, #295 ) ;
#280 = CARTESIAN_POINT ( 'NONE',  ( 5.000000000000000389E-16, 0.9999999999999824585, 0.000000000000000000 ) ) ;
#281 = LINE ( 'NONE', #549, #723 ) ;
#282 = DIRECTION ( 'NONE',  ( -1.000000000000000000, 5.351926220038092974E-16, 0.000000000000000000 ) ) ;
#283 = ORIENTED_EDGE ( 'NONE', *, *, #404, .T. ) ;
#284 = CARTESIAN_POINT ( 'NONE',  ( -2.449999999999908251, 29.02886699999995912, 3.184081687178162159E-16 ) ) ;
#285 = UNCERTAINTY_MEASURE_WITH_UNIT (LENGTH_MEASURE( 1.000000000000000082E-05 ), #336, 'distance_accuracy_value', 'NONE');
#286 = CARTESIAN_POINT ( 'NONE',  ( 2.449999999999911804, 0.9999999999999811262, 0.000000000000000000 ) ) ;
#287 = CARTESIAN_POINT ( 'NONE',  ( -2.749999999999871214, 29.99999999999997158, 0.000000000000000000 ) ) ;
#288 = LINE ( 'NONE', #33, #144 ) ;
#289 = ADVANCED_FACE ( 'NONE', ( #363 ), #801, .F. ) ;
#290 = AXIS2_PLACEMENT_3D ( 'NONE', #460, #728, #323 ) ;
#291 = CYLINDRICAL_SURFACE ( 'NONE', #850, 2.099999999999898836 ) ;
#292 = AXIS2_PLACEMENT_3D ( 'NONE', #733, #875, #740 ) ;
#293 = DIRECTION ( 'NONE',  ( -1.000000000000000000, 5.073170731707320046E-16, 0.000000000000000000 ) ) ;
#294 = ORIENTED_EDGE ( 'NONE', *, *, #547, .F. ) ;
#295 = VECTOR ( 'NONE', #558, 1000.000000000000000 ) ;
#296 = ORIENTED_EDGE ( 'NONE', *, *, #68, .F. ) ;
#297 = FACE_OUTER_BOUND ( 'NONE', #450, .T. ) ;
#298 = ORIENTED_EDGE ( 'NONE', *, *, #182, .T. ) ;
#299 = PRESENTATION_STYLE_ASSIGNMENT (( #97 ) ) ;
#300 = VERTEX_POINT ( 'NONE', #317 ) ;
#301 = VERTEX_POINT ( 'NONE', #188 ) ;
#302 =( LENGTH_UNIT ( ) NAMED_UNIT ( * ) SI_UNIT ( .MILLI., .METRE. ) );
#303 = EDGE_CURVE ( 'NONE', #717, #310, #174, .T. ) ;
#304 = AXIS2_PLACEMENT_3D ( 'NONE', #420, #606, #400 ) ;
#305 = VECTOR ( 'NONE', #757, 1000.000000000000000 ) ;
#306 = CIRCLE ( 'NONE', #42, 2.449999999999900702 ) ;
#307 = CIRCLE ( 'NONE', #860, 2.999999999999885425 ) ;
#308 = ORIENTED_EDGE ( 'NONE', *, *, #792, .F. ) ;
#309 = VERTEX_POINT ( 'NONE', #260 ) ;
#310 = VERTEX_POINT ( 'NONE', #71 ) ;
#311 = DIRECTION ( 'NONE',  ( 1.000000000000000000, 0.000000000000000000, 0.000000000000000000 ) ) ;
#312 = CIRCLE ( 'NONE', #612, 2.499999999999858336 ) ;
#313 = AXIS2_PLACEMENT_3D ( 'NONE', #754, #820, #138 ) ;
#314 = CARTESIAN_POINT ( 'NONE',  ( 5.000000000000000389E-16, 0.9999999999999824585, 0.000000000000000000 ) ) ;
#315 = EDGE_CURVE ( 'NONE', #507, #276, #512, .T. ) ;
#316 = ORIENTED_EDGE ( 'NONE', *, *, #465, .T. ) ;
#317 = CARTESIAN_POINT ( 'NONE',  ( -2.499999999999837463, 40.99999999999995737, 3.061616997868210578E-16 ) ) ;
#318 = EDGE_LOOP ( 'NONE', ( #716, #514, #551, #511 ) ) ;
#319 = DIRECTION ( 'NONE',  ( -5.073170731707320046E-16, -1.000000000000000000, -0.000000000000000000 ) ) ;
#320 = EDGE_CURVE ( 'NONE', #580, #496, #334, .T. ) ;
#321 = DIRECTION ( 'NONE',  ( -5.073170731707320046E-16, -1.000000000000000000, -0.000000000000000000 ) ) ;
#322 = ORIENTED_EDGE ( 'NONE', *, *, #57, .T. ) ;
#323 = DIRECTION ( 'NONE',  ( 1.000000000000000000, -5.073170731707320046E-16, 0.000000000000000000 ) ) ;
#324 = CARTESIAN_POINT ( 'NONE',  ( 1.470487804878049084E-14, 28.99999999999997513, 0.000000000000000000 ) ) ;
#325 = AXIS2_PLACEMENT_3D ( 'NONE', #824, #74, #338 ) ;
#326 = PRESENTATION_LAYER_ASSIGNMENT (  '', '', ( #711 ) ) ;
#327 = CIRCLE ( 'NONE', #292, 4.999999999999991118 ) ;
#328 = VECTOR ( 'NONE', #275, 1000.000000000000000 ) ;
#329 = DIRECTION ( 'NONE',  ( -0.8660246941625429073, 0.5000012290991634467, 0.000000000000000000 ) ) ;
#330 = CARTESIAN_POINT ( 'NONE',  ( 5.000000000000000389E-16, 0.9999999999999824585, 0.000000000000000000 ) ) ;
#331 = ORIENTED_EDGE ( 'NONE', *, *, #303, .F. ) ;
#332 = CARTESIAN_POINT ( 'NONE',  ( 1.470487804878049084E-14, 28.99999999999997513, 0.000000000000000000 ) ) ;
#333 = FACE_OUTER_BOUND ( 'NONE', #425, .T. ) ;
#334 = LINE ( 'NONE', #378, #394 ) ;
#335 = DIRECTION ( 'NONE',  ( -5.073170731707320046E-16, -1.000000000000000000, -0.000000000000000000 ) ) ;
#336 =( LENGTH_UNIT ( ) NAMED_UNIT ( * ) SI_UNIT ( .MILLI., .METRE. ) );
#337 = CARTESIAN_POINT ( 'NONE',  ( 5.000000000000000389E-16, 0.9999999999999824585, 0.000000000000000000 ) ) ;
#338 = DIRECTION ( 'NONE',  ( 1.000000000000000000, -7.051721447059957677E-16, 0.000000000000000000 ) ) ;
#339 = ADVANCED_FACE ( 'NONE', ( #590 ), #738, .T. ) ;
#340 = AXIS2_PLACEMENT_3D ( 'NONE', #671, #84, #763 ) ;
#341 = CONICAL_SURFACE ( 'NONE', #117, 3.999999999997039701, 0.3474164168819702803 ) ;
#342 = DIRECTION ( 'NONE',  ( 1.000000000000000000, -4.731064025391491622E-16, 0.000000000000000000 ) ) ;
#343 = CONICAL_SURFACE ( 'NONE', #817, 2904.210877675656775, 1.239183768915956385 ) ;
#344 = ADVANCED_FACE ( 'NONE', ( #65 ), #778, .T. ) ;
#345 = EDGE_LOOP ( 'NONE', ( #629, #501, #322, #638 ) ) ;
#346 = DIRECTION ( 'NONE',  ( -5.073170731707320046E-16, -1.000000000000000000, -0.000000000000000000 ) ) ;
#347 = DIRECTION ( 'NONE',  ( 1.000000000000000000, -5.162867488026460598E-16, 0.000000000000000000 ) ) ;
#348 = DIRECTION ( 'NONE',  ( 5.073170731707320046E-16, 1.000000000000000000, 0.000000000000000000 ) ) ;
#349 = DIRECTION ( 'NONE',  ( -5.073170731707320046E-16, -1.000000000000000000, -0.000000000000000000 ) ) ;
#350 = CARTESIAN_POINT ( 'NONE',  ( 5.416110695677877088E-15, 10.69041050590348263, 0.000000000000000000 ) ) ;
#351 = ADVANCED_FACE ( 'NONE', ( #593 ), #54, .T. ) ;
#352 = CYLINDRICAL_SURFACE ( 'NONE', #537, 2.749999999999884093 ) ;
#353 = CARTESIAN_POINT ( 'NONE',  ( -2.099999999999898392, 0.9999999999999835687, 2.571758278209317711E-16 ) ) ;
#354 = VERTEX_POINT ( 'NONE', #601 ) ;
#355 = CARTESIAN_POINT ( 'NONE',  ( -2.567156999999808065, 29.81715700000004077, 3.143860602958504359E-16 ) ) ;
#356 = EDGE_CURVE ( 'NONE', #310, #717, #704, .T. ) ;
#357 = CIRCLE ( 'NONE', #114, 1.499999999999877653 ) ;
#358 = ORIENTED_EDGE ( 'NONE', *, *, #536, .T. ) ;
#359 = CIRCLE ( 'NONE', #712, 0.4000000000000010214 ) ;
#360 = DIRECTION ( 'NONE',  ( -5.073170731707320046E-16, -1.000000000000000000, -0.000000000000000000 ) ) ;
#361 = ORIENTED_EDGE ( 'NONE', *, *, #856, .F. ) ;
#362 = CIRCLE ( 'NONE', #454, 0.1999999650311923005 ) ;
#363 = FACE_OUTER_BOUND ( 'NONE', #66, .T. ) ;
#364 = ORIENTED_EDGE ( 'NONE', *, *, #781, .T. ) ;
#365 = EDGE_CURVE ( 'NONE', #779, #159, #492, .T. ) ;
#366 = EDGE_LOOP ( 'NONE', ( #520, #233, #176, #439 ) ) ;
#367 = ORIENTED_EDGE ( 'NONE', *, *, #500, .T. ) ;
#368 = EDGE_CURVE ( 'NONE', #276, #545, #692, .T. ) ;
#369 = ORIENTED_EDGE ( 'NONE', *, *, #768, .F. ) ;
#370 = CONICAL_SURFACE ( 'NONE', #49, 2.499999999999858336, 0.7853981633974380649 ) ;
#371 = EDGE_LOOP ( 'NONE', ( #640, #727 ) ) ;
#372 = AXIS2_PLACEMENT_3D ( 'NONE', #587, #561, #694 ) ;
#373 = ORIENTED_EDGE ( 'NONE', *, *, #700, .F. ) ;
#374 = ADVANCED_FACE ( 'NONE', ( #17 ), #343, .T. ) ;
#375 = EDGE_LOOP ( 'NONE', ( #259, #650, #428, #791 ) ) ;
#376 = ORIENTED_EDGE ( 'NONE', *, *, #10, .T. ) ;
#377 = ORIENTED_EDGE ( 'NONE', *, *, #796, .T. ) ;
#378 = CARTESIAN_POINT ( 'NONE',  ( 2.499999999999860556, 0.9999999999999811262, 0.000000000000000000 ) ) ;
#379 = AXIS2_PLACEMENT_3D ( 'NONE', #774, #163, #85 ) ;
#380 = ORIENTED_EDGE ( 'NONE', *, *, #517, .F. ) ;
#381 = VECTOR ( 'NONE', #142, 1000.000000000000000 ) ;
#382 = DIRECTION ( 'NONE',  ( 1.000000000000000000, -5.073170731707320046E-16, 0.000000000000000000 ) ) ;
#383 = EDGE_CURVE ( 'NONE', #513, #309, #154, .T. ) ;
#384 = ORIENTED_EDGE ( 'NONE', *, *, #643, .F. ) ;
#385 = CARTESIAN_POINT ( 'NONE',  ( 1.774878048780486867E-14, 34.99999999999995026, 0.000000000000000000 ) ) ;
#386 = APPLICATION_CONTEXT ( 'automotive_design' ) ;
#387 = CYLINDRICAL_SURFACE ( 'NONE', #232, 3.999999999997041478 ) ;
#388 = ORIENTED_EDGE ( 'NONE', *, *, #356, .T. ) ;
#389 = DIRECTION ( 'NONE',  ( -1.000000000000000000, 0.000000000000000000, 0.000000000000000000 ) ) ;
#390 = DIRECTION ( 'NONE',  ( 0.8660246941625433514, 0.5000012290991625585, 1.060574369688723989E-16 ) ) ;
#391 = DIRECTION ( 'NONE',  ( 1.000000000000000000, 0.000000000000000000, 0.000000000000000000 ) ) ;
#392 = CIRCLE ( 'NONE', #784, 4.999999999999991118 ) ;
#393 = AXIS2_PLACEMENT_3D ( 'NONE', #185, #458, #391 ) ;
#394 = VECTOR ( 'NONE', #248, 1000.000000000000000 ) ;
#395 = CARTESIAN_POINT ( 'NONE',  ( 1.470487804878051924E-14, 29.00000000000003197, 0.000000000000000000 ) ) ;
#396 = DIRECTION ( 'NONE',  ( -5.073170731707320046E-16, -1.000000000000000000, -0.000000000000000000 ) ) ;
#397 = DIRECTION ( 'NONE',  ( 5.073170731707320046E-16, 1.000000000000000000, 0.000000000000000000 ) ) ;
#398 = SURFACE_STYLE_USAGE ( .BOTH. , #679 ) ;
#399 = EDGE_CURVE ( 'NONE', #762, #853, #470, .T. ) ;
#400 = DIRECTION ( 'NONE',  ( 1.000000000000000000, 0.000000000000000000, 0.000000000000000000 ) ) ;
#401 = DIRECTION ( 'NONE',  ( 1.000000000000000000, -3.469446951953701950E-16, 0.000000000000000000 ) ) ;
#402 = CARTESIAN_POINT ( 'NONE',  ( -3.999999999997035260, 7.928768482281131291, 0.000000000000000000 ) ) ;
#403 = CARTESIAN_POINT ( 'NONE',  ( 2.079268292682926859E-14, 40.99999999999995737, 0.000000000000000000 ) ) ;
#404 = EDGE_CURVE ( 'NONE', #827, #309, #243, .T. ) ;
#405 = LINE ( 'NONE', #267, #272 ) ;
#406 = DIRECTION ( 'NONE',  ( -5.073170731707320046E-16, -1.000000000000000000, 0.000000000000000000 ) ) ;
#407 = CARTESIAN_POINT ( 'NONE',  ( 4.015082547108486450E-15, 7.928768482281129515, 0.000000000000000000 ) ) ;
#408 = CARTESIAN_POINT ( 'NONE',  ( -2.749999999999883649, 0.9999999999999837907, 3.367778697655079510E-16 ) ) ;
#409 = CARTESIAN_POINT ( 'NONE',  ( -3.999999999997041478, 2.377310453157706061, 0.000000000000000000 ) ) ;
#410 = DIRECTION ( 'NONE',  ( 1.224646799147353207E-16, -6.212842298113405639E-32, 1.000000000000000000 ) ) ;
#411 = AXIS2_PLACEMENT_3D ( 'NONE', #794, #867, #522 ) ;
#412 = AXIS2_PLACEMENT_3D ( 'NONE', #474, #150, #423 ) ;
#413 = AXIS2_PLACEMENT_3D ( 'NONE', #468, #125, #58 ) ;
#414 = LINE ( 'NONE', #876, #736 ) ;
#415 = CARTESIAN_POINT ( 'NONE',  ( 4.920000000000177565, 29.00000000000002842, 0.000000000000000000 ) ) ;
#416 = FACE_OUTER_BOUND ( 'NONE', #129, .T. ) ;
#417 = EDGE_CURVE ( 'NONE', #507, #354, #288, .T. ) ;
#418 = CARTESIAN_POINT ( 'NONE',  ( 2.499999999999879208, 34.99999999999995026, 0.000000000000000000 ) ) ;
#419 = DIRECTION ( 'NONE',  ( 1.000000000000000000, -4.878909776188378992E-16, 0.000000000000000000 ) ) ;
#420 = CARTESIAN_POINT ( 'NONE',  ( 2.079268292682926859E-14, 40.99999999999995737, 0.000000000000000000 ) ) ;
#421 = DIRECTION ( 'NONE',  ( 5.073170731707320046E-16, 1.000000000000000000, 0.000000000000000000 ) ) ;
#422 = ADVANCED_FACE ( 'NONE', ( #297 ), #93, .T. ) ;
#423 = DIRECTION ( 'NONE',  ( 1.000000000000000000, -5.073170731707320046E-16, 0.000000000000000000 ) ) ;
#424 = DIRECTION ( 'NONE',  ( -5.073170731707320046E-16, -1.000000000000000000, -0.000000000000000000 ) ) ;
#425 = EDGE_LOOP ( 'NONE', ( #72, #245, #821, #868 ) ) ;
#426 = CARTESIAN_POINT ( 'NONE',  ( -2.099999999999881517, 33.99999999999997158, 2.969768487932197871E-16 ) ) ;
#427 = CARTESIAN_POINT ( 'NONE',  ( 5.000000000000000389E-16, 0.9999999999999824585, 0.000000000000000000 ) ) ;
#428 = ORIENTED_EDGE ( 'NONE', *, *, #20, .F. ) ;
#429 = FILL_AREA_STYLE_COLOUR ( '', #255 ) ;
#430 = CYLINDRICAL_SURFACE ( 'NONE', #539, 3.999999999997041478 ) ;
#431 = AXIS2_PLACEMENT_3D ( 'NONE', #804, #78, #137 ) ;
#432 = VERTEX_POINT ( 'NONE', #556 ) ;
#433 = AXIS2_PLACEMENT_3D ( 'NONE', #636, #769, #167 ) ;
#434 = AXIS2_PLACEMENT_3D ( 'NONE', #530, #266, #809 ) ;
#435 = ORIENTED_EDGE ( 'NONE', *, *, #182, .F. ) ;
#436 = AXIS2_PLACEMENT_3D ( 'NONE', #119, #319, #660 ) ;
#437 = LINE ( 'NONE', #493, #502 ) ;
#438 = EDGE_CURVE ( 'NONE', #237, #708, #100, .T. ) ;
#439 = ORIENTED_EDGE ( 'NONE', *, *, #731, .F. ) ;
#440 = ORIENTED_EDGE ( 'NONE', *, *, #20, .T. ) ;
#441 = ORIENTED_EDGE ( 'NONE', *, *, #52, .T. ) ;
#442 = AXIS2_PLACEMENT_3D ( 'NONE', #269, #811, #200 ) ;
#443 = EDGE_LOOP ( 'NONE', ( #384, #718, #106, #178 ) ) ;
#444 = AXIS2_PLACEMENT_3D ( 'NONE', #324, #271, #816 ) ;
#445 = EDGE_CURVE ( 'NONE', #101, #261, #257, .T. ) ;
#446 = AXIS2_PLACEMENT_3D ( 'NONE', #546, #208, #35 ) ;
#447 = EDGE_CURVE ( 'NONE', #516, #165, #11, .T. ) ;
#448 = ORIENTED_EDGE ( 'NONE', *, *, #746, .F. ) ;
#449 = ORIENTED_EDGE ( 'NONE', *, *, #5, .T. ) ;
#450 = EDGE_LOOP ( 'NONE', ( #448, #845 ) ) ;
#451 = VECTOR ( 'NONE', #831, 1000.000000000000000 ) ;
#452 = CIRCLE ( 'NONE', #63, 2.567156999999821831 ) ;
#453 = CARTESIAN_POINT ( 'NONE',  ( -2.749999999999866329, 33.34999999999999432, 3.367778697655079017E-16 ) ) ;
#454 = AXIS2_PLACEMENT_3D ( 'NONE', #625, #410, #630 ) ;
#455 = EDGE_CURVE ( 'NONE', #187, #309, #826, .T. ) ;
#456 = CARTESIAN_POINT ( 'NONE',  ( 5.000000000000000389E-16, 0.9999999999999824585, 0.000000000000000000 ) ) ;
#457 = EDGE_LOOP ( 'NONE', ( #177, #170, #250, #195 ) ) ;
#458 = DIRECTION ( 'NONE',  ( -5.073170731707320046E-16, -1.000000000000000000, -0.000000000000000000 ) ) ;
#459 = CARTESIAN_POINT ( 'NONE',  ( 2.999999999999897859, 28.99999999999997513, 3.673940397441916394E-16 ) ) ;
#460 = CARTESIAN_POINT ( 'NONE',  ( 1.474514954580286030E-14, 29.02886699999993425, 0.000000000000000000 ) ) ;
#461 = EDGE_LOOP ( 'NONE', ( #38, #247 ) ) ;
#462 = CARTESIAN_POINT ( 'NONE',  ( 2.567156999999836930, 29.81715700000004077, 3.143860602958503866E-16 ) ) ;
#463 = CARTESIAN_POINT ( 'NONE',  ( -2.449999999999885603, 29.53431400000005169, 3.000384657910900492E-16 ) ) ;
#464 = FACE_OUTER_BOUND ( 'NONE', #375, .T. ) ;
#465 = EDGE_CURVE ( 'NONE', #513, #827, #88, .T. ) ;
#466 = CIRCLE ( 'NONE', #644, 0.4000000000000010214 ) ;
#467 = DIRECTION ( 'NONE',  ( -5.073170731707320046E-16, -1.000000000000000000, -0.000000000000000000 ) ) ;
#468 = CARTESIAN_POINT ( 'NONE',  ( 1.724146341463415165E-14, 33.99999999999997158, 0.000000000000000000 ) ) ;
#469 = AXIS2_PLACEMENT_3D ( 'NONE', #332, #802, #389 ) ;
#470 = CIRCLE ( 'NONE', #873, 2.449999999999900702 ) ;
#471 = LINE ( 'NONE', #485, #785 ) ;
#472 = LINE ( 'NONE', #206, #756 ) ;
#473 = DIRECTION ( 'NONE',  ( 0.9455185755993112950, 0.3255681544571727981, 1.157926297142060960E-16 ) ) ;
#474 = CARTESIAN_POINT ( 'NONE',  ( 1.474514954580286030E-14, 29.53431457505076096, 0.000000000000000000 ) ) ;
#475 = EDGE_CURVE ( 'NONE', #496, #301, #613, .T. ) ;
#476 = DIRECTION ( 'NONE',  ( 1.000000000000000000, -5.204170427930490309E-16, 0.000000000000000000 ) ) ;
#477 = DIRECTION ( 'NONE',  ( -5.073170731707320046E-16, -1.000000000000000000, -0.000000000000000000 ) ) ;
#478 = FACE_OUTER_BOUND ( 'NONE', #443, .T. ) ;
#479 = CARTESIAN_POINT ( 'NONE',  ( 1.691170731707318338E-14, 33.34999999999999432, 0.000000000000000000 ) ) ;
#480 = VERTEX_POINT ( 'NONE', #207 ) ;
#481 =( NAMED_UNIT ( * ) SI_UNIT ( $, .STERADIAN. ) SOLID_ANGLE_UNIT ( ) );
#482 = FACE_OUTER_BOUND ( 'NONE', #863, .T. ) ;
#483 = EDGE_CURVE ( 'NONE', #159, #641, #749, .T. ) ;
#484 = DIRECTION ( 'NONE',  ( -0.7071067811868063657, 0.7071067811862886687, 0.000000000000000000 ) ) ;
#485 = CARTESIAN_POINT ( 'NONE',  ( 4.999999999999934275, 0.9999999999999799050, 0.000000000000000000 ) ) ;
#486 = DIRECTION ( 'NONE',  ( -5.073170731707320046E-16, -1.000000000000000000, -0.000000000000000000 ) ) ;
#487 = DIRECTION ( 'NONE',  ( -0.3404697182689918611, 0.9402554817398478537, 0.000000000000000000 ) ) ;
#488 = ORIENTED_EDGE ( 'NONE', *, *, #365, .T. ) ;
#489 = FACE_OUTER_BOUND ( 'NONE', #648, .T. ) ;
#490 = AXIS2_PLACEMENT_3D ( 'NONE', #8, #832, #273 ) ;
#491 = CARTESIAN_POINT ( 'NONE',  ( 4.015082547108486450E-15, 7.928768482281129515, 0.000000000000000000 ) ) ;
#492 = CIRCLE ( 'NONE', #851, 2.749999999999883205 ) ;
#493 = CARTESIAN_POINT ( 'NONE',  ( 2.749999999999900080, 33.34999999999999432, 0.000000000000000000 ) ) ;
#494 = ORIENTED_EDGE ( 'NONE', *, *, #365, .F. ) ;
#495 = FACE_BOUND ( 'NONE', #371, .T. ) ;
#496 = VERTEX_POINT ( 'NONE', #418 ) ;
#497 = CARTESIAN_POINT ( 'NONE',  ( 1.470487804878049084E-14, 28.99999999999997513, 0.000000000000000000 ) ) ;
#498 = EDGE_LOOP ( 'NONE', ( #308, #388, #506, #790 ) ) ;
#499 = EDGE_LOOP ( 'NONE', ( #793, #316, #283 ) ) ;
#500 = EDGE_CURVE ( 'NONE', #309, #827, #559, .T. ) ;
#501 = ORIENTED_EDGE ( 'NONE', *, *, #164, .F. ) ;
#502 = VECTOR ( 'NONE', #14, 999.9999999999998863 ) ;
#503 = AXIS2_PLACEMENT_3D ( 'NONE', #222, #535, #401 ) ;
#504 = ORIENTED_EDGE ( 'NONE', *, *, #861, .F. ) ;
#505 = ADVANCED_FACE ( 'NONE', ( #4 ), #664, .T. ) ;
#506 = ORIENTED_EDGE ( 'NONE', *, *, #731, .T. ) ;
#507 = VERTEX_POINT ( 'NONE', #87 ) ;
#508 = PRODUCT_CONTEXT ( 'NONE', #386, 'mechanical' ) ;
#509 = VECTOR ( 'NONE', #147, 1000.000000000000114 ) ;
#510 = ADVANCED_FACE ( 'NONE', ( #79 ), #668, .T. ) ;
#511 = ORIENTED_EDGE ( 'NONE', *, *, #10, .F. ) ;
#512 = CIRCLE ( 'NONE', #634, 2.099999999999898392 ) ;
#513 = VERTEX_POINT ( 'NONE', #616 ) ;
#514 = ORIENTED_EDGE ( 'NONE', *, *, #157, .T. ) ;
#515 = EDGE_LOOP ( 'NONE', ( #703, #564, #435, #373 ) ) ;
#516 = VERTEX_POINT ( 'NONE', #16 ) ;
#517 = EDGE_CURVE ( 'NONE', #165, #857, #562, .T. ) ;
#518 = EDGE_LOOP ( 'NONE', ( #839, #102, #377, #657 ) ) ;
#519 = DIRECTION ( 'NONE',  ( 1.000000000000000000, -4.878909776188378992E-16, 0.000000000000000000 ) ) ;
#520 = ORIENTED_EDGE ( 'NONE', *, *, #303, .T. ) ;
#521 = EDGE_LOOP ( 'NONE', ( #36, #715, #367 ) ) ;
#522 = DIRECTION ( 'NONE',  ( 1.000000000000000000, 0.000000000000000000, 0.000000000000000000 ) ) ;
#523 = AXIS2_PLACEMENT_3D ( 'NONE', #797, #864, #382 ) ;
#524 = DIRECTION ( 'NONE',  ( 0.7071067811865398012, -0.7071067811865551223, 0.000000000000000000 ) ) ;
#525 = AXIS2_PLACEMENT_3D ( 'NONE', #605, #397, #60 ) ;
#526 = CARTESIAN_POINT ( 'NONE',  ( 2.749999999999900080, 33.34999999999999432, 0.000000000000000000 ) ) ;
#527 = FACE_OUTER_BOUND ( 'NONE', #592, .T. ) ;
#528 = ORIENTED_EDGE ( 'NONE', *, *, #368, .T. ) ;
#529 = ORIENTED_EDGE ( 'NONE', *, *, #236, .F. ) ;
#530 = CARTESIAN_POINT ( 'NONE',  ( 4.015082547108486450E-15, 7.928768482281129515, 0.000000000000000000 ) ) ;
#531 = ADVANCED_FACE ( 'NONE', ( #495, #416 ), #274, .T. ) ;
#532 = DIRECTION ( 'NONE',  ( 1.000000000000000000, 0.000000000000000000, 0.000000000000000000 ) ) ;
#533 = DIRECTION ( 'NONE',  ( 0.7071067811858955388, -0.7071067811871994957, 0.000000000000000000 ) ) ;
#534 = DIRECTION ( 'NONE',  ( 5.073170731707320046E-16, 1.000000000000000000, 0.000000000000000000 ) ) ;
#535 = DIRECTION ( 'NONE',  ( -5.073170731707320046E-16, -1.000000000000000000, -0.000000000000000000 ) ) ;
#536 = EDGE_CURVE ( 'NONE', #545, #159, #281, .T. ) ;
#537 = AXIS2_PLACEMENT_3D ( 'NONE', #215, #396, #342 ) ;
#538 = CARTESIAN_POINT ( 'NONE',  ( -4.920000000000148255, 29.00000000000003553, 6.074248123770967912E-16 ) ) ;
#539 = AXIS2_PLACEMENT_3D ( 'NONE', #846, #230, #419 ) ;
#540 = AXIS2_PLACEMENT_3D ( 'NONE', #836, #424, #91 ) ;
#541 = DIRECTION ( 'NONE',  ( -5.073170731707320046E-16, -1.000000000000000000, -0.000000000000000000 ) ) ;
#542 = FACE_OUTER_BOUND ( 'NONE', #872, .T. ) ;
#543 = DIRECTION ( 'NONE',  ( -1.000000000000000000, 5.073170731707320046E-16, 0.000000000000000000 ) ) ;
#544 = CARTESIAN_POINT ( 'NONE',  ( 5.000000000000000389E-16, 0.9999999999999824585, 0.000000000000000000 ) ) ;
#545 = VERTEX_POINT ( 'NONE', #426 ) ;
#546 = CARTESIAN_POINT ( 'NONE',  ( 1.466429268292687374E-14, 28.92000000000005855, 0.000000000000000000 ) ) ;
#547 = EDGE_CURVE ( 'NONE', #696, #221, #720, .T. ) ;
#548 = CARTESIAN_POINT ( 'NONE',  ( 5.000000000000000389E-16, 0.9999999999999824585, 0.000000000000000000 ) ) ;
#549 = CARTESIAN_POINT ( 'NONE',  ( -2.749999999999866329, 33.34999999999999432, 3.367778697655078031E-16 ) ) ;
#550 = DIRECTION ( 'NONE',  ( 1.000000000000000000, 0.000000000000000000, 0.000000000000000000 ) ) ;
#551 = ORIENTED_EDGE ( 'NONE', *, *, #320, .T. ) ;
#552 = LINE ( 'NONE', #815, #305 ) ;
#553 = CARTESIAN_POINT ( 'NONE',  ( -4.999999999999869438, 10.69041050590348618, 0.000000000000000000 ) ) ;
#554 = EDGE_CURVE ( 'NONE', #480, #165, #472, .T. ) ;
#555 = LINE ( 'NONE', #86, #62 ) ;
#556 = CARTESIAN_POINT ( 'NONE',  ( -2.999999999999873435, 28.99999999999997513, 0.000000000000000000 ) ) ;
#557 = CARTESIAN_POINT ( 'NONE',  ( 1.471952277073170172E-14, 29.02886699999995912, 0.000000000000000000 ) ) ;
#558 = DIRECTION ( 'NONE',  ( -5.073170731707320046E-16, -1.000000000000000000, -0.000000000000000000 ) ) ;
#559 = CIRCLE ( 'NONE', #171, 3.999999999997042366 ) ;
#560 = CONICAL_SURFACE ( 'NONE', #581, 2.749999999999883205, 0.7853981633974485010 ) ;
#561 = DIRECTION ( 'NONE',  ( -5.073170731707320046E-16, -1.000000000000000000, -0.000000000000000000 ) ) ;
#562 = CIRCLE ( 'NONE', #503, 4.999999999999873879 ) ;
#563 = DIRECTION ( 'NONE',  ( -5.073170731707320046E-16, -1.000000000000000000, -0.000000000000000000 ) ) ;
#564 = ORIENTED_EDGE ( 'NONE', *, *, #554, .T. ) ;
#565 = CARTESIAN_POINT ( 'NONE',  ( 4.015082547108486450E-15, 7.928768482281129515, 0.000000000000000000 ) ) ;
#566 = ORIENTED_EDGE ( 'NONE', *, *, #368, .F. ) ;
#567 = ADVANCED_FACE ( 'NONE', ( #478 ), #370, .T. ) ;
#568 = DIRECTION ( 'NONE',  ( 1.000000000000000000, 0.000000000000000000, 0.000000000000000000 ) ) ;
#569 = ORIENTED_EDGE ( 'NONE', *, *, #483, .F. ) ;
#570 = EDGE_LOOP ( 'NONE', ( #189, #358, #494, #244 ) ) ;
#571 = EDGE_CURVE ( 'NONE', #762, #221, #466, .T. ) ;
#572 = CONICAL_SURFACE ( 'NONE', #431, 2.567156999999821831, 0.7853981633978147636 ) ;
#573 = TOROIDAL_SURFACE ( 'NONE', #412, 2.849999999999488498, 0.4000000000000011324 ) ;
#574 = CIRCLE ( 'NONE', #393, 2.999999999999885425 ) ;
#575 = ORIENTED_EDGE ( 'NONE', *, *, #455, .F. ) ;
#576 = ADVANCED_FACE ( 'NONE', ( #582 ), #683, .F. ) ;
#577 = EDGE_LOOP ( 'NONE', ( #579, #655, #96, #575 ) ) ;
#578 = ADVANCED_FACE ( 'NONE', ( #258 ), #387, .T. ) ;
#579 = ORIENTED_EDGE ( 'NONE', *, *, #656, .T. ) ;
#580 = VERTEX_POINT ( 'NONE', #124 ) ;
#581 = AXIS2_PLACEMENT_3D ( 'NONE', #26, #477, #621 ) ;
#582 = FACE_OUTER_BOUND ( 'NONE', #457, .T. ) ;
#583 = CIRCLE ( 'NONE', #340, 2.749999999999884981 ) ;
#584 = ORIENTED_EDGE ( 'NONE', *, *, #263, .F. ) ;
#585 = CONICAL_SURFACE ( 'NONE', #444, 2.999999999999885425, 1.047196131954551079 ) ;
#586 = CONICAL_SURFACE ( 'NONE', #446, 4.999999999999991118, 0.7853981633965267939 ) ;
#587 = CARTESIAN_POINT ( 'NONE',  ( 1.774878048780486867E-14, 34.99999999999995026, 0.000000000000000000 ) ) ;
#588 = ORIENTED_EDGE ( 'NONE', *, *, #404, .F. ) ;
#589 = EDGE_CURVE ( 'NONE', #772, #641, #710, .T. ) ;
#590 = FACE_OUTER_BOUND ( 'NONE', #782, .T. ) ;
#591 =( NAMED_UNIT ( * ) SI_UNIT ( $, .STERADIAN. ) SOLID_ANGLE_UNIT ( ) );
#592 = EDGE_LOOP ( 'NONE', ( #834, #175, #771, #380 ) ) ;
#593 = FACE_OUTER_BOUND ( 'NONE', #143, .T. ) ;
#594 = FACE_OUTER_BOUND ( 'NONE', #498, .T. ) ;
#595 = AXIS2_PLACEMENT_3D ( 'NONE', #280, #818, #347 ) ;
#596 = DIRECTION ( 'NONE',  ( -5.073170731707320046E-16, -1.000000000000000000, -0.000000000000000000 ) ) ;
#597 = CIRCLE ( 'NONE', #173, 2.749999999999883205 ) ;
#598 = DIRECTION ( 'NONE',  ( -5.073170731707320046E-16, -1.000000000000000000, -0.000000000000000000 ) ) ;
#599 = AXIS2_PLACEMENT_3D ( 'NONE', #842, #744, #133 ) ;
#600 = ADVANCED_FACE ( 'NONE', ( #527 ), #183, .T. ) ;
#601 = CARTESIAN_POINT ( 'NONE',  ( 2.099999999999916156, 33.99999999999997158, 0.000000000000000000 ) ) ;
#602 = DIRECTION ( 'NONE',  ( 0.000000000000000000, 0.000000000000000000, -1.000000000000000000 ) ) ;
#603 = ADVANCED_FACE ( 'NONE', ( #658 ), #572, .T. ) ;
#604 = CARTESIAN_POINT ( 'NONE',  ( 2.567156999999837375, 29.81715700000004077, 0.000000000000000000 ) ) ;
#605 = CARTESIAN_POINT ( 'NONE',  ( 1.511943574634149838E-14, 29.81715700000004077, 0.000000000000000000 ) ) ;
#606 = DIRECTION ( 'NONE',  ( -5.073170731707320046E-16, -1.000000000000000000, -0.000000000000000000 ) ) ;
#607 = CARTESIAN_POINT ( 'NONE',  ( 2.999999999999900524, 29.00000000000000000, 0.000000000000000000 ) ) ;
#608 = ADVANCED_FACE ( 'NONE', ( #464 ), #254, .T. ) ;
#609 = DIRECTION ( 'NONE',  ( 1.000000000000000000, -5.421010862431530570E-16, 0.000000000000000000 ) ) ;
#610 = ORIENTED_EDGE ( 'NONE', *, *, #719, .F. ) ;
#611 = CIRCLE ( 'NONE', #737, 2.099999999999898836 ) ;
#612 = AXIS2_PLACEMENT_3D ( 'NONE', #403, #598, #532 ) ;
#613 = CIRCLE ( 'NONE', #313, 2.499999999999861444 ) ;
#614 = CARTESIAN_POINT ( 'NONE',  ( 5.000000000000006217, 28.92000000000005500, 0.000000000000000000 ) ) ;
#615 = CARTESIAN_POINT ( 'NONE',  ( 2.099999999999916156, 34.99999999999995026, 0.000000000000000000 ) ) ;
#616 = CARTESIAN_POINT ( 'NONE',  ( 5.000000000000000389E-16, 0.9999999999999824585, 0.000000000000000000 ) ) ;
#617 = ORIENTED_EDGE ( 'NONE', *, *, #768, .T. ) ;
#618 = ADVANCED_FACE ( 'NONE', ( #193, #735 ), #675, .T. ) ;
#619 =( LENGTH_UNIT ( ) NAMED_UNIT ( * ) SI_UNIT ( .MILLI., .METRE. ) );
#620 = DIRECTION ( 'NONE',  ( -5.073170731707320046E-16, -1.000000000000000000, -0.000000000000000000 ) ) ;
#621 = DIRECTION ( 'NONE',  ( 1.000000000000000000, 0.000000000000000000, 0.000000000000000000 ) ) ;
#622 = CARTESIAN_POINT ( 'NONE',  ( 1.691170731707318338E-14, 33.34999999999999432, 0.000000000000000000 ) ) ;
#623 = DIRECTION ( 'NONE',  ( 1.000000000000000000, 0.000000000000000000, 0.000000000000000000 ) ) ;
#624 = DIRECTION ( 'NONE',  ( 1.000000000000000000, -5.204170427930712176E-16, 0.000000000000000000 ) ) ;
#625 = CARTESIAN_POINT ( 'NONE',  ( -2.649999999999908873, 29.02886699999993425, 3.245314017740392285E-16 ) ) ;
#626 = CARTESIAN_POINT ( 'NONE',  ( 5.078170731707320592E-13, 1000.999999999999886, 0.000000000000000000 ) ) ;
#627 = DIRECTION ( 'NONE',  ( 1.000000000000000000, -5.421010862431530570E-16, 0.000000000000000000 ) ) ;
#628 = CARTESIAN_POINT ( 'NONE',  ( 5.078170731707320592E-13, 1000.999999999999886, 0.000000000000000000 ) ) ;
#629 = ORIENTED_EDGE ( 'NONE', *, *, #571, .F. ) ;
#630 = DIRECTION ( 'NONE',  ( 1.000000000000000000, 0.000000000000000000, -1.224646799147350989E-16 ) ) ;
#631 = CIRCLE ( 'NONE', #162, 2.499999999999858336 ) ;
#632 = ADVANCED_FACE ( 'NONE', ( #205 ), #291, .T. ) ;
#633 = ORIENTED_EDGE ( 'NONE', *, *, #81, .T. ) ;
#634 = AXIS2_PLACEMENT_3D ( 'NONE', #385, #596, #666 ) ;
#635 = CARTESIAN_POINT ( 'NONE',  ( 1.198733107943430043E-15, 2.377310453157703840, 0.000000000000000000 ) ) ;
#636 = CARTESIAN_POINT ( 'NONE',  ( 0.000000000000000000, 0.000000000000000000, 0.000000000000000000 ) ) ;
#637 = FACE_OUTER_BOUND ( 'NONE', #847, .T. ) ;
#638 = ORIENTED_EDGE ( 'NONE', *, *, #547, .T. ) ;
#639 = EDGE_CURVE ( 'NONE', #30, #659, #775, .T. ) ;
#640 = ORIENTED_EDGE ( 'NONE', *, *, #135, .T. ) ;
#641 = VERTEX_POINT ( 'NONE', #287 ) ;
#642 = SHAPE_DEFINITION_REPRESENTATION ( #806, #251 ) ;
#643 = EDGE_CURVE ( 'NONE', #237, #300, #555, .T. ) ;
#644 = AXIS2_PLACEMENT_3D ( 'NONE', #132, #212, #676 ) ;
#645 = AXIS2_PLACEMENT_3D ( 'NONE', #218, #563, #201 ) ;
#646 = ORIENTED_EDGE ( 'NONE', *, *, #445, .F. ) ;
#647 = ADVANCED_FACE ( 'NONE', ( #333 ), #871, .F. ) ;
#648 = EDGE_LOOP ( 'NONE', ( #504, #441, #152, #588 ) ) ;
#649 = ORIENTED_EDGE ( 'NONE', *, *, #5, .F. ) ;
#650 = ORIENTED_EDGE ( 'NONE', *, *, #643, .T. ) ;
#651 = ADVANCED_FACE ( 'NONE', ( #22 ), #352, .T. ) ;
#652 = VECTOR ( 'NONE', #329, 1000.000000000000000 ) ;
#653 = VERTEX_POINT ( 'NONE', #752 ) ;
#654 = AXIS2_PLACEMENT_3D ( 'NONE', #407, #348, #819 ) ;
#655 = ORIENTED_EDGE ( 'NONE', *, *, #861, .T. ) ;
#656 = EDGE_CURVE ( 'NONE', #187, #516, #108, .T. ) ;
#657 = ORIENTED_EDGE ( 'NONE', *, *, #830, .F. ) ;
#658 = FACE_OUTER_BOUND ( 'NONE', #105, .T. ) ;
#659 = VERTEX_POINT ( 'NONE', #415 ) ;
#660 = DIRECTION ( 'NONE',  ( 1.000000000000000000, -4.731064025391491622E-16, 0.000000000000000000 ) ) ;
#661 = ADVANCED_FACE ( 'NONE', ( #542 ), #15, .T. ) ;
#662 = CARTESIAN_POINT ( 'NONE',  ( 2.849999999999503153, 29.53431457505076096, 0.000000000000000000 ) ) ;
#663 = LINE ( 'NONE', #614, #160 ) ;
#664 = CONICAL_SURFACE ( 'NONE', #654, 3.999999999997039701, 0.3474164168819702803 ) ;
#665 = AXIS2_PLACEMENT_3D ( 'NONE', #615, #406, #808 ) ;
#666 = DIRECTION ( 'NONE',  ( 1.000000000000000000, 0.000000000000000000, 0.000000000000000000 ) ) ;
#667 = FILL_AREA_STYLE_COLOUR ( '', #838 ) ;
#668 = CONICAL_SURFACE ( 'NONE', #13, 2.749999999999883205, 0.7853981633974485010 ) ;
#669 = DIRECTION ( 'NONE',  ( 1.000000000000000000, -7.051721447059957677E-16, 0.000000000000000000 ) ) ;
#670 = FACE_OUTER_BOUND ( 'NONE', #570, .T. ) ;
#671 = CARTESIAN_POINT ( 'NONE',  ( 1.521219512195122364E-14, 29.99999999999997158, 0.000000000000000000 ) ) ;
#672 = DIRECTION ( 'NONE',  ( -5.073170731707320046E-16, -1.000000000000000000, -0.000000000000000000 ) ) ;
#673 = ADVANCED_FACE ( 'NONE', ( #670 ), #560, .T. ) ;
#674 = CARTESIAN_POINT ( 'NONE',  ( -2.999999999999870770, 28.99999999999997513, 0.000000000000000000 ) ) ;
#675 = PLANE ( 'NONE',  #665 ) ;
#676 = DIRECTION ( 'NONE',  ( 1.000000000000000000, 0.000000000000000000, -1.224646799147353207E-16 ) ) ;
#677 = CARTESIAN_POINT ( 'NONE',  ( 3.999999999997042366, 0.9999999999999804601, 0.000000000000000000 ) ) ;
#678 = DIRECTION ( 'NONE',  ( 1.000000000000000000, 0.000000000000000000, 0.000000000000000000 ) ) ;
#679 = SURFACE_SIDE_STYLE ('',( #120 ) ) ;
#680 = FACE_OUTER_BOUND ( 'NONE', #518, .T. ) ;
#681 = DIRECTION ( 'NONE',  ( -0.7071067811865405783, -0.7071067811865544561, 8.659560562354844111E-17 ) ) ;
#682 = EDGE_CURVE ( 'NONE', #187, #857, #691, .T. ) ;
#683 = TOROIDAL_SURFACE ( 'NONE', #523, 2.849999999999488498, 0.4000000000000011324 ) ;
#684 = CARTESIAN_POINT ( 'NONE',  ( 2.749999999999884537, 0.9999999999999811262, 0.000000000000000000 ) ) ;
#685 = STYLED_ITEM ( 'NONE', ( #67 ), #148 ) ;
#686 = CIRCLE ( 'NONE', #713, 0.1999999650311923005 ) ;
#687 = DIRECTION ( 'NONE',  ( -5.073170731707320046E-16, -1.000000000000000000, -0.000000000000000000 ) ) ;
#688 = CARTESIAN_POINT ( 'NONE',  ( 1.198733107943430043E-15, 2.377310453157703840, 0.000000000000000000 ) ) ;
#689 = FACE_OUTER_BOUND ( 'NONE', #318, .T. ) ;
#690 = CYLINDRICAL_SURFACE ( 'NONE', #788, 2.449999999999911360 ) ;
#691 = LINE ( 'NONE', #760, #509 ) ;
#692 = LINE ( 'NONE', #353, #759 ) ;
#693 = ADVANCED_FACE ( 'NONE', ( #92 ), #29, .T. ) ;
#694 = DIRECTION ( 'NONE',  ( 1.000000000000000000, 0.000000000000000000, 0.000000000000000000 ) ) ;
#695 = DIRECTION ( 'NONE',  ( 1.000000000000000000, 0.000000000000000000, 0.000000000000000000 ) ) ;
#696 = VERTEX_POINT ( 'NONE', #604 ) ;
#697 = SURFACE_STYLE_FILL_AREA ( #773 ) ;
#698 = DIRECTION ( 'NONE',  ( -5.073170731707320046E-16, -1.000000000000000000, -0.000000000000000000 ) ) ;
#699 = AXIS2_PLACEMENT_3D ( 'NONE', #491, #140, #742 ) ;
#700 = EDGE_CURVE ( 'NONE', #653, #857, #471, .T. ) ;
#701 = AXIS2_PLACEMENT_3D ( 'NONE', #557, #467, #678 ) ;
#702 = CIRCLE ( 'NONE', #372, 2.499999999999861444 ) ;
#703 = ORIENTED_EDGE ( 'NONE', *, *, #68, .T. ) ;
#704 = CIRCLE ( 'NONE', #128, 2.750000017484295345 ) ;
#705 = ORIENTED_EDGE ( 'NONE', *, *, #814, .F. ) ;
#706 = ORIENTED_EDGE ( 'NONE', *, *, #639, .F. ) ;
#707 = EDGE_CURVE ( 'NONE', #480, #653, #392, .T. ) ;
#708 = VERTEX_POINT ( 'NONE', #268 ) ;
#709 = ORIENTED_EDGE ( 'NONE', *, *, #25, .F. ) ;
#710 = CIRCLE ( 'NONE', #411, 2.749999999999884981 ) ;
#711 = STYLED_ITEM ( 'NONE', ( #299 ), #251 ) ;
#712 = AXIS2_PLACEMENT_3D ( 'NONE', #662, #602, #7 ) ;
#713 = AXIS2_PLACEMENT_3D ( 'NONE', #828, #214, #770 ) ;
#714 = EDGE_LOOP ( 'NONE', ( #179, #169, #59, #239 ) ) ;
#715 = ORIENTED_EDGE ( 'NONE', *, *, #383, .T. ) ;
#716 = ORIENTED_EDGE ( 'NONE', *, *, #107, .F. ) ;
#717 = VERTEX_POINT ( 'NONE', #199 ) ;
#718 = ORIENTED_EDGE ( 'NONE', *, *, #438, .T. ) ;
#719 = EDGE_CURVE ( 'NONE', #659, #653, #663, .T. ) ;
#720 = CIRCLE ( 'NONE', #442, 2.567156999999821831 ) ;
#721 = CIRCLE ( 'NONE', #701, 2.449999999999923350 ) ;
#722 = EDGE_LOOP ( 'NONE', ( #364, #780, #296, #610 ) ) ;
#723 = VECTOR ( 'NONE', #153, 1000.000000000000000 ) ;
#724 = DIRECTION ( 'NONE',  ( -5.073170731707320046E-16, -1.000000000000000000, -0.000000000000000000 ) ) ;
#725 = DIRECTION ( 'NONE',  ( -5.073170731707320046E-16, -1.000000000000000000, -0.000000000000000000 ) ) ;
#726 = EDGE_CURVE ( 'NONE', #762, #261, #414, .T. ) ;
#727 = ORIENTED_EDGE ( 'NONE', *, *, #256, .T. ) ;
#728 = DIRECTION ( 'NONE',  ( -5.073170731707320046E-16, -1.000000000000000000, -0.000000000000000000 ) ) ;
#729 = DIRECTION ( 'NONE',  ( 1.000000000000000000, 0.000000000000000000, 0.000000000000000000 ) ) ;
#730 = LINE ( 'NONE', #123, #172 ) ;
#731 = EDGE_CURVE ( 'NONE', #717, #432, #2, .T. ) ;
#732 = DIRECTION ( 'NONE',  ( 1.000000000000000000, 0.000000000000000000, 0.000000000000000000 ) ) ;
#733 = CARTESIAN_POINT ( 'NONE',  ( 1.466429268292687374E-14, 28.92000000000005855, 0.000000000000000000 ) ) ;
#734 = CARTESIAN_POINT ( 'NONE',  ( 2.749999999999898748, 29.99999999999997158, 3.367778697655079017E-16 ) ) ;
#735 = FACE_BOUND ( 'NONE', #461, .T. ) ;
#736 = VECTOR ( 'NONE', #136, 1000.000000000000000 ) ;
#737 = AXIS2_PLACEMENT_3D ( 'NONE', #6, #349, #202 ) ;
#738 = CYLINDRICAL_SURFACE ( 'NONE', #436, 2.749999999999884093 ) ;
#739 = CIRCLE ( 'NONE', #540, 2.099999999999898392 ) ;
#740 = DIRECTION ( 'NONE',  ( 1.000000000000000000, -6.938893903907241197E-16, 0.000000000000000000 ) ) ;
#741 = VECTOR ( 'NONE', #473, 1000.000000000000114 ) ;
#742 = DIRECTION ( 'NONE',  ( 1.000000000000000000, -4.336808689945227414E-16, 0.000000000000000000 ) ) ;
#743 = DIRECTION ( 'NONE',  ( 1.000000000000000000, 0.000000000000000000, 0.000000000000000000 ) ) ;
#744 = DIRECTION ( 'NONE',  ( -5.073170731707320046E-16, -1.000000000000000000, -0.000000000000000000 ) ) ;
#745 =( NAMED_UNIT ( * ) PLANE_ANGLE_UNIT ( ) SI_UNIT ( $, .RADIAN. ) );
#746 = EDGE_CURVE ( 'NONE', #708, #237, #357, .T. ) ;
#747 = CARTESIAN_POINT ( 'NONE',  ( 1.466429268292687374E-14, 28.92000000000005855, 0.000000000000000000 ) ) ;
#748 = CARTESIAN_POINT ( 'NONE',  ( 2.079268292682926859E-14, 40.99999999999995737, 0.000000000000000000 ) ) ;
#749 = LINE ( 'NONE', #408, #381 ) ;
#750 = DIRECTION ( 'NONE',  ( 5.073170731707320046E-16, 1.000000000000000000, 0.000000000000000000 ) ) ;
#751 = CYLINDRICAL_SURFACE ( 'NONE', #9, 4.999999999999933387 ) ;
#752 = CARTESIAN_POINT ( 'NONE',  ( 5.000000000000006217, 28.92000000000005500, 0.000000000000000000 ) ) ;
#753 = DIRECTION ( 'NONE',  ( -5.073170731707320046E-16, -1.000000000000000000, -0.000000000000000000 ) ) ;
#754 = CARTESIAN_POINT ( 'NONE',  ( 1.774878048780486867E-14, 34.99999999999995026, 0.000000000000000000 ) ) ;
#755 = ORIENTED_EDGE ( 'NONE', *, *, #589, .F. ) ;
#756 = VECTOR ( 'NONE', #753, 1000.000000000000000 ) ;
#757 = DIRECTION ( 'NONE',  ( -0.7071067811858962049, -0.7071067811871988296, 8.659560562346953037E-17 ) ) ;
#758 = FACE_OUTER_BOUND ( 'NONE', #241, .T. ) ;
#759 = VECTOR ( 'NONE', #23, 1000.000000000000000 ) ;
#760 = CARTESIAN_POINT ( 'NONE',  ( 3.999999999997044142, 7.928768482281127739, 4.898587196585788013E-16 ) ) ;
#761 = ADVANCED_FACE ( 'NONE', ( #807 ), #751, .T. ) ;
#762 = VERTEX_POINT ( 'NONE', #463 ) ;
#763 = DIRECTION ( 'NONE',  ( 1.000000000000000000, 0.000000000000000000, 0.000000000000000000 ) ) ;
#764 = CARTESIAN_POINT ( 'NONE',  ( 1.497594466341467681E-14, 29.53431400000005169, 0.000000000000000000 ) ) ;
#765 = DIRECTION ( 'NONE',  ( 5.073170731707320046E-16, 1.000000000000000000, 0.000000000000000000 ) ) ;
#766 = CARTESIAN_POINT ( 'NONE',  ( 1.497594466341467681E-14, 29.53431400000005169, 0.000000000000000000 ) ) ;
#767 = ORIENTED_EDGE ( 'NONE', *, *, #107, .T. ) ;
#768 = EDGE_CURVE ( 'NONE', #221, #641, #405, .T. ) ;
#769 = DIRECTION ( 'NONE',  ( 0.000000000000000000, 0.000000000000000000, 1.000000000000000000 ) ) ;
#770 = DIRECTION ( 'NONE',  ( -1.000000000000000000, 0.000000000000000000, 0.000000000000000000 ) ) ;
#771 = ORIENTED_EDGE ( 'NONE', *, *, #700, .T. ) ;
#772 = VERTEX_POINT ( 'NONE', #734 ) ;
#773 = FILL_AREA_STYLE ('',( #429 ) ) ;
#774 = CARTESIAN_POINT ( 'NONE',  ( 1.466429268292687374E-14, 28.92000000000005855, 0.000000000000000000 ) ) ;
#775 = CIRCLE ( 'NONE', #325, 4.920000000000163354 ) ;
#776 = CONICAL_SURFACE ( 'NONE', #379, 4.999999999999991118, 0.7853981633965267939 ) ;
#777 = ADVANCED_FACE ( 'NONE', ( #680 ), #126, .T. ) ;
#778 = CONICAL_SURFACE ( 'NONE', #525, 2.567156999999821831, 0.7853981633978147636 ) ;
#779 = VERTEX_POINT ( 'NONE', #526 ) ;
#780 = ORIENTED_EDGE ( 'NONE', *, *, #814, .T. ) ;
#781 = EDGE_CURVE ( 'NONE', #659, #30, #115, .T. ) ;
#782 = EDGE_LOOP ( 'NONE', ( #488, #40, #755, #529 ) ) ;
#783 = ORIENTED_EDGE ( 'NONE', *, *, #229, .T. ) ;
#784 = AXIS2_PLACEMENT_3D ( 'NONE', #747, #810, #211 ) ;
#785 = VECTOR ( 'NONE', #3, 1000.000000000000000 ) ;
#786 =( GEOMETRIC_REPRESENTATION_CONTEXT ( 3 ) GLOBAL_UNCERTAINTY_ASSIGNED_CONTEXT ( ( #829 ) ) GLOBAL_UNIT_ASSIGNED_CONTEXT ( ( #619, #822, #481 ) ) REPRESENTATION_CONTEXT ( 'NONE', 'WORKASPACE' ) );
#787 = VECTOR ( 'NONE', #122, 1000.000000000000000 ) ;
#788 = AXIS2_PLACEMENT_3D ( 'NONE', #156, #698, #98 ) ;
#789 = VERTEX_POINT ( 'NONE', #459 ) ;
#790 = ORIENTED_EDGE ( 'NONE', *, *, #256, .F. ) ;
#791 = ORIENTED_EDGE ( 'NONE', *, *, #104, .F. ) ;
#792 = EDGE_CURVE ( 'NONE', #310, #789, #730, .T. ) ;
#793 = ORIENTED_EDGE ( 'NONE', *, *, #383, .F. ) ;
#794 = CARTESIAN_POINT ( 'NONE',  ( 1.521219512195122364E-14, 29.99999999999997158, 0.000000000000000000 ) ) ;
#795 = CARTESIAN_POINT ( 'NONE',  ( 2.079268292682926859E-14, 40.99999999999995737, 0.000000000000000000 ) ) ;
#796 = EDGE_CURVE ( 'NONE', #853, #101, #69, .T. ) ;
#797 = CARTESIAN_POINT ( 'NONE',  ( 1.474514954580286030E-14, 29.53431457505076096, 0.000000000000000000 ) ) ;
#798 = VECTOR ( 'NONE', #335, 1000.000000000000000 ) ;
#799 = CIRCLE ( 'NONE', #434, 3.999999999997039701 ) ;
#800 = ORIENTED_EDGE ( 'NONE', *, *, #719, .T. ) ;
#801 = TOROIDAL_SURFACE ( 'NONE', #290, 2.649999999999923528, 0.1999999650311921340 ) ;
#802 = DIRECTION ( 'NONE',  ( 5.073170731707320046E-16, 1.000000000000000000, 0.000000000000000000 ) ) ;
#803 = DIRECTION ( 'NONE',  ( -5.073170731707320046E-16, -1.000000000000000000, -0.000000000000000000 ) ) ;
#804 = CARTESIAN_POINT ( 'NONE',  ( 1.511943574634149838E-14, 29.81715700000004077, 0.000000000000000000 ) ) ;
#805 = LINE ( 'NONE', #196, #50 ) ;
#806 = PRODUCT_DEFINITION_SHAPE ( 'NONE', 'NONE',  #841 ) ;
#807 = FACE_OUTER_BOUND ( 'NONE', #515, .T. ) ;
#808 = DIRECTION ( 'NONE',  ( 1.000000000000000000, -5.073170731707320046E-16, 0.000000000000000000 ) ) ;
#809 = DIRECTION ( 'NONE',  ( 1.000000000000000000, -4.336808689945227414E-16, 0.000000000000000000 ) ) ;
#810 = DIRECTION ( 'NONE',  ( -5.073170731707320046E-16, -1.000000000000000000, -0.000000000000000000 ) ) ;
#811 = DIRECTION ( 'NONE',  ( -5.073170731707320046E-16, -1.000000000000000000, -0.000000000000000000 ) ) ;
#812 =( GEOMETRIC_REPRESENTATION_CONTEXT ( 3 ) GLOBAL_UNCERTAINTY_ASSIGNED_CONTEXT ( ( #852 ) ) GLOBAL_UNIT_ASSIGNED_CONTEXT ( ( #302, #225, #45 ) ) REPRESENTATION_CONTEXT ( 'NONE', 'WORKASPACE' ) );
#813 =( GEOMETRIC_REPRESENTATION_CONTEXT ( 3 ) GLOBAL_UNCERTAINTY_ASSIGNED_CONTEXT ( ( #285 ) ) GLOBAL_UNIT_ASSIGNED_CONTEXT ( ( #336, #745, #591 ) ) REPRESENTATION_CONTEXT ( 'NONE', 'WORKASPACE' ) );
#814 = EDGE_CURVE ( 'NONE', #30, #480, #552, .T. ) ;
#815 = CARTESIAN_POINT ( 'NONE',  ( -4.999999999999976907, 28.92000000000005855, 6.123233995736755436E-16 ) ) ;
#816 = DIRECTION ( 'NONE',  ( -1.000000000000000000, 0.000000000000000000, 0.000000000000000000 ) ) ;
#817 = AXIS2_PLACEMENT_3D ( 'NONE', #628, #421, #282 ) ;
#818 = DIRECTION ( 'NONE',  ( -5.073170731707320046E-16, -1.000000000000000000, -0.000000000000000000 ) ) ;
#819 = DIRECTION ( 'NONE',  ( -1.000000000000000000, 4.336808689945227414E-16, 0.000000000000000000 ) ) ;
#820 = DIRECTION ( 'NONE',  ( -5.073170731707320046E-16, -1.000000000000000000, -0.000000000000000000 ) ) ;
#821 = ORIENTED_EDGE ( 'NONE', *, *, #263, .T. ) ;
#822 =( NAMED_UNIT ( * ) PLANE_ANGLE_UNIT ( ) SI_UNIT ( $, .RADIAN. ) );
#823 = EDGE_CURVE ( 'NONE', #545, #354, #611, .T. ) ;
#824 = CARTESIAN_POINT ( 'NONE',  ( 1.470487804878051924E-14, 29.00000000000003197, 0.000000000000000000 ) ) ;
#825 = DIRECTION ( 'NONE',  ( -5.073170731707320046E-16, -1.000000000000000000, -0.000000000000000000 ) ) ;
#826 = LINE ( 'NONE', #677, #328 ) ;
#827 = VERTEX_POINT ( 'NONE', #409 ) ;
#828 = CARTESIAN_POINT ( 'NONE',  ( 2.649999999999938627, 29.02886699999993425, 0.000000000000000000 ) ) ;
#829 = UNCERTAINTY_MEASURE_WITH_UNIT (LENGTH_MEASURE( 1.000000000000000082E-05 ), #619, 'distance_accuracy_value', 'NONE');
#830 = EDGE_CURVE ( 'NONE', #261, #101, #721, .T. ) ;
#831 = DIRECTION ( 'NONE',  ( -5.073170731707320046E-16, -1.000000000000000000, -0.000000000000000000 ) ) ;
#832 = DIRECTION ( 'NONE',  ( -5.073170731707320046E-16, -1.000000000000000000, -0.000000000000000000 ) ) ;
#833 = DIRECTION ( 'NONE',  ( 5.073170731707320046E-16, 1.000000000000000000, 0.000000000000000000 ) ) ;
#834 = ORIENTED_EDGE ( 'NONE', *, *, #554, .F. ) ;
#835 = LINE ( 'NONE', #73, #798 ) ;
#836 = CARTESIAN_POINT ( 'NONE',  ( 1.774878048780486867E-14, 34.99999999999995026, 0.000000000000000000 ) ) ;
#837 = MECHANICAL_DESIGN_GEOMETRIC_PRESENTATION_REPRESENTATION (  '', ( #711 ), #812 ) ;
#838 = COLOUR_RGB ( '',0.7921568627450980005, 0.8196078431372548767, 0.9333333333333333481 ) ;
#839 = ORIENTED_EDGE ( 'NONE', *, *, #726, .F. ) ;
#840 = DIRECTION ( 'NONE',  ( 1.000000000000000000, 0.000000000000000000, 0.000000000000000000 ) ) ;
#841 = PRODUCT_DEFINITION ( 'UNKNOWN', '', #12, #158 ) ;
#842 = CARTESIAN_POINT ( 'NONE',  ( 1.471952277073170172E-14, 29.02886699999995912, 0.000000000000000000 ) ) ;
#843 = CARTESIAN_POINT ( 'NONE',  ( -1.499999999999856559, 41.99999999999996447, 2.449293598294544205E-16 ) ) ;
#844 = ORIENTED_EDGE ( 'NONE', *, *, #475, .F. ) ;
#845 = ORIENTED_EDGE ( 'NONE', *, *, #438, .F. ) ;
#846 = CARTESIAN_POINT ( 'NONE',  ( 5.000000000000000389E-16, 0.9999999999999824585, 0.000000000000000000 ) ) ;
#847 = EDGE_LOOP ( 'NONE', ( #184, #862, #646, #113 ) ) ;
#848 = ORIENTED_EDGE ( 'NONE', *, *, #781, .F. ) ;
#849 = APPLICATION_PROTOCOL_DEFINITION ( 'draft international standard', 'automotive_design', 1998, #39 ) ;
#850 = AXIS2_PLACEMENT_3D ( 'NONE', #548, #127, #131 ) ;
#851 = AXIS2_PLACEMENT_3D ( 'NONE', #479, #149, #695 ) ;
#852 = UNCERTAINTY_MEASURE_WITH_UNIT (LENGTH_MEASURE( 1.000000000000000082E-05 ), #302, 'distance_accuracy_value', 'NONE');
#853 = VERTEX_POINT ( 'NONE', #145 ) ;
#854 = ORIENTED_EDGE ( 'NONE', *, *, #186, .T. ) ;
#855 = APPLICATION_PROTOCOL_DEFINITION ( 'draft international standard', 'automotive_design', 1998, #386 ) ;
#856 = EDGE_CURVE ( 'NONE', #641, #772, #583, .T. ) ;
#857 = VERTEX_POINT ( 'NONE', #90 ) ;
#858 = EDGE_LOOP ( 'NONE', ( #94, #528, #878, #112 ) ) ;
#859 = CLOSED_SHELL ( 'NONE', ( #608, #351, #632, #673, #339, #603, #576, #277, #289, #89, #204, #761, #209, #578, #693, #374, #168, #505, #600, #249, #531, #37, #647, #777, #866, #344, #651, #510, #661, #618, #870, #567, #422 ) ) ;
#860 = AXIS2_PLACEMENT_3D ( 'NONE', #497, #620, #19 ) ;
#861 = EDGE_CURVE ( 'NONE', #516, #827, #835, .T. ) ;
#862 = ORIENTED_EDGE ( 'NONE', *, *, #726, .T. ) ;
#863 = EDGE_LOOP ( 'NONE', ( #705, #44, #800, #265 ) ) ;
#864 = DIRECTION ( 'NONE',  ( -5.073170731707320046E-16, -1.000000000000000000, -0.000000000000000000 ) ) ;
#865 = ORIENTED_EDGE ( 'NONE', *, *, #656, .F. ) ;
#866 = ADVANCED_FACE ( 'NONE', ( #270 ), #573, .F. ) ;
#867 = DIRECTION ( 'NONE',  ( -5.073170731707320046E-16, -1.000000000000000000, -0.000000000000000000 ) ) ;
#868 = ORIENTED_EDGE ( 'NONE', *, *, #445, .T. ) ;
#869 = FACE_OUTER_BOUND ( 'NONE', #366, .T. ) ;
#870 = ADVANCED_FACE ( 'NONE', ( #689 ), #134, .T. ) ;
#871 = TOROIDAL_SURFACE ( 'NONE', #490, 2.649999999999923528, 0.1999999650311921340 ) ;
#872 = EDGE_LOOP ( 'NONE', ( #566, #854, #227, #47 ) ) ;
#873 = AXIS2_PLACEMENT_3D ( 'NONE', #766, #360, #550 ) ;
#874 = DIRECTION ( 'NONE',  ( 1.000000000000000000, -5.204170427930712176E-16, 0.000000000000000000 ) ) ;
#875 = DIRECTION ( 'NONE',  ( -5.073170731707320046E-16, -1.000000000000000000, -0.000000000000000000 ) ) ;
#876 = CARTESIAN_POINT ( 'NONE',  ( -2.449999999999910916, 0.9999999999999837907, 3.000384657910906902E-16 ) ) ;
#877 = CARTESIAN_POINT ( 'NONE',  ( 1.463165290170967822E-14, 28.85566196971615938, 0.000000000000000000 ) ) ;
#878 = ORIENTED_EDGE ( 'NONE', *, *, #110, .F. ) ;
ENDSEC;
END-ISO-10303-21;
