ISO-10303-21;
HEADER;
FILE_DESCRIPTION (( 'STEP AP214' ),
    '1' );
FILE_NAME ('99688-SI06-06+S9MT06T1-142.STEP',
    '2023-07-20T00:56:12',
    ( '' ),
    ( '' ),
    'SwSTEP 2.0',
    'SolidWorks 2020',
    '' );
FILE_SCHEMA (( 'AUTOMOTIVE_DESIGN' ));
ENDSEC;

DATA;
#1 = DIRECTION ( 'NONE',  ( 0.000000000000000000, -1.000000000000000000, 0.000000000000000000 ) ) ;
#2 = DIRECTION ( 'NONE',  ( 0.000000000000000000, -1.000000000000000000, 0.000000000000000000 ) ) ;
#3 = ORIENTED_EDGE ( 'NONE', *, *, #273, .T. ) ;
#4 = PRESENTATION_LAYER_ASSIGNMENT (  '', '', ( #394 ) ) ;
#5 = VERTEX_POINT ( 'NONE', #147 ) ;
#6 = DIRECTION ( 'NONE',  ( 0.000000000000000000, 0.9420533805113717740, 0.3354630058100246948 ) ) ;
#7 = CARTESIAN_POINT ( 'NONE',  ( 3.769427975246058330E-13, 48.50000000000056843, 2.799999999999954969 ) ) ;
#8 = TOROIDAL_SURFACE ( 'NONE', #196, 3.120000000000014317, 0.1199999999999995237 ) ;
#9 = DIRECTION ( 'NONE',  ( 0.000000000000000000, 0.000000000000000000, 1.000000000000000000 ) ) ;
#10 = ADVANCED_FACE ( 'NONE', ( #313 ), #441, .T. ) ;
#11 = ORIENTED_EDGE ( 'NONE', *, *, #221, .T. ) ;
#12 =( GEOMETRIC_REPRESENTATION_CONTEXT ( 3 ) GLOBAL_UNCERTAINTY_ASSIGNED_CONTEXT ( ( #557 ) ) GLOBAL_UNIT_ASSIGNED_CONTEXT ( ( #112, #193, #29 ) ) REPRESENTATION_CONTEXT ( 'NONE', 'WORKASPACE' ) );
#13 = CARTESIAN_POINT ( 'NONE',  ( 3.768134101479036360E-13, 21.50000000000054001, -3.000000000000014211 ) ) ;
#14 = CIRCLE ( 'NONE', #171, 2.999999999997748024 ) ;
#15 = DIRECTION ( 'NONE',  ( 1.157926297142069835E-16, 0.3255681544571523145, -0.9455185755993182894 ) ) ;
#16 = CARTESIAN_POINT ( 'NONE',  ( 3.765876499528530985E-13, 48.30000000000049454, -3.000000000000021760 ) ) ;
#17 = CARTESIAN_POINT ( 'NONE',  ( 3.765876499528530985E-13, 5.900000000002222578, 2.999999999997769340 ) ) ;
#18 = SURFACE_STYLE_FILL_AREA ( #278 ) ;
#19 = ADVANCED_FACE ( 'NONE', ( #396, #392 ), #259, .F. ) ;
#20 = CARTESIAN_POINT ( 'NONE',  ( 3.769550439925972787E-13, 48.30000000000049454, 3.000000000000021760 ) ) ;
#21 = FACE_OUTER_BOUND ( 'NONE', #560, .T. ) ;
#22 = PRODUCT_DEFINITION_FORMATION_WITH_SPECIFIED_SOURCE ( 'ANY', '', #298, .NOT_KNOWN. ) ;
#23 = PLANE ( 'NONE',  #111 ) ;
#24 = AXIS2_PLACEMENT_3D ( 'NONE', #60, #1, #138 ) ;
#25 = AXIS2_PLACEMENT_3D ( 'NONE', #505, #291, #203 ) ;
#26 = CARTESIAN_POINT ( 'NONE',  ( 3.765876499528530985E-13, 48.50000000000056843, 0.000000000000000000 ) ) ;
#27 = EDGE_CURVE ( 'NONE', #488, #397, #181, .T. ) ;
#28 = EDGE_LOOP ( 'NONE', ( #211, #562, #340, #354 ) ) ;
#29 =( NAMED_UNIT ( * ) SI_UNIT ( $, .STERADIAN. ) SOLID_ANGLE_UNIT ( ) );
#30 = ORIENTED_EDGE ( 'NONE', *, *, #465, .T. ) ;
#31 = SURFACE_SIDE_STYLE ('',( #550 ) ) ;
#32 = DIRECTION ( 'NONE',  ( -0.000000000000000000, 1.000000000000000000, -0.000000000000000000 ) ) ;
#33 =( GEOMETRIC_REPRESENTATION_CONTEXT ( 3 ) GLOBAL_UNCERTAINTY_ASSIGNED_CONTEXT ( ( #214 ) ) GLOBAL_UNIT_ASSIGNED_CONTEXT ( ( #119, #293, #327 ) ) REPRESENTATION_CONTEXT ( 'NONE', 'WORKASPACE' ) );
#34 = LINE ( 'NONE', #368, #545 ) ;
#35 = CIRCLE ( 'NONE', #559, 3.900000000000012790 ) ;
#36 = ORIENTED_EDGE ( 'NONE', *, *, #156, .F. ) ;
#37 = EDGE_CURVE ( 'NONE', #522, #514, #492, .T. ) ;
#38 = ORIENTED_EDGE ( 'NONE', *, *, #552, .F. ) ;
#39 = DIRECTION ( 'NONE',  ( 0.000000000000000000, 0.000000000000000000, 1.000000000000000000 ) ) ;
#40 = TOROIDAL_SURFACE ( 'NONE', #382, 3.120000000000014317, 0.1199999999999995237 ) ;
#41 = EDGE_LOOP ( 'NONE', ( #225, #561, #247, #315 ) ) ;
#42 = ORIENTED_EDGE ( 'NONE', *, *, #55, .T. ) ;
#43 = CIRCLE ( 'NONE', #405, 2.799999999999954969 ) ;
#44 = ORIENTED_EDGE ( 'NONE', *, *, #318, .T. ) ;
#45 = DIRECTION ( 'NONE',  ( 0.000000000000000000, 0.000000000000000000, 1.000000000000000000 ) ) ;
#46 = DIRECTION ( 'NONE',  ( 1.060575238724877209E-16, 0.5000000000000421885, -0.8660254037844143937 ) ) ;
#47 = VECTOR ( 'NONE', #284, 1000.000000000000000 ) ;
#48 = UNCERTAINTY_MEASURE_WITH_UNIT (LENGTH_MEASURE( 1.000000000000000082E-05 ), #116, 'distance_accuracy_value', 'NONE');
#49 = CARTESIAN_POINT ( 'NONE',  ( 3.770713854385163415E-13, 21.50000000000054001, 3.900000000000012790 ) ) ;
#50 = EDGE_LOOP ( 'NONE', ( #376, #36, #190, #541 ) ) ;
#51 = ORIENTED_EDGE ( 'NONE', *, *, #532, .T. ) ;
#52 = CIRCLE ( 'NONE', #134, 3.359999999999992326 ) ;
#53 = DIRECTION ( 'NONE',  ( 0.000000000000000000, -0.7071067811865621167, -0.7071067811865330288 ) ) ;
#54 = CARTESIAN_POINT ( 'NONE',  ( 3.765876499528530985E-13, 48.50000000000056843, 0.000000000000000000 ) ) ;
#55 = EDGE_CURVE ( 'NONE', #428, #84, #43, .T. ) ;
#56 = DIRECTION ( 'NONE',  ( -0.000000000000000000, 1.000000000000000000, -0.000000000000000000 ) ) ;
#57 = DIRECTION ( 'NONE',  ( 0.000000000000000000, -0.000000000000000000, -1.000000000000000000 ) ) ;
#58 = CARTESIAN_POINT ( 'NONE',  ( 3.765876499528530985E-13, 5.900000000002222578, 0.000000000000000000 ) ) ;
#59 = LINE ( 'NONE', #231, #296 ) ;
#60 = CARTESIAN_POINT ( 'NONE',  ( 3.765876499528530985E-13, 21.40000000000054570, 0.000000000000000000 ) ) ;
#61 = AXIS2_PLACEMENT_3D ( 'NONE', #489, #355, #536 ) ;
#62 = DIRECTION ( 'NONE',  ( 0.000000000000000000, -1.000000000000000000, 0.000000000000000000 ) ) ;
#63 = MECHANICAL_DESIGN_GEOMETRIC_PRESENTATION_REPRESENTATION (  '', ( #510 ), #217 ) ;
#64 = EDGE_CURVE ( 'NONE', #294, #172, #495, .T. ) ;
#65 = DIRECTION ( 'NONE',  ( -0.000000000000000000, 1.000000000000000000, -0.000000000000000000 ) ) ;
#66 = CARTESIAN_POINT ( 'NONE',  ( 3.764349942869671395E-13, 21.50000000000054001, 0.000000000000000000 ) ) ;
#67 =( NAMED_UNIT ( * ) PLANE_ANGLE_UNIT ( ) SI_UNIT ( $, .RADIAN. ) );
#68 = AXIS2_PLACEMENT_3D ( 'NONE', #198, #446, #9 ) ;
#69 = DIRECTION ( 'NONE',  ( 8.659560562354755364E-17, -0.7071067811865621167, 0.7071067811865330288 ) ) ;
#70 = FACE_OUTER_BOUND ( 'NONE', #304, .T. ) ;
#71 = CARTESIAN_POINT ( 'NONE',  ( 3.764349942869671395E-13, 21.50000000000054001, 3.120000000000014317 ) ) ;
#72 = SURFACE_SIDE_STYLE ('',( #513 ) ) ;
#73 = ADVANCED_FACE ( 'NONE', ( #349 ), #94, .T. ) ;
#74 = DIRECTION ( 'NONE',  ( -0.000000000000000000, 1.000000000000000000, -0.000000000000000000 ) ) ;
#75 = DIRECTION ( 'NONE',  ( 0.000000000000000000, 0.000000000000000000, 1.000000000000000000 ) ) ;
#76 = VERTEX_POINT ( 'NONE', #230 ) ;
#77 = CARTESIAN_POINT ( 'NONE',  ( 3.769550439925970263E-13, 48.50000000000055422, -2.999999999997758682 ) ) ;
#78 = CIRCLE ( 'NONE', #61, 3.000000000000014211 ) ;
#79 = AXIS2_PLACEMENT_3D ( 'NONE', #100, #192, #361 ) ;
#80 = DIRECTION ( 'NONE',  ( 0.000000000000000000, 0.000000000000000000, 1.000000000000000000 ) ) ;
#81 = ORIENTED_EDGE ( 'NONE', *, *, #373, .T. ) ;
#82 = ORIENTED_EDGE ( 'NONE', *, *, #299, .T. ) ;
#83 = CARTESIAN_POINT ( 'NONE',  ( 3.765876499528530985E-13, 21.50000000000054001, 0.000000000000000000 ) ) ;
#84 = VERTEX_POINT ( 'NONE', #7 ) ;
#85 = CONICAL_SURFACE ( 'NONE', #515, 3.359999999999992326, 1.047197551196549004 ) ;
#86 = DIRECTION ( 'NONE',  ( -0.000000000000000000, 1.000000000000000000, -0.000000000000000000 ) ) ;
#87 = LINE ( 'NONE', #218, #453 ) ;
#88 = DIRECTION ( 'NONE',  ( 1.000000000000000000, 0.000000000000000000, 0.000000000000000000 ) ) ;
#89 = AXIS2_PLACEMENT_3D ( 'NONE', #484, #309, #437 ) ;
#90 = VECTOR ( 'NONE', #480, 999.9999999999998863 ) ;
#91 = VERTEX_POINT ( 'NONE', #490 ) ;
#92 = DIRECTION ( 'NONE',  ( 4.108236962975966997E-17, 0.9420533805113717740, -0.3354630058100246948 ) ) ;
#93 = CARTESIAN_POINT ( 'NONE',  ( 3.765876499528530985E-13, 21.50000000000054001, 0.000000000000000000 ) ) ;
#94 = CYLINDRICAL_SURFACE ( 'NONE', #547, 2.999999999997758682 ) ;
#95 = ORIENTED_EDGE ( 'NONE', *, *, #324, .F. ) ;
#96 = DIRECTION ( 'NONE',  ( 0.000000000000000000, 0.000000000000000000, 1.000000000000000000 ) ) ;
#97 = ADVANCED_FACE ( 'NONE', ( #445 ), #227, .T. ) ;
#98 = AXIS2_PLACEMENT_3D ( 'NONE', #204, #292, #75 ) ;
#99 = DIRECTION ( 'NONE',  ( 0.000000000000000000, 0.000000000000000000, 1.000000000000000000 ) ) ;
#100 = CARTESIAN_POINT ( 'NONE',  ( 3.765876499528530985E-13, 21.50000000000054001, 0.000000000000000000 ) ) ;
#101 = CARTESIAN_POINT ( 'NONE',  ( 3.765876499528530985E-13, 48.50000000000055422, 3.000000000000018208 ) ) ;
#102 = EDGE_CURVE ( 'NONE', #348, #388, #144, .T. ) ;
#103 = DIRECTION ( 'NONE',  ( 1.000000000000000000, 0.000000000000000000, 1.224646799147353207E-16 ) ) ;
#104 = ORIENTED_EDGE ( 'NONE', *, *, #487, .T. ) ;
#105 = AXIS2_PLACEMENT_3D ( 'NONE', #431, #439, #132 ) ;
#106 = DIRECTION ( 'NONE',  ( 0.000000000000000000, 0.000000000000000000, 1.000000000000000000 ) ) ;
#107 = CARTESIAN_POINT ( 'NONE',  ( 3.769550439925970263E-13, 1.532982839868433977, -2.999999999997748912 ) ) ;
#108 = DIRECTION ( 'NONE',  ( 0.000000000000000000, 0.000000000000000000, 1.000000000000000000 ) ) ;
#109 = DIRECTION ( 'NONE',  ( -0.000000000000000000, 1.000000000000000000, -0.000000000000000000 ) ) ;
#110 = AXIS2_PLACEMENT_3D ( 'NONE', #222, #533, #272 ) ;
#111 = AXIS2_PLACEMENT_3D ( 'NONE', #280, #555, #150 ) ;
#112 =( LENGTH_UNIT ( ) NAMED_UNIT ( * ) SI_UNIT ( .MILLI., .METRE. ) );
#113 = CARTESIAN_POINT ( 'NONE',  ( 3.770775086725120391E-13, 8.708218385331381484, -4.000000000000022204 ) ) ;
#114 = DIRECTION ( 'NONE',  ( -0.000000000000000000, 1.000000000000000000, -0.000000000000000000 ) ) ;
#115 = CARTESIAN_POINT ( 'NONE',  ( 3.765876499528530985E-13, 5.900000000002222578, 0.000000000000000000 ) ) ;
#116 =( LENGTH_UNIT ( ) NAMED_UNIT ( * ) SI_UNIT ( .MILLI., .METRE. ) );
#117 = ADVANCED_FACE ( 'NONE', ( #504 ), #509, .T. ) ;
#118 = DIRECTION ( 'NONE',  ( 0.000000000000000000, 0.000000000000000000, 1.000000000000000000 ) ) ;
#119 =( LENGTH_UNIT ( ) NAMED_UNIT ( * ) SI_UNIT ( .MILLI., .METRE. ) );
#120 =( LENGTH_UNIT ( ) NAMED_UNIT ( * ) SI_UNIT ( .MILLI., .METRE. ) );
#121 = FACE_OUTER_BOUND ( 'NONE', #426, .T. ) ;
#122 = ADVANCED_FACE ( 'NONE', ( #121 ), #517, .T. ) ;
#123 = AXIS2_PLACEMENT_3D ( 'NONE', #267, #275, #108 ) ;
#124 = ORIENTED_EDGE ( 'NONE', *, *, #195, .T. ) ;
#125 =( NAMED_UNIT ( * ) PLANE_ANGLE_UNIT ( ) SI_UNIT ( $, .RADIAN. ) );
#126 = CIRCLE ( 'NONE', #320, 3.180000000000007709 ) ;
#127 = ORIENTED_EDGE ( 'NONE', *, *, #199, .T. ) ;
#128 = EDGE_LOOP ( 'NONE', ( #241, #359, #104, #438 ) ) ;
#129 = SURFACE_SIDE_STYLE ('',( #180 ) ) ;
#130 = LINE ( 'NONE', #524, #395 ) ;
#131 = EDGE_LOOP ( 'NONE', ( #380, #44, #133, #344 ) ) ;
#132 = DIRECTION ( 'NONE',  ( 0.000000000000000000, 0.000000000000000000, 1.000000000000000000 ) ) ;
#133 = ORIENTED_EDGE ( 'NONE', *, *, #499, .F. ) ;
#134 = AXIS2_PLACEMENT_3D ( 'NONE', #548, #242, #118 ) ;
#135 = AXIS2_PLACEMENT_3D ( 'NONE', #115, #152, #322 ) ;
#136 = CARTESIAN_POINT ( 'NONE',  ( 3.770775086725120391E-13, 48.50000000000055422, -4.000000000000010658 ) ) ;
#137 = ORIENTED_EDGE ( 'NONE', *, *, #205, .F. ) ;
#138 = DIRECTION ( 'NONE',  ( 0.000000000000000000, 0.000000000000000000, -1.000000000000000000 ) ) ;
#139 = ADVANCED_BREP_SHAPE_REPRESENTATION ( '99688-SI06-06+S9MT06T1-142', ( #306, #264 ), #353 ) ;
#140 = DIRECTION ( 'NONE',  ( 0.000000000000000000, 0.000000000000000000, 1.000000000000000000 ) ) ;
#141 = ORIENTED_EDGE ( 'NONE', *, *, #422, .T. ) ;
#142 = DIRECTION ( 'NONE',  ( -0.000000000000000000, 1.000000000000000000, -0.000000000000000000 ) ) ;
#143 = AXIS2_PLACEMENT_3D ( 'NONE', #71, #416, #512 ) ;
#144 = LINE ( 'NONE', #219, #232 ) ;
#145 = CONICAL_SURFACE ( 'NONE', #339, 3.000000000000021760, 0.7853981633974277399 ) ;
#146 = CARTESIAN_POINT ( 'NONE',  ( 3.769881094561742782E-13, 21.39607695154640510, -3.180000000000007709 ) ) ;
#147 = CARTESIAN_POINT ( 'NONE',  ( 3.765876499528530985E-13, 21.40000000000054570, 4.000000000000000000 ) ) ;
#148 = CARTESIAN_POINT ( 'NONE',  ( 3.765876499528530985E-13, 48.50000000000056843, -2.799999999999954969 ) ) ;
#149 = VECTOR ( 'NONE', #53, 1000.000000000000000 ) ;
#150 = DIRECTION ( 'NONE',  ( 0.000000000000000000, -0.000000000000000000, -1.000000000000000000 ) ) ;
#151 = DIRECTION ( 'NONE',  ( -0.000000000000000000, 1.000000000000000000, -0.000000000000000000 ) ) ;
#152 = DIRECTION ( 'NONE',  ( -0.000000000000000000, 1.000000000000000000, -0.000000000000000000 ) ) ;
#153 = CARTESIAN_POINT ( 'NONE',  ( 3.765876499528530985E-13, 48.50000000000055422, 4.000000000000010658 ) ) ;
#154 = AXIS2_PLACEMENT_3D ( 'NONE', #83, #253, #39 ) ;
#155 = FILL_AREA_STYLE_COLOUR ( '', #444 ) ;
#156 = EDGE_CURVE ( 'NONE', #185, #164, #268, .T. ) ;
#157 =( NAMED_UNIT ( * ) SI_UNIT ( $, .STERADIAN. ) SOLID_ANGLE_UNIT ( ) );
#158 = DIRECTION ( 'NONE',  ( 0.000000000000000000, 0.000000000000000000, -1.000000000000000000 ) ) ;
#159 = CARTESIAN_POINT ( 'NONE',  ( 3.765876499528530985E-13, 21.39607695154640510, 0.000000000000000000 ) ) ;
#160 = FILL_AREA_STYLE ('',( #462 ) ) ;
#161 = AXIS2_PLACEMENT_3D ( 'NONE', #374, #362, #498 ) ;
#162 = AXIS2_PLACEMENT_3D ( 'NONE', #496, #142, #311 ) ;
#163 = ADVANCED_FACE ( 'NONE', ( #401 ), #452, .T. ) ;
#164 = VERTEX_POINT ( 'NONE', #49 ) ;
#165 = EDGE_CURVE ( 'NONE', #342, #514, #126, .T. ) ;
#166 = UNCERTAINTY_MEASURE_WITH_UNIT (LENGTH_MEASURE( 1.000000000000000082E-05 ), #120, 'distance_accuracy_value', 'NONE');
#167 = CARTESIAN_POINT ( 'NONE',  ( 3.765876499528530985E-13, 48.30000000000049454, 0.000000000000000000 ) ) ;
#168 = EDGE_LOOP ( 'NONE', ( #42, #11 ) ) ;
#169 = EDGE_CURVE ( 'NONE', #473, #522, #78, .T. ) ;
#170 = AXIS2_PLACEMENT_3D ( 'NONE', #409, #109, #508 ) ;
#171 = AXIS2_PLACEMENT_3D ( 'NONE', #408, #443, #497 ) ;
#172 = VERTEX_POINT ( 'NONE', #316 ) ;
#173 = ADVANCED_FACE ( 'NONE', ( #450 ), #329, .T. ) ;
#174 = ORIENTED_EDGE ( 'NONE', *, *, #463, .T. ) ;
#175 = LINE ( 'NONE', #478, #347 ) ;
#176 = EDGE_LOOP ( 'NONE', ( #95, #201, #141, #467 ) ) ;
#177 = STYLED_ITEM ( 'NONE', ( #331 ), #139 ) ;
#178 = DIRECTION ( 'NONE',  ( -0.000000000000000000, 1.000000000000000000, -0.000000000000000000 ) ) ;
#179 = ORIENTED_EDGE ( 'NONE', *, *, #434, .T. ) ;
#180 = SURFACE_STYLE_FILL_AREA ( #576 ) ;
#181 = CIRCLE ( 'NONE', #89, 2.999999999997769340 ) ;
#182 = PRESENTATION_LAYER_ASSIGNMENT (  '', '', ( #510 ) ) ;
#183 = DIRECTION ( 'NONE',  ( 1.224646799146164739E-16, 0.000000000000000000, -1.000000000000000000 ) ) ;
#184 = DIRECTION ( 'NONE',  ( -0.000000000000000000, 1.000000000000000000, -0.000000000000000000 ) ) ;
#185 = VERTEX_POINT ( 'NONE', #308 ) ;
#186 = CARTESIAN_POINT ( 'NONE',  ( 3.765876499528530985E-13, 21.50000000000054001, 3.359999999999992326 ) ) ;
#187 = DIRECTION ( 'NONE',  ( -0.000000000000000000, 1.000000000000000000, -0.000000000000000000 ) ) ;
#188 = CARTESIAN_POINT ( 'NONE',  ( 3.765876499528530985E-13, 8.708218385331381484, 0.000000000000000000 ) ) ;
#189 = ADVANCED_FACE ( 'NONE', ( #323 ), #518, .T. ) ;
#190 = ORIENTED_EDGE ( 'NONE', *, *, #235, .T. ) ;
#191 = CIRCLE ( 'NONE', #258, 3.000000000000014211 ) ;
#192 = DIRECTION ( 'NONE',  ( -0.000000000000000000, 1.000000000000000000, -0.000000000000000000 ) ) ;
#193 =( NAMED_UNIT ( * ) PLANE_ANGLE_UNIT ( ) SI_UNIT ( $, .RADIAN. ) );
#194 = FILL_AREA_STYLE_COLOUR ( '', #501 ) ;
#195 = EDGE_CURVE ( 'NONE', #514, #342, #338, .T. ) ;
#196 = AXIS2_PLACEMENT_3D ( 'NONE', #208, #457, #248 ) ;
#197 = DIRECTION ( 'NONE',  ( -0.000000000000000000, 1.000000000000000000, -0.000000000000000000 ) ) ;
#198 = CARTESIAN_POINT ( 'NONE',  ( 3.765876499528530985E-13, 48.50000000000055422, 0.000000000000000000 ) ) ;
#199 = EDGE_CURVE ( 'NONE', #84, #213, #543, .T. ) ;
#200 = LINE ( 'NONE', #419, #279 ) ;
#201 = ORIENTED_EDGE ( 'NONE', *, *, #165, .F. ) ;
#202 = LINE ( 'NONE', #77, #47 ) ;
#203 = DIRECTION ( 'NONE',  ( 0.000000000000000000, 0.000000000000000000, -1.000000000000000000 ) ) ;
#204 = CARTESIAN_POINT ( 'NONE',  ( 3.765876499528530985E-13, 1.532982839868433977, 0.000000000000000000 ) ) ;
#205 = EDGE_CURVE ( 'NONE', #294, #528, #385, .T. ) ;
#206 = VERTEX_POINT ( 'NONE', #16 ) ;
#207 = APPLICATION_CONTEXT ( 'automotive_design' ) ;
#208 = CARTESIAN_POINT ( 'NONE',  ( 3.764349942869671395E-13, 21.50000000000054001, 0.000000000000000000 ) ) ;
#209 = AXIS2_PLACEMENT_3D ( 'NONE', #26, #65, #330 ) ;
#210 = CONICAL_SURFACE ( 'NONE', #459, 2904.210877675865959, 1.239183768915978590 ) ;
#211 = ORIENTED_EDGE ( 'NONE', *, *, #391, .T. ) ;
#212 = ORIENTED_EDGE ( 'NONE', *, *, #566, .F. ) ;
#213 = VERTEX_POINT ( 'NONE', #456 ) ;
#214 = UNCERTAINTY_MEASURE_WITH_UNIT (LENGTH_MEASURE( 1.000000000000000082E-05 ), #119, 'distance_accuracy_value', 'NONE');
#215 = EDGE_CURVE ( 'NONE', #76, #256, #52, .T. ) ;
#216 = VECTOR ( 'NONE', #184, 1000.000000000000000 ) ;
#217 =( GEOMETRIC_REPRESENTATION_CONTEXT ( 3 ) GLOBAL_UNCERTAINTY_ASSIGNED_CONTEXT ( ( #166 ) ) GLOBAL_UNIT_ASSIGNED_CONTEXT ( ( #120, #283, #157 ) ) REPRESENTATION_CONTEXT ( 'NONE', 'WORKASPACE' ) );
#218 = CARTESIAN_POINT ( 'NONE',  ( 3.769991312773665945E-13, 21.50000000000054001, -3.359999999999992326 ) ) ;
#219 = CARTESIAN_POINT ( 'NONE',  ( 3.765876499528530985E-13, 0.5000000000002293721, -2.059984127722458425E-15 ) ) ;
#220 = ADVANCED_FACE ( 'NONE', ( #244 ), #531, .T. ) ;
#221 = EDGE_CURVE ( 'NONE', #84, #428, #413, .T. ) ;
#222 = CARTESIAN_POINT ( 'NONE',  ( 3.765876499528530985E-13, 48.50000000000055422, 0.000000000000000000 ) ) ;
#223 = DIRECTION ( 'NONE',  ( 0.000000000000000000, 0.000000000000000000, 1.000000000000000000 ) ) ;
#224 = SHAPE_DEFINITION_REPRESENTATION ( #474, #139 ) ;
#225 = ORIENTED_EDGE ( 'NONE', *, *, #169, .T. ) ;
#226 = CARTESIAN_POINT ( 'NONE',  ( 3.765876499528530985E-13, 48.30000000000049454, 0.000000000000000000 ) ) ;
#227 = CYLINDRICAL_SURFACE ( 'NONE', #250, 3.000000000000018208 ) ;
#228 = EDGE_CURVE ( 'NONE', #473, #342, #432, .T. ) ;
#229 = DIRECTION ( 'NONE',  ( -0.000000000000000000, 1.000000000000000000, -0.000000000000000000 ) ) ;
#230 = CARTESIAN_POINT ( 'NONE',  ( 3.765876499528530985E-13, 21.50000000000054001, 3.359999999999992326 ) ) ;
#231 = CARTESIAN_POINT ( 'NONE',  ( 3.765876499528530985E-13, 0.5000000000002293721, 2.059984127722458425E-15 ) ) ;
#232 = VECTOR ( 'NONE', #15, 1000.000000000000000 ) ;
#233 = SURFACE_STYLE_USAGE ( .BOTH. , #236 ) ;
#234 = CIRCLE ( 'NONE', #251, 3.000000000000021760 ) ;
#235 = EDGE_CURVE ( 'NONE', #185, #172, #200, .T. ) ;
#236 = SURFACE_SIDE_STYLE ('',( #18 ) ) ;
#237 = SURFACE_STYLE_USAGE ( .BOTH. , #31 ) ;
#238 = LINE ( 'NONE', #17, #358 ) ;
#239 = DIRECTION ( 'NONE',  ( -0.000000000000000000, 1.000000000000000000, -0.000000000000000000 ) ) ;
#240 = PRESENTATION_STYLE_ASSIGNMENT (( #233 ) ) ;
#241 = ORIENTED_EDGE ( 'NONE', *, *, #199, .F. ) ;
#242 = DIRECTION ( 'NONE',  ( -0.000000000000000000, 1.000000000000000000, -0.000000000000000000 ) ) ;
#243 = STYLED_ITEM ( 'NONE', ( #345 ), #306 ) ;
#244 = FACE_OUTER_BOUND ( 'NONE', #128, .T. ) ;
#245 = PRODUCT_RELATED_PRODUCT_CATEGORY ( 'part', '', ( #298 ) ) ;
#246 = ORIENTED_EDGE ( 'NONE', *, *, #195, .F. ) ;
#247 = ORIENTED_EDGE ( 'NONE', *, *, #352, .F. ) ;
#248 = DIRECTION ( 'NONE',  ( 0.000000000000000000, 0.000000000000000000, 1.000000000000000000 ) ) ;
#249 = EDGE_LOOP ( 'NONE', ( #415, #3, #255, #137 ) ) ;
#250 = AXIS2_PLACEMENT_3D ( 'NONE', #389, #400, #45 ) ;
#251 = AXIS2_PLACEMENT_3D ( 'NONE', #167, #336, #297 ) ;
#252 = ORIENTED_EDGE ( 'NONE', *, *, #417, .F. ) ;
#253 = DIRECTION ( 'NONE',  ( -0.000000000000000000, 1.000000000000000000, -0.000000000000000000 ) ) ;
#254 = ADVANCED_FACE ( 'NONE', ( #502 ), #23, .F. ) ;
#255 = ORIENTED_EDGE ( 'NONE', *, *, #398, .T. ) ;
#256 = VERTEX_POINT ( 'NONE', #461 ) ;
#257 = FACE_OUTER_BOUND ( 'NONE', #28, .T. ) ;
#258 = AXIS2_PLACEMENT_3D ( 'NONE', #544, #56, #399 ) ;
#259 = PLANE ( 'NONE',  #423 ) ;
#260 = ADVANCED_FACE ( 'NONE', ( #407 ), #210, .T. ) ;
#261 = PRODUCT_CONTEXT ( 'NONE', #207, 'mechanical' ) ;
#262 = CARTESIAN_POINT ( 'NONE',  ( 3.765876499528530985E-13, 48.50000000000055422, 0.000000000000000000 ) ) ;
#263 = ORIENTED_EDGE ( 'NONE', *, *, #235, .F. ) ;
#264 = AXIS2_PLACEMENT_3D ( 'NONE', #393, #523, #88 ) ;
#265 = ORIENTED_EDGE ( 'NONE', *, *, #165, .T. ) ;
#266 = ORIENTED_EDGE ( 'NONE', *, *, #520, .T. ) ;
#267 = CARTESIAN_POINT ( 'NONE',  ( 3.765876499528530985E-13, 21.40000000000054570, 0.000000000000000000 ) ) ;
#268 = CIRCLE ( 'NONE', #290, 3.900000000000012790 ) ;
#269 = MECHANICAL_DESIGN_GEOMETRIC_PRESENTATION_REPRESENTATION (  '', ( #394 ), #12 ) ;
#270 = EDGE_LOOP ( 'NONE', ( #530, #82 ) ) ;
#271 = CARTESIAN_POINT ( 'NONE',  ( 3.765876499528530985E-13, 5.900000000002222578, 2.999999999997769340 ) ) ;
#272 = DIRECTION ( 'NONE',  ( 0.000000000000000000, 0.000000000000000000, 1.000000000000000000 ) ) ;
#273 = EDGE_CURVE ( 'NONE', #397, #488, #387, .T. ) ;
#274 = DIRECTION ( 'NONE',  ( -0.000000000000000000, 1.000000000000000000, -0.000000000000000000 ) ) ;
#275 = DIRECTION ( 'NONE',  ( -0.000000000000000000, 1.000000000000000000, -0.000000000000000000 ) ) ;
#276 = PRESENTATION_LAYER_ASSIGNMENT (  '', '', ( #177 ) ) ;
#277 = FACE_OUTER_BOUND ( 'NONE', #341, .T. ) ;
#278 = FILL_AREA_STYLE ('',( #155 ) ) ;
#279 = VECTOR ( 'NONE', #370, 999.9999999999998863 ) ;
#280 = CARTESIAN_POINT ( 'NONE',  ( 3.765876499528530985E-13, 48.50000000000056133, 0.000000000000000000 ) ) ;
#281 = DIRECTION ( 'NONE',  ( 8.659560562354708526E-17, -0.7071067811865658914, 0.7071067811865292541 ) ) ;
#282 = PRODUCT_DEFINITION ( 'UNKNOWN', '', #22, #527 ) ;
#283 =( NAMED_UNIT ( * ) PLANE_ANGLE_UNIT ( ) SI_UNIT ( $, .RADIAN. ) );
#284 = DIRECTION ( 'NONE',  ( -0.000000000000000000, 1.000000000000000000, -0.000000000000000000 ) ) ;
#285 = CIRCLE ( 'NONE', #123, 4.000000000000000000 ) ;
#286 = ORIENTED_EDGE ( 'NONE', *, *, #520, .F. ) ;
#287 = CARTESIAN_POINT ( 'NONE',  ( 3.765876499528530985E-13, 5.900000000002222578, 0.000000000000000000 ) ) ;
#288 = DIRECTION ( 'NONE',  ( -0.000000000000000000, 1.000000000000000000, -0.000000000000000000 ) ) ;
#289 = ORIENTED_EDGE ( 'NONE', *, *, #102, .F. ) ;
#290 = AXIS2_PLACEMENT_3D ( 'NONE', #93, #274, #486 ) ;
#291 = DIRECTION ( 'NONE',  ( 0.000000000000000000, -1.000000000000000000, 0.000000000000000000 ) ) ;
#292 = DIRECTION ( 'NONE',  ( -0.000000000000000000, 1.000000000000000000, -0.000000000000000000 ) ) ;
#293 =( NAMED_UNIT ( * ) PLANE_ANGLE_UNIT ( ) SI_UNIT ( $, .RADIAN. ) );
#294 = VERTEX_POINT ( 'NONE', #113 ) ;
#295 =( NAMED_UNIT ( * ) SI_UNIT ( $, .STERADIAN. ) SOLID_ANGLE_UNIT ( ) );
#296 = VECTOR ( 'NONE', #404, 1000.000000000000000 ) ;
#297 = DIRECTION ( 'NONE',  ( 0.000000000000000000, 0.000000000000000000, 1.000000000000000000 ) ) ;
#298 = PRODUCT ( '99688-SI06-06+S9MT06T1-142', '99688-SI06-06+S9MT06T1-142', '', ( #261 ) ) ;
#299 = EDGE_CURVE ( 'NONE', #164, #185, #35, .T. ) ;
#300 = EDGE_LOOP ( 'NONE', ( #429, #127, #534, #516 ) ) ;
#301 = DIRECTION ( 'NONE',  ( -0.000000000000000000, 1.000000000000000000, -0.000000000000000000 ) ) ;
#302 = ORIENTED_EDGE ( 'NONE', *, *, #552, .T. ) ;
#303 = CIRCLE ( 'NONE', #98, 2.999999999997748024 ) ;
#304 = EDGE_LOOP ( 'NONE', ( #485, #174, #30, #263 ) ) ;
#305 = AXIS2_PLACEMENT_3D ( 'NONE', #58, #448, #96 ) ;
#306 = MANIFOLD_SOLID_BREP ( '±ÛÂà1', #357 ) ;
#307 = FILL_AREA_STYLE_COLOUR ( '', #539 ) ;
#308 = CARTESIAN_POINT ( 'NONE',  ( 3.765876499528530985E-13, 21.50000000000054001, -3.900000000000012790 ) ) ;
#309 = DIRECTION ( 'NONE',  ( -0.000000000000000000, 1.000000000000000000, -0.000000000000000000 ) ) ;
#310 = ORIENTED_EDGE ( 'NONE', *, *, #228, .F. ) ;
#311 = DIRECTION ( 'NONE',  ( 0.000000000000000000, 0.000000000000000000, 1.000000000000000000 ) ) ;
#312 = CIRCLE ( 'NONE', #162, 4.000000000000000000 ) ;
#313 = FACE_OUTER_BOUND ( 'NONE', #337, .T. ) ;
#314 = CARTESIAN_POINT ( 'NONE',  ( 3.770775086725120391E-13, 21.40000000000054570, 4.000000000000000000 ) ) ;
#315 = ORIENTED_EDGE ( 'NONE', *, *, #434, .F. ) ;
#316 = CARTESIAN_POINT ( 'NONE',  ( 3.770775086725120391E-13, 21.40000000000054570, -4.000000000000000000 ) ) ;
#317 = LINE ( 'NONE', #101, #568 ) ;
#318 = EDGE_CURVE ( 'NONE', #397, #294, #175, .T. ) ;
#319 = CARTESIAN_POINT ( 'NONE',  ( 3.769550439925970263E-13, 5.900000000002222578, -2.999999999997769784 ) ) ;
#320 = AXIS2_PLACEMENT_3D ( 'NONE', #350, #187, #223 ) ;
#321 = CONICAL_SURFACE ( 'NONE', #154, 3.359999999999992326, 1.047197551196549004 ) ;
#322 = DIRECTION ( 'NONE',  ( 0.000000000000000000, 0.000000000000000000, 1.000000000000000000 ) ) ;
#323 = FACE_OUTER_BOUND ( 'NONE', #131, .T. ) ;
#324 = EDGE_CURVE ( 'NONE', #514, #256, #87, .T. ) ;
#325 = VECTOR ( 'NONE', #114, 1000.000000000000000 ) ;
#326 = ORIENTED_EDGE ( 'NONE', *, *, #529, .F. ) ;
#327 =( NAMED_UNIT ( * ) SI_UNIT ( $, .STERADIAN. ) SOLID_ANGLE_UNIT ( ) );
#328 = ADVANCED_FACE ( 'NONE', ( #257 ), #526, .T. ) ;
#329 = CONICAL_SURFACE ( 'NONE', #24, 4.000000000000000000, 0.7853981633974222998 ) ;
#330 = DIRECTION ( 'NONE',  ( 0.000000000000000000, 0.000000000000000000, 1.000000000000000000 ) ) ;
#331 = PRESENTATION_STYLE_ASSIGNMENT (( #334 ) ) ;
#332 = ORIENTED_EDGE ( 'NONE', *, *, #386, .F. ) ;
#333 = ORIENTED_EDGE ( 'NONE', *, *, #228, .T. ) ;
#334 = SURFACE_STYLE_USAGE ( .BOTH. , #72 ) ;
#335 = ORIENTED_EDGE ( 'NONE', *, *, #499, .T. ) ;
#336 = DIRECTION ( 'NONE',  ( -0.000000000000000000, 1.000000000000000000, -0.000000000000000000 ) ) ;
#337 = EDGE_LOOP ( 'NONE', ( #332, #565, #179, #326 ) ) ;
#338 = CIRCLE ( 'NONE', #567, 3.180000000000007709 ) ;
#339 = AXIS2_PLACEMENT_3D ( 'NONE', #226, #62, #493 ) ;
#340 = ORIENTED_EDGE ( 'NONE', *, *, #27, .F. ) ;
#341 = EDGE_LOOP ( 'NONE', ( #252, #569, #124, #310 ) ) ;
#342 = VERTEX_POINT ( 'NONE', #381 ) ;
#343 = ORIENTED_EDGE ( 'NONE', *, *, #373, .F. ) ;
#344 = ORIENTED_EDGE ( 'NONE', *, *, #398, .F. ) ;
#345 = PRESENTATION_STYLE_ASSIGNMENT (( #427 ) ) ;
#346 = AXIS2_PLACEMENT_3D ( 'NONE', #287, #239, #369 ) ;
#347 = VECTOR ( 'NONE', #92, 1000.000000000000000 ) ;
#348 = VERTEX_POINT ( 'NONE', #563 ) ;
#349 = FACE_OUTER_BOUND ( 'NONE', #537, .T. ) ;
#350 = CARTESIAN_POINT ( 'NONE',  ( 3.765876499528530985E-13, 21.39607695154640510, 0.000000000000000000 ) ) ;
#351 = DIRECTION ( 'NONE',  ( -0.000000000000000000, 1.000000000000000000, -0.000000000000000000 ) ) ;
#352 = EDGE_CURVE ( 'NONE', #213, #206, #234, .T. ) ;
#353 =( GEOMETRIC_REPRESENTATION_CONTEXT ( 3 ) GLOBAL_UNCERTAINTY_ASSIGNED_CONTEXT ( ( #48 ) ) GLOBAL_UNIT_ASSIGNED_CONTEXT ( ( #116, #67, #295 ) ) REPRESENTATION_CONTEXT ( 'NONE', 'WORKASPACE' ) );
#354 = ORIENTED_EDGE ( 'NONE', *, *, #532, .F. ) ;
#355 = DIRECTION ( 'NONE',  ( -0.000000000000000000, 1.000000000000000000, -0.000000000000000000 ) ) ;
#356 = DIRECTION ( 'NONE',  ( -0.000000000000000000, 1.000000000000000000, -0.000000000000000000 ) ) ;
#357 = CLOSED_SHELL ( 'NONE', ( #97, #475, #363, #573, #494, #189, #328, #117, #379, #220, #254, #260, #73, #163, #122, #173, #19, #572, #540, #10 ) ) ;
#358 = VECTOR ( 'NONE', #6, 1000.000000000000000 ) ;
#359 = ORIENTED_EDGE ( 'NONE', *, *, #55, .F. ) ;
#360 = APPLICATION_CONTEXT ( 'automotive_design' ) ;
#361 = DIRECTION ( 'NONE',  ( 0.000000000000000000, 0.000000000000000000, 1.000000000000000000 ) ) ;
#362 = DIRECTION ( 'NONE',  ( -0.000000000000000000, 1.000000000000000000, -0.000000000000000000 ) ) ;
#363 = ADVANCED_FACE ( 'NONE', ( #471 ), #321, .F. ) ;
#364 = FILL_AREA_STYLE ('',( #194 ) ) ;
#365 = FACE_OUTER_BOUND ( 'NONE', #300, .T. ) ;
#366 = COLOUR_RGB ( '',0.7921568627450980005, 0.8196078431372548767, 0.9333333333333333481 ) ;
#367 = DIRECTION ( 'NONE',  ( 0.000000000000000000, 0.000000000000000000, 1.000000000000000000 ) ) ;
#368 = CARTESIAN_POINT ( 'NONE',  ( 3.765876499528530985E-13, 48.50000000000055422, 2.999999999997758682 ) ) ;
#369 = DIRECTION ( 'NONE',  ( 0.000000000000000000, 0.000000000000000000, 1.000000000000000000 ) ) ;
#370 = DIRECTION ( 'NONE',  ( 0.000000000000000000, -0.7071067811865658914, -0.7071067811865292541 ) ) ;
#371 = EDGE_LOOP ( 'NONE', ( #420, #570, #333, #265 ) ) ;
#372 = LINE ( 'NONE', #153, #325 ) ;
#373 = EDGE_CURVE ( 'NONE', #256, #76, #433, .T. ) ;
#374 = CARTESIAN_POINT ( 'NONE',  ( 3.765876499528530985E-13, 1000.500000000000114, 0.000000000000000000 ) ) ;
#375 = DIRECTION ( 'NONE',  ( 0.000000000000000000, 0.000000000000000000, 1.000000000000000000 ) ) ;
#376 = ORIENTED_EDGE ( 'NONE', *, *, #463, .F. ) ;
#377 = ORIENTED_EDGE ( 'NONE', *, *, #273, .F. ) ;
#378 = CARTESIAN_POINT ( 'NONE',  ( 3.765876499528530985E-13, 21.40000000000054570, 0.000000000000000000 ) ) ;
#379 = ADVANCED_FACE ( 'NONE', ( #365 ), #145, .T. ) ;
#380 = ORIENTED_EDGE ( 'NONE', *, *, #27, .T. ) ;
#381 = CARTESIAN_POINT ( 'NONE',  ( 3.765876499528530985E-13, 21.39607695154640510, 3.180000000000007709 ) ) ;
#382 = AXIS2_PLACEMENT_3D ( 'NONE', #66, #229, #106 ) ;
#383 = ORIENTED_EDGE ( 'NONE', *, *, #554, .F. ) ;
#384 = DIRECTION ( 'NONE',  ( 0.000000000000000000, 0.000000000000000000, 1.000000000000000000 ) ) ;
#385 = CIRCLE ( 'NONE', #170, 4.000000000000022204 ) ;
#386 = EDGE_CURVE ( 'NONE', #522, #206, #130, .T. ) ;
#387 = CIRCLE ( 'NONE', #135, 2.999999999997769340 ) ;
#388 = VERTEX_POINT ( 'NONE', #107 ) ;
#389 = CARTESIAN_POINT ( 'NONE',  ( 3.765876499528530985E-13, 48.50000000000055422, 0.000000000000000000 ) ) ;
#390 = CARTESIAN_POINT ( 'NONE',  ( 3.765876499528530985E-13, 21.50000000000054001, 0.000000000000000000 ) ) ;
#391 = EDGE_CURVE ( 'NONE', #91, #388, #14, .T. ) ;
#392 = FACE_OUTER_BOUND ( 'NONE', #270, .T. ) ;
#393 = CARTESIAN_POINT ( 'NONE',  ( 0.000000000000000000, 0.000000000000000000, 0.000000000000000000 ) ) ;
#394 = STYLED_ITEM ( 'NONE', ( #240 ), #117 ) ;
#395 = VECTOR ( 'NONE', #351, 1000.000000000000000 ) ;
#396 = FACE_BOUND ( 'NONE', #521, .T. ) ;
#397 = VERTEX_POINT ( 'NONE', #319 ) ;
#398 = EDGE_CURVE ( 'NONE', #488, #528, #238, .T. ) ;
#399 = DIRECTION ( 'NONE',  ( 0.000000000000000000, 0.000000000000000000, 1.000000000000000000 ) ) ;
#400 = DIRECTION ( 'NONE',  ( -0.000000000000000000, 1.000000000000000000, -0.000000000000000000 ) ) ;
#401 = FACE_OUTER_BOUND ( 'NONE', #249, .T. ) ;
#402 = CYLINDRICAL_SURFACE ( 'NONE', #68, 4.000000000000010658 ) ;
#403 = CONICAL_SURFACE ( 'NONE', #476, 4.000000000000000000, 0.7853981633974222998 ) ;
#404 = DIRECTION ( 'NONE',  ( 0.000000000000000000, 0.3255681544571523145, 0.9455185755993182894 ) ) ;
#405 = AXIS2_PLACEMENT_3D ( 'NONE', #54, #178, #99 ) ;
#406 = MECHANICAL_DESIGN_GEOMETRIC_PRESENTATION_REPRESENTATION (  '', ( #243 ), #425 ) ;
#407 = FACE_OUTER_BOUND ( 'NONE', #442, .T. ) ;
#408 = CARTESIAN_POINT ( 'NONE',  ( 3.765876499528530985E-13, 1.532982839868433977, 0.000000000000000000 ) ) ;
#409 = CARTESIAN_POINT ( 'NONE',  ( 3.765876499528530985E-13, 8.708218385331381484, 0.000000000000000000 ) ) ;
#410 = CARTESIAN_POINT ( 'NONE',  ( 3.765876499528530985E-13, 48.30000000000049454, -3.000000000000021760 ) ) ;
#411 = DIRECTION ( 'NONE',  ( 0.000000000000000000, 0.000000000000000000, 1.000000000000000000 ) ) ;
#412 = DIRECTION ( 'NONE',  ( -0.000000000000000000, 1.000000000000000000, -0.000000000000000000 ) ) ;
#413 = CIRCLE ( 'NONE', #209, 2.799999999999954969 ) ;
#414 = PRESENTATION_LAYER_ASSIGNMENT (  '', '', ( #243 ) ) ;
#415 = ORIENTED_EDGE ( 'NONE', *, *, #318, .F. ) ;
#416 = DIRECTION ( 'NONE',  ( -1.000000000000000000, 0.000000000000000000, 0.000000000000000000 ) ) ;
#417 = EDGE_CURVE ( 'NONE', #522, #473, #191, .T. ) ;
#418 = ORIENTED_EDGE ( 'NONE', *, *, #102, .T. ) ;
#419 = CARTESIAN_POINT ( 'NONE',  ( 3.765876499528530985E-13, 21.40000000000054570, -4.000000000000000000 ) ) ;
#420 = ORIENTED_EDGE ( 'NONE', *, *, #37, .F. ) ;
#421 = ORIENTED_EDGE ( 'NONE', *, *, #455, .F. ) ;
#422 = EDGE_CURVE ( 'NONE', #342, #76, #542, .T. ) ;
#423 = AXIS2_PLACEMENT_3D ( 'NONE', #447, #2, #57 ) ;
#424 = ORIENTED_EDGE ( 'NONE', *, *, #422, .F. ) ;
#425 =( GEOMETRIC_REPRESENTATION_CONTEXT ( 3 ) GLOBAL_UNCERTAINTY_ASSIGNED_CONTEXT ( ( #472 ) ) GLOBAL_UNIT_ASSIGNED_CONTEXT ( ( #571, #125, #482 ) ) REPRESENTATION_CONTEXT ( 'NONE', 'WORKASPACE' ) );
#426 = EDGE_LOOP ( 'NONE', ( #525, #575, #302, #421 ) ) ;
#427 = SURFACE_STYLE_USAGE ( .BOTH. , #129 ) ;
#428 = VERTEX_POINT ( 'NONE', #148 ) ;
#429 = ORIENTED_EDGE ( 'NONE', *, *, #221, .F. ) ;
#430 = ORIENTED_EDGE ( 'NONE', *, *, #566, .T. ) ;
#431 = CARTESIAN_POINT ( 'NONE',  ( 3.765876499528530985E-13, 48.50000000000055422, 0.000000000000000000 ) ) ;
#432 = CIRCLE ( 'NONE', #143, 0.1199999999999994404 ) ;
#433 = CIRCLE ( 'NONE', #79, 3.359999999999992326 ) ;
#434 = EDGE_CURVE ( 'NONE', #473, #213, #317, .T. ) ;
#435 = CARTESIAN_POINT ( 'NONE',  ( 3.768170840883011253E-13, 21.50000000000054001, -3.120000000000014317 ) ) ;
#436 = APPLICATION_PROTOCOL_DEFINITION ( 'draft international standard', 'automotive_design', 1998, #360 ) ;
#437 = DIRECTION ( 'NONE',  ( 0.000000000000000000, 0.000000000000000000, 1.000000000000000000 ) ) ;
#438 = ORIENTED_EDGE ( 'NONE', *, *, #529, .T. ) ;
#439 = DIRECTION ( 'NONE',  ( -0.000000000000000000, 1.000000000000000000, -0.000000000000000000 ) ) ;
#440 = CIRCLE ( 'NONE', #466, 4.000000000000022204 ) ;
#441 = CYLINDRICAL_SURFACE ( 'NONE', #110, 3.000000000000018208 ) ;
#442 = EDGE_LOOP ( 'NONE', ( #289, #266, #212 ) ) ;
#443 = DIRECTION ( 'NONE',  ( -0.000000000000000000, 1.000000000000000000, -0.000000000000000000 ) ) ;
#444 = COLOUR_RGB ( '',1.000000000000000000, 0.000000000000000000, 0.000000000000000000 ) ;
#445 = FACE_OUTER_BOUND ( 'NONE', #41, .T. ) ;
#446 = DIRECTION ( 'NONE',  ( -0.000000000000000000, 1.000000000000000000, -0.000000000000000000 ) ) ;
#447 = CARTESIAN_POINT ( 'NONE',  ( 3.360000000000368914, 21.50000000000054001, 0.000000000000000000 ) ) ;
#448 = DIRECTION ( 'NONE',  ( -0.000000000000000000, 1.000000000000000000, -0.000000000000000000 ) ) ;
#449 = CARTESIAN_POINT ( 'NONE',  ( 3.765876499528530985E-13, 21.50000000000054001, 3.000000000000014211 ) ) ;
#450 = FACE_OUTER_BOUND ( 'NONE', #50, .T. ) ;
#451 = LINE ( 'NONE', #410, #149 ) ;
#452 = CONICAL_SURFACE ( 'NONE', #305, 2.999999999997769340, 0.3420966728675769453 ) ;
#453 = VECTOR ( 'NONE', #46, 999.9999999999998863 ) ;
#454 = CARTESIAN_POINT ( 'NONE',  ( 3.765876499528530985E-13, 1000.500000000000114, 0.000000000000000000 ) ) ;
#455 = EDGE_CURVE ( 'NONE', #172, #5, #312, .T. ) ;
#456 = CARTESIAN_POINT ( 'NONE',  ( 3.769550439925972787E-13, 48.30000000000049454, 3.000000000000021760 ) ) ;
#457 = DIRECTION ( 'NONE',  ( -0.000000000000000000, 1.000000000000000000, -0.000000000000000000 ) ) ;
#458 = AXIS2_PLACEMENT_3D ( 'NONE', #511, #86, #80 ) ;
#459 = AXIS2_PLACEMENT_3D ( 'NONE', #454, #197, #367 ) ;
#460 = ORIENTED_EDGE ( 'NONE', *, *, #465, .F. ) ;
#461 = CARTESIAN_POINT ( 'NONE',  ( 3.769991312773665945E-13, 21.50000000000054001, -3.359999999999992326 ) ) ;
#462 = FILL_AREA_STYLE_COLOUR ( '', #366 ) ;
#463 = EDGE_CURVE ( 'NONE', #164, #5, #500, .T. ) ;
#464 = DIRECTION ( 'NONE',  ( 0.000000000000000000, 0.000000000000000000, 1.000000000000000000 ) ) ;
#465 = EDGE_CURVE ( 'NONE', #5, #172, #285, .T. ) ;
#466 = AXIS2_PLACEMENT_3D ( 'NONE', #188, #356, #538 ) ;
#467 = ORIENTED_EDGE ( 'NONE', *, *, #215, .T. ) ;
#468 = CARTESIAN_POINT ( 'NONE',  ( 3.765876499528530985E-13, 8.708218385331381484, 4.000000000000022204 ) ) ;
#469 = VECTOR ( 'NONE', #69, 1000.000000000000000 ) ;
#470 = EDGE_LOOP ( 'NONE', ( #246, #574, #81, #424 ) ) ;
#471 = FACE_OUTER_BOUND ( 'NONE', #470, .T. ) ;
#472 = UNCERTAINTY_MEASURE_WITH_UNIT (LENGTH_MEASURE( 1.000000000000000082E-05 ), #571, 'distance_accuracy_value', 'NONE');
#473 = VERTEX_POINT ( 'NONE', #449 ) ;
#474 = PRODUCT_DEFINITION_SHAPE ( 'NONE', 'NONE',  #282 ) ;
#475 = ADVANCED_FACE ( 'NONE', ( #277 ), #40, .F. ) ;
#476 = AXIS2_PLACEMENT_3D ( 'NONE', #378, #551, #158 ) ;
#477 = EDGE_LOOP ( 'NONE', ( #286, #418, #491 ) ) ;
#478 = CARTESIAN_POINT ( 'NONE',  ( 3.769550439925970263E-13, 5.900000000002222578, -2.999999999997769340 ) ) ;
#479 = APPLICATION_PROTOCOL_DEFINITION ( 'draft international standard', 'automotive_design', 1998, #207 ) ;
#480 = DIRECTION ( 'NONE',  ( 0.000000000000000000, 0.5000000000000421885, 0.8660254037844143937 ) ) ;
#481 = ORIENTED_EDGE ( 'NONE', *, *, #215, .F. ) ;
#482 =( NAMED_UNIT ( * ) SI_UNIT ( $, .STERADIAN. ) SOLID_ANGLE_UNIT ( ) );
#483 = VECTOR ( 'NONE', #281, 999.9999999999998863 ) ;
#484 = CARTESIAN_POINT ( 'NONE',  ( 3.765876499528530985E-13, 5.900000000002222578, 0.000000000000000000 ) ) ;
#485 = ORIENTED_EDGE ( 'NONE', *, *, #299, .F. ) ;
#486 = DIRECTION ( 'NONE',  ( 0.000000000000000000, 0.000000000000000000, 1.000000000000000000 ) ) ;
#487 = EDGE_CURVE ( 'NONE', #428, #206, #451, .T. ) ;
#488 = VERTEX_POINT ( 'NONE', #271 ) ;
#489 = CARTESIAN_POINT ( 'NONE',  ( 3.765876499528530985E-13, 21.50000000000054001, 0.000000000000000000 ) ) ;
#490 = CARTESIAN_POINT ( 'NONE',  ( 3.765876499528530985E-13, 1.532982839868433977, 2.999999999997748912 ) ) ;
#491 = ORIENTED_EDGE ( 'NONE', *, *, #391, .F. ) ;
#492 = CIRCLE ( 'NONE', #558, 0.1199999999999994404 ) ;
#493 = DIRECTION ( 'NONE',  ( 0.000000000000000000, 0.000000000000000000, -1.000000000000000000 ) ) ;
#494 = ADVANCED_FACE ( 'NONE', ( #21 ), #402, .T. ) ;
#495 = LINE ( 'NONE', #136, #216 ) ;
#496 = CARTESIAN_POINT ( 'NONE',  ( 3.765876499528530985E-13, 21.40000000000054570, 0.000000000000000000 ) ) ;
#497 = DIRECTION ( 'NONE',  ( 0.000000000000000000, 0.000000000000000000, 1.000000000000000000 ) ) ;
#498 = DIRECTION ( 'NONE',  ( 0.000000000000000000, 0.000000000000000000, 1.000000000000000000 ) ) ;
#499 = EDGE_CURVE ( 'NONE', #528, #294, #440, .T. ) ;
#500 = LINE ( 'NONE', #314, #483 ) ;
#501 = COLOUR_RGB ( '',1.000000000000000000, 0.000000000000000000, 0.000000000000000000 ) ;
#502 = FACE_OUTER_BOUND ( 'NONE', #168, .T. ) ;
#503 = CARTESIAN_POINT ( 'NONE',  ( 3.765876499528530985E-13, 21.50000000000054001, 0.000000000000000000 ) ) ;
#504 = FACE_OUTER_BOUND ( 'NONE', #477, .T. ) ;
#505 = CARTESIAN_POINT ( 'NONE',  ( 3.765876499528530985E-13, 48.30000000000049454, 0.000000000000000000 ) ) ;
#506 = FACE_OUTER_BOUND ( 'NONE', #371, .T. ) ;
#507 = CIRCLE ( 'NONE', #564, 3.000000000000021760 ) ;
#508 = DIRECTION ( 'NONE',  ( 0.000000000000000000, 0.000000000000000000, 1.000000000000000000 ) ) ;
#509 = CONICAL_SURFACE ( 'NONE', #161, 2904.210877675865959, 1.239183768915978590 ) ;
#510 = STYLED_ITEM ( 'NONE', ( #546 ), #260 ) ;
#511 = CARTESIAN_POINT ( 'NONE',  ( 3.765876499528530985E-13, 48.50000000000055422, 0.000000000000000000 ) ) ;
#512 = DIRECTION ( 'NONE',  ( 0.000000000000000000, 0.000000000000000000, 1.000000000000000000 ) ) ;
#513 = SURFACE_STYLE_FILL_AREA ( #160 ) ;
#514 = VERTEX_POINT ( 'NONE', #146 ) ;
#515 = AXIS2_PLACEMENT_3D ( 'NONE', #503, #32, #375 ) ;
#516 = ORIENTED_EDGE ( 'NONE', *, *, #487, .F. ) ;
#517 = CYLINDRICAL_SURFACE ( 'NONE', #458, 4.000000000000010658 ) ;
#518 = CONICAL_SURFACE ( 'NONE', #346, 2.999999999997769340, 0.3420966728675769453 ) ;
#519 = ORIENTED_EDGE ( 'NONE', *, *, #64, .T. ) ;
#520 = EDGE_CURVE ( 'NONE', #348, #91, #59, .T. ) ;
#521 = EDGE_LOOP ( 'NONE', ( #481, #343 ) ) ;
#522 = VERTEX_POINT ( 'NONE', #13 ) ;
#523 = DIRECTION ( 'NONE',  ( 0.000000000000000000, 0.000000000000000000, 1.000000000000000000 ) ) ;
#524 = CARTESIAN_POINT ( 'NONE',  ( 3.769550439925972787E-13, 48.50000000000055422, -3.000000000000018208 ) ) ;
#525 = ORIENTED_EDGE ( 'NONE', *, *, #64, .F. ) ;
#526 = CYLINDRICAL_SURFACE ( 'NONE', #105, 2.999999999997758682 ) ;
#527 = PRODUCT_DEFINITION_CONTEXT ( 'detailed design', #360, 'design' ) ;
#528 = VERTEX_POINT ( 'NONE', #468 ) ;
#529 = EDGE_CURVE ( 'NONE', #206, #213, #507, .T. ) ;
#530 = ORIENTED_EDGE ( 'NONE', *, *, #156, .T. ) ;
#531 = CONICAL_SURFACE ( 'NONE', #25, 3.000000000000021760, 0.7853981633974277399 ) ;
#532 = EDGE_CURVE ( 'NONE', #91, #488, #34, .T. ) ;
#533 = DIRECTION ( 'NONE',  ( -0.000000000000000000, 1.000000000000000000, -0.000000000000000000 ) ) ;
#534 = ORIENTED_EDGE ( 'NONE', *, *, #352, .T. ) ;
#535 = DIRECTION ( 'NONE',  ( -0.000000000000000000, 1.000000000000000000, -0.000000000000000000 ) ) ;
#536 = DIRECTION ( 'NONE',  ( 0.000000000000000000, 0.000000000000000000, 1.000000000000000000 ) ) ;
#537 = EDGE_LOOP ( 'NONE', ( #383, #430, #51, #377 ) ) ;
#538 = DIRECTION ( 'NONE',  ( 0.000000000000000000, 0.000000000000000000, 1.000000000000000000 ) ) ;
#539 = COLOUR_RGB ( '',0.7921568627450980005, 0.8196078431372548767, 0.9333333333333333481 ) ;
#540 = ADVANCED_FACE ( 'NONE', ( #506 ), #8, .F. ) ;
#541 = ORIENTED_EDGE ( 'NONE', *, *, #455, .T. ) ;
#542 = LINE ( 'NONE', #186, #90 ) ;
#543 = LINE ( 'NONE', #20, #469 ) ;
#544 = CARTESIAN_POINT ( 'NONE',  ( 3.765876499528530985E-13, 21.50000000000054001, 0.000000000000000000 ) ) ;
#545 = VECTOR ( 'NONE', #288, 1000.000000000000000 ) ;
#546 = PRESENTATION_STYLE_ASSIGNMENT (( #237 ) ) ;
#547 = AXIS2_PLACEMENT_3D ( 'NONE', #262, #535, #140 ) ;
#548 = CARTESIAN_POINT ( 'NONE',  ( 3.765876499528530985E-13, 21.50000000000054001, 0.000000000000000000 ) ) ;
#549 = FACE_OUTER_BOUND ( 'NONE', #176, .T. ) ;
#550 = SURFACE_STYLE_FILL_AREA ( #364 ) ;
#551 = DIRECTION ( 'NONE',  ( 0.000000000000000000, -1.000000000000000000, 0.000000000000000000 ) ) ;
#552 = EDGE_CURVE ( 'NONE', #528, #5, #372, .T. ) ;
#553 = MECHANICAL_DESIGN_GEOMETRIC_PRESENTATION_REPRESENTATION (  '', ( #177 ), #33 ) ;
#554 = EDGE_CURVE ( 'NONE', #388, #397, #202, .T. ) ;
#555 = DIRECTION ( 'NONE',  ( 0.000000000000000000, -1.000000000000000000, 0.000000000000000000 ) ) ;
#556 = CARTESIAN_POINT ( 'NONE',  ( 3.765876499528530985E-13, 48.30000000000049454, 0.000000000000000000 ) ) ;
#557 = UNCERTAINTY_MEASURE_WITH_UNIT (LENGTH_MEASURE( 1.000000000000000082E-05 ), #112, 'distance_accuracy_value', 'NONE');
#558 = AXIS2_PLACEMENT_3D ( 'NONE', #435, #103, #183 ) ;
#559 = AXIS2_PLACEMENT_3D ( 'NONE', #390, #301, #384 ) ;
#560 = EDGE_LOOP ( 'NONE', ( #335, #519, #460, #38 ) ) ;
#561 = ORIENTED_EDGE ( 'NONE', *, *, #386, .T. ) ;
#562 = ORIENTED_EDGE ( 'NONE', *, *, #554, .T. ) ;
#563 = CARTESIAN_POINT ( 'NONE',  ( 3.765876499528530985E-13, 0.5000000000002273737, 0.000000000000000000 ) ) ;
#564 = AXIS2_PLACEMENT_3D ( 'NONE', #556, #412, #464 ) ;
#565 = ORIENTED_EDGE ( 'NONE', *, *, #417, .T. ) ;
#566 = EDGE_CURVE ( 'NONE', #388, #91, #303, .T. ) ;
#567 = AXIS2_PLACEMENT_3D ( 'NONE', #159, #74, #411 ) ;
#568 = VECTOR ( 'NONE', #151, 1000.000000000000000 ) ;
#569 = ORIENTED_EDGE ( 'NONE', *, *, #37, .T. ) ;
#570 = ORIENTED_EDGE ( 'NONE', *, *, #169, .F. ) ;
#571 =( LENGTH_UNIT ( ) NAMED_UNIT ( * ) SI_UNIT ( .MILLI., .METRE. ) );
#572 = ADVANCED_FACE ( 'NONE', ( #549 ), #85, .F. ) ;
#573 = ADVANCED_FACE ( 'NONE', ( #70 ), #403, .T. ) ;
#574 = ORIENTED_EDGE ( 'NONE', *, *, #324, .T. ) ;
#575 = ORIENTED_EDGE ( 'NONE', *, *, #205, .T. ) ;
#576 = FILL_AREA_STYLE ('',( #307 ) ) ;
ENDSEC;
END-ISO-10303-21;
