ISO-10303-21;
HEADER;
FILE_DESCRIPTION (( 'STEP AP214' ),
    '1' );
FILE_NAME ('99688-SI10-M06+S9MT1003-120.STEP',
    '2023-09-26T05:46:00',
    ( '' ),
    ( '' ),
    'SwSTEP 2.0',
    'SolidWorks 2020',
    '' );
FILE_SCHEMA (( 'AUTOMOTIVE_DESIGN' ));
ENDSEC;

DATA;
#1 = ORIENTED_EDGE ( 'NONE', *, *, #748, .T. ) ;
#2 = DIRECTION ( 'NONE',  ( -4.495918367346943426E-15, 1.000000000000000000, -0.000000000000000000 ) ) ;
#3 = EDGE_CURVE ( 'NONE', #22, #48, #632, .T. ) ;
#4 = DIRECTION ( 'NONE',  ( -0.8660254037843965191, 0.5000000000000729417, 0.000000000000000000 ) ) ;
#5 = ORIENTED_EDGE ( 'NONE', *, *, #453, .T. ) ;
#6 = DIRECTION ( 'NONE',  ( -1.000000000000000000, -4.270088556250777024E-15, 0.000000000000000000 ) ) ;
#7 = EDGE_LOOP ( 'NONE', ( #535, #854, #573, #281 ) ) ;
#8 = DIRECTION ( 'NONE',  ( 0.000000000000000000, -0.000000000000000000, -1.000000000000000000 ) ) ;
#9 = DIRECTION ( 'NONE',  ( 4.495918367346943426E-15, -1.000000000000000000, 0.000000000000000000 ) ) ;
#10 = TOROIDAL_SURFACE ( 'NONE', #150, 3.049999999999950973, 0.7999999999999986011 ) ;
#11 = CIRCLE ( 'NONE', #122, 2.999999999999976019 ) ;
#12 = ORIENTED_EDGE ( 'NONE', *, *, #460, .T. ) ;
#13 = FACE_OUTER_BOUND ( 'NONE', #508, .T. ) ;
#14 = DIRECTION ( 'NONE',  ( -4.495918367346943426E-15, 1.000000000000000000, -0.000000000000000000 ) ) ;
#15 = COLOUR_RGB ( '',0.7921568627450980005, 0.8196078431372548767, 0.9333333333333333481 ) ;
#16 = ORIENTED_EDGE ( 'NONE', *, *, #606, .T. ) ;
#17 = CARTESIAN_POINT ( 'NONE',  ( -2.499999999999801936, 42.49999999999967315, 0.000000000000000000 ) ) ;
#18 = EDGE_LOOP ( 'NONE', ( #393, #757, #584, #375 ) ) ;
#19 = CARTESIAN_POINT ( 'NONE',  ( -2.203000000000000054E-13, 48.99999999999995026, 0.000000000000000000 ) ) ;
#20 = ADVANCED_FACE ( 'NONE', ( #477 ), #433, .F. ) ;
#21 = EDGE_CURVE ( 'NONE', #504, #29, #581, .T. ) ;
#22 = VERTEX_POINT ( 'NONE', #350 ) ;
#23 = CARTESIAN_POINT ( 'NONE',  ( -2.203000000000000054E-13, 48.99999999999995026, 0.000000000000000000 ) ) ;
#24 = DIRECTION ( 'NONE',  ( 4.495918367346943426E-15, -1.000000000000000000, 0.000000000000000000 ) ) ;
#25 = VECTOR ( 'NONE', #804, 1000.000000000000000 ) ;
#26 = CIRCLE ( 'NONE', #184, 0.7999999999999994893 ) ;
#27 = CARTESIAN_POINT ( 'NONE',  ( 5.000000000004783729, 2.886751345951512171, 6.123233995742640338E-16 ) ) ;
#28 = EDGE_CURVE ( 'NONE', #568, #598, #11, .T. ) ;
#29 = VERTEX_POINT ( 'NONE', #424 ) ;
#30 = CARTESIAN_POINT ( 'NONE',  ( 3.499999999999879208, 34.50000000000012079, 4.286263797015778010E-16 ) ) ;
#31 = DIRECTION ( 'NONE',  ( -1.000000000000000000, -3.760307770215682624E-15, 0.000000000000000000 ) ) ;
#32 = DIRECTION ( 'NONE',  ( -1.000000000000000000, -3.965082230804091960E-15, 0.000000000000000000 ) ) ;
#33 = ORIENTED_EDGE ( 'NONE', *, *, #597, .F. ) ;
#34 = ADVANCED_FACE ( 'NONE', ( #268 ), #139, .T. ) ;
#35 = CARTESIAN_POINT ( 'NONE',  ( -2.203000000000000054E-13, 48.99999999999995026, 0.000000000000000000 ) ) ;
#36 = DIRECTION ( 'NONE',  ( -0.4082482904632280252, 0.9128709291755608968, 0.000000000000000000 ) ) ;
#37 = ORIENTED_EDGE ( 'NONE', *, *, #698, .T. ) ;
#38 = DIRECTION ( 'NONE',  ( -4.495918367346943426E-15, 1.000000000000000000, -0.000000000000000000 ) ) ;
#39 = DIRECTION ( 'NONE',  ( -4.495918367346943426E-15, 1.000000000000000000, -0.000000000000000000 ) ) ;
#40 = CIRCLE ( 'NONE', #676, 5.999999999999919176 ) ;
#41 = CARTESIAN_POINT ( 'NONE',  ( -3.000000000000187406, 48.99999999999993605, 0.000000000000000000 ) ) ;
#42 = EDGE_LOOP ( 'NONE', ( #745, #470, #493, #811 ) ) ;
#43 = CARTESIAN_POINT ( 'NONE',  ( 3.067157287525097420, 35.31715728752541850, 3.756184354649283026E-16 ) ) ;
#44 = EDGE_CURVE ( 'NONE', #943, #838, #193, .T. ) ;
#45 = AXIS2_PLACEMENT_3D ( 'NONE', #699, #9, #621 ) ;
#46 = CARTESIAN_POINT ( 'NONE',  ( -4.614580050114497762E-14, 10.26393202249706249, 0.000000000000000000 ) ) ;
#47 = FACE_OUTER_BOUND ( 'NONE', #928, .T. ) ;
#48 = VERTEX_POINT ( 'NONE', #659 ) ;
#49 = DIRECTION ( 'NONE',  ( -4.495918367346943426E-15, 1.000000000000000000, -0.000000000000000000 ) ) ;
#50 = ADVANCED_FACE ( 'NONE', ( #809 ), #720, .T. ) ;
#51 = DIRECTION ( 'NONE',  ( -4.495918367346943426E-15, 1.000000000000000000, -0.000000000000000000 ) ) ;
#52 = CARTESIAN_POINT ( 'NONE',  ( -3.000000000000154543, 42.99999999999995026, 0.000000000000000000 ) ) ;
#53 = ORIENTED_EDGE ( 'NONE', *, *, #627, .F. ) ;
#54 = CARTESIAN_POINT ( 'NONE',  ( -1.587830561314664200E-13, 35.31715728752541139, 0.000000000000000000 ) ) ;
#55 = CONICAL_SURFACE ( 'NONE', #308, 1732.050807568522259, 1.047197551196509036 ) ;
#56 = AXIS2_PLACEMENT_3D ( 'NONE', #346, #436, #883 ) ;
#57 = DIRECTION ( 'NONE',  ( -4.495918367346943426E-15, 1.000000000000000000, -0.000000000000000000 ) ) ;
#58 = ORIENTED_EDGE ( 'NONE', *, *, #927, .T. ) ;
#59 = DIRECTION ( 'NONE',  ( -1.000000000000000000, -4.524641714416864339E-15, 0.000000000000000000 ) ) ;
#60 = CONICAL_SURFACE ( 'NONE', #201, 5.999999999999919176, 0.7853981633968628584 ) ;
#61 = AXIS2_PLACEMENT_3D ( 'NONE', #383, #306, #290 ) ;
#62 = CONICAL_SURFACE ( 'NONE', #884, 2.499999999999610534, 0.7853981633975181120 ) ;
#63 = CARTESIAN_POINT ( 'NONE',  ( 0.000000000000000000, 0.000000000000000000, 0.000000000000000000 ) ) ;
#64 = ORIENTED_EDGE ( 'NONE', *, *, #988, .F. ) ;
#65 = AXIS2_PLACEMENT_3D ( 'NONE', #437, #731, #578 ) ;
#66 = DIRECTION ( 'NONE',  ( -1.000000000000000000, -4.495918367346943426E-15, 0.000000000000000000 ) ) ;
#67 = SURFACE_STYLE_USAGE ( .BOTH. , #444 ) ;
#68 = EDGE_CURVE ( 'NONE', #152, #220, #382, .T. ) ;
#69 = ORIENTED_EDGE ( 'NONE', *, *, #554, .F. ) ;
#70 = DIRECTION ( 'NONE',  ( -1.000000000000000000, -4.163336342340336713E-15, 0.000000000000000000 ) ) ;
#71 = EDGE_CURVE ( 'NONE', #48, #22, #498, .T. ) ;
#72 = ORIENTED_EDGE ( 'NONE', *, *, #837, .T. ) ;
#73 = DIRECTION ( 'NONE',  ( -4.495918367346943426E-15, 1.000000000000000000, -0.000000000000000000 ) ) ;
#74 = CIRCLE ( 'NONE', #764, 2.749999999999971578 ) ;
#75 = VECTOR ( 'NONE', #791, 1000.000000000000000 ) ;
#76 = EDGE_CURVE ( 'NONE', #165, #202, #984, .T. ) ;
#77 = VERTEX_POINT ( 'NONE', #917 ) ;
#78 = CARTESIAN_POINT ( 'NONE',  ( -1.552389696574516786E-13, 34.52886751345948824, 0.000000000000000000 ) ) ;
#79 = DIRECTION ( 'NONE',  ( 0.7071067811861369012, -0.7071067811869582442, 0.000000000000000000 ) ) ;
#80 = ORIENTED_EDGE ( 'NONE', *, *, #898, .T. ) ;
#81 = CARTESIAN_POINT ( 'NONE',  ( 3.349999999999730527, 35.03431457505081426, 4.102566777143495723E-16 ) ) ;
#82 = DIRECTION ( 'NONE',  ( -1.000000000000000000, -3.083952846181038598E-15, 0.000000000000000000 ) ) ;
#83 = FACE_OUTER_BOUND ( 'NONE', #930, .T. ) ;
#84 = ORIENTED_EDGE ( 'NONE', *, *, #698, .F. ) ;
#85 = CARTESIAN_POINT ( 'NONE',  ( -1.574261554448952438E-13, 35.03431457505080004, 0.000000000000000000 ) ) ;
#86 = ORIENTED_EDGE ( 'NONE', *, *, #482, .T. ) ;
#87 = CARTESIAN_POINT ( 'NONE',  ( -1.910765306122436685E-13, 42.49999999999968736, 0.000000000000000000 ) ) ;
#88 = AXIS2_PLACEMENT_3D ( 'NONE', #54, #107, #746 ) ;
#89 = ORIENTED_EDGE ( 'NONE', *, *, #904, .F. ) ;
#90 = DIRECTION ( 'NONE',  ( -1.000000000000000000, 0.000000000000000000, 0.000000000000000000 ) ) ;
#91 = DIRECTION ( 'NONE',  ( -1.000000000000000000, -4.625929269271585507E-15, 0.000000000000000000 ) ) ;
#92 = CIRCLE ( 'NONE', #438, 3.249999999999887201 ) ;
#93 = EDGE_CURVE ( 'NONE', #304, #395, #926, .T. ) ;
#94 = ORIENTED_EDGE ( 'NONE', *, *, #28, .F. ) ;
#95 = DIRECTION ( 'NONE',  ( -1.000000000000000000, -4.510281037535357344E-15, 0.000000000000000000 ) ) ;
#96 = CARTESIAN_POINT ( 'NONE',  ( -1.884646380678488003E-13, 41.91905249806891476, 0.000000000000000000 ) ) ;
#97 = EDGE_CURVE ( 'NONE', #106, #320, #368, .T. ) ;
#98 = CARTESIAN_POINT ( 'NONE',  ( -1.297859839822680339E-14, 2.886751345951489522, 0.000000000000000000 ) ) ;
#99 = CYLINDRICAL_SURFACE ( 'NONE', #183, 5.999999999999870326 ) ;
#100 = AXIS2_PLACEMENT_3D ( 'NONE', #961, #889, #260 ) ;
#101 = AXIS2_PLACEMENT_3D ( 'NONE', #239, #629, #484 ) ;
#102 = DIRECTION ( 'NONE',  ( 1.000000000000000000, 0.000000000000000000, 1.224646799147353454E-16 ) ) ;
#103 = ADVANCED_FACE ( 'NONE', ( #543 ), #1001, .T. ) ;
#104 = DIRECTION ( 'NONE',  ( -4.495918367346943426E-15, 1.000000000000000000, -0.000000000000000000 ) ) ;
#105 = AXIS2_PLACEMENT_3D ( 'NONE', #974, #254, #273 ) ;
#106 = VERTEX_POINT ( 'NONE', #143 ) ;
#107 = DIRECTION ( 'NONE',  ( -4.495918367346943426E-15, 1.000000000000000000, -0.000000000000000000 ) ) ;
#108 = STYLED_ITEM ( 'NONE', ( #669 ), #952 ) ;
#109 = CARTESIAN_POINT ( 'NONE',  ( -1.820846938775514383E-13, 40.50000000000005684, 0.000000000000000000 ) ) ;
#110 = EDGE_LOOP ( 'NONE', ( #169, #819, #612, #831 ) ) ;
#111 = CARTESIAN_POINT ( 'NONE',  ( -2.203000000000000054E-13, 48.99999999999995026, 0.000000000000000000 ) ) ;
#112 = DIRECTION ( 'NONE',  ( -1.000000000000000000, -4.495918367346943426E-15, 0.000000000000000000 ) ) ;
#113 = DIRECTION ( 'NONE',  ( 1.000000000000000000, 4.495918367346943426E-15, 0.000000000000000000 ) ) ;
#114 = ORIENTED_EDGE ( 'NONE', *, *, #714, .F. ) ;
#115 = DIRECTION ( 'NONE',  ( -1.000000000000000000, -4.704334850106764019E-15, 0.000000000000000000 ) ) ;
#116 = EDGE_CURVE ( 'NONE', #914, #619, #387, .T. ) ;
#117 = CIRCLE ( 'NONE', #670, 2.949999999999894484 ) ;
#118 = DIRECTION ( 'NONE',  ( -1.000000000000000000, -5.551115123126647294E-15, 0.000000000000000000 ) ) ;
#119 = CONICAL_SURFACE ( 'NONE', #998, 3.067157287525256848, 0.7853981633972407783 ) ;
#120 = DIRECTION ( 'NONE',  ( -4.495918367346943426E-15, 1.000000000000000000, -0.000000000000000000 ) ) ;
#121 = VERTEX_POINT ( 'NONE', #756 ) ;
#122 = AXIS2_PLACEMENT_3D ( 'NONE', #355, #489, #173 ) ;
#123 = DIRECTION ( 'NONE',  ( -0.5000000000000125455, -0.8660254037844313801, 6.123233995736965716E-17 ) ) ;
#124 = ADVANCED_FACE ( 'NONE', ( #370 ), #685, .T. ) ;
#125 = FACE_OUTER_BOUND ( 'NONE', #501, .T. ) ;
#126 = PRESENTATION_STYLE_ASSIGNMENT (( #818 ) ) ;
#127 = ORIENTED_EDGE ( 'NONE', *, *, #821, .T. ) ;
#128 = DIRECTION ( 'NONE',  ( -4.495918367346943426E-15, 1.000000000000000000, -0.000000000000000000 ) ) ;
#129 = CARTESIAN_POINT ( 'NONE',  ( -3.500000000000186517, 34.50000000000009237, 0.000000000000000000 ) ) ;
#130 = EDGE_CURVE ( 'NONE', #309, #893, #140, .T. ) ;
#131 = FILL_AREA_STYLE_COLOUR ( '', #15 ) ;
#132 = ORIENTED_EDGE ( 'NONE', *, *, #457, .T. ) ;
#133 = CYLINDRICAL_SURFACE ( 'NONE', #553, 5.000000000004804157 ) ;
#134 = DIRECTION ( 'NONE',  ( 0.7071067811863975816, 0.7071067811866974528, 8.659560562353135734E-17 ) ) ;
#135 = EDGE_CURVE ( 'NONE', #619, #249, #294, .T. ) ;
#136 = ORIENTED_EDGE ( 'NONE', *, *, #710, .F. ) ;
#137 = DIRECTION ( 'NONE',  ( -4.495918367346943426E-15, 1.000000000000000000, -0.000000000000000000 ) ) ;
#138 = AXIS2_PLACEMENT_3D ( 'NONE', #23, #335, #159 ) ;
#139 = CONICAL_SURFACE ( 'NONE', #865, 5.000000000004812151, 0.4205343352832650039 ) ;
#140 = LINE ( 'NONE', #682, #861 ) ;
#141 = ORIENTED_EDGE ( 'NONE', *, *, #523, .F. ) ;
#142 = DIRECTION ( 'NONE',  ( 0.000000000000000000, -0.000000000000000000, -1.000000000000000000 ) ) ;
#143 = CARTESIAN_POINT ( 'NONE',  ( 3.249999999999758415, 34.35566243270262987, 4.133182947122284133E-16 ) ) ;
#144 = ORIENTED_EDGE ( 'NONE', *, *, #135, .T. ) ;
#145 = CYLINDRICAL_SURFACE ( 'NONE', #935, 2.949999999999890932 ) ;
#146 = EDGE_CURVE ( 'NONE', #943, #893, #947, .T. ) ;
#147 = EDGE_LOOP ( 'NONE', ( #782, #977 ) ) ;
#148 = CARTESIAN_POINT ( 'NONE',  ( -5.000000000004809486, 2.886751345951466874, 0.000000000000000000 ) ) ;
#149 = CIRCLE ( 'NONE', #528, 2.499999999999610534 ) ;
#150 = AXIS2_PLACEMENT_3D ( 'NONE', #702, #310, #624 ) ;
#151 = ORIENTED_EDGE ( 'NONE', *, *, #523, .T. ) ;
#152 = VERTEX_POINT ( 'NONE', #376 ) ;
#153 = LINE ( 'NONE', #937, #589 ) ;
#154 = VECTOR ( 'NONE', #822, 1000.000000000000000 ) ;
#155 = MECHANICAL_DESIGN_GEOMETRIC_PRESENTATION_REPRESENTATION (  '', ( #108 ), #205 ) ;
#156 = DIRECTION ( 'NONE',  ( -1.000000000000000000, -4.524641714416864339E-15, 0.000000000000000000 ) ) ;
#157 = VERTEX_POINT ( 'NONE', #313 ) ;
#158 = EDGE_CURVE ( 'NONE', #362, #152, #461, .T. ) ;
#159 = DIRECTION ( 'NONE',  ( -1.000000000000000000, -3.083952846181048065E-15, 0.000000000000000000 ) ) ;
#160 = ORIENTED_EDGE ( 'NONE', *, *, #146, .F. ) ;
#161 = DIRECTION ( 'NONE',  ( -4.495918367346943426E-15, 1.000000000000000000, -0.000000000000000000 ) ) ;
#162 = ORIENTED_EDGE ( 'NONE', *, *, #408, .T. ) ;
#163 = FACE_OUTER_BOUND ( 'NONE', #176, .T. ) ;
#164 = EDGE_CURVE ( 'NONE', #29, #479, #587, .T. ) ;
#165 = VERTEX_POINT ( 'NONE', #703 ) ;
#166 = DIRECTION ( 'NONE',  ( -1.000000000000000000, 0.000000000000000000, 0.000000000000000000 ) ) ;
#167 = AXIS2_PLACEMENT_3D ( 'NONE', #319, #403, #323 ) ;
#168 = AXIS2_PLACEMENT_3D ( 'NONE', #982, #797, #908 ) ;
#169 = ORIENTED_EDGE ( 'NONE', *, *, #408, .F. ) ;
#170 = DIRECTION ( 'NONE',  ( 0.7071067811865936470, 0.7071067811865014985, 8.659560562355538062E-17 ) ) ;
#171 = ORIENTED_EDGE ( 'NONE', *, *, #627, .T. ) ;
#172 = DIRECTION ( 'NONE',  ( -4.495918367346943426E-15, 1.000000000000000000, -0.000000000000000000 ) ) ;
#173 = DIRECTION ( 'NONE',  ( -1.000000000000000000, -4.625929269271522399E-15, 0.000000000000000000 ) ) ;
#174 = LINE ( 'NONE', #549, #75 ) ;
#175 = EDGE_CURVE ( 'NONE', #623, #29, #793, .T. ) ;
#176 = EDGE_LOOP ( 'NONE', ( #191, #521, #555, #795 ) ) ;
#177 = DIRECTION ( 'NONE',  ( 1.000000000000000000, 0.000000000000000000, 1.224646799147353454E-16 ) ) ;
#178 = EDGE_CURVE ( 'NONE', #619, #683, #778, .T. ) ;
#179 = CARTESIAN_POINT ( 'NONE',  ( 3.049999999999776001, 41.91905249806892186, 3.735172737399384252E-16 ) ) ;
#180 = CARTESIAN_POINT ( 'NONE',  ( -2.202999999999999802E-13, 48.99999999999994316, 0.000000000000000000 ) ) ;
#181 = ORIENTED_EDGE ( 'NONE', *, *, #635, .T. ) ;
#182 = CARTESIAN_POINT ( 'NONE',  ( 2.249999999999765077, 41.24161984870964659, 3.061616997868334823E-16 ) ) ;
#183 = AXIS2_PLACEMENT_3D ( 'NONE', #19, #236, #91 ) ;
#184 = AXIS2_PLACEMENT_3D ( 'NONE', #595, #142, #464 ) ;
#185 = AXIS2_PLACEMENT_3D ( 'NONE', #684, #761, #369 ) ;
#186 = FACE_OUTER_BOUND ( 'NONE', #538, .T. ) ;
#187 = EDGE_LOOP ( 'NONE', ( #472, #774, #579, #901 ) ) ;
#188 = CARTESIAN_POINT ( 'NONE',  ( -5.619897959179134418E-14, 12.49999999998989431, 0.000000000000000000 ) ) ;
#189 = DIRECTION ( 'NONE',  ( -4.495918367346943426E-15, 1.000000000000000000, -0.000000000000000000 ) ) ;
#190 = ADVANCED_FACE ( 'NONE', ( #792 ), #261, .T. ) ;
#191 = ORIENTED_EDGE ( 'NONE', *, *, #417, .F. ) ;
#192 = CARTESIAN_POINT ( 'NONE',  ( -1.552389696574516786E-13, 34.52886751345948824, 0.000000000000000000 ) ) ;
#193 = LINE ( 'NONE', #334, #247 ) ;
#194 = CARTESIAN_POINT ( 'NONE',  ( -3.067157287525415388, 35.31715728752539718, 0.000000000000000000 ) ) ;
#195 = CARTESIAN_POINT ( 'NONE',  ( -2.203000000000000054E-13, 48.99999999999995026, 0.000000000000000000 ) ) ;
#196 = ORIENTED_EDGE ( 'NONE', *, *, #21, .F. ) ;
#197 = CARTESIAN_POINT ( 'NONE',  ( -1.854189561769538882E-13, 41.24161984870963948, 0.000000000000000000 ) ) ;
#198 = ADVANCED_FACE ( 'NONE', ( #643 ), #55, .T. ) ;
#199 = VECTOR ( 'NONE', #494, 1000.000000000000000 ) ;
#200 = DIRECTION ( 'NONE',  ( -4.495918367346943426E-15, 1.000000000000000000, -0.000000000000000000 ) ) ;
#201 = AXIS2_PLACEMENT_3D ( 'NONE', #540, #390, #717 ) ;
#202 = VERTEX_POINT ( 'NONE', #182 ) ;
#203 = CARTESIAN_POINT ( 'NONE',  ( -3.250000000000067057, 34.35566243270260145, 0.000000000000000000 ) ) ;
#204 = TOROIDAL_SURFACE ( 'NONE', #401, 3.149999999999894662, 0.1999999999999995948 ) ;
#205 =( GEOMETRIC_REPRESENTATION_CONTEXT ( 3 ) GLOBAL_UNCERTAINTY_ASSIGNED_CONTEXT ( ( #428 ) ) GLOBAL_UNIT_ASSIGNED_CONTEXT ( ( #212, #881, #801 ) ) REPRESENTATION_CONTEXT ( 'NONE', 'WORKASPACE' ) );
#206 = FACE_OUTER_BOUND ( 'NONE', #551, .T. ) ;
#207 = EDGE_LOOP ( 'NONE', ( #706, #322, #625, #336 ) ) ;
#208 = CARTESIAN_POINT ( 'NONE',  ( -2.750000000000153655, 40.50000000000004263, 3.673940397441973093E-16 ) ) ;
#209 = EDGE_CURVE ( 'NONE', #479, #29, #980, .T. ) ;
#210 = ORIENTED_EDGE ( 'NONE', *, *, #691, .F. ) ;
#211 = FACE_OUTER_BOUND ( 'NONE', #486, .T. ) ;
#212 =( LENGTH_UNIT ( ) NAMED_UNIT ( * ) SI_UNIT ( .MILLI., .METRE. ) );
#213 = PRODUCT ( '99688-SI10-M06+S9MT1003-120', '99688-SI10-M06+S9MT1003-120', '', ( #291 ) ) ;
#214 = CIRCLE ( 'NONE', #983, 0.7999999999999986011 ) ;
#215 = ORIENTED_EDGE ( 'NONE', *, *, #301, .F. ) ;
#216 = DIRECTION ( 'NONE',  ( -4.495918367346943426E-15, 1.000000000000000000, -0.000000000000000000 ) ) ;
#217 = AXIS2_PLACEMENT_3D ( 'NONE', #405, #394, #6 ) ;
#218 = DIRECTION ( 'NONE',  ( -4.495918367346943426E-15, 1.000000000000000000, -0.000000000000000000 ) ) ;
#219 = VECTOR ( 'NONE', #231, 1000.000000000000000 ) ;
#220 = VERTEX_POINT ( 'NONE', #487 ) ;
#221 = DIRECTION ( 'NONE',  ( -0.7071067811864497621, -0.7071067811866452724, 8.659560562353775451E-17 ) ) ;
#222 = ADVANCED_FACE ( 'NONE', ( #942 ), #99, .T. ) ;
#223 = CARTESIAN_POINT ( 'NONE',  ( 5.999999999999764633, 34.39999999999996305, 0.000000000000000000 ) ) ;
#224 = ORIENTED_EDGE ( 'NONE', *, *, #130, .T. ) ;
#225 = CARTESIAN_POINT ( 'NONE',  ( -1.933244897959183669E-13, 42.99999999999996447, 0.000000000000000000 ) ) ;
#226 = EDGE_CURVE ( 'NONE', #803, #994, #510, .T. ) ;
#227 = EDGE_LOOP ( 'NONE', ( #69, #404, #732, #617 ) ) ;
#228 = CARTESIAN_POINT ( 'NONE',  ( -5.900000000000035882, 34.50000000000006395, 7.286648454926629691E-16 ) ) ;
#229 = CIRCLE ( 'NONE', #916, 5.999999999999821476 ) ;
#230 = DIRECTION ( 'NONE',  ( -4.495918367346943426E-15, 1.000000000000000000, -0.000000000000000000 ) ) ;
#231 = DIRECTION ( 'NONE',  ( -4.495918367346943426E-15, 1.000000000000000000, -0.000000000000000000 ) ) ;
#232 = ADVANCED_FACE ( 'NONE', ( #564 ), #614, .T. ) ;
#233 = ORIENTED_EDGE ( 'NONE', *, *, #789, .F. ) ;
#234 = FACE_OUTER_BOUND ( 'NONE', #696, .T. ) ;
#235 = AXIS2_PLACEMENT_3D ( 'NONE', #180, #503, #274 ) ;
#236 = DIRECTION ( 'NONE',  ( -4.495918367346943426E-15, 1.000000000000000000, -0.000000000000000000 ) ) ;
#237 = EDGE_CURVE ( 'NONE', #220, #760, #751, .T. ) ;
#238 = CARTESIAN_POINT ( 'NONE',  ( -2.202999999999999549E-13, 48.99999999999994316, 0.000000000000000000 ) ) ;
#239 = CARTESIAN_POINT ( 'NONE',  ( -2.203000000000000054E-13, 48.99999999999995026, 0.000000000000000000 ) ) ;
#240 = CYLINDRICAL_SURFACE ( 'NONE', #347, 3.249999999999876987 ) ;
#241 = EDGE_LOOP ( 'NONE', ( #708, #563, #990, #181 ) ) ;
#242 = FACE_OUTER_BOUND ( 'NONE', #241, .T. ) ;
#243 = ORIENTED_EDGE ( 'NONE', *, *, #388, .F. ) ;
#244 = FACE_OUTER_BOUND ( 'NONE', #940, .T. ) ;
#245 = AXIS2_PLACEMENT_3D ( 'NONE', #613, #596, #526 ) ;
#246 = AXIS2_PLACEMENT_3D ( 'NONE', #78, #2, #611 ) ;
#247 = VECTOR ( 'NONE', #871, 1000.000000000000000 ) ;
#248 = PRODUCT_DEFINITION ( 'UNKNOWN', '', #253, #338 ) ;
#249 = VERTEX_POINT ( 'NONE', #475 ) ;
#250 = DIRECTION ( 'NONE',  ( -4.495918367346943426E-15, 1.000000000000000000, -0.000000000000000000 ) ) ;
#251 = DIRECTION ( 'NONE',  ( -4.495918367346943426E-15, 1.000000000000000000, -0.000000000000000000 ) ) ;
#252 = ADVANCED_FACE ( 'NONE', ( #559 ), #240, .T. ) ;
#253 = PRODUCT_DEFINITION_FORMATION_WITH_SPECIFIED_SOURCE ( 'ANY', '', #213, .NOT_KNOWN. ) ;
#254 = DIRECTION ( 'NONE',  ( 4.495918367346943426E-15, -1.000000000000000000, 0.000000000000000000 ) ) ;
#255 = CARTESIAN_POINT ( 'NONE',  ( -4.614580050114497762E-14, 10.26393202249706249, 0.000000000000000000 ) ) ;
#256 = ORIENTED_EDGE ( 'NONE', *, *, #953, .F. ) ;
#257 = CARTESIAN_POINT ( 'NONE',  ( -3.050000000000136158, 41.24161984870961817, 0.000000000000000000 ) ) ;
#258 = CARTESIAN_POINT ( 'NONE',  ( -6.000000000000073719, 34.39999999999991331, 0.000000000000000000 ) ) ;
#259 = ORIENTED_EDGE ( 'NONE', *, *, #377, .F. ) ;
#260 = DIRECTION ( 'NONE',  ( -1.000000000000000000, -4.625929269271522399E-15, 0.000000000000000000 ) ) ;
#261 = CONICAL_SURFACE ( 'NONE', #476, 5.999999999999919176, 0.7853981633968628584 ) ;
#262 = VECTOR ( 'NONE', #321, 1000.000000000000000 ) ;
#263 = CARTESIAN_POINT ( 'NONE',  ( -1.552577510999242349E-13, 34.52886751345949534, 0.000000000000000000 ) ) ;
#264 = VERTEX_POINT ( 'NONE', #547 ) ;
#265 = CARTESIAN_POINT ( 'NONE',  ( 2.949999999999670663, 48.99999999999996447, 3.612708057484558483E-16 ) ) ;
#266 = AXIS2_PLACEMENT_3D ( 'NONE', #35, #200, #817 ) ;
#267 = STYLED_ITEM ( 'NONE', ( #126 ), #997 ) ;
#268 = FACE_OUTER_BOUND ( 'NONE', #418, .T. ) ;
#269 = EDGE_CURVE ( 'NONE', #106, #77, #407, .T. ) ;
#270 = DIRECTION ( 'NONE',  ( 4.495918367346943426E-15, -1.000000000000000000, 0.000000000000000000 ) ) ;
#271 = ORIENTED_EDGE ( 'NONE', *, *, #962, .F. ) ;
#272 = LINE ( 'NONE', #580, #364 ) ;
#273 = DIRECTION ( 'NONE',  ( 1.000000000000000000, 4.270088556250750202E-15, 0.000000000000000000 ) ) ;
#274 = DIRECTION ( 'NONE',  ( 1.000000000000000000, 4.495918367346943426E-15, 0.000000000000000000 ) ) ;
#275 = ORIENTED_EDGE ( 'NONE', *, *, #821, .F. ) ;
#276 = FACE_OUTER_BOUND ( 'NONE', #18, .T. ) ;
#277 = CONICAL_SURFACE ( 'NONE', #602, 3.067157287525256848, 0.7853981633972407783 ) ;
#278 = CARTESIAN_POINT ( 'NONE',  ( 5.000000000004583889, 48.99999999999997158, 6.123233995742649213E-16 ) ) ;
#279 = PRODUCT_RELATED_PRODUCT_CATEGORY ( 'part', '', ( #213 ) ) ;
#280 = VECTOR ( 'NONE', #857, 1000.000000000000000 ) ;
#281 = ORIENTED_EDGE ( 'NONE', *, *, #958, .T. ) ;
#282 = AXIS2_PLACEMENT_3D ( 'NONE', #179, #794, #102 ) ;
#283 = LINE ( 'NONE', #265, #199 ) ;
#284 = EDGE_CURVE ( 'NONE', #202, #950, #214, .T. ) ;
#285 = AXIS2_PLACEMENT_3D ( 'NONE', #109, #39, #500 ) ;
#286 = DIRECTION ( 'NONE',  ( -1.000000000000000000, -4.495918367346943426E-15, 0.000000000000000000 ) ) ;
#287 =( GEOMETRIC_REPRESENTATION_CONTEXT ( 3 ) GLOBAL_UNCERTAINTY_ASSIGNED_CONTEXT ( ( #397 ) ) GLOBAL_UNIT_ASSIGNED_CONTEXT ( ( #507, #906, #357 ) ) REPRESENTATION_CONTEXT ( 'NONE', 'WORKASPACE' ) );
#288 = ORIENTED_EDGE ( 'NONE', *, *, #348, .T. ) ;
#289 = CARTESIAN_POINT ( 'NONE',  ( 3.149999999999739231, 34.52886751345950955, 3.857637417314033513E-16 ) ) ;
#290 = DIRECTION ( 'NONE',  ( -1.000000000000000000, -4.270088556250717070E-15, 0.000000000000000000 ) ) ;
#291 = PRODUCT_CONTEXT ( 'NONE', #878, 'mechanical' ) ;
#292 = EDGE_LOOP ( 'NONE', ( #358, #936 ) ) ;
#293 = CARTESIAN_POINT ( 'NONE',  ( -4.614580050114497762E-14, 10.26393202249706249, 0.000000000000000000 ) ) ;
#294 = LINE ( 'NONE', #600, #876 ) ;
#295 = EDGE_CURVE ( 'NONE', #152, #362, #149, .T. ) ;
#296 = AXIS2_PLACEMENT_3D ( 'NONE', #728, #978, #733 ) ;
#297 = ORIENTED_EDGE ( 'NONE', *, *, #759, .F. ) ;
#298 = CARTESIAN_POINT ( 'NONE',  ( -1.587830561314664200E-13, 35.31715728752541139, 0.000000000000000000 ) ) ;
#299 = VECTOR ( 'NONE', #221, 1000.000000000000114 ) ;
#300 = CIRCLE ( 'NONE', #769, 3.500000000000034195 ) ;
#301 = EDGE_CURVE ( 'NONE', #165, #633, #332, .T. ) ;
#302 = ORIENTED_EDGE ( 'NONE', *, *, #677, .T. ) ;
#303 = CARTESIAN_POINT ( 'NONE',  ( -2.203000000000000054E-13, 48.99999999999995026, 0.000000000000000000 ) ) ;
#304 = VERTEX_POINT ( 'NONE', #631 ) ;
#305 = CARTESIAN_POINT ( 'NONE',  ( -2.203000000000000054E-13, 48.99999999999995026, 0.000000000000000000 ) ) ;
#306 = DIRECTION ( 'NONE',  ( -4.495918367346943426E-15, 1.000000000000000000, -0.000000000000000000 ) ) ;
#307 = LINE ( 'NONE', #909, #219 ) ;
#308 = AXIS2_PLACEMENT_3D ( 'NONE', #957, #491, #329 ) ;
#309 = VERTEX_POINT ( 'NONE', #946 ) ;
#310 = DIRECTION ( 'NONE',  ( -4.495918367346943426E-15, 1.000000000000000000, -0.000000000000000000 ) ) ;
#311 = AXIS2_PLACEMENT_3D ( 'NONE', #502, #429, #343 ) ;
#312 = AXIS2_PLACEMENT_3D ( 'NONE', #81, #951, #786 ) ;
#313 = CARTESIAN_POINT ( 'NONE',  ( 3.249999999999706901, 35.50000000000010658, 3.980102097228734543E-16 ) ) ;
#314 = AXIS2_PLACEMENT_3D ( 'NONE', #931, #230, #840 ) ;
#315 = ADVANCED_FACE ( 'NONE', ( #244 ), #277, .T. ) ;
#316 = ORIENTED_EDGE ( 'NONE', *, *, #488, .F. ) ;
#317 = DIRECTION ( 'NONE',  ( -1.000000000000000000, -4.510281037535371543E-15, 0.000000000000000000 ) ) ;
#318 = EDGE_LOOP ( 'NONE', ( #636, #727, #780, #680 ) ) ;
#319 = CARTESIAN_POINT ( 'NONE',  ( -1.798367346938777749E-13, 40.00000000000000711, 0.000000000000000000 ) ) ;
#320 = VERTEX_POINT ( 'NONE', #203 ) ;
#321 = DIRECTION ( 'NONE',  ( -0.7071067811866000863, 0.7071067811864949482, 0.000000000000000000 ) ) ;
#322 = ORIENTED_EDGE ( 'NONE', *, *, #361, .T. ) ;
#323 = DIRECTION ( 'NONE',  ( 1.000000000000000000, 4.270088556250750202E-15, 0.000000000000000000 ) ) ;
#324 = ADVANCED_FACE ( 'NONE', ( #359 ), #668, .T. ) ;
#325 = ORIENTED_EDGE ( 'NONE', *, *, #837, .F. ) ;
#326 = EDGE_CURVE ( 'NONE', #320, #106, #841, .T. ) ;
#327 = DIRECTION ( 'NONE',  ( -1.000000000000000000, -3.965082230804091960E-15, 0.000000000000000000 ) ) ;
#328 = ORIENTED_EDGE ( 'NONE', *, *, #76, .T. ) ;
#329 = DIRECTION ( 'NONE',  ( -1.000000000000000000, -4.486912934895902346E-15, 0.000000000000000000 ) ) ;
#330 = VECTOR ( 'NONE', #4, 1000.000000000000000 ) ;
#331 = AXIS2_PLACEMENT_3D ( 'NONE', #532, #834, #456 ) ;
#332 = CIRCLE ( 'NONE', #829, 0.7999999999999986011 ) ;
#333 = AXIS2_PLACEMENT_3D ( 'NONE', #98, #695, #317 ) ;
#334 = CARTESIAN_POINT ( 'NONE',  ( -6.000000000000090594, 48.99999999999992895, 0.000000000000000000 ) ) ;
#335 = DIRECTION ( 'NONE',  ( -4.495918367346943426E-15, 1.000000000000000000, -0.000000000000000000 ) ) ;
#336 = ORIENTED_EDGE ( 'NONE', *, *, #237, .F. ) ;
#337 = VECTOR ( 'NONE', #747, 1000.000000000000000 ) ;
#338 = PRODUCT_DEFINITION_CONTEXT ( 'detailed design', #431, 'design' ) ;
#339 = CARTESIAN_POINT ( 'NONE',  ( -1.546595918367345623E-13, 34.39999999999993463, 0.000000000000000000 ) ) ;
#340 = CARTESIAN_POINT ( 'NONE',  ( -1.854189561769538882E-13, 41.24161984870963948, 0.000000000000000000 ) ) ;
#341 = DIRECTION ( 'NONE',  ( -4.495918367346943426E-15, 1.000000000000000000, -0.000000000000000000 ) ) ;
#342 = ORIENTED_EDGE ( 'NONE', *, *, #164, .T. ) ;
#343 = DIRECTION ( 'NONE',  ( -1.000000000000000000, -4.495918367346943426E-15, 0.000000000000000000 ) ) ;
#344 = CYLINDRICAL_SURFACE ( 'NONE', #705, 3.249999999999876987 ) ;
#345 = ORIENTED_EDGE ( 'NONE', *, *, #714, .T. ) ;
#346 = CARTESIAN_POINT ( 'NONE',  ( -1.544602537535590428E-13, 34.35566243270261566, 0.000000000000000000 ) ) ;
#347 = AXIS2_PLACEMENT_3D ( 'NONE', #788, #550, #411 ) ;
#348 = EDGE_CURVE ( 'NONE', #893, #943, #229, .T. ) ;
#349 = CIRCLE ( 'NONE', #246, 2.949999999999894484 ) ;
#350 = CARTESIAN_POINT ( 'NONE',  ( 1.845299461620504955, 48.99999999999995026, 0.000000000000000000 ) ) ;
#351 = DIRECTION ( 'NONE',  ( -1.000000000000000000, -3.965082230804091960E-15, 0.000000000000000000 ) ) ;
#352 = ORIENTED_EDGE ( 'NONE', *, *, #226, .T. ) ;
#353 = CARTESIAN_POINT ( 'NONE',  ( 4.930380657631323784E-29, 1.108329447832838545E-43, 3.018987445473111600E-45 ) ) ;
#354 = CIRCLE ( 'NONE', #65, 2.249999999999964917 ) ;
#355 = CARTESIAN_POINT ( 'NONE',  ( -2.113081632653064877E-13, 47.00000000000003553, 0.000000000000000000 ) ) ;
#356 = CARTESIAN_POINT ( 'NONE',  ( -1.798367346938777749E-13, 40.00000000000000711, 0.000000000000000000 ) ) ;
#357 =( NAMED_UNIT ( * ) SI_UNIT ( $, .STERADIAN. ) SOLID_ANGLE_UNIT ( ) );
#358 = ORIENTED_EDGE ( 'NONE', *, *, #660, .T. ) ;
#359 = FACE_OUTER_BOUND ( 'NONE', #389, .T. ) ;
#360 = CARTESIAN_POINT ( 'NONE',  ( 0.000000000000000000, 0.000000000000000000, 0.000000000000000000 ) ) ;
#361 = EDGE_CURVE ( 'NONE', #202, #165, #734, .T. ) ;
#362 = VERTEX_POINT ( 'NONE', #517 ) ;
#363 = DIRECTION ( 'NONE',  ( -4.495918367346943426E-15, 1.000000000000000000, -0.000000000000000000 ) ) ;
#364 = VECTOR ( 'NONE', #123, 1000.000000000000114 ) ;
#365 = AXIS2_PLACEMENT_3D ( 'NONE', #522, #552, #327 ) ;
#366 =( LENGTH_UNIT ( ) NAMED_UNIT ( * ) SI_UNIT ( .MILLI., .METRE. ) );
#367 = EDGE_LOOP ( 'NONE', ( #210, #524, #858, #342 ) ) ;
#368 = CIRCLE ( 'NONE', #61, 3.249999999999912514 ) ;
#369 = DIRECTION ( 'NONE',  ( -1.000000000000000000, -4.486912934895902346E-15, 0.000000000000000000 ) ) ;
#370 = FACE_OUTER_BOUND ( 'NONE', #770, .T. ) ;
#371 = DIRECTION ( 'NONE',  ( 1.000000000000000000, 0.000000000000000000, 0.000000000000000000 ) ) ;
#372 = ORIENTED_EDGE ( 'NONE', *, *, #44, .F. ) ;
#373 = FACE_OUTER_BOUND ( 'NONE', #7, .T. ) ;
#374 = DIRECTION ( 'NONE',  ( -1.000000000000000000, -3.083952846181057925E-15, 0.000000000000000000 ) ) ;
#375 = ORIENTED_EDGE ( 'NONE', *, *, #537, .T. ) ;
#376 = CARTESIAN_POINT ( 'NONE',  ( 2.499999999999417799, 42.49999999999969447, 3.061616997867904401E-16 ) ) ;
#377 = EDGE_CURVE ( 'NONE', #157, #264, #752, .T. ) ;
#378 = TOROIDAL_SURFACE ( 'NONE', #762, 3.049999999999950973, 0.7999999999999986011 ) ;
#379 = ORIENTED_EDGE ( 'NONE', *, *, #933, .T. ) ;
#380 = DIRECTION ( 'NONE',  ( -1.000000000000000000, -4.625929269271550009E-15, 0.000000000000000000 ) ) ;
#381 = AXIS2_PLACEMENT_3D ( 'NONE', #225, #73, #380 ) ;
#382 = CIRCLE ( 'NONE', #282, 0.7999999999999994893 ) ;
#383 = CARTESIAN_POINT ( 'NONE',  ( -1.544602537535590428E-13, 34.35566243270261566, 0.000000000000000000 ) ) ;
#384 = EDGE_LOOP ( 'NONE', ( #667, #594, #141, #297 ) ) ;
#385 = VECTOR ( 'NONE', #36, 1000.000000000000227 ) ;
#386 = CARTESIAN_POINT ( 'NONE',  ( -6.000000000000073719, 34.39999999999991331, 7.347880794884020142E-16 ) ) ;
#387 = LINE ( 'NONE', #847, #330 ) ;
#388 = EDGE_CURVE ( 'NONE', #701, #304, #996, .T. ) ;
#389 = EDGE_LOOP ( 'NONE', ( #911, #302, #591, #372 ) ) ;
#390 = DIRECTION ( 'NONE',  ( 4.495918367346943426E-15, -1.000000000000000000, 0.000000000000000000 ) ) ;
#391 = EDGE_LOOP ( 'NONE', ( #243, #824, #5, #406 ) ) ;
#392 = DIRECTION ( 'NONE',  ( -1.000000000000000000, -4.704334850106774274E-15, 0.000000000000000000 ) ) ;
#393 = ORIENTED_EDGE ( 'NONE', *, *, #284, .F. ) ;
#394 = DIRECTION ( 'NONE',  ( -4.495918367346943426E-15, 1.000000000000000000, -0.000000000000000000 ) ) ;
#395 = VERTEX_POINT ( 'NONE', #422 ) ;
#396 = AXIS2_PLACEMENT_3D ( 'NONE', #303, #987, #832 ) ;
#397 = UNCERTAINTY_MEASURE_WITH_UNIT (LENGTH_MEASURE( 1.000000000000000082E-05 ), #507, 'distance_accuracy_value', 'NONE');
#398 = DIRECTION ( 'NONE',  ( 0.000000000000000000, -0.000000000000000000, -1.000000000000000000 ) ) ;
#399 = EDGE_LOOP ( 'NONE', ( #985, #275, #845, #352 ) ) ;
#400 = LINE ( 'NONE', #17, #262 ) ;
#401 = AXIS2_PLACEMENT_3D ( 'NONE', #263, #104, #416 ) ;
#402 = ORIENTED_EDGE ( 'NONE', *, *, #953, .T. ) ;
#403 = DIRECTION ( 'NONE',  ( 4.495918367346943426E-15, -1.000000000000000000, 0.000000000000000000 ) ) ;
#404 = ORIENTED_EDGE ( 'NONE', *, *, #660, .F. ) ;
#405 = CARTESIAN_POINT ( 'NONE',  ( -1.596051020408168995E-13, 35.50000000000009237, 0.000000000000000000 ) ) ;
#406 = ORIENTED_EDGE ( 'NONE', *, *, #93, .F. ) ;
#407 = LINE ( 'NONE', #30, #615 ) ;
#408 = EDGE_CURVE ( 'NONE', #785, #479, #283, .T. ) ;
#409 = FACE_OUTER_BOUND ( 'NONE', #391, .T. ) ;
#410 = ORIENTED_EDGE ( 'NONE', *, *, #511, .F. ) ;
#411 = DIRECTION ( 'NONE',  ( -1.000000000000000000, -4.270088556250763613E-15, 0.000000000000000000 ) ) ;
#412 = AXIS2_PLACEMENT_3D ( 'NONE', #866, #172, #626 ) ;
#413 = AXIS2_PLACEMENT_3D ( 'NONE', #820, #651, #740 ) ;
#414 = VECTOR ( 'NONE', #648, 1000.000000000000000 ) ;
#415 = CARTESIAN_POINT ( 'NONE',  ( -2.202999999999999549E-13, 48.99999999999994316, 0.000000000000000000 ) ) ;
#416 = DIRECTION ( 'NONE',  ( -1.000000000000000000, -4.495918367346943426E-15, 0.000000000000000000 ) ) ;
#417 = EDGE_CURVE ( 'NONE', #427, #623, #903, .T. ) ;
#418 = EDGE_LOOP ( 'NONE', ( #37, #224, #160, #967 ) ) ;
#419 = FACE_OUTER_BOUND ( 'NONE', #367, .T. ) ;
#420 = CARTESIAN_POINT ( 'NONE',  ( -1.551091836734700018E-13, 34.50000000000010658, 0.000000000000000000 ) ) ;
#421 = EDGE_LOOP ( 'NONE', ( #435, #86, #604 ) ) ;
#422 = CARTESIAN_POINT ( 'NONE',  ( 5.999999999999764633, 34.39999999999996305, 7.347880794883991546E-16 ) ) ;
#423 = ADVANCED_FACE ( 'NONE', ( #419 ), #462, .F. ) ;
#424 = CARTESIAN_POINT ( 'NONE',  ( -2.950000000000045475, 35.03431457505081426, 0.000000000000000000 ) ) ;
#425 = DIRECTION ( 'NONE',  ( -0.7071067811864041319, 0.7071067811866910136, 0.000000000000000000 ) ) ;
#426 = LINE ( 'NONE', #655, #887 ) ;
#427 = VERTEX_POINT ( 'NONE', #43 ) ;
#428 = UNCERTAINTY_MEASURE_WITH_UNIT (LENGTH_MEASURE( 1.000000000000000082E-05 ), #212, 'distance_accuracy_value', 'NONE');
#429 = DIRECTION ( 'NONE',  ( -4.495918367346943426E-15, 1.000000000000000000, -0.000000000000000000 ) ) ;
#430 = AXIS2_PLACEMENT_3D ( 'NONE', #894, #575, #647 ) ;
#431 = APPLICATION_CONTEXT ( 'automotive_design' ) ;
#432 = CONICAL_SURFACE ( 'NONE', #185, 1732.050807568522259, 1.047197551196509036 ) ;
#433 = TOROIDAL_SURFACE ( 'NONE', #590, 3.049999999999964739, 0.7999999999999992673 ) ;
#434 = DIRECTION ( 'NONE',  ( 0.5000000000000203171, -0.8660254037844269392, 0.000000000000000000 ) ) ;
#435 = ORIENTED_EDGE ( 'NONE', *, *, #116, .F. ) ;
#436 = DIRECTION ( 'NONE',  ( -4.495918367346943426E-15, 1.000000000000000000, -0.000000000000000000 ) ) ;
#437 = CARTESIAN_POINT ( 'NONE',  ( -1.884646380678488003E-13, 41.91905249806891476, 0.000000000000000000 ) ) ;
#438 = AXIS2_PLACEMENT_3D ( 'NONE', #356, #723, #520 ) ;
#439 = ADVANCED_FACE ( 'NONE', ( #968 ), #813, .T. ) ;
#440 = DIRECTION ( 'NONE',  ( -1.000000000000000000, -4.270088556250763613E-15, 0.000000000000000000 ) ) ;
#441 = DIRECTION ( 'NONE',  ( -1.000000000000000000, -4.163336342340336713E-15, 0.000000000000000000 ) ) ;
#442 = ORIENTED_EDGE ( 'NONE', *, *, #677, .F. ) ;
#443 = DIRECTION ( 'NONE',  ( -1.000000000000000000, -4.625929269271585507E-15, 0.000000000000000000 ) ) ;
#444 = SURFACE_SIDE_STYLE ('',( #586 ) ) ;
#445 = LINE ( 'NONE', #278, #337 ) ;
#446 = CYLINDRICAL_SURFACE ( 'NONE', #1002, 5.000000000004804157 ) ;
#447 = ORIENTED_EDGE ( 'NONE', *, *, #178, .T. ) ;
#448 = DIRECTION ( 'NONE',  ( -4.495918367346943426E-15, 1.000000000000000000, -0.000000000000000000 ) ) ;
#449 = CIRCLE ( 'NONE', #718, 5.000000000004812151 ) ;
#450 = CARTESIAN_POINT ( 'NONE',  ( -2.250000000000178080, 48.99999999999994316, 0.000000000000000000 ) ) ;
#451 = ORIENTED_EDGE ( 'NONE', *, *, #716, .F. ) ;
#452 = DIRECTION ( 'NONE',  ( -1.000000000000000000, -4.704334850106769541E-15, 0.000000000000000000 ) ) ;
#453 = EDGE_CURVE ( 'NONE', #838, #395, #862, .T. ) ;
#454 = ORIENTED_EDGE ( 'NONE', *, *, #482, .F. ) ;
#455 = DIRECTION ( 'NONE',  ( -1.224646799147353207E-16, -5.505912037799228575E-31, 1.000000000000000000 ) ) ;
#456 = DIRECTION ( 'NONE',  ( -1.000000000000000000, -4.625929269271623373E-15, 0.000000000000000000 ) ) ;
#457 = EDGE_CURVE ( 'NONE', #598, #568, #570, .T. ) ;
#458 = EDGE_LOOP ( 'NONE', ( #151, #58, #94, #64 ) ) ;
#459 = DIRECTION ( 'NONE',  ( -4.495918367346943426E-15, 1.000000000000000000, -0.000000000000000000 ) ) ;
#460 = EDGE_CURVE ( 'NONE', #264, #994, #509, .T. ) ;
#461 = CIRCLE ( 'NONE', #899, 2.499999999999610534 ) ;
#462 = TOROIDAL_SURFACE ( 'NONE', #311, 3.349999999999887734, 0.3999999999999996336 ) ;
#463 = ORIENTED_EDGE ( 'NONE', *, *, #417, .T. ) ;
#464 = DIRECTION ( 'NONE',  ( -1.000000000000000000, 0.000000000000000000, 0.000000000000000000 ) ) ;
#465 = TOROIDAL_SURFACE ( 'NONE', #513, 3.349999999999887734, 0.3999999999999996336 ) ;
#466 = DIRECTION ( 'NONE',  ( -4.495918367346943426E-15, 1.000000000000000000, -0.000000000000000000 ) ) ;
#467 = EDGE_CURVE ( 'NONE', #785, #504, #117, .T. ) ;
#468 = ORIENTED_EDGE ( 'NONE', *, *, #976, .T. ) ;
#469 = DIRECTION ( 'NONE',  ( -4.495918367346943426E-15, 1.000000000000000000, -0.000000000000000000 ) ) ;
#470 = ORIENTED_EDGE ( 'NONE', *, *, #488, .T. ) ;
#471 = CARTESIAN_POINT ( 'NONE',  ( -5.999999999999877431, 12.49999999998986588, 0.000000000000000000 ) ) ;
#472 = ORIENTED_EDGE ( 'NONE', *, *, #295, .F. ) ;
#473 = DIRECTION ( 'NONE',  ( -1.000000000000000000, -4.495918367346943426E-15, 0.000000000000000000 ) ) ;
#474 = ORIENTED_EDGE ( 'NONE', *, *, #284, .T. ) ;
#475 = CARTESIAN_POINT ( 'NONE',  ( -5.000000000004858336, 10.26393202249704117, 0.000000000000000000 ) ) ;
#476 = AXIS2_PLACEMENT_3D ( 'NONE', #339, #24, #938 ) ;
#477 = FACE_OUTER_BOUND ( 'NONE', #187, .T. ) ;
#478 = CARTESIAN_POINT ( 'NONE',  ( -3.150000000000050093, 34.52886751345948113, 0.000000000000000000 ) ) ;
#479 = VERTEX_POINT ( 'NONE', #663 ) ;
#480 = AXIS2_PLACEMENT_3D ( 'NONE', #255, #737, #964 ) ;
#481 = DIRECTION ( 'NONE',  ( -1.000000000000000000, 0.000000000000000000, 0.000000000000000000 ) ) ;
#482 = EDGE_CURVE ( 'NONE', #914, #683, #505, .T. ) ;
#483 = ORIENTED_EDGE ( 'NONE', *, *, #511, .T. ) ;
#484 = DIRECTION ( 'NONE',  ( -1.000000000000000000, -4.625929269271536598E-15, 0.000000000000000000 ) ) ;
#485 = CONICAL_SURFACE ( 'NONE', #45, 2.999999999999976019, 0.5235987755983178005 ) ;
#486 = EDGE_LOOP ( 'NONE', ( #454, #852, #114 ) ) ;
#487 = CARTESIAN_POINT ( 'NONE',  ( 2.249999999999776623, 41.91905249806892186, 2.755455298081499911E-16 ) ) ;
#488 = EDGE_CURVE ( 'NONE', #48, #568, #272, .T. ) ;
#489 = DIRECTION ( 'NONE',  ( -4.495918367346943426E-15, 1.000000000000000000, -0.000000000000000000 ) ) ;
#490 = DIRECTION ( 'NONE',  ( -4.495918367346943426E-15, 1.000000000000000000, -0.000000000000000000 ) ) ;
#491 = DIRECTION ( 'NONE',  ( -4.495918367346943426E-15, 1.000000000000000000, -0.000000000000000000 ) ) ;
#492 = LINE ( 'NONE', #506, #969 ) ;
#493 = ORIENTED_EDGE ( 'NONE', *, *, #28, .T. ) ;
#494 = DIRECTION ( 'NONE',  ( -4.495918367346943426E-15, 1.000000000000000000, -0.000000000000000000 ) ) ;
#495 = VECTOR ( 'NONE', #973, 1000.000000000000000 ) ;
#496 = AXIS2_PLACEMENT_3D ( 'NONE', #675, #216, #534 ) ;
#497 = ADVANCED_FACE ( 'NONE', ( #276 ), #378, .F. ) ;
#498 = CIRCLE ( 'NONE', #844, 1.845299461620725223 ) ;
#499 = ADVANCED_FACE ( 'NONE', ( #902 ), #133, .T. ) ;
#500 = DIRECTION ( 'NONE',  ( -1.000000000000000000, -5.046468293750763469E-15, 0.000000000000000000 ) ) ;
#501 = EDGE_LOOP ( 'NONE', ( #89, #674, #12, #544 ) ) ;
#502 = CARTESIAN_POINT ( 'NONE',  ( -1.574261554448952438E-13, 35.03431457505080004, 0.000000000000000000 ) ) ;
#503 = DIRECTION ( 'NONE',  ( 4.495918367346943426E-15, -1.000000000000000000, 0.000000000000000000 ) ) ;
#504 = VERTEX_POINT ( 'NONE', #525 ) ;
#505 = LINE ( 'NONE', #353, #495 ) ;
#506 = CARTESIAN_POINT ( 'NONE',  ( 2.999999999999765077, 47.00000000000004974, 0.000000000000000000 ) ) ;
#507 =( LENGTH_UNIT ( ) NAMED_UNIT ( * ) SI_UNIT ( .MILLI., .METRE. ) );
#508 = EDGE_LOOP ( 'NONE', ( #863, #474, #127, #215 ) ) ;
#509 = LINE ( 'NONE', #812, #25 ) ;
#510 = CIRCLE ( 'NONE', #730, 3.249999999999887201 ) ;
#511 = EDGE_CURVE ( 'NONE', #309, #249, #934, .T. ) ;
#512 = AXIS2_PLACEMENT_3D ( 'NONE', #197, #49, #592 ) ;
#513 = AXIS2_PLACEMENT_3D ( 'NONE', #85, #250, #473 ) ;
#514 = LINE ( 'NONE', #194, #518 ) ;
#515 = APPLICATION_PROTOCOL_DEFINITION ( 'draft international standard', 'automotive_design', 1998, #878 ) ;
#516 = ORIENTED_EDGE ( 'NONE', *, *, #988, .T. ) ;
#517 = CARTESIAN_POINT ( 'NONE',  ( -2.499999999999800160, 42.49999999999967315, 0.000000000000000000 ) ) ;
#518 = VECTOR ( 'NONE', #425, 1000.000000000000000 ) ;
#519 = ADVANCED_FACE ( 'NONE', ( #373 ), #948, .F. ) ;
#520 = DIRECTION ( 'NONE',  ( -1.000000000000000000, -4.270088556250750202E-15, 0.000000000000000000 ) ) ;
#521 = ORIENTED_EDGE ( 'NONE', *, *, #691, .T. ) ;
#522 = CARTESIAN_POINT ( 'NONE',  ( -1.551091836734700018E-13, 34.50000000000010658, 0.000000000000000000 ) ) ;
#523 = EDGE_CURVE ( 'NONE', #999, #121, #652, .T. ) ;
#524 = ORIENTED_EDGE ( 'NONE', *, *, #933, .F. ) ;
#525 = CARTESIAN_POINT ( 'NONE',  ( -2.950000000000049916, 34.52886751345947403, 0.000000000000000000 ) ) ;
#526 = DIRECTION ( 'NONE',  ( -1.000000000000000000, -5.551115123126647294E-15, 0.000000000000000000 ) ) ;
#527 = AXIS2_PLACEMENT_3D ( 'NONE', #96, #954, #82 ) ;
#528 = AXIS2_PLACEMENT_3D ( 'NONE', #87, #859, #719 ) ;
#529 = ADVANCED_FACE ( 'NONE', ( #211 ), #432, .T. ) ;
#530 = ORIENTED_EDGE ( 'NONE', *, *, #562, .F. ) ;
#531 = DIRECTION ( 'NONE',  ( -4.495918367346943426E-15, 1.000000000000000000, -0.000000000000000000 ) ) ;
#532 = CARTESIAN_POINT ( 'NONE',  ( -5.619897959179134418E-14, 12.49999999998989431, 0.000000000000000000 ) ) ;
#533 = EDGE_LOOP ( 'NONE', ( #749, #546 ) ) ;
#534 = DIRECTION ( 'NONE',  ( -1.000000000000000000, -4.495918367346943426E-15, 0.000000000000000000 ) ) ;
#535 = ORIENTED_EDGE ( 'NONE', *, *, #68, .F. ) ;
#536 = FACE_OUTER_BOUND ( 'NONE', #662, .T. ) ;
#537 = EDGE_CURVE ( 'NONE', #633, #950, #74, .T. ) ;
#538 = EDGE_LOOP ( 'NONE', ( #787, #483, #468, #873 ) ) ;
#539 = ORIENTED_EDGE ( 'NONE', *, *, #562, .T. ) ;
#540 = CARTESIAN_POINT ( 'NONE',  ( -1.546595918367345623E-13, 34.39999999999993463, 0.000000000000000000 ) ) ;
#541 = CONICAL_SURFACE ( 'NONE', #480, 5.000000000004812151, 0.4205343352832650039 ) ;
#542 = AXIS2_PLACEMENT_3D ( 'NONE', #340, #466, #374 ) ;
#543 = FACE_OUTER_BOUND ( 'NONE', #458, .T. ) ;
#544 = ORIENTED_EDGE ( 'NONE', *, *, #226, .F. ) ;
#545 = CARTESIAN_POINT ( 'NONE',  ( -1.551091836734699513E-13, 34.50000000000009237, 0.000000000000000000 ) ) ;
#546 = ORIENTED_EDGE ( 'NONE', *, *, #885, .F. ) ;
#547 = CARTESIAN_POINT ( 'NONE',  ( -3.250000000000026201, 35.50000000000007816, 0.000000000000000000 ) ) ;
#548 = DIRECTION ( 'NONE',  ( -4.495918367346943426E-15, 1.000000000000000000, -0.000000000000000000 ) ) ;
#549 = CARTESIAN_POINT ( 'NONE',  ( -3.500000000000189626, 34.50000000000009237, 0.000000000000000000 ) ) ;
#550 = DIRECTION ( 'NONE',  ( -4.495918367346943426E-15, 1.000000000000000000, -0.000000000000000000 ) ) ;
#551 = EDGE_LOOP ( 'NONE', ( #447, #694, #84, #656 ) ) ;
#552 = DIRECTION ( 'NONE',  ( -4.495918367346943426E-15, 1.000000000000000000, -0.000000000000000000 ) ) ;
#553 = AXIS2_PLACEMENT_3D ( 'NONE', #305, #912, #70 ) ;
#554 = EDGE_CURVE ( 'NONE', #701, #838, #1000, .T. ) ;
#555 = ORIENTED_EDGE ( 'NONE', *, *, #209, .T. ) ;
#556 = DIRECTION ( 'NONE',  ( -4.495918367346943426E-15, 1.000000000000000000, -0.000000000000000000 ) ) ;
#557 = ORIENTED_EDGE ( 'NONE', *, *, #467, .F. ) ;
#558 = CARTESIAN_POINT ( 'NONE',  ( -4.614580050114497762E-14, 10.26393202249706249, 0.000000000000000000 ) ) ;
#559 = FACE_OUTER_BOUND ( 'NONE', #318, .T. ) ;
#560 = ADVANCED_FACE ( 'NONE', ( #995 ), #119, .T. ) ;
#561 = CARTESIAN_POINT ( 'NONE',  ( -1.546595918367345623E-13, 34.39999999999993463, 0.000000000000000000 ) ) ;
#562 = EDGE_CURVE ( 'NONE', #121, #999, #880, .T. ) ;
#563 = ORIENTED_EDGE ( 'NONE', *, *, #326, .F. ) ;
#564 = FACE_OUTER_BOUND ( 'NONE', #399, .T. ) ;
#565 = EDGE_CURVE ( 'NONE', #362, #760, #26, .T. ) ;
#566 = LINE ( 'NONE', #975, #779 ) ;
#567 = AXIS2_PLACEMENT_3D ( 'NONE', #773, #398, #166 ) ;
#568 = VERTEX_POINT ( 'NONE', #689 ) ;
#569 = DIRECTION ( 'NONE',  ( -1.000000000000000000, -4.625929269271623373E-15, 0.000000000000000000 ) ) ;
#570 = CIRCLE ( 'NONE', #100, 2.999999999999976019 ) ;
#571 = CIRCLE ( 'NONE', #365, 3.500000000000034195 ) ;
#572 = CARTESIAN_POINT ( 'NONE',  ( -1.551091836734700018E-13, 34.50000000000010658, 0.000000000000000000 ) ) ;
#573 = ORIENTED_EDGE ( 'NONE', *, *, #565, .T. ) ;
#574 = UNCERTAINTY_MEASURE_WITH_UNIT (LENGTH_MEASURE( 1.000000000000000082E-05 ), #366, 'distance_accuracy_value', 'NONE');
#575 = DIRECTION ( 'NONE',  ( -4.495918367346943426E-15, 1.000000000000000000, -0.000000000000000000 ) ) ;
#576 = DIRECTION ( 'NONE',  ( -4.495918367346943426E-15, 1.000000000000000000, -0.000000000000000000 ) ) ;
#577 = DIRECTION ( 'NONE',  ( -4.495918367346943426E-15, 1.000000000000000000, -0.000000000000000000 ) ) ;
#578 = DIRECTION ( 'NONE',  ( -1.000000000000000000, -3.083952846181038598E-15, 0.000000000000000000 ) ) ;
#579 = ORIENTED_EDGE ( 'NONE', *, *, #237, .T. ) ;
#580 = CARTESIAN_POINT ( 'NONE',  ( -3.000000000000187406, 47.00000000000002132, 3.673940397442030286E-16 ) ) ;
#581 = LINE ( 'NONE', #715, #414 ) ;
#582 = CARTESIAN_POINT ( 'NONE',  ( -1.910765306122436685E-13, 42.49999999999968736, 0.000000000000000000 ) ) ;
#583 = SURFACE_SIDE_STYLE ('',( #666 ) ) ;
#584 = ORIENTED_EDGE ( 'NONE', *, *, #301, .T. ) ;
#585 = ADVANCED_FACE ( 'NONE', ( #536 ), #605, .T. ) ;
#586 = SURFACE_STYLE_FILL_AREA ( #664 ) ;
#587 = CIRCLE ( 'NONE', #412, 2.949999999999887823 ) ;
#588 = AXIS2_PLACEMENT_3D ( 'NONE', #293, #448, #755 ) ;
#589 = VECTOR ( 'NONE', #170, 999.9999999999998863 ) ;
#590 = AXIS2_PLACEMENT_3D ( 'NONE', #970, #790, #112 ) ;
#591 = ORIENTED_EDGE ( 'NONE', *, *, #453, .F. ) ;
#592 = DIRECTION ( 'NONE',  ( -1.000000000000000000, -3.083952846181057925E-15, 0.000000000000000000 ) ) ;
#593 =( NAMED_UNIT ( * ) PLANE_ANGLE_UNIT ( ) SI_UNIT ( $, .RADIAN. ) );
#594 = ORIENTED_EDGE ( 'NONE', *, *, #653, .T. ) ;
#595 = CARTESIAN_POINT ( 'NONE',  ( -3.050000000000153477, 41.91905249806889344, 0.000000000000000000 ) ) ;
#596 = DIRECTION ( 'NONE',  ( -4.495918367346943426E-15, 1.000000000000000000, -0.000000000000000000 ) ) ;
#597 = EDGE_CURVE ( 'NONE', #785, #106, #735, .T. ) ;
#598 = VERTEX_POINT ( 'NONE', #825 ) ;
#599 = DIRECTION ( 'NONE',  ( -1.000000000000000000, -4.625929269271550009E-15, 0.000000000000000000 ) ) ;
#600 = CARTESIAN_POINT ( 'NONE',  ( -5.000000000005024425, 48.99999999999992895, 0.000000000000000000 ) ) ;
#601 = AXIS2_PLACEMENT_3D ( 'NONE', #783, #251, #392 ) ;
#602 = AXIS2_PLACEMENT_3D ( 'NONE', #807, #128, #658 ) ;
#603 = VECTOR ( 'NONE', #991, 1000.000000000000000 ) ;
#604 = ORIENTED_EDGE ( 'NONE', *, *, #178, .F. ) ;
#605 = CYLINDRICAL_SURFACE ( 'NONE', #396, 2.249999999999957812 ) ;
#606 = EDGE_CURVE ( 'NONE', #633, #994, #608, .T. ) ;
#607 = ORIENTED_EDGE ( 'NONE', *, *, #295, .T. ) ;
#608 = LINE ( 'NONE', #693, #299 ) ;
#609 = ADVANCED_FACE ( 'NONE', ( #836 ), #145, .T. ) ;
#610 = ORIENTED_EDGE ( 'NONE', *, *, #457, .F. ) ;
#611 = DIRECTION ( 'NONE',  ( -1.000000000000000000, -4.704334850106764019E-15, 0.000000000000000000 ) ) ;
#612 = ORIENTED_EDGE ( 'NONE', *, *, #21, .T. ) ;
#613 = CARTESIAN_POINT ( 'NONE',  ( -1.910765306122436685E-13, 42.49999999999968736, 0.000000000000000000 ) ) ;
#614 = CONICAL_SURFACE ( 'NONE', #167, 3.249999999999887201, 0.7853981633973147192 ) ;
#615 = VECTOR ( 'NONE', #697, 1000.000000000000114 ) ;
#616 = AXIS2_PLACEMENT_3D ( 'NONE', #478, #781, #90 ) ;
#617 = ORIENTED_EDGE ( 'NONE', *, *, #802, .T. ) ;
#618 = LINE ( 'NONE', #771, #965 ) ;
#619 = VERTEX_POINT ( 'NONE', #148 ) ;
#620 = DIRECTION ( 'NONE',  ( -1.000000000000000000, -5.551115123126647294E-15, 0.000000000000000000 ) ) ;
#621 = DIRECTION ( 'NONE',  ( 1.000000000000000000, 4.625929269271522399E-15, 0.000000000000000000 ) ) ;
#622 = PRESENTATION_LAYER_ASSIGNMENT (  '', '', ( #108 ) ) ;
#623 = VERTEX_POINT ( 'NONE', #767 ) ;
#624 = DIRECTION ( 'NONE',  ( -1.000000000000000000, -4.495918367346943426E-15, 0.000000000000000000 ) ) ;
#625 = ORIENTED_EDGE ( 'NONE', *, *, #962, .T. ) ;
#626 = DIRECTION ( 'NONE',  ( -1.000000000000000000, -4.704334850106774274E-15, 0.000000000000000000 ) ) ;
#627 = EDGE_CURVE ( 'NONE', #504, #785, #349, .T. ) ;
#628 = ORIENTED_EDGE ( 'NONE', *, *, #97, .T. ) ;
#629 = DIRECTION ( 'NONE',  ( -4.495918367346943426E-15, 1.000000000000000000, -0.000000000000000000 ) ) ;
#630 = ORIENTED_EDGE ( 'NONE', *, *, #748, .F. ) ;
#631 = CARTESIAN_POINT ( 'NONE',  ( 5.899999999999725908, 34.50000000000012079, 0.000000000000000000 ) ) ;
#632 = CIRCLE ( 'NONE', #687, 1.845299461620725223 ) ;
#633 = VERTEX_POINT ( 'NONE', #208 ) ;
#634 = CYLINDRICAL_SURFACE ( 'NONE', #138, 2.249999999999957812 ) ;
#635 = EDGE_CURVE ( 'NONE', #907, #77, #571, .T. ) ;
#636 = ORIENTED_EDGE ( 'NONE', *, *, #716, .T. ) ;
#637 = CIRCLE ( 'NONE', #333, 5.000000000004797052 ) ;
#638 = DIRECTION ( 'NONE',  ( -1.000000000000000000, -4.270088556250750202E-15, 0.000000000000000000 ) ) ;
#639 = AXIS2_PLACEMENT_3D ( 'NONE', #649, #270, #113 ) ;
#640 = PLANE ( 'NONE',  #639 ) ;
#641 = MECHANICAL_DESIGN_GEOMETRIC_PRESENTATION_REPRESENTATION (  '', ( #267 ), #800 ) ;
#642 = EDGE_LOOP ( 'NONE', ( #924, #345, #144, #410 ) ) ;
#643 = FACE_OUTER_BOUND ( 'NONE', #421, .T. ) ;
#644 = ADVANCED_FACE ( 'NONE', ( #846 ), #634, .T. ) ;
#645 = FACE_BOUND ( 'NONE', #533, .T. ) ;
#646 = ORIENTED_EDGE ( 'NONE', *, *, #743, .T. ) ;
#647 = DIRECTION ( 'NONE',  ( -1.000000000000000000, -4.625929269271547642E-15, 0.000000000000000000 ) ) ;
#648 = DIRECTION ( 'NONE',  ( -4.495918367346943426E-15, 1.000000000000000000, -0.000000000000000000 ) ) ;
#649 = CARTESIAN_POINT ( 'NONE',  ( 3.499999999999879208, 34.50000000000011369, 0.000000000000000000 ) ) ;
#650 = EDGE_LOOP ( 'NONE', ( #557, #806, #628, #630 ) ) ;
#651 = DIRECTION ( 'NONE',  ( -4.495918367346943426E-15, 1.000000000000000000, -0.000000000000000000 ) ) ;
#652 = CIRCLE ( 'NONE', #877, 2.999999999999958256 ) ;
#653 = EDGE_CURVE ( 'NONE', #152, #121, #153, .T. ) ;
#654 = CYLINDRICAL_SURFACE ( 'NONE', #266, 2.949999999999890932 ) ;
#655 = CARTESIAN_POINT ( 'NONE',  ( 3.067157287525097864, 35.31715728752541850, 3.756184354649284012E-16 ) ) ;
#656 = ORIENTED_EDGE ( 'NONE', *, *, #135, .F. ) ;
#657 = AXIS2_PLACEMENT_3D ( 'NONE', #768, #672, #286 ) ;
#658 = DIRECTION ( 'NONE',  ( -1.000000000000000000, -4.524641714416864339E-15, 0.000000000000000000 ) ) ;
#659 = CARTESIAN_POINT ( 'NONE',  ( -1.845299461620945491, 48.99999999999993605, 2.966890238292093493E-16 ) ) ;
#660 = EDGE_CURVE ( 'NONE', #304, #701, #815, .T. ) ;
#661 = DIRECTION ( 'NONE',  ( -1.000000000000000000, -4.625929269271547642E-15, 0.000000000000000000 ) ) ;
#662 = EDGE_LOOP ( 'NONE', ( #328, #646, #981, #271 ) ) ;
#663 = CARTESIAN_POINT ( 'NONE',  ( 2.949999999999730615, 35.03431457505084268, 3.612708057484556511E-16 ) ) ;
#664 = FILL_AREA_STYLE ('',( #741 ) ) ;
#665 = FACE_OUTER_BOUND ( 'NONE', #650, .T. ) ;
#666 = SURFACE_STYLE_FILL_AREA ( #826 ) ;
#667 = ORIENTED_EDGE ( 'NONE', *, *, #158, .T. ) ;
#668 = CYLINDRICAL_SURFACE ( 'NONE', #963, 5.999999999999870326 ) ;
#669 = PRESENTATION_STYLE_ASSIGNMENT (( #67 ) ) ;
#670 = AXIS2_PLACEMENT_3D ( 'NONE', #192, #38, #115 ) ;
#671 = CONICAL_SURFACE ( 'NONE', #830, 3.500000000000034195, 1.047197551196563436 ) ;
#672 = DIRECTION ( 'NONE',  ( -4.495918367346943426E-15, 1.000000000000000000, -0.000000000000000000 ) ) ;
#673 = LINE ( 'NONE', #41, #678 ) ;
#674 = ORIENTED_EDGE ( 'NONE', *, *, #377, .T. ) ;
#675 = CARTESIAN_POINT ( 'NONE',  ( -1.886511780124777715E-13, 41.91905249806890765, 0.000000000000000000 ) ) ;
#676 = AXIS2_PLACEMENT_3D ( 'NONE', #561, #189, #661 ) ;
#677 = EDGE_CURVE ( 'NONE', #893, #395, #618, .T. ) ;
#678 = VECTOR ( 'NONE', #57, 1000.000000000000000 ) ;
#679 = APPLICATION_PROTOCOL_DEFINITION ( 'draft international standard', 'automotive_design', 1998, #431 ) ;
#680 = ORIENTED_EDGE ( 'NONE', *, *, #460, .F. ) ;
#681 = DIRECTION ( 'NONE',  ( -1.000000000000000000, -5.046468293750763469E-15, 0.000000000000000000 ) ) ;
#682 = CARTESIAN_POINT ( 'NONE',  ( 5.000000000004765965, 10.26393202249708558, 6.123233995742659073E-16 ) ) ;
#683 = VERTEX_POINT ( 'NONE', #27 ) ;
#684 = CARTESIAN_POINT ( 'NONE',  ( -4.495918367346943514E-12, 1000.000000000000000, 0.000000000000000000 ) ) ;
#685 = CONICAL_SURFACE ( 'NONE', #245, 2.499999999999610534, 0.7853981633975181120 ) ;
#686 = ADVANCED_FACE ( 'NONE', ( #234 ), #775, .T. ) ;
#687 = AXIS2_PLACEMENT_3D ( 'NONE', #238, #548, #856 ) ;
#688 = EDGE_LOOP ( 'NONE', ( #171, #162, #888, #196 ) ) ;
#689 = CARTESIAN_POINT ( 'NONE',  ( -3.000000000000187406, 47.00000000000002132, 0.000000000000000000 ) ) ;
#690 = CIRCLE ( 'NONE', #285, 2.749999999999971578 ) ;
#691 = EDGE_CURVE ( 'NONE', #427, #479, #918, .T. ) ;
#692 = ORIENTED_EDGE ( 'NONE', *, *, #759, .T. ) ;
#693 = CARTESIAN_POINT ( 'NONE',  ( -3.250000000000067057, 39.99999999999999289, 3.980102097228759688E-16 ) ) ;
#694 = ORIENTED_EDGE ( 'NONE', *, *, #913, .T. ) ;
#695 = DIRECTION ( 'NONE',  ( -4.495918367346943426E-15, 1.000000000000000000, -0.000000000000000000 ) ) ;
#696 = EDGE_LOOP ( 'NONE', ( #882, #539, #516, #610 ) ) ;
#697 = DIRECTION ( 'NONE',  ( 0.8660254037844191677, 0.5000000000000336398, 1.060575238724885714E-16 ) ) ;
#698 = EDGE_CURVE ( 'NONE', #249, #309, #449, .T. ) ;
#699 = CARTESIAN_POINT ( 'NONE',  ( -2.113081632653064877E-13, 47.00000000000003553, 0.000000000000000000 ) ) ;
#700 = CIRCLE ( 'NONE', #217, 3.249999999999866773 ) ;
#701 = VERTEX_POINT ( 'NONE', #228 ) ;
#702 = CARTESIAN_POINT ( 'NONE',  ( -1.856154119295183591E-13, 41.24161984870963238, 0.000000000000000000 ) ) ;
#703 = CARTESIAN_POINT ( 'NONE',  ( -2.250000000000136335, 41.24161984870963238, 0.000000000000000000 ) ) ;
#704 = ADVANCED_FACE ( 'NONE', ( #163 ), #465, .F. ) ;
#705 = AXIS2_PLACEMENT_3D ( 'NONE', #742, #879, #440 ) ;
#706 = ORIENTED_EDGE ( 'NONE', *, *, #743, .F. ) ;
#707 = DIRECTION ( 'NONE',  ( -1.000000000000000000, -4.704334850106689866E-15, 0.000000000000000000 ) ) ;
#708 = ORIENTED_EDGE ( 'NONE', *, *, #269, .F. ) ;
#709 = CARTESIAN_POINT ( 'NONE',  ( 3.049999999999765343, 41.24161984870964659, 3.735172737399366996E-16 ) ) ;
#710 = EDGE_CURVE ( 'NONE', #320, #907, #174, .T. ) ;
#711 = ADVANCED_FACE ( 'NONE', ( #409 ), #60, .T. ) ;
#712 = ORIENTED_EDGE ( 'NONE', *, *, #653, .F. ) ;
#713 = CARTESIAN_POINT ( 'NONE',  ( -1.297859839822680339E-14, 2.886751345951489522, 0.000000000000000000 ) ) ;
#714 = EDGE_CURVE ( 'NONE', #683, #619, #637, .T. ) ;
#715 = CARTESIAN_POINT ( 'NONE',  ( -2.950000000000111200, 48.99999999999993605, 0.000000000000000000 ) ) ;
#716 = EDGE_CURVE ( 'NONE', #264, #157, #700, .T. ) ;
#717 = DIRECTION ( 'NONE',  ( 1.000000000000000000, 4.625929269271547642E-15, 0.000000000000000000 ) ) ;
#718 = AXIS2_PLACEMENT_3D ( 'NONE', #558, #929, #95 ) ;
#719 = DIRECTION ( 'NONE',  ( -1.000000000000000000, -5.551115123126647294E-15, 0.000000000000000000 ) ) ;
#720 = CONICAL_SURFACE ( 'NONE', #105, 3.249999999999887201, 0.7853981633973147192 ) ;
#721 = TOROIDAL_SURFACE ( 'NONE', #657, 3.149999999999894662, 0.1999999999999995948 ) ;
#722 = DIRECTION ( 'NONE',  ( -4.495918367346943426E-15, 1.000000000000000000, -0.000000000000000000 ) ) ;
#723 = DIRECTION ( 'NONE',  ( -4.495918367346943426E-15, 1.000000000000000000, -0.000000000000000000 ) ) ;
#724 = ORIENTED_EDGE ( 'NONE', *, *, #537, .F. ) ;
#725 = DIRECTION ( 'NONE',  ( -4.495918367346943426E-15, 1.000000000000000000, -0.000000000000000000 ) ) ;
#726 = DIRECTION ( 'NONE',  ( -4.495918367346943426E-15, 1.000000000000000000, -0.000000000000000000 ) ) ;
#727 = ORIENTED_EDGE ( 'NONE', *, *, #904, .T. ) ;
#728 = CARTESIAN_POINT ( 'NONE',  ( -2.113081632653064877E-13, 47.00000000000003553, 0.000000000000000000 ) ) ;
#729 = FACE_OUTER_BOUND ( 'NONE', #110, .T. ) ;
#730 = AXIS2_PLACEMENT_3D ( 'NONE', #777, #14, #638 ) ;
#731 = DIRECTION ( 'NONE',  ( -4.495918367346943426E-15, 1.000000000000000000, -0.000000000000000000 ) ) ;
#732 = ORIENTED_EDGE ( 'NONE', *, *, #93, .T. ) ;
#733 = DIRECTION ( 'NONE',  ( 1.000000000000000000, 4.625929269271522399E-15, 0.000000000000000000 ) ) ;
#734 = CIRCLE ( 'NONE', #512, 2.249999999999950706 ) ;
#735 = CIRCLE ( 'NONE', #796, 0.1999999999999996503 ) ;
#736 = ADVANCED_FACE ( 'NONE', ( #13 ), #10, .F. ) ;
#737 = DIRECTION ( 'NONE',  ( -4.495918367346943426E-15, 1.000000000000000000, -0.000000000000000000 ) ) ;
#738 = ORIENTED_EDGE ( 'NONE', *, *, #3, .F. ) ;
#739 = CONICAL_SURFACE ( 'NONE', #867, 3.500000000000034195, 1.047197551196563436 ) ;
#740 = DIRECTION ( 'NONE',  ( -1.000000000000000000, -4.704334850106689866E-15, 0.000000000000000000 ) ) ;
#741 = FILL_AREA_STYLE_COLOUR ( '', #922 ) ;
#742 = CARTESIAN_POINT ( 'NONE',  ( -2.203000000000000054E-13, 48.99999999999995026, 0.000000000000000000 ) ) ;
#743 = EDGE_CURVE ( 'NONE', #202, #220, #853, .T. ) ;
#744 = LINE ( 'NONE', #910, #385 ) ;
#745 = ORIENTED_EDGE ( 'NONE', *, *, #71, .F. ) ;
#746 = DIRECTION ( 'NONE',  ( -1.000000000000000000, -4.524641714416864339E-15, 0.000000000000000000 ) ) ;
#747 = DIRECTION ( 'NONE',  ( -4.495918367346943426E-15, 1.000000000000000000, -0.000000000000000000 ) ) ;
#748 = EDGE_CURVE ( 'NONE', #504, #320, #843, .T. ) ;
#749 = ORIENTED_EDGE ( 'NONE', *, *, #635, .F. ) ;
#750 = DIRECTION ( 'NONE',  ( -4.495918367346943426E-15, 1.000000000000000000, -0.000000000000000000 ) ) ;
#751 = CIRCLE ( 'NONE', #527, 2.249999999999964917 ) ;
#752 = CIRCLE ( 'NONE', #168, 3.249999999999866773 ) ;
#753 = DIRECTION ( 'NONE',  ( 0.000000000000000000, 0.000000000000000000, 1.000000000000000000 ) ) ;
#754 = EDGE_LOOP ( 'NONE', ( #972, #956, #766, #136 ) ) ;
#755 = DIRECTION ( 'NONE',  ( -1.000000000000000000, -4.510281037535357344E-15, 0.000000000000000000 ) ) ;
#756 = CARTESIAN_POINT ( 'NONE',  ( 2.999999999999762412, 42.99999999999997868, 3.673940397442005634E-16 ) ) ;
#757 = ORIENTED_EDGE ( 'NONE', *, *, #76, .F. ) ;
#758 = CARTESIAN_POINT ( 'NONE',  ( -1.856154119295183591E-13, 41.24161984870963238, 0.000000000000000000 ) ) ;
#759 = EDGE_CURVE ( 'NONE', #362, #999, #400, .T. ) ;
#760 = VERTEX_POINT ( 'NONE', #945 ) ;
#761 = DIRECTION ( 'NONE',  ( -4.495918367346943426E-15, 1.000000000000000000, -0.000000000000000000 ) ) ;
#762 = AXIS2_PLACEMENT_3D ( 'NONE', #758, #925, #66 ) ;
#763 = ADVANCED_FACE ( 'NONE', ( #242 ), #671, .F. ) ;
#764 = AXIS2_PLACEMENT_3D ( 'NONE', #915, #750, #681 ) ;
#765 = CLOSED_SHELL ( 'NONE', ( #439, #103, #816, #20, #585, #736, #50, #252, #315, #704, #609, #919, #833, #711, #324, #34, #993, #198, #529, #499, #776, #222, #190, #870, #763, #875, #848, #423, #560, #851, #232, #497, #644, #519, #124, #686, #944, #808 ) ) ;
#766 = ORIENTED_EDGE ( 'NONE', *, *, #885, .T. ) ;
#767 = CARTESIAN_POINT ( 'NONE',  ( -3.067157287525414944, 35.31715728752539718, 0.000000000000000000 ) ) ;
#768 = CARTESIAN_POINT ( 'NONE',  ( -1.552577510999242349E-13, 34.52886751345949534, 0.000000000000000000 ) ) ;
#769 = AXIS2_PLACEMENT_3D ( 'NONE', #572, #577, #32 ) ;
#770 = EDGE_LOOP ( 'NONE', ( #712, #607, #692, #530 ) ) ;
#771 = CARTESIAN_POINT ( 'NONE',  ( 5.999999999999650058, 48.99999999999997868, 7.347880794883959992E-16 ) ) ;
#772 = ORIENTED_EDGE ( 'NONE', *, *, #895, .T. ) ;
#773 = CARTESIAN_POINT ( 'NONE',  ( -3.350000000000045386, 35.03431457505078583, 0.000000000000000000 ) ) ;
#774 = ORIENTED_EDGE ( 'NONE', *, *, #68, .T. ) ;
#775 = CYLINDRICAL_SURFACE ( 'NONE', #101, 2.999999999999967137 ) ;
#776 = ADVANCED_FACE ( 'NONE', ( #186 ), #541, .T. ) ;
#777 = CARTESIAN_POINT ( 'NONE',  ( -1.798367346938777749E-13, 40.00000000000000711, 0.000000000000000000 ) ) ;
#778 = CIRCLE ( 'NONE', #860, 5.000000000004797052 ) ;
#779 = VECTOR ( 'NONE', #886, 1000.000000000000114 ) ;
#780 = ORIENTED_EDGE ( 'NONE', *, *, #898, .F. ) ;
#781 = DIRECTION ( 'NONE',  ( 0.000000000000000000, -0.000000000000000000, -1.000000000000000000 ) ) ;
#782 = ORIENTED_EDGE ( 'NONE', *, *, #3, .T. ) ;
#783 = CARTESIAN_POINT ( 'NONE',  ( -1.575114183853817379E-13, 35.03431457505082847, 0.000000000000000000 ) ) ;
#784 = CIRCLE ( 'NONE', #850, 3.067157287525256848 ) ;
#785 = VERTEX_POINT ( 'NONE', #872 ) ;
#786 = DIRECTION ( 'NONE',  ( 1.000000000000000000, 0.000000000000000000, 1.224646799147352221E-16 ) ) ;
#787 = ORIENTED_EDGE ( 'NONE', *, *, #130, .F. ) ;
#788 = CARTESIAN_POINT ( 'NONE',  ( -2.203000000000000054E-13, 48.99999999999995026, 0.000000000000000000 ) ) ;
#789 = EDGE_CURVE ( 'NONE', #950, #803, #566, .T. ) ;
#790 = DIRECTION ( 'NONE',  ( -4.495918367346943426E-15, 1.000000000000000000, -0.000000000000000000 ) ) ;
#791 = DIRECTION ( 'NONE',  ( -0.8660254037844237196, 0.5000000000000258682, 0.000000000000000000 ) ) ;
#792 = FACE_OUTER_BOUND ( 'NONE', #227, .T. ) ;
#793 = CIRCLE ( 'NONE', #567, 0.3999999999999997446 ) ;
#794 = DIRECTION ( 'NONE',  ( -1.224646799147353207E-16, -5.505912037799228575E-31, 1.000000000000000000 ) ) ;
#795 = ORIENTED_EDGE ( 'NONE', *, *, #175, .F. ) ;
#796 = AXIS2_PLACEMENT_3D ( 'NONE', #289, #455, #921 ) ;
#797 = DIRECTION ( 'NONE',  ( -4.495918367346943426E-15, 1.000000000000000000, -0.000000000000000000 ) ) ;
#798 = VECTOR ( 'NONE', #79, 999.9999999999998863 ) ;
#799 = DIRECTION ( 'NONE',  ( -1.000000000000000000, -3.965082230804091960E-15, 0.000000000000000000 ) ) ;
#800 =( GEOMETRIC_REPRESENTATION_CONTEXT ( 3 ) GLOBAL_UNCERTAINTY_ASSIGNED_CONTEXT ( ( #574 ) ) GLOBAL_UNIT_ASSIGNED_CONTEXT ( ( #366, #593, #966 ) ) REPRESENTATION_CONTEXT ( 'NONE', 'WORKASPACE' ) );
#801 =( NAMED_UNIT ( * ) SI_UNIT ( $, .STERADIAN. ) SOLID_ANGLE_UNIT ( ) );
#802 = EDGE_CURVE ( 'NONE', #395, #838, #40, .T. ) ;
#803 = VERTEX_POINT ( 'NONE', #959 ) ;
#804 = DIRECTION ( 'NONE',  ( -4.495918367346943426E-15, 1.000000000000000000, -0.000000000000000000 ) ) ;
#805 = FACE_OUTER_BOUND ( 'NONE', #384, .T. ) ;
#806 = ORIENTED_EDGE ( 'NONE', *, *, #597, .T. ) ;
#807 = CARTESIAN_POINT ( 'NONE',  ( -1.587830561314664200E-13, 35.31715728752541139, 0.000000000000000000 ) ) ;
#808 = ADVANCED_FACE ( 'NONE', ( #955 ), #897, .F. ) ;
#809 = FACE_OUTER_BOUND ( 'NONE', #868, .T. ) ;
#810 = FACE_OUTER_BOUND ( 'NONE', #754, .T. ) ;
#811 = ORIENTED_EDGE ( 'NONE', *, *, #895, .F. ) ;
#812 = CARTESIAN_POINT ( 'NONE',  ( -3.250000000000097256, 48.99999999999993605, 0.000000000000000000 ) ) ;
#813 = CONICAL_SURFACE ( 'NONE', #296, 2.999999999999976019, 0.5235987755983178005 ) ;
#814 = CARTESIAN_POINT ( 'NONE',  ( 2.749999999999789502, 40.50000000000007105, 0.000000000000000000 ) ) ;
#815 = CIRCLE ( 'NONE', #949, 5.899999999999881339 ) ;
#816 = ADVANCED_FACE ( 'NONE', ( #805 ), #62, .T. ) ;
#817 = DIRECTION ( 'NONE',  ( -1.000000000000000000, -4.704334850106769541E-15, 0.000000000000000000 ) ) ;
#818 = SURFACE_STYLE_USAGE ( .BOTH. , #583 ) ;
#819 = ORIENTED_EDGE ( 'NONE', *, *, #467, .T. ) ;
#820 = CARTESIAN_POINT ( 'NONE',  ( -1.551091836734699513E-13, 34.50000000000009237, 0.000000000000000000 ) ) ;
#821 = EDGE_CURVE ( 'NONE', #950, #633, #690, .T. ) ;
#822 = DIRECTION ( 'NONE',  ( -4.495918367346943426E-15, 1.000000000000000000, -0.000000000000000000 ) ) ;
#823 = DIRECTION ( 'NONE',  ( -4.495918367346943426E-15, 1.000000000000000000, -0.000000000000000000 ) ) ;
#824 = ORIENTED_EDGE ( 'NONE', *, *, #554, .T. ) ;
#825 = CARTESIAN_POINT ( 'NONE',  ( 2.999999999999765521, 47.00000000000004974, 3.673940397442024862E-16 ) ) ;
#826 = FILL_AREA_STYLE ('',( #131 ) ) ;
#827 = ORIENTED_EDGE ( 'NONE', *, *, #326, .T. ) ;
#828 = CARTESIAN_POINT ( 'NONE',  ( -1.933244897959183669E-13, 42.99999999999996447, 0.000000000000000000 ) ) ;
#829 = AXIS2_PLACEMENT_3D ( 'NONE', #257, #8, #481 ) ;
#830 = AXIS2_PLACEMENT_3D ( 'NONE', #864, #51, #799 ) ;
#831 = ORIENTED_EDGE ( 'NONE', *, *, #209, .F. ) ;
#832 = DIRECTION ( 'NONE',  ( -1.000000000000000000, -3.083952846181048065E-15, 0.000000000000000000 ) ) ;
#833 = ADVANCED_FACE ( 'NONE', ( #810 ), #739, .F. ) ;
#834 = DIRECTION ( 'NONE',  ( -4.495918367346943426E-15, 1.000000000000000000, -0.000000000000000000 ) ) ;
#835 = EDGE_LOOP ( 'NONE', ( #256, #463, #72, #259 ) ) ;
#836 = FACE_OUTER_BOUND ( 'NONE', #688, .T. ) ;
#837 = EDGE_CURVE ( 'NONE', #623, #264, #514, .T. ) ;
#838 = VERTEX_POINT ( 'NONE', #258 ) ;
#839 = CARTESIAN_POINT ( 'NONE',  ( -2.203000000000000054E-13, 48.99999999999995026, 0.000000000000000000 ) ) ;
#840 = DIRECTION ( 'NONE',  ( -1.000000000000000000, -4.625929269271536598E-15, 0.000000000000000000 ) ) ;
#841 = CIRCLE ( 'NONE', #56, 3.249999999999912514 ) ;
#842 = EDGE_LOOP ( 'NONE', ( #442, #288, #960, #920 ) ) ;
#843 = CIRCLE ( 'NONE', #616, 0.1999999999999996503 ) ;
#844 = AXIS2_PLACEMENT_3D ( 'NONE', #415, #722, #31 ) ;
#845 = ORIENTED_EDGE ( 'NONE', *, *, #789, .T. ) ;
#846 = FACE_OUTER_BOUND ( 'NONE', #207, .T. ) ;
#847 = CARTESIAN_POINT ( 'NONE',  ( 0.000000000000000000, -1.108329447832838545E-43, 0.000000000000000000 ) ) ;
#848 = ADVANCED_FACE ( 'NONE', ( #729 ), #654, .T. ) ;
#849 = DIRECTION ( 'NONE',  ( -4.495918367346943426E-15, 1.000000000000000000, -0.000000000000000000 ) ) ;
#850 = AXIS2_PLACEMENT_3D ( 'NONE', #932, #849, #156 ) ;
#851 = ADVANCED_FACE ( 'NONE', ( #125 ), #344, .T. ) ;
#852 = ORIENTED_EDGE ( 'NONE', *, *, #116, .T. ) ;
#853 = LINE ( 'NONE', #941, #280 ) ;
#854 = ORIENTED_EDGE ( 'NONE', *, *, #158, .F. ) ;
#855 = DIRECTION ( 'NONE',  ( -1.000000000000000000, -4.510281037535371543E-15, 0.000000000000000000 ) ) ;
#856 = DIRECTION ( 'NONE',  ( -1.000000000000000000, -3.760307770215682624E-15, 0.000000000000000000 ) ) ;
#857 = DIRECTION ( 'NONE',  ( -4.495918367346943426E-15, 1.000000000000000000, -0.000000000000000000 ) ) ;
#858 = ORIENTED_EDGE ( 'NONE', *, *, #175, .T. ) ;
#859 = DIRECTION ( 'NONE',  ( -4.495918367346943426E-15, 1.000000000000000000, -0.000000000000000000 ) ) ;
#860 = AXIS2_PLACEMENT_3D ( 'NONE', #713, #161, #855 ) ;
#861 = VECTOR ( 'NONE', #992, 1000.000000000000114 ) ;
#862 = CIRCLE ( 'NONE', #430, 5.999999999999919176 ) ;
#863 = ORIENTED_EDGE ( 'NONE', *, *, #361, .F. ) ;
#864 = CARTESIAN_POINT ( 'NONE',  ( -1.551091836734700018E-13, 34.50000000000010658, 0.000000000000000000 ) ) ;
#865 = AXIS2_PLACEMENT_3D ( 'NONE', #46, #576, #890 ) ;
#866 = CARTESIAN_POINT ( 'NONE',  ( -1.575114183853817379E-13, 35.03431457505082847, 0.000000000000000000 ) ) ;
#867 = AXIS2_PLACEMENT_3D ( 'NONE', #420, #726, #351 ) ;
#868 = EDGE_LOOP ( 'NONE', ( #724, #16, #80, #233 ) ) ;
#869 = DIRECTION ( 'NONE',  ( -1.224646799147353207E-16, -5.505912037799228575E-31, 1.000000000000000000 ) ) ;
#870 = ADVANCED_FACE ( 'NONE', ( #645, #891 ), #640, .F. ) ;
#871 = DIRECTION ( 'NONE',  ( -4.495918367346943426E-15, 1.000000000000000000, -0.000000000000000000 ) ) ;
#872 = CARTESIAN_POINT ( 'NONE',  ( 2.949999999999739497, 34.52886751345950245, 3.796405077356677575E-16 ) ) ;
#873 = ORIENTED_EDGE ( 'NONE', *, *, #348, .F. ) ;
#874 = CARTESIAN_POINT ( 'NONE',  ( -1.910765306122436685E-13, 42.49999999999968736, 0.000000000000000000 ) ) ;
#875 = ADVANCED_FACE ( 'NONE', ( #47 ), #204, .F. ) ;
#876 = VECTOR ( 'NONE', #218, 1000.000000000000000 ) ;
#877 = AXIS2_PLACEMENT_3D ( 'NONE', #828, #459, #599 ) ;
#878 = APPLICATION_CONTEXT ( 'automotive_design' ) ;
#879 = DIRECTION ( 'NONE',  ( -4.495918367346943426E-15, 1.000000000000000000, -0.000000000000000000 ) ) ;
#880 = CIRCLE ( 'NONE', #381, 2.999999999999958256 ) ;
#881 =( NAMED_UNIT ( * ) PLANE_ANGLE_UNIT ( ) SI_UNIT ( $, .RADIAN. ) );
#882 = ORIENTED_EDGE ( 'NONE', *, *, #927, .F. ) ;
#883 = DIRECTION ( 'NONE',  ( -1.000000000000000000, -4.270088556250717070E-15, 0.000000000000000000 ) ) ;
#884 = AXIS2_PLACEMENT_3D ( 'NONE', #582, #341, #118 ) ;
#885 = EDGE_CURVE ( 'NONE', #77, #907, #300, .T. ) ;
#886 = DIRECTION ( 'NONE',  ( 0.7071067811864562014, -0.7071067811866387220, 0.000000000000000000 ) ) ;
#887 = VECTOR ( 'NONE', #134, 1000.000000000000000 ) ;
#888 = ORIENTED_EDGE ( 'NONE', *, *, #164, .F. ) ;
#889 = DIRECTION ( 'NONE',  ( -4.495918367346943426E-15, 1.000000000000000000, -0.000000000000000000 ) ) ;
#890 = DIRECTION ( 'NONE',  ( -1.000000000000000000, -4.510281037535357344E-15, 0.000000000000000000 ) ) ;
#891 = FACE_OUTER_BOUND ( 'NONE', #292, .T. ) ;
#892 = LINE ( 'NONE', #450, #986 ) ;
#893 = VERTEX_POINT ( 'NONE', #971 ) ;
#894 = CARTESIAN_POINT ( 'NONE',  ( -1.546595918367345623E-13, 34.39999999999993463, 0.000000000000000000 ) ) ;
#895 = EDGE_CURVE ( 'NONE', #22, #598, #492, .T. ) ;
#896 = PRODUCT_DEFINITION_SHAPE ( 'NONE', 'NONE',  #248 ) ;
#897 = PLANE ( 'NONE',  #235 ) ;
#898 = EDGE_CURVE ( 'NONE', #994, #803, #92, .T. ) ;
#899 = AXIS2_PLACEMENT_3D ( 'NONE', #874, #556, #620 ) ;
#900 = CARTESIAN_POINT ( 'NONE',  ( -3.250000000000067057, 39.99999999999999289, 0.000000000000000000 ) ) ;
#901 = ORIENTED_EDGE ( 'NONE', *, *, #565, .F. ) ;
#902 = FACE_OUTER_BOUND ( 'NONE', #642, .T. ) ;
#903 = CIRCLE ( 'NONE', #88, 3.067157287525256848 ) ;
#904 = EDGE_CURVE ( 'NONE', #157, #803, #979, .T. ) ;
#905 = CARTESIAN_POINT ( 'NONE',  ( 3.249999999999656719, 48.99999999999996447, 3.980102097228747362E-16 ) ) ;
#906 =( NAMED_UNIT ( * ) PLANE_ANGLE_UNIT ( ) SI_UNIT ( $, .RADIAN. ) );
#907 = VERTEX_POINT ( 'NONE', #129 ) ;
#908 = DIRECTION ( 'NONE',  ( -1.000000000000000000, -4.270088556250777024E-15, 0.000000000000000000 ) ) ;
#909 = CARTESIAN_POINT ( 'NONE',  ( 2.999999999999746869, 48.99999999999996447, 3.673940397442019439E-16 ) ) ;
#910 = CARTESIAN_POINT ( 'NONE',  ( -5.000000000004858336, 10.26393202249704117, 0.000000000000000000 ) ) ;
#911 = ORIENTED_EDGE ( 'NONE', *, *, #146, .T. ) ;
#912 = DIRECTION ( 'NONE',  ( -4.495918367346943426E-15, 1.000000000000000000, -0.000000000000000000 ) ) ;
#913 = EDGE_CURVE ( 'NONE', #683, #309, #445, .T. ) ;
#914 = VERTEX_POINT ( 'NONE', #360 ) ;
#915 = CARTESIAN_POINT ( 'NONE',  ( -1.820846938775514383E-13, 40.50000000000005684, 0.000000000000000000 ) ) ;
#916 = AXIS2_PLACEMENT_3D ( 'NONE', #188, #363, #569 ) ;
#917 = CARTESIAN_POINT ( 'NONE',  ( 3.499999999999882316, 34.50000000000012079, 4.286263797015781954E-16 ) ) ;
#918 = CIRCLE ( 'NONE', #312, 0.3999999999999997446 ) ;
#919 = ADVANCED_FACE ( 'NONE', ( #665 ), #721, .F. ) ;
#920 = ORIENTED_EDGE ( 'NONE', *, *, #802, .F. ) ;
#921 = DIRECTION ( 'NONE',  ( 1.000000000000000000, 0.000000000000000000, 1.224646799147353454E-16 ) ) ;
#922 = COLOUR_RGB ( '',0.7921568627450980005, 0.8196078431372548767, 0.9333333333333333481 ) ;
#923 = PRESENTATION_LAYER_ASSIGNMENT (  '', '', ( #267 ) ) ;
#924 = ORIENTED_EDGE ( 'NONE', *, *, #913, .F. ) ;
#925 = DIRECTION ( 'NONE',  ( -4.495918367346943426E-15, 1.000000000000000000, -0.000000000000000000 ) ) ;
#926 = LINE ( 'NONE', #223, #798 ) ;
#927 = EDGE_CURVE ( 'NONE', #121, #598, #307, .T. ) ;
#928 = EDGE_LOOP ( 'NONE', ( #33, #53, #1, #827 ) ) ;
#929 = DIRECTION ( 'NONE',  ( -4.495918367346943426E-15, 1.000000000000000000, -0.000000000000000000 ) ) ;
#930 = EDGE_LOOP ( 'NONE', ( #316, #738, #772, #132 ) ) ;
#931 = CARTESIAN_POINT ( 'NONE',  ( -2.203000000000000054E-13, 48.99999999999995026, 0.000000000000000000 ) ) ;
#932 = CARTESIAN_POINT ( 'NONE',  ( -1.587830561314664200E-13, 35.31715728752541139, 0.000000000000000000 ) ) ;
#933 = EDGE_CURVE ( 'NONE', #623, #427, #784, .T. ) ;
#934 = CIRCLE ( 'NONE', #588, 5.000000000004812151 ) ;
#935 = AXIS2_PLACEMENT_3D ( 'NONE', #839, #137, #452 ) ;
#936 = ORIENTED_EDGE ( 'NONE', *, *, #388, .T. ) ;
#937 = CARTESIAN_POINT ( 'NONE',  ( 2.499999999999419131, 42.49999999999969447, 3.061616997867906373E-16 ) ) ;
#938 = DIRECTION ( 'NONE',  ( 1.000000000000000000, 4.625929269271547642E-15, 0.000000000000000000 ) ) ;
#939 = AXIS2_PLACEMENT_3D ( 'NONE', #63, #753, #371 ) ;
#940 = EDGE_LOOP ( 'NONE', ( #379, #402, #451, #325 ) ) ;
#941 = CARTESIAN_POINT ( 'NONE',  ( 2.249999999999737543, 48.99999999999995737, 2.755455298081493009E-16 ) ) ;
#942 = FACE_OUTER_BOUND ( 'NONE', #842, .T. ) ;
#943 = VERTEX_POINT ( 'NONE', #471 ) ;
#944 = ADVANCED_FACE ( 'NONE', ( #83 ), #485, .T. ) ;
#945 = CARTESIAN_POINT ( 'NONE',  ( -2.250000000000153655, 41.91905249806890765, 0.000000000000000000 ) ) ;
#946 = CARTESIAN_POINT ( 'NONE',  ( 5.000000000004765965, 10.26393202249708558, 6.123233995742653157E-16 ) ) ;
#947 = CIRCLE ( 'NONE', #331, 5.999999999999821476 ) ;
#948 = TOROIDAL_SURFACE ( 'NONE', #496, 3.049999999999964739, 0.7999999999999992673 ) ;
#949 = AXIS2_PLACEMENT_3D ( 'NONE', #545, #469, #707 ) ;
#950 = VERTEX_POINT ( 'NONE', #814 ) ;
#951 = DIRECTION ( 'NONE',  ( -1.224646799147353207E-16, -5.505912037799228575E-31, 1.000000000000000000 ) ) ;
#952 = MANIFOLD_SOLID_BREP ( '±ÛÂà1', #765 ) ;
#953 = EDGE_CURVE ( 'NONE', #427, #157, #426, .T. ) ;
#954 = DIRECTION ( 'NONE',  ( -4.495918367346943426E-15, 1.000000000000000000, -0.000000000000000000 ) ) ;
#955 = FACE_OUTER_BOUND ( 'NONE', #147, .T. ) ;
#956 = ORIENTED_EDGE ( 'NONE', *, *, #269, .T. ) ;
#957 = CARTESIAN_POINT ( 'NONE',  ( -4.495918367346943514E-12, 1000.000000000000000, 0.000000000000000000 ) ) ;
#958 = EDGE_CURVE ( 'NONE', #760, #220, #354, .T. ) ;
#959 = CARTESIAN_POINT ( 'NONE',  ( 3.249999999999706901, 40.00000000000002132, 3.980102097228753771E-16 ) ) ;
#960 = ORIENTED_EDGE ( 'NONE', *, *, #44, .T. ) ;
#961 = CARTESIAN_POINT ( 'NONE',  ( -2.113081632653064877E-13, 47.00000000000003553, 0.000000000000000000 ) ) ;
#962 = EDGE_CURVE ( 'NONE', #165, #760, #892, .T. ) ;
#963 = AXIS2_PLACEMENT_3D ( 'NONE', #111, #725, #443 ) ;
#964 = DIRECTION ( 'NONE',  ( -1.000000000000000000, -4.510281037535357344E-15, 0.000000000000000000 ) ) ;
#965 = VECTOR ( 'NONE', #490, 1000.000000000000000 ) ;
#966 =( NAMED_UNIT ( * ) SI_UNIT ( $, .STERADIAN. ) SOLID_ANGLE_UNIT ( ) );
#967 = ORIENTED_EDGE ( 'NONE', *, *, #976, .F. ) ;
#968 = FACE_OUTER_BOUND ( 'NONE', #42, .T. ) ;
#969 = VECTOR ( 'NONE', #434, 999.9999999999998863 ) ;
#970 = CARTESIAN_POINT ( 'NONE',  ( -1.886511780124777715E-13, 41.91905249806890765, 0.000000000000000000 ) ) ;
#971 = CARTESIAN_POINT ( 'NONE',  ( 5.999999999999764633, 12.49999999998992273, 7.347880794883900827E-16 ) ) ;
#972 = ORIENTED_EDGE ( 'NONE', *, *, #97, .F. ) ;
#973 = DIRECTION ( 'NONE',  ( 0.8660254037843920782, 0.5000000000000807132, 1.060575238724852557E-16 ) ) ;
#974 = CARTESIAN_POINT ( 'NONE',  ( -1.798367346938777749E-13, 40.00000000000000711, 0.000000000000000000 ) ) ;
#975 = CARTESIAN_POINT ( 'NONE',  ( 3.249999999999706901, 40.00000000000002132, 0.000000000000000000 ) ) ;
#976 = EDGE_CURVE ( 'NONE', #249, #943, #744, .T. ) ;
#977 = ORIENTED_EDGE ( 'NONE', *, *, #71, .T. ) ;
#978 = DIRECTION ( 'NONE',  ( 4.495918367346943426E-15, -1.000000000000000000, 0.000000000000000000 ) ) ;
#979 = LINE ( 'NONE', #905, #154 ) ;
#980 = CIRCLE ( 'NONE', #601, 2.949999999999887823 ) ;
#981 = ORIENTED_EDGE ( 'NONE', *, *, #958, .F. ) ;
#982 = CARTESIAN_POINT ( 'NONE',  ( -1.596051020408168995E-13, 35.50000000000009237, 0.000000000000000000 ) ) ;
#983 = AXIS2_PLACEMENT_3D ( 'NONE', #709, #869, #177 ) ;
#984 = CIRCLE ( 'NONE', #542, 2.249999999999950706 ) ;
#985 = ORIENTED_EDGE ( 'NONE', *, *, #606, .F. ) ;
#986 = VECTOR ( 'NONE', #823, 1000.000000000000000 ) ;
#987 = DIRECTION ( 'NONE',  ( -4.495918367346943426E-15, 1.000000000000000000, -0.000000000000000000 ) ) ;
#988 = EDGE_CURVE ( 'NONE', #999, #568, #673, .T. ) ;
#989 = SHAPE_DEFINITION_REPRESENTATION ( #896, #997 ) ;
#990 = ORIENTED_EDGE ( 'NONE', *, *, #710, .T. ) ;
#991 = DIRECTION ( 'NONE',  ( -0.7071067811861303509, -0.7071067811869646835, 8.659560562349863194E-17 ) ) ;
#992 = DIRECTION ( 'NONE',  ( 0.4082482904632196985, 0.9128709291755644495, 4.999599621731659779E-17 ) ) ;
#993 = ADVANCED_FACE ( 'NONE', ( #206 ), #446, .T. ) ;
#994 = VERTEX_POINT ( 'NONE', #900 ) ;
#995 = FACE_OUTER_BOUND ( 'NONE', #835, .T. ) ;
#996 = CIRCLE ( 'NONE', #413, 5.899999999999881339 ) ;
#997 = ADVANCED_BREP_SHAPE_REPRESENTATION ( '99688-SI10-M06+S9MT1003-120', ( #952, #939 ), #287 ) ;
#998 = AXIS2_PLACEMENT_3D ( 'NONE', #298, #531, #59 ) ;
#999 = VERTEX_POINT ( 'NONE', #52 ) ;
#1000 = LINE ( 'NONE', #386, #603 ) ;
#1001 = CYLINDRICAL_SURFACE ( 'NONE', #314, 2.999999999999967137 ) ;
#1002 = AXIS2_PLACEMENT_3D ( 'NONE', #195, #120, #441 ) ;
ENDSEC;
END-ISO-10303-21;
