ISO-10303-21;
HEADER;
FILE_DESCRIPTION (( 'STEP AP214' ),
    '1' );
FILE_NAME ('99688-SI16-16+S9MT1604-120.STEP',
    '2022-11-03T01:08:30',
    ( 'User' ),
    ( 'GENUINE' ),
    'SwSTEP 2.0',
    'SolidWorks 2012',
    '' );
FILE_SCHEMA (( 'AUTOMOTIVE_DESIGN' ));
ENDSEC;

DATA;
#1 = PRODUCT ( '99688-SI16-16+S9MT1604-120', '99688-SI16-16+S9MT1604-120', '', ( #435 ) ) ;
#2 = DIRECTION ( 'NONE',  ( 1.000000000000000000, 4.423544863738969200E-014, 0.0000000000000000000 ) ) ;
#3 = CARTESIAN_POINT ( 'NONE',  ( 0.0000000000000000000, 0.0000000000000000000, 0.0000000000000000000 ) ) ;
#4 = CARTESIAN_POINT ( 'NONE',  ( 8.000000000002380300, 3.535660653143208600E-013, 0.0000000000000000000 ) ) ;
#5 = LINE ( 'NONE', #4, #127 ) ;
#6 = DIRECTION ( 'NONE',  ( 0.8660254037842236600, 0.5000000000003723700, 1.060575238724670600E-016 ) ) ;
#7 = CARTESIAN_POINT ( 'NONE',  ( 0.0000000000000000000, 0.0000000000000000000, 0.0000000000000000000 ) ) ;
#8 = LINE ( 'NONE', #7, #125 ) ;
#9 = DIRECTION ( 'NONE',  ( -0.8660254037842678400, 0.5000000000002957600, 0.0000000000000000000 ) ) ;
#10 = CARTESIAN_POINT ( 'NONE',  ( 0.0000000000000000000, 0.0000000000000000000, 0.0000000000000000000 ) ) ;
#11 = LINE ( 'NONE', #10, #123 ) ;
#12 = CARTESIAN_POINT ( 'NONE',  ( -2.041314629857482300E-013, 4.618802153523093400, 0.0000000000000000000 ) ) ;
#13 = DIRECTION ( 'NONE',  ( 1.000000000000000000, 4.423544863738969200E-014, 0.0000000000000000000 ) ) ;
#14 = DIRECTION ( 'NONE',  ( 4.419575816427695500E-014, -1.000000000000000000, -0.0000000000000000000 ) ) ;
#15 = CARTESIAN_POINT ( 'NONE',  ( -2.041314629857482300E-013, 4.618802153523093400, 0.0000000000000000000 ) ) ;
#16 = DIRECTION ( 'NONE',  ( 1.000000000000000000, 4.423544863740113400E-014, 0.0000000000000000000 ) ) ;
#17 = DIRECTION ( 'NONE',  ( 4.419575816427695500E-014, -1.000000000000000000, -0.0000000000000000000 ) ) ;
#18 = CARTESIAN_POINT ( 'NONE',  ( 0.0000000000000000000, 0.0000000000000000000, 0.0000000000000000000 ) ) ;
#19 = CARTESIAN_POINT ( 'NONE',  ( 7.999999999995538700, 99.70000000000305800, 0.0000000000000000000 ) ) ;
#20 = ORIENTED_EDGE ( 'NONE', *, *, #274, .T. ) ;
#21 = ORIENTED_EDGE ( 'NONE', *, *, #229, .F. ) ;
#22 = ORIENTED_EDGE ( 'NONE', *, *, #269, .F. ) ;
#23 = ORIENTED_EDGE ( 'NONE', *, *, #230, .F. ) ;
#24 = ORIENTED_EDGE ( 'NONE', *, *, #271, .T. ) ;
#25 = ORIENTED_EDGE ( 'NONE', *, *, #229, .T. ) ;
#26 = ORIENTED_EDGE ( 'NONE', *, *, #275, .F. ) ;
#27 = ORIENTED_EDGE ( 'NONE', *, *, #264, .F. ) ;
#28 = ORIENTED_EDGE ( 'NONE', *, *, #231, .F. ) ;
#29 = ORIENTED_EDGE ( 'NONE', *, *, #230, .T. ) ;
#30 = ORIENTED_EDGE ( 'NONE', *, *, #260, .T. ) ;
#31 = ORIENTED_EDGE ( 'NONE', *, *, #232, .F. ) ;
#32 = ORIENTED_EDGE ( 'NONE', *, *, #266, .T. ) ;
#33 = ORIENTED_EDGE ( 'NONE', *, *, #231, .T. ) ;
#34 = ORIENTED_EDGE ( 'NONE', *, *, #262, .F. ) ;
#35 = ORIENTED_EDGE ( 'NONE', *, *, #233, .F. ) ;
#36 = ORIENTED_EDGE ( 'NONE', *, *, #180, .T. ) ;
#37 = ORIENTED_EDGE ( 'NONE', *, *, #232, .T. ) ;
#38 = ORIENTED_EDGE ( 'NONE', *, *, #255, .F. ) ;
#39 = ORIENTED_EDGE ( 'NONE', *, *, #257, .T. ) ;
#40 = ORIENTED_EDGE ( 'NONE', *, *, #241, .T. ) ;
#41 = ORIENTED_EDGE ( 'NONE', *, *, #234, .F. ) ;
#42 = ORIENTED_EDGE ( 'NONE', *, *, #258, .F. ) ;
#43 = ORIENTED_EDGE ( 'NONE', *, *, #235, .F. ) ;
#44 = ORIENTED_EDGE ( 'NONE', *, *, #233, .T. ) ;
#45 = ORIENTED_EDGE ( 'NONE', *, *, #234, .T. ) ;
#46 = ORIENTED_EDGE ( 'NONE', *, *, #240, .F. ) ;
#47 = ORIENTED_EDGE ( 'NONE', *, *, #238, .T. ) ;
#48 = ORIENTED_EDGE ( 'NONE', *, *, #235, .T. ) ;
#49 = ORIENTED_EDGE ( 'NONE', *, *, #236, .T. ) ;
#50 = ORIENTED_EDGE ( 'NONE', *, *, #237, .F. ) ;
#51 = ORIENTED_EDGE ( 'NONE', *, *, #237, .T. ) ;
#52 = ORIENTED_EDGE ( 'NONE', *, *, #239, .T. ) ;
#53 = ORIENTED_EDGE ( 'NONE', *, *, #236, .F. ) ;
#54 = ORIENTED_EDGE ( 'NONE', *, *, #238, .F. ) ;
#55 = ORIENTED_EDGE ( 'NONE', *, *, #240, .T. ) ;
#56 = ORIENTED_EDGE ( 'NONE', *, *, #259, .T. ) ;
#57 = ORIENTED_EDGE ( 'NONE', *, *, #239, .F. ) ;
#58 = ORIENTED_EDGE ( 'NONE', *, *, #241, .F. ) ;
#59 = EDGE_LOOP ( 'NONE', ( #506, #502, #499, #501 ) ) ;
#60 = EDGE_LOOP ( 'NONE', ( #503, #495, #508, #493 ) ) ;
#61 = EDGE_LOOP ( 'NONE', ( #492, #494, #505, #504 ) ) ;
#62 = EDGE_LOOP ( 'NONE', ( #498, #497, #507, #500 ) ) ;
#63 = EDGE_LOOP ( 'NONE', ( #496, #511, #510, #512 ) ) ;
#64 = EDGE_LOOP ( 'NONE', ( #513, #515, #514, #488 ) ) ;
#65 = EDGE_LOOP ( 'NONE', ( #489, #80, #490, #58 ) ) ;
#66 = EDGE_LOOP ( 'NONE', ( #56, #55, #57, #54 ) ) ;
#67 = EDGE_LOOP ( 'NONE', ( #53, #51, #52 ) ) ;
#68 = EDGE_LOOP ( 'NONE', ( #50, #49, #48 ) ) ;
#69 = EDGE_LOOP ( 'NONE', ( #46, #45, #47, #43 ) ) ;
#70 = EDGE_LOOP ( 'NONE', ( #42, #41, #40, #44 ) ) ;
#71 = EDGE_LOOP ( 'NONE', ( #38, #37, #39, #35 ) ) ;
#72 = EDGE_LOOP ( 'NONE', ( #34, #33, #36, #31 ) ) ;
#73 = EDGE_LOOP ( 'NONE', ( #30, #29 ) ) ;
#74 = EDGE_LOOP ( 'NONE', ( #27, #28 ) ) ;
#75 = EDGE_LOOP ( 'NONE', ( #26, #25, #32, #23 ) ) ;
#76 = EDGE_LOOP ( 'NONE', ( #22, #21, #20, #24 ) ) ;
#77 = EDGE_LOOP ( 'NONE', ( #486, #485, #487, #483 ) ) ;
#78 = EDGE_LOOP ( 'NONE', ( #482, #481, #484, #480 ) ) ;
#79 = EDGE_LOOP ( 'NONE', ( #479, #478 ) ) ;
#80 = ORIENTED_EDGE ( 'NONE', *, *, #258, .T. ) ;
#81 = VERTEX_POINT ( 'NONE', #19 ) ;
#82 = VERTEX_POINT ( 'NONE', #18 ) ;
#83 = VERTEX_POINT ( 'NONE', #546 ) ;
#84 = VERTEX_POINT ( 'NONE', #545 ) ;
#85 = VERTEX_POINT ( 'NONE', #544 ) ;
#86 = VERTEX_POINT ( 'NONE', #543 ) ;
#87 = VERTEX_POINT ( 'NONE', #542 ) ;
#88 = VERTEX_POINT ( 'NONE', #541 ) ;
#89 = VERTEX_POINT ( 'NONE', #540 ) ;
#90 = VERTEX_POINT ( 'NONE', #539 ) ;
#91 = CLOSED_SHELL ( 'NONE', ( #243, #242, #244, #245, #246, #247, #248, #249, #250, #224, #225, #226, #227, #228, #253, #254, #223, #222, #221, #220 ) ) ;
#92 = FACE_OUTER_BOUND ( 'NONE', #79, .T. ) ;
#93 = FACE_OUTER_BOUND ( 'NONE', #78, .T. ) ;
#94 = AXIS2_PLACEMENT_3D ( 'NONE', #531, #530, #529 ) ;
#95 = VECTOR ( 'NONE', #536, 1000.000000000000000 ) ;
#96 = AXIS2_PLACEMENT_3D ( 'NONE', #535, #534, #533 ) ;
#97 = FACE_OUTER_BOUND ( 'NONE', #77, .T. ) ;
#98 = FACE_OUTER_BOUND ( 'NONE', #70, .T. ) ;
#99 = FACE_OUTER_BOUND ( 'NONE', #76, .T. ) ;
#100 = AXIS2_PLACEMENT_3D ( 'NONE', #528, #527, #526 ) ;
#101 = AXIS2_PLACEMENT_3D ( 'NONE', #525, #524, #523 ) ;
#102 = CYLINDRICAL_SURFACE ( 'NONE', #101, 7.999999999998905800 ) ;
#103 = FACE_OUTER_BOUND ( 'NONE', #68, .T. ) ;
#104 = AXIS2_PLACEMENT_3D ( 'NONE', #454, #453, #452 ) ;
#105 = AXIS2_PLACEMENT_3D ( 'NONE', #522, #521, #520 ) ;
#106 = FACE_OUTER_BOUND ( 'NONE', #69, .T. ) ;
#107 = AXIS2_PLACEMENT_3D ( 'NONE', #519, #518, #517 ) ;
#108 = AXIS2_PLACEMENT_3D ( 'NONE', #516, #465, #464 ) ;
#109 = CYLINDRICAL_SURFACE ( 'NONE', #108, 8.000000000002380300 ) ;
#110 = FACE_OUTER_BOUND ( 'NONE', #72, .T. ) ;
#111 = FACE_OUTER_BOUND ( 'NONE', #71, .T. ) ;
#112 = AXIS2_PLACEMENT_3D ( 'NONE', #463, #462, #461 ) ;
#113 = AXIS2_PLACEMENT_3D ( 'NONE', #460, #459, #458 ) ;
#114 = CYLINDRICAL_SURFACE ( 'NONE', #113, 10.50000000000005200 ) ;
#115 = AXIS2_PLACEMENT_3D ( 'NONE', #3, #295, #296 ) ;
#116 = AXIS2_PLACEMENT_3D ( 'NONE', #445, #444, #443 ) ;
#117 = AXIS2_PLACEMENT_3D ( 'NONE', #457, #456, #455 ) ;
#118 = AXIS2_PLACEMENT_3D ( 'NONE', #451, #450, #449 ) ;
#119 = AXIS2_PLACEMENT_3D ( 'NONE', #448, #447, #446 ) ;
#120 = AXIS2_PLACEMENT_3D ( 'NONE', #442, #441, #440 ) ;
#121 = AXIS2_PLACEMENT_3D ( 'NONE', #439, #17, #16 ) ;
#122 = AXIS2_PLACEMENT_3D ( 'NONE', #15, #14, #13 ) ;
#123 = VECTOR ( 'NONE', #9, 1000.000000000000200 ) ;
#124 = AXIS2_PLACEMENT_3D ( 'NONE', #12, #373, #2 ) ;
#125 = VECTOR ( 'NONE', #6, 1000.000000000000000 ) ;
#126 = FACE_OUTER_BOUND ( 'NONE', #61, .T. ) ;
#127 = VECTOR ( 'NONE', #280, 1000.000000000000000 ) ;
#128 = FACE_OUTER_BOUND ( 'NONE', #65, .T. ) ;
#129 = VECTOR ( 'NONE', #291, 1000.000000000000000 ) ;
#130 = FACE_OUTER_BOUND ( 'NONE', #60, .T. ) ;
#131 = VECTOR ( 'NONE', #294, 1000.000000000000200 ) ;
#132 = CYLINDRICAL_SURFACE ( 'NONE', #115, 7.999999999998905800 ) ;
#133 = FACE_OUTER_BOUND ( 'NONE', #62, .T. ) ;
#134 = FACE_OUTER_BOUND ( 'NONE', #59, .T. ) ;
#135 = AXIS2_PLACEMENT_3D ( 'NONE', #297, #298, #299 ) ;
#136 = AXIS2_PLACEMENT_3D ( 'NONE', #321, #322, #323 ) ;
#137 = AXIS2_PLACEMENT_3D ( 'NONE', #300, #301, #302 ) ;
#138 = FACE_OUTER_BOUND ( 'NONE', #63, .T. ) ;
#139 = AXIS2_PLACEMENT_3D ( 'NONE', #303, #304, #305 ) ;
#140 = FACE_OUTER_BOUND ( 'NONE', #64, .T. ) ;
#141 = AXIS2_PLACEMENT_3D ( 'NONE', #306, #307, #308 ) ;
#142 = AXIS2_PLACEMENT_3D ( 'NONE', #309, #310, #311 ) ;
#143 = CYLINDRICAL_SURFACE ( 'NONE', #142, 10.50000000000005200 ) ;
#144 = FACE_OUTER_BOUND ( 'NONE', #67, .T. ) ;
#145 = FACE_OUTER_BOUND ( 'NONE', #66, .T. ) ;
#146 = AXIS2_PLACEMENT_3D ( 'NONE', #312, #313, #314 ) ;
#147 = AXIS2_PLACEMENT_3D ( 'NONE', #315, #316, #317 ) ;
#148 = CYLINDRICAL_SURFACE ( 'NONE', #147, 8.000000000002380300 ) ;
#149 = FACE_BOUND ( 'NONE', #73, .T. ) ;
#150 = AXIS2_PLACEMENT_3D ( 'NONE', #318, #319, #320 ) ;
#151 = AXIS2_PLACEMENT_3D ( 'NONE', #349, #350, #351 ) ;
#152 = AXIS2_PLACEMENT_3D ( 'NONE', #324, #325, #326 ) ;
#153 = AXIS2_PLACEMENT_3D ( 'NONE', #328, #329, #330 ) ;
#154 = FACE_OUTER_BOUND ( 'NONE', #74, .T. ) ;
#155 = FACE_OUTER_BOUND ( 'NONE', #75, .T. ) ;
#156 = AXIS2_PLACEMENT_3D ( 'NONE', #352, #353, #354 ) ;
#157 = AXIS2_PLACEMENT_3D ( 'NONE', #331, #332, #333 ) ;
#158 = AXIS2_PLACEMENT_3D ( 'NONE', #337, #338, #339 ) ;
#159 = VECTOR ( 'NONE', #336, 1000.000000000000000 ) ;
#160 = AXIS2_PLACEMENT_3D ( 'NONE', #340, #347, #348 ) ;
#161 = VECTOR ( 'NONE', #343, 1000.000000000000000 ) ;
#162 = VECTOR ( 'NONE', #346, 1000.000000000000000 ) ;
#163 = AXIS2_PLACEMENT_3D ( 'NONE', #364, #365, #366 ) ;
#164 = AXIS2_PLACEMENT_3D ( 'NONE', #380, #384, #385 ) ;
#165 = VECTOR ( 'NONE', #358, 999.9999999999998900 ) ;
#166 = AXIS2_PLACEMENT_3D ( 'NONE', #355, #362, #363 ) ;
#167 = VECTOR ( 'NONE', #361, 999.9999999999998900 ) ;
#168 = AXIS2_PLACEMENT_3D ( 'NONE', #367, #371, #372 ) ;
#169 = AXIS2_PLACEMENT_3D ( 'NONE', #377, #378, #379 ) ;
#170 = VECTOR ( 'NONE', #370, 1000.000000000000100 ) ;
#171 = AXIS2_PLACEMENT_3D ( 'NONE', #374, #375, #376 ) ;
#172 = STYLED_ITEM ( 'NONE', ( #404 ), #466 ) ;
#173 =( GEOMETRIC_REPRESENTATION_CONTEXT ( 3 ) GLOBAL_UNCERTAINTY_ASSIGNED_CONTEXT ( ( #276 ) ) GLOBAL_UNIT_ASSIGNED_CONTEXT ( ( #405, #406, #407 ) ) REPRESENTATION_CONTEXT ( 'NONE', 'WORKASPACE' ) );
#174 =( GEOMETRIC_REPRESENTATION_CONTEXT ( 3 ) GLOBAL_UNCERTAINTY_ASSIGNED_CONTEXT ( ( #279 ) ) GLOBAL_UNIT_ASSIGNED_CONTEXT ( ( #418, #419, #420 ) ) REPRESENTATION_CONTEXT ( 'NONE', 'WORKASPACE' ) );
#175 =( GEOMETRIC_REPRESENTATION_CONTEXT ( 3 ) GLOBAL_UNCERTAINTY_ASSIGNED_CONTEXT ( ( #277 ) ) GLOBAL_UNIT_ASSIGNED_CONTEXT ( ( #428, #429, #430 ) ) REPRESENTATION_CONTEXT ( 'NONE', 'WORKASPACE' ) );
#176 = AXIS2_PLACEMENT_3D ( 'NONE', #386, #393, #394 ) ;
#177 = VECTOR ( 'NONE', #392, 1000.000000000000000 ) ;
#178 = VECTOR ( 'NONE', #389, 1000.000000000000000 ) ;
#179 = VECTOR ( 'NONE', #383, 1000.000000000000000 ) ;
#180 = EDGE_CURVE ( 'NONE', #470, #89, #538, .T. ) ;
#181 = CIRCLE ( 'NONE', #104, 8.479999999997788900 ) ;
#182 = EDGE_CURVE ( 'NONE', #89, #90, #216, .T. ) ;
#183 = PRODUCT_DEFINITION ( 'UNKNOWN', '', #288, #467 ) ;
#184 = COLOUR_RGB ( '',0.7921568627450980000, 0.8196078431372548800, 0.9333333333333333500 ) ;
#185 = PRODUCT_RELATED_PRODUCT_CATEGORY ( 'part', '', ( #1 ) ) ;
#186 = COLOUR_RGB ( '',0.7921568627450980000, 0.8196078431372548800, 0.9333333333333333500 ) ;
#187 = CIRCLE ( 'NONE', #176, 0.3199999999999991200 ) ;
#188 = CIRCLE ( 'NONE', #164, 7.999999999997866600 ) ;
#189 = CIRCLE ( 'NONE', #169, 0.3199999999999991200 ) ;
#190 = CIRCLE ( 'NONE', #171, 7.699999999999974400 ) ;
#191 = CIRCLE ( 'NONE', #168, 8.479999999997788900 ) ;
#192 = CIRCLE ( 'NONE', #163, 7.999999999997866600 ) ;
#193 = CIRCLE ( 'NONE', #166, 10.34000000000073900 ) ;
#194 = CIRCLE ( 'NONE', #156, 7.999999999999944900 ) ;
#195 = CIRCLE ( 'NONE', #151, 8.959999999997901200 ) ;
#196 = CIRCLE ( 'NONE', #160, 8.000000000001346500 ) ;
#197 = CONICAL_SURFACE ( 'NONE', #157, 8.959999999997901200, 1.047197551196745500 ) ;
#198 = CIRCLE ( 'NONE', #158, 10.49999999999940000 ) ;
#199 = CIRCLE ( 'NONE', #152, 7.999999999999944900 ) ;
#200 = CONICAL_SURFACE ( 'NONE', #150, 1732.050807567334200, 1.047197551196211900 ) ;
#201 = CONICAL_SURFACE ( 'NONE', #146, 8.000000000001346500, 0.3883766555391121000 ) ;
#202 = CIRCLE ( 'NONE', #136, 7.699999999999974400 ) ;
#203 = TOROIDAL_SURFACE ( 'NONE', #137, 8.319999999997865100, 0.3199999999999986700 ) ;
#204 = CONICAL_SURFACE ( 'NONE', #139, 8.959999999997901200, 1.047197551196745500 ) ;
#205 = CONICAL_SURFACE ( 'NONE', #135, 7.999999999999944900, 0.7853981633973846600 ) ;
#206 = CONICAL_SURFACE ( 'NONE', #141, 10.50000000000070000, 0.7853981633970633600 ) ;
#207 = CIRCLE ( 'NONE', #124, 8.000000000003415900 ) ;
#208 = CIRCLE ( 'NONE', #122, 8.000000000003415900 ) ;
#209 = CIRCLE ( 'NONE', #121, 8.000000000001346500 ) ;
#210 = CIRCLE ( 'NONE', #120, 10.49999999999940000 ) ;
#211 = CIRCLE ( 'NONE', #116, 10.50000000000070000 ) ;
#212 = CIRCLE ( 'NONE', #119, 10.34000000000073900 ) ;
#213 = CIRCLE ( 'NONE', #118, 8.959999999997901200 ) ;
#214 = CONICAL_SURFACE ( 'NONE', #117, 10.50000000000070000, 0.7853981633970633600 ) ;
#215 = CONICAL_SURFACE ( 'NONE', #112, 8.000000000001346500, 0.3883766555391121000 ) ;
#216 = CIRCLE ( 'NONE', #96, 10.50000000000070000 ) ;
#217 = CONICAL_SURFACE ( 'NONE', #107, 1732.050807567334200, 1.047197551196211900 ) ;
#218 = CONICAL_SURFACE ( 'NONE', #100, 7.999999999999944900, 0.7853981633973846600 ) ;
#219 = TOROIDAL_SURFACE ( 'NONE', #105, 8.319999999997865100, 0.3199999999999986700 ) ;
#220 = ADVANCED_FACE ( 'NONE', ( #92 ), #532, .T. ) ;
#221 = ADVANCED_FACE ( 'NONE', ( #93 ), #218, .T. ) ;
#222 = ADVANCED_FACE ( 'NONE', ( #97 ), #102, .T. ) ;
#223 = ADVANCED_FACE ( 'NONE', ( #99 ), #219, .F. ) ;
#224 = ADVANCED_FACE ( 'NONE', ( #103 ), #217, .T. ) ;
#225 = ADVANCED_FACE ( 'NONE', ( #106 ), #109, .T. ) ;
#226 = ADVANCED_FACE ( 'NONE', ( #98 ), #215, .T. ) ;
#227 = ADVANCED_FACE ( 'NONE', ( #111 ), #114, .T. ) ;
#228 = ADVANCED_FACE ( 'NONE', ( #110 ), #214, .T. ) ;
#229 = EDGE_CURVE ( 'NONE', #473, #474, #181, .T. ) ;
#230 = EDGE_CURVE ( 'NONE', #472, #471, #213, .T. ) ;
#231 = EDGE_CURVE ( 'NONE', #469, #470, #212, .T. ) ;
#232 = EDGE_CURVE ( 'NONE', #90, #89, #211, .T. ) ;
#233 = EDGE_CURVE ( 'NONE', #88, #87, #210, .T. ) ;
#234 = EDGE_CURVE ( 'NONE', #85, #86, #209, .T. ) ;
#235 = EDGE_CURVE ( 'NONE', #84, #83, #208, .T. ) ;
#236 = EDGE_CURVE ( 'NONE', #82, #84, #11, .T. ) ;
#237 = EDGE_CURVE ( 'NONE', #82, #83, #8, .T. ) ;
#238 = EDGE_CURVE ( 'NONE', #86, #83, #5, .T. ) ;
#239 = EDGE_CURVE ( 'NONE', #83, #84, #207, .T. ) ;
#240 = EDGE_CURVE ( 'NONE', #85, #84, #289, .T. ) ;
#241 = EDGE_CURVE ( 'NONE', #85, #88, #292, .T. ) ;
#242 = ADVANCED_FACE ( 'NONE', ( #126 ), #132, .T. ) ;
#243 = ADVANCED_FACE ( 'NONE', ( #130 ), #205, .T. ) ;
#244 = ADVANCED_FACE ( 'NONE', ( #134 ), #203, .F. ) ;
#245 = ADVANCED_FACE ( 'NONE', ( #133 ), #204, .F. ) ;
#246 = ADVANCED_FACE ( 'NONE', ( #138 ), #206, .T. ) ;
#247 = ADVANCED_FACE ( 'NONE', ( #140 ), #143, .T. ) ;
#248 = ADVANCED_FACE ( 'NONE', ( #128 ), #201, .T. ) ;
#249 = ADVANCED_FACE ( 'NONE', ( #145 ), #148, .T. ) ;
#250 = ADVANCED_FACE ( 'NONE', ( #144 ), #200, .T. ) ;
#251 = EDGE_CURVE ( 'NONE', #509, #477, #202, .T. ) ;
#252 = EDGE_CURVE ( 'NONE', #491, #81, #199, .T. ) ;
#253 = ADVANCED_FACE ( 'NONE', ( #149, #154 ), #327, .T. ) ;
#254 = ADVANCED_FACE ( 'NONE', ( #155 ), #197, .F. ) ;
#255 = EDGE_CURVE ( 'NONE', #90, #88, #334, .T. ) ;
#256 = EDGE_CURVE ( 'NONE', #87, #88, #198, .T. ) ;
#257 = EDGE_CURVE ( 'NONE', #89, #87, #341, .T. ) ;
#258 = EDGE_CURVE ( 'NONE', #86, #87, #344, .T. ) ;
#259 = EDGE_CURVE ( 'NONE', #86, #85, #196, .T. ) ;
#260 = EDGE_CURVE ( 'NONE', #471, #472, #195, .T. ) ;
#261 = EDGE_CURVE ( 'NONE', #81, #491, #194, .T. ) ;
#262 = EDGE_CURVE ( 'NONE', #469, #90, #356, .T. ) ;
#263 = EDGE_CURVE ( 'NONE', #509, #491, #359, .T. ) ;
#264 = EDGE_CURVE ( 'NONE', #470, #469, #193, .T. ) ;
#265 = EDGE_CURVE ( 'NONE', #476, #475, #192, .T. ) ;
#266 = EDGE_CURVE ( 'NONE', #474, #471, #368, .T. ) ;
#267 = EDGE_CURVE ( 'NONE', #474, #473, #191, .T. ) ;
#268 = EDGE_CURVE ( 'NONE', #477, #509, #190, .T. ) ;
#269 = EDGE_CURVE ( 'NONE', #474, #476, #189, .T. ) ;
#270 = EDGE_CURVE ( 'NONE', #81, #475, #381, .T. ) ;
#271 = EDGE_CURVE ( 'NONE', #475, #476, #188, .T. ) ;
#272 = EDGE_CURVE ( 'NONE', #477, #81, #387, .T. ) ;
#273 = EDGE_CURVE ( 'NONE', #491, #476, #390, .T. ) ;
#274 = EDGE_CURVE ( 'NONE', #473, #475, #187, .T. ) ;
#275 = EDGE_CURVE ( 'NONE', #473, #472, #396, .T. ) ;
#276 = UNCERTAINTY_MEASURE_WITH_UNIT (LENGTH_MEASURE( 1.000000000000000100E-005 ), #405, 'distance_accuracy_value', 'NONE');
#277 = UNCERTAINTY_MEASURE_WITH_UNIT (LENGTH_MEASURE( 1.000000000000000100E-005 ), #428, 'distance_accuracy_value', 'NONE');
#278 = ADVANCED_BREP_SHAPE_REPRESENTATION ( '99688-SI16-16+S9MT1604-120', ( #466, #287 ), #174 ) ;
#279 = UNCERTAINTY_MEASURE_WITH_UNIT (LENGTH_MEASURE( 1.000000000000000100E-005 ), #418, 'distance_accuracy_value', 'NONE');
#280 = DIRECTION ( 'NONE',  ( 4.419575816427695500E-014, -1.000000000000000000, -0.0000000000000000000 ) ) ;
#281 = VECTOR ( 'NONE', #398, 1000.000000000000000 ) ;
#282 = PRESENTATION_LAYER_ASSIGNMENT (  '', '', ( #172 ) ) ;
#283 = MECHANICAL_DESIGN_GEOMETRIC_PRESENTATION_REPRESENTATION (  '', ( #172 ), #173 ) ;
#284 = STYLED_ITEM ( 'NONE', ( #427 ), #278 ) ;
#285 = PRESENTATION_LAYER_ASSIGNMENT (  '', '', ( #284 ) ) ;
#286 = MECHANICAL_DESIGN_GEOMETRIC_PRESENTATION_REPRESENTATION (  '', ( #284 ), #175 ) ;
#287 = AXIS2_PLACEMENT_3D ( 'NONE', #431, #432, #433 ) ;
#288 = PRODUCT_DEFINITION_FORMATION_WITH_SPECIFIED_SOURCE ( 'ANY', '', #1, .NOT_KNOWN. ) ;
#289 = LINE ( 'NONE', #290, #129 ) ;
#290 = CARTESIAN_POINT ( 'NONE',  ( -8.000000000002380300, -3.535660653143208600E-013, 9.797174393181740500E-016 ) ) ;
#291 = DIRECTION ( 'NONE',  ( 4.419575816427695500E-014, -1.000000000000000000, -0.0000000000000000000 ) ) ;
#292 = LINE ( 'NONE', #293, #131 ) ;
#293 = CARTESIAN_POINT ( 'NONE',  ( -8.000000000002067700, 16.33393944402238100, 0.0000000000000000000 ) ) ;
#294 = DIRECTION ( 'NONE',  ( -0.3786864688383792500, 0.9255250176622559200, 0.0000000000000000000 ) ) ;
#295 = DIRECTION ( 'NONE',  ( 4.419575816427695500E-014, -1.000000000000000000, -0.0000000000000000000 ) ) ;
#296 = DIRECTION ( 'NONE',  ( 1.000000000000000000, 4.419575816427695500E-014, 0.0000000000000000000 ) ) ;
#297 = CARTESIAN_POINT ( 'NONE',  ( -4.406317088978532500E-012, 99.70000000000271700, 0.0000000000000000000 ) ) ;
#298 = DIRECTION ( 'NONE',  ( 4.419575816427695500E-014, -1.000000000000000000, -0.0000000000000000000 ) ) ;
#299 = DIRECTION ( 'NONE',  ( 1.000000000000000000, 4.336808689942047400E-014, 0.0000000000000000000 ) ) ;
#300 = CARTESIAN_POINT ( 'NONE',  ( -2.298508605669269400E-012, 52.00000000000251500, 0.0000000000000000000 ) ) ;
#301 = DIRECTION ( 'NONE',  ( 4.419575816427695500E-014, -1.000000000000000000, -0.0000000000000000000 ) ) ;
#302 = DIRECTION ( 'NONE',  ( 1.000000000000000000, 4.419575816427695500E-014, 0.0000000000000000000 ) ) ;
#303 = CARTESIAN_POINT ( 'NONE',  ( -2.298179424542510000E-012, 52.00000000000244400, 0.0000000000000000000 ) ) ;
#304 = DIRECTION ( 'NONE',  ( -4.419575816427695500E-014, 1.000000000000000000, 0.0000000000000000000 ) ) ;
#305 = DIRECTION ( 'NONE',  ( -1.000000000000000000, -4.414251702263444800E-014, 0.0000000000000000000 ) ) ;
#306 = CARTESIAN_POINT ( 'NONE',  ( -2.291108103236223800E-012, 51.84000000000241200, 0.0000000000000000000 ) ) ;
#307 = DIRECTION ( 'NONE',  ( 4.419575816427695500E-014, -1.000000000000000000, -0.0000000000000000000 ) ) ;
#308 = DIRECTION ( 'NONE',  ( 1.000000000000000000, 4.427675157730984200E-014, 0.0000000000000000000 ) ) ;
#309 = CARTESIAN_POINT ( 'NONE',  ( 0.0000000000000000000, 0.0000000000000000000, 0.0000000000000000000 ) ) ;
#310 = DIRECTION ( 'NONE',  ( 4.419575816427695500E-014, -1.000000000000000000, -0.0000000000000000000 ) ) ;
#311 = DIRECTION ( 'NONE',  ( 1.000000000000000000, 4.419575816427694900E-014, 0.0000000000000000000 ) ) ;
#312 = CARTESIAN_POINT ( 'NONE',  ( -7.218908375379731100E-013, 16.33393944402273200, 0.0000000000000000000 ) ) ;
#313 = DIRECTION ( 'NONE',  ( -4.419575816427695500E-014, 1.000000000000000000, 0.0000000000000000000 ) ) ;
#314 = DIRECTION ( 'NONE',  ( -1.000000000000000000, -4.423544863740113400E-014, 0.0000000000000000000 ) ) ;
#315 = CARTESIAN_POINT ( 'NONE',  ( 0.0000000000000000000, 0.0000000000000000000, 0.0000000000000000000 ) ) ;
#316 = DIRECTION ( 'NONE',  ( 4.419575816427695500E-014, -1.000000000000000000, -0.0000000000000000000 ) ) ;
#317 = DIRECTION ( 'NONE',  ( 1.000000000000000000, 4.419575816427695500E-014, 0.0000000000000000000 ) ) ;
#318 = CARTESIAN_POINT ( 'NONE',  ( -4.419575816427695200E-011, 1000.000000000000000, 0.0000000000000000000 ) ) ;
#319 = DIRECTION ( 'NONE',  ( -4.419575816427695500E-014, 1.000000000000000000, 0.0000000000000000000 ) ) ;
#320 = DIRECTION ( 'NONE',  ( -1.000000000000000000, -4.416404303064853000E-014, 0.0000000000000000000 ) ) ;
#321 = CARTESIAN_POINT ( 'NONE',  ( -4.419575816427815900E-012, 100.0000000000027300, 0.0000000000000000000 ) ) ;
#322 = DIRECTION ( 'NONE',  ( 4.419575816427695500E-014, -1.000000000000000000, -0.0000000000000000000 ) ) ;
#323 = DIRECTION ( 'NONE',  ( 1.000000000000000000, 4.505775262277435800E-014, 0.0000000000000000000 ) ) ;
#324 = CARTESIAN_POINT ( 'NONE',  ( -4.406317088978532500E-012, 99.70000000000271700, 0.0000000000000000000 ) ) ;
#325 = DIRECTION ( 'NONE',  ( 4.419575816427695500E-014, -1.000000000000000000, -0.0000000000000000000 ) ) ;
#326 = DIRECTION ( 'NONE',  ( 1.000000000000000000, 4.336808689942047400E-014, 0.0000000000000000000 ) ) ;
#327 = PLANE ( 'NONE',  #153 ) ;
#328 = CARTESIAN_POINT ( 'NONE',  ( 8.959999999995602600, 52.00000000000287100, 0.0000000000000000000 ) ) ;
#329 = DIRECTION ( 'NONE',  ( -4.419575816427695500E-014, 1.000000000000000000, 0.0000000000000000000 ) ) ;
#330 = DIRECTION ( 'NONE',  ( -1.000000000000000000, -4.419575816427695500E-014, 0.0000000000000000000 ) ) ;
#331 = CARTESIAN_POINT ( 'NONE',  ( -2.298179424542510000E-012, 52.00000000000244400, 0.0000000000000000000 ) ) ;
#332 = DIRECTION ( 'NONE',  ( -4.419575816427695500E-014, 1.000000000000000000, 0.0000000000000000000 ) ) ;
#333 = DIRECTION ( 'NONE',  ( -1.000000000000000000, -4.414251702263444800E-014, 0.0000000000000000000 ) ) ;
#334 = LINE ( 'NONE', #335, #159 ) ;
#335 = CARTESIAN_POINT ( 'NONE',  ( -10.50000000000005200, -4.640554607249102400E-013, 1.285879139104727100E-015 ) ) ;
#336 = DIRECTION ( 'NONE',  ( 4.419575816427695500E-014, -1.000000000000000000, -0.0000000000000000000 ) ) ;
#337 = CARTESIAN_POINT ( 'NONE',  ( -9.919313804509297800E-013, 22.44404037065935500, 0.0000000000000000000 ) ) ;
#338 = DIRECTION ( 'NONE',  ( 4.419575816427695500E-014, -1.000000000000000000, -0.0000000000000000000 ) ) ;
#339 = DIRECTION ( 'NONE',  ( 1.000000000000000000, 4.427675157731532000E-014, 0.0000000000000000000 ) ) ;
#340 = CARTESIAN_POINT ( 'NONE',  ( -7.218908375379731100E-013, 16.33393944402273200, 0.0000000000000000000 ) ) ;
#341 = LINE ( 'NONE', #342, #161 ) ;
#342 = CARTESIAN_POINT ( 'NONE',  ( 10.50000000000005200, 4.640554607249102400E-013, 0.0000000000000000000 ) ) ;
#343 = DIRECTION ( 'NONE',  ( 4.419575816427695500E-014, -1.000000000000000000, -0.0000000000000000000 ) ) ;
#344 = LINE ( 'NONE', #345, #162 ) ;
#345 = CARTESIAN_POINT ( 'NONE',  ( 8.000000000000625300, 16.33393944402308800, 9.797174393180474400E-016 ) ) ;
#346 = DIRECTION ( 'NONE',  ( 0.3786864688382973700, 0.9255250176622894500, 4.637571719432848700E-017 ) ) ;
#347 = DIRECTION ( 'NONE',  ( 4.419575816427695500E-014, -1.000000000000000000, -0.0000000000000000000 ) ) ;
#348 = DIRECTION ( 'NONE',  ( 1.000000000000000000, 4.423544863740113400E-014, 0.0000000000000000000 ) ) ;
#349 = CARTESIAN_POINT ( 'NONE',  ( -2.298179424542510000E-012, 52.00000000000244400, 0.0000000000000000000 ) ) ;
#350 = DIRECTION ( 'NONE',  ( 4.419575816427695500E-014, -1.000000000000000000, -0.0000000000000000000 ) ) ;
#351 = DIRECTION ( 'NONE',  ( 1.000000000000000000, 4.414251702263444800E-014, 0.0000000000000000000 ) ) ;
#352 = CARTESIAN_POINT ( 'NONE',  ( -4.406317088978532500E-012, 99.70000000000271700, 0.0000000000000000000 ) ) ;
#353 = DIRECTION ( 'NONE',  ( 4.419575816427695500E-014, -1.000000000000000000, -0.0000000000000000000 ) ) ;
#354 = DIRECTION ( 'NONE',  ( 1.000000000000000000, 4.336808689942047400E-014, 0.0000000000000000000 ) ) ;
#355 = CARTESIAN_POINT ( 'NONE',  ( -2.298179424542512000E-012, 52.00000000000249400, 0.0000000000000000000 ) ) ;
#356 = LINE ( 'NONE', #357, #165 ) ;
#357 = CARTESIAN_POINT ( 'NONE',  ( -10.50000000000299100, 51.84000000000195000, 1.285879139104806600E-015 ) ) ;
#358 = DIRECTION ( 'NONE',  ( -0.7071067811862441500, -0.7071067811868510000, 8.659560562351599900E-017 ) ) ;
#359 = LINE ( 'NONE', #360, #167 ) ;
#360 = CARTESIAN_POINT ( 'NONE',  ( -8.000000000004350300, 99.70000000000237600, 9.797174393178758600E-016 ) ) ;
#361 = DIRECTION ( 'NONE',  ( -0.7071067811864713000, -0.7071067811866238500, 8.659560562354381900E-017 ) ) ;
#362 = DIRECTION ( 'NONE',  ( 4.419575816427695500E-014, -1.000000000000000000, -0.0000000000000000000 ) ) ;
#363 = DIRECTION ( 'NONE',  ( 1.000000000000000000, 4.429081215259616700E-014, 0.0000000000000000000 ) ) ;
#364 = CARTESIAN_POINT ( 'NONE',  ( -2.298179424542511600E-012, 52.00000000000248700, 0.0000000000000000000 ) ) ;
#365 = DIRECTION ( 'NONE',  ( 4.419575816427695500E-014, -1.000000000000000000, -0.0000000000000000000 ) ) ;
#366 = DIRECTION ( 'NONE',  ( 1.000000000000000000, 4.423544863742037600E-014, 0.0000000000000000000 ) ) ;
#367 = CARTESIAN_POINT ( 'NONE',  ( -2.285931536763382600E-012, 51.72287187079145800, 0.0000000000000000000 ) ) ;
#368 = LINE ( 'NONE', #369, #170 ) ;
#369 = CARTESIAN_POINT ( 'NONE',  ( -8.960000000000199800, 52.00000000000205300, 0.0000000000000000000 ) ) ;
#370 = DIRECTION ( 'NONE',  ( -0.8660254037845345200, 0.4999999999998337400, 0.0000000000000000000 ) ) ;
#371 = DIRECTION ( 'NONE',  ( 4.419575816427695500E-014, -1.000000000000000000, -0.0000000000000000000 ) ) ;
#372 = DIRECTION ( 'NONE',  ( 1.000000000000000000, 4.418635268998679500E-014, 0.0000000000000000000 ) ) ;
#373 = DIRECTION ( 'NONE',  ( 4.419575816427695500E-014, -1.000000000000000000, -0.0000000000000000000 ) ) ;
#374 = CARTESIAN_POINT ( 'NONE',  ( -4.419575816427815900E-012, 100.0000000000027300, 0.0000000000000000000 ) ) ;
#375 = DIRECTION ( 'NONE',  ( 4.419575816427695500E-014, -1.000000000000000000, -0.0000000000000000000 ) ) ;
#376 = DIRECTION ( 'NONE',  ( 1.000000000000000000, 4.505775262277435800E-014, 0.0000000000000000000 ) ) ;
#377 = CARTESIAN_POINT ( 'NONE',  ( -8.320000000000163700, 52.00000000000214600, 1.018906136890336500E-015 ) ) ;
#378 = DIRECTION ( 'NONE',  ( 1.224646799147353200E-016, 5.412419377177227200E-030, 1.000000000000000000 ) ) ;
#379 = DIRECTION ( 'NONE',  ( 1.000000000000000000, 0.0000000000000000000, -1.224646799147350000E-016 ) ) ;
#380 = CARTESIAN_POINT ( 'NONE',  ( -2.298179424542511600E-012, 52.00000000000248700, 0.0000000000000000000 ) ) ;
#381 = LINE ( 'NONE', #382, #179 ) ;
#382 = CARTESIAN_POINT ( 'NONE',  ( 7.999999999998905800, 3.535660653141672700E-013, 0.0000000000000000000 ) ) ;
#383 = DIRECTION ( 'NONE',  ( 4.419575816427695500E-014, -1.000000000000000000, -0.0000000000000000000 ) ) ;
#384 = DIRECTION ( 'NONE',  ( 4.419575816427695500E-014, -1.000000000000000000, -0.0000000000000000000 ) ) ;
#385 = DIRECTION ( 'NONE',  ( 1.000000000000000000, 4.423544863742037600E-014, 0.0000000000000000000 ) ) ;
#386 = CARTESIAN_POINT ( 'NONE',  ( 8.319999999995566500, 52.00000000000288500, 0.0000000000000000000 ) ) ;
#387 = LINE ( 'NONE', #388, #178 ) ;
#388 = CARTESIAN_POINT ( 'NONE',  ( 7.999999999995538700, 99.70000000000305800, 0.0000000000000000000 ) ) ;
#389 = DIRECTION ( 'NONE',  ( 0.7071067811865336900, -0.7071067811865613400, 0.0000000000000000000 ) ) ;
#390 = LINE ( 'NONE', #391, #177 ) ;
#391 = CARTESIAN_POINT ( 'NONE',  ( -7.999999999998905800, -3.535660653141672700E-013, 9.797174393177484600E-016 ) ) ;
#392 = DIRECTION ( 'NONE',  ( 4.419575816427695500E-014, -1.000000000000000000, -0.0000000000000000000 ) ) ;
#393 = DIRECTION ( 'NONE',  ( 0.0000000000000000000, 0.0000000000000000000, -1.000000000000000000 ) ) ;
#394 = DIRECTION ( 'NONE',  ( -1.000000000000000000, 0.0000000000000000000, 0.0000000000000000000 ) ) ;
#395 = CARTESIAN_POINT ( 'NONE',  ( -8.480000000000076800, 51.72287187079108200, 0.0000000000000000000 ) ) ;
#396 = LINE ( 'NONE', #397, #281 ) ;
#397 = CARTESIAN_POINT ( 'NONE',  ( 8.959999999995602600, 52.00000000000284200, 1.097283532035771400E-015 ) ) ;
#398 = DIRECTION ( 'NONE',  ( 0.8660254037844904400, 0.4999999999999102900, 1.060575238724997400E-016 ) ) ;
#399 = FILL_AREA_STYLE_COLOUR ( '', #186 ) ;
#400 = FILL_AREA_STYLE ('',( #399 ) ) ;
#401 = SURFACE_STYLE_FILL_AREA ( #400 ) ;
#402 = SURFACE_SIDE_STYLE ('',( #401 ) ) ;
#403 = SURFACE_STYLE_USAGE ( .BOTH. , #402 ) ;
#404 = PRESENTATION_STYLE_ASSIGNMENT (( #403 ) ) ;
#405 =( LENGTH_UNIT ( ) NAMED_UNIT ( * ) SI_UNIT ( .MILLI., .METRE. ) );
#406 =( NAMED_UNIT ( * ) PLANE_ANGLE_UNIT ( ) SI_UNIT ( $, .RADIAN. ) );
#407 =( NAMED_UNIT ( * ) SI_UNIT ( $, .STERADIAN. ) SOLID_ANGLE_UNIT ( ) );
#408 = CARTESIAN_POINT ( 'NONE',  ( -10.34000000000303700, 52.00000000000203900, 1.276081964711630200E-015 ) ) ;
#409 = CARTESIAN_POINT ( 'NONE',  ( 10.33999999999844000, 52.00000000000295600, 0.0000000000000000000 ) ) ;
#410 = CARTESIAN_POINT ( 'NONE',  ( -8.960000000000199800, 52.00000000000205300, 0.0000000000000000000 ) ) ;
#411 = CARTESIAN_POINT ( 'NONE',  ( 8.959999999995602600, 52.00000000000284200, 1.097283532035771600E-015 ) ) ;
#412 = CARTESIAN_POINT ( 'NONE',  ( 8.479999999995502700, 51.72287187079183500, 1.067892008856228100E-015 ) ) ;
#413 = CARTESIAN_POINT ( 'NONE',  ( 7.999999999995568000, 52.00000000000284200, 0.0000000000000000000 ) ) ;
#414 = CARTESIAN_POINT ( 'NONE',  ( -8.000000000000165200, 52.00000000000213200, 1.009108962497153300E-015 ) ) ;
#415 = CARTESIAN_POINT ( 'NONE',  ( 7.699999999995554800, 100.0000000000030700, 0.0000000000000000000 ) ) ;
#416 = CARTESIAN_POINT ( 'NONE',  ( -8.000000000004350300, 99.70000000000237600, 9.797174393180048400E-016 ) ) ;
#417 = CARTESIAN_POINT ( 'NONE',  ( -7.700000000004393100, 100.0000000000023700, 9.613477373306676000E-016 ) ) ;
#418 =( LENGTH_UNIT ( ) NAMED_UNIT ( * ) SI_UNIT ( .MILLI., .METRE. ) );
#419 =( NAMED_UNIT ( * ) PLANE_ANGLE_UNIT ( ) SI_UNIT ( $, .RADIAN. ) );
#420 =( NAMED_UNIT ( * ) SI_UNIT ( $, .STERADIAN. ) SOLID_ANGLE_UNIT ( ) );
#421 = APPLICATION_PROTOCOL_DEFINITION ( 'draft international standard', 'automotive_design', 1998, #437 ) ;
#422 = FILL_AREA_STYLE_COLOUR ( '', #184 ) ;
#423 = FILL_AREA_STYLE ('',( #422 ) ) ;
#424 = SURFACE_STYLE_FILL_AREA ( #423 ) ;
#425 = SURFACE_SIDE_STYLE ('',( #424 ) ) ;
#426 = SURFACE_STYLE_USAGE ( .BOTH. , #425 ) ;
#427 = PRESENTATION_STYLE_ASSIGNMENT (( #426 ) ) ;
#428 =( LENGTH_UNIT ( ) NAMED_UNIT ( * ) SI_UNIT ( .MILLI., .METRE. ) );
#429 =( NAMED_UNIT ( * ) PLANE_ANGLE_UNIT ( ) SI_UNIT ( $, .RADIAN. ) );
#430 =( NAMED_UNIT ( * ) SI_UNIT ( $, .STERADIAN. ) SOLID_ANGLE_UNIT ( ) );
#431 = CARTESIAN_POINT ( 'NONE',  ( 0.0000000000000000000, 0.0000000000000000000, 0.0000000000000000000 ) ) ;
#432 = DIRECTION ( 'NONE',  ( 0.0000000000000000000, 0.0000000000000000000, 1.000000000000000000 ) ) ;
#433 = DIRECTION ( 'NONE',  ( 1.000000000000000000, 0.0000000000000000000, 0.0000000000000000000 ) ) ;
#434 = SHAPE_DEFINITION_REPRESENTATION ( #468, #278 ) ;
#435 = PRODUCT_CONTEXT ( 'NONE', #437, 'mechanical' ) ;
#436 = APPLICATION_PROTOCOL_DEFINITION ( 'draft international standard', 'automotive_design', 1998, #438 ) ;
#437 = APPLICATION_CONTEXT ( 'automotive_design' ) ;
#438 = APPLICATION_CONTEXT ( 'automotive_design' ) ;
#439 = CARTESIAN_POINT ( 'NONE',  ( -7.218908375379731100E-013, 16.33393944402273200, 0.0000000000000000000 ) ) ;
#440 = DIRECTION ( 'NONE',  ( 1.000000000000000000, 4.427675157731532000E-014, 0.0000000000000000000 ) ) ;
#441 = DIRECTION ( 'NONE',  ( 4.419575816427695500E-014, -1.000000000000000000, -0.0000000000000000000 ) ) ;
#442 = CARTESIAN_POINT ( 'NONE',  ( -9.919313804509297800E-013, 22.44404037065935500, 0.0000000000000000000 ) ) ;
#443 = DIRECTION ( 'NONE',  ( 1.000000000000000000, 4.427675157730984200E-014, 0.0000000000000000000 ) ) ;
#444 = DIRECTION ( 'NONE',  ( 4.419575816427695500E-014, -1.000000000000000000, -0.0000000000000000000 ) ) ;
#445 = CARTESIAN_POINT ( 'NONE',  ( -2.291108103236223800E-012, 51.84000000000241200, 0.0000000000000000000 ) ) ;
#446 = DIRECTION ( 'NONE',  ( 1.000000000000000000, 4.429081215259616700E-014, 0.0000000000000000000 ) ) ;
#447 = DIRECTION ( 'NONE',  ( 4.419575816427695500E-014, -1.000000000000000000, -0.0000000000000000000 ) ) ;
#448 = CARTESIAN_POINT ( 'NONE',  ( -2.298179424542512000E-012, 52.00000000000249400, 0.0000000000000000000 ) ) ;
#449 = DIRECTION ( 'NONE',  ( 1.000000000000000000, 4.414251702263444800E-014, 0.0000000000000000000 ) ) ;
#450 = DIRECTION ( 'NONE',  ( 4.419575816427695500E-014, -1.000000000000000000, -0.0000000000000000000 ) ) ;
#451 = CARTESIAN_POINT ( 'NONE',  ( -2.298179424542510000E-012, 52.00000000000244400, 0.0000000000000000000 ) ) ;
#452 = DIRECTION ( 'NONE',  ( 1.000000000000000000, 4.418635268998679500E-014, 0.0000000000000000000 ) ) ;
#453 = DIRECTION ( 'NONE',  ( 4.419575816427695500E-014, -1.000000000000000000, -0.0000000000000000000 ) ) ;
#454 = CARTESIAN_POINT ( 'NONE',  ( -2.285931536763382600E-012, 51.72287187079145800, 0.0000000000000000000 ) ) ;
#455 = DIRECTION ( 'NONE',  ( 1.000000000000000000, 4.427675157730984200E-014, 0.0000000000000000000 ) ) ;
#456 = DIRECTION ( 'NONE',  ( 4.419575816427695500E-014, -1.000000000000000000, -0.0000000000000000000 ) ) ;
#457 = CARTESIAN_POINT ( 'NONE',  ( -2.291108103236223800E-012, 51.84000000000241200, 0.0000000000000000000 ) ) ;
#458 = DIRECTION ( 'NONE',  ( 1.000000000000000000, 4.419575816427694900E-014, 0.0000000000000000000 ) ) ;
#459 = DIRECTION ( 'NONE',  ( 4.419575816427695500E-014, -1.000000000000000000, -0.0000000000000000000 ) ) ;
#460 = CARTESIAN_POINT ( 'NONE',  ( 0.0000000000000000000, 0.0000000000000000000, 0.0000000000000000000 ) ) ;
#461 = DIRECTION ( 'NONE',  ( -1.000000000000000000, -4.423544863740113400E-014, 0.0000000000000000000 ) ) ;
#462 = DIRECTION ( 'NONE',  ( -4.419575816427695500E-014, 1.000000000000000000, 0.0000000000000000000 ) ) ;
#463 = CARTESIAN_POINT ( 'NONE',  ( -7.218908375379731100E-013, 16.33393944402273200, 0.0000000000000000000 ) ) ;
#464 = DIRECTION ( 'NONE',  ( 1.000000000000000000, 4.419575816427695500E-014, 0.0000000000000000000 ) ) ;
#465 = DIRECTION ( 'NONE',  ( 4.419575816427695500E-014, -1.000000000000000000, -0.0000000000000000000 ) ) ;
#466 = MANIFOLD_SOLID_BREP ( '±ÛÂà1', #91 ) ;
#467 = PRODUCT_DEFINITION_CONTEXT ( 'detailed design', #438, 'design' ) ;
#468 = PRODUCT_DEFINITION_SHAPE ( 'NONE', 'NONE',  #183 ) ;
#469 = VERTEX_POINT ( 'NONE', #408 ) ;
#470 = VERTEX_POINT ( 'NONE', #409 ) ;
#471 = VERTEX_POINT ( 'NONE', #410 ) ;
#472 = VERTEX_POINT ( 'NONE', #411 ) ;
#473 = VERTEX_POINT ( 'NONE', #412 ) ;
#474 = VERTEX_POINT ( 'NONE', #395 ) ;
#475 = VERTEX_POINT ( 'NONE', #413 ) ;
#476 = VERTEX_POINT ( 'NONE', #414 ) ;
#477 = VERTEX_POINT ( 'NONE', #415 ) ;
#478 = ORIENTED_EDGE ( 'NONE', *, *, #251, .F. ) ;
#479 = ORIENTED_EDGE ( 'NONE', *, *, #268, .F. ) ;
#480 = ORIENTED_EDGE ( 'NONE', *, *, #252, .F. ) ;
#481 = ORIENTED_EDGE ( 'NONE', *, *, #251, .T. ) ;
#482 = ORIENTED_EDGE ( 'NONE', *, *, #263, .F. ) ;
#483 = ORIENTED_EDGE ( 'NONE', *, *, #265, .F. ) ;
#484 = ORIENTED_EDGE ( 'NONE', *, *, #272, .T. ) ;
#485 = ORIENTED_EDGE ( 'NONE', *, *, #252, .T. ) ;
#486 = ORIENTED_EDGE ( 'NONE', *, *, #273, .F. ) ;
#487 = ORIENTED_EDGE ( 'NONE', *, *, #270, .T. ) ;
#488 = ORIENTED_EDGE ( 'NONE', *, *, #257, .F. ) ;
#489 = ORIENTED_EDGE ( 'NONE', *, *, #259, .F. ) ;
#490 = ORIENTED_EDGE ( 'NONE', *, *, #256, .T. ) ;
#491 = VERTEX_POINT ( 'NONE', #416 ) ;
#492 = ORIENTED_EDGE ( 'NONE', *, *, #261, .T. ) ;
#493 = ORIENTED_EDGE ( 'NONE', *, *, #272, .F. ) ;
#494 = ORIENTED_EDGE ( 'NONE', *, *, #273, .T. ) ;
#495 = ORIENTED_EDGE ( 'NONE', *, *, #263, .T. ) ;
#496 = ORIENTED_EDGE ( 'NONE', *, *, #264, .T. ) ;
#497 = ORIENTED_EDGE ( 'NONE', *, *, #275, .T. ) ;
#498 = ORIENTED_EDGE ( 'NONE', *, *, #267, .T. ) ;
#499 = ORIENTED_EDGE ( 'NONE', *, *, #265, .T. ) ;
#500 = ORIENTED_EDGE ( 'NONE', *, *, #266, .F. ) ;
#501 = ORIENTED_EDGE ( 'NONE', *, *, #274, .F. ) ;
#502 = ORIENTED_EDGE ( 'NONE', *, *, #269, .T. ) ;
#503 = ORIENTED_EDGE ( 'NONE', *, *, #268, .T. ) ;
#504 = ORIENTED_EDGE ( 'NONE', *, *, #270, .F. ) ;
#505 = ORIENTED_EDGE ( 'NONE', *, *, #271, .F. ) ;
#506 = ORIENTED_EDGE ( 'NONE', *, *, #267, .F. ) ;
#507 = ORIENTED_EDGE ( 'NONE', *, *, #260, .F. ) ;
#508 = ORIENTED_EDGE ( 'NONE', *, *, #261, .F. ) ;
#509 = VERTEX_POINT ( 'NONE', #417 ) ;
#510 = ORIENTED_EDGE ( 'NONE', *, *, #182, .F. ) ;
#511 = ORIENTED_EDGE ( 'NONE', *, *, #262, .T. ) ;
#512 = ORIENTED_EDGE ( 'NONE', *, *, #180, .F. ) ;
#513 = ORIENTED_EDGE ( 'NONE', *, *, #182, .T. ) ;
#514 = ORIENTED_EDGE ( 'NONE', *, *, #256, .F. ) ;
#515 = ORIENTED_EDGE ( 'NONE', *, *, #255, .T. ) ;
#516 = CARTESIAN_POINT ( 'NONE',  ( 0.0000000000000000000, 0.0000000000000000000, 0.0000000000000000000 ) ) ;
#517 = DIRECTION ( 'NONE',  ( -1.000000000000000000, -4.416404303064853000E-014, 0.0000000000000000000 ) ) ;
#518 = DIRECTION ( 'NONE',  ( -4.419575816427695500E-014, 1.000000000000000000, 0.0000000000000000000 ) ) ;
#519 = CARTESIAN_POINT ( 'NONE',  ( -4.419575816427695200E-011, 1000.000000000000000, 0.0000000000000000000 ) ) ;
#520 = DIRECTION ( 'NONE',  ( 1.000000000000000000, 4.419575816427695500E-014, 0.0000000000000000000 ) ) ;
#521 = DIRECTION ( 'NONE',  ( 4.419575816427695500E-014, -1.000000000000000000, -0.0000000000000000000 ) ) ;
#522 = CARTESIAN_POINT ( 'NONE',  ( -2.298508605669269400E-012, 52.00000000000251500, 0.0000000000000000000 ) ) ;
#523 = DIRECTION ( 'NONE',  ( 1.000000000000000000, 4.419575816427695500E-014, 0.0000000000000000000 ) ) ;
#524 = DIRECTION ( 'NONE',  ( 4.419575816427695500E-014, -1.000000000000000000, -0.0000000000000000000 ) ) ;
#525 = CARTESIAN_POINT ( 'NONE',  ( 0.0000000000000000000, 0.0000000000000000000, 0.0000000000000000000 ) ) ;
#526 = DIRECTION ( 'NONE',  ( 1.000000000000000000, 4.336808689942047400E-014, 0.0000000000000000000 ) ) ;
#527 = DIRECTION ( 'NONE',  ( 4.419575816427695500E-014, -1.000000000000000000, -0.0000000000000000000 ) ) ;
#528 = CARTESIAN_POINT ( 'NONE',  ( -4.406317088978532500E-012, 99.70000000000271700, 0.0000000000000000000 ) ) ;
#529 = DIRECTION ( 'NONE',  ( -1.000000000000000000, -4.419575816427695500E-014, 0.0000000000000000000 ) ) ;
#530 = DIRECTION ( 'NONE',  ( -4.419575816427695500E-014, 1.000000000000000000, 0.0000000000000000000 ) ) ;
#531 = CARTESIAN_POINT ( 'NONE',  ( -4.419575816427819100E-012, 100.0000000000028300, 0.0000000000000000000 ) ) ;
#532 = PLANE ( 'NONE',  #94 ) ;
#533 = DIRECTION ( 'NONE',  ( 1.000000000000000000, 4.427675157730984200E-014, 0.0000000000000000000 ) ) ;
#534 = DIRECTION ( 'NONE',  ( 4.419575816427695500E-014, -1.000000000000000000, -0.0000000000000000000 ) ) ;
#535 = CARTESIAN_POINT ( 'NONE',  ( -2.291108103236223800E-012, 51.84000000000241200, 0.0000000000000000000 ) ) ;
#536 = DIRECTION ( 'NONE',  ( 0.7071067811863065400, -0.7071067811867884900, 0.0000000000000000000 ) ) ;
#537 = CARTESIAN_POINT ( 'NONE',  ( 10.49999999999840800, 51.84000000000287400, 0.0000000000000000000 ) ) ;
#538 = LINE ( 'NONE', #537, #95 ) ;
#539 = CARTESIAN_POINT ( 'NONE',  ( -10.50000000000299100, 51.84000000000195000, 1.285879139104886100E-015 ) ) ;
#540 = CARTESIAN_POINT ( 'NONE',  ( 10.49999999999840800, 51.84000000000287400, 0.0000000000000000000 ) ) ;
#541 = CARTESIAN_POINT ( 'NONE',  ( -10.50000000000039300, 22.44404037065889000, 0.0000000000000000000 ) ) ;
#542 = CARTESIAN_POINT ( 'NONE',  ( 10.49999999999841000, 22.44404037065982000, 1.285879139104647300E-015 ) ) ;
#543 = CARTESIAN_POINT ( 'NONE',  ( 8.000000000000625300, 16.33393944402308800, 0.0000000000000000000 ) ) ;
#544 = CARTESIAN_POINT ( 'NONE',  ( -8.000000000002067700, 16.33393944402238100, 9.797174393181425000E-016 ) ) ;
#545 = CARTESIAN_POINT ( 'NONE',  ( -8.000000000003620200, 4.618802153522739900, 0.0000000000000000000 ) ) ;
#546 = CARTESIAN_POINT ( 'NONE',  ( 8.000000000003213400, 4.618802153523447800, 9.797174393183010600E-016 ) ) ;
ENDSEC;
END-ISO-10303-21;
