ISO-10303-21;
HEADER;
FILE_DESCRIPTION (( 'STEP AP214' ),
    '1' );
FILE_NAME ('99688-SI16-M10+S9MT1603-142.STEP',
    '2023-09-26T06:31:43',
    ( '' ),
    ( '' ),
    'SwSTEP 2.0',
    'SolidWorks 2020',
    '' );
FILE_SCHEMA (( 'AUTOMOTIVE_DESIGN' ));
ENDSEC;

DATA;
#1 = MANIFOLD_SOLID_BREP ( '±ÛÂà1', #162 ) ;
#2 = ADVANCED_FACE ( 'NONE', ( #808 ), #38, .F. ) ;
#3 = CIRCLE ( 'NONE', #212, 0.3999999999999984679 ) ;
#4 = VERTEX_POINT ( 'NONE', #355 ) ;
#5 = CARTESIAN_POINT ( 'NONE',  ( -4.750000386033965682, 56.99999996212427789, 6.123233995737562046E-16 ) ) ;
#6 = DIRECTION ( 'NONE',  ( 1.000000000000000000, 4.260914537867010693E-14, 0.000000000000000000 ) ) ;
#7 = EDGE_LOOP ( 'NONE', ( #159, #739, #298, #537 ) ) ;
#8 = DIRECTION ( 'NONE',  ( -1.000000000000000000, -4.244970388271892704E-14, 0.000000000000000000 ) ) ;
#9 = VECTOR ( 'NONE', #67, 1000.000000000000000 ) ;
#10 = CARTESIAN_POINT ( 'NONE',  ( -3.860309477000000090E-07, 1.999999962123957031, 0.000000000000000000 ) ) ;
#11 = VECTOR ( 'NONE', #243, 999.9999999999998863 ) ;
#12 = ORIENTED_EDGE ( 'NONE', *, *, #391, .T. ) ;
#13 = DIRECTION ( 'NONE',  ( 1.000000000000000000, 4.260914537867132493E-14, 0.000000000000000000 ) ) ;
#14 = DIRECTION ( 'NONE',  ( 1.000000000000000000, 4.163336342343361363E-14, 0.000000000000000000 ) ) ;
#15 = EDGE_CURVE ( 'NONE', #302, #337, #741, .T. ) ;
#16 = ADVANCED_FACE ( 'NONE', ( #37 ), #976, .T. ) ;
#17 = CARTESIAN_POINT ( 'NONE',  ( -3.860310651359707266E-07, 4.754620868442237303, 0.000000000000000000 ) ) ;
#18 = ORIENTED_EDGE ( 'NONE', *, *, #365, .T. ) ;
#19 = DIRECTION ( 'NONE',  ( 4.263235294117223437E-14, -1.000000000000000000, -0.000000000000000000 ) ) ;
#20 = FACE_OUTER_BOUND ( 'NONE', #481, .T. ) ;
#21 = DIRECTION ( 'NONE',  ( 4.263235294117223437E-14, -1.000000000000000000, -0.000000000000000000 ) ) ;
#22 = EDGE_LOOP ( 'NONE', ( #370, #720, #94, #630 ) ) ;
#23 = CARTESIAN_POINT ( 'NONE',  ( 9.999999613968881818, 50.83999996212469341, 0.000000000000000000 ) ) ;
#24 = DIRECTION ( 'NONE',  ( 1.000000000000000000, 4.229421046190569677E-14, 0.000000000000000000 ) ) ;
#25 = ORIENTED_EDGE ( 'NONE', *, *, #391, .F. ) ;
#26 = ORIENTED_EDGE ( 'NONE', *, *, #893, .F. ) ;
#27 = CARTESIAN_POINT ( 'NONE',  ( -3.860333777441176410E-07, 58.99999996212451236, 0.000000000000000000 ) ) ;
#28 = AXIS2_PLACEMENT_3D ( 'NONE', #47, #273, #734 ) ;
#29 = DIRECTION ( 'NONE',  ( -4.263235294117223437E-14, 1.000000000000000000, 0.000000000000000000 ) ) ;
#30 = EDGE_CURVE ( 'NONE', #34, #111, #504, .T. ) ;
#31 = TOROIDAL_SURFACE ( 'NONE', #321, 5.350000000000497025, 0.3999999999999980793 ) ;
#32 = CARTESIAN_POINT ( 'NONE',  ( -3.860330366852941481E-07, 50.99999996212437026, 0.000000000000000000 ) ) ;
#33 = VERTEX_POINT ( 'NONE', #118 ) ;
#34 = VERTEX_POINT ( 'NONE', #578 ) ;
#35 = DIRECTION ( 'NONE',  ( 1.000000000000000000, 4.232725281382600255E-14, 0.000000000000000000 ) ) ;
#36 = ADVANCED_FACE ( 'NONE', ( #430 ), #330, .T. ) ;
#37 = FACE_OUTER_BOUND ( 'NONE', #372, .T. ) ;
#38 = TOROIDAL_SURFACE ( 'NONE', #551, 4.800000000000773426, 0.8000000000000133671 ) ;
#39 = DIRECTION ( 'NONE',  ( -1.000000000000000000, 0.000000000000000000, 0.000000000000000000 ) ) ;
#40 = ORIENTED_EDGE ( 'NONE', *, *, #95, .T. ) ;
#41 = ORIENTED_EDGE ( 'NONE', *, *, #434, .F. ) ;
#42 = CARTESIAN_POINT ( 'NONE',  ( -10.00000038603235808, 21.22202014745532850, 0.000000000000000000 ) ) ;
#43 = DIRECTION ( 'NONE',  ( -1.000000000000000000, -4.278984574075780433E-14, 0.000000000000000000 ) ) ;
#44 = EDGE_CURVE ( 'NONE', #719, #520, #144, .T. ) ;
#45 = CARTESIAN_POINT ( 'NONE',  ( -3.860735800529411789E-07, 1001.999999962123866, 0.000000000000000000 ) ) ;
#46 = ORIENTED_EDGE ( 'NONE', *, *, #217, .T. ) ;
#47 = CARTESIAN_POINT ( 'NONE',  ( -3.860735800529411789E-07, 1001.999999962123866, 0.000000000000000000 ) ) ;
#48 = CARTESIAN_POINT ( 'NONE',  ( -3.860334097183823551E-07, 59.74999996212446973, 0.000000000000000000 ) ) ;
#49 = AXIS2_PLACEMENT_3D ( 'NONE', #267, #955, #13 ) ;
#50 = EDGE_CURVE ( 'NONE', #198, #960, #113, .T. ) ;
#51 = DIRECTION ( 'NONE',  ( -1.000000000000000000, -4.278984574075780433E-14, 0.000000000000000000 ) ) ;
#52 = EDGE_CURVE ( 'NONE', #799, #754, #346, .T. ) ;
#53 = CARTESIAN_POINT ( 'NONE',  ( 3.999999613967395895, 58.41905246019354792, 0.000000000000000000 ) ) ;
#54 = CIRCLE ( 'NONE', #613, 8.000000000001461942 ) ;
#55 = DIRECTION ( 'NONE',  ( -1.000000000000000000, -4.245096388672716119E-14, 0.000000000000000000 ) ) ;
#56 = VECTOR ( 'NONE', #608, 1000.000000000000000 ) ;
#57 = FACE_OUTER_BOUND ( 'NONE', #686, .T. ) ;
#58 = CARTESIAN_POINT ( 'NONE',  ( -4.000000386031681288, 1.999999962123786501, 4.898587196590312130E-16 ) ) ;
#59 = FILL_AREA_STYLE_COLOUR ( '', #998 ) ;
#60 = CARTESIAN_POINT ( 'NONE',  ( -3.860333777441176410E-07, 58.99999996212451236, 0.000000000000000000 ) ) ;
#61 = CIRCLE ( 'NONE', #133, 4.950000000000498446 ) ;
#62 = EDGE_LOOP ( 'NONE', ( #25, #66, #502, #844 ) ) ;
#63 = DIRECTION ( 'NONE',  ( 4.263235294117223437E-14, -1.000000000000000000, -0.000000000000000000 ) ) ;
#64 = AXIS2_PLACEMENT_3D ( 'NONE', #862, #160, #482 ) ;
#65 = CARTESIAN_POINT ( 'NONE',  ( -3.860330366852941481E-07, 50.99999996212452658, 0.000000000000000000 ) ) ;
#66 = ORIENTED_EDGE ( 'NONE', *, *, #515, .F. ) ;
#67 = DIRECTION ( 'NONE',  ( 4.263235294117223437E-14, -1.000000000000000000, -0.000000000000000000 ) ) ;
#68 = CARTESIAN_POINT ( 'NONE',  ( -3.860309477000000090E-07, 1.999999962123957031, 0.000000000000000000 ) ) ;
#69 = ADVANCED_FACE ( 'NONE', ( #884 ), #595, .F. ) ;
#70 = EDGE_CURVE ( 'NONE', #145, #813, #232, .T. ) ;
#71 = EDGE_LOOP ( 'NONE', ( #187, #85, #657, #665 ) ) ;
#72 = AXIS2_PLACEMENT_3D ( 'NONE', #32, #108, #342 ) ;
#73 = DIRECTION ( 'NONE',  ( 4.263235294117223437E-14, -1.000000000000000000, -0.000000000000000000 ) ) ;
#74 = VECTOR ( 'NONE', #324, 1000.000000000000114 ) ;
#75 = CARTESIAN_POINT ( 'NONE',  ( -3.860330256090839599E-07, 50.74019234098913245, 0.000000000000000000 ) ) ;
#76 = VERTEX_POINT ( 'NONE', #873 ) ;
#77 = CARTESIAN_POINT ( 'NONE',  ( -5.250000386033895516, 56.49999996212425657, 6.429395695524485705E-16 ) ) ;
#78 = DIRECTION ( 'NONE',  ( 4.263235294117223437E-14, -1.000000000000000000, -0.000000000000000000 ) ) ;
#79 = VERTEX_POINT ( 'NONE', #177 ) ;
#80 = CARTESIAN_POINT ( 'NONE',  ( -3.860332924794117546E-07, 56.99999996212447684, 0.000000000000000000 ) ) ;
#81 = DIRECTION ( 'NONE',  ( 1.224646799147353207E-16, 5.220957456952682530E-30, 1.000000000000000000 ) ) ;
#82 = ADVANCED_FACE ( 'NONE', ( #491, #268 ), #795, .T. ) ;
#83 = EDGE_CURVE ( 'NONE', #488, #145, #511, .T. ) ;
#84 = DIRECTION ( 'NONE',  ( 4.263235294117223437E-14, -1.000000000000000000, -0.000000000000000000 ) ) ;
#85 = ORIENTED_EDGE ( 'NONE', *, *, #641, .T. ) ;
#86 = CYLINDRICAL_SURFACE ( 'NONE', #49, 8.000000000001689315 ) ;
#87 = DIRECTION ( 'NONE',  ( 1.000000000000000000, 4.163336342343361363E-14, 0.000000000000000000 ) ) ;
#88 = VECTOR ( 'NONE', #592, 1000.000000000000000 ) ;
#89 = CIRCLE ( 'NONE', #425, 5.000000000000820677 ) ;
#90 = CARTESIAN_POINT ( 'NONE',  ( -3.860332711632352962E-07, 56.49999996212447684, 0.000000000000000000 ) ) ;
#91 = EDGE_LOOP ( 'NONE', ( #733, #518, #349, #542 ) ) ;
#92 = DIRECTION ( 'NONE',  ( -4.263235294117223437E-14, 1.000000000000000000, 0.000000000000000000 ) ) ;
#93 = DIRECTION ( 'NONE',  ( -1.000000000000000000, -4.250072516142400511E-14, 0.000000000000000000 ) ) ;
#94 = ORIENTED_EDGE ( 'NONE', *, *, #386, .T. ) ;
#95 = EDGE_CURVE ( 'NONE', #156, #552, #622, .T. ) ;
#96 = ORIENTED_EDGE ( 'NONE', *, *, #195, .T. ) ;
#97 = CARTESIAN_POINT ( 'NONE',  ( -8.000000386033022437, 16.33393940614423911, 0.000000000000000000 ) ) ;
#98 = DIRECTION ( 'NONE',  ( 4.263235294117223437E-14, -1.000000000000000000, -0.000000000000000000 ) ) ;
#99 = TOROIDAL_SURFACE ( 'NONE', #924, 4.800000000000773426, 0.8000000000000133671 ) ;
#100 = ADVANCED_FACE ( 'NONE', ( #147 ), #135, .T. ) ;
#101 = FACE_OUTER_BOUND ( 'NONE', #889, .T. ) ;
#102 = VERTEX_POINT ( 'NONE', #923 ) ;
#103 = ORIENTED_EDGE ( 'NONE', *, *, #83, .F. ) ;
#104 = DIRECTION ( 'NONE',  ( 1.000000000000000000, 4.262463398114011329E-14, 0.000000000000000000 ) ) ;
#105 = AXIS2_PLACEMENT_3D ( 'NONE', #863, #877, #728 ) ;
#106 = CARTESIAN_POINT ( 'NONE',  ( -3.860315587895654246E-07, 16.33393940614458018, 0.000000000000000000 ) ) ;
#107 = CIRCLE ( 'NONE', #936, 4.250000000000765610 ) ;
#108 = DIRECTION ( 'NONE',  ( 4.263235294117223437E-14, -1.000000000000000000, -0.000000000000000000 ) ) ;
#109 = ORIENTED_EDGE ( 'NONE', *, *, #535, .T. ) ;
#110 = TOROIDAL_SURFACE ( 'NONE', #905, 5.350000000000477485, 0.3999999999999975797 ) ;
#111 = VERTEX_POINT ( 'NONE', #843 ) ;
#112 = DIRECTION ( 'NONE',  ( 4.263235294117223437E-14, -1.000000000000000000, -0.000000000000000000 ) ) ;
#113 = CIRCLE ( 'NONE', #689, 4.000000000000720313 ) ;
#114 = DIRECTION ( 'NONE',  ( 1.000000000000000000, 4.263082942212470165E-14, 0.000000000000000000 ) ) ;
#115 = ORIENTED_EDGE ( 'NONE', *, *, #820, .F. ) ;
#116 = EDGE_LOOP ( 'NONE', ( #634, #300, #333, #793 ) ) ;
#117 = DIRECTION ( 'NONE',  ( 4.263235294117223437E-14, -1.000000000000000000, -0.000000000000000000 ) ) ;
#118 = CARTESIAN_POINT ( 'NONE',  ( -4.000000386034101574, 58.41905246019319975, 4.898587196590345657E-16 ) ) ;
#119 = EDGE_CURVE ( 'NONE', #617, #325, #219, .T. ) ;
#120 = EDGE_CURVE ( 'NONE', #181, #258, #61, .T. ) ;
#121 = DIRECTION ( 'NONE',  ( 1.000000000000000000, 4.250072516142400511E-14, 0.000000000000000000 ) ) ;
#122 = FACE_OUTER_BOUND ( 'NONE', #91, .T. ) ;
#123 = CARTESIAN_POINT ( 'NONE',  ( -6.000000386033518929, 50.99999996212427078, 0.000000000000000000 ) ) ;
#124 = DIRECTION ( 'NONE',  ( -0.7071067811866230679, 0.7071067811864719665, 0.000000000000000000 ) ) ;
#125 = CARTESIAN_POINT ( 'NONE',  ( -3.860330596849870233E-07, 51.53431453717534794, 0.000000000000000000 ) ) ;
#126 = AXIS2_PLACEMENT_3D ( 'NONE', #932, #412, #236 ) ;
#127 = ORIENTED_EDGE ( 'NONE', *, *, #820, .T. ) ;
#128 = AXIS2_PLACEMENT_3D ( 'NONE', #244, #701, #14 ) ;
#129 = EDGE_CURVE ( 'NONE', #4, #258, #997, .T. ) ;
#130 = ORIENTED_EDGE ( 'NONE', *, *, #853, .T. ) ;
#131 = EDGE_LOOP ( 'NONE', ( #242, #96, #675, #607 ) ) ;
#132 = DIRECTION ( 'NONE',  ( -1.000000000000000000, 0.000000000000000000, 0.000000000000000000 ) ) ;
#133 = AXIS2_PLACEMENT_3D ( 'NONE', #599, #455, #615 ) ;
#134 = SURFACE_STYLE_USAGE ( .BOTH. , #283 ) ;
#135 = CYLINDRICAL_SURFACE ( 'NONE', #540, 10.00000000000125056 ) ;
#136 = CIRCLE ( 'NONE', #769, 4.000000000000748734 ) ;
#137 = DIRECTION ( 'NONE',  ( 0.000000000000000000, 0.000000000000000000, -1.000000000000000000 ) ) ;
#138 = EDGE_CURVE ( 'NONE', #337, #76, #384, .T. ) ;
#139 =( GEOMETRIC_REPRESENTATION_CONTEXT ( 3 ) GLOBAL_UNCERTAINTY_ASSIGNED_CONTEXT ( ( #966 ) ) GLOBAL_UNIT_ASSIGNED_CONTEXT ( ( #827, #142, #383 ) ) REPRESENTATION_CONTEXT ( 'NONE', 'WORKASPACE' ) );
#140 = PRESENTATION_STYLE_ASSIGNMENT (( #134 ) ) ;
#141 = CARTESIAN_POINT ( 'NONE',  ( 9.999999613970302903, 1.999999962124383357, 0.000000000000000000 ) ) ;
#142 =( NAMED_UNIT ( * ) PLANE_ANGLE_UNIT ( ) SI_UNIT ( $, .RADIAN. ) );
#143 = CARTESIAN_POINT ( 'NONE',  ( -5.250000386031476118, 1.999999962123733210, 6.429395695524252005E-16 ) ) ;
#144 = CIRCLE ( 'NONE', #548, 8.000000000001461942 ) ;
#145 = VERTEX_POINT ( 'NONE', #522 ) ;
#146 = VECTOR ( 'NONE', #755, 1000.000000000000114 ) ;
#147 = FACE_OUTER_BOUND ( 'NONE', #614, .T. ) ;
#148 = EDGE_CURVE ( 'NONE', #420, #603, #990, .T. ) ;
#149 = CIRCLE ( 'NONE', #528, 4.750000000000674127 ) ;
#150 = CYLINDRICAL_SURFACE ( 'NONE', #358, 5.250000000000528466 ) ;
#151 = ORIENTED_EDGE ( 'NONE', *, *, #52, .T. ) ;
#152 = TOROIDAL_SURFACE ( 'NONE', #530, 5.350000000000497025, 0.3999999999999980793 ) ;
#153 = DIRECTION ( 'NONE',  ( -4.263235294117223437E-14, 1.000000000000000000, 0.000000000000000000 ) ) ;
#154 = VECTOR ( 'NONE', #433, 1000.000000000000000 ) ;
#155 = DIRECTION ( 'NONE',  ( 1.000000000000000000, 4.231032868235399487E-14, 0.000000000000000000 ) ) ;
#156 = VERTEX_POINT ( 'NONE', #904 ) ;
#157 = DIRECTION ( 'NONE',  ( 4.263235294117223437E-14, -1.000000000000000000, -0.000000000000000000 ) ) ;
#158 = DIRECTION ( 'NONE',  ( 4.263235294117223437E-14, -1.000000000000000000, -0.000000000000000000 ) ) ;
#159 = ORIENTED_EDGE ( 'NONE', *, *, #211, .F. ) ;
#160 = DIRECTION ( 'NONE',  ( 4.263235294117223437E-14, -1.000000000000000000, -0.000000000000000000 ) ) ;
#161 = DIRECTION ( 'NONE',  ( 4.263235294117223437E-14, -1.000000000000000000, -0.000000000000000000 ) ) ;
#162 = CLOSED_SHELL ( 'NONE', ( #408, #539, #270, #550, #290, #2, #858, #285, #590, #753, #452, #610, #407, #839, #69, #479, #899, #736, #323, #100, #711, #82, #783, #946, #16, #676, #36, #379, #170, #178, #332, #196, #478, #713, #254, #246, #911, #796 ) ) ;
#163 = DIRECTION ( 'NONE',  ( 1.000000000000000000, 4.278984574075780433E-14, 0.000000000000000000 ) ) ;
#164 = CIRCLE ( 'NONE', #234, 5.000000000001171507 ) ;
#165 = EDGE_LOOP ( 'NONE', ( #215, #817, #906, #248 ) ) ;
#166 = CARTESIAN_POINT ( 'NONE',  ( 5.249999613967353262, 56.49999996212470421, 0.000000000000000000 ) ) ;
#167 = EDGE_CURVE ( 'NONE', #799, #653, #286, .T. ) ;
#168 = DIRECTION ( 'NONE',  ( -0.7071067811866247332, 0.7071067811864704122, 0.000000000000000000 ) ) ;
#169 = CIRCLE ( 'NONE', #745, 6.000000000000482281 ) ;
#170 = ADVANCED_FACE ( 'NONE', ( #604 ), #417, .T. ) ;
#171 = AXIS2_PLACEMENT_3D ( 'NONE', #556, #869, #163 ) ;
#172 = DIRECTION ( 'NONE',  ( 4.263235294117223437E-14, -1.000000000000000000, -0.000000000000000000 ) ) ;
#173 = ORIENTED_EDGE ( 'NONE', *, *, #138, .T. ) ;
#174 = ORIENTED_EDGE ( 'NONE', *, *, #750, .T. ) ;
#175 = CARTESIAN_POINT ( 'NONE',  ( 4.949999613969540135, 1.999999962124168196, 0.000000000000000000 ) ) ;
#176 = AXIS2_PLACEMENT_3D ( 'NONE', #851, #153, #8 ) ;
#177 = CARTESIAN_POINT ( 'NONE',  ( 4.949999613967417389, 51.53431453717546162, 0.000000000000000000 ) ) ;
#178 = ADVANCED_FACE ( 'NONE', ( #382 ), #846, .F. ) ;
#179 = DIRECTION ( 'NONE',  ( 1.000000000000000000, 4.260914537867010693E-14, 0.000000000000000000 ) ) ;
#180 = ORIENTED_EDGE ( 'NONE', *, *, #226, .T. ) ;
#181 = VERTEX_POINT ( 'NONE', #458 ) ;
#182 = CYLINDRICAL_SURFACE ( 'NONE', #597, 5.250000000000528466 ) ;
#183 = VECTOR ( 'NONE', #63, 1000.000000000000000 ) ;
#184 = APPLICATION_CONTEXT ( 'automotive_design' ) ;
#185 = LINE ( 'NONE', #426, #786 ) ;
#186 = ORIENTED_EDGE ( 'NONE', *, *, #737, .T. ) ;
#187 = ORIENTED_EDGE ( 'NONE', *, *, #138, .F. ) ;
#188 = DIRECTION ( 'NONE',  ( 4.263235294117223437E-14, -1.000000000000000000, -0.000000000000000000 ) ) ;
#189 = DIRECTION ( 'NONE',  ( -4.263235294117223437E-14, 1.000000000000000000, 0.000000000000000000 ) ) ;
#190 = AXIS2_PLACEMENT_3D ( 'NONE', #369, #685, #757 ) ;
#191 = CARTESIAN_POINT ( 'NONE',  ( -3.860309477000000090E-07, 1.999999962123957031, 0.000000000000000000 ) ) ;
#192 = VERTEX_POINT ( 'NONE', #210 ) ;
#193 = ORIENTED_EDGE ( 'NONE', *, *, #716, .T. ) ;
#194 = DIRECTION ( 'NONE',  ( -1.000000000000000000, -4.263235294117223437E-14, 0.000000000000000000 ) ) ;
#195 = EDGE_CURVE ( 'NONE', #972, #552, #1001, .T. ) ;
#196 = ADVANCED_FACE ( 'NONE', ( #378 ), #99, .F. ) ;
#197 = CYLINDRICAL_SURFACE ( 'NONE', #683, 8.000000000001689315 ) ;
#198 = VERTEX_POINT ( 'NONE', #835 ) ;
#199 = CARTESIAN_POINT ( 'NONE',  ( -3.860330298641176539E-07, 50.83999996212427419, 0.000000000000000000 ) ) ;
#200 = DIRECTION ( 'NONE',  ( 1.000000000000000000, 4.250072516142400511E-14, 0.000000000000000000 ) ) ;
#201 = DIRECTION ( 'NONE',  ( 1.000000000000000000, 4.263235294117223437E-14, 0.000000000000000000 ) ) ;
#202 = DIRECTION ( 'NONE',  ( 1.000000000000000000, 0.000000000000000000, -1.224646799147353947E-16 ) ) ;
#203 = ORIENTED_EDGE ( 'NONE', *, *, #361, .F. ) ;
#204 = CONICAL_SURFACE ( 'NONE', #626, 5.067157287525799525, 0.7853981633975146703 ) ;
#205 = EDGE_CURVE ( 'NONE', #513, #156, #305, .T. ) ;
#206 = VECTOR ( 'NONE', #519, 1000.000000000000000 ) ;
#207 = CARTESIAN_POINT ( 'NONE',  ( 5.999999613967444745, 50.99999996212478948, 7.347880794884707437E-16 ) ) ;
#208 = AXIS2_PLACEMENT_3D ( 'NONE', #353, #117, #588 ) ;
#209 = ORIENTED_EDGE ( 'NONE', *, *, #459, .F. ) ;
#210 = CARTESIAN_POINT ( 'NONE',  ( 4.999999613967410106, 67.99999996212469000, 0.000000000000000000 ) ) ;
#211 = EDGE_CURVE ( 'NONE', #617, #467, #957, .T. ) ;
#212 = AXIS2_PLACEMENT_3D ( 'NONE', #625, #555, #239 ) ;
#213 = DIRECTION ( 'NONE',  ( 1.000000000000000000, 4.278984574075780433E-14, 0.000000000000000000 ) ) ;
#214 = APPLICATION_PROTOCOL_DEFINITION ( 'draft international standard', 'automotive_design', 1998, #184 ) ;
#215 = ORIENTED_EDGE ( 'NONE', *, *, #380, .T. ) ;
#216 = DIRECTION ( 'NONE',  ( 1.000000000000000000, 4.263235294117224068E-14, 0.000000000000000000 ) ) ;
#217 = EDGE_CURVE ( 'NONE', #719, #875, #994, .T. ) ;
#218 = ORIENTED_EDGE ( 'NONE', *, *, #619, .T. ) ;
#219 = LINE ( 'NONE', #768, #146 ) ;
#220 = AXIS2_PLACEMENT_3D ( 'NONE', #715, #422, #496 ) ;
#221 = SURFACE_STYLE_FILL_AREA ( #679 ) ;
#222 = AXIS2_PLACEMENT_3D ( 'NONE', #364, #874, #179 ) ;
#223 = PLANE ( 'NONE',  #671 ) ;
#224 = AXIS2_PLACEMENT_3D ( 'NONE', #666, #743, #202 ) ;
#225 = EDGE_CURVE ( 'NONE', #719, #156, #914, .T. ) ;
#226 = EDGE_CURVE ( 'NONE', #582, #960, #462, .T. ) ;
#227 = SURFACE_SIDE_STYLE ('',( #221 ) ) ;
#228 = ORIENTED_EDGE ( 'NONE', *, *, #380, .F. ) ;
#229 = DIRECTION ( 'NONE',  ( 4.263235294117223437E-14, -1.000000000000000000, -0.000000000000000000 ) ) ;
#230 = ORIENTED_EDGE ( 'NONE', *, *, #930, .T. ) ;
#231 = ORIENTED_EDGE ( 'NONE', *, *, #148, .F. ) ;
#232 = CIRCLE ( 'NONE', #798, 5.000000000000820677 ) ;
#233 = CARTESIAN_POINT ( 'NONE',  ( -5.067157673558870812, 51.81715724964968928, 0.000000000000000000 ) ) ;
#234 = AXIS2_PLACEMENT_3D ( 'NONE', #577, #883, #945 ) ;
#235 = VECTOR ( 'NONE', #362, 1000.000000000000000 ) ;
#236 = DIRECTION ( 'NONE',  ( 1.000000000000000000, 4.245096388672716119E-14, 0.000000000000000000 ) ) ;
#237 = ORIENTED_EDGE ( 'NONE', *, *, #304, .T. ) ;
#238 = AXIS2_PLACEMENT_3D ( 'NONE', #299, #137, #132 ) ;
#239 = DIRECTION ( 'NONE',  ( -1.000000000000000000, 0.000000000000000000, 0.000000000000000000 ) ) ;
#240 = CONICAL_SURFACE ( 'NONE', #825, 8.000000000001461942, 0.3883766555390973374 ) ;
#241 = LINE ( 'NONE', #466, #730 ) ;
#242 = ORIENTED_EDGE ( 'NONE', *, *, #627, .T. ) ;
#243 = DIRECTION ( 'NONE',  ( 0.7071067811869072850, -0.7071067811861878605, 0.000000000000000000 ) ) ;
#244 = CARTESIAN_POINT ( 'NONE',  ( -3.860337614352941566E-07, 67.99999996212447684, 0.000000000000000000 ) ) ;
#245 = PRESENTATION_LAYER_ASSIGNMENT (  '', '', ( #329 ) ) ;
#246 = ADVANCED_FACE ( 'NONE', ( #918 ), #223, .T. ) ;
#247 = CYLINDRICAL_SURFACE ( 'NONE', #564, 5.000000000000996536 ) ;
#248 = ORIENTED_EDGE ( 'NONE', *, *, #821, .F. ) ;
#249 = CARTESIAN_POINT ( 'NONE',  ( 5.549999613967464107, 50.74019234098936693, 7.072335265076561834E-16 ) ) ;
#250 = CARTESIAN_POINT ( 'NONE',  ( -3.860337614352941566E-07, 67.99999996212447684, 0.000000000000000000 ) ) ;
#251 = CARTESIAN_POINT ( 'NONE',  ( -3.860330366852941481E-07, 50.99999996212437026, 0.000000000000000000 ) ) ;
#252 = EDGE_LOOP ( 'NONE', ( #876, #894, #265, #203 ) ) ;
#253 = CARTESIAN_POINT ( 'NONE',  ( 4.249999613967385237, 58.99999996212469000, 0.000000000000000000 ) ) ;
#254 = ADVANCED_FACE ( 'NONE', ( #867 ), #389, .T. ) ;
#255 = DIRECTION ( 'NONE',  ( 4.263235294117223437E-14, -1.000000000000000000, -0.000000000000000000 ) ) ;
#256 = CIRCLE ( 'NONE', #649, 5.550000000000490097 ) ;
#257 = DIRECTION ( 'NONE',  ( 1.000000000000000000, 4.260914537867132493E-14, 0.000000000000000000 ) ) ;
#258 = VERTEX_POINT ( 'NONE', #322 ) ;
#259 = EDGE_LOOP ( 'NONE', ( #278, #788, #40, #908 ) ) ;
#260 = LINE ( 'NONE', #97, #418 ) ;
#261 = EDGE_CURVE ( 'NONE', #79, #4, #697, .T. ) ;
#262 = AXIS2_PLACEMENT_3D ( 'NONE', #477, #405, #559 ) ;
#263 = DIRECTION ( 'NONE',  ( 4.263235294117223437E-14, -1.000000000000000000, -0.000000000000000000 ) ) ;
#264 = CARTESIAN_POINT ( 'NONE',  ( 4.799999613967395717, 57.79843593325824713, 0.000000000000000000 ) ) ;
#265 = ORIENTED_EDGE ( 'NONE', *, *, #494, .T. ) ;
#266 = ORIENTED_EDGE ( 'NONE', *, *, #129, .T. ) ;
#267 = CARTESIAN_POINT ( 'NONE',  ( -3.860309477000000090E-07, 1.999999962123957031, 0.000000000000000000 ) ) ;
#268 = FACE_OUTER_BOUND ( 'NONE', #523, .T. ) ;
#269 = DIRECTION ( 'NONE',  ( 1.000000000000000000, 4.336808689941206156E-14, 0.000000000000000000 ) ) ;
#270 = ADVANCED_FACE ( 'NONE', ( #935 ), #566, .T. ) ;
#271 = ORIENTED_EDGE ( 'NONE', *, *, #681, .F. ) ;
#272 = ORIENTED_EDGE ( 'NONE', *, *, #83, .T. ) ;
#273 = DIRECTION ( 'NONE',  ( -4.263235294117223437E-14, 1.000000000000000000, 0.000000000000000000 ) ) ;
#274 = CIRCLE ( 'NONE', #706, 0.8000000000000029310 ) ;
#275 = CIRCLE ( 'NONE', #726, 0.8000000000000133671 ) ;
#276 = AXIS2_PLACEMENT_3D ( 'NONE', #90, #864, #409 ) ;
#277 = CARTESIAN_POINT ( 'NONE',  ( 4.799999613967420586, 58.41905246019359055, 0.000000000000000000 ) ) ;
#278 = ORIENTED_EDGE ( 'NONE', *, *, #44, .F. ) ;
#279 = CARTESIAN_POINT ( 'NONE',  ( -3.860330256090839599E-07, 50.74019234098913245, 0.000000000000000000 ) ) ;
#280 = DIRECTION ( 'NONE',  ( 1.000000000000000000, 4.263235294117223437E-14, 0.000000000000000000 ) ) ;
#281 = LINE ( 'NONE', #351, #88 ) ;
#282 = FACE_OUTER_BOUND ( 'NONE', #165, .T. ) ;
#283 = SURFACE_SIDE_STYLE ('',( #527 ) ) ;
#284 = AXIS2_PLACEMENT_3D ( 'NONE', #460, #907, #767 ) ;
#285 = ADVANCED_FACE ( 'NONE', ( #20 ), #309, .F. ) ;
#286 = CIRCLE ( 'NONE', #579, 3.845299461622054604 ) ;
#287 = DIRECTION ( 'NONE',  ( 1.000000000000000000, 4.263235294117223437E-14, 0.000000000000000000 ) ) ;
#288 = DIRECTION ( 'NONE',  ( 1.000000000000000000, 4.205390244791854081E-14, 0.000000000000000000 ) ) ;
#289 = ORIENTED_EDGE ( 'NONE', *, *, #148, .T. ) ;
#290 = ADVANCED_FACE ( 'NONE', ( #947 ), #828, .T. ) ;
#291 = DIRECTION ( 'NONE',  ( 1.000000000000000000, 4.330831846930460522E-14, 0.000000000000000000 ) ) ;
#292 = ORIENTED_EDGE ( 'NONE', *, *, #261, .T. ) ;
#293 = CONICAL_SURFACE ( 'NONE', #888, 2904.210877675507618, 1.239183768915940620 ) ;
#294 = DIRECTION ( 'NONE',  ( 4.263235294117223437E-14, -1.000000000000000000, -0.000000000000000000 ) ) ;
#295 = CONICAL_SURFACE ( 'NONE', #1002, 10.00000000000191136, 0.7853981633979143506 ) ;
#296 = EDGE_LOOP ( 'NONE', ( #501, #151, #41, #598 ) ) ;
#297 = DIRECTION ( 'NONE',  ( 4.263235294117223437E-14, -1.000000000000000000, -0.000000000000000000 ) ) ;
#298 = ORIENTED_EDGE ( 'NONE', *, *, #826, .T. ) ;
#299 = CARTESIAN_POINT ( 'NONE',  ( 5.349999613967417744, 51.53431453717558242, 0.000000000000000000 ) ) ;
#300 = ORIENTED_EDGE ( 'NONE', *, *, #261, .F. ) ;
#301 = CARTESIAN_POINT ( 'NONE',  ( -3.860309477000000090E-07, 1.999999962123957031, 0.000000000000000000 ) ) ;
#302 = VERTEX_POINT ( 'NONE', #5 ) ;
#303 = EDGE_CURVE ( 'NONE', #972, #513, #921, .T. ) ;
#304 = EDGE_CURVE ( 'NONE', #467, #76, #696, .T. ) ;
#305 = LINE ( 'NONE', #141, #486 ) ;
#306 = CONICAL_SURFACE ( 'NONE', #723, 4.250000000000765610, 0.7853981633975124499 ) ;
#307 = DIRECTION ( 'NONE',  ( 4.263235294117223437E-14, -1.000000000000000000, -0.000000000000000000 ) ) ;
#308 = CIRCLE ( 'NONE', #171, 6.000000000000482281 ) ;
#309 = TOROIDAL_SURFACE ( 'NONE', #650, 4.800000000000722800, 0.8000000000000024869 ) ;
#310 = ORIENTED_EDGE ( 'NONE', *, *, #120, .T. ) ;
#311 = DIRECTION ( 'NONE',  ( -4.263235294117223437E-14, 1.000000000000000000, 0.000000000000000000 ) ) ;
#312 = EDGE_CURVE ( 'NONE', #442, #181, #3, .T. ) ;
#313 = LINE ( 'NONE', #480, #787 ) ;
#314 = EDGE_LOOP ( 'NONE', ( #806, #228, #352, #393 ) ) ;
#315 = VECTOR ( 'NONE', #682, 1000.000000000000114 ) ;
#316 = DIRECTION ( 'NONE',  ( -1.000000000000000000, -4.250072516142400511E-14, 0.000000000000000000 ) ) ;
#317 = CONICAL_SURFACE ( 'NONE', #400, 10.00000000000191136, 0.7853981633979143506 ) ;
#318 = FACE_OUTER_BOUND ( 'NONE', #259, .T. ) ;
#319 = ORIENTED_EDGE ( 'NONE', *, *, #926, .F. ) ;
#320 = FACE_OUTER_BOUND ( 'NONE', #850, .T. ) ;
#321 = AXIS2_PLACEMENT_3D ( 'NONE', #833, #901, #287 ) ;
#322 = CARTESIAN_POINT ( 'NONE',  ( -4.950000386033538646, 51.08660250250269996, 6.429395695524210590E-16 ) ) ;
#323 = ADVANCED_FACE ( 'NONE', ( #546 ), #785, .T. ) ;
#324 = DIRECTION ( 'NONE',  ( 0.8660254037843557740, 0.5000000000001434408, 1.060575238724831357E-16 ) ) ;
#325 = VERTEX_POINT ( 'NONE', #784 ) ;
#326 = UNCERTAINTY_MEASURE_WITH_UNIT (LENGTH_MEASURE( 1.000000000000000082E-05 ), #375, 'distance_accuracy_value', 'NONE');
#327 = LINE ( 'NONE', #23, #11 ) ;
#328 = DIRECTION ( 'NONE',  ( -4.263235294117223437E-14, 1.000000000000000000, 0.000000000000000000 ) ) ;
#329 = STYLED_ITEM ( 'NONE', ( #917 ), #860 ) ;
#330 = CONICAL_SURFACE ( 'NONE', #897, 5.067157287525799525, 0.7853981633975146703 ) ;
#331 = CARTESIAN_POINT ( 'NONE',  ( -3.860334097183823551E-07, 59.74999996212446973, 0.000000000000000000 ) ) ;
#332 = ADVANCED_FACE ( 'NONE', ( #857 ), #621, .T. ) ;
#333 = ORIENTED_EDGE ( 'NONE', *, *, #912, .T. ) ;
#334 = CARTESIAN_POINT ( 'NONE',  ( -3.860330298641176539E-07, 50.83999996212427419, 0.000000000000000000 ) ) ;
#335 = DIRECTION ( 'NONE',  ( 1.000000000000000000, 4.232725281382600255E-14, 0.000000000000000000 ) ) ;
#336 = ORIENTED_EDGE ( 'NONE', *, *, #565, .F. ) ;
#337 = VERTEX_POINT ( 'NONE', #77 ) ;
#338 = FACE_OUTER_BOUND ( 'NONE', #837, .T. ) ;
#339 = DIRECTION ( 'NONE',  ( -0.7071067811864824026, -0.7071067811866126318, 8.659560562354505148E-17 ) ) ;
#340 = AXIS2_PLACEMENT_3D ( 'NONE', #492, #797, #347 ) ;
#341 = AXIS2_PLACEMENT_3D ( 'NONE', #17, #637, #6 ) ;
#342 = DIRECTION ( 'NONE',  ( 1.000000000000000000, 4.231032868235399487E-14, 0.000000000000000000 ) ) ;
#343 = ORIENTED_EDGE ( 'NONE', *, *, #821, .T. ) ;
#344 = ORIENTED_EDGE ( 'NONE', *, *, #515, .T. ) ;
#345 = DIRECTION ( 'NONE',  ( 4.263235294117223437E-14, -1.000000000000000000, -0.000000000000000000 ) ) ;
#346 = LINE ( 'NONE', #722, #235 ) ;
#347 = DIRECTION ( 'NONE',  ( 1.000000000000000000, 4.267419750902693648E-14, 0.000000000000000000 ) ) ;
#348 = ORIENTED_EDGE ( 'NONE', *, *, #507, .T. ) ;
#349 = ORIENTED_EDGE ( 'NONE', *, *, #70, .F. ) ;
#350 = DIRECTION ( 'NONE',  ( 1.224646799147353207E-16, 5.220957456952682530E-30, 1.000000000000000000 ) ) ;
#351 = CARTESIAN_POINT ( 'NONE',  ( 5.249999613967353262, 56.49999996212470421, 0.000000000000000000 ) ) ;
#352 = ORIENTED_EDGE ( 'NONE', *, *, #893, .T. ) ;
#353 = CARTESIAN_POINT ( 'NONE',  ( -3.860309477000000090E-07, 1.999999962123957031, 0.000000000000000000 ) ) ;
#354 = CIRCLE ( 'NONE', #933, 5.250000000000433431 ) ;
#355 = CARTESIAN_POINT ( 'NONE',  ( -4.950000386033536870, 51.53431453717504240, 6.062001655780001004E-16 ) ) ;
#356 = EDGE_CURVE ( 'NONE', #34, #258, #985, .T. ) ;
#357 = CIRCLE ( 'NONE', #340, 10.00000000000058975 ) ;
#358 = AXIS2_PLACEMENT_3D ( 'NONE', #702, #773, #859 ) ;
#359 = CARTESIAN_POINT ( 'NONE',  ( -8.000000386032638744, 1.999999962123616193, 9.797174393180896417E-16 ) ) ;
#360 = CARTESIAN_POINT ( 'NONE',  ( -3.860333265186158979E-07, 57.79843593325806950, 0.000000000000000000 ) ) ;
#361 = EDGE_CURVE ( 'NONE', #754, #192, #450, .T. ) ;
#362 = DIRECTION ( 'NONE',  ( -0.4999999999999112932, -0.8660254037844898889, 6.123233995736131249E-17 ) ) ;
#363 = AXIS2_PLACEMENT_3D ( 'NONE', #710, #157, #632 ) ;
#364 = CARTESIAN_POINT ( 'NONE',  ( -3.860310651359707266E-07, 4.754620868442237303, 0.000000000000000000 ) ) ;
#365 = EDGE_CURVE ( 'NONE', #192, #145, #639, .T. ) ;
#366 = DIRECTION ( 'NONE',  ( 1.000000000000000000, 0.000000000000000000, -1.224646799147352961E-16 ) ) ;
#367 = ORIENTED_EDGE ( 'NONE', *, *, #688, .T. ) ;
#368 = VECTOR ( 'NONE', #648, 1000.000000000000000 ) ;
#369 = CARTESIAN_POINT ( 'NONE',  ( -3.860333777441176410E-07, 58.99999996212451236, 0.000000000000000000 ) ) ;
#370 = ORIENTED_EDGE ( 'NONE', *, *, #943, .F. ) ;
#371 = CARTESIAN_POINT ( 'NONE',  ( -3.860338466999999902E-07, 69.99999996212451947, 0.000000000000000000 ) ) ;
#372 = EDGE_LOOP ( 'NONE', ( #568, #638, #493, #703 ) ) ;
#373 = AXIS2_PLACEMENT_3D ( 'NONE', #656, #963, #269 ) ;
#374 = DIRECTION ( 'NONE',  ( 4.263235294117223437E-14, -1.000000000000000000, -0.000000000000000000 ) ) ;
#375 =( LENGTH_UNIT ( ) NAMED_UNIT ( * ) SI_UNIT ( .MILLI., .METRE. ) );
#376 = CIRCLE ( 'NONE', #224, 0.3999999999999975797 ) ;
#377 = ORIENTED_EDGE ( 'NONE', *, *, #716, .F. ) ;
#378 = FACE_OUTER_BOUND ( 'NONE', #62, .T. ) ;
#379 = ADVANCED_FACE ( 'NONE', ( #872 ), #182, .T. ) ;
#380 = EDGE_CURVE ( 'NONE', #102, #302, #149, .T. ) ;
#381 = FILL_AREA_STYLE_COLOUR ( '', #404 ) ;
#382 = FACE_OUTER_BOUND ( 'NONE', #314, .T. ) ;
#383 =( NAMED_UNIT ( * ) SI_UNIT ( $, .STERADIAN. ) SOLID_ANGLE_UNIT ( ) );
#384 = LINE ( 'NONE', #143, #718 ) ;
#385 = EDGE_LOOP ( 'NONE', ( #880, #396, #964, #310 ) ) ;
#386 = EDGE_CURVE ( 'NONE', #751, #513, #327, .T. ) ;
#387 = CARTESIAN_POINT ( 'NONE',  ( -3.860333528532544634E-07, 58.41905246019339160, 0.000000000000000000 ) ) ;
#388 = AXIS2_PLACEMENT_3D ( 'NONE', #199, #21, #335 ) ;
#389 = CONICAL_SURFACE ( 'NONE', #128, 5.000000000001171507, 0.5235987755982390857 ) ;
#390 = FACE_OUTER_BOUND ( 'NONE', #22, .T. ) ;
#391 = EDGE_CURVE ( 'NONE', #33, #777, #969, .T. ) ;
#392 = MECHANICAL_DESIGN_GEOMETRIC_PRESENTATION_REPRESENTATION (  '', ( #832 ), #470 ) ;
#393 = ORIENTED_EDGE ( 'NONE', *, *, #532, .T. ) ;
#394 = DIRECTION ( 'NONE',  ( 4.263235294117223437E-14, -1.000000000000000000, -0.000000000000000000 ) ) ;
#395 = FACE_OUTER_BOUND ( 'NONE', #116, .T. ) ;
#396 = ORIENTED_EDGE ( 'NONE', *, *, #765, .F. ) ;
#397 = CARTESIAN_POINT ( 'NONE',  ( -3.860309477000000090E-07, 1.999999962123957031, 0.000000000000000000 ) ) ;
#398 = EDGE_CURVE ( 'NONE', #76, #325, #354, .T. ) ;
#399 = DIRECTION ( 'NONE',  ( 1.000000000000000000, 0.000000000000000000, -1.224646799147351235E-16 ) ) ;
#400 = AXIS2_PLACEMENT_3D ( 'NONE', #334, #345, #35 ) ;
#401 = FACE_OUTER_BOUND ( 'NONE', #953, .T. ) ;
#402 = ORIENTED_EDGE ( 'NONE', *, *, #119, .F. ) ;
#403 = DIRECTION ( 'NONE',  ( 4.263235294117223437E-14, -1.000000000000000000, -0.000000000000000000 ) ) ;
#404 = COLOUR_RGB ( '',0.7921568627450980005, 0.8196078431372548767, 0.9333333333333333481 ) ;
#405 = DIRECTION ( 'NONE',  ( 4.263235294117223437E-14, -1.000000000000000000, -0.000000000000000000 ) ) ;
#406 = CIRCLE ( 'NONE', #694, 5.250000000000624389 ) ;
#407 = ADVANCED_FACE ( 'NONE', ( #950 ), #635, .T. ) ;
#408 = ADVANCED_FACE ( 'NONE', ( #320 ), #86, .T. ) ;
#409 = DIRECTION ( 'NONE',  ( 1.000000000000000000, 4.229421046190569677E-14, 0.000000000000000000 ) ) ;
#410 = EDGE_LOOP ( 'NONE', ( #115, #620, #46, #575 ) ) ;
#411 = DIRECTION ( 'NONE',  ( -1.000000000000000000, -4.244970388271892704E-14, 0.000000000000000000 ) ) ;
#412 = DIRECTION ( 'NONE',  ( 4.263235294117223437E-14, -1.000000000000000000, -0.000000000000000000 ) ) ;
#413 = ORIENTED_EDGE ( 'NONE', *, *, #627, .F. ) ;
#414 = ORIENTED_EDGE ( 'NONE', *, *, #50, .F. ) ;
#415 = DIRECTION ( 'NONE',  ( -1.000000000000000000, -4.245096388672716119E-14, 0.000000000000000000 ) ) ;
#416 = CARTESIAN_POINT ( 'NONE',  ( 5.999999613967446521, 50.99999996212470421, 0.000000000000000000 ) ) ;
#417 = CONICAL_SURFACE ( 'NONE', #982, 5.250000000000624389, 0.7853981633973989851 ) ;
#418 = VECTOR ( 'NONE', #721, 1000.000000000000114 ) ;
#419 = FACE_OUTER_BOUND ( 'NONE', #928, .T. ) ;
#420 = VERTEX_POINT ( 'NONE', #704 ) ;
#421 = ORIENTED_EDGE ( 'NONE', *, *, #226, .F. ) ;
#422 = DIRECTION ( 'NONE',  ( 1.224646799147353207E-16, 5.220957456952682530E-30, 1.000000000000000000 ) ) ;
#423 =( LENGTH_UNIT ( ) NAMED_UNIT ( * ) SI_UNIT ( .MILLI., .METRE. ) );
#424 = CIRCLE ( 'NONE', #72, 9.840000000001664304 ) ;
#425 = AXIS2_PLACEMENT_3D ( 'NONE', #331, #717, #699 ) ;
#426 = CARTESIAN_POINT ( 'NONE',  ( -4.250000386034143318, 58.99999996212432762, 0.000000000000000000 ) ) ;
#427 = ORIENTED_EDGE ( 'NONE', *, *, #681, .T. ) ;
#428 = ORIENTED_EDGE ( 'NONE', *, *, #554, .T. ) ;
#429 = FACE_OUTER_BOUND ( 'NONE', #804, .T. ) ;
#430 = FACE_OUTER_BOUND ( 'NONE', #861, .T. ) ;
#431 = FACE_OUTER_BOUND ( 'NONE', #759, .T. ) ;
#432 = EDGE_LOOP ( 'NONE', ( #561, #454 ) ) ;
#433 = DIRECTION ( 'NONE',  ( 4.263235294117223437E-14, -1.000000000000000000, -0.000000000000000000 ) ) ;
#434 = EDGE_CURVE ( 'NONE', #192, #754, #164, .T. ) ;
#435 = DIRECTION ( 'NONE',  ( 4.263235294117223437E-14, -1.000000000000000000, -0.000000000000000000 ) ) ;
#436 = DIRECTION ( 'NONE',  ( 4.263235294117223437E-14, -1.000000000000000000, -0.000000000000000000 ) ) ;
#437 = DIRECTION ( 'NONE',  ( 4.263235294117223437E-14, -1.000000000000000000, -0.000000000000000000 ) ) ;
#438 = EDGE_CURVE ( 'NONE', #79, #181, #778, .T. ) ;
#439 = TOROIDAL_SURFACE ( 'NONE', #920, 5.350000000000477485, 0.3999999999999975797 ) ;
#440 = LINE ( 'NONE', #359, #805 ) ;
#441 = DIRECTION ( 'NONE',  ( 4.263235294117223437E-14, -1.000000000000000000, -0.000000000000000000 ) ) ;
#442 = VERTEX_POINT ( 'NONE', #249 ) ;
#443 = VECTOR ( 'NONE', #168, 999.9999999999998863 ) ;
#444 = CARTESIAN_POINT ( 'NONE',  ( -10.00000038603494268, 50.83999996212384787, 1.224646799147587351E-15 ) ) ;
#445 = VERTEX_POINT ( 'NONE', #166 ) ;
#446 = DIRECTION ( 'NONE',  ( 4.263235294117223437E-14, -1.000000000000000000, -0.000000000000000000 ) ) ;
#447 = AXIS2_PLACEMENT_3D ( 'NONE', #451, #229, #216 ) ;
#448 = DIRECTION ( 'NONE',  ( 1.000000000000000000, 4.244970388271892704E-14, 0.000000000000000000 ) ) ;
#449 = ORIENTED_EDGE ( 'NONE', *, *, #356, .T. ) ;
#450 = CIRCLE ( 'NONE', #105, 5.000000000001171507 ) ;
#451 = CARTESIAN_POINT ( 'NONE',  ( -3.860333268324023237E-07, 57.79843593325804818, 0.000000000000000000 ) ) ;
#452 = ADVANCED_FACE ( 'NONE', ( #553 ), #204, .T. ) ;
#453 = AXIS2_PLACEMENT_3D ( 'NONE', #910, #752, #526 ) ;
#454 = ORIENTED_EDGE ( 'NONE', *, *, #970, .T. ) ;
#455 = DIRECTION ( 'NONE',  ( 4.263235294117223437E-14, -1.000000000000000000, -0.000000000000000000 ) ) ;
#456 = AXIS2_PLACEMENT_3D ( 'NONE', #667, #98, #589 ) ;
#457 =( NAMED_UNIT ( * ) SI_UNIT ( $, .STERADIAN. ) SOLID_ANGLE_UNIT ( ) );
#458 = CARTESIAN_POINT ( 'NONE',  ( 4.949999613967457357, 51.08660250250311918, 0.000000000000000000 ) ) ;
#459 = EDGE_CURVE ( 'NONE', #302, #102, #849, .T. ) ;
#460 = CARTESIAN_POINT ( 'NONE',  ( 0.000000000000000000, 0.000000000000000000, 0.000000000000000000 ) ) ;
#461 = ORIENTED_EDGE ( 'NONE', *, *, #809, .T. ) ;
#462 = LINE ( 'NONE', #984, #616 ) ;
#463 = AXIS2_PLACEMENT_3D ( 'NONE', #360, #436, #818 ) ;
#464 = PRODUCT_RELATED_PRODUCT_CATEGORY ( 'part', '', ( #640 ) ) ;
#465 = AXIS2_PLACEMENT_3D ( 'NONE', #512, #567, #574 ) ;
#466 = CARTESIAN_POINT ( 'NONE',  ( -3.860309477000000090E-07, 1.999999962123957031, 0.000000000000000000 ) ) ;
#467 = VERTEX_POINT ( 'NONE', #789 ) ;
#468 = CARTESIAN_POINT ( 'NONE',  ( -3.860309477000000090E-07, 1.999999962123957031, 0.000000000000000000 ) ) ;
#469 = CARTESIAN_POINT ( 'NONE',  ( -5.000000386034932021, 67.99999996212427789, 6.123233995738415988E-16 ) ) ;
#470 =( GEOMETRIC_REPRESENTATION_CONTEXT ( 3 ) GLOBAL_UNCERTAINTY_ASSIGNED_CONTEXT ( ( #954 ) ) GLOBAL_UNIT_ASSIGNED_CONTEXT ( ( #423, #729, #660 ) ) REPRESENTATION_CONTEXT ( 'NONE', 'WORKASPACE' ) );
#471 = ORIENTED_EDGE ( 'NONE', *, *, #896, .F. ) ;
#472 = DIRECTION ( 'NONE',  ( 1.000000000000000000, 4.263235294117224068E-14, 0.000000000000000000 ) ) ;
#473 = MECHANICAL_DESIGN_GEOMETRIC_PRESENTATION_REPRESENTATION (  '', ( #329 ), #996 ) ;
#474 = CARTESIAN_POINT ( 'NONE',  ( 9.839999613968627656, 50.99999996212478948, 0.000000000000000000 ) ) ;
#475 = EDGE_LOOP ( 'NONE', ( #336, #680 ) ) ;
#476 = DIRECTION ( 'NONE',  ( 1.000000000000000000, 4.229421046190723663E-14, 0.000000000000000000 ) ) ;
#477 = CARTESIAN_POINT ( 'NONE',  ( -3.860330298641176539E-07, 50.83999996212427419, 0.000000000000000000 ) ) ;
#478 = ADVANCED_FACE ( 'NONE', ( #338 ), #306, .T. ) ;
#479 = ADVANCED_FACE ( 'NONE', ( #571 ), #317, .T. ) ;
#480 = CARTESIAN_POINT ( 'NONE',  ( 5.249999613969580814, 1.999999962124180852, 0.000000000000000000 ) ) ;
#481 = EDGE_LOOP ( 'NONE', ( #209, #109, #725, #26 ) ) ;
#482 = DIRECTION ( 'NONE',  ( 1.000000000000000000, 4.236377330805917449E-14, 0.000000000000000000 ) ) ;
#483 = CIRCLE ( 'NONE', #373, 4.000000000000748734 ) ;
#484 = CARTESIAN_POINT ( 'NONE',  ( -3.860315587895654246E-07, 16.33393940614458018, 0.000000000000000000 ) ) ;
#485 = CIRCLE ( 'NONE', #975, 5.550000000000490097 ) ;
#486 = VECTOR ( 'NONE', #691, 1000.000000000000000 ) ;
#487 = CARTESIAN_POINT ( 'NONE',  ( -3.860315587895654246E-07, 16.33393940614458018, 0.000000000000000000 ) ) ;
#488 = VERTEX_POINT ( 'NONE', #253 ) ;
#489 = ORIENTED_EDGE ( 'NONE', *, *, #912, .F. ) ;
#490 = CARTESIAN_POINT ( 'NONE',  ( 4.999999613967410106, 67.99999996212469000, 0.000000000000000000 ) ) ;
#491 = FACE_BOUND ( 'NONE', #432, .T. ) ;
#492 = CARTESIAN_POINT ( 'NONE',  ( -3.860317671799487885E-07, 21.22202014745575482, 0.000000000000000000 ) ) ;
#493 = ORIENTED_EDGE ( 'NONE', *, *, #438, .T. ) ;
#494 = EDGE_CURVE ( 'NONE', #653, #192, #562, .T. ) ;
#495 = ORIENTED_EDGE ( 'NONE', *, *, #896, .T. ) ;
#496 = DIRECTION ( 'NONE',  ( 1.000000000000000000, 0.000000000000000000, -1.224646799147352714E-16 ) ) ;
#497 = DIRECTION ( 'NONE',  ( 1.000000000000000000, 4.267419750902693648E-14, 0.000000000000000000 ) ) ;
#498 = AXIS2_PLACEMENT_3D ( 'NONE', #956, #263, #497 ) ;
#499 = VECTOR ( 'NONE', #631, 1000.000000000000000 ) ;
#500 = DIRECTION ( 'NONE',  ( 1.000000000000000000, 4.260914537867251138E-14, 0.000000000000000000 ) ) ;
#501 = ORIENTED_EDGE ( 'NONE', *, *, #565, .T. ) ;
#502 = ORIENTED_EDGE ( 'NONE', *, *, #840, .T. ) ;
#503 = CARTESIAN_POINT ( 'NONE',  ( -3.860338466999999902E-07, 69.99999996212451947, 0.000000000000000000 ) ) ;
#504 = LINE ( 'NONE', #123, #536 ) ;
#505 = CIRCLE ( 'NONE', #222, 8.000000000001918465 ) ;
#506 = DIRECTION ( 'NONE',  ( 4.263235294117223437E-14, -1.000000000000000000, -0.000000000000000000 ) ) ;
#507 = EDGE_CURVE ( 'NONE', #520, #552, #260, .T. ) ;
#508 = ORIENTED_EDGE ( 'NONE', *, *, #44, .T. ) ;
#509 = ORIENTED_EDGE ( 'NONE', *, *, #573, .T. ) ;
#510 = LINE ( 'NONE', #58, #154 ) ;
#511 = LINE ( 'NONE', #815, #368 ) ;
#512 = CARTESIAN_POINT ( 'NONE',  ( -3.860330793176470649E-07, 51.99999996212451947, 0.000000000000000000 ) ) ;
#513 = VERTEX_POINT ( 'NONE', #814 ) ;
#514 = DIRECTION ( 'NONE',  ( 4.263235294117223437E-14, -1.000000000000000000, -0.000000000000000000 ) ) ;
#515 = EDGE_CURVE ( 'NONE', #582, #33, #136, .T. ) ;
#516 = DIRECTION ( 'NONE',  ( 0.000000000000000000, 0.000000000000000000, -1.000000000000000000 ) ) ;
#517 = DIRECTION ( 'NONE',  ( 1.000000000000000000, 4.250853923113962596E-14, 0.000000000000000000 ) ) ;
#518 = ORIENTED_EDGE ( 'NONE', *, *, #1000, .T. ) ;
#519 = DIRECTION ( 'NONE',  ( 4.263235294117223437E-14, -1.000000000000000000, -0.000000000000000000 ) ) ;
#520 = VERTEX_POINT ( 'NONE', #593 ) ;
#521 = AXIS2_PLACEMENT_3D ( 'NONE', #693, #307, #771 ) ;
#522 = CARTESIAN_POINT ( 'NONE',  ( 4.999999613967410994, 59.74999996212468290, 6.123233995737771094E-16 ) ) ;
#523 = EDGE_LOOP ( 'NONE', ( #377, #792 ) ) ;
#524 = DIRECTION ( 'NONE',  ( 1.000000000000000000, 4.263235294117223437E-14, 0.000000000000000000 ) ) ;
#525 = ORIENTED_EDGE ( 'NONE', *, *, #573, .F. ) ;
#526 = DIRECTION ( 'NONE',  ( 1.000000000000000000, 4.205390244791836411E-14, 0.000000000000000000 ) ) ;
#527 = SURFACE_STYLE_FILL_AREA ( #903 ) ;
#528 = AXIS2_PLACEMENT_3D ( 'NONE', #80, #403, #961 ) ;
#529 = CARTESIAN_POINT ( 'NONE',  ( 7.999999613969903223, 16.33393940614491768, 9.797174393180616372E-16 ) ) ;
#530 = AXIS2_PLACEMENT_3D ( 'NONE', #747, #435, #201 ) ;
#531 = AXIS2_PLACEMENT_3D ( 'NONE', #503, #112, #974 ) ;
#532 = EDGE_CURVE ( 'NONE', #960, #198, #580, .T. ) ;
#533 =( NAMED_UNIT ( * ) PLANE_ANGLE_UNIT ( ) SI_UNIT ( $, .RADIAN. ) );
#534 = DIRECTION ( 'NONE',  ( 1.000000000000000000, 4.263082942212470165E-14, 0.000000000000000000 ) ) ;
#535 = EDGE_CURVE ( 'NONE', #302, #198, #274, .T. ) ;
#536 = VECTOR ( 'NONE', #735, 1000.000000000000227 ) ;
#537 = ORIENTED_EDGE ( 'NONE', *, *, #304, .F. ) ;
#538 = CARTESIAN_POINT ( 'NONE',  ( -4.950000386031435440, 1.999999962123745867, 6.062001655779996073E-16 ) ) ;
#539 = ADVANCED_FACE ( 'NONE', ( #740 ), #900, .T. ) ;
#540 = AXIS2_PLACEMENT_3D ( 'NONE', #68, #446, #534 ) ;
#541 = CARTESIAN_POINT ( 'NONE',  ( -3.860330298641176539E-07, 50.83999996212427419, 0.000000000000000000 ) ) ;
#542 = ORIENTED_EDGE ( 'NONE', *, *, #365, .F. ) ;
#543 = DIRECTION ( 'NONE',  ( 4.263235294117223437E-14, -1.000000000000000000, -0.000000000000000000 ) ) ;
#544 = DIRECTION ( 'NONE',  ( 4.263235294117223437E-14, -1.000000000000000000, -0.000000000000000000 ) ) ;
#545 = EDGE_LOOP ( 'NONE', ( #594, #495, #180, #414 ) ) ;
#546 = FACE_OUTER_BOUND ( 'NONE', #915, .T. ) ;
#547 = CIRCLE ( 'NONE', #772, 4.950000000000477129 ) ;
#548 = AXIS2_PLACEMENT_3D ( 'NONE', #106, #968, #200 ) ;
#549 = CARTESIAN_POINT ( 'NONE',  ( -3.860332711632352962E-07, 56.49999996212447684, 0.000000000000000000 ) ) ;
#550 = ADVANCED_FACE ( 'NONE', ( #122 ), #659, .T. ) ;
#551 = AXIS2_PLACEMENT_3D ( 'NONE', #585, #437, #280 ) ;
#552 = VERTEX_POINT ( 'NONE', #42 ) ;
#553 = FACE_OUTER_BOUND ( 'NONE', #7, .T. ) ;
#554 = EDGE_CURVE ( 'NONE', #4, #467, #376, .T. ) ;
#555 = DIRECTION ( 'NONE',  ( 0.000000000000000000, 0.000000000000000000, -1.000000000000000000 ) ) ;
#556 = CARTESIAN_POINT ( 'NONE',  ( -3.860330366852941481E-07, 50.99999996212452658, 0.000000000000000000 ) ) ;
#557 = ORIENTED_EDGE ( 'NONE', *, *, #532, .F. ) ;
#558 = DIRECTION ( 'NONE',  ( 4.263235294117223437E-14, -1.000000000000000000, -0.000000000000000000 ) ) ;
#559 = DIRECTION ( 'NONE',  ( 1.000000000000000000, 4.232725281382600255E-14, 0.000000000000000000 ) ) ;
#560 = CARTESIAN_POINT ( 'NONE',  ( 3.845299075588207938, 69.99999996212469000, 0.000000000000000000 ) ) ;
#561 = ORIENTED_EDGE ( 'NONE', *, *, #636, .T. ) ;
#562 = LINE ( 'NONE', #490, #885 ) ;
#563 = DIRECTION ( 'NONE',  ( 1.000000000000000000, 4.302114220421775406E-14, 0.000000000000000000 ) ) ;
#564 = AXIS2_PLACEMENT_3D ( 'NONE', #10, #623, #791 ) ;
#565 = EDGE_CURVE ( 'NONE', #653, #799, #854, .T. ) ;
#566 = CONICAL_SURFACE ( 'NONE', #790, 5.000000000001171507, 0.5235987755982390857 ) ;
#567 = DIRECTION ( 'NONE',  ( 4.263235294117223437E-14, -1.000000000000000000, -0.000000000000000000 ) ) ;
#568 = ORIENTED_EDGE ( 'NONE', *, *, #129, .F. ) ;
#569 = PRODUCT_DEFINITION_SHAPE ( 'NONE', 'NONE',  #647 ) ;
#570 = ORIENTED_EDGE ( 'NONE', *, *, #459, .T. ) ;
#571 = FACE_OUTER_BOUND ( 'NONE', #800, .T. ) ;
#572 = CARTESIAN_POINT ( 'NONE',  ( -3.860330715226320266E-07, 51.81715724964990955, 0.000000000000000000 ) ) ;
#573 = EDGE_CURVE ( 'NONE', #34, #442, #256, .T. ) ;
#574 = DIRECTION ( 'NONE',  ( 1.000000000000000000, 4.229421046190723663E-14, 0.000000000000000000 ) ) ;
#575 = ORIENTED_EDGE ( 'NONE', *, *, #662, .F. ) ;
#576 = EDGE_LOOP ( 'NONE', ( #319, #272, #763, #952 ) ) ;
#577 = CARTESIAN_POINT ( 'NONE',  ( -3.860337614352941566E-07, 67.99999996212447684, 0.000000000000000000 ) ) ;
#578 = CARTESIAN_POINT ( 'NONE',  ( -5.550000386033516087, 50.74019234098889086, 0.000000000000000000 ) ) ;
#579 = AXIS2_PLACEMENT_3D ( 'NONE', #371, #838, #291 ) ;
#580 = CIRCLE ( 'NONE', #463, 4.000000000000720313 ) ;
#581 = FACE_OUTER_BOUND ( 'NONE', #131, .T. ) ;
#582 = VERTEX_POINT ( 'NONE', #53 ) ;
#583 = ORIENTED_EDGE ( 'NONE', *, *, #662, .T. ) ;
#584 = CARTESIAN_POINT ( 'NONE',  ( -3.860330594643816861E-07, 51.53431453717525557, 0.000000000000000000 ) ) ;
#585 = CARTESIAN_POINT ( 'NONE',  ( -3.860333528532544634E-07, 58.41905246019339160, 0.000000000000000000 ) ) ;
#586 = DIRECTION ( 'NONE',  ( -4.263235294117223437E-14, 1.000000000000000000, 0.000000000000000000 ) ) ;
#587 = ORIENTED_EDGE ( 'NONE', *, *, #943, .T. ) ;
#588 = DIRECTION ( 'NONE',  ( 1.000000000000000000, 4.267419750902094745E-14, 0.000000000000000000 ) ) ;
#589 = DIRECTION ( 'NONE',  ( 1.000000000000000000, 4.266718852528392690E-14, 0.000000000000000000 ) ) ;
#590 = ADVANCED_FACE ( 'NONE', ( #282 ), #810, .T. ) ;
#591 = EDGE_CURVE ( 'NONE', #4, #79, #547, .T. ) ;
#592 = DIRECTION ( 'NONE',  ( 0.7071067811865427988, -0.7071067811865522357, 0.000000000000000000 ) ) ;
#593 = CARTESIAN_POINT ( 'NONE',  ( -8.000000386033022437, 16.33393940614423911, 0.000000000000000000 ) ) ;
#594 = ORIENTED_EDGE ( 'NONE', *, *, #619, .F. ) ;
#595 = CONICAL_SURFACE ( 'NONE', #756, 6.000000000000482281, 1.047197551196474619 ) ;
#596 = CARTESIAN_POINT ( 'NONE',  ( 3.999999613967393230, 57.79843593325824713, 0.000000000000000000 ) ) ;
#597 = AXIS2_PLACEMENT_3D ( 'NONE', #801, #19, #104 ) ;
#598 = ORIENTED_EDGE ( 'NONE', *, *, #494, .F. ) ;
#599 = CARTESIAN_POINT ( 'NONE',  ( -3.860330403773641755E-07, 51.08660250250290602, 0.000000000000000000 ) ) ;
#600 = ORIENTED_EDGE ( 'NONE', *, *, #766, .F. ) ;
#601 = CIRCLE ( 'NONE', #126, 5.067157287525799525 ) ;
#602 = LINE ( 'NONE', #444, #762 ) ;
#603 = VERTEX_POINT ( 'NONE', #890 ) ;
#604 = FACE_OUTER_BOUND ( 'NONE', #870, .T. ) ;
#605 = PRESENTATION_LAYER_ASSIGNMENT (  '', '', ( #832 ) ) ;
#606 = CARTESIAN_POINT ( 'NONE',  ( -5.000000386031944188, 1.999999962123743646, 6.123233995737987045E-16 ) ) ;
#607 = ORIENTED_EDGE ( 'NONE', *, *, #205, .F. ) ;
#608 = DIRECTION ( 'NONE',  ( 4.263235294117223437E-14, -1.000000000000000000, -0.000000000000000000 ) ) ;
#609 = ORIENTED_EDGE ( 'NONE', *, *, #225, .F. ) ;
#610 = ADVANCED_FACE ( 'NONE', ( #429 ), #439, .F. ) ;
#611 = DIRECTION ( 'NONE',  ( 4.263235294117223437E-14, -1.000000000000000000, -0.000000000000000000 ) ) ;
#612 = CIRCLE ( 'NONE', #238, 0.3999999999999975797 ) ;
#613 = AXIS2_PLACEMENT_3D ( 'NONE', #776, #84, #121 ) ;
#614 = EDGE_LOOP ( 'NONE', ( #652, #989, #708, #992 ) ) ;
#615 = DIRECTION ( 'NONE',  ( 1.000000000000000000, 4.205390244791836411E-14, 0.000000000000000000 ) ) ;
#616 = VECTOR ( 'NONE', #611, 1000.000000000000000 ) ;
#617 = VERTEX_POINT ( 'NONE', #749 ) ;
#618 = APPLICATION_PROTOCOL_DEFINITION ( 'draft international standard', 'automotive_design', 1998, #760 ) ;
#619 = EDGE_CURVE ( 'NONE', #33, #198, #510, .T. ) ;
#620 = ORIENTED_EDGE ( 'NONE', *, *, #766, .T. ) ;
#621 = CYLINDRICAL_SURFACE ( 'NONE', #802, 4.000000000000733635 ) ;
#622 = CIRCLE ( 'NONE', #498, 10.00000000000058975 ) ;
#623 = DIRECTION ( 'NONE',  ( 4.263235294117223437E-14, -1.000000000000000000, -0.000000000000000000 ) ) ;
#624 = ORIENTED_EDGE ( 'NONE', *, *, #692, .F. ) ;
#625 = CARTESIAN_POINT ( 'NONE',  ( 5.349999613967455936, 51.08660250250313339, 0.000000000000000000 ) ) ;
#626 = AXIS2_PLACEMENT_3D ( 'NONE', #940, #646, #415 ) ;
#627 = EDGE_CURVE ( 'NONE', #513, #972, #746, .T. ) ;
#628 = CIRCLE ( 'NONE', #190, 4.250000000000765610 ) ;
#629 = DIRECTION ( 'NONE',  ( -4.263235294117223437E-14, 1.000000000000000000, 0.000000000000000000 ) ) ;
#630 = ORIENTED_EDGE ( 'NONE', *, *, #303, .F. ) ;
#631 = DIRECTION ( 'NONE',  ( 4.263235294117223437E-14, -1.000000000000000000, -0.000000000000000000 ) ) ;
#632 = DIRECTION ( 'NONE',  ( 1.000000000000000000, 4.205390244791854081E-14, 0.000000000000000000 ) ) ;
#633 = CARTESIAN_POINT ( 'NONE',  ( 7.999999613969903223, 16.33393940614491768, 1.102182119232743537E-15 ) ) ;
#634 = ORIENTED_EDGE ( 'NONE', *, *, #554, .F. ) ;
#635 = CYLINDRICAL_SURFACE ( 'NONE', #916, 4.950000000000487788 ) ;
#636 = EDGE_CURVE ( 'NONE', #111, #959, #308, .T. ) ;
#637 = DIRECTION ( 'NONE',  ( 4.263235294117223437E-14, -1.000000000000000000, -0.000000000000000000 ) ) ;
#638 = ORIENTED_EDGE ( 'NONE', *, *, #591, .T. ) ;
#639 = LINE ( 'NONE', #654, #758 ) ;
#640 = PRODUCT ( '99688-SI16-M10+S9MT1603-142', '99688-SI16-M10+S9MT1603-142', '', ( #829 ) ) ;
#641 = EDGE_CURVE ( 'NONE', #337, #445, #937, .T. ) ;
#642 = DIRECTION ( 'NONE',  ( 4.263235294117223437E-14, -1.000000000000000000, -0.000000000000000000 ) ) ;
#643 = EDGE_LOOP ( 'NONE', ( #292, #266, #700, #887 ) ) ;
#644 = CONICAL_SURFACE ( 'NONE', #902, 6.000000000000482281, 1.047197551196474619 ) ;
#645 = ORIENTED_EDGE ( 'NONE', *, *, #765, .T. ) ;
#646 = DIRECTION ( 'NONE',  ( -4.263235294117223437E-14, 1.000000000000000000, 0.000000000000000000 ) ) ;
#647 = PRODUCT_DEFINITION ( 'UNKNOWN', '', #690, #882 ) ;
#648 = DIRECTION ( 'NONE',  ( 0.7071067811865626718, 0.7071067811865323627, 8.659560562355488759E-17 ) ) ;
#649 = AXIS2_PLACEMENT_3D ( 'NONE', #279, #807, #517 ) ;
#650 = AXIS2_PLACEMENT_3D ( 'NONE', #941, #543, #472 ) ;
#651 = CARTESIAN_POINT ( 'NONE',  ( 7.999999613970853574, 4.754620868442579251, 9.797174393181174491E-16 ) ) ;
#652 = ORIENTED_EDGE ( 'NONE', *, *, #195, .F. ) ;
#653 = VERTEX_POINT ( 'NONE', #560 ) ;
#654 = CARTESIAN_POINT ( 'NONE',  ( 4.999999613970048884, 1.999999962124170416, 0.000000000000000000 ) ) ;
#655 = DIRECTION ( 'NONE',  ( 1.000000000000000000, 4.336808689941237079E-14, 0.000000000000000000 ) ) ;
#656 = CARTESIAN_POINT ( 'NONE',  ( -3.860333529769587019E-07, 58.41905246019337739, 0.000000000000000000 ) ) ;
#657 = ORIENTED_EDGE ( 'NONE', *, *, #664, .T. ) ;
#658 = ORIENTED_EDGE ( 'NONE', *, *, #999, .T. ) ;
#659 = CYLINDRICAL_SURFACE ( 'NONE', #208, 5.000000000000996536 ) ;
#660 =( NAMED_UNIT ( * ) SI_UNIT ( $, .STERADIAN. ) SOLID_ANGLE_UNIT ( ) );
#661 = AXIS2_PLACEMENT_3D ( 'NONE', #484, #311, #316 ) ;
#662 = EDGE_CURVE ( 'NONE', #603, #875, #842, .T. ) ;
#663 = DIRECTION ( 'NONE',  ( -4.263235294117223437E-14, 1.000000000000000000, 0.000000000000000000 ) ) ;
#664 = EDGE_CURVE ( 'NONE', #445, #325, #313, .T. ) ;
#665 = ORIENTED_EDGE ( 'NONE', *, *, #398, .F. ) ;
#666 = CARTESIAN_POINT ( 'NONE',  ( -5.350000386033537225, 51.53431453717512056, 6.551860375438924439E-16 ) ) ;
#667 = CARTESIAN_POINT ( 'NONE',  ( -3.860309477000000090E-07, 1.999999962123957031, 0.000000000000000000 ) ) ;
#668 = CIRCLE ( 'NONE', #465, 5.250000000000433431 ) ;
#669 = AXIS2_PLACEMENT_3D ( 'NONE', #823, #967, #672 ) ;
#670 = DIRECTION ( 'NONE',  ( 4.263235294117223437E-14, -1.000000000000000000, -0.000000000000000000 ) ) ;
#671 = AXIS2_PLACEMENT_3D ( 'NONE', #705, #328, #929 ) ;
#672 = DIRECTION ( 'NONE',  ( 1.000000000000000000, 4.229421046190569677E-14, 0.000000000000000000 ) ) ;
#673 = CARTESIAN_POINT ( 'NONE',  ( -3.860330366852941481E-07, 50.99999996212452658, 0.000000000000000000 ) ) ;
#674 = CARTESIAN_POINT ( 'NONE',  ( -4.800000386034049882, 57.79843593325784923, 5.878304635908180694E-16 ) ) ;
#675 = ORIENTED_EDGE ( 'NONE', *, *, #95, .F. ) ;
#676 = ADVANCED_FACE ( 'NONE', ( #395 ), #110, .F. ) ;
#677 = DIRECTION ( 'NONE',  ( -0.7071067811868469999, -0.7071067811862481456, 8.659560562358969607E-17 ) ) ;
#678 = AXIS2_PLACEMENT_3D ( 'NONE', #779, #81, #399 ) ;
#679 = FILL_AREA_STYLE ('',( #381 ) ) ;
#680 = ORIENTED_EDGE ( 'NONE', *, *, #167, .F. ) ;
#681 = EDGE_CURVE ( 'NONE', #420, #875, #241, .T. ) ;
#682 = DIRECTION ( 'NONE',  ( -0.9455185755993197327, 0.3255681544571479291, 0.000000000000000000 ) ) ;
#683 = AXIS2_PLACEMENT_3D ( 'NONE', #971, #738, #257 ) ;
#684 = AXIS2_PLACEMENT_3D ( 'NONE', #251, #951, #155 ) ;
#685 = DIRECTION ( 'NONE',  ( 4.263235294117223437E-14, -1.000000000000000000, -0.000000000000000000 ) ) ;
#686 = EDGE_LOOP ( 'NONE', ( #525, #449, #658, #965 ) ) ;
#687 = DIRECTION ( 'NONE',  ( 4.263235294117223437E-14, -1.000000000000000000, -0.000000000000000000 ) ) ;
#688 = EDGE_CURVE ( 'NONE', #813, #145, #89, .T. ) ;
#689 = AXIS2_PLACEMENT_3D ( 'NONE', #891, #878, #655 ) ;
#690 = PRODUCT_DEFINITION_FORMATION_WITH_SPECIFIED_SOURCE ( 'ANY', '', #640, .NOT_KNOWN. ) ;
#691 = DIRECTION ( 'NONE',  ( 4.263235294117223437E-14, -1.000000000000000000, -0.000000000000000000 ) ) ;
#692 = EDGE_CURVE ( 'NONE', #442, #959, #712, .T. ) ;
#693 = CARTESIAN_POINT ( 'NONE',  ( -3.860330715226320266E-07, 51.81715724964990955, 0.000000000000000000 ) ) ;
#694 = AXIS2_PLACEMENT_3D ( 'NONE', #549, #544, #24 ) ;
#695 = ORIENTED_EDGE ( 'NONE', *, *, #217, .F. ) ;
#696 = LINE ( 'NONE', #233, #443 ) ;
#697 = CIRCLE ( 'NONE', #363, 4.950000000000477129 ) ;
#698 = VECTOR ( 'NONE', #339, 1000.000000000000000 ) ;
#699 = DIRECTION ( 'NONE',  ( 1.000000000000000000, 4.302114220421775406E-14, 0.000000000000000000 ) ) ;
#700 = ORIENTED_EDGE ( 'NONE', *, *, #120, .F. ) ;
#701 = DIRECTION ( 'NONE',  ( 4.263235294117223437E-14, -1.000000000000000000, -0.000000000000000000 ) ) ;
#702 = CARTESIAN_POINT ( 'NONE',  ( -3.860309477000000090E-07, 1.999999962123957031, 0.000000000000000000 ) ) ;
#703 = ORIENTED_EDGE ( 'NONE', *, *, #999, .F. ) ;
#704 = CARTESIAN_POINT ( 'NONE',  ( -3.860309477000000090E-07, 1.999999962123957031, 0.000000000000000000 ) ) ;
#705 = CARTESIAN_POINT ( 'NONE',  ( -3.860338466999999902E-07, 69.99999996212460474, 0.000000000000000000 ) ) ;
#706 = AXIS2_PLACEMENT_3D ( 'NONE', #674, #350, #366 ) ;
#707 = DIRECTION ( 'NONE',  ( 0.9455185755992920882, 0.3255681544572285868, 1.157926297142055044E-16 ) ) ;
#708 = ORIENTED_EDGE ( 'NONE', *, *, #205, .T. ) ;
#709 = DIRECTION ( 'NONE',  ( 4.263235294117223437E-14, -1.000000000000000000, -0.000000000000000000 ) ) ;
#710 = CARTESIAN_POINT ( 'NONE',  ( -3.860330594643816861E-07, 51.53431453717525557, 0.000000000000000000 ) ) ;
#711 = ADVANCED_FACE ( 'NONE', ( #390 ), #295, .T. ) ;
#712 = LINE ( 'NONE', #942, #74 ) ;
#713 = ADVANCED_FACE ( 'NONE', ( #401 ), #247, .T. ) ;
#714 = ORIENTED_EDGE ( 'NONE', *, *, #692, .T. ) ;
#715 = CARTESIAN_POINT ( 'NONE',  ( -4.800000386034126265, 58.41905246019318554, 5.878304635908241830E-16 ) ) ;
#716 = EDGE_CURVE ( 'NONE', #751, #881, #991, .T. ) ;
#717 = DIRECTION ( 'NONE',  ( 4.263235294117223437E-14, -1.000000000000000000, -0.000000000000000000 ) ) ;
#718 = VECTOR ( 'NONE', #297, 1000.000000000000000 ) ;
#719 = VERTEX_POINT ( 'NONE', #633 ) ;
#720 = ORIENTED_EDGE ( 'NONE', *, *, #868, .T. ) ;
#721 = DIRECTION ( 'NONE',  ( -0.3786864688383640432, 0.9255250176622621394, 0.000000000000000000 ) ) ;
#722 = CARTESIAN_POINT ( 'NONE',  ( -5.000000386034932909, 67.99999996212427789, 6.123233995738201023E-16 ) ) ;
#723 = AXIS2_PLACEMENT_3D ( 'NONE', #27, #92, #411 ) ;
#724 = CARTESIAN_POINT ( 'NONE',  ( -3.860309477000000090E-07, 1.999999962123957031, 0.000000000000000000 ) ) ;
#725 = ORIENTED_EDGE ( 'NONE', *, *, #50, .T. ) ;
#726 = AXIS2_PLACEMENT_3D ( 'NONE', #277, #516, #822 ) ;
#727 = ORIENTED_EDGE ( 'NONE', *, *, #641, .F. ) ;
#728 = DIRECTION ( 'NONE',  ( 1.000000000000000000, 4.163336342343361363E-14, 0.000000000000000000 ) ) ;
#729 =( NAMED_UNIT ( * ) PLANE_ANGLE_UNIT ( ) SI_UNIT ( $, .RADIAN. ) );
#730 = VECTOR ( 'NONE', #707, 999.9999999999998863 ) ;
#731 = DIRECTION ( 'NONE',  ( 0.000000000000000000, 0.000000000000000000, -1.000000000000000000 ) ) ;
#732 = ORIENTED_EDGE ( 'NONE', *, *, #30, .T. ) ;
#733 = ORIENTED_EDGE ( 'NONE', *, *, #434, .T. ) ;
#734 = DIRECTION ( 'NONE',  ( -1.000000000000000000, -4.258604149373387055E-14, 0.000000000000000000 ) ) ;
#735 = DIRECTION ( 'NONE',  ( -0.8660254037843984065, 0.5000000000000696110, 0.000000000000000000 ) ) ;
#736 = ADVANCED_FACE ( 'NONE', ( #318 ), #240, .T. ) ;
#737 = EDGE_CURVE ( 'NONE', #467, #617, #601, .T. ) ;
#738 = DIRECTION ( 'NONE',  ( 4.263235294117223437E-14, -1.000000000000000000, -0.000000000000000000 ) ) ;
#739 = ORIENTED_EDGE ( 'NONE', *, *, #119, .T. ) ;
#740 = FACE_OUTER_BOUND ( 'NONE', #995, .T. ) ;
#741 = LINE ( 'NONE', #819, #698 ) ;
#742 = CARTESIAN_POINT ( 'NONE',  ( -5.000000386034229471, 59.74999996212425657, 0.000000000000000000 ) ) ;
#743 = DIRECTION ( 'NONE',  ( 1.224646799147353207E-16, 5.220957456952682530E-30, 1.000000000000000000 ) ) ;
#744 = DIRECTION ( 'NONE',  ( -4.263235294117223437E-14, 1.000000000000000000, 0.000000000000000000 ) ) ;
#745 = AXIS2_PLACEMENT_3D ( 'NONE', #65, #294, #213 ) ;
#746 = CIRCLE ( 'NONE', #388, 10.00000000000191136 ) ;
#747 = CARTESIAN_POINT ( 'NONE',  ( -3.860330406030287875E-07, 51.08660250250289891, 0.000000000000000000 ) ) ;
#748 = VECTOR ( 'NONE', #764, 1000.000000000000000 ) ;
#749 = CARTESIAN_POINT ( 'NONE',  ( 5.067156901492727350, 51.81715724965012271, 0.000000000000000000 ) ) ;
#750 = EDGE_CURVE ( 'NONE', #445, #337, #406, .T. ) ;
#751 = VERTEX_POINT ( 'NONE', #474 ) ;
#752 = DIRECTION ( 'NONE',  ( 4.263235294117223437E-14, -1.000000000000000000, -0.000000000000000000 ) ) ;
#753 = ADVANCED_FACE ( 'NONE', ( #848 ), #150, .T. ) ;
#754 = VERTEX_POINT ( 'NONE', #469 ) ;
#755 = DIRECTION ( 'NONE',  ( 0.7071067811865642261, 0.7071067811865308084, 8.659560562355506015E-17 ) ) ;
#756 = AXIS2_PLACEMENT_3D ( 'NONE', #962, #189, #43 ) ;
#757 = DIRECTION ( 'NONE',  ( 1.000000000000000000, 4.244970388271892704E-14, 0.000000000000000000 ) ) ;
#758 = VECTOR ( 'NONE', #709, 1000.000000000000000 ) ;
#759 = EDGE_LOOP ( 'NONE', ( #271, #289, #583 ) ) ;
#760 = APPLICATION_CONTEXT ( 'automotive_design' ) ;
#761 = CARTESIAN_POINT ( 'NONE',  ( -10.00000038603219998, 1.999999962123530706, 1.224646799147506493E-15 ) ) ;
#762 = VECTOR ( 'NONE', #677, 999.9999999999998863 ) ;
#763 = ORIENTED_EDGE ( 'NONE', *, *, #70, .T. ) ;
#764 = DIRECTION ( 'NONE',  ( 0.3786864688382851618, 0.9255250176622944469, 4.637571719432681658E-17 ) ) ;
#765 = EDGE_CURVE ( 'NONE', #442, #34, #485, .T. ) ;
#766 = EDGE_CURVE ( 'NONE', #520, #719, #54, .T. ) ;
#767 = DIRECTION ( 'NONE',  ( 1.000000000000000000, 0.000000000000000000, 0.000000000000000000 ) ) ;
#768 = CARTESIAN_POINT ( 'NONE',  ( 5.067156901492727350, 51.81715724965012271, 6.205477952944655042E-16 ) ) ;
#769 = AXIS2_PLACEMENT_3D ( 'NONE', #981, #514, #898 ) ;
#770 = ORIENTED_EDGE ( 'NONE', *, *, #386, .F. ) ;
#771 = DIRECTION ( 'NONE',  ( 1.000000000000000000, 4.245096388672716119E-14, 0.000000000000000000 ) ) ;
#772 = AXIS2_PLACEMENT_3D ( 'NONE', #584, #895, #288 ) ;
#773 = DIRECTION ( 'NONE',  ( 4.263235294117223437E-14, -1.000000000000000000, -0.000000000000000000 ) ) ;
#774 = ORIENTED_EDGE ( 'NONE', *, *, #847, .T. ) ;
#775 = DIRECTION ( 'NONE',  ( 1.000000000000000000, 4.260914537867251138E-14, 0.000000000000000000 ) ) ;
#776 = CARTESIAN_POINT ( 'NONE',  ( -3.860315587895654246E-07, 16.33393940614458018, 0.000000000000000000 ) ) ;
#777 = VERTEX_POINT ( 'NONE', #977 ) ;
#778 = LINE ( 'NONE', #175, #499 ) ;
#779 = CARTESIAN_POINT ( 'NONE',  ( -5.350000386033537225, 51.08660250250267154, 6.551860375438948104E-16 ) ) ;
#780 = DIRECTION ( 'NONE',  ( 1.000000000000000000, 4.250853923113962596E-14, 0.000000000000000000 ) ) ;
#781 = ORIENTED_EDGE ( 'NONE', *, *, #970, .F. ) ;
#782 = CARTESIAN_POINT ( 'NONE',  ( -3.860330793176470649E-07, 51.99999996212451947, 0.000000000000000000 ) ) ;
#783 = ADVANCED_FACE ( 'NONE', ( #101 ), #644, .F. ) ;
#784 = CARTESIAN_POINT ( 'NONE',  ( 5.249999613967354151, 51.99999996212473974, 6.429395695524135648E-16 ) ) ;
#785 = CONICAL_SURFACE ( 'NONE', #661, 8.000000000001461942, 0.3883766555390973374 ) ;
#786 = VECTOR ( 'NONE', #124, 1000.000000000000000 ) ;
#787 = VECTOR ( 'NONE', #78, 1000.000000000000000 ) ;
#788 = ORIENTED_EDGE ( 'NONE', *, *, #225, .T. ) ;
#789 = CARTESIAN_POINT ( 'NONE',  ( -5.067157673558870812, 51.81715724964968928, 6.205477952944656028E-16 ) ) ;
#790 = AXIS2_PLACEMENT_3D ( 'NONE', #250, #161, #87 ) ;
#791 = DIRECTION ( 'NONE',  ( 1.000000000000000000, 4.267419750902094745E-14, 0.000000000000000000 ) ) ;
#792 = ORIENTED_EDGE ( 'NONE', *, *, #868, .F. ) ;
#793 = ORIENTED_EDGE ( 'NONE', *, *, #211, .T. ) ;
#794 = DIRECTION ( 'NONE',  ( 0.4999999999999851230, -0.8660254037844472563, 0.000000000000000000 ) ) ;
#795 = PLANE ( 'NONE',  #931 ) ;
#796 = ADVANCED_FACE ( 'NONE', ( #803 ), #197, .T. ) ;
#797 = DIRECTION ( 'NONE',  ( 4.263235294117223437E-14, -1.000000000000000000, -0.000000000000000000 ) ) ;
#798 = AXIS2_PLACEMENT_3D ( 'NONE', #48, #255, #563 ) ;
#799 = VERTEX_POINT ( 'NONE', #811 ) ;
#800 = EDGE_LOOP ( 'NONE', ( #193, #587, #413, #770 ) ) ;
#801 = CARTESIAN_POINT ( 'NONE',  ( -3.860309477000000090E-07, 1.999999962123957031, 0.000000000000000000 ) ) ;
#802 = AXIS2_PLACEMENT_3D ( 'NONE', #468, #394, #775 ) ;
#803 = FACE_OUTER_BOUND ( 'NONE', #410, .T. ) ;
#804 = EDGE_LOOP ( 'NONE', ( #856, #428, #186, #489 ) ) ;
#805 = VECTOR ( 'NONE', #670, 1000.000000000000000 ) ;
#806 = ORIENTED_EDGE ( 'NONE', *, *, #535, .F. ) ;
#807 = DIRECTION ( 'NONE',  ( 4.263235294117223437E-14, -1.000000000000000000, -0.000000000000000000 ) ) ;
#808 = FACE_OUTER_BOUND ( 'NONE', #925, .T. ) ;
#809 = EDGE_CURVE ( 'NONE', #777, #813, #185, .T. ) ;
#810 = CONICAL_SURFACE ( 'NONE', #669, 5.250000000000624389, 0.7853981633973989851 ) ;
#811 = CARTESIAN_POINT ( 'NONE',  ( -3.845299847655901715, 69.99999996212436315, 5.416183836588347061E-16 ) ) ;
#812 = ORIENTED_EDGE ( 'NONE', *, *, #636, .F. ) ;
#813 = VERTEX_POINT ( 'NONE', #742 ) ;
#814 = CARTESIAN_POINT ( 'NONE',  ( 9.999999613968881818, 50.83999996212469341, 0.000000000000000000 ) ) ;
#815 = CARTESIAN_POINT ( 'NONE',  ( 4.249999613967387013, 58.99999996212469000, 5.204748896377188457E-16 ) ) ;
#816 = CYLINDRICAL_SURFACE ( 'NONE', #841, 4.000000000000733635 ) ;
#817 = ORIENTED_EDGE ( 'NONE', *, *, #15, .T. ) ;
#818 = DIRECTION ( 'NONE',  ( 1.000000000000000000, 4.336808689941237079E-14, 0.000000000000000000 ) ) ;
#819 = CARTESIAN_POINT ( 'NONE',  ( -5.250000386033896405, 56.49999996212425657, 6.429395695524369348E-16 ) ) ;
#820 = EDGE_CURVE ( 'NONE', #520, #603, #440, .T. ) ;
#821 = EDGE_CURVE ( 'NONE', #102, #445, #281, .T. ) ;
#822 = DIRECTION ( 'NONE',  ( -1.000000000000000000, 0.000000000000000000, 0.000000000000000000 ) ) ;
#823 = CARTESIAN_POINT ( 'NONE',  ( -3.860332711632352962E-07, 56.49999996212447684, 0.000000000000000000 ) ) ;
#824 = ORIENTED_EDGE ( 'NONE', *, *, #930, .F. ) ;
#825 = AXIS2_PLACEMENT_3D ( 'NONE', #487, #629, #93 ) ;
#826 = EDGE_CURVE ( 'NONE', #325, #76, #668, .T. ) ;
#827 =( LENGTH_UNIT ( ) NAMED_UNIT ( * ) SI_UNIT ( .MILLI., .METRE. ) );
#828 = CONICAL_SURFACE ( 'NONE', #176, 4.250000000000765610, 0.7853981633975124499 ) ;
#829 = PRODUCT_CONTEXT ( 'NONE', #760, 'mechanical' ) ;
#830 = EDGE_LOOP ( 'NONE', ( #174, #173, #939, #983 ) ) ;
#831 = DIRECTION ( 'NONE',  ( 1.000000000000000000, 4.229421046190569677E-14, 0.000000000000000000 ) ) ;
#832 = STYLED_ITEM ( 'NONE', ( #140 ), #1 ) ;
#833 = CARTESIAN_POINT ( 'NONE',  ( -3.860330406030287875E-07, 51.08660250250289891, 0.000000000000000000 ) ) ;
#834 = ORIENTED_EDGE ( 'NONE', *, *, #1000, .F. ) ;
#835 = CARTESIAN_POINT ( 'NONE',  ( -4.000000386034046507, 57.79843593325789897, 5.357829746270523576E-16 ) ) ;
#836 = CARTESIAN_POINT ( 'NONE',  ( -10.00000038603494268, 50.83999996212384787, 1.224646799147664857E-15 ) ) ;
#837 = EDGE_LOOP ( 'NONE', ( #103, #824, #461, #367 ) ) ;
#838 = DIRECTION ( 'NONE',  ( 4.263235294117223437E-14, -1.000000000000000000, -0.000000000000000000 ) ) ;
#839 = ADVANCED_FACE ( 'NONE', ( #57 ), #152, .F. ) ;
#840 = EDGE_CURVE ( 'NONE', #582, #488, #275, .T. ) ;
#841 = AXIS2_PLACEMENT_3D ( 'NONE', #724, #879, #500 ) ;
#842 = CIRCLE ( 'NONE', #341, 8.000000000001918465 ) ;
#843 = CARTESIAN_POINT ( 'NONE',  ( -6.000000386033520705, 50.99999996212427078, 0.000000000000000000 ) ) ;
#844 = ORIENTED_EDGE ( 'NONE', *, *, #926, .T. ) ;
#845 = CARTESIAN_POINT ( 'NONE',  ( 7.999999613970741663, 1.999999962124297870, 0.000000000000000000 ) ) ;
#846 = TOROIDAL_SURFACE ( 'NONE', #447, 4.800000000000722800, 0.8000000000000024869 ) ;
#847 = EDGE_CURVE ( 'NONE', #875, #603, #505, .T. ) ;
#848 = FACE_OUTER_BOUND ( 'NONE', #830, .T. ) ;
#849 = CIRCLE ( 'NONE', #64, 4.750000000000674127 ) ;
#850 = EDGE_LOOP ( 'NONE', ( #508, #127, #993, #695 ) ) ;
#851 = CARTESIAN_POINT ( 'NONE',  ( -3.860333777441176410E-07, 58.99999996212451236, 0.000000000000000000 ) ) ;
#852 = CIRCLE ( 'NONE', #453, 4.950000000000498446 ) ;
#853 = EDGE_CURVE ( 'NONE', #552, #156, #357, .T. ) ;
#854 = CIRCLE ( 'NONE', #531, 3.845299461622054604 ) ;
#855 = CARTESIAN_POINT ( 'NONE',  ( -3.860330596849870233E-07, 51.53431453717534794, 0.000000000000000000 ) ) ;
#856 = ORIENTED_EDGE ( 'NONE', *, *, #591, .F. ) ;
#857 = FACE_OUTER_BOUND ( 'NONE', #545, .T. ) ;
#858 = ADVANCED_FACE ( 'NONE', ( #419 ), #816, .T. ) ;
#859 = DIRECTION ( 'NONE',  ( 1.000000000000000000, 4.262463398114011329E-14, 0.000000000000000000 ) ) ;
#860 = ADVANCED_BREP_SHAPE_REPRESENTATION ( '99688-SI16-M10+S9MT1603-142', ( #1, #284 ), #139 ) ;
#861 = EDGE_LOOP ( 'NONE', ( #402, #913, #237, #934 ) ) ;
#862 = CARTESIAN_POINT ( 'NONE',  ( -3.860332924794117546E-07, 56.99999996212447684, 0.000000000000000000 ) ) ;
#863 = CARTESIAN_POINT ( 'NONE',  ( -3.860337614352941566E-07, 67.99999996212447684, 0.000000000000000000 ) ) ;
#864 = DIRECTION ( 'NONE',  ( 4.263235294117223437E-14, -1.000000000000000000, -0.000000000000000000 ) ) ;
#865 = EDGE_LOOP ( 'NONE', ( #509, #714, #812, #979 ) ) ;
#866 = DIRECTION ( 'NONE',  ( 1.000000000000000000, 4.266718852528392690E-14, 0.000000000000000000 ) ) ;
#867 = FACE_OUTER_BOUND ( 'NONE', #252, .T. ) ;
#868 = EDGE_CURVE ( 'NONE', #881, #751, #424, .T. ) ;
#869 = DIRECTION ( 'NONE',  ( 4.263235294117223437E-14, -1.000000000000000000, -0.000000000000000000 ) ) ;
#870 = EDGE_LOOP ( 'NONE', ( #922, #570, #343, #727 ) ) ;
#871 = ORIENTED_EDGE ( 'NONE', *, *, #688, .F. ) ;
#872 = FACE_OUTER_BOUND ( 'NONE', #71, .T. ) ;
#873 = CARTESIAN_POINT ( 'NONE',  ( -5.250000386033511823, 51.99999996212429210, 0.000000000000000000 ) ) ;
#874 = DIRECTION ( 'NONE',  ( 4.263235294117223437E-14, -1.000000000000000000, -0.000000000000000000 ) ) ;
#875 = VERTEX_POINT ( 'NONE', #651 ) ;
#876 = ORIENTED_EDGE ( 'NONE', *, *, #52, .F. ) ;
#877 = DIRECTION ( 'NONE',  ( 4.263235294117223437E-14, -1.000000000000000000, -0.000000000000000000 ) ) ;
#878 = DIRECTION ( 'NONE',  ( 4.263235294117223437E-14, -1.000000000000000000, -0.000000000000000000 ) ) ;
#879 = DIRECTION ( 'NONE',  ( 4.263235294117223437E-14, -1.000000000000000000, -0.000000000000000000 ) ) ;
#880 = ORIENTED_EDGE ( 'NONE', *, *, #356, .F. ) ;
#881 = VERTEX_POINT ( 'NONE', #958 ) ;
#882 = PRODUCT_DEFINITION_CONTEXT ( 'detailed design', #184, 'design' ) ;
#883 = DIRECTION ( 'NONE',  ( 4.263235294117223437E-14, -1.000000000000000000, -0.000000000000000000 ) ) ;
#884 = FACE_OUTER_BOUND ( 'NONE', #865, .T. ) ;
#885 = VECTOR ( 'NONE', #794, 1000.000000000000000 ) ;
#886 = CYLINDRICAL_SURFACE ( 'NONE', #988, 10.00000000000125056 ) ;
#887 = ORIENTED_EDGE ( 'NONE', *, *, #438, .F. ) ;
#888 = AXIS2_PLACEMENT_3D ( 'NONE', #45, #586, #892 ) ;
#889 = EDGE_LOOP ( 'NONE', ( #624, #645, #732, #781 ) ) ;
#890 = CARTESIAN_POINT ( 'NONE',  ( -8.000000386032981581, 4.754620868441897130, 0.000000000000000000 ) ) ;
#891 = CARTESIAN_POINT ( 'NONE',  ( -3.860333265186158979E-07, 57.79843593325806950, 0.000000000000000000 ) ) ;
#892 = DIRECTION ( 'NONE',  ( -1.000000000000000000, -4.258604149373387055E-14, 0.000000000000000000 ) ) ;
#893 = EDGE_CURVE ( 'NONE', #102, #960, #919, .T. ) ;
#894 = ORIENTED_EDGE ( 'NONE', *, *, #167, .T. ) ;
#895 = DIRECTION ( 'NONE',  ( 4.263235294117223437E-14, -1.000000000000000000, -0.000000000000000000 ) ) ;
#896 = EDGE_CURVE ( 'NONE', #33, #582, #483, .T. ) ;
#897 = AXIS2_PLACEMENT_3D ( 'NONE', #572, #744, #55 ) ;
#898 = DIRECTION ( 'NONE',  ( 1.000000000000000000, 4.336808689941206156E-14, 0.000000000000000000 ) ) ;
#899 = ADVANCED_FACE ( 'NONE', ( #581 ), #886, .T. ) ;
#900 = CONICAL_SURFACE ( 'NONE', #28, 2904.210877675507618, 1.239183768915940620 ) ;
#901 = DIRECTION ( 'NONE',  ( 4.263235294117223437E-14, -1.000000000000000000, -0.000000000000000000 ) ) ;
#902 = AXIS2_PLACEMENT_3D ( 'NONE', #673, #663, #51 ) ;
#903 = FILL_AREA_STYLE ('',( #59 ) ) ;
#904 = CARTESIAN_POINT ( 'NONE',  ( 9.999999613968823198, 21.22202014745618115, 1.224646799147425437E-15 ) ) ;
#905 = AXIS2_PLACEMENT_3D ( 'NONE', #855, #642, #938 ) ;
#906 = ORIENTED_EDGE ( 'NONE', *, *, #750, .F. ) ;
#907 = DIRECTION ( 'NONE',  ( 0.000000000000000000, 0.000000000000000000, 1.000000000000000000 ) ) ;
#908 = ORIENTED_EDGE ( 'NONE', *, *, #507, .F. ) ;
#909 = CARTESIAN_POINT ( 'NONE',  ( -3.860332711632352962E-07, 56.49999996212447684, 0.000000000000000000 ) ) ;
#910 = CARTESIAN_POINT ( 'NONE',  ( -3.860330403773641755E-07, 51.08660250250290602, 0.000000000000000000 ) ) ;
#911 = ADVANCED_FACE ( 'NONE', ( #431 ), #293, .T. ) ;
#912 = EDGE_CURVE ( 'NONE', #79, #617, #612, .T. ) ;
#913 = ORIENTED_EDGE ( 'NONE', *, *, #737, .F. ) ;
#914 = LINE ( 'NONE', #529, #748 ) ;
#915 = EDGE_LOOP ( 'NONE', ( #609, #600, #348, #130 ) ) ;
#916 = AXIS2_PLACEMENT_3D ( 'NONE', #397, #188, #866 ) ;
#917 = PRESENTATION_STYLE_ASSIGNMENT (( #927 ) ) ;
#918 = FACE_OUTER_BOUND ( 'NONE', #475, .T. ) ;
#919 = CIRCLE ( 'NONE', #973, 0.8000000000000029310 ) ;
#920 = AXIS2_PLACEMENT_3D ( 'NONE', #125, #441, #978 ) ;
#921 = CIRCLE ( 'NONE', #262, 10.00000000000191136 ) ;
#922 = ORIENTED_EDGE ( 'NONE', *, *, #15, .F. ) ;
#923 = CARTESIAN_POINT ( 'NONE',  ( 4.749999613967381684, 56.99999996212468290, 0.000000000000000000 ) ) ;
#924 = AXIS2_PLACEMENT_3D ( 'NONE', #387, #687, #524 ) ;
#925 = EDGE_LOOP ( 'NONE', ( #471, #12, #230, #949 ) ) ;
#926 = EDGE_CURVE ( 'NONE', #488, #777, #107, .T. ) ;
#927 = SURFACE_STYLE_USAGE ( .BOTH. , #227 ) ;
#928 = EDGE_LOOP ( 'NONE', ( #344, #218, #557, #421 ) ) ;
#929 = DIRECTION ( 'NONE',  ( -1.000000000000000000, -4.263235294117223437E-14, 0.000000000000000000 ) ) ;
#930 = EDGE_CURVE ( 'NONE', #777, #488, #628, .T. ) ;
#931 = AXIS2_PLACEMENT_3D ( 'NONE', #416, #29, #194 ) ;
#932 = CARTESIAN_POINT ( 'NONE',  ( -3.860330715226320266E-07, 51.81715724964990955, 0.000000000000000000 ) ) ;
#933 = AXIS2_PLACEMENT_3D ( 'NONE', #782, #558, #476 ) ;
#934 = ORIENTED_EDGE ( 'NONE', *, *, #398, .T. ) ;
#935 = FACE_OUTER_BOUND ( 'NONE', #296, .T. ) ;
#936 = AXIS2_PLACEMENT_3D ( 'NONE', #60, #374, #448 ) ;
#937 = CIRCLE ( 'NONE', #276, 5.250000000000624389 ) ;
#938 = DIRECTION ( 'NONE',  ( 1.000000000000000000, 4.263235294117223437E-14, 0.000000000000000000 ) ) ;
#939 = ORIENTED_EDGE ( 'NONE', *, *, #826, .F. ) ;
#940 = CARTESIAN_POINT ( 'NONE',  ( -3.860330715226320266E-07, 51.81715724964990955, 0.000000000000000000 ) ) ;
#941 = CARTESIAN_POINT ( 'NONE',  ( -3.860333268324023237E-07, 57.79843593325804818, 0.000000000000000000 ) ) ;
#942 = CARTESIAN_POINT ( 'NONE',  ( 5.999999613967446521, 50.99999996212478948, 7.347880794884709410E-16 ) ) ;
#943 = EDGE_CURVE ( 'NONE', #881, #972, #602, .T. ) ;
#944 = ORIENTED_EDGE ( 'NONE', *, *, #361, .T. ) ;
#945 = DIRECTION ( 'NONE',  ( 1.000000000000000000, 4.163336342343361363E-14, 0.000000000000000000 ) ) ;
#946 = ADVANCED_FACE ( 'NONE', ( #986 ), #31, .F. ) ;
#947 = FACE_OUTER_BOUND ( 'NONE', #576, .T. ) ;
#948 = DIRECTION ( 'NONE',  ( 1.000000000000000000, 4.232725281382600255E-14, 0.000000000000000000 ) ) ;
#949 = ORIENTED_EDGE ( 'NONE', *, *, #840, .F. ) ;
#950 = FACE_OUTER_BOUND ( 'NONE', #643, .T. ) ;
#951 = DIRECTION ( 'NONE',  ( 4.263235294117223437E-14, -1.000000000000000000, -0.000000000000000000 ) ) ;
#952 = ORIENTED_EDGE ( 'NONE', *, *, #809, .F. ) ;
#953 = EDGE_LOOP ( 'NONE', ( #834, #944, #18, #871 ) ) ;
#954 = UNCERTAINTY_MEASURE_WITH_UNIT (LENGTH_MEASURE( 1.000000000000000082E-05 ), #423, 'distance_accuracy_value', 'NONE');
#955 = DIRECTION ( 'NONE',  ( 4.263235294117223437E-14, -1.000000000000000000, -0.000000000000000000 ) ) ;
#956 = CARTESIAN_POINT ( 'NONE',  ( -3.860317671799487885E-07, 21.22202014745575482, 0.000000000000000000 ) ) ;
#957 = CIRCLE ( 'NONE', #521, 5.067157287525799525 ) ;
#958 = CARTESIAN_POINT ( 'NONE',  ( -9.840000386034702728, 50.99999996212395104, 1.214849624754393361E-15 ) ) ;
#959 = VERTEX_POINT ( 'NONE', #207 ) ;
#960 = VERTEX_POINT ( 'NONE', #596 ) ;
#961 = DIRECTION ( 'NONE',  ( 1.000000000000000000, 4.236377330805917449E-14, 0.000000000000000000 ) ) ;
#962 = CARTESIAN_POINT ( 'NONE',  ( -3.860330366852941481E-07, 50.99999996212452658, 0.000000000000000000 ) ) ;
#963 = DIRECTION ( 'NONE',  ( 4.263235294117223437E-14, -1.000000000000000000, -0.000000000000000000 ) ) ;
#964 = ORIENTED_EDGE ( 'NONE', *, *, #312, .T. ) ;
#965 = ORIENTED_EDGE ( 'NONE', *, *, #312, .F. ) ;
#966 = UNCERTAINTY_MEASURE_WITH_UNIT (LENGTH_MEASURE( 1.000000000000000082E-05 ), #827, 'distance_accuracy_value', 'NONE');
#967 = DIRECTION ( 'NONE',  ( 4.263235294117223437E-14, -1.000000000000000000, -0.000000000000000000 ) ) ;
#968 = DIRECTION ( 'NONE',  ( 4.263235294117223437E-14, -1.000000000000000000, -0.000000000000000000 ) ) ;
#969 = CIRCLE ( 'NONE', #220, 0.8000000000000133671 ) ;
#970 = EDGE_CURVE ( 'NONE', #959, #111, #169, .T. ) ;
#971 = CARTESIAN_POINT ( 'NONE',  ( -3.860309477000000090E-07, 1.999999962123957031, 0.000000000000000000 ) ) ;
#972 = VERTEX_POINT ( 'NONE', #836 ) ;
#973 = AXIS2_PLACEMENT_3D ( 'NONE', #264, #731, #39 ) ;
#974 = DIRECTION ( 'NONE',  ( 1.000000000000000000, 4.330831846930460522E-14, 0.000000000000000000 ) ) ;
#975 = AXIS2_PLACEMENT_3D ( 'NONE', #75, #158, #780 ) ;
#976 = CYLINDRICAL_SURFACE ( 'NONE', #456, 4.950000000000487788 ) ;
#977 = CARTESIAN_POINT ( 'NONE',  ( -4.250000386034140654, 58.99999996212432762, 5.204748896377186485E-16 ) ) ;
#978 = DIRECTION ( 'NONE',  ( 1.000000000000000000, 4.263235294117223437E-14, 0.000000000000000000 ) ) ;
#979 = ORIENTED_EDGE ( 'NONE', *, *, #30, .F. ) ;
#980 = LINE ( 'NONE', #606, #206 ) ;
#981 = CARTESIAN_POINT ( 'NONE',  ( -3.860333529769587019E-07, 58.41905246019337739, 0.000000000000000000 ) ) ;
#982 = AXIS2_PLACEMENT_3D ( 'NONE', #909, #73, #831 ) ;
#983 = ORIENTED_EDGE ( 'NONE', *, *, #664, .F. ) ;
#984 = CARTESIAN_POINT ( 'NONE',  ( 3.999999613969786427, 1.999999962124127562, 0.000000000000000000 ) ) ;
#985 = CIRCLE ( 'NONE', #678, 0.3999999999999984679 ) ;
#986 = FACE_OUTER_BOUND ( 'NONE', #385, .T. ) ;
#987 = SHAPE_DEFINITION_REPRESENTATION ( #569, #860 ) ;
#988 = AXIS2_PLACEMENT_3D ( 'NONE', #191, #506, #114 ) ;
#989 = ORIENTED_EDGE ( 'NONE', *, *, #303, .T. ) ;
#990 = LINE ( 'NONE', #301, #315 ) ;
#991 = CIRCLE ( 'NONE', #684, 9.840000000001664304 ) ;
#992 = ORIENTED_EDGE ( 'NONE', *, *, #853, .F. ) ;
#993 = ORIENTED_EDGE ( 'NONE', *, *, #847, .F. ) ;
#994 = LINE ( 'NONE', #845, #56 ) ;
#995 = EDGE_LOOP ( 'NONE', ( #231, #427, #774 ) ) ;
#996 =( GEOMETRIC_REPRESENTATION_CONTEXT ( 3 ) GLOBAL_UNCERTAINTY_ASSIGNED_CONTEXT ( ( #326 ) ) GLOBAL_UNIT_ASSIGNED_CONTEXT ( ( #375, #533, #457 ) ) REPRESENTATION_CONTEXT ( 'NONE', 'WORKASPACE' ) );
#997 = LINE ( 'NONE', #538, #183 ) ;
#998 = COLOUR_RGB ( '',0.7921568627450980005, 0.8196078431372548767, 0.9333333333333333481 ) ;
#999 = EDGE_CURVE ( 'NONE', #258, #181, #852, .T. ) ;
#1000 = EDGE_CURVE ( 'NONE', #754, #813, #980, .T. ) ;
#1001 = LINE ( 'NONE', #761, #9 ) ;
#1002 = AXIS2_PLACEMENT_3D ( 'NONE', #541, #172, #948 ) ;
ENDSEC;
END-ISO-10303-21;
