ISO-10303-21;
HEADER;
FILE_DESCRIPTION (( 'STEP AP214' ),
    '1' );
FILE_NAME ('99688-SI10-10+S9MT1003-090.STEP',
    '2022-11-03T01:07:19',
    ( 'User' ),
    ( 'GENUINE' ),
    'SwSTEP 2.0',
    'SolidWorks 2012',
    '' );
FILE_SCHEMA (( 'AUTOMOTIVE_DESIGN' ));
ENDSEC;

DATA;
#1 = CARTESIAN_POINT ( 'NONE',  ( -5.250932884023608700E-014, 10.26393202249836800, 0.0000000000000000000 ) ) ;
#2 = AXIS2_PLACEMENT_3D ( 'NONE', #57, #56, #55 ) ;
#3 = AXIS2_PLACEMENT_3D ( 'NONE', #239, #240, #241 ) ;
#4 = AXIS2_PLACEMENT_3D ( 'NONE', #51, #50, #49 ) ;
#5 = FACE_OUTER_BOUND ( 'NONE', #440, .T. ) ;
#6 = AXIS2_PLACEMENT_3D ( 'NONE', #54, #53, #52 ) ;
#7 = FACE_OUTER_BOUND ( 'NONE', #596, .T. ) ;
#8 = FACE_OUTER_BOUND ( 'NONE', #441, .T. ) ;
#9 = AXIS2_PLACEMENT_3D ( 'NONE', #1, #63, #407 ) ;
#10 = FACE_OUTER_BOUND ( 'NONE', #438, .T. ) ;
#11 = AXIS2_PLACEMENT_3D ( 'NONE', #202, #203, #204 ) ;
#12 = CYLINDRICAL_SURFACE ( 'NONE', #11, 6.500000000000806500 ) ;
#13 = FACE_OUTER_BOUND ( 'NONE', #443, .T. ) ;
#14 = FACE_OUTER_BOUND ( 'NONE', #442, .T. ) ;
#15 = AXIS2_PLACEMENT_3D ( 'NONE', #205, #206, #207 ) ;
#16 = AXIS2_PLACEMENT_3D ( 'NONE', #208, #209, #210 ) ;
#17 = CYLINDRICAL_SURFACE ( 'NONE', #16, 5.000000000002674300 ) ;
#18 = FACE_OUTER_BOUND ( 'NONE', #448, .T. ) ;
#19 = FACE_OUTER_BOUND ( 'NONE', #444, .T. ) ;
#20 = AXIS2_PLACEMENT_3D ( 'NONE', #211, #212, #213 ) ;
#21 = FACE_OUTER_BOUND ( 'NONE', #445, .T. ) ;
#22 = AXIS2_PLACEMENT_3D ( 'NONE', #214, #215, #216 ) ;
#23 = FACE_OUTER_BOUND ( 'NONE', #446, .T. ) ;
#24 = AXIS2_PLACEMENT_3D ( 'NONE', #217, #218, #219 ) ;
#25 = FACE_OUTER_BOUND ( 'NONE', #447, .T. ) ;
#26 = AXIS2_PLACEMENT_3D ( 'NONE', #220, #221, #222 ) ;
#27 = AXIS2_PLACEMENT_3D ( 'NONE', #223, #224, #225 ) ;
#28 = CYLINDRICAL_SURFACE ( 'NONE', #27, 5.000000000002674300 ) ;
#29 = AXIS2_PLACEMENT_3D ( 'NONE', #236, #237, #238 ) ;
#30 = FACE_OUTER_BOUND ( 'NONE', #457, .T. ) ;
#31 = AXIS2_PLACEMENT_3D ( 'NONE', #226, #227, #228 ) ;
#32 = AXIS2_PLACEMENT_3D ( 'NONE', #233, #234, #235 ) ;
#33 = AXIS2_PLACEMENT_3D ( 'NONE', #230, #231, #232 ) ;
#34 = AXIS2_PLACEMENT_3D ( 'NONE', #242, #243, #244 ) ;
#35 = AXIS2_PLACEMENT_3D ( 'NONE', #245, #246, #247 ) ;
#36 = AXIS2_PLACEMENT_3D ( 'NONE', #248, #249, #250 ) ;
#37 = AXIS2_PLACEMENT_3D ( 'NONE', #251, #252, #253 ) ;
#38 = AXIS2_PLACEMENT_3D ( 'NONE', #254, #255, #256 ) ;
#39 = AXIS2_PLACEMENT_3D ( 'NONE', #257, #258, #259 ) ;
#40 = AXIS2_PLACEMENT_3D ( 'NONE', #260, #261, #262 ) ;
#41 = VECTOR ( 'NONE', #266, 1000.000000000000000 ) ;
#42 = AXIS2_PLACEMENT_3D ( 'NONE', #263, #273, #274 ) ;
#43 = VECTOR ( 'NONE', #269, 1000.000000000000000 ) ;
#44 = VECTOR ( 'NONE', #272, 1000.000000000000000 ) ;
#45 = AXIS2_PLACEMENT_3D ( 'NONE', #275, #282, #283 ) ;
#46 = VECTOR ( 'NONE', #278, 1000.000000000000000 ) ;
#47 = FACE_OUTER_BOUND ( 'NONE', #455, .T. ) ;
#48 = VECTOR ( 'NONE', #281, 1000.000000000000000 ) ;
#49 = DIRECTION ( 'NONE',  ( -1.000000000000000000, -5.115907697472721100E-015, 0.0000000000000000000 ) ) ;
#50 = DIRECTION ( 'NONE',  ( -5.115907697472721100E-015, 1.000000000000000000, -0.0000000000000000000 ) ) ;
#51 = CARTESIAN_POINT ( 'NONE',  ( -1.786765180256111300E-013, 34.99999999999992200, 0.0000000000000000000 ) ) ;
#52 = DIRECTION ( 'NONE',  ( -1.000000000000000000, -4.956352788507702000E-015, 0.0000000000000000000 ) ) ;
#53 = DIRECTION ( 'NONE',  ( -5.115907697472721100E-015, 1.000000000000000000, -0.0000000000000000000 ) ) ;
#54 = CARTESIAN_POINT ( 'NONE',  ( -1.790567694115447600E-013, 34.99999999999991500, 0.0000000000000000000 ) ) ;
#55 = DIRECTION ( 'NONE',  ( 1.000000000000000000, 5.551115123128828500E-015, 0.0000000000000000000 ) ) ;
#56 = DIRECTION ( 'NONE',  ( 5.115907697472721100E-015, -1.000000000000000000, 0.0000000000000000000 ) ) ;
#57 = CARTESIAN_POINT ( 'NONE',  ( -3.826698957709594700E-013, 74.79999999999999700, 0.0000000000000000000 ) ) ;
#58 = DIRECTION ( 'NONE',  ( -1.000000000000000000, -5.551115123128910500E-015, 0.0000000000000000000 ) ) ;
#59 = DIRECTION ( 'NONE',  ( -5.115907697472721100E-015, 1.000000000000000000, -0.0000000000000000000 ) ) ;
#60 = DIRECTION ( 'NONE',  ( 0.8660254037844674600, 0.4999999999999498700, 1.060575238724945400E-016 ) ) ;
#61 = CARTESIAN_POINT ( 'NONE',  ( 5.599999999996953200, 34.99999999999994300, 6.858022075221665200E-016 ) ) ;
#62 = LINE ( 'NONE', #61, #375 ) ;
#63 = DIRECTION ( 'NONE',  ( -5.115907697472721100E-015, 1.000000000000000000, -0.0000000000000000000 ) ) ;
#64 = STYLED_ITEM ( 'NONE', ( #329 ), #436 ) ;
#65 = VECTOR ( 'NONE', #290, 1000.000000000000100 ) ;
#66 = AXIS2_PLACEMENT_3D ( 'NONE', #320, #321, #322 ) ;
#67 = AXIS2_PLACEMENT_3D ( 'NONE', #293, #294, #295 ) ;
#68 = VECTOR ( 'NONE', #298, 999.9999999999998900 ) ;
#69 = AXIS2_PLACEMENT_3D ( 'NONE', #299, #303, #304 ) ;
#70 = VECTOR ( 'NONE', #287, 1000.000000000000000 ) ;
#71 = AXIS2_PLACEMENT_3D ( 'NONE', #284, #291, #292 ) ;
#72 = VECTOR ( 'NONE', #311, 1000.000000000000100 ) ;
#73 = CYLINDRICAL_SURFACE ( 'NONE', #71, 4.999999999997182700 ) ;
#74 = FACE_OUTER_BOUND ( 'NONE', #456, .T. ) ;
#75 = VECTOR ( 'NONE', #314, 1000.000000000000100 ) ;
#76 = VECTOR ( 'NONE', #308, 1000.000000000000000 ) ;
#77 = PRODUCT_DEFINITION_FORMATION_WITH_SPECIFIED_SOURCE ( 'ANY', '', #406, .NOT_KNOWN. ) ;
#78 = VECTOR ( 'NONE', #302, 1000.000000000000000 ) ;
#79 = AXIS2_PLACEMENT_3D ( 'NONE', #368, #369, #370 ) ;
#80 = MECHANICAL_DESIGN_GEOMETRIC_PRESENTATION_REPRESENTATION (  '', ( #82 ), #91 ) ;
#81 = PRESENTATION_LAYER_ASSIGNMENT (  '', '', ( #82 ) ) ;
#82 = STYLED_ITEM ( 'NONE', ( #364 ), #95 ) ;
#83 = MECHANICAL_DESIGN_GEOMETRIC_PRESENTATION_REPRESENTATION (  '', ( #64 ), #89 ) ;
#84 = PRESENTATION_LAYER_ASSIGNMENT (  '', '', ( #64 ) ) ;
#85 = VECTOR ( 'NONE', #317, 1000.000000000000100 ) ;
#86 = AXIS2_PLACEMENT_3D ( 'NONE', #305, #318, #319 ) ;
#87 = APPLICATION_CONTEXT ( 'automotive_design' ) ;
#88 = APPLICATION_CONTEXT ( 'automotive_design' ) ;
#89 =( GEOMETRIC_REPRESENTATION_CONTEXT ( 3 ) GLOBAL_UNCERTAINTY_ASSIGNED_CONTEXT ( ( #92 ) ) GLOBAL_UNIT_ASSIGNED_CONTEXT ( ( #330, #331, #332 ) ) REPRESENTATION_CONTEXT ( 'NONE', 'WORKASPACE' ) );
#90 =( GEOMETRIC_REPRESENTATION_CONTEXT ( 3 ) GLOBAL_UNCERTAINTY_ASSIGNED_CONTEXT ( ( #93 ) ) GLOBAL_UNIT_ASSIGNED_CONTEXT ( ( #355, #356, #357 ) ) REPRESENTATION_CONTEXT ( 'NONE', 'WORKASPACE' ) );
#91 =( GEOMETRIC_REPRESENTATION_CONTEXT ( 3 ) GLOBAL_UNCERTAINTY_ASSIGNED_CONTEXT ( ( #94 ) ) GLOBAL_UNIT_ASSIGNED_CONTEXT ( ( #365, #366, #367 ) ) REPRESENTATION_CONTEXT ( 'NONE', 'WORKASPACE' ) );
#92 = UNCERTAINTY_MEASURE_WITH_UNIT (LENGTH_MEASURE( 1.000000000000000100E-005 ), #330, 'distance_accuracy_value', 'NONE');
#93 = UNCERTAINTY_MEASURE_WITH_UNIT (LENGTH_MEASURE( 1.000000000000000100E-005 ), #355, 'distance_accuracy_value', 'NONE');
#94 = UNCERTAINTY_MEASURE_WITH_UNIT (LENGTH_MEASURE( 1.000000000000000100E-005 ), #365, 'distance_accuracy_value', 'NONE');
#95 = ADVANCED_BREP_SHAPE_REPRESENTATION ( '99688-SI10-10+S9MT1003-090', ( #436, #79 ), #90 ) ;
#96 = PRODUCT_DEFINITION ( 'UNKNOWN', '', #77, #437 ) ;
#97 = PRODUCT_RELATED_PRODUCT_CATEGORY ( 'part', '', ( #406 ) ) ;
#98 = COLOUR_RGB ( '',0.7921568627450980000, 0.8196078431372548800, 0.9333333333333333500 ) ;
#99 = COLOUR_RGB ( '',0.7921568627450980000, 0.8196078431372548800, 0.9333333333333333500 ) ;
#100 = CIRCLE ( 'NONE', #66, 6.500000000000859800 ) ;
#101 = CIRCLE ( 'NONE', #86, 6.400000000000824600 ) ;
#102 = CONICAL_SURFACE ( 'NONE', #67, 4.999999999997256400, 0.7853981633974743700 ) ;
#103 = CIRCLE ( 'NONE', #69, 6.500000000000751400 ) ;
#104 = CIRCLE ( 'NONE', #45, 5.000000000002033900 ) ;
#105 = CIRCLE ( 'NONE', #42, 1.000000000001786300 ) ;
#106 = CIRCLE ( 'NONE', #40, 1.000000000001786300 ) ;
#107 = CIRCLE ( 'NONE', #39, 5.000000000002033900 ) ;
#108 = CIRCLE ( 'NONE', #38, 5.000000000003313800 ) ;
#109 = CIRCLE ( 'NONE', #37, 6.500000000000751400 ) ;
#110 = CIRCLE ( 'NONE', #36, 6.500000000000859800 ) ;
#111 = CIRCLE ( 'NONE', #35, 6.400000000000824600 ) ;
#112 = CIRCLE ( 'NONE', #34, 5.599999999997131700 ) ;
#113 = CIRCLE ( 'NONE', #3, 5.299999999997096400 ) ;
#114 = CIRCLE ( 'NONE', #32, 4.799999999997268700 ) ;
#115 = CONICAL_SURFACE ( 'NONE', #31, 5.000000000003314700, 0.4205343352837897000 ) ;
#116 = CIRCLE ( 'NONE', #29, 4.999999999997256400 ) ;
#117 = CONICAL_SURFACE ( 'NONE', #26, 1.000000000001786600, 0.7853981633974473900 ) ;
#118 = CONICAL_SURFACE ( 'NONE', #24, 1732.050807564955400, 1.047197551195617300 ) ;
#119 = CONICAL_SURFACE ( 'NONE', #20, 1.000000000001786600, 0.7853981633974473900 ) ;
#120 = CONICAL_SURFACE ( 'NONE', #15, 6.500000000000860600, 0.7853981633974439500 ) ;
#121 = TOROIDAL_SURFACE ( 'NONE', #4, 5.199999999997110000, 0.1999999999999973700 ) ;
#122 = CONICAL_SURFACE ( 'NONE', #9, 5.000000000003314700, 0.4205343352837897000 ) ;
#123 = CONICAL_SURFACE ( 'NONE', #22, 1732.050807564955400, 1.047197551195617300 ) ;
#124 = CONICAL_SURFACE ( 'NONE', #2, 4.999999999997256400, 0.7853981633974743700 ) ;
#125 = CONICAL_SURFACE ( 'NONE', #6, 5.599999999997131700, 1.047197551196660700 ) ;
#126 = CIRCLE ( 'NONE', #379, 0.1999999999999970700 ) ;
#127 = CIRCLE ( 'NONE', #383, 4.999999999997109000 ) ;
#128 = CIRCLE ( 'NONE', #381, 4.999999999997256400 ) ;
#129 = CIRCLE ( 'NONE', #385, 5.299999999997096400 ) ;
#130 = CIRCLE ( 'NONE', #387, 4.799999999997268700 ) ;
#131 = CIRCLE ( 'NONE', #388, 0.1999999999999970700 ) ;
#132 = CIRCLE ( 'NONE', #389, 5.599999999997131700 ) ;
#133 = CIRCLE ( 'NONE', #393, 5.000000000003313800 ) ;
#134 = TOROIDAL_SURFACE ( 'NONE', #397, 5.199999999997110000, 0.1999999999999973700 ) ;
#135 = CIRCLE ( 'NONE', #391, 4.999999999997109000 ) ;
#136 = CONICAL_SURFACE ( 'NONE', #395, 5.599999999997131700, 1.047197551196660700 ) ;
#137 = ADVANCED_FACE ( 'NONE', ( #404 ), #201, .T. ) ;
#138 = ADVANCED_FACE ( 'NONE', ( #405 ), #400, .T. ) ;
#139 = ADVANCED_FACE ( 'NONE', ( #380 ), #134, .F. ) ;
#140 = ADVANCED_FACE ( 'NONE', ( #399 ), #136, .F. ) ;
#141 = ADVANCED_FACE ( 'NONE', ( #396, #394 ), #582, .F. ) ;
#142 = EDGE_CURVE ( 'NONE', #543, #542, #133, .T. ) ;
#143 = EDGE_CURVE ( 'NONE', #474, #559, #574, .T. ) ;
#144 = EDGE_CURVE ( 'NONE', #478, #561, #135, .T. ) ;
#145 = EDGE_CURVE ( 'NONE', #551, #550, #132, .T. ) ;
#146 = EDGE_CURVE ( 'NONE', #478, #552, #131, .T. ) ;
#147 = EDGE_CURVE ( 'NONE', #475, #474, #130, .T. ) ;
#148 = EDGE_CURVE ( 'NONE', #475, #560, #428, .T. ) ;
#149 = EDGE_CURVE ( 'NONE', #561, #559, #425, .T. ) ;
#150 = EDGE_CURVE ( 'NONE', #557, #552, #129, .T. ) ;
#151 = EDGE_CURVE ( 'NONE', #560, #559, #128, .T. ) ;
#152 = EDGE_CURVE ( 'NONE', #561, #478, #127, .T. ) ;
#153 = EDGE_CURVE ( 'NONE', #478, #560, #413, .T. ) ;
#154 = EDGE_CURVE ( 'NONE', #561, #557, #126, .T. ) ;
#155 = EDGE_CURVE ( 'NONE', #557, #551, #62, .T. ) ;
#156 = ADVANCED_FACE ( 'NONE', ( #398 ), #402, .T. ) ;
#157 = ADVANCED_FACE ( 'NONE', ( #376 ), #124, .T. ) ;
#158 = ADVANCED_FACE ( 'NONE', ( #386 ), #125, .F. ) ;
#159 = ADVANCED_FACE ( 'NONE', ( #7 ), #121, .F. ) ;
#160 = ADVANCED_FACE ( 'NONE', ( #8 ), #122, .T. ) ;
#161 = ADVANCED_FACE ( 'NONE', ( #5 ), #12, .T. ) ;
#162 = ADVANCED_FACE ( 'NONE', ( #10 ), #120, .T. ) ;
#163 = ADVANCED_FACE ( 'NONE', ( #14 ), #17, .T. ) ;
#164 = ADVANCED_FACE ( 'NONE', ( #13 ), #119, .T. ) ;
#165 = ADVANCED_FACE ( 'NONE', ( #19 ), #123, .T. ) ;
#166 = ADVANCED_FACE ( 'NONE', ( #21 ), #118, .T. ) ;
#167 = ADVANCED_FACE ( 'NONE', ( #23 ), #117, .T. ) ;
#168 = ADVANCED_FACE ( 'NONE', ( #25 ), #28, .T. ) ;
#169 = ADVANCED_FACE ( 'NONE', ( #18 ), #115, .T. ) ;
#170 = ADVANCED_FACE ( 'NONE', ( #30 ), #229, .F. ) ;
#171 = EDGE_CURVE ( 'NONE', #474, #475, #114, .T. ) ;
#172 = EDGE_CURVE ( 'NONE', #559, #560, #116, .T. ) ;
#173 = EDGE_CURVE ( 'NONE', #552, #557, #113, .T. ) ;
#174 = EDGE_CURVE ( 'NONE', #550, #551, #112, .T. ) ;
#175 = EDGE_CURVE ( 'NONE', #548, #549, #111, .T. ) ;
#176 = EDGE_CURVE ( 'NONE', #546, #547, #110, .T. ) ;
#177 = EDGE_CURVE ( 'NONE', #544, #545, #109, .T. ) ;
#178 = EDGE_CURVE ( 'NONE', #542, #543, #108, .T. ) ;
#179 = EDGE_CURVE ( 'NONE', #540, #541, #107, .T. ) ;
#180 = EDGE_CURVE ( 'NONE', #538, #539, #106, .T. ) ;
#181 = EDGE_CURVE ( 'NONE', #537, #539, #264, .T. ) ;
#182 = EDGE_CURVE ( 'NONE', #537, #538, #267, .T. ) ;
#183 = EDGE_CURVE ( 'NONE', #539, #541, #270, .T. ) ;
#184 = EDGE_CURVE ( 'NONE', #539, #538, #105, .T. ) ;
#185 = EDGE_CURVE ( 'NONE', #538, #540, #276, .T. ) ;
#186 = EDGE_CURVE ( 'NONE', #541, #543, #279, .T. ) ;
#187 = EDGE_CURVE ( 'NONE', #541, #540, #104, .T. ) ;
#188 = EDGE_CURVE ( 'NONE', #540, #542, #285, .T. ) ;
#189 = EDGE_CURVE ( 'NONE', #543, #545, #288, .T. ) ;
#190 = ADVANCED_FACE ( 'NONE', ( #47 ), #73, .T. ) ;
#191 = ADVANCED_FACE ( 'NONE', ( #74 ), #102, .T. ) ;
#192 = EDGE_CURVE ( 'NONE', #548, #546, #296, .T. ) ;
#193 = EDGE_CURVE ( 'NONE', #544, #546, #300, .T. ) ;
#194 = EDGE_CURVE ( 'NONE', #545, #544, #103, .T. ) ;
#195 = EDGE_CURVE ( 'NONE', #545, #547, #306, .T. ) ;
#196 = EDGE_CURVE ( 'NONE', #542, #544, #309, .T. ) ;
#197 = EDGE_CURVE ( 'NONE', #552, #550, #312, .T. ) ;
#198 = EDGE_CURVE ( 'NONE', #549, #547, #315, .T. ) ;
#199 = EDGE_CURVE ( 'NONE', #549, #548, #101, .T. ) ;
#200 = EDGE_CURVE ( 'NONE', #547, #546, #100, .T. ) ;
#201 = CONICAL_SURFACE ( 'NONE', #403, 6.500000000000860600, 0.7853981633974439500 ) ;
#202 = CARTESIAN_POINT ( 'NONE',  ( -3.836930773104541000E-013, 75.00000000000001400, 0.0000000000000000000 ) ) ;
#203 = DIRECTION ( 'NONE',  ( -5.115907697472721100E-015, 1.000000000000000000, -0.0000000000000000000 ) ) ;
#204 = DIRECTION ( 'NONE',  ( -1.000000000000000000, -4.270088556250072600E-015, 0.0000000000000000000 ) ) ;
#205 = CARTESIAN_POINT ( 'NONE',  ( -1.785451786417976500E-013, 34.89999999999994200, 0.0000000000000000000 ) ) ;
#206 = DIRECTION ( 'NONE',  ( 5.115907697472721100E-015, -1.000000000000000000, 0.0000000000000000000 ) ) ;
#207 = DIRECTION ( 'NONE',  ( 1.000000000000000000, 5.337610695312546100E-015, 0.0000000000000000000 ) ) ;
#208 = CARTESIAN_POINT ( 'NONE',  ( -3.836930773104541000E-013, 75.00000000000001400, 0.0000000000000000000 ) ) ;
#209 = DIRECTION ( 'NONE',  ( -5.115907697472721100E-015, 1.000000000000000000, -0.0000000000000000000 ) ) ;
#210 = DIRECTION ( 'NONE',  ( -1.000000000000000000, -5.551115123122813400E-015, 0.0000000000000000000 ) ) ;
#211 = CARTESIAN_POINT ( 'NONE',  ( -2.953670686297064400E-015, 0.5773502691919646400, 0.0000000000000000000 ) ) ;
#212 = DIRECTION ( 'NONE',  ( -5.115907697472721100E-015, 1.000000000000000000, -0.0000000000000000000 ) ) ;
#213 = DIRECTION ( 'NONE',  ( -1.000000000000000000, -5.095750210672766600E-015, 0.0000000000000000000 ) ) ;
#214 = CARTESIAN_POINT ( 'NONE',  ( -5.115907697472721300E-012, 1000.000000000000000, 0.0000000000000000000 ) ) ;
#215 = DIRECTION ( 'NONE',  ( -5.115907697472721100E-015, 1.000000000000000000, -0.0000000000000000000 ) ) ;
#216 = DIRECTION ( 'NONE',  ( -1.000000000000000000, -5.127900497034448100E-015, 0.0000000000000000000 ) ) ;
#217 = CARTESIAN_POINT ( 'NONE',  ( -5.115907697472721300E-012, 1000.000000000000000, 0.0000000000000000000 ) ) ;
#218 = DIRECTION ( 'NONE',  ( -5.115907697472721100E-015, 1.000000000000000000, -0.0000000000000000000 ) ) ;
#219 = DIRECTION ( 'NONE',  ( -1.000000000000000000, -5.127900497034448100E-015, 0.0000000000000000000 ) ) ;
#220 = CARTESIAN_POINT ( 'NONE',  ( -2.953670686297064400E-015, 0.5773502691919646400, 0.0000000000000000000 ) ) ;
#221 = DIRECTION ( 'NONE',  ( -5.115907697472721100E-015, 1.000000000000000000, -0.0000000000000000000 ) ) ;
#222 = DIRECTION ( 'NONE',  ( -1.000000000000000000, -5.095750210672766600E-015, 0.0000000000000000000 ) ) ;
#223 = CARTESIAN_POINT ( 'NONE',  ( -3.836930773104541000E-013, 75.00000000000001400, 0.0000000000000000000 ) ) ;
#224 = DIRECTION ( 'NONE',  ( -5.115907697472721100E-015, 1.000000000000000000, -0.0000000000000000000 ) ) ;
#225 = DIRECTION ( 'NONE',  ( -1.000000000000000000, -5.551115123122813400E-015, 0.0000000000000000000 ) ) ;
#226 = CARTESIAN_POINT ( 'NONE',  ( -5.250932884023608700E-014, 10.26393202249836800, 0.0000000000000000000 ) ) ;
#227 = DIRECTION ( 'NONE',  ( -5.115907697472721100E-015, 1.000000000000000000, -0.0000000000000000000 ) ) ;
#228 = DIRECTION ( 'NONE',  ( -1.000000000000000000, -5.204170427926971600E-015, 0.0000000000000000000 ) ) ;
#229 = PLANE ( 'NONE',  #33 ) ;
#230 = CARTESIAN_POINT ( 'NONE',  ( -3.836930773104540500E-013, 75.00000000000000000, 0.0000000000000000000 ) ) ;
#231 = DIRECTION ( 'NONE',  ( 5.115907697472721100E-015, -1.000000000000000000, 0.0000000000000000000 ) ) ;
#232 = DIRECTION ( 'NONE',  ( 1.000000000000000000, 5.115907697472721100E-015, 0.0000000000000000000 ) ) ;
#233 = CARTESIAN_POINT ( 'NONE',  ( -3.836930773104539000E-013, 74.99999999999997200, 0.0000000000000000000 ) ) ;
#234 = DIRECTION ( 'NONE',  ( -5.115907697472721100E-015, 1.000000000000000000, -0.0000000000000000000 ) ) ;
#235 = DIRECTION ( 'NONE',  ( -1.000000000000000000, -5.782411586592647600E-015, 0.0000000000000000000 ) ) ;
#236 = CARTESIAN_POINT ( 'NONE',  ( -3.826698957709594700E-013, 74.79999999999999700, 0.0000000000000000000 ) ) ;
#237 = DIRECTION ( 'NONE',  ( -5.115907697472721100E-015, 1.000000000000000000, -0.0000000000000000000 ) ) ;
#238 = DIRECTION ( 'NONE',  ( -1.000000000000000000, -5.551115123128828500E-015, 0.0000000000000000000 ) ) ;
#239 = CARTESIAN_POINT ( 'NONE',  ( -1.781706682056592400E-013, 34.82679491924302800, 0.0000000000000000000 ) ) ;
#240 = DIRECTION ( 'NONE',  ( -5.115907697472721100E-015, 1.000000000000000000, -0.0000000000000000000 ) ) ;
#241 = DIRECTION ( 'NONE',  ( -1.000000000000000000, -5.236901059555494400E-015, 0.0000000000000000000 ) ) ;
#242 = CARTESIAN_POINT ( 'NONE',  ( -1.790567694115447600E-013, 34.99999999999991500, 0.0000000000000000000 ) ) ;
#243 = DIRECTION ( 'NONE',  ( -5.115907697472721100E-015, 1.000000000000000000, -0.0000000000000000000 ) ) ;
#244 = DIRECTION ( 'NONE',  ( -1.000000000000000000, -4.956352788507702000E-015, 0.0000000000000000000 ) ) ;
#245 = CARTESIAN_POINT ( 'NONE',  ( -1.790567694115450900E-013, 34.99999999999998600, 0.0000000000000000000 ) ) ;
#246 = DIRECTION ( 'NONE',  ( -5.115907697472721100E-015, 1.000000000000000000, -0.0000000000000000000 ) ) ;
#247 = DIRECTION ( 'NONE',  ( -1.000000000000000000, -5.421010862426824000E-015, 0.0000000000000000000 ) ) ;
#248 = CARTESIAN_POINT ( 'NONE',  ( -1.785451786417976500E-013, 34.89999999999994200, 0.0000000000000000000 ) ) ;
#249 = DIRECTION ( 'NONE',  ( -5.115907697472721100E-015, 1.000000000000000000, -0.0000000000000000000 ) ) ;
#250 = DIRECTION ( 'NONE',  ( -1.000000000000000000, -5.337610695312546900E-015, 0.0000000000000000000 ) ) ;
#251 = CARTESIAN_POINT ( 'NONE',  ( -6.966860490746001500E-014, 13.61803398874390100, 0.0000000000000000000 ) ) ;
#252 = DIRECTION ( 'NONE',  ( -5.115907697472721100E-015, 1.000000000000000000, -0.0000000000000000000 ) ) ;
#253 = DIRECTION ( 'NONE',  ( -1.000000000000000000, -5.070730160547003500E-015, 0.0000000000000000000 ) ) ;
#254 = CARTESIAN_POINT ( 'NONE',  ( -5.250932884023608700E-014, 10.26393202249836800, 0.0000000000000000000 ) ) ;
#255 = DIRECTION ( 'NONE',  ( -5.115907697472721100E-015, 1.000000000000000000, -0.0000000000000000000 ) ) ;
#256 = DIRECTION ( 'NONE',  ( -1.000000000000000000, -5.204170427926972400E-015, 0.0000000000000000000 ) ) ;
#257 = CARTESIAN_POINT ( 'NONE',  ( -2.341730147618923600E-014, 4.577350269192217900, 0.0000000000000000000 ) ) ;
#258 = DIRECTION ( 'NONE',  ( -5.115907697472721100E-015, 1.000000000000000000, -0.0000000000000000000 ) ) ;
#259 = DIRECTION ( 'NONE',  ( -1.000000000000000000, -5.030698080330694300E-015, 0.0000000000000000000 ) ) ;
#260 = CARTESIAN_POINT ( 'NONE',  ( -2.953670686297064400E-015, 0.5773502691919646400, 0.0000000000000000000 ) ) ;
#261 = DIRECTION ( 'NONE',  ( -5.115907697472721100E-015, 1.000000000000000000, -0.0000000000000000000 ) ) ;
#262 = DIRECTION ( 'NONE',  ( -1.000000000000000000, -5.095750210672768200E-015, 0.0000000000000000000 ) ) ;
#263 = CARTESIAN_POINT ( 'NONE',  ( -2.953670686297064400E-015, 0.5773502691919646400, 0.0000000000000000000 ) ) ;
#264 = LINE ( 'NONE', #265, #41 ) ;
#265 = CARTESIAN_POINT ( 'NONE',  ( 0.0000000000000000000, -2.522337235784670700E-043, 0.0000000000000000000 ) ) ;
#266 = DIRECTION ( 'NONE',  ( -0.8660254037839509900, 0.5000000000008446600, 0.0000000000000000000 ) ) ;
#267 = LINE ( 'NONE', #268, #43 ) ;
#268 = CARTESIAN_POINT ( 'NONE',  ( 9.860761315262647600E-029, 2.522337235784670700E-043, 6.037974890946223200E-045 ) ) ;
#269 = DIRECTION ( 'NONE',  ( 0.8660254037839458800, 0.5000000000008535400, 1.060575238724306500E-016 ) ) ;
#270 = LINE ( 'NONE', #271, #44 ) ;
#271 = CARTESIAN_POINT ( 'NONE',  ( -1.000000000001789700, 0.5773502691919595300, 0.0000000000000000000 ) ) ;
#272 = DIRECTION ( 'NONE',  ( -0.7071067811865505700, 0.7071067811865444600, 0.0000000000000000000 ) ) ;
#273 = DIRECTION ( 'NONE',  ( -5.115907697472721100E-015, 1.000000000000000000, -0.0000000000000000000 ) ) ;
#274 = DIRECTION ( 'NONE',  ( -1.000000000000000000, -5.095750210672768200E-015, 0.0000000000000000000 ) ) ;
#275 = CARTESIAN_POINT ( 'NONE',  ( -2.341730147618923600E-014, 4.577350269192217900, 0.0000000000000000000 ) ) ;
#276 = LINE ( 'NONE', #277, #46 ) ;
#277 = CARTESIAN_POINT ( 'NONE',  ( 1.000000000001783500, 0.5773502691919697400, 1.224646799149541300E-016 ) ) ;
#278 = DIRECTION ( 'NONE',  ( 0.7071067811865432400, 0.7071067811865517900, 8.659560562354925500E-017 ) ) ;
#279 = LINE ( 'NONE', #280, #48 ) ;
#280 = CARTESIAN_POINT ( 'NONE',  ( -5.000000000003057100, 74.99999999999998600, 0.0000000000000000000 ) ) ;
#281 = DIRECTION ( 'NONE',  ( -5.115907697472721100E-015, 1.000000000000000000, -0.0000000000000000000 ) ) ;
#282 = DIRECTION ( 'NONE',  ( -5.115907697472721100E-015, 1.000000000000000000, -0.0000000000000000000 ) ) ;
#283 = DIRECTION ( 'NONE',  ( -1.000000000000000000, -5.030698080330694300E-015, 0.0000000000000000000 ) ) ;
#284 = CARTESIAN_POINT ( 'NONE',  ( -3.836930773104541000E-013, 75.00000000000001400, 0.0000000000000000000 ) ) ;
#285 = LINE ( 'NONE', #286, #70 ) ;
#286 = CARTESIAN_POINT ( 'NONE',  ( 5.000000000002290600, 75.00000000000004300, 6.123233995740041000E-016 ) ) ;
#287 = DIRECTION ( 'NONE',  ( -5.115907697472721100E-015, 1.000000000000000000, -0.0000000000000000000 ) ) ;
#288 = LINE ( 'NONE', #289, #65 ) ;
#289 = CARTESIAN_POINT ( 'NONE',  ( -5.000000000003367100, 10.26393202249834100, 0.0000000000000000000 ) ) ;
#290 = DIRECTION ( 'NONE',  ( -0.4082482904637074700, 0.9128709291753462900, 0.0000000000000000000 ) ) ;
#291 = DIRECTION ( 'NONE',  ( -5.115907697472721100E-015, 1.000000000000000000, -0.0000000000000000000 ) ) ;
#292 = DIRECTION ( 'NONE',  ( -1.000000000000000000, -5.551115123128910500E-015, 0.0000000000000000000 ) ) ;
#293 = CARTESIAN_POINT ( 'NONE',  ( -3.826698957709594700E-013, 74.79999999999999700, 0.0000000000000000000 ) ) ;
#294 = DIRECTION ( 'NONE',  ( 5.115907697472721100E-015, -1.000000000000000000, 0.0000000000000000000 ) ) ;
#295 = DIRECTION ( 'NONE',  ( 1.000000000000000000, 5.551115123128828500E-015, 0.0000000000000000000 ) ) ;
#296 = LINE ( 'NONE', #297, #68 ) ;
#297 = CARTESIAN_POINT ( 'NONE',  ( 6.500000000000682100, 34.89999999999997700, 0.0000000000000000000 ) ) ;
#298 = DIRECTION ( 'NONE',  ( 0.7071067811865482400, -0.7071067811865469100, 0.0000000000000000000 ) ) ;
#299 = CARTESIAN_POINT ( 'NONE',  ( -6.966860490746001500E-014, 13.61803398874390100, 0.0000000000000000000 ) ) ;
#300 = LINE ( 'NONE', #301, #78 ) ;
#301 = CARTESIAN_POINT ( 'NONE',  ( 6.500000000000422800, 75.00000000000004300, 7.960204194458783500E-016 ) ) ;
#302 = DIRECTION ( 'NONE',  ( -5.115907697472721100E-015, 1.000000000000000000, -0.0000000000000000000 ) ) ;
#303 = DIRECTION ( 'NONE',  ( -5.115907697472721100E-015, 1.000000000000000000, -0.0000000000000000000 ) ) ;
#304 = DIRECTION ( 'NONE',  ( -1.000000000000000000, -5.070730160547003500E-015, 0.0000000000000000000 ) ) ;
#305 = CARTESIAN_POINT ( 'NONE',  ( -1.790567694115450900E-013, 34.99999999999998600, 0.0000000000000000000 ) ) ;
#306 = LINE ( 'NONE', #307, #76 ) ;
#307 = CARTESIAN_POINT ( 'NONE',  ( -6.500000000001190200, 74.99999999999998600, 0.0000000000000000000 ) ) ;
#308 = DIRECTION ( 'NONE',  ( -5.115907697472721100E-015, 1.000000000000000000, -0.0000000000000000000 ) ) ;
#309 = LINE ( 'NONE', #310, #72 ) ;
#310 = CARTESIAN_POINT ( 'NONE',  ( 5.000000000003261400, 10.26393202249839300, 6.123233995740825000E-016 ) ) ;
#311 = DIRECTION ( 'NONE',  ( 0.4082482904636981500, 0.9128709291753505100, 4.999599621737525700E-017 ) ) ;
#312 = LINE ( 'NONE', #313, #75 ) ;
#313 = CARTESIAN_POINT ( 'NONE',  ( -5.599999999997310200, 34.99999999999988600, 0.0000000000000000000 ) ) ;
#314 = DIRECTION ( 'NONE',  ( -0.8660254037844725700, 0.4999999999999409900, 0.0000000000000000000 ) ) ;
#315 = LINE ( 'NONE', #316, #85 ) ;
#316 = CARTESIAN_POINT ( 'NONE',  ( -6.500000000001040100, 34.89999999999991300, 7.960204194458849600E-016 ) ) ;
#317 = DIRECTION ( 'NONE',  ( -0.7071067811865408000, -0.7071067811865541200, 8.659560562354895900E-017 ) ) ;
#318 = DIRECTION ( 'NONE',  ( -5.115907697472721100E-015, 1.000000000000000000, -0.0000000000000000000 ) ) ;
#319 = DIRECTION ( 'NONE',  ( -1.000000000000000000, -5.421010862426824000E-015, 0.0000000000000000000 ) ) ;
#320 = CARTESIAN_POINT ( 'NONE',  ( -1.785451786417976500E-013, 34.89999999999994200, 0.0000000000000000000 ) ) ;
#321 = DIRECTION ( 'NONE',  ( -5.115907697472721100E-015, 1.000000000000000000, -0.0000000000000000000 ) ) ;
#322 = DIRECTION ( 'NONE',  ( -1.000000000000000000, -5.337610695312546900E-015, 0.0000000000000000000 ) ) ;
#323 = CARTESIAN_POINT ( 'NONE',  ( 4.799999999996885000, 75.00000000000000000, 0.0000000000000000000 ) ) ;
#324 = FILL_AREA_STYLE_COLOUR ( '', #99 ) ;
#325 = FILL_AREA_STYLE ('',( #324 ) ) ;
#326 = SURFACE_STYLE_FILL_AREA ( #325 ) ;
#327 = SURFACE_SIDE_STYLE ('',( #326 ) ) ;
#328 = SURFACE_STYLE_USAGE ( .BOTH. , #327 ) ;
#329 = PRESENTATION_STYLE_ASSIGNMENT (( #328 ) ) ;
#330 =( LENGTH_UNIT ( ) NAMED_UNIT ( * ) SI_UNIT ( .MILLI., .METRE. ) );
#331 =( NAMED_UNIT ( * ) PLANE_ANGLE_UNIT ( ) SI_UNIT ( $, .RADIAN. ) );
#332 =( NAMED_UNIT ( * ) SI_UNIT ( $, .STERADIAN. ) SOLID_ANGLE_UNIT ( ) );
#333 = CARTESIAN_POINT ( 'NONE',  ( -4.799999999997651500, 74.99999999999994300, 6.000769315818678100E-016 ) ) ;
#334 = CARTESIAN_POINT ( 'NONE',  ( -4.999999999997287500, 34.99999999999988600, 0.0000000000000000000 ) ) ;
#335 = CARTESIAN_POINT ( 'NONE',  ( 0.0000000000000000000, 0.0000000000000000000, 0.0000000000000000000 ) ) ;
#336 = CARTESIAN_POINT ( 'NONE',  ( 1.000000000001783900, 0.5773502691919697400, 1.224646799149541600E-016 ) ) ;
#337 = CARTESIAN_POINT ( 'NONE',  ( -1.000000000001789900, 0.5773502691919595300, 0.0000000000000000000 ) ) ;
#338 = CARTESIAN_POINT ( 'NONE',  ( 5.000000000002009100, 4.577350269192243600, 6.123233995739256100E-016 ) ) ;
#339 = CARTESIAN_POINT ( 'NONE',  ( -5.000000000002057000, 4.577350269192192100, 0.0000000000000000000 ) ) ;
#340 = CARTESIAN_POINT ( 'NONE',  ( 5.000000000003259600, 10.26393202249839300, 6.123233995740804300E-016 ) ) ;
#341 = CARTESIAN_POINT ( 'NONE',  ( -5.000000000003366200, 10.26393202249834100, 0.0000000000000000000 ) ) ;
#342 = CARTESIAN_POINT ( 'NONE',  ( 6.500000000000681200, 13.61803398874393300, 7.960204194458716500E-016 ) ) ;
#343 = CARTESIAN_POINT ( 'NONE',  ( -6.500000000000821600, 13.61803398874386800, 0.0000000000000000000 ) ) ;
#344 = CARTESIAN_POINT ( 'NONE',  ( 6.500000000000682100, 34.89999999999997700, 7.960204194458817100E-016 ) ) ;
#345 = CARTESIAN_POINT ( 'NONE',  ( -6.500000000001039200, 34.89999999999991300, 0.0000000000000000000 ) ) ;
#346 = CARTESIAN_POINT ( 'NONE',  ( 6.400000000000646100, 35.00000000000001400, 0.0000000000000000000 ) ) ;
#347 = CARTESIAN_POINT ( 'NONE',  ( -6.400000000001003100, 34.99999999999995000, 7.898971854501460100E-016 ) ) ;
#348 = CARTESIAN_POINT ( 'NONE',  ( -5.599999999997308500, 34.99999999999988600, 0.0000000000000000000 ) ) ;
#349 = CARTESIAN_POINT ( 'NONE',  ( 5.599999999996955000, 34.99999999999994300, 6.858022075221667100E-016 ) ) ;
#350 = CARTESIAN_POINT ( 'NONE',  ( -5.299999999997274000, 34.82679491924300000, 0.0000000000000000000 ) ) ;
#351 = CARTESIAN_POINT ( 'NONE',  ( 5.299999999996918700, 34.82679491924305600, 6.674325055349541100E-016 ) ) ;
#352 = CARTESIAN_POINT ( 'NONE',  ( 4.999999999996875400, 74.80000000000002600, 6.123233995733362300E-016 ) ) ;
#353 = CARTESIAN_POINT ( 'NONE',  ( -4.999999999997639200, 74.79999999999996900, 0.0000000000000000000 ) ) ;
#354 = CARTESIAN_POINT ( 'NONE',  ( 4.999999999996930500, 34.99999999999994300, 6.306931015605321700E-016 ) ) ;
#355 =( LENGTH_UNIT ( ) NAMED_UNIT ( * ) SI_UNIT ( .MILLI., .METRE. ) );
#356 =( NAMED_UNIT ( * ) PLANE_ANGLE_UNIT ( ) SI_UNIT ( $, .RADIAN. ) );
#357 =( NAMED_UNIT ( * ) SI_UNIT ( $, .STERADIAN. ) SOLID_ANGLE_UNIT ( ) );
#358 = APPLICATION_PROTOCOL_DEFINITION ( 'draft international standard', 'automotive_design', 1998, #87 ) ;
#359 = FILL_AREA_STYLE_COLOUR ( '', #98 ) ;
#360 = FILL_AREA_STYLE ('',( #359 ) ) ;
#361 = SURFACE_STYLE_FILL_AREA ( #360 ) ;
#362 = SURFACE_SIDE_STYLE ('',( #361 ) ) ;
#363 = SURFACE_STYLE_USAGE ( .BOTH. , #362 ) ;
#364 = PRESENTATION_STYLE_ASSIGNMENT (( #363 ) ) ;
#365 =( LENGTH_UNIT ( ) NAMED_UNIT ( * ) SI_UNIT ( .MILLI., .METRE. ) );
#366 =( NAMED_UNIT ( * ) PLANE_ANGLE_UNIT ( ) SI_UNIT ( $, .RADIAN. ) );
#367 =( NAMED_UNIT ( * ) SI_UNIT ( $, .STERADIAN. ) SOLID_ANGLE_UNIT ( ) );
#368 = CARTESIAN_POINT ( 'NONE',  ( 0.0000000000000000000, 0.0000000000000000000, 0.0000000000000000000 ) ) ;
#369 = DIRECTION ( 'NONE',  ( 0.0000000000000000000, 0.0000000000000000000, 1.000000000000000000 ) ) ;
#370 = DIRECTION ( 'NONE',  ( 1.000000000000000000, 0.0000000000000000000, 0.0000000000000000000 ) ) ;
#371 = SHAPE_DEFINITION_REPRESENTATION ( #435, #95 ) ;
#372 = PRODUCT_CONTEXT ( 'NONE', #87, 'mechanical' ) ;
#373 = APPLICATION_PROTOCOL_DEFINITION ( 'draft international standard', 'automotive_design', 1998, #88 ) ;
#374 = CLOSED_SHELL ( 'NONE', ( #157, #156, #159, #158, #162, #161, #160, #163, #164, #165, #166, #167, #168, #169, #138, #137, #141, #140, #139, #190, #191, #170 ) ) ;
#375 = VECTOR ( 'NONE', #60, 1000.000000000000100 ) ;
#376 = FACE_OUTER_BOUND ( 'NONE', #477, .T. ) ;
#377 = VECTOR ( 'NONE', #411, 1000.000000000000000 ) ;
#378 = AXIS2_PLACEMENT_3D ( 'NONE', #408, #59, #58 ) ;
#379 = AXIS2_PLACEMENT_3D ( 'NONE', #414, #410, #409 ) ;
#380 = FACE_OUTER_BOUND ( 'NONE', #454, .T. ) ;
#381 = AXIS2_PLACEMENT_3D ( 'NONE', #420, #419, #418 ) ;
#382 = VECTOR ( 'NONE', #423, 1000.000000000000000 ) ;
#383 = AXIS2_PLACEMENT_3D ( 'NONE', #417, #416, #415 ) ;
#384 = VECTOR ( 'NONE', #426, 1000.000000000000100 ) ;
#385 = AXIS2_PLACEMENT_3D ( 'NONE', #429, #422, #421 ) ;
#386 = FACE_OUTER_BOUND ( 'NONE', #439, .T. ) ;
#387 = AXIS2_PLACEMENT_3D ( 'NONE', #432, #431, #430 ) ;
#388 = AXIS2_PLACEMENT_3D ( 'NONE', #566, #434, #433 ) ;
#389 = AXIS2_PLACEMENT_3D ( 'NONE', #569, #568, #567 ) ;
#390 = VECTOR ( 'NONE', #572, 1000.000000000000100 ) ;
#391 = AXIS2_PLACEMENT_3D ( 'NONE', #575, #571, #570 ) ;
#392 = AXIS2_PLACEMENT_3D ( 'NONE', #581, #580, #579 ) ;
#393 = AXIS2_PLACEMENT_3D ( 'NONE', #578, #577, #576 ) ;
#394 = FACE_OUTER_BOUND ( 'NONE', #452, .T. ) ;
#395 = AXIS2_PLACEMENT_3D ( 'NONE', #585, #584, #583 ) ;
#396 = FACE_BOUND ( 'NONE', #451, .T. ) ;
#397 = AXIS2_PLACEMENT_3D ( 'NONE', #588, #587, #586 ) ;
#398 = FACE_OUTER_BOUND ( 'NONE', #476, .T. ) ;
#399 = FACE_OUTER_BOUND ( 'NONE', #453, .T. ) ;
#400 = CYLINDRICAL_SURFACE ( 'NONE', #401, 6.500000000000806500 ) ;
#401 = AXIS2_PLACEMENT_3D ( 'NONE', #591, #590, #589 ) ;
#402 = CYLINDRICAL_SURFACE ( 'NONE', #378, 4.999999999997182700 ) ;
#403 = AXIS2_PLACEMENT_3D ( 'NONE', #594, #593, #592 ) ;
#404 = FACE_OUTER_BOUND ( 'NONE', #450, .T. ) ;
#405 = FACE_OUTER_BOUND ( 'NONE', #449, .T. ) ;
#406 = PRODUCT ( '99688-SI10-10+S9MT1003-090', '99688-SI10-10+S9MT1003-090', '', ( #372 ) ) ;
#407 = DIRECTION ( 'NONE',  ( -1.000000000000000000, -5.204170427926971600E-015, 0.0000000000000000000 ) ) ;
#408 = CARTESIAN_POINT ( 'NONE',  ( -3.836930773104541000E-013, 75.00000000000001400, 0.0000000000000000000 ) ) ;
#409 = DIRECTION ( 'NONE',  ( 1.000000000000000000, 0.0000000000000000000, 1.224646799147354900E-016 ) ) ;
#410 = DIRECTION ( 'NONE',  ( -1.224646799147353200E-016, -6.265179986443274100E-031, 1.000000000000000000 ) ) ;
#411 = DIRECTION ( 'NONE',  ( -5.115907697472721100E-015, 1.000000000000000000, -0.0000000000000000000 ) ) ;
#412 = CARTESIAN_POINT ( 'NONE',  ( -4.999999999997566400, 74.99999999999998600, 0.0000000000000000000 ) ) ;
#413 = LINE ( 'NONE', #412, #377 ) ;
#414 = CARTESIAN_POINT ( 'NONE',  ( 5.199999999996930600, 34.99999999999995000, 6.368163355562697400E-016 ) ) ;
#415 = DIRECTION ( 'NONE',  ( -1.000000000000000000, -5.551115123128992600E-015, 0.0000000000000000000 ) ) ;
#416 = DIRECTION ( 'NONE',  ( -5.115907697472721100E-015, 1.000000000000000000, -0.0000000000000000000 ) ) ;
#417 = CARTESIAN_POINT ( 'NONE',  ( -1.790567694115447600E-013, 34.99999999999991500, 0.0000000000000000000 ) ) ;
#418 = DIRECTION ( 'NONE',  ( -1.000000000000000000, -5.551115123128828500E-015, 0.0000000000000000000 ) ) ;
#419 = DIRECTION ( 'NONE',  ( -5.115907697472721100E-015, 1.000000000000000000, -0.0000000000000000000 ) ) ;
#420 = CARTESIAN_POINT ( 'NONE',  ( -3.826698957709594700E-013, 74.79999999999999700, 0.0000000000000000000 ) ) ;
#421 = DIRECTION ( 'NONE',  ( -1.000000000000000000, -5.236901059555494400E-015, 0.0000000000000000000 ) ) ;
#422 = DIRECTION ( 'NONE',  ( -5.115907697472721100E-015, 1.000000000000000000, -0.0000000000000000000 ) ) ;
#423 = DIRECTION ( 'NONE',  ( -5.115907697472721100E-015, 1.000000000000000000, -0.0000000000000000000 ) ) ;
#424 = CARTESIAN_POINT ( 'NONE',  ( 4.999999999996799900, 75.00000000000004300, 6.123233995733316000E-016 ) ) ;
#425 = LINE ( 'NONE', #424, #382 ) ;
#426 = DIRECTION ( 'NONE',  ( -0.7071067811865622300, -0.7071067811865327000, 8.659560562355159700E-017 ) ) ;
#427 = CARTESIAN_POINT ( 'NONE',  ( -4.999999999997639200, 74.79999999999996900, 6.123233995733405700E-016 ) ) ;
#428 = LINE ( 'NONE', #427, #384 ) ;
#429 = CARTESIAN_POINT ( 'NONE',  ( -1.781706682056592400E-013, 34.82679491924302800, 0.0000000000000000000 ) ) ;
#430 = DIRECTION ( 'NONE',  ( -1.000000000000000000, -5.782411586592647600E-015, 0.0000000000000000000 ) ) ;
#431 = DIRECTION ( 'NONE',  ( -5.115907697472721100E-015, 1.000000000000000000, -0.0000000000000000000 ) ) ;
#432 = CARTESIAN_POINT ( 'NONE',  ( -3.836930773104539000E-013, 74.99999999999997200, 0.0000000000000000000 ) ) ;
#433 = DIRECTION ( 'NONE',  ( -1.000000000000000000, 0.0000000000000000000, 0.0000000000000000000 ) ) ;
#434 = DIRECTION ( 'NONE',  ( 0.0000000000000000000, -0.0000000000000000000, -1.000000000000000000 ) ) ;
#435 = PRODUCT_DEFINITION_SHAPE ( 'NONE', 'NONE',  #96 ) ;
#436 = MANIFOLD_SOLID_BREP ( '±ÛÂà1', #374 ) ;
#437 = PRODUCT_DEFINITION_CONTEXT ( 'detailed design', #88, 'design' ) ;
#438 = EDGE_LOOP ( 'NONE', ( #562, #564, #563, #565 ) ) ;
#439 = EDGE_LOOP ( 'NONE', ( #461, #468, #466, #460 ) ) ;
#440 = EDGE_LOOP ( 'NONE', ( #553, #555, #554, #556 ) ) ;
#441 = EDGE_LOOP ( 'NONE', ( #558, #536, #595, #535 ) ) ;
#442 = EDGE_LOOP ( 'NONE', ( #534, #532, #533, #531 ) ) ;
#443 = EDGE_LOOP ( 'NONE', ( #530, #528, #529, #527 ) ) ;
#444 = EDGE_LOOP ( 'NONE', ( #526, #524, #525 ) ) ;
#445 = EDGE_LOOP ( 'NONE', ( #523, #522, #521 ) ) ;
#446 = EDGE_LOOP ( 'NONE', ( #519, #518, #517, #520 ) ) ;
#447 = EDGE_LOOP ( 'NONE', ( #515, #514, #513, #516 ) ) ;
#448 = EDGE_LOOP ( 'NONE', ( #511, #510, #509, #512 ) ) ;
#449 = EDGE_LOOP ( 'NONE', ( #507, #506, #505, #508 ) ) ;
#450 = EDGE_LOOP ( 'NONE', ( #503, #502, #504, #500 ) ) ;
#451 = EDGE_LOOP ( 'NONE', ( #499, #497 ) ) ;
#452 = EDGE_LOOP ( 'NONE', ( #501, #496 ) ) ;
#453 = EDGE_LOOP ( 'NONE', ( #495, #494, #498, #492 ) ) ;
#454 = EDGE_LOOP ( 'NONE', ( #491, #490, #489, #493 ) ) ;
#455 = EDGE_LOOP ( 'NONE', ( #487, #486, #485, #488 ) ) ;
#456 = EDGE_LOOP ( 'NONE', ( #483, #482, #484, #481 ) ) ;
#457 = EDGE_LOOP ( 'NONE', ( #480, #479 ) ) ;
#458 = ORIENTED_EDGE ( 'NONE', *, *, #149, .T. ) ;
#459 = ORIENTED_EDGE ( 'NONE', *, *, #147, .F. ) ;
#460 = ORIENTED_EDGE ( 'NONE', *, *, #197, .F. ) ;
#461 = ORIENTED_EDGE ( 'NONE', *, *, #150, .F. ) ;
#462 = ORIENTED_EDGE ( 'NONE', *, *, #151, .F. ) ;
#463 = ORIENTED_EDGE ( 'NONE', *, *, #148, .T. ) ;
#464 = ORIENTED_EDGE ( 'NONE', *, *, #143, .F. ) ;
#465 = ORIENTED_EDGE ( 'NONE', *, *, #150, .T. ) ;
#466 = ORIENTED_EDGE ( 'NONE', *, *, #145, .T. ) ;
#467 = ORIENTED_EDGE ( 'NONE', *, *, #144, .T. ) ;
#468 = ORIENTED_EDGE ( 'NONE', *, *, #155, .T. ) ;
#469 = ORIENTED_EDGE ( 'NONE', *, *, #146, .F. ) ;
#470 = ORIENTED_EDGE ( 'NONE', *, *, #154, .T. ) ;
#471 = ORIENTED_EDGE ( 'NONE', *, *, #152, .F. ) ;
#472 = ORIENTED_EDGE ( 'NONE', *, *, #151, .T. ) ;
#473 = ORIENTED_EDGE ( 'NONE', *, *, #153, .F. ) ;
#474 = VERTEX_POINT ( 'NONE', #323 ) ;
#475 = VERTEX_POINT ( 'NONE', #333 ) ;
#476 = EDGE_LOOP ( 'NONE', ( #467, #458, #462, #473 ) ) ;
#477 = EDGE_LOOP ( 'NONE', ( #459, #463, #472, #464 ) ) ;
#478 = VERTEX_POINT ( 'NONE', #334 ) ;
#479 = ORIENTED_EDGE ( 'NONE', *, *, #147, .T. ) ;
#480 = ORIENTED_EDGE ( 'NONE', *, *, #171, .T. ) ;
#481 = ORIENTED_EDGE ( 'NONE', *, *, #172, .T. ) ;
#482 = ORIENTED_EDGE ( 'NONE', *, *, #171, .F. ) ;
#483 = ORIENTED_EDGE ( 'NONE', *, *, #148, .F. ) ;
#484 = ORIENTED_EDGE ( 'NONE', *, *, #143, .T. ) ;
#485 = ORIENTED_EDGE ( 'NONE', *, *, #153, .T. ) ;
#486 = ORIENTED_EDGE ( 'NONE', *, *, #152, .T. ) ;
#487 = ORIENTED_EDGE ( 'NONE', *, *, #149, .F. ) ;
#488 = ORIENTED_EDGE ( 'NONE', *, *, #172, .F. ) ;
#489 = ORIENTED_EDGE ( 'NONE', *, *, #146, .T. ) ;
#490 = ORIENTED_EDGE ( 'NONE', *, *, #144, .F. ) ;
#491 = ORIENTED_EDGE ( 'NONE', *, *, #154, .F. ) ;
#492 = ORIENTED_EDGE ( 'NONE', *, *, #174, .T. ) ;
#493 = ORIENTED_EDGE ( 'NONE', *, *, #173, .T. ) ;
#494 = ORIENTED_EDGE ( 'NONE', *, *, #173, .F. ) ;
#495 = ORIENTED_EDGE ( 'NONE', *, *, #155, .F. ) ;
#496 = ORIENTED_EDGE ( 'NONE', *, *, #199, .T. ) ;
#497 = ORIENTED_EDGE ( 'NONE', *, *, #145, .F. ) ;
#498 = ORIENTED_EDGE ( 'NONE', *, *, #197, .T. ) ;
#499 = ORIENTED_EDGE ( 'NONE', *, *, #174, .F. ) ;
#500 = ORIENTED_EDGE ( 'NONE', *, *, #176, .T. ) ;
#501 = ORIENTED_EDGE ( 'NONE', *, *, #175, .T. ) ;
#502 = ORIENTED_EDGE ( 'NONE', *, *, #175, .F. ) ;
#503 = ORIENTED_EDGE ( 'NONE', *, *, #198, .F. ) ;
#504 = ORIENTED_EDGE ( 'NONE', *, *, #192, .T. ) ;
#505 = ORIENTED_EDGE ( 'NONE', *, *, #195, .T. ) ;
#506 = ORIENTED_EDGE ( 'NONE', *, *, #177, .T. ) ;
#507 = ORIENTED_EDGE ( 'NONE', *, *, #193, .F. ) ;
#508 = ORIENTED_EDGE ( 'NONE', *, *, #176, .F. ) ;
#509 = ORIENTED_EDGE ( 'NONE', *, *, #189, .T. ) ;
#510 = ORIENTED_EDGE ( 'NONE', *, *, #178, .T. ) ;
#511 = ORIENTED_EDGE ( 'NONE', *, *, #196, .F. ) ;
#512 = ORIENTED_EDGE ( 'NONE', *, *, #177, .F. ) ;
#513 = ORIENTED_EDGE ( 'NONE', *, *, #186, .T. ) ;
#514 = ORIENTED_EDGE ( 'NONE', *, *, #179, .T. ) ;
#515 = ORIENTED_EDGE ( 'NONE', *, *, #188, .F. ) ;
#516 = ORIENTED_EDGE ( 'NONE', *, *, #178, .F. ) ;
#517 = ORIENTED_EDGE ( 'NONE', *, *, #183, .T. ) ;
#518 = ORIENTED_EDGE ( 'NONE', *, *, #180, .T. ) ;
#519 = ORIENTED_EDGE ( 'NONE', *, *, #185, .F. ) ;
#520 = ORIENTED_EDGE ( 'NONE', *, *, #179, .F. ) ;
#521 = ORIENTED_EDGE ( 'NONE', *, *, #180, .F. ) ;
#522 = ORIENTED_EDGE ( 'NONE', *, *, #181, .T. ) ;
#523 = ORIENTED_EDGE ( 'NONE', *, *, #182, .F. ) ;
#524 = ORIENTED_EDGE ( 'NONE', *, *, #182, .T. ) ;
#525 = ORIENTED_EDGE ( 'NONE', *, *, #184, .F. ) ;
#526 = ORIENTED_EDGE ( 'NONE', *, *, #181, .F. ) ;
#527 = ORIENTED_EDGE ( 'NONE', *, *, #183, .F. ) ;
#528 = ORIENTED_EDGE ( 'NONE', *, *, #185, .T. ) ;
#529 = ORIENTED_EDGE ( 'NONE', *, *, #187, .F. ) ;
#530 = ORIENTED_EDGE ( 'NONE', *, *, #184, .T. ) ;
#531 = ORIENTED_EDGE ( 'NONE', *, *, #186, .F. ) ;
#532 = ORIENTED_EDGE ( 'NONE', *, *, #188, .T. ) ;
#533 = ORIENTED_EDGE ( 'NONE', *, *, #142, .F. ) ;
#534 = ORIENTED_EDGE ( 'NONE', *, *, #187, .T. ) ;
#535 = ORIENTED_EDGE ( 'NONE', *, *, #189, .F. ) ;
#536 = ORIENTED_EDGE ( 'NONE', *, *, #196, .T. ) ;
#537 = VERTEX_POINT ( 'NONE', #335 ) ;
#538 = VERTEX_POINT ( 'NONE', #336 ) ;
#539 = VERTEX_POINT ( 'NONE', #337 ) ;
#540 = VERTEX_POINT ( 'NONE', #338 ) ;
#541 = VERTEX_POINT ( 'NONE', #339 ) ;
#542 = VERTEX_POINT ( 'NONE', #340 ) ;
#543 = VERTEX_POINT ( 'NONE', #341 ) ;
#544 = VERTEX_POINT ( 'NONE', #342 ) ;
#545 = VERTEX_POINT ( 'NONE', #343 ) ;
#546 = VERTEX_POINT ( 'NONE', #344 ) ;
#547 = VERTEX_POINT ( 'NONE', #345 ) ;
#548 = VERTEX_POINT ( 'NONE', #346 ) ;
#549 = VERTEX_POINT ( 'NONE', #347 ) ;
#550 = VERTEX_POINT ( 'NONE', #348 ) ;
#551 = VERTEX_POINT ( 'NONE', #349 ) ;
#552 = VERTEX_POINT ( 'NONE', #350 ) ;
#553 = ORIENTED_EDGE ( 'NONE', *, *, #194, .T. ) ;
#554 = ORIENTED_EDGE ( 'NONE', *, *, #200, .F. ) ;
#555 = ORIENTED_EDGE ( 'NONE', *, *, #193, .T. ) ;
#556 = ORIENTED_EDGE ( 'NONE', *, *, #195, .F. ) ;
#557 = VERTEX_POINT ( 'NONE', #351 ) ;
#558 = ORIENTED_EDGE ( 'NONE', *, *, #142, .T. ) ;
#559 = VERTEX_POINT ( 'NONE', #352 ) ;
#560 = VERTEX_POINT ( 'NONE', #353 ) ;
#561 = VERTEX_POINT ( 'NONE', #354 ) ;
#562 = ORIENTED_EDGE ( 'NONE', *, *, #199, .F. ) ;
#563 = ORIENTED_EDGE ( 'NONE', *, *, #200, .T. ) ;
#564 = ORIENTED_EDGE ( 'NONE', *, *, #198, .T. ) ;
#565 = ORIENTED_EDGE ( 'NONE', *, *, #192, .F. ) ;
#566 = CARTESIAN_POINT ( 'NONE',  ( -5.199999999997288600, 34.99999999999989300, 0.0000000000000000000 ) ) ;
#567 = DIRECTION ( 'NONE',  ( -1.000000000000000000, -4.956352788507702000E-015, 0.0000000000000000000 ) ) ;
#568 = DIRECTION ( 'NONE',  ( -5.115907697472721100E-015, 1.000000000000000000, -0.0000000000000000000 ) ) ;
#569 = CARTESIAN_POINT ( 'NONE',  ( -1.790567694115447600E-013, 34.99999999999991500, 0.0000000000000000000 ) ) ;
#570 = DIRECTION ( 'NONE',  ( -1.000000000000000000, -5.551115123128992600E-015, 0.0000000000000000000 ) ) ;
#571 = DIRECTION ( 'NONE',  ( -5.115907697472721100E-015, 1.000000000000000000, -0.0000000000000000000 ) ) ;
#572 = DIRECTION ( 'NONE',  ( 0.7071067811865696700, -0.7071067811865253700, 0.0000000000000000000 ) ) ;
#573 = CARTESIAN_POINT ( 'NONE',  ( 4.999999999996874500, 74.80000000000002600, 0.0000000000000000000 ) ) ;
#574 = LINE ( 'NONE', #573, #390 ) ;
#575 = CARTESIAN_POINT ( 'NONE',  ( -1.790567694115447600E-013, 34.99999999999991500, 0.0000000000000000000 ) ) ;
#576 = DIRECTION ( 'NONE',  ( -1.000000000000000000, -5.204170427926972400E-015, 0.0000000000000000000 ) ) ;
#577 = DIRECTION ( 'NONE',  ( -5.115907697472721100E-015, 1.000000000000000000, -0.0000000000000000000 ) ) ;
#578 = CARTESIAN_POINT ( 'NONE',  ( -5.250932884023608700E-014, 10.26393202249836800, 0.0000000000000000000 ) ) ;
#579 = DIRECTION ( 'NONE',  ( 1.000000000000000000, 5.115907697472721100E-015, 0.0000000000000000000 ) ) ;
#580 = DIRECTION ( 'NONE',  ( 5.115907697472721100E-015, -1.000000000000000000, 0.0000000000000000000 ) ) ;
#581 = CARTESIAN_POINT ( 'NONE',  ( 5.599999999996953200, 34.99999999999997900, 0.0000000000000000000 ) ) ;
#582 = PLANE ( 'NONE',  #392 ) ;
#583 = DIRECTION ( 'NONE',  ( -1.000000000000000000, -4.956352788507702000E-015, 0.0000000000000000000 ) ) ;
#584 = DIRECTION ( 'NONE',  ( -5.115907697472721100E-015, 1.000000000000000000, -0.0000000000000000000 ) ) ;
#585 = CARTESIAN_POINT ( 'NONE',  ( -1.790567694115447600E-013, 34.99999999999991500, 0.0000000000000000000 ) ) ;
#586 = DIRECTION ( 'NONE',  ( -1.000000000000000000, -5.115907697472721100E-015, 0.0000000000000000000 ) ) ;
#587 = DIRECTION ( 'NONE',  ( -5.115907697472721100E-015, 1.000000000000000000, -0.0000000000000000000 ) ) ;
#588 = CARTESIAN_POINT ( 'NONE',  ( -1.786765180256111300E-013, 34.99999999999992200, 0.0000000000000000000 ) ) ;
#589 = DIRECTION ( 'NONE',  ( -1.000000000000000000, -4.270088556250072600E-015, 0.0000000000000000000 ) ) ;
#590 = DIRECTION ( 'NONE',  ( -5.115907697472721100E-015, 1.000000000000000000, -0.0000000000000000000 ) ) ;
#591 = CARTESIAN_POINT ( 'NONE',  ( -3.836930773104541000E-013, 75.00000000000001400, 0.0000000000000000000 ) ) ;
#592 = DIRECTION ( 'NONE',  ( 1.000000000000000000, 5.337610695312546100E-015, 0.0000000000000000000 ) ) ;
#593 = DIRECTION ( 'NONE',  ( 5.115907697472721100E-015, -1.000000000000000000, 0.0000000000000000000 ) ) ;
#594 = CARTESIAN_POINT ( 'NONE',  ( -1.785451786417976500E-013, 34.89999999999994200, 0.0000000000000000000 ) ) ;
#595 = ORIENTED_EDGE ( 'NONE', *, *, #194, .F. ) ;
#596 = EDGE_LOOP ( 'NONE', ( #471, #470, #465, #469 ) ) ;
ENDSEC;
END-ISO-10303-21;
