ISO-10303-21;
HEADER;
FILE_DESCRIPTION (( 'STEP AP214' ),
    '1' );
FILE_NAME ('99688-SI10-10+S9MT1003-060.STEP',
    '2022-11-03T01:06:59',
    ( 'User' ),
    ( 'GENUINE' ),
    'SwSTEP 2.0',
    'SolidWorks 2012',
    '' );
FILE_SCHEMA (( 'AUTOMOTIVE_DESIGN' ));
ENDSEC;

DATA;
#1 = DIRECTION ( 'NONE',  ( -1.000000000000000000, -5.551115123128992600E-015, 0.0000000000000000000 ) ) ;
#2 = AXIS2_PLACEMENT_3D ( 'NONE', #558, #559, #560 ) ;
#3 = PRODUCT_DEFINITION_FORMATION_WITH_SPECIFIED_SOURCE ( 'ANY', '', #554, .NOT_KNOWN. ) ;
#4 = DIRECTION ( 'NONE',  ( 0.0000000000000000000, -0.0000000000000000000, -1.000000000000000000 ) ) ;
#5 = DIRECTION ( 'NONE',  ( -5.115907697472720400E-015, 1.000000000000000000, -0.0000000000000000000 ) ) ;
#6 = CARTESIAN_POINT ( 'NONE',  ( 4.999999999996799900, 75.00000000000004300, 6.123233995733316000E-016 ) ) ;
#7 = LINE ( 'NONE', #6, #550 ) ;
#8 = DIRECTION ( 'NONE',  ( -0.7071067811865622300, -0.7071067811865327000, 8.659560562355159700E-017 ) ) ;
#9 = CARTESIAN_POINT ( 'NONE',  ( -4.999999999997639200, 74.79999999999996900, 6.123233995733405700E-016 ) ) ;
#10 = LINE ( 'NONE', #9, #552 ) ;
#11 = DIRECTION ( 'NONE',  ( 0.8660254037844674600, 0.4999999999999498700, 1.060575238724945400E-016 ) ) ;
#12 = CARTESIAN_POINT ( 'NONE',  ( 5.599999999996953200, 34.99999999999994300, 6.858022075221665200E-016 ) ) ;
#13 = LINE ( 'NONE', #12, #542 ) ;
#14 = CARTESIAN_POINT ( 'NONE',  ( -5.199999999997288600, 34.99999999999989300, 0.0000000000000000000 ) ) ;
#15 = DIRECTION ( 'NONE',  ( -1.000000000000000000, -5.236901059555494400E-015, 0.0000000000000000000 ) ) ;
#16 = DIRECTION ( 'NONE',  ( -5.115907697472720400E-015, 1.000000000000000000, -0.0000000000000000000 ) ) ;
#17 = CARTESIAN_POINT ( 'NONE',  ( -1.781706682056592600E-013, 34.82679491924302800, 0.0000000000000000000 ) ) ;
#18 = DIRECTION ( 'NONE',  ( -1.000000000000000000, 0.0000000000000000000, 0.0000000000000000000 ) ) ;
#19 = VECTOR ( 'NONE', #322, 1000.000000000000100 ) ;
#20 = VECTOR ( 'NONE', #325, 1000.000000000000100 ) ;
#21 = VECTOR ( 'NONE', #316, 1000.000000000000000 ) ;
#22 = AXIS2_PLACEMENT_3D ( 'NONE', #313, #317, #318 ) ;
#23 = FACE_OUTER_BOUND ( 'NONE', #728, .T. ) ;
#24 = VECTOR ( 'NONE', #289, 1000.000000000000100 ) ;
#25 = MECHANICAL_DESIGN_GEOMETRIC_PRESENTATION_REPRESENTATION (  '', ( #43 ), #750 ) ;
#26 = MECHANICAL_DESIGN_GEOMETRIC_PRESENTATION_REPRESENTATION (  '', ( #31 ), #752 ) ;
#27 = VECTOR ( 'NONE', #310, 1000.000000000000000 ) ;
#28 = PRESENTATION_LAYER_ASSIGNMENT (  '', '', ( #43 ) ) ;
#29 = FACE_OUTER_BOUND ( 'NONE', #729, .T. ) ;
#30 = AXIS2_PLACEMENT_3D ( 'NONE', #286, #290, #291 ) ;
#31 = STYLED_ITEM ( 'NONE', ( #374 ), #379 ) ;
#32 = PRESENTATION_LAYER_ASSIGNMENT (  '', '', ( #31 ) ) ;
#33 = VECTOR ( 'NONE', #283, 1000.000000000000100 ) ;
#34 = AXIS2_PLACEMENT_3D ( 'NONE', #292, #293, #294 ) ;
#35 = AXIS2_PLACEMENT_3D ( 'NONE', #304, #311, #312 ) ;
#36 = VECTOR ( 'NONE', #307, 999.9999999999998900 ) ;
#37 = AXIS2_PLACEMENT_3D ( 'NONE', #277, #278, #279 ) ;
#38 = AXIS2_PLACEMENT_3D ( 'NONE', #295, #296, #297 ) ;
#39 = AXIS2_PLACEMENT_3D ( 'NONE', #274, #275, #276 ) ;
#40 = AXIS2_PLACEMENT_3D ( 'NONE', #298, #299, #300 ) ;
#41 = AXIS2_PLACEMENT_3D ( 'NONE', #301, #302, #303 ) ;
#42 = VECTOR ( 'NONE', #268, 1000.000000000000000 ) ;
#43 = STYLED_ITEM ( 'NONE', ( #333 ), #599 ) ;
#44 = FACE_OUTER_BOUND ( 'NONE', #722, .T. ) ;
#45 = AXIS2_PLACEMENT_3D ( 'NONE', #163, #164, #165 ) ;
#46 = AXIS2_PLACEMENT_3D ( 'NONE', #265, #269, #270 ) ;
#47 = AXIS2_PLACEMENT_3D ( 'NONE', #262, #263, #264 ) ;
#48 = FACE_OUTER_BOUND ( 'NONE', #596, .T. ) ;
#49 = VECTOR ( 'NONE', #259, 1000.000000000000000 ) ;
#50 = AXIS2_PLACEMENT_3D ( 'NONE', #253, #254, #255 ) ;
#51 = AXIS2_PLACEMENT_3D ( 'NONE', #256, #260, #261 ) ;
#52 = AXIS2_PLACEMENT_3D ( 'NONE', #319, #326, #327 ) ;
#53 = VECTOR ( 'NONE', #247, 999.9999999999998900 ) ;
#54 = AXIS2_PLACEMENT_3D ( 'NONE', #166, #167, #168 ) ;
#55 = AXIS2_PLACEMENT_3D ( 'NONE', #172, #173, #174 ) ;
#56 = CYLINDRICAL_SURFACE ( 'NONE', #55, 4.999999999997182700 ) ;
#57 = AXIS2_PLACEMENT_3D ( 'NONE', #271, #272, #273 ) ;
#58 = FACE_OUTER_BOUND ( 'NONE', #719, .T. ) ;
#59 = AXIS2_PLACEMENT_3D ( 'NONE', #244, #248, #249 ) ;
#60 = VECTOR ( 'NONE', #241, 999.9999999999998900 ) ;
#61 = AXIS2_PLACEMENT_3D ( 'NONE', #250, #251, #252 ) ;
#62 = VECTOR ( 'NONE', #238, 1000.000000000000000 ) ;
#63 = AXIS2_PLACEMENT_3D ( 'NONE', #169, #170, #171 ) ;
#64 = AXIS2_PLACEMENT_3D ( 'NONE', #232, #242, #243 ) ;
#65 = VECTOR ( 'NONE', #235, 1000.000000000000000 ) ;
#66 = FACE_OUTER_BOUND ( 'NONE', #731, .T. ) ;
#67 = FACE_OUTER_BOUND ( 'NONE', #597, .T. ) ;
#68 = AXIS2_PLACEMENT_3D ( 'NONE', #229, #230, #231 ) ;
#69 = FACE_OUTER_BOUND ( 'NONE', #734, .T. ) ;
#70 = AXIS2_PLACEMENT_3D ( 'NONE', #226, #227, #228 ) ;
#71 = AXIS2_PLACEMENT_3D ( 'NONE', #223, #224, #225 ) ;
#72 = AXIS2_PLACEMENT_3D ( 'NONE', #220, #221, #222 ) ;
#73 = AXIS2_PLACEMENT_3D ( 'NONE', #217, #218, #219 ) ;
#74 = AXIS2_PLACEMENT_3D ( 'NONE', #154, #155, #156 ) ;
#75 = AXIS2_PLACEMENT_3D ( 'NONE', #214, #215, #216 ) ;
#76 = AXIS2_PLACEMENT_3D ( 'NONE', #211, #212, #213 ) ;
#77 = AXIS2_PLACEMENT_3D ( 'NONE', #280, #284, #285 ) ;
#78 = AXIS2_PLACEMENT_3D ( 'NONE', #202, #203, #204 ) ;
#79 = AXIS2_PLACEMENT_3D ( 'NONE', #208, #209, #210 ) ;
#80 = AXIS2_PLACEMENT_3D ( 'NONE', #199, #200, #201 ) ;
#81 = FACE_OUTER_BOUND ( 'NONE', #733, .T. ) ;
#82 = AXIS2_PLACEMENT_3D ( 'NONE', #205, #206, #207 ) ;
#83 = AXIS2_PLACEMENT_3D ( 'NONE', #151, #152, #153 ) ;
#84 = FACE_OUTER_BOUND ( 'NONE', #727, .T. ) ;
#85 = CYLINDRICAL_SURFACE ( 'NONE', #86, 5.000000000004763300 ) ;
#86 = AXIS2_PLACEMENT_3D ( 'NONE', #196, #197, #198 ) ;
#87 = AXIS2_PLACEMENT_3D ( 'NONE', #193, #194, #195 ) ;
#88 = FACE_OUTER_BOUND ( 'NONE', #598, .T. ) ;
#89 = AXIS2_PLACEMENT_3D ( 'NONE', #190, #191, #192 ) ;
#90 = AXIS2_PLACEMENT_3D ( 'NONE', #157, #158, #159 ) ;
#91 = CYLINDRICAL_SURFACE ( 'NONE', #97, 5.000000000004763300 ) ;
#92 = FACE_OUTER_BOUND ( 'NONE', #724, .T. ) ;
#93 = AXIS2_PLACEMENT_3D ( 'NONE', #187, #188, #189 ) ;
#94 = FACE_OUTER_BOUND ( 'NONE', #726, .T. ) ;
#95 = FACE_OUTER_BOUND ( 'NONE', #723, .T. ) ;
#96 = CYLINDRICAL_SURFACE ( 'NONE', #99, 6.500000000000806500 ) ;
#97 = AXIS2_PLACEMENT_3D ( 'NONE', #160, #161, #162 ) ;
#98 = FACE_OUTER_BOUND ( 'NONE', #732, .T. ) ;
#99 = AXIS2_PLACEMENT_3D ( 'NONE', #184, #185, #186 ) ;
#100 = AXIS2_PLACEMENT_3D ( 'NONE', #181, #182, #183 ) ;
#101 = FACE_OUTER_BOUND ( 'NONE', #721, .T. ) ;
#102 = AXIS2_PLACEMENT_3D ( 'NONE', #178, #179, #180 ) ;
#103 = FACE_OUTER_BOUND ( 'NONE', #730, .T. ) ;
#104 = FACE_OUTER_BOUND ( 'NONE', #720, .T. ) ;
#105 = AXIS2_PLACEMENT_3D ( 'NONE', #175, #176, #177 ) ;
#106 = FACE_OUTER_BOUND ( 'NONE', #725, .T. ) ;
#107 = CARTESIAN_POINT ( 'NONE',  ( -3.826698957709594700E-013, 74.79999999999999700, 0.0000000000000000000 ) ) ;
#108 = DIRECTION ( 'NONE',  ( -5.115907697472720400E-015, 1.000000000000000000, -0.0000000000000000000 ) ) ;
#109 = DIRECTION ( 'NONE',  ( -1.000000000000000000, -5.551115123128828500E-015, 0.0000000000000000000 ) ) ;
#110 = CARTESIAN_POINT ( 'NONE',  ( -1.790567694115447900E-013, 34.99999999999991500, 0.0000000000000000000 ) ) ;
#111 = DIRECTION ( 'NONE',  ( -5.115907697472720400E-015, 1.000000000000000000, -0.0000000000000000000 ) ) ;
#112 = DIRECTION ( 'NONE',  ( -1.000000000000000000, -5.551115123128992600E-015, 0.0000000000000000000 ) ) ;
#113 = CARTESIAN_POINT ( 'NONE',  ( 5.199999999996930600, 34.99999999999995000, 6.368163355562697400E-016 ) ) ;
#114 = DIRECTION ( 'NONE',  ( -1.224646799147353200E-016, -6.265179986443272400E-031, 1.000000000000000000 ) ) ;
#115 = DIRECTION ( 'NONE',  ( 1.000000000000000000, 0.0000000000000000000, 1.224646799147354900E-016 ) ) ;
#116 = CARTESIAN_POINT ( 'NONE',  ( -3.836930773104539000E-013, 74.99999999999997200, 0.0000000000000000000 ) ) ;
#117 = DIRECTION ( 'NONE',  ( -5.115907697472720400E-015, 1.000000000000000000, -0.0000000000000000000 ) ) ;
#118 = DIRECTION ( 'NONE',  ( -1.000000000000000000, -5.782411586592647600E-015, 0.0000000000000000000 ) ) ;
#119 = PLANE ( 'NONE',  #540 ) ;
#120 = LINE ( 'NONE', #121, #544 ) ;
#121 = CARTESIAN_POINT ( 'NONE',  ( -4.999999999997566400, 74.99999999999998600, 0.0000000000000000000 ) ) ;
#122 = DIRECTION ( 'NONE',  ( -5.115907697472720400E-015, 1.000000000000000000, -0.0000000000000000000 ) ) ;
#123 = LINE ( 'NONE', #124, #541 ) ;
#124 = CARTESIAN_POINT ( 'NONE',  ( 4.999999999996874500, 74.80000000000002600, 0.0000000000000000000 ) ) ;
#125 = DIRECTION ( 'NONE',  ( 0.7071067811865696700, -0.7071067811865253700, 0.0000000000000000000 ) ) ;
#126 = CARTESIAN_POINT ( 'NONE',  ( -3.836930773104540500E-013, 75.00000000000000000, 0.0000000000000000000 ) ) ;
#127 = DIRECTION ( 'NONE',  ( 5.115907697472720400E-015, -1.000000000000000000, 0.0000000000000000000 ) ) ;
#128 = DIRECTION ( 'NONE',  ( 1.000000000000000000, 5.115907697472720400E-015, 0.0000000000000000000 ) ) ;
#129 = CARTESIAN_POINT ( 'NONE',  ( -3.826698957709594700E-013, 74.79999999999999700, 0.0000000000000000000 ) ) ;
#130 = DIRECTION ( 'NONE',  ( 5.115907697472720400E-015, -1.000000000000000000, 0.0000000000000000000 ) ) ;
#131 = DIRECTION ( 'NONE',  ( 1.000000000000000000, 5.551115123128828500E-015, 0.0000000000000000000 ) ) ;
#132 = CARTESIAN_POINT ( 'NONE',  ( -3.836930773104541000E-013, 75.00000000000001400, 0.0000000000000000000 ) ) ;
#133 = DIRECTION ( 'NONE',  ( -5.115907697472720400E-015, 1.000000000000000000, -0.0000000000000000000 ) ) ;
#134 = DIRECTION ( 'NONE',  ( -1.000000000000000000, -5.551115123128910500E-015, 0.0000000000000000000 ) ) ;
#135 = CARTESIAN_POINT ( 'NONE',  ( -1.786765180256111300E-013, 34.99999999999992200, 0.0000000000000000000 ) ) ;
#136 = DIRECTION ( 'NONE',  ( -5.115907697472720400E-015, 1.000000000000000000, -0.0000000000000000000 ) ) ;
#137 = DIRECTION ( 'NONE',  ( -1.000000000000000000, -5.115907697472720400E-015, 0.0000000000000000000 ) ) ;
#138 = CARTESIAN_POINT ( 'NONE',  ( -1.790567694115447900E-013, 34.99999999999991500, 0.0000000000000000000 ) ) ;
#139 = DIRECTION ( 'NONE',  ( -5.115907697472720400E-015, 1.000000000000000000, -0.0000000000000000000 ) ) ;
#140 = DIRECTION ( 'NONE',  ( -1.000000000000000000, -4.956352788507702000E-015, 0.0000000000000000000 ) ) ;
#141 = PLANE ( 'NONE',  #527 ) ;
#142 = CARTESIAN_POINT ( 'NONE',  ( 5.599999999996953200, 34.99999999999997900, 0.0000000000000000000 ) ) ;
#143 = DIRECTION ( 'NONE',  ( 5.115907697472720400E-015, -1.000000000000000000, 0.0000000000000000000 ) ) ;
#144 = DIRECTION ( 'NONE',  ( 1.000000000000000000, 5.115907697472720400E-015, 0.0000000000000000000 ) ) ;
#145 = CARTESIAN_POINT ( 'NONE',  ( -1.785451786417976700E-013, 34.89999999999994200, 0.0000000000000000000 ) ) ;
#146 = DIRECTION ( 'NONE',  ( 5.115907697472720400E-015, -1.000000000000000000, 0.0000000000000000000 ) ) ;
#147 = DIRECTION ( 'NONE',  ( 1.000000000000000000, 5.337610695312546100E-015, 0.0000000000000000000 ) ) ;
#148 = CARTESIAN_POINT ( 'NONE',  ( -3.836930773104541000E-013, 75.00000000000001400, 0.0000000000000000000 ) ) ;
#149 = DIRECTION ( 'NONE',  ( -5.115907697472720400E-015, 1.000000000000000000, -0.0000000000000000000 ) ) ;
#150 = DIRECTION ( 'NONE',  ( -1.000000000000000000, -4.270088556250072600E-015, 0.0000000000000000000 ) ) ;
#151 = CARTESIAN_POINT ( 'NONE',  ( -6.938893903907228400E-014, 13.70340269485712300, 0.0000000000000000000 ) ) ;
#152 = DIRECTION ( 'NONE',  ( -5.115907697472720400E-015, 1.000000000000000000, -0.0000000000000000000 ) ) ;
#153 = DIRECTION ( 'NONE',  ( -1.000000000000000000, -5.115907697472720400E-015, 0.0000000000000000000 ) ) ;
#154 = CARTESIAN_POINT ( 'NONE',  ( -5.290801464816643000E-014, 10.34186263256922600, 0.0000000000000000000 ) ) ;
#155 = DIRECTION ( 'NONE',  ( -5.115907697472720400E-015, 1.000000000000000000, -0.0000000000000000000 ) ) ;
#156 = DIRECTION ( 'NONE',  ( -1.000000000000000000, -5.168146761905552600E-015, 0.0000000000000000000 ) ) ;
#157 = CARTESIAN_POINT ( 'NONE',  ( -5.204170427930421300E-014, 10.17856331638393300, 0.0000000000000000000 ) ) ;
#158 = DIRECTION ( 'NONE',  ( -5.115907697472720400E-015, 1.000000000000000000, -0.0000000000000000000 ) ) ;
#159 = DIRECTION ( 'NONE',  ( -1.000000000000000000, -5.115907697472719600E-015, 0.0000000000000000000 ) ) ;
#160 = CARTESIAN_POINT ( 'NONE',  ( -3.836930773104541000E-013, 75.00000000000001400, 0.0000000000000000000 ) ) ;
#161 = DIRECTION ( 'NONE',  ( -5.115907697472720400E-015, 1.000000000000000000, -0.0000000000000000000 ) ) ;
#162 = DIRECTION ( 'NONE',  ( -1.000000000000000000, -5.551115123120494200E-015, 0.0000000000000000000 ) ) ;
#163 = CARTESIAN_POINT ( 'NONE',  ( -3.903127820947816000E-014, 7.612733176450272600, 0.0000000000000000000 ) ) ;
#164 = DIRECTION ( 'NONE',  ( -5.115907697472720400E-015, 1.000000000000000000, -0.0000000000000000000 ) ) ;
#165 = DIRECTION ( 'NONE',  ( -1.000000000000000000, -5.115907697472720400E-015, 0.0000000000000000000 ) ) ;
#166 = CARTESIAN_POINT ( 'NONE',  ( -2.953670686289668900E-015, 0.5773502691905074700, 0.0000000000000000000 ) ) ;
#167 = DIRECTION ( 'NONE',  ( -5.115907697472720400E-015, 1.000000000000000000, -0.0000000000000000000 ) ) ;
#168 = DIRECTION ( 'NONE',  ( -1.000000000000000000, -5.095750210692732700E-015, 0.0000000000000000000 ) ) ;
#169 = CARTESIAN_POINT ( 'NONE',  ( -3.826698957709594700E-013, 74.79999999999999700, 0.0000000000000000000 ) ) ;
#170 = DIRECTION ( 'NONE',  ( 5.115907697472720400E-015, -1.000000000000000000, 0.0000000000000000000 ) ) ;
#171 = DIRECTION ( 'NONE',  ( 1.000000000000000000, 5.551115123128828500E-015, 0.0000000000000000000 ) ) ;
#172 = CARTESIAN_POINT ( 'NONE',  ( -3.836930773104541000E-013, 75.00000000000001400, 0.0000000000000000000 ) ) ;
#173 = DIRECTION ( 'NONE',  ( -5.115907697472720400E-015, 1.000000000000000000, -0.0000000000000000000 ) ) ;
#174 = DIRECTION ( 'NONE',  ( -1.000000000000000000, -5.551115123128910500E-015, 0.0000000000000000000 ) ) ;
#175 = CARTESIAN_POINT ( 'NONE',  ( -1.786765180256111300E-013, 34.99999999999992200, 0.0000000000000000000 ) ) ;
#176 = DIRECTION ( 'NONE',  ( -5.115907697472720400E-015, 1.000000000000000000, -0.0000000000000000000 ) ) ;
#177 = DIRECTION ( 'NONE',  ( -1.000000000000000000, -5.115907697472720400E-015, 0.0000000000000000000 ) ) ;
#178 = CARTESIAN_POINT ( 'NONE',  ( -1.790567694115447900E-013, 34.99999999999991500, 0.0000000000000000000 ) ) ;
#179 = DIRECTION ( 'NONE',  ( -5.115907697472720400E-015, 1.000000000000000000, -0.0000000000000000000 ) ) ;
#180 = DIRECTION ( 'NONE',  ( -1.000000000000000000, -4.956352788507702000E-015, 0.0000000000000000000 ) ) ;
#181 = CARTESIAN_POINT ( 'NONE',  ( -1.785451786417976700E-013, 34.89999999999994200, 0.0000000000000000000 ) ) ;
#182 = DIRECTION ( 'NONE',  ( 5.115907697472720400E-015, -1.000000000000000000, 0.0000000000000000000 ) ) ;
#183 = DIRECTION ( 'NONE',  ( 1.000000000000000000, 5.337610695312546100E-015, 0.0000000000000000000 ) ) ;
#184 = CARTESIAN_POINT ( 'NONE',  ( -3.836930773104541000E-013, 75.00000000000001400, 0.0000000000000000000 ) ) ;
#185 = DIRECTION ( 'NONE',  ( -5.115907697472720400E-015, 1.000000000000000000, -0.0000000000000000000 ) ) ;
#186 = DIRECTION ( 'NONE',  ( -1.000000000000000000, -4.270088556250072600E-015, 0.0000000000000000000 ) ) ;
#187 = CARTESIAN_POINT ( 'NONE',  ( -6.938893903907228400E-014, 13.70340269485712300, 0.0000000000000000000 ) ) ;
#188 = DIRECTION ( 'NONE',  ( -5.115907697472720400E-015, 1.000000000000000000, -0.0000000000000000000 ) ) ;
#189 = DIRECTION ( 'NONE',  ( -1.000000000000000000, -5.115907697472720400E-015, 0.0000000000000000000 ) ) ;
#190 = CARTESIAN_POINT ( 'NONE',  ( -5.290801464816643000E-014, 10.34186263256922600, 0.0000000000000000000 ) ) ;
#191 = DIRECTION ( 'NONE',  ( -5.115907697472720400E-015, 1.000000000000000000, -0.0000000000000000000 ) ) ;
#192 = DIRECTION ( 'NONE',  ( -1.000000000000000000, -5.168146761905552600E-015, 0.0000000000000000000 ) ) ;
#193 = CARTESIAN_POINT ( 'NONE',  ( -5.204170427930421300E-014, 10.17856331638393300, 0.0000000000000000000 ) ) ;
#194 = DIRECTION ( 'NONE',  ( -5.115907697472720400E-015, 1.000000000000000000, -0.0000000000000000000 ) ) ;
#195 = DIRECTION ( 'NONE',  ( -1.000000000000000000, -5.115907697472719600E-015, 0.0000000000000000000 ) ) ;
#196 = CARTESIAN_POINT ( 'NONE',  ( -3.836930773104541000E-013, 75.00000000000001400, 0.0000000000000000000 ) ) ;
#197 = DIRECTION ( 'NONE',  ( -5.115907697472720400E-015, 1.000000000000000000, -0.0000000000000000000 ) ) ;
#198 = DIRECTION ( 'NONE',  ( -1.000000000000000000, -5.551115123120494200E-015, 0.0000000000000000000 ) ) ;
#199 = CARTESIAN_POINT ( 'NONE',  ( -3.903127820947816000E-014, 7.612733176450272600, 0.0000000000000000000 ) ) ;
#200 = DIRECTION ( 'NONE',  ( -5.115907697472720400E-015, 1.000000000000000000, -0.0000000000000000000 ) ) ;
#201 = DIRECTION ( 'NONE',  ( -1.000000000000000000, -5.115907697472720400E-015, 0.0000000000000000000 ) ) ;
#202 = CARTESIAN_POINT ( 'NONE',  ( -2.953670686289668900E-015, 0.5773502691905074700, 0.0000000000000000000 ) ) ;
#203 = DIRECTION ( 'NONE',  ( -5.115907697472720400E-015, 1.000000000000000000, -0.0000000000000000000 ) ) ;
#204 = DIRECTION ( 'NONE',  ( -1.000000000000000000, -5.095750210692732700E-015, 0.0000000000000000000 ) ) ;
#205 = CARTESIAN_POINT ( 'NONE',  ( -1.781706682056592600E-013, 34.82679491924302800, 0.0000000000000000000 ) ) ;
#206 = DIRECTION ( 'NONE',  ( -5.115907697472720400E-015, 1.000000000000000000, -0.0000000000000000000 ) ) ;
#207 = DIRECTION ( 'NONE',  ( -1.000000000000000000, -5.236901059555494400E-015, 0.0000000000000000000 ) ) ;
#208 = CARTESIAN_POINT ( 'NONE',  ( -1.790567694115447900E-013, 34.99999999999991500, 0.0000000000000000000 ) ) ;
#209 = DIRECTION ( 'NONE',  ( -5.115907697472720400E-015, 1.000000000000000000, -0.0000000000000000000 ) ) ;
#210 = DIRECTION ( 'NONE',  ( -1.000000000000000000, -4.956352788507702000E-015, 0.0000000000000000000 ) ) ;
#211 = CARTESIAN_POINT ( 'NONE',  ( -1.790567694115451200E-013, 34.99999999999998600, 0.0000000000000000000 ) ) ;
#212 = DIRECTION ( 'NONE',  ( -5.115907697472720400E-015, 1.000000000000000000, -0.0000000000000000000 ) ) ;
#213 = DIRECTION ( 'NONE',  ( -1.000000000000000000, -5.421010862426824000E-015, 0.0000000000000000000 ) ) ;
#214 = CARTESIAN_POINT ( 'NONE',  ( -1.785451786417976700E-013, 34.89999999999994200, 0.0000000000000000000 ) ) ;
#215 = DIRECTION ( 'NONE',  ( -5.115907697472720400E-015, 1.000000000000000000, -0.0000000000000000000 ) ) ;
#216 = DIRECTION ( 'NONE',  ( -1.000000000000000000, -5.337610695312546900E-015, 0.0000000000000000000 ) ) ;
#217 = CARTESIAN_POINT ( 'NONE',  ( -7.010534332818796200E-014, 13.70340269485711300, 0.0000000000000000000 ) ) ;
#218 = DIRECTION ( 'NONE',  ( -5.115907697472720400E-015, 1.000000000000000000, -0.0000000000000000000 ) ) ;
#219 = DIRECTION ( 'NONE',  ( -1.000000000000000000, -5.070730160547004300E-015, 0.0000000000000000000 ) ) ;
#220 = CARTESIAN_POINT ( 'NONE',  ( -6.926991909952356300E-014, 13.54010337867182100, 0.0000000000000000000 ) ) ;
#221 = DIRECTION ( 'NONE',  ( -5.115907697472720400E-015, 1.000000000000000000, -0.0000000000000000000 ) ) ;
#222 = DIRECTION ( 'NONE',  ( -1.000000000000000000, -5.098064908762583100E-015, 0.0000000000000000000 ) ) ;
#223 = CARTESIAN_POINT ( 'NONE',  ( -3.894604025620786700E-014, 7.612733176450267300, 0.0000000000000000000 ) ) ;
#224 = DIRECTION ( 'NONE',  ( -5.115907697472720400E-015, 1.000000000000000000, -0.0000000000000000000 ) ) ;
#225 = DIRECTION ( 'NONE',  ( -1.000000000000000000, -5.030698080327954600E-015, 0.0000000000000000000 ) ) ;
#226 = CARTESIAN_POINT ( 'NONE',  ( -3.792285871671338500E-014, 7.412733176450276000, 0.0000000000000000000 ) ) ;
#227 = DIRECTION ( 'NONE',  ( -5.115907697472720400E-015, 1.000000000000000000, -0.0000000000000000000 ) ) ;
#228 = DIRECTION ( 'NONE',  ( -1.000000000000000000, -5.085201101467426900E-015, 0.0000000000000000000 ) ) ;
#229 = CARTESIAN_POINT ( 'NONE',  ( -2.953670686289668900E-015, 0.5773502691905074700, 0.0000000000000000000 ) ) ;
#230 = DIRECTION ( 'NONE',  ( -5.115907697472720400E-015, 1.000000000000000000, -0.0000000000000000000 ) ) ;
#231 = DIRECTION ( 'NONE',  ( -1.000000000000000000, -5.095750210692733500E-015, 0.0000000000000000000 ) ) ;
#232 = CARTESIAN_POINT ( 'NONE',  ( -2.953670686289668900E-015, 0.5773502691905074700, 0.0000000000000000000 ) ) ;
#233 = LINE ( 'NONE', #234, #65 ) ;
#234 = CARTESIAN_POINT ( 'NONE',  ( -3.777483779477852300E-015, 1.998401444325281800E-012, 0.0000000000000000000 ) ) ;
#235 = DIRECTION ( 'NONE',  ( -0.8660254037843976300, 0.5000000000000710500, 0.0000000000000000000 ) ) ;
#236 = LINE ( 'NONE', #237, #62 ) ;
#237 = CARTESIAN_POINT ( 'NONE',  ( 3.777483779457341900E-015, 1.998401444325281800E-012, 4.626083419356038800E-031 ) ) ;
#238 = DIRECTION ( 'NONE',  ( 0.8660254037843925200, 0.5000000000000799400, 1.060575238724853500E-016 ) ) ;
#239 = LINE ( 'NONE', #240, #60 ) ;
#240 = CARTESIAN_POINT ( 'NONE',  ( -0.9999999999978714800, 0.5773502691905023600, 0.0000000000000000000 ) ) ;
#241 = DIRECTION ( 'NONE',  ( -0.5000000000000108800, 0.8660254037844324900, 0.0000000000000000000 ) ) ;
#242 = DIRECTION ( 'NONE',  ( -5.115907697472720400E-015, 1.000000000000000000, -0.0000000000000000000 ) ) ;
#243 = DIRECTION ( 'NONE',  ( -1.000000000000000000, -5.095750210692733500E-015, 0.0000000000000000000 ) ) ;
#244 = CARTESIAN_POINT ( 'NONE',  ( -4.600000000004795800, 7.612733176450249500, 0.0000000000000000000 ) ) ;
#245 = LINE ( 'NONE', #246, #53 ) ;
#246 = CARTESIAN_POINT ( 'NONE',  ( 0.9999999999978654900, 0.5773502691905125800, 1.224646799144742800E-016 ) ) ;
#247 = DIRECTION ( 'NONE',  ( 0.5000000000000020000, 0.8660254037844376000, 6.123233995736844900E-017 ) ) ;
#248 = DIRECTION ( 'NONE',  ( 0.0000000000000000000, -0.0000000000000000000, -1.000000000000000000 ) ) ;
#249 = DIRECTION ( 'NONE',  ( -1.000000000000000000, 0.0000000000000000000, 0.0000000000000000000 ) ) ;
#250 = CARTESIAN_POINT ( 'NONE',  ( -3.792285871671338500E-014, 7.412733176450276000, 0.0000000000000000000 ) ) ;
#251 = DIRECTION ( 'NONE',  ( -5.115907697472720400E-015, 1.000000000000000000, -0.0000000000000000000 ) ) ;
#252 = DIRECTION ( 'NONE',  ( -1.000000000000000000, -5.085201101467426900E-015, 0.0000000000000000000 ) ) ;
#253 = CARTESIAN_POINT ( 'NONE',  ( 4.600000000004717600, 7.612733176450296600, 5.633375276083649800E-016 ) ) ;
#254 = DIRECTION ( 'NONE',  ( -1.224646799147353200E-016, -6.265179986443272400E-031, 1.000000000000000000 ) ) ;
#255 = DIRECTION ( 'NONE',  ( 1.000000000000000000, 0.0000000000000000000, 1.224646799147353200E-016 ) ) ;
#256 = CARTESIAN_POINT ( 'NONE',  ( -5.207259041950203000E-014, 10.17856331638393500, 0.0000000000000000000 ) ) ;
#257 = LINE ( 'NONE', #258, #49 ) ;
#258 = CARTESIAN_POINT ( 'NONE',  ( -5.000000000005147000, 74.99999999999998600, 0.0000000000000000000 ) ) ;
#259 = DIRECTION ( 'NONE',  ( -5.115907697472720400E-015, 1.000000000000000000, -0.0000000000000000000 ) ) ;
#260 = DIRECTION ( 'NONE',  ( -5.115907697472720400E-015, 1.000000000000000000, -0.0000000000000000000 ) ) ;
#261 = DIRECTION ( 'NONE',  ( -1.000000000000000000, -5.204170427925456200E-015, 0.0000000000000000000 ) ) ;
#262 = CARTESIAN_POINT ( 'NONE',  ( -3.894604025620786700E-014, 7.612733176450267300, 0.0000000000000000000 ) ) ;
#263 = DIRECTION ( 'NONE',  ( -5.115907697472720400E-015, 1.000000000000000000, -0.0000000000000000000 ) ) ;
#264 = DIRECTION ( 'NONE',  ( -1.000000000000000000, -5.030698080327954600E-015, 0.0000000000000000000 ) ) ;
#265 = CARTESIAN_POINT ( 'NONE',  ( -5.400000000004823200, 10.17856331638390400, 0.0000000000000000000 ) ) ;
#266 = LINE ( 'NONE', #267, #42 ) ;
#267 = CARTESIAN_POINT ( 'NONE',  ( 5.000000000004380500, 75.00000000000004300, 6.123233995742599900E-016 ) ) ;
#268 = DIRECTION ( 'NONE',  ( -5.115907697472720400E-015, 1.000000000000000000, -0.0000000000000000000 ) ) ;
#269 = DIRECTION ( 'NONE',  ( 0.0000000000000000000, -0.0000000000000000000, -1.000000000000000000 ) ) ;
#270 = DIRECTION ( 'NONE',  ( -1.000000000000000000, 0.0000000000000000000, 0.0000000000000000000 ) ) ;
#271 = CARTESIAN_POINT ( 'NONE',  ( -5.207259041950203000E-014, 10.17856331638393500, 0.0000000000000000000 ) ) ;
#272 = DIRECTION ( 'NONE',  ( -5.115907697472720400E-015, 1.000000000000000000, -0.0000000000000000000 ) ) ;
#273 = DIRECTION ( 'NONE',  ( -1.000000000000000000, -5.204170427925456200E-015, 0.0000000000000000000 ) ) ;
#274 = CARTESIAN_POINT ( 'NONE',  ( -5.290801464816643000E-014, 10.34186263256922600, 0.0000000000000000000 ) ) ;
#275 = DIRECTION ( 'NONE',  ( -5.115907697472720400E-015, 1.000000000000000000, -0.0000000000000000000 ) ) ;
#276 = DIRECTION ( 'NONE',  ( -1.000000000000000000, -5.168146761905552600E-015, 0.0000000000000000000 ) ) ;
#277 = CARTESIAN_POINT ( 'NONE',  ( 5.400000000004718400, 10.17856331638396100, 6.613092715401550000E-016 ) ) ;
#278 = DIRECTION ( 'NONE',  ( -1.224646799147353200E-016, -6.265179986443272400E-031, 1.000000000000000000 ) ) ;
#279 = DIRECTION ( 'NONE',  ( 1.000000000000000000, 0.0000000000000000000, 1.224646799147353200E-016 ) ) ;
#280 = CARTESIAN_POINT ( 'NONE',  ( -5.290801464816643000E-014, 10.34186263256922600, 0.0000000000000000000 ) ) ;
#281 = LINE ( 'NONE', #282, #33 ) ;
#282 = CARTESIAN_POINT ( 'NONE',  ( -5.034851628334602800, 10.34186263256920000, 0.0000000000000000000 ) ) ;
#283 = DIRECTION ( 'NONE',  ( -0.4082482904632522300, 0.9128709291755499100, 0.0000000000000000000 ) ) ;
#284 = DIRECTION ( 'NONE',  ( -5.115907697472720400E-015, 1.000000000000000000, -0.0000000000000000000 ) ) ;
#285 = DIRECTION ( 'NONE',  ( -1.000000000000000000, -5.168146761905552600E-015, 0.0000000000000000000 ) ) ;
#286 = CARTESIAN_POINT ( 'NONE',  ( -6.100000000000820300, 13.70340269485709200, 0.0000000000000000000 ) ) ;
#287 = LINE ( 'NONE', #288, #24 ) ;
#288 = CARTESIAN_POINT ( 'NONE',  ( 5.034851628334497100, 10.34186263256925300, 6.165914930821745700E-016 ) ) ;
#289 = DIRECTION ( 'NONE',  ( 0.4082482904632429000, 0.9128709291755541200, 4.999599621731950700E-017 ) ) ;
#290 = DIRECTION ( 'NONE',  ( 0.0000000000000000000, -0.0000000000000000000, -1.000000000000000000 ) ) ;
#291 = DIRECTION ( 'NONE',  ( -1.000000000000000000, 0.0000000000000000000, 0.0000000000000000000 ) ) ;
#292 = CARTESIAN_POINT ( 'NONE',  ( -6.926991909952356300E-014, 13.54010337867182100, 0.0000000000000000000 ) ) ;
#293 = DIRECTION ( 'NONE',  ( -5.115907697472720400E-015, 1.000000000000000000, -0.0000000000000000000 ) ) ;
#294 = DIRECTION ( 'NONE',  ( -1.000000000000000000, -5.098064908762583100E-015, 0.0000000000000000000 ) ) ;
#295 = CARTESIAN_POINT ( 'NONE',  ( -5.115907697472730200E-012, 1000.000000000002000, 0.0000000000000000000 ) ) ;
#296 = DIRECTION ( 'NONE',  ( -5.115907697472720400E-015, 1.000000000000000000, -0.0000000000000000000 ) ) ;
#297 = DIRECTION ( 'NONE',  ( -1.000000000000000000, -5.127900497023869500E-015, 0.0000000000000000000 ) ) ;
#298 = CARTESIAN_POINT ( 'NONE',  ( -5.115907697472730200E-012, 1000.000000000002000, 0.0000000000000000000 ) ) ;
#299 = DIRECTION ( 'NONE',  ( -5.115907697472720400E-015, 1.000000000000000000, -0.0000000000000000000 ) ) ;
#300 = DIRECTION ( 'NONE',  ( -1.000000000000000000, -5.127900497023869500E-015, 0.0000000000000000000 ) ) ;
#301 = CARTESIAN_POINT ( 'NONE',  ( -1.785451786417976700E-013, 34.89999999999994200, 0.0000000000000000000 ) ) ;
#302 = DIRECTION ( 'NONE',  ( -5.115907697472720400E-015, 1.000000000000000000, -0.0000000000000000000 ) ) ;
#303 = DIRECTION ( 'NONE',  ( -1.000000000000000000, -5.337610695312546900E-015, 0.0000000000000000000 ) ) ;
#304 = CARTESIAN_POINT ( 'NONE',  ( -7.010534332818796200E-014, 13.70340269485711300, 0.0000000000000000000 ) ) ;
#305 = LINE ( 'NONE', #306, #36 ) ;
#306 = CARTESIAN_POINT ( 'NONE',  ( 6.500000000000682100, 34.89999999999997700, 0.0000000000000000000 ) ) ;
#307 = DIRECTION ( 'NONE',  ( 0.7071067811865482400, -0.7071067811865469100, 0.0000000000000000000 ) ) ;
#308 = LINE ( 'NONE', #309, #27 ) ;
#309 = CARTESIAN_POINT ( 'NONE',  ( 6.500000000000422800, 75.00000000000004300, 7.960204194458783500E-016 ) ) ;
#310 = DIRECTION ( 'NONE',  ( -5.115907697472720400E-015, 1.000000000000000000, -0.0000000000000000000 ) ) ;
#311 = DIRECTION ( 'NONE',  ( -5.115907697472720400E-015, 1.000000000000000000, -0.0000000000000000000 ) ) ;
#312 = DIRECTION ( 'NONE',  ( -1.000000000000000000, -5.070730160547004300E-015, 0.0000000000000000000 ) ) ;
#313 = CARTESIAN_POINT ( 'NONE',  ( -1.790567694115447900E-013, 34.99999999999991500, 0.0000000000000000000 ) ) ;
#314 = LINE ( 'NONE', #315, #21 ) ;
#315 = CARTESIAN_POINT ( 'NONE',  ( -6.500000000001190200, 74.99999999999998600, 0.0000000000000000000 ) ) ;
#316 = DIRECTION ( 'NONE',  ( -5.115907697472720400E-015, 1.000000000000000000, -0.0000000000000000000 ) ) ;
#317 = DIRECTION ( 'NONE',  ( -5.115907697472720400E-015, 1.000000000000000000, -0.0000000000000000000 ) ) ;
#318 = DIRECTION ( 'NONE',  ( -1.000000000000000000, -4.956352788507702000E-015, 0.0000000000000000000 ) ) ;
#319 = CARTESIAN_POINT ( 'NONE',  ( -1.790567694115451200E-013, 34.99999999999998600, 0.0000000000000000000 ) ) ;
#320 = LINE ( 'NONE', #321, #19 ) ;
#321 = CARTESIAN_POINT ( 'NONE',  ( -6.500000000001040100, 34.89999999999991300, 7.960204194458849600E-016 ) ) ;
#322 = DIRECTION ( 'NONE',  ( -0.7071067811865408000, -0.7071067811865541200, 8.659560562354895900E-017 ) ) ;
#323 = LINE ( 'NONE', #324, #20 ) ;
#324 = CARTESIAN_POINT ( 'NONE',  ( -5.599999999997310200, 34.99999999999988600, 0.0000000000000000000 ) ) ;
#325 = DIRECTION ( 'NONE',  ( -0.8660254037844725700, 0.4999999999999409900, 0.0000000000000000000 ) ) ;
#326 = DIRECTION ( 'NONE',  ( -5.115907697472720400E-015, 1.000000000000000000, -0.0000000000000000000 ) ) ;
#327 = DIRECTION ( 'NONE',  ( -1.000000000000000000, -5.421010862426824000E-015, 0.0000000000000000000 ) ) ;
#328 = FILL_AREA_STYLE_COLOUR ( '', #568 ) ;
#329 = FILL_AREA_STYLE ('',( #328 ) ) ;
#330 = SURFACE_STYLE_FILL_AREA ( #329 ) ;
#331 = SURFACE_SIDE_STYLE ('',( #330 ) ) ;
#332 = SURFACE_STYLE_USAGE ( .BOTH. , #331 ) ;
#333 = PRESENTATION_STYLE_ASSIGNMENT (( #332 ) ) ;
#334 =( LENGTH_UNIT ( ) NAMED_UNIT ( * ) SI_UNIT ( .MILLI., .METRE. ) );
#335 =( NAMED_UNIT ( * ) PLANE_ANGLE_UNIT ( ) SI_UNIT ( $, .RADIAN. ) );
#336 =( NAMED_UNIT ( * ) SI_UNIT ( $, .STERADIAN. ) SOLID_ANGLE_UNIT ( ) );
#337 = CARTESIAN_POINT ( 'NONE',  ( -4.799999999997651500, 74.99999999999994300, 6.000769315818678100E-016 ) ) ;
#338 = CARTESIAN_POINT ( 'NONE',  ( 4.799999999996885000, 75.00000000000000000, 0.0000000000000000000 ) ) ;
#339 = CARTESIAN_POINT ( 'NONE',  ( -4.999999999997639200, 74.79999999999996900, 0.0000000000000000000 ) ) ;
#340 = CARTESIAN_POINT ( 'NONE',  ( 5.299999999996918700, 34.82679491924305600, 6.674325055349541100E-016 ) ) ;
#341 = CARTESIAN_POINT ( 'NONE',  ( -1.024296259000876700E-026, 2.002178928104749400E-012, 0.0000000000000000000 ) ) ;
#342 = CARTESIAN_POINT ( 'NONE',  ( 0.9999999999978652600, 0.5773502691905125800, 1.224646799144742600E-016 ) ) ;
#343 = CARTESIAN_POINT ( 'NONE',  ( -0.9999999999978712600, 0.5773502691905023600, 0.0000000000000000000 ) ) ;
#344 = CARTESIAN_POINT ( 'NONE',  ( 4.946410161518492100, 7.412733176450301700, 6.057605371573610300E-016 ) ) ;
#345 = CARTESIAN_POINT ( 'NONE',  ( -4.946410161518568500, 7.412733176450250200, 0.0000000000000000000 ) ) ;
#346 = CARTESIAN_POINT ( 'NONE',  ( 5.000000000004718000, 7.612733176450293000, 6.123233995742590000E-016 ) ) ;
#347 = CARTESIAN_POINT ( 'NONE',  ( -5.000000000004796200, 7.612733176450242400, 0.0000000000000000000 ) ) ;
#348 = CARTESIAN_POINT ( 'NONE',  ( -5.000000000004822800, 10.17856331638390800, 0.0000000000000000000 ) ) ;
#349 = CARTESIAN_POINT ( 'NONE',  ( 5.000000000004718900, 10.17856331638396100, 6.123233995742603900E-016 ) ) ;
#350 = CARTESIAN_POINT ( 'NONE',  ( 5.034851628334495300, 10.34186263256925300, 6.165914930821743700E-016 ) ) ;
#351 = CARTESIAN_POINT ( 'NONE',  ( -5.034851628334601000, 10.34186263256920000, 0.0000000000000000000 ) ) ;
#352 = CARTESIAN_POINT ( 'NONE',  ( 6.465148371670903100, 13.54010337867185300, 7.917523259379578600E-016 ) ) ;
#353 = CARTESIAN_POINT ( 'NONE',  ( -6.465148371671041600, 13.54010337867178700, 0.0000000000000000000 ) ) ;
#354 = CARTESIAN_POINT ( 'NONE',  ( 6.500000000000680300, 13.70340269485714700, 7.960204194458714500E-016 ) ) ;
#355 = CARTESIAN_POINT ( 'NONE',  ( -6.500000000000819800, 13.70340269485707900, 0.0000000000000000000 ) ) ;
#356 = CARTESIAN_POINT ( 'NONE',  ( 6.500000000000682100, 34.89999999999997700, 7.960204194458817100E-016 ) ) ;
#357 = CARTESIAN_POINT ( 'NONE',  ( -6.500000000001039200, 34.89999999999991300, 0.0000000000000000000 ) ) ;
#358 = CARTESIAN_POINT ( 'NONE',  ( 6.400000000000646100, 35.00000000000001400, 0.0000000000000000000 ) ) ;
#359 = CARTESIAN_POINT ( 'NONE',  ( -6.400000000001003100, 34.99999999999995000, 7.898971854501460100E-016 ) ) ;
#360 = CARTESIAN_POINT ( 'NONE',  ( -5.599999999997308500, 34.99999999999988600, 0.0000000000000000000 ) ) ;
#361 = CARTESIAN_POINT ( 'NONE',  ( 5.599999999996955000, 34.99999999999994300, 6.858022075221667100E-016 ) ) ;
#362 = CARTESIAN_POINT ( 'NONE',  ( -5.299999999997274000, 34.82679491924300000, 0.0000000000000000000 ) ) ;
#363 = CARTESIAN_POINT ( 'NONE',  ( -4.999999999997287500, 34.99999999999988600, 0.0000000000000000000 ) ) ;
#364 = CARTESIAN_POINT ( 'NONE',  ( 4.999999999996930500, 34.99999999999994300, 6.306931015605321700E-016 ) ) ;
#365 = CARTESIAN_POINT ( 'NONE',  ( 4.999999999996875400, 74.80000000000002600, 6.123233995733362300E-016 ) ) ;
#366 =( LENGTH_UNIT ( ) NAMED_UNIT ( * ) SI_UNIT ( .MILLI., .METRE. ) );
#367 =( NAMED_UNIT ( * ) PLANE_ANGLE_UNIT ( ) SI_UNIT ( $, .RADIAN. ) );
#368 =( NAMED_UNIT ( * ) SI_UNIT ( $, .STERADIAN. ) SOLID_ANGLE_UNIT ( ) );
#369 = FILL_AREA_STYLE_COLOUR ( '', #571 ) ;
#370 = FILL_AREA_STYLE ('',( #369 ) ) ;
#371 = SURFACE_STYLE_FILL_AREA ( #370 ) ;
#372 = SURFACE_SIDE_STYLE ('',( #371 ) ) ;
#373 = SURFACE_STYLE_USAGE ( .BOTH. , #372 ) ;
#374 = PRESENTATION_STYLE_ASSIGNMENT (( #373 ) ) ;
#375 =( LENGTH_UNIT ( ) NAMED_UNIT ( * ) SI_UNIT ( .MILLI., .METRE. ) );
#376 = UNCERTAINTY_MEASURE_WITH_UNIT (LENGTH_MEASURE( 1.000000000000000100E-005 ), #334, 'distance_accuracy_value', 'NONE');
#377 = UNCERTAINTY_MEASURE_WITH_UNIT (LENGTH_MEASURE( 1.000000000000000100E-005 ), #375, 'distance_accuracy_value', 'NONE');
#378 = UNCERTAINTY_MEASURE_WITH_UNIT (LENGTH_MEASURE( 1.000000000000000100E-005 ), #366, 'distance_accuracy_value', 'NONE');
#379 = ADVANCED_BREP_SHAPE_REPRESENTATION ( '99688-SI10-10+S9MT1003-060', ( #599, #2 ), #751 ) ;
#380 = CONICAL_SURFACE ( 'NONE', #538, 4.999999999997256400, 0.7853981633974743700 ) ;
#381 = CONICAL_SURFACE ( 'NONE', #531, 5.599999999997131700, 1.047197551196660700 ) ;
#382 = CIRCLE ( 'NONE', #547, 4.799999999997268700 ) ;
#383 = CIRCLE ( 'NONE', #546, 0.1999999999999970700 ) ;
#384 = TOROIDAL_SURFACE ( 'NONE', #87, 5.400000000004770800, 0.4000000000000000800 ) ;
#385 = CONICAL_SURFACE ( 'NONE', #78, 0.9999999999978684800, 0.5235987755983062500 ) ;
#386 = CIRCLE ( 'NONE', #517, 4.999999999997109000 ) ;
#387 = CIRCLE ( 'NONE', #528, 4.999999999997256400 ) ;
#388 = TOROIDAL_SURFACE ( 'NONE', #80, 4.600000000004756700, 0.4000000000000005200 ) ;
#389 = TOROIDAL_SURFACE ( 'NONE', #93, 6.100000000000751000, 0.3999999999999996300 ) ;
#390 = CIRCLE ( 'NONE', #82, 5.299999999997096400 ) ;
#391 = CONICAL_SURFACE ( 'NONE', #89, 5.034851628334550400, 0.4205343352832909800 ) ;
#392 = TOROIDAL_SURFACE ( 'NONE', #105, 5.199999999997110000, 0.1999999999999973700 ) ;
#393 = CONICAL_SURFACE ( 'NONE', #100, 6.500000000000860600, 0.7853981633974439500 ) ;
#394 = CONICAL_SURFACE ( 'NONE', #102, 5.599999999997131700, 1.047197551196660700 ) ;
#395 = TOROIDAL_SURFACE ( 'NONE', #45, 4.600000000004756700, 0.4000000000000005200 ) ;
#396 = TOROIDAL_SURFACE ( 'NONE', #90, 5.400000000004770800, 0.4000000000000000800 ) ;
#397 = CONICAL_SURFACE ( 'NONE', #54, 0.9999999999978684800, 0.5235987755983062500 ) ;
#398 = TOROIDAL_SURFACE ( 'NONE', #83, 6.100000000000751000, 0.3999999999999996300 ) ;
#399 = CONICAL_SURFACE ( 'NONE', #63, 4.999999999997256400, 0.7853981633974743700 ) ;
#400 = CONICAL_SURFACE ( 'NONE', #526, 6.500000000000860600, 0.7853981633974439500 ) ;
#401 = TOROIDAL_SURFACE ( 'NONE', #533, 5.199999999997110000, 0.1999999999999973700 ) ;
#402 = CIRCLE ( 'NONE', #549, 4.999999999997109000 ) ;
#403 = CIRCLE ( 'NONE', #522, 0.1999999999999970700 ) ;
#404 = CONICAL_SURFACE ( 'NONE', #74, 5.034851628334550400, 0.4205343352832909800 ) ;
#405 = CIRCLE ( 'NONE', #551, 5.299999999997096400 ) ;
#406 = CIRCLE ( 'NONE', #520, 0.3999999999999993000 ) ;
#407 = CIRCLE ( 'NONE', #524, 4.999999999997256400 ) ;
#408 = EDGE_CURVE ( 'NONE', #614, #613, #489, .T. ) ;
#409 = EDGE_CURVE ( 'NONE', #714, #615, #407, .T. ) ;
#410 = EDGE_CURVE ( 'NONE', #628, #630, #406, .T. ) ;
#411 = EDGE_CURVE ( 'NONE', #616, #638, #405, .T. ) ;
#412 = EDGE_CURVE ( 'NONE', #616, #637, #13, .T. ) ;
#413 = EDGE_CURVE ( 'NONE', #613, #615, #10, .T. ) ;
#414 = EDGE_CURVE ( 'NONE', #713, #714, #7, .T. ) ;
#415 = EDGE_CURVE ( 'NONE', #712, #638, #403, .T. ) ;
#416 = EDGE_CURVE ( 'NONE', #712, #713, #402, .T. ) ;
#417 = EDGE_CURVE ( 'NONE', #615, #714, #387, .T. ) ;
#418 = EDGE_CURVE ( 'NONE', #713, #712, #386, .T. ) ;
#419 = EDGE_CURVE ( 'NONE', #713, #616, #383, .T. ) ;
#420 = EDGE_CURVE ( 'NONE', #613, #614, #382, .T. ) ;
#421 = EDGE_CURVE ( 'NONE', #712, #615, #120, .T. ) ;
#422 = EDGE_CURVE ( 'NONE', #614, #714, #123, .T. ) ;
#423 = ADVANCED_FACE ( 'NONE', ( #523 ), #119, .F. ) ;
#424 = ADVANCED_FACE ( 'NONE', ( #543 ), #380, .T. ) ;
#425 = ADVANCED_FACE ( 'NONE', ( #548 ), #536, .T. ) ;
#426 = ADVANCED_FACE ( 'NONE', ( #539 ), #401, .F. ) ;
#427 = ADVANCED_FACE ( 'NONE', ( #535 ), #381, .F. ) ;
#428 = ADVANCED_FACE ( 'NONE', ( #532, #530 ), #141, .F. ) ;
#429 = ADVANCED_FACE ( 'NONE', ( #529 ), #400, .T. ) ;
#430 = ADVANCED_FACE ( 'NONE', ( #545 ), #518, .T. ) ;
#431 = ADVANCED_FACE ( 'NONE', ( #534 ), #398, .T. ) ;
#432 = ADVANCED_FACE ( 'NONE', ( #69 ), #404, .T. ) ;
#433 = ADVANCED_FACE ( 'NONE', ( #81 ), #396, .F. ) ;
#434 = ADVANCED_FACE ( 'NONE', ( #98 ), #91, .T. ) ;
#435 = ADVANCED_FACE ( 'NONE', ( #66 ), #395, .T. ) ;
#436 = ADVANCED_FACE ( 'NONE', ( #103 ), #397, .T. ) ;
#437 = ADVANCED_FACE ( 'NONE', ( #48 ), #399, .T. ) ;
#438 = ADVANCED_FACE ( 'NONE', ( #67 ), #56, .T. ) ;
#439 = ADVANCED_FACE ( 'NONE', ( #88 ), #392, .F. ) ;
#440 = ADVANCED_FACE ( 'NONE', ( #58 ), #394, .F. ) ;
#441 = ADVANCED_FACE ( 'NONE', ( #104 ), #393, .T. ) ;
#442 = ADVANCED_FACE ( 'NONE', ( #101 ), #96, .T. ) ;
#443 = ADVANCED_FACE ( 'NONE', ( #44 ), #389, .T. ) ;
#444 = ADVANCED_FACE ( 'NONE', ( #95 ), #391, .T. ) ;
#445 = ADVANCED_FACE ( 'NONE', ( #92 ), #384, .F. ) ;
#446 = ADVANCED_FACE ( 'NONE', ( #106 ), #85, .T. ) ;
#447 = ADVANCED_FACE ( 'NONE', ( #94 ), #388, .T. ) ;
#448 = ADVANCED_FACE ( 'NONE', ( #84 ), #385, .T. ) ;
#449 = EDGE_CURVE ( 'NONE', #638, #616, #390, .T. ) ;
#450 = EDGE_CURVE ( 'NONE', #636, #637, #491, .T. ) ;
#451 = EDGE_CURVE ( 'NONE', #634, #635, #492, .T. ) ;
#452 = EDGE_CURVE ( 'NONE', #632, #633, #493, .T. ) ;
#453 = EDGE_CURVE ( 'NONE', #630, #631, #494, .T. ) ;
#454 = EDGE_CURVE ( 'NONE', #628, #629, #495, .T. ) ;
#455 = EDGE_CURVE ( 'NONE', #622, #623, #496, .T. ) ;
#456 = EDGE_CURVE ( 'NONE', #620, #621, #497, .T. ) ;
#457 = EDGE_CURVE ( 'NONE', #618, #619, #498, .T. ) ;
#458 = EDGE_CURVE ( 'NONE', #617, #619, #233, .T. ) ;
#459 = EDGE_CURVE ( 'NONE', #617, #618, #236, .T. ) ;
#460 = EDGE_CURVE ( 'NONE', #619, #621, #239, .T. ) ;
#461 = EDGE_CURVE ( 'NONE', #619, #618, #499, .T. ) ;
#462 = EDGE_CURVE ( 'NONE', #618, #620, #245, .T. ) ;
#463 = EDGE_CURVE ( 'NONE', #621, #623, #500, .T. ) ;
#464 = EDGE_CURVE ( 'NONE', #621, #620, #501, .T. ) ;
#465 = EDGE_CURVE ( 'NONE', #620, #622, #502, .T. ) ;
#466 = EDGE_CURVE ( 'NONE', #623, #624, #257, .T. ) ;
#467 = EDGE_CURVE ( 'NONE', #624, #625, #503, .T. ) ;
#468 = EDGE_CURVE ( 'NONE', #623, #622, #504, .T. ) ;
#469 = EDGE_CURVE ( 'NONE', #622, #625, #266, .T. ) ;
#470 = EDGE_CURVE ( 'NONE', #627, #624, #505, .T. ) ;
#471 = EDGE_CURVE ( 'NONE', #625, #624, #506, .T. ) ;
#472 = EDGE_CURVE ( 'NONE', #626, #627, #507, .T. ) ;
#473 = EDGE_CURVE ( 'NONE', #626, #625, #508, .T. ) ;
#474 = EDGE_CURVE ( 'NONE', #627, #629, #281, .T. ) ;
#475 = EDGE_CURVE ( 'NONE', #627, #626, #509, .T. ) ;
#476 = EDGE_CURVE ( 'NONE', #626, #628, #287, .T. ) ;
#477 = EDGE_CURVE ( 'NONE', #629, #631, #510, .T. ) ;
#478 = EDGE_CURVE ( 'NONE', #629, #628, #511, .T. ) ;
#479 = ADVANCED_FACE ( 'NONE', ( #29 ), #512, .T. ) ;
#480 = ADVANCED_FACE ( 'NONE', ( #23 ), #513, .T. ) ;
#481 = EDGE_CURVE ( 'NONE', #633, #632, #514, .T. ) ;
#482 = EDGE_CURVE ( 'NONE', #634, #632, #305, .T. ) ;
#483 = EDGE_CURVE ( 'NONE', #630, #632, #308, .T. ) ;
#484 = EDGE_CURVE ( 'NONE', #631, #630, #566, .T. ) ;
#485 = EDGE_CURVE ( 'NONE', #631, #633, #314, .T. ) ;
#486 = EDGE_CURVE ( 'NONE', #637, #636, #565, .T. ) ;
#487 = EDGE_CURVE ( 'NONE', #635, #633, #320, .T. ) ;
#488 = EDGE_CURVE ( 'NONE', #638, #636, #323, .T. ) ;
#489 = CIRCLE ( 'NONE', #521, 4.799999999997268700 ) ;
#490 = EDGE_CURVE ( 'NONE', #635, #634, #567, .T. ) ;
#491 = CIRCLE ( 'NONE', #79, 5.599999999997131700 ) ;
#492 = CIRCLE ( 'NONE', #76, 6.400000000000824600 ) ;
#493 = CIRCLE ( 'NONE', #75, 6.500000000000859800 ) ;
#494 = CIRCLE ( 'NONE', #73, 6.500000000000750500 ) ;
#495 = CIRCLE ( 'NONE', #72, 6.465148371670971400 ) ;
#496 = CIRCLE ( 'NONE', #71, 5.000000000004757100 ) ;
#497 = CIRCLE ( 'NONE', #70, 4.946410161518530300 ) ;
#498 = CIRCLE ( 'NONE', #68, 0.9999999999978682600 ) ;
#499 = CIRCLE ( 'NONE', #64, 0.9999999999978682600 ) ;
#500 = CIRCLE ( 'NONE', #59, 0.4000000000000001900 ) ;
#501 = CIRCLE ( 'NONE', #61, 4.946410161518530300 ) ;
#502 = CIRCLE ( 'NONE', #50, 0.4000000000000001900 ) ;
#503 = CIRCLE ( 'NONE', #51, 5.000000000004770400 ) ;
#504 = CIRCLE ( 'NONE', #47, 5.000000000004757100 ) ;
#505 = CIRCLE ( 'NONE', #46, 0.4000000000000001900 ) ;
#506 = CIRCLE ( 'NONE', #57, 5.000000000004770400 ) ;
#507 = CIRCLE ( 'NONE', #39, 5.034851628334550400 ) ;
#508 = CIRCLE ( 'NONE', #37, 0.4000000000000001900 ) ;
#509 = CIRCLE ( 'NONE', #77, 5.034851628334550400 ) ;
#510 = CIRCLE ( 'NONE', #30, 0.3999999999999993000 ) ;
#511 = CIRCLE ( 'NONE', #34, 6.465148371670971400 ) ;
#512 = CONICAL_SURFACE ( 'NONE', #38, 1732.050807568528600, 1.047197551196510600 ) ;
#513 = CONICAL_SURFACE ( 'NONE', #40, 1732.050807568528600, 1.047197551196510600 ) ;
#514 = CIRCLE ( 'NONE', #41, 6.500000000000859800 ) ;
#515 = APPLICATION_CONTEXT ( 'automotive_design' ) ;
#516 = APPLICATION_CONTEXT ( 'automotive_design' ) ;
#517 = AXIS2_PLACEMENT_3D ( 'NONE', #110, #111, #112 ) ;
#518 = CYLINDRICAL_SURFACE ( 'NONE', #519, 6.500000000000806500 ) ;
#519 = AXIS2_PLACEMENT_3D ( 'NONE', #148, #149, #150 ) ;
#520 = AXIS2_PLACEMENT_3D ( 'NONE', #574, #573, #572 ) ;
#521 = AXIS2_PLACEMENT_3D ( 'NONE', #580, #579, #578 ) ;
#522 = AXIS2_PLACEMENT_3D ( 'NONE', #14, #4, #18 ) ;
#523 = FACE_OUTER_BOUND ( 'NONE', #744, .T. ) ;
#524 = AXIS2_PLACEMENT_3D ( 'NONE', #577, #576, #575 ) ;
#525 = CLOSED_SHELL ( 'NONE', ( #437, #438, #439, #440, #441, #442, #443, #444, #445, #446, #447, #448, #480, #479, #436, #435, #434, #433, #432, #431, #430, #429, #428, #427, #426, #425, #424, #423 ) ) ;
#526 = AXIS2_PLACEMENT_3D ( 'NONE', #145, #146, #147 ) ;
#527 = AXIS2_PLACEMENT_3D ( 'NONE', #142, #143, #144 ) ;
#528 = AXIS2_PLACEMENT_3D ( 'NONE', #107, #108, #109 ) ;
#529 = FACE_OUTER_BOUND ( 'NONE', #737, .T. ) ;
#530 = FACE_OUTER_BOUND ( 'NONE', #739, .T. ) ;
#531 = AXIS2_PLACEMENT_3D ( 'NONE', #138, #139, #140 ) ;
#532 = FACE_BOUND ( 'NONE', #738, .T. ) ;
#533 = AXIS2_PLACEMENT_3D ( 'NONE', #135, #136, #137 ) ;
#534 = FACE_OUTER_BOUND ( 'NONE', #735, .T. ) ;
#535 = FACE_OUTER_BOUND ( 'NONE', #740, .T. ) ;
#536 = CYLINDRICAL_SURFACE ( 'NONE', #537, 4.999999999997182700 ) ;
#537 = AXIS2_PLACEMENT_3D ( 'NONE', #132, #133, #134 ) ;
#538 = AXIS2_PLACEMENT_3D ( 'NONE', #129, #130, #131 ) ;
#539 = FACE_OUTER_BOUND ( 'NONE', #741, .T. ) ;
#540 = AXIS2_PLACEMENT_3D ( 'NONE', #126, #127, #128 ) ;
#541 = VECTOR ( 'NONE', #125, 1000.000000000000100 ) ;
#542 = VECTOR ( 'NONE', #11, 1000.000000000000100 ) ;
#543 = FACE_OUTER_BOUND ( 'NONE', #743, .T. ) ;
#544 = VECTOR ( 'NONE', #122, 1000.000000000000000 ) ;
#545 = FACE_OUTER_BOUND ( 'NONE', #736, .T. ) ;
#546 = AXIS2_PLACEMENT_3D ( 'NONE', #113, #114, #115 ) ;
#547 = AXIS2_PLACEMENT_3D ( 'NONE', #116, #117, #118 ) ;
#548 = FACE_OUTER_BOUND ( 'NONE', #742, .T. ) ;
#549 = AXIS2_PLACEMENT_3D ( 'NONE', #555, #553, #1 ) ;
#550 = VECTOR ( 'NONE', #5, 1000.000000000000000 ) ;
#551 = AXIS2_PLACEMENT_3D ( 'NONE', #17, #16, #15 ) ;
#552 = VECTOR ( 'NONE', #8, 1000.000000000000100 ) ;
#553 = DIRECTION ( 'NONE',  ( -5.115907697472720400E-015, 1.000000000000000000, -0.0000000000000000000 ) ) ;
#554 = PRODUCT ( '99688-SI10-10+S9MT1003-060', '99688-SI10-10+S9MT1003-060', '', ( #563 ) ) ;
#555 = CARTESIAN_POINT ( 'NONE',  ( -1.790567694115447900E-013, 34.99999999999991500, 0.0000000000000000000 ) ) ;
#556 =( NAMED_UNIT ( * ) PLANE_ANGLE_UNIT ( ) SI_UNIT ( $, .RADIAN. ) );
#557 =( NAMED_UNIT ( * ) SI_UNIT ( $, .STERADIAN. ) SOLID_ANGLE_UNIT ( ) );
#558 = CARTESIAN_POINT ( 'NONE',  ( 0.0000000000000000000, 0.0000000000000000000, 0.0000000000000000000 ) ) ;
#559 = DIRECTION ( 'NONE',  ( 0.0000000000000000000, 0.0000000000000000000, 1.000000000000000000 ) ) ;
#560 = DIRECTION ( 'NONE',  ( 1.000000000000000000, 0.0000000000000000000, 0.0000000000000000000 ) ) ;
#561 = SHAPE_DEFINITION_REPRESENTATION ( #601, #379 ) ;
#562 = APPLICATION_PROTOCOL_DEFINITION ( 'draft international standard', 'automotive_design', 1998, #515 ) ;
#563 = PRODUCT_CONTEXT ( 'NONE', #515, 'mechanical' ) ;
#564 = APPLICATION_PROTOCOL_DEFINITION ( 'draft international standard', 'automotive_design', 1998, #516 ) ;
#565 = CIRCLE ( 'NONE', #22, 5.599999999997131700 ) ;
#566 = CIRCLE ( 'NONE', #35, 6.500000000000750500 ) ;
#567 = CIRCLE ( 'NONE', #52, 6.400000000000824600 ) ;
#568 = COLOUR_RGB ( '',0.7921568627450980000, 0.8196078431372548800, 0.9333333333333333500 ) ;
#569 = PRODUCT_DEFINITION ( 'UNKNOWN', '', #3, #600 ) ;
#570 = PRODUCT_RELATED_PRODUCT_CATEGORY ( 'part', '', ( #554 ) ) ;
#571 = COLOUR_RGB ( '',0.7921568627450980000, 0.8196078431372548800, 0.9333333333333333500 ) ;
#572 = DIRECTION ( 'NONE',  ( 1.000000000000000000, 0.0000000000000000000, 1.224646799147353500E-016 ) ) ;
#573 = DIRECTION ( 'NONE',  ( -1.224646799147353200E-016, -6.265179986443272400E-031, 1.000000000000000000 ) ) ;
#574 = CARTESIAN_POINT ( 'NONE',  ( 6.100000000000680900, 13.70340269485715400, 7.470345474799773300E-016 ) ) ;
#575 = DIRECTION ( 'NONE',  ( -1.000000000000000000, -5.551115123128828500E-015, 0.0000000000000000000 ) ) ;
#576 = DIRECTION ( 'NONE',  ( -5.115907697472720400E-015, 1.000000000000000000, -0.0000000000000000000 ) ) ;
#577 = CARTESIAN_POINT ( 'NONE',  ( -3.826698957709594700E-013, 74.79999999999999700, 0.0000000000000000000 ) ) ;
#578 = DIRECTION ( 'NONE',  ( -1.000000000000000000, -5.782411586592647600E-015, 0.0000000000000000000 ) ) ;
#579 = DIRECTION ( 'NONE',  ( -5.115907697472720400E-015, 1.000000000000000000, -0.0000000000000000000 ) ) ;
#580 = CARTESIAN_POINT ( 'NONE',  ( -3.836930773104539000E-013, 74.99999999999997200, 0.0000000000000000000 ) ) ;
#581 = ORIENTED_EDGE ( 'NONE', *, *, #420, .T. ) ;
#582 = ORIENTED_EDGE ( 'NONE', *, *, #408, .T. ) ;
#583 = ORIENTED_EDGE ( 'NONE', *, *, #409, .T. ) ;
#584 = ORIENTED_EDGE ( 'NONE', *, *, #408, .F. ) ;
#585 = ORIENTED_EDGE ( 'NONE', *, *, #413, .F. ) ;
#586 = ORIENTED_EDGE ( 'NONE', *, *, #422, .T. ) ;
#587 = ORIENTED_EDGE ( 'NONE', *, *, #421, .T. ) ;
#588 = ORIENTED_EDGE ( 'NONE', *, *, #418, .T. ) ;
#589 = ORIENTED_EDGE ( 'NONE', *, *, #414, .F. ) ;
#590 = ORIENTED_EDGE ( 'NONE', *, *, #409, .F. ) ;
#591 = ORIENTED_EDGE ( 'NONE', *, *, #415, .T. ) ;
#592 = ORIENTED_EDGE ( 'NONE', *, *, #416, .F. ) ;
#593 = ORIENTED_EDGE ( 'NONE', *, *, #419, .F. ) ;
#594 = ORIENTED_EDGE ( 'NONE', *, *, #450, .T. ) ;
#595 = ORIENTED_EDGE ( 'NONE', *, *, #485, .F. ) ;
#596 = EDGE_LOOP ( 'NONE', ( #606, #610, #749, #603 ) ) ;
#597 = EDGE_LOOP ( 'NONE', ( #611, #612, #608, #607 ) ) ;
#598 = EDGE_LOOP ( 'NONE', ( #746, #748, #604, #745 ) ) ;
#599 = MANIFOLD_SOLID_BREP ( '±ÛÂà1', #525 ) ;
#600 = PRODUCT_DEFINITION_CONTEXT ( 'detailed design', #516, 'design' ) ;
#601 = PRODUCT_DEFINITION_SHAPE ( 'NONE', 'NONE',  #569 ) ;
#602 = ORIENTED_EDGE ( 'NONE', *, *, #486, .T. ) ;
#603 = ORIENTED_EDGE ( 'NONE', *, *, #422, .F. ) ;
#604 = ORIENTED_EDGE ( 'NONE', *, *, #411, .T. ) ;
#605 = ORIENTED_EDGE ( 'NONE', *, *, #412, .T. ) ;
#606 = ORIENTED_EDGE ( 'NONE', *, *, #420, .F. ) ;
#607 = ORIENTED_EDGE ( 'NONE', *, *, #421, .F. ) ;
#608 = ORIENTED_EDGE ( 'NONE', *, *, #417, .F. ) ;
#609 = ORIENTED_EDGE ( 'NONE', *, *, #488, .F. ) ;
#610 = ORIENTED_EDGE ( 'NONE', *, *, #413, .T. ) ;
#611 = ORIENTED_EDGE ( 'NONE', *, *, #416, .T. ) ;
#612 = ORIENTED_EDGE ( 'NONE', *, *, #414, .T. ) ;
#613 = VERTEX_POINT ( 'NONE', #337 ) ;
#614 = VERTEX_POINT ( 'NONE', #338 ) ;
#615 = VERTEX_POINT ( 'NONE', #339 ) ;
#616 = VERTEX_POINT ( 'NONE', #340 ) ;
#617 = VERTEX_POINT ( 'NONE', #341 ) ;
#618 = VERTEX_POINT ( 'NONE', #342 ) ;
#619 = VERTEX_POINT ( 'NONE', #343 ) ;
#620 = VERTEX_POINT ( 'NONE', #344 ) ;
#621 = VERTEX_POINT ( 'NONE', #345 ) ;
#622 = VERTEX_POINT ( 'NONE', #346 ) ;
#623 = VERTEX_POINT ( 'NONE', #347 ) ;
#624 = VERTEX_POINT ( 'NONE', #348 ) ;
#625 = VERTEX_POINT ( 'NONE', #349 ) ;
#626 = VERTEX_POINT ( 'NONE', #350 ) ;
#627 = VERTEX_POINT ( 'NONE', #351 ) ;
#628 = VERTEX_POINT ( 'NONE', #352 ) ;
#629 = VERTEX_POINT ( 'NONE', #353 ) ;
#630 = VERTEX_POINT ( 'NONE', #354 ) ;
#631 = VERTEX_POINT ( 'NONE', #355 ) ;
#632 = VERTEX_POINT ( 'NONE', #356 ) ;
#633 = VERTEX_POINT ( 'NONE', #357 ) ;
#634 = VERTEX_POINT ( 'NONE', #358 ) ;
#635 = VERTEX_POINT ( 'NONE', #359 ) ;
#636 = VERTEX_POINT ( 'NONE', #360 ) ;
#637 = VERTEX_POINT ( 'NONE', #361 ) ;
#638 = VERTEX_POINT ( 'NONE', #362 ) ;
#639 = ORIENTED_EDGE ( 'NONE', *, *, #449, .T. ) ;
#640 = ORIENTED_EDGE ( 'NONE', *, *, #449, .F. ) ;
#641 = ORIENTED_EDGE ( 'NONE', *, *, #412, .F. ) ;
#642 = ORIENTED_EDGE ( 'NONE', *, *, #490, .T. ) ;
#643 = ORIENTED_EDGE ( 'NONE', *, *, #486, .F. ) ;
#644 = ORIENTED_EDGE ( 'NONE', *, *, #488, .T. ) ;
#645 = ORIENTED_EDGE ( 'NONE', *, *, #450, .F. ) ;
#646 = ORIENTED_EDGE ( 'NONE', *, *, #452, .T. ) ;
#647 = ORIENTED_EDGE ( 'NONE', *, *, #451, .T. ) ;
#648 = ORIENTED_EDGE ( 'NONE', *, *, #451, .F. ) ;
#649 = ORIENTED_EDGE ( 'NONE', *, *, #487, .F. ) ;
#650 = ORIENTED_EDGE ( 'NONE', *, *, #482, .T. ) ;
#651 = ORIENTED_EDGE ( 'NONE', *, *, #485, .T. ) ;
#652 = ORIENTED_EDGE ( 'NONE', *, *, #453, .T. ) ;
#653 = ORIENTED_EDGE ( 'NONE', *, *, #483, .F. ) ;
#654 = ORIENTED_EDGE ( 'NONE', *, *, #452, .F. ) ;
#655 = ORIENTED_EDGE ( 'NONE', *, *, #477, .T. ) ;
#656 = ORIENTED_EDGE ( 'NONE', *, *, #454, .T. ) ;
#657 = ORIENTED_EDGE ( 'NONE', *, *, #410, .F. ) ;
#658 = ORIENTED_EDGE ( 'NONE', *, *, #453, .F. ) ;
#659 = ORIENTED_EDGE ( 'NONE', *, *, #474, .T. ) ;
#660 = ORIENTED_EDGE ( 'NONE', *, *, #472, .T. ) ;
#661 = ORIENTED_EDGE ( 'NONE', *, *, #476, .F. ) ;
#662 = ORIENTED_EDGE ( 'NONE', *, *, #454, .F. ) ;
#663 = ORIENTED_EDGE ( 'NONE', *, *, #470, .T. ) ;
#664 = ORIENTED_EDGE ( 'NONE', *, *, #475, .F. ) ;
#665 = ORIENTED_EDGE ( 'NONE', *, *, #473, .F. ) ;
#666 = ORIENTED_EDGE ( 'NONE', *, *, #467, .T. ) ;
#667 = ORIENTED_EDGE ( 'NONE', *, *, #466, .T. ) ;
#668 = ORIENTED_EDGE ( 'NONE', *, *, #455, .T. ) ;
#669 = ORIENTED_EDGE ( 'NONE', *, *, #469, .F. ) ;
#670 = ORIENTED_EDGE ( 'NONE', *, *, #471, .F. ) ;
#671 = ORIENTED_EDGE ( 'NONE', *, *, #463, .T. ) ;
#672 = ORIENTED_EDGE ( 'NONE', *, *, #456, .T. ) ;
#673 = ORIENTED_EDGE ( 'NONE', *, *, #465, .F. ) ;
#674 = ORIENTED_EDGE ( 'NONE', *, *, #455, .F. ) ;
#675 = ORIENTED_EDGE ( 'NONE', *, *, #460, .T. ) ;
#676 = ORIENTED_EDGE ( 'NONE', *, *, #457, .T. ) ;
#677 = ORIENTED_EDGE ( 'NONE', *, *, #462, .F. ) ;
#678 = ORIENTED_EDGE ( 'NONE', *, *, #456, .F. ) ;
#679 = ORIENTED_EDGE ( 'NONE', *, *, #457, .F. ) ;
#680 = ORIENTED_EDGE ( 'NONE', *, *, #458, .T. ) ;
#681 = ORIENTED_EDGE ( 'NONE', *, *, #459, .F. ) ;
#682 = ORIENTED_EDGE ( 'NONE', *, *, #459, .T. ) ;
#683 = ORIENTED_EDGE ( 'NONE', *, *, #461, .F. ) ;
#684 = ORIENTED_EDGE ( 'NONE', *, *, #458, .F. ) ;
#685 = ORIENTED_EDGE ( 'NONE', *, *, #460, .F. ) ;
#686 = ORIENTED_EDGE ( 'NONE', *, *, #462, .T. ) ;
#687 = ORIENTED_EDGE ( 'NONE', *, *, #464, .F. ) ;
#688 = ORIENTED_EDGE ( 'NONE', *, *, #461, .T. ) ;
#689 = ORIENTED_EDGE ( 'NONE', *, *, #463, .F. ) ;
#690 = ORIENTED_EDGE ( 'NONE', *, *, #465, .T. ) ;
#691 = ORIENTED_EDGE ( 'NONE', *, *, #468, .F. ) ;
#692 = ORIENTED_EDGE ( 'NONE', *, *, #464, .T. ) ;
#693 = ORIENTED_EDGE ( 'NONE', *, *, #466, .F. ) ;
#694 = ORIENTED_EDGE ( 'NONE', *, *, #469, .T. ) ;
#695 = ORIENTED_EDGE ( 'NONE', *, *, #467, .F. ) ;
#696 = ORIENTED_EDGE ( 'NONE', *, *, #468, .T. ) ;
#697 = ORIENTED_EDGE ( 'NONE', *, *, #470, .F. ) ;
#698 = ORIENTED_EDGE ( 'NONE', *, *, #473, .T. ) ;
#699 = ORIENTED_EDGE ( 'NONE', *, *, #471, .T. ) ;
#700 = ORIENTED_EDGE ( 'NONE', *, *, #472, .F. ) ;
#701 = ORIENTED_EDGE ( 'NONE', *, *, #474, .F. ) ;
#702 = ORIENTED_EDGE ( 'NONE', *, *, #476, .T. ) ;
#703 = ORIENTED_EDGE ( 'NONE', *, *, #478, .F. ) ;
#704 = ORIENTED_EDGE ( 'NONE', *, *, #475, .T. ) ;
#705 = ORIENTED_EDGE ( 'NONE', *, *, #477, .F. ) ;
#706 = ORIENTED_EDGE ( 'NONE', *, *, #410, .T. ) ;
#707 = ORIENTED_EDGE ( 'NONE', *, *, #484, .F. ) ;
#708 = ORIENTED_EDGE ( 'NONE', *, *, #478, .T. ) ;
#709 = ORIENTED_EDGE ( 'NONE', *, *, #484, .T. ) ;
#710 = ORIENTED_EDGE ( 'NONE', *, *, #481, .F. ) ;
#711 = ORIENTED_EDGE ( 'NONE', *, *, #483, .T. ) ;
#712 = VERTEX_POINT ( 'NONE', #363 ) ;
#713 = VERTEX_POINT ( 'NONE', #364 ) ;
#714 = VERTEX_POINT ( 'NONE', #365 ) ;
#715 = ORIENTED_EDGE ( 'NONE', *, *, #490, .F. ) ;
#716 = ORIENTED_EDGE ( 'NONE', *, *, #481, .T. ) ;
#717 = ORIENTED_EDGE ( 'NONE', *, *, #487, .T. ) ;
#718 = ORIENTED_EDGE ( 'NONE', *, *, #482, .F. ) ;
#719 = EDGE_LOOP ( 'NONE', ( #747, #605, #602, #609 ) ) ;
#720 = EDGE_LOOP ( 'NONE', ( #715, #717, #716, #718 ) ) ;
#721 = EDGE_LOOP ( 'NONE', ( #709, #711, #710, #595 ) ) ;
#722 = EDGE_LOOP ( 'NONE', ( #708, #706, #707, #705 ) ) ;
#723 = EDGE_LOOP ( 'NONE', ( #704, #702, #703, #701 ) ) ;
#724 = EDGE_LOOP ( 'NONE', ( #700, #698, #699, #697 ) ) ;
#725 = EDGE_LOOP ( 'NONE', ( #696, #694, #695, #693 ) ) ;
#726 = EDGE_LOOP ( 'NONE', ( #692, #690, #691, #689 ) ) ;
#727 = EDGE_LOOP ( 'NONE', ( #688, #686, #687, #685 ) ) ;
#728 = EDGE_LOOP ( 'NONE', ( #684, #682, #683 ) ) ;
#729 = EDGE_LOOP ( 'NONE', ( #681, #680, #679 ) ) ;
#730 = EDGE_LOOP ( 'NONE', ( #677, #676, #675, #678 ) ) ;
#731 = EDGE_LOOP ( 'NONE', ( #673, #672, #671, #674 ) ) ;
#732 = EDGE_LOOP ( 'NONE', ( #669, #668, #667, #670 ) ) ;
#733 = EDGE_LOOP ( 'NONE', ( #665, #664, #663, #666 ) ) ;
#734 = EDGE_LOOP ( 'NONE', ( #661, #660, #659, #662 ) ) ;
#735 = EDGE_LOOP ( 'NONE', ( #657, #656, #655, #658 ) ) ;
#736 = EDGE_LOOP ( 'NONE', ( #653, #652, #651, #654 ) ) ;
#737 = EDGE_LOOP ( 'NONE', ( #649, #648, #650, #646 ) ) ;
#738 = EDGE_LOOP ( 'NONE', ( #645, #643 ) ) ;
#739 = EDGE_LOOP ( 'NONE', ( #647, #642 ) ) ;
#740 = EDGE_LOOP ( 'NONE', ( #641, #640, #644, #594 ) ) ;
#741 = EDGE_LOOP ( 'NONE', ( #593, #592, #591, #639 ) ) ;
#742 = EDGE_LOOP ( 'NONE', ( #589, #588, #587, #590 ) ) ;
#743 = EDGE_LOOP ( 'NONE', ( #585, #584, #586, #583 ) ) ;
#744 = EDGE_LOOP ( 'NONE', ( #582, #581 ) ) ;
#745 = ORIENTED_EDGE ( 'NONE', *, *, #415, .F. ) ;
#746 = ORIENTED_EDGE ( 'NONE', *, *, #418, .F. ) ;
#747 = ORIENTED_EDGE ( 'NONE', *, *, #411, .F. ) ;
#748 = ORIENTED_EDGE ( 'NONE', *, *, #419, .T. ) ;
#749 = ORIENTED_EDGE ( 'NONE', *, *, #417, .T. ) ;
#750 =( GEOMETRIC_REPRESENTATION_CONTEXT ( 3 ) GLOBAL_UNCERTAINTY_ASSIGNED_CONTEXT ( ( #376 ) ) GLOBAL_UNIT_ASSIGNED_CONTEXT ( ( #334, #335, #336 ) ) REPRESENTATION_CONTEXT ( 'NONE', 'WORKASPACE' ) );
#751 =( GEOMETRIC_REPRESENTATION_CONTEXT ( 3 ) GLOBAL_UNCERTAINTY_ASSIGNED_CONTEXT ( ( #378 ) ) GLOBAL_UNIT_ASSIGNED_CONTEXT ( ( #366, #367, #368 ) ) REPRESENTATION_CONTEXT ( 'NONE', 'WORKASPACE' ) );
#752 =( GEOMETRIC_REPRESENTATION_CONTEXT ( 3 ) GLOBAL_UNCERTAINTY_ASSIGNED_CONTEXT ( ( #377 ) ) GLOBAL_UNIT_ASSIGNED_CONTEXT ( ( #375, #556, #557 ) ) REPRESENTATION_CONTEXT ( 'NONE', 'WORKASPACE' ) );
ENDSEC;
END-ISO-10303-21;
