ISO-10303-21;
HEADER;
FILE_DESCRIPTION (( 'STEP AP214' ),
    '1' );
FILE_NAME ('99688-SI20-20+S9MT2004-120.STEP',
    '2022-11-03T01:08:56',
    ( 'User' ),
    ( 'GENUINE' ),
    'SwSTEP 2.0',
    'SolidWorks 2012',
    '' );
FILE_SCHEMA (( 'AUTOMOTIVE_DESIGN' ));
ENDSEC;

DATA;
#1 = PRODUCT_DEFINITION_SHAPE ( 'NONE', 'NONE',  #119 ) ;
#2 = PRODUCT_DEFINITION_CONTEXT ( 'detailed design', #211, 'design' ) ;
#3 = MANIFOLD_SOLID_BREP ( '±ÛÂà1', #476 ) ;
#4 = CARTESIAN_POINT ( 'NONE',  ( 0.0000000000000000000, 59.99999999999988600, 0.0000000000000000000 ) ) ;
#5 = DIRECTION ( 'NONE',  ( -0.0000000000000000000, 1.000000000000000000, -0.0000000000000000000 ) ) ;
#6 = CARTESIAN_POINT ( 'NONE',  ( 0.0000000000000000000, 109.5999999999999700, -9.999999999993860900 ) ) ;
#7 = LINE ( 'NONE', #6, #505 ) ;
#8 = DIRECTION ( 'NONE',  ( 8.659560562290264800E-017, -0.7071067811918281300, 0.7071067811812670200 ) ) ;
#9 = CARTESIAN_POINT ( 'NONE',  ( 1.224646799146601300E-015, 109.5999999999999700, 9.999999999993860900 ) ) ;
#10 = LINE ( 'NONE', #9, #503 ) ;
#11 = DIRECTION ( 'NONE',  ( -0.0000000000000000000, 1.000000000000000000, -0.0000000000000000000 ) ) ;
#12 = CARTESIAN_POINT ( 'NONE',  ( 0.0000000000000000000, 110.0000000000000600, 9.999999999993860900 ) ) ;
#13 = LINE ( 'NONE', #12, #501 ) ;
#14 = CARTESIAN_POINT ( 'NONE',  ( 1.273632671112495700E-015, 59.99999999999990100, -10.39999999999386100 ) ) ;
#15 = DIRECTION ( 'NONE',  ( 0.0000000000000000000, 0.0000000000000000000, 1.000000000000000000 ) ) ;
#16 = DIRECTION ( 'NONE',  ( -0.0000000000000000000, 1.000000000000000000, -0.0000000000000000000 ) ) ;
#17 = DIRECTION ( 'NONE',  ( 8.659560562355045000E-017, -0.7071067811865383600, 0.7071067811865566800 ) ) ;
#18 = CARTESIAN_POINT ( 'NONE',  ( 1.592040838891663600E-015, 59.79999999999995500, 13.00000000000085300 ) ) ;
#19 = LINE ( 'NONE', #18, #500 ) ;
#20 = PRODUCT ( '99688-SI20-20+S9MT2004-120', '99688-SI20-20+S9MT2004-120', '', ( #379 ) ) ;
#21 = EDGE_LOOP ( 'NONE', ( #41, #56, #53, #57 ) ) ;
#22 = EDGE_LOOP ( 'NONE', ( #44, #43, #46, #42 ) ) ;
#23 = EDGE_LOOP ( 'NONE', ( #59, #50, #55, #54 ) ) ;
#24 = EDGE_LOOP ( 'NONE', ( #49, #45, #51, #52 ) ) ;
#25 = EDGE_LOOP ( 'NONE', ( #441, #443, #442, #444 ) ) ;
#26 = EDGE_LOOP ( 'NONE', ( #446, #448, #447, #449 ) ) ;
#27 = EDGE_LOOP ( 'NONE', ( #450, #48, #445, #452 ) ) ;
#28 = EDGE_LOOP ( 'NONE', ( #415, #413, #414 ) ) ;
#29 = EDGE_LOOP ( 'NONE', ( #412, #411, #410 ) ) ;
#30 = EDGE_LOOP ( 'NONE', ( #408, #93, #92, #409 ) ) ;
#31 = EDGE_LOOP ( 'NONE', ( #90, #89, #88, #91 ) ) ;
#32 = EDGE_LOOP ( 'NONE', ( #86, #85, #84, #87 ) ) ;
#33 = EDGE_LOOP ( 'NONE', ( #82, #81, #83, #79 ) ) ;
#34 = EDGE_LOOP ( 'NONE', ( #78, #76 ) ) ;
#35 = EDGE_LOOP ( 'NONE', ( #80, #75 ) ) ;
#36 = EDGE_LOOP ( 'NONE', ( #74, #73, #77, #71 ) ) ;
#37 = EDGE_LOOP ( 'NONE', ( #70, #69, #68, #72 ) ) ;
#38 = EDGE_LOOP ( 'NONE', ( #66, #65, #64, #67 ) ) ;
#39 = EDGE_LOOP ( 'NONE', ( #62, #419, #63, #418 ) ) ;
#40 = EDGE_LOOP ( 'NONE', ( #417, #416 ) ) ;
#41 = ORIENTED_EDGE ( 'NONE', *, *, #161, .F. ) ;
#42 = ORIENTED_EDGE ( 'NONE', *, *, #167, .F. ) ;
#43 = ORIENTED_EDGE ( 'NONE', *, *, #162, .T. ) ;
#44 = ORIENTED_EDGE ( 'NONE', *, *, #172, .T. ) ;
#45 = ORIENTED_EDGE ( 'NONE', *, *, #165, .T. ) ;
#46 = ORIENTED_EDGE ( 'NONE', *, *, #174, .F. ) ;
#47 = ORIENTED_EDGE ( 'NONE', *, *, #164, .F. ) ;
#48 = ORIENTED_EDGE ( 'NONE', *, *, #115, .T. ) ;
#49 = ORIENTED_EDGE ( 'NONE', *, *, #166, .F. ) ;
#50 = ORIENTED_EDGE ( 'NONE', *, *, #173, .T. ) ;
#51 = ORIENTED_EDGE ( 'NONE', *, *, #163, .T. ) ;
#52 = ORIENTED_EDGE ( 'NONE', *, *, #177, .F. ) ;
#53 = ORIENTED_EDGE ( 'NONE', *, *, #174, .T. ) ;
#54 = ORIENTED_EDGE ( 'NONE', *, *, #178, .F. ) ;
#55 = ORIENTED_EDGE ( 'NONE', *, *, #171, .T. ) ;
#56 = ORIENTED_EDGE ( 'NONE', *, *, #168, .T. ) ;
#57 = ORIENTED_EDGE ( 'NONE', *, *, #169, .F. ) ;
#58 = ORIENTED_EDGE ( 'NONE', *, *, #170, .T. ) ;
#59 = ORIENTED_EDGE ( 'NONE', *, *, #176, .F. ) ;
#60 = ORIENTED_EDGE ( 'NONE', *, *, #175, .F. ) ;
#61 = ORIENTED_EDGE ( 'NONE', *, *, #176, .T. ) ;
#62 = ORIENTED_EDGE ( 'NONE', *, *, #168, .F. ) ;
#63 = ORIENTED_EDGE ( 'NONE', *, *, #169, .T. ) ;
#64 = ORIENTED_EDGE ( 'NONE', *, *, #167, .T. ) ;
#65 = ORIENTED_EDGE ( 'NONE', *, *, #164, .T. ) ;
#66 = ORIENTED_EDGE ( 'NONE', *, *, #162, .F. ) ;
#67 = ORIENTED_EDGE ( 'NONE', *, *, #179, .F. ) ;
#68 = ORIENTED_EDGE ( 'NONE', *, *, #175, .T. ) ;
#69 = ORIENTED_EDGE ( 'NONE', *, *, #172, .F. ) ;
#70 = ORIENTED_EDGE ( 'NONE', *, *, #170, .F. ) ;
#71 = ORIENTED_EDGE ( 'NONE', *, *, #181, .T. ) ;
#72 = ORIENTED_EDGE ( 'NONE', *, *, #180, .T. ) ;
#73 = ORIENTED_EDGE ( 'NONE', *, *, #180, .F. ) ;
#74 = ORIENTED_EDGE ( 'NONE', *, *, #173, .F. ) ;
#75 = ORIENTED_EDGE ( 'NONE', *, *, #166, .T. ) ;
#76 = ORIENTED_EDGE ( 'NONE', *, *, #171, .F. ) ;
#77 = ORIENTED_EDGE ( 'NONE', *, *, #178, .T. ) ;
#78 = ORIENTED_EDGE ( 'NONE', *, *, #181, .F. ) ;
#79 = ORIENTED_EDGE ( 'NONE', *, *, #183, .T. ) ;
#80 = ORIENTED_EDGE ( 'NONE', *, *, #182, .T. ) ;
#81 = ORIENTED_EDGE ( 'NONE', *, *, #182, .F. ) ;
#82 = ORIENTED_EDGE ( 'NONE', *, *, #165, .F. ) ;
#83 = ORIENTED_EDGE ( 'NONE', *, *, #177, .T. ) ;
#84 = ORIENTED_EDGE ( 'NONE', *, *, #207, .T. ) ;
#85 = ORIENTED_EDGE ( 'NONE', *, *, #184, .T. ) ;
#86 = ORIENTED_EDGE ( 'NONE', *, *, #205, .F. ) ;
#87 = ORIENTED_EDGE ( 'NONE', *, *, #183, .F. ) ;
#88 = ORIENTED_EDGE ( 'NONE', *, *, #116, .T. ) ;
#89 = ORIENTED_EDGE ( 'NONE', *, *, #185, .T. ) ;
#90 = ORIENTED_EDGE ( 'NONE', *, *, #208, .F. ) ;
#91 = ORIENTED_EDGE ( 'NONE', *, *, #184, .F. ) ;
#92 = ORIENTED_EDGE ( 'NONE', *, *, #160, .T. ) ;
#93 = ORIENTED_EDGE ( 'NONE', *, *, #186, .T. ) ;
#94 = UNCERTAINTY_MEASURE_WITH_UNIT (LENGTH_MEASURE( 1.000000000000000100E-005 ), #467, 'distance_accuracy_value', 'NONE');
#95 = AXIS2_PLACEMENT_3D ( 'NONE', #308, #309, #310 ) ;
#96 = AXIS2_PLACEMENT_3D ( 'NONE', #314, #315, #316 ) ;
#97 = CYLINDRICAL_SURFACE ( 'NONE', #96, 9.999999999993860900 ) ;
#98 = FACE_OUTER_BOUND ( 'NONE', #36, .T. ) ;
#99 = FACE_OUTER_BOUND ( 'NONE', #38, .T. ) ;
#100 = AXIS2_PLACEMENT_3D ( 'NONE', #311, #312, #313 ) ;
#101 = FACE_OUTER_BOUND ( 'NONE', #39, .T. ) ;
#102 = AXIS2_PLACEMENT_3D ( 'NONE', #320, #321, #322 ) ;
#103 = AXIS2_PLACEMENT_3D ( 'NONE', #326, #327, #328 ) ;
#104 = AXIS2_PLACEMENT_3D ( 'NONE', #338, #339, #340 ) ;
#105 = VECTOR ( 'NONE', #325, 1000.000000000000000 ) ;
#106 = VECTOR ( 'NONE', #332, 1000.000000000000000 ) ;
#107 = AXIS2_PLACEMENT_3D ( 'NONE', #329, #336, #337 ) ;
#108 = VECTOR ( 'NONE', #335, 1000.000000000000000 ) ;
#109 = STYLED_ITEM ( 'NONE', ( #371 ), #220 ) ;
#110 = PRESENTATION_LAYER_ASSIGNMENT (  '', '', ( #109 ) ) ;
#111 = MECHANICAL_DESIGN_GEOMETRIC_PRESENTATION_REPRESENTATION (  '', ( #109 ), #215 ) ;
#112 = AXIS2_PLACEMENT_3D ( 'NONE', #375, #376, #377 ) ;
#113 = PRODUCT_DEFINITION_FORMATION_WITH_SPECIFIED_SOURCE ( 'ANY', '', #20, .NOT_KNOWN. ) ;
#114 = AXIS2_PLACEMENT_3D ( 'NONE', #317, #318, #319 ) ;
#115 = EDGE_CURVE ( 'NONE', #435, #433, #464, .T. ) ;
#116 = EDGE_CURVE ( 'NONE', #432, #430, #460, .T. ) ;
#117 = CONICAL_SURFACE ( 'NONE', #489, 13.00000000000085300, 0.7853981633974612700 ) ;
#118 = COLOUR_RGB ( '',0.7921568627450980000, 0.8196078431372548800, 0.9333333333333333500 ) ;
#119 = PRODUCT_DEFINITION ( 'UNKNOWN', '', #113, #2 ) ;
#120 = PRODUCT_RELATED_PRODUCT_CATEGORY ( 'part', '', ( #20 ) ) ;
#121 = CIRCLE ( 'NONE', #104, 10.00000000000028400 ) ;
#122 = TOROIDAL_SURFACE ( 'NONE', #102, 10.39999999999386100, 0.3999999999999995200 ) ;
#123 = CIRCLE ( 'NONE', #103, 13.00000000000085300 ) ;
#124 = CONICAL_SURFACE ( 'NONE', #114, 11.19999999999390600, 1.047197551196649600 ) ;
#125 = CONICAL_SURFACE ( 'NONE', #100, 9.999999999993860900, 0.7853981633899803600 ) ;
#126 = CIRCLE ( 'NONE', #107, 10.00000000000051200 ) ;
#127 = CIRCLE ( 'NONE', #529, 9.599999999999852200 ) ;
#128 = CONICAL_SURFACE ( 'NONE', #544, 1732.050807569052000, 1.047197551196641400 ) ;
#129 = CONICAL_SURFACE ( 'NONE', #539, 10.00000000000028400, 0.4205343352856557600 ) ;
#130 = CONICAL_SURFACE ( 'NONE', #546, 1732.050807569052000, 1.047197551196641400 ) ;
#131 = TOROIDAL_SURFACE ( 'NONE', #530, 10.39999999999386100, 0.3999999999999995200 ) ;
#132 = CONICAL_SURFACE ( 'NONE', #532, 11.19999999999390600, 1.047197551196649600 ) ;
#133 = CONICAL_SURFACE ( 'NONE', #528, 9.999999999993860900, 0.7853981633899803600 ) ;
#134 = CONICAL_SURFACE ( 'NONE', #534, 13.00000000000085300, 0.7853981633974612700 ) ;
#135 = CIRCLE ( 'NONE', #518, 10.00000000000051200 ) ;
#136 = CIRCLE ( 'NONE', #519, 10.00000000000028400 ) ;
#137 = CIRCLE ( 'NONE', #516, 13.00000000000085300 ) ;
#138 = CIRCLE ( 'NONE', #515, 13.00000000000085300 ) ;
#139 = CIRCLE ( 'NONE', #511, 12.80000000000080700 ) ;
#140 = CIRCLE ( 'NONE', #502, 11.19999999999390600 ) ;
#141 = CIRCLE ( 'NONE', #508, 10.59999999999383700 ) ;
#142 = CIRCLE ( 'NONE', #513, 9.999999999993860900 ) ;
#143 = CIRCLE ( 'NONE', #510, 10.59999999999383700 ) ;
#144 = CIRCLE ( 'NONE', #493, 0.3999999999999993000 ) ;
#145 = CIRCLE ( 'NONE', #499, 9.999999999993860900 ) ;
#146 = CIRCLE ( 'NONE', #507, 9.999999999993860900 ) ;
#147 = CIRCLE ( 'NONE', #506, 11.19999999999390600 ) ;
#148 = CIRCLE ( 'NONE', #504, 0.3999999999999993000 ) ;
#149 = CIRCLE ( 'NONE', #498, 12.80000000000080700 ) ;
#150 = CIRCLE ( 'NONE', #491, 9.599999999999852200 ) ;
#151 = CIRCLE ( 'NONE', #497, 9.999999999993860900 ) ;
#152 = CIRCLE ( 'NONE', #495, 13.00000000000085300 ) ;
#153 = CONICAL_SURFACE ( 'NONE', #485, 10.00000000000028400, 0.4205343352856557600 ) ;
#154 = COLOUR_RGB ( '',0.7921568627450980000, 0.8196078431372548800, 0.9333333333333333500 ) ;
#155 = ADVANCED_FACE ( 'NONE', ( #478 ), #480, .T. ) ;
#156 = ADVANCED_FACE ( 'NONE', ( #477 ), #153, .T. ) ;
#157 = ADVANCED_FACE ( 'NONE', ( #484 ), #487, .T. ) ;
#158 = ADVANCED_FACE ( 'NONE', ( #483 ), #117, .T. ) ;
#159 = ADVANCED_FACE ( 'NONE', ( #488, #490 ), #400, .F. ) ;
#160 = EDGE_CURVE ( 'NONE', #434, #432, #396, .T. ) ;
#161 = EDGE_CURVE ( 'NONE', #439, #438, #150, .T. ) ;
#162 = EDGE_CURVE ( 'NONE', #423, #425, #389, .T. ) ;
#163 = EDGE_CURVE ( 'NONE', #428, #429, #152, .T. ) ;
#164 = EDGE_CURVE ( 'NONE', #423, #424, #151, .T. ) ;
#165 = EDGE_CURVE ( 'NONE', #440, #428, #19, .T. ) ;
#166 = EDGE_CURVE ( 'NONE', #440, #427, #149, .T. ) ;
#167 = EDGE_CURVE ( 'NONE', #424, #437, #13, .T. ) ;
#168 = EDGE_CURVE ( 'NONE', #439, #437, #10, .T. ) ;
#169 = EDGE_CURVE ( 'NONE', #438, #425, #7, .T. ) ;
#170 = EDGE_CURVE ( 'NONE', #423, #422, #148, .T. ) ;
#171 = EDGE_CURVE ( 'NONE', #420, #426, #147, .T. ) ;
#172 = EDGE_CURVE ( 'NONE', #424, #423, #146, .T. ) ;
#173 = EDGE_CURVE ( 'NONE', #422, #420, #227, .T. ) ;
#174 = EDGE_CURVE ( 'NONE', #437, #425, #145, .T. ) ;
#175 = EDGE_CURVE ( 'NONE', #424, #421, #144, .T. ) ;
#176 = EDGE_CURVE ( 'NONE', #422, #421, #143, .T. ) ;
#177 = EDGE_CURVE ( 'NONE', #427, #429, #239, .T. ) ;
#178 = EDGE_CURVE ( 'NONE', #421, #426, #242, .T. ) ;
#179 = EDGE_CURVE ( 'NONE', #425, #437, #142, .T. ) ;
#180 = EDGE_CURVE ( 'NONE', #421, #422, #141, .T. ) ;
#181 = EDGE_CURVE ( 'NONE', #426, #420, #140, .T. ) ;
#182 = EDGE_CURVE ( 'NONE', #427, #440, #139, .T. ) ;
#183 = EDGE_CURVE ( 'NONE', #429, #428, #138, .T. ) ;
#184 = EDGE_CURVE ( 'NONE', #431, #430, #137, .T. ) ;
#185 = EDGE_CURVE ( 'NONE', #433, #432, #136, .T. ) ;
#186 = EDGE_CURVE ( 'NONE', #435, #434, #135, .T. ) ;
#187 = EDGE_CURVE ( 'NONE', #436, #434, #269, .T. ) ;
#188 = EDGE_CURVE ( 'NONE', #436, #435, #272, .T. ) ;
#189 = ADVANCED_FACE ( 'NONE', ( #520 ), #521, .T. ) ;
#190 = ADVANCED_FACE ( 'NONE', ( #517 ), #133, .T. ) ;
#191 = ADVANCED_FACE ( 'NONE', ( #527 ), #131, .F. ) ;
#192 = ADVANCED_FACE ( 'NONE', ( #526 ), #132, .F. ) ;
#193 = ADVANCED_FACE ( 'NONE', ( #531 ), #134, .T. ) ;
#194 = ADVANCED_FACE ( 'NONE', ( #533 ), #536, .T. ) ;
#195 = ADVANCED_FACE ( 'NONE', ( #523 ), #129, .T. ) ;
#196 = ADVANCED_FACE ( 'NONE', ( #538 ), #541, .T. ) ;
#197 = ADVANCED_FACE ( 'NONE', ( #537 ), #128, .T. ) ;
#198 = ADVANCED_FACE ( 'NONE', ( #543 ), #130, .T. ) ;
#199 = EDGE_CURVE ( 'NONE', #438, #439, #127, .T. ) ;
#200 = ADVANCED_FACE ( 'NONE', ( #542 ), #307, .F. ) ;
#201 = ADVANCED_FACE ( 'NONE', ( #101 ), #125, .T. ) ;
#202 = ADVANCED_FACE ( 'NONE', ( #99 ), #97, .T. ) ;
#203 = ADVANCED_FACE ( 'NONE', ( #98 ), #124, .F. ) ;
#204 = ADVANCED_FACE ( 'NONE', ( #545 ), #122, .F. ) ;
#205 = EDGE_CURVE ( 'NONE', #431, #429, #323, .T. ) ;
#206 = EDGE_CURVE ( 'NONE', #430, #431, #123, .T. ) ;
#207 = EDGE_CURVE ( 'NONE', #430, #428, #330, .T. ) ;
#208 = EDGE_CURVE ( 'NONE', #433, #431, #333, .T. ) ;
#209 = EDGE_CURVE ( 'NONE', #434, #435, #126, .T. ) ;
#210 = EDGE_CURVE ( 'NONE', #432, #433, #121, .T. ) ;
#211 = APPLICATION_CONTEXT ( 'automotive_design' ) ;
#212 = APPLICATION_CONTEXT ( 'automotive_design' ) ;
#213 =( GEOMETRIC_REPRESENTATION_CONTEXT ( 3 ) GLOBAL_UNCERTAINTY_ASSIGNED_CONTEXT ( ( #94 ) ) GLOBAL_UNIT_ASSIGNED_CONTEXT ( ( #467, #466, #465 ) ) REPRESENTATION_CONTEXT ( 'NONE', 'WORKASPACE' ) );
#214 =( GEOMETRIC_REPRESENTATION_CONTEXT ( 3 ) GLOBAL_UNCERTAINTY_ASSIGNED_CONTEXT ( ( #221 ) ) GLOBAL_UNIT_ASSIGNED_CONTEXT ( ( #362, #363, #364 ) ) REPRESENTATION_CONTEXT ( 'NONE', 'WORKASPACE' ) );
#215 =( GEOMETRIC_REPRESENTATION_CONTEXT ( 3 ) GLOBAL_UNCERTAINTY_ASSIGNED_CONTEXT ( ( #219 ) ) GLOBAL_UNIT_ASSIGNED_CONTEXT ( ( #372, #373, #374 ) ) REPRESENTATION_CONTEXT ( 'NONE', 'WORKASPACE' ) );
#216 = DIRECTION ( 'NONE',  ( 1.000000000000000000, 0.0000000000000000000, 1.224646799147353200E-016 ) ) ;
#217 = DIRECTION ( 'NONE',  ( 0.0000000000000000000, -0.7071067811918281300, -0.7071067811812670200 ) ) ;
#218 = DIRECTION ( 'NONE',  ( 1.224646799147353500E-016, 0.0000000000000000000, -1.000000000000000000 ) ) ;
#219 = UNCERTAINTY_MEASURE_WITH_UNIT (LENGTH_MEASURE( 1.000000000000000100E-005 ), #372, 'distance_accuracy_value', 'NONE');
#220 = ADVANCED_BREP_SHAPE_REPRESENTATION ( '99688-SI20-20+S9MT2004-120', ( #3, #112 ), #214 ) ;
#221 = UNCERTAINTY_MEASURE_WITH_UNIT (LENGTH_MEASURE( 1.000000000000000100E-005 ), #362, 'distance_accuracy_value', 'NONE');
#222 = DIRECTION ( 'NONE',  ( 0.0000000000000000000, 0.0000000000000000000, 1.000000000000000000 ) ) ;
#223 = CARTESIAN_POINT ( 'NONE',  ( 0.0000000000000000000, 59.99999999999988600, 0.0000000000000000000 ) ) ;
#224 = DIRECTION ( 'NONE',  ( -0.0000000000000000000, 1.000000000000000000, -0.0000000000000000000 ) ) ;
#225 = DIRECTION ( 'NONE',  ( 0.0000000000000000000, 0.0000000000000000000, 1.000000000000000000 ) ) ;
#226 = CARTESIAN_POINT ( 'NONE',  ( 0.0000000000000000000, 109.5999999999999700, 0.0000000000000000000 ) ) ;
#227 = LINE ( 'NONE', #228, #509 ) ;
#228 = CARTESIAN_POINT ( 'NONE',  ( 1.371604415044289300E-015, 59.99999999999988600, -11.19999999999390600 ) ) ;
#229 = DIRECTION ( 'NONE',  ( 1.060575238724938500E-016, 0.4999999999999550400, -0.8660254037844645800 ) ) ;
#230 = DIRECTION ( 'NONE',  ( -0.0000000000000000000, 1.000000000000000000, -0.0000000000000000000 ) ) ;
#231 = DIRECTION ( 'NONE',  ( 0.0000000000000000000, 0.0000000000000000000, 1.000000000000000000 ) ) ;
#232 = CARTESIAN_POINT ( 'NONE',  ( 0.0000000000000000000, 59.99999999999990100, 10.39999999999386100 ) ) ;
#233 = DIRECTION ( 'NONE',  ( -1.000000000000000000, 0.0000000000000000000, 0.0000000000000000000 ) ) ;
#234 = DIRECTION ( 'NONE',  ( 0.0000000000000000000, 0.0000000000000000000, 1.000000000000000000 ) ) ;
#235 = CARTESIAN_POINT ( 'NONE',  ( 0.0000000000000000000, 59.65358983848611300, 0.0000000000000000000 ) ) ;
#236 = DIRECTION ( 'NONE',  ( -0.0000000000000000000, 1.000000000000000000, -0.0000000000000000000 ) ) ;
#237 = DIRECTION ( 'NONE',  ( 0.0000000000000000000, 0.0000000000000000000, 1.000000000000000000 ) ) ;
#238 = CARTESIAN_POINT ( 'NONE',  ( 0.0000000000000000000, 109.5999999999999700, 0.0000000000000000000 ) ) ;
#239 = LINE ( 'NONE', #240, #512 ) ;
#240 = CARTESIAN_POINT ( 'NONE',  ( 0.0000000000000000000, 59.79999999999995500, -13.00000000000085300 ) ) ;
#241 = DIRECTION ( 'NONE',  ( 0.0000000000000000000, -0.7071067811865383600, -0.7071067811865566800 ) ) ;
#242 = LINE ( 'NONE', #243, #514 ) ;
#243 = CARTESIAN_POINT ( 'NONE',  ( 0.0000000000000000000, 59.99999999999988600, 11.19999999999390600 ) ) ;
#244 = DIRECTION ( 'NONE',  ( 0.0000000000000000000, 0.4999999999999550400, 0.8660254037844645800 ) ) ;
#245 = DIRECTION ( 'NONE',  ( -0.0000000000000000000, 1.000000000000000000, -0.0000000000000000000 ) ) ;
#246 = DIRECTION ( 'NONE',  ( 0.0000000000000000000, 0.0000000000000000000, 1.000000000000000000 ) ) ;
#247 = CARTESIAN_POINT ( 'NONE',  ( 0.0000000000000000000, 59.65358983848611300, 0.0000000000000000000 ) ) ;
#248 = DIRECTION ( 'NONE',  ( -0.0000000000000000000, 1.000000000000000000, -0.0000000000000000000 ) ) ;
#249 = DIRECTION ( 'NONE',  ( 0.0000000000000000000, 0.0000000000000000000, 1.000000000000000000 ) ) ;
#250 = CARTESIAN_POINT ( 'NONE',  ( 0.0000000000000000000, 59.99999999999988600, 0.0000000000000000000 ) ) ;
#251 = DIRECTION ( 'NONE',  ( -0.0000000000000000000, 1.000000000000000000, -0.0000000000000000000 ) ) ;
#252 = DIRECTION ( 'NONE',  ( 0.0000000000000000000, 0.0000000000000000000, 1.000000000000000000 ) ) ;
#253 = CARTESIAN_POINT ( 'NONE',  ( 0.0000000000000000000, 60.00000000000000000, 0.0000000000000000000 ) ) ;
#254 = DIRECTION ( 'NONE',  ( -0.0000000000000000000, 1.000000000000000000, -0.0000000000000000000 ) ) ;
#255 = DIRECTION ( 'NONE',  ( 0.0000000000000000000, 0.0000000000000000000, 1.000000000000000000 ) ) ;
#256 = CARTESIAN_POINT ( 'NONE',  ( 0.0000000000000000000, 59.79999999999995500, 0.0000000000000000000 ) ) ;
#257 = DIRECTION ( 'NONE',  ( -0.0000000000000000000, 1.000000000000000000, -0.0000000000000000000 ) ) ;
#258 = DIRECTION ( 'NONE',  ( 0.0000000000000000000, 0.0000000000000000000, 1.000000000000000000 ) ) ;
#259 = CARTESIAN_POINT ( 'NONE',  ( 0.0000000000000000000, 27.23606797747253700, 0.0000000000000000000 ) ) ;
#260 = DIRECTION ( 'NONE',  ( -0.0000000000000000000, 1.000000000000000000, -0.0000000000000000000 ) ) ;
#261 = DIRECTION ( 'NONE',  ( 0.0000000000000000000, 0.0000000000000000000, 1.000000000000000000 ) ) ;
#262 = CARTESIAN_POINT ( 'NONE',  ( 0.0000000000000000000, 20.52786404500232800, 0.0000000000000000000 ) ) ;
#263 = DIRECTION ( 'NONE',  ( -0.0000000000000000000, 1.000000000000000000, -0.0000000000000000000 ) ) ;
#264 = DIRECTION ( 'NONE',  ( 0.0000000000000000000, 0.0000000000000000000, 1.000000000000000000 ) ) ;
#265 = CARTESIAN_POINT ( 'NONE',  ( 0.0000000000000000000, 5.773502691895970400, 0.0000000000000000000 ) ) ;
#266 = DIRECTION ( 'NONE',  ( -0.0000000000000000000, 1.000000000000000000, -0.0000000000000000000 ) ) ;
#267 = DIRECTION ( 'NONE',  ( 0.0000000000000000000, 0.0000000000000000000, 1.000000000000000000 ) ) ;
#268 = CARTESIAN_POINT ( 'NONE',  ( 0.0000000000000000000, 110.0000000000000600, 0.0000000000000000000 ) ) ;
#269 = LINE ( 'NONE', #270, #522 ) ;
#270 = CARTESIAN_POINT ( 'NONE',  ( 0.0000000000000000000, 0.0000000000000000000, 0.0000000000000000000 ) ) ;
#271 = DIRECTION ( 'NONE',  ( 0.0000000000000000000, 0.4999999999999622500, 0.8660254037844604700 ) ) ;
#272 = LINE ( 'NONE', #273, #524 ) ;
#273 = CARTESIAN_POINT ( 'NONE',  ( 0.0000000000000000000, 0.0000000000000000000, 0.0000000000000000000 ) ) ;
#274 = DIRECTION ( 'NONE',  ( 1.060575238724933800E-016, 0.4999999999999622500, -0.8660254037844604700 ) ) ;
#275 = DIRECTION ( 'NONE',  ( -0.0000000000000000000, 1.000000000000000000, -0.0000000000000000000 ) ) ;
#276 = DIRECTION ( 'NONE',  ( 0.0000000000000000000, 0.0000000000000000000, 1.000000000000000000 ) ) ;
#277 = CARTESIAN_POINT ( 'NONE',  ( 0.0000000000000000000, 109.5999999999999700, 0.0000000000000000000 ) ) ;
#278 = DIRECTION ( 'NONE',  ( 0.0000000000000000000, -1.000000000000000000, 0.0000000000000000000 ) ) ;
#279 = DIRECTION ( 'NONE',  ( 0.0000000000000000000, 0.0000000000000000000, -1.000000000000000000 ) ) ;
#280 = CARTESIAN_POINT ( 'NONE',  ( 0.0000000000000000000, 59.99999999999990100, 0.0000000000000000000 ) ) ;
#281 = DIRECTION ( 'NONE',  ( -0.0000000000000000000, 1.000000000000000000, -0.0000000000000000000 ) ) ;
#282 = DIRECTION ( 'NONE',  ( 0.0000000000000000000, 0.0000000000000000000, 1.000000000000000000 ) ) ;
#283 = CARTESIAN_POINT ( 'NONE',  ( 0.0000000000000000000, 59.99999999999988600, 0.0000000000000000000 ) ) ;
#284 = DIRECTION ( 'NONE',  ( -0.0000000000000000000, 1.000000000000000000, -0.0000000000000000000 ) ) ;
#285 = DIRECTION ( 'NONE',  ( 0.0000000000000000000, 0.0000000000000000000, 1.000000000000000000 ) ) ;
#286 = CARTESIAN_POINT ( 'NONE',  ( 0.0000000000000000000, 59.79999999999995500, 0.0000000000000000000 ) ) ;
#287 = DIRECTION ( 'NONE',  ( 0.0000000000000000000, -1.000000000000000000, 0.0000000000000000000 ) ) ;
#288 = DIRECTION ( 'NONE',  ( 0.0000000000000000000, 0.0000000000000000000, -1.000000000000000000 ) ) ;
#289 = CARTESIAN_POINT ( 'NONE',  ( 0.0000000000000000000, 110.0000000000000600, 0.0000000000000000000 ) ) ;
#290 = DIRECTION ( 'NONE',  ( -0.0000000000000000000, 1.000000000000000000, -0.0000000000000000000 ) ) ;
#291 = DIRECTION ( 'NONE',  ( 0.0000000000000000000, 0.0000000000000000000, 1.000000000000000000 ) ) ;
#292 = CARTESIAN_POINT ( 'NONE',  ( 0.0000000000000000000, 20.52786404500232800, 0.0000000000000000000 ) ) ;
#293 = DIRECTION ( 'NONE',  ( -0.0000000000000000000, 1.000000000000000000, -0.0000000000000000000 ) ) ;
#294 = DIRECTION ( 'NONE',  ( 0.0000000000000000000, 0.0000000000000000000, 1.000000000000000000 ) ) ;
#295 = CARTESIAN_POINT ( 'NONE',  ( 0.0000000000000000000, 110.0000000000000600, 0.0000000000000000000 ) ) ;
#296 = DIRECTION ( 'NONE',  ( -0.0000000000000000000, 1.000000000000000000, -0.0000000000000000000 ) ) ;
#297 = DIRECTION ( 'NONE',  ( 0.0000000000000000000, 0.0000000000000000000, 1.000000000000000000 ) ) ;
#298 = CARTESIAN_POINT ( 'NONE',  ( 0.0000000000000000000, 1000.000000000000000, 0.0000000000000000000 ) ) ;
#299 = DIRECTION ( 'NONE',  ( -0.0000000000000000000, 1.000000000000000000, -0.0000000000000000000 ) ) ;
#300 = DIRECTION ( 'NONE',  ( 0.0000000000000000000, 0.0000000000000000000, 1.000000000000000000 ) ) ;
#301 = CARTESIAN_POINT ( 'NONE',  ( 0.0000000000000000000, 1000.000000000000000, 0.0000000000000000000 ) ) ;
#302 = DIRECTION ( 'NONE',  ( -0.0000000000000000000, 1.000000000000000000, -0.0000000000000000000 ) ) ;
#303 = DIRECTION ( 'NONE',  ( 0.0000000000000000000, 0.0000000000000000000, 1.000000000000000000 ) ) ;
#304 = CARTESIAN_POINT ( 'NONE',  ( 0.0000000000000000000, 109.9999999999999400, 0.0000000000000000000 ) ) ;
#305 = DIRECTION ( 'NONE',  ( -0.0000000000000000000, 1.000000000000000000, -0.0000000000000000000 ) ) ;
#306 = DIRECTION ( 'NONE',  ( 0.0000000000000000000, 0.0000000000000000000, 1.000000000000000000 ) ) ;
#307 = PLANE ( 'NONE',  #95 ) ;
#308 = CARTESIAN_POINT ( 'NONE',  ( 0.0000000000000000000, 110.0000000000000000, 0.0000000000000000000 ) ) ;
#309 = DIRECTION ( 'NONE',  ( 0.0000000000000000000, -1.000000000000000000, 0.0000000000000000000 ) ) ;
#310 = DIRECTION ( 'NONE',  ( 0.0000000000000000000, -0.0000000000000000000, -1.000000000000000000 ) ) ;
#311 = CARTESIAN_POINT ( 'NONE',  ( 0.0000000000000000000, 109.5999999999999700, 0.0000000000000000000 ) ) ;
#312 = DIRECTION ( 'NONE',  ( 0.0000000000000000000, -1.000000000000000000, 0.0000000000000000000 ) ) ;
#313 = DIRECTION ( 'NONE',  ( 0.0000000000000000000, 0.0000000000000000000, -1.000000000000000000 ) ) ;
#314 = CARTESIAN_POINT ( 'NONE',  ( 0.0000000000000000000, 110.0000000000000600, 0.0000000000000000000 ) ) ;
#315 = DIRECTION ( 'NONE',  ( -0.0000000000000000000, 1.000000000000000000, -0.0000000000000000000 ) ) ;
#316 = DIRECTION ( 'NONE',  ( 0.0000000000000000000, 0.0000000000000000000, 1.000000000000000000 ) ) ;
#317 = CARTESIAN_POINT ( 'NONE',  ( 0.0000000000000000000, 59.99999999999988600, 0.0000000000000000000 ) ) ;
#318 = DIRECTION ( 'NONE',  ( -0.0000000000000000000, 1.000000000000000000, -0.0000000000000000000 ) ) ;
#319 = DIRECTION ( 'NONE',  ( 0.0000000000000000000, 0.0000000000000000000, 1.000000000000000000 ) ) ;
#320 = CARTESIAN_POINT ( 'NONE',  ( 0.0000000000000000000, 59.99999999999990100, 0.0000000000000000000 ) ) ;
#321 = DIRECTION ( 'NONE',  ( -0.0000000000000000000, 1.000000000000000000, -0.0000000000000000000 ) ) ;
#322 = DIRECTION ( 'NONE',  ( 0.0000000000000000000, 0.0000000000000000000, 1.000000000000000000 ) ) ;
#323 = LINE ( 'NONE', #324, #105 ) ;
#324 = CARTESIAN_POINT ( 'NONE',  ( 1.592040838891663600E-015, 110.0000000000000600, -13.00000000000085300 ) ) ;
#325 = DIRECTION ( 'NONE',  ( -0.0000000000000000000, 1.000000000000000000, -0.0000000000000000000 ) ) ;
#326 = CARTESIAN_POINT ( 'NONE',  ( 0.0000000000000000000, 27.23606797747253700, 0.0000000000000000000 ) ) ;
#327 = DIRECTION ( 'NONE',  ( -0.0000000000000000000, 1.000000000000000000, -0.0000000000000000000 ) ) ;
#328 = DIRECTION ( 'NONE',  ( 0.0000000000000000000, 0.0000000000000000000, 1.000000000000000000 ) ) ;
#329 = CARTESIAN_POINT ( 'NONE',  ( 0.0000000000000000000, 5.773502691895970400, 0.0000000000000000000 ) ) ;
#330 = LINE ( 'NONE', #331, #106 ) ;
#331 = CARTESIAN_POINT ( 'NONE',  ( 0.0000000000000000000, 110.0000000000000600, 13.00000000000085300 ) ) ;
#332 = DIRECTION ( 'NONE',  ( -0.0000000000000000000, 1.000000000000000000, -0.0000000000000000000 ) ) ;
#333 = LINE ( 'NONE', #334, #108 ) ;
#334 = CARTESIAN_POINT ( 'NONE',  ( 1.224646799147388000E-015, 20.52786404500232800, -10.00000000000028400 ) ) ;
#335 = DIRECTION ( 'NONE',  ( 4.999599621758388000E-017, 0.9128709291745866800, -0.4082482904654063400 ) ) ;
#336 = DIRECTION ( 'NONE',  ( -0.0000000000000000000, 1.000000000000000000, -0.0000000000000000000 ) ) ;
#337 = DIRECTION ( 'NONE',  ( 0.0000000000000000000, 0.0000000000000000000, 1.000000000000000000 ) ) ;
#338 = CARTESIAN_POINT ( 'NONE',  ( 0.0000000000000000000, 20.52786404500232800, 0.0000000000000000000 ) ) ;
#339 = DIRECTION ( 'NONE',  ( -0.0000000000000000000, 1.000000000000000000, -0.0000000000000000000 ) ) ;
#340 = DIRECTION ( 'NONE',  ( 0.0000000000000000000, 0.0000000000000000000, 1.000000000000000000 ) ) ;
#341 = CARTESIAN_POINT ( 'NONE',  ( 1.371604415044289300E-015, 59.99999999999988600, -11.19999999999390600 ) ) ;
#342 = CARTESIAN_POINT ( 'NONE',  ( 0.0000000000000000000, 59.65358983848611300, 10.59999999999383700 ) ) ;
#343 = CARTESIAN_POINT ( 'NONE',  ( 1.334865011069864600E-015, 59.65358983848611300, -10.59999999999383700 ) ) ;
#344 = CARTESIAN_POINT ( 'NONE',  ( 1.261386203121020800E-015, 59.99999999999988600, -9.999999999993860900 ) ) ;
#345 = CARTESIAN_POINT ( 'NONE',  ( 0.0000000000000000000, 59.99999999999988600, 9.999999999993860900 ) ) ;
#346 = CARTESIAN_POINT ( 'NONE',  ( 1.224646799146601300E-015, 109.5999999999999700, -9.999999999993860900 ) ) ;
#347 = CARTESIAN_POINT ( 'NONE',  ( 0.0000000000000000000, 59.99999999999988600, 11.19999999999390600 ) ) ;
#348 = CARTESIAN_POINT ( 'NONE',  ( 0.0000000000000000000, 60.00000000000000000, -12.80000000000080700 ) ) ;
#349 = CARTESIAN_POINT ( 'NONE',  ( 0.0000000000000000000, 59.79999999999995500, 13.00000000000085300 ) ) ;
#350 = CARTESIAN_POINT ( 'NONE',  ( 1.592040838891663600E-015, 59.79999999999995500, -13.00000000000085300 ) ) ;
#351 = CARTESIAN_POINT ( 'NONE',  ( 0.0000000000000000000, 27.23606797747253700, 13.00000000000085300 ) ) ;
#352 = CARTESIAN_POINT ( 'NONE',  ( 1.592040838891663400E-015, 27.23606797747253700, -13.00000000000085300 ) ) ;
#353 = CARTESIAN_POINT ( 'NONE',  ( 0.0000000000000000000, 20.52786404500232800, 10.00000000000028400 ) ) ;
#354 = CARTESIAN_POINT ( 'NONE',  ( 1.224646799147394900E-015, 20.52786404500232800, -10.00000000000028400 ) ) ;
#355 = CARTESIAN_POINT ( 'NONE',  ( 0.0000000000000000000, 5.773502691895970400, 10.00000000000051000 ) ) ;
#356 = CARTESIAN_POINT ( 'NONE',  ( 1.224646799147415800E-015, 5.773502691895970400, -10.00000000000051000 ) ) ;
#357 = CARTESIAN_POINT ( 'NONE',  ( 0.0000000000000000000, 0.0000000000000000000, 0.0000000000000000000 ) ) ;
#358 = CARTESIAN_POINT ( 'NONE',  ( 0.0000000000000000000, 109.5999999999999700, 9.999999999993860900 ) ) ;
#359 = CARTESIAN_POINT ( 'NONE',  ( 0.0000000000000000000, 109.9999999999999400, -9.599999999999852200 ) ) ;
#360 = CARTESIAN_POINT ( 'NONE',  ( 1.200153863164021000E-015, 109.9999999999999400, 9.599999999999852200 ) ) ;
#361 = CARTESIAN_POINT ( 'NONE',  ( 1.579794370900187300E-015, 60.00000000000000000, 12.80000000000080700 ) ) ;
#362 =( LENGTH_UNIT ( ) NAMED_UNIT ( * ) SI_UNIT ( .MILLI., .METRE. ) );
#363 =( NAMED_UNIT ( * ) PLANE_ANGLE_UNIT ( ) SI_UNIT ( $, .RADIAN. ) );
#364 =( NAMED_UNIT ( * ) SI_UNIT ( $, .STERADIAN. ) SOLID_ANGLE_UNIT ( ) );
#365 = APPLICATION_PROTOCOL_DEFINITION ( 'draft international standard', 'automotive_design', 1998, #212 ) ;
#366 = FILL_AREA_STYLE_COLOUR ( '', #118 ) ;
#367 = FILL_AREA_STYLE ('',( #366 ) ) ;
#368 = SURFACE_STYLE_FILL_AREA ( #367 ) ;
#369 = SURFACE_SIDE_STYLE ('',( #368 ) ) ;
#370 = SURFACE_STYLE_USAGE ( .BOTH. , #369 ) ;
#371 = PRESENTATION_STYLE_ASSIGNMENT (( #370 ) ) ;
#372 =( LENGTH_UNIT ( ) NAMED_UNIT ( * ) SI_UNIT ( .MILLI., .METRE. ) );
#373 =( NAMED_UNIT ( * ) PLANE_ANGLE_UNIT ( ) SI_UNIT ( $, .RADIAN. ) );
#374 =( NAMED_UNIT ( * ) SI_UNIT ( $, .STERADIAN. ) SOLID_ANGLE_UNIT ( ) );
#375 = CARTESIAN_POINT ( 'NONE',  ( 0.0000000000000000000, 0.0000000000000000000, 0.0000000000000000000 ) ) ;
#376 = DIRECTION ( 'NONE',  ( 0.0000000000000000000, 0.0000000000000000000, 1.000000000000000000 ) ) ;
#377 = DIRECTION ( 'NONE',  ( 1.000000000000000000, 0.0000000000000000000, 0.0000000000000000000 ) ) ;
#378 = SHAPE_DEFINITION_REPRESENTATION ( #1, #220 ) ;
#379 = PRODUCT_CONTEXT ( 'NONE', #212, 'mechanical' ) ;
#380 = APPLICATION_PROTOCOL_DEFINITION ( 'draft international standard', 'automotive_design', 1998, #211 ) ;
#381 = CARTESIAN_POINT ( 'NONE',  ( 0.0000000000000000000, 60.00000000000000000, 0.0000000000000000000 ) ) ;
#382 = DIRECTION ( 'NONE',  ( 0.0000000000000000000, 0.0000000000000000000, 1.000000000000000000 ) ) ;
#383 = DIRECTION ( 'NONE',  ( -0.0000000000000000000, 1.000000000000000000, -0.0000000000000000000 ) ) ;
#384 = CARTESIAN_POINT ( 'NONE',  ( 0.0000000000000000000, 59.99999999999988600, 0.0000000000000000000 ) ) ;
#385 = DIRECTION ( 'NONE',  ( 0.0000000000000000000, 0.0000000000000000000, 1.000000000000000000 ) ) ;
#386 = DIRECTION ( 'NONE',  ( -0.0000000000000000000, 1.000000000000000000, -0.0000000000000000000 ) ) ;
#387 = DIRECTION ( 'NONE',  ( -0.0000000000000000000, 1.000000000000000000, -0.0000000000000000000 ) ) ;
#388 = CARTESIAN_POINT ( 'NONE',  ( 1.224646799146601300E-015, 110.0000000000000600, -9.999999999993860900 ) ) ;
#389 = LINE ( 'NONE', #388, #496 ) ;
#390 = CARTESIAN_POINT ( 'NONE',  ( 0.0000000000000000000, 59.79999999999995500, 0.0000000000000000000 ) ) ;
#391 = DIRECTION ( 'NONE',  ( 0.0000000000000000000, 0.0000000000000000000, 1.000000000000000000 ) ) ;
#392 = DIRECTION ( 'NONE',  ( -0.0000000000000000000, 1.000000000000000000, -0.0000000000000000000 ) ) ;
#393 = CARTESIAN_POINT ( 'NONE',  ( 0.0000000000000000000, 109.9999999999999400, 0.0000000000000000000 ) ) ;
#394 = DIRECTION ( 'NONE',  ( -0.0000000000000000000, 1.000000000000000000, -0.0000000000000000000 ) ) ;
#395 = CARTESIAN_POINT ( 'NONE',  ( 0.0000000000000000000, 110.0000000000000600, 10.00000000000039800 ) ) ;
#396 = LINE ( 'NONE', #395, #494 ) ;
#397 = DIRECTION ( 'NONE',  ( 0.0000000000000000000, -0.0000000000000000000, -1.000000000000000000 ) ) ;
#398 = DIRECTION ( 'NONE',  ( 0.0000000000000000000, -1.000000000000000000, 0.0000000000000000000 ) ) ;
#399 = CARTESIAN_POINT ( 'NONE',  ( 11.19999999999390600, 59.99999999999994300, 0.0000000000000000000 ) ) ;
#400 = PLANE ( 'NONE',  #492 ) ;
#401 = DIRECTION ( 'NONE',  ( 0.0000000000000000000, 0.0000000000000000000, -1.000000000000000000 ) ) ;
#402 = DIRECTION ( 'NONE',  ( 0.0000000000000000000, -1.000000000000000000, 0.0000000000000000000 ) ) ;
#403 = CARTESIAN_POINT ( 'NONE',  ( 0.0000000000000000000, 59.79999999999995500, 0.0000000000000000000 ) ) ;
#404 = DIRECTION ( 'NONE',  ( 0.0000000000000000000, 0.0000000000000000000, 1.000000000000000000 ) ) ;
#405 = DIRECTION ( 'NONE',  ( -0.0000000000000000000, 1.000000000000000000, -0.0000000000000000000 ) ) ;
#406 = CARTESIAN_POINT ( 'NONE',  ( 0.0000000000000000000, 110.0000000000000600, 0.0000000000000000000 ) ) ;
#407 = DIRECTION ( 'NONE',  ( 0.0000000000000000000, 0.0000000000000000000, 1.000000000000000000 ) ) ;
#408 = ORIENTED_EDGE ( 'NONE', *, *, #115, .F. ) ;
#409 = ORIENTED_EDGE ( 'NONE', *, *, #185, .F. ) ;
#410 = ORIENTED_EDGE ( 'NONE', *, *, #186, .F. ) ;
#411 = ORIENTED_EDGE ( 'NONE', *, *, #187, .T. ) ;
#412 = ORIENTED_EDGE ( 'NONE', *, *, #188, .F. ) ;
#413 = ORIENTED_EDGE ( 'NONE', *, *, #188, .T. ) ;
#414 = ORIENTED_EDGE ( 'NONE', *, *, #209, .F. ) ;
#415 = ORIENTED_EDGE ( 'NONE', *, *, #187, .F. ) ;
#416 = ORIENTED_EDGE ( 'NONE', *, *, #161, .T. ) ;
#417 = ORIENTED_EDGE ( 'NONE', *, *, #199, .T. ) ;
#418 = ORIENTED_EDGE ( 'NONE', *, *, #179, .T. ) ;
#419 = ORIENTED_EDGE ( 'NONE', *, *, #199, .F. ) ;
#420 = VERTEX_POINT ( 'NONE', #341 ) ;
#421 = VERTEX_POINT ( 'NONE', #342 ) ;
#422 = VERTEX_POINT ( 'NONE', #343 ) ;
#423 = VERTEX_POINT ( 'NONE', #344 ) ;
#424 = VERTEX_POINT ( 'NONE', #345 ) ;
#425 = VERTEX_POINT ( 'NONE', #346 ) ;
#426 = VERTEX_POINT ( 'NONE', #347 ) ;
#427 = VERTEX_POINT ( 'NONE', #348 ) ;
#428 = VERTEX_POINT ( 'NONE', #349 ) ;
#429 = VERTEX_POINT ( 'NONE', #350 ) ;
#430 = VERTEX_POINT ( 'NONE', #351 ) ;
#431 = VERTEX_POINT ( 'NONE', #352 ) ;
#432 = VERTEX_POINT ( 'NONE', #353 ) ;
#433 = VERTEX_POINT ( 'NONE', #354 ) ;
#434 = VERTEX_POINT ( 'NONE', #355 ) ;
#435 = VERTEX_POINT ( 'NONE', #356 ) ;
#436 = VERTEX_POINT ( 'NONE', #357 ) ;
#437 = VERTEX_POINT ( 'NONE', #358 ) ;
#438 = VERTEX_POINT ( 'NONE', #359 ) ;
#439 = VERTEX_POINT ( 'NONE', #360 ) ;
#440 = VERTEX_POINT ( 'NONE', #361 ) ;
#441 = ORIENTED_EDGE ( 'NONE', *, *, #206, .T. ) ;
#442 = ORIENTED_EDGE ( 'NONE', *, *, #163, .F. ) ;
#443 = ORIENTED_EDGE ( 'NONE', *, *, #205, .T. ) ;
#444 = ORIENTED_EDGE ( 'NONE', *, *, #207, .F. ) ;
#445 = ORIENTED_EDGE ( 'NONE', *, *, #210, .F. ) ;
#446 = ORIENTED_EDGE ( 'NONE', *, *, #210, .T. ) ;
#447 = ORIENTED_EDGE ( 'NONE', *, *, #206, .F. ) ;
#448 = ORIENTED_EDGE ( 'NONE', *, *, #208, .T. ) ;
#449 = ORIENTED_EDGE ( 'NONE', *, *, #116, .F. ) ;
#450 = ORIENTED_EDGE ( 'NONE', *, *, #209, .T. ) ;
#451 = FILL_AREA_STYLE_COLOUR ( '', #154 ) ;
#452 = ORIENTED_EDGE ( 'NONE', *, *, #160, .F. ) ;
#453 = EDGE_LOOP ( 'NONE', ( #47, #58, #61, #60 ) ) ;
#454 = DIRECTION ( 'NONE',  ( -0.0000000000000000000, 1.000000000000000000, -0.0000000000000000000 ) ) ;
#455 = CARTESIAN_POINT ( 'NONE',  ( 0.0000000000000000000, 20.52786404500232800, 0.0000000000000000000 ) ) ;
#456 = DIRECTION ( 'NONE',  ( 0.0000000000000000000, 0.0000000000000000000, 1.000000000000000000 ) ) ;
#457 = DIRECTION ( 'NONE',  ( -0.0000000000000000000, 1.000000000000000000, -0.0000000000000000000 ) ) ;
#458 = DIRECTION ( 'NONE',  ( 0.0000000000000000000, 0.9128709291745866800, 0.4082482904654063400 ) ) ;
#459 = CARTESIAN_POINT ( 'NONE',  ( 0.0000000000000000000, 20.52786404500232800, 10.00000000000028400 ) ) ;
#460 = LINE ( 'NONE', #459, #481 ) ;
#461 = CARTESIAN_POINT ( 'NONE',  ( 0.0000000000000000000, 110.0000000000000600, 0.0000000000000000000 ) ) ;
#462 = DIRECTION ( 'NONE',  ( -0.0000000000000000000, 1.000000000000000000, -0.0000000000000000000 ) ) ;
#463 = CARTESIAN_POINT ( 'NONE',  ( 1.224646799147402000E-015, 110.0000000000000600, -10.00000000000039800 ) ) ;
#464 = LINE ( 'NONE', #463, #479 ) ;
#465 =( NAMED_UNIT ( * ) SI_UNIT ( $, .STERADIAN. ) SOLID_ANGLE_UNIT ( ) );
#466 =( NAMED_UNIT ( * ) PLANE_ANGLE_UNIT ( ) SI_UNIT ( $, .RADIAN. ) );
#467 =( LENGTH_UNIT ( ) NAMED_UNIT ( * ) SI_UNIT ( .MILLI., .METRE. ) );
#468 = PRESENTATION_STYLE_ASSIGNMENT (( #469 ) ) ;
#469 = SURFACE_STYLE_USAGE ( .BOTH. , #470 ) ;
#470 = SURFACE_SIDE_STYLE ('',( #471 ) ) ;
#471 = SURFACE_STYLE_FILL_AREA ( #472 ) ;
#472 = FILL_AREA_STYLE ('',( #451 ) ) ;
#473 = STYLED_ITEM ( 'NONE', ( #468 ), #3 ) ;
#474 = MECHANICAL_DESIGN_GEOMETRIC_PRESENTATION_REPRESENTATION (  '', ( #473 ), #213 ) ;
#475 = PRESENTATION_LAYER_ASSIGNMENT (  '', '', ( #473 ) ) ;
#476 = CLOSED_SHELL ( 'NONE', ( #190, #189, #191, #192, #193, #194, #195, #196, #197, #198, #155, #156, #157, #158, #159, #203, #204, #202, #201, #200 ) ) ;
#477 = FACE_OUTER_BOUND ( 'NONE', #31, .T. ) ;
#478 = FACE_OUTER_BOUND ( 'NONE', #30, .T. ) ;
#479 = VECTOR ( 'NONE', #462, 1000.000000000000000 ) ;
#480 = CYLINDRICAL_SURFACE ( 'NONE', #482, 10.00000000000039800 ) ;
#481 = VECTOR ( 'NONE', #458, 1000.000000000000000 ) ;
#482 = AXIS2_PLACEMENT_3D ( 'NONE', #461, #457, #456 ) ;
#483 = FACE_OUTER_BOUND ( 'NONE', #33, .T. ) ;
#484 = FACE_OUTER_BOUND ( 'NONE', #32, .T. ) ;
#485 = AXIS2_PLACEMENT_3D ( 'NONE', #455, #454, #407 ) ;
#486 = AXIS2_PLACEMENT_3D ( 'NONE', #406, #405, #404 ) ;
#487 = CYLINDRICAL_SURFACE ( 'NONE', #486, 13.00000000000085300 ) ;
#488 = FACE_BOUND ( 'NONE', #34, .T. ) ;
#489 = AXIS2_PLACEMENT_3D ( 'NONE', #403, #402, #401 ) ;
#490 = FACE_OUTER_BOUND ( 'NONE', #35, .T. ) ;
#491 = AXIS2_PLACEMENT_3D ( 'NONE', #393, #392, #391 ) ;
#492 = AXIS2_PLACEMENT_3D ( 'NONE', #399, #398, #397 ) ;
#493 = AXIS2_PLACEMENT_3D ( 'NONE', #232, #233, #234 ) ;
#494 = VECTOR ( 'NONE', #394, 1000.000000000000000 ) ;
#495 = AXIS2_PLACEMENT_3D ( 'NONE', #390, #386, #385 ) ;
#496 = VECTOR ( 'NONE', #387, 1000.000000000000000 ) ;
#497 = AXIS2_PLACEMENT_3D ( 'NONE', #384, #383, #382 ) ;
#498 = AXIS2_PLACEMENT_3D ( 'NONE', #381, #16, #15 ) ;
#499 = AXIS2_PLACEMENT_3D ( 'NONE', #226, #230, #231 ) ;
#500 = VECTOR ( 'NONE', #17, 1000.000000000000000 ) ;
#501 = VECTOR ( 'NONE', #11, 1000.000000000000000 ) ;
#502 = AXIS2_PLACEMENT_3D ( 'NONE', #250, #251, #252 ) ;
#503 = VECTOR ( 'NONE', #8, 999.9999999999998900 ) ;
#504 = AXIS2_PLACEMENT_3D ( 'NONE', #14, #216, #218 ) ;
#505 = VECTOR ( 'NONE', #217, 999.9999999999998900 ) ;
#506 = AXIS2_PLACEMENT_3D ( 'NONE', #4, #5, #222 ) ;
#507 = AXIS2_PLACEMENT_3D ( 'NONE', #223, #224, #225 ) ;
#508 = AXIS2_PLACEMENT_3D ( 'NONE', #247, #248, #249 ) ;
#509 = VECTOR ( 'NONE', #229, 1000.000000000000100 ) ;
#510 = AXIS2_PLACEMENT_3D ( 'NONE', #235, #236, #237 ) ;
#511 = AXIS2_PLACEMENT_3D ( 'NONE', #253, #254, #255 ) ;
#512 = VECTOR ( 'NONE', #241, 1000.000000000000000 ) ;
#513 = AXIS2_PLACEMENT_3D ( 'NONE', #238, #245, #246 ) ;
#514 = VECTOR ( 'NONE', #244, 1000.000000000000100 ) ;
#515 = AXIS2_PLACEMENT_3D ( 'NONE', #256, #257, #258 ) ;
#516 = AXIS2_PLACEMENT_3D ( 'NONE', #259, #260, #261 ) ;
#517 = FACE_OUTER_BOUND ( 'NONE', #21, .T. ) ;
#518 = AXIS2_PLACEMENT_3D ( 'NONE', #265, #266, #267 ) ;
#519 = AXIS2_PLACEMENT_3D ( 'NONE', #262, #263, #264 ) ;
#520 = FACE_OUTER_BOUND ( 'NONE', #22, .T. ) ;
#521 = CYLINDRICAL_SURFACE ( 'NONE', #525, 9.999999999993860900 ) ;
#522 = VECTOR ( 'NONE', #271, 999.9999999999998900 ) ;
#523 = FACE_OUTER_BOUND ( 'NONE', #26, .T. ) ;
#524 = VECTOR ( 'NONE', #274, 999.9999999999998900 ) ;
#525 = AXIS2_PLACEMENT_3D ( 'NONE', #268, #275, #276 ) ;
#526 = FACE_OUTER_BOUND ( 'NONE', #23, .T. ) ;
#527 = FACE_OUTER_BOUND ( 'NONE', #453, .T. ) ;
#528 = AXIS2_PLACEMENT_3D ( 'NONE', #277, #278, #279 ) ;
#529 = AXIS2_PLACEMENT_3D ( 'NONE', #304, #305, #306 ) ;
#530 = AXIS2_PLACEMENT_3D ( 'NONE', #280, #281, #282 ) ;
#531 = FACE_OUTER_BOUND ( 'NONE', #24, .T. ) ;
#532 = AXIS2_PLACEMENT_3D ( 'NONE', #283, #284, #285 ) ;
#533 = FACE_OUTER_BOUND ( 'NONE', #25, .T. ) ;
#534 = AXIS2_PLACEMENT_3D ( 'NONE', #286, #287, #288 ) ;
#535 = AXIS2_PLACEMENT_3D ( 'NONE', #289, #290, #291 ) ;
#536 = CYLINDRICAL_SURFACE ( 'NONE', #535, 13.00000000000085300 ) ;
#537 = FACE_OUTER_BOUND ( 'NONE', #28, .T. ) ;
#538 = FACE_OUTER_BOUND ( 'NONE', #27, .T. ) ;
#539 = AXIS2_PLACEMENT_3D ( 'NONE', #292, #293, #294 ) ;
#540 = AXIS2_PLACEMENT_3D ( 'NONE', #295, #296, #297 ) ;
#541 = CYLINDRICAL_SURFACE ( 'NONE', #540, 10.00000000000039800 ) ;
#542 = FACE_OUTER_BOUND ( 'NONE', #40, .T. ) ;
#543 = FACE_OUTER_BOUND ( 'NONE', #29, .T. ) ;
#544 = AXIS2_PLACEMENT_3D ( 'NONE', #298, #299, #300 ) ;
#545 = FACE_OUTER_BOUND ( 'NONE', #37, .T. ) ;
#546 = AXIS2_PLACEMENT_3D ( 'NONE', #301, #302, #303 ) ;
ENDSEC;
END-ISO-10303-21;
