ISO-10303-21;
HEADER;
FILE_DESCRIPTION (( 'STEP AP214' ),
    '1' );
FILE_NAME ('99688-SI16-16+S9MT1604-060.STEP',
    '2022-11-03T01:08:11',
    ( 'User' ),
    ( 'GENUINE' ),
    'SwSTEP 2.0',
    'SolidWorks 2012',
    '' );
FILE_SCHEMA (( 'AUTOMOTIVE_DESIGN' ));
ENDSEC;

DATA;
#1 = CARTESIAN_POINT ( 'NONE',  ( -4.419575816427819100E-012, 100.0000000000028300, 0.0000000000000000000 ) ) ;
#2 = DIRECTION ( 'NONE',  ( -4.419575816427695500E-014, 1.000000000000000000, 0.0000000000000000000 ) ) ;
#3 = PLANE ( 'NONE',  #122 ) ;
#4 = DIRECTION ( 'NONE',  ( -1.000000000000000000, -4.418123852877392400E-014, 0.0000000000000000000 ) ) ;
#5 = DIRECTION ( 'NONE',  ( -4.419575816427695500E-014, 1.000000000000000000, 0.0000000000000000000 ) ) ;
#6 = CARTESIAN_POINT ( 'NONE',  ( -4.082629259727086300E-014, 0.9237604307073613600, 0.0000000000000000000 ) ) ;
#7 = DIRECTION ( 'NONE',  ( 1.000000000000000000, 4.419575816427695500E-014, 0.0000000000000000000 ) ) ;
#8 = DIRECTION ( 'NONE',  ( 4.419575816427695500E-014, -1.000000000000000000, -0.0000000000000000000 ) ) ;
#9 = CARTESIAN_POINT ( 'NONE',  ( 0.0000000000000000000, 0.0000000000000000000, 0.0000000000000000000 ) ) ;
#10 = DIRECTION ( 'NONE',  ( -1.000000000000000000, -4.423544863740113400E-014, 0.0000000000000000000 ) ) ;
#11 = DIRECTION ( 'NONE',  ( -4.419575816427695500E-014, 1.000000000000000000, 0.0000000000000000000 ) ) ;
#12 = CARTESIAN_POINT ( 'NONE',  ( -7.218908375379731100E-013, 16.33393944402273200, 0.0000000000000000000 ) ) ;
#13 = DIRECTION ( 'NONE',  ( 1.000000000000000000, 4.419575816427694900E-014, 0.0000000000000000000 ) ) ;
#14 = DIRECTION ( 'NONE',  ( 4.419575816427695500E-014, -1.000000000000000000, -0.0000000000000000000 ) ) ;
#15 = CARTESIAN_POINT ( 'NONE',  ( 0.0000000000000000000, 0.0000000000000000000, 0.0000000000000000000 ) ) ;
#16 = DIRECTION ( 'NONE',  ( 1.000000000000000000, 4.427675157730984200E-014, 0.0000000000000000000 ) ) ;
#17 = EDGE_LOOP ( 'NONE', ( #589, #588, #33, #538 ) ) ;
#18 = EDGE_LOOP ( 'NONE', ( #537, #535, #536, #534 ) ) ;
#19 = EDGE_LOOP ( 'NONE', ( #533, #531, #532 ) ) ;
#20 = EDGE_LOOP ( 'NONE', ( #530, #529, #528 ) ) ;
#21 = EDGE_LOOP ( 'NONE', ( #526, #525, #524, #527 ) ) ;
#22 = EDGE_LOOP ( 'NONE', ( #522, #521, #523, #519 ) ) ;
#23 = EDGE_LOOP ( 'NONE', ( #518, #89, #88, #520 ) ) ;
#24 = EDGE_LOOP ( 'NONE', ( #86, #85, #87, #83 ) ) ;
#25 = EDGE_LOOP ( 'NONE', ( #82, #81, #84, #79 ) ) ;
#26 = EDGE_LOOP ( 'NONE', ( #78, #77 ) ) ;
#27 = EDGE_LOOP ( 'NONE', ( #75, #76 ) ) ;
#28 = EDGE_LOOP ( 'NONE', ( #74, #73, #80, #71 ) ) ;
#29 = EDGE_LOOP ( 'NONE', ( #70, #69, #68, #72 ) ) ;
#30 = EDGE_LOOP ( 'NONE', ( #66, #65, #67, #63 ) ) ;
#31 = EDGE_LOOP ( 'NONE', ( #62, #61, #64, #60 ) ) ;
#32 = EDGE_LOOP ( 'NONE', ( #59, #58 ) ) ;
#33 = ORIENTED_EDGE ( 'NONE', *, *, #253, .F. ) ;
#34 = ORIENTED_EDGE ( 'NONE', *, *, #236, .F. ) ;
#35 = VERTEX_POINT ( 'NONE', #587 ) ;
#36 = VERTEX_POINT ( 'NONE', #586 ) ;
#37 = VERTEX_POINT ( 'NONE', #585 ) ;
#38 = VERTEX_POINT ( 'NONE', #584 ) ;
#39 = VERTEX_POINT ( 'NONE', #583 ) ;
#40 = VERTEX_POINT ( 'NONE', #582 ) ;
#41 = VERTEX_POINT ( 'NONE', #581 ) ;
#42 = VERTEX_POINT ( 'NONE', #580 ) ;
#43 = VERTEX_POINT ( 'NONE', #579 ) ;
#44 = VERTEX_POINT ( 'NONE', #578 ) ;
#45 = VERTEX_POINT ( 'NONE', #577 ) ;
#46 = VERTEX_POINT ( 'NONE', #576 ) ;
#47 = VERTEX_POINT ( 'NONE', #575 ) ;
#48 = VERTEX_POINT ( 'NONE', #574 ) ;
#49 = VERTEX_POINT ( 'NONE', #573 ) ;
#50 = VERTEX_POINT ( 'NONE', #572 ) ;
#51 = VERTEX_POINT ( 'NONE', #571 ) ;
#52 = VERTEX_POINT ( 'NONE', #570 ) ;
#53 = VERTEX_POINT ( 'NONE', #569 ) ;
#54 = VERTEX_POINT ( 'NONE', #568 ) ;
#55 = ORIENTED_EDGE ( 'NONE', *, *, #235, .F. ) ;
#56 = ORIENTED_EDGE ( 'NONE', *, *, #232, .T. ) ;
#57 = ORIENTED_EDGE ( 'NONE', *, *, #234, .T. ) ;
#58 = ORIENTED_EDGE ( 'NONE', *, *, #237, .F. ) ;
#59 = ORIENTED_EDGE ( 'NONE', *, *, #259, .F. ) ;
#60 = ORIENTED_EDGE ( 'NONE', *, *, #238, .F. ) ;
#61 = ORIENTED_EDGE ( 'NONE', *, *, #237, .T. ) ;
#62 = ORIENTED_EDGE ( 'NONE', *, *, #256, .F. ) ;
#63 = ORIENTED_EDGE ( 'NONE', *, *, #268, .F. ) ;
#64 = ORIENTED_EDGE ( 'NONE', *, *, #257, .T. ) ;
#65 = ORIENTED_EDGE ( 'NONE', *, *, #238, .T. ) ;
#66 = ORIENTED_EDGE ( 'NONE', *, *, #260, .F. ) ;
#67 = ORIENTED_EDGE ( 'NONE', *, *, #258, .T. ) ;
#68 = ORIENTED_EDGE ( 'NONE', *, *, #266, .T. ) ;
#69 = ORIENTED_EDGE ( 'NONE', *, *, #239, .F. ) ;
#70 = ORIENTED_EDGE ( 'NONE', *, *, #270, .F. ) ;
#71 = ORIENTED_EDGE ( 'NONE', *, *, #240, .F. ) ;
#72 = ORIENTED_EDGE ( 'NONE', *, *, #261, .T. ) ;
#73 = ORIENTED_EDGE ( 'NONE', *, *, #239, .T. ) ;
#74 = ORIENTED_EDGE ( 'NONE', *, *, #265, .F. ) ;
#75 = ORIENTED_EDGE ( 'NONE', *, *, #255, .F. ) ;
#76 = ORIENTED_EDGE ( 'NONE', *, *, #241, .F. ) ;
#77 = ORIENTED_EDGE ( 'NONE', *, *, #240, .T. ) ;
#78 = ORIENTED_EDGE ( 'NONE', *, *, #262, .T. ) ;
#79 = ORIENTED_EDGE ( 'NONE', *, *, #242, .F. ) ;
#80 = ORIENTED_EDGE ( 'NONE', *, *, #264, .T. ) ;
#81 = ORIENTED_EDGE ( 'NONE', *, *, #241, .T. ) ;
#82 = ORIENTED_EDGE ( 'NONE', *, *, #267, .F. ) ;
#83 = ORIENTED_EDGE ( 'NONE', *, *, #243, .F. ) ;
#84 = ORIENTED_EDGE ( 'NONE', *, *, #272, .T. ) ;
#85 = ORIENTED_EDGE ( 'NONE', *, *, #242, .T. ) ;
#86 = ORIENTED_EDGE ( 'NONE', *, *, #273, .F. ) ;
#87 = ORIENTED_EDGE ( 'NONE', *, *, #233, .T. ) ;
#88 = ORIENTED_EDGE ( 'NONE', *, *, #236, .T. ) ;
#89 = ORIENTED_EDGE ( 'NONE', *, *, #244, .F. ) ;
#90 =( GEOMETRIC_REPRESENTATION_CONTEXT ( 3 ) GLOBAL_UNCERTAINTY_ASSIGNED_CONTEXT ( ( #165 ) ) GLOBAL_UNIT_ASSIGNED_CONTEXT ( ( #462, #463, #464 ) ) REPRESENTATION_CONTEXT ( 'NONE', 'WORKASPACE' ) );
#91 =( GEOMETRIC_REPRESENTATION_CONTEXT ( 3 ) GLOBAL_UNCERTAINTY_ASSIGNED_CONTEXT ( ( #164 ) ) GLOBAL_UNIT_ASSIGNED_CONTEXT ( ( #467, #468, #469 ) ) REPRESENTATION_CONTEXT ( 'NONE', 'WORKASPACE' ) );
#92 =( GEOMETRIC_REPRESENTATION_CONTEXT ( 3 ) GLOBAL_UNCERTAINTY_ASSIGNED_CONTEXT ( ( #167 ) ) GLOBAL_UNIT_ASSIGNED_CONTEXT ( ( #477, #478, #479 ) ) REPRESENTATION_CONTEXT ( 'NONE', 'WORKASPACE' ) );
#93 = PRODUCT_DEFINITION_FORMATION_WITH_SPECIFIED_SOURCE ( 'ANY', '', #306, .NOT_KNOWN. ) ;
#94 = VECTOR ( 'NONE', #452, 1000.000000000000000 ) ;
#95 = FACE_BOUND ( 'NONE', #26, .T. ) ;
#96 = MECHANICAL_DESIGN_GEOMETRIC_PRESENTATION_REPRESENTATION (  '', ( #98 ), #92 ) ;
#97 = PRESENTATION_LAYER_ASSIGNMENT (  '', '', ( #98 ) ) ;
#98 = STYLED_ITEM ( 'NONE', ( #476 ), #166 ) ;
#99 = AXIS2_PLACEMENT_3D ( 'NONE', #480, #481, #482 ) ;
#100 = VECTOR ( 'NONE', #455, 1000.000000000000000 ) ;
#101 = PRESENTATION_LAYER_ASSIGNMENT (  '', '', ( #102 ) ) ;
#102 = STYLED_ITEM ( 'NONE', ( #461 ), #516 ) ;
#103 = AXIS2_PLACEMENT_3D ( 'NONE', #440, #441, #442 ) ;
#104 = VECTOR ( 'NONE', #437, 999.9999999999998900 ) ;
#105 = MECHANICAL_DESIGN_GEOMETRIC_PRESENTATION_REPRESENTATION (  '', ( #102 ), #90 ) ;
#106 = AXIS2_PLACEMENT_3D ( 'NONE', #443, #444, #445 ) ;
#107 = AXIS2_PLACEMENT_3D ( 'NONE', #9, #8, #7 ) ;
#108 = AXIS2_PLACEMENT_3D ( 'NONE', #322, #323, #324 ) ;
#109 = FACE_OUTER_BOUND ( 'NONE', #31, .T. ) ;
#110 = VECTOR ( 'NONE', #431, 1000.000000000000000 ) ;
#111 = AXIS2_PLACEMENT_3D ( 'NONE', #425, #432, #433 ) ;
#112 = VECTOR ( 'NONE', #428, 1000.000000000000100 ) ;
#113 = AXIS2_PLACEMENT_3D ( 'NONE', #315, #316, #317 ) ;
#114 = FACE_OUTER_BOUND ( 'NONE', #27, .T. ) ;
#115 = FACE_OUTER_BOUND ( 'NONE', #24, .T. ) ;
#116 = AXIS2_PLACEMENT_3D ( 'NONE', #328, #329, #330 ) ;
#117 = AXIS2_PLACEMENT_3D ( 'NONE', #434, #438, #439 ) ;
#118 = AXIS2_PLACEMENT_3D ( 'NONE', #419, #420, #421 ) ;
#119 = VECTOR ( 'NONE', #416, 1000.000000000000000 ) ;
#120 = AXIS2_PLACEMENT_3D ( 'NONE', #413, #417, #418 ) ;
#121 = VECTOR ( 'NONE', #410, 1000.000000000000000 ) ;
#122 = AXIS2_PLACEMENT_3D ( 'NONE', #1, #2, #305 ) ;
#123 = VECTOR ( 'NONE', #407, 1000.000000000000000 ) ;
#124 = FACE_OUTER_BOUND ( 'NONE', #30, .T. ) ;
#125 = AXIS2_PLACEMENT_3D ( 'NONE', #6, #5, #4 ) ;
#126 = VECTOR ( 'NONE', #404, 999.9999999999998900 ) ;
#127 = AXIS2_PLACEMENT_3D ( 'NONE', #401, #411, #412 ) ;
#128 = VECTOR ( 'NONE', #398, 1000.000000000000000 ) ;
#129 = AXIS2_PLACEMENT_3D ( 'NONE', #446, #447, #448 ) ;
#130 = AXIS2_PLACEMENT_3D ( 'NONE', #309, #310, #311 ) ;
#131 = VECTOR ( 'NONE', #392, 1000.000000000000000 ) ;
#132 = AXIS2_PLACEMENT_3D ( 'NONE', #422, #423, #424 ) ;
#133 = FACE_OUTER_BOUND ( 'NONE', #29, .T. ) ;
#134 = VECTOR ( 'NONE', #388, 999.9999999999998900 ) ;
#135 = AXIS2_PLACEMENT_3D ( 'NONE', #385, #393, #394 ) ;
#136 = CYLINDRICAL_SURFACE ( 'NONE', #107, 8.000000000002147600 ) ;
#137 = VECTOR ( 'NONE', #382, 1000.000000000000000 ) ;
#138 = CYLINDRICAL_SURFACE ( 'NONE', #130, 7.999999999998905800 ) ;
#139 = FACE_OUTER_BOUND ( 'NONE', #28, .T. ) ;
#140 = AXIS2_PLACEMENT_3D ( 'NONE', #395, #399, #400 ) ;
#141 = VECTOR ( 'NONE', #379, 1000.000000000000100 ) ;
#142 = AXIS2_PLACEMENT_3D ( 'NONE', #373, #383, #384 ) ;
#143 = VECTOR ( 'NONE', #376, 1000.000000000000100 ) ;
#144 = AXIS2_PLACEMENT_3D ( 'NONE', #370, #371, #372 ) ;
#145 = AXIS2_PLACEMENT_3D ( 'NONE', #367, #368, #369 ) ;
#146 = AXIS2_PLACEMENT_3D ( 'NONE', #312, #313, #314 ) ;
#147 = FACE_OUTER_BOUND ( 'NONE', #25, .T. ) ;
#148 = AXIS2_PLACEMENT_3D ( 'NONE', #358, #359, #360 ) ;
#149 = AXIS2_PLACEMENT_3D ( 'NONE', #355, #356, #357 ) ;
#150 = AXIS2_PLACEMENT_3D ( 'NONE', #352, #353, #354 ) ;
#151 = AXIS2_PLACEMENT_3D ( 'NONE', #349, #350, #351 ) ;
#152 = AXIS2_PLACEMENT_3D ( 'NONE', #346, #347, #348 ) ;
#153 = VECTOR ( 'NONE', #343, 1000.000000000000200 ) ;
#154 = AXIS2_PLACEMENT_3D ( 'NONE', #340, #344, #345 ) ;
#155 = AXIS2_PLACEMENT_3D ( 'NONE', #361, #362, #363 ) ;
#156 = AXIS2_PLACEMENT_3D ( 'NONE', #391, #307, #308 ) ;
#157 = VECTOR ( 'NONE', #337, 1000.000000000000000 ) ;
#158 = AXIS2_PLACEMENT_3D ( 'NONE', #364, #365, #366 ) ;
#159 = VECTOR ( 'NONE', #334, 1000.000000000000000 ) ;
#160 = AXIS2_PLACEMENT_3D ( 'NONE', #331, #338, #339 ) ;
#161 = AXIS2_PLACEMENT_3D ( 'NONE', #325, #326, #327 ) ;
#162 = CYLINDRICAL_SURFACE ( 'NONE', #108, 10.50000000000005200 ) ;
#163 = AXIS2_PLACEMENT_3D ( 'NONE', #319, #320, #321 ) ;
#164 = UNCERTAINTY_MEASURE_WITH_UNIT (LENGTH_MEASURE( 1.000000000000000100E-005 ), #467, 'distance_accuracy_value', 'NONE');
#165 = UNCERTAINTY_MEASURE_WITH_UNIT (LENGTH_MEASURE( 1.000000000000000100E-005 ), #462, 'distance_accuracy_value', 'NONE');
#166 = ADVANCED_BREP_SHAPE_REPRESENTATION ( '99688-SI16-16+S9MT1604-060', ( #516, #99 ), #91 ) ;
#167 = UNCERTAINTY_MEASURE_WITH_UNIT (LENGTH_MEASURE( 1.000000000000000100E-005 ), #477, 'distance_accuracy_value', 'NONE');
#168 = COLOUR_RGB ( '',0.7921568627450980000, 0.8196078431372548800, 0.9333333333333333500 ) ;
#169 = CIRCLE ( 'NONE', #132, 7.999999999999944900 ) ;
#170 = CONICAL_SURFACE ( 'NONE', #291, 8.000000000001346500, 0.3883766555391121000 ) ;
#171 = PRODUCT_RELATED_PRODUCT_CATEGORY ( 'part', '', ( #306 ) ) ;
#172 = CIRCLE ( 'NONE', #118, 8.959999999997901200 ) ;
#173 = PRODUCT_DEFINITION ( 'UNKNOWN', '', #93, #517 ) ;
#174 = COLOUR_RGB ( '',0.7921568627450980000, 0.8196078431372548800, 0.9333333333333333500 ) ;
#175 = CIRCLE ( 'NONE', #129, 10.50000000000070000 ) ;
#176 = CIRCLE ( 'NONE', #106, 0.3199999999999991200 ) ;
#177 = CIRCLE ( 'NONE', #103, 8.479999999997788900 ) ;
#178 = CIRCLE ( 'NONE', #117, 7.999999999997866600 ) ;
#179 = CIRCLE ( 'NONE', #120, 7.999999999997866600 ) ;
#180 = CIRCLE ( 'NONE', #127, 7.699999999999974400 ) ;
#181 = CIRCLE ( 'NONE', #111, 0.3199999999999991200 ) ;
#182 = CIRCLE ( 'NONE', #140, 10.34000000000073900 ) ;
#183 = CIRCLE ( 'NONE', #135, 8.000000000002947000 ) ;
#184 = CIRCLE ( 'NONE', #142, 1.600000000000376000 ) ;
#185 = CIRCLE ( 'NONE', #144, 1.600000000000376000 ) ;
#186 = CIRCLE ( 'NONE', #145, 8.000000000002947000 ) ;
#187 = CIRCLE ( 'NONE', #158, 8.000000000001346500 ) ;
#188 = CIRCLE ( 'NONE', #155, 10.49999999999940000 ) ;
#189 = CIRCLE ( 'NONE', #148, 10.50000000000070000 ) ;
#190 = CIRCLE ( 'NONE', #149, 10.34000000000073900 ) ;
#191 = CIRCLE ( 'NONE', #150, 8.959999999997901200 ) ;
#192 = CIRCLE ( 'NONE', #151, 8.479999999997788900 ) ;
#193 = CIRCLE ( 'NONE', #152, 7.999999999999944900 ) ;
#194 = CIRCLE ( 'NONE', #154, 7.699999999999974400 ) ;
#195 = CIRCLE ( 'NONE', #160, 8.000000000001346500 ) ;
#196 = CIRCLE ( 'NONE', #116, 10.49999999999940000 ) ;
#197 = TOROIDAL_SURFACE ( 'NONE', #146, 8.319999999997865100, 0.3199999999999986700 ) ;
#198 = CONICAL_SURFACE ( 'NONE', #161, 10.50000000000070000, 0.7853981633970633600 ) ;
#199 = CONICAL_SURFACE ( 'NONE', #156, 7.999999999999944900, 0.7853981633973846600 ) ;
#200 = CONICAL_SURFACE ( 'NONE', #125, 1.600000000000376000, 0.5235987755983380100 ) ;
#201 = CONICAL_SURFACE ( 'NONE', #275, 8.000000000001346500, 0.3883766555391121000 ) ;
#202 = CONICAL_SURFACE ( 'NONE', #113, 8.959999999997901200, 1.047197551196745500 ) ;
#203 = TOROIDAL_SURFACE ( 'NONE', #283, 8.319999999997865100, 0.3199999999999986700 ) ;
#204 = CONICAL_SURFACE ( 'NONE', #279, 10.50000000000070000, 0.7853981633970633600 ) ;
#205 = CONICAL_SURFACE ( 'NONE', #281, 8.959999999997901200, 1.047197551196745500 ) ;
#206 = CONICAL_SURFACE ( 'NONE', #298, 1732.050807561859300, 1.047197551194843300 ) ;
#207 = CONICAL_SURFACE ( 'NONE', #302, 1732.050807561859300, 1.047197551194843300 ) ;
#208 = CONICAL_SURFACE ( 'NONE', #296, 1.600000000000376000, 0.5235987755983380100 ) ;
#209 = CONICAL_SURFACE ( 'NONE', #288, 7.999999999999944900, 0.7853981633973846600 ) ;
#210 = ADVANCED_FACE ( 'NONE', ( #304 ), #207, .T. ) ;
#211 = ADVANCED_FACE ( 'NONE', ( #301 ), #206, .T. ) ;
#212 = ADVANCED_FACE ( 'NONE', ( #299 ), #208, .T. ) ;
#213 = ADVANCED_FACE ( 'NONE', ( #297 ), #294, .T. ) ;
#214 = ADVANCED_FACE ( 'NONE', ( #290 ), #170, .T. ) ;
#215 = ADVANCED_FACE ( 'NONE', ( #292 ), #209, .T. ) ;
#216 = ADVANCED_FACE ( 'NONE', ( #289 ), #286, .T. ) ;
#217 = ADVANCED_FACE ( 'NONE', ( #293 ), #203, .F. ) ;
#218 = ADVANCED_FACE ( 'NONE', ( #285 ), #205, .F. ) ;
#219 = ADVANCED_FACE ( 'NONE', ( #282 ), #204, .T. ) ;
#220 = ADVANCED_FACE ( 'NONE', ( #280 ), #277, .T. ) ;
#221 = ADVANCED_FACE ( 'NONE', ( #300 ), #201, .T. ) ;
#222 = ADVANCED_FACE ( 'NONE', ( #274 ), #136, .T. ) ;
#223 = ADVANCED_FACE ( 'NONE', ( #284 ), #200, .T. ) ;
#224 = ADVANCED_FACE ( 'NONE', ( #276 ), #3, .T. ) ;
#225 = ADVANCED_FACE ( 'NONE', ( #109 ), #199, .T. ) ;
#226 = ADVANCED_FACE ( 'NONE', ( #124 ), #138, .T. ) ;
#227 = ADVANCED_FACE ( 'NONE', ( #133 ), #197, .F. ) ;
#228 = ADVANCED_FACE ( 'NONE', ( #139 ), #202, .F. ) ;
#229 = ADVANCED_FACE ( 'NONE', ( #95, #114 ), #318, .T. ) ;
#230 = ADVANCED_FACE ( 'NONE', ( #115 ), #162, .T. ) ;
#231 = ADVANCED_FACE ( 'NONE', ( #147 ), #198, .T. ) ;
#232 = EDGE_CURVE ( 'NONE', #42, #43, #196, .T. ) ;
#233 = EDGE_CURVE ( 'NONE', #44, #42, #332, .T. ) ;
#234 = EDGE_CURVE ( 'NONE', #41, #42, #335, .T. ) ;
#235 = EDGE_CURVE ( 'NONE', #41, #40, #195, .T. ) ;
#236 = EDGE_CURVE ( 'NONE', #40, #43, #341, .T. ) ;
#237 = EDGE_CURVE ( 'NONE', #560, #559, #194, .T. ) ;
#238 = EDGE_CURVE ( 'NONE', #539, #54, #193, .T. ) ;
#239 = EDGE_CURVE ( 'NONE', #50, #51, #192, .T. ) ;
#240 = EDGE_CURVE ( 'NONE', #49, #48, #191, .T. ) ;
#241 = EDGE_CURVE ( 'NONE', #46, #47, #190, .T. ) ;
#242 = EDGE_CURVE ( 'NONE', #45, #44, #189, .T. ) ;
#243 = EDGE_CURVE ( 'NONE', #43, #42, #188, .T. ) ;
#244 = EDGE_CURVE ( 'NONE', #40, #41, #187, .T. ) ;
#245 = EDGE_CURVE ( 'NONE', #39, #38, #186, .T. ) ;
#246 = EDGE_CURVE ( 'NONE', #36, #37, #185, .T. ) ;
#247 = EDGE_CURVE ( 'NONE', #35, #36, #374, .T. ) ;
#248 = EDGE_CURVE ( 'NONE', #35, #37, #377, .T. ) ;
#249 = EDGE_CURVE ( 'NONE', #36, #39, #380, .T. ) ;
#250 = EDGE_CURVE ( 'NONE', #37, #36, #184, .T. ) ;
#251 = EDGE_CURVE ( 'NONE', #37, #38, #386, .T. ) ;
#252 = EDGE_CURVE ( 'NONE', #41, #38, #389, .T. ) ;
#253 = EDGE_CURVE ( 'NONE', #38, #39, #183, .T. ) ;
#254 = EDGE_CURVE ( 'NONE', #40, #39, #396, .T. ) ;
#255 = EDGE_CURVE ( 'NONE', #47, #46, #182, .T. ) ;
#256 = EDGE_CURVE ( 'NONE', #560, #539, #402, .T. ) ;
#257 = EDGE_CURVE ( 'NONE', #559, #54, #405, .T. ) ;
#258 = EDGE_CURVE ( 'NONE', #54, #52, #408, .T. ) ;
#259 = EDGE_CURVE ( 'NONE', #559, #560, #180, .T. ) ;
#260 = EDGE_CURVE ( 'NONE', #539, #53, #414, .T. ) ;
#261 = EDGE_CURVE ( 'NONE', #52, #53, #179, .T. ) ;
#262 = EDGE_CURVE ( 'NONE', #48, #49, #172, .T. ) ;
#263 = EDGE_CURVE ( 'NONE', #54, #539, #169, .T. ) ;
#264 = EDGE_CURVE ( 'NONE', #51, #48, #426, .T. ) ;
#265 = EDGE_CURVE ( 'NONE', #50, #49, #429, .T. ) ;
#266 = EDGE_CURVE ( 'NONE', #50, #52, #181, .T. ) ;
#267 = EDGE_CURVE ( 'NONE', #46, #45, #435, .T. ) ;
#268 = EDGE_CURVE ( 'NONE', #53, #52, #178, .T. ) ;
#269 = EDGE_CURVE ( 'NONE', #51, #50, #177, .T. ) ;
#270 = EDGE_CURVE ( 'NONE', #51, #53, #176, .T. ) ;
#271 = EDGE_CURVE ( 'NONE', #44, #45, #175, .T. ) ;
#272 = EDGE_CURVE ( 'NONE', #47, #44, #450, .T. ) ;
#273 = EDGE_CURVE ( 'NONE', #45, #43, #453, .T. ) ;
#274 = FACE_OUTER_BOUND ( 'NONE', #17, .T. ) ;
#275 = AXIS2_PLACEMENT_3D ( 'NONE', #12, #11, #10 ) ;
#276 = FACE_OUTER_BOUND ( 'NONE', #32, .T. ) ;
#277 = CYLINDRICAL_SURFACE ( 'NONE', #278, 10.50000000000005200 ) ;
#278 = AXIS2_PLACEMENT_3D ( 'NONE', #15, #14, #13 ) ;
#279 = AXIS2_PLACEMENT_3D ( 'NONE', #489, #488, #16 ) ;
#280 = FACE_OUTER_BOUND ( 'NONE', #595, .T. ) ;
#281 = AXIS2_PLACEMENT_3D ( 'NONE', #492, #491, #490 ) ;
#282 = FACE_OUTER_BOUND ( 'NONE', #594, .T. ) ;
#283 = AXIS2_PLACEMENT_3D ( 'NONE', #495, #494, #493 ) ;
#284 = FACE_OUTER_BOUND ( 'NONE', #18, .T. ) ;
#285 = FACE_OUTER_BOUND ( 'NONE', #593, .T. ) ;
#286 = CYLINDRICAL_SURFACE ( 'NONE', #287, 7.999999999998905800 ) ;
#287 = AXIS2_PLACEMENT_3D ( 'NONE', #498, #497, #496 ) ;
#288 = AXIS2_PLACEMENT_3D ( 'NONE', #501, #500, #499 ) ;
#289 = FACE_OUTER_BOUND ( 'NONE', #591, .T. ) ;
#290 = FACE_OUTER_BOUND ( 'NONE', #23, .T. ) ;
#291 = AXIS2_PLACEMENT_3D ( 'NONE', #504, #503, #502 ) ;
#292 = FACE_OUTER_BOUND ( 'NONE', #590, .T. ) ;
#293 = FACE_OUTER_BOUND ( 'NONE', #592, .T. ) ;
#294 = CYLINDRICAL_SURFACE ( 'NONE', #295, 8.000000000002147600 ) ;
#295 = AXIS2_PLACEMENT_3D ( 'NONE', #507, #506, #505 ) ;
#296 = AXIS2_PLACEMENT_3D ( 'NONE', #510, #509, #508 ) ;
#297 = FACE_OUTER_BOUND ( 'NONE', #22, .T. ) ;
#298 = AXIS2_PLACEMENT_3D ( 'NONE', #513, #512, #511 ) ;
#299 = FACE_OUTER_BOUND ( 'NONE', #21, .T. ) ;
#300 = FACE_OUTER_BOUND ( 'NONE', #596, .T. ) ;
#301 = FACE_OUTER_BOUND ( 'NONE', #20, .T. ) ;
#302 = AXIS2_PLACEMENT_3D ( 'NONE', #567, #566, #514 ) ;
#303 = CLOSED_SHELL ( 'NONE', ( #215, #216, #217, #218, #219, #220, #221, #222, #223, #210, #211, #212, #213, #214, #230, #231, #229, #228, #227, #226, #225, #224 ) ) ;
#304 = FACE_OUTER_BOUND ( 'NONE', #19, .T. ) ;
#305 = DIRECTION ( 'NONE',  ( -1.000000000000000000, -4.419575816427695500E-014, 0.0000000000000000000 ) ) ;
#306 = PRODUCT ( '99688-SI16-16+S9MT1604-060', '99688-SI16-16+S9MT1604-060', '', ( #484 ) ) ;
#307 = DIRECTION ( 'NONE',  ( 4.419575816427695500E-014, -1.000000000000000000, -0.0000000000000000000 ) ) ;
#308 = DIRECTION ( 'NONE',  ( 1.000000000000000000, 4.336808689942047400E-014, 0.0000000000000000000 ) ) ;
#309 = CARTESIAN_POINT ( 'NONE',  ( 0.0000000000000000000, 0.0000000000000000000, 0.0000000000000000000 ) ) ;
#310 = DIRECTION ( 'NONE',  ( 4.419575816427695500E-014, -1.000000000000000000, -0.0000000000000000000 ) ) ;
#311 = DIRECTION ( 'NONE',  ( 1.000000000000000000, 4.419575816427695500E-014, 0.0000000000000000000 ) ) ;
#312 = CARTESIAN_POINT ( 'NONE',  ( -2.298508605669269400E-012, 52.00000000000251500, 0.0000000000000000000 ) ) ;
#313 = DIRECTION ( 'NONE',  ( 4.419575816427695500E-014, -1.000000000000000000, -0.0000000000000000000 ) ) ;
#314 = DIRECTION ( 'NONE',  ( 1.000000000000000000, 4.419575816427695500E-014, 0.0000000000000000000 ) ) ;
#315 = CARTESIAN_POINT ( 'NONE',  ( -2.298179424542510000E-012, 52.00000000000244400, 0.0000000000000000000 ) ) ;
#316 = DIRECTION ( 'NONE',  ( -4.419575816427695500E-014, 1.000000000000000000, 0.0000000000000000000 ) ) ;
#317 = DIRECTION ( 'NONE',  ( -1.000000000000000000, -4.414251702263444800E-014, 0.0000000000000000000 ) ) ;
#318 = PLANE ( 'NONE',  #163 ) ;
#319 = CARTESIAN_POINT ( 'NONE',  ( 8.959999999995602600, 52.00000000000287100, 0.0000000000000000000 ) ) ;
#320 = DIRECTION ( 'NONE',  ( -4.419575816427695500E-014, 1.000000000000000000, 0.0000000000000000000 ) ) ;
#321 = DIRECTION ( 'NONE',  ( -1.000000000000000000, -4.419575816427695500E-014, 0.0000000000000000000 ) ) ;
#322 = CARTESIAN_POINT ( 'NONE',  ( 0.0000000000000000000, 0.0000000000000000000, 0.0000000000000000000 ) ) ;
#323 = DIRECTION ( 'NONE',  ( 4.419575816427695500E-014, -1.000000000000000000, -0.0000000000000000000 ) ) ;
#324 = DIRECTION ( 'NONE',  ( 1.000000000000000000, 4.419575816427694900E-014, 0.0000000000000000000 ) ) ;
#325 = CARTESIAN_POINT ( 'NONE',  ( -2.291108103236223800E-012, 51.84000000000241200, 0.0000000000000000000 ) ) ;
#326 = DIRECTION ( 'NONE',  ( 4.419575816427695500E-014, -1.000000000000000000, -0.0000000000000000000 ) ) ;
#327 = DIRECTION ( 'NONE',  ( 1.000000000000000000, 4.427675157730984200E-014, 0.0000000000000000000 ) ) ;
#328 = CARTESIAN_POINT ( 'NONE',  ( -9.919313804509297800E-013, 22.44404037065935500, 0.0000000000000000000 ) ) ;
#329 = DIRECTION ( 'NONE',  ( 4.419575816427695500E-014, -1.000000000000000000, -0.0000000000000000000 ) ) ;
#330 = DIRECTION ( 'NONE',  ( 1.000000000000000000, 4.427675157731532000E-014, 0.0000000000000000000 ) ) ;
#331 = CARTESIAN_POINT ( 'NONE',  ( -7.218908375379731100E-013, 16.33393944402273200, 0.0000000000000000000 ) ) ;
#332 = LINE ( 'NONE', #333, #159 ) ;
#333 = CARTESIAN_POINT ( 'NONE',  ( 10.50000000000005200, 4.640554607249102400E-013, 0.0000000000000000000 ) ) ;
#334 = DIRECTION ( 'NONE',  ( 4.419575816427695500E-014, -1.000000000000000000, -0.0000000000000000000 ) ) ;
#335 = LINE ( 'NONE', #336, #157 ) ;
#336 = CARTESIAN_POINT ( 'NONE',  ( 8.000000000000625300, 16.33393944402308800, 9.797174393180474400E-016 ) ) ;
#337 = DIRECTION ( 'NONE',  ( 0.3786864688382973700, 0.9255250176622894500, 4.637571719432848700E-017 ) ) ;
#338 = DIRECTION ( 'NONE',  ( 4.419575816427695500E-014, -1.000000000000000000, -0.0000000000000000000 ) ) ;
#339 = DIRECTION ( 'NONE',  ( 1.000000000000000000, 4.423544863740113400E-014, 0.0000000000000000000 ) ) ;
#340 = CARTESIAN_POINT ( 'NONE',  ( -4.419575816427815900E-012, 100.0000000000027300, 0.0000000000000000000 ) ) ;
#341 = LINE ( 'NONE', #342, #153 ) ;
#342 = CARTESIAN_POINT ( 'NONE',  ( -8.000000000002067700, 16.33393944402238100, 0.0000000000000000000 ) ) ;
#343 = DIRECTION ( 'NONE',  ( -0.3786864688383792500, 0.9255250176622559200, 0.0000000000000000000 ) ) ;
#344 = DIRECTION ( 'NONE',  ( 4.419575816427695500E-014, -1.000000000000000000, -0.0000000000000000000 ) ) ;
#345 = DIRECTION ( 'NONE',  ( 1.000000000000000000, 4.505775262277435800E-014, 0.0000000000000000000 ) ) ;
#346 = CARTESIAN_POINT ( 'NONE',  ( -4.406317088978532500E-012, 99.70000000000271700, 0.0000000000000000000 ) ) ;
#347 = DIRECTION ( 'NONE',  ( 4.419575816427695500E-014, -1.000000000000000000, -0.0000000000000000000 ) ) ;
#348 = DIRECTION ( 'NONE',  ( 1.000000000000000000, 4.336808689942047400E-014, 0.0000000000000000000 ) ) ;
#349 = CARTESIAN_POINT ( 'NONE',  ( -2.285931536763382600E-012, 51.72287187079145800, 0.0000000000000000000 ) ) ;
#350 = DIRECTION ( 'NONE',  ( 4.419575816427695500E-014, -1.000000000000000000, -0.0000000000000000000 ) ) ;
#351 = DIRECTION ( 'NONE',  ( 1.000000000000000000, 4.418635268998679500E-014, 0.0000000000000000000 ) ) ;
#352 = CARTESIAN_POINT ( 'NONE',  ( -2.298179424542510000E-012, 52.00000000000244400, 0.0000000000000000000 ) ) ;
#353 = DIRECTION ( 'NONE',  ( 4.419575816427695500E-014, -1.000000000000000000, -0.0000000000000000000 ) ) ;
#354 = DIRECTION ( 'NONE',  ( 1.000000000000000000, 4.414251702263444800E-014, 0.0000000000000000000 ) ) ;
#355 = CARTESIAN_POINT ( 'NONE',  ( -2.298179424542512000E-012, 52.00000000000249400, 0.0000000000000000000 ) ) ;
#356 = DIRECTION ( 'NONE',  ( 4.419575816427695500E-014, -1.000000000000000000, -0.0000000000000000000 ) ) ;
#357 = DIRECTION ( 'NONE',  ( 1.000000000000000000, 4.429081215259616700E-014, 0.0000000000000000000 ) ) ;
#358 = CARTESIAN_POINT ( 'NONE',  ( -2.291108103236223800E-012, 51.84000000000241200, 0.0000000000000000000 ) ) ;
#359 = DIRECTION ( 'NONE',  ( 4.419575816427695500E-014, -1.000000000000000000, -0.0000000000000000000 ) ) ;
#360 = DIRECTION ( 'NONE',  ( 1.000000000000000000, 4.427675157730984200E-014, 0.0000000000000000000 ) ) ;
#361 = CARTESIAN_POINT ( 'NONE',  ( -9.919313804509297800E-013, 22.44404037065935500, 0.0000000000000000000 ) ) ;
#362 = DIRECTION ( 'NONE',  ( 4.419575816427695500E-014, -1.000000000000000000, -0.0000000000000000000 ) ) ;
#363 = DIRECTION ( 'NONE',  ( 1.000000000000000000, 4.427675157731532000E-014, 0.0000000000000000000 ) ) ;
#364 = CARTESIAN_POINT ( 'NONE',  ( -7.218908375379731100E-013, 16.33393944402273200, 0.0000000000000000000 ) ) ;
#365 = DIRECTION ( 'NONE',  ( 4.419575816427695500E-014, -1.000000000000000000, -0.0000000000000000000 ) ) ;
#366 = DIRECTION ( 'NONE',  ( 1.000000000000000000, 4.423544863740113400E-014, 0.0000000000000000000 ) ) ;
#367 = CARTESIAN_POINT ( 'NONE',  ( -5.307418037625734400E-013, 12.00888559915162500, 0.0000000000000000000 ) ) ;
#368 = DIRECTION ( 'NONE',  ( 4.419575816427695500E-014, -1.000000000000000000, -0.0000000000000000000 ) ) ;
#369 = DIRECTION ( 'NONE',  ( 1.000000000000000000, 4.423544863739228600E-014, 0.0000000000000000000 ) ) ;
#370 = CARTESIAN_POINT ( 'NONE',  ( -4.082629259727086300E-014, 0.9237604307073613600, 0.0000000000000000000 ) ) ;
#371 = DIRECTION ( 'NONE',  ( 4.419575816427695500E-014, -1.000000000000000000, -0.0000000000000000000 ) ) ;
#372 = DIRECTION ( 'NONE',  ( 1.000000000000000000, 4.418123852877392400E-014, 0.0000000000000000000 ) ) ;
#373 = CARTESIAN_POINT ( 'NONE',  ( -4.082629259727086300E-014, 0.9237604307073613600, 0.0000000000000000000 ) ) ;
#374 = LINE ( 'NONE', #375, #143 ) ;
#375 = CARTESIAN_POINT ( 'NONE',  ( 0.0000000000000000000, 0.0000000000000000000, 0.0000000000000000000 ) ) ;
#376 = DIRECTION ( 'NONE',  ( -0.8660254037835835000, 0.5000000000014811500, 0.0000000000000000000 ) ) ;
#377 = LINE ( 'NONE', #378, #141 ) ;
#378 = CARTESIAN_POINT ( 'NONE',  ( 0.0000000000000000000, 0.0000000000000000000, 0.0000000000000000000 ) ) ;
#379 = DIRECTION ( 'NONE',  ( 0.8660254037835392000, 0.5000000000015576400, 1.060575238723832500E-016 ) ) ;
#380 = LINE ( 'NONE', #381, #137 ) ;
#381 = CARTESIAN_POINT ( 'NONE',  ( -1.600000000000416900, 0.9237604307072907500, 0.0000000000000000000 ) ) ;
#382 = DIRECTION ( 'NONE',  ( -0.5000000000000721600, 0.8660254037843969600, 0.0000000000000000000 ) ) ;
#383 = DIRECTION ( 'NONE',  ( 4.419575816427695500E-014, -1.000000000000000000, -0.0000000000000000000 ) ) ;
#384 = DIRECTION ( 'NONE',  ( 1.000000000000000000, 4.418123852877392400E-014, 0.0000000000000000000 ) ) ;
#385 = CARTESIAN_POINT ( 'NONE',  ( -5.307418037625734400E-013, 12.00888559915162500, 0.0000000000000000000 ) ) ;
#386 = LINE ( 'NONE', #387, #134 ) ;
#387 = CARTESIAN_POINT ( 'NONE',  ( 1.600000000000335400, 0.9237604307074320800, 1.959434878636225700E-016 ) ) ;
#388 = DIRECTION ( 'NONE',  ( 0.4999999999999956700, 0.8660254037844411500, 6.123233995737181400E-017 ) ) ;
#389 = LINE ( 'NONE', #390, #131 ) ;
#390 = CARTESIAN_POINT ( 'NONE',  ( 8.000000000002147600, 3.535660653143105600E-013, 0.0000000000000000000 ) ) ;
#391 = CARTESIAN_POINT ( 'NONE',  ( -4.406317088978532500E-012, 99.70000000000271700, 0.0000000000000000000 ) ) ;
#392 = DIRECTION ( 'NONE',  ( 4.419575816427695500E-014, -1.000000000000000000, -0.0000000000000000000 ) ) ;
#393 = DIRECTION ( 'NONE',  ( 4.419575816427695500E-014, -1.000000000000000000, -0.0000000000000000000 ) ) ;
#394 = DIRECTION ( 'NONE',  ( 1.000000000000000000, 4.423544863739228600E-014, 0.0000000000000000000 ) ) ;
#395 = CARTESIAN_POINT ( 'NONE',  ( -2.298179424542512000E-012, 52.00000000000249400, 0.0000000000000000000 ) ) ;
#396 = LINE ( 'NONE', #397, #128 ) ;
#397 = CARTESIAN_POINT ( 'NONE',  ( -8.000000000002147600, -3.535660653143105600E-013, 9.797174393181456500E-016 ) ) ;
#398 = DIRECTION ( 'NONE',  ( 4.419575816427695500E-014, -1.000000000000000000, -0.0000000000000000000 ) ) ;
#399 = DIRECTION ( 'NONE',  ( 4.419575816427695500E-014, -1.000000000000000000, -0.0000000000000000000 ) ) ;
#400 = DIRECTION ( 'NONE',  ( 1.000000000000000000, 4.429081215259616700E-014, 0.0000000000000000000 ) ) ;
#401 = CARTESIAN_POINT ( 'NONE',  ( -4.419575816427815900E-012, 100.0000000000027300, 0.0000000000000000000 ) ) ;
#402 = LINE ( 'NONE', #403, #126 ) ;
#403 = CARTESIAN_POINT ( 'NONE',  ( -8.000000000004350300, 99.70000000000237600, 9.797174393178758600E-016 ) ) ;
#404 = DIRECTION ( 'NONE',  ( -0.7071067811864713000, -0.7071067811866238500, 8.659560562354381900E-017 ) ) ;
#405 = LINE ( 'NONE', #406, #123 ) ;
#406 = CARTESIAN_POINT ( 'NONE',  ( 7.999999999995538700, 99.70000000000305800, 0.0000000000000000000 ) ) ;
#407 = DIRECTION ( 'NONE',  ( 0.7071067811865336900, -0.7071067811865613400, 0.0000000000000000000 ) ) ;
#408 = LINE ( 'NONE', #409, #121 ) ;
#409 = CARTESIAN_POINT ( 'NONE',  ( 7.999999999998905800, 3.535660653141672700E-013, 0.0000000000000000000 ) ) ;
#410 = DIRECTION ( 'NONE',  ( 4.419575816427695500E-014, -1.000000000000000000, -0.0000000000000000000 ) ) ;
#411 = DIRECTION ( 'NONE',  ( 4.419575816427695500E-014, -1.000000000000000000, -0.0000000000000000000 ) ) ;
#412 = DIRECTION ( 'NONE',  ( 1.000000000000000000, 4.505775262277435800E-014, 0.0000000000000000000 ) ) ;
#413 = CARTESIAN_POINT ( 'NONE',  ( -2.298179424542511600E-012, 52.00000000000248700, 0.0000000000000000000 ) ) ;
#414 = LINE ( 'NONE', #415, #119 ) ;
#415 = CARTESIAN_POINT ( 'NONE',  ( -7.999999999998905800, -3.535660653141672700E-013, 9.797174393177484600E-016 ) ) ;
#416 = DIRECTION ( 'NONE',  ( 4.419575816427695500E-014, -1.000000000000000000, -0.0000000000000000000 ) ) ;
#417 = DIRECTION ( 'NONE',  ( 4.419575816427695500E-014, -1.000000000000000000, -0.0000000000000000000 ) ) ;
#418 = DIRECTION ( 'NONE',  ( 1.000000000000000000, 4.423544863742037600E-014, 0.0000000000000000000 ) ) ;
#419 = CARTESIAN_POINT ( 'NONE',  ( -2.298179424542510000E-012, 52.00000000000244400, 0.0000000000000000000 ) ) ;
#420 = DIRECTION ( 'NONE',  ( 4.419575816427695500E-014, -1.000000000000000000, -0.0000000000000000000 ) ) ;
#421 = DIRECTION ( 'NONE',  ( 1.000000000000000000, 4.414251702263444800E-014, 0.0000000000000000000 ) ) ;
#422 = CARTESIAN_POINT ( 'NONE',  ( -4.406317088978532500E-012, 99.70000000000271700, 0.0000000000000000000 ) ) ;
#423 = DIRECTION ( 'NONE',  ( 4.419575816427695500E-014, -1.000000000000000000, -0.0000000000000000000 ) ) ;
#424 = DIRECTION ( 'NONE',  ( 1.000000000000000000, 4.336808689942047400E-014, 0.0000000000000000000 ) ) ;
#425 = CARTESIAN_POINT ( 'NONE',  ( 8.319999999995566500, 52.00000000000288500, 0.0000000000000000000 ) ) ;
#426 = LINE ( 'NONE', #427, #112 ) ;
#427 = CARTESIAN_POINT ( 'NONE',  ( -8.960000000000199800, 52.00000000000205300, 0.0000000000000000000 ) ) ;
#428 = DIRECTION ( 'NONE',  ( -0.8660254037845345200, 0.4999999999998337400, 0.0000000000000000000 ) ) ;
#429 = LINE ( 'NONE', #430, #110 ) ;
#430 = CARTESIAN_POINT ( 'NONE',  ( 8.959999999995602600, 52.00000000000284200, 1.097283532035771400E-015 ) ) ;
#431 = DIRECTION ( 'NONE',  ( 0.8660254037844904400, 0.4999999999999102900, 1.060575238724997400E-016 ) ) ;
#432 = DIRECTION ( 'NONE',  ( 0.0000000000000000000, 0.0000000000000000000, -1.000000000000000000 ) ) ;
#433 = DIRECTION ( 'NONE',  ( -1.000000000000000000, 0.0000000000000000000, 0.0000000000000000000 ) ) ;
#434 = CARTESIAN_POINT ( 'NONE',  ( -2.298179424542511600E-012, 52.00000000000248700, 0.0000000000000000000 ) ) ;
#435 = LINE ( 'NONE', #436, #104 ) ;
#436 = CARTESIAN_POINT ( 'NONE',  ( -10.50000000000299100, 51.84000000000195000, 1.285879139104806600E-015 ) ) ;
#437 = DIRECTION ( 'NONE',  ( -0.7071067811862441500, -0.7071067811868510000, 8.659560562351599900E-017 ) ) ;
#438 = DIRECTION ( 'NONE',  ( 4.419575816427695500E-014, -1.000000000000000000, -0.0000000000000000000 ) ) ;
#439 = DIRECTION ( 'NONE',  ( 1.000000000000000000, 4.423544863742037600E-014, 0.0000000000000000000 ) ) ;
#440 = CARTESIAN_POINT ( 'NONE',  ( -2.285931536763382600E-012, 51.72287187079145800, 0.0000000000000000000 ) ) ;
#441 = DIRECTION ( 'NONE',  ( 4.419575816427695500E-014, -1.000000000000000000, -0.0000000000000000000 ) ) ;
#442 = DIRECTION ( 'NONE',  ( 1.000000000000000000, 4.418635268998679500E-014, 0.0000000000000000000 ) ) ;
#443 = CARTESIAN_POINT ( 'NONE',  ( -8.320000000000163700, 52.00000000000214600, 1.018906136890336500E-015 ) ) ;
#444 = DIRECTION ( 'NONE',  ( 1.224646799147353200E-016, 5.412419377177227200E-030, 1.000000000000000000 ) ) ;
#445 = DIRECTION ( 'NONE',  ( 1.000000000000000000, 0.0000000000000000000, -1.224646799147350000E-016 ) ) ;
#446 = CARTESIAN_POINT ( 'NONE',  ( -2.291108103236223800E-012, 51.84000000000241200, 0.0000000000000000000 ) ) ;
#447 = DIRECTION ( 'NONE',  ( 4.419575816427695500E-014, -1.000000000000000000, -0.0000000000000000000 ) ) ;
#448 = DIRECTION ( 'NONE',  ( 1.000000000000000000, 4.427675157730984200E-014, 0.0000000000000000000 ) ) ;
#449 = CARTESIAN_POINT ( 'NONE',  ( -8.000000000004350300, 99.70000000000237600, 9.797174393180048400E-016 ) ) ;
#450 = LINE ( 'NONE', #451, #94 ) ;
#451 = CARTESIAN_POINT ( 'NONE',  ( 10.49999999999840800, 51.84000000000287400, 0.0000000000000000000 ) ) ;
#452 = DIRECTION ( 'NONE',  ( 0.7071067811863065400, -0.7071067811867884900, 0.0000000000000000000 ) ) ;
#453 = LINE ( 'NONE', #454, #100 ) ;
#454 = CARTESIAN_POINT ( 'NONE',  ( -10.50000000000005200, -4.640554607249102400E-013, 1.285879139104727100E-015 ) ) ;
#455 = DIRECTION ( 'NONE',  ( 4.419575816427695500E-014, -1.000000000000000000, -0.0000000000000000000 ) ) ;
#456 = FILL_AREA_STYLE_COLOUR ( '', #174 ) ;
#457 = FILL_AREA_STYLE ('',( #456 ) ) ;
#458 = SURFACE_STYLE_FILL_AREA ( #457 ) ;
#459 = SURFACE_SIDE_STYLE ('',( #458 ) ) ;
#460 = SURFACE_STYLE_USAGE ( .BOTH. , #459 ) ;
#461 = PRESENTATION_STYLE_ASSIGNMENT (( #460 ) ) ;
#462 =( LENGTH_UNIT ( ) NAMED_UNIT ( * ) SI_UNIT ( .MILLI., .METRE. ) );
#463 =( NAMED_UNIT ( * ) PLANE_ANGLE_UNIT ( ) SI_UNIT ( $, .RADIAN. ) );
#464 =( NAMED_UNIT ( * ) SI_UNIT ( $, .STERADIAN. ) SOLID_ANGLE_UNIT ( ) );
#465 = CARTESIAN_POINT ( 'NONE',  ( 7.699999999995554800, 100.0000000000030700, 0.0000000000000000000 ) ) ;
#466 = CARTESIAN_POINT ( 'NONE',  ( -7.700000000004393100, 100.0000000000023700, 9.613477373306676000E-016 ) ) ;
#467 =( LENGTH_UNIT ( ) NAMED_UNIT ( * ) SI_UNIT ( .MILLI., .METRE. ) );
#468 =( NAMED_UNIT ( * ) PLANE_ANGLE_UNIT ( ) SI_UNIT ( $, .RADIAN. ) );
#469 =( NAMED_UNIT ( * ) SI_UNIT ( $, .STERADIAN. ) SOLID_ANGLE_UNIT ( ) );
#470 = APPLICATION_PROTOCOL_DEFINITION ( 'draft international standard', 'automotive_design', 1998, #486 ) ;
#471 = FILL_AREA_STYLE_COLOUR ( '', #168 ) ;
#472 = FILL_AREA_STYLE ('',( #471 ) ) ;
#473 = SURFACE_STYLE_FILL_AREA ( #472 ) ;
#474 = SURFACE_SIDE_STYLE ('',( #473 ) ) ;
#475 = SURFACE_STYLE_USAGE ( .BOTH. , #474 ) ;
#476 = PRESENTATION_STYLE_ASSIGNMENT (( #475 ) ) ;
#477 =( LENGTH_UNIT ( ) NAMED_UNIT ( * ) SI_UNIT ( .MILLI., .METRE. ) );
#478 =( NAMED_UNIT ( * ) PLANE_ANGLE_UNIT ( ) SI_UNIT ( $, .RADIAN. ) );
#479 =( NAMED_UNIT ( * ) SI_UNIT ( $, .STERADIAN. ) SOLID_ANGLE_UNIT ( ) );
#480 = CARTESIAN_POINT ( 'NONE',  ( 0.0000000000000000000, 0.0000000000000000000, 0.0000000000000000000 ) ) ;
#481 = DIRECTION ( 'NONE',  ( 0.0000000000000000000, 0.0000000000000000000, 1.000000000000000000 ) ) ;
#482 = DIRECTION ( 'NONE',  ( 1.000000000000000000, 0.0000000000000000000, 0.0000000000000000000 ) ) ;
#483 = SHAPE_DEFINITION_REPRESENTATION ( #515, #166 ) ;
#484 = PRODUCT_CONTEXT ( 'NONE', #486, 'mechanical' ) ;
#485 = APPLICATION_PROTOCOL_DEFINITION ( 'draft international standard', 'automotive_design', 1998, #487 ) ;
#486 = APPLICATION_CONTEXT ( 'automotive_design' ) ;
#487 = APPLICATION_CONTEXT ( 'automotive_design' ) ;
#488 = DIRECTION ( 'NONE',  ( 4.419575816427695500E-014, -1.000000000000000000, -0.0000000000000000000 ) ) ;
#489 = CARTESIAN_POINT ( 'NONE',  ( -2.291108103236223800E-012, 51.84000000000241200, 0.0000000000000000000 ) ) ;
#490 = DIRECTION ( 'NONE',  ( -1.000000000000000000, -4.414251702263444800E-014, 0.0000000000000000000 ) ) ;
#491 = DIRECTION ( 'NONE',  ( -4.419575816427695500E-014, 1.000000000000000000, 0.0000000000000000000 ) ) ;
#492 = CARTESIAN_POINT ( 'NONE',  ( -2.298179424542510000E-012, 52.00000000000244400, 0.0000000000000000000 ) ) ;
#493 = DIRECTION ( 'NONE',  ( 1.000000000000000000, 4.419575816427695500E-014, 0.0000000000000000000 ) ) ;
#494 = DIRECTION ( 'NONE',  ( 4.419575816427695500E-014, -1.000000000000000000, -0.0000000000000000000 ) ) ;
#495 = CARTESIAN_POINT ( 'NONE',  ( -2.298508605669269400E-012, 52.00000000000251500, 0.0000000000000000000 ) ) ;
#496 = DIRECTION ( 'NONE',  ( 1.000000000000000000, 4.419575816427695500E-014, 0.0000000000000000000 ) ) ;
#497 = DIRECTION ( 'NONE',  ( 4.419575816427695500E-014, -1.000000000000000000, -0.0000000000000000000 ) ) ;
#498 = CARTESIAN_POINT ( 'NONE',  ( 0.0000000000000000000, 0.0000000000000000000, 0.0000000000000000000 ) ) ;
#499 = DIRECTION ( 'NONE',  ( 1.000000000000000000, 4.336808689942047400E-014, 0.0000000000000000000 ) ) ;
#500 = DIRECTION ( 'NONE',  ( 4.419575816427695500E-014, -1.000000000000000000, -0.0000000000000000000 ) ) ;
#501 = CARTESIAN_POINT ( 'NONE',  ( -4.406317088978532500E-012, 99.70000000000271700, 0.0000000000000000000 ) ) ;
#502 = DIRECTION ( 'NONE',  ( -1.000000000000000000, -4.423544863740113400E-014, 0.0000000000000000000 ) ) ;
#503 = DIRECTION ( 'NONE',  ( -4.419575816427695500E-014, 1.000000000000000000, 0.0000000000000000000 ) ) ;
#504 = CARTESIAN_POINT ( 'NONE',  ( -7.218908375379731100E-013, 16.33393944402273200, 0.0000000000000000000 ) ) ;
#505 = DIRECTION ( 'NONE',  ( 1.000000000000000000, 4.419575816427695500E-014, 0.0000000000000000000 ) ) ;
#506 = DIRECTION ( 'NONE',  ( 4.419575816427695500E-014, -1.000000000000000000, -0.0000000000000000000 ) ) ;
#507 = CARTESIAN_POINT ( 'NONE',  ( 0.0000000000000000000, 0.0000000000000000000, 0.0000000000000000000 ) ) ;
#508 = DIRECTION ( 'NONE',  ( -1.000000000000000000, -4.418123852877392400E-014, 0.0000000000000000000 ) ) ;
#509 = DIRECTION ( 'NONE',  ( -4.419575816427695500E-014, 1.000000000000000000, 0.0000000000000000000 ) ) ;
#510 = CARTESIAN_POINT ( 'NONE',  ( -4.082629259727086300E-014, 0.9237604307073613600, 0.0000000000000000000 ) ) ;
#511 = DIRECTION ( 'NONE',  ( -1.000000000000000000, -4.416404303078813300E-014, 0.0000000000000000000 ) ) ;
#512 = DIRECTION ( 'NONE',  ( -4.419575816427695500E-014, 1.000000000000000000, 0.0000000000000000000 ) ) ;
#513 = CARTESIAN_POINT ( 'NONE',  ( -4.419575816427695200E-011, 1000.000000000000000, 0.0000000000000000000 ) ) ;
#514 = DIRECTION ( 'NONE',  ( -1.000000000000000000, -4.416404303078813300E-014, 0.0000000000000000000 ) ) ;
#515 = PRODUCT_DEFINITION_SHAPE ( 'NONE', 'NONE',  #173 ) ;
#516 = MANIFOLD_SOLID_BREP ( '±ÛÂà1', #303 ) ;
#517 = PRODUCT_DEFINITION_CONTEXT ( 'detailed design', #487, 'design' ) ;
#518 = ORIENTED_EDGE ( 'NONE', *, *, #234, .F. ) ;
#519 = ORIENTED_EDGE ( 'NONE', *, *, #245, .F. ) ;
#520 = ORIENTED_EDGE ( 'NONE', *, *, #243, .T. ) ;
#521 = ORIENTED_EDGE ( 'NONE', *, *, #244, .T. ) ;
#522 = ORIENTED_EDGE ( 'NONE', *, *, #254, .F. ) ;
#523 = ORIENTED_EDGE ( 'NONE', *, *, #252, .T. ) ;
#524 = ORIENTED_EDGE ( 'NONE', *, *, #249, .T. ) ;
#525 = ORIENTED_EDGE ( 'NONE', *, *, #246, .F. ) ;
#526 = ORIENTED_EDGE ( 'NONE', *, *, #251, .F. ) ;
#527 = ORIENTED_EDGE ( 'NONE', *, *, #245, .T. ) ;
#528 = ORIENTED_EDGE ( 'NONE', *, *, #246, .T. ) ;
#529 = ORIENTED_EDGE ( 'NONE', *, *, #247, .T. ) ;
#530 = ORIENTED_EDGE ( 'NONE', *, *, #248, .F. ) ;
#531 = ORIENTED_EDGE ( 'NONE', *, *, #248, .T. ) ;
#532 = ORIENTED_EDGE ( 'NONE', *, *, #250, .T. ) ;
#533 = ORIENTED_EDGE ( 'NONE', *, *, #247, .F. ) ;
#534 = ORIENTED_EDGE ( 'NONE', *, *, #249, .F. ) ;
#535 = ORIENTED_EDGE ( 'NONE', *, *, #251, .T. ) ;
#536 = ORIENTED_EDGE ( 'NONE', *, *, #253, .T. ) ;
#537 = ORIENTED_EDGE ( 'NONE', *, *, #250, .F. ) ;
#538 = ORIENTED_EDGE ( 'NONE', *, *, #252, .F. ) ;
#539 = VERTEX_POINT ( 'NONE', #449 ) ;
#540 = ORIENTED_EDGE ( 'NONE', *, *, #259, .T. ) ;
#541 = ORIENTED_EDGE ( 'NONE', *, *, #258, .F. ) ;
#542 = ORIENTED_EDGE ( 'NONE', *, *, #269, .T. ) ;
#543 = ORIENTED_EDGE ( 'NONE', *, *, #260, .T. ) ;
#544 = ORIENTED_EDGE ( 'NONE', *, *, #261, .F. ) ;
#545 = ORIENTED_EDGE ( 'NONE', *, *, #255, .T. ) ;
#546 = ORIENTED_EDGE ( 'NONE', *, *, #267, .T. ) ;
#547 = ORIENTED_EDGE ( 'NONE', *, *, #271, .F. ) ;
#548 = ORIENTED_EDGE ( 'NONE', *, *, #262, .F. ) ;
#549 = ORIENTED_EDGE ( 'NONE', *, *, #264, .F. ) ;
#550 = ORIENTED_EDGE ( 'NONE', *, *, #265, .T. ) ;
#551 = ORIENTED_EDGE ( 'NONE', *, *, #257, .F. ) ;
#552 = ORIENTED_EDGE ( 'NONE', *, *, #256, .T. ) ;
#553 = ORIENTED_EDGE ( 'NONE', *, *, #269, .F. ) ;
#554 = ORIENTED_EDGE ( 'NONE', *, *, #263, .F. ) ;
#555 = ORIENTED_EDGE ( 'NONE', *, *, #263, .T. ) ;
#556 = ORIENTED_EDGE ( 'NONE', *, *, #266, .F. ) ;
#557 = ORIENTED_EDGE ( 'NONE', *, *, #270, .T. ) ;
#558 = ORIENTED_EDGE ( 'NONE', *, *, #268, .T. ) ;
#559 = VERTEX_POINT ( 'NONE', #465 ) ;
#560 = VERTEX_POINT ( 'NONE', #466 ) ;
#561 = ORIENTED_EDGE ( 'NONE', *, *, #272, .F. ) ;
#562 = ORIENTED_EDGE ( 'NONE', *, *, #271, .T. ) ;
#563 = ORIENTED_EDGE ( 'NONE', *, *, #232, .F. ) ;
#564 = ORIENTED_EDGE ( 'NONE', *, *, #273, .T. ) ;
#565 = ORIENTED_EDGE ( 'NONE', *, *, #233, .F. ) ;
#566 = DIRECTION ( 'NONE',  ( -4.419575816427695500E-014, 1.000000000000000000, 0.0000000000000000000 ) ) ;
#567 = CARTESIAN_POINT ( 'NONE',  ( -4.419575816427695200E-011, 1000.000000000000000, 0.0000000000000000000 ) ) ;
#568 = CARTESIAN_POINT ( 'NONE',  ( 7.999999999995538700, 99.70000000000305800, 0.0000000000000000000 ) ) ;
#569 = CARTESIAN_POINT ( 'NONE',  ( -8.000000000000165200, 52.00000000000213200, 1.009108962497153300E-015 ) ) ;
#570 = CARTESIAN_POINT ( 'NONE',  ( 7.999999999995568000, 52.00000000000284200, 0.0000000000000000000 ) ) ;
#571 = CARTESIAN_POINT ( 'NONE',  ( -8.480000000000076800, 51.72287187079108200, 0.0000000000000000000 ) ) ;
#572 = CARTESIAN_POINT ( 'NONE',  ( 8.479999999995502700, 51.72287187079183500, 1.067892008856228100E-015 ) ) ;
#573 = CARTESIAN_POINT ( 'NONE',  ( 8.959999999995602600, 52.00000000000284200, 1.097283532035771600E-015 ) ) ;
#574 = CARTESIAN_POINT ( 'NONE',  ( -8.960000000000199800, 52.00000000000205300, 0.0000000000000000000 ) ) ;
#575 = CARTESIAN_POINT ( 'NONE',  ( 10.33999999999844000, 52.00000000000295600, 0.0000000000000000000 ) ) ;
#576 = CARTESIAN_POINT ( 'NONE',  ( -10.34000000000303700, 52.00000000000203900, 1.276081964711630200E-015 ) ) ;
#577 = CARTESIAN_POINT ( 'NONE',  ( -10.50000000000299100, 51.84000000000195000, 1.285879139104886100E-015 ) ) ;
#578 = CARTESIAN_POINT ( 'NONE',  ( 10.49999999999840800, 51.84000000000287400, 0.0000000000000000000 ) ) ;
#579 = CARTESIAN_POINT ( 'NONE',  ( -10.50000000000039300, 22.44404037065889000, 0.0000000000000000000 ) ) ;
#580 = CARTESIAN_POINT ( 'NONE',  ( 10.49999999999841000, 22.44404037065982000, 1.285879139104647300E-015 ) ) ;
#581 = CARTESIAN_POINT ( 'NONE',  ( 8.000000000000625300, 16.33393944402308800, 0.0000000000000000000 ) ) ;
#582 = CARTESIAN_POINT ( 'NONE',  ( -8.000000000002067700, 16.33393944402238100, 9.797174393181081800E-016 ) ) ;
#583 = CARTESIAN_POINT ( 'NONE',  ( -8.000000000003476300, 12.00888559915127200, 0.0000000000000000000 ) ) ;
#584 = CARTESIAN_POINT ( 'NONE',  ( 8.000000000002414100, 12.00888559915198100, 9.797174393182432700E-016 ) ) ;
#585 = CARTESIAN_POINT ( 'NONE',  ( 1.600000000000335600, 0.9237604307074321900, 1.959434878636226000E-016 ) ) ;
#586 = CARTESIAN_POINT ( 'NONE',  ( -1.600000000000417100, 0.9237604307072906400, 0.0000000000000000000 ) ) ;
#587 = CARTESIAN_POINT ( 'NONE',  ( 0.0000000000000000000, 0.0000000000000000000, 0.0000000000000000000 ) ) ;
#588 = ORIENTED_EDGE ( 'NONE', *, *, #254, .T. ) ;
#589 = ORIENTED_EDGE ( 'NONE', *, *, #235, .T. ) ;
#590 = EDGE_LOOP ( 'NONE', ( #540, #552, #554, #551 ) ) ;
#591 = EDGE_LOOP ( 'NONE', ( #555, #543, #544, #541 ) ) ;
#592 = EDGE_LOOP ( 'NONE', ( #553, #557, #558, #556 ) ) ;
#593 = EDGE_LOOP ( 'NONE', ( #542, #550, #548, #549 ) ) ;
#594 = EDGE_LOOP ( 'NONE', ( #545, #546, #547, #561 ) ) ;
#595 = EDGE_LOOP ( 'NONE', ( #562, #564, #563, #565 ) ) ;
#596 = EDGE_LOOP ( 'NONE', ( #55, #57, #56, #34 ) ) ;
ENDSEC;
END-ISO-10303-21;
