ISO-10303-21;
HEADER;
FILE_DESCRIPTION (( 'STEP AP214' ),
    '1' );
FILE_NAME ('99688-SI12-12+S9MT1203-090.STEP',
    '2022-11-03T01:07:51',
    ( 'User' ),
    ( 'GENUINE' ),
    'SwSTEP 2.0',
    'SolidWorks 2012',
    '' );
FILE_SCHEMA (( 'AUTOMOTIVE_DESIGN' ));
ENDSEC;

DATA;
#1 = DIRECTION ( 'NONE',  ( -2.265377428129336200E-014, 1.000000000000000000, 0.0000000000000000000 ) ) ;
#2 = CARTESIAN_POINT ( 'NONE',  ( -1.925570813909870300E-012, 84.99999999999712900, 0.0000000000000000000 ) ) ;
#3 = CARTESIAN_POINT ( 'NONE',  ( -1.918774681625481000E-012, 84.69999999999707500, 0.0000000000000000000 ) ) ;
#4 = DIRECTION ( 'NONE',  ( 1.000000000000000000, 2.265377428129336200E-014, 0.0000000000000000000 ) ) ;
#5 = DIRECTION ( 'NONE',  ( 2.265377428129336200E-014, -1.000000000000000000, -0.0000000000000000000 ) ) ;
#6 = CARTESIAN_POINT ( 'NONE',  ( 0.0000000000000000000, 7.105427357601001900E-015, 0.0000000000000000000 ) ) ;
#7 = DIRECTION ( 'NONE',  ( -1.000000000000000000, -2.255140518769331700E-014, 0.0000000000000000000 ) ) ;
#8 = DIRECTION ( 'NONE',  ( -2.265377428129336200E-014, 1.000000000000000000, 0.0000000000000000000 ) ) ;
#9 = CARTESIAN_POINT ( 'NONE',  ( -2.750944911528700300E-013, 12.14342862858102000, 0.0000000000000000000 ) ) ;
#10 = DIRECTION ( 'NONE',  ( 1.000000000000000000, 2.265377428129335800E-014, 0.0000000000000000000 ) ) ;
#11 = DIRECTION ( 'NONE',  ( 2.265377428129336200E-014, -1.000000000000000000, -0.0000000000000000000 ) ) ;
#12 = CARTESIAN_POINT ( 'NONE',  ( 0.0000000000000000000, 7.105427357601001900E-015, 0.0000000000000000000 ) ) ;
#13 = DIRECTION ( 'NONE',  ( -1.000000000000000000, -2.267789544114807100E-014, 0.0000000000000000000 ) ) ;
#14 = DIRECTION ( 'NONE',  ( -2.265377428129336200E-014, 1.000000000000000000, 0.0000000000000000000 ) ) ;
#15 = CARTESIAN_POINT ( 'NONE',  ( -1.569499521536639900E-014, 0.6928203230278894300, 0.0000000000000000000 ) ) ;
#16 = DIRECTION ( 'NONE',  ( -1.000000000000000000, -2.262686094311704600E-014, 0.0000000000000000000 ) ) ;
#17 = DIRECTION ( 'NONE',  ( 1.000000000000000000, 2.312964634635783900E-014, 0.0000000000000000000 ) ) ;
#18 = DIRECTION ( 'NONE',  ( 2.265377428129336200E-014, -1.000000000000000000, -0.0000000000000000000 ) ) ;
#19 =( GEOMETRIC_REPRESENTATION_CONTEXT ( 3 ) GLOBAL_UNCERTAINTY_ASSIGNED_CONTEXT ( ( #198 ) ) GLOBAL_UNIT_ASSIGNED_CONTEXT ( ( #367, #368, #369 ) ) REPRESENTATION_CONTEXT ( 'NONE', 'WORKASPACE' ) );
#20 =( GEOMETRIC_REPRESENTATION_CONTEXT ( 3 ) GLOBAL_UNCERTAINTY_ASSIGNED_CONTEXT ( ( #201 ) ) GLOBAL_UNIT_ASSIGNED_CONTEXT ( ( #392, #393, #394 ) ) REPRESENTATION_CONTEXT ( 'NONE', 'WORKASPACE' ) );
#21 =( GEOMETRIC_REPRESENTATION_CONTEXT ( 3 ) GLOBAL_UNCERTAINTY_ASSIGNED_CONTEXT ( ( #199 ) ) GLOBAL_UNIT_ASSIGNED_CONTEXT ( ( #402, #403, #404 ) ) REPRESENTATION_CONTEXT ( 'NONE', 'WORKASPACE' ) );
#22 = PRODUCT_DEFINITION_FORMATION_WITH_SPECIFIED_SOURCE ( 'ANY', '', #411, .NOT_KNOWN. ) ;
#23 = MECHANICAL_DESIGN_GEOMETRIC_PRESENTATION_REPRESENTATION (  '', ( #27 ), #21 ) ;
#24 = AXIS2_PLACEMENT_3D ( 'NONE', #405, #406, #407 ) ;
#25 = PRESENTATION_LAYER_ASSIGNMENT (  '', '', ( #27 ) ) ;
#26 = FACE_OUTER_BOUND ( 'NONE', #458, .T. ) ;
#27 = STYLED_ITEM ( 'NONE', ( #401 ), #200 ) ;
#28 = AXIS2_PLACEMENT_3D ( 'NONE', #420, #419, #418 ) ;
#29 = CYLINDRICAL_SURFACE ( 'NONE', #39, 7.750000000000933500 ) ;
#30 = AXIS2_PLACEMENT_3D ( 'NONE', #417, #416, #415 ) ;
#31 = MECHANICAL_DESIGN_GEOMETRIC_PRESENTATION_REPRESENTATION (  '', ( #48 ), #19 ) ;
#32 = FACE_OUTER_BOUND ( 'NONE', #446, .T. ) ;
#33 = AXIS2_PLACEMENT_3D ( 'NONE', #237, #238, #239 ) ;
#34 = AXIS2_PLACEMENT_3D ( 'NONE', #2, #1, #236 ) ;
#35 = AXIS2_PLACEMENT_3D ( 'NONE', #3, #18, #17 ) ;
#36 = PRESENTATION_LAYER_ASSIGNMENT (  '', '', ( #48 ) ) ;
#37 = VECTOR ( 'NONE', #357, 1000.000000000000000 ) ;
#38 = FACE_OUTER_BOUND ( 'NONE', #445, .T. ) ;
#39 = AXIS2_PLACEMENT_3D ( 'NONE', #6, #5, #4 ) ;
#40 = VECTOR ( 'NONE', #354, 1000.000000000000000 ) ;
#41 = FACE_OUTER_BOUND ( 'NONE', #447, .T. ) ;
#42 = AXIS2_PLACEMENT_3D ( 'NONE', #414, #413, #16 ) ;
#43 = FACE_OUTER_BOUND ( 'NONE', #448, .T. ) ;
#44 = FACE_OUTER_BOUND ( 'NONE', #449, .T. ) ;
#45 = AXIS2_PLACEMENT_3D ( 'NONE', #351, #358, #359 ) ;
#46 = VECTOR ( 'NONE', #348, 1000.000000000000000 ) ;
#47 = VECTOR ( 'NONE', #345, 1000.000000000000000 ) ;
#48 = STYLED_ITEM ( 'NONE', ( #366 ), #442 ) ;
#49 = AXIS2_PLACEMENT_3D ( 'NONE', #333, #334, #335 ) ;
#50 = AXIS2_PLACEMENT_3D ( 'NONE', #12, #11, #10 ) ;
#51 = VECTOR ( 'NONE', #330, 1000.000000000000000 ) ;
#52 = AXIS2_PLACEMENT_3D ( 'NONE', #336, #337, #338 ) ;
#53 = VECTOR ( 'NONE', #327, 1000.000000000000000 ) ;
#54 = VECTOR ( 'NONE', #324, 999.9999999999998900 ) ;
#55 = FACE_OUTER_BOUND ( 'NONE', #457, .T. ) ;
#56 = VECTOR ( 'NONE', #318, 1000.000000000000000 ) ;
#57 = AXIS2_PLACEMENT_3D ( 'NONE', #339, #340, #341 ) ;
#58 = CYLINDRICAL_SURFACE ( 'NONE', #50, 6.000000000001077400 ) ;
#59 = VECTOR ( 'NONE', #312, 1000.000000000000000 ) ;
#60 = AXIS2_PLACEMENT_3D ( 'NONE', #309, #313, #314 ) ;
#61 = AXIS2_PLACEMENT_3D ( 'NONE', #342, #349, #350 ) ;
#62 = AXIS2_PLACEMENT_3D ( 'NONE', #306, #307, #308 ) ;
#63 = VECTOR ( 'NONE', #303, 1000.000000000000000 ) ;
#64 = FACE_OUTER_BOUND ( 'NONE', #450, .T. ) ;
#65 = AXIS2_PLACEMENT_3D ( 'NONE', #297, #304, #305 ) ;
#66 = VECTOR ( 'NONE', #300, 1000.000000000000000 ) ;
#67 = VECTOR ( 'NONE', #294, 1000.000000000000000 ) ;
#68 = AXIS2_PLACEMENT_3D ( 'NONE', #315, #319, #320 ) ;
#69 = VECTOR ( 'NONE', #291, 999.9999999999998900 ) ;
#70 = AXIS2_PLACEMENT_3D ( 'NONE', #288, #295, #296 ) ;
#71 = VECTOR ( 'NONE', #285, 999.9999999999998900 ) ;
#72 = AXIS2_PLACEMENT_3D ( 'NONE', #9, #8, #7 ) ;
#73 = VECTOR ( 'NONE', #282, 1000.000000000000000 ) ;
#74 = AXIS2_PLACEMENT_3D ( 'NONE', #276, #286, #287 ) ;
#75 = VECTOR ( 'NONE', #279, 999.9999999999998900 ) ;
#76 = AXIS2_PLACEMENT_3D ( 'NONE', #15, #14, #13 ) ;
#77 = AXIS2_PLACEMENT_3D ( 'NONE', #273, #274, #275 ) ;
#78 = AXIS2_PLACEMENT_3D ( 'NONE', #270, #271, #272 ) ;
#79 = AXIS2_PLACEMENT_3D ( 'NONE', #321, #331, #332 ) ;
#80 = AXIS2_PLACEMENT_3D ( 'NONE', #264, #265, #266 ) ;
#81 = AXIS2_PLACEMENT_3D ( 'NONE', #267, #268, #269 ) ;
#82 = AXIS2_PLACEMENT_3D ( 'NONE', #258, #259, #260 ) ;
#83 = AXIS2_PLACEMENT_3D ( 'NONE', #255, #256, #257 ) ;
#84 = AXIS2_PLACEMENT_3D ( 'NONE', #252, #253, #254 ) ;
#85 = AXIS2_PLACEMENT_3D ( 'NONE', #249, #250, #251 ) ;
#86 = VECTOR ( 'NONE', #246, 1000.000000000000000 ) ;
#87 = AXIS2_PLACEMENT_3D ( 'NONE', #243, #247, #248 ) ;
#88 = AXIS2_PLACEMENT_3D ( 'NONE', #261, #262, #263 ) ;
#89 = AXIS2_PLACEMENT_3D ( 'NONE', #240, #241, #242 ) ;
#90 = CONICAL_SURFACE ( 'NONE', #222, 7.750000000001209700, 0.7853981633971917100 ) ;
#91 = PRODUCT_RELATED_PRODUCT_CATEGORY ( 'part', '', ( #411 ) ) ;
#92 = PRODUCT_DEFINITION ( 'UNKNOWN', '', #22, #440 ) ;
#93 = COLOUR_RGB ( '',0.7921568627450980000, 0.8196078431372548800, 0.9333333333333333500 ) ;
#94 = COLOUR_RGB ( '',0.7921568627450980000, 0.8196078431372548800, 0.9333333333333333500 ) ;
#95 = CIRCLE ( 'NONE', #45, 6.000000000001376700 ) ;
#96 = CIRCLE ( 'NONE', #61, 7.750000000000657300 ) ;
#97 = CIRCLE ( 'NONE', #57, 0.2399999999999997700 ) ;
#98 = CIRCLE ( 'NONE', #52, 5.999999999998938600 ) ;
#99 = CIRCLE ( 'NONE', #49, 6.359999999998886500 ) ;
#100 = CIRCLE ( 'NONE', #79, 5.999999999998938600 ) ;
#101 = CIRCLE ( 'NONE', #68, 6.719999999998965900 ) ;
#102 = CIRCLE ( 'NONE', #60, 5.999999999999893400 ) ;
#103 = CIRCLE ( 'NONE', #62, 0.2399999999999997700 ) ;
#104 = CIRCLE ( 'NONE', #65, 5.699999999999946000 ) ;
#105 = CIRCLE ( 'NONE', #70, 6.000000000000778000 ) ;
#106 = CIRCLE ( 'NONE', #74, 1.200000000000373700 ) ;
#107 = CIRCLE ( 'NONE', #77, 1.200000000000373700 ) ;
#108 = CIRCLE ( 'NONE', #78, 6.000000000000778000 ) ;
#109 = CIRCLE ( 'NONE', #81, 6.000000000001376700 ) ;
#110 = CIRCLE ( 'NONE', #80, 7.750000000000657300 ) ;
#111 = CIRCLE ( 'NONE', #88, 7.750000000001209700 ) ;
#112 = CIRCLE ( 'NONE', #82, 7.630000000001192700 ) ;
#113 = CIRCLE ( 'NONE', #83, 6.719999999998965900 ) ;
#114 = CIRCLE ( 'NONE', #84, 6.359999999998886500 ) ;
#115 = CIRCLE ( 'NONE', #85, 5.999999999999893400 ) ;
#116 = CIRCLE ( 'NONE', #87, 5.699999999999946000 ) ;
#117 = CIRCLE ( 'NONE', #33, 7.630000000001192700 ) ;
#118 = CONICAL_SURFACE ( 'NONE', #35, 5.999999999999893400, 0.7853981633973224900 ) ;
#119 = CONICAL_SURFACE ( 'NONE', #72, 6.000000000001376700, 0.4124839038990536500 ) ;
#120 = CIRCLE ( 'NONE', #89, 7.750000000001209700 ) ;
#121 = CONICAL_SURFACE ( 'NONE', #76, 1.200000000000373700, 0.7853981633974651500 ) ;
#122 = CONICAL_SURFACE ( 'NONE', #42, 1732.050807568588200, 1.047197551196525500 ) ;
#123 = CONICAL_SURFACE ( 'NONE', #28, 1.200000000000373700, 0.7853981633974651500 ) ;
#124 = CONICAL_SURFACE ( 'NONE', #203, 6.000000000001376700, 0.4124839038990536500 ) ;
#125 = CONICAL_SURFACE ( 'NONE', #30, 1732.050807568588200, 1.047197551196525500 ) ;
#126 = TOROIDAL_SURFACE ( 'NONE', #215, 6.239999999998938000, 0.2399999999999996000 ) ;
#127 = CONICAL_SURFACE ( 'NONE', #211, 7.750000000001209700, 0.7853981633971917100 ) ;
#128 = TOROIDAL_SURFACE ( 'NONE', #228, 6.239999999998938000, 0.2399999999999996000 ) ;
#129 = CONICAL_SURFACE ( 'NONE', #213, 6.719999999998965900, 1.047197551196724900 ) ;
#130 = CONICAL_SURFACE ( 'NONE', #230, 6.719999999998965900, 1.047197551196724900 ) ;
#131 = CONICAL_SURFACE ( 'NONE', #224, 5.999999999999893400, 0.7853981633973224900 ) ;
#132 = ADVANCED_FACE ( 'NONE', ( #206 ), #90, .T. ) ;
#133 = ADVANCED_FACE ( 'NONE', ( #223, #234 ), #586, .T. ) ;
#134 = ADVANCED_FACE ( 'NONE', ( #233 ), #130, .F. ) ;
#135 = ADVANCED_FACE ( 'NONE', ( #219 ), #128, .F. ) ;
#136 = ADVANCED_FACE ( 'NONE', ( #235 ), #226, .T. ) ;
#137 = EDGE_CURVE ( 'NONE', #469, #472, #573, .T. ) ;
#138 = ADVANCED_FACE ( 'NONE', ( #232 ), #131, .T. ) ;
#139 = ADVANCED_FACE ( 'NONE', ( #220 ), #217, .T. ) ;
#140 = ADVANCED_FACE ( 'NONE', ( #225 ), #126, .F. ) ;
#141 = ADVANCED_FACE ( 'NONE', ( #216 ), #129, .F. ) ;
#142 = ADVANCED_FACE ( 'NONE', ( #214 ), #127, .T. ) ;
#143 = ADVANCED_FACE ( 'NONE', ( #212 ), #209, .T. ) ;
#144 = ADVANCED_FACE ( 'NONE', ( #229 ), #124, .T. ) ;
#145 = ADVANCED_FACE ( 'NONE', ( #204 ), #205, .T. ) ;
#146 = ADVANCED_FACE ( 'NONE', ( #207 ), #123, .T. ) ;
#147 = ADVANCED_FACE ( 'NONE', ( #38 ), #125, .T. ) ;
#148 = ADVANCED_FACE ( 'NONE', ( #32 ), #122, .T. ) ;
#149 = ADVANCED_FACE ( 'NONE', ( #41 ), #121, .T. ) ;
#150 = ADVANCED_FACE ( 'NONE', ( #43 ), #58, .T. ) ;
#151 = ADVANCED_FACE ( 'NONE', ( #44 ), #119, .T. ) ;
#152 = ADVANCED_FACE ( 'NONE', ( #64 ), #29, .T. ) ;
#153 = ADVANCED_FACE ( 'NONE', ( #55 ), #118, .T. ) ;
#154 = ADVANCED_FACE ( 'NONE', ( #26 ), #412, .T. ) ;
#155 = EDGE_CURVE ( 'NONE', #476, #475, #117, .T. ) ;
#156 = EDGE_CURVE ( 'NONE', #473, #474, #120, .T. ) ;
#157 = EDGE_CURVE ( 'NONE', #476, #473, #244, .T. ) ;
#158 = EDGE_CURVE ( 'NONE', #562, #561, #116, .T. ) ;
#159 = EDGE_CURVE ( 'NONE', #461, #463, #115, .T. ) ;
#160 = EDGE_CURVE ( 'NONE', #479, #480, #114, .T. ) ;
#161 = EDGE_CURVE ( 'NONE', #478, #477, #113, .T. ) ;
#162 = EDGE_CURVE ( 'NONE', #475, #476, #112, .T. ) ;
#163 = EDGE_CURVE ( 'NONE', #474, #473, #111, .T. ) ;
#164 = EDGE_CURVE ( 'NONE', #472, #471, #110, .T. ) ;
#165 = EDGE_CURVE ( 'NONE', #469, #470, #109, .T. ) ;
#166 = EDGE_CURVE ( 'NONE', #468, #467, #108, .T. ) ;
#167 = EDGE_CURVE ( 'NONE', #465, #466, #107, .T. ) ;
#168 = EDGE_CURVE ( 'NONE', #464, #465, #277, .T. ) ;
#169 = EDGE_CURVE ( 'NONE', #464, #466, #280, .T. ) ;
#170 = EDGE_CURVE ( 'NONE', #465, #468, #283, .T. ) ;
#171 = EDGE_CURVE ( 'NONE', #466, #465, #106, .T. ) ;
#172 = EDGE_CURVE ( 'NONE', #466, #467, #289, .T. ) ;
#173 = EDGE_CURVE ( 'NONE', #470, #467, #292, .T. ) ;
#174 = EDGE_CURVE ( 'NONE', #467, #468, #105, .T. ) ;
#175 = EDGE_CURVE ( 'NONE', #469, #468, #298, .T. ) ;
#176 = EDGE_CURVE ( 'NONE', #461, #543, #301, .T. ) ;
#177 = EDGE_CURVE ( 'NONE', #561, #562, #104, .T. ) ;
#178 = EDGE_CURVE ( 'NONE', #479, #481, #103, .T. ) ;
#179 = EDGE_CURVE ( 'NONE', #479, #478, #310, .T. ) ;
#180 = EDGE_CURVE ( 'NONE', #463, #461, #102, .T. ) ;
#181 = EDGE_CURVE ( 'NONE', #480, #477, #316, .T. ) ;
#182 = EDGE_CURVE ( 'NONE', #477, #478, #101, .T. ) ;
#183 = EDGE_CURVE ( 'NONE', #562, #461, #322, .T. ) ;
#184 = EDGE_CURVE ( 'NONE', #475, #474, #325, .T. ) ;
#185 = EDGE_CURVE ( 'NONE', #561, #463, #328, .T. ) ;
#186 = EDGE_CURVE ( 'NONE', #543, #481, #100, .T. ) ;
#187 = EDGE_CURVE ( 'NONE', #480, #479, #99, .T. ) ;
#188 = EDGE_CURVE ( 'NONE', #481, #543, #98, .T. ) ;
#189 = EDGE_CURVE ( 'NONE', #480, #543, #97, .T. ) ;
#190 = EDGE_CURVE ( 'NONE', #463, #481, #343, .T. ) ;
#191 = EDGE_CURVE ( 'NONE', #474, #472, #346, .T. ) ;
#192 = EDGE_CURVE ( 'NONE', #471, #472, #96, .T. ) ;
#193 = EDGE_CURVE ( 'NONE', #473, #471, #352, .T. ) ;
#194 = EDGE_CURVE ( 'NONE', #470, #471, #355, .T. ) ;
#195 = EDGE_CURVE ( 'NONE', #470, #469, #95, .T. ) ;
#196 = APPLICATION_CONTEXT ( 'automotive_design' ) ;
#197 = APPLICATION_CONTEXT ( 'automotive_design' ) ;
#198 = UNCERTAINTY_MEASURE_WITH_UNIT (LENGTH_MEASURE( 1.000000000000000100E-005 ), #367, 'distance_accuracy_value', 'NONE');
#199 = UNCERTAINTY_MEASURE_WITH_UNIT (LENGTH_MEASURE( 1.000000000000000100E-005 ), #402, 'distance_accuracy_value', 'NONE');
#200 = ADVANCED_BREP_SHAPE_REPRESENTATION ( '99688-SI12-12+S9MT1203-090', ( #442, #24 ), #20 ) ;
#201 = UNCERTAINTY_MEASURE_WITH_UNIT (LENGTH_MEASURE( 1.000000000000000100E-005 ), #392, 'distance_accuracy_value', 'NONE');
#202 = AXIS2_PLACEMENT_3D ( 'NONE', #423, #422, #421 ) ;
#203 = AXIS2_PLACEMENT_3D ( 'NONE', #426, #425, #424 ) ;
#204 = FACE_OUTER_BOUND ( 'NONE', #443, .T. ) ;
#205 = CYLINDRICAL_SURFACE ( 'NONE', #202, 6.000000000001077400 ) ;
#206 = FACE_OUTER_BOUND ( 'NONE', #451, .T. ) ;
#207 = FACE_OUTER_BOUND ( 'NONE', #444, .T. ) ;
#208 = CLOSED_SHELL ( 'NONE', ( #138, #139, #140, #141, #142, #143, #144, #145, #146, #147, #148, #149, #150, #151, #152, #132, #133, #134, #135, #136, #153, #154 ) ) ;
#209 = CYLINDRICAL_SURFACE ( 'NONE', #210, 7.750000000000933500 ) ;
#210 = AXIS2_PLACEMENT_3D ( 'NONE', #429, #428, #427 ) ;
#211 = AXIS2_PLACEMENT_3D ( 'NONE', #432, #431, #430 ) ;
#212 = FACE_OUTER_BOUND ( 'NONE', #595, .T. ) ;
#213 = AXIS2_PLACEMENT_3D ( 'NONE', #435, #434, #433 ) ;
#214 = FACE_OUTER_BOUND ( 'NONE', #594, .T. ) ;
#215 = AXIS2_PLACEMENT_3D ( 'NONE', #438, #437, #436 ) ;
#216 = FACE_OUTER_BOUND ( 'NONE', #593, .T. ) ;
#217 = CYLINDRICAL_SURFACE ( 'NONE', #218, 5.999999999999415600 ) ;
#218 = AXIS2_PLACEMENT_3D ( 'NONE', #567, #566, #439 ) ;
#219 = FACE_OUTER_BOUND ( 'NONE', #455, .T. ) ;
#220 = FACE_OUTER_BOUND ( 'NONE', #591, .T. ) ;
#221 = VECTOR ( 'NONE', #571, 1000.000000000000300 ) ;
#222 = AXIS2_PLACEMENT_3D ( 'NONE', #589, #588, #587 ) ;
#223 = FACE_BOUND ( 'NONE', #452, .T. ) ;
#224 = AXIS2_PLACEMENT_3D ( 'NONE', #570, #569, #568 ) ;
#225 = FACE_OUTER_BOUND ( 'NONE', #592, .T. ) ;
#226 = CYLINDRICAL_SURFACE ( 'NONE', #227, 5.999999999999415600 ) ;
#227 = AXIS2_PLACEMENT_3D ( 'NONE', #576, #575, #574 ) ;
#228 = AXIS2_PLACEMENT_3D ( 'NONE', #579, #578, #577 ) ;
#229 = FACE_OUTER_BOUND ( 'NONE', #596, .T. ) ;
#230 = AXIS2_PLACEMENT_3D ( 'NONE', #582, #581, #580 ) ;
#231 = AXIS2_PLACEMENT_3D ( 'NONE', #585, #584, #583 ) ;
#232 = FACE_OUTER_BOUND ( 'NONE', #462, .T. ) ;
#233 = FACE_OUTER_BOUND ( 'NONE', #454, .T. ) ;
#234 = FACE_OUTER_BOUND ( 'NONE', #453, .T. ) ;
#235 = FACE_OUTER_BOUND ( 'NONE', #456, .T. ) ;
#236 = DIRECTION ( 'NONE',  ( -1.000000000000000000, -2.265377428129336200E-014, 0.0000000000000000000 ) ) ;
#237 = CARTESIAN_POINT ( 'NONE',  ( -9.061509712516885000E-013, 39.99999999999797500, 0.0000000000000000000 ) ) ;
#238 = DIRECTION ( 'NONE',  ( 2.265377428129336200E-014, -1.000000000000000000, -0.0000000000000000000 ) ) ;
#239 = DIRECTION ( 'NONE',  ( 1.000000000000000000, 2.273556325002013000E-014, 0.0000000000000000000 ) ) ;
#240 = CARTESIAN_POINT ( 'NONE',  ( -9.034325183379315300E-013, 39.87999999999789900, 0.0000000000000000000 ) ) ;
#241 = DIRECTION ( 'NONE',  ( 2.265377428129336200E-014, -1.000000000000000000, -0.0000000000000000000 ) ) ;
#242 = DIRECTION ( 'NONE',  ( 1.000000000000000000, 2.238352872227788700E-014, 0.0000000000000000000 ) ) ;
#243 = CARTESIAN_POINT ( 'NONE',  ( -1.925570813909869500E-012, 84.99999999999708700, 0.0000000000000000000 ) ) ;
#244 = LINE ( 'NONE', #245, #86 ) ;
#245 = CARTESIAN_POINT ( 'NONE',  ( 7.750000000000306400, 39.87999999999807000, 0.0000000000000000000 ) ) ;
#246 = DIRECTION ( 'NONE',  ( 0.7071067811863820400, -0.7071067811867130000, 0.0000000000000000000 ) ) ;
#247 = DIRECTION ( 'NONE',  ( 2.265377428129336200E-014, -1.000000000000000000, -0.0000000000000000000 ) ) ;
#248 = DIRECTION ( 'NONE',  ( 1.000000000000000000, 2.191229653865461200E-014, 0.0000000000000000000 ) ) ;
#249 = CARTESIAN_POINT ( 'NONE',  ( -1.918774681625481000E-012, 84.69999999999707500, 0.0000000000000000000 ) ) ;
#250 = DIRECTION ( 'NONE',  ( 2.265377428129336200E-014, -1.000000000000000000, -0.0000000000000000000 ) ) ;
#251 = DIRECTION ( 'NONE',  ( 1.000000000000000000, 2.312964634635783900E-014, 0.0000000000000000000 ) ) ;
#252 = CARTESIAN_POINT ( 'NONE',  ( -9.014424726870797800E-013, 39.79215390308967000, 0.0000000000000000000 ) ) ;
#253 = DIRECTION ( 'NONE',  ( 2.265377428129336200E-014, -1.000000000000000000, -0.0000000000000000000 ) ) ;
#254 = DIRECTION ( 'NONE',  ( 1.000000000000000000, 2.291144213554674700E-014, 0.0000000000000000000 ) ) ;
#255 = CARTESIAN_POINT ( 'NONE',  ( -9.061509712516871800E-013, 39.99999999999791800, 0.0000000000000000000 ) ) ;
#256 = DIRECTION ( 'NONE',  ( 2.265377428129336200E-014, -1.000000000000000000, -0.0000000000000000000 ) ) ;
#257 = DIRECTION ( 'NONE',  ( 1.000000000000000000, 2.271661694731882800E-014, 0.0000000000000000000 ) ) ;
#258 = CARTESIAN_POINT ( 'NONE',  ( -9.061509712516885000E-013, 39.99999999999797500, 0.0000000000000000000 ) ) ;
#259 = DIRECTION ( 'NONE',  ( 2.265377428129336200E-014, -1.000000000000000000, -0.0000000000000000000 ) ) ;
#260 = DIRECTION ( 'NONE',  ( 1.000000000000000000, 2.273556325002013000E-014, 0.0000000000000000000 ) ) ;
#261 = CARTESIAN_POINT ( 'NONE',  ( -9.034325183379315300E-013, 39.87999999999789900, 0.0000000000000000000 ) ) ;
#262 = DIRECTION ( 'NONE',  ( 2.265377428129336200E-014, -1.000000000000000000, -0.0000000000000000000 ) ) ;
#263 = DIRECTION ( 'NONE',  ( 1.000000000000000000, 2.238352872227788700E-014, 0.0000000000000000000 ) ) ;
#264 = CARTESIAN_POINT ( 'NONE',  ( -3.656914634459536500E-013, 16.14262854856500000, 0.0000000000000000000 ) ) ;
#265 = DIRECTION ( 'NONE',  ( 2.265377428129336200E-014, -1.000000000000000000, -0.0000000000000000000 ) ) ;
#266 = DIRECTION ( 'NONE',  ( 1.000000000000000000, 2.283119929672507300E-014, 0.0000000000000000000 ) ) ;
#267 = CARTESIAN_POINT ( 'NONE',  ( -2.750944911528700300E-013, 12.14342862858102000, 0.0000000000000000000 ) ) ;
#268 = DIRECTION ( 'NONE',  ( 2.265377428129336200E-014, -1.000000000000000000, -0.0000000000000000000 ) ) ;
#269 = DIRECTION ( 'NONE',  ( 1.000000000000000000, 2.255140518769331700E-014, 0.0000000000000000000 ) ) ;
#270 = CARTESIAN_POINT ( 'NONE',  ( -1.244331117655800500E-013, 5.492820323028132300, 0.0000000000000000000 ) ) ;
#271 = DIRECTION ( 'NONE',  ( 2.265377428129336200E-014, -1.000000000000000000, -0.0000000000000000000 ) ) ;
#272 = DIRECTION ( 'NONE',  ( 1.000000000000000000, 2.269596547736028300E-014, 0.0000000000000000000 ) ) ;
#273 = CARTESIAN_POINT ( 'NONE',  ( -1.569499521536639900E-014, 0.6928203230278894300, 0.0000000000000000000 ) ) ;
#274 = DIRECTION ( 'NONE',  ( 2.265377428129336200E-014, -1.000000000000000000, -0.0000000000000000000 ) ) ;
#275 = DIRECTION ( 'NONE',  ( 1.000000000000000000, 2.267789544114807100E-014, 0.0000000000000000000 ) ) ;
#276 = CARTESIAN_POINT ( 'NONE',  ( -1.569499521536639900E-014, 0.6928203230278894300, 0.0000000000000000000 ) ) ;
#277 = LINE ( 'NONE', #278, #75 ) ;
#278 = CARTESIAN_POINT ( 'NONE',  ( 0.0000000000000000000, 7.105427357601001900E-015, 0.0000000000000000000 ) ) ;
#279 = DIRECTION ( 'NONE',  ( -0.8660254037844139500, 0.5000000000000430800, 0.0000000000000000000 ) ) ;
#280 = LINE ( 'NONE', #281, #73 ) ;
#281 = CARTESIAN_POINT ( 'NONE',  ( 0.0000000000000000000, 7.105427357601001900E-015, 0.0000000000000000000 ) ) ;
#282 = DIRECTION ( 'NONE',  ( 0.8660254037843911900, 0.5000000000000822700, 1.060575238724862700E-016 ) ) ;
#283 = LINE ( 'NONE', #284, #71 ) ;
#284 = CARTESIAN_POINT ( 'NONE',  ( -1.200000000000389400, 0.6928203230278622300, 0.0000000000000000000 ) ) ;
#285 = DIRECTION ( 'NONE',  ( -0.7071067811865754400, 0.7071067811865197100, 0.0000000000000000000 ) ) ;
#286 = DIRECTION ( 'NONE',  ( 2.265377428129336200E-014, -1.000000000000000000, -0.0000000000000000000 ) ) ;
#287 = DIRECTION ( 'NONE',  ( 1.000000000000000000, 2.267789544114807100E-014, 0.0000000000000000000 ) ) ;
#288 = CARTESIAN_POINT ( 'NONE',  ( -1.244331117655800500E-013, 5.492820323028132300, 0.0000000000000000000 ) ) ;
#289 = LINE ( 'NONE', #290, #69 ) ;
#290 = CARTESIAN_POINT ( 'NONE',  ( 1.200000000000358100, 0.6928203230279166300, 1.469576158977281600E-016 ) ) ;
#291 = DIRECTION ( 'NONE',  ( 0.7071067811865435800, 0.7071067811865515700, 8.659560562355080800E-017 ) ) ;
#292 = LINE ( 'NONE', #293, #67 ) ;
#293 = CARTESIAN_POINT ( 'NONE',  ( 6.000000000001077400, 1.430280730453855600E-013, 0.0000000000000000000 ) ) ;
#294 = DIRECTION ( 'NONE',  ( 2.265377428129336200E-014, -1.000000000000000000, -0.0000000000000000000 ) ) ;
#295 = DIRECTION ( 'NONE',  ( 2.265377428129336200E-014, -1.000000000000000000, -0.0000000000000000000 ) ) ;
#296 = DIRECTION ( 'NONE',  ( 1.000000000000000000, 2.269596547736028300E-014, 0.0000000000000000000 ) ) ;
#297 = CARTESIAN_POINT ( 'NONE',  ( -1.925570813909869500E-012, 84.99999999999708700, 0.0000000000000000000 ) ) ;
#298 = LINE ( 'NONE', #299, #66 ) ;
#299 = CARTESIAN_POINT ( 'NONE',  ( -6.000000000001077400, -1.288172183301835600E-013, 7.347880794885438100E-016 ) ) ;
#300 = DIRECTION ( 'NONE',  ( 2.265377428129336200E-014, -1.000000000000000000, -0.0000000000000000000 ) ) ;
#301 = LINE ( 'NONE', #302, #63 ) ;
#302 = CARTESIAN_POINT ( 'NONE',  ( -5.999999999999415600, -1.288172183301459200E-013, 7.347880794883403800E-016 ) ) ;
#303 = DIRECTION ( 'NONE',  ( 2.265377428129336200E-014, -1.000000000000000000, -0.0000000000000000000 ) ) ;
#304 = DIRECTION ( 'NONE',  ( 2.265377428129336200E-014, -1.000000000000000000, -0.0000000000000000000 ) ) ;
#305 = DIRECTION ( 'NONE',  ( 1.000000000000000000, 2.191229653865461200E-014, 0.0000000000000000000 ) ) ;
#306 = CARTESIAN_POINT ( 'NONE',  ( 6.239999999998032000, 39.99999999999811000, 0.0000000000000000000 ) ) ;
#307 = DIRECTION ( 'NONE',  ( 0.0000000000000000000, 0.0000000000000000000, -1.000000000000000000 ) ) ;
#308 = DIRECTION ( 'NONE',  ( -1.000000000000000000, 0.0000000000000000000, 0.0000000000000000000 ) ) ;
#309 = CARTESIAN_POINT ( 'NONE',  ( -1.918774681625481000E-012, 84.69999999999707500, 0.0000000000000000000 ) ) ;
#310 = LINE ( 'NONE', #311, #59 ) ;
#311 = CARTESIAN_POINT ( 'NONE',  ( 6.719999999998059100, 39.99999999999807400, 8.229626490268947000E-016 ) ) ;
#312 = DIRECTION ( 'NONE',  ( 0.8660254037844908900, 0.4999999999999095200, 1.060575238724984700E-016 ) ) ;
#313 = DIRECTION ( 'NONE',  ( 2.265377428129336200E-014, -1.000000000000000000, -0.0000000000000000000 ) ) ;
#314 = DIRECTION ( 'NONE',  ( 1.000000000000000000, 2.312964634635783900E-014, 0.0000000000000000000 ) ) ;
#315 = CARTESIAN_POINT ( 'NONE',  ( -9.061509712516871800E-013, 39.99999999999791800, 0.0000000000000000000 ) ) ;
#316 = LINE ( 'NONE', #317, #56 ) ;
#317 = CARTESIAN_POINT ( 'NONE',  ( -6.719999999999871900, 39.99999999999776900, 0.0000000000000000000 ) ) ;
#318 = DIRECTION ( 'NONE',  ( -0.8660254037845135400, 0.4999999999998703300, 0.0000000000000000000 ) ) ;
#319 = DIRECTION ( 'NONE',  ( 2.265377428129336200E-014, -1.000000000000000000, -0.0000000000000000000 ) ) ;
#320 = DIRECTION ( 'NONE',  ( 1.000000000000000000, 2.271661694731882800E-014, 0.0000000000000000000 ) ) ;
#321 = CARTESIAN_POINT ( 'NONE',  ( -9.061509712516874900E-013, 39.99999999999793200, 0.0000000000000000000 ) ) ;
#322 = LINE ( 'NONE', #323, #54 ) ;
#323 = CARTESIAN_POINT ( 'NONE',  ( -6.000000000001811900, 84.69999999999693300, 7.347880794883988600E-016 ) ) ;
#324 = DIRECTION ( 'NONE',  ( -0.7071067811864425500, -0.7071067811866526000, 8.659560562353844500E-017 ) ) ;
#325 = LINE ( 'NONE', #326, #53 ) ;
#326 = CARTESIAN_POINT ( 'NONE',  ( -7.750000000002113900, 39.87999999999772200, 9.491012693393468900E-016 ) ) ;
#327 = DIRECTION ( 'NONE',  ( -0.7071067811863500600, -0.7071067811867449700, 8.659560562352710500E-017 ) ) ;
#328 = LINE ( 'NONE', #329, #51 ) ;
#329 = CARTESIAN_POINT ( 'NONE',  ( 5.999999999997975000, 84.69999999999720300, 0.0000000000000000000 ) ) ;
#330 = DIRECTION ( 'NONE',  ( 0.7071067811864745200, -0.7071067811866205100, 0.0000000000000000000 ) ) ;
#331 = DIRECTION ( 'NONE',  ( 2.265377428129336200E-014, -1.000000000000000000, -0.0000000000000000000 ) ) ;
#332 = DIRECTION ( 'NONE',  ( 1.000000000000000000, 2.312964634636151800E-014, 0.0000000000000000000 ) ) ;
#333 = CARTESIAN_POINT ( 'NONE',  ( -9.014424726870797800E-013, 39.79215390308967000, 0.0000000000000000000 ) ) ;
#334 = DIRECTION ( 'NONE',  ( 2.265377428129336200E-014, -1.000000000000000000, -0.0000000000000000000 ) ) ;
#335 = DIRECTION ( 'NONE',  ( 1.000000000000000000, 2.291144213554674700E-014, 0.0000000000000000000 ) ) ;
#336 = CARTESIAN_POINT ( 'NONE',  ( -9.061509712516874900E-013, 39.99999999999793200, 0.0000000000000000000 ) ) ;
#337 = DIRECTION ( 'NONE',  ( 2.265377428129336200E-014, -1.000000000000000000, -0.0000000000000000000 ) ) ;
#338 = DIRECTION ( 'NONE',  ( 1.000000000000000000, 2.312964634636151800E-014, 0.0000000000000000000 ) ) ;
#339 = CARTESIAN_POINT ( 'NONE',  ( -6.239999999999844800, 39.99999999999782600, 7.641796026678183200E-016 ) ) ;
#340 = DIRECTION ( 'NONE',  ( 1.224646799147353200E-016, 2.774287216219254600E-030, 1.000000000000000000 ) ) ;
#341 = DIRECTION ( 'NONE',  ( 1.000000000000000000, 0.0000000000000000000, -1.224646799147352000E-016 ) ) ;
#342 = CARTESIAN_POINT ( 'NONE',  ( -3.656914634459536500E-013, 16.14262854856500000, 0.0000000000000000000 ) ) ;
#343 = LINE ( 'NONE', #344, #47 ) ;
#344 = CARTESIAN_POINT ( 'NONE',  ( 5.999999999999415600, 1.430280730453479300E-013, 0.0000000000000000000 ) ) ;
#345 = DIRECTION ( 'NONE',  ( 2.265377428129336200E-014, -1.000000000000000000, -0.0000000000000000000 ) ) ;
#346 = LINE ( 'NONE', #347, #46 ) ;
#347 = CARTESIAN_POINT ( 'NONE',  ( -7.750000000000933500, -1.684613233224436900E-013, 9.491012693393129700E-016 ) ) ;
#348 = DIRECTION ( 'NONE',  ( 2.265377428129336200E-014, -1.000000000000000000, -0.0000000000000000000 ) ) ;
#349 = DIRECTION ( 'NONE',  ( 2.265377428129336200E-014, -1.000000000000000000, -0.0000000000000000000 ) ) ;
#350 = DIRECTION ( 'NONE',  ( 1.000000000000000000, 2.283119929672507300E-014, 0.0000000000000000000 ) ) ;
#351 = CARTESIAN_POINT ( 'NONE',  ( -2.750944911528700300E-013, 12.14342862858102000, 0.0000000000000000000 ) ) ;
#352 = LINE ( 'NONE', #353, #40 ) ;
#353 = CARTESIAN_POINT ( 'NONE',  ( 7.750000000000933500, 1.826721780376457000E-013, 0.0000000000000000000 ) ) ;
#354 = DIRECTION ( 'NONE',  ( 2.265377428129336200E-014, -1.000000000000000000, -0.0000000000000000000 ) ) ;
#355 = LINE ( 'NONE', #356, #37 ) ;
#356 = CARTESIAN_POINT ( 'NONE',  ( 6.000000000001101300, 12.14342862858115500, 7.347880794885805900E-016 ) ) ;
#357 = DIRECTION ( 'NONE',  ( 0.4008861359645853900, 0.9161278873560088100, 4.909439232316055600E-017 ) ) ;
#358 = DIRECTION ( 'NONE',  ( 2.265377428129336200E-014, -1.000000000000000000, -0.0000000000000000000 ) ) ;
#359 = DIRECTION ( 'NONE',  ( 1.000000000000000000, 2.255140518769331700E-014, 0.0000000000000000000 ) ) ;
#360 = CARTESIAN_POINT ( 'NONE',  ( 5.999999999997975000, 84.69999999999720300, 0.0000000000000000000 ) ) ;
#361 = FILL_AREA_STYLE_COLOUR ( '', #93 ) ;
#362 = FILL_AREA_STYLE ('',( #361 ) ) ;
#363 = SURFACE_STYLE_FILL_AREA ( #362 ) ;
#364 = SURFACE_SIDE_STYLE ('',( #363 ) ) ;
#365 = SURFACE_STYLE_USAGE ( .BOTH. , #364 ) ;
#366 = PRESENTATION_STYLE_ASSIGNMENT (( #365 ) ) ;
#367 =( LENGTH_UNIT ( ) NAMED_UNIT ( * ) SI_UNIT ( .MILLI., .METRE. ) );
#368 =( NAMED_UNIT ( * ) PLANE_ANGLE_UNIT ( ) SI_UNIT ( $, .RADIAN. ) );
#369 =( NAMED_UNIT ( * ) SI_UNIT ( $, .STERADIAN. ) SOLID_ANGLE_UNIT ( ) );
#370 = CARTESIAN_POINT ( 'NONE',  ( -6.000000000001811900, 84.69999999999693300, 7.347880794884609800E-016 ) ) ;
#371 = CARTESIAN_POINT ( 'NONE',  ( 0.0000000000000000000, 7.105427357601001900E-015, 0.0000000000000000000 ) ) ;
#372 = CARTESIAN_POINT ( 'NONE',  ( -1.200000000000389400, 0.6928203230278622300, 0.0000000000000000000 ) ) ;
#373 = CARTESIAN_POINT ( 'NONE',  ( 1.200000000000357900, 0.6928203230279166300, 1.469576158977281300E-016 ) ) ;
#374 = CARTESIAN_POINT ( 'NONE',  ( 6.000000000000655500, 5.492820323028268200, 7.347880794885073300E-016 ) ) ;
#375 = CARTESIAN_POINT ( 'NONE',  ( -6.000000000000903300, 5.492820323027997300, 0.0000000000000000000 ) ) ;
#376 = CARTESIAN_POINT ( 'NONE',  ( -6.000000000001652000, 12.14342862858088500, 7.347880794885896600E-016 ) ) ;
#377 = CARTESIAN_POINT ( 'NONE',  ( 6.000000000001101300, 12.14342862858115500, 0.0000000000000000000 ) ) ;
#378 = CARTESIAN_POINT ( 'NONE',  ( 7.750000000000292200, 16.14262854856517700, 9.491012693392792400E-016 ) ) ;
#379 = CARTESIAN_POINT ( 'NONE',  ( -7.750000000001022300, 16.14262854856482600, 0.0000000000000000000 ) ) ;
#380 = CARTESIAN_POINT ( 'NONE',  ( 7.750000000000306400, 39.87999999999807000, 0.0000000000000000000 ) ) ;
#381 = CARTESIAN_POINT ( 'NONE',  ( -7.750000000002113900, 39.87999999999772200, 9.491012693393798200E-016 ) ) ;
#382 = CARTESIAN_POINT ( 'NONE',  ( -7.630000000002100400, 39.99999999999780400, 9.417533885444620400E-016 ) ) ;
#383 = CARTESIAN_POINT ( 'NONE',  ( 7.630000000000286800, 39.99999999999814500, 0.0000000000000000000 ) ) ;
#384 = CARTESIAN_POINT ( 'NONE',  ( -6.719999999999872700, 39.99999999999776900, 0.0000000000000000000 ) ) ;
#385 = CARTESIAN_POINT ( 'NONE',  ( 6.719999999998058200, 39.99999999999807400, 8.229626490268946000E-016 ) ) ;
#386 = CARTESIAN_POINT ( 'NONE',  ( 6.359999999997985000, 39.79215390308981200, 8.009190066422375100E-016 ) ) ;
#387 = CARTESIAN_POINT ( 'NONE',  ( -6.359999999999788000, 39.79215390308952000, 0.0000000000000000000 ) ) ;
#388 = CARTESIAN_POINT ( 'NONE',  ( 5.999999999998031800, 39.99999999999807400, 0.0000000000000000000 ) ) ;
#389 = CARTESIAN_POINT ( 'NONE',  ( -5.999999999999844600, 39.99999999999779700, 7.568317218729310100E-016 ) ) ;
#390 = CARTESIAN_POINT ( 'NONE',  ( 5.699999999998021300, 84.99999999999721500, 0.0000000000000000000 ) ) ;
#391 = CARTESIAN_POINT ( 'NONE',  ( -5.700000000001871600, 84.99999999999697300, 7.164183775011920800E-016 ) ) ;
#392 =( LENGTH_UNIT ( ) NAMED_UNIT ( * ) SI_UNIT ( .MILLI., .METRE. ) );
#393 =( NAMED_UNIT ( * ) PLANE_ANGLE_UNIT ( ) SI_UNIT ( $, .RADIAN. ) );
#394 =( NAMED_UNIT ( * ) SI_UNIT ( $, .STERADIAN. ) SOLID_ANGLE_UNIT ( ) );
#395 = APPLICATION_PROTOCOL_DEFINITION ( 'draft international standard', 'automotive_design', 1998, #196 ) ;
#396 = FILL_AREA_STYLE_COLOUR ( '', #94 ) ;
#397 = FILL_AREA_STYLE ('',( #396 ) ) ;
#398 = SURFACE_STYLE_FILL_AREA ( #397 ) ;
#399 = SURFACE_SIDE_STYLE ('',( #398 ) ) ;
#400 = SURFACE_STYLE_USAGE ( .BOTH. , #399 ) ;
#401 = PRESENTATION_STYLE_ASSIGNMENT (( #400 ) ) ;
#402 =( LENGTH_UNIT ( ) NAMED_UNIT ( * ) SI_UNIT ( .MILLI., .METRE. ) );
#403 =( NAMED_UNIT ( * ) PLANE_ANGLE_UNIT ( ) SI_UNIT ( $, .RADIAN. ) );
#404 =( NAMED_UNIT ( * ) SI_UNIT ( $, .STERADIAN. ) SOLID_ANGLE_UNIT ( ) );
#405 = CARTESIAN_POINT ( 'NONE',  ( 0.0000000000000000000, 0.0000000000000000000, 0.0000000000000000000 ) ) ;
#406 = DIRECTION ( 'NONE',  ( 0.0000000000000000000, 0.0000000000000000000, 1.000000000000000000 ) ) ;
#407 = DIRECTION ( 'NONE',  ( 1.000000000000000000, 0.0000000000000000000, 0.0000000000000000000 ) ) ;
#408 = SHAPE_DEFINITION_REPRESENTATION ( #441, #200 ) ;
#409 = PRODUCT_CONTEXT ( 'NONE', #196, 'mechanical' ) ;
#410 = APPLICATION_PROTOCOL_DEFINITION ( 'draft international standard', 'automotive_design', 1998, #197 ) ;
#411 = PRODUCT ( '99688-SI12-12+S9MT1203-090', '99688-SI12-12+S9MT1203-090', '', ( #409 ) ) ;
#412 = PLANE ( 'NONE',  #34 ) ;
#413 = DIRECTION ( 'NONE',  ( -2.265377428129336200E-014, 1.000000000000000000, 0.0000000000000000000 ) ) ;
#414 = CARTESIAN_POINT ( 'NONE',  ( -2.265377428129336100E-011, 1000.000000000000000, 0.0000000000000000000 ) ) ;
#415 = DIRECTION ( 'NONE',  ( -1.000000000000000000, -2.262686094311704600E-014, 0.0000000000000000000 ) ) ;
#416 = DIRECTION ( 'NONE',  ( -2.265377428129336200E-014, 1.000000000000000000, 0.0000000000000000000 ) ) ;
#417 = CARTESIAN_POINT ( 'NONE',  ( -2.265377428129336100E-011, 1000.000000000000000, 0.0000000000000000000 ) ) ;
#418 = DIRECTION ( 'NONE',  ( -1.000000000000000000, -2.267789544114807100E-014, 0.0000000000000000000 ) ) ;
#419 = DIRECTION ( 'NONE',  ( -2.265377428129336200E-014, 1.000000000000000000, 0.0000000000000000000 ) ) ;
#420 = CARTESIAN_POINT ( 'NONE',  ( -1.569499521536639900E-014, 0.6928203230278894300, 0.0000000000000000000 ) ) ;
#421 = DIRECTION ( 'NONE',  ( 1.000000000000000000, 2.265377428129335800E-014, 0.0000000000000000000 ) ) ;
#422 = DIRECTION ( 'NONE',  ( 2.265377428129336200E-014, -1.000000000000000000, -0.0000000000000000000 ) ) ;
#423 = CARTESIAN_POINT ( 'NONE',  ( 0.0000000000000000000, 7.105427357601001900E-015, 0.0000000000000000000 ) ) ;
#424 = DIRECTION ( 'NONE',  ( -1.000000000000000000, -2.255140518769331700E-014, 0.0000000000000000000 ) ) ;
#425 = DIRECTION ( 'NONE',  ( -2.265377428129336200E-014, 1.000000000000000000, 0.0000000000000000000 ) ) ;
#426 = CARTESIAN_POINT ( 'NONE',  ( -2.750944911528700300E-013, 12.14342862858102000, 0.0000000000000000000 ) ) ;
#427 = DIRECTION ( 'NONE',  ( 1.000000000000000000, 2.265377428129336200E-014, 0.0000000000000000000 ) ) ;
#428 = DIRECTION ( 'NONE',  ( 2.265377428129336200E-014, -1.000000000000000000, -0.0000000000000000000 ) ) ;
#429 = CARTESIAN_POINT ( 'NONE',  ( 0.0000000000000000000, 7.105427357601001900E-015, 0.0000000000000000000 ) ) ;
#430 = DIRECTION ( 'NONE',  ( 1.000000000000000000, 2.238352872227788700E-014, 0.0000000000000000000 ) ) ;
#431 = DIRECTION ( 'NONE',  ( 2.265377428129336200E-014, -1.000000000000000000, -0.0000000000000000000 ) ) ;
#432 = CARTESIAN_POINT ( 'NONE',  ( -9.034325183379315300E-013, 39.87999999999789900, 0.0000000000000000000 ) ) ;
#433 = DIRECTION ( 'NONE',  ( -1.000000000000000000, -2.271661694731882800E-014, 0.0000000000000000000 ) ) ;
#434 = DIRECTION ( 'NONE',  ( -2.265377428129336200E-014, 1.000000000000000000, 0.0000000000000000000 ) ) ;
#435 = CARTESIAN_POINT ( 'NONE',  ( -9.061509712516871800E-013, 39.99999999999791800, 0.0000000000000000000 ) ) ;
#436 = DIRECTION ( 'NONE',  ( 1.000000000000000000, 2.265377428129336200E-014, 0.0000000000000000000 ) ) ;
#437 = DIRECTION ( 'NONE',  ( 2.265377428129336200E-014, -1.000000000000000000, -0.0000000000000000000 ) ) ;
#438 = CARTESIAN_POINT ( 'NONE',  ( -9.063930161978817100E-013, 39.99999999999796800, 0.0000000000000000000 ) ) ;
#439 = DIRECTION ( 'NONE',  ( 1.000000000000000000, 2.265377428129336200E-014, 0.0000000000000000000 ) ) ;
#440 = PRODUCT_DEFINITION_CONTEXT ( 'detailed design', #197, 'design' ) ;
#441 = PRODUCT_DEFINITION_SHAPE ( 'NONE', 'NONE',  #92 ) ;
#442 = MANIFOLD_SOLID_BREP ( '±ÛÂà1', #208 ) ;
#443 = EDGE_LOOP ( 'NONE', ( #541, #540, #542, #539 ) ) ;
#444 = EDGE_LOOP ( 'NONE', ( #538, #536, #537, #535 ) ) ;
#445 = EDGE_LOOP ( 'NONE', ( #534, #532, #533 ) ) ;
#446 = EDGE_LOOP ( 'NONE', ( #531, #530, #529 ) ) ;
#447 = EDGE_LOOP ( 'NONE', ( #527, #526, #525, #528 ) ) ;
#448 = EDGE_LOOP ( 'NONE', ( #523, #522, #524, #520 ) ) ;
#449 = EDGE_LOOP ( 'NONE', ( #519, #518, #517, #521 ) ) ;
#450 = EDGE_LOOP ( 'NONE', ( #515, #514, #516, #512 ) ) ;
#451 = EDGE_LOOP ( 'NONE', ( #511, #510, #513, #508 ) ) ;
#452 = EDGE_LOOP ( 'NONE', ( #507, #506 ) ) ;
#453 = EDGE_LOOP ( 'NONE', ( #504, #505 ) ) ;
#454 = EDGE_LOOP ( 'NONE', ( #503, #502, #509, #500 ) ) ;
#455 = EDGE_LOOP ( 'NONE', ( #499, #498, #497, #501 ) ) ;
#456 = EDGE_LOOP ( 'NONE', ( #495, #494, #496, #492 ) ) ;
#457 = EDGE_LOOP ( 'NONE', ( #491, #490, #493, #489 ) ) ;
#458 = EDGE_LOOP ( 'NONE', ( #488, #487 ) ) ;
#459 = ORIENTED_EDGE ( 'NONE', *, *, #194, .T. ) ;
#460 = ORIENTED_EDGE ( 'NONE', *, *, #192, .T. ) ;
#461 = VERTEX_POINT ( 'NONE', #370 ) ;
#462 = EDGE_LOOP ( 'NONE', ( #549, #550, #554, #557 ) ) ;
#463 = VERTEX_POINT ( 'NONE', #360 ) ;
#464 = VERTEX_POINT ( 'NONE', #371 ) ;
#465 = VERTEX_POINT ( 'NONE', #372 ) ;
#466 = VERTEX_POINT ( 'NONE', #373 ) ;
#467 = VERTEX_POINT ( 'NONE', #374 ) ;
#468 = VERTEX_POINT ( 'NONE', #375 ) ;
#469 = VERTEX_POINT ( 'NONE', #376 ) ;
#470 = VERTEX_POINT ( 'NONE', #377 ) ;
#471 = VERTEX_POINT ( 'NONE', #378 ) ;
#472 = VERTEX_POINT ( 'NONE', #379 ) ;
#473 = VERTEX_POINT ( 'NONE', #380 ) ;
#474 = VERTEX_POINT ( 'NONE', #381 ) ;
#475 = VERTEX_POINT ( 'NONE', #382 ) ;
#476 = VERTEX_POINT ( 'NONE', #383 ) ;
#477 = VERTEX_POINT ( 'NONE', #384 ) ;
#478 = VERTEX_POINT ( 'NONE', #385 ) ;
#479 = VERTEX_POINT ( 'NONE', #386 ) ;
#480 = VERTEX_POINT ( 'NONE', #387 ) ;
#481 = VERTEX_POINT ( 'NONE', #388 ) ;
#482 = ORIENTED_EDGE ( 'NONE', *, *, #156, .F. ) ;
#483 = ORIENTED_EDGE ( 'NONE', *, *, #184, .T. ) ;
#484 = ORIENTED_EDGE ( 'NONE', *, *, #157, .F. ) ;
#485 = ORIENTED_EDGE ( 'NONE', *, *, #156, .T. ) ;
#486 = ORIENTED_EDGE ( 'NONE', *, *, #192, .F. ) ;
#487 = ORIENTED_EDGE ( 'NONE', *, *, #158, .F. ) ;
#488 = ORIENTED_EDGE ( 'NONE', *, *, #177, .F. ) ;
#489 = ORIENTED_EDGE ( 'NONE', *, *, #159, .F. ) ;
#490 = ORIENTED_EDGE ( 'NONE', *, *, #158, .T. ) ;
#491 = ORIENTED_EDGE ( 'NONE', *, *, #183, .F. ) ;
#492 = ORIENTED_EDGE ( 'NONE', *, *, #186, .F. ) ;
#493 = ORIENTED_EDGE ( 'NONE', *, *, #185, .T. ) ;
#494 = ORIENTED_EDGE ( 'NONE', *, *, #159, .T. ) ;
#495 = ORIENTED_EDGE ( 'NONE', *, *, #176, .F. ) ;
#496 = ORIENTED_EDGE ( 'NONE', *, *, #190, .T. ) ;
#497 = ORIENTED_EDGE ( 'NONE', *, *, #178, .T. ) ;
#498 = ORIENTED_EDGE ( 'NONE', *, *, #160, .F. ) ;
#499 = ORIENTED_EDGE ( 'NONE', *, *, #189, .F. ) ;
#500 = ORIENTED_EDGE ( 'NONE', *, *, #161, .F. ) ;
#501 = ORIENTED_EDGE ( 'NONE', *, *, #188, .T. ) ;
#502 = ORIENTED_EDGE ( 'NONE', *, *, #160, .T. ) ;
#503 = ORIENTED_EDGE ( 'NONE', *, *, #179, .F. ) ;
#504 = ORIENTED_EDGE ( 'NONE', *, *, #155, .F. ) ;
#505 = ORIENTED_EDGE ( 'NONE', *, *, #162, .F. ) ;
#506 = ORIENTED_EDGE ( 'NONE', *, *, #161, .T. ) ;
#507 = ORIENTED_EDGE ( 'NONE', *, *, #182, .T. ) ;
#508 = ORIENTED_EDGE ( 'NONE', *, *, #163, .F. ) ;
#509 = ORIENTED_EDGE ( 'NONE', *, *, #181, .T. ) ;
#510 = ORIENTED_EDGE ( 'NONE', *, *, #162, .T. ) ;
#511 = ORIENTED_EDGE ( 'NONE', *, *, #184, .F. ) ;
#512 = ORIENTED_EDGE ( 'NONE', *, *, #164, .F. ) ;
#513 = ORIENTED_EDGE ( 'NONE', *, *, #157, .T. ) ;
#514 = ORIENTED_EDGE ( 'NONE', *, *, #163, .T. ) ;
#515 = ORIENTED_EDGE ( 'NONE', *, *, #191, .F. ) ;
#516 = ORIENTED_EDGE ( 'NONE', *, *, #193, .T. ) ;
#517 = ORIENTED_EDGE ( 'NONE', *, *, #137, .T. ) ;
#518 = ORIENTED_EDGE ( 'NONE', *, *, #165, .F. ) ;
#519 = ORIENTED_EDGE ( 'NONE', *, *, #194, .F. ) ;
#520 = ORIENTED_EDGE ( 'NONE', *, *, #166, .F. ) ;
#521 = ORIENTED_EDGE ( 'NONE', *, *, #164, .T. ) ;
#522 = ORIENTED_EDGE ( 'NONE', *, *, #165, .T. ) ;
#523 = ORIENTED_EDGE ( 'NONE', *, *, #175, .F. ) ;
#524 = ORIENTED_EDGE ( 'NONE', *, *, #173, .T. ) ;
#525 = ORIENTED_EDGE ( 'NONE', *, *, #170, .T. ) ;
#526 = ORIENTED_EDGE ( 'NONE', *, *, #167, .F. ) ;
#527 = ORIENTED_EDGE ( 'NONE', *, *, #172, .F. ) ;
#528 = ORIENTED_EDGE ( 'NONE', *, *, #166, .T. ) ;
#529 = ORIENTED_EDGE ( 'NONE', *, *, #167, .T. ) ;
#530 = ORIENTED_EDGE ( 'NONE', *, *, #168, .T. ) ;
#531 = ORIENTED_EDGE ( 'NONE', *, *, #169, .F. ) ;
#532 = ORIENTED_EDGE ( 'NONE', *, *, #169, .T. ) ;
#533 = ORIENTED_EDGE ( 'NONE', *, *, #171, .T. ) ;
#534 = ORIENTED_EDGE ( 'NONE', *, *, #168, .F. ) ;
#535 = ORIENTED_EDGE ( 'NONE', *, *, #170, .F. ) ;
#536 = ORIENTED_EDGE ( 'NONE', *, *, #172, .T. ) ;
#537 = ORIENTED_EDGE ( 'NONE', *, *, #174, .T. ) ;
#538 = ORIENTED_EDGE ( 'NONE', *, *, #171, .F. ) ;
#539 = ORIENTED_EDGE ( 'NONE', *, *, #173, .F. ) ;
#540 = ORIENTED_EDGE ( 'NONE', *, *, #175, .T. ) ;
#541 = ORIENTED_EDGE ( 'NONE', *, *, #195, .T. ) ;
#542 = ORIENTED_EDGE ( 'NONE', *, *, #174, .F. ) ;
#543 = VERTEX_POINT ( 'NONE', #389 ) ;
#544 = ORIENTED_EDGE ( 'NONE', *, *, #188, .F. ) ;
#545 = ORIENTED_EDGE ( 'NONE', *, *, #181, .F. ) ;
#546 = ORIENTED_EDGE ( 'NONE', *, *, #182, .F. ) ;
#547 = ORIENTED_EDGE ( 'NONE', *, *, #180, .T. ) ;
#548 = ORIENTED_EDGE ( 'NONE', *, *, #155, .T. ) ;
#549 = ORIENTED_EDGE ( 'NONE', *, *, #177, .T. ) ;
#550 = ORIENTED_EDGE ( 'NONE', *, *, #183, .T. ) ;
#551 = ORIENTED_EDGE ( 'NONE', *, *, #189, .T. ) ;
#552 = ORIENTED_EDGE ( 'NONE', *, *, #179, .T. ) ;
#553 = ORIENTED_EDGE ( 'NONE', *, *, #187, .T. ) ;
#554 = ORIENTED_EDGE ( 'NONE', *, *, #180, .F. ) ;
#555 = ORIENTED_EDGE ( 'NONE', *, *, #178, .F. ) ;
#556 = ORIENTED_EDGE ( 'NONE', *, *, #186, .T. ) ;
#557 = ORIENTED_EDGE ( 'NONE', *, *, #185, .F. ) ;
#558 = ORIENTED_EDGE ( 'NONE', *, *, #176, .T. ) ;
#559 = ORIENTED_EDGE ( 'NONE', *, *, #187, .F. ) ;
#560 = ORIENTED_EDGE ( 'NONE', *, *, #190, .F. ) ;
#561 = VERTEX_POINT ( 'NONE', #390 ) ;
#562 = VERTEX_POINT ( 'NONE', #391 ) ;
#563 = ORIENTED_EDGE ( 'NONE', *, *, #191, .T. ) ;
#564 = ORIENTED_EDGE ( 'NONE', *, *, #193, .F. ) ;
#565 = ORIENTED_EDGE ( 'NONE', *, *, #195, .F. ) ;
#566 = DIRECTION ( 'NONE',  ( 2.265377428129336200E-014, -1.000000000000000000, -0.0000000000000000000 ) ) ;
#567 = CARTESIAN_POINT ( 'NONE',  ( 0.0000000000000000000, 7.105427357601001900E-015, 0.0000000000000000000 ) ) ;
#568 = DIRECTION ( 'NONE',  ( 1.000000000000000000, 2.312964634635783900E-014, 0.0000000000000000000 ) ) ;
#569 = DIRECTION ( 'NONE',  ( 2.265377428129336200E-014, -1.000000000000000000, -0.0000000000000000000 ) ) ;
#570 = CARTESIAN_POINT ( 'NONE',  ( -1.918774681625481000E-012, 84.69999999999707500, 0.0000000000000000000 ) ) ;
#571 = DIRECTION ( 'NONE',  ( -0.4008861359646269100, 0.9161278873559906000, 0.0000000000000000000 ) ) ;
#572 = CARTESIAN_POINT ( 'NONE',  ( -6.000000000001652000, 12.14342862858088500, 0.0000000000000000000 ) ) ;
#573 = LINE ( 'NONE', #572, #221 ) ;
#574 = DIRECTION ( 'NONE',  ( 1.000000000000000000, 2.265377428129336200E-014, 0.0000000000000000000 ) ) ;
#575 = DIRECTION ( 'NONE',  ( 2.265377428129336200E-014, -1.000000000000000000, -0.0000000000000000000 ) ) ;
#576 = CARTESIAN_POINT ( 'NONE',  ( 0.0000000000000000000, 7.105427357601001900E-015, 0.0000000000000000000 ) ) ;
#577 = DIRECTION ( 'NONE',  ( 1.000000000000000000, 2.265377428129336200E-014, 0.0000000000000000000 ) ) ;
#578 = DIRECTION ( 'NONE',  ( 2.265377428129336200E-014, -1.000000000000000000, -0.0000000000000000000 ) ) ;
#579 = CARTESIAN_POINT ( 'NONE',  ( -9.063930161978817100E-013, 39.99999999999796800, 0.0000000000000000000 ) ) ;
#580 = DIRECTION ( 'NONE',  ( -1.000000000000000000, -2.271661694731882800E-014, 0.0000000000000000000 ) ) ;
#581 = DIRECTION ( 'NONE',  ( -2.265377428129336200E-014, 1.000000000000000000, 0.0000000000000000000 ) ) ;
#582 = CARTESIAN_POINT ( 'NONE',  ( -9.061509712516871800E-013, 39.99999999999791800, 0.0000000000000000000 ) ) ;
#583 = DIRECTION ( 'NONE',  ( -1.000000000000000000, -2.265377428129336200E-014, 0.0000000000000000000 ) ) ;
#584 = DIRECTION ( 'NONE',  ( -2.265377428129336200E-014, 1.000000000000000000, 0.0000000000000000000 ) ) ;
#585 = CARTESIAN_POINT ( 'NONE',  ( 6.719999999998059100, 39.99999999999810300, 0.0000000000000000000 ) ) ;
#586 = PLANE ( 'NONE',  #231 ) ;
#587 = DIRECTION ( 'NONE',  ( 1.000000000000000000, 2.238352872227788700E-014, 0.0000000000000000000 ) ) ;
#588 = DIRECTION ( 'NONE',  ( 2.265377428129336200E-014, -1.000000000000000000, -0.0000000000000000000 ) ) ;
#589 = CARTESIAN_POINT ( 'NONE',  ( -9.034325183379315300E-013, 39.87999999999789900, 0.0000000000000000000 ) ) ;
#590 = ORIENTED_EDGE ( 'NONE', *, *, #137, .F. ) ;
#591 = EDGE_LOOP ( 'NONE', ( #547, #558, #544, #560 ) ) ;
#592 = EDGE_LOOP ( 'NONE', ( #559, #551, #556, #555 ) ) ;
#593 = EDGE_LOOP ( 'NONE', ( #553, #552, #546, #545 ) ) ;
#594 = EDGE_LOOP ( 'NONE', ( #548, #483, #482, #484 ) ) ;
#595 = EDGE_LOOP ( 'NONE', ( #485, #563, #486, #564 ) ) ;
#596 = EDGE_LOOP ( 'NONE', ( #565, #459, #460, #590 ) ) ;
ENDSEC;
END-ISO-10303-21;
