ISO-10303-21;
HEADER;
FILE_DESCRIPTION (( 'STEP AP214' ),
    '1' );
FILE_NAME ('99688-SI10-10+S9MT1003-142.STEP',
    '2023-07-20T01:06:51',
    ( '' ),
    ( '' ),
    'SwSTEP 2.0',
    'SolidWorks 2020',
    '' );
FILE_SCHEMA (( 'AUTOMOTIVE_DESIGN' ));
ENDSEC;

DATA;
#1 = LINE ( 'NONE', #439, #560 ) ;
#2 = VERTEX_POINT ( 'NONE', #534 ) ;
#3 = AXIS2_PLACEMENT_3D ( 'NONE', #445, #227, #492 ) ;
#4 = STYLED_ITEM ( 'NONE', ( #229 ), #518 ) ;
#5 = CARTESIAN_POINT ( 'NONE',  ( 0.1999999999998330891, 33.99999999999682387, 0.000000000000000000 ) ) ;
#6 = DIRECTION ( 'NONE',  ( -4.993190545717234000E-15, 1.000000000000000000, -0.000000000000000000 ) ) ;
#7 = ORIENTED_EDGE ( 'NONE', *, *, #244, .F. ) ;
#8 = EDGE_CURVE ( 'NONE', #259, #462, #402, .T. ) ;
#9 = LINE ( 'NONE', #401, #408 ) ;
#10 = CARTESIAN_POINT ( 'NONE',  ( 5.199999999996883560, 73.79999999999691340, 6.123233995733354459E-16 ) ) ;
#11 = DIRECTION ( 'NONE',  ( -4.993190545717234000E-15, 1.000000000000000000, -0.000000000000000000 ) ) ;
#12 = DIRECTION ( 'NONE',  ( -1.224646799147353207E-16, -6.114894819345436244E-31, 1.000000000000000000 ) ) ;
#13 = DIRECTION ( 'NONE',  ( -4.993190545717234000E-15, 1.000000000000000000, -0.000000000000000000 ) ) ;
#14 = CARTESIAN_POINT ( 'NONE',  ( 0.1999999999999565736, 9.263932022493925444, 0.000000000000000000 ) ) ;
#15 = DIRECTION ( 'NONE',  ( -4.993190545717234000E-15, 1.000000000000000000, -0.000000000000000000 ) ) ;
#16 = CARTESIAN_POINT ( 'NONE',  ( 0.1999999999998335887, 33.89999999999685087, 0.000000000000000000 ) ) ;
#17 = EDGE_LOOP ( 'NONE', ( #374, #239, #211, #423 ) ) ;
#18 = AXIS2_PLACEMENT_3D ( 'NONE', #376, #513, #561 ) ;
#19 = AXIS2_PLACEMENT_3D ( 'NONE', #252, #159, #472 ) ;
#20 =( NAMED_UNIT ( * ) PLANE_ANGLE_UNIT ( ) SI_UNIT ( $, .RADIAN. ) );
#21 = DIRECTION ( 'NONE',  ( -1.000000000000000000, -5.337610695312547721E-15, 0.000000000000000000 ) ) ;
#22 = DIRECTION ( 'NONE',  ( -1.000000000000000000, -5.007873820179483964E-15, 0.000000000000000000 ) ) ;
#23 = CARTESIAN_POINT ( 'NONE',  ( -6.300000000001024780, 33.89999999999681535, 0.000000000000000000 ) ) ;
#24 = EDGE_CURVE ( 'NONE', #396, #25, #91, .T. ) ;
#25 = VERTEX_POINT ( 'NONE', #10 ) ;
#26 = DIRECTION ( 'NONE',  ( 4.993190545717234000E-15, -1.000000000000000000, 0.000000000000000000 ) ) ;
#27 = DIRECTION ( 'NONE',  ( -4.993190545717234000E-15, 1.000000000000000000, -0.000000000000000000 ) ) ;
#28 = TOROIDAL_SURFACE ( 'NONE', #348, 5.199999999997108269, 0.1999999999999971523 ) ;
#29 = ADVANCED_FACE ( 'NONE', ( #305 ), #99, .F. ) ;
#30 = DIRECTION ( 'NONE',  ( -0.9455185755992930874, 0.3255681544572257002, 0.000000000000000000 ) ) ;
#31 = ORIENTED_EDGE ( 'NONE', *, *, #47, .T. ) ;
#32 = VERTEX_POINT ( 'NONE', #92 ) ;
#33 = FACE_OUTER_BOUND ( 'NONE', #342, .T. ) ;
#34 = AXIS2_PLACEMENT_3D ( 'NONE', #331, #321, #413 ) ;
#35 = AXIS2_PLACEMENT_3D ( 'NONE', #220, #452, #214 ) ;
#36 = ORIENTED_EDGE ( 'NONE', *, *, #147, .F. ) ;
#37 = DIRECTION ( 'NONE',  ( -4.993190545717234000E-15, 1.000000000000000000, -0.000000000000000000 ) ) ;
#38 = ORIENTED_EDGE ( 'NONE', *, *, #71, .T. ) ;
#39 = FACE_OUTER_BOUND ( 'NONE', #188, .T. ) ;
#40 = VERTEX_POINT ( 'NONE', #134 ) ;
#41 = LINE ( 'NONE', #499, #199 ) ;
#42 = AXIS2_PLACEMENT_3D ( 'NONE', #14, #97, #138 ) ;
#43 = ORIENTED_EDGE ( 'NONE', *, *, #322, .T. ) ;
#44 = AXIS2_PLACEMENT_3D ( 'NONE', #111, #152, #549 ) ;
#45 = AXIS2_PLACEMENT_3D ( 'NONE', #5, #403, #178 ) ;
#46 = EDGE_CURVE ( 'NONE', #80, #434, #541, .T. ) ;
#47 = EDGE_CURVE ( 'NONE', #170, #182, #501, .T. ) ;
#48 = CARTESIAN_POINT ( 'NONE',  ( -4.799999999997544897, 73.99999999999690203, 0.000000000000000000 ) ) ;
#49 = ORIENTED_EDGE ( 'NONE', *, *, #90, .F. ) ;
#50 = DIRECTION ( 'NONE',  ( -4.993190545717234000E-15, 1.000000000000000000, -0.000000000000000000 ) ) ;
#51 = DIRECTION ( 'NONE',  ( -4.993190545717234000E-15, 1.000000000000000000, -0.000000000000000000 ) ) ;
#52 = FILL_AREA_STYLE_COLOUR ( '', #100 ) ;
#53 = DIRECTION ( 'NONE',  ( -1.000000000000000000, -5.236901059555496763E-15, 0.000000000000000000 ) ) ;
#54 = CONICAL_SURFACE ( 'NONE', #275, 2904.210877675086977, 1.239183768915895989 ) ;
#55 = DIRECTION ( 'NONE',  ( -4.993190545717234000E-15, 1.000000000000000000, -0.000000000000000000 ) ) ;
#56 = ORIENTED_EDGE ( 'NONE', *, *, #537, .T. ) ;
#57 = DIRECTION ( 'NONE',  ( -1.000000000000000000, -4.993190545717234000E-15, 0.000000000000000000 ) ) ;
#58 = FACE_OUTER_BOUND ( 'NONE', #478, .T. ) ;
#59 = VECTOR ( 'NONE', #70, 1000.000000000000000 ) ;
#60 = AXIS2_PLACEMENT_3D ( 'NONE', #441, #201, #295 ) ;
#61 = EDGE_CURVE ( 'NONE', #432, #205, #198, .T. ) ;
#62 = DIRECTION ( 'NONE',  ( -4.993190545717234000E-15, 1.000000000000000000, -0.000000000000000000 ) ) ;
#63 = AXIS2_PLACEMENT_3D ( 'NONE', #389, #476, #206 ) ;
#64 = ADVANCED_FACE ( 'NONE', ( #255 ), #397, .T. ) ;
#65 = DIRECTION ( 'NONE',  ( -1.000000000000000000, -4.270088556250072571E-15, 0.000000000000000000 ) ) ;
#66 = DIRECTION ( 'NONE',  ( -4.993190545717234000E-15, 1.000000000000000000, -0.000000000000000000 ) ) ;
#67 = DIRECTION ( 'NONE',  ( -4.993190545717234000E-15, 1.000000000000000000, -0.000000000000000000 ) ) ;
#68 = ORIENTED_EDGE ( 'NONE', *, *, #307, .T. ) ;
#69 = CARTESIAN_POINT ( 'NONE',  ( -6.300000000001172218, 73.99999999999690203, 0.000000000000000000 ) ) ;
#70 = DIRECTION ( 'NONE',  ( -4.993190545717234000E-15, 1.000000000000000000, -0.000000000000000000 ) ) ;
#71 = EDGE_CURVE ( 'NONE', #462, #438, #317, .T. ) ;
#72 = AXIS2_PLACEMENT_3D ( 'NONE', #179, #51, #264 ) ;
#73 = VECTOR ( 'NONE', #212, 999.9999999999998863 ) ;
#74 = DIRECTION ( 'NONE',  ( 4.993190545717234000E-15, -1.000000000000000000, 0.000000000000000000 ) ) ;
#75 = VECTOR ( 'NONE', #66, 1000.000000000000000 ) ;
#76 = CARTESIAN_POINT ( 'NONE',  ( -6.300000000001024780, 33.89999999999681535, 7.960204194458846634E-16 ) ) ;
#77 = ORIENTED_EDGE ( 'NONE', *, *, #145, .F. ) ;
#78 =( NAMED_UNIT ( * ) SI_UNIT ( $, .STERADIAN. ) SOLID_ANGLE_UNIT ( ) );
#79 = DIRECTION ( 'NONE',  ( -1.000000000000000000, -5.421010862426825606E-15, 0.000000000000000000 ) ) ;
#80 = VERTEX_POINT ( 'NONE', #315 ) ;
#81 = EDGE_CURVE ( 'NONE', #84, #40, #297, .T. ) ;
#82 = DIRECTION ( 'NONE',  ( -1.000000000000000000, -4.956352788507703597E-15, 0.000000000000000000 ) ) ;
#83 = CIRCLE ( 'NONE', #183, 6.500000000000752287 ) ;
#84 = VERTEX_POINT ( 'NONE', #266 ) ;
#85 =( GEOMETRIC_REPRESENTATION_CONTEXT ( 3 ) GLOBAL_UNCERTAINTY_ASSIGNED_CONTEXT ( ( #344 ) ) GLOBAL_UNIT_ASSIGNED_CONTEXT ( ( #139, #20, #196 ) ) REPRESENTATION_CONTEXT ( 'NONE', 'WORKASPACE' ) );
#86 = FACE_OUTER_BOUND ( 'NONE', #113, .T. ) ;
#87 = EDGE_LOOP ( 'NONE', ( #303, #353, #572, #386 ) ) ;
#88 = CYLINDRICAL_SURFACE ( 'NONE', #538, 6.500000000000805578 ) ;
#89 = ORIENTED_EDGE ( 'NONE', *, *, #184, .F. ) ;
#90 = EDGE_CURVE ( 'NONE', #182, #84, #308, .T. ) ;
#91 = CIRCLE ( 'NONE', #416, 4.999999999997248423 ) ;
#92 = CARTESIAN_POINT ( 'NONE',  ( 6.700000000000692069, 12.61803398874084436, 7.960204194458718444E-16 ) ) ;
#93 = TOROIDAL_SURFACE ( 'NONE', #19, 5.199999999997108269, 0.1999999999999971523 ) ;
#94 = DIRECTION ( 'NONE',  ( -1.000000000000000000, -5.236901059555496763E-15, 0.000000000000000000 ) ) ;
#95 = CARTESIAN_POINT ( 'NONE',  ( 0.2000000000000096423, 1.387778780781448989E-14, 8.293749548026036013E-31 ) ) ;
#96 = CARTESIAN_POINT ( 'NONE',  ( -6.300000000000812506, 12.61803398874077864, 0.000000000000000000 ) ) ;
#97 = DIRECTION ( 'NONE',  ( -4.993190545717234000E-15, 1.000000000000000000, -0.000000000000000000 ) ) ;
#98 = DIRECTION ( 'NONE',  ( -1.000000000000000000, -5.337610695312547721E-15, 0.000000000000000000 ) ) ;
#99 = CONICAL_SURFACE ( 'NONE', #3, 5.599999999997129940, 1.047197551196662024 ) ;
#100 = COLOUR_RGB ( '',0.7921568627450980005, 0.8196078431372548767, 0.9333333333333333481 ) ;
#101 =( LENGTH_UNIT ( ) NAMED_UNIT ( * ) SI_UNIT ( .MILLI., .METRE. ) );
#102 = SURFACE_STYLE_USAGE ( .BOTH. , #412 ) ;
#103 = VERTEX_POINT ( 'NONE', #471 ) ;
#104 = EDGE_CURVE ( 'NONE', #283, #301, #153, .T. ) ;
#105 = FACE_OUTER_BOUND ( 'NONE', #392, .T. ) ;
#106 = PRESENTATION_LAYER_ASSIGNMENT (  '', '', ( #357 ) ) ;
#107 = CARTESIAN_POINT ( 'NONE',  ( 6.700000000000692069, 33.89999999999688640, 0.000000000000000000 ) ) ;
#108 = VECTOR ( 'NONE', #460, 1000.000000000000000 ) ;
#109 =( NAMED_UNIT ( * ) SI_UNIT ( $, .STERADIAN. ) SOLID_ANGLE_UNIT ( ) );
#110 = ORIENTED_EDGE ( 'NONE', *, *, #398, .T. ) ;
#111 = CARTESIAN_POINT ( 'NONE',  ( 0.1999999999998335887, 33.89999999999685087, 0.000000000000000000 ) ) ;
#112 = SURFACE_STYLE_USAGE ( .BOTH. , #333 ) ;
#113 = EDGE_LOOP ( 'NONE', ( #49, #531, #167, #528 ) ) ;
#114 = CARTESIAN_POINT ( 'NONE',  ( -4.799999999997614175, 73.79999999999685656, 6.123233995733396860E-16 ) ) ;
#115 = PLANE ( 'NONE',  #418 ) ;
#116 = STYLED_ITEM ( 'NONE', ( #526 ), #281 ) ;
#117 = ORIENTED_EDGE ( 'NONE', *, *, #24, .F. ) ;
#118 = DIRECTION ( 'NONE',  ( 1.000000000000000000, 4.993190545717234000E-15, 0.000000000000000000 ) ) ;
#119 = EDGE_LOOP ( 'NONE', ( #523, #213, #543, #172 ) ) ;
#120 = EDGE_CURVE ( 'NONE', #103, #2, #507, .T. ) ;
#121 = FACE_OUTER_BOUND ( 'NONE', #533, .T. ) ;
#122 = EDGE_LOOP ( 'NONE', ( #481, #296, #7 ) ) ;
#123 = PRODUCT_CONTEXT ( 'NONE', #384, 'mechanical' ) ;
#124 = DIRECTION ( 'NONE',  ( -1.000000000000000000, -5.551115123120569120E-15, 0.000000000000000000 ) ) ;
#125 = AXIS2_PLACEMENT_3D ( 'NONE', #326, #67, #82 ) ;
#126 = AXIS2_PLACEMENT_3D ( 'NONE', #489, #530, #94 ) ;
#127 = EDGE_LOOP ( 'NONE', ( #318, #253, #140, #334 ) ) ;
#128 = CARTESIAN_POINT ( 'NONE',  ( 6.700000000000692957, 33.89999999999688640, 7.960204194458816066E-16 ) ) ;
#129 = ADVANCED_FACE ( 'NONE', ( #200 ), #464, .F. ) ;
#130 = ORIENTED_EDGE ( 'NONE', *, *, #8, .F. ) ;
#131 = SURFACE_STYLE_USAGE ( .BOTH. , #497 ) ;
#132 = CARTESIAN_POINT ( 'NONE',  ( -4.800000000005062439, 73.99999999999690203, 0.000000000000000000 ) ) ;
#133 = CARTESIAN_POINT ( 'NONE',  ( 0.1999999999999398648, 12.61803398874081239, 0.000000000000000000 ) ) ;
#134 = CARTESIAN_POINT ( 'NONE',  ( -5.099999999997259614, 33.82679491923991577, 0.000000000000000000 ) ) ;
#135 = DIRECTION ( 'NONE',  ( 0.7071067811865435759, -0.7071067811865515695, 0.000000000000000000 ) ) ;
#136 = VERTEX_POINT ( 'NONE', #190 ) ;
#137 = LINE ( 'NONE', #356, #338 ) ;
#138 = DIRECTION ( 'NONE',  ( -1.000000000000000000, -4.857225732730478949E-15, 0.000000000000000000 ) ) ;
#139 =( LENGTH_UNIT ( ) NAMED_UNIT ( * ) SI_UNIT ( .MILLI., .METRE. ) );
#140 = ORIENTED_EDGE ( 'NONE', *, *, #535, .T. ) ;
#141 = AXIS2_PLACEMENT_3D ( 'NONE', #224, #12, #269 ) ;
#142 = VECTOR ( 'NONE', #339, 1000.000000000000000 ) ;
#143 = CONICAL_SURFACE ( 'NONE', #192, 2904.210877675086977, 1.239183768915895989 ) ;
#144 = FACE_OUTER_BOUND ( 'NONE', #122, .T. ) ;
#145 = EDGE_CURVE ( 'NONE', #136, #554, #355, .T. ) ;
#146 = ORIENTED_EDGE ( 'NONE', *, *, #104, .F. ) ;
#147 = EDGE_CURVE ( 'NONE', #434, #259, #484, .T. ) ;
#148 = UNCERTAINTY_MEASURE_WITH_UNIT (LENGTH_MEASURE( 1.000000000000000082E-05 ), #410, 'distance_accuracy_value', 'NONE');
#149 = SURFACE_STYLE_FILL_AREA ( #155 ) ;
#150 = LINE ( 'NONE', #427, #548 ) ;
#151 = ORIENTED_EDGE ( 'NONE', *, *, #417, .F. ) ;
#152 = DIRECTION ( 'NONE',  ( 4.993190545717234000E-15, -1.000000000000000000, 0.000000000000000000 ) ) ;
#153 = CIRCLE ( 'NONE', #34, 5.599999999997129940 ) ;
#154 = VECTOR ( 'NONE', #55, 1000.000000000000000 ) ;
#155 = FILL_AREA_STYLE ('',( #320 ) ) ;
#156 = CARTESIAN_POINT ( 'NONE',  ( 0.1999999999950096696, 1000.000000000000000, 0.000000000000000000 ) ) ;
#157 = SURFACE_STYLE_USAGE ( .BOTH. , #294 ) ;
#158 = CARTESIAN_POINT ( 'NONE',  ( 0.1999999999996333599, 73.99999999999687361, 0.000000000000000000 ) ) ;
#159 = DIRECTION ( 'NONE',  ( -4.993190545717234000E-15, 1.000000000000000000, -0.000000000000000000 ) ) ;
#160 = ORIENTED_EDGE ( 'NONE', *, *, #535, .F. ) ;
#161 = AXIS2_PLACEMENT_3D ( 'NONE', #498, #502, #98 ) ;
#162 = AXIS2_PLACEMENT_3D ( 'NONE', #433, #37, #390 ) ;
#163 = AXIS2_PLACEMENT_3D ( 'NONE', #278, #26, #506 ) ;
#164 = DIRECTION ( 'NONE',  ( -1.000000000000000000, -5.782411586592656261E-15, 0.000000000000000000 ) ) ;
#165 = APPLICATION_CONTEXT ( 'automotive_design' ) ;
#166 = EDGE_CURVE ( 'NONE', #205, #432, #547, .T. ) ;
#167 = ORIENTED_EDGE ( 'NONE', *, *, #557, .T. ) ;
#168 = ADVANCED_FACE ( 'NONE', ( #509 ), #493, .T. ) ;
#169 = CYLINDRICAL_SURFACE ( 'NONE', #529, 4.999999999997178257 ) ;
#170 = VERTEX_POINT ( 'NONE', #381 ) ;
#171 = DIRECTION ( 'NONE',  ( -1.000000000000000000, -5.551115123128915269E-15, 0.000000000000000000 ) ) ;
#172 = ORIENTED_EDGE ( 'NONE', *, *, #104, .T. ) ;
#173 = EDGE_CURVE ( 'NONE', #32, #432, #282, .T. ) ;
#174 = CARTESIAN_POINT ( 'NONE',  ( -5.399999999997296740, 33.99999999999679545, 0.000000000000000000 ) ) ;
#175 = AXIS2_PLACEMENT_3D ( 'NONE', #158, #280, #236 ) ;
#176 =( GEOMETRIC_REPRESENTATION_CONTEXT ( 3 ) GLOBAL_UNCERTAINTY_ASSIGNED_CONTEXT ( ( #148 ) ) GLOBAL_UNIT_ASSIGNED_CONTEXT ( ( #410, #359, #223 ) ) REPRESENTATION_CONTEXT ( 'NONE', 'WORKASPACE' ) );
#177 = EDGE_LOOP ( 'NONE', ( #31, #110, #117, #251 ) ) ;
#178 = DIRECTION ( 'NONE',  ( -1.000000000000000000, -5.551115123128994155E-15, 0.000000000000000000 ) ) ;
#179 = CARTESIAN_POINT ( 'NONE',  ( 0.1999999999999565736, 9.263932022493925444, 0.000000000000000000 ) ) ;
#180 = ORIENTED_EDGE ( 'NONE', *, *, #323, .T. ) ;
#181 = CARTESIAN_POINT ( 'NONE',  ( 5.200000000004671108, 9.263932022493950313, 6.123233995742528911E-16 ) ) ;
#182 = VERTEX_POINT ( 'NONE', #238 ) ;
#183 = AXIS2_PLACEMENT_3D ( 'NONE', #133, #11, #542 ) ;
#184 = EDGE_CURVE ( 'NONE', #462, #449, #150, .T. ) ;
#185 = LINE ( 'NONE', #351, #216 ) ;
#186 = ORIENTED_EDGE ( 'NONE', *, *, #120, .F. ) ;
#187 = DIRECTION ( 'NONE',  ( -1.000000000000000000, 0.000000000000000000, 0.000000000000000000 ) ) ;
#188 = EDGE_LOOP ( 'NONE', ( #490, #77, #290, #68 ) ) ;
#189 = ADVANCED_FACE ( 'NONE', ( #58 ), #54, .T. ) ;
#190 = CARTESIAN_POINT ( 'NONE',  ( 4.999999999996894928, 73.99999999999690203, 0.000000000000000000 ) ) ;
#191 = ORIENTED_EDGE ( 'NONE', *, *, #145, .T. ) ;
#192 = AXIS2_PLACEMENT_3D ( 'NONE', #470, #15, #22 ) ;
#193 = DIRECTION ( 'NONE',  ( 4.993190545717234000E-15, -1.000000000000000000, 0.000000000000000000 ) ) ;
#194 = CARTESIAN_POINT ( 'NONE',  ( 0.1999999999998331168, 33.99999999999683098, 0.000000000000000000 ) ) ;
#195 = DIRECTION ( 'NONE',  ( -1.000000000000000000, -4.956352788507703597E-15, 0.000000000000000000 ) ) ;
#196 =( NAMED_UNIT ( * ) SI_UNIT ( $, .STERADIAN. ) SOLID_ANGLE_UNIT ( ) );
#197 = DIRECTION ( 'NONE',  ( -4.993190545717234000E-15, 1.000000000000000000, -0.000000000000000000 ) ) ;
#198 = CIRCLE ( 'NONE', #161, 6.500000000000857980 ) ;
#199 = VECTOR ( 'NONE', #450, 1000.000000000000114 ) ;
#200 = FACE_OUTER_BOUND ( 'NONE', #428, .T. ) ;
#201 = DIRECTION ( 'NONE',  ( -4.993190545717234000E-15, 1.000000000000000000, -0.000000000000000000 ) ) ;
#202 = ORIENTED_EDGE ( 'NONE', *, *, #81, .F. ) ;
#203 = FACE_OUTER_BOUND ( 'NONE', #219, .T. ) ;
#204 = ADVANCED_FACE ( 'NONE', ( #105 ), #274, .T. ) ;
#205 = VERTEX_POINT ( 'NONE', #23 ) ;
#206 = DIRECTION ( 'NONE',  ( 1.000000000000000000, 0.000000000000000000, 0.000000000000000000 ) ) ;
#207 = CYLINDRICAL_SURFACE ( 'NONE', #249, 5.000000000004695799 ) ;
#208 = ORIENTED_EDGE ( 'NONE', *, *, #398, .F. ) ;
#209 = APPLICATION_PROTOCOL_DEFINITION ( 'draft international standard', 'automotive_design', 1998, #165 ) ;
#210 = DIRECTION ( 'NONE',  ( -4.993190545717234000E-15, 1.000000000000000000, -0.000000000000000000 ) ) ;
#211 = ORIENTED_EDGE ( 'NONE', *, *, #81, .T. ) ;
#212 = DIRECTION ( 'NONE',  ( -0.7071067811865378028, -0.7071067811865573427, 8.659560562354857670E-17 ) ) ;
#213 = ORIENTED_EDGE ( 'NONE', *, *, #414, .F. ) ;
#214 = DIRECTION ( 'NONE',  ( -1.000000000000000000, -5.070730160547003481E-15, 0.000000000000000000 ) ) ;
#215 = AXIS2_PLACEMENT_3D ( 'NONE', #234, #364, #21 ) ;
#216 = VECTOR ( 'NONE', #254, 1000.000000000000000 ) ;
#217 = DIRECTION ( 'NONE',  ( 0.9455185755992898677, 0.3255681544572351926, 1.157926297142037048E-16 ) ) ;
#218 = COLOUR_RGB ( '',0.7921568627450980005, 0.8196078431372548767, 0.9333333333333333481 ) ;
#219 = EDGE_LOOP ( 'NONE', ( #246, #56, #469, #569 ) ) ;
#220 = CARTESIAN_POINT ( 'NONE',  ( 0.1999999999999398648, 12.61803398874081239, 0.000000000000000000 ) ) ;
#221 = EDGE_CURVE ( 'NONE', #301, #283, #327, .T. ) ;
#222 = ORIENTED_EDGE ( 'NONE', *, *, #323, .F. ) ;
#223 =( NAMED_UNIT ( * ) SI_UNIT ( $, .STERADIAN. ) SOLID_ANGLE_UNIT ( ) );
#224 = CARTESIAN_POINT ( 'NONE',  ( 5.399999999996941469, 33.99999999999685940, 6.368163355562695382E-16 ) ) ;
#225 = CIRCLE ( 'NONE', #465, 6.400000000000822808 ) ;
#226 = FACE_OUTER_BOUND ( 'NONE', #17, .T. ) ;
#227 = DIRECTION ( 'NONE',  ( -4.993190545717234000E-15, 1.000000000000000000, -0.000000000000000000 ) ) ;
#228 = ADVANCED_FACE ( 'NONE', ( #33 ), #207, .T. ) ;
#229 = PRESENTATION_STYLE_ASSIGNMENT (( #102 ) ) ;
#230 = DIRECTION ( 'NONE',  ( -1.000000000000000000, -5.421010862426825606E-15, 0.000000000000000000 ) ) ;
#231 = AXIS2_PLACEMENT_3D ( 'NONE', #16, #193, #369 ) ;
#232 = CONICAL_SURFACE ( 'NONE', #258, 5.000000000004715339, 0.4205343352832915382 ) ;
#233 =( NAMED_UNIT ( * ) PLANE_ANGLE_UNIT ( ) SI_UNIT ( $, .RADIAN. ) );
#234 = CARTESIAN_POINT ( 'NONE',  ( 0.1999999999998335887, 33.89999999999685087, 0.000000000000000000 ) ) ;
#235 = ORIENTED_EDGE ( 'NONE', *, *, #221, .T. ) ;
#236 = DIRECTION ( 'NONE',  ( -1.000000000000000000, -5.782411586592656261E-15, 0.000000000000000000 ) ) ;
#237 = DIRECTION ( 'NONE',  ( -1.000000000000000000, -4.857225732730479738E-15, 0.000000000000000000 ) ) ;
#238 = CARTESIAN_POINT ( 'NONE',  ( 5.199999999996940403, 33.99999999999685230, 6.306931015605319722E-16 ) ) ;
#239 = ORIENTED_EDGE ( 'NONE', *, *, #90, .T. ) ;
#240 = COLOUR_RGB ( '',1.000000000000000000, 0.000000000000000000, 0.000000000000000000 ) ;
#241 = LINE ( 'NONE', #245, #508 ) ;
#242 = EDGE_CURVE ( 'NONE', #438, #32, #1, .T. ) ;
#243 = SURFACE_STYLE_FILL_AREA ( #335 ) ;
#244 = EDGE_CURVE ( 'NONE', #259, #434, #310, .T. ) ;
#245 = CARTESIAN_POINT ( 'NONE',  ( 0.1999999999999960698, 1.387778780781442362E-14, 0.000000000000000000 ) ) ;
#246 = ORIENTED_EDGE ( 'NONE', *, *, #242, .F. ) ;
#247 = DIRECTION ( 'NONE',  ( 1.000000000000000000, 5.551115123128837960E-15, 0.000000000000000000 ) ) ;
#248 = ORIENTED_EDGE ( 'NONE', *, *, #437, .F. ) ;
#249 = AXIS2_PLACEMENT_3D ( 'NONE', #527, #382, #124 ) ;
#250 = CARTESIAN_POINT ( 'NONE',  ( 0.1999999999996333599, 73.99999999999693046, 0.000000000000000000 ) ) ;
#251 = ORIENTED_EDGE ( 'NONE', *, *, #487, .F. ) ;
#252 = CARTESIAN_POINT ( 'NONE',  ( 0.1999999999998331168, 33.99999999999683098, 0.000000000000000000 ) ) ;
#253 = ORIENTED_EDGE ( 'NONE', *, *, #260, .F. ) ;
#254 = DIRECTION ( 'NONE',  ( -4.993190545717234000E-15, 1.000000000000000000, -0.000000000000000000 ) ) ;
#255 = FACE_OUTER_BOUND ( 'NONE', #525, .T. ) ;
#256 = STYLED_ITEM ( 'NONE', ( #551 ), #189 ) ;
#257 = DIRECTION ( 'NONE',  ( -1.000000000000000000, -4.857225732730478949E-15, 0.000000000000000000 ) ) ;
#258 = AXIS2_PLACEMENT_3D ( 'NONE', #385, #292, #257 ) ;
#259 = VERTEX_POINT ( 'NONE', #570 ) ;
#260 = EDGE_CURVE ( 'NONE', #2, #103, #225, .T. ) ;
#261 = ADVANCED_FACE ( 'NONE', ( #522 ), #319, .T. ) ;
#262 = CARTESIAN_POINT ( 'NONE',  ( 0.1999999999998330891, 33.99999999999682387, 0.000000000000000000 ) ) ;
#263 = DIRECTION ( 'NONE',  ( -1.000000000000000000, -4.270088556250072571E-15, 0.000000000000000000 ) ) ;
#264 = DIRECTION ( 'NONE',  ( -1.000000000000000000, -4.857225732730479738E-15, 0.000000000000000000 ) ) ;
#265 = FACE_OUTER_BOUND ( 'NONE', #87, .T. ) ;
#266 = CARTESIAN_POINT ( 'NONE',  ( 5.499999999996927791, 33.82679491923997261, 6.674325055349538183E-16 ) ) ;
#267 = ADVANCED_FACE ( 'NONE', ( #39 ), #517, .T. ) ;
#268 = FACE_OUTER_BOUND ( 'NONE', #574, .T. ) ;
#269 = DIRECTION ( 'NONE',  ( 1.000000000000000000, 0.000000000000000000, 1.224646799147354933E-16 ) ) ;
#270 = FILL_AREA_STYLE_COLOUR ( '', #286 ) ;
#271 = EDGE_LOOP ( 'NONE', ( #440, #483, #313, #457 ) ) ;
#272 = UNCERTAINTY_MEASURE_WITH_UNIT (LENGTH_MEASURE( 1.000000000000000082E-05 ), #558, 'distance_accuracy_value', 'NONE');
#273 = LINE ( 'NONE', #504, #400 ) ;
#274 = CYLINDRICAL_SURFACE ( 'NONE', #377, 6.500000000000805578 ) ;
#275 = AXIS2_PLACEMENT_3D ( 'NONE', #156, #422, #419 ) ;
#276 = CIRCLE ( 'NONE', #126, 5.299999999997093703 ) ;
#277 = ADVANCED_FACE ( 'NONE', ( #86 ), #93, .F. ) ;
#278 = CARTESIAN_POINT ( 'NONE',  ( 5.799999999996963140, 33.99999999999688782, 0.000000000000000000 ) ) ;
#279 = PRODUCT_DEFINITION_SHAPE ( 'NONE', 'NONE',  #352 ) ;
#280 = DIRECTION ( 'NONE',  ( -4.993190545717234000E-15, 1.000000000000000000, -0.000000000000000000 ) ) ;
#281 = ADVANCED_BREP_SHAPE_REPRESENTATION ( '99688-SI10-10+S9MT1003-142', ( #468, #63 ), #85 ) ;
#282 = LINE ( 'NONE', #461, #59 ) ;
#283 = VERTEX_POINT ( 'NONE', #174 ) ;
#284 = CARTESIAN_POINT ( 'NONE',  ( 0.1999999999996343591, 73.79999999999688498, 0.000000000000000000 ) ) ;
#285 = ADVANCED_FACE ( 'NONE', ( #121 ), #169, .T. ) ;
#286 = COLOUR_RGB ( '',1.000000000000000000, 0.000000000000000000, 0.000000000000000000 ) ;
#287 = PRESENTATION_LAYER_ASSIGNMENT (  '', '', ( #256 ) ) ;
#288 = AXIS2_PLACEMENT_3D ( 'NONE', #309, #13, #444 ) ;
#289 = DIRECTION ( 'NONE',  ( -1.000000000000000000, -5.551115123128915269E-15, 0.000000000000000000 ) ) ;
#290 = ORIENTED_EDGE ( 'NONE', *, *, #417, .T. ) ;
#291 =( NAMED_UNIT ( * ) PLANE_ANGLE_UNIT ( ) SI_UNIT ( $, .RADIAN. ) );
#292 = DIRECTION ( 'NONE',  ( -4.993190545717234000E-15, 1.000000000000000000, -0.000000000000000000 ) ) ;
#293 = ORIENTED_EDGE ( 'NONE', *, *, #120, .T. ) ;
#294 = SURFACE_SIDE_STYLE ('',( #243 ) ) ;
#295 = DIRECTION ( 'NONE',  ( -1.000000000000000000, -5.551115123128837960E-15, 0.000000000000000000 ) ) ;
#296 = ORIENTED_EDGE ( 'NONE', *, *, #46, .T. ) ;
#297 = CIRCLE ( 'NONE', #347, 5.299999999997093703 ) ;
#298 = SHAPE_DEFINITION_REPRESENTATION ( #279, #281 ) ;
#299 = AXIS2_PLACEMENT_3D ( 'NONE', #300, #480, #486 ) ;
#300 = CARTESIAN_POINT ( 'NONE',  ( 0.1999999999996343591, 73.79999999999688498, 0.000000000000000000 ) ) ;
#301 = VERTEX_POINT ( 'NONE', #341 ) ;
#302 = CARTESIAN_POINT ( 'NONE',  ( 5.200000000004671108, 1.721638066450409399, 6.123233995742494399E-16 ) ) ;
#303 = ORIENTED_EDGE ( 'NONE', *, *, #521, .F. ) ;
#304 = CYLINDRICAL_SURFACE ( 'NONE', #288, 5.000000000004695799 ) ;
#305 = FACE_OUTER_BOUND ( 'NONE', #119, .T. ) ;
#306 = PRODUCT_RELATED_PRODUCT_CATEGORY ( 'part', '', ( #430 ) ) ;
#307 = EDGE_CURVE ( 'NONE', #25, #396, #474, .T. ) ;
#308 = CIRCLE ( 'NONE', #141, 0.1999999999999970690 ) ;
#309 = CARTESIAN_POINT ( 'NONE',  ( 0.1999999999996333599, 73.99999999999693046, 0.000000000000000000 ) ) ;
#310 = CIRCLE ( 'NONE', #162, 5.000000000004677148 ) ;
#311 = ORIENTED_EDGE ( 'NONE', *, *, #260, .T. ) ;
#312 = SURFACE_STYLE_FILL_AREA ( #532 ) ;
#313 = ORIENTED_EDGE ( 'NONE', *, *, #166, .F. ) ;
#314 = FACE_OUTER_BOUND ( 'NONE', #271, .T. ) ;
#315 = CARTESIAN_POINT ( 'NONE',  ( 0.2000000000000028422, 7.105427357601001859E-15, 0.000000000000000000 ) ) ;
#316 = LINE ( 'NONE', #69, #75 ) ;
#317 = CIRCLE ( 'NONE', #72, 5.000000000004714451 ) ;
#318 = ORIENTED_EDGE ( 'NONE', *, *, #322, .F. ) ;
#319 = CONICAL_SURFACE ( 'NONE', #299, 4.999999999997248423, 0.7853981633974375098 ) ;
#320 = FILL_AREA_STYLE_COLOUR ( '', #240 ) ;
#321 = DIRECTION ( 'NONE',  ( -4.993190545717234000E-15, 1.000000000000000000, -0.000000000000000000 ) ) ;
#322 = EDGE_CURVE ( 'NONE', #103, #205, #436, .T. ) ;
#323 = EDGE_CURVE ( 'NONE', #554, #136, #388, .T. ) ;
#324 = PRODUCT_DEFINITION_CONTEXT ( 'detailed design', #165, 'design' ) ;
#325 =( NAMED_UNIT ( * ) SI_UNIT ( $, .STERADIAN. ) SOLID_ANGLE_UNIT ( ) );
#326 = CARTESIAN_POINT ( 'NONE',  ( 0.1999999999998330891, 33.99999999999682387, 0.000000000000000000 ) ) ;
#327 = CIRCLE ( 'NONE', #125, 5.599999999997129940 ) ;
#328 = AXIS2_PLACEMENT_3D ( 'NONE', #250, #393, #171 ) ;
#329 = CIRCLE ( 'NONE', #420, 0.1999999999999970690 ) ;
#330 = FACE_BOUND ( 'NONE', #409, .T. ) ;
#331 = CARTESIAN_POINT ( 'NONE',  ( 0.1999999999998330891, 33.99999999999682387, 0.000000000000000000 ) ) ;
#332 = EDGE_CURVE ( 'NONE', #554, #396, #336, .T. ) ;
#333 = SURFACE_SIDE_STYLE ('',( #556 ) ) ;
#334 = ORIENTED_EDGE ( 'NONE', *, *, #61, .T. ) ;
#335 = FILL_AREA_STYLE ('',( #564 ) ) ;
#336 = LINE ( 'NONE', #114, #142 ) ;
#337 = ORIENTED_EDGE ( 'NONE', *, *, #479, .T. ) ;
#338 = VECTOR ( 'NONE', #448, 1000.000000000000000 ) ;
#339 = DIRECTION ( 'NONE',  ( -0.7071067811865363595, -0.7071067811865586750, 8.659560562354839181E-17 ) ) ;
#340 = ORIENTED_EDGE ( 'NONE', *, *, #221, .F. ) ;
#341 = CARTESIAN_POINT ( 'NONE',  ( 5.799999999996963140, 33.99999999999685230, 6.858022075221663190E-16 ) ) ;
#342 = EDGE_LOOP ( 'NONE', ( #350, #394, #576, #130 ) ) ;
#343 = ADVANCED_FACE ( 'NONE', ( #482 ), #516, .T. ) ;
#344 = UNCERTAINTY_MEASURE_WITH_UNIT (LENGTH_MEASURE( 1.000000000000000082E-05 ), #139, 'distance_accuracy_value', 'NONE');
#345 = CARTESIAN_POINT ( 'NONE',  ( 0.1999999999998330891, 33.99999999999688782, 0.000000000000000000 ) ) ;
#346 = EDGE_LOOP ( 'NONE', ( #191, #180 ) ) ;
#347 = AXIS2_PLACEMENT_3D ( 'NONE', #500, #454, #53 ) ;
#348 = AXIS2_PLACEMENT_3D ( 'NONE', #194, #505, #57 ) ;
#349 = PRESENTATION_LAYER_ASSIGNMENT (  '', '', ( #116 ) ) ;
#350 = ORIENTED_EDGE ( 'NONE', *, *, #244, .T. ) ;
#351 = CARTESIAN_POINT ( 'NONE',  ( 5.199999999996812505, 73.99999999999695888, 6.123233995733311072E-16 ) ) ;
#352 = PRODUCT_DEFINITION ( 'UNKNOWN', '', #429, #324 ) ;
#353 = ORIENTED_EDGE ( 'NONE', *, *, #147, .T. ) ;
#354 = ORIENTED_EDGE ( 'NONE', *, *, #166, .T. ) ;
#355 = CIRCLE ( 'NONE', #175, 4.799999999997261568 ) ;
#356 = CARTESIAN_POINT ( 'NONE',  ( -5.399999999997296740, 33.99999999999679545, 0.000000000000000000 ) ) ;
#357 = STYLED_ITEM ( 'NONE', ( #491 ), #468 ) ;
#358 = CARTESIAN_POINT ( 'NONE',  ( 0.1999999999996343591, 73.79999999999688498, 0.000000000000000000 ) ) ;
#359 =( NAMED_UNIT ( * ) PLANE_ANGLE_UNIT ( ) SI_UNIT ( $, .RADIAN. ) );
#360 = ORIENTED_EDGE ( 'NONE', *, *, #459, .T. ) ;
#361 = ORIENTED_EDGE ( 'NONE', *, *, #567, .T. ) ;
#362 = MECHANICAL_DESIGN_GEOMETRIC_PRESENTATION_REPRESENTATION (  '', ( #256 ), #446 ) ;
#363 = MECHANICAL_DESIGN_GEOMETRIC_PRESENTATION_REPRESENTATION (  '', ( #4 ), #539 ) ;
#364 = DIRECTION ( 'NONE',  ( -4.993190545717234000E-15, 1.000000000000000000, -0.000000000000000000 ) ) ;
#365 = PRESENTATION_LAYER_ASSIGNMENT (  '', '', ( #4 ) ) ;
#366 = EDGE_LOOP ( 'NONE', ( #222, #552, #404, #151 ) ) ;
#367 = MECHANICAL_DESIGN_GEOMETRIC_PRESENTATION_REPRESENTATION (  '', ( #116 ), #562 ) ;
#368 = UNCERTAINTY_MEASURE_WITH_UNIT (LENGTH_MEASURE( 1.000000000000000082E-05 ), #101, 'distance_accuracy_value', 'NONE');
#369 = DIRECTION ( 'NONE',  ( 1.000000000000000000, 5.337610695312547721E-15, 0.000000000000000000 ) ) ;
#370 = ADVANCED_FACE ( 'NONE', ( #575 ), #115, .F. ) ;
#371 = EDGE_CURVE ( 'NONE', #80, #259, #241, .T. ) ;
#372 = PLANE ( 'NONE',  #163 ) ;
#373 = CARTESIAN_POINT ( 'NONE',  ( 0.1999999999998330891, 33.99999999999688782, 0.000000000000000000 ) ) ;
#374 = ORIENTED_EDGE ( 'NONE', *, *, #459, .F. ) ;
#375 = DIRECTION ( 'NONE',  ( -4.993190545717234000E-15, 1.000000000000000000, -0.000000000000000000 ) ) ;
#376 = CARTESIAN_POINT ( 'NONE',  ( 0.1999999999999942657, 1.721638066450384308, 0.000000000000000000 ) ) ;
#377 = AXIS2_PLACEMENT_3D ( 'NONE', #466, #467, #65 ) ;
#378 = ORIENTED_EDGE ( 'NONE', *, *, #371, .T. ) ;
#379 = AXIS2_PLACEMENT_3D ( 'NONE', #395, #210, #164 ) ;
#380 = ADVANCED_FACE ( 'NONE', ( #203 ), #232, .T. ) ;
#381 = CARTESIAN_POINT ( 'NONE',  ( -4.799999999997274003, 33.99999999999679545, 0.000000000000000000 ) ) ;
#382 = DIRECTION ( 'NONE',  ( -4.993190545717234000E-15, 1.000000000000000000, -0.000000000000000000 ) ) ;
#383 = ORIENTED_EDGE ( 'NONE', *, *, #453, .F. ) ;
#384 = APPLICATION_CONTEXT ( 'automotive_design' ) ;
#385 = CARTESIAN_POINT ( 'NONE',  ( 0.1999999999999565736, 9.263932022493925444, 0.000000000000000000 ) ) ;
#386 = ORIENTED_EDGE ( 'NONE', *, *, #537, .F. ) ;
#387 = CLOSED_SHELL ( 'NONE', ( #261, #343, #496, #129, #503, #391, #64, #228, #518, #189, #435, #380, #204, #168, #544, #29, #277, #285, #267, #370 ) ) ;
#388 = CIRCLE ( 'NONE', #379, 4.799999999997261568 ) ;
#389 = CARTESIAN_POINT ( 'NONE',  ( 0.000000000000000000, 0.000000000000000000, 0.000000000000000000 ) ) ;
#390 = DIRECTION ( 'NONE',  ( -1.000000000000000000, -4.987329993428655073E-15, 0.000000000000000000 ) ) ;
#391 = ADVANCED_FACE ( 'NONE', ( #314 ), #88, .T. ) ;
#392 = EDGE_LOOP ( 'NONE', ( #421, #337, #361, #563 ) ) ;
#393 = DIRECTION ( 'NONE',  ( -4.993190545717234000E-15, 1.000000000000000000, -0.000000000000000000 ) ) ;
#394 = ORIENTED_EDGE ( 'NONE', *, *, #521, .T. ) ;
#395 = CARTESIAN_POINT ( 'NONE',  ( 0.1999999999996333599, 73.99999999999687361, 0.000000000000000000 ) ) ;
#396 = VERTEX_POINT ( 'NONE', #405 ) ;
#397 = CONICAL_SURFACE ( 'NONE', #42, 5.000000000004715339, 0.4205343352832915382 ) ;
#398 = EDGE_CURVE ( 'NONE', #182, #25, #185, .T. ) ;
#399 = AXIS2_PLACEMENT_3D ( 'NONE', #284, #573, #247 ) ;
#400 = VECTOR ( 'NONE', #375, 1000.000000000000000 ) ;
#401 = CARTESIAN_POINT ( 'NONE',  ( 5.199999999996883560, 73.79999999999691340, 0.000000000000000000 ) ) ;
#402 = LINE ( 'NONE', #132, #455 ) ;
#403 = DIRECTION ( 'NONE',  ( -4.993190545717234000E-15, 1.000000000000000000, -0.000000000000000000 ) ) ;
#404 = ORIENTED_EDGE ( 'NONE', *, *, #24, .T. ) ;
#405 = CARTESIAN_POINT ( 'NONE',  ( -4.799999999997614175, 73.79999999999685656, 0.000000000000000000 ) ) ;
#406 = DIRECTION ( 'NONE',  ( -4.993190545717234000E-15, 1.000000000000000000, -0.000000000000000000 ) ) ;
#407 = AXIS2_PLACEMENT_3D ( 'NONE', #262, #411, #451 ) ;
#408 = VECTOR ( 'NONE', #135, 999.9999999999998863 ) ;
#409 = EDGE_LOOP ( 'NONE', ( #146, #340 ) ) ;
#410 =( LENGTH_UNIT ( ) NAMED_UNIT ( * ) SI_UNIT ( .MILLI., .METRE. ) );
#411 = DIRECTION ( 'NONE',  ( -4.993190545717234000E-15, 1.000000000000000000, -0.000000000000000000 ) ) ;
#412 = SURFACE_SIDE_STYLE ('',( #149 ) ) ;
#413 = DIRECTION ( 'NONE',  ( -1.000000000000000000, -4.956352788507703597E-15, 0.000000000000000000 ) ) ;
#414 = EDGE_CURVE ( 'NONE', #40, #84, #276, .T. ) ;
#415 = CARTESIAN_POINT ( 'NONE',  ( 0.1999999999999565736, 9.263932022493925444, 0.000000000000000000 ) ) ;
#416 = AXIS2_PLACEMENT_3D ( 'NONE', #358, #6, #495 ) ;
#417 = EDGE_CURVE ( 'NONE', #136, #25, #9, .T. ) ;
#418 = AXIS2_PLACEMENT_3D ( 'NONE', #431, #74, #118 ) ;
#419 = DIRECTION ( 'NONE',  ( -1.000000000000000000, -5.007873820179483964E-15, 0.000000000000000000 ) ) ;
#420 = AXIS2_PLACEMENT_3D ( 'NONE', #426, #545, #187 ) ;
#421 = ORIENTED_EDGE ( 'NONE', *, *, #173, .F. ) ;
#422 = DIRECTION ( 'NONE',  ( -4.993190545717234000E-15, 1.000000000000000000, -0.000000000000000000 ) ) ;
#423 = ORIENTED_EDGE ( 'NONE', *, *, #557, .F. ) ;
#424 = CARTESIAN_POINT ( 'NONE',  ( 0.1999999999998330891, 33.99999999999682387, 0.000000000000000000 ) ) ;
#425 = ORIENTED_EDGE ( 'NONE', *, *, #307, .F. ) ;
#426 = CARTESIAN_POINT ( 'NONE',  ( -4.999999999997275069, 33.99999999999680256, 0.000000000000000000 ) ) ;
#427 = CARTESIAN_POINT ( 'NONE',  ( -4.800000000004758682, 9.263932022493902352, 0.000000000000000000 ) ) ;
#428 = EDGE_LOOP ( 'NONE', ( #202, #488, #235, #248 ) ) ;
#429 = PRODUCT_DEFINITION_FORMATION_WITH_SPECIFIED_SOURCE ( 'ANY', '', #430, .NOT_KNOWN. ) ;
#430 = PRODUCT ( '99688-SI10-10+S9MT1003-142', '99688-SI10-10+S9MT1003-142', '', ( #123 ) ) ;
#431 = CARTESIAN_POINT ( 'NONE',  ( 0.1999999999996333599, 73.99999999999690203, 0.000000000000000000 ) ) ;
#432 = VERTEX_POINT ( 'NONE', #128 ) ;
#433 = CARTESIAN_POINT ( 'NONE',  ( 0.1999999999999942657, 1.721638066450384308, 0.000000000000000000 ) ) ;
#434 = VERTEX_POINT ( 'NONE', #302 ) ;
#435 = ADVANCED_FACE ( 'NONE', ( #265 ), #304, .T. ) ;
#436 = LINE ( 'NONE', #76, #73 ) ;
#437 = EDGE_CURVE ( 'NONE', #40, #283, #137, .T. ) ;
#438 = VERTEX_POINT ( 'NONE', #181 ) ;
#439 = CARTESIAN_POINT ( 'NONE',  ( 5.200000000004671108, 9.263932022493950313, 6.123233995742539758E-16 ) ) ;
#440 = ORIENTED_EDGE ( 'NONE', *, *, #453, .T. ) ;
#441 = CARTESIAN_POINT ( 'NONE',  ( 0.1999999999996343591, 73.79999999999688498, 0.000000000000000000 ) ) ;
#442 = ORIENTED_EDGE ( 'NONE', *, *, #242, .T. ) ;
#443 = EDGE_CURVE ( 'NONE', #84, #301, #41, .T. ) ;
#444 = DIRECTION ( 'NONE',  ( -1.000000000000000000, -5.551115123120569120E-15, 0.000000000000000000 ) ) ;
#445 = CARTESIAN_POINT ( 'NONE',  ( 0.1999999999998330891, 33.99999999999682387, 0.000000000000000000 ) ) ;
#446 =( GEOMETRIC_REPRESENTATION_CONTEXT ( 3 ) GLOBAL_UNCERTAINTY_ASSIGNED_CONTEXT ( ( #368 ) ) GLOBAL_UNIT_ASSIGNED_CONTEXT ( ( #101, #565, #109 ) ) REPRESENTATION_CONTEXT ( 'NONE', 'WORKASPACE' ) );
#447 = CONICAL_SURFACE ( 'NONE', #44, 6.500000000000857980, 0.7853981633974396193 ) ;
#448 = DIRECTION ( 'NONE',  ( -0.8660254037844732355, 0.4999999999999399924, 0.000000000000000000 ) ) ;
#449 = VERTEX_POINT ( 'NONE', #96 ) ;
#450 = DIRECTION ( 'NONE',  ( 0.8660254037844682395, 0.4999999999999485967, 1.060575238724946111E-16 ) ) ;
#451 = DIRECTION ( 'NONE',  ( -1.000000000000000000, -5.551115123128994155E-15, 0.000000000000000000 ) ) ;
#452 = DIRECTION ( 'NONE',  ( -4.993190545717234000E-15, 1.000000000000000000, -0.000000000000000000 ) ) ;
#453 = EDGE_CURVE ( 'NONE', #449, #32, #571, .T. ) ;
#454 = DIRECTION ( 'NONE',  ( -4.993190545717234000E-15, 1.000000000000000000, -0.000000000000000000 ) ) ;
#455 = VECTOR ( 'NONE', #406, 1000.000000000000000 ) ;
#456 = LINE ( 'NONE', #48, #154 ) ;
#457 = ORIENTED_EDGE ( 'NONE', *, *, #567, .F. ) ;
#458 = DIRECTION ( 'NONE',  ( -0.4082482904632526721, 0.9128709291755497945, 0.000000000000000000 ) ) ;
#459 = EDGE_CURVE ( 'NONE', #182, #170, #550, .T. ) ;
#460 = DIRECTION ( 'NONE',  ( 0.7071067811865449082, -0.7071067811865501263, 0.000000000000000000 ) ) ;
#461 = CARTESIAN_POINT ( 'NONE',  ( 6.700000000000438938, 73.99999999999695888, 7.960204194458782539E-16 ) ) ;
#462 = VERTEX_POINT ( 'NONE', #540 ) ;
#463 = LINE ( 'NONE', #107, #108 ) ;
#464 = CONICAL_SURFACE ( 'NONE', #473, 5.599999999997129940, 1.047197551196662024 ) ;
#465 = AXIS2_PLACEMENT_3D ( 'NONE', #345, #515, #79 ) ;
#466 = CARTESIAN_POINT ( 'NONE',  ( 0.1999999999996333599, 73.99999999999693046, 0.000000000000000000 ) ) ;
#467 = DIRECTION ( 'NONE',  ( -4.993190545717234000E-15, 1.000000000000000000, -0.000000000000000000 ) ) ;
#468 = MANIFOLD_SOLID_BREP ( '±ÛÂà1', #387 ) ;
#469 = ORIENTED_EDGE ( 'NONE', *, *, #184, .T. ) ;
#470 = CARTESIAN_POINT ( 'NONE',  ( 0.1999999999950096696, 1000.000000000000000, 0.000000000000000000 ) ) ;
#471 = CARTESIAN_POINT ( 'NONE',  ( -6.200000000000989608, 33.99999999999685230, 7.898971854501458155E-16 ) ) ;
#472 = DIRECTION ( 'NONE',  ( -1.000000000000000000, -4.993190545717234000E-15, 0.000000000000000000 ) ) ;
#473 = AXIS2_PLACEMENT_3D ( 'NONE', #424, #197, #195 ) ;
#474 = CIRCLE ( 'NONE', #60, 4.999999999997248423 ) ;
#475 = AXIS2_PLACEMENT_3D ( 'NONE', #415, #62, #237 ) ;
#476 = DIRECTION ( 'NONE',  ( 0.000000000000000000, 0.000000000000000000, 1.000000000000000000 ) ) ;
#477 = DIRECTION ( 'NONE',  ( -4.993190545717234000E-15, 1.000000000000000000, -0.000000000000000000 ) ) ;
#478 = EDGE_LOOP ( 'NONE', ( #546, #378, #36 ) ) ;
#479 = EDGE_CURVE ( 'NONE', #32, #449, #83, .T. ) ;
#480 = DIRECTION ( 'NONE',  ( 4.993190545717234000E-15, -1.000000000000000000, 0.000000000000000000 ) ) ;
#481 = ORIENTED_EDGE ( 'NONE', *, *, #371, .F. ) ;
#482 = FACE_OUTER_BOUND ( 'NONE', #177, .T. ) ;
#483 = ORIENTED_EDGE ( 'NONE', *, *, #173, .T. ) ;
#484 = CIRCLE ( 'NONE', #18, 5.000000000004677148 ) ;
#485 = MECHANICAL_DESIGN_GEOMETRIC_PRESENTATION_REPRESENTATION (  '', ( #357 ), #176 ) ;
#486 = DIRECTION ( 'NONE',  ( 1.000000000000000000, 5.551115123128837960E-15, 0.000000000000000000 ) ) ;
#487 = EDGE_CURVE ( 'NONE', #170, #396, #456, .T. ) ;
#488 = ORIENTED_EDGE ( 'NONE', *, *, #443, .T. ) ;
#489 = CARTESIAN_POINT ( 'NONE',  ( 0.1999999999998339772, 33.82679491923994419, 0.000000000000000000 ) ) ;
#490 = ORIENTED_EDGE ( 'NONE', *, *, #332, .F. ) ;
#491 = PRESENTATION_STYLE_ASSIGNMENT (( #131 ) ) ;
#492 = DIRECTION ( 'NONE',  ( -1.000000000000000000, -4.956352788507703597E-15, 0.000000000000000000 ) ) ;
#493 = CONICAL_SURFACE ( 'NONE', #231, 6.500000000000857980, 0.7853981633974396193 ) ;
#494 = CARTESIAN_POINT ( 'NONE',  ( 0.1999999999996333599, 73.99999999999693046, 0.000000000000000000 ) ) ;
#495 = DIRECTION ( 'NONE',  ( -1.000000000000000000, -5.551115123128837960E-15, 0.000000000000000000 ) ) ;
#496 = ADVANCED_FACE ( 'NONE', ( #226 ), #28, .F. ) ;
#497 = SURFACE_SIDE_STYLE ('',( #312 ) ) ;
#498 = CARTESIAN_POINT ( 'NONE',  ( 0.1999999999998335887, 33.89999999999685087, 0.000000000000000000 ) ) ;
#499 = CARTESIAN_POINT ( 'NONE',  ( 5.799999999996963140, 33.99999999999685230, 6.858022075221663190E-16 ) ) ;
#500 = CARTESIAN_POINT ( 'NONE',  ( 0.1999999999998339772, 33.82679491923994419, 0.000000000000000000 ) ) ;
#501 = CIRCLE ( 'NONE', #407, 4.999999999997107203 ) ;
#502 = DIRECTION ( 'NONE',  ( -4.993190545717234000E-15, 1.000000000000000000, -0.000000000000000000 ) ) ;
#503 = ADVANCED_FACE ( 'NONE', ( #268 ), #447, .T. ) ;
#504 = CARTESIAN_POINT ( 'NONE',  ( 5.200000000004330047, 73.99999999999695888, 6.123233995742517078E-16 ) ) ;
#505 = DIRECTION ( 'NONE',  ( -4.993190545717234000E-15, 1.000000000000000000, -0.000000000000000000 ) ) ;
#506 = DIRECTION ( 'NONE',  ( 1.000000000000000000, 4.993190545717234000E-15, 0.000000000000000000 ) ) ;
#507 = CIRCLE ( 'NONE', #536, 6.400000000000822808 ) ;
#508 = VECTOR ( 'NONE', #30, 1000.000000000000000 ) ;
#509 = FACE_OUTER_BOUND ( 'NONE', #127, .T. ) ;
#510 = EDGE_LOOP ( 'NONE', ( #311, #293 ) ) ;
#511 = UNCERTAINTY_MEASURE_WITH_UNIT (LENGTH_MEASURE( 1.000000000000000082E-05 ), #566, 'distance_accuracy_value', 'NONE');
#512 = FACE_OUTER_BOUND ( 'NONE', #510, .T. ) ;
#513 = DIRECTION ( 'NONE',  ( -4.993190545717234000E-15, 1.000000000000000000, -0.000000000000000000 ) ) ;
#514 = APPLICATION_PROTOCOL_DEFINITION ( 'draft international standard', 'automotive_design', 1998, #384 ) ;
#515 = DIRECTION ( 'NONE',  ( -4.993190545717234000E-15, 1.000000000000000000, -0.000000000000000000 ) ) ;
#516 = CYLINDRICAL_SURFACE ( 'NONE', #328, 4.999999999997178257 ) ;
#517 = CONICAL_SURFACE ( 'NONE', #399, 4.999999999997248423, 0.7853981633974375098 ) ;
#518 = ADVANCED_FACE ( 'NONE', ( #144 ), #143, .T. ) ;
#519 = ORIENTED_EDGE ( 'NONE', *, *, #487, .T. ) ;
#520 = CIRCLE ( 'NONE', #475, 5.000000000004714451 ) ;
#521 = EDGE_CURVE ( 'NONE', #434, #438, #273, .T. ) ;
#522 = FACE_OUTER_BOUND ( 'NONE', #366, .T. ) ;
#523 = ORIENTED_EDGE ( 'NONE', *, *, #443, .F. ) ;
#524 = CARTESIAN_POINT ( 'NONE',  ( 0.1999999999996333599, 73.99999999999693046, 0.000000000000000000 ) ) ;
#525 = EDGE_LOOP ( 'NONE', ( #38, #442, #383, #89 ) ) ;
#526 = PRESENTATION_STYLE_ASSIGNMENT (( #157 ) ) ;
#527 = CARTESIAN_POINT ( 'NONE',  ( 0.1999999999996333599, 73.99999999999693046, 0.000000000000000000 ) ) ;
#528 = ORIENTED_EDGE ( 'NONE', *, *, #414, .T. ) ;
#529 = AXIS2_PLACEMENT_3D ( 'NONE', #524, #477, #289 ) ;
#530 = DIRECTION ( 'NONE',  ( -4.993190545717234000E-15, 1.000000000000000000, -0.000000000000000000 ) ) ;
#531 = ORIENTED_EDGE ( 'NONE', *, *, #47, .F. ) ;
#532 = FILL_AREA_STYLE ('',( #52 ) ) ;
#533 = EDGE_LOOP ( 'NONE', ( #208, #360, #519, #425 ) ) ;
#534 = CARTESIAN_POINT ( 'NONE',  ( 6.600000000000656009, 33.99999999999692335, 0.000000000000000000 ) ) ;
#535 = EDGE_CURVE ( 'NONE', #2, #432, #463, .T. ) ;
#536 = AXIS2_PLACEMENT_3D ( 'NONE', #373, #27, #230 ) ;
#537 = EDGE_CURVE ( 'NONE', #438, #462, #520, .T. ) ;
#538 = AXIS2_PLACEMENT_3D ( 'NONE', #494, #50, #263 ) ;
#539 =( GEOMETRIC_REPRESENTATION_CONTEXT ( 3 ) GLOBAL_UNCERTAINTY_ASSIGNED_CONTEXT ( ( #272 ) ) GLOBAL_UNIT_ASSIGNED_CONTEXT ( ( #558, #233, #325 ) ) REPRESENTATION_CONTEXT ( 'NONE', 'WORKASPACE' ) );
#540 = CARTESIAN_POINT ( 'NONE',  ( -4.800000000004757794, 9.263932022493902352, 0.000000000000000000 ) ) ;
#541 = LINE ( 'NONE', #95, #559 ) ;
#542 = DIRECTION ( 'NONE',  ( -1.000000000000000000, -5.070730160547003481E-15, 0.000000000000000000 ) ) ;
#543 = ORIENTED_EDGE ( 'NONE', *, *, #437, .T. ) ;
#544 = ADVANCED_FACE ( 'NONE', ( #330, #512 ), #372, .F. ) ;
#545 = DIRECTION ( 'NONE',  ( 0.000000000000000000, -0.000000000000000000, -1.000000000000000000 ) ) ;
#546 = ORIENTED_EDGE ( 'NONE', *, *, #46, .F. ) ;
#547 = CIRCLE ( 'NONE', #215, 6.500000000000857980 ) ;
#548 = VECTOR ( 'NONE', #458, 1000.000000000000000 ) ;
#549 = DIRECTION ( 'NONE',  ( 1.000000000000000000, 5.337610695312547721E-15, 0.000000000000000000 ) ) ;
#550 = CIRCLE ( 'NONE', #45, 4.999999999997107203 ) ;
#551 = PRESENTATION_STYLE_ASSIGNMENT (( #112 ) ) ;
#552 = ORIENTED_EDGE ( 'NONE', *, *, #332, .T. ) ;
#553 = FILL_AREA_STYLE ('',( #270 ) ) ;
#554 = VERTEX_POINT ( 'NONE', #555 ) ;
#555 = CARTESIAN_POINT ( 'NONE',  ( -4.599999999997627320, 73.99999999999684519, 6.000769315818670192E-16 ) ) ;
#556 = SURFACE_STYLE_FILL_AREA ( #553 ) ;
#557 = EDGE_CURVE ( 'NONE', #170, #40, #329, .T. ) ;
#558 =( LENGTH_UNIT ( ) NAMED_UNIT ( * ) SI_UNIT ( .MILLI., .METRE. ) );
#559 = VECTOR ( 'NONE', #217, 999.9999999999998863 ) ;
#560 = VECTOR ( 'NONE', #568, 1000.000000000000114 ) ;
#561 = DIRECTION ( 'NONE',  ( -1.000000000000000000, -4.987329993428655073E-15, 0.000000000000000000 ) ) ;
#562 =( GEOMETRIC_REPRESENTATION_CONTEXT ( 3 ) GLOBAL_UNCERTAINTY_ASSIGNED_CONTEXT ( ( #511 ) ) GLOBAL_UNIT_ASSIGNED_CONTEXT ( ( #566, #291, #78 ) ) REPRESENTATION_CONTEXT ( 'NONE', 'WORKASPACE' ) );
#563 = ORIENTED_EDGE ( 'NONE', *, *, #61, .F. ) ;
#564 = FILL_AREA_STYLE_COLOUR ( '', #218 ) ;
#565 =( NAMED_UNIT ( * ) PLANE_ANGLE_UNIT ( ) SI_UNIT ( $, .RADIAN. ) );
#566 =( LENGTH_UNIT ( ) NAMED_UNIT ( * ) SI_UNIT ( .MILLI., .METRE. ) );
#567 = EDGE_CURVE ( 'NONE', #449, #205, #316, .T. ) ;
#568 = DIRECTION ( 'NONE',  ( 0.4082482904632436238, 0.9128709291755539024, 4.999599621731958067E-17 ) ) ;
#569 = ORIENTED_EDGE ( 'NONE', *, *, #479, .F. ) ;
#570 = CARTESIAN_POINT ( 'NONE',  ( -4.800000000004682299, 1.721638066450359439, 0.000000000000000000 ) ) ;
#571 = CIRCLE ( 'NONE', #35, 6.500000000000752287 ) ;
#572 = ORIENTED_EDGE ( 'NONE', *, *, #8, .T. ) ;
#573 = DIRECTION ( 'NONE',  ( 4.993190545717234000E-15, -1.000000000000000000, 0.000000000000000000 ) ) ;
#574 = EDGE_LOOP ( 'NONE', ( #186, #43, #354, #160 ) ) ;
#575 = FACE_OUTER_BOUND ( 'NONE', #346, .T. ) ;
#576 = ORIENTED_EDGE ( 'NONE', *, *, #71, .F. ) ;
ENDSEC;
END-ISO-10303-21;
