ISO-10303-21;
HEADER;
FILE_DESCRIPTION (( 'STEP AP214' ),
    '1' );
FILE_NAME ('99688-SI20-M12+S9MT2004-090.STEP',
    '2023-09-26T06:32:21',
    ( '' ),
    ( '' ),
    'SwSTEP 2.0',
    'SolidWorks 2020',
    '' );
FILE_SCHEMA (( 'AUTOMOTIVE_DESIGN' ));
ENDSEC;

DATA;
#1 = ORIENTED_EDGE ( 'NONE', *, *, #221, .T. ) ;
#2 = DIRECTION ( 'NONE',  ( -1.000000000000000000, 0.000000000000000000, 0.000000000000000000 ) ) ;
#3 = CARTESIAN_POINT ( 'NONE',  ( 0.000000000000000000, 0.000000000000000000, 0.000000000000000000 ) ) ;
#4 = VERTEX_POINT ( 'NONE', #1040 ) ;
#5 = DIRECTION ( 'NONE',  ( -1.000000000000000000, 0.000000000000000000, 0.000000000000000000 ) ) ;
#6 = ORIENTED_EDGE ( 'NONE', *, *, #417, .F. ) ;
#7 = DIRECTION ( 'NONE',  ( -1.000000000000000000, 0.000000000000000000, 0.000000000000000000 ) ) ;
#8 = CARTESIAN_POINT ( 'NONE',  ( -4.999999999999994671, 67.41905249806704603, 0.000000000000000000 ) ) ;
#9 = AXIS2_PLACEMENT_3D ( 'NONE', #566, #894, #410 ) ;
#10 = COLOUR_RGB ( '',0.7921568627450980005, 0.8196078431372548767, 0.9333333333333333481 ) ;
#11 = ORIENTED_EDGE ( 'NONE', *, *, #55, .T. ) ;
#12 = EDGE_CURVE ( 'NONE', #1030, #927, #468, .T. ) ;
#13 = AXIS2_PLACEMENT_3D ( 'NONE', #412, #986, #179 ) ;
#14 = DIRECTION ( 'NONE',  ( 8.658536585366059171E-17, 1.000000000000000000, -0.000000000000000000 ) ) ;
#15 = VECTOR ( 'NONE', #43, 1000.000000000000114 ) ;
#16 = AXIS2_PLACEMENT_3D ( 'NONE', #380, #616, #961 ) ;
#17 = EDGE_LOOP ( 'NONE', ( #820, #243, #276, #643 ) ) ;
#18 = FACE_OUTER_BOUND ( 'NONE', #20, .T. ) ;
#19 = DIRECTION ( 'NONE',  ( -1.000000000000000000, 0.000000000000000000, 0.000000000000000000 ) ) ;
#20 = EDGE_LOOP ( 'NONE', ( #189, #427, #903, #310 ) ) ;
#21 = ADVANCED_FACE ( 'NONE', ( #86 ), #776, .T. ) ;
#22 = CARTESIAN_POINT ( 'NONE',  ( 7.100000000000002563E-15, 81.99999999999806732, 0.000000000000000000 ) ) ;
#23 = CARTESIAN_POINT ( 'NONE',  ( -12.50000000000001421, 81.99999999999806732, 0.000000000000000000 ) ) ;
#24 = ORIENTED_EDGE ( 'NONE', *, *, #590, .F. ) ;
#25 = EDGE_CURVE ( 'NONE', #739, #969, #287, .T. ) ;
#26 = CARTESIAN_POINT ( 'NONE',  ( 5.177804878048744419E-15, 59.79999999999815685, 0.000000000000000000 ) ) ;
#27 = EDGE_CURVE ( 'NONE', #359, #909, #104, .T. ) ;
#28 = DIRECTION ( 'NONE',  ( -0.7071067811865489050, 0.7071067811865460184, 0.000000000000000000 ) ) ;
#29 = DIRECTION ( 'NONE',  ( 8.658536585366059171E-17, 1.000000000000000000, -0.000000000000000000 ) ) ;
#30 = EDGE_LOOP ( 'NONE', ( #845, #157, #315, #727 ) ) ;
#31 = AXIS2_PLACEMENT_3D ( 'NONE', #897, #396, #7 ) ;
#32 = AXIS2_PLACEMENT_3D ( 'NONE', #275, #266, #511 ) ;
#33 = CARTESIAN_POINT ( 'NONE',  ( 5.000000000000015987, 66.79843597113166709, 6.582476545417014213E-16 ) ) ;
#34 = AXIS2_PLACEMENT_3D ( 'NONE', #707, #649, #258 ) ;
#35 = ORIENTED_EDGE ( 'NONE', *, *, #1042, .T. ) ;
#36 = COLOUR_RGB ( '',0.7921568627450980005, 0.8196078431372548767, 0.9333333333333333481 ) ;
#37 = AXIS2_PLACEMENT_3D ( 'NONE', #836, #281, #114 ) ;
#38 = CARTESIAN_POINT ( 'NONE',  ( -5.249999999999991118, 67.99999999999812417, 0.000000000000000000 ) ) ;
#39 = CARTESIAN_POINT ( 'NONE',  ( 5.950000000000011724, 60.08660254037661019, 7.654042494670961551E-16 ) ) ;
#40 = FACE_OUTER_BOUND ( 'NONE', #815, .T. ) ;
#41 = DIRECTION ( 'NONE',  ( -8.658536585366059171E-17, -1.000000000000000000, 0.000000000000000000 ) ) ;
#42 = VERTEX_POINT ( 'NONE', #424 ) ;
#43 = DIRECTION ( 'NONE',  ( -0.8660254037844393737, 0.4999999999999985567, 0.000000000000000000 ) ) ;
#44 = CARTESIAN_POINT ( 'NONE',  ( 7.926630953969122889E-16, 9.154700538386656206, 0.000000000000000000 ) ) ;
#45 = DIRECTION ( 'NONE',  ( -8.658536585366059171E-17, -1.000000000000000000, 0.000000000000000000 ) ) ;
#46 = CARTESIAN_POINT ( 'NONE',  ( -4.267949192431138350, 81.99999999999806732, 6.287305556159226380E-16 ) ) ;
#47 = EDGE_CURVE ( 'NONE', #405, #154, #737, .T. ) ;
#48 = PLANE ( 'NONE',  #50 ) ;
#49 = ADVANCED_FACE ( 'NONE', ( #195 ), #339, .T. ) ;
#50 = AXIS2_PLACEMENT_3D ( 'NONE', #939, #596, #282 ) ;
#51 = CARTESIAN_POINT ( 'NONE',  ( 5.204170427930421283E-15, 60.08660254037662440, 0.000000000000000000 ) ) ;
#52 = AXIS2_PLACEMENT_3D ( 'NONE', #1041, #152, #228 ) ;
#53 = VECTOR ( 'NONE', #602, 1000.000000000000000 ) ;
#54 = DIRECTION ( 'NONE',  ( -1.000000000000000000, 0.000000000000000000, 0.000000000000000000 ) ) ;
#55 = EDGE_CURVE ( 'NONE', #759, #405, #414, .T. ) ;
#56 = SURFACE_STYLE_FILL_AREA ( #294 ) ;
#57 =( LENGTH_UNIT ( ) NAMED_UNIT ( * ) SI_UNIT ( .MILLI., .METRE. ) );
#58 = DIRECTION ( 'NONE',  ( 8.658536585366059171E-17, 1.000000000000000000, -0.000000000000000000 ) ) ;
#59 = DIRECTION ( 'NONE',  ( -1.000000000000000000, 0.000000000000000000, 0.000000000000000000 ) ) ;
#60 = EDGE_CURVE ( 'NONE', #759, #42, #501, .T. ) ;
#61 = DIRECTION ( 'NONE',  ( -0.7071067811865268116, -0.7071067811865682229, 8.659560562354677711E-17 ) ) ;
#62 = CARTESIAN_POINT ( 'NONE',  ( 7.100000000000000986E-15, 81.99999999999806732, 0.000000000000000000 ) ) ;
#63 = ORIENTED_EDGE ( 'NONE', *, *, #1027, .T. ) ;
#64 = VECTOR ( 'NONE', #237, 1000.000000000000000 ) ;
#65 = SURFACE_STYLE_USAGE ( .BOTH. , #1026 ) ;
#66 = AXIS2_PLACEMENT_3D ( 'NONE', #647, #804, #82 ) ;
#67 = MECHANICAL_DESIGN_GEOMETRIC_PRESENTATION_REPRESENTATION (  '', ( #603 ), #519 ) ;
#68 = DIRECTION ( 'NONE',  ( 8.658536585366059171E-17, 1.000000000000000000, -0.000000000000000000 ) ) ;
#69 = AXIS2_PLACEMENT_3D ( 'NONE', #448, #196, #925 ) ;
#70 = CIRCLE ( 'NONE', #385, 6.550000000000012257 ) ;
#71 = STYLED_ITEM ( 'NONE', ( #694 ), #829 ) ;
#72 = VECTOR ( 'NONE', #609, 1000.000000000000000 ) ;
#73 = VERTEX_POINT ( 'NONE', #489 ) ;
#74 = ORIENTED_EDGE ( 'NONE', *, *, #27, .F. ) ;
#75 = CARTESIAN_POINT ( 'NONE',  ( 5.204170427930421283E-15, 66.79843597113166709, 0.000000000000000000 ) ) ;
#76 = EDGE_CURVE ( 'NONE', #1044, #212, #415, .T. ) ;
#77 = ORIENTED_EDGE ( 'NONE', *, *, #261, .F. ) ;
#78 = ORIENTED_EDGE ( 'NONE', *, *, #893, .T. ) ;
#79 = DIRECTION ( 'NONE',  ( 8.658536585366059171E-17, 1.000000000000000000, -0.000000000000000000 ) ) ;
#80 = ORIENTED_EDGE ( 'NONE', *, *, #150, .T. ) ;
#81 = AXIS2_PLACEMENT_3D ( 'NONE', #819, #669, #187 ) ;
#82 = DIRECTION ( 'NONE',  ( -1.000000000000000000, 0.000000000000000000, 0.000000000000000000 ) ) ;
#83 = CONICAL_SURFACE ( 'NONE', #420, 1732.050807568550681, 1.047197551196516141 ) ;
#84 = DIRECTION ( 'NONE',  ( 8.658536585366059171E-17, 1.000000000000000000, -0.000000000000000000 ) ) ;
#85 = VECTOR ( 'NONE', #58, 1000.000000000000000 ) ;
#86 = FACE_OUTER_BOUND ( 'NONE', #232, .T. ) ;
#87 = VERTEX_POINT ( 'NONE', #838 ) ;
#88 = CARTESIAN_POINT ( 'NONE',  ( 7.100000000000000986E-15, 81.99999999999806732, 0.000000000000000000 ) ) ;
#89 = CARTESIAN_POINT ( 'NONE',  ( 5.000000000000007105, 67.41905249806704603, 6.123233995736770227E-16 ) ) ;
#90 = ORIENTED_EDGE ( 'NONE', *, *, #475, .T. ) ;
#91 = CARTESIAN_POINT ( 'NONE',  ( 9.998016856722482941E-17, 1.154700538382000374, 0.000000000000000000 ) ) ;
#92 = ADVANCED_FACE ( 'NONE', ( #111 ), #236, .T. ) ;
#93 = ORIENTED_EDGE ( 'NONE', *, *, #913, .F. ) ;
#94 = CARTESIAN_POINT ( 'NONE',  ( 5.265875813919846932E-15, 60.81715728752354266, 0.000000000000000000 ) ) ;
#95 = EDGE_CURVE ( 'NONE', #499, #488, #570, .T. ) ;
#96 = CARTESIAN_POINT ( 'NONE',  ( 5.887804878048757139E-15, 67.99999999999812417, 0.000000000000000000 ) ) ;
#97 = ORIENTED_EDGE ( 'NONE', *, *, #801, .T. ) ;
#98 = CARTESIAN_POINT ( 'NONE',  ( -6.249999999999937828, 81.99999999999806732, 0.000000000000000000 ) ) ;
#99 = FACE_OUTER_BOUND ( 'NONE', #601, .T. ) ;
#100 = AXIS2_PLACEMENT_3D ( 'NONE', #725, #751, #174 ) ;
#101 = LINE ( 'NONE', #3, #795 ) ;
#102 = AXIS2_PLACEMENT_3D ( 'NONE', #452, #785, #462 ) ;
#103 = ORIENTED_EDGE ( 'NONE', *, *, #1008, .F. ) ;
#104 = LINE ( 'NONE', #98, #963 ) ;
#105 = VERTEX_POINT ( 'NONE', #493 ) ;
#106 = DIRECTION ( 'NONE',  ( 8.658536585366059171E-17, 1.000000000000000000, -0.000000000000000000 ) ) ;
#107 = EDGE_CURVE ( 'NONE', #588, #806, #918, .T. ) ;
#108 = DIRECTION ( 'NONE',  ( 8.658536585366059171E-17, 1.000000000000000000, -0.000000000000000000 ) ) ;
#109 = ORIENTED_EDGE ( 'NONE', *, *, #295, .F. ) ;
#110 = ADVANCED_FACE ( 'NONE', ( #247 ), #435, .T. ) ;
#111 = FACE_OUTER_BOUND ( 'NONE', #879, .T. ) ;
#112 = ADVANCED_FACE ( 'NONE', ( #587 ), #912, .T. ) ;
#113 = DIRECTION ( 'NONE',  ( 8.658536585366059171E-17, 1.000000000000000000, -0.000000000000000000 ) ) ;
#114 = DIRECTION ( 'NONE',  ( -1.000000000000000000, 0.000000000000000000, 0.000000000000000000 ) ) ;
#115 = EDGE_LOOP ( 'NONE', ( #509, #712, #715, #578 ) ) ;
#116 = DIRECTION ( 'NONE',  ( -1.000000000000000000, 0.000000000000000000, 0.000000000000000000 ) ) ;
#117 = ADVANCED_FACE ( 'NONE', ( #901 ), #688, .T. ) ;
#118 = ORIENTED_EDGE ( 'NONE', *, *, #849, .F. ) ;
#119 = LINE ( 'NONE', #23, #251 ) ;
#120 = LINE ( 'NONE', #436, #72 ) ;
#121 = ORIENTED_EDGE ( 'NONE', *, *, #557, .T. ) ;
#122 = DIRECTION ( 'NONE',  ( 8.658536585366059171E-17, 1.000000000000000000, -0.000000000000000000 ) ) ;
#123 = AXIS2_PLACEMENT_3D ( 'NONE', #517, #433, #930 ) ;
#124 = VECTOR ( 'NONE', #455, 1000.000000000000114 ) ;
#125 = ORIENTED_EDGE ( 'NONE', *, *, #191, .T. ) ;
#126 = VECTOR ( 'NONE', #460, 1000.000000000000000 ) ;
#127 = CARTESIAN_POINT ( 'NONE',  ( 6.249999999999952038, 81.99999999999806732, 7.654042494670889567E-16 ) ) ;
#128 = DIRECTION ( 'NONE',  ( 8.658536585366059171E-17, 1.000000000000000000, -0.000000000000000000 ) ) ;
#129 = CARTESIAN_POINT ( 'NONE',  ( -5.000000000000003553, 66.79843597113166709, 0.000000000000000000 ) ) ;
#130 = EDGE_CURVE ( 'NONE', #506, #408, #791, .T. ) ;
#131 = CARTESIAN_POINT ( 'NONE',  ( 7.000000000000162537, 59.99999999999818812, 8.572527594031665475E-16 ) ) ;
#132 = CARTESIAN_POINT ( 'NONE',  ( 6.067157287525340337, 60.81715728752354266, 7.430124752091439530E-16 ) ) ;
#133 = ADVANCED_FACE ( 'NONE', ( #219 ), #48, .F. ) ;
#134 = CARTESIAN_POINT ( 'NONE',  ( 5.887804878048757139E-15, 67.99999999999812417, 0.000000000000000000 ) ) ;
#135 = PLANE ( 'NONE',  #871 ) ;
#136 = DIRECTION ( 'NONE',  ( 1.000000000000000000, 0.000000000000000000, 1.224646799147353454E-16 ) ) ;
#137 = EDGE_CURVE ( 'NONE', #73, #148, #610, .T. ) ;
#138 = CYLINDRICAL_SURFACE ( 'NONE', #777, 5.949999999999987743 ) ;
#139 = EDGE_LOOP ( 'NONE', ( #253, #170, #818, #246 ) ) ;
#140 = AXIS2_PLACEMENT_3D ( 'NONE', #615, #869, #371 ) ;
#141 = AXIS2_PLACEMENT_3D ( 'NONE', #296, #1038, #136 ) ;
#142 = DIRECTION ( 'NONE',  ( 1.000000000000000000, 0.000000000000000000, 1.224646799147353207E-16 ) ) ;
#143 = ADVANCED_FACE ( 'NONE', ( #40 ), #1017, .T. ) ;
#144 = CARTESIAN_POINT ( 'NONE',  ( 7.926630953969122889E-16, 9.154700538386656206, 0.000000000000000000 ) ) ;
#145 =( NAMED_UNIT ( * ) PLANE_ANGLE_UNIT ( ) SI_UNIT ( $, .RADIAN. ) );
#146 = ORIENTED_EDGE ( 'NONE', *, *, #583, .F. ) ;
#147 = DIRECTION ( 'NONE',  ( -1.000000000000000000, 0.000000000000000000, 0.000000000000000000 ) ) ;
#148 = VERTEX_POINT ( 'NONE', #362 ) ;
#149 = CIRCLE ( 'NONE', #690, 6.249999999999944933 ) ;
#150 = EDGE_CURVE ( 'NONE', #105, #558, #631, .T. ) ;
#151 = VECTOR ( 'NONE', #595, 1000.000000000000000 ) ;
#152 = DIRECTION ( 'NONE',  ( 8.658536585366059171E-17, 1.000000000000000000, -0.000000000000000000 ) ) ;
#153 = ORIENTED_EDGE ( 'NONE', *, *, #95, .F. ) ;
#154 = VERTEX_POINT ( 'NONE', #756 ) ;
#155 = CYLINDRICAL_SURFACE ( 'NONE', #288, 10.00000000000021849 ) ;
#156 = ORIENTED_EDGE ( 'NONE', *, *, #450, .T. ) ;
#157 = ORIENTED_EDGE ( 'NONE', *, *, #346, .F. ) ;
#158 = LINE ( 'NONE', #485, #64 ) ;
#159 = DIRECTION ( 'NONE',  ( 1.000000000000000000, 0.000000000000000000, 0.000000000000000000 ) ) ;
#160 = ADVANCED_FACE ( 'NONE', ( #451 ), #138, .T. ) ;
#161 = ORIENTED_EDGE ( 'NONE', *, *, #76, .T. ) ;
#162 = VERTEX_POINT ( 'NONE', #33 ) ;
#163 = DIRECTION ( 'NONE',  ( 8.658536585366059171E-17, 1.000000000000000000, -0.000000000000000000 ) ) ;
#164 = CIRCLE ( 'NONE', #69, 5.000000000000009770 ) ;
#165 = TOROIDAL_SURFACE ( 'NONE', #965, 6.350000000000033396, 0.4000000000000267231 ) ;
#166 = FACE_OUTER_BOUND ( 'NONE', #568, .T. ) ;
#167 = ORIENTED_EDGE ( 'NONE', *, *, #107, .T. ) ;
#168 = CIRCLE ( 'NONE', #762, 12.50000000000006040 ) ;
#169 = EDGE_CURVE ( 'NONE', #806, #516, #1009, .T. ) ;
#170 = ORIENTED_EDGE ( 'NONE', *, *, #747, .T. ) ;
#171 = DIRECTION ( 'NONE',  ( 8.658536585366059171E-17, 1.000000000000000000, -0.000000000000000000 ) ) ;
#172 = DIRECTION ( 'NONE',  ( -0.000000000000000000, 0.000000000000000000, -1.000000000000000000 ) ) ;
#173 = ORIENTED_EDGE ( 'NONE', *, *, #494, .F. ) ;
#174 = DIRECTION ( 'NONE',  ( 1.000000000000000000, 0.000000000000000000, 0.000000000000000000 ) ) ;
#175 = ORIENTED_EDGE ( 'NONE', *, *, #908, .F. ) ;
#176 = EDGE_CURVE ( 'NONE', #279, #322, #297, .T. ) ;
#177 = DIRECTION ( 'NONE',  ( -1.000000000000000000, 0.000000000000000000, 0.000000000000000000 ) ) ;
#178 = UNCERTAINTY_MEASURE_WITH_UNIT (LENGTH_MEASURE( 1.000000000000000082E-05 ), #948, 'distance_accuracy_value', 'NONE');
#179 = DIRECTION ( 'NONE',  ( -1.000000000000000000, 8.658536585366059171E-17, 0.000000000000000000 ) ) ;
#180 = DIRECTION ( 'NONE',  ( -1.224646799147353207E-16, 1.060364911456879714E-32, 1.000000000000000000 ) ) ;
#181 = EDGE_LOOP ( 'NONE', ( #262, #891, #717, #960 ) ) ;
#182 = CARTESIAN_POINT ( 'NONE',  ( -7.000000000000152767, 59.99999999999818812, 0.000000000000000000 ) ) ;
#183 = CARTESIAN_POINT ( 'NONE',  ( 6.249999999999949374, 60.99999999999820943, 7.654042494670889567E-16 ) ) ;
#184 = VECTOR ( 'NONE', #215, 1000.000000000000227 ) ;
#185 = ORIENTED_EDGE ( 'NONE', *, *, #1039, .T. ) ;
#186 = CONICAL_SURFACE ( 'NONE', #316, 7.000000000000158096, 1.047197551196599408 ) ;
#187 = DIRECTION ( 'NONE',  ( 1.000000000000000000, 0.000000000000000000, 0.000000000000000000 ) ) ;
#188 = CIRCLE ( 'NONE', #779, 6.000000000000000888 ) ;
#189 = ORIENTED_EDGE ( 'NONE', *, *, #1042, .F. ) ;
#190 = LINE ( 'NONE', #753, #304 ) ;
#191 = EDGE_CURVE ( 'NONE', #322, #709, #355, .T. ) ;
#192 = DIRECTION ( 'NONE',  ( -1.000000000000000000, 0.000000000000000000, 0.000000000000000000 ) ) ;
#193 = EDGE_LOOP ( 'NONE', ( #668, #837, #750, #109 ) ) ;
#194 = EDGE_CURVE ( 'NONE', #969, #739, #314, .T. ) ;
#195 = FACE_OUTER_BOUND ( 'NONE', #416, .T. ) ;
#196 = DIRECTION ( 'NONE',  ( 8.658536585366059171E-17, 1.000000000000000000, -0.000000000000000000 ) ) ;
#197 = CARTESIAN_POINT ( 'NONE',  ( 6.000000000000007105, 78.99999999999805311, 7.347880794884119736E-16 ) ) ;
#198 = EDGE_LOOP ( 'NONE', ( #565, #167 ) ) ;
#199 = CARTESIAN_POINT ( 'NONE',  ( 7.100000000000002563E-15, 81.99999999999806732, 0.000000000000000000 ) ) ;
#200 = EDGE_LOOP ( 'NONE', ( #560, #318 ) ) ;
#201 = DIRECTION ( 'NONE',  ( -1.000000000000000000, 8.658536585366059171E-17, 0.000000000000000000 ) ) ;
#202 = CYLINDRICAL_SURFACE ( 'NONE', #740, 5.949999999999987743 ) ;
#203 = VECTOR ( 'NONE', #923, 1000.000000000000000 ) ;
#204 = EDGE_CURVE ( 'NONE', #408, #42, #454, .T. ) ;
#205 = CIRCLE ( 'NONE', #793, 6.249999999999944933 ) ;
#206 = DIRECTION ( 'NONE',  ( 8.658536585366059171E-17, 1.000000000000000000, -0.000000000000000000 ) ) ;
#207 = CIRCLE ( 'NONE', #1001, 5.949999999999968203 ) ;
#208 = VECTOR ( 'NONE', #477, 1000.000000000000000 ) ;
#209 = CARTESIAN_POINT ( 'NONE',  ( -2.000000000004384049, 1.154700538382000374, 0.000000000000000000 ) ) ;
#210 = AXIS2_PLACEMENT_3D ( 'NONE', #995, #267, #861 ) ;
#211 = AXIS2_PLACEMENT_3D ( 'NONE', #562, #729, #787 ) ;
#212 = VERTEX_POINT ( 'NONE', #358 ) ;
#213 = CARTESIAN_POINT ( 'NONE',  ( -5.749999999999968026, 65.99999999999810996, 7.347880794884069446E-16 ) ) ;
#214 = DIRECTION ( 'NONE',  ( 8.658536585366059171E-17, 1.000000000000000000, -0.000000000000000000 ) ) ;
#215 = DIRECTION ( 'NONE',  ( 0.4999999999999928946, -0.8660254037844427044, 0.000000000000000000 ) ) ;
#216 = ORIENTED_EDGE ( 'NONE', *, *, #217, .F. ) ;
#217 = EDGE_CURVE ( 'NONE', #806, #588, #900, .T. ) ;
#218 = CARTESIAN_POINT ( 'NONE',  ( 6.000000000000007105, 81.99999999999806732, 7.347880794884119736E-16 ) ) ;
#219 = FACE_OUTER_BOUND ( 'NONE', #198, .T. ) ;
#220 = DIRECTION ( 'NONE',  ( -0.7071067811861545538, 0.7071067811869405917, 0.000000000000000000 ) ) ;
#221 = EDGE_CURVE ( 'NONE', #73, #927, #794, .T. ) ;
#222 = DIRECTION ( 'NONE',  ( 8.658536585366059171E-17, 1.000000000000000000, -0.000000000000000000 ) ) ;
#223 = AXIS2_PLACEMENT_3D ( 'NONE', #144, #695, #308 ) ;
#224 = AXIS2_PLACEMENT_3D ( 'NONE', #841, #29, #277 ) ;
#225 = VECTOR ( 'NONE', #612, 1000.000000000000000 ) ;
#226 = CARTESIAN_POINT ( 'NONE',  ( 5.952743902439002373E-15, 68.74999999999812417, 0.000000000000000000 ) ) ;
#227 = ORIENTED_EDGE ( 'NONE', *, *, #913, .T. ) ;
#228 = DIRECTION ( 'NONE',  ( -1.000000000000000000, 0.000000000000000000, 0.000000000000000000 ) ) ;
#229 = PRODUCT_DEFINITION_SHAPE ( 'NONE', 'NONE',  #234 ) ;
#230 = EDGE_CURVE ( 'NONE', #390, #446, #250, .T. ) ;
#231 = DIRECTION ( 'NONE',  ( -1.000000000000000000, 0.000000000000000000, 0.000000000000000000 ) ) ;
#232 = EDGE_LOOP ( 'NONE', ( #990, #465, #563 ) ) ;
#233 = DIRECTION ( 'NONE',  ( -1.000000000000000000, 8.658536585366060403E-17, 0.000000000000000000 ) ) ;
#234 = PRODUCT_DEFINITION ( 'UNKNOWN', '', #875, #696 ) ;
#235 = VERTEX_POINT ( 'NONE', #129 ) ;
#236 = CONICAL_SURFACE ( 'NONE', #100, 6.249999999999944045, 0.7853981633974188581 ) ;
#237 = DIRECTION ( 'NONE',  ( 8.658536585366059171E-17, 1.000000000000000000, -0.000000000000000000 ) ) ;
#238 = ORIENTED_EDGE ( 'NONE', *, *, #194, .T. ) ;
#239 = VERTEX_POINT ( 'NONE', #944 ) ;
#240 = ORIENTED_EDGE ( 'NONE', *, *, #95, .T. ) ;
#241 = CYLINDRICAL_SURFACE ( 'NONE', #851, 6.000000000000000000 ) ;
#242 = ORIENTED_EDGE ( 'NONE', *, *, #908, .T. ) ;
#243 = ORIENTED_EDGE ( 'NONE', *, *, #130, .T. ) ;
#244 = CARTESIAN_POINT ( 'NONE',  ( 5.265875813919846932E-15, 60.81715728752354266, 0.000000000000000000 ) ) ;
#245 = CARTESIAN_POINT ( 'NONE',  ( 6.550000000000017586, 59.74019237886277267, 8.296982064223422250E-16 ) ) ;
#246 = ORIENTED_EDGE ( 'NONE', *, *, #497, .F. ) ;
#247 = FACE_OUTER_BOUND ( 'NONE', #495, .T. ) ;
#248 = ORIENTED_EDGE ( 'NONE', *, *, #778, .T. ) ;
#249 = FACE_OUTER_BOUND ( 'NONE', #442, .T. ) ;
#250 = CIRCLE ( 'NONE', #652, 5.000000000000000888 ) ;
#251 = VECTOR ( 'NONE', #113, 1000.000000000000000 ) ;
#252 = DIRECTION ( 'NONE',  ( -1.000000000000000000, 0.000000000000000000, 0.000000000000000000 ) ) ;
#253 = ORIENTED_EDGE ( 'NONE', *, *, #726, .T. ) ;
#254 = AXIS2_PLACEMENT_3D ( 'NONE', #784, #305, #700 ) ;
#255 = DIRECTION ( 'NONE',  ( 8.658536585366059171E-17, 1.000000000000000000, -0.000000000000000000 ) ) ;
#256 = ORIENTED_EDGE ( 'NONE', *, *, #221, .F. ) ;
#257 = LINE ( 'NONE', #325, #757 ) ;
#258 = DIRECTION ( 'NONE',  ( -1.000000000000000000, 0.000000000000000000, 0.000000000000000000 ) ) ;
#259 = EDGE_LOOP ( 'NONE', ( #575, #90, #639, #512 ) ) ;
#260 = DIRECTION ( 'NONE',  ( -1.000000000000000000, 1.084202172483127867E-16, 0.000000000000000000 ) ) ;
#261 = EDGE_CURVE ( 'NONE', #162, #446, #941, .T. ) ;
#262 = ORIENTED_EDGE ( 'NONE', *, *, #821, .F. ) ;
#263 = EDGE_CURVE ( 'NONE', #328, #73, #381, .T. ) ;
#264 = LINE ( 'NONE', #991, #439 ) ;
#265 = ORIENTED_EDGE ( 'NONE', *, *, #968, .T. ) ;
#266 = DIRECTION ( 'NONE',  ( -0.000000000000000000, 0.000000000000000000, -1.000000000000000000 ) ) ;
#267 = DIRECTION ( 'NONE',  ( 8.658536585366059171E-17, 1.000000000000000000, -0.000000000000000000 ) ) ;
#268 = EDGE_CURVE ( 'NONE', #558, #105, #964, .T. ) ;
#269 = FACE_OUTER_BOUND ( 'NONE', #193, .T. ) ;
#270 = CONICAL_SURFACE ( 'NONE', #833, 6.067157287525335008, 0.7853981633972965115 ) ;
#271 = CIRCLE ( 'NONE', #102, 0.7999999999999926059 ) ;
#272 = ORIENTED_EDGE ( 'NONE', *, *, #1013, .F. ) ;
#273 = AXIS2_PLACEMENT_3D ( 'NONE', #822, #79, #640 ) ;
#274 = AXIS2_PLACEMENT_3D ( 'NONE', #513, #858, #1003 ) ;
#275 = CARTESIAN_POINT ( 'NONE',  ( -6.350000000000028066, 60.08660254037662440, 0.000000000000000000 ) ) ;
#276 = ORIENTED_EDGE ( 'NONE', *, *, #204, .T. ) ;
#277 = DIRECTION ( 'NONE',  ( -1.000000000000000000, 0.000000000000000000, 0.000000000000000000 ) ) ;
#278 = ORIENTED_EDGE ( 'NONE', *, *, #263, .F. ) ;
#279 = VERTEX_POINT ( 'NONE', #1025 ) ;
#280 = CARTESIAN_POINT ( 'NONE',  ( 6.349999999999971223, 60.53431457504893842, 7.776507174585650748E-16 ) ) ;
#281 = DIRECTION ( 'NONE',  ( 8.658536585366059171E-17, 1.000000000000000000, -0.000000000000000000 ) ) ;
#282 = DIRECTION ( 'NONE',  ( 1.000000000000000000, -8.658536585366059171E-17, 0.000000000000000000 ) ) ;
#283 = ADVANCED_FACE ( 'NONE', ( #363 ), #933, .F. ) ;
#284 = FACE_OUTER_BOUND ( 'NONE', #1043, .T. ) ;
#285 = CARTESIAN_POINT ( 'NONE',  ( 10.00000000000014921, 9.154700538386656206, 1.224646799147371203E-15 ) ) ;
#286 = CARTESIAN_POINT ( 'NONE',  ( 12.29999999999999005, 59.99999999999820943, 0.000000000000000000 ) ) ;
#287 = CIRCLE ( 'NONE', #1032, 12.49999999999998579 ) ;
#288 = AXIS2_PLACEMENT_3D ( 'NONE', #333, #163, #474 ) ;
#289 = EDGE_CURVE ( 'NONE', #322, #328, #701, .T. ) ;
#290 = FACE_OUTER_BOUND ( 'NONE', #658, .T. ) ;
#291 = DIRECTION ( 'NONE',  ( -1.000000000000000000, 0.000000000000000000, 0.000000000000000000 ) ) ;
#292 = MANIFOLD_SOLID_BREP ( '±ÛÂà1', #373 ) ;
#293 = DIRECTION ( 'NONE',  ( -0.4082482904654100020, 0.9128709291745850107, 0.000000000000000000 ) ) ;
#294 = FILL_AREA_STYLE ('',( #932 ) ) ;
#295 = EDGE_CURVE ( 'NONE', #235, #1048, #271, .T. ) ;
#296 = CARTESIAN_POINT ( 'NONE',  ( 5.800000000000017586, 67.41905249806701761, 7.102951435054662456E-16 ) ) ;
#297 = LINE ( 'NONE', #613, #124 ) ;
#298 = DIRECTION ( 'NONE',  ( 8.658536585366059171E-17, 1.000000000000000000, -0.000000000000000000 ) ) ;
#299 = DIRECTION ( 'NONE',  ( -1.000000000000000000, 0.000000000000000000, 0.000000000000000000 ) ) ;
#300 = CIRCLE ( 'NONE', #9, 5.749999999999974243 ) ;
#301 = AXIS2_PLACEMENT_3D ( 'NONE', #91, #329, #260 ) ;
#302 = CARTESIAN_POINT ( 'NONE',  ( 6.840243902439019260E-15, 78.99999999999805311, 0.000000000000000000 ) ) ;
#303 = ORIENTED_EDGE ( 'NONE', *, *, #699, .F. ) ;
#304 = VECTOR ( 'NONE', #671, 1000.000000000000000 ) ;
#305 = DIRECTION ( 'NONE',  ( 8.658536585366059171E-17, 1.000000000000000000, -0.000000000000000000 ) ) ;
#306 = DIRECTION ( 'NONE',  ( 8.658536585366059171E-17, 1.000000000000000000, -0.000000000000000000 ) ) ;
#307 = PRODUCT_CONTEXT ( 'NONE', #938, 'mechanical' ) ;
#308 = DIRECTION ( 'NONE',  ( -1.000000000000000000, 0.000000000000000000, 0.000000000000000000 ) ) ;
#309 = EDGE_CURVE ( 'NONE', #391, #909, #149, .T. ) ;
#310 = ORIENTED_EDGE ( 'NONE', *, *, #557, .F. ) ;
#311 = CARTESIAN_POINT ( 'NONE',  ( 7.100000000000000986E-15, 81.99999999999806732, 0.000000000000000000 ) ) ;
#312 = CARTESIAN_POINT ( 'NONE',  ( 10.00000000000022560, 81.99999999999806732, 1.224646799147379881E-15 ) ) ;
#313 = ADVANCED_FACE ( 'NONE', ( #369 ), #1000, .T. ) ;
#314 = CIRCLE ( 'NONE', #949, 12.49999999999998579 ) ;
#315 = ORIENTED_EDGE ( 'NONE', *, *, #967, .T. ) ;
#316 = AXIS2_PLACEMENT_3D ( 'NONE', #660, #1036, #407 ) ;
#317 = FACE_OUTER_BOUND ( 'NONE', #623, .T. ) ;
#318 = ORIENTED_EDGE ( 'NONE', *, *, #957, .F. ) ;
#319 = ADVANCED_FACE ( 'NONE', ( #375, #284 ), #135, .F. ) ;
#320 = ORIENTED_EDGE ( 'NONE', *, *, #994, .T. ) ;
#321 = DIRECTION ( 'NONE',  ( 8.658536585366059171E-17, 1.000000000000000000, -0.000000000000000000 ) ) ;
#322 = VERTEX_POINT ( 'NONE', #209 ) ;
#323 = DIRECTION ( 'NONE',  ( -1.000000000000000000, 0.000000000000000000, 0.000000000000000000 ) ) ;
#324 = EDGE_LOOP ( 'NONE', ( #975, #24, #492, #627 ) ) ;
#325 = CARTESIAN_POINT ( 'NONE',  ( 6.249999999999950262, 65.49999999999810996, 0.000000000000000000 ) ) ;
#326 = ADVANCED_FACE ( 'NONE', ( #527 ), #553, .T. ) ;
#327 = DIRECTION ( 'NONE',  ( 8.658536585366059171E-17, 1.000000000000000000, -0.000000000000000000 ) ) ;
#328 = VERTEX_POINT ( 'NONE', #1015 ) ;
#329 = DIRECTION ( 'NONE',  ( 8.658536585366059171E-17, 1.000000000000000000, -0.000000000000000000 ) ) ;
#330 = AXIS2_PLACEMENT_3D ( 'NONE', #404, #428, #976 ) ;
#331 = ORIENTED_EDGE ( 'NONE', *, *, #263, .T. ) ;
#332 = VECTOR ( 'NONE', #298, 1000.000000000000000 ) ;
#333 = CARTESIAN_POINT ( 'NONE',  ( 7.100000000000000986E-15, 81.99999999999806732, 0.000000000000000000 ) ) ;
#334 = TOROIDAL_SURFACE ( 'NONE', #13, 6.349999999999965894, 0.3999999999999981348 ) ;
#335 = AXIS2_PLACEMENT_3D ( 'NONE', #682, #666, #1011 ) ;
#336 = LINE ( 'NONE', #567, #208 ) ;
#337 = EDGE_LOOP ( 'NONE', ( #364, #889, #514 ) ) ;
#338 = ADVANCED_FACE ( 'NONE', ( #290 ), #902, .F. ) ;
#339 = CYLINDRICAL_SURFACE ( 'NONE', #883, 12.50000000000002132 ) ;
#340 = ADVANCED_FACE ( 'NONE', ( #743 ), #735, .T. ) ;
#341 = ORIENTED_EDGE ( 'NONE', *, *, #685, .T. ) ;
#342 = CARTESIAN_POINT ( 'NONE',  ( 1.777412618530576708E-15, 20.52786404500053763, 0.000000000000000000 ) ) ;
#343 = DIRECTION ( 'NONE',  ( -1.000000000000000000, 0.000000000000000000, 0.000000000000000000 ) ) ;
#344 = ORIENTED_EDGE ( 'NONE', *, *, #47, .F. ) ;
#345 = DIRECTION ( 'NONE',  ( 8.658536585366059171E-17, 1.000000000000000000, -0.000000000000000000 ) ) ;
#346 = EDGE_CURVE ( 'NONE', #42, #408, #70, .T. ) ;
#347 = CARTESIAN_POINT ( 'NONE',  ( 12.49999999999999112, 59.79999999999815685, 0.000000000000000000 ) ) ;
#348 = CARTESIAN_POINT ( 'NONE',  ( 5.204170427930421283E-15, 60.08660254037662440, 0.000000000000000000 ) ) ;
#349 = ORIENTED_EDGE ( 'NONE', *, *, #745, .T. ) ;
#350 = CARTESIAN_POINT ( 'NONE',  ( 7.100000000000000986E-15, 81.99999999999806732, 0.000000000000000000 ) ) ;
#351 = ORIENTED_EDGE ( 'NONE', *, *, #268, .F. ) ;
#352 = DIRECTION ( 'NONE',  ( -1.000000000000000000, 0.000000000000000000, 0.000000000000000000 ) ) ;
#353 = TOROIDAL_SURFACE ( 'NONE', #526, 5.800000000000002487, 0.7999999999999927169 ) ;
#354 = CARTESIAN_POINT ( 'NONE',  ( -12.29999999999997939, 59.99999999999820943, 1.518562030942716192E-15 ) ) ;
#355 = CIRCLE ( 'NONE', #620, 2.000000000004384049 ) ;
#356 = ORIENTED_EDGE ( 'NONE', *, *, #726, .F. ) ;
#357 = AXIS2_PLACEMENT_3D ( 'NONE', #985, #816, #401 ) ;
#358 = CARTESIAN_POINT ( 'NONE',  ( 6.067157287525340337, 60.81715728752354266, 7.430124752091440516E-16 ) ) ;
#359 = VERTEX_POINT ( 'NONE', #896 ) ;
#360 = DIRECTION ( 'NONE',  ( 1.000000000000000000, 0.000000000000000000, 1.224646799147351235E-16 ) ) ;
#361 = DIRECTION ( 'NONE',  ( -1.000000000000000000, 8.658536585366059171E-17, 0.000000000000000000 ) ) ;
#362 = CARTESIAN_POINT ( 'NONE',  ( -12.50000000000005862, 26.11803398872407911, 0.000000000000000000 ) ) ;
#363 = FACE_OUTER_BOUND ( 'NONE', #423, .T. ) ;
#364 = ORIENTED_EDGE ( 'NONE', *, *, #447, .F. ) ;
#365 = CARTESIAN_POINT ( 'NONE',  ( -12.49999999999998046, 59.79999999999815685, 0.000000000000000000 ) ) ;
#366 = DIRECTION ( 'NONE',  ( 8.658536585366059171E-17, 1.000000000000000000, -0.000000000000000000 ) ) ;
#367 = ADVANCED_FACE ( 'NONE', ( #898 ), #186, .F. ) ;
#368 = DIRECTION ( 'NONE',  ( 8.658536585366059171E-17, 1.000000000000000000, -0.000000000000000000 ) ) ;
#369 = FACE_OUTER_BOUND ( 'NONE', #687, .T. ) ;
#370 = ORIENTED_EDGE ( 'NONE', *, *, #25, .T. ) ;
#371 = DIRECTION ( 'NONE',  ( 1.000000000000000000, 0.000000000000000000, 0.000000000000000000 ) ) ;
#372 = CARTESIAN_POINT ( 'NONE',  ( 5.783767017012756761E-15, 66.79843597113166709, 0.000000000000000000 ) ) ;
#373 = CLOSED_SHELL ( 'NONE', ( #853, #117, #21, #326, #882, #143, #951, #657, #641, #697, #461, #921, #471, #555, #510, #367, #389, #340, #662, #1016, #49, #110, #319, #546, #283, #160, #456, #780, #112, #92, #646, #774, #338, #377, #790, #313, #133, #397, #940, #398 ) ) ;
#374 = AXIS2_PLACEMENT_3D ( 'NONE', #541, #599, #859 ) ;
#375 = FACE_BOUND ( 'NONE', #200, .T. ) ;
#376 = CONICAL_SURFACE ( 'NONE', #814, 6.249999999999944045, 0.7853981633974188581 ) ;
#377 = ADVANCED_FACE ( 'NONE', ( #487 ), #674, .T. ) ;
#378 = FACE_OUTER_BOUND ( 'NONE', #1018, .T. ) ;
#379 = PRESENTATION_STYLE_ASSIGNMENT (( #545 ) ) ;
#380 = CARTESIAN_POINT ( 'NONE',  ( 1.777412618530576708E-15, 20.52786404500053763, 0.000000000000000000 ) ) ;
#381 = LINE ( 'NONE', #535, #811 ) ;
#382 = LINE ( 'NONE', #466, #225 ) ;
#383 = CARTESIAN_POINT ( 'NONE',  ( -5.800000000000006040, 67.41905249806701761, 0.000000000000000000 ) ) ;
#384 = ORIENTED_EDGE ( 'NONE', *, *, #25, .F. ) ;
#385 = AXIS2_PLACEMENT_3D ( 'NONE', #498, #464, #585 ) ;
#386 = PRODUCT_RELATED_PRODUCT_CATEGORY ( 'part', '', ( #632 ) ) ;
#387 =( NAMED_UNIT ( * ) PLANE_ANGLE_UNIT ( ) SI_UNIT ( $, .RADIAN. ) );
#388 = DIRECTION ( 'NONE',  ( 1.000000000000000000, 0.000000000000000000, 0.000000000000000000 ) ) ;
#389 = ADVANCED_FACE ( 'NONE', ( #166 ), #705, .T. ) ;
#390 = VERTEX_POINT ( 'NONE', #8 ) ;
#391 = VERTEX_POINT ( 'NONE', #724 ) ;
#392 = ORIENTED_EDGE ( 'NONE', *, *, #895, .T. ) ;
#393 = EDGE_CURVE ( 'NONE', #558, #390, #484, .T. ) ;
#394 = ORIENTED_EDGE ( 'NONE', *, *, #590, .T. ) ;
#395 = ORIENTED_EDGE ( 'NONE', *, *, #230, .T. ) ;
#396 = DIRECTION ( 'NONE',  ( 8.658536585366059171E-17, 1.000000000000000000, -0.000000000000000000 ) ) ;
#397 = ADVANCED_FACE ( 'NONE', ( #817 ), #83, .T. ) ;
#398 = ADVANCED_FACE ( 'NONE', ( #1050 ), #916, .T. ) ;
#399 = ORIENTED_EDGE ( 'NONE', *, *, #1027, .F. ) ;
#400 = AXIS2_PLACEMENT_3D ( 'NONE', #580, #84, #905 ) ;
#401 = DIRECTION ( 'NONE',  ( -1.000000000000000000, 0.000000000000000000, 0.000000000000000000 ) ) ;
#402 = VECTOR ( 'NONE', #61, 1000.000000000000000 ) ;
#403 = CARTESIAN_POINT ( 'NONE',  ( 5.177804878048744419E-15, 59.79999999999815685, 0.000000000000000000 ) ) ;
#404 = CARTESIAN_POINT ( 'NONE',  ( 5.265875813919846932E-15, 60.81715728752354266, 0.000000000000000000 ) ) ;
#405 = VERTEX_POINT ( 'NONE', #974 ) ;
#406 = DIRECTION ( 'NONE',  ( 0.7071067811865265895, -0.7071067811865684449, 0.000000000000000000 ) ) ;
#407 = DIRECTION ( 'NONE',  ( -1.000000000000000000, 0.000000000000000000, 0.000000000000000000 ) ) ;
#408 = VERTEX_POINT ( 'NONE', #245 ) ;
#409 = ORIENTED_EDGE ( 'NONE', *, *, #1039, .F. ) ;
#410 = DIRECTION ( 'NONE',  ( -1.000000000000000000, 0.000000000000000000, 0.000000000000000000 ) ) ;
#411 = EDGE_CURVE ( 'NONE', #988, #993, #524, .T. ) ;
#412 = CARTESIAN_POINT ( 'NONE',  ( 5.204170427930421283E-15, 60.53431457504893842, 0.000000000000000000 ) ) ;
#413 = VERTEX_POINT ( 'NONE', #911 ) ;
#414 = LINE ( 'NONE', #907, #203 ) ;
#415 = CIRCLE ( 'NONE', #330, 6.067157287525335008 ) ;
#416 = EDGE_LOOP ( 'NONE', ( #6, #824, #1005, #384 ) ) ;
#417 = EDGE_CURVE ( 'NONE', #239, #739, #336, .T. ) ;
#418 = DIRECTION ( 'NONE',  ( -1.000000000000000000, 0.000000000000000000, 0.000000000000000000 ) ) ;
#419 = CIRCLE ( 'NONE', #123, 2.000000000004384049 ) ;
#420 = AXIS2_PLACEMENT_3D ( 'NONE', #958, #642, #830 ) ;
#421 = AXIS2_PLACEMENT_3D ( 'NONE', #311, #956, #147 ) ;
#422 = CYLINDRICAL_SURFACE ( 'NONE', #274, 6.249999999999944933 ) ;
#423 = EDGE_LOOP ( 'NONE', ( #1004, #502, #432, #650 ) ) ;
#424 = CARTESIAN_POINT ( 'NONE',  ( -6.550000000000006928, 59.74019237886277267, 0.000000000000000000 ) ) ;
#425 = ORIENTED_EDGE ( 'NONE', *, *, #843, .F. ) ;
#426 = LINE ( 'NONE', #931, #151 ) ;
#427 = ORIENTED_EDGE ( 'NONE', *, *, #959, .T. ) ;
#428 = DIRECTION ( 'NONE',  ( 8.658536585366059171E-17, 1.000000000000000000, -0.000000000000000000 ) ) ;
#429 = FACE_OUTER_BOUND ( 'NONE', #324, .T. ) ;
#430 = EDGE_LOOP ( 'NONE', ( #899, #80, #771, #1051 ) ) ;
#431 = CARTESIAN_POINT ( 'NONE',  ( 5.172626413291898864E-15, 59.74019237886277267, 0.000000000000000000 ) ) ;
#432 = ORIENTED_EDGE ( 'NONE', *, *, #60, .T. ) ;
#433 = DIRECTION ( 'NONE',  ( 8.658536585366059171E-17, 1.000000000000000000, -0.000000000000000000 ) ) ;
#434 = CIRCLE ( 'NONE', #518, 6.000000000000000000 ) ;
#435 = CONICAL_SURFACE ( 'NONE', #81, 12.49999999999998579, 0.7853981633973312615 ) ;
#436 = CARTESIAN_POINT ( 'NONE',  ( 5.250000000000002665, 67.99999999999812417, 6.429395695523600208E-16 ) ) ;
#437 = CIRCLE ( 'NONE', #469, 0.3999999999999984679 ) ;
#438 = AXIS2_PLACEMENT_3D ( 'NONE', #62, #306, #19 ) ;
#439 = VECTOR ( 'NONE', #584, 1000.000000000000114 ) ;
#440 = DIRECTION ( 'NONE',  ( -1.000000000000000000, 0.000000000000000000, 0.000000000000000000 ) ) ;
#441 = VECTOR ( 'NONE', #763, 1000.000000000000000 ) ;
#442 = EDGE_LOOP ( 'NONE', ( #161, #730, #175, #839 ) ) ;
#443 = DIRECTION ( 'NONE',  ( 8.658536585366059171E-17, 1.000000000000000000, -0.000000000000000000 ) ) ;
#444 = CARTESIAN_POINT ( 'NONE',  ( 7.100000000000000986E-15, 81.99999999999806732, 0.000000000000000000 ) ) ;
#445 = DIRECTION ( 'NONE',  ( 1.000000000000000000, 0.000000000000000000, 0.000000000000000000 ) ) ;
#446 = VERTEX_POINT ( 'NONE', #89 ) ;
#447 = EDGE_CURVE ( 'NONE', #279, #709, #101, .T. ) ;
#448 = CARTESIAN_POINT ( 'NONE',  ( 5.783767017012756761E-15, 66.79843597113166709, 0.000000000000000000 ) ) ;
#449 = FACE_OUTER_BOUND ( 'NONE', #629, .T. ) ;
#450 = EDGE_CURVE ( 'NONE', #1044, #405, #720, .T. ) ;
#451 = FACE_OUTER_BOUND ( 'NONE', #593, .T. ) ;
#452 = CARTESIAN_POINT ( 'NONE',  ( -5.799999999999997158, 66.79843597113166709, 0.000000000000000000 ) ) ;
#453 = CARTESIAN_POINT ( 'NONE',  ( 2.261439528292016751E-15, 26.11803398872407911, 0.000000000000000000 ) ) ;
#454 = CIRCLE ( 'NONE', #551, 6.550000000000012257 ) ;
#455 = DIRECTION ( 'NONE',  ( -0.8660254037843978514, 0.5000000000000707212, 0.000000000000000000 ) ) ;
#456 = ADVANCED_FACE ( 'NONE', ( #574 ), #334, .F. ) ;
#457 = CARTESIAN_POINT ( 'NONE',  ( -2.000000000004384049, 1.154700538382000374, 0.000000000000000000 ) ) ;
#458 = AXIS2_PLACEMENT_3D ( 'NONE', #710, #786, #142 ) ;
#459 = ORIENTED_EDGE ( 'NONE', *, *, #12, .F. ) ;
#460 = DIRECTION ( 'NONE',  ( -0.7071067811864401031, 0.7071067811866549313, 0.000000000000000000 ) ) ;
#461 = ADVANCED_FACE ( 'NONE', ( #823 ), #422, .T. ) ;
#462 = DIRECTION ( 'NONE',  ( -1.000000000000000000, 0.000000000000000000, 0.000000000000000000 ) ) ;
#463 = FACE_OUTER_BOUND ( 'NONE', #181, .T. ) ;
#464 = DIRECTION ( 'NONE',  ( 8.658536585366059171E-17, 1.000000000000000000, -0.000000000000000000 ) ) ;
#465 = ORIENTED_EDGE ( 'NONE', *, *, #447, .T. ) ;
#466 = CARTESIAN_POINT ( 'NONE',  ( 7.000000000000163425, 59.99999999999818812, 8.572527594031666461E-16 ) ) ;
#467 = VECTOR ( 'NONE', #220, 999.9999999999998863 ) ;
#468 = LINE ( 'NONE', #312, #1045 ) ;
#469 = AXIS2_PLACEMENT_3D ( 'NONE', #280, #659, #360 ) ;
#470 = CARTESIAN_POINT ( 'NONE',  ( 12.49999999999999112, 59.79999999999815685, 1.530808498934191916E-15 ) ) ;
#471 = ADVANCED_FACE ( 'NONE', ( #449 ), #621, .F. ) ;
#472 = ORIENTED_EDGE ( 'NONE', *, *, #843, .T. ) ;
#473 = ORIENTED_EDGE ( 'NONE', *, *, #808, .T. ) ;
#474 = DIRECTION ( 'NONE',  ( -1.000000000000000000, 0.000000000000000000, 0.000000000000000000 ) ) ;
#475 = EDGE_CURVE ( 'NONE', #927, #73, #605, .T. ) ;
#476 = DIRECTION ( 'NONE',  ( 8.658536585366059171E-17, 1.000000000000000000, -0.000000000000000000 ) ) ;
#477 = DIRECTION ( 'NONE',  ( 8.658536585366059171E-17, 1.000000000000000000, -0.000000000000000000 ) ) ;
#478 = ORIENTED_EDGE ( 'NONE', *, *, #957, .T. ) ;
#479 = ORIENTED_EDGE ( 'NONE', *, *, #137, .F. ) ;
#480 = CIRCLE ( 'NONE', #31, 12.29999999999998472 ) ;
#481 = AXIS2_PLACEMENT_3D ( 'NONE', #651, #507, #825 ) ;
#482 = ORIENTED_EDGE ( 'NONE', *, *, #150, .F. ) ;
#483 = CONICAL_SURFACE ( 'NONE', #854, 2.000000000004384049, 0.7853981633968926124 ) ;
#484 = CIRCLE ( 'NONE', #982, 0.8000000000000064837 ) ;
#485 = CARTESIAN_POINT ( 'NONE',  ( -4.999999999999997335, 81.99999999999806732, 0.000000000000000000 ) ) ;
#486 = CIRCLE ( 'NONE', #458, 0.7999999999999926059 ) ;
#487 = FACE_OUTER_BOUND ( 'NONE', #430, .T. ) ;
#488 = VERTEX_POINT ( 'NONE', #354 ) ;
#489 = CARTESIAN_POINT ( 'NONE',  ( -10.00000000000028599, 20.52786404500053763, 0.000000000000000000 ) ) ;
#490 = ORIENTED_EDGE ( 'NONE', *, *, #494, .T. ) ;
#491 = CYLINDRICAL_SURFACE ( 'NONE', #66, 6.000000000000000000 ) ;
#492 = ORIENTED_EDGE ( 'NONE', *, *, #295, .T. ) ;
#493 = CARTESIAN_POINT ( 'NONE',  ( 5.250000000000001776, 67.99999999999812417, 6.429395695523600208E-16 ) ) ;
#494 = EDGE_CURVE ( 'NONE', #446, #390, #1019, .T. ) ;
#495 = EDGE_LOOP ( 'NONE', ( #977, #153, #320, #370 ) ) ;
#496 = DIRECTION ( 'NONE',  ( 8.658536585366059171E-17, 1.000000000000000000, -0.000000000000000000 ) ) ;
#497 = EDGE_CURVE ( 'NONE', #413, #87, #426, .T. ) ;
#498 = CARTESIAN_POINT ( 'NONE',  ( 5.172626413291898864E-15, 59.74019237886277267, 0.000000000000000000 ) ) ;
#499 = VERTEX_POINT ( 'NONE', #286 ) ;
#500 = DIRECTION ( 'NONE',  ( 8.658536585366059171E-17, 1.000000000000000000, -0.000000000000000000 ) ) ;
#501 = CIRCLE ( 'NONE', #32, 0.4000000000000270561 ) ;
#502 = ORIENTED_EDGE ( 'NONE', *, *, #808, .F. ) ;
#503 = CARTESIAN_POINT ( 'NONE',  ( 6.071532165918824830E-15, 67.41905249806701761, 0.000000000000000000 ) ) ;
#504 = CIRCLE ( 'NONE', #950, 7.000000000000158096 ) ;
#505 = CARTESIAN_POINT ( 'NONE',  ( 5.749999999999979572, 65.99999999999810996, 0.000000000000000000 ) ) ;
#506 = VERTEX_POINT ( 'NONE', #39 ) ;
#507 = DIRECTION ( 'NONE',  ( 8.658536585366059171E-17, 1.000000000000000000, -0.000000000000000000 ) ) ;
#508 = EDGE_LOOP ( 'NONE', ( #802, #185, #954, #881 ) ) ;
#509 = ORIENTED_EDGE ( 'NONE', *, *, #539, .F. ) ;
#510 = ADVANCED_FACE ( 'NONE', ( #1007 ), #165, .F. ) ;
#511 = DIRECTION ( 'NONE',  ( -1.000000000000000000, 0.000000000000000000, 0.000000000000000000 ) ) ;
#512 = ORIENTED_EDGE ( 'NONE', *, *, #768, .F. ) ;
#513 = CARTESIAN_POINT ( 'NONE',  ( 7.100000000000000986E-15, 81.99999999999806732, 0.000000000000000000 ) ) ;
#514 = ORIENTED_EDGE ( 'NONE', *, *, #959, .F. ) ;
#515 = DIRECTION ( 'NONE',  ( -1.000000000000000000, 0.000000000000000000, 0.000000000000000000 ) ) ;
#516 = VERTEX_POINT ( 'NONE', #197 ) ;
#517 = CARTESIAN_POINT ( 'NONE',  ( 9.998016856722482941E-17, 1.154700538382000374, 0.000000000000000000 ) ) ;
#518 = AXIS2_PLACEMENT_3D ( 'NONE', #556, #321, #890 ) ;
#519 =( GEOMETRIC_REPRESENTATION_CONTEXT ( 3 ) GLOBAL_UNCERTAINTY_ASSIGNED_CONTEXT ( ( #648 ) ) GLOBAL_UNIT_ASSIGNED_CONTEXT ( ( #864, #145, #698 ) ) REPRESENTATION_CONTEXT ( 'NONE', 'WORKASPACE' ) );
#520 = DIRECTION ( 'NONE',  ( 8.658536585366059171E-17, 1.000000000000000000, -0.000000000000000000 ) ) ;
#521 = AXIS2_PLACEMENT_3D ( 'NONE', #503, #106, #201 ) ;
#522 = PRESENTATION_LAYER_ASSIGNMENT (  '', '', ( #603 ) ) ;
#523 = CIRCLE ( 'NONE', #335, 6.249999999999944933 ) ;
#524 = CIRCLE ( 'NONE', #34, 7.000000000000158096 ) ;
#525 = DIRECTION ( 'NONE',  ( -1.000000000000000000, 0.000000000000000000, 0.000000000000000000 ) ) ;
#526 = AXIS2_PLACEMENT_3D ( 'NONE', #75, #548, #233 ) ;
#527 = FACE_OUTER_BOUND ( 'NONE', #508, .T. ) ;
#528 = EDGE_CURVE ( 'NONE', #105, #4, #120, .T. ) ;
#529 = CARTESIAN_POINT ( 'NONE',  ( 5.195121951219479111E-15, 59.99999999999818812, 0.000000000000000000 ) ) ;
#530 = EDGE_CURVE ( 'NONE', #506, #154, #604, .T. ) ;
#531 = DIRECTION ( 'NONE',  ( -1.000000000000000000, 0.000000000000000000, 0.000000000000000000 ) ) ;
#532 =( NAMED_UNIT ( * ) SI_UNIT ( $, .STERADIAN. ) SOLID_ANGLE_UNIT ( ) );
#533 = CARTESIAN_POINT ( 'NONE',  ( -5.950000000000001066, 60.08660254037661019, 0.000000000000000000 ) ) ;
#534 = CARTESIAN_POINT ( 'NONE',  ( 6.000000000000007105, 78.99999999999805311, 0.000000000000000000 ) ) ;
#535 = CARTESIAN_POINT ( 'NONE',  ( -10.00000000000021139, 81.99999999999806732, 0.000000000000000000 ) ) ;
#536 =( NAMED_UNIT ( * ) PLANE_ANGLE_UNIT ( ) SI_UNIT ( $, .RADIAN. ) );
#537 = CARTESIAN_POINT ( 'NONE',  ( 2.000000000004384049, 1.154700538382000152, 2.449293598300075106E-16 ) ) ;
#538 = VECTOR ( 'NONE', #293, 1000.000000000000000 ) ;
#539 = EDGE_CURVE ( 'NONE', #559, #391, #598, .T. ) ;
#540 = AXIS2_PLACEMENT_3D ( 'NONE', #302, #41, #445 ) ;
#541 = CARTESIAN_POINT ( 'NONE',  ( 5.887804878048757139E-15, 67.99999999999812417, 0.000000000000000000 ) ) ;
#542 = AXIS2_PLACEMENT_3D ( 'NONE', #403, #992, #159 ) ;
#543 = AXIS2_PLACEMENT_3D ( 'NONE', #544, #800, #942 ) ;
#544 = CARTESIAN_POINT ( 'NONE',  ( 5.952743902439002373E-15, 68.74999999999812417, 0.000000000000000000 ) ) ;
#545 = SURFACE_STYLE_USAGE ( .BOTH. , #782 ) ;
#546 = ADVANCED_FACE ( 'NONE', ( #676 ), #1002, .F. ) ;
#547 = ORIENTED_EDGE ( 'NONE', *, *, #973, .F. ) ;
#548 = DIRECTION ( 'NONE',  ( 8.658536585366059171E-17, 1.000000000000000000, -0.000000000000000000 ) ) ;
#549 = UNCERTAINTY_MEASURE_WITH_UNIT (LENGTH_MEASURE( 1.000000000000000082E-05 ), #57, 'distance_accuracy_value', 'NONE');
#550 = FACE_OUTER_BOUND ( 'NONE', #656, .T. ) ;
#551 = AXIS2_PLACEMENT_3D ( 'NONE', #431, #206, #525 ) ;
#552 = ORIENTED_EDGE ( 'NONE', *, *, #530, .T. ) ;
#553 = CONICAL_SURFACE ( 'NONE', #857, 6.000000000000000000, 0.5235987755982907110 ) ;
#554 = CIRCLE ( 'NONE', #607, 10.00000000000014921 ) ;
#555 = ADVANCED_FACE ( 'NONE', ( #667 ), #202, .T. ) ;
#556 = CARTESIAN_POINT ( 'NONE',  ( 6.840243902439019260E-15, 78.99999999999805311, 0.000000000000000000 ) ) ;
#557 = EDGE_CURVE ( 'NONE', #1030, #328, #554, .T. ) ;
#558 = VERTEX_POINT ( 'NONE', #1012 ) ;
#559 = VERTEX_POINT ( 'NONE', #183 ) ;
#560 = ORIENTED_EDGE ( 'NONE', *, *, #411, .F. ) ;
#561 = CARTESIAN_POINT ( 'NONE',  ( 5.202620463862000338E-15, 60.08660254037661019, 0.000000000000000000 ) ) ;
#562 = CARTESIAN_POINT ( 'NONE',  ( 7.100000000000000986E-15, 81.99999999999806732, 0.000000000000000000 ) ) ;
#563 = ORIENTED_EDGE ( 'NONE', *, *, #191, .F. ) ;
#564 = ORIENTED_EDGE ( 'NONE', *, *, #895, .F. ) ;
#565 = ORIENTED_EDGE ( 'NONE', *, *, #217, .T. ) ;
#566 = CARTESIAN_POINT ( 'NONE',  ( 5.714634146341436251E-15, 65.99999999999810996, 0.000000000000000000 ) ) ;
#567 = CARTESIAN_POINT ( 'NONE',  ( 12.50000000000002842, 81.99999999999806732, 1.530808498934194085E-15 ) ) ;
#568 = EDGE_LOOP ( 'NONE', ( #980, #248, #238, #984 ) ) ;
#569 = DIRECTION ( 'NONE',  ( -1.000000000000000000, 0.000000000000000000, 0.000000000000000000 ) ) ;
#570 = CIRCLE ( 'NONE', #758, 12.29999999999998472 ) ;
#571 = ORIENTED_EDGE ( 'NONE', *, *, #393, .T. ) ;
#572 = CIRCLE ( 'NONE', #210, 6.000000000000000000 ) ;
#573 = CARTESIAN_POINT ( 'NONE',  ( -12.49999999999998046, 59.79999999999815685, 1.530808498934189746E-15 ) ) ;
#574 = FACE_OUTER_BOUND ( 'NONE', #799, .T. ) ;
#575 = ORIENTED_EDGE ( 'NONE', *, *, #1031, .F. ) ;
#576 = DIRECTION ( 'NONE',  ( 8.658536585366059171E-17, 1.000000000000000000, -0.000000000000000000 ) ) ;
#577 = EDGE_CURVE ( 'NONE', #148, #239, #675, .T. ) ;
#578 = ORIENTED_EDGE ( 'NONE', *, *, #309, .F. ) ;
#579 = CARTESIAN_POINT ( 'NONE',  ( 5.241385774181192090E-15, 60.53431457504895263, 0.000000000000000000 ) ) ;
#580 = CARTESIAN_POINT ( 'NONE',  ( 6.071532165918824830E-15, 67.41905249806701761, 0.000000000000000000 ) ) ;
#581 = ORIENTED_EDGE ( 'NONE', *, *, #734, .F. ) ;
#582 = CARTESIAN_POINT ( 'NONE',  ( 6.350000000000038725, 60.08660254037662440, 7.776507174585733578E-16 ) ) ;
#583 = EDGE_CURVE ( 'NONE', #212, #559, #862, .T. ) ;
#584 = DIRECTION ( 'NONE',  ( 0.4082482904654100575, 0.9128709291745848997, 4.999599621758432979E-17 ) ) ;
#585 = DIRECTION ( 'NONE',  ( -1.000000000000000000, 0.000000000000000000, 0.000000000000000000 ) ) ;
#586 = EDGE_LOOP ( 'NONE', ( #125, #35, #848, #783 ) ) ;
#587 = FACE_OUTER_BOUND ( 'NONE', #115, .T. ) ;
#588 = VERTEX_POINT ( 'NONE', #46 ) ;
#589 = CARTESIAN_POINT ( 'NONE',  ( -7.000000000000153655, 59.99999999999818812, 0.000000000000000000 ) ) ;
#590 = EDGE_CURVE ( 'NONE', #235, #162, #809, .T. ) ;
#591 = CARTESIAN_POINT ( 'NONE',  ( 5.204170427930421283E-15, 60.53431457504893842, 0.000000000000000000 ) ) ;
#592 = ORIENTED_EDGE ( 'NONE', *, *, #497, .T. ) ;
#593 = EDGE_LOOP ( 'NONE', ( #665, #78, #11, #564 ) ) ;
#594 = FACE_OUTER_BOUND ( 'NONE', #892, .T. ) ;
#595 = DIRECTION ( 'NONE',  ( 8.658536585366059171E-17, 1.000000000000000000, -0.000000000000000000 ) ) ;
#596 = DIRECTION ( 'NONE',  ( -8.658536585366059171E-17, -1.000000000000000000, 0.000000000000000000 ) ) ;
#597 = ORIENTED_EDGE ( 'NONE', *, *, #204, .F. ) ;
#598 = LINE ( 'NONE', #127, #1035 ) ;
#599 = DIRECTION ( 'NONE',  ( 8.658536585366059171E-17, 1.000000000000000000, -0.000000000000000000 ) ) ;
#600 = DIRECTION ( 'NONE',  ( 1.000000000000000000, -8.658536585366059171E-17, 0.000000000000000000 ) ) ;
#601 = EDGE_LOOP ( 'NONE', ( #852, #966, #592, #971 ) ) ;
#602 = DIRECTION ( 'NONE',  ( -0.4999999999999930056, -0.8660254037844427044, 6.123233995736679754E-17 ) ) ;
#603 = STYLED_ITEM ( 'NONE', ( #379 ), #292 ) ;
#604 = LINE ( 'NONE', #749, #441 ) ;
#605 = CIRCLE ( 'NONE', #224, 10.00000000000028777 ) ;
#606 = CONICAL_SURFACE ( 'NONE', #761, 10.00000000000028777, 0.4205343352856598105 ) ;
#607 = AXIS2_PLACEMENT_3D ( 'NONE', #44, #366, #192 ) ;
#608 = VERTEX_POINT ( 'NONE', #505 ) ;
#609 = DIRECTION ( 'NONE',  ( 0.7071067811865492381, 0.7071067811865457964, 8.659560562354952580E-17 ) ) ;
#610 = LINE ( 'NONE', #769, #538 ) ;
#611 = DIRECTION ( 'NONE',  ( -1.000000000000000000, 0.000000000000000000, 0.000000000000000000 ) ) ;
#612 = DIRECTION ( 'NONE',  ( 0.8660254037844394848, 0.4999999999999985012, 1.060575238724907901E-16 ) ) ;
#613 = CARTESIAN_POINT ( 'NONE',  ( 0.000000000000000000, 0.000000000000000000, 0.000000000000000000 ) ) ;
#614 = CARTESIAN_POINT ( 'NONE',  ( 5.887804878048757139E-15, 67.99999999999812417, 0.000000000000000000 ) ) ;
#615 = CARTESIAN_POINT ( 'NONE',  ( 0.000000000000000000, 0.000000000000000000, 0.000000000000000000 ) ) ;
#616 = DIRECTION ( 'NONE',  ( 8.658536585366059171E-17, 1.000000000000000000, -0.000000000000000000 ) ) ;
#617 = AXIS2_PLACEMENT_3D ( 'NONE', #561, #476, #723 ) ;
#618 = AXIS2_PLACEMENT_3D ( 'NONE', #350, #731, #569 ) ;
#619 = CIRCLE ( 'NONE', #760, 6.067157287525335008 ) ;
#620 = AXIS2_PLACEMENT_3D ( 'NONE', #684, #863, #866 ) ;
#621 = TOROIDAL_SURFACE ( 'NONE', #935, 6.349999999999965894, 0.3999999999999981348 ) ;
#622 = CIRCLE ( 'NONE', #141, 0.8000000000000064837 ) ;
#623 = EDGE_LOOP ( 'NONE', ( #732, #803, #256, #278 ) ) ;
#624 = APPLICATION_PROTOCOL_DEFINITION ( 'draft international standard', 'automotive_design', 1998, #938 ) ;
#625 = LINE ( 'NONE', #573, #708 ) ;
#626 = DIRECTION ( 'NONE',  ( -0.000000000000000000, 0.000000000000000000, -1.000000000000000000 ) ) ;
#627 = ORIENTED_EDGE ( 'NONE', *, *, #821, .T. ) ;
#628 = LINE ( 'NONE', #713, #402 ) ;
#629 = EDGE_LOOP ( 'NONE', ( #93, #63, #392, #645 ) ) ;
#630 = CARTESIAN_POINT ( 'NONE',  ( 9.998016856722482941E-17, 1.154700538382000374, 0.000000000000000000 ) ) ;
#631 = CIRCLE ( 'NONE', #374, 5.249999999999996447 ) ;
#632 = PRODUCT ( '99688-SI20-M12+S9MT2004-090', '99688-SI20-M12+S9MT2004-090', '', ( #307 ) ) ;
#633 = ORIENTED_EDGE ( 'NONE', *, *, #194, .F. ) ;
#634 = AXIS2_PLACEMENT_3D ( 'NONE', #96, #327, #231 ) ;
#635 = VECTOR ( 'NONE', #996, 1000.000000000000000 ) ;
#636 = ORIENTED_EDGE ( 'NONE', *, *, #734, .T. ) ;
#637 = DIRECTION ( 'NONE',  ( -1.000000000000000000, 0.000000000000000000, 0.000000000000000000 ) ) ;
#638 = ORIENTED_EDGE ( 'NONE', *, *, #987, .T. ) ;
#639 = ORIENTED_EDGE ( 'NONE', *, *, #137, .T. ) ;
#640 = DIRECTION ( 'NONE',  ( -1.000000000000000000, 0.000000000000000000, 0.000000000000000000 ) ) ;
#641 = ADVANCED_FACE ( 'NONE', ( #269 ), #886, .F. ) ;
#642 = DIRECTION ( 'NONE',  ( 8.658536585366059171E-17, 1.000000000000000000, -0.000000000000000000 ) ) ;
#643 = ORIENTED_EDGE ( 'NONE', *, *, #60, .F. ) ;
#644 = DIRECTION ( 'NONE',  ( 8.658536585366059171E-17, 1.000000000000000000, -0.000000000000000000 ) ) ;
#645 = ORIENTED_EDGE ( 'NONE', *, *, #450, .F. ) ;
#646 = ADVANCED_FACE ( 'NONE', ( #429 ), #353, .F. ) ;
#647 = CARTESIAN_POINT ( 'NONE',  ( 7.100000000000000986E-15, 81.99999999999806732, 0.000000000000000000 ) ) ;
#648 = UNCERTAINTY_MEASURE_WITH_UNIT (LENGTH_MEASURE( 1.000000000000000082E-05 ), #864, 'distance_accuracy_value', 'NONE');
#649 = DIRECTION ( 'NONE',  ( 8.658536585366059171E-17, 1.000000000000000000, -0.000000000000000000 ) ) ;
#650 = ORIENTED_EDGE ( 'NONE', *, *, #346, .T. ) ;
#651 = CARTESIAN_POINT ( 'NONE',  ( 8.658536585366058579E-14, 1000.000000000000000, 0.000000000000000000 ) ) ;
#652 = AXIS2_PLACEMENT_3D ( 'NONE', #764, #878, #611 ) ;
#653 = EDGE_LOOP ( 'NONE', ( #394, #962, #934, #425 ) ) ;
#654 = FACE_OUTER_BOUND ( 'NONE', #139, .T. ) ;
#655 = CARTESIAN_POINT ( 'NONE',  ( -6.349999999999960565, 60.53431457504893842, 0.000000000000000000 ) ) ;
#656 = EDGE_LOOP ( 'NONE', ( #1, #906, #924, #479 ) ) ;
#657 = ADVANCED_FACE ( 'NONE', ( #872 ), #880, .T. ) ;
#658 = EDGE_LOOP ( 'NONE', ( #581, #351, #571, #395 ) ) ;
#659 = DIRECTION ( 'NONE',  ( -1.224646799147353207E-16, 1.060364911456879714E-32, 1.000000000000000000 ) ) ;
#660 = CARTESIAN_POINT ( 'NONE',  ( 5.195121951219479111E-15, 59.99999999999818812, 0.000000000000000000 ) ) ;
#661 = EDGE_LOOP ( 'NONE', ( #459, #121, #331, #888 ) ) ;
#662 = ADVANCED_FACE ( 'NONE', ( #550 ), #797, .T. ) ;
#663 = CARTESIAN_POINT ( 'NONE',  ( 5.241385774181192090E-15, 60.53431457504895263, 0.000000000000000000 ) ) ;
#664 = EDGE_CURVE ( 'NONE', #1048, #909, #628, .T. ) ;
#665 = ORIENTED_EDGE ( 'NONE', *, *, #530, .F. ) ;
#666 = DIRECTION ( 'NONE',  ( 8.658536585366059171E-17, 1.000000000000000000, -0.000000000000000000 ) ) ;
#667 = FACE_OUTER_BOUND ( 'NONE', #831, .T. ) ;
#668 = ORIENTED_EDGE ( 'NONE', *, *, #968, .F. ) ;
#669 = DIRECTION ( 'NONE',  ( -8.658536585366059171E-17, -1.000000000000000000, 0.000000000000000000 ) ) ;
#670 = AXIS2_PLACEMENT_3D ( 'NONE', #134, #943, #1014 ) ;
#671 = DIRECTION ( 'NONE',  ( 0.7071067811861546648, 0.7071067811869403696, 8.659560562350120807E-17 ) ) ;
#672 = EDGE_CURVE ( 'NONE', #328, #1030, #983, .T. ) ;
#673 = CONICAL_SURFACE ( 'NONE', #873, 6.067157287525335008, 0.7853981633972965115 ) ;
#674 = CONICAL_SURFACE ( 'NONE', #634, 5.249999999999996447, 0.7853981633974506105 ) ;
#675 = CIRCLE ( 'NONE', #834, 12.50000000000006040 ) ;
#676 = FACE_OUTER_BOUND ( 'NONE', #30, .T. ) ;
#677 = DIRECTION ( 'NONE',  ( 1.000000000000000000, 0.000000000000000000, 1.224646799147352961E-16 ) ) ;
#678 = ORIENTED_EDGE ( 'NONE', *, *, #55, .F. ) ;
#679 = FACE_OUTER_BOUND ( 'NONE', #259, .T. ) ;
#680 = DIRECTION ( 'NONE',  ( 8.658536585366059171E-17, 1.000000000000000000, -0.000000000000000000 ) ) ;
#681 = CARTESIAN_POINT ( 'NONE',  ( 5.671341463414605832E-15, 65.49999999999810996, 0.000000000000000000 ) ) ;
#682 = CARTESIAN_POINT ( 'NONE',  ( 5.671341463414605832E-15, 65.49999999999810996, 0.000000000000000000 ) ) ;
#683 = DIRECTION ( 'NONE',  ( 8.658536585366059171E-17, 1.000000000000000000, -0.000000000000000000 ) ) ;
#684 = CARTESIAN_POINT ( 'NONE',  ( 9.998016856722482941E-17, 1.154700538382000374, 0.000000000000000000 ) ) ;
#685 = EDGE_CURVE ( 'NONE', #408, #993, #382, .T. ) ;
#686 = DIRECTION ( 'NONE',  ( 1.000000000000000000, 0.000000000000000000, 0.000000000000000000 ) ) ;
#687 = EDGE_LOOP ( 'NONE', ( #409, #216, #736, #638 ) ) ;
#688 = CONICAL_SURFACE ( 'NONE', #301, 2.000000000004384049, 0.7853981633968926124 ) ;
#689 = FILL_AREA_STYLE ('',( #955 ) ) ;
#690 = AXIS2_PLACEMENT_3D ( 'NONE', #681, #775, #59 ) ;
#691 = DIRECTION ( 'NONE',  ( 8.658536585366059171E-17, 1.000000000000000000, -0.000000000000000000 ) ) ;
#692 = CIRCLE ( 'NONE', #52, 5.749999999999974243 ) ;
#693 = CARTESIAN_POINT ( 'NONE',  ( 5.000000000000011546, 81.99999999999806732, 6.123233995736772199E-16 ) ) ;
#694 = PRESENTATION_STYLE_ASSIGNMENT (( #65 ) ) ;
#695 = DIRECTION ( 'NONE',  ( 8.658536585366059171E-17, 1.000000000000000000, -0.000000000000000000 ) ) ;
#696 = PRODUCT_DEFINITION_CONTEXT ( 'detailed design', #989, 'design' ) ;
#697 = ADVANCED_FACE ( 'NONE', ( #463 ), #376, .T. ) ;
#698 =( NAMED_UNIT ( * ) SI_UNIT ( $, .STERADIAN. ) SOLID_ANGLE_UNIT ( ) );
#699 = EDGE_CURVE ( 'NONE', #608, #1048, #692, .T. ) ;
#700 = DIRECTION ( 'NONE',  ( -1.000000000000000000, 0.000000000000000000, 0.000000000000000000 ) ) ;
#701 = LINE ( 'NONE', #457, #467 ) ;
#702 = LINE ( 'NONE', #945, #126 ) ;
#703 = TOROIDAL_SURFACE ( 'NONE', #521, 5.800000000000011369, 0.8000000000000067057 ) ;
#704 = AXIS2_PLACEMENT_3D ( 'NONE', #199, #128, #515 ) ;
#705 = CONICAL_SURFACE ( 'NONE', #542, 12.49999999999998579, 0.7853981633973312615 ) ;
#706 =( GEOMETRIC_REPRESENTATION_CONTEXT ( 3 ) GLOBAL_UNCERTAINTY_ASSIGNED_CONTEXT ( ( #549 ) ) GLOBAL_UNIT_ASSIGNED_CONTEXT ( ( #57, #536, #532 ) ) REPRESENTATION_CONTEXT ( 'NONE', 'WORKASPACE' ) );
#707 = CARTESIAN_POINT ( 'NONE',  ( 5.195121951219479111E-15, 59.99999999999818812, 0.000000000000000000 ) ) ;
#708 = VECTOR ( 'NONE', #904, 1000.000000000000114 ) ;
#709 = VERTEX_POINT ( 'NONE', #537 ) ;
#710 = CARTESIAN_POINT ( 'NONE',  ( 5.800000000000007816, 66.79843597113166709, 7.102951435054650623E-16 ) ) ;
#711 = EDGE_CURVE ( 'NONE', #162, #608, #486, .T. ) ;
#712 = ORIENTED_EDGE ( 'NONE', *, *, #849, .T. ) ;
#713 = CARTESIAN_POINT ( 'NONE',  ( -6.249999999999937828, 65.49999999999810996, 7.654042494670888581E-16 ) ) ;
#714 = DIRECTION ( 'NONE',  ( 8.658536585366059171E-17, 1.000000000000000000, -0.000000000000000000 ) ) ;
#715 = ORIENTED_EDGE ( 'NONE', *, *, #27, .T. ) ;
#716 = CARTESIAN_POINT ( 'NONE',  ( 4.267949192431152561, 81.99999999999806732, 0.000000000000000000 ) ) ;
#717 = ORIENTED_EDGE ( 'NONE', *, *, #1013, .T. ) ;
#718 = ORIENTED_EDGE ( 'NONE', *, *, #393, .F. ) ;
#719 = CIRCLE ( 'NONE', #273, 6.249999999999944933 ) ;
#720 = CIRCLE ( 'NONE', #874, 0.3999999999999984679 ) ;
#721 = CIRCLE ( 'NONE', #543, 6.000000000000000888 ) ;
#722 = ORIENTED_EDGE ( 'NONE', *, *, #47, .T. ) ;
#723 = DIRECTION ( 'NONE',  ( -1.000000000000000000, 0.000000000000000000, 0.000000000000000000 ) ) ;
#724 = CARTESIAN_POINT ( 'NONE',  ( 6.249999999999952038, 65.49999999999810996, 7.654042494670891539E-16 ) ) ;
#725 = CARTESIAN_POINT ( 'NONE',  ( 5.671341463414605832E-15, 65.49999999999810996, 0.000000000000000000 ) ) ;
#726 = EDGE_CURVE ( 'NONE', #413, #4, #188, .T. ) ;
#727 = ORIENTED_EDGE ( 'NONE', *, *, #411, .T. ) ;
#728 = DIRECTION ( 'NONE',  ( -1.000000000000000000, 0.000000000000000000, 0.000000000000000000 ) ) ;
#729 = DIRECTION ( 'NONE',  ( 8.658536585366059171E-17, 1.000000000000000000, -0.000000000000000000 ) ) ;
#730 = ORIENTED_EDGE ( 'NONE', *, *, #583, .T. ) ;
#731 = DIRECTION ( 'NONE',  ( 8.658536585366059171E-17, 1.000000000000000000, -0.000000000000000000 ) ) ;
#732 = ORIENTED_EDGE ( 'NONE', *, *, #672, .T. ) ;
#733 = CARTESIAN_POINT ( 'NONE',  ( 5.265875813919846932E-15, 60.81715728752354266, 0.000000000000000000 ) ) ;
#734 = EDGE_CURVE ( 'NONE', #105, #446, #622, .T. ) ;
#735 = CYLINDRICAL_SURFACE ( 'NONE', #438, 12.50000000000002132 ) ;
#736 = ORIENTED_EDGE ( 'NONE', *, *, #169, .T. ) ;
#737 = CIRCLE ( 'NONE', #868, 5.949999999999968203 ) ;
#738 = DIRECTION ( 'NONE',  ( -1.000000000000000000, 0.000000000000000000, 0.000000000000000000 ) ) ;
#739 = VERTEX_POINT ( 'NONE', #470 ) ;
#740 = AXIS2_PLACEMENT_3D ( 'NONE', #444, #767, #1021 ) ;
#741 = CARTESIAN_POINT ( 'NONE',  ( 10.00000000000028955, 20.52786404500053763, 1.377727649040793491E-15 ) ) ;
#742 = EDGE_CURVE ( 'NONE', #4, #413, #721, .T. ) ;
#743 = FACE_OUTER_BOUND ( 'NONE', #1037, .T. ) ;
#744 = ORIENTED_EDGE ( 'NONE', *, *, #309, .T. ) ;
#745 = EDGE_CURVE ( 'NONE', #1044, #359, #702, .T. ) ;
#746 = DIRECTION ( 'NONE',  ( -1.000000000000000000, 0.000000000000000000, 0.000000000000000000 ) ) ;
#747 = EDGE_CURVE ( 'NONE', #4, #516, #1028, .T. ) ;
#748 = DIRECTION ( 'NONE',  ( -1.000000000000000000, 1.084202172483127867E-16, 0.000000000000000000 ) ) ;
#749 = CARTESIAN_POINT ( 'NONE',  ( 5.949999999999993960, 81.99999999999806732, 7.286648454926736188E-16 ) ) ;
#750 = ORIENTED_EDGE ( 'NONE', *, *, #699, .T. ) ;
#751 = DIRECTION ( 'NONE',  ( -8.658536585366059171E-17, -1.000000000000000000, 0.000000000000000000 ) ) ;
#752 = ORIENTED_EDGE ( 'NONE', *, *, #805, .T. ) ;
#753 = CARTESIAN_POINT ( 'NONE',  ( 2.000000000004384049, 1.154700538382000152, 2.449293598300075106E-16 ) ) ;
#754 = CARTESIAN_POINT ( 'NONE',  ( 5.204170427930421283E-15, 66.79843597113166709, 0.000000000000000000 ) ) ;
#755 = EDGE_LOOP ( 'NONE', ( #146, #227, #349, #118 ) ) ;
#756 = CARTESIAN_POINT ( 'NONE',  ( 5.949999999999973532, 60.53431457504895263, 7.286648454926725341E-16 ) ) ;
#757 = VECTOR ( 'NONE', #406, 1000.000000000000000 ) ;
#758 = AXIS2_PLACEMENT_3D ( 'NONE', #1052, #500, #746 ) ;
#759 = VERTEX_POINT ( 'NONE', #533 ) ;
#760 = AXIS2_PLACEMENT_3D ( 'NONE', #244, #978, #177 ) ;
#761 = AXIS2_PLACEMENT_3D ( 'NONE', #342, #915, #352 ) ;
#762 = AXIS2_PLACEMENT_3D ( 'NONE', #453, #222, #54 ) ;
#763 = DIRECTION ( 'NONE',  ( 8.658536585366059171E-17, 1.000000000000000000, -0.000000000000000000 ) ) ;
#764 = CARTESIAN_POINT ( 'NONE',  ( 5.837503326052285314E-15, 67.41905249806704603, 0.000000000000000000 ) ) ;
#765 = ORIENTED_EDGE ( 'NONE', *, *, #76, .F. ) ;
#766 = DIRECTION ( 'NONE',  ( -1.000000000000000000, 0.000000000000000000, 0.000000000000000000 ) ) ;
#767 = DIRECTION ( 'NONE',  ( 8.658536585366059171E-17, 1.000000000000000000, -0.000000000000000000 ) ) ;
#768 = EDGE_CURVE ( 'NONE', #239, #148, #168, .T. ) ;
#769 = CARTESIAN_POINT ( 'NONE',  ( -10.00000000000028599, 20.52786404500053763, 0.000000000000000000 ) ) ;
#770 = DIRECTION ( 'NONE',  ( -8.658536585366059171E-17, -1.000000000000000000, 0.000000000000000000 ) ) ;
#771 = ORIENTED_EDGE ( 'NONE', *, *, #1008, .T. ) ;
#772 = LINE ( 'NONE', #38, #856 ) ;
#773 = CARTESIAN_POINT ( 'NONE',  ( 5.837503326052285314E-15, 67.41905249806704603, 0.000000000000000000 ) ) ;
#774 = ADVANCED_FACE ( 'NONE', ( #378 ), #1034, .T. ) ;
#775 = DIRECTION ( 'NONE',  ( 8.658536585366059171E-17, 1.000000000000000000, -0.000000000000000000 ) ) ;
#776 = CONICAL_SURFACE ( 'NONE', #481, 1732.050807568550681, 1.047197551196516141 ) ;
#777 = AXIS2_PLACEMENT_3D ( 'NONE', #1024, #368, #928 ) ;
#778 = EDGE_CURVE ( 'NONE', #488, #969, #625, .T. ) ;
#779 = AXIS2_PLACEMENT_3D ( 'NONE', #226, #865, #299 ) ;
#780 = ADVANCED_FACE ( 'NONE', ( #827 ), #270, .T. ) ;
#781 = DIRECTION ( 'NONE',  ( 8.658536585366059171E-17, 1.000000000000000000, -0.000000000000000000 ) ) ;
#782 = SURFACE_SIDE_STYLE ('',( #56 ) ) ;
#783 = ORIENTED_EDGE ( 'NONE', *, *, #289, .F. ) ;
#784 = CARTESIAN_POINT ( 'NONE',  ( 7.100000000000000986E-15, 81.99999999999806732, 0.000000000000000000 ) ) ;
#785 = DIRECTION ( 'NONE',  ( -0.000000000000000000, 0.000000000000000000, -1.000000000000000000 ) ) ;
#786 = DIRECTION ( 'NONE',  ( -1.224646799147353207E-16, 1.060364911456879714E-32, 1.000000000000000000 ) ) ;
#787 = DIRECTION ( 'NONE',  ( -1.000000000000000000, 0.000000000000000000, 0.000000000000000000 ) ) ;
#788 = ORIENTED_EDGE ( 'NONE', *, *, #528, .T. ) ;
#789 =( NAMED_UNIT ( * ) SI_UNIT ( $, .STERADIAN. ) SOLID_ANGLE_UNIT ( ) );
#790 = ADVANCED_FACE ( 'NONE', ( #99 ), #241, .T. ) ;
#791 = CIRCLE ( 'NONE', #832, 0.4000000000000270561 ) ;
#792 = DIRECTION ( 'NONE',  ( -8.658536585366059171E-17, -1.000000000000000000, 0.000000000000000000 ) ) ;
#793 = AXIS2_PLACEMENT_3D ( 'NONE', #1046, #807, #728 ) ;
#794 = CIRCLE ( 'NONE', #885, 10.00000000000028777 ) ;
#795 = VECTOR ( 'NONE', #979, 1000.000000000000000 ) ;
#796 = VECTOR ( 'NONE', #855, 1000.000000000000000 ) ;
#797 = CONICAL_SURFACE ( 'NONE', #16, 10.00000000000028777, 0.4205343352856598105 ) ;
#798 =( GEOMETRIC_REPRESENTATION_CONTEXT ( 3 ) GLOBAL_UNCERTAINTY_ASSIGNED_CONTEXT ( ( #178 ) ) GLOBAL_UNIT_ASSIGNED_CONTEXT ( ( #948, #387, #789 ) ) REPRESENTATION_CONTEXT ( 'NONE', 'WORKASPACE' ) );
#799 = EDGE_LOOP ( 'NONE', ( #399, #765, #156, #722 ) ) ;
#800 = DIRECTION ( 'NONE',  ( 8.658536585366059171E-17, 1.000000000000000000, -0.000000000000000000 ) ) ;
#801 = EDGE_CURVE ( 'NONE', #488, #499, #480, .T. ) ;
#802 = ORIENTED_EDGE ( 'NONE', *, *, #107, .F. ) ;
#803 = ORIENTED_EDGE ( 'NONE', *, *, #12, .T. ) ;
#804 = DIRECTION ( 'NONE',  ( 8.658536585366059171E-17, 1.000000000000000000, -0.000000000000000000 ) ) ;
#805 = EDGE_CURVE ( 'NONE', #608, #391, #257, .T. ) ;
#806 = VERTEX_POINT ( 'NONE', #716 ) ;
#807 = DIRECTION ( 'NONE',  ( 8.658536585366059171E-17, 1.000000000000000000, -0.000000000000000000 ) ) ;
#808 = EDGE_CURVE ( 'NONE', #759, #506, #870, .T. ) ;
#809 = CIRCLE ( 'NONE', #952, 5.000000000000009770 ) ;
#810 = ORIENTED_EDGE ( 'NONE', *, *, #577, .T. ) ;
#811 = VECTOR ( 'NONE', #953, 1000.000000000000000 ) ;
#812 = CIRCLE ( 'NONE', #357, 5.950000000000006395 ) ;
#813 = AXIS2_PLACEMENT_3D ( 'NONE', #773, #683, #847 ) ;
#814 = AXIS2_PLACEMENT_3D ( 'NONE', #1023, #792, #388 ) ;
#815 = EDGE_LOOP ( 'NONE', ( #922, #788, #356, #103 ) ) ;
#816 = DIRECTION ( 'NONE',  ( 8.658536585366059171E-17, 1.000000000000000000, -0.000000000000000000 ) ) ;
#817 = FACE_OUTER_BOUND ( 'NONE', #337, .T. ) ;
#818 = ORIENTED_EDGE ( 'NONE', *, *, #828, .F. ) ;
#819 = CARTESIAN_POINT ( 'NONE',  ( 5.177804878048744419E-15, 59.79999999999815685, 0.000000000000000000 ) ) ;
#820 = ORIENTED_EDGE ( 'NONE', *, *, #893, .F. ) ;
#821 = EDGE_CURVE ( 'NONE', #1048, #608, #300, .T. ) ;
#822 = CARTESIAN_POINT ( 'NONE',  ( 5.281707317073141527E-15, 60.99999999999820943, 0.000000000000000000 ) ) ;
#823 = FACE_OUTER_BOUND ( 'NONE', #842, .T. ) ;
#824 = ORIENTED_EDGE ( 'NONE', *, *, #768, .T. ) ;
#825 = DIRECTION ( 'NONE',  ( -1.000000000000000000, 1.281975124255951046E-16, 0.000000000000000000 ) ) ;
#826 = ORIENTED_EDGE ( 'NONE', *, *, #539, .T. ) ;
#827 = FACE_OUTER_BOUND ( 'NONE', #755, .T. ) ;
#828 = EDGE_CURVE ( 'NONE', #87, #516, #434, .T. ) ;
#829 = ADVANCED_BREP_SHAPE_REPRESENTATION ( '99688-SI20-M12+S9MT2004-090', ( #292, #140 ), #798 ) ;
#830 = DIRECTION ( 'NONE',  ( -1.000000000000000000, 1.281975124255951046E-16, 0.000000000000000000 ) ) ;
#831 = EDGE_LOOP ( 'NONE', ( #473, #552, #344, #678 ) ) ;
#832 = AXIS2_PLACEMENT_3D ( 'NONE', #582, #180, #677 ) ;
#833 = AXIS2_PLACEMENT_3D ( 'NONE', #733, #970, #2 ) ;
#834 = AXIS2_PLACEMENT_3D ( 'NONE', #937, #214, #531 ) ;
#835 = CARTESIAN_POINT ( 'NONE',  ( -5.999999999999992895, 78.99999999999805311, 7.347880794884119736E-16 ) ) ;
#836 = CARTESIAN_POINT ( 'NONE',  ( 5.195121951219479111E-15, 59.99999999999818812, 0.000000000000000000 ) ) ;
#837 = ORIENTED_EDGE ( 'NONE', *, *, #711, .T. ) ;
#838 = CARTESIAN_POINT ( 'NONE',  ( -5.999999999999992895, 78.99999999999805311, 0.000000000000000000 ) ) ;
#839 = ORIENTED_EDGE ( 'NONE', *, *, #745, .F. ) ;
#840 = LINE ( 'NONE', #182, #15 ) ;
#841 = CARTESIAN_POINT ( 'NONE',  ( 1.777412618530576708E-15, 20.52786404500053763, 0.000000000000000000 ) ) ;
#842 = EDGE_LOOP ( 'NONE', ( #242, #826, #272, #74 ) ) ;
#843 = EDGE_CURVE ( 'NONE', #235, #390, #158, .T. ) ;
#844 = CARTESIAN_POINT ( 'NONE',  ( 7.100000000000000986E-15, 81.99999999999806732, 0.000000000000000000 ) ) ;
#845 = ORIENTED_EDGE ( 'NONE', *, *, #685, .F. ) ;
#846 = DIRECTION ( 'NONE',  ( 8.658536585366059171E-17, 1.000000000000000000, -0.000000000000000000 ) ) ;
#847 = DIRECTION ( 'NONE',  ( -1.000000000000000000, 0.000000000000000000, 0.000000000000000000 ) ) ;
#848 = ORIENTED_EDGE ( 'NONE', *, *, #672, .F. ) ;
#849 = EDGE_CURVE ( 'NONE', #559, #359, #205, .T. ) ;
#850 = CARTESIAN_POINT ( 'NONE',  ( 1.777412618530576708E-15, 20.52786404500053763, 0.000000000000000000 ) ) ;
#851 = AXIS2_PLACEMENT_3D ( 'NONE', #88, #171, #637 ) ;
#852 = ORIENTED_EDGE ( 'NONE', *, *, #747, .F. ) ;
#853 = ADVANCED_FACE ( 'NONE', ( #317 ), #155, .T. ) ;
#854 = AXIS2_PLACEMENT_3D ( 'NONE', #630, #443, #748 ) ;
#855 = DIRECTION ( 'NONE',  ( 0.7071067811864646391, -0.7071067811866303954, 0.000000000000000000 ) ) ;
#856 = VECTOR ( 'NONE', #28, 1000.000000000000114 ) ;
#857 = AXIS2_PLACEMENT_3D ( 'NONE', #860, #45, #686 ) ;
#858 = DIRECTION ( 'NONE',  ( 8.658536585366059171E-17, 1.000000000000000000, -0.000000000000000000 ) ) ;
#859 = DIRECTION ( 'NONE',  ( -1.000000000000000000, 0.000000000000000000, 0.000000000000000000 ) ) ;
#860 = CARTESIAN_POINT ( 'NONE',  ( 6.840243902439019260E-15, 78.99999999999805311, 0.000000000000000000 ) ) ;
#861 = DIRECTION ( 'NONE',  ( -1.000000000000000000, 0.000000000000000000, 0.000000000000000000 ) ) ;
#862 = LINE ( 'NONE', #132, #635 ) ;
#863 = DIRECTION ( 'NONE',  ( 8.658536585366059171E-17, 1.000000000000000000, -0.000000000000000000 ) ) ;
#864 =( LENGTH_UNIT ( ) NAMED_UNIT ( * ) SI_UNIT ( .MILLI., .METRE. ) );
#865 = DIRECTION ( 'NONE',  ( 8.658536585366059171E-17, 1.000000000000000000, -0.000000000000000000 ) ) ;
#866 = DIRECTION ( 'NONE',  ( -1.000000000000000000, 1.084202172483127867E-16, 0.000000000000000000 ) ) ;
#867 = DIRECTION ( 'NONE',  ( 8.658536585366059171E-17, 1.000000000000000000, -0.000000000000000000 ) ) ;
#868 = AXIS2_PLACEMENT_3D ( 'NONE', #663, #644, #323 ) ;
#869 = DIRECTION ( 'NONE',  ( 0.000000000000000000, 0.000000000000000000, 1.000000000000000000 ) ) ;
#870 = CIRCLE ( 'NONE', #617, 5.950000000000006395 ) ;
#871 = AXIS2_PLACEMENT_3D ( 'NONE', #1010, #770, #600 ) ;
#872 = FACE_OUTER_BOUND ( 'NONE', #653, .T. ) ;
#873 = AXIS2_PLACEMENT_3D ( 'NONE', #94, #496, #418 ) ;
#874 = AXIS2_PLACEMENT_3D ( 'NONE', #655, #172, #252 ) ;
#875 = PRODUCT_DEFINITION_FORMATION_WITH_SPECIFIED_SOURCE ( 'ANY', '', #632, .NOT_KNOWN. ) ;
#876 = DIRECTION ( 'NONE',  ( 8.658536585366059171E-17, 1.000000000000000000, -0.000000000000000000 ) ) ;
#877 = SURFACE_STYLE_FILL_AREA ( #689 ) ;
#878 = DIRECTION ( 'NONE',  ( 8.658536585366059171E-17, 1.000000000000000000, -0.000000000000000000 ) ) ;
#879 = EDGE_LOOP ( 'NONE', ( #914, #303, #752, #744 ) ) ;
#880 = CYLINDRICAL_SURFACE ( 'NONE', #421, 5.000000000000004441 ) ;
#881 = ORIENTED_EDGE ( 'NONE', *, *, #169, .F. ) ;
#882 = ADVANCED_FACE ( 'NONE', ( #654 ), #491, .T. ) ;
#883 = AXIS2_PLACEMENT_3D ( 'NONE', #844, #576, #738 ) ;
#884 = DIRECTION ( 'NONE',  ( -1.000000000000000000, 8.658536585366060403E-17, 0.000000000000000000 ) ) ;
#885 = AXIS2_PLACEMENT_3D ( 'NONE', #850, #122, #440 ) ;
#886 = TOROIDAL_SURFACE ( 'NONE', #919, 5.800000000000002487, 0.7999999999999927169 ) ;
#887 = PRESENTATION_LAYER_ASSIGNMENT (  '', '', ( #71 ) ) ;
#888 = ORIENTED_EDGE ( 'NONE', *, *, #475, .F. ) ;
#889 = ORIENTED_EDGE ( 'NONE', *, *, #176, .T. ) ;
#890 = DIRECTION ( 'NONE',  ( -1.000000000000000000, 0.000000000000000000, 0.000000000000000000 ) ) ;
#891 = ORIENTED_EDGE ( 'NONE', *, *, #664, .T. ) ;
#892 = EDGE_LOOP ( 'NONE', ( #482, #636, #490, #718 ) ) ;
#893 = EDGE_CURVE ( 'NONE', #506, #759, #812, .T. ) ;
#894 = DIRECTION ( 'NONE',  ( 8.658536585366059171E-17, 1.000000000000000000, -0.000000000000000000 ) ) ;
#895 = EDGE_CURVE ( 'NONE', #154, #405, #207, .T. ) ;
#896 = CARTESIAN_POINT ( 'NONE',  ( -6.249999999999940492, 60.99999999999820943, 0.000000000000000000 ) ) ;
#897 = CARTESIAN_POINT ( 'NONE',  ( 5.195121951219480688E-15, 59.99999999999820943, 0.000000000000000000 ) ) ;
#898 = FACE_OUTER_BOUND ( 'NONE', #929, .T. ) ;
#899 = ORIENTED_EDGE ( 'NONE', *, *, #528, .F. ) ;
#900 = CIRCLE ( 'NONE', #704, 4.267949192431145455 ) ;
#901 = FACE_OUTER_BOUND ( 'NONE', #586, .T. ) ;
#902 = TOROIDAL_SURFACE ( 'NONE', #400, 5.800000000000011369, 0.8000000000000067057 ) ;
#903 = ORIENTED_EDGE ( 'NONE', *, *, #289, .T. ) ;
#904 = DIRECTION ( 'NONE',  ( -0.7071067811864648611, -0.7071067811866301733, 8.659560562353918432E-17 ) ) ;
#905 = DIRECTION ( 'NONE',  ( -1.000000000000000000, 8.658536585366059171E-17, 0.000000000000000000 ) ) ;
#906 = ORIENTED_EDGE ( 'NONE', *, *, #1031, .T. ) ;
#907 = CARTESIAN_POINT ( 'NONE',  ( -5.949999999999980638, 81.99999999999806732, 0.000000000000000000 ) ) ;
#908 = EDGE_CURVE ( 'NONE', #359, #559, #719, .T. ) ;
#909 = VERTEX_POINT ( 'NONE', #972 ) ;
#910 = DIRECTION ( 'NONE',  ( 8.658536585366059171E-17, 1.000000000000000000, -0.000000000000000000 ) ) ;
#911 = CARTESIAN_POINT ( 'NONE',  ( -5.999999999999994671, 68.74999999999812417, 0.000000000000000000 ) ) ;
#912 = CYLINDRICAL_SURFACE ( 'NONE', #618, 6.249999999999944933 ) ;
#913 = EDGE_CURVE ( 'NONE', #212, #1044, #619, .T. ) ;
#914 = ORIENTED_EDGE ( 'NONE', *, *, #664, .F. ) ;
#915 = DIRECTION ( 'NONE',  ( 8.658536585366059171E-17, 1.000000000000000000, -0.000000000000000000 ) ) ;
#916 = CYLINDRICAL_SURFACE ( 'NONE', #211, 10.00000000000021849 ) ;
#917 = ORIENTED_EDGE ( 'NONE', *, *, #417, .T. ) ;
#918 = CIRCLE ( 'NONE', #998, 4.267949192431145455 ) ;
#919 = AXIS2_PLACEMENT_3D ( 'NONE', #754, #68, #884 ) ;
#920 = LINE ( 'NONE', #347, #796 ) ;
#921 = ADVANCED_FACE ( 'NONE', ( #249 ), #673, .T. ) ;
#922 = ORIENTED_EDGE ( 'NONE', *, *, #268, .T. ) ;
#923 = DIRECTION ( 'NONE',  ( 8.658536585366059171E-17, 1.000000000000000000, -0.000000000000000000 ) ) ;
#924 = ORIENTED_EDGE ( 'NONE', *, *, #577, .F. ) ;
#925 = DIRECTION ( 'NONE',  ( -1.000000000000000000, 0.000000000000000000, 0.000000000000000000 ) ) ;
#926 = DIRECTION ( 'NONE',  ( -1.000000000000000000, 8.658536585366059171E-17, 0.000000000000000000 ) ) ;
#927 = VERTEX_POINT ( 'NONE', #741 ) ;
#928 = DIRECTION ( 'NONE',  ( -1.000000000000000000, 0.000000000000000000, 0.000000000000000000 ) ) ;
#929 = EDGE_LOOP ( 'NONE', ( #597, #341, #478, #997 ) ) ;
#930 = DIRECTION ( 'NONE',  ( -1.000000000000000000, 1.084202172483127867E-16, 0.000000000000000000 ) ) ;
#931 = CARTESIAN_POINT ( 'NONE',  ( -5.999999999999992895, 81.99999999999806732, 0.000000000000000000 ) ) ;
#932 = FILL_AREA_STYLE_COLOUR ( '', #10 ) ;
#933 = TOROIDAL_SURFACE ( 'NONE', #1047, 6.350000000000033396, 0.4000000000000267231 ) ;
#934 = ORIENTED_EDGE ( 'NONE', *, *, #230, .F. ) ;
#935 = AXIS2_PLACEMENT_3D ( 'NONE', #591, #108, #361 ) ;
#936 = CARTESIAN_POINT ( 'NONE',  ( -6.067157287525329679, 60.81715728752354266, 0.000000000000000000 ) ) ;
#937 = CARTESIAN_POINT ( 'NONE',  ( 2.261439528292016751E-15, 26.11803398872407911, 0.000000000000000000 ) ) ;
#938 = APPLICATION_CONTEXT ( 'automotive_design' ) ;
#939 = CARTESIAN_POINT ( 'NONE',  ( 7.100000000000002563E-15, 81.99999999999806732, 0.000000000000000000 ) ) ;
#940 = ADVANCED_FACE ( 'NONE', ( #18 ), #483, .T. ) ;
#941 = LINE ( 'NONE', #693, #332 ) ;
#942 = DIRECTION ( 'NONE',  ( -1.000000000000000000, 0.000000000000000000, 0.000000000000000000 ) ) ;
#943 = DIRECTION ( 'NONE',  ( 8.658536585366059171E-17, 1.000000000000000000, -0.000000000000000000 ) ) ;
#944 = CARTESIAN_POINT ( 'NONE',  ( 12.50000000000006217, 26.11803398872407911, 1.530808498934198621E-15 ) ) ;
#945 = CARTESIAN_POINT ( 'NONE',  ( -6.067157287525329679, 60.81715728752354266, 0.000000000000000000 ) ) ;
#946 = CARTESIAN_POINT ( 'NONE',  ( 5.177804878048744419E-15, 59.79999999999815685, 0.000000000000000000 ) ) ;
#947 = DIRECTION ( 'NONE',  ( -1.000000000000000000, 0.000000000000000000, 0.000000000000000000 ) ) ;
#948 =( LENGTH_UNIT ( ) NAMED_UNIT ( * ) SI_UNIT ( .MILLI., .METRE. ) );
#949 = AXIS2_PLACEMENT_3D ( 'NONE', #946, #781, #116 ) ;
#950 = AXIS2_PLACEMENT_3D ( 'NONE', #529, #846, #766 ) ;
#951 = ADVANCED_FACE ( 'NONE', ( #594 ), #703, .F. ) ;
#952 = AXIS2_PLACEMENT_3D ( 'NONE', #372, #691, #291 ) ;
#953 = DIRECTION ( 'NONE',  ( 8.658536585366059171E-17, 1.000000000000000000, -0.000000000000000000 ) ) ;
#954 = ORIENTED_EDGE ( 'NONE', *, *, #828, .T. ) ;
#955 = FILL_AREA_STYLE_COLOUR ( '', #36 ) ;
#956 = DIRECTION ( 'NONE',  ( 8.658536585366059171E-17, 1.000000000000000000, -0.000000000000000000 ) ) ;
#957 = EDGE_CURVE ( 'NONE', #993, #988, #504, .T. ) ;
#958 = CARTESIAN_POINT ( 'NONE',  ( 8.658536585366058579E-14, 1000.000000000000000, 0.000000000000000000 ) ) ;
#959 = EDGE_CURVE ( 'NONE', #709, #322, #419, .T. ) ;
#960 = ORIENTED_EDGE ( 'NONE', *, *, #805, .F. ) ;
#961 = DIRECTION ( 'NONE',  ( -1.000000000000000000, 0.000000000000000000, 0.000000000000000000 ) ) ;
#962 = ORIENTED_EDGE ( 'NONE', *, *, #261, .T. ) ;
#963 = VECTOR ( 'NONE', #255, 1000.000000000000000 ) ;
#964 = CIRCLE ( 'NONE', #981, 5.249999999999996447 ) ;
#965 = AXIS2_PLACEMENT_3D ( 'NONE', #348, #520, #926 ) ;
#966 = ORIENTED_EDGE ( 'NONE', *, *, #742, .T. ) ;
#967 = EDGE_CURVE ( 'NONE', #42, #988, #840, .T. ) ;
#968 = EDGE_CURVE ( 'NONE', #162, #235, #164, .T. ) ;
#969 = VERTEX_POINT ( 'NONE', #365 ) ;
#970 = DIRECTION ( 'NONE',  ( 8.658536585366059171E-17, 1.000000000000000000, -0.000000000000000000 ) ) ;
#971 = ORIENTED_EDGE ( 'NONE', *, *, #987, .F. ) ;
#972 = CARTESIAN_POINT ( 'NONE',  ( -6.249999999999938716, 65.49999999999810996, 0.000000000000000000 ) ) ;
#973 = EDGE_CURVE ( 'NONE', #148, #969, #119, .T. ) ;
#974 = CARTESIAN_POINT ( 'NONE',  ( -5.949999999999962874, 60.53431457504895263, 0.000000000000000000 ) ) ;
#975 = ORIENTED_EDGE ( 'NONE', *, *, #711, .F. ) ;
#976 = DIRECTION ( 'NONE',  ( -1.000000000000000000, 0.000000000000000000, 0.000000000000000000 ) ) ;
#977 = ORIENTED_EDGE ( 'NONE', *, *, #778, .F. ) ;
#978 = DIRECTION ( 'NONE',  ( 8.658536585366059171E-17, 1.000000000000000000, -0.000000000000000000 ) ) ;
#979 = DIRECTION ( 'NONE',  ( 0.8660254037843978514, 0.5000000000000706102, 1.060575238724856995E-16 ) ) ;
#980 = ORIENTED_EDGE ( 'NONE', *, *, #801, .F. ) ;
#981 = AXIS2_PLACEMENT_3D ( 'NONE', #614, #867, #947 ) ;
#982 = AXIS2_PLACEMENT_3D ( 'NONE', #383, #626, #343 ) ;
#983 = CIRCLE ( 'NONE', #223, 10.00000000000014921 ) ;
#984 = ORIENTED_EDGE ( 'NONE', *, *, #994, .F. ) ;
#985 = CARTESIAN_POINT ( 'NONE',  ( 5.202620463862000338E-15, 60.08660254037661019, 0.000000000000000000 ) ) ;
#986 = DIRECTION ( 'NONE',  ( 8.658536585366059171E-17, 1.000000000000000000, -0.000000000000000000 ) ) ;
#987 = EDGE_CURVE ( 'NONE', #516, #87, #572, .T. ) ;
#988 = VERTEX_POINT ( 'NONE', #589 ) ;
#989 = APPLICATION_CONTEXT ( 'automotive_design' ) ;
#990 = ORIENTED_EDGE ( 'NONE', *, *, #176, .F. ) ;
#991 = CARTESIAN_POINT ( 'NONE',  ( 10.00000000000028955, 20.52786404500053763, 1.224646799147388361E-15 ) ) ;
#992 = DIRECTION ( 'NONE',  ( -8.658536585366059171E-17, -1.000000000000000000, 0.000000000000000000 ) ) ;
#993 = VERTEX_POINT ( 'NONE', #131 ) ;
#994 = EDGE_CURVE ( 'NONE', #499, #739, #920, .T. ) ;
#995 = CARTESIAN_POINT ( 'NONE',  ( 6.840243902439019260E-15, 78.99999999999805311, 0.000000000000000000 ) ) ;
#996 = DIRECTION ( 'NONE',  ( 0.7071067811864403252, 0.7071067811866547093, 8.659560562353618912E-17 ) ) ;
#997 = ORIENTED_EDGE ( 'NONE', *, *, #967, .F. ) ;
#998 = AXIS2_PLACEMENT_3D ( 'NONE', #22, #345, #999 ) ;
#999 = DIRECTION ( 'NONE',  ( -1.000000000000000000, 0.000000000000000000, 0.000000000000000000 ) ) ;
#1000 = CONICAL_SURFACE ( 'NONE', #540, 6.000000000000000000, 0.5235987755982907110 ) ;
#1001 = AXIS2_PLACEMENT_3D ( 'NONE', #579, #910, #1049 ) ;
#1002 = CONICAL_SURFACE ( 'NONE', #37, 7.000000000000158096, 1.047197551196599408 ) ;
#1003 = DIRECTION ( 'NONE',  ( -1.000000000000000000, 0.000000000000000000, 0.000000000000000000 ) ) ;
#1004 = ORIENTED_EDGE ( 'NONE', *, *, #130, .F. ) ;
#1005 = ORIENTED_EDGE ( 'NONE', *, *, #973, .T. ) ;
#1006 = LINE ( 'NONE', #835, #53 ) ;
#1007 = FACE_OUTER_BOUND ( 'NONE', #17, .T. ) ;
#1008 = EDGE_CURVE ( 'NONE', #558, #413, #772, .T. ) ;
#1009 = LINE ( 'NONE', #534, #184 ) ;
#1010 = CARTESIAN_POINT ( 'NONE',  ( 7.000000000000163425, 59.99999999999819522, 0.000000000000000000 ) ) ;
#1011 = DIRECTION ( 'NONE',  ( -1.000000000000000000, 0.000000000000000000, 0.000000000000000000 ) ) ;
#1012 = CARTESIAN_POINT ( 'NONE',  ( -5.249999999999990230, 67.99999999999812417, 0.000000000000000000 ) ) ;
#1013 = EDGE_CURVE ( 'NONE', #909, #391, #523, .T. ) ;
#1014 = DIRECTION ( 'NONE',  ( -1.000000000000000000, 0.000000000000000000, 0.000000000000000000 ) ) ;
#1015 = CARTESIAN_POINT ( 'NONE',  ( -10.00000000000014921, 9.154700538386657982, 0.000000000000000000 ) ) ;
#1016 = ADVANCED_FACE ( 'NONE', ( #679 ), #606, .T. ) ;
#1017 = CONICAL_SURFACE ( 'NONE', #670, 5.249999999999996447, 0.7853981633974506105 ) ;
#1018 = EDGE_LOOP ( 'NONE', ( #77, #265, #472, #173 ) ) ;
#1019 = CIRCLE ( 'NONE', #813, 5.000000000000000888 ) ;
#1020 = MECHANICAL_DESIGN_GEOMETRIC_PRESENTATION_REPRESENTATION (  '', ( #71 ), #706 ) ;
#1021 = DIRECTION ( 'NONE',  ( -1.000000000000000000, 0.000000000000000000, 0.000000000000000000 ) ) ;
#1022 = APPLICATION_PROTOCOL_DEFINITION ( 'draft international standard', 'automotive_design', 1998, #989 ) ;
#1023 = CARTESIAN_POINT ( 'NONE',  ( 5.671341463414605832E-15, 65.49999999999810996, 0.000000000000000000 ) ) ;
#1024 = CARTESIAN_POINT ( 'NONE',  ( 7.100000000000000986E-15, 81.99999999999806732, 0.000000000000000000 ) ) ;
#1025 = CARTESIAN_POINT ( 'NONE',  ( 0.000000000000000000, 0.000000000000000000, 0.000000000000000000 ) ) ;
#1026 = SURFACE_SIDE_STYLE ('',( #877 ) ) ;
#1027 = EDGE_CURVE ( 'NONE', #212, #154, #437, .T. ) ;
#1028 = LINE ( 'NONE', #218, #85 ) ;
#1029 = DIRECTION ( 'NONE',  ( -1.000000000000000000, 8.658536585366059171E-17, 0.000000000000000000 ) ) ;
#1030 = VERTEX_POINT ( 'NONE', #285 ) ;
#1031 = EDGE_CURVE ( 'NONE', #927, #239, #264, .T. ) ;
#1032 = AXIS2_PLACEMENT_3D ( 'NONE', #26, #14, #5 ) ;
#1033 = SHAPE_DEFINITION_REPRESENTATION ( #229, #829 ) ;
#1034 = CYLINDRICAL_SURFACE ( 'NONE', #254, 5.000000000000004441 ) ;
#1035 = VECTOR ( 'NONE', #680, 1000.000000000000000 ) ;
#1036 = DIRECTION ( 'NONE',  ( 8.658536585366059171E-17, 1.000000000000000000, -0.000000000000000000 ) ) ;
#1037 = EDGE_LOOP ( 'NONE', ( #810, #917, #633, #547 ) ) ;
#1038 = DIRECTION ( 'NONE',  ( -1.224646799147353207E-16, 1.060364911456879714E-32, 1.000000000000000000 ) ) ;
#1039 = EDGE_CURVE ( 'NONE', #588, #87, #1006, .T. ) ;
#1040 = CARTESIAN_POINT ( 'NONE',  ( 6.000000000000007105, 68.74999999999812417, 7.347880794884120722E-16 ) ) ;
#1041 = CARTESIAN_POINT ( 'NONE',  ( 5.714634146341436251E-15, 65.99999999999810996, 0.000000000000000000 ) ) ;
#1042 = EDGE_CURVE ( 'NONE', #709, #1030, #190, .T. ) ;
#1043 = EDGE_LOOP ( 'NONE', ( #240, #97 ) ) ;
#1044 = VERTEX_POINT ( 'NONE', #936 ) ;
#1045 = VECTOR ( 'NONE', #714, 1000.000000000000000 ) ;
#1046 = CARTESIAN_POINT ( 'NONE',  ( 5.281707317073141527E-15, 60.99999999999820943, 0.000000000000000000 ) ) ;
#1047 = AXIS2_PLACEMENT_3D ( 'NONE', #51, #876, #1029 ) ;
#1048 = VERTEX_POINT ( 'NONE', #213 ) ;
#1049 = DIRECTION ( 'NONE',  ( -1.000000000000000000, 0.000000000000000000, 0.000000000000000000 ) ) ;
#1050 = FACE_OUTER_BOUND ( 'NONE', #661, .T. ) ;
#1051 = ORIENTED_EDGE ( 'NONE', *, *, #742, .F. ) ;
#1052 = CARTESIAN_POINT ( 'NONE',  ( 5.195121951219480688E-15, 59.99999999999820943, 0.000000000000000000 ) ) ;
ENDSEC;
END-ISO-10303-21;
