ISO-10303-21;
HEADER;
FILE_DESCRIPTION (( 'STEP AP214' ),
    '1' );
FILE_NAME ('99688-SI06-M04+S9MT06T1-090.STEP',
    '2023-09-26T05:14:23',
    ( '' ),
    ( '' ),
    'SwSTEP 2.0',
    'SolidWorks 2020',
    '' );
FILE_SCHEMA (( 'AUTOMOTIVE_DESIGN' ));
ENDSEC;

DATA;
#1 = AXIS2_PLACEMENT_3D ( 'NONE', #336, #690, #64 ) ;
#2 = DIRECTION ( 'NONE',  ( 0.000000000000000000, 0.000000000000000000, 1.000000000000000000 ) ) ;
#3 = ORIENTED_EDGE ( 'NONE', *, *, #517, .F. ) ;
#4 = ORIENTED_EDGE ( 'NONE', *, *, #86, .F. ) ;
#5 = ORIENTED_EDGE ( 'NONE', *, *, #229, .F. ) ;
#6 = CYLINDRICAL_SURFACE ( 'NONE', #796, 1.650000000000609868 ) ;
#7 = FACE_OUTER_BOUND ( 'NONE', #818, .T. ) ;
#8 = VERTEX_POINT ( 'NONE', #584 ) ;
#9 = VERTEX_POINT ( 'NONE', #83 ) ;
#10 = DIRECTION ( 'NONE',  ( 0.000000000000000000, -1.000000000000000000, 0.000000000000000000 ) ) ;
#11 = LINE ( 'NONE', #854, #769 ) ;
#12 = ORIENTED_EDGE ( 'NONE', *, *, #43, .F. ) ;
#13 = ADVANCED_FACE ( 'NONE', ( #516 ), #468, .T. ) ;
#14 = CARTESIAN_POINT ( 'NONE',  ( 2.702020667218593957E-13, 26.65000000000028280, -1.650000000000609868 ) ) ;
#15 = DIRECTION ( 'NONE',  ( 0.000000000000000000, -1.000000000000000000, 0.000000000000000000 ) ) ;
#16 = CONICAL_SURFACE ( 'NONE', #1, 4.000000000000465405, 0.7853981633974375098 ) ;
#17 = DIRECTION ( 'NONE',  ( 0.000000000000000000, 0.000000000000000000, 1.000000000000000000 ) ) ;
#18 = CIRCLE ( 'NONE', #896, 4.000000000000465405 ) ;
#19 = ADVANCED_FACE ( 'NONE', ( #236 ), #706, .T. ) ;
#20 = CARTESIAN_POINT ( 'NONE',  ( 2.700000000000000107E-13, 31.50000000000054001, 0.000000000000000000 ) ) ;
#21 = CIRCLE ( 'NONE', #230, 2.000000000000111022 ) ;
#22 = FACE_OUTER_BOUND ( 'NONE', #573, .T. ) ;
#23 = FACE_OUTER_BOUND ( 'NONE', #671, .T. ) ;
#24 = DIRECTION ( 'NONE',  ( -0.000000000000000000, 1.000000000000000000, -0.000000000000000000 ) ) ;
#25 = APPLICATION_CONTEXT ( 'automotive_design' ) ;
#26 = CIRCLE ( 'NONE', #827, 2.999999999998204547 ) ;
#27 = EDGE_CURVE ( 'NONE', #133, #314, #921, .T. ) ;
#28 = CONICAL_SURFACE ( 'NONE', #147, 1732.050807568903338, 1.047197551196604293 ) ;
#29 = ORIENTED_EDGE ( 'NONE', *, *, #286, .T. ) ;
#30 = COLOUR_RGB ( '',0.7921568627450980005, 0.8196078431372548767, 0.9333333333333333481 ) ;
#31 = CARTESIAN_POINT ( 'NONE',  ( 2.700000000000000107E-13, 21.90000000000016556, 0.000000000000000000 ) ) ;
#32 = VECTOR ( 'NONE', #316, 999.9999999999998863 ) ;
#33 = DIRECTION ( 'NONE',  ( 0.000000000000000000, 0.000000000000000000, 1.000000000000000000 ) ) ;
#34 = ORIENTED_EDGE ( 'NONE', *, *, #701, .F. ) ;
#35 = DIRECTION ( 'NONE',  ( -0.000000000000000000, 1.000000000000000000, -0.000000000000000000 ) ) ;
#36 = DIRECTION ( 'NONE',  ( -0.000000000000000000, 1.000000000000000000, -0.000000000000000000 ) ) ;
#37 = DIRECTION ( 'NONE',  ( 0.000000000000000000, 0.000000000000000000, 1.000000000000000000 ) ) ;
#38 = ORIENTED_EDGE ( 'NONE', *, *, #670, .T. ) ;
#39 = CARTESIAN_POINT ( 'NONE',  ( 2.704547048409251544E-13, 22.96715728752536734, -2.217157287525530318 ) ) ;
#40 = CARTESIAN_POINT ( 'NONE',  ( 2.700000000000000107E-13, 32.00000000000053291, 0.000000000000000000 ) ) ;
#41 = PRODUCT ( '99688-SI06-M04+S9MT06T1-090', '99688-SI06-M04+S9MT06T1-090', '', ( #680 ) ) ;
#42 = AXIS2_PLACEMENT_3D ( 'NONE', #287, #10, #587 ) ;
#43 = EDGE_CURVE ( 'NONE', #8, #897, #869, .T. ) ;
#44 = CIRCLE ( 'NONE', #334, 1.650000000000609868 ) ;
#45 = VERTEX_POINT ( 'NONE', #803 ) ;
#46 = LINE ( 'NONE', #800, #489 ) ;
#47 = CARTESIAN_POINT ( 'NONE',  ( 2.700734788079487357E-13, 0.3464101615133358125, -0.5999999999989742427 ) ) ;
#48 = CIRCLE ( 'NONE', #729, 2.100000000000379785 ) ;
#49 = CARTESIAN_POINT ( 'NONE',  ( 2.700000000000000107E-13, 26.65000000000028280, 0.000000000000000000 ) ) ;
#50 = LINE ( 'NONE', #47, #595 ) ;
#51 = DIRECTION ( 'NONE',  ( 0.000000000000000000, 0.000000000000000000, -1.000000000000000000 ) ) ;
#52 = DIRECTION ( 'NONE',  ( -0.000000000000000000, 1.000000000000000000, -0.000000000000000000 ) ) ;
#53 = CARTESIAN_POINT ( 'NONE',  ( 2.700000000000000107E-13, 8.708218385331024436, 0.000000000000000000 ) ) ;
#54 = ADVANCED_FACE ( 'NONE', ( #575 ), #515, .F. ) ;
#55 = DIRECTION ( 'NONE',  ( -0.000000000000000000, 1.000000000000000000, -0.000000000000000000 ) ) ;
#56 = DIRECTION ( 'NONE',  ( -0.000000000000000000, 1.000000000000000000, 0.000000000000000000 ) ) ;
#57 = AXIS2_PLACEMENT_3D ( 'NONE', #884, #304, #732 ) ;
#58 = VECTOR ( 'NONE', #89, 1000.000000000000114 ) ;
#59 = CARTESIAN_POINT ( 'NONE',  ( 2.700000000000000107E-13, 32.00000000000053291, 4.000000000000465405 ) ) ;
#60 = DIRECTION ( 'NONE',  ( -0.000000000000000000, 1.000000000000000000, -0.000000000000000000 ) ) ;
#61 = VERTEX_POINT ( 'NONE', #590 ) ;
#62 = AXIS2_PLACEMENT_3D ( 'NONE', #240, #734, #380 ) ;
#63 = ADVANCED_FACE ( 'NONE', ( #22 ), #225, .T. ) ;
#64 = DIRECTION ( 'NONE',  ( 0.000000000000000000, 0.000000000000000000, -1.000000000000000000 ) ) ;
#65 = DIRECTION ( 'NONE',  ( 8.659560562355047490E-17, 0.7071067811865383579, -0.7071067811865567876 ) ) ;
#66 = AXIS2_PLACEMENT_3D ( 'NONE', #195, #693, #902 ) ;
#67 = ORIENTED_EDGE ( 'NONE', *, *, #117, .T. ) ;
#68 = EDGE_CURVE ( 'NONE', #61, #449, #348, .T. ) ;
#69 = DIRECTION ( 'NONE',  ( 0.000000000000000000, 0.000000000000000000, 1.000000000000000000 ) ) ;
#70 = DIRECTION ( 'NONE',  ( 0.000000000000000000, 0.000000000000000000, 1.000000000000000000 ) ) ;
#71 = EDGE_LOOP ( 'NONE', ( #12, #531, #928, #344 ) ) ;
#72 = ORIENTED_EDGE ( 'NONE', *, *, #919, .F. ) ;
#73 = VERTEX_POINT ( 'NONE', #14 ) ;
#74 = CLOSED_SHELL ( 'NONE', ( #13, #748, #99, #19, #63, #179, #679, #905, #508, #912, #801, #439, #347, #320, #469, #816, #123, #243, #251, #741, #705, #139, #890, #326, #586, #275, #54, #588, #579, #804, #114, #484, #925, #416, #722 ) ) ;
#75 = CONICAL_SURFACE ( 'NONE', #321, 4.000000000000465405, 0.7853981633974375098 ) ;
#76 = CARTESIAN_POINT ( 'NONE',  ( 2.700000000000000107E-13, 26.65000000000028280, 1.650000000000609868 ) ) ;
#77 = ORIENTED_EDGE ( 'NONE', *, *, #384, .F. ) ;
#78 = VERTEX_POINT ( 'NONE', #500 ) ;
#79 = VECTOR ( 'NONE', #113, 1000.000000000000114 ) ;
#80 = LINE ( 'NONE', #431, #104 ) ;
#81 = EDGE_LOOP ( 'NONE', ( #463, #214, #572 ) ) ;
#82 = ORIENTED_EDGE ( 'NONE', *, *, #255, .F. ) ;
#83 = CARTESIAN_POINT ( 'NONE',  ( 2.700000000000000107E-13, 22.68431457505094784, 2.100000000000379785 ) ) ;
#84 = EDGE_LOOP ( 'NONE', ( #568, #414, #709, #72 ) ) ;
#85 = VERTEX_POINT ( 'NONE', #96 ) ;
#86 = EDGE_CURVE ( 'NONE', #823, #897, #442, .T. ) ;
#87 = DIRECTION ( 'NONE',  ( 8.659560562354922997E-17, -0.7071067811865483499, 0.7071067811865466846 ) ) ;
#88 = CARTESIAN_POINT ( 'NONE',  ( 2.700000000000000107E-13, 1.595945597898662527E-13, -3.294559789866256988E-15 ) ) ;
#89 = DIRECTION ( 'NONE',  ( 4.108236962976048965E-17, 0.9420533805113692205, -0.3354630058100314116 ) ) ;
#90 = ORIENTED_EDGE ( 'NONE', *, *, #285, .F. ) ;
#91 = DIRECTION ( 'NONE',  ( 0.000000000000000000, 0.000000000000000000, 1.000000000000000000 ) ) ;
#92 = SURFACE_STYLE_USAGE ( .BOTH. , #728 ) ;
#93 = EDGE_CURVE ( 'NONE', #355, #823, #445, .T. ) ;
#94 = VECTOR ( 'NONE', #200, 1000.000000000000000 ) ;
#95 = AXIS2_PLACEMENT_3D ( 'NONE', #662, #107, #667 ) ;
#96 = CARTESIAN_POINT ( 'NONE',  ( 2.700000000000000107E-13, 26.65000000000054925, 2.000000000000111022 ) ) ;
#97 = CARTESIAN_POINT ( 'NONE',  ( 2.700000000000000107E-13, 22.00000000000017408, 0.000000000000000000 ) ) ;
#98 = FACE_OUTER_BOUND ( 'NONE', #294, .T. ) ;
#99 = ADVANCED_FACE ( 'NONE', ( #291 ), #6, .T. ) ;
#100 = ORIENTED_EDGE ( 'NONE', *, *, #521, .F. ) ;
#101 = SURFACE_STYLE_FILL_AREA ( #874 ) ;
#102 = DIRECTION ( 'NONE',  ( 0.000000000000000000, 0.000000000000000000, 1.000000000000000000 ) ) ;
#103 = CIRCLE ( 'NONE', #57, 2.400000000000445777 ) ;
#104 = VECTOR ( 'NONE', #65, 999.9999999999998863 ) ;
#105 = ORIENTED_EDGE ( 'NONE', *, *, #371, .T. ) ;
#106 = DIRECTION ( 'NONE',  ( -0.000000000000000000, 1.000000000000000000, -0.000000000000000000 ) ) ;
#107 = DIRECTION ( 'NONE',  ( -0.000000000000000000, 1.000000000000000000, -0.000000000000000000 ) ) ;
#108 = AXIS2_PLACEMENT_3D ( 'NONE', #740, #607, #820 ) ;
#109 = CARTESIAN_POINT ( 'NONE',  ( 2.702449293598294810E-13, 32.00000000000053291, -2.000000000000111022 ) ) ;
#110 = VERTEX_POINT ( 'NONE', #161 ) ;
#111 = CARTESIAN_POINT ( 'NONE',  ( 2.701831813833877050E-13, 22.00000000000022027, 0.000000000000000000 ) ) ;
#112 = VECTOR ( 'NONE', #411, 999.9999999999998863 ) ;
#113 = DIRECTION ( 'NONE',  ( 8.659560562354837948E-17, -0.7071067811865551223, 0.7071067811865398012 ) ) ;
#114 = ADVANCED_FACE ( 'NONE', ( #443 ), #717, .T. ) ;
#115 = ORIENTED_EDGE ( 'NONE', *, *, #162, .F. ) ;
#116 = DIRECTION ( 'NONE',  ( 1.000000000000000000, 0.000000000000000000, 1.224646799147353207E-16 ) ) ;
#117 = EDGE_CURVE ( 'NONE', #511, #425, #372, .T. ) ;
#118 = CARTESIAN_POINT ( 'NONE',  ( 2.702755455298081711E-13, 23.00000000000022027, -2.250000000000386358 ) ) ;
#119 = CARTESIAN_POINT ( 'NONE',  ( 2.700000000000000107E-13, 0.3464101615133358125, 0.000000000000000000 ) ) ;
#120 = CARTESIAN_POINT ( 'NONE',  ( 2.700000000000000107E-13, 22.00000000000017408, 2.700000000000376321 ) ) ;
#121 = FACE_OUTER_BOUND ( 'NONE', #496, .T. ) ;
#122 = CARTESIAN_POINT ( 'NONE',  ( 1.650000000000879874, 26.65000000000041780, 0.000000000000000000 ) ) ;
#123 = ADVANCED_FACE ( 'NONE', ( #299 ), #250, .T. ) ;
#124 = DIRECTION ( 'NONE',  ( -0.000000000000000000, 1.000000000000000000, -0.000000000000000000 ) ) ;
#125 = CARTESIAN_POINT ( 'NONE',  ( 2.700000000000000107E-13, 8.708218385331024436, 0.000000000000000000 ) ) ;
#126 = CARTESIAN_POINT ( 'NONE',  ( 2.703306546357698537E-13, 22.00000000000017408, -2.700000000000376321 ) ) ;
#127 = LINE ( 'NONE', #59, #848 ) ;
#128 = CARTESIAN_POINT ( 'NONE',  ( 2.700000000000000107E-13, 1000.000000000000227, 0.000000000000000000 ) ) ;
#129 = VERTEX_POINT ( 'NONE', #833 ) ;
#130 = CARTESIAN_POINT ( 'NONE',  ( 2.700000000000000107E-13, 31.50000000000054001, 0.000000000000000000 ) ) ;
#131 = CARTESIAN_POINT ( 'NONE',  ( 2.704587269131959663E-13, 22.00000000000021316, -2.100000000000379785 ) ) ;
#132 = SURFACE_SIDE_STYLE ('',( #201 ) ) ;
#133 = VERTEX_POINT ( 'NONE', #838 ) ;
#134 = AXIS2_PLACEMENT_3D ( 'NONE', #53, #124, #627 ) ;
#135 = VECTOR ( 'NONE', #282, 1000.000000000000000 ) ;
#136 = DIRECTION ( 'NONE',  ( -0.000000000000000000, 1.000000000000000000, -0.000000000000000000 ) ) ;
#137 = DIRECTION ( 'NONE',  ( 0.000000000000000000, -0.7071067811865551223, -0.7071067811865398012 ) ) ;
#138 = AXIS2_PLACEMENT_3D ( 'NONE', #913, #906, #480 ) ;
#139 = ADVANCED_FACE ( 'NONE', ( #847 ), #16, .T. ) ;
#140 = EDGE_LOOP ( 'NONE', ( #776, #242 ) ) ;
#141 = VERTEX_POINT ( 'NONE', #131 ) ;
#142 = LINE ( 'NONE', #423, #499 ) ;
#143 = ORIENTED_EDGE ( 'NONE', *, *, #714, .F. ) ;
#144 = ORIENTED_EDGE ( 'NONE', *, *, #603, .T. ) ;
#145 = EDGE_LOOP ( 'NONE', ( #364, #487 ) ) ;
#146 = CIRCLE ( 'NONE', #659, 2.700000000000376321 ) ;
#147 = AXIS2_PLACEMENT_3D ( 'NONE', #128, #924, #691 ) ;
#148 = DIRECTION ( 'NONE',  ( -0.000000000000000000, 1.000000000000000000, -0.000000000000000000 ) ) ;
#149 = EDGE_LOOP ( 'NONE', ( #720, #719, #5, #115 ) ) ;
#150 = ORIENTED_EDGE ( 'NONE', *, *, #43, .T. ) ;
#151 = ORIENTED_EDGE ( 'NONE', *, *, #919, .T. ) ;
#152 = MECHANICAL_DESIGN_GEOMETRIC_PRESENTATION_REPRESENTATION (  '', ( #782 ), #712 ) ;
#153 = EDGE_CURVE ( 'NONE', #78, #495, #407, .T. ) ;
#154 = DIRECTION ( 'NONE',  ( -0.000000000000000000, 1.000000000000000000, -0.000000000000000000 ) ) ;
#155 = ORIENTED_EDGE ( 'NONE', *, *, #255, .T. ) ;
#156 = CIRCLE ( 'NONE', #915, 1.650000000000609868 ) ;
#157 = DIRECTION ( 'NONE',  ( -0.000000000000000000, 1.000000000000000000, -0.000000000000000000 ) ) ;
#158 = CARTESIAN_POINT ( 'NONE',  ( 2.700000000000000107E-13, 25.40000000000020464, 2.250000000000386358 ) ) ;
#159 = CARTESIAN_POINT ( 'NONE',  ( 2.703673940397439890E-13, 32.00000000000053291, -2.999999999998204547 ) ) ;
#160 = ORIENTED_EDGE ( 'NONE', *, *, #300, .T. ) ;
#161 = CARTESIAN_POINT ( 'NONE',  ( 2.701831813833877050E-13, 22.96715728752536734, 2.217157287525530318 ) ) ;
#162 = EDGE_CURVE ( 'NONE', #495, #360, #332, .T. ) ;
#163 = DIRECTION ( 'NONE',  ( 0.000000000000000000, 0.000000000000000000, 1.000000000000000000 ) ) ;
#164 = AXIS2_PLACEMENT_3D ( 'NONE', #239, #805, #387 ) ;
#165 = DIRECTION ( 'NONE',  ( 0.000000000000000000, 0.000000000000000000, 1.000000000000000000 ) ) ;
#166 = EDGE_CURVE ( 'NONE', #129, #133, #549, .T. ) ;
#167 = CARTESIAN_POINT ( 'NONE',  ( 2.703122849337826598E-13, 21.82679491924332638, -2.400000000000445777 ) ) ;
#168 = VECTOR ( 'NONE', #721, 999.9999999999998863 ) ;
#169 = DIRECTION ( 'NONE',  ( 0.000000000000000000, 0.000000000000000000, 1.000000000000000000 ) ) ;
#170 = LINE ( 'NONE', #88, #842 ) ;
#171 = CARTESIAN_POINT ( 'NONE',  ( 2.704898587196590018E-13, 8.708218385331024436, -4.000000000000465405 ) ) ;
#172 = VERTEX_POINT ( 'NONE', #412 ) ;
#173 =( NAMED_UNIT ( * ) SI_UNIT ( $, .STERADIAN. ) SOLID_ANGLE_UNIT ( ) );
#174 = DIRECTION ( 'NONE',  ( -0.000000000000000000, 1.000000000000000000, -0.000000000000000000 ) ) ;
#175 = DIRECTION ( 'NONE',  ( -0.000000000000000000, 1.000000000000000000, -0.000000000000000000 ) ) ;
#176 = AXIS2_PLACEMENT_3D ( 'NONE', #532, #244, #593 ) ;
#177 = VERTEX_POINT ( 'NONE', #917 ) ;
#178 = DIRECTION ( 'NONE',  ( 0.000000000000000000, 0.000000000000000000, 1.000000000000000000 ) ) ;
#179 = ADVANCED_FACE ( 'NONE', ( #196 ), #373, .T. ) ;
#180 = DIRECTION ( 'NONE',  ( 0.000000000000000000, 0.000000000000000000, 1.000000000000000000 ) ) ;
#181 = AXIS2_PLACEMENT_3D ( 'NONE', #353, #297, #791 ) ;
#182 = ORIENTED_EDGE ( 'NONE', *, *, #343, .T. ) ;
#183 = DIRECTION ( 'NONE',  ( 0.000000000000000000, 0.000000000000000000, 1.000000000000000000 ) ) ;
#184 = CIRCLE ( 'NONE', #138, 1.650000000000609868 ) ;
#185 = DIRECTION ( 'NONE',  ( -0.000000000000000000, 1.000000000000000000, -0.000000000000000000 ) ) ;
#186 = CARTESIAN_POINT ( 'NONE',  ( 2.704837354856632537E-13, 22.00000000000017408, 3.900000000000457323 ) ) ;
#187 = EDGE_CURVE ( 'NONE', #812, #897, #478, .T. ) ;
#188 = DIRECTION ( 'NONE',  ( 0.000000000000000000, 0.000000000000000000, 1.000000000000000000 ) ) ;
#189 = AXIS2_PLACEMENT_3D ( 'NONE', #20, #864, #733 ) ;
#190 = CARTESIAN_POINT ( 'NONE',  ( 2.700000000000000107E-13, 1.595945597898662527E-13, 3.294559789866256988E-15 ) ) ;
#191 = EDGE_CURVE ( 'NONE', #863, #141, #48, .T. ) ;
#192 = AXIS2_PLACEMENT_3D ( 'NONE', #389, #470, #401 ) ;
#193 = CARTESIAN_POINT ( 'NONE',  ( 2.700000000000000107E-13, 23.00000000000022027, 0.000000000000000000 ) ) ;
#194 = LINE ( 'NONE', #272, #351 ) ;
#195 = CARTESIAN_POINT ( 'NONE',  ( 2.700000000000000107E-13, 23.00000000000022027, 0.000000000000000000 ) ) ;
#196 = FACE_OUTER_BOUND ( 'NONE', #290, .T. ) ;
#197 = DIRECTION ( 'NONE',  ( -0.000000000000000000, 1.000000000000000000, -0.000000000000000000 ) ) ;
#198 = EDGE_LOOP ( 'NONE', ( #356, #629, #284, #182 ) ) ;
#199 = DIRECTION ( 'NONE',  ( -0.000000000000000000, 1.000000000000000000, -0.000000000000000000 ) ) ;
#200 = DIRECTION ( 'NONE',  ( -0.000000000000000000, 1.000000000000000000, -0.000000000000000000 ) ) ;
#201 = SURFACE_STYLE_FILL_AREA ( #550 ) ;
#202 = ORIENTED_EDGE ( 'NONE', *, *, #846, .T. ) ;
#203 = EDGE_CURVE ( 'NONE', #360, #177, #127, .T. ) ;
#204 = FACE_OUTER_BOUND ( 'NONE', #479, .T. ) ;
#205 = ORIENTED_EDGE ( 'NONE', *, *, #655, .F. ) ;
#206 = ORIENTED_EDGE ( 'NONE', *, *, #270, .F. ) ;
#207 = VECTOR ( 'NONE', #481, 1000.000000000000114 ) ;
#208 = AXIS2_PLACEMENT_3D ( 'NONE', #491, #576, #773 ) ;
#209 = DIRECTION ( 'NONE',  ( -0.000000000000000000, 1.000000000000000000, -0.000000000000000000 ) ) ;
#210 = EDGE_LOOP ( 'NONE', ( #317, #557, #916, #649 ) ) ;
#211 = ORIENTED_EDGE ( 'NONE', *, *, #808, .T. ) ;
#212 = VERTEX_POINT ( 'NONE', #267 ) ;
#213 = CARTESIAN_POINT ( 'NONE',  ( 2.700000000000000107E-13, 5.900000000001907274, 0.000000000000000000 ) ) ;
#214 = ORIENTED_EDGE ( 'NONE', *, *, #466, .T. ) ;
#215 = EDGE_LOOP ( 'NONE', ( #563, #852 ) ) ;
#216 = ORIENTED_EDGE ( 'NONE', *, *, #630, .F. ) ;
#217 = EDGE_CURVE ( 'NONE', #141, #863, #327, .T. ) ;
#218 = CARTESIAN_POINT ( 'NONE',  ( 2.700000000000000107E-13, 32.00000000000053291, 0.000000000000000000 ) ) ;
#219 = AXIS2_PLACEMENT_3D ( 'NONE', #111, #174, #233 ) ;
#220 = AXIS2_PLACEMENT_3D ( 'NONE', #259, #209, #70 ) ;
#221 = FACE_OUTER_BOUND ( 'NONE', #538, .T. ) ;
#222 = ORIENTED_EDGE ( 'NONE', *, *, #187, .T. ) ;
#223 = ORIENTED_EDGE ( 'NONE', *, *, #270, .T. ) ;
#224 = CIRCLE ( 'NONE', #713, 2.100000000000379785 ) ;
#225 = CYLINDRICAL_SURFACE ( 'NONE', #750, 2.250000000000386358 ) ;
#226 = CIRCLE ( 'NONE', #730, 2.250000000000386358 ) ;
#227 = DIRECTION ( 'NONE',  ( -0.000000000000000000, 1.000000000000000000, -0.000000000000000000 ) ) ;
#228 = ORIENTED_EDGE ( 'NONE', *, *, #533, .T. ) ;
#229 = EDGE_CURVE ( 'NONE', #360, #566, #534, .T. ) ;
#230 = AXIS2_PLACEMENT_3D ( 'NONE', #612, #185, #749 ) ;
#231 = CARTESIAN_POINT ( 'NONE',  ( 2.701831813833877050E-13, 22.68431457505098692, 0.000000000000000000 ) ) ;
#232 = ORIENTED_EDGE ( 'NONE', *, *, #229, .T. ) ;
#233 = DIRECTION ( 'NONE',  ( 0.000000000000000000, 0.000000000000000000, 1.000000000000000000 ) ) ;
#234 = CIRCLE ( 'NONE', #779, 1.650000000000609868 ) ;
#235 = AXIS2_PLACEMENT_3D ( 'NONE', #40, #758, #319 ) ;
#236 = FACE_OUTER_BOUND ( 'NONE', #365, .T. ) ;
#237 = DIRECTION ( 'NONE',  ( 0.000000000000000000, 0.000000000000000000, 1.000000000000000000 ) ) ;
#238 = ORIENTED_EDGE ( 'NONE', *, *, #384, .T. ) ;
#239 = CARTESIAN_POINT ( 'NONE',  ( 2.700000000000000107E-13, 32.00000000000053291, 0.000000000000000000 ) ) ;
#240 = CARTESIAN_POINT ( 'NONE',  ( 2.704648501471916640E-13, 22.00000000000022027, -2.300000000000405276 ) ) ;
#241 = FACE_OUTER_BOUND ( 'NONE', #424, .T. ) ;
#242 = ORIENTED_EDGE ( 'NONE', *, *, #646, .F. ) ;
#243 = ADVANCED_FACE ( 'NONE', ( #204 ), #895, .T. ) ;
#244 = DIRECTION ( 'NONE',  ( -0.000000000000000000, 1.000000000000000000, -0.000000000000000000 ) ) ;
#245 = CARTESIAN_POINT ( 'NONE',  ( 2.700000000000000107E-13, 5.900000000001907274, 0.000000000000000000 ) ) ;
#246 = EDGE_CURVE ( 'NONE', #85, #596, #486, .T. ) ;
#247 = ORIENTED_EDGE ( 'NONE', *, *, #217, .F. ) ;
#248 = DIRECTION ( 'NONE',  ( -0.000000000000000000, 1.000000000000000000, -0.000000000000000000 ) ) ;
#249 = LINE ( 'NONE', #541, #79 ) ;
#250 = CONICAL_SURFACE ( 'NONE', #610, 1732.050807568903338, 1.047197551196604293 ) ;
#251 = ADVANCED_FACE ( 'NONE', ( #404 ), #254, .T. ) ;
#252 = ORIENTED_EDGE ( 'NONE', *, *, #191, .T. ) ;
#253 = DIRECTION ( 'NONE',  ( 0.000000000000000000, 0.000000000000000000, 1.000000000000000000 ) ) ;
#254 = CYLINDRICAL_SURFACE ( 'NONE', #235, 2.999999999998204547 ) ;
#255 = EDGE_CURVE ( 'NONE', #61, #551, #50, .T. ) ;
#256 = APPLICATION_PROTOCOL_DEFINITION ( 'draft international standard', 'automotive_design', 1998, #546 ) ;
#257 = CARTESIAN_POINT ( 'NONE',  ( 2.700000000000000107E-13, 32.00000000000053291, 0.000000000000000000 ) ) ;
#258 = CARTESIAN_POINT ( 'NONE',  ( 2.700000000000000107E-13, 22.00000000000017408, 2.700000000000376321 ) ) ;
#259 = CARTESIAN_POINT ( 'NONE',  ( 2.700000000000000107E-13, 2.746410161512571779, 0.000000000000000000 ) ) ;
#260 = CIRCLE ( 'NONE', #811, 3.900000000000457323 ) ;
#261 = CARTESIAN_POINT ( 'NONE',  ( 2.700000000000000107E-13, 25.40000000000020464, -2.250000000000386358 ) ) ;
#262 = AXIS2_PLACEMENT_3D ( 'NONE', #325, #312, #663 ) ;
#263 = DIRECTION ( 'NONE',  ( -0.000000000000000000, 1.000000000000000000, -0.000000000000000000 ) ) ;
#264 = PRESENTATION_STYLE_ASSIGNMENT (( #755 ) ) ;
#265 = CARTESIAN_POINT ( 'NONE',  ( 2.700000000000000107E-13, 31.50000000000054001, 0.000000000000000000 ) ) ;
#266 = CIRCLE ( 'NONE', #390, 2.400000000000445777 ) ;
#267 = CARTESIAN_POINT ( 'NONE',  ( 2.700000000000000107E-13, 22.00000000000017408, -3.900000000000457323 ) ) ;
#268 = DIRECTION ( 'NONE',  ( 0.000000000000000000, 0.000000000000000000, 1.000000000000000000 ) ) ;
#269 = ORIENTED_EDGE ( 'NONE', *, *, #354, .T. ) ;
#270 = EDGE_CURVE ( 'NONE', #395, #177, #249, .T. ) ;
#271 = CARTESIAN_POINT ( 'NONE',  ( 2.700000000000000107E-13, 22.96715728752536734, 0.000000000000000000 ) ) ;
#272 = CARTESIAN_POINT ( 'NONE',  ( 2.700000000000000107E-13, 0.3464101615133358125, 0.5999999999989742427 ) ) ;
#273 = ORIENTED_EDGE ( 'NONE', *, *, #881, .T. ) ;
#274 = ORIENTED_EDGE ( 'NONE', *, *, #466, .F. ) ;
#275 = ADVANCED_FACE ( 'NONE', ( #810 ), #754, .T. ) ;
#276 = VECTOR ( 'NONE', #707, 1000.000000000000000 ) ;
#277 = DIRECTION ( 'NONE',  ( 0.000000000000000000, 0.000000000000000000, 1.000000000000000000 ) ) ;
#278 = DIRECTION ( 'NONE',  ( 0.000000000000000000, 0.000000000000000000, 1.000000000000000000 ) ) ;
#279 = ORIENTED_EDGE ( 'NONE', *, *, #777, .T. ) ;
#280 = ORIENTED_EDGE ( 'NONE', *, *, #507, .F. ) ;
#281 = ORIENTED_EDGE ( 'NONE', *, *, #68, .T. ) ;
#282 = DIRECTION ( 'NONE',  ( -0.000000000000000000, 1.000000000000000000, -0.000000000000000000 ) ) ;
#283 = VERTEX_POINT ( 'NONE', #885 ) ;
#284 = ORIENTED_EDGE ( 'NONE', *, *, #521, .T. ) ;
#285 = EDGE_CURVE ( 'NONE', #283, #357, #383, .T. ) ;
#286 = EDGE_CURVE ( 'NONE', #566, #45, #527, .T. ) ;
#287 = CARTESIAN_POINT ( 'NONE',  ( 2.700000000000000107E-13, 25.40000000000020464, 0.000000000000000000 ) ) ;
#288 = PLANE ( 'NONE',  #208 ) ;
#289 = ORIENTED_EDGE ( 'NONE', *, *, #313, .F. ) ;
#290 = EDGE_LOOP ( 'NONE', ( #704, #877, #504, #3 ) ) ;
#291 = FACE_OUTER_BOUND ( 'NONE', #441, .T. ) ;
#292 = AXIS2_PLACEMENT_3D ( 'NONE', #265, #476, #623 ) ;
#293 = DIRECTION ( 'NONE',  ( -0.000000000000000000, 1.000000000000000000, -0.000000000000000000 ) ) ;
#294 = EDGE_LOOP ( 'NONE', ( #216, #636, #660, #577 ) ) ;
#295 = DIRECTION ( 'NONE',  ( 0.000000000000000000, 0.000000000000000000, 1.000000000000000000 ) ) ;
#296 = AXIS2_PLACEMENT_3D ( 'NONE', #502, #581, #2 ) ;
#297 = DIRECTION ( 'NONE',  ( -0.000000000000000000, 1.000000000000000000, -0.000000000000000000 ) ) ;
#298 = AXIS2_PLACEMENT_3D ( 'NONE', #257, #52, #617 ) ;
#299 = FACE_OUTER_BOUND ( 'NONE', #81, .T. ) ;
#300 = EDGE_CURVE ( 'NONE', #395, #212, #911, .T. ) ;
#301 = PLANE ( 'NONE',  #561 ) ;
#302 = CARTESIAN_POINT ( 'NONE',  ( 2.702755455298081711E-13, 25.40000000000020464, 2.250000000000386358 ) ) ;
#303 = VECTOR ( 'NONE', #783, 1000.000000000000000 ) ;
#304 = DIRECTION ( 'NONE',  ( -0.000000000000000000, 1.000000000000000000, -0.000000000000000000 ) ) ;
#305 = CIRCLE ( 'NONE', #292, 2.000000000000111022 ) ;
#306 = CIRCLE ( 'NONE', #428, 2.217157287525530318 ) ;
#307 = EDGE_CURVE ( 'NONE', #177, #45, #385, .T. ) ;
#308 = AXIS2_PLACEMENT_3D ( 'NONE', #122, #56, #335 ) ;
#309 = ORIENTED_EDGE ( 'NONE', *, *, #853, .F. ) ;
#310 =( NAMED_UNIT ( * ) PLANE_ANGLE_UNIT ( ) SI_UNIT ( $, .RADIAN. ) );
#311 = DIRECTION ( 'NONE',  ( 1.224646799147042593E-16, 0.000000000000000000, -1.000000000000000000 ) ) ;
#312 = DIRECTION ( 'NONE',  ( -0.000000000000000000, 1.000000000000000000, -0.000000000000000000 ) ) ;
#313 = EDGE_CURVE ( 'NONE', #596, #133, #456, .T. ) ;
#314 = VERTEX_POINT ( 'NONE', #673 ) ;
#315 = DIRECTION ( 'NONE',  ( 0.000000000000000000, 0.000000000000000000, 1.000000000000000000 ) ) ;
#316 = DIRECTION ( 'NONE',  ( 0.000000000000000000, 0.5000000000000014433, 0.8660254037844379305 ) ) ;
#317 = ORIENTED_EDGE ( 'NONE', *, *, #777, .F. ) ;
#318 = DIRECTION ( 'NONE',  ( 0.000000000000000000, 0.000000000000000000, 1.000000000000000000 ) ) ;
#319 = DIRECTION ( 'NONE',  ( 0.000000000000000000, 0.000000000000000000, 1.000000000000000000 ) ) ;
#320 = ADVANCED_FACE ( 'NONE', ( #241 ), #461, .T. ) ;
#321 = AXIS2_PLACEMENT_3D ( 'NONE', #628, #405, #918 ) ;
#322 = ORIENTED_EDGE ( 'NONE', *, *, #166, .T. ) ;
#323 = CARTESIAN_POINT ( 'NONE',  ( 2.700000000000000107E-13, 25.99999999999998224, -1.650000000000610090 ) ) ;
#324 = UNCERTAINTY_MEASURE_WITH_UNIT (LENGTH_MEASURE( 1.000000000000000082E-05 ), #685, 'distance_accuracy_value', 'NONE');
#325 = CARTESIAN_POINT ( 'NONE',  ( 2.700000000000000107E-13, 21.90000000000016556, 0.000000000000000000 ) ) ;
#326 = ADVANCED_FACE ( 'NONE', ( #329 ), #784, .F. ) ;
#327 = CIRCLE ( 'NONE', #446, 2.100000000000379785 ) ;
#328 = DIRECTION ( 'NONE',  ( 0.000000000000000000, 0.000000000000000000, -1.000000000000000000 ) ) ;
#329 = FACE_OUTER_BOUND ( 'NONE', #426, .T. ) ;
#330 = DIRECTION ( 'NONE',  ( -0.000000000000000000, 1.000000000000000000, -0.000000000000000000 ) ) ;
#331 = CYLINDRICAL_SURFACE ( 'NONE', #298, 4.000000000000465405 ) ;
#332 = LINE ( 'NONE', #843, #207 ) ;
#333 = AXIS2_PLACEMENT_3D ( 'NONE', #899, #836, #253 ) ;
#334 = AXIS2_PLACEMENT_3D ( 'NONE', #346, #762, #830 ) ;
#335 = DIRECTION ( 'NONE',  ( 0.000000000000000000, 0.000000000000000000, 1.000000000000000000 ) ) ;
#336 = CARTESIAN_POINT ( 'NONE',  ( 2.700000000000000107E-13, 21.90000000000016556, 0.000000000000000000 ) ) ;
#337 = DIRECTION ( 'NONE',  ( 0.000000000000000000, 0.7071067811865483499, 0.7071067811865466846 ) ) ;
#338 = EDGE_CURVE ( 'NONE', #863, #9, #889, .T. ) ;
#339 = ORIENTED_EDGE ( 'NONE', *, *, #752, .T. ) ;
#340 = CIRCLE ( 'NONE', #181, 2.217157287525530318 ) ;
#341 = AXIS2_PLACEMENT_3D ( 'NONE', #130, #406, #328 ) ;
#342 = DIRECTION ( 'NONE',  ( -0.000000000000000000, 1.000000000000000000, -0.000000000000000000 ) ) ;
#343 = EDGE_CURVE ( 'NONE', #9, #350, #224, .T. ) ;
#344 = ORIENTED_EDGE ( 'NONE', *, *, #86, .T. ) ;
#345 = DIRECTION ( 'NONE',  ( 0.000000000000000000, 0.000000000000000000, 1.000000000000000000 ) ) ;
#346 = CARTESIAN_POINT ( 'NONE',  ( 2.700000000000000107E-13, 25.99999999999998224, 0.000000000000000000 ) ) ;
#347 = ADVANCED_FACE ( 'NONE', ( #539 ), #430, .T. ) ;
#348 = CIRCLE ( 'NONE', #875, 0.5999999999989742427 ) ;
#349 = ORIENTED_EDGE ( 'NONE', *, *, #422, .F. ) ;
#350 = VERTEX_POINT ( 'NONE', #474 ) ;
#351 = VECTOR ( 'NONE', #337, 1000.000000000000000 ) ;
#352 = AXIS2_PLACEMENT_3D ( 'NONE', #602, #614, #188 ) ;
#353 = CARTESIAN_POINT ( 'NONE',  ( 2.700000000000000107E-13, 22.96715728752536734, 0.000000000000000000 ) ) ;
#354 = EDGE_CURVE ( 'NONE', #596, #85, #21, .T. ) ;
#355 = VERTEX_POINT ( 'NONE', #118 ) ;
#356 = ORIENTED_EDGE ( 'NONE', *, *, #669, .F. ) ;
#357 = VERTEX_POINT ( 'NONE', #258 ) ;
#358 = CARTESIAN_POINT ( 'NONE',  ( 2.700000000000000107E-13, 25.40000000000020464, 0.000000000000000000 ) ) ;
#359 = DIRECTION ( 'NONE',  ( 0.000000000000000000, 0.000000000000000000, 1.000000000000000000 ) ) ;
#360 = VERTEX_POINT ( 'NONE', #398 ) ;
#361 = ORIENTED_EDGE ( 'NONE', *, *, #166, .F. ) ;
#362 = ORIENTED_EDGE ( 'NONE', *, *, #338, .F. ) ;
#363 = FACE_OUTER_BOUND ( 'NONE', #775, .T. ) ;
#364 = ORIENTED_EDGE ( 'NONE', *, *, #246, .F. ) ;
#365 = EDGE_LOOP ( 'NONE', ( #309, #150, #692, #410 ) ) ;
#366 = DIRECTION ( 'NONE',  ( -0.000000000000000000, 1.000000000000000000, -0.000000000000000000 ) ) ;
#367 = AXIS2_PLACEMENT_3D ( 'NONE', #560, #55, #849 ) ;
#368 =( NAMED_UNIT ( * ) SI_UNIT ( $, .STERADIAN. ) SOLID_ANGLE_UNIT ( ) );
#369 = FACE_OUTER_BOUND ( 'NONE', #767, .T. ) ;
#370 = EDGE_LOOP ( 'NONE', ( #232, #29, #772, #640 ) ) ;
#371 = EDGE_CURVE ( 'NONE', #551, #78, #699, .T. ) ;
#372 = LINE ( 'NONE', #438, #168 ) ;
#373 = CONICAL_SURFACE ( 'NONE', #802, 2.217157287525530318, 0.7853981633974613796 ) ;
#374 =( LENGTH_UNIT ( ) NAMED_UNIT ( * ) SI_UNIT ( .MILLI., .METRE. ) );
#375 = TOROIDAL_SURFACE ( 'NONE', #583, 2.500000000000359712, 0.3999999999999797606 ) ;
#376 = ORIENTED_EDGE ( 'NONE', *, *, #162, .T. ) ;
#377 = LINE ( 'NONE', #601, #454 ) ;
#378 = ORIENTED_EDGE ( 'NONE', *, *, #876, .F. ) ;
#379 = CYLINDRICAL_SURFACE ( 'NONE', #164, 2.100000000000379785 ) ;
#380 = DIRECTION ( 'NONE',  ( 1.224646799146826149E-16, 0.000000000000000000, -1.000000000000000000 ) ) ;
#381 = CIRCLE ( 'NONE', #817, 1.500000000000109912 ) ;
#382 = AXIS2_PLACEMENT_3D ( 'NONE', #418, #688, #51 ) ;
#383 = LINE ( 'NONE', #120, #32 ) ;
#384 = EDGE_CURVE ( 'NONE', #355, #812, #821, .T. ) ;
#385 = CIRCLE ( 'NONE', #262, 4.000000000000465405 ) ;
#386 = EDGE_LOOP ( 'NONE', ( #562, #437, #322, #882 ) ) ;
#387 = DIRECTION ( 'NONE',  ( 0.000000000000000000, 0.000000000000000000, 1.000000000000000000 ) ) ;
#388 = DIRECTION ( 'NONE',  ( 0.000000000000000000, 0.000000000000000000, 1.000000000000000000 ) ) ;
#389 = CARTESIAN_POINT ( 'NONE',  ( 2.700000000000000107E-13, 32.00000000000053291, 0.000000000000000000 ) ) ;
#390 = AXIS2_PLACEMENT_3D ( 'NONE', #760, #681, #473 ) ;
#391 = VERTEX_POINT ( 'NONE', #873 ) ;
#392 = CARTESIAN_POINT ( 'NONE',  ( 2.700000000000000107E-13, 32.00000000000054001, 0.000000000000000000 ) ) ;
#393 = EDGE_CURVE ( 'NONE', #641, #823, #824, .T. ) ;
#394 = DIRECTION ( 'NONE',  ( -0.000000000000000000, 1.000000000000000000, -0.000000000000000000 ) ) ;
#395 = VERTEX_POINT ( 'NONE', #186 ) ;
#396 = CARTESIAN_POINT ( 'NONE',  ( 2.700000000000000107E-13, 22.00000000000017408, 0.000000000000000000 ) ) ;
#397 = AXIS2_PLACEMENT_3D ( 'NONE', #231, #580, #169 ) ;
#398 = CARTESIAN_POINT ( 'NONE',  ( 2.700000000000000107E-13, 8.708218385331024436, 4.000000000000465405 ) ) ;
#399 = STYLED_ITEM ( 'NONE', ( #264 ), #886 ) ;
#400 = FACE_OUTER_BOUND ( 'NONE', #145, .T. ) ;
#401 = DIRECTION ( 'NONE',  ( 0.000000000000000000, 0.000000000000000000, 1.000000000000000000 ) ) ;
#402 = AXIS2_PLACEMENT_3D ( 'NONE', #506, #727, #788 ) ;
#403 = DIRECTION ( 'NONE',  ( 0.000000000000000000, -0.7071067811865483499, -0.7071067811865466846 ) ) ;
#404 = FACE_OUTER_BOUND ( 'NONE', #771, .T. ) ;
#405 = DIRECTION ( 'NONE',  ( 0.000000000000000000, -1.000000000000000000, 0.000000000000000000 ) ) ;
#406 = DIRECTION ( 'NONE',  ( 0.000000000000000000, -1.000000000000000000, 0.000000000000000000 ) ) ;
#407 = LINE ( 'NONE', #624, #94 ) ;
#408 = EDGE_CURVE ( 'NONE', #812, #355, #537, .T. ) ;
#409 = FACE_OUTER_BOUND ( 'NONE', #574, .T. ) ;
#410 = ORIENTED_EDGE ( 'NONE', *, *, #393, .F. ) ;
#411 = DIRECTION ( 'NONE',  ( 0.000000000000000000, 0.4999999999999943934, 0.8660254037844420383 ) ) ;
#412 = CARTESIAN_POINT ( 'NONE',  ( 2.702143131898507909E-13, 32.00000000000054001, 1.500000000000109912 ) ) ;
#413 = CARTESIAN_POINT ( 'NONE',  ( 2.700000000000000107E-13, 22.96715728752536734, 0.000000000000000000 ) ) ;
#414 = ORIENTED_EDGE ( 'NONE', *, *, #313, .T. ) ;
#415 = AXIS2_PLACEMENT_3D ( 'NONE', #529, #893, #806 ) ;
#416 = ADVANCED_FACE ( 'NONE', ( #686 ), #585, .T. ) ;
#417 = DIRECTION ( 'NONE',  ( 0.000000000000000000, 0.000000000000000000, 1.000000000000000000 ) ) ;
#418 = CARTESIAN_POINT ( 'NONE',  ( 2.700000000000000107E-13, 25.40000000000020464, 0.000000000000000000 ) ) ;
#419 = ORIENTED_EDGE ( 'NONE', *, *, #545, .T. ) ;
#420 = ORIENTED_EDGE ( 'NONE', *, *, #841, .T. ) ;
#421 = ORIENTED_EDGE ( 'NONE', *, *, #545, .F. ) ;
#422 = EDGE_CURVE ( 'NONE', #73, #792, #156, .T. ) ;
#423 = CARTESIAN_POINT ( 'NONE',  ( 2.702449293598294810E-13, 31.50000000000054001, 2.000000000000111022 ) ) ;
#424 = EDGE_LOOP ( 'NONE', ( #202, #807, #862, #711 ) ) ;
#425 = VERTEX_POINT ( 'NONE', #126 ) ;
#426 = EDGE_LOOP ( 'NONE', ( #600, #856, #887, #144 ) ) ;
#427 = CONICAL_SURFACE ( 'NONE', #176, 2.217157287525530318, 0.7853981633974613796 ) ;
#428 = AXIS2_PLACEMENT_3D ( 'NONE', #413, #330, #696 ) ;
#429 = UNCERTAINTY_MEASURE_WITH_UNIT (LENGTH_MEASURE( 1.000000000000000082E-05 ), #374, 'distance_accuracy_value', 'NONE');
#430 = CONICAL_SURFACE ( 'NONE', #870, 2.999999999998204547, 0.3420966728675841062 ) ;
#431 = CARTESIAN_POINT ( 'NONE',  ( 2.702715234575374602E-13, 22.96715728752536734, -2.217157287525530318 ) ) ;
#432 = ORIENTED_EDGE ( 'NONE', *, *, #651, .F. ) ;
#433 = PRODUCT_DEFINITION_SHAPE ( 'NONE', 'NONE',  #872 ) ;
#434 = DIRECTION ( 'NONE',  ( -0.000000000000000000, 1.000000000000000000, -0.000000000000000000 ) ) ;
#435 = DIRECTION ( 'NONE',  ( 0.000000000000000000, 0.000000000000000000, 1.000000000000000000 ) ) ;
#436 = ORIENTED_EDGE ( 'NONE', *, *, #646, .T. ) ;
#437 = ORIENTED_EDGE ( 'NONE', *, *, #616, .F. ) ;
#438 = CARTESIAN_POINT ( 'NONE',  ( 2.703306546357698537E-13, 22.00000000000017408, -2.700000000000376321 ) ) ;
#439 = ADVANCED_FACE ( 'NONE', ( #540 ), #331, .T. ) ;
#440 = CARTESIAN_POINT ( 'NONE',  ( 2.702571758278210277E-13, 32.00000000000053291, -2.100000000000379785 ) ) ;
#441 = EDGE_LOOP ( 'NONE', ( #743, #38, #488, #143 ) ) ;
#442 = CIRCLE ( 'NONE', #589, 2.250000000000386358 ) ;
#443 = FACE_OUTER_BOUND ( 'NONE', #726, .T. ) ;
#444 = FILL_AREA_STYLE_COLOUR ( '', #30 ) ;
#445 = LINE ( 'NONE', #642, #303 ) ;
#446 = AXIS2_PLACEMENT_3D ( 'NONE', #564, #766, #687 ) ;
#447 = FACE_OUTER_BOUND ( 'NONE', #698, .T. ) ;
#448 = DIRECTION ( 'NONE',  ( -0.000000000000000000, 1.000000000000000000, -0.000000000000000000 ) ) ;
#449 = VERTEX_POINT ( 'NONE', #826 ) ;
#450 = CARTESIAN_POINT ( 'NONE',  ( 2.701831813833877050E-13, 22.68431457505098692, 2.500000000000359712 ) ) ;
#451 = EDGE_CURVE ( 'NONE', #792, #73, #184, .T. ) ;
#452 = ORIENTED_EDGE ( 'NONE', *, *, #408, .T. ) ;
#453 = DIRECTION ( 'NONE',  ( -1.000000000000000000, 0.000000000000000000, 0.000000000000000000 ) ) ;
#454 = VECTOR ( 'NONE', #658, 999.9999999999998863 ) ;
#455 = CIRCLE ( 'NONE', #220, 2.999999999998204547 ) ;
#456 = LINE ( 'NONE', #109, #472 ) ;
#457 = ORIENTED_EDGE ( 'NONE', *, *, #307, .T. ) ;
#458 = DIRECTION ( 'NONE',  ( 0.000000000000000000, 0.000000000000000000, 1.000000000000000000 ) ) ;
#459 = CARTESIAN_POINT ( 'NONE',  ( 2.703673940397439890E-13, 2.746410161512571779, -2.999999999998204547 ) ) ;
#460 = CIRCLE ( 'NONE', #95, 2.700000000000376321 ) ;
#461 = CYLINDRICAL_SURFACE ( 'NONE', #192, 2.999999999998204547 ) ;
#462 = AXIS2_PLACEMENT_3D ( 'NONE', #119, #199, #832 ) ;
#463 = ORIENTED_EDGE ( 'NONE', *, *, #900, .F. ) ;
#464 = CARTESIAN_POINT ( 'NONE',  ( 2.700000000000000107E-13, 32.00000000000053291, 0.000000000000000000 ) ) ;
#465 = CARTESIAN_POINT ( 'NONE',  ( 2.700000000000000107E-13, 22.68431457505094784, 0.000000000000000000 ) ) ;
#466 = EDGE_CURVE ( 'NONE', #391, #449, #548, .T. ) ;
#467 = FACE_OUTER_BOUND ( 'NONE', #736, .T. ) ;
#468 = CONICAL_SURFACE ( 'NONE', #189, 2.000000000000111022, 0.7853981633974489451 ) ;
#469 = ADVANCED_FACE ( 'NONE', ( #467 ), #552, .T. ) ;
#470 = DIRECTION ( 'NONE',  ( -0.000000000000000000, 1.000000000000000000, -0.000000000000000000 ) ) ;
#471 = CONICAL_SURFACE ( 'NONE', #828, 2.999999999998204547, 0.3420966728675841062 ) ;
#472 = VECTOR ( 'NONE', #530, 1000.000000000000000 ) ;
#473 = DIRECTION ( 'NONE',  ( 0.000000000000000000, 0.000000000000000000, 1.000000000000000000 ) ) ;
#474 = CARTESIAN_POINT ( 'NONE',  ( 2.702571758278210277E-13, 22.68431457505094784, -2.100000000000379785 ) ) ;
#475 = CARTESIAN_POINT ( 'NONE',  ( 2.700000000000000107E-13, 5.900000000001907274, 0.000000000000000000 ) ) ;
#476 = DIRECTION ( 'NONE',  ( -0.000000000000000000, 1.000000000000000000, -0.000000000000000000 ) ) ;
#477 = EDGE_CURVE ( 'NONE', #283, #511, #266, .T. ) ;
#478 = LINE ( 'NONE', #768, #682 ) ;
#479 = EDGE_LOOP ( 'NONE', ( #82, #281, #855, #868 ) ) ;
#480 = DIRECTION ( 'NONE',  ( 0.000000000000000000, 0.000000000000000000, 1.000000000000000000 ) ) ;
#481 = DIRECTION ( 'NONE',  ( 0.000000000000000000, 0.9420533805113692205, 0.3354630058100314116 ) ) ;
#482 = PRESENTATION_LAYER_ASSIGNMENT (  '', '', ( #399 ) ) ;
#483 = ORIENTED_EDGE ( 'NONE', *, *, #871, .T. ) ;
#484 = ADVANCED_FACE ( 'NONE', ( #400, #689 ), #757, .F. ) ;
#485 = DIRECTION ( 'NONE',  ( -0.000000000000000000, 1.000000000000000000, -0.000000000000000000 ) ) ;
#486 = CIRCLE ( 'NONE', #880, 2.000000000000111022 ) ;
#487 = ORIENTED_EDGE ( 'NONE', *, *, #354, .F. ) ;
#488 = ORIENTED_EDGE ( 'NONE', *, *, #451, .F. ) ;
#489 = VECTOR ( 'NONE', #293, 1000.000000000000000 ) ;
#490 = EDGE_CURVE ( 'NONE', #314, #133, #305, .T. ) ;
#491 = CARTESIAN_POINT ( 'NONE',  ( 1.500000000000379918, 32.00000000000054001, 0.000000000000000000 ) ) ;
#492 = ORIENTED_EDGE ( 'NONE', *, *, #822, .F. ) ;
#493 = ORIENTED_EDGE ( 'NONE', *, *, #27, .F. ) ;
#494 = CARTESIAN_POINT ( 'NONE',  ( 2.700000000000000107E-13, 32.00000000000053291, 0.000000000000000000 ) ) ;
#495 = VERTEX_POINT ( 'NONE', #553 ) ;
#496 = EDGE_LOOP ( 'NONE', ( #505, #223, #457, #492 ) ) ;
#497 = ORIENTED_EDGE ( 'NONE', *, *, #837, .T. ) ;
#498 = CIRCLE ( 'NONE', #333, 1.500000000000109912 ) ;
#499 = VECTOR ( 'NONE', #638, 1000.000000000000114 ) ;
#500 = CARTESIAN_POINT ( 'NONE',  ( 2.700000000000000107E-13, 2.746410161512571779, 2.999999999998204547 ) ) ;
#501 = AXIS2_PLACEMENT_3D ( 'NONE', #744, #394, #536 ) ;
#502 = CARTESIAN_POINT ( 'NONE',  ( 2.701831813833877050E-13, 22.00000000000022027, 2.300000000000405276 ) ) ;
#503 = ADVANCED_BREP_SHAPE_REPRESENTATION ( '99688-SI06-M04+S9MT06T1-090', ( #886, #831 ), #664 ) ;
#504 = ORIENTED_EDGE ( 'NONE', *, *, #408, .F. ) ;
#505 = ORIENTED_EDGE ( 'NONE', *, *, #300, .F. ) ;
#506 = CARTESIAN_POINT ( 'NONE',  ( 2.700000000000000107E-13, 32.00000000000053291, 0.000000000000000000 ) ) ;
#507 = EDGE_CURVE ( 'NONE', #172, #129, #498, .T. ) ;
#508 = ADVANCED_FACE ( 'NONE', ( #764 ), #735, .F. ) ;
#509 = AXIS2_PLACEMENT_3D ( 'NONE', #193, #901, #33 ) ;
#510 = CARTESIAN_POINT ( 'NONE',  ( 2.703673940397439890E-13, 5.900000000001907274, -2.999999999998204547 ) ) ;
#511 = VERTEX_POINT ( 'NONE', #167 ) ;
#512 = PRODUCT_RELATED_PRODUCT_CATEGORY ( 'part', '', ( #41 ) ) ;
#513 = ORIENTED_EDGE ( 'NONE', *, *, #203, .T. ) ;
#514 = DIRECTION ( 'NONE',  ( 1.060575238724910982E-16, 0.4999999999999943934, -0.8660254037844420383 ) ) ;
#515 = TOROIDAL_SURFACE ( 'NONE', #397, 2.500000000000359712, 0.3999999999999797606 ) ;
#516 = FACE_OUTER_BOUND ( 'NONE', #635, .T. ) ;
#517 = EDGE_CURVE ( 'NONE', #110, #812, #377, .T. ) ;
#518 = CIRCLE ( 'NONE', #367, 2.100000000000379785 ) ;
#519 = PRESENTATION_STYLE_ASSIGNMENT (( #92 ) ) ;
#520 = CARTESIAN_POINT ( 'NONE',  ( 2.702449293598294810E-13, 26.65000000000054925, -2.000000000000111022 ) ) ;
#521 = EDGE_CURVE ( 'NONE', #110, #9, #619, .T. ) ;
#522 = FACE_OUTER_BOUND ( 'NONE', #920, .T. ) ;
#523 = FACE_OUTER_BOUND ( 'NONE', #604, .T. ) ;
#524 = ORIENTED_EDGE ( 'NONE', *, *, #837, .F. ) ;
#525 =( LENGTH_UNIT ( ) NAMED_UNIT ( * ) SI_UNIT ( .MILLI., .METRE. ) );
#526 = DIRECTION ( 'NONE',  ( -0.000000000000000000, 1.000000000000000000, -0.000000000000000000 ) ) ;
#527 = LINE ( 'NONE', #825, #547 ) ;
#528 = ORIENTED_EDGE ( 'NONE', *, *, #507, .T. ) ;
#529 = CARTESIAN_POINT ( 'NONE',  ( 2.700000000000000107E-13, 0.3464101615133358125, 0.000000000000000000 ) ) ;
#530 = DIRECTION ( 'NONE',  ( -0.000000000000000000, 1.000000000000000000, -0.000000000000000000 ) ) ;
#531 = ORIENTED_EDGE ( 'NONE', *, *, #841, .F. ) ;
#532 = CARTESIAN_POINT ( 'NONE',  ( 2.700000000000000107E-13, 22.96715728752536734, 0.000000000000000000 ) ) ;
#533 = EDGE_CURVE ( 'NONE', #212, #395, #260, .T. ) ;
#534 = CIRCLE ( 'NONE', #134, 4.000000000000465405 ) ;
#535 = CIRCLE ( 'NONE', #296, 0.2000000000000252409 ) ;
#536 = DIRECTION ( 'NONE',  ( 0.000000000000000000, 0.000000000000000000, 1.000000000000000000 ) ) ;
#537 = CIRCLE ( 'NONE', #66, 2.250000000000386358 ) ;
#538 = EDGE_LOOP ( 'NONE', ( #835, #497, #376, #703 ) ) ;
#539 = FACE_OUTER_BOUND ( 'NONE', #149, .T. ) ;
#540 = FACE_OUTER_BOUND ( 'NONE', #370, .T. ) ;
#541 = CARTESIAN_POINT ( 'NONE',  ( 2.704898587196590018E-13, 21.90000000000016556, 4.000000000000465405 ) ) ;
#542 = TOROIDAL_SURFACE ( 'NONE', #219, 2.300000000000405276, 0.2000000000000252409 ) ;
#543 = AXIS2_PLACEMENT_3D ( 'NONE', #475, #197, #278 ) ;
#544 = CARTESIAN_POINT ( 'NONE',  ( 2.700000000000000107E-13, 21.90000000000016556, -4.000000000000465405 ) ) ;
#545 = EDGE_CURVE ( 'NONE', #511, #283, #103, .T. ) ;
#546 = APPLICATION_CONTEXT ( 'automotive_design' ) ;
#547 = VECTOR ( 'NONE', #175, 1000.000000000000000 ) ;
#548 = LINE ( 'NONE', #190, #112 ) ;
#549 = LINE ( 'NONE', #914, #567 ) ;
#550 = FILL_AREA_STYLE ('',( #839 ) ) ;
#551 = VERTEX_POINT ( 'NONE', #459 ) ;
#552 = CONICAL_SURFACE ( 'NONE', #462, 0.5999999999989742427, 0.7853981633974471688 ) ;
#553 = CARTESIAN_POINT ( 'NONE',  ( 2.700000000000000107E-13, 5.900000000001907274, 2.999999999998204547 ) ) ;
#554 = CARTESIAN_POINT ( 'NONE',  ( 2.700000000000000107E-13, 1000.000000000000227, 0.000000000000000000 ) ) ;
#555 = CARTESIAN_POINT ( 'NONE',  ( 2.702755455298081711E-13, 25.40000000000020464, -2.250000000000386358 ) ) ;
#556 = EDGE_CURVE ( 'NONE', #495, #845, #26, .T. ) ;
#557 = ORIENTED_EDGE ( 'NONE', *, *, #217, .T. ) ;
#558 = DIRECTION ( 'NONE',  ( 0.000000000000000000, 0.000000000000000000, 1.000000000000000000 ) ) ;
#559 = AXIS2_PLACEMENT_3D ( 'NONE', #731, #798, #165 ) ;
#560 = CARTESIAN_POINT ( 'NONE',  ( 2.700000000000000107E-13, 22.68431457505094784, 0.000000000000000000 ) ) ;
#561 = AXIS2_PLACEMENT_3D ( 'NONE', #883, #15, #738 ) ;
#562 = ORIENTED_EDGE ( 'NONE', *, *, #752, .F. ) ;
#563 = ORIENTED_EDGE ( 'NONE', *, *, #451, .T. ) ;
#564 = CARTESIAN_POINT ( 'NONE',  ( 2.700000000000000107E-13, 22.00000000000021316, 0.000000000000000000 ) ) ;
#565 = CARTESIAN_POINT ( 'NONE',  ( 2.700000000000000107E-13, 22.00000000000021316, 2.100000000000379785 ) ) ;
#566 = VERTEX_POINT ( 'NONE', #171 ) ;
#567 = VECTOR ( 'NONE', #694, 1000.000000000000114 ) ;
#568 = ORIENTED_EDGE ( 'NONE', *, *, #246, .T. ) ;
#569 = ORIENTED_EDGE ( 'NONE', *, *, #630, .T. ) ;
#570 = UNCERTAINTY_MEASURE_WITH_UNIT (LENGTH_MEASURE( 1.000000000000000082E-05 ), #525, 'distance_accuracy_value', 'NONE');
#571 = LINE ( 'NONE', #510, #58 ) ;
#572 = ORIENTED_EDGE ( 'NONE', *, *, #68, .F. ) ;
#573 = EDGE_LOOP ( 'NONE', ( #452, #644, #205, #851 ) ) ;
#574 = EDGE_LOOP ( 'NONE', ( #274, #926, #639 ) ) ;
#575 = FACE_OUTER_BOUND ( 'NONE', #198, .T. ) ;
#576 = DIRECTION ( 'NONE',  ( 0.000000000000000000, -1.000000000000000000, 0.000000000000000000 ) ) ;
#577 = ORIENTED_EDGE ( 'NONE', *, *, #477, .T. ) ;
#578 = AXIS2_PLACEMENT_3D ( 'NONE', #450, #453, #388 ) ;
#579 = ADVANCED_FACE ( 'NONE', ( #609 ), #888, .T. ) ;
#580 = DIRECTION ( 'NONE',  ( -0.000000000000000000, 1.000000000000000000, -0.000000000000000000 ) ) ;
#581 = DIRECTION ( 'NONE',  ( -1.000000000000000000, 0.000000000000000000, 0.000000000000000000 ) ) ;
#582 = ORIENTED_EDGE ( 'NONE', *, *, #651, .T. ) ;
#583 = AXIS2_PLACEMENT_3D ( 'NONE', #859, #643, #359 ) ;
#584 = CARTESIAN_POINT ( 'NONE',  ( 2.702388061258337834E-13, 25.99999999999998224, 1.650000000000610090 ) ) ;
#585 = CONICAL_SURFACE ( 'NONE', #341, 2.000000000000111022, 0.7853981633974489451 ) ;
#586 = ADVANCED_FACE ( 'NONE', ( #98 ), #542, .F. ) ;
#587 = DIRECTION ( 'NONE',  ( 0.000000000000000000, 0.000000000000000000, -1.000000000000000000 ) ) ;
#588 = ADVANCED_FACE ( 'NONE', ( #523 ), #427, .T. ) ;
#589 = AXIS2_PLACEMENT_3D ( 'NONE', #358, #656, #295 ) ;
#590 = CARTESIAN_POINT ( 'NONE',  ( 2.700734788079487357E-13, 0.3464101615133358125, -0.5999999999989743538 ) ) ;
#591 = VECTOR ( 'NONE', #794, 1000.000000000000000 ) ;
#592 = CYLINDRICAL_SURFACE ( 'NONE', #785, 2.000000000000111022 ) ;
#593 = DIRECTION ( 'NONE',  ( 0.000000000000000000, 0.000000000000000000, 1.000000000000000000 ) ) ;
#594 = PRESENTATION_LAYER_ASSIGNMENT (  '', '', ( #782 ) ) ;
#595 = VECTOR ( 'NONE', #599, 1000.000000000000000 ) ;
#596 = VERTEX_POINT ( 'NONE', #520 ) ;
#597 = DIRECTION ( 'NONE',  ( 0.000000000000000000, 0.000000000000000000, 1.000000000000000000 ) ) ;
#598 = DIRECTION ( 'NONE',  ( 0.000000000000000000, 0.000000000000000000, 1.000000000000000000 ) ) ;
#599 = DIRECTION ( 'NONE',  ( 8.659560562354922997E-17, 0.7071067811865483499, -0.7071067811865466846 ) ) ;
#600 = ORIENTED_EDGE ( 'NONE', *, *, #117, .F. ) ;
#601 = CARTESIAN_POINT ( 'NONE',  ( 2.700000000000000107E-13, 22.96715728752536734, 2.217157287525530318 ) ) ;
#602 = CARTESIAN_POINT ( 'NONE',  ( 2.700000000000000107E-13, 22.00000000000017408, 0.000000000000000000 ) ) ;
#603 = EDGE_CURVE ( 'NONE', #357, #425, #146, .T. ) ;
#604 = EDGE_LOOP ( 'NONE', ( #634, #211, #781, #77 ) ) ;
#605 = DIRECTION ( 'NONE',  ( 0.000000000000000000, 0.000000000000000000, 1.000000000000000000 ) ) ;
#606 = MECHANICAL_DESIGN_GEOMETRIC_PRESENTATION_REPRESENTATION (  '', ( #399 ), #753 ) ;
#607 = DIRECTION ( 'NONE',  ( -0.000000000000000000, 1.000000000000000000, -0.000000000000000000 ) ) ;
#608 = VERTEX_POINT ( 'NONE', #39 ) ;
#609 = FACE_OUTER_BOUND ( 'NONE', #710, .T. ) ;
#610 = AXIS2_PLACEMENT_3D ( 'NONE', #554, #263, #558 ) ;
#611 = AXIS2_PLACEMENT_3D ( 'NONE', #715, #154, #718 ) ;
#612 = CARTESIAN_POINT ( 'NONE',  ( 2.700000000000000107E-13, 26.65000000000054925, 0.000000000000000000 ) ) ;
#613 = DIRECTION ( 'NONE',  ( 0.000000000000000000, 0.000000000000000000, 1.000000000000000000 ) ) ;
#614 = DIRECTION ( 'NONE',  ( -0.000000000000000000, 1.000000000000000000, -0.000000000000000000 ) ) ;
#615 = CARTESIAN_POINT ( 'NONE',  ( 2.703673940397439890E-13, 5.900000000001907274, -2.999999999998204547 ) ) ;
#616 = EDGE_CURVE ( 'NONE', #129, #172, #381, .T. ) ;
#617 = DIRECTION ( 'NONE',  ( 0.000000000000000000, 0.000000000000000000, 1.000000000000000000 ) ) ;
#618 = CARTESIAN_POINT ( 'NONE',  ( 2.700000000000000107E-13, 22.00000000000021316, 0.000000000000000000 ) ) ;
#619 = CIRCLE ( 'NONE', #578, 0.3999999999999798161 ) ;
#620 = CONICAL_SURFACE ( 'NONE', #382, 2.250000000000386358, 0.7853981633974471688 ) ;
#621 =( NAMED_UNIT ( * ) SI_UNIT ( $, .STERADIAN. ) SOLID_ANGLE_UNIT ( ) );
#622 = VECTOR ( 'NONE', #668, 1000.000000000000000 ) ;
#623 = DIRECTION ( 'NONE',  ( 0.000000000000000000, 0.000000000000000000, 1.000000000000000000 ) ) ;
#624 = CARTESIAN_POINT ( 'NONE',  ( 2.700000000000000107E-13, 32.00000000000053291, 2.999999999998204547 ) ) ;
#625 =( NAMED_UNIT ( * ) PLANE_ANGLE_UNIT ( ) SI_UNIT ( $, .RADIAN. ) );
#626 = EDGE_LOOP ( 'NONE', ( #252, #279, #857, #362 ) ) ;
#627 = DIRECTION ( 'NONE',  ( 0.000000000000000000, 0.000000000000000000, 1.000000000000000000 ) ) ;
#628 = CARTESIAN_POINT ( 'NONE',  ( 2.700000000000000107E-13, 21.90000000000016556, 0.000000000000000000 ) ) ;
#629 = ORIENTED_EDGE ( 'NONE', *, *, #684, .F. ) ;
#630 = EDGE_CURVE ( 'NONE', #141, #511, #653, .T. ) ;
#631 = CARTESIAN_POINT ( 'NONE',  ( 2.700000000000000107E-13, 26.65000000000054925, 0.000000000000000000 ) ) ;
#632 = CARTESIAN_POINT ( 'NONE',  ( 2.700000000000000107E-13, 23.00000000000022027, 2.250000000000386358 ) ) ;
#633 = CIRCLE ( 'NONE', #543, 2.999999999998204547 ) ;
#634 = ORIENTED_EDGE ( 'NONE', *, *, #795, .F. ) ;
#635 = EDGE_LOOP ( 'NONE', ( #280, #339, #665, #361 ) ) ;
#636 = ORIENTED_EDGE ( 'NONE', *, *, #191, .F. ) ;
#637 = EDGE_CURVE ( 'NONE', #449, #61, #742, .T. ) ;
#638 = DIRECTION ( 'NONE',  ( 8.659560562354937789E-17, -0.7071067811865470176, 0.7071067811865479058 ) ) ;
#639 = ORIENTED_EDGE ( 'NONE', *, *, #637, .F. ) ;
#640 = ORIENTED_EDGE ( 'NONE', *, *, #203, .F. ) ;
#641 = VERTEX_POINT ( 'NONE', #323 ) ;
#642 = CARTESIAN_POINT ( 'NONE',  ( 2.702755455298081711E-13, 32.00000000000053291, -2.250000000000386358 ) ) ;
#643 = DIRECTION ( 'NONE',  ( -0.000000000000000000, 1.000000000000000000, -0.000000000000000000 ) ) ;
#644 = ORIENTED_EDGE ( 'NONE', *, *, #93, .T. ) ;
#645 = ORIENTED_EDGE ( 'NONE', *, *, #714, .T. ) ;
#646 = EDGE_CURVE ( 'NONE', #425, #357, #460, .T. ) ;
#647 = ORIENTED_EDGE ( 'NONE', *, *, #637, .T. ) ;
#648 = FACE_OUTER_BOUND ( 'NONE', #84, .T. ) ;
#649 = ORIENTED_EDGE ( 'NONE', *, *, #881, .F. ) ;
#650 = DIRECTION ( 'NONE',  ( 0.000000000000000000, 0.000000000000000000, 1.000000000000000000 ) ) ;
#651 = EDGE_CURVE ( 'NONE', #45, #177, #18, .T. ) ;
#652 = LINE ( 'NONE', #159, #135 ) ;
#653 = CIRCLE ( 'NONE', #62, 0.2000000000000252409 ) ;
#654 = CARTESIAN_POINT ( 'NONE',  ( 2.700000000000000107E-13, 0.3464101615133358125, 0.000000000000000000 ) ) ;
#655 = EDGE_CURVE ( 'NONE', #897, #823, #226, .T. ) ;
#656 = DIRECTION ( 'NONE',  ( -0.000000000000000000, 1.000000000000000000, -0.000000000000000000 ) ) ;
#657 = CARTESIAN_POINT ( 'NONE',  ( 0.000000000000000000, 0.000000000000000000, 0.000000000000000000 ) ) ;
#658 = DIRECTION ( 'NONE',  ( 0.000000000000000000, 0.7071067811865383579, 0.7071067811865567876 ) ) ;
#659 = AXIS2_PLACEMENT_3D ( 'NONE', #739, #879, #183 ) ;
#660 = ORIENTED_EDGE ( 'NONE', *, *, #697, .T. ) ;
#661 = LINE ( 'NONE', #666, #591 ) ;
#662 = CARTESIAN_POINT ( 'NONE',  ( 2.700000000000000107E-13, 22.00000000000017408, 0.000000000000000000 ) ) ;
#663 = DIRECTION ( 'NONE',  ( 0.000000000000000000, 0.000000000000000000, 1.000000000000000000 ) ) ;
#664 =( GEOMETRIC_REPRESENTATION_CONTEXT ( 3 ) GLOBAL_UNCERTAINTY_ASSIGNED_CONTEXT ( ( #570 ) ) GLOBAL_UNIT_ASSIGNED_CONTEXT ( ( #525, #790, #368 ) ) REPRESENTATION_CONTEXT ( 'NONE', 'WORKASPACE' ) );
#665 = ORIENTED_EDGE ( 'NONE', *, *, #490, .T. ) ;
#666 = CARTESIAN_POINT ( 'NONE',  ( 2.700000000000000107E-13, 32.00000000000053291, 2.000000000000111022 ) ) ;
#667 = DIRECTION ( 'NONE',  ( 0.000000000000000000, 0.000000000000000000, 1.000000000000000000 ) ) ;
#668 = DIRECTION ( 'NONE',  ( -0.000000000000000000, 1.000000000000000000, -0.000000000000000000 ) ) ;
#669 = EDGE_CURVE ( 'NONE', #608, #350, #866, .T. ) ;
#670 = EDGE_CURVE ( 'NONE', #641, #73, #46, .T. ) ;
#671 = EDGE_LOOP ( 'NONE', ( #289, #269, #151, #493 ) ) ;
#672 = DIRECTION ( 'NONE',  ( -0.000000000000000000, 1.000000000000000000, -0.000000000000000000 ) ) ;
#673 = CARTESIAN_POINT ( 'NONE',  ( 2.700000000000000107E-13, 31.50000000000054001, 2.000000000000111022 ) ) ;
#674 = VECTOR ( 'NONE', #87, 1000.000000000000000 ) ;
#675 = ORIENTED_EDGE ( 'NONE', *, *, #670, .F. ) ;
#676 = CARTESIAN_POINT ( 'NONE',  ( 2.700000000000000107E-13, 25.40000000000020464, 0.000000000000000000 ) ) ;
#677 = CONICAL_SURFACE ( 'NONE', #922, 2.700000000000376321, 1.047197551196596077 ) ;
#678 = DIRECTION ( 'NONE',  ( 0.000000000000000000, 0.000000000000000000, 1.000000000000000000 ) ) ;
#679 = ADVANCED_FACE ( 'NONE', ( #369 ), #375, .F. ) ;
#680 = PRODUCT_CONTEXT ( 'NONE', #25, 'mechanical' ) ;
#681 = DIRECTION ( 'NONE',  ( -0.000000000000000000, 1.000000000000000000, -0.000000000000000000 ) ) ;
#682 = VECTOR ( 'NONE', #761, 1000.000000000000000 ) ;
#683 = CARTESIAN_POINT ( 'NONE',  ( 2.700000000000000107E-13, 2.746410161512571779, 0.000000000000000000 ) ) ;
#684 = EDGE_CURVE ( 'NONE', #110, #608, #340, .T. ) ;
#685 =( LENGTH_UNIT ( ) NAMED_UNIT ( * ) SI_UNIT ( .MILLI., .METRE. ) );
#686 = FACE_OUTER_BOUND ( 'NONE', #386, .T. ) ;
#687 = DIRECTION ( 'NONE',  ( 0.000000000000000000, 0.000000000000000000, 1.000000000000000000 ) ) ;
#688 = DIRECTION ( 'NONE',  ( 0.000000000000000000, -1.000000000000000000, 0.000000000000000000 ) ) ;
#689 = FACE_BOUND ( 'NONE', #215, .T. ) ;
#690 = DIRECTION ( 'NONE',  ( 0.000000000000000000, -1.000000000000000000, 0.000000000000000000 ) ) ;
#691 = DIRECTION ( 'NONE',  ( 0.000000000000000000, 0.000000000000000000, 1.000000000000000000 ) ) ;
#692 = ORIENTED_EDGE ( 'NONE', *, *, #655, .T. ) ;
#693 = DIRECTION ( 'NONE',  ( -0.000000000000000000, 1.000000000000000000, -0.000000000000000000 ) ) ;
#694 = DIRECTION ( 'NONE',  ( 0.000000000000000000, -0.7071067811865470176, -0.7071067811865479058 ) ) ;
#695 = AXIS2_PLACEMENT_3D ( 'NONE', #747, #116, #311 ) ;
#696 = DIRECTION ( 'NONE',  ( 0.000000000000000000, 0.000000000000000000, 1.000000000000000000 ) ) ;
#697 = EDGE_CURVE ( 'NONE', #863, #283, #535, .T. ) ;
#698 = EDGE_LOOP ( 'NONE', ( #228, #160 ) ) ;
#699 = CIRCLE ( 'NONE', #789, 2.999999999998204547 ) ;
#700 = CARTESIAN_POINT ( 'NONE',  ( 2.700000000000000107E-13, 0.3464101615133358125, 0.000000000000000000 ) ) ;
#701 = EDGE_CURVE ( 'NONE', #551, #845, #652, .T. ) ;
#702 = DIRECTION ( 'NONE',  ( -0.000000000000000000, 1.000000000000000000, -0.000000000000000000 ) ) ;
#703 = ORIENTED_EDGE ( 'NONE', *, *, #871, .F. ) ;
#704 = ORIENTED_EDGE ( 'NONE', *, *, #684, .T. ) ;
#705 = ADVANCED_FACE ( 'NONE', ( #7 ), #786, .T. ) ;
#706 = CONICAL_SURFACE ( 'NONE', #42, 2.250000000000386358, 0.7853981633974471688 ) ;
#707 = DIRECTION ( 'NONE',  ( -0.000000000000000000, 1.000000000000000000, -0.000000000000000000 ) ) ;
#708 = AXIS2_PLACEMENT_3D ( 'NONE', #494, #227, #17 ) ;
#709 = ORIENTED_EDGE ( 'NONE', *, *, #490, .F. ) ;
#710 = EDGE_LOOP ( 'NONE', ( #840, #238, #222, #4 ) ) ;
#711 = ORIENTED_EDGE ( 'NONE', *, *, #153, .F. ) ;
#712 =( GEOMETRIC_REPRESENTATION_CONTEXT ( 3 ) GLOBAL_UNCERTAINTY_ASSIGNED_CONTEXT ( ( #429 ) ) GLOBAL_UNIT_ASSIGNED_CONTEXT ( ( #374, #310, #173 ) ) REPRESENTATION_CONTEXT ( 'NONE', 'WORKASPACE' ) );
#713 = AXIS2_PLACEMENT_3D ( 'NONE', #465, #903, #37 ) ;
#714 = EDGE_CURVE ( 'NONE', #8, #792, #11, .T. ) ;
#715 = CARTESIAN_POINT ( 'NONE',  ( 2.700000000000000107E-13, 32.00000000000053291, 0.000000000000000000 ) ) ;
#716 = ORIENTED_EDGE ( 'NONE', *, *, #533, .F. ) ;
#717 = CYLINDRICAL_SURFACE ( 'NONE', #402, 1.650000000000609868 ) ;
#718 = DIRECTION ( 'NONE',  ( 0.000000000000000000, 0.000000000000000000, 1.000000000000000000 ) ) ;
#719 = ORIENTED_EDGE ( 'NONE', *, *, #765, .T. ) ;
#720 = ORIENTED_EDGE ( 'NONE', *, *, #556, .T. ) ;
#721 = DIRECTION ( 'NONE',  ( 1.060575238724906052E-16, 0.5000000000000014433, -0.8660254037844379305 ) ) ;
#722 = ADVANCED_FACE ( 'NONE', ( #363 ), #288, .F. ) ;
#723 = FACE_OUTER_BOUND ( 'NONE', #626, .T. ) ;
#724 = AXIS2_PLACEMENT_3D ( 'NONE', #700, #485, #345 ) ;
#725 = DIRECTION ( 'NONE',  ( -0.000000000000000000, 1.000000000000000000, -0.000000000000000000 ) ) ;
#726 = EDGE_LOOP ( 'NONE', ( #675, #420, #645, #349 ) ) ;
#727 = DIRECTION ( 'NONE',  ( -0.000000000000000000, 1.000000000000000000, -0.000000000000000000 ) ) ;
#728 = SURFACE_SIDE_STYLE ('',( #101 ) ) ;
#729 = AXIS2_PLACEMENT_3D ( 'NONE', #618, #909, #69 ) ;
#730 = AXIS2_PLACEMENT_3D ( 'NONE', #676, #248, #605 ) ;
#731 = CARTESIAN_POINT ( 'NONE',  ( 2.700000000000000107E-13, 31.50000000000054001, 0.000000000000000000 ) ) ;
#732 = DIRECTION ( 'NONE',  ( 0.000000000000000000, 0.000000000000000000, 1.000000000000000000 ) ) ;
#733 = DIRECTION ( 'NONE',  ( 0.000000000000000000, 0.000000000000000000, -1.000000000000000000 ) ) ;
#734 = DIRECTION ( 'NONE',  ( 1.000000000000000000, 0.000000000000000000, 1.224646799147353207E-16 ) ) ;
#735 = TOROIDAL_SURFACE ( 'NONE', #860, 2.300000000000405276, 0.2000000000000252409 ) ;
#736 = EDGE_LOOP ( 'NONE', ( #647, #155, #763, #378 ) ) ;
#737 = CIRCLE ( 'NONE', #861, 4.000000000000465405 ) ;
#738 = DIRECTION ( 'NONE',  ( 0.000000000000000000, -0.000000000000000000, -1.000000000000000000 ) ) ;
#739 = CARTESIAN_POINT ( 'NONE',  ( 2.700000000000000107E-13, 22.00000000000017408, 0.000000000000000000 ) ) ;
#740 = CARTESIAN_POINT ( 'NONE',  ( 2.700000000000000107E-13, 22.00000000000017408, 0.000000000000000000 ) ) ;
#741 = ADVANCED_FACE ( 'NONE', ( #221 ), #471, .T. ) ;
#742 = CIRCLE ( 'NONE', #415, 0.5999999999989742427 ) ;
#743 = ORIENTED_EDGE ( 'NONE', *, *, #853, .T. ) ;
#744 = CARTESIAN_POINT ( 'NONE',  ( 2.700000000000000107E-13, 32.00000000000053291, 0.000000000000000000 ) ) ;
#745 = VECTOR ( 'NONE', #403, 1000.000000000000000 ) ;
#746 = ORIENTED_EDGE ( 'NONE', *, *, #153, .T. ) ;
#747 = CARTESIAN_POINT ( 'NONE',  ( 2.704893430831746059E-13, 22.68431457505098692, -2.500000000000359712 ) ) ;
#748 = ADVANCED_FACE ( 'NONE', ( #648 ), #865, .T. ) ;
#749 = DIRECTION ( 'NONE',  ( 0.000000000000000000, 0.000000000000000000, 1.000000000000000000 ) ) ;
#750 = AXIS2_PLACEMENT_3D ( 'NONE', #218, #366, #793 ) ;
#751 = DIRECTION ( 'NONE',  ( -0.000000000000000000, 1.000000000000000000, -0.000000000000000000 ) ) ;
#752 = EDGE_CURVE ( 'NONE', #172, #314, #142, .T. ) ;
#753 =( GEOMETRIC_REPRESENTATION_CONTEXT ( 3 ) GLOBAL_UNCERTAINTY_ASSIGNED_CONTEXT ( ( #324 ) ) GLOBAL_UNIT_ASSIGNED_CONTEXT ( ( #685, #625, #621 ) ) REPRESENTATION_CONTEXT ( 'NONE', 'WORKASPACE' ) );
#754 = CYLINDRICAL_SURFACE ( 'NONE', #501, 2.100000000000379785 ) ;
#755 = SURFACE_STYLE_USAGE ( .BOTH. , #132 ) ;
#756 = SHAPE_DEFINITION_REPRESENTATION ( #433, #503 ) ;
#757 = PLANE ( 'NONE',  #308 ) ;
#758 = DIRECTION ( 'NONE',  ( -0.000000000000000000, 1.000000000000000000, -0.000000000000000000 ) ) ;
#759 = FACE_OUTER_BOUND ( 'NONE', #71, .T. ) ;
#760 = CARTESIAN_POINT ( 'NONE',  ( 2.700000000000000107E-13, 21.82679491924332638, 0.000000000000000000 ) ) ;
#761 = DIRECTION ( 'NONE',  ( -0.000000000000000000, 1.000000000000000000, -0.000000000000000000 ) ) ;
#762 = DIRECTION ( 'NONE',  ( -0.000000000000000000, 1.000000000000000000, -0.000000000000000000 ) ) ;
#763 = ORIENTED_EDGE ( 'NONE', *, *, #846, .F. ) ;
#764 = FACE_OUTER_BOUND ( 'NONE', #780, .T. ) ;
#765 = EDGE_CURVE ( 'NONE', #845, #566, #571, .T. ) ;
#766 = DIRECTION ( 'NONE',  ( -0.000000000000000000, 1.000000000000000000, -0.000000000000000000 ) ) ;
#767 = EDGE_LOOP ( 'NONE', ( #892, #787, #273, #100 ) ) ;
#768 = CARTESIAN_POINT ( 'NONE',  ( 2.700000000000000107E-13, 32.00000000000053291, 2.250000000000386358 ) ) ;
#769 = VECTOR ( 'NONE', #148, 1000.000000000000000 ) ;
#770 = FACE_BOUND ( 'NONE', #140, .T. ) ;
#771 = EDGE_LOOP ( 'NONE', ( #34, #105, #746, #524 ) ) ;
#772 = ORIENTED_EDGE ( 'NONE', *, *, #307, .F. ) ;
#773 = DIRECTION ( 'NONE',  ( 0.000000000000000000, -0.000000000000000000, -1.000000000000000000 ) ) ;
#774 = ORIENTED_EDGE ( 'NONE', *, *, #286, .F. ) ;
#775 = EDGE_LOOP ( 'NONE', ( #867, #528 ) ) ;
#776 = ORIENTED_EDGE ( 'NONE', *, *, #603, .F. ) ;
#777 = EDGE_CURVE ( 'NONE', #141, #350, #778, .T. ) ;
#778 = LINE ( 'NONE', #440, #276 ) ;
#779 = AXIS2_PLACEMENT_3D ( 'NONE', #904, #702, #910 ) ;
#780 = EDGE_LOOP ( 'NONE', ( #247, #569, #419, #850 ) ) ;
#781 = ORIENTED_EDGE ( 'NONE', *, *, #517, .T. ) ;
#782 = STYLED_ITEM ( 'NONE', ( #519 ), #503 ) ;
#783 = DIRECTION ( 'NONE',  ( -0.000000000000000000, 1.000000000000000000, -0.000000000000000000 ) ) ;
#784 = CONICAL_SURFACE ( 'NONE', #108, 2.700000000000376321, 1.047197551196596077 ) ;
#785 = AXIS2_PLACEMENT_3D ( 'NONE', #878, #35, #163 ) ;
#786 = CYLINDRICAL_SURFACE ( 'NONE', #611, 4.000000000000465405 ) ;
#787 = ORIENTED_EDGE ( 'NONE', *, *, #669, .T. ) ;
#788 = DIRECTION ( 'NONE',  ( 0.000000000000000000, 0.000000000000000000, 1.000000000000000000 ) ) ;
#789 = AXIS2_PLACEMENT_3D ( 'NONE', #683, #829, #678 ) ;
#790 =( NAMED_UNIT ( * ) PLANE_ANGLE_UNIT ( ) SI_UNIT ( $, .RADIAN. ) );
#791 = DIRECTION ( 'NONE',  ( 0.000000000000000000, 0.000000000000000000, 1.000000000000000000 ) ) ;
#792 = VERTEX_POINT ( 'NONE', #76 ) ;
#793 = DIRECTION ( 'NONE',  ( 0.000000000000000000, 0.000000000000000000, 1.000000000000000000 ) ) ;
#794 = DIRECTION ( 'NONE',  ( -0.000000000000000000, 1.000000000000000000, -0.000000000000000000 ) ) ;
#795 = EDGE_CURVE ( 'NONE', #608, #355, #80, .T. ) ;
#796 = AXIS2_PLACEMENT_3D ( 'NONE', #858, #434, #91 ) ;
#797 = VECTOR ( 'NONE', #137, 1000.000000000000114 ) ;
#798 = DIRECTION ( 'NONE',  ( -0.000000000000000000, 1.000000000000000000, -0.000000000000000000 ) ) ;
#799 = APPLICATION_PROTOCOL_DEFINITION ( 'draft international standard', 'automotive_design', 1998, #25 ) ;
#800 = CARTESIAN_POINT ( 'NONE',  ( 2.702020667218593957E-13, 32.00000000000053291, -1.650000000000609868 ) ) ;
#801 = ADVANCED_FACE ( 'NONE', ( #121 ), #75, .T. ) ;
#802 = AXIS2_PLACEMENT_3D ( 'NONE', #271, #136, #417 ) ;
#803 = CARTESIAN_POINT ( 'NONE',  ( 2.704898587196590018E-13, 21.90000000000016556, -4.000000000000465405 ) ) ;
#804 = ADVANCED_FACE ( 'NONE', ( #759 ), #620, .T. ) ;
#805 = DIRECTION ( 'NONE',  ( -0.000000000000000000, 1.000000000000000000, -0.000000000000000000 ) ) ;
#806 = DIRECTION ( 'NONE',  ( 0.000000000000000000, 0.000000000000000000, 1.000000000000000000 ) ) ;
#807 = ORIENTED_EDGE ( 'NONE', *, *, #701, .T. ) ;
#808 = EDGE_CURVE ( 'NONE', #608, #110, #306, .T. ) ;
#809 = CARTESIAN_POINT ( 'NONE',  ( 2.700000000000000107E-13, 5.900000000001907274, 0.000000000000000000 ) ) ;
#810 = FACE_OUTER_BOUND ( 'NONE', #210, .T. ) ;
#811 = AXIS2_PLACEMENT_3D ( 'NONE', #396, #526, #102 ) ;
#812 = VERTEX_POINT ( 'NONE', #632 ) ;
#813 = CARTESIAN_POINT ( 'NONE',  ( 2.701831813833877050E-13, 22.00000000000022027, 0.000000000000000000 ) ) ;
#814 = DIRECTION ( 'NONE',  ( -0.000000000000000000, 1.000000000000000000, -0.000000000000000000 ) ) ;
#815 = PRODUCT_DEFINITION_FORMATION_WITH_SPECIFIED_SOURCE ( 'ANY', '', #41, .NOT_KNOWN. ) ;
#816 = ADVANCED_FACE ( 'NONE', ( #409 ), #28, .T. ) ;
#817 = AXIS2_PLACEMENT_3D ( 'NONE', #392, #36, #237 ) ;
#818 = EDGE_LOOP ( 'NONE', ( #774, #483, #513, #432 ) ) ;
#819 = DIRECTION ( 'NONE',  ( -0.000000000000000000, 1.000000000000000000, -0.000000000000000000 ) ) ;
#820 = DIRECTION ( 'NONE',  ( 0.000000000000000000, 0.000000000000000000, 1.000000000000000000 ) ) ;
#821 = CIRCLE ( 'NONE', #509, 2.250000000000386358 ) ;
#822 = EDGE_CURVE ( 'NONE', #212, #45, #834, .T. ) ;
#823 = VERTEX_POINT ( 'NONE', #555 ) ;
#824 = LINE ( 'NONE', #261, #745 ) ;
#825 = CARTESIAN_POINT ( 'NONE',  ( 2.704898587196590018E-13, 32.00000000000053291, -4.000000000000465405 ) ) ;
#826 = CARTESIAN_POINT ( 'NONE',  ( 2.700000000000000107E-13, 0.3464101615133358125, 0.5999999999989743538 ) ) ;
#827 = AXIS2_PLACEMENT_3D ( 'NONE', #809, #819, #315 ) ;
#828 = AXIS2_PLACEMENT_3D ( 'NONE', #213, #725, #435 ) ;
#829 = DIRECTION ( 'NONE',  ( -0.000000000000000000, 1.000000000000000000, -0.000000000000000000 ) ) ;
#830 = DIRECTION ( 'NONE',  ( 0.000000000000000000, 0.000000000000000000, 1.000000000000000000 ) ) ;
#831 = AXIS2_PLACEMENT_3D ( 'NONE', #657, #458, #898 ) ;
#832 = DIRECTION ( 'NONE',  ( 0.000000000000000000, 0.000000000000000000, 1.000000000000000000 ) ) ;
#833 = CARTESIAN_POINT ( 'NONE',  ( 2.700000000000000107E-13, 32.00000000000054001, -1.500000000000109912 ) ) ;
#834 = LINE ( 'NONE', #544, #797 ) ;
#835 = ORIENTED_EDGE ( 'NONE', *, *, #765, .F. ) ;
#836 = DIRECTION ( 'NONE',  ( -0.000000000000000000, 1.000000000000000000, -0.000000000000000000 ) ) ;
#837 = EDGE_CURVE ( 'NONE', #845, #495, #633, .T. ) ;
#838 = CARTESIAN_POINT ( 'NONE',  ( 2.702449293598294810E-13, 31.50000000000054001, -2.000000000000111022 ) ) ;
#839 = FILL_AREA_STYLE_COLOUR ( '', #891 ) ;
#840 = ORIENTED_EDGE ( 'NONE', *, *, #93, .F. ) ;
#841 = EDGE_CURVE ( 'NONE', #641, #8, #234, .T. ) ;
#842 = VECTOR ( 'NONE', #514, 999.9999999999998863 ) ;
#843 = CARTESIAN_POINT ( 'NONE',  ( 2.700000000000000107E-13, 5.900000000001907274, 2.999999999998204547 ) ) ;
#844 = ORIENTED_EDGE ( 'NONE', *, *, #822, .T. ) ;
#845 = VERTEX_POINT ( 'NONE', #615 ) ;
#846 = EDGE_CURVE ( 'NONE', #78, #551, #455, .T. ) ;
#847 = FACE_OUTER_BOUND ( 'NONE', #927, .T. ) ;
#848 = VECTOR ( 'NONE', #342, 1000.000000000000000 ) ;
#849 = DIRECTION ( 'NONE',  ( 0.000000000000000000, 0.000000000000000000, 1.000000000000000000 ) ) ;
#850 = ORIENTED_EDGE ( 'NONE', *, *, #697, .F. ) ;
#851 = ORIENTED_EDGE ( 'NONE', *, *, #187, .F. ) ;
#852 = ORIENTED_EDGE ( 'NONE', *, *, #422, .T. ) ;
#853 = EDGE_CURVE ( 'NONE', #8, #641, #44, .T. ) ;
#854 = CARTESIAN_POINT ( 'NONE',  ( 2.700000000000000107E-13, 32.00000000000053291, 1.650000000000609868 ) ) ;
#855 = ORIENTED_EDGE ( 'NONE', *, *, #876, .T. ) ;
#856 = ORIENTED_EDGE ( 'NONE', *, *, #477, .F. ) ;
#857 = ORIENTED_EDGE ( 'NONE', *, *, #343, .F. ) ;
#858 = CARTESIAN_POINT ( 'NONE',  ( 2.700000000000000107E-13, 32.00000000000053291, 0.000000000000000000 ) ) ;
#859 = CARTESIAN_POINT ( 'NONE',  ( 2.701831813833877050E-13, 22.68431457505098692, 0.000000000000000000 ) ) ;
#860 = AXIS2_PLACEMENT_3D ( 'NONE', #813, #448, #178 ) ;
#861 = AXIS2_PLACEMENT_3D ( 'NONE', #125, #60, #268 ) ;
#862 = ORIENTED_EDGE ( 'NONE', *, *, #556, .F. ) ;
#863 = VERTEX_POINT ( 'NONE', #565 ) ;
#864 = DIRECTION ( 'NONE',  ( 0.000000000000000000, -1.000000000000000000, 0.000000000000000000 ) ) ;
#865 = CYLINDRICAL_SURFACE ( 'NONE', #708, 2.000000000000111022 ) ;
#866 = CIRCLE ( 'NONE', #695, 0.3999999999999798161 ) ;
#867 = ORIENTED_EDGE ( 'NONE', *, *, #616, .T. ) ;
#868 = ORIENTED_EDGE ( 'NONE', *, *, #371, .F. ) ;
#869 = LINE ( 'NONE', #302, #674 ) ;
#870 = AXIS2_PLACEMENT_3D ( 'NONE', #245, #814, #180 ) ;
#871 = EDGE_CURVE ( 'NONE', #566, #360, #737, .T. ) ;
#872 = PRODUCT_DEFINITION ( 'UNKNOWN', '', #815, #908 ) ;
#873 = CARTESIAN_POINT ( 'NONE',  ( 2.700000000000000107E-13, 1.563000000000000004E-13, 0.000000000000000000 ) ) ;
#874 = FILL_AREA_STYLE ('',( #444 ) ) ;
#875 = AXIS2_PLACEMENT_3D ( 'NONE', #654, #157, #650 ) ;
#876 = EDGE_CURVE ( 'NONE', #449, #78, #194, .T. ) ;
#877 = ORIENTED_EDGE ( 'NONE', *, *, #795, .T. ) ;
#878 = CARTESIAN_POINT ( 'NONE',  ( 2.700000000000000107E-13, 32.00000000000053291, 0.000000000000000000 ) ) ;
#879 = DIRECTION ( 'NONE',  ( -0.000000000000000000, 1.000000000000000000, -0.000000000000000000 ) ) ;
#880 = AXIS2_PLACEMENT_3D ( 'NONE', #631, #923, #277 ) ;
#881 = EDGE_CURVE ( 'NONE', #350, #9, #518, .T. ) ;
#882 = ORIENTED_EDGE ( 'NONE', *, *, #27, .T. ) ;
#883 = CARTESIAN_POINT ( 'NONE',  ( 3.900000000000727329, 22.00000000000017408, 0.000000000000000000 ) ) ;
#884 = CARTESIAN_POINT ( 'NONE',  ( 2.700000000000000107E-13, 21.82679491924332638, 0.000000000000000000 ) ) ;
#885 = CARTESIAN_POINT ( 'NONE',  ( 2.700000000000000107E-13, 21.82679491924332638, 2.400000000000445777 ) ) ;
#886 = MANIFOLD_SOLID_BREP ( '±ÛÂà1', #74 ) ;
#887 = ORIENTED_EDGE ( 'NONE', *, *, #285, .T. ) ;
#888 = CYLINDRICAL_SURFACE ( 'NONE', #907, 2.250000000000386358 ) ;
#889 = LINE ( 'NONE', #894, #622 ) ;
#890 = ADVANCED_FACE ( 'NONE', ( #770, #447 ), #301, .F. ) ;
#891 = COLOUR_RGB ( '',0.7921568627450980005, 0.8196078431372548767, 0.9333333333333333481 ) ;
#892 = ORIENTED_EDGE ( 'NONE', *, *, #808, .F. ) ;
#893 = DIRECTION ( 'NONE',  ( -0.000000000000000000, 1.000000000000000000, -0.000000000000000000 ) ) ;
#894 = CARTESIAN_POINT ( 'NONE',  ( 2.700000000000000107E-13, 32.00000000000053291, 2.100000000000379785 ) ) ;
#895 = CONICAL_SURFACE ( 'NONE', #724, 0.5999999999989742427, 0.7853981633974471688 ) ;
#896 = AXIS2_PLACEMENT_3D ( 'NONE', #31, #672, #318 ) ;
#897 = VERTEX_POINT ( 'NONE', #158 ) ;
#898 = DIRECTION ( 'NONE',  ( 1.000000000000000000, 0.000000000000000000, 0.000000000000000000 ) ) ;
#899 = CARTESIAN_POINT ( 'NONE',  ( 2.700000000000000107E-13, 32.00000000000054001, 0.000000000000000000 ) ) ;
#900 = EDGE_CURVE ( 'NONE', #391, #61, #170, .T. ) ;
#901 = DIRECTION ( 'NONE',  ( -0.000000000000000000, 1.000000000000000000, -0.000000000000000000 ) ) ;
#902 = DIRECTION ( 'NONE',  ( 0.000000000000000000, 0.000000000000000000, 1.000000000000000000 ) ) ;
#903 = DIRECTION ( 'NONE',  ( -0.000000000000000000, 1.000000000000000000, -0.000000000000000000 ) ) ;
#904 = CARTESIAN_POINT ( 'NONE',  ( 2.700000000000000107E-13, 25.99999999999998224, 0.000000000000000000 ) ) ;
#905 = ADVANCED_FACE ( 'NONE', ( #723 ), #379, .T. ) ;
#906 = DIRECTION ( 'NONE',  ( -0.000000000000000000, 1.000000000000000000, -0.000000000000000000 ) ) ;
#907 = AXIS2_PLACEMENT_3D ( 'NONE', #464, #24, #598 ) ;
#908 = PRODUCT_DEFINITION_CONTEXT ( 'detailed design', #546, 'design' ) ;
#909 = DIRECTION ( 'NONE',  ( -0.000000000000000000, 1.000000000000000000, -0.000000000000000000 ) ) ;
#910 = DIRECTION ( 'NONE',  ( 0.000000000000000000, 0.000000000000000000, 1.000000000000000000 ) ) ;
#911 = CIRCLE ( 'NONE', #352, 3.900000000000457323 ) ;
#912 = ADVANCED_FACE ( 'NONE', ( #522 ), #677, .F. ) ;
#913 = CARTESIAN_POINT ( 'NONE',  ( 2.700000000000000107E-13, 26.65000000000028280, 0.000000000000000000 ) ) ;
#914 = CARTESIAN_POINT ( 'NONE',  ( 2.700000000000000107E-13, 31.50000000000054001, -2.000000000000111022 ) ) ;
#915 = AXIS2_PLACEMENT_3D ( 'NONE', #49, #751, #613 ) ;
#916 = ORIENTED_EDGE ( 'NONE', *, *, #338, .T. ) ;
#917 = CARTESIAN_POINT ( 'NONE',  ( 2.700000000000000107E-13, 21.90000000000016556, 4.000000000000465405 ) ) ;
#918 = DIRECTION ( 'NONE',  ( 0.000000000000000000, 0.000000000000000000, -1.000000000000000000 ) ) ;
#919 = EDGE_CURVE ( 'NONE', #85, #314, #661, .T. ) ;
#920 = EDGE_LOOP ( 'NONE', ( #421, #67, #436, #90 ) ) ;
#921 = CIRCLE ( 'NONE', #559, 2.000000000000111022 ) ;
#922 = AXIS2_PLACEMENT_3D ( 'NONE', #97, #106, #597 ) ;
#923 = DIRECTION ( 'NONE',  ( -0.000000000000000000, 1.000000000000000000, -0.000000000000000000 ) ) ;
#924 = DIRECTION ( 'NONE',  ( -0.000000000000000000, 1.000000000000000000, -0.000000000000000000 ) ) ;
#925 = ADVANCED_FACE ( 'NONE', ( #23 ), #592, .T. ) ;
#926 = ORIENTED_EDGE ( 'NONE', *, *, #900, .T. ) ;
#927 = EDGE_LOOP ( 'NONE', ( #206, #716, #844, #582 ) ) ;
#928 = ORIENTED_EDGE ( 'NONE', *, *, #393, .T. ) ;
ENDSEC;
END-ISO-10303-21;
