ISO-10303-21;
HEADER;
FILE_DESCRIPTION (( 'STEP AP214' ),
    '1' );
FILE_NAME ('99688-SI08-08+S9MT0802-142.STEP',
    '2023-07-20T01:01:21',
    ( '' ),
    ( '' ),
    'SwSTEP 2.0',
    'SolidWorks 2020',
    '' );
FILE_SCHEMA (( 'AUTOMOTIVE_DESIGN' ));
ENDSEC;

DATA;
#1 = SURFACE_SIDE_STYLE ('',( #398 ) ) ;
#2 = FACE_OUTER_BOUND ( 'NONE', #501, .T. ) ;
#3 =( NAMED_UNIT ( * ) SI_UNIT ( $, .STERADIAN. ) SOLID_ANGLE_UNIT ( ) );
#4 = EDGE_CURVE ( 'NONE', #466, #248, #131, .T. ) ;
#5 = DIRECTION ( 'NONE',  ( 6.661338147750923465E-16, -1.000000000000000000, 0.000000000000000000 ) ) ;
#6 = AXIS2_PLACEMENT_3D ( 'NONE', #53, #234, #194 ) ;
#7 = FACE_OUTER_BOUND ( 'NONE', #117, .T. ) ;
#8 = EDGE_CURVE ( 'NONE', #303, #236, #450, .T. ) ;
#9 = ORIENTED_EDGE ( 'NONE', *, *, #409, .T. ) ;
#10 = CARTESIAN_POINT ( 'NONE',  ( -4.159999999997599396, 28.00000000000014566, 0.000000000000000000 ) ) ;
#11 = ORIENTED_EDGE ( 'NONE', *, *, #324, .F. ) ;
#12 = MANIFOLD_SOLID_BREP ( '±ÛÂà1', #228 ) ;
#13 = DIRECTION ( 'NONE',  ( -1.000000000000000000, -6.710729114030184509E-16, 0.000000000000000000 ) ) ;
#14 = CONICAL_SURFACE ( 'NONE', #356, 4.479999999997600568, 1.047197551196692666 ) ;
#15 = AXIS2_PLACEMENT_3D ( 'NONE', #344, #514, #525 ) ;
#16 = FACE_OUTER_BOUND ( 'NONE', #166, .T. ) ;
#17 = ORIENTED_EDGE ( 'NONE', *, *, #8, .F. ) ;
#18 = CARTESIAN_POINT ( 'NONE',  ( -4.249933738265100625E-14, 63.80000000000018900, 0.000000000000000000 ) ) ;
#19 = CARTESIAN_POINT ( 'NONE',  ( -1.821459649775647449E-14, 28.00000000000014921, 0.000000000000000000 ) ) ;
#20 = VERTEX_POINT ( 'NONE', #135 ) ;
#21 = PLANE ( 'NONE',  #239 ) ;
#22 = DIRECTION ( 'NONE',  ( -1.000000000000000000, -6.661338147750923465E-16, 0.000000000000000000 ) ) ;
#23 = ORIENTED_EDGE ( 'NONE', *, *, #529, .T. ) ;
#24 = DIRECTION ( 'NONE',  ( -1.000000000000000000, -8.182657905555705282E-16, 0.000000000000000000 ) ) ;
#25 = CIRCLE ( 'NONE', #423, 3.999999999997013056 ) ;
#26 = ORIENTED_EDGE ( 'NONE', *, *, #46, .T. ) ;
#27 = AXIS2_PLACEMENT_3D ( 'NONE', #179, #485, #220 ) ;
#28 = AXIS2_PLACEMENT_3D ( 'NONE', #475, #160, #511 ) ;
#29 = CARTESIAN_POINT ( 'NONE',  ( -1.855944460475625150E-14, 27.86143593539462060, 0.000000000000000000 ) ) ;
#30 = EDGE_CURVE ( 'NONE', #75, #551, #567, .T. ) ;
#31 = CARTESIAN_POINT ( 'NONE',  ( -1.859845610852065821E-14, 27.92000000000014026, 0.000000000000000000 ) ) ;
#32 = ORIENTED_EDGE ( 'NONE', *, *, #463, .T. ) ;
#33 = CARTESIAN_POINT ( 'NONE',  ( -4.263256414560601115E-14, 64.00000000000017053, 0.000000000000000000 ) ) ;
#34 =( NAMED_UNIT ( * ) PLANE_ANGLE_UNIT ( ) SI_UNIT ( $, .RADIAN. ) );
#35 = EDGE_LOOP ( 'NONE', ( #308, #11, #331, #563 ) ) ;
#36 = FACE_OUTER_BOUND ( 'NONE', #407, .T. ) ;
#37 = ORIENTED_EDGE ( 'NONE', *, *, #180, .F. ) ;
#38 = TOROIDAL_SURFACE ( 'NONE', #362, 4.159999999997581632, 0.1600000000000008360 ) ;
#39 = CARTESIAN_POINT ( 'NONE',  ( -4.615486980795449605E-15, 6.928768482281285834, 0.000000000000000000 ) ) ;
#40 = CYLINDRICAL_SURFACE ( 'NONE', #272, 3.999999999997593925 ) ;
#41 = SURFACE_SIDE_STYLE ('',( #95 ) ) ;
#42 = DIRECTION ( 'NONE',  ( -6.661338147750923465E-16, 1.000000000000000000, -0.000000000000000000 ) ) ;
#43 = CIRCLE ( 'NONE', #509, 0.1600000000000004197 ) ;
#44 = CONICAL_SURFACE ( 'NONE', #319, 3.999999999997605471, 0.7853981633975112286 ) ;
#45 = CONICAL_SURFACE ( 'NONE', #62, 5.250000000000025757, 0.7853981633971501841 ) ;
#46 = EDGE_CURVE ( 'NONE', #571, #366, #204, .T. ) ;
#47 = DIRECTION ( 'NONE',  ( 1.000000000000000000, 0.000000000000000000, 0.000000000000000000 ) ) ;
#48 = FACE_OUTER_BOUND ( 'NONE', #540, .T. ) ;
#49 = PRODUCT_DEFINITION ( 'UNKNOWN', '', #125, #314 ) ;
#50 = EDGE_CURVE ( 'NONE', #129, #296, #25, .T. ) ;
#51 = DIRECTION ( 'NONE',  ( -6.661338147750923465E-16, 1.000000000000000000, -0.000000000000000000 ) ) ;
#52 = CIRCLE ( 'NONE', #490, 3.999999999997605471 ) ;
#53 = CARTESIAN_POINT ( 'NONE',  ( -4.263256414560601115E-14, 64.00000000000017053, 0.000000000000000000 ) ) ;
#54 = EDGE_LOOP ( 'NONE', ( #159, #17, #189, #120 ) ) ;
#55 = UNCERTAINTY_MEASURE_WITH_UNIT (LENGTH_MEASURE( 1.000000000000000082E-05 ), #381, 'distance_accuracy_value', 'NONE');
#56 = CARTESIAN_POINT ( 'NONE',  ( -4.263256414560601115E-14, 64.00000000000017053, 0.000000000000000000 ) ) ;
#57 = ORIENTED_EDGE ( 'NONE', *, *, #4, .T. ) ;
#58 = CARTESIAN_POINT ( 'NONE',  ( 5.169999999999993712, 28.00000000000020250, 0.000000000000000000 ) ) ;
#59 = AXIS2_PLACEMENT_3D ( 'NONE', #372, #500, #367 ) ;
#60 = ADVANCED_FACE ( 'NONE', ( #85 ), #469, .T. ) ;
#61 = DIRECTION ( 'NONE',  ( -6.661338147750923465E-16, 1.000000000000000000, -0.000000000000000000 ) ) ;
#62 = AXIS2_PLACEMENT_3D ( 'NONE', #31, #465, #201 ) ;
#63 = ORIENTED_EDGE ( 'NONE', *, *, #299, .T. ) ;
#64 = LINE ( 'NONE', #188, #412 ) ;
#65 = ORIENTED_EDGE ( 'NONE', *, *, #476, .F. ) ;
#66 = CYLINDRICAL_SURFACE ( 'NONE', #521, 5.250000000000020428 ) ;
#67 = EDGE_LOOP ( 'NONE', ( #340, #556, #378, #405 ) ) ;
#68 = ADVANCED_FACE ( 'NONE', ( #2 ), #14, .F. ) ;
#69 = CIRCLE ( 'NONE', #279, 5.250000000000014211 ) ;
#70 = CARTESIAN_POINT ( 'NONE',  ( 3.999999999997008615, 6.928768482281288499, 4.898587196585754486E-16 ) ) ;
#71 = ORIENTED_EDGE ( 'NONE', *, *, #420, .T. ) ;
#72 =( GEOMETRIC_REPRESENTATION_CONTEXT ( 3 ) GLOBAL_UNCERTAINTY_ASSIGNED_CONTEXT ( ( #96 ) ) GLOBAL_UNIT_ASSIGNED_CONTEXT ( ( #377, #155, #207 ) ) REPRESENTATION_CONTEXT ( 'NONE', 'WORKASPACE' ) );
#73 = LINE ( 'NONE', #428, #251 ) ;
#74 = FACE_OUTER_BOUND ( 'NONE', #566, .T. ) ;
#75 = VERTEX_POINT ( 'NONE', #437 ) ;
#76 = PRODUCT ( '99688-SI08-08+S9MT0802-142', '99688-SI08-08+S9MT0802-142', '', ( #357 ) ) ;
#77 = DIRECTION ( 'NONE',  ( -0.8660254037844864472, 0.4999999999999172329, 0.000000000000000000 ) ) ;
#78 = ORIENTED_EDGE ( 'NONE', *, *, #133, .T. ) ;
#79 = CYLINDRICAL_SURFACE ( 'NONE', #193, 3.999999999997061462 ) ;
#80 = PRESENTATION_STYLE_ASSIGNMENT (( #348 ) ) ;
#81 = ORIENTED_EDGE ( 'NONE', *, *, #235, .F. ) ;
#82 = PRESENTATION_LAYER_ASSIGNMENT (  '', '', ( #229 ) ) ;
#83 = CIRCLE ( 'NONE', #451, 4.239999999997549729 ) ;
#84 = DIRECTION ( 'NONE',  ( -1.000000000000000000, -7.744301232043465104E-16, 0.000000000000000000 ) ) ;
#85 = FACE_OUTER_BOUND ( 'NONE', #418, .T. ) ;
#86 = UNCERTAINTY_MEASURE_WITH_UNIT (LENGTH_MEASURE( 1.000000000000000082E-05 ), #260, 'distance_accuracy_value', 'NONE');
#87 = FACE_OUTER_BOUND ( 'NONE', #106, .T. ) ;
#88 = ADVANCED_FACE ( 'NONE', ( #48 ), #40, .T. ) ;
#89 = DIRECTION ( 'NONE',  ( -6.661338147750923465E-16, 1.000000000000000000, -0.000000000000000000 ) ) ;
#90 =( GEOMETRIC_REPRESENTATION_CONTEXT ( 3 ) GLOBAL_UNCERTAINTY_ASSIGNED_CONTEXT ( ( #326 ) ) GLOBAL_UNIT_ASSIGNED_CONTEXT ( ( #276, #313, #315 ) ) REPRESENTATION_CONTEXT ( 'NONE', 'WORKASPACE' ) );
#91 = LINE ( 'NONE', #487, #186 ) ;
#92 = VECTOR ( 'NONE', #380, 1000.000000000000000 ) ;
#93 = STYLED_ITEM ( 'NONE', ( #80 ), #264 ) ;
#94 = FACE_OUTER_BOUND ( 'NONE', #385, .T. ) ;
#95 = SURFACE_STYLE_FILL_AREA ( #441 ) ;
#96 = UNCERTAINTY_MEASURE_WITH_UNIT (LENGTH_MEASURE( 1.000000000000000082E-05 ), #377, 'distance_accuracy_value', 'NONE');
#97 = DIRECTION ( 'NONE',  ( -1.000000000000000000, -6.608470384673533274E-16, 0.000000000000000000 ) ) ;
#98 = DIRECTION ( 'NONE',  ( -1.000000000000000000, 0.000000000000000000, 0.000000000000000000 ) ) ;
#99 = EDGE_CURVE ( 'NONE', #431, #143, #69, .T. ) ;
#100 = CARTESIAN_POINT ( 'NONE',  ( -4.615486980795449605E-15, 6.928768482281285834, 0.000000000000000000 ) ) ;
#101 = VECTOR ( 'NONE', #359, 1000.000000000000114 ) ;
#102 = CARTESIAN_POINT ( 'NONE',  ( -1.859845610852065821E-14, 27.92000000000014026, 0.000000000000000000 ) ) ;
#103 =( GEOMETRIC_REPRESENTATION_CONTEXT ( 3 ) GLOBAL_UNCERTAINTY_ASSIGNED_CONTEXT ( ( #86 ) ) GLOBAL_UNIT_ASSIGNED_CONTEXT ( ( #260, #34, #434 ) ) REPRESENTATION_CONTEXT ( 'NONE', 'WORKASPACE' ) );
#104 = ORIENTED_EDGE ( 'NONE', *, *, #8, .T. ) ;
#105 = DIRECTION ( 'NONE',  ( -1.000000000000000000, 0.000000000000000000, 0.000000000000000000 ) ) ;
#106 = EDGE_LOOP ( 'NONE', ( #164, #78, #252 ) ) ;
#107 = DIRECTION ( 'NONE',  ( -1.000000000000000000, 0.000000000000000000, 0.000000000000000000 ) ) ;
#108 = EDGE_CURVE ( 'NONE', #466, #571, #394, .T. ) ;
#109 = DIRECTION ( 'NONE',  ( 0.9455185755993120722, 0.3255681544571705777, 1.157926297142062440E-16 ) ) ;
#110 = ORIENTED_EDGE ( 'NONE', *, *, #324, .T. ) ;
#111 = CARTESIAN_POINT ( 'NONE',  ( -4.249933738265100625E-14, 63.80000000000018900, 0.000000000000000000 ) ) ;
#112 = AXIS2_PLACEMENT_3D ( 'NONE', #318, #322, #98 ) ;
#113 = TOROIDAL_SURFACE ( 'NONE', #433, 4.159999999997581632, 0.1600000000000008360 ) ;
#114 = ORIENTED_EDGE ( 'NONE', *, *, #128, .F. ) ;
#115 = DIRECTION ( 'NONE',  ( 1.000000000000000000, 6.661338147750923465E-16, 0.000000000000000000 ) ) ;
#116 = DIRECTION ( 'NONE',  ( -1.000000000000000000, -8.673617379889280411E-16, 0.000000000000000000 ) ) ;
#117 = EDGE_LOOP ( 'NONE', ( #328, #519, #63, #114 ) ) ;
#118 = ADVANCED_FACE ( 'NONE', ( #432 ), #181, .T. ) ;
#119 = LINE ( 'NONE', #258, #274 ) ;
#120 = ORIENTED_EDGE ( 'NONE', *, *, #399, .T. ) ;
#121 = FACE_OUTER_BOUND ( 'NONE', #513, .T. ) ;
#122 = CIRCLE ( 'NONE', #170, 4.479999999997599680 ) ;
#123 = LINE ( 'NONE', #374, #396 ) ;
#124 = ORIENTED_EDGE ( 'NONE', *, *, #46, .F. ) ;
#125 = PRODUCT_DEFINITION_FORMATION_WITH_SPECIFIED_SOURCE ( 'ANY', '', #76, .NOT_KNOWN. ) ;
#126 = CARTESIAN_POINT ( 'NONE',  ( 5.249999999999977796, 64.00000000000017053, 6.429395695523629791E-16 ) ) ;
#127 = ORIENTED_EDGE ( 'NONE', *, *, #199, .F. ) ;
#128 = EDGE_CURVE ( 'NONE', #303, #351, #91, .T. ) ;
#129 = VERTEX_POINT ( 'NONE', #182 ) ;
#130 = DIRECTION ( 'NONE',  ( -1.000000000000000000, -6.608470384673518483E-16, 0.000000000000000000 ) ) ;
#131 = CIRCLE ( 'NONE', #443, 5.170000000000013252 ) ;
#132 = VECTOR ( 'NONE', #338, 1000.000000000000000 ) ;
#133 = EDGE_CURVE ( 'NONE', #560, #75, #358, .T. ) ;
#134 = DIRECTION ( 'NONE',  ( 1.000000000000000000, 6.661338147750923465E-16, 0.000000000000000000 ) ) ;
#135 = CARTESIAN_POINT ( 'NONE',  ( 4.239999999997531077, 27.86143593539462415, 5.339460044279489932E-16 ) ) ;
#136 = CARTESIAN_POINT ( 'NONE',  ( -1.865174681370266143E-14, 28.00000000000012790, 0.000000000000000000 ) ) ;
#137 = FILL_AREA_STYLE_COLOUR ( '', #270 ) ;
#138 = FACE_BOUND ( 'NONE', #497, .T. ) ;
#139 = CIRCLE ( 'NONE', #400, 4.239999999997549729 ) ;
#140 = PRESENTATION_LAYER_ASSIGNMENT (  '', '', ( #241 ) ) ;
#141 =( LENGTH_UNIT ( ) NAMED_UNIT ( * ) SI_UNIT ( .MILLI., .METRE. ) );
#142 = DIRECTION ( 'NONE',  ( -6.661338147750923465E-16, 1.000000000000000000, -0.000000000000000000 ) ) ;
#143 = VERTEX_POINT ( 'NONE', #442 ) ;
#144 = DIRECTION ( 'NONE',  ( -6.661338147750923465E-16, 1.000000000000000000, -0.000000000000000000 ) ) ;
#145 = ORIENTED_EDGE ( 'NONE', *, *, #254, .T. ) ;
#146 =( NAMED_UNIT ( * ) PLANE_ANGLE_UNIT ( ) SI_UNIT ( $, .RADIAN. ) );
#147 =( GEOMETRIC_REPRESENTATION_CONTEXT ( 3 ) GLOBAL_UNCERTAINTY_ASSIGNED_CONTEXT ( ( #233 ) ) GLOBAL_UNIT_ASSIGNED_CONTEXT ( ( #141, #309, #3 ) ) REPRESENTATION_CONTEXT ( 'NONE', 'WORKASPACE' ) );
#148 = VECTOR ( 'NONE', #109, 1000.000000000000114 ) ;
#149 = CARTESIAN_POINT ( 'NONE',  ( 3.999999999997560174, 63.80000000000018900, 0.000000000000000000 ) ) ;
#150 = AXIS2_PLACEMENT_3D ( 'NONE', #102, #51, #240 ) ;
#151 = ORIENTED_EDGE ( 'NONE', *, *, #227, .T. ) ;
#152 =( NAMED_UNIT ( * ) SI_UNIT ( $, .STERADIAN. ) SOLID_ANGLE_UNIT ( ) );
#153 = ADVANCED_FACE ( 'NONE', ( #138, #447 ), #535, .F. ) ;
#154 = CARTESIAN_POINT ( 'NONE',  ( 3.799999999997545785, 64.00000000000018474, 0.000000000000000000 ) ) ;
#155 =( NAMED_UNIT ( * ) PLANE_ANGLE_UNIT ( ) SI_UNIT ( $, .RADIAN. ) );
#156 = ORIENTED_EDGE ( 'NONE', *, *, #476, .T. ) ;
#157 = CARTESIAN_POINT ( 'NONE',  ( -1.865174681370266143E-14, 28.00000000000012790, 0.000000000000000000 ) ) ;
#158 = DIRECTION ( 'NONE',  ( -6.661338147750923465E-16, 1.000000000000000000, -0.000000000000000000 ) ) ;
#159 = ORIENTED_EDGE ( 'NONE', *, *, #438, .F. ) ;
#160 = DIRECTION ( 'NONE',  ( -6.661338147750923465E-16, 1.000000000000000000, -0.000000000000000000 ) ) ;
#161 = ADVANCED_FACE ( 'NONE', ( #87 ), #444, .T. ) ;
#162 = EDGE_CURVE ( 'NONE', #75, #296, #527, .T. ) ;
#163 = CARTESIAN_POINT ( 'NONE',  ( 0.000000000000000000, 7.105427357601001859E-15, 0.000000000000000000 ) ) ;
#164 = ORIENTED_EDGE ( 'NONE', *, *, #528, .F. ) ;
#165 = FACE_OUTER_BOUND ( 'NONE', #54, .T. ) ;
#166 = EDGE_LOOP ( 'NONE', ( #244, #261, #325, #210 ) ) ;
#167 = CARTESIAN_POINT ( 'NONE',  ( -4.263256414560601115E-14, 64.00000000000017053, 0.000000000000000000 ) ) ;
#168 = EDGE_LOOP ( 'NONE', ( #232, #151, #504, #435 ) ) ;
#169 = DIRECTION ( 'NONE',  ( -1.000000000000000000, -8.182657905555705282E-16, 0.000000000000000000 ) ) ;
#170 = AXIS2_PLACEMENT_3D ( 'NONE', #136, #317, #489 ) ;
#171 = ORIENTED_EDGE ( 'NONE', *, *, #316, .T. ) ;
#172 = AXIS2_PLACEMENT_3D ( 'NONE', #100, #142, #282 ) ;
#173 = PRESENTATION_LAYER_ASSIGNMENT (  '', '', ( #93 ) ) ;
#174 = EDGE_CURVE ( 'NONE', #477, #20, #43, .T. ) ;
#175 = CARTESIAN_POINT ( 'NONE',  ( -1.865174681370266143E-14, 28.00000000000012790, 0.000000000000000000 ) ) ;
#176 = EDGE_LOOP ( 'NONE', ( #110, #57 ) ) ;
#177 = CARTESIAN_POINT ( 'NONE',  ( -5.250000000000043521, 27.92000000000013671, 6.429395695523635707E-16 ) ) ;
#178 = CARTESIAN_POINT ( 'NONE',  ( -1.859845610852065821E-14, 27.92000000000014026, 0.000000000000000000 ) ) ;
#179 = CARTESIAN_POINT ( 'NONE',  ( -6.661338147750923087E-13, 1000.000000000000000, 0.000000000000000000 ) ) ;
#180 = EDGE_CURVE ( 'NONE', #248, #366, #484, .T. ) ;
#181 = CONICAL_SURFACE ( 'NONE', #224, 3.999999999997013056, 0.3474164168820164655 ) ;
#182 = CARTESIAN_POINT ( 'NONE',  ( 3.999999999997008615, 6.928768482281288499, 4.898587196585784069E-16 ) ) ;
#183 = SURFACE_STYLE_USAGE ( .BOTH. , #1 ) ;
#184 = CARTESIAN_POINT ( 'NONE',  ( 5.250000000000007105, 27.92000000000014381, 0.000000000000000000 ) ) ;
#185 = FILL_AREA_STYLE ('',( #320 ) ) ;
#186 = VECTOR ( 'NONE', #534, 1000.000000000000114 ) ;
#187 = DIRECTION ( 'NONE',  ( -6.661338147750923465E-16, 1.000000000000000000, -0.000000000000000000 ) ) ;
#188 = CARTESIAN_POINT ( 'NONE',  ( 4.479999999997581028, 28.00000000000013145, 5.486417660177203546E-16 ) ) ;
#189 = ORIENTED_EDGE ( 'NONE', *, *, #128, .T. ) ;
#190 = LINE ( 'NONE', #454, #329 ) ;
#191 = ORIENTED_EDGE ( 'NONE', *, *, #542, .F. ) ;
#192 = MECHANICAL_DESIGN_GEOMETRIC_PRESENTATION_REPRESENTATION (  '', ( #241 ), #90 ) ;
#193 = AXIS2_PLACEMENT_3D ( 'NONE', #304, #554, #467 ) ;
#194 = DIRECTION ( 'NONE',  ( -1.000000000000000000, 0.000000000000000000, 0.000000000000000000 ) ) ;
#195 = EDGE_LOOP ( 'NONE', ( #191, #255, #375, #389 ) ) ;
#196 = CARTESIAN_POINT ( 'NONE',  ( -3.999999999997600142, 28.00000000000012434, 0.000000000000000000 ) ) ;
#197 = DIRECTION ( 'NONE',  ( -6.661338147750923465E-16, 1.000000000000000000, -0.000000000000000000 ) ) ;
#198 = ORIENTED_EDGE ( 'NONE', *, *, #420, .F. ) ;
#199 = EDGE_CURVE ( 'NONE', #285, #526, #122, .T. ) ;
#200 = DIRECTION ( 'NONE',  ( 6.661338147750923465E-16, -1.000000000000000000, 0.000000000000000000 ) ) ;
#201 = DIRECTION ( 'NONE',  ( 1.000000000000000000, 6.608470384673518483E-16, 0.000000000000000000 ) ) ;
#202 = ORIENTED_EDGE ( 'NONE', *, *, #280, .F. ) ;
#203 = FACE_OUTER_BOUND ( 'NONE', #168, .T. ) ;
#204 = CIRCLE ( 'NONE', #530, 5.250000000000025757 ) ;
#205 =( GEOMETRIC_REPRESENTATION_CONTEXT ( 3 ) GLOBAL_UNCERTAINTY_ASSIGNED_CONTEXT ( ( #55 ) ) GLOBAL_UNIT_ASSIGNED_CONTEXT ( ( #381, #146, #152 ) ) REPRESENTATION_CONTEXT ( 'NONE', 'WORKASPACE' ) );
#206 = CONICAL_SURFACE ( 'NONE', #532, 4.479999999997600568, 1.047197551196692666 ) ;
#207 =( NAMED_UNIT ( * ) SI_UNIT ( $, .STERADIAN. ) SOLID_ANGLE_UNIT ( ) );
#208 = AXIS2_PLACEMENT_3D ( 'NONE', #273, #446, #47 ) ;
#209 = ORIENTED_EDGE ( 'NONE', *, *, #221, .T. ) ;
#210 = ORIENTED_EDGE ( 'NONE', *, *, #506, .T. ) ;
#211 = DIRECTION ( 'NONE',  ( -0.3404697182690363255, 0.9402554817398316445, 0.000000000000000000 ) ) ;
#212 = ORIENTED_EDGE ( 'NONE', *, *, #254, .F. ) ;
#213 = ADVANCED_FACE ( 'NONE', ( #94 ), #289, .T. ) ;
#214 = DIRECTION ( 'NONE',  ( -6.661338147750923465E-16, 1.000000000000000000, -0.000000000000000000 ) ) ;
#215 = MECHANICAL_DESIGN_GEOMETRIC_PRESENTATION_REPRESENTATION (  '', ( #568 ), #147 ) ;
#216 = ORIENTED_EDGE ( 'NONE', *, *, #299, .F. ) ;
#217 = CIRCLE ( 'NONE', #481, 3.799999999997588418 ) ;
#218 = SURFACE_STYLE_USAGE ( .BOTH. , #352 ) ;
#219 = SHAPE_DEFINITION_REPRESENTATION ( #249, #264 ) ;
#220 = DIRECTION ( 'NONE',  ( -1.000000000000000000, -6.498767552903324797E-16, 0.000000000000000000 ) ) ;
#221 = EDGE_CURVE ( 'NONE', #20, #526, #64, .T. ) ;
#222 = SURFACE_STYLE_USAGE ( .BOTH. , #41 ) ;
#223 = FILL_AREA_STYLE ('',( #268 ) ) ;
#224 = AXIS2_PLACEMENT_3D ( 'NONE', #39, #575, #401 ) ;
#225 = CIRCLE ( 'NONE', #538, 3.999999999997581046 ) ;
#226 = CARTESIAN_POINT ( 'NONE',  ( 4.479999999997581028, 28.00000000000016342, 0.000000000000000000 ) ) ;
#227 = EDGE_CURVE ( 'NONE', #551, #75, #259, .T. ) ;
#228 = CLOSED_SHELL ( 'NONE', ( #88, #543, #68, #483, #493, #213, #343, #60, #245, #482, #439, #161, #455, #118, #402, #564, #153, #462, #555, #265 ) ) ;
#229 = STYLED_ITEM ( 'NONE', ( #384 ), #60 ) ;
#230 = AXIS2_PLACEMENT_3D ( 'NONE', #56, #327, #549 ) ;
#231 = DIRECTION ( 'NONE',  ( 0.000000000000000000, -0.000000000000000000, -1.000000000000000000 ) ) ;
#232 = ORIENTED_EDGE ( 'NONE', *, *, #409, .F. ) ;
#233 = UNCERTAINTY_MEASURE_WITH_UNIT (LENGTH_MEASURE( 1.000000000000000082E-05 ), #141, 'distance_accuracy_value', 'NONE');
#234 = DIRECTION ( 'NONE',  ( -6.661338147750923465E-16, 1.000000000000000000, -0.000000000000000000 ) ) ;
#235 = EDGE_CURVE ( 'NONE', #342, #345, #569, .T. ) ;
#236 = VERTEX_POINT ( 'NONE', #452 ) ;
#237 = FACE_OUTER_BOUND ( 'NONE', #411, .T. ) ;
#238 = COLOUR_RGB ( '',1.000000000000000000, 0.000000000000000000, 0.000000000000000000 ) ;
#239 = AXIS2_PLACEMENT_3D ( 'NONE', #33, #200, #115 ) ;
#240 = DIRECTION ( 'NONE',  ( -1.000000000000000000, -6.608470384673518483E-16, 0.000000000000000000 ) ) ;
#241 = STYLED_ITEM ( 'NONE', ( #491 ), #12 ) ;
#242 = EDGE_LOOP ( 'NONE', ( #508, #333, #26, #37 ) ) ;
#243 = CARTESIAN_POINT ( 'NONE',  ( -3.999999999997650324, 63.80000000000018900, 4.898587196586483197E-16 ) ) ;
#244 = ORIENTED_EDGE ( 'NONE', *, *, #174, .F. ) ;
#245 = ADVANCED_FACE ( 'NONE', ( #7 ), #44, .T. ) ;
#246 = LINE ( 'NONE', #383, #379 ) ;
#247 = FILL_AREA_STYLE_COLOUR ( '', #426 ) ;
#248 = VERTEX_POINT ( 'NONE', #58 ) ;
#249 = PRODUCT_DEFINITION_SHAPE ( 'NONE', 'NONE',  #49 ) ;
#250 = DIRECTION ( 'NONE',  ( -1.000000000000000000, -7.744301232043465104E-16, 0.000000000000000000 ) ) ;
#251 = VECTOR ( 'NONE', #211, 1000.000000000000114 ) ;
#252 = ORIENTED_EDGE ( 'NONE', *, *, #227, .F. ) ;
#253 = DIRECTION ( 'NONE',  ( -6.661338147750923465E-16, 1.000000000000000000, -0.000000000000000000 ) ) ;
#254 = EDGE_CURVE ( 'NONE', #431, #571, #190, .T. ) ;
#255 = ORIENTED_EDGE ( 'NONE', *, *, #50, .T. ) ;
#256 = DIRECTION ( 'NONE',  ( -6.661338147750923465E-16, 1.000000000000000000, -0.000000000000000000 ) ) ;
#257 = ORIENTED_EDGE ( 'NONE', *, *, #522, .T. ) ;
#258 = CARTESIAN_POINT ( 'NONE',  ( -4.479999999997619220, 28.00000000000012434, 0.000000000000000000 ) ) ;
#259 = CIRCLE ( 'NONE', #547, 3.999999999997108979 ) ;
#260 =( LENGTH_UNIT ( ) NAMED_UNIT ( * ) SI_UNIT ( .MILLI., .METRE. ) );
#261 = ORIENTED_EDGE ( 'NONE', *, *, #529, .F. ) ;
#262 = AXIS2_PLACEMENT_3D ( 'NONE', #494, #334, #13 ) ;
#263 = EDGE_CURVE ( 'NONE', #236, #303, #217, .T. ) ;
#264 = ADVANCED_BREP_SHAPE_REPRESENTATION ( '99688-SI08-08+S9MT0802-142', ( #12, #208 ), #72 ) ;
#265 = ADVANCED_FACE ( 'NONE', ( #286 ), #495, .T. ) ;
#266 = CARTESIAN_POINT ( 'NONE',  ( -4.263256414560601115E-14, 64.00000000000017053, 0.000000000000000000 ) ) ;
#267 = DIRECTION ( 'NONE',  ( -6.661338147750923465E-16, 1.000000000000000000, -0.000000000000000000 ) ) ;
#268 = FILL_AREA_STYLE_COLOUR ( '', #520 ) ;
#269 = CARTESIAN_POINT ( 'NONE',  ( -6.661338147750923087E-13, 1000.000000000000000, 0.000000000000000000 ) ) ;
#270 = COLOUR_RGB ( '',0.7921568627450980005, 0.8196078431372548767, 0.9333333333333333481 ) ;
#271 = DIRECTION ( 'NONE',  ( -1.000000000000000000, -6.505213034917884015E-16, 0.000000000000000000 ) ) ;
#272 = AXIS2_PLACEMENT_3D ( 'NONE', #266, #42, #392 ) ;
#273 = CARTESIAN_POINT ( 'NONE',  ( 0.000000000000000000, 0.000000000000000000, 0.000000000000000000 ) ) ;
#274 = VECTOR ( 'NONE', #77, 1000.000000000000000 ) ;
#275 = CARTESIAN_POINT ( 'NONE',  ( -6.772360450213454897E-15, 1.387778780781445202E-14, 0.000000000000000000 ) ) ;
#276 =( LENGTH_UNIT ( ) NAMED_UNIT ( * ) SI_UNIT ( .MILLI., .METRE. ) );
#277 = CARTESIAN_POINT ( 'NONE',  ( -4.615486980795449605E-15, 6.928768482281285834, 0.000000000000000000 ) ) ;
#278 = VERTEX_POINT ( 'NONE', #243 ) ;
#279 = AXIS2_PLACEMENT_3D ( 'NONE', #573, #354, #97 ) ;
#280 = EDGE_CURVE ( 'NONE', #366, #571, #311, .T. ) ;
#281 = CIRCLE ( 'NONE', #28, 5.250000000000014211 ) ;
#282 = DIRECTION ( 'NONE',  ( -1.000000000000000000, -6.505213034917884015E-16, 0.000000000000000000 ) ) ;
#283 = ORIENTED_EDGE ( 'NONE', *, *, #506, .F. ) ;
#284 = FACE_OUTER_BOUND ( 'NONE', #287, .T. ) ;
#285 = VERTEX_POINT ( 'NONE', #416 ) ;
#286 = FACE_OUTER_BOUND ( 'NONE', #67, .T. ) ;
#287 = EDGE_LOOP ( 'NONE', ( #65, #32, #145, #202 ) ) ;
#288 = AXIS2_PLACEMENT_3D ( 'NONE', #486, #572, #448 ) ;
#289 = CONICAL_SURFACE ( 'NONE', #361, 3.999999999997013056, 0.3474164168820164655 ) ;
#290 = VECTOR ( 'NONE', #339, 1000.000000000000114 ) ;
#291 = DIRECTION ( 'NONE',  ( -1.000000000000000000, 0.000000000000000000, 0.000000000000000000 ) ) ;
#292 = EDGE_CURVE ( 'NONE', #477, #342, #302, .T. ) ;
#293 = APPLICATION_PROTOCOL_DEFINITION ( 'draft international standard', 'automotive_design', 1998, #373 ) ;
#294 = ORIENTED_EDGE ( 'NONE', *, *, #133, .F. ) ;
#295 = CARTESIAN_POINT ( 'NONE',  ( -5.170000000000031903, 28.00000000000019540, 6.380409823557734785E-16 ) ) ;
#296 = VERTEX_POINT ( 'NONE', #414 ) ;
#297 = LINE ( 'NONE', #376, #347 ) ;
#298 = ORIENTED_EDGE ( 'NONE', *, *, #419, .T. ) ;
#299 = EDGE_CURVE ( 'NONE', #278, #351, #403, .T. ) ;
#300 = DIRECTION ( 'NONE',  ( 1.000000000000000000, 0.000000000000000000, 0.000000000000000000 ) ) ;
#301 = AXIS2_PLACEMENT_3D ( 'NONE', #269, #312, #393 ) ;
#302 = CIRCLE ( 'NONE', #59, 3.999999999997581046 ) ;
#303 = VERTEX_POINT ( 'NONE', #154 ) ;
#304 = CARTESIAN_POINT ( 'NONE',  ( -4.263256414560601115E-14, 64.00000000000017053, 0.000000000000000000 ) ) ;
#305 = DIRECTION ( 'NONE',  ( -6.661338147750923465E-16, 1.000000000000000000, -0.000000000000000000 ) ) ;
#306 = DIRECTION ( 'NONE',  ( -6.661338147750923465E-16, 1.000000000000000000, -0.000000000000000000 ) ) ;
#307 = SURFACE_STYLE_FILL_AREA ( #559 ) ;
#308 = ORIENTED_EDGE ( 'NONE', *, *, #108, .F. ) ;
#309 =( NAMED_UNIT ( * ) PLANE_ANGLE_UNIT ( ) SI_UNIT ( $, .RADIAN. ) );
#310 = CARTESIAN_POINT ( 'NONE',  ( -4.615486980795449605E-15, 6.928768482281285834, 0.000000000000000000 ) ) ;
#311 = CIRCLE ( 'NONE', #150, 5.250000000000025757 ) ;
#312 = DIRECTION ( 'NONE',  ( -6.661338147750923465E-16, 1.000000000000000000, -0.000000000000000000 ) ) ;
#313 =( NAMED_UNIT ( * ) PLANE_ANGLE_UNIT ( ) SI_UNIT ( $, .RADIAN. ) );
#314 = PRODUCT_DEFINITION_CONTEXT ( 'detailed design', #474, 'design' ) ;
#315 =( NAMED_UNIT ( * ) SI_UNIT ( $, .STERADIAN. ) SOLID_ANGLE_UNIT ( ) );
#316 = EDGE_CURVE ( 'NONE', #296, #129, #470, .T. ) ;
#317 = DIRECTION ( 'NONE',  ( -6.661338147750923465E-16, 1.000000000000000000, -0.000000000000000000 ) ) ;
#318 = CARTESIAN_POINT ( 'NONE',  ( -4.263256414560601746E-14, 64.00000000000018474, 0.000000000000000000 ) ) ;
#319 = AXIS2_PLACEMENT_3D ( 'NONE', #539, #365, #457 ) ;
#320 = FILL_AREA_STYLE_COLOUR ( '', #238 ) ;
#321 = DIRECTION ( 'NONE',  ( 1.000000000000000000, 0.000000000000000000, 1.224646799147355426E-16 ) ) ;
#322 = DIRECTION ( 'NONE',  ( -6.661338147750923465E-16, 1.000000000000000000, -0.000000000000000000 ) ) ;
#323 = DIRECTION ( 'NONE',  ( 0.8660254037844858921, 0.4999999999999183986, 1.060575238724965093E-16 ) ) ;
#324 = EDGE_CURVE ( 'NONE', #248, #466, #496, .T. ) ;
#325 = ORIENTED_EDGE ( 'NONE', *, *, #235, .T. ) ;
#326 = UNCERTAINTY_MEASURE_WITH_UNIT (LENGTH_MEASURE( 1.000000000000000082E-05 ), #276, 'distance_accuracy_value', 'NONE');
#327 = DIRECTION ( 'NONE',  ( -6.661338147750923465E-16, 1.000000000000000000, -0.000000000000000000 ) ) ;
#328 = ORIENTED_EDGE ( 'NONE', *, *, #263, .F. ) ;
#329 = VECTOR ( 'NONE', #144, 1000.000000000000000 ) ;
#330 = DIRECTION ( 'NONE',  ( -6.661338147750923465E-16, 1.000000000000000000, -0.000000000000000000 ) ) ;
#331 = ORIENTED_EDGE ( 'NONE', *, *, #180, .T. ) ;
#332 = DIRECTION ( 'NONE',  ( -6.661338147750923465E-16, 1.000000000000000000, -0.000000000000000000 ) ) ;
#333 = ORIENTED_EDGE ( 'NONE', *, *, #108, .T. ) ;
#334 = DIRECTION ( 'NONE',  ( -6.661338147750923465E-16, 1.000000000000000000, -0.000000000000000000 ) ) ;
#335 = CARTESIAN_POINT ( 'NONE',  ( 3.999999999997108091, 1.377310453157742698, 4.898587196585873801E-16 ) ) ;
#336 = ORIENTED_EDGE ( 'NONE', *, *, #410, .F. ) ;
#337 = AXIS2_PLACEMENT_3D ( 'NONE', #157, #332, #406 ) ;
#338 = DIRECTION ( 'NONE',  ( -6.661338147750923465E-16, 1.000000000000000000, -0.000000000000000000 ) ) ;
#339 = DIRECTION ( 'NONE',  ( 0.3404697182690351598, 0.9402554817398320886, 4.169551506847758098E-17 ) ) ;
#340 = ORIENTED_EDGE ( 'NONE', *, *, #522, .F. ) ;
#341 = CARTESIAN_POINT ( 'NONE',  ( -5.250000000000020428, 10.38082101180722994, 0.000000000000000000 ) ) ;
#342 = VERTEX_POINT ( 'NONE', #196 ) ;
#343 = ADVANCED_FACE ( 'NONE', ( #237 ), #545, .T. ) ;
#344 = CARTESIAN_POINT ( 'NONE',  ( -1.859845610852065821E-14, 27.92000000000014026, 0.000000000000000000 ) ) ;
#345 = VERTEX_POINT ( 'NONE', #552 ) ;
#346 = DIRECTION ( 'NONE',  ( -1.000000000000000000, 0.000000000000000000, 0.000000000000000000 ) ) ;
#347 = VECTOR ( 'NONE', #256, 1000.000000000000000 ) ;
#348 = SURFACE_STYLE_USAGE ( .BOTH. , #479 ) ;
#349 = ORIENTED_EDGE ( 'NONE', *, *, #316, .F. ) ;
#350 = FACE_OUTER_BOUND ( 'NONE', #242, .T. ) ;
#351 = VERTEX_POINT ( 'NONE', #149 ) ;
#352 = SURFACE_SIDE_STYLE ('',( #492 ) ) ;
#353 = DIRECTION ( 'NONE',  ( -6.661338147750923465E-16, 1.000000000000000000, -0.000000000000000000 ) ) ;
#354 = DIRECTION ( 'NONE',  ( -6.661338147750923465E-16, 1.000000000000000000, -0.000000000000000000 ) ) ;
#355 = CARTESIAN_POINT ( 'NONE',  ( -3.999999999997104094, 64.00000000000017053, 0.000000000000000000 ) ) ;
#356 = AXIS2_PLACEMENT_3D ( 'NONE', #531, #267, #84 ) ;
#357 = PRODUCT_CONTEXT ( 'NONE', #373, 'mechanical' ) ;
#358 = LINE ( 'NONE', #275, #458 ) ;
#359 = DIRECTION ( 'NONE',  ( -0.7071067811863361863, -0.7071067811867587372, 8.659560562352350571E-17 ) ) ;
#360 = DIRECTION ( 'NONE',  ( 0.7071067811863371855, -0.7071067811867577380, 0.000000000000000000 ) ) ;
#361 = AXIS2_PLACEMENT_3D ( 'NONE', #277, #460, #449 ) ;
#362 = AXIS2_PLACEMENT_3D ( 'NONE', #19, #197, #562 ) ;
#363 = DIRECTION ( 'NONE',  ( -1.000000000000000000, 0.000000000000000000, 0.000000000000000000 ) ) ;
#364 = EDGE_CURVE ( 'NONE', #526, #285, #369, .T. ) ;
#365 = DIRECTION ( 'NONE',  ( 6.661338147750923465E-16, -1.000000000000000000, 0.000000000000000000 ) ) ;
#366 = VERTEX_POINT ( 'NONE', #505 ) ;
#367 = DIRECTION ( 'NONE',  ( -1.000000000000000000, -8.673617379889280411E-16, 0.000000000000000000 ) ) ;
#368 = ORIENTED_EDGE ( 'NONE', *, *, #364, .T. ) ;
#369 = CIRCLE ( 'NONE', #337, 4.479999999997599680 ) ;
#370 = DIRECTION ( 'NONE',  ( -6.661338147750923465E-16, 1.000000000000000000, -0.000000000000000000 ) ) ;
#371 = ORIENTED_EDGE ( 'NONE', *, *, #30, .F. ) ;
#372 = CARTESIAN_POINT ( 'NONE',  ( -1.865174681370266143E-14, 28.00000000000012790, 0.000000000000000000 ) ) ;
#373 = APPLICATION_CONTEXT ( 'automotive_design' ) ;
#374 = CARTESIAN_POINT ( 'NONE',  ( 3.999999999997551736, 64.00000000000017053, 4.898587196586465447E-16 ) ) ;
#375 = ORIENTED_EDGE ( 'NONE', *, *, #499, .T. ) ;
#376 = CARTESIAN_POINT ( 'NONE',  ( -3.999999999997636557, 64.00000000000017053, 0.000000000000000000 ) ) ;
#377 =( LENGTH_UNIT ( ) NAMED_UNIT ( * ) SI_UNIT ( .MILLI., .METRE. ) );
#378 = ORIENTED_EDGE ( 'NONE', *, *, #410, .T. ) ;
#379 = VECTOR ( 'NONE', #421, 1000.000000000000000 ) ;
#380 = DIRECTION ( 'NONE',  ( -6.661338147750923465E-16, 1.000000000000000000, -0.000000000000000000 ) ) ;
#381 =( LENGTH_UNIT ( ) NAMED_UNIT ( * ) SI_UNIT ( .MILLI., .METRE. ) );
#382 = ORIENTED_EDGE ( 'NONE', *, *, #263, .T. ) ;
#383 = CARTESIAN_POINT ( 'NONE',  ( -3.999999999997647659, 63.80000000000018900, 4.898587196586480238E-16 ) ) ;
#384 = PRESENTATION_STYLE_ASSIGNMENT (( #183 ) ) ;
#385 = EDGE_LOOP ( 'NONE', ( #171, #548, #387, #453 ) ) ;
#386 = CARTESIAN_POINT ( 'NONE',  ( -1.855944460475625150E-14, 27.86143593539462060, 0.000000000000000000 ) ) ;
#387 = ORIENTED_EDGE ( 'NONE', *, *, #99, .F. ) ;
#388 = CARTESIAN_POINT ( 'NONE',  ( -4.249933738265100625E-14, 63.80000000000018900, 0.000000000000000000 ) ) ;
#389 = ORIENTED_EDGE ( 'NONE', *, *, #463, .F. ) ;
#390 = PRESENTATION_STYLE_ASSIGNMENT (( #218 ) ) ;
#391 = APPLICATION_PROTOCOL_DEFINITION ( 'draft international standard', 'automotive_design', 1998, #474 ) ;
#392 = DIRECTION ( 'NONE',  ( -1.000000000000000000, 0.000000000000000000, 0.000000000000000000 ) ) ;
#393 = DIRECTION ( 'NONE',  ( -1.000000000000000000, -6.498767552903324797E-16, 0.000000000000000000 ) ) ;
#394 = LINE ( 'NONE', #177, #101 ) ;
#395 = PRESENTATION_LAYER_ASSIGNMENT (  '', '', ( #568 ) ) ;
#396 = VECTOR ( 'NONE', #158, 1000.000000000000000 ) ;
#397 = PRODUCT_RELATED_PRODUCT_CATEGORY ( 'part', '', ( #76 ) ) ;
#398 = SURFACE_STYLE_FILL_AREA ( #223 ) ;
#399 = EDGE_CURVE ( 'NONE', #351, #278, #52, .T. ) ;
#400 = AXIS2_PLACEMENT_3D ( 'NONE', #386, #565, #169 ) ;
#401 = DIRECTION ( 'NONE',  ( -1.000000000000000000, -6.505213034917884015E-16, 0.000000000000000000 ) ) ;
#402 = ADVANCED_FACE ( 'NONE', ( #284 ), #66, .T. ) ;
#403 = CIRCLE ( 'NONE', #510, 3.999999999997605471 ) ;
#404 = DIRECTION ( 'NONE',  ( -1.000000000000000000, -6.505213034917728215E-16, 0.000000000000000000 ) ) ;
#405 = ORIENTED_EDGE ( 'NONE', *, *, #399, .F. ) ;
#406 = DIRECTION ( 'NONE',  ( -1.000000000000000000, -7.744301232043467076E-16, 0.000000000000000000 ) ) ;
#407 = EDGE_LOOP ( 'NONE', ( #104, #382 ) ) ;
#408 = CARTESIAN_POINT ( 'NONE',  ( -4.263256414560601746E-14, 64.00000000000018474, 0.000000000000000000 ) ) ;
#409 = EDGE_CURVE ( 'NONE', #551, #129, #430, .T. ) ;
#410 = EDGE_CURVE ( 'NONE', #342, #278, #297, .T. ) ;
#411 = EDGE_LOOP ( 'NONE', ( #480, #9, #349, #516 ) ) ;
#412 = VECTOR ( 'NONE', #323, 999.9999999999998863 ) ;
#413 = AXIS2_PLACEMENT_3D ( 'NONE', #388, #570, #300 ) ;
#414 = CARTESIAN_POINT ( 'NONE',  ( -3.999999999997017053, 6.928768482281283170, 0.000000000000000000 ) ) ;
#415 = CARTESIAN_POINT ( 'NONE',  ( 6.772360450213454897E-15, 1.387778780781445991E-14, 8.293749548026036013E-31 ) ) ;
#416 = CARTESIAN_POINT ( 'NONE',  ( -4.479999999997620108, 28.00000000000012434, 0.000000000000000000 ) ) ;
#417 = CARTESIAN_POINT ( 'NONE',  ( -1.865174681370266143E-14, 28.00000000000012790, 0.000000000000000000 ) ) ;
#418 = EDGE_LOOP ( 'NONE', ( #294, #456, #371 ) ) ;
#419 = EDGE_CURVE ( 'NONE', #345, #285, #119, .T. ) ;
#420 = EDGE_CURVE ( 'NONE', #20, #345, #83, .T. ) ;
#421 = DIRECTION ( 'NONE',  ( -0.7071067811865915376, -0.7071067811865033859, 8.659560562355477665E-17 ) ) ;
#422 = EDGE_LOOP ( 'NONE', ( #524, #156, #124, #212 ) ) ;
#423 = AXIS2_PLACEMENT_3D ( 'NONE', #310, #89, #271 ) ;
#424 = CONICAL_SURFACE ( 'NONE', #15, 5.250000000000025757, 0.7853981633971501841 ) ;
#425 = FACE_OUTER_BOUND ( 'NONE', #422, .T. ) ;
#426 = COLOUR_RGB ( '',0.7921568627450980005, 0.8196078431372548767, 0.9333333333333333481 ) ;
#427 = ORIENTED_EDGE ( 'NONE', *, *, #292, .F. ) ;
#428 = CARTESIAN_POINT ( 'NONE',  ( -3.999999999997017053, 6.928768482281283170, 0.000000000000000000 ) ) ;
#429 = CARTESIAN_POINT ( 'NONE',  ( -1.865174681370270877E-14, 28.00000000000019895, 0.000000000000000000 ) ) ;
#430 = LINE ( 'NONE', #478, #132 ) ;
#431 = VERTEX_POINT ( 'NONE', #341 ) ;
#432 = FACE_OUTER_BOUND ( 'NONE', #195, .T. ) ;
#433 = AXIS2_PLACEMENT_3D ( 'NONE', #550, #61, #22 ) ;
#434 =( NAMED_UNIT ( * ) SI_UNIT ( $, .STERADIAN. ) SOLID_ANGLE_UNIT ( ) );
#435 = ORIENTED_EDGE ( 'NONE', *, *, #50, .F. ) ;
#436 = DIRECTION ( 'NONE',  ( -1.000000000000000000, -6.710729114030184509E-16, 0.000000000000000000 ) ) ;
#437 = CARTESIAN_POINT ( 'NONE',  ( -3.999999999997110756, 1.377310453157737591, 0.000000000000000000 ) ) ;
#438 = EDGE_CURVE ( 'NONE', #236, #278, #246, .T. ) ;
#439 = ADVANCED_FACE ( 'NONE', ( #36 ), #21, .F. ) ;
#440 = CARTESIAN_POINT ( 'NONE',  ( 4.159999999997562981, 28.00000000000015277, 5.094530684450027721E-16 ) ) ;
#441 = FILL_AREA_STYLE ('',( #137 ) ) ;
#442 = CARTESIAN_POINT ( 'NONE',  ( 5.250000000000007105, 10.38082101180723704, 6.429395695523620916E-16 ) ) ;
#443 = AXIS2_PLACEMENT_3D ( 'NONE', #429, #305, #436 ) ;
#444 = CONICAL_SURFACE ( 'NONE', #301, 2904.210877675689972, 1.239183768915959938 ) ;
#445 = CONICAL_SURFACE ( 'NONE', #413, 3.999999999997605471, 0.7853981633975112286 ) ;
#446 = DIRECTION ( 'NONE',  ( 0.000000000000000000, 0.000000000000000000, 1.000000000000000000 ) ) ;
#447 = FACE_OUTER_BOUND ( 'NONE', #176, .T. ) ;
#448 = DIRECTION ( 'NONE',  ( -1.000000000000000000, -6.505213034917728215E-16, 0.000000000000000000 ) ) ;
#449 = DIRECTION ( 'NONE',  ( -1.000000000000000000, -6.505213034917884015E-16, 0.000000000000000000 ) ) ;
#450 = CIRCLE ( 'NONE', #112, 3.799999999997588418 ) ;
#451 = AXIS2_PLACEMENT_3D ( 'NONE', #29, #253, #24 ) ;
#452 = CARTESIAN_POINT ( 'NONE',  ( -3.799999999997630606, 64.00000000000018474, 4.776122516671733849E-16 ) ) ;
#453 = ORIENTED_EDGE ( 'NONE', *, *, #499, .F. ) ;
#454 = CARTESIAN_POINT ( 'NONE',  ( -5.250000000000063061, 64.00000000000017053, 0.000000000000000000 ) ) ;
#455 = ADVANCED_FACE ( 'NONE', ( #203 ), #79, .T. ) ;
#456 = ORIENTED_EDGE ( 'NONE', *, *, #528, .T. ) ;
#457 = DIRECTION ( 'NONE',  ( 1.000000000000000000, 0.000000000000000000, 0.000000000000000000 ) ) ;
#458 = VECTOR ( 'NONE', #536, 999.9999999999998863 ) ;
#459 = AXIS2_PLACEMENT_3D ( 'NONE', #167, #517, #471 ) ;
#460 = DIRECTION ( 'NONE',  ( -6.661338147750923465E-16, 1.000000000000000000, -0.000000000000000000 ) ) ;
#461 = ORIENTED_EDGE ( 'NONE', *, *, #174, .T. ) ;
#462 = ADVANCED_FACE ( 'NONE', ( #121 ), #206, .F. ) ;
#463 = EDGE_CURVE ( 'NONE', #143, #431, #281, .T. ) ;
#464 = LINE ( 'NONE', #126, #92 ) ;
#465 = DIRECTION ( 'NONE',  ( 6.661338147750923465E-16, -1.000000000000000000, 0.000000000000000000 ) ) ;
#466 = VERTEX_POINT ( 'NONE', #295 ) ;
#467 = DIRECTION ( 'NONE',  ( -1.000000000000000000, 0.000000000000000000, 0.000000000000000000 ) ) ;
#468 = ORIENTED_EDGE ( 'NONE', *, *, #221, .F. ) ;
#469 = CONICAL_SURFACE ( 'NONE', #27, 2904.210877675689972, 1.239183768915959938 ) ;
#470 = CIRCLE ( 'NONE', #172, 3.999999999997013056 ) ;
#471 = DIRECTION ( 'NONE',  ( -1.000000000000000000, 0.000000000000000000, 0.000000000000000000 ) ) ;
#472 = LINE ( 'NONE', #70, #290 ) ;
#473 = ORIENTED_EDGE ( 'NONE', *, *, #364, .F. ) ;
#474 = APPLICATION_CONTEXT ( 'automotive_design' ) ;
#475 = CARTESIAN_POINT ( 'NONE',  ( -6.915015901092578712E-15, 10.38082101180723349, 0.000000000000000000 ) ) ;
#476 = EDGE_CURVE ( 'NONE', #143, #366, #464, .T. ) ;
#477 = VERTEX_POINT ( 'NONE', #558 ) ;
#478 = CARTESIAN_POINT ( 'NONE',  ( 3.999999999997018829, 64.00000000000017053, 4.898587196585813651E-16 ) ) ;
#479 = SURFACE_SIDE_STYLE ('',( #307 ) ) ;
#480 = ORIENTED_EDGE ( 'NONE', *, *, #30, .T. ) ;
#481 = AXIS2_PLACEMENT_3D ( 'NONE', #408, #541, #291 ) ;
#482 = ADVANCED_FACE ( 'NONE', ( #165 ), #445, .T. ) ;
#483 = ADVANCED_FACE ( 'NONE', ( #350 ), #424, .T. ) ;
#484 = LINE ( 'NONE', #184, #537 ) ;
#485 = DIRECTION ( 'NONE',  ( -6.661338147750923465E-16, 1.000000000000000000, -0.000000000000000000 ) ) ;
#486 = CARTESIAN_POINT ( 'NONE',  ( -9.174730662915695549E-16, 1.377310453157740255, 0.000000000000000000 ) ) ;
#487 = CARTESIAN_POINT ( 'NONE',  ( 3.999999999997562838, 63.80000000000018900, 0.000000000000000000 ) ) ;
#488 = AXIS2_PLACEMENT_3D ( 'NONE', #226, #5, #134 ) ;
#489 = DIRECTION ( 'NONE',  ( -1.000000000000000000, -7.744301232043467076E-16, 0.000000000000000000 ) ) ;
#490 = AXIS2_PLACEMENT_3D ( 'NONE', #111, #330, #105 ) ;
#491 = PRESENTATION_STYLE_ASSIGNMENT (( #222 ) ) ;
#492 = SURFACE_STYLE_FILL_AREA ( #185 ) ;
#493 = ADVANCED_FACE ( 'NONE', ( #425 ), #561, .T. ) ;
#494 = CARTESIAN_POINT ( 'NONE',  ( -1.865174681370270877E-14, 28.00000000000019895, 0.000000000000000000 ) ) ;
#495 = CYLINDRICAL_SURFACE ( 'NONE', #230, 3.999999999997593925 ) ;
#496 = CIRCLE ( 'NONE', #262, 5.170000000000013252 ) ;
#497 = EDGE_LOOP ( 'NONE', ( #127, #473 ) ) ;
#498 = MECHANICAL_DESIGN_GEOMETRIC_PRESENTATION_REPRESENTATION (  '', ( #93 ), #103 ) ;
#499 = EDGE_CURVE ( 'NONE', #296, #431, #73, .T. ) ;
#500 = DIRECTION ( 'NONE',  ( -6.661338147750923465E-16, 1.000000000000000000, -0.000000000000000000 ) ) ;
#501 = EDGE_LOOP ( 'NONE', ( #198, #209, #368, #553 ) ) ;
#502 = CARTESIAN_POINT ( 'NONE',  ( -9.174730662915695549E-16, 1.377310453157740255, 0.000000000000000000 ) ) ;
#503 = CARTESIAN_POINT ( 'NONE',  ( 4.479999999997580140, 28.00000000000013145, 5.486417660177202560E-16 ) ) ;
#504 = ORIENTED_EDGE ( 'NONE', *, *, #162, .T. ) ;
#505 = CARTESIAN_POINT ( 'NONE',  ( 5.250000000000007105, 27.92000000000014381, 6.429395695523632749E-16 ) ) ;
#506 = EDGE_CURVE ( 'NONE', #345, #20, #139, .T. ) ;
#507 = CARTESIAN_POINT ( 'NONE',  ( -5.250000000000043521, 27.92000000000013671, 0.000000000000000000 ) ) ;
#508 = ORIENTED_EDGE ( 'NONE', *, *, #4, .F. ) ;
#509 = AXIS2_PLACEMENT_3D ( 'NONE', #440, #533, #321 ) ;
#510 = AXIS2_PLACEMENT_3D ( 'NONE', #18, #187, #363 ) ;
#511 = DIRECTION ( 'NONE',  ( -1.000000000000000000, -6.608470384673533274E-16, 0.000000000000000000 ) ) ;
#512 = FACE_OUTER_BOUND ( 'NONE', #35, .T. ) ;
#513 = EDGE_LOOP ( 'NONE', ( #468, #283, #298, #544 ) ) ;
#514 = DIRECTION ( 'NONE',  ( 6.661338147750923465E-16, -1.000000000000000000, 0.000000000000000000 ) ) ;
#515 = DIRECTION ( 'NONE',  ( -6.661338147750923465E-16, 1.000000000000000000, -0.000000000000000000 ) ) ;
#516 = ORIENTED_EDGE ( 'NONE', *, *, #162, .F. ) ;
#517 = DIRECTION ( 'NONE',  ( -6.661338147750923465E-16, 1.000000000000000000, -0.000000000000000000 ) ) ;
#518 = LINE ( 'NONE', #415, #148 ) ;
#519 = ORIENTED_EDGE ( 'NONE', *, *, #438, .T. ) ;
#520 = COLOUR_RGB ( '',1.000000000000000000, 0.000000000000000000, 0.000000000000000000 ) ;
#521 = AXIS2_PLACEMENT_3D ( 'NONE', #523, #306, #346 ) ;
#522 = EDGE_CURVE ( 'NONE', #477, #351, #123, .T. ) ;
#523 = CARTESIAN_POINT ( 'NONE',  ( -4.263256414560601115E-14, 64.00000000000017053, 0.000000000000000000 ) ) ;
#524 = ORIENTED_EDGE ( 'NONE', *, *, #99, .T. ) ;
#525 = DIRECTION ( 'NONE',  ( 1.000000000000000000, 6.608470384673518483E-16, 0.000000000000000000 ) ) ;
#526 = VERTEX_POINT ( 'NONE', #503 ) ;
#527 = LINE ( 'NONE', #355, #546 ) ;
#528 = EDGE_CURVE ( 'NONE', #560, #551, #518, .T. ) ;
#529 = EDGE_CURVE ( 'NONE', #342, #477, #225, .T. ) ;
#530 = AXIS2_PLACEMENT_3D ( 'NONE', #178, #353, #130 ) ;
#531 = CARTESIAN_POINT ( 'NONE',  ( -1.865174681370266143E-14, 28.00000000000012790, 0.000000000000000000 ) ) ;
#532 = AXIS2_PLACEMENT_3D ( 'NONE', #175, #214, #250 ) ;
#533 = DIRECTION ( 'NONE',  ( -1.224646799147353207E-16, -8.157786440681327174E-32, 1.000000000000000000 ) ) ;
#534 = DIRECTION ( 'NONE',  ( 0.7071067811865924257, -0.7071067811865026087, 0.000000000000000000 ) ) ;
#535 = PLANE ( 'NONE',  #488 ) ;
#536 = DIRECTION ( 'NONE',  ( -0.9455185755993125163, 0.3255681544571694119, 0.000000000000000000 ) ) ;
#537 = VECTOR ( 'NONE', #360, 1000.000000000000114 ) ;
#538 = AXIS2_PLACEMENT_3D ( 'NONE', #417, #515, #116 ) ;
#539 = CARTESIAN_POINT ( 'NONE',  ( -4.249933738265100625E-14, 63.80000000000018900, 0.000000000000000000 ) ) ;
#540 = EDGE_LOOP ( 'NONE', ( #23, #257, #216, #336 ) ) ;
#541 = DIRECTION ( 'NONE',  ( -6.661338147750923465E-16, 1.000000000000000000, -0.000000000000000000 ) ) ;
#542 = EDGE_CURVE ( 'NONE', #129, #143, #472, .T. ) ;
#543 = ADVANCED_FACE ( 'NONE', ( #74 ), #38, .F. ) ;
#544 = ORIENTED_EDGE ( 'NONE', *, *, #199, .T. ) ;
#545 = CYLINDRICAL_SURFACE ( 'NONE', #6, 3.999999999997061462 ) ;
#546 = VECTOR ( 'NONE', #574, 1000.000000000000000 ) ;
#547 = AXIS2_PLACEMENT_3D ( 'NONE', #502, #370, #404 ) ;
#548 = ORIENTED_EDGE ( 'NONE', *, *, #542, .T. ) ;
#549 = DIRECTION ( 'NONE',  ( -1.000000000000000000, 0.000000000000000000, 0.000000000000000000 ) ) ;
#550 = CARTESIAN_POINT ( 'NONE',  ( -1.821459649775647449E-14, 28.00000000000014921, 0.000000000000000000 ) ) ;
#551 = VERTEX_POINT ( 'NONE', #335 ) ;
#552 = CARTESIAN_POINT ( 'NONE',  ( -4.239999999997567492, 27.86143593539461705, 0.000000000000000000 ) ) ;
#553 = ORIENTED_EDGE ( 'NONE', *, *, #419, .F. ) ;
#554 = DIRECTION ( 'NONE',  ( -6.661338147750923465E-16, 1.000000000000000000, -0.000000000000000000 ) ) ;
#555 = ADVANCED_FACE ( 'NONE', ( #16 ), #113, .F. ) ;
#556 = ORIENTED_EDGE ( 'NONE', *, *, #292, .T. ) ;
#557 = AXIS2_PLACEMENT_3D ( 'NONE', #10, #231, #107 ) ;
#558 = CARTESIAN_POINT ( 'NONE',  ( 3.999999999997561950, 28.00000000000013145, 5.045544812484112994E-16 ) ) ;
#559 = FILL_AREA_STYLE ('',( #247 ) ) ;
#560 = VERTEX_POINT ( 'NONE', #163 ) ;
#561 = CYLINDRICAL_SURFACE ( 'NONE', #459, 5.250000000000020428 ) ;
#562 = DIRECTION ( 'NONE',  ( -1.000000000000000000, -6.661338147750923465E-16, 0.000000000000000000 ) ) ;
#563 = ORIENTED_EDGE ( 'NONE', *, *, #280, .T. ) ;
#564 = ADVANCED_FACE ( 'NONE', ( #512 ), #45, .T. ) ;
#565 = DIRECTION ( 'NONE',  ( -6.661338147750923465E-16, 1.000000000000000000, -0.000000000000000000 ) ) ;
#566 = EDGE_LOOP ( 'NONE', ( #427, #461, #71, #81 ) ) ;
#567 = CIRCLE ( 'NONE', #288, 3.999999999997108979 ) ;
#568 = STYLED_ITEM ( 'NONE', ( #390 ), #161 ) ;
#569 = CIRCLE ( 'NONE', #557, 0.1600000000000004197 ) ;
#570 = DIRECTION ( 'NONE',  ( 6.661338147750923465E-16, -1.000000000000000000, 0.000000000000000000 ) ) ;
#571 = VERTEX_POINT ( 'NONE', #507 ) ;
#572 = DIRECTION ( 'NONE',  ( -6.661338147750923465E-16, 1.000000000000000000, -0.000000000000000000 ) ) ;
#573 = CARTESIAN_POINT ( 'NONE',  ( -6.915015901092578712E-15, 10.38082101180723349, 0.000000000000000000 ) ) ;
#574 = DIRECTION ( 'NONE',  ( -6.661338147750923465E-16, 1.000000000000000000, -0.000000000000000000 ) ) ;
#575 = DIRECTION ( 'NONE',  ( -6.661338147750923465E-16, 1.000000000000000000, -0.000000000000000000 ) ) ;
#576 = MECHANICAL_DESIGN_GEOMETRIC_PRESENTATION_REPRESENTATION (  '', ( #229 ), #205 ) ;
ENDSEC;
END-ISO-10303-21;
