ISO-10303-21;
HEADER;
FILE_DESCRIPTION (( 'STEP AP214' ),
    '1' );
FILE_NAME ('99688-SI08-08+S9MT0802-060.STEP',
    '2022-11-03T01:06:23',
    ( 'User' ),
    ( 'GENUINE' ),
    'SwSTEP 2.0',
    'SolidWorks 2012',
    '' );
FILE_SCHEMA (( 'AUTOMOTIVE_DESIGN' ));
ENDSEC;

DATA;
#1 = MANIFOLD_SOLID_BREP ( '±ÛÂà1', #386 ) ;
#2 = LINE ( 'NONE', #210, #50 ) ;
#3 = CARTESIAN_POINT ( 'NONE',  ( 3.999999999998053600, 65.00000000000105200, 4.898587196586464500E-016 ) ) ;
#4 = CARTESIAN_POINT ( 'NONE',  ( -3.999999999997130700, 65.00000000000105200, 0.0000000000000000000 ) ) ;
#5 = CARTESIAN_POINT ( 'NONE',  ( 4.953029439583093700E-013, 29.00000000000107300, 0.0000000000000000000 ) ) ;
#6 = DIRECTION ( 'NONE',  ( -9.291712698401196300E-016, 1.000000000000000000, -0.0000000000000000000 ) ) ;
#7 = LINE ( 'NONE', #4, #406 ) ;
#8 = CARTESIAN_POINT ( 'NONE',  ( 3.999999999997520200, 7.928768482282165100, 4.898587196585744600E-016 ) ) ;
#9 = DIRECTION ( 'NONE',  ( -9.291712698401196300E-016, 1.000000000000000000, -0.0000000000000000000 ) ) ;
#10 = DIRECTION ( 'NONE',  ( -9.291712698401196300E-016, 1.000000000000000000, -0.0000000000000000000 ) ) ;
#11 = DIRECTION ( 'NONE',  ( -1.000000000000000000, -6.710729114030177600E-016, 0.0000000000000000000 ) ) ;
#12 = LINE ( 'NONE', #3, #47 ) ;
#13 = CARTESIAN_POINT ( 'NONE',  ( 5.148817269047234200E-013, 7.928768482282161600, 0.0000000000000000000 ) ) ;
#14 = LINE ( 'NONE', #8, #53 ) ;
#15 = DIRECTION ( 'NONE',  ( -9.291712698401196300E-016, 1.000000000000000000, -0.0000000000000000000 ) ) ;
#16 = DIRECTION ( 'NONE',  ( 0.3404697182690344900, 0.9402554817398324200, 4.169551506847753200E-017 ) ) ;
#17 = PRODUCT ( '99688-SI08-08+S9MT0802-060', '99688-SI08-08+S9MT0802-060', '', ( #382 ) ) ;
#18 = DIRECTION ( 'NONE',  ( -1.000000000000000000, -8.673617379890527800E-016, 0.0000000000000000000 ) ) ;
#19 = FACE_OUTER_BOUND ( 'NONE', #532, .T. ) ;
#20 = AXIS2_PLACEMENT_3D ( 'NONE', #238, #239, #240 ) ;
#21 = CYLINDRICAL_SURFACE ( 'NONE', #23, 3.999999999997014800 ) ;
#22 = AXIS2_PLACEMENT_3D ( 'NONE', #232, #233, #234 ) ;
#23 = AXIS2_PLACEMENT_3D ( 'NONE', #235, #236, #237 ) ;
#24 = FACE_OUTER_BOUND ( 'NONE', #449, .T. ) ;
#25 = FACE_OUTER_BOUND ( 'NONE', #533, .T. ) ;
#26 = FACE_OUTER_BOUND ( 'NONE', #534, .T. ) ;
#27 = FACE_OUTER_BOUND ( 'NONE', #447, .T. ) ;
#28 = AXIS2_PLACEMENT_3D ( 'NONE', #260, #261, #262 ) ;
#29 = AXIS2_PLACEMENT_3D ( 'NONE', #244, #245, #246 ) ;
#30 = FACE_OUTER_BOUND ( 'NONE', #458, .T. ) ;
#31 = FACE_OUTER_BOUND ( 'NONE', #448, .T. ) ;
#32 = FACE_OUTER_BOUND ( 'NONE', #536, .T. ) ;
#33 = AXIS2_PLACEMENT_3D ( 'NONE', #229, #230, #231 ) ;
#34 = CYLINDRICAL_SURFACE ( 'NONE', #33, 5.250000000000015100 ) ;
#35 = AXIS2_PLACEMENT_3D ( 'NONE', #223, #224, #225 ) ;
#36 = AXIS2_PLACEMENT_3D ( 'NONE', #226, #227, #228 ) ;
#37 = AXIS2_PLACEMENT_3D ( 'NONE', #220, #221, #222 ) ;
#38 = FACE_OUTER_BOUND ( 'NONE', #538, .T. ) ;
#39 = FACE_OUTER_BOUND ( 'NONE', #450, .T. ) ;
#40 = FACE_OUTER_BOUND ( 'NONE', #537, .T. ) ;
#41 = AXIS2_PLACEMENT_3D ( 'NONE', #309, #310, #311 ) ;
#42 = AXIS2_PLACEMENT_3D ( 'NONE', #241, #242, #243 ) ;
#43 = FACE_OUTER_BOUND ( 'NONE', #446, .T. ) ;
#44 = AXIS2_PLACEMENT_3D ( 'NONE', #217, #218, #219 ) ;
#45 = FACE_OUTER_BOUND ( 'NONE', #535, .T. ) ;
#46 = FACE_OUTER_BOUND ( 'NONE', #540, .T. ) ;
#47 = VECTOR ( 'NONE', #6, 1000.000000000000000 ) ;
#48 = AXIS2_PLACEMENT_3D ( 'NONE', #214, #215, #216 ) ;
#49 = CYLINDRICAL_SURFACE ( 'NONE', #44, 3.999999999997592100 ) ;
#50 = VECTOR ( 'NONE', #211, 1000.000000000000100 ) ;
#51 = FACE_OUTER_BOUND ( 'NONE', #539, .T. ) ;
#52 = AXIS2_PLACEMENT_3D ( 'NONE', #13, #15, #18 ) ;
#53 = VECTOR ( 'NONE', #16, 1000.000000000000100 ) ;
#54 = AXIS2_PLACEMENT_3D ( 'NONE', #410, #212, #213 ) ;
#55 = AXIS2_PLACEMENT_3D ( 'NONE', #251, #252, #253 ) ;
#56 = FACE_OUTER_BOUND ( 'NONE', #451, .T. ) ;
#57 = AXIS2_PLACEMENT_3D ( 'NONE', #247, #248, #249 ) ;
#58 = AXIS2_PLACEMENT_3D ( 'NONE', #254, #255, #256 ) ;
#59 = AXIS2_PLACEMENT_3D ( 'NONE', #257, #258, #259 ) ;
#60 = FACE_OUTER_BOUND ( 'NONE', #452, .T. ) ;
#61 = CYLINDRICAL_SURFACE ( 'NONE', #28, 3.999999999997014800 ) ;
#62 = PRODUCT_DEFINITION_FORMATION_WITH_SPECIFIED_SOURCE ( 'ANY', '', #17, .NOT_KNOWN. ) ;
#63 = AXIS2_PLACEMENT_3D ( 'NONE', #378, #379, #380 ) ;
#64 = MECHANICAL_DESIGN_GEOMETRIC_PRESENTATION_REPRESENTATION (  '', ( #66 ), #408 ) ;
#65 = PRESENTATION_LAYER_ASSIGNMENT (  '', '', ( #66 ) ) ;
#66 = STYLED_ITEM ( 'NONE', ( #374 ), #102 ) ;
#67 = VECTOR ( 'NONE', #339, 1000.000000000000000 ) ;
#68 = AXIS2_PLACEMENT_3D ( 'NONE', #336, #340, #341 ) ;
#69 = AXIS2_PLACEMENT_3D ( 'NONE', #333, #334, #335 ) ;
#70 = AXIS2_PLACEMENT_3D ( 'NONE', #330, #331, #332 ) ;
#71 = AXIS2_PLACEMENT_3D ( 'NONE', #327, #328, #329 ) ;
#72 = AXIS2_PLACEMENT_3D ( 'NONE', #324, #325, #326 ) ;
#73 = AXIS2_PLACEMENT_3D ( 'NONE', #321, #322, #323 ) ;
#74 = AXIS2_PLACEMENT_3D ( 'NONE', #318, #319, #320 ) ;
#75 = VECTOR ( 'NONE', #306, 1000.000000000000000 ) ;
#76 = AXIS2_PLACEMENT_3D ( 'NONE', #303, #307, #308 ) ;
#77 = AXIS2_PLACEMENT_3D ( 'NONE', #315, #316, #317 ) ;
#78 = VECTOR ( 'NONE', #300, 999.9999999999998900 ) ;
#79 = AXIS2_PLACEMENT_3D ( 'NONE', #312, #313, #314 ) ;
#80 = VECTOR ( 'NONE', #297, 1000.000000000000100 ) ;
#81 = AXIS2_PLACEMENT_3D ( 'NONE', #288, #301, #302 ) ;
#82 = VECTOR ( 'NONE', #294, 1000.000000000000100 ) ;
#83 = VECTOR ( 'NONE', #291, 1000.000000000000000 ) ;
#84 = VECTOR ( 'NONE', #285, 1000.000000000000000 ) ;
#85 = AXIS2_PLACEMENT_3D ( 'NONE', #282, #286, #287 ) ;
#86 = VECTOR ( 'NONE', #281, 1000.000000000000000 ) ;
#87 = AXIS2_PLACEMENT_3D ( 'NONE', #276, #277, #278 ) ;
#88 = AXIS2_PLACEMENT_3D ( 'NONE', #273, #274, #275 ) ;
#89 = FACE_OUTER_BOUND ( 'NONE', #457, .T. ) ;
#90 = FACE_OUTER_BOUND ( 'NONE', #456, .T. ) ;
#91 = AXIS2_PLACEMENT_3D ( 'NONE', #269, #270, #271 ) ;
#92 = FACE_BOUND ( 'NONE', #455, .T. ) ;
#93 = CYLINDRICAL_SURFACE ( 'NONE', #94, 5.250000000000015100 ) ;
#94 = AXIS2_PLACEMENT_3D ( 'NONE', #266, #267, #268 ) ;
#95 = AXIS2_PLACEMENT_3D ( 'NONE', #263, #264, #265 ) ;
#96 = FACE_OUTER_BOUND ( 'NONE', #453, .T. ) ;
#97 = FACE_OUTER_BOUND ( 'NONE', #454, .T. ) ;
#98 = UNCERTAINTY_MEASURE_WITH_UNIT (LENGTH_MEASURE( 1.000000000000000100E-005 ), #596, 'distance_accuracy_value', 'NONE');
#99 = APPLICATION_CONTEXT ( 'automotive_design' ) ;
#100 = APPLICATION_CONTEXT ( 'automotive_design' ) ;
#101 = UNCERTAINTY_MEASURE_WITH_UNIT (LENGTH_MEASURE( 1.000000000000000100E-005 ), #365, 'distance_accuracy_value', 'NONE');
#102 = ADVANCED_BREP_SHAPE_REPRESENTATION ( '99688-SI08-08+S9MT0802-060', ( #1, #63 ), #409 ) ;
#103 = UNCERTAINTY_MEASURE_WITH_UNIT (LENGTH_MEASURE( 1.000000000000000100E-005 ), #375, 'distance_accuracy_value', 'NONE');
#104 = CIRCLE ( 'NONE', #388, 5.250000000000008000 ) ;
#105 = EDGE_CURVE ( 'NONE', #554, #461, #104, .T. ) ;
#106 = EDGE_CURVE ( 'NONE', #554, #472, #587, .T. ) ;
#107 = EDGE_CURVE ( 'NONE', #472, #462, #170, .T. ) ;
#108 = EDGE_CURVE ( 'NONE', #473, #462, #581, .T. ) ;
#109 = EDGE_CURVE ( 'NONE', #461, #462, #578, .T. ) ;
#110 = EDGE_CURVE ( 'NONE', #471, #467, #171, .T. ) ;
#111 = EDGE_CURVE ( 'NONE', #470, #466, #172, .T. ) ;
#112 = EDGE_CURVE ( 'NONE', #465, #464, #173, .T. ) ;
#113 = EDGE_CURVE ( 'NONE', #468, #464, #420, .T. ) ;
#114 = EDGE_CURVE ( 'NONE', #469, #465, #417, .T. ) ;
#115 = EDGE_CURVE ( 'NONE', #463, #472, #424, .T. ) ;
#116 = EDGE_CURVE ( 'NONE', #471, #468, #174, .T. ) ;
#117 = EDGE_CURVE ( 'NONE', #469, #468, #175, .T. ) ;
#118 = EDGE_CURVE ( 'NONE', #467, #469, #176, .T. ) ;
#119 = EDGE_CURVE ( 'NONE', #467, #471, #177, .T. ) ;
#120 = EDGE_CURVE ( 'NONE', #471, #470, #7, .T. ) ;
#121 = EDGE_CURVE ( 'NONE', #463, #473, #178, .T. ) ;
#122 = EDGE_CURVE ( 'NONE', #467, #466, #12, .T. ) ;
#123 = EDGE_CURVE ( 'NONE', #571, #461, #14, .T. ) ;
#124 = EDGE_CURVE ( 'NONE', #541, #571, #179, .T. ) ;
#125 = EDGE_CURVE ( 'NONE', #541, #554, #2, .T. ) ;
#126 = ADVANCED_FACE ( 'NONE', ( #405 ), #400, .T. ) ;
#127 = ADVANCED_FACE ( 'NONE', ( #30 ), #182, .F. ) ;
#128 = ADVANCED_FACE ( 'NONE', ( #46 ), #49, .T. ) ;
#129 = ADVANCED_FACE ( 'NONE', ( #51 ), #183, .F. ) ;
#130 = ADVANCED_FACE ( 'NONE', ( #38 ), #180, .F. ) ;
#131 = ADVANCED_FACE ( 'NONE', ( #40 ), #181, .T. ) ;
#132 = ADVANCED_FACE ( 'NONE', ( #32 ), #34, .T. ) ;
#133 = ADVANCED_FACE ( 'NONE', ( #45 ), #185, .T. ) ;
#134 = ADVANCED_FACE ( 'NONE', ( #26 ), #21, .T. ) ;
#135 = ADVANCED_FACE ( 'NONE', ( #25 ), #186, .T. ) ;
#136 = ADVANCED_FACE ( 'NONE', ( #19 ), #184, .T. ) ;
#137 = ADVANCED_FACE ( 'NONE', ( #43 ), #187, .T. ) ;
#138 = ADVANCED_FACE ( 'NONE', ( #27 ), #188, .T. ) ;
#139 = ADVANCED_FACE ( 'NONE', ( #31 ), #250, .F. ) ;
#140 = ADVANCED_FACE ( 'NONE', ( #24 ), #190, .T. ) ;
#141 = ADVANCED_FACE ( 'NONE', ( #39 ), #189, .T. ) ;
#142 = ADVANCED_FACE ( 'NONE', ( #56 ), #61, .T. ) ;
#143 = ADVANCED_FACE ( 'NONE', ( #60 ), #192, .T. ) ;
#144 = ADVANCED_FACE ( 'NONE', ( #96 ), #93, .T. ) ;
#145 = ADVANCED_FACE ( 'NONE', ( #97 ), #193, .T. ) ;
#146 = ADVANCED_FACE ( 'NONE', ( #92, #90 ), #272, .F. ) ;
#147 = ADVANCED_FACE ( 'NONE', ( #89 ), #194, .F. ) ;
#148 = EDGE_CURVE ( 'NONE', #548, #541, #279, .T. ) ;
#149 = EDGE_CURVE ( 'NONE', #545, #547, #283, .T. ) ;
#150 = EDGE_CURVE ( 'NONE', #546, #545, #191, .T. ) ;
#151 = EDGE_CURVE ( 'NONE', #546, #548, #289, .T. ) ;
#152 = EDGE_CURVE ( 'NONE', #544, #545, #292, .T. ) ;
#153 = EDGE_CURVE ( 'NONE', #544, #546, #295, .T. ) ;
#154 = EDGE_CURVE ( 'NONE', #543, #470, #298, .T. ) ;
#155 = EDGE_CURVE ( 'NONE', #543, #542, #195, .T. ) ;
#156 = EDGE_CURVE ( 'NONE', #542, #466, #304, .T. ) ;
#157 = EDGE_CURVE ( 'NONE', #542, #543, #196, .T. ) ;
#158 = EDGE_CURVE ( 'NONE', #466, #470, #197, .T. ) ;
#159 = EDGE_CURVE ( 'NONE', #545, #546, #198, .T. ) ;
#160 = EDGE_CURVE ( 'NONE', #547, #548, #199, .T. ) ;
#161 = EDGE_CURVE ( 'NONE', #571, #541, #200, .T. ) ;
#162 = EDGE_CURVE ( 'NONE', #461, #554, #201, .T. ) ;
#163 = EDGE_CURVE ( 'NONE', #462, #472, #202, .T. ) ;
#164 = EDGE_CURVE ( 'NONE', #473, #463, #203, .T. ) ;
#165 = EDGE_CURVE ( 'NONE', #464, #465, #204, .T. ) ;
#166 = EDGE_CURVE ( 'NONE', #468, #469, #205, .T. ) ;
#167 = EDGE_CURVE ( 'NONE', #547, #571, #337, .T. ) ;
#168 = EDGE_CURVE ( 'NONE', #548, #547, #206, .T. ) ;
#169 = COLOUR_RGB ( '',0.7921568627450980000, 0.8196078431372548800, 0.9333333333333333500 ) ;
#170 = CIRCLE ( 'NONE', #390, 5.250000000000024000 ) ;
#171 = CIRCLE ( 'NONE', #392, 3.999999999997579300 ) ;
#172 = CIRCLE ( 'NONE', #395, 3.999999999997606400 ) ;
#173 = CIRCLE ( 'NONE', #396, 4.479999999997597000 ) ;
#174 = CIRCLE ( 'NONE', #397, 0.1600000000000004200 ) ;
#175 = CIRCLE ( 'NONE', #402, 4.239999999997548000 ) ;
#176 = CIRCLE ( 'NONE', #403, 0.1600000000000004200 ) ;
#177 = CIRCLE ( 'NONE', #389, 3.999999999997579300 ) ;
#178 = CIRCLE ( 'NONE', #404, 5.170000000000018600 ) ;
#179 = CIRCLE ( 'NONE', #52, 3.999999999997006000 ) ;
#180 = CONICAL_SURFACE ( 'NONE', #35, 4.479999999997597000, 1.047197551196689600 ) ;
#181 = CONICAL_SURFACE ( 'NONE', #36, 5.250000000000024000, 0.7853981633971555100 ) ;
#182 = TOROIDAL_SURFACE ( 'NONE', #48, 4.159999999997579900, 0.1600000000000008400 ) ;
#183 = TOROIDAL_SURFACE ( 'NONE', #37, 4.159999999997579900, 0.1600000000000008400 ) ;
#184 = CONICAL_SURFACE ( 'NONE', #42, 1732.050807568846500, 1.047197551196590100 ) ;
#185 = CONICAL_SURFACE ( 'NONE', #22, 3.999999999997005100, 0.3474164168820160800 ) ;
#186 = CONICAL_SURFACE ( 'NONE', #20, 0.7999999999995464100, 0.5235987755982546300 ) ;
#187 = CONICAL_SURFACE ( 'NONE', #29, 3.999999999997605500, 0.7853981633974407300 ) ;
#188 = CONICAL_SURFACE ( 'NONE', #57, 3.999999999997605500, 0.7853981633974407300 ) ;
#189 = CONICAL_SURFACE ( 'NONE', #59, 0.7999999999995464100, 0.5235987755982546300 ) ;
#190 = CONICAL_SURFACE ( 'NONE', #58, 1732.050807568846500, 1.047197551196590100 ) ;
#191 = CIRCLE ( 'NONE', #85, 0.7999999999995464100 ) ;
#192 = CONICAL_SURFACE ( 'NONE', #95, 3.999999999997005100, 0.3474164168820160800 ) ;
#193 = CONICAL_SURFACE ( 'NONE', #91, 5.250000000000024000, 0.7853981633971555100 ) ;
#194 = CONICAL_SURFACE ( 'NONE', #87, 4.479999999997597000, 1.047197551196689600 ) ;
#195 = CIRCLE ( 'NONE', #81, 3.799999999997602600 ) ;
#196 = CIRCLE ( 'NONE', #76, 3.799999999997602600 ) ;
#197 = CIRCLE ( 'NONE', #41, 3.999999999997606400 ) ;
#198 = CIRCLE ( 'NONE', #79, 0.7999999999995464100 ) ;
#199 = CIRCLE ( 'NONE', #77, 3.999999999997025900 ) ;
#200 = CIRCLE ( 'NONE', #74, 3.999999999997006000 ) ;
#201 = CIRCLE ( 'NONE', #73, 5.250000000000008000 ) ;
#202 = CIRCLE ( 'NONE', #72, 5.250000000000024000 ) ;
#203 = CIRCLE ( 'NONE', #71, 5.170000000000018600 ) ;
#204 = CIRCLE ( 'NONE', #70, 4.479999999997597000 ) ;
#205 = CIRCLE ( 'NONE', #69, 4.239999999997548000 ) ;
#206 = CIRCLE ( 'NONE', #68, 3.999999999997025900 ) ;
#207 = PRODUCT_DEFINITION ( 'UNKNOWN', '', #62, #438 ) ;
#208 = COLOUR_RGB ( '',0.7921568627450980000, 0.8196078431372548800, 0.9333333333333333500 ) ;
#209 = PRODUCT_RELATED_PRODUCT_CATEGORY ( 'part', '', ( #17 ) ) ;
#210 = CARTESIAN_POINT ( 'NONE',  ( -3.999999999996489900, 7.928768482282158000, 0.0000000000000000000 ) ) ;
#211 = DIRECTION ( 'NONE',  ( -0.3404697182690362700, 0.9402554817398316400, 0.0000000000000000000 ) ) ;
#212 = DIRECTION ( 'NONE',  ( -9.291712698401196300E-016, 1.000000000000000000, -0.0000000000000000000 ) ) ;
#213 = DIRECTION ( 'NONE',  ( -1.000000000000000000, 0.0000000000000000000, 0.0000000000000000000 ) ) ;
#214 = CARTESIAN_POINT ( 'NONE',  ( 4.952635523913784300E-013, 29.00000000000102300, 0.0000000000000000000 ) ) ;
#215 = DIRECTION ( 'NONE',  ( -9.291712698401196300E-016, 1.000000000000000000, -0.0000000000000000000 ) ) ;
#216 = DIRECTION ( 'NONE',  ( -1.000000000000000000, -9.291712698401196300E-016, 0.0000000000000000000 ) ) ;
#217 = CARTESIAN_POINT ( 'NONE',  ( 4.618527782440651200E-013, 65.00000000000105200, 0.0000000000000000000 ) ) ;
#218 = DIRECTION ( 'NONE',  ( -9.291712698401196300E-016, 1.000000000000000000, -0.0000000000000000000 ) ) ;
#219 = DIRECTION ( 'NONE',  ( -1.000000000000000000, 0.0000000000000000000, 0.0000000000000000000 ) ) ;
#220 = CARTESIAN_POINT ( 'NONE',  ( 4.952635523913784300E-013, 29.00000000000102300, 0.0000000000000000000 ) ) ;
#221 = DIRECTION ( 'NONE',  ( -9.291712698401196300E-016, 1.000000000000000000, -0.0000000000000000000 ) ) ;
#222 = DIRECTION ( 'NONE',  ( -1.000000000000000000, -9.291712698401196300E-016, 0.0000000000000000000 ) ) ;
#223 = CARTESIAN_POINT ( 'NONE',  ( 4.953029439583094700E-013, 29.00000000000100500, 0.0000000000000000000 ) ) ;
#224 = DIRECTION ( 'NONE',  ( -9.291712698401196300E-016, 1.000000000000000000, -0.0000000000000000000 ) ) ;
#225 = DIRECTION ( 'NONE',  ( -1.000000000000000000, -7.744301232043471000E-016, 0.0000000000000000000 ) ) ;
#226 = CARTESIAN_POINT ( 'NONE',  ( 4.953772776598967000E-013, 28.92000000000102100, 0.0000000000000000000 ) ) ;
#227 = DIRECTION ( 'NONE',  ( 9.291712698401196300E-016, -1.000000000000000000, 0.0000000000000000000 ) ) ;
#228 = DIRECTION ( 'NONE',  ( 1.000000000000000000, 6.608470384673520500E-016, 0.0000000000000000000 ) ) ;
#229 = CARTESIAN_POINT ( 'NONE',  ( 4.618527782440651200E-013, 65.00000000000105200, 0.0000000000000000000 ) ) ;
#230 = DIRECTION ( 'NONE',  ( -9.291712698401196300E-016, 1.000000000000000000, -0.0000000000000000000 ) ) ;
#231 = DIRECTION ( 'NONE',  ( -1.000000000000000000, 0.0000000000000000000, 0.0000000000000000000 ) ) ;
#232 = CARTESIAN_POINT ( 'NONE',  ( 5.148817269047234200E-013, 7.928768482282161600, 0.0000000000000000000 ) ) ;
#233 = DIRECTION ( 'NONE',  ( -9.291712698401196300E-016, 1.000000000000000000, -0.0000000000000000000 ) ) ;
#234 = DIRECTION ( 'NONE',  ( -1.000000000000000000, -8.673617379890529800E-016, 0.0000000000000000000 ) ) ;
#235 = CARTESIAN_POINT ( 'NONE',  ( 4.618527782440651200E-013, 65.00000000000105200, 0.0000000000000000000 ) ) ;
#236 = DIRECTION ( 'NONE',  ( -9.291712698401196300E-016, 1.000000000000000000, -0.0000000000000000000 ) ) ;
#237 = DIRECTION ( 'NONE',  ( -1.000000000000000000, 0.0000000000000000000, 0.0000000000000000000 ) ) ;
#238 = CARTESIAN_POINT ( 'NONE',  ( 5.218197449574615000E-013, 0.4618802153517481700, 0.0000000000000000000 ) ) ;
#239 = DIRECTION ( 'NONE',  ( -9.291712698401196300E-016, 1.000000000000000000, -0.0000000000000000000 ) ) ;
#240 = DIRECTION ( 'NONE',  ( -1.000000000000000000, -9.486769009253541900E-016, 0.0000000000000000000 ) ) ;
#241 = CARTESIAN_POINT ( 'NONE',  ( -4.069223590564460000E-013, 1000.000000000000200, 0.0000000000000000000 ) ) ;
#242 = DIRECTION ( 'NONE',  ( -9.291712698401196300E-016, 1.000000000000000000, -0.0000000000000000000 ) ) ;
#243 = DIRECTION ( 'NONE',  ( -1.000000000000000000, -8.332838307662258300E-016, 0.0000000000000000000 ) ) ;
#244 = CARTESIAN_POINT ( 'NONE',  ( 4.620386124980331500E-013, 64.80000000000106300, 0.0000000000000000000 ) ) ;
#245 = DIRECTION ( 'NONE',  ( 9.291712698401196300E-016, -1.000000000000000000, 0.0000000000000000000 ) ) ;
#246 = DIRECTION ( 'NONE',  ( 1.000000000000000000, 0.0000000000000000000, 0.0000000000000000000 ) ) ;
#247 = CARTESIAN_POINT ( 'NONE',  ( 4.620386124980331500E-013, 64.80000000000106300, 0.0000000000000000000 ) ) ;
#248 = DIRECTION ( 'NONE',  ( 9.291712698401196300E-016, -1.000000000000000000, 0.0000000000000000000 ) ) ;
#249 = DIRECTION ( 'NONE',  ( 1.000000000000000000, 0.0000000000000000000, 0.0000000000000000000 ) ) ;
#250 = PLANE ( 'NONE',  #55 ) ;
#251 = CARTESIAN_POINT ( 'NONE',  ( 4.618527782440651200E-013, 65.00000000000105200, 0.0000000000000000000 ) ) ;
#252 = DIRECTION ( 'NONE',  ( 9.291712698401196300E-016, -1.000000000000000000, 0.0000000000000000000 ) ) ;
#253 = DIRECTION ( 'NONE',  ( 1.000000000000000000, 9.291712698401196300E-016, 0.0000000000000000000 ) ) ;
#254 = CARTESIAN_POINT ( 'NONE',  ( -4.069223590564460000E-013, 1000.000000000000200, 0.0000000000000000000 ) ) ;
#255 = DIRECTION ( 'NONE',  ( -9.291712698401196300E-016, 1.000000000000000000, -0.0000000000000000000 ) ) ;
#256 = DIRECTION ( 'NONE',  ( -1.000000000000000000, -8.332838307662258300E-016, 0.0000000000000000000 ) ) ;
#257 = CARTESIAN_POINT ( 'NONE',  ( 5.218197449574615000E-013, 0.4618802153517481700, 0.0000000000000000000 ) ) ;
#258 = DIRECTION ( 'NONE',  ( -9.291712698401196300E-016, 1.000000000000000000, -0.0000000000000000000 ) ) ;
#259 = DIRECTION ( 'NONE',  ( -1.000000000000000000, -9.486769009253541900E-016, 0.0000000000000000000 ) ) ;
#260 = CARTESIAN_POINT ( 'NONE',  ( 4.618527782440651200E-013, 65.00000000000105200, 0.0000000000000000000 ) ) ;
#261 = DIRECTION ( 'NONE',  ( -9.291712698401196300E-016, 1.000000000000000000, -0.0000000000000000000 ) ) ;
#262 = DIRECTION ( 'NONE',  ( -1.000000000000000000, 0.0000000000000000000, 0.0000000000000000000 ) ) ;
#263 = CARTESIAN_POINT ( 'NONE',  ( 5.148817269047234200E-013, 7.928768482282161600, 0.0000000000000000000 ) ) ;
#264 = DIRECTION ( 'NONE',  ( -9.291712698401196300E-016, 1.000000000000000000, -0.0000000000000000000 ) ) ;
#265 = DIRECTION ( 'NONE',  ( -1.000000000000000000, -8.673617379890529800E-016, 0.0000000000000000000 ) ) ;
#266 = CARTESIAN_POINT ( 'NONE',  ( 4.618527782440651200E-013, 65.00000000000105200, 0.0000000000000000000 ) ) ;
#267 = DIRECTION ( 'NONE',  ( -9.291712698401196300E-016, 1.000000000000000000, -0.0000000000000000000 ) ) ;
#268 = DIRECTION ( 'NONE',  ( -1.000000000000000000, 0.0000000000000000000, 0.0000000000000000000 ) ) ;
#269 = CARTESIAN_POINT ( 'NONE',  ( 4.953772776598967000E-013, 28.92000000000102100, 0.0000000000000000000 ) ) ;
#270 = DIRECTION ( 'NONE',  ( 9.291712698401196300E-016, -1.000000000000000000, 0.0000000000000000000 ) ) ;
#271 = DIRECTION ( 'NONE',  ( 1.000000000000000000, 6.608470384673520500E-016, 0.0000000000000000000 ) ) ;
#272 = PLANE ( 'NONE',  #88 ) ;
#273 = CARTESIAN_POINT ( 'NONE',  ( 4.479999999998092600, 29.00000000000104400, 0.0000000000000000000 ) ) ;
#274 = DIRECTION ( 'NONE',  ( 9.291712698401196300E-016, -1.000000000000000000, 0.0000000000000000000 ) ) ;
#275 = DIRECTION ( 'NONE',  ( 1.000000000000000000, 9.291712698401196300E-016, 0.0000000000000000000 ) ) ;
#276 = CARTESIAN_POINT ( 'NONE',  ( 4.953029439583094700E-013, 29.00000000000100500, 0.0000000000000000000 ) ) ;
#277 = DIRECTION ( 'NONE',  ( -9.291712698401196300E-016, 1.000000000000000000, -0.0000000000000000000 ) ) ;
#278 = DIRECTION ( 'NONE',  ( -1.000000000000000000, -7.744301232043471000E-016, 0.0000000000000000000 ) ) ;
#279 = LINE ( 'NONE', #280, #86 ) ;
#280 = CARTESIAN_POINT ( 'NONE',  ( -3.999999999996553000, 65.00000000000105200, 0.0000000000000000000 ) ) ;
#281 = DIRECTION ( 'NONE',  ( -9.291712698401196300E-016, 1.000000000000000000, -0.0000000000000000000 ) ) ;
#282 = CARTESIAN_POINT ( 'NONE',  ( 5.218197449574615000E-013, 0.4618802153517481700, 0.0000000000000000000 ) ) ;
#283 = LINE ( 'NONE', #284, #84 ) ;
#284 = CARTESIAN_POINT ( 'NONE',  ( 0.8000000000000682100, 0.4618802153517489500, 9.797174393173270800E-017 ) ) ;
#285 = DIRECTION ( 'NONE',  ( 0.4999999999999608600, 0.8660254037844612500, 6.123233995736296400E-017 ) ) ;
#286 = DIRECTION ( 'NONE',  ( -9.291712698401196300E-016, 1.000000000000000000, -0.0000000000000000000 ) ) ;
#287 = DIRECTION ( 'NONE',  ( -1.000000000000000000, -9.486769009253541900E-016, 0.0000000000000000000 ) ) ;
#288 = CARTESIAN_POINT ( 'NONE',  ( 4.618527782440651200E-013, 65.00000000000106600, 0.0000000000000000000 ) ) ;
#289 = LINE ( 'NONE', #290, #83 ) ;
#290 = CARTESIAN_POINT ( 'NONE',  ( -0.7999999999990246000, 0.4618802153517473900, 0.0000000000000000000 ) ) ;
#291 = DIRECTION ( 'NONE',  ( -0.4999999999999624700, 0.8660254037844603600, 0.0000000000000000000 ) ) ;
#292 = LINE ( 'NONE', #293, #82 ) ;
#293 = CARTESIAN_POINT ( 'NONE',  ( 5.291322935363496100E-013, 3.053113317719180500E-013, 8.429712655370702200E-031 ) ) ;
#294 = DIRECTION ( 'NONE',  ( 0.8660254037844342700, 0.5000000000000074400, 1.060575238724902100E-016 ) ) ;
#295 = LINE ( 'NONE', #296, #80 ) ;
#296 = CARTESIAN_POINT ( 'NONE',  ( 5.153655280309975700E-013, 3.053113317719180500E-013, 0.0000000000000000000 ) ) ;
#297 = DIRECTION ( 'NONE',  ( -0.8660254037844351500, 0.5000000000000058800, 0.0000000000000000000 ) ) ;
#298 = LINE ( 'NONE', #299, #78 ) ;
#299 = CARTESIAN_POINT ( 'NONE',  ( -3.999999999997143200, 64.80000000000106300, 4.898587196586480200E-016 ) ) ;
#300 = DIRECTION ( 'NONE',  ( -0.7071067811865414700, -0.7071067811865536800, 8.659560562354868800E-017 ) ) ;
#301 = DIRECTION ( 'NONE',  ( -9.291712698401196300E-016, 1.000000000000000000, -0.0000000000000000000 ) ) ;
#302 = DIRECTION ( 'NONE',  ( -1.000000000000000000, 0.0000000000000000000, 0.0000000000000000000 ) ) ;
#303 = CARTESIAN_POINT ( 'NONE',  ( 4.618527782440651200E-013, 65.00000000000106600, 0.0000000000000000000 ) ) ;
#304 = LINE ( 'NONE', #305, #75 ) ;
#305 = CARTESIAN_POINT ( 'NONE',  ( 3.999999999998067800, 64.80000000000106300, 0.0000000000000000000 ) ) ;
#306 = DIRECTION ( 'NONE',  ( 0.7071067811865428000, -0.7071067811865522400, 0.0000000000000000000 ) ) ;
#307 = DIRECTION ( 'NONE',  ( -9.291712698401196300E-016, 1.000000000000000000, -0.0000000000000000000 ) ) ;
#308 = DIRECTION ( 'NONE',  ( -1.000000000000000000, 0.0000000000000000000, 0.0000000000000000000 ) ) ;
#309 = CARTESIAN_POINT ( 'NONE',  ( 4.620386124980331500E-013, 64.80000000000106300, 0.0000000000000000000 ) ) ;
#310 = DIRECTION ( 'NONE',  ( -9.291712698401196300E-016, 1.000000000000000000, -0.0000000000000000000 ) ) ;
#311 = DIRECTION ( 'NONE',  ( -1.000000000000000000, 0.0000000000000000000, 0.0000000000000000000 ) ) ;
#312 = CARTESIAN_POINT ( 'NONE',  ( 5.218197449574615000E-013, 0.4618802153517481700, 0.0000000000000000000 ) ) ;
#313 = DIRECTION ( 'NONE',  ( -9.291712698401196300E-016, 1.000000000000000000, -0.0000000000000000000 ) ) ;
#314 = DIRECTION ( 'NONE',  ( -1.000000000000000000, -9.486769009253541900E-016, 0.0000000000000000000 ) ) ;
#315 = CARTESIAN_POINT ( 'NONE',  ( 5.166697550429166200E-013, 6.004442799568354700, 0.0000000000000000000 ) ) ;
#316 = DIRECTION ( 'NONE',  ( -9.291712698401196300E-016, 1.000000000000000000, -0.0000000000000000000 ) ) ;
#317 = DIRECTION ( 'NONE',  ( -1.000000000000000000, -8.673617379890484400E-016, 0.0000000000000000000 ) ) ;
#318 = CARTESIAN_POINT ( 'NONE',  ( 5.148817269047234200E-013, 7.928768482282161600, 0.0000000000000000000 ) ) ;
#319 = DIRECTION ( 'NONE',  ( -9.291712698401196300E-016, 1.000000000000000000, -0.0000000000000000000 ) ) ;
#320 = DIRECTION ( 'NONE',  ( -1.000000000000000000, -8.673617379890527800E-016, 0.0000000000000000000 ) ) ;
#321 = CARTESIAN_POINT ( 'NONE',  ( 5.116741788723090800E-013, 11.38082101180811600, 0.0000000000000000000 ) ) ;
#322 = DIRECTION ( 'NONE',  ( -9.291712698401196300E-016, 1.000000000000000000, -0.0000000000000000000 ) ) ;
#323 = DIRECTION ( 'NONE',  ( -1.000000000000000000, -9.912705577010310800E-016, 0.0000000000000000000 ) ) ;
#324 = CARTESIAN_POINT ( 'NONE',  ( 4.953772776598967000E-013, 28.92000000000102100, 0.0000000000000000000 ) ) ;
#325 = DIRECTION ( 'NONE',  ( -9.291712698401196300E-016, 1.000000000000000000, -0.0000000000000000000 ) ) ;
#326 = DIRECTION ( 'NONE',  ( -1.000000000000000000, -6.608470384673520500E-016, 0.0000000000000000000 ) ) ;
#327 = CARTESIAN_POINT ( 'NONE',  ( 4.953029439583093700E-013, 29.00000000000107300, 0.0000000000000000000 ) ) ;
#328 = DIRECTION ( 'NONE',  ( -9.291712698401196300E-016, 1.000000000000000000, -0.0000000000000000000 ) ) ;
#329 = DIRECTION ( 'NONE',  ( -1.000000000000000000, -6.710729114030177600E-016, 0.0000000000000000000 ) ) ;
#330 = CARTESIAN_POINT ( 'NONE',  ( 4.953029439583094700E-013, 29.00000000000100500, 0.0000000000000000000 ) ) ;
#331 = DIRECTION ( 'NONE',  ( -9.291712698401196300E-016, 1.000000000000000000, -0.0000000000000000000 ) ) ;
#332 = DIRECTION ( 'NONE',  ( -1.000000000000000000, -7.744301232043471000E-016, 0.0000000000000000000 ) ) ;
#333 = CARTESIAN_POINT ( 'NONE',  ( 4.954316937061731700E-013, 28.86143593539549500, 0.0000000000000000000 ) ) ;
#334 = DIRECTION ( 'NONE',  ( -9.291712698401196300E-016, 1.000000000000000000, -0.0000000000000000000 ) ) ;
#335 = DIRECTION ( 'NONE',  ( -1.000000000000000000, -8.182657905555709200E-016, 0.0000000000000000000 ) ) ;
#336 = CARTESIAN_POINT ( 'NONE',  ( 5.166697550429166200E-013, 6.004442799568354700, 0.0000000000000000000 ) ) ;
#337 = LINE ( 'NONE', #338, #67 ) ;
#338 = CARTESIAN_POINT ( 'NONE',  ( 3.999999999997476200, 65.00000000000105200, 4.898587196585757400E-016 ) ) ;
#339 = DIRECTION ( 'NONE',  ( -9.291712698401196300E-016, 1.000000000000000000, -0.0000000000000000000 ) ) ;
#340 = DIRECTION ( 'NONE',  ( -9.291712698401196300E-016, 1.000000000000000000, -0.0000000000000000000 ) ) ;
#341 = DIRECTION ( 'NONE',  ( -1.000000000000000000, -8.673617379890484400E-016, 0.0000000000000000000 ) ) ;
#342 = CARTESIAN_POINT ( 'NONE',  ( 4.479999999998093500, 29.00000000000100900, 5.486417660177201600E-016 ) ) ;
#343 = CARTESIAN_POINT ( 'NONE',  ( 5.250000000000519600, 11.38082101180812200, 6.429395695523613000E-016 ) ) ;
#344 = CARTESIAN_POINT ( 'NONE',  ( 5.250000000000518700, 28.92000000000102500, 6.429395695523628800E-016 ) ) ;
#345 = CARTESIAN_POINT ( 'NONE',  ( -5.169999999999523000, 29.00000000000106900, 6.380409823557736800E-016 ) ) ;
#346 = CARTESIAN_POINT ( 'NONE',  ( -4.479999999997100500, 29.00000000000100200, 0.0000000000000000000 ) ) ;
#347 = CARTESIAN_POINT ( 'NONE',  ( 3.999999999998064200, 64.80000000000106300, 0.0000000000000000000 ) ) ;
#348 = CARTESIAN_POINT ( 'NONE',  ( 3.999999999998074400, 29.00000000000100900, 5.045544812484112000E-016 ) ) ;
#349 = CARTESIAN_POINT ( 'NONE',  ( -4.239999999997052300, 28.86143593539549100, 0.0000000000000000000 ) ) ;
#350 = CARTESIAN_POINT ( 'NONE',  ( 4.239999999998042700, 28.86143593539549800, 5.339460044279487000E-016 ) ) ;
#351 = CARTESIAN_POINT ( 'NONE',  ( -3.999999999997146300, 64.80000000000106300, 4.898587196586485200E-016 ) ) ;
#352 = CARTESIAN_POINT ( 'NONE',  ( -3.999999999997084100, 29.00000000000100200, 0.0000000000000000000 ) ) ;
#353 = CARTESIAN_POINT ( 'NONE',  ( -5.249999999999528400, 28.92000000000101800, 0.0000000000000000000 ) ) ;
#354 = CARTESIAN_POINT ( 'NONE',  ( 5.170000000000513300, 29.00000000000107600, 0.0000000000000000000 ) ) ;
#355 = CARTESIAN_POINT ( 'NONE',  ( -3.999999999996490800, 7.928768482282158000, 0.0000000000000000000 ) ) ;
#356 = CARTESIAN_POINT ( 'NONE',  ( 3.799999999998064500, 65.00000000000106600, 0.0000000000000000000 ) ) ;
#357 = CARTESIAN_POINT ( 'NONE',  ( -3.799999999997140800, 65.00000000000106600, 4.776122516671740800E-016 ) ) ;
#358 = CARTESIAN_POINT ( 'NONE',  ( 5.222489107836736400E-013, 2.984279490192420800E-013, 0.0000000000000000000 ) ) ;
#359 = CARTESIAN_POINT ( 'NONE',  ( 0.8000000000000679900, 0.4618802153517488900, 9.797174393173268400E-017 ) ) ;
#360 = CARTESIAN_POINT ( 'NONE',  ( -0.7999999999990243800, 0.4618802153517473900, 0.0000000000000000000 ) ) ;
#361 = CARTESIAN_POINT ( 'NONE',  ( 3.999999999997542000, 6.004442799568358200, 4.898587196585769300E-016 ) ) ;
#362 = CARTESIAN_POINT ( 'NONE',  ( -3.999999999996508100, 6.004442799568351100, 0.0000000000000000000 ) ) ;
#363 = CARTESIAN_POINT ( 'NONE',  ( -5.249999999999494600, 11.38082101180811100, 0.0000000000000000000 ) ) ;
#364 = CARTESIAN_POINT ( 'NONE',  ( 3.999999999997521100, 7.928768482282165100, 4.898587196585751500E-016 ) ) ;
#365 =( LENGTH_UNIT ( ) NAMED_UNIT ( * ) SI_UNIT ( .MILLI., .METRE. ) );
#366 =( NAMED_UNIT ( * ) PLANE_ANGLE_UNIT ( ) SI_UNIT ( $, .RADIAN. ) );
#367 =( NAMED_UNIT ( * ) SI_UNIT ( $, .STERADIAN. ) SOLID_ANGLE_UNIT ( ) );
#368 = APPLICATION_PROTOCOL_DEFINITION ( 'draft international standard', 'automotive_design', 1998, #99 ) ;
#369 = FILL_AREA_STYLE_COLOUR ( '', #208 ) ;
#370 = FILL_AREA_STYLE ('',( #369 ) ) ;
#371 = SURFACE_STYLE_FILL_AREA ( #370 ) ;
#372 = SURFACE_SIDE_STYLE ('',( #371 ) ) ;
#373 = SURFACE_STYLE_USAGE ( .BOTH. , #372 ) ;
#374 = PRESENTATION_STYLE_ASSIGNMENT (( #373 ) ) ;
#375 =( LENGTH_UNIT ( ) NAMED_UNIT ( * ) SI_UNIT ( .MILLI., .METRE. ) );
#376 =( NAMED_UNIT ( * ) PLANE_ANGLE_UNIT ( ) SI_UNIT ( $, .RADIAN. ) );
#377 =( NAMED_UNIT ( * ) SI_UNIT ( $, .STERADIAN. ) SOLID_ANGLE_UNIT ( ) );
#378 = CARTESIAN_POINT ( 'NONE',  ( 0.0000000000000000000, 0.0000000000000000000, 0.0000000000000000000 ) ) ;
#379 = DIRECTION ( 'NONE',  ( 0.0000000000000000000, 0.0000000000000000000, 1.000000000000000000 ) ) ;
#380 = DIRECTION ( 'NONE',  ( 1.000000000000000000, 0.0000000000000000000, 0.0000000000000000000 ) ) ;
#381 = SHAPE_DEFINITION_REPRESENTATION ( #439, #102 ) ;
#382 = PRODUCT_CONTEXT ( 'NONE', #99, 'mechanical' ) ;
#383 = APPLICATION_PROTOCOL_DEFINITION ( 'draft international standard', 'automotive_design', 1998, #100 ) ;
#384 = STYLED_ITEM ( 'NONE', ( #595 ), #1 ) ;
#385 = PRESENTATION_LAYER_ASSIGNMENT (  '', '', ( #384 ) ) ;
#386 = CLOSED_SHELL ( 'NONE', ( #128, #129, #130, #131, #132, #133, #134, #135, #136, #137, #138, #139, #140, #141, #142, #143, #144, #145, #146, #147, #127, #126 ) ) ;
#387 = MECHANICAL_DESIGN_GEOMETRIC_PRESENTATION_REPRESENTATION (  '', ( #384 ), #407 ) ;
#388 = AXIS2_PLACEMENT_3D ( 'NONE', #591, #590, #589 ) ;
#389 = AXIS2_PLACEMENT_3D ( 'NONE', #435, #416, #437 ) ;
#390 = AXIS2_PLACEMENT_3D ( 'NONE', #588, #584, #583 ) ;
#391 = VECTOR ( 'NONE', #585, 1000.000000000000000 ) ;
#392 = AXIS2_PLACEMENT_3D ( 'NONE', #582, #575, #594 ) ;
#393 = VECTOR ( 'NONE', #579, 1000.000000000000000 ) ;
#394 = VECTOR ( 'NONE', #576, 1000.000000000000000 ) ;
#395 = AXIS2_PLACEMENT_3D ( 'NONE', #411, #415, #413 ) ;
#396 = AXIS2_PLACEMENT_3D ( 'NONE', #414, #412, #418 ) ;
#397 = AXIS2_PLACEMENT_3D ( 'NONE', #422, #431, #432 ) ;
#398 = VECTOR ( 'NONE', #419, 1000.000000000000000 ) ;
#399 = VECTOR ( 'NONE', #423, 1000.000000000000000 ) ;
#400 = CYLINDRICAL_SURFACE ( 'NONE', #54, 3.999999999997592100 ) ;
#401 = VECTOR ( 'NONE', #426, 999.9999999999998900 ) ;
#402 = AXIS2_PLACEMENT_3D ( 'NONE', #427, #430, #433 ) ;
#403 = AXIS2_PLACEMENT_3D ( 'NONE', #429, #428, #434 ) ;
#404 = AXIS2_PLACEMENT_3D ( 'NONE', #5, #9, #11 ) ;
#405 = FACE_OUTER_BOUND ( 'NONE', #459, .T. ) ;
#406 = VECTOR ( 'NONE', #10, 1000.000000000000000 ) ;
#407 =( GEOMETRIC_REPRESENTATION_CONTEXT ( 3 ) GLOBAL_UNCERTAINTY_ASSIGNED_CONTEXT ( ( #98 ) ) GLOBAL_UNIT_ASSIGNED_CONTEXT ( ( #596, #593, #592 ) ) REPRESENTATION_CONTEXT ( 'NONE', 'WORKASPACE' ) );
#408 =( GEOMETRIC_REPRESENTATION_CONTEXT ( 3 ) GLOBAL_UNCERTAINTY_ASSIGNED_CONTEXT ( ( #103 ) ) GLOBAL_UNIT_ASSIGNED_CONTEXT ( ( #375, #376, #377 ) ) REPRESENTATION_CONTEXT ( 'NONE', 'WORKASPACE' ) );
#409 =( GEOMETRIC_REPRESENTATION_CONTEXT ( 3 ) GLOBAL_UNCERTAINTY_ASSIGNED_CONTEXT ( ( #101 ) ) GLOBAL_UNIT_ASSIGNED_CONTEXT ( ( #365, #366, #367 ) ) REPRESENTATION_CONTEXT ( 'NONE', 'WORKASPACE' ) );
#410 = CARTESIAN_POINT ( 'NONE',  ( 4.618527782440651200E-013, 65.00000000000105200, 0.0000000000000000000 ) ) ;
#411 = CARTESIAN_POINT ( 'NONE',  ( 4.620386124980331500E-013, 64.80000000000106300, 0.0000000000000000000 ) ) ;
#412 = DIRECTION ( 'NONE',  ( -9.291712698401196300E-016, 1.000000000000000000, -0.0000000000000000000 ) ) ;
#413 = DIRECTION ( 'NONE',  ( -1.000000000000000000, 0.0000000000000000000, 0.0000000000000000000 ) ) ;
#414 = CARTESIAN_POINT ( 'NONE',  ( 4.953029439583094700E-013, 29.00000000000100500, 0.0000000000000000000 ) ) ;
#415 = DIRECTION ( 'NONE',  ( -9.291712698401196300E-016, 1.000000000000000000, -0.0000000000000000000 ) ) ;
#416 = DIRECTION ( 'NONE',  ( -9.291712698401196300E-016, 1.000000000000000000, -0.0000000000000000000 ) ) ;
#417 = LINE ( 'NONE', #436, #399 ) ;
#418 = DIRECTION ( 'NONE',  ( -1.000000000000000000, -7.744301232043471000E-016, 0.0000000000000000000 ) ) ;
#419 = DIRECTION ( 'NONE',  ( -0.8660254037844850000, 0.4999999999999197300, 0.0000000000000000000 ) ) ;
#420 = LINE ( 'NONE', #421, #398 ) ;
#421 = CARTESIAN_POINT ( 'NONE',  ( -4.479999999997101400, 29.00000000000100200, 0.0000000000000000000 ) ) ;
#422 = CARTESIAN_POINT ( 'NONE',  ( -4.159999999997084300, 29.00000000000102300, 0.0000000000000000000 ) ) ;
#423 = DIRECTION ( 'NONE',  ( 0.8660254037844841200, 0.4999999999999212900, 1.060575238724963100E-016 ) ) ;
#424 = LINE ( 'NONE', #425, #401 ) ;
#425 = CARTESIAN_POINT ( 'NONE',  ( -5.249999999999528400, 28.92000000000101800, 6.429395695523633700E-016 ) ) ;
#426 = DIRECTION ( 'NONE',  ( -0.7071067811863399600, -0.7071067811867551800, 8.659560562352398600E-017 ) ) ;
#427 = CARTESIAN_POINT ( 'NONE',  ( 4.954316937061731700E-013, 28.86143593539549500, 0.0000000000000000000 ) ) ;
#428 = DIRECTION ( 'NONE',  ( -1.224646799147353200E-016, -1.137906621469384100E-031, 1.000000000000000000 ) ) ;
#429 = CARTESIAN_POINT ( 'NONE',  ( 4.159999999998074600, 29.00000000000102700, 5.094530684450024800E-016 ) ) ;
#430 = DIRECTION ( 'NONE',  ( -9.291712698401196300E-016, 1.000000000000000000, -0.0000000000000000000 ) ) ;
#431 = DIRECTION ( 'NONE',  ( 0.0000000000000000000, -0.0000000000000000000, -1.000000000000000000 ) ) ;
#432 = DIRECTION ( 'NONE',  ( -1.000000000000000000, 0.0000000000000000000, 0.0000000000000000000 ) ) ;
#433 = DIRECTION ( 'NONE',  ( -1.000000000000000000, -8.182657905555709200E-016, 0.0000000000000000000 ) ) ;
#434 = DIRECTION ( 'NONE',  ( 1.000000000000000000, 0.0000000000000000000, 1.224646799147355400E-016 ) ) ;
#435 = CARTESIAN_POINT ( 'NONE',  ( 4.953029439583094700E-013, 29.00000000000100500, 0.0000000000000000000 ) ) ;
#436 = CARTESIAN_POINT ( 'NONE',  ( 4.479999999998092600, 29.00000000000100900, 5.486417660177199600E-016 ) ) ;
#437 = DIRECTION ( 'NONE',  ( -1.000000000000000000, -8.673617379889284400E-016, 0.0000000000000000000 ) ) ;
#438 = PRODUCT_DEFINITION_CONTEXT ( 'detailed design', #100, 'design' ) ;
#439 = PRODUCT_DEFINITION_SHAPE ( 'NONE', 'NONE',  #207 ) ;
#440 = SURFACE_SIDE_STYLE ('',( #442 ) ) ;
#441 = SURFACE_STYLE_USAGE ( .BOTH. , #440 ) ;
#442 = SURFACE_STYLE_FILL_AREA ( #443 ) ;
#443 = FILL_AREA_STYLE ('',( #444 ) ) ;
#444 = FILL_AREA_STYLE_COLOUR ( '', #169 ) ;
#445 = ORIENTED_EDGE ( 'NONE', *, *, #124, .F. ) ;
#446 = EDGE_LOOP ( 'NONE', ( #522, #520, #521, #519 ) ) ;
#447 = EDGE_LOOP ( 'NONE', ( #517, #516, #518, #515 ) ) ;
#448 = EDGE_LOOP ( 'NONE', ( #514, #513 ) ) ;
#449 = EDGE_LOOP ( 'NONE', ( #512, #511, #510 ) ) ;
#450 = EDGE_LOOP ( 'NONE', ( #508, #507, #506, #509 ) ) ;
#451 = EDGE_LOOP ( 'NONE', ( #504, #503, #502, #505 ) ) ;
#452 = EDGE_LOOP ( 'NONE', ( #500, #499, #498, #501 ) ) ;
#453 = EDGE_LOOP ( 'NONE', ( #496, #495, #494, #497 ) ) ;
#454 = EDGE_LOOP ( 'NONE', ( #492, #491, #493, #489 ) ) ;
#455 = EDGE_LOOP ( 'NONE', ( #488, #486 ) ) ;
#456 = EDGE_LOOP ( 'NONE', ( #490, #485 ) ) ;
#457 = EDGE_LOOP ( 'NONE', ( #484, #483, #487, #481 ) ) ;
#458 = EDGE_LOOP ( 'NONE', ( #480, #479, #478, #482 ) ) ;
#459 = EDGE_LOOP ( 'NONE', ( #476, #475, #474, #477 ) ) ;
#460 = ORIENTED_EDGE ( 'NONE', *, *, #125, .F. ) ;
#461 = VERTEX_POINT ( 'NONE', #343 ) ;
#462 = VERTEX_POINT ( 'NONE', #344 ) ;
#463 = VERTEX_POINT ( 'NONE', #345 ) ;
#464 = VERTEX_POINT ( 'NONE', #346 ) ;
#465 = VERTEX_POINT ( 'NONE', #342 ) ;
#466 = VERTEX_POINT ( 'NONE', #347 ) ;
#467 = VERTEX_POINT ( 'NONE', #348 ) ;
#468 = VERTEX_POINT ( 'NONE', #349 ) ;
#469 = VERTEX_POINT ( 'NONE', #350 ) ;
#470 = VERTEX_POINT ( 'NONE', #351 ) ;
#471 = VERTEX_POINT ( 'NONE', #352 ) ;
#472 = VERTEX_POINT ( 'NONE', #353 ) ;
#473 = VERTEX_POINT ( 'NONE', #354 ) ;
#474 = ORIENTED_EDGE ( 'NONE', *, *, #120, .T. ) ;
#475 = ORIENTED_EDGE ( 'NONE', *, *, #119, .T. ) ;
#476 = ORIENTED_EDGE ( 'NONE', *, *, #122, .F. ) ;
#477 = ORIENTED_EDGE ( 'NONE', *, *, #158, .F. ) ;
#478 = ORIENTED_EDGE ( 'NONE', *, *, #116, .T. ) ;
#479 = ORIENTED_EDGE ( 'NONE', *, *, #110, .F. ) ;
#480 = ORIENTED_EDGE ( 'NONE', *, *, #118, .F. ) ;
#481 = ORIENTED_EDGE ( 'NONE', *, *, #165, .T. ) ;
#482 = ORIENTED_EDGE ( 'NONE', *, *, #166, .T. ) ;
#483 = ORIENTED_EDGE ( 'NONE', *, *, #166, .F. ) ;
#484 = ORIENTED_EDGE ( 'NONE', *, *, #114, .F. ) ;
#485 = ORIENTED_EDGE ( 'NONE', *, *, #121, .T. ) ;
#486 = ORIENTED_EDGE ( 'NONE', *, *, #112, .F. ) ;
#487 = ORIENTED_EDGE ( 'NONE', *, *, #113, .T. ) ;
#488 = ORIENTED_EDGE ( 'NONE', *, *, #165, .F. ) ;
#489 = ORIENTED_EDGE ( 'NONE', *, *, #163, .T. ) ;
#490 = ORIENTED_EDGE ( 'NONE', *, *, #164, .T. ) ;
#491 = ORIENTED_EDGE ( 'NONE', *, *, #164, .F. ) ;
#492 = ORIENTED_EDGE ( 'NONE', *, *, #115, .F. ) ;
#493 = ORIENTED_EDGE ( 'NONE', *, *, #108, .T. ) ;
#494 = ORIENTED_EDGE ( 'NONE', *, *, #106, .T. ) ;
#495 = ORIENTED_EDGE ( 'NONE', *, *, #162, .T. ) ;
#496 = ORIENTED_EDGE ( 'NONE', *, *, #109, .F. ) ;
#497 = ORIENTED_EDGE ( 'NONE', *, *, #163, .F. ) ;
#498 = ORIENTED_EDGE ( 'NONE', *, *, #125, .T. ) ;
#499 = ORIENTED_EDGE ( 'NONE', *, *, #161, .T. ) ;
#500 = ORIENTED_EDGE ( 'NONE', *, *, #123, .F. ) ;
#501 = ORIENTED_EDGE ( 'NONE', *, *, #162, .F. ) ;
#502 = ORIENTED_EDGE ( 'NONE', *, *, #148, .T. ) ;
#503 = ORIENTED_EDGE ( 'NONE', *, *, #160, .T. ) ;
#504 = ORIENTED_EDGE ( 'NONE', *, *, #167, .F. ) ;
#505 = ORIENTED_EDGE ( 'NONE', *, *, #161, .F. ) ;
#506 = ORIENTED_EDGE ( 'NONE', *, *, #151, .T. ) ;
#507 = ORIENTED_EDGE ( 'NONE', *, *, #159, .T. ) ;
#508 = ORIENTED_EDGE ( 'NONE', *, *, #149, .F. ) ;
#509 = ORIENTED_EDGE ( 'NONE', *, *, #160, .F. ) ;
#510 = ORIENTED_EDGE ( 'NONE', *, *, #159, .F. ) ;
#511 = ORIENTED_EDGE ( 'NONE', *, *, #153, .T. ) ;
#512 = ORIENTED_EDGE ( 'NONE', *, *, #152, .F. ) ;
#513 = ORIENTED_EDGE ( 'NONE', *, *, #155, .T. ) ;
#514 = ORIENTED_EDGE ( 'NONE', *, *, #157, .T. ) ;
#515 = ORIENTED_EDGE ( 'NONE', *, *, #158, .T. ) ;
#516 = ORIENTED_EDGE ( 'NONE', *, *, #157, .F. ) ;
#517 = ORIENTED_EDGE ( 'NONE', *, *, #154, .F. ) ;
#518 = ORIENTED_EDGE ( 'NONE', *, *, #156, .T. ) ;
#519 = ORIENTED_EDGE ( 'NONE', *, *, #156, .F. ) ;
#520 = ORIENTED_EDGE ( 'NONE', *, *, #154, .T. ) ;
#521 = ORIENTED_EDGE ( 'NONE', *, *, #111, .T. ) ;
#522 = ORIENTED_EDGE ( 'NONE', *, *, #155, .F. ) ;
#523 = ORIENTED_EDGE ( 'NONE', *, *, #152, .T. ) ;
#524 = ORIENTED_EDGE ( 'NONE', *, *, #150, .F. ) ;
#525 = ORIENTED_EDGE ( 'NONE', *, *, #153, .F. ) ;
#526 = ORIENTED_EDGE ( 'NONE', *, *, #151, .F. ) ;
#527 = ORIENTED_EDGE ( 'NONE', *, *, #149, .T. ) ;
#528 = ORIENTED_EDGE ( 'NONE', *, *, #168, .F. ) ;
#529 = ORIENTED_EDGE ( 'NONE', *, *, #150, .T. ) ;
#530 = ORIENTED_EDGE ( 'NONE', *, *, #148, .F. ) ;
#531 = ORIENTED_EDGE ( 'NONE', *, *, #167, .T. ) ;
#532 = EDGE_LOOP ( 'NONE', ( #525, #523, #524 ) ) ;
#533 = EDGE_LOOP ( 'NONE', ( #529, #527, #528, #526 ) ) ;
#534 = EDGE_LOOP ( 'NONE', ( #569, #531, #445, #530 ) ) ;
#535 = EDGE_LOOP ( 'NONE', ( #553, #551, #552, #460 ) ) ;
#536 = EDGE_LOOP ( 'NONE', ( #573, #550, #574, #549 ) ) ;
#537 = EDGE_LOOP ( 'NONE', ( #565, #563, #556, #572 ) ) ;
#538 = EDGE_LOOP ( 'NONE', ( #562, #561, #560, #555 ) ) ;
#539 = EDGE_LOOP ( 'NONE', ( #564, #558, #557, #559 ) ) ;
#540 = EDGE_LOOP ( 'NONE', ( #570, #566, #567, #568 ) ) ;
#541 = VERTEX_POINT ( 'NONE', #355 ) ;
#542 = VERTEX_POINT ( 'NONE', #356 ) ;
#543 = VERTEX_POINT ( 'NONE', #357 ) ;
#544 = VERTEX_POINT ( 'NONE', #358 ) ;
#545 = VERTEX_POINT ( 'NONE', #359 ) ;
#546 = VERTEX_POINT ( 'NONE', #360 ) ;
#547 = VERTEX_POINT ( 'NONE', #361 ) ;
#548 = VERTEX_POINT ( 'NONE', #362 ) ;
#549 = ORIENTED_EDGE ( 'NONE', *, *, #106, .F. ) ;
#550 = ORIENTED_EDGE ( 'NONE', *, *, #109, .T. ) ;
#551 = ORIENTED_EDGE ( 'NONE', *, *, #123, .T. ) ;
#552 = ORIENTED_EDGE ( 'NONE', *, *, #105, .F. ) ;
#553 = ORIENTED_EDGE ( 'NONE', *, *, #124, .T. ) ;
#554 = VERTEX_POINT ( 'NONE', #363 ) ;
#555 = ORIENTED_EDGE ( 'NONE', *, *, #113, .F. ) ;
#556 = ORIENTED_EDGE ( 'NONE', *, *, #107, .T. ) ;
#557 = ORIENTED_EDGE ( 'NONE', *, *, #117, .T. ) ;
#558 = ORIENTED_EDGE ( 'NONE', *, *, #118, .T. ) ;
#559 = ORIENTED_EDGE ( 'NONE', *, *, #116, .F. ) ;
#560 = ORIENTED_EDGE ( 'NONE', *, *, #112, .T. ) ;
#561 = ORIENTED_EDGE ( 'NONE', *, *, #114, .T. ) ;
#562 = ORIENTED_EDGE ( 'NONE', *, *, #117, .F. ) ;
#563 = ORIENTED_EDGE ( 'NONE', *, *, #115, .T. ) ;
#564 = ORIENTED_EDGE ( 'NONE', *, *, #119, .F. ) ;
#565 = ORIENTED_EDGE ( 'NONE', *, *, #121, .F. ) ;
#566 = ORIENTED_EDGE ( 'NONE', *, *, #122, .T. ) ;
#567 = ORIENTED_EDGE ( 'NONE', *, *, #111, .F. ) ;
#568 = ORIENTED_EDGE ( 'NONE', *, *, #120, .F. ) ;
#569 = ORIENTED_EDGE ( 'NONE', *, *, #168, .T. ) ;
#570 = ORIENTED_EDGE ( 'NONE', *, *, #110, .T. ) ;
#571 = VERTEX_POINT ( 'NONE', #364 ) ;
#572 = ORIENTED_EDGE ( 'NONE', *, *, #108, .F. ) ;
#573 = ORIENTED_EDGE ( 'NONE', *, *, #105, .T. ) ;
#574 = ORIENTED_EDGE ( 'NONE', *, *, #107, .F. ) ;
#575 = DIRECTION ( 'NONE',  ( -9.291712698401196300E-016, 1.000000000000000000, -0.0000000000000000000 ) ) ;
#576 = DIRECTION ( 'NONE',  ( -9.291712698401196300E-016, 1.000000000000000000, -0.0000000000000000000 ) ) ;
#577 = CARTESIAN_POINT ( 'NONE',  ( 5.250000000000476100, 65.00000000000105200, 6.429395695523622900E-016 ) ) ;
#578 = LINE ( 'NONE', #577, #394 ) ;
#579 = DIRECTION ( 'NONE',  ( 0.7071067811863411800, -0.7071067811867538500, 0.0000000000000000000 ) ) ;
#580 = CARTESIAN_POINT ( 'NONE',  ( 5.250000000000518700, 28.92000000000102500, 0.0000000000000000000 ) ) ;
#581 = LINE ( 'NONE', #580, #393 ) ;
#582 = CARTESIAN_POINT ( 'NONE',  ( 4.953029439583094700E-013, 29.00000000000100500, 0.0000000000000000000 ) ) ;
#583 = DIRECTION ( 'NONE',  ( -1.000000000000000000, -6.608470384673520500E-016, 0.0000000000000000000 ) ) ;
#584 = DIRECTION ( 'NONE',  ( -9.291712698401196300E-016, 1.000000000000000000, -0.0000000000000000000 ) ) ;
#585 = DIRECTION ( 'NONE',  ( -9.291712698401196300E-016, 1.000000000000000000, -0.0000000000000000000 ) ) ;
#586 = CARTESIAN_POINT ( 'NONE',  ( -5.249999999999553200, 65.00000000000105200, 0.0000000000000000000 ) ) ;
#587 = LINE ( 'NONE', #586, #391 ) ;
#588 = CARTESIAN_POINT ( 'NONE',  ( 4.953772776598967000E-013, 28.92000000000102100, 0.0000000000000000000 ) ) ;
#589 = DIRECTION ( 'NONE',  ( -1.000000000000000000, -9.912705577010310800E-016, 0.0000000000000000000 ) ) ;
#590 = DIRECTION ( 'NONE',  ( -9.291712698401196300E-016, 1.000000000000000000, -0.0000000000000000000 ) ) ;
#591 = CARTESIAN_POINT ( 'NONE',  ( 5.116741788723090800E-013, 11.38082101180811600, 0.0000000000000000000 ) ) ;
#592 =( NAMED_UNIT ( * ) SI_UNIT ( $, .STERADIAN. ) SOLID_ANGLE_UNIT ( ) );
#593 =( NAMED_UNIT ( * ) PLANE_ANGLE_UNIT ( ) SI_UNIT ( $, .RADIAN. ) );
#594 = DIRECTION ( 'NONE',  ( -1.000000000000000000, -8.673617379889284400E-016, 0.0000000000000000000 ) ) ;
#595 = PRESENTATION_STYLE_ASSIGNMENT (( #441 ) ) ;
#596 =( LENGTH_UNIT ( ) NAMED_UNIT ( * ) SI_UNIT ( .MILLI., .METRE. ) );
ENDSEC;
END-ISO-10303-21;
