ISO-10303-21;
HEADER;
FILE_DESCRIPTION (( 'STEP AP214' ),
    '1' );
FILE_NAME ('99688-SI06-M04+S9MT06T1-142.STEP',
    '2023-09-26T05:18:30',
    ( '' ),
    ( '' ),
    'SwSTEP 2.0',
    'SolidWorks 2020',
    '' );
FILE_SCHEMA (( 'AUTOMOTIVE_DESIGN' ));
ENDSEC;

DATA;
#1 =( NAMED_UNIT ( * ) PLANE_ANGLE_UNIT ( ) SI_UNIT ( $, .RADIAN. ) );
#2 = DIRECTION ( 'NONE',  ( 0.000000000000000000, 0.000000000000000000, 1.000000000000000000 ) ) ;
#3 = EDGE_CURVE ( 'NONE', #471, #109, #414, .T. ) ;
#4 = DIRECTION ( 'NONE',  ( -0.000000000000000000, 1.000000000000000000, -0.000000000000000000 ) ) ;
#5 = AXIS2_PLACEMENT_3D ( 'NONE', #195, #52, #731 ) ;
#6 = ORIENTED_EDGE ( 'NONE', *, *, #464, .F. ) ;
#7 = VECTOR ( 'NONE', #292, 1000.000000000000000 ) ;
#8 = CARTESIAN_POINT ( 'NONE',  ( 2.704898587196589513E-13, 32.00000000000053291, -4.000000000000112799 ) ) ;
#9 = AXIS2_PLACEMENT_3D ( 'NONE', #261, #132, #656 ) ;
#10 = ORIENTED_EDGE ( 'NONE', *, *, #705, .T. ) ;
#11 = DIRECTION ( 'NONE',  ( 1.060575238724848490E-16, 0.5000000000000826006, -0.8660254037843909680 ) ) ;
#12 = CARTESIAN_POINT ( 'NONE',  ( 2.701831813833877050E-13, 22.68431457505127824, 0.000000000000000000 ) ) ;
#13 = APPLICATION_PROTOCOL_DEFINITION ( 'draft international standard', 'automotive_design', 1998, #103 ) ;
#14 = CARTESIAN_POINT ( 'NONE',  ( 2.700000000000000107E-13, 8.708218385331374378, 4.000000000000112799 ) ) ;
#15 = EDGE_LOOP ( 'NONE', ( #842, #749 ) ) ;
#16 = EDGE_CURVE ( 'NONE', #471, #362, #58, .T. ) ;
#17 = ORIENTED_EDGE ( 'NONE', *, *, #320, .F. ) ;
#18 = CARTESIAN_POINT ( 'NONE',  ( 2.702449293598294810E-13, 26.65000000000054925, -2.000000000000112799 ) ) ;
#19 = EDGE_CURVE ( 'NONE', #240, #535, #339, .T. ) ;
#20 = CARTESIAN_POINT ( 'NONE',  ( 2.700000000000000107E-13, 21.82679491924363546, 0.000000000000000000 ) ) ;
#21 = DIRECTION ( 'NONE',  ( -0.000000000000000000, 1.000000000000000000, -0.000000000000000000 ) ) ;
#22 = ORIENTED_EDGE ( 'NONE', *, *, #797, .T. ) ;
#23 = ORIENTED_EDGE ( 'NONE', *, *, #112, .F. ) ;
#24 = CARTESIAN_POINT ( 'NONE',  ( 2.702571758278209773E-13, 22.68431457505125692, -2.100000000000000089 ) ) ;
#25 = AXIS2_PLACEMENT_3D ( 'NONE', #142, #473, #159 ) ;
#26 = AXIS2_PLACEMENT_3D ( 'NONE', #563, #692, #686 ) ;
#27 = AXIS2_PLACEMENT_3D ( 'NONE', #798, #221, #728 ) ;
#28 = CIRCLE ( 'NONE', #511, 2.999999999997852829 ) ;
#29 = DIRECTION ( 'NONE',  ( -0.000000000000000000, 1.000000000000000000, -0.000000000000000000 ) ) ;
#30 = ORIENTED_EDGE ( 'NONE', *, *, #575, .T. ) ;
#31 = PRODUCT_RELATED_PRODUCT_CATEGORY ( 'part', '', ( #271 ) ) ;
#32 = CARTESIAN_POINT ( 'NONE',  ( 2.701831813833877050E-13, 22.68431457505127824, 0.000000000000000000 ) ) ;
#33 = ORIENTED_EDGE ( 'NONE', *, *, #687, .T. ) ;
#34 = VERTEX_POINT ( 'NONE', #743 ) ;
#35 = MANIFOLD_SOLID_BREP ( '±ÛÂà1', #379 ) ;
#36 = CARTESIAN_POINT ( 'NONE',  ( 2.700000000000000107E-13, 31.50000000000054001, 0.000000000000000000 ) ) ;
#37 = EDGE_CURVE ( 'NONE', #632, #629, #399, .T. ) ;
#38 = ORIENTED_EDGE ( 'NONE', *, *, #3, .F. ) ;
#39 = CONICAL_SURFACE ( 'NONE', #734, 2.217157287525381104, 0.7853981633970720244 ) ;
#40 = CIRCLE ( 'NONE', #520, 2.100000000000000089 ) ;
#41 = CARTESIAN_POINT ( 'NONE',  ( 2.700000000000000107E-13, 5.900000000002222578, 0.000000000000000000 ) ) ;
#42 =( GEOMETRIC_REPRESENTATION_CONTEXT ( 3 ) GLOBAL_UNCERTAINTY_ASSIGNED_CONTEXT ( ( #440 ) ) GLOBAL_UNIT_ASSIGNED_CONTEXT ( ( #524, #1, #822 ) ) REPRESENTATION_CONTEXT ( 'NONE', 'WORKASPACE' ) );
#43 = ORIENTED_EDGE ( 'NONE', *, *, #275, .T. ) ;
#44 = ADVANCED_FACE ( 'NONE', ( #673, #346 ), #384, .F. ) ;
#45 = DIRECTION ( 'NONE',  ( 1.000000000000000000, 0.000000000000000000, 0.000000000000000000 ) ) ;
#46 = EDGE_LOOP ( 'NONE', ( #284, #395, #234, #808 ) ) ;
#47 = DIRECTION ( 'NONE',  ( 0.000000000000000000, 0.000000000000000000, 1.000000000000000000 ) ) ;
#48 = AXIS2_PLACEMENT_3D ( 'NONE', #494, #764, #168 ) ;
#49 = VECTOR ( 'NONE', #372, 1000.000000000000000 ) ;
#50 = DIRECTION ( 'NONE',  ( -0.000000000000000000, 1.000000000000000000, -0.000000000000000000 ) ) ;
#51 = DIRECTION ( 'NONE',  ( -0.000000000000000000, 1.000000000000000000, -0.000000000000000000 ) ) ;
#52 = DIRECTION ( 'NONE',  ( -0.000000000000000000, 1.000000000000000000, -0.000000000000000000 ) ) ;
#53 = ORIENTED_EDGE ( 'NONE', *, *, #19, .T. ) ;
#54 = EDGE_CURVE ( 'NONE', #632, #91, #175, .T. ) ;
#55 = FACE_OUTER_BOUND ( 'NONE', #489, .T. ) ;
#56 = DIRECTION ( 'NONE',  ( 0.000000000000000000, 0.000000000000000000, 1.000000000000000000 ) ) ;
#57 = DIRECTION ( 'NONE',  ( 0.000000000000000000, 0.000000000000000000, 1.000000000000000000 ) ) ;
#58 = LINE ( 'NONE', #598, #523 ) ;
#59 = CARTESIAN_POINT ( 'NONE',  ( 2.700000000000000107E-13, 22.00000000000051159, 2.100000000000021405 ) ) ;
#60 = CYLINDRICAL_SURFACE ( 'NONE', #374, 1.650000000000203970 ) ;
#61 = DIRECTION ( 'NONE',  ( 0.000000000000000000, -1.000000000000000000, 0.000000000000000000 ) ) ;
#62 = TOROIDAL_SURFACE ( 'NONE', #345, 2.300000000000022027, 0.1999999999999997058 ) ;
#63 = AXIS2_PLACEMENT_3D ( 'NONE', #192, #672, #89 ) ;
#64 = AXIS2_PLACEMENT_3D ( 'NONE', #83, #359, #706 ) ;
#65 = ORIENTED_EDGE ( 'NONE', *, *, #464, .T. ) ;
#66 = CARTESIAN_POINT ( 'NONE',  ( 2.700000000000000107E-13, 22.96715728752589669, 0.000000000000000000 ) ) ;
#67 = CARTESIAN_POINT ( 'NONE',  ( 2.700000000000000107E-13, 26.00000000000054001, -1.650000000000203970 ) ) ;
#68 = DIRECTION ( 'NONE',  ( 4.108236962976052662E-17, 0.9420533805113691095, -0.3354630058100316892 ) ) ;
#69 = CARTESIAN_POINT ( 'NONE',  ( 2.700000000000000107E-13, 0.5000000428504458583, -7.589415207398531038E-16 ) ) ;
#70 = CYLINDRICAL_SURFACE ( 'NONE', #754, 2.999999999997846167 ) ;
#71 = ADVANCED_FACE ( 'NONE', ( #366 ), #230, .F. ) ;
#72 = ORIENTED_EDGE ( 'NONE', *, *, #446, .T. ) ;
#73 = DIRECTION ( 'NONE',  ( 8.659560562356246805E-17, -0.7071067811864402142, 0.7071067811866548203 ) ) ;
#74 = ORIENTED_EDGE ( 'NONE', *, *, #320, .T. ) ;
#75 = DIRECTION ( 'NONE',  ( 0.000000000000000000, 0.000000000000000000, 1.000000000000000000 ) ) ;
#76 = ORIENTED_EDGE ( 'NONE', *, *, #516, .F. ) ;
#77 = CARTESIAN_POINT ( 'NONE',  ( 2.700000000000000107E-13, 25.40000000000052438, 0.000000000000000000 ) ) ;
#78 = AXIS2_PLACEMENT_3D ( 'NONE', #341, #601, #2 ) ;
#79 = ORIENTED_EDGE ( 'NONE', *, *, #86, .T. ) ;
#80 = CYLINDRICAL_SURFACE ( 'NONE', #769, 2.000000000000112799 ) ;
#81 = PRESENTATION_LAYER_ASSIGNMENT (  '', '', ( #318 ) ) ;
#82 = DIRECTION ( 'NONE',  ( 0.000000000000000000, 0.9420533805113691095, 0.3354630058100316892 ) ) ;
#83 = CARTESIAN_POINT ( 'NONE',  ( 2.701831813833877050E-13, 22.00000000000048672, 2.300000000000022027 ) ) ;
#84 = ORIENTED_EDGE ( 'NONE', *, *, #218, .F. ) ;
#85 = DIRECTION ( 'NONE',  ( 0.000000000000000000, 0.000000000000000000, 1.000000000000000000 ) ) ;
#86 = EDGE_CURVE ( 'NONE', #389, #629, #756, .T. ) ;
#87 = EDGE_LOOP ( 'NONE', ( #669, #544 ) ) ;
#88 = DIRECTION ( 'NONE',  ( 1.000000000000000000, 0.000000000000000000, 1.224646799147353207E-16 ) ) ;
#89 = DIRECTION ( 'NONE',  ( 0.000000000000000000, 0.000000000000000000, 1.000000000000000000 ) ) ;
#90 = DIRECTION ( 'NONE',  ( -0.000000000000000000, 1.000000000000000000, -0.000000000000000000 ) ) ;
#91 = VERTEX_POINT ( 'NONE', #241 ) ;
#92 = DIRECTION ( 'NONE',  ( 0.000000000000000000, 0.000000000000000000, 1.000000000000000000 ) ) ;
#93 =( NAMED_UNIT ( * ) PLANE_ANGLE_UNIT ( ) SI_UNIT ( $, .RADIAN. ) );
#94 = DIRECTION ( 'NONE',  ( -0.000000000000000000, 1.000000000000000000, -0.000000000000000000 ) ) ;
#95 = VERTEX_POINT ( 'NONE', #355 ) ;
#96 = PRODUCT_DEFINITION_CONTEXT ( 'detailed design', #542, 'design' ) ;
#97 = EDGE_LOOP ( 'NONE', ( #506, #703, #829 ) ) ;
#98 = LINE ( 'NONE', #301, #558 ) ;
#99 = EDGE_CURVE ( 'NONE', #514, #336, #757, .T. ) ;
#100 = DIRECTION ( 'NONE',  ( -0.000000000000000000, 1.000000000000000000, -0.000000000000000000 ) ) ;
#101 = AXIS2_PLACEMENT_3D ( 'NONE', #522, #646, #57 ) ;
#102 = AXIS2_PLACEMENT_3D ( 'NONE', #840, #90, #620 ) ;
#103 = APPLICATION_CONTEXT ( 'automotive_design' ) ;
#104 = DIRECTION ( 'NONE',  ( 0.000000000000000000, 0.000000000000000000, -1.000000000000000000 ) ) ;
#105 = ORIENTED_EDGE ( 'NONE', *, *, #783, .T. ) ;
#106 = PRODUCT_CONTEXT ( 'NONE', #103, 'mechanical' ) ;
#107 = EDGE_CURVE ( 'NONE', #481, #263, #573, .T. ) ;
#108 = DIRECTION ( 'NONE',  ( 0.000000000000000000, 0.5000000000000826006, 0.8660254037843909680 ) ) ;
#109 = VERTEX_POINT ( 'NONE', #161 ) ;
#110 = EDGE_LOOP ( 'NONE', ( #530, #600, #353, #38 ) ) ;
#111 = DIRECTION ( 'NONE',  ( 0.000000000000000000, 0.000000000000000000, -1.000000000000000000 ) ) ;
#112 = EDGE_CURVE ( 'NONE', #209, #514, #442, .T. ) ;
#113 = ORIENTED_EDGE ( 'NONE', *, *, #218, .T. ) ;
#114 = VECTOR ( 'NONE', #323, 1000.000000000000000 ) ;
#115 = VECTOR ( 'NONE', #206, 1000.000000000000000 ) ;
#116 = CARTESIAN_POINT ( 'NONE',  ( 2.700000000000000107E-13, 22.00000000000054001, 2.700000000000045031 ) ) ;
#117 = EDGE_CURVE ( 'NONE', #535, #389, #232, .T. ) ;
#118 = CARTESIAN_POINT ( 'NONE',  ( 2.700000000000000107E-13, 26.65000000000054925, 0.000000000000000000 ) ) ;
#119 = EDGE_LOOP ( 'NONE', ( #782, #622, #53, #84 ) ) ;
#120 = EDGE_CURVE ( 'NONE', #443, #109, #766, .T. ) ;
#121 = CARTESIAN_POINT ( 'NONE',  ( 2.702755455298081206E-13, 25.40000000000052438, -2.250000000000000000 ) ) ;
#122 = CIRCLE ( 'NONE', #780, 1.500000000000113021 ) ;
#123 = AXIS2_PLACEMENT_3D ( 'NONE', #872, #50, #653 ) ;
#124 = CARTESIAN_POINT ( 'NONE',  ( 2.700000000000000107E-13, 5.900000000002222578, 0.000000000000000000 ) ) ;
#125 = DIRECTION ( 'NONE',  ( 0.000000000000000000, 0.000000000000000000, -1.000000000000000000 ) ) ;
#126 = DIRECTION ( 'NONE',  ( 0.000000000000000000, -0.7071067811866780239, -0.7071067811864170105 ) ) ;
#127 = DIRECTION ( 'NONE',  ( -0.000000000000000000, 1.000000000000000000, -0.000000000000000000 ) ) ;
#128 = FACE_OUTER_BOUND ( 'NONE', #690, .T. ) ;
#129 = VERTEX_POINT ( 'NONE', #491 ) ;
#130 = DIRECTION ( 'NONE',  ( -0.000000000000000000, 1.000000000000000000, -0.000000000000000000 ) ) ;
#131 = ORIENTED_EDGE ( 'NONE', *, *, #818, .T. ) ;
#132 = DIRECTION ( 'NONE',  ( -0.000000000000000000, 1.000000000000000000, -0.000000000000000000 ) ) ;
#133 = CARTESIAN_POINT ( 'NONE',  ( 2.700000000000000107E-13, 22.68431457505125692, 0.000000000000000000 ) ) ;
#134 = DIRECTION ( 'NONE',  ( -0.000000000000000000, 1.000000000000000000, -0.000000000000000000 ) ) ;
#135 = ORIENTED_EDGE ( 'NONE', *, *, #762, .T. ) ;
#136 = VECTOR ( 'NONE', #670, 1000.000000000000000 ) ;
#137 = DIRECTION ( 'NONE',  ( 0.000000000000000000, 0.000000000000000000, 1.000000000000000000 ) ) ;
#138 = VECTOR ( 'NONE', #11, 1000.000000000000000 ) ;
#139 = CONICAL_SURFACE ( 'NONE', #256, 2.999999999997839062, 0.3420966728675844393 ) ;
#140 = CIRCLE ( 'NONE', #186, 2.400000000000082956 ) ;
#141 = EDGE_CURVE ( 'NONE', #397, #422, #684, .T. ) ;
#142 = CARTESIAN_POINT ( 'NONE',  ( 2.700000000000000107E-13, 22.00000000000054001, 0.000000000000000000 ) ) ;
#143 = ORIENTED_EDGE ( 'NONE', *, *, #454, .T. ) ;
#144 = DIRECTION ( 'NONE',  ( 0.000000000000000000, 0.000000000000000000, 1.000000000000000000 ) ) ;
#145 = ORIENTED_EDGE ( 'NONE', *, *, #446, .F. ) ;
#146 = FACE_OUTER_BOUND ( 'NONE', #162, .T. ) ;
#147 = LINE ( 'NONE', #8, #628 ) ;
#148 = ORIENTED_EDGE ( 'NONE', *, *, #141, .F. ) ;
#149 = LINE ( 'NONE', #804, #115 ) ;
#150 = ORIENTED_EDGE ( 'NONE', *, *, #54, .F. ) ;
#151 = ADVANCED_FACE ( 'NONE', ( #760 ), #185, .T. ) ;
#152 = DIRECTION ( 'NONE',  ( 0.000000000000000000, 0.000000000000000000, 1.000000000000000000 ) ) ;
#153 = EDGE_CURVE ( 'NONE', #443, #129, #28, .T. ) ;
#154 = DIRECTION ( 'NONE',  ( -0.000000000000000000, 1.000000000000000000, -0.000000000000000000 ) ) ;
#155 = ORIENTED_EDGE ( 'NONE', *, *, #328, .T. ) ;
#156 = FACE_OUTER_BOUND ( 'NONE', #367, .T. ) ;
#157 = CIRCLE ( 'NONE', #78, 2.400000000000082956 ) ;
#158 = EDGE_LOOP ( 'NONE', ( #340, #406 ) ) ;
#159 = DIRECTION ( 'NONE',  ( 0.000000000000000000, 0.000000000000000000, 1.000000000000000000 ) ) ;
#160 = VECTOR ( 'NONE', #695, 1000.000000000000000 ) ;
#161 = CARTESIAN_POINT ( 'NONE',  ( 2.700000000000000107E-13, 5.900000000002222578, 2.999999999997839062 ) ) ;
#162 = EDGE_LOOP ( 'NONE', ( #621, #568, #642, #309 ) ) ;
#163 = ORIENTED_EDGE ( 'NONE', *, *, #239, .F. ) ;
#164 = LINE ( 'NONE', #357, #393 ) ;
#165 = DIRECTION ( 'NONE',  ( 0.000000000000000000, 0.000000000000000000, 1.000000000000000000 ) ) ;
#166 = EDGE_LOOP ( 'NONE', ( #713, #178, #875, #251 ) ) ;
#167 = ORIENTED_EDGE ( 'NONE', *, *, #205, .F. ) ;
#168 = DIRECTION ( 'NONE',  ( 0.000000000000000000, 0.000000000000000000, 1.000000000000000000 ) ) ;
#169 = DIRECTION ( 'NONE',  ( -0.000000000000000000, 1.000000000000000000, -0.000000000000000000 ) ) ;
#170 = DIRECTION ( 'NONE',  ( 0.000000000000000000, 0.000000000000000000, -1.000000000000000000 ) ) ;
#171 = EDGE_LOOP ( 'NONE', ( #412, #679, #10, #572 ) ) ;
#172 = ORIENTED_EDGE ( 'NONE', *, *, #508, .F. ) ;
#173 = VECTOR ( 'NONE', #592, 999.9999999999998863 ) ;
#174 = ADVANCED_FACE ( 'NONE', ( #225 ), #480, .T. ) ;
#175 = CIRCLE ( 'NONE', #363, 1.650000000000203970 ) ;
#176 = AXIS2_PLACEMENT_3D ( 'NONE', #66, #723, #321 ) ;
#177 = ORIENTED_EDGE ( 'NONE', *, *, #444, .T. ) ;
#178 = ORIENTED_EDGE ( 'NONE', *, *, #768, .T. ) ;
#179 = DIRECTION ( 'NONE',  ( -0.000000000000000000, 1.000000000000000000, -0.000000000000000000 ) ) ;
#180 = EDGE_CURVE ( 'NONE', #836, #637, #453, .T. ) ;
#181 = DIRECTION ( 'NONE',  ( 0.000000000000000000, -0.7071067811865480168, -0.7071067811865470176 ) ) ;
#182 = EDGE_CURVE ( 'NONE', #637, #836, #736, .T. ) ;
#183 = AXIS2_PLACEMENT_3D ( 'NONE', #527, #515, #576 ) ;
#184 = VECTOR ( 'NONE', #82, 1000.000000000000114 ) ;
#185 = CONICAL_SURFACE ( 'NONE', #245, 2.250000000000000000, 0.7853981633972637599 ) ;
#186 = AXIS2_PLACEMENT_3D ( 'NONE', #20, #100, #165 ) ;
#187 = ORIENTED_EDGE ( 'NONE', *, *, #639, .T. ) ;
#188 = DIRECTION ( 'NONE',  ( 0.000000000000000000, 0.000000000000000000, -1.000000000000000000 ) ) ;
#189 = VERTEX_POINT ( 'NONE', #14 ) ;
#190 = ADVANCED_FACE ( 'NONE', ( #553 ), #858, .T. ) ;
#191 = ORIENTED_EDGE ( 'NONE', *, *, #720, .T. ) ;
#192 = CARTESIAN_POINT ( 'NONE',  ( 2.700000000000000107E-13, 1.532982882718685103, 0.000000000000000000 ) ) ;
#193 = CARTESIAN_POINT ( 'NONE',  ( 2.701831813833877050E-13, 22.96715728752589669, 2.217157287525381104 ) ) ;
#194 = ADVANCED_FACE ( 'NONE', ( #428 ), #772, .T. ) ;
#195 = CARTESIAN_POINT ( 'NONE',  ( 2.700000000000000107E-13, 32.00000000000053291, 0.000000000000000000 ) ) ;
#196 = AXIS2_PLACEMENT_3D ( 'NONE', #203, #447, #125 ) ;
#197 = AXIS2_PLACEMENT_3D ( 'NONE', #297, #237, #170 ) ;
#198 = FACE_OUTER_BOUND ( 'NONE', #815, .T. ) ;
#199 = ADVANCED_FACE ( 'NONE', ( #702 ), #580, .T. ) ;
#200 = DIRECTION ( 'NONE',  ( -0.000000000000000000, 1.000000000000000000, -0.000000000000000000 ) ) ;
#201 = CARTESIAN_POINT ( 'NONE',  ( 1.650000000000473976, 26.65000000000054925, 0.000000000000000000 ) ) ;
#202 = DIRECTION ( 'NONE',  ( 0.000000000000000000, -1.000000000000000000, 0.000000000000000000 ) ) ;
#203 = CARTESIAN_POINT ( 'NONE',  ( 2.700000000000000107E-13, 25.40000000000052438, 0.000000000000000000 ) ) ;
#204 = ORIENTED_EDGE ( 'NONE', *, *, #328, .F. ) ;
#205 = EDGE_CURVE ( 'NONE', #95, #629, #386, .T. ) ;
#206 = DIRECTION ( 'NONE',  ( -0.000000000000000000, 1.000000000000000000, -0.000000000000000000 ) ) ;
#207 = ORIENTED_EDGE ( 'NONE', *, *, #841, .F. ) ;
#208 = CARTESIAN_POINT ( 'NONE',  ( 2.702449293598294810E-13, 32.00000000000053291, -2.000000000000112799 ) ) ;
#209 = VERTEX_POINT ( 'NONE', #59 ) ;
#210 = AXIS2_PLACEMENT_3D ( 'NONE', #536, #483, #694 ) ;
#211 = DIRECTION ( 'NONE',  ( -0.000000000000000000, 1.000000000000000000, -0.000000000000000000 ) ) ;
#212 = CIRCLE ( 'NONE', #500, 1.650000000000203970 ) ;
#213 = CONICAL_SURFACE ( 'NONE', #627, 2.999999999997839062, 0.3420966728675844393 ) ;
#214 = ORIENTED_EDGE ( 'NONE', *, *, #687, .F. ) ;
#215 = FACE_OUTER_BOUND ( 'NONE', #593, .T. ) ;
#216 = ORIENTED_EDGE ( 'NONE', *, *, #551, .F. ) ;
#217 = CARTESIAN_POINT ( 'NONE',  ( 2.700000000000000107E-13, 32.00000000000053291, 0.000000000000000000 ) ) ;
#218 = EDGE_CURVE ( 'NONE', #95, #535, #288, .T. ) ;
#219 = DIRECTION ( 'NONE',  ( -0.000000000000000000, 1.000000000000000000, -0.000000000000000000 ) ) ;
#220 = ORIENTED_EDGE ( 'NONE', *, *, #644, .T. ) ;
#221 = DIRECTION ( 'NONE',  ( 0.000000000000000000, -1.000000000000000000, 0.000000000000000000 ) ) ;
#222 = VERTEX_POINT ( 'NONE', #583 ) ;
#223 = DIRECTION ( 'NONE',  ( -0.000000000000000000, 1.000000000000000000, -0.000000000000000000 ) ) ;
#224 = PRESENTATION_STYLE_ASSIGNMENT (( #826 ) ) ;
#225 = FACE_OUTER_BOUND ( 'NONE', #404, .T. ) ;
#226 = CIRCLE ( 'NONE', #101, 2.250000000000000000 ) ;
#227 = ORIENTED_EDGE ( 'NONE', *, *, #403, .T. ) ;
#228 = AXIS2_PLACEMENT_3D ( 'NONE', #587, #795, #456 ) ;
#229 = CARTESIAN_POINT ( 'NONE',  ( 2.702449293598294810E-13, 31.50000000000054001, -2.000000000000112799 ) ) ;
#230 = TOROIDAL_SURFACE ( 'NONE', #334, 2.500000000000000000, 0.4000000000000001887 ) ;
#231 = CARTESIAN_POINT ( 'NONE',  ( 2.700000000000000107E-13, 22.68431457505125692, 0.000000000000000000 ) ) ;
#232 = LINE ( 'NONE', #368, #560 ) ;
#233 = VERTEX_POINT ( 'NONE', #272 ) ;
#234 = ORIENTED_EDGE ( 'NONE', *, *, #180, .F. ) ;
#235 = CYLINDRICAL_SURFACE ( 'NONE', #48, 2.250000000000000000 ) ;
#236 = DIRECTION ( 'NONE',  ( -0.000000000000000000, 1.000000000000000000, -0.000000000000000000 ) ) ;
#237 = DIRECTION ( 'NONE',  ( 0.000000000000000000, -1.000000000000000000, 0.000000000000000000 ) ) ;
#238 = VERTEX_POINT ( 'NONE', #863 ) ;
#239 = EDGE_CURVE ( 'NONE', #189, #362, #774, .T. ) ;
#240 = VERTEX_POINT ( 'NONE', #193 ) ;
#241 = CARTESIAN_POINT ( 'NONE',  ( 2.702388061258337329E-13, 26.00000000000054001, 1.650000000000203970 ) ) ;
#242 = EDGE_LOOP ( 'NONE', ( #436, #30, #79, #784 ) ) ;
#243 = AXIS2_PLACEMENT_3D ( 'NONE', #613, #354, #290 ) ;
#244 = CIRCLE ( 'NONE', #718, 2.700000000000045031 ) ;
#245 = AXIS2_PLACEMENT_3D ( 'NONE', #624, #569, #104 ) ;
#246 = FACE_OUTER_BOUND ( 'NONE', #166, .T. ) ;
#247 = EDGE_LOOP ( 'NONE', ( #845, #289 ) ) ;
#248 = ADVANCED_FACE ( 'NONE', ( #591 ), #213, .T. ) ;
#249 = ADVANCED_FACE ( 'NONE', ( #246 ), #382, .T. ) ;
#250 = CARTESIAN_POINT ( 'NONE',  ( 2.700000000000000107E-13, 21.90000000000052083, 0.000000000000000000 ) ) ;
#251 = ORIENTED_EDGE ( 'NONE', *, *, #677, .F. ) ;
#252 = CIRCLE ( 'NONE', #243, 2.700000000000045031 ) ;
#253 = CYLINDRICAL_SURFACE ( 'NONE', #486, 2.100000000000010747 ) ;
#254 = AXIS2_PLACEMENT_3D ( 'NONE', #689, #405, #548 ) ;
#255 = ADVANCED_FACE ( 'NONE', ( #517 ), #139, .T. ) ;
#256 = AXIS2_PLACEMENT_3D ( 'NONE', #41, #525, #799 ) ;
#257 = STYLED_ITEM ( 'NONE', ( #224 ), #590 ) ;
#258 = VERTEX_POINT ( 'NONE', #391 ) ;
#259 = CARTESIAN_POINT ( 'NONE',  ( 2.700000000000000107E-13, 0.5000000428504458583, 7.589415207398531038E-16 ) ) ;
#260 = ADVANCED_FACE ( 'NONE', ( #198 ), #860, .T. ) ;
#261 = CARTESIAN_POINT ( 'NONE',  ( 2.700000000000000107E-13, 8.708218385331374378, 0.000000000000000000 ) ) ;
#262 = CARTESIAN_POINT ( 'NONE',  ( 2.700000000000000107E-13, 21.90000000000052083, 0.000000000000000000 ) ) ;
#263 = VERTEX_POINT ( 'NONE', #640 ) ;
#264 = CYLINDRICAL_SURFACE ( 'NONE', #813, 2.250000000000000000 ) ;
#265 = CARTESIAN_POINT ( 'NONE',  ( 2.702020667218593452E-13, 32.00000000000053291, -1.650000000000203970 ) ) ;
#266 = AXIS2_PLACEMENT_3D ( 'NONE', #262, #274, #654 ) ;
#267 = AXIS2_PLACEMENT_3D ( 'NONE', #800, #51, #56 ) ;
#268 = ORIENTED_EDGE ( 'NONE', *, *, #787, .T. ) ;
#269 = VECTOR ( 'NONE', #126, 1000.000000000000114 ) ;
#270 = CARTESIAN_POINT ( 'NONE',  ( 2.700000000000000107E-13, 26.65000000000054925, 2.000000000000112799 ) ) ;
#271 = PRODUCT ( '99688-SI06-M04+S9MT06T1-142', '99688-SI06-M04+S9MT06T1-142', '', ( #106 ) ) ;
#272 = CARTESIAN_POINT ( 'NONE',  ( 2.703306546357698032E-13, 22.00000000000054001, -2.700000000000045031 ) ) ;
#273 = CARTESIAN_POINT ( 'NONE',  ( 2.700000000000000107E-13, 32.00000000000053291, 0.000000000000000000 ) ) ;
#274 = DIRECTION ( 'NONE',  ( -0.000000000000000000, 1.000000000000000000, -0.000000000000000000 ) ) ;
#275 = EDGE_CURVE ( 'NONE', #481, #561, #788, .T. ) ;
#276 = CARTESIAN_POINT ( 'NONE',  ( 2.704898587196589513E-13, 21.90000000000052083, 4.000000000000112799 ) ) ;
#277 = ORIENTED_EDGE ( 'NONE', *, *, #358, .F. ) ;
#278 = CARTESIAN_POINT ( 'NONE',  ( 2.700000000000000107E-13, 32.00000000000054001, 0.000000000000000000 ) ) ;
#279 = ADVANCED_FACE ( 'NONE', ( #461, #663 ), #337, .F. ) ;
#280 = CARTESIAN_POINT ( 'NONE',  ( 2.700000000000000107E-13, 22.96715728752589669, 2.217157287525381104 ) ) ;
#281 = CARTESIAN_POINT ( 'NONE',  ( 2.700000000000000107E-13, 32.00000000000053291, 2.000000000000112799 ) ) ;
#282 = CARTESIAN_POINT ( 'NONE',  ( 2.703673940397439385E-13, 5.900000000002222578, -2.999999999997839062 ) ) ;
#283 = CONICAL_SURFACE ( 'NONE', #196, 2.250000000000000000, 0.7853981633972637599 ) ;
#284 = ORIENTED_EDGE ( 'NONE', *, *, #727, .T. ) ;
#285 = AXIS2_PLACEMENT_3D ( 'NONE', #217, #744, #349 ) ;
#286 = CYLINDRICAL_SURFACE ( 'NONE', #285, 1.650000000000203970 ) ;
#287 = AXIS2_PLACEMENT_3D ( 'NONE', #352, #294, #614 ) ;
#288 = CIRCLE ( 'NONE', #380, 2.250000000000000000 ) ;
#289 = ORIENTED_EDGE ( 'NONE', *, *, #375, .F. ) ;
#290 = DIRECTION ( 'NONE',  ( 0.000000000000000000, 0.000000000000000000, 1.000000000000000000 ) ) ;
#291 = DIRECTION ( 'NONE',  ( -0.000000000000000000, 1.000000000000000000, -0.000000000000000000 ) ) ;
#292 = DIRECTION ( 'NONE',  ( 1.157926297142070082E-16, 0.3255681544571519259, -0.9455185755993184005 ) ) ;
#293 = DIRECTION ( 'NONE',  ( -0.000000000000000000, 1.000000000000000000, -0.000000000000000000 ) ) ;
#294 = DIRECTION ( 'NONE',  ( -0.000000000000000000, 1.000000000000000000, -0.000000000000000000 ) ) ;
#295 = EDGE_LOOP ( 'NONE', ( #155, #342, #163, #612 ) ) ;
#296 = CARTESIAN_POINT ( 'NONE',  ( 2.700000000000000107E-13, 32.00000000000053291, 0.000000000000000000 ) ) ;
#297 = CARTESIAN_POINT ( 'NONE',  ( 2.700000000000000107E-13, 31.50000000000054001, 0.000000000000000000 ) ) ;
#298 = AXIS2_PLACEMENT_3D ( 'NONE', #437, #777, #636 ) ;
#299 = ORIENTED_EDGE ( 'NONE', *, *, #677, .T. ) ;
#300 = CIRCLE ( 'NONE', #319, 0.4000000000000001887 ) ;
#301 = CARTESIAN_POINT ( 'NONE',  ( 2.700000000000000107E-13, 32.00000000000053291, 2.100000000000010747 ) ) ;
#302 = AXIS2_PLACEMENT_3D ( 'NONE', #497, #29, #835 ) ;
#303 = ADVANCED_FACE ( 'NONE', ( #711 ), #264, .T. ) ;
#304 = DIRECTION ( 'NONE',  ( 0.000000000000000000, 0.000000000000000000, 1.000000000000000000 ) ) ;
#305 = ORIENTED_EDGE ( 'NONE', *, *, #551, .T. ) ;
#306 = DIRECTION ( 'NONE',  ( -0.000000000000000000, 1.000000000000000000, -0.000000000000000000 ) ) ;
#307 = ORIENTED_EDGE ( 'NONE', *, *, #426, .F. ) ;
#308 = DIRECTION ( 'NONE',  ( 0.000000000000000000, 0.000000000000000000, 1.000000000000000000 ) ) ;
#309 = ORIENTED_EDGE ( 'NONE', *, *, #117, .F. ) ;
#310 = ADVANCED_FACE ( 'NONE', ( #55 ), #662, .T. ) ;
#311 = VECTOR ( 'NONE', #617, 1000.000000000000000 ) ;
#312 = TOROIDAL_SURFACE ( 'NONE', #228, 2.300000000000022027, 0.1999999999999997058 ) ;
#313 = DIRECTION ( 'NONE',  ( 0.000000000000000000, 0.000000000000000000, 1.000000000000000000 ) ) ;
#314 = ORIENTED_EDGE ( 'NONE', *, *, #37, .T. ) ;
#315 = CARTESIAN_POINT ( 'NONE',  ( 0.000000000000000000, 0.000000000000000000, 0.000000000000000000 ) ) ;
#316 = CIRCLE ( 'NONE', #361, 2.217157287525381104 ) ;
#317 = CARTESIAN_POINT ( 'NONE',  ( 2.700000000000000107E-13, 32.00000000000054001, 0.000000000000000000 ) ) ;
#318 = STYLED_ITEM ( 'NONE', ( #327 ), #35 ) ;
#319 = AXIS2_PLACEMENT_3D ( 'NONE', #733, #470, #610 ) ;
#320 = EDGE_CURVE ( 'NONE', #803, #397, #574, .T. ) ;
#321 = DIRECTION ( 'NONE',  ( 0.000000000000000000, 0.000000000000000000, 1.000000000000000000 ) ) ;
#322 = DIRECTION ( 'NONE',  ( 0.000000000000000000, 0.000000000000000000, 1.000000000000000000 ) ) ;
#323 = DIRECTION ( 'NONE',  ( 8.659560562354926695E-17, -0.7071067811865480168, 0.7071067811865470176 ) ) ;
#324 = DIRECTION ( 'NONE',  ( -0.000000000000000000, 1.000000000000000000, -0.000000000000000000 ) ) ;
#325 = CARTESIAN_POINT ( 'NONE',  ( 2.700000000000000107E-13, 26.65000000000054925, 1.650000000000203970 ) ) ;
#326 = LINE ( 'NONE', #265, #712 ) ;
#327 = PRESENTATION_STYLE_ASSIGNMENT (( #546 ) ) ;
#328 = EDGE_CURVE ( 'NONE', #109, #471, #429, .T. ) ;
#329 = DIRECTION ( 'NONE',  ( 0.000000000000000000, 0.000000000000000000, 1.000000000000000000 ) ) ;
#330 = LINE ( 'NONE', #664, #173 ) ;
#331 = CIRCLE ( 'NONE', #210, 2.000000000000112799 ) ;
#332 = VECTOR ( 'NONE', #130, 1000.000000000000000 ) ;
#333 = DIRECTION ( 'NONE',  ( -0.000000000000000000, 1.000000000000000000, 0.000000000000000000 ) ) ;
#334 = AXIS2_PLACEMENT_3D ( 'NONE', #32, #487, #771 ) ;
#335 = CYLINDRICAL_SURFACE ( 'NONE', #648, 4.000000000000112799 ) ;
#336 = VERTEX_POINT ( 'NONE', #116 ) ;
#337 = PLANE ( 'NONE',  #365 ) ;
#338 = CARTESIAN_POINT ( 'NONE',  ( 2.703306546357698032E-13, 22.00000000000054001, -2.700000000000045031 ) ) ;
#339 = LINE ( 'NONE', #280, #502 ) ;
#340 = ORIENTED_EDGE ( 'NONE', *, *, #180, .T. ) ;
#341 = CARTESIAN_POINT ( 'NONE',  ( 2.700000000000000107E-13, 21.82679491924363546, 0.000000000000000000 ) ) ;
#342 = ORIENTED_EDGE ( 'NONE', *, *, #16, .T. ) ;
#343 = FACE_OUTER_BOUND ( 'NONE', #46, .T. ) ;
#344 = LINE ( 'NONE', #208, #606 ) ;
#345 = AXIS2_PLACEMENT_3D ( 'NONE', #682, #477, #604 ) ;
#346 = FACE_BOUND ( 'NONE', #158, .T. ) ;
#347 = ADVANCED_FACE ( 'NONE', ( #793 ), #62, .F. ) ;
#348 = CONICAL_SURFACE ( 'NONE', #27, 4.000000000000112799, 0.7853981633976000465 ) ;
#349 = DIRECTION ( 'NONE',  ( 0.000000000000000000, 0.000000000000000000, 1.000000000000000000 ) ) ;
#350 = ORIENTED_EDGE ( 'NONE', *, *, #275, .F. ) ;
#351 = CARTESIAN_POINT ( 'NONE',  ( 2.700000000000000107E-13, 25.40000000000052438, 2.250000000000000000 ) ) ;
#352 = CARTESIAN_POINT ( 'NONE',  ( 2.700000000000000107E-13, 26.65000000000054925, 0.000000000000000000 ) ) ;
#353 = ORIENTED_EDGE ( 'NONE', *, *, #120, .T. ) ;
#354 = DIRECTION ( 'NONE',  ( -0.000000000000000000, 1.000000000000000000, -0.000000000000000000 ) ) ;
#355 = CARTESIAN_POINT ( 'NONE',  ( 2.702755455298081711E-13, 23.00000000000054001, -2.250000000000000000 ) ) ;
#356 = VERTEX_POINT ( 'NONE', #806 ) ;
#357 = CARTESIAN_POINT ( 'NONE',  ( 2.703673940397439385E-13, 32.00000000000053291, -2.999999999997846167 ) ) ;
#358 = EDGE_CURVE ( 'NONE', #189, #238, #402, .T. ) ;
#359 = DIRECTION ( 'NONE',  ( -1.000000000000000000, 0.000000000000000000, 0.000000000000000000 ) ) ;
#360 = VERTEX_POINT ( 'NONE', #18 ) ;
#361 = AXIS2_PLACEMENT_3D ( 'NONE', #789, #392, #584 ) ;
#362 = VERTEX_POINT ( 'NONE', #759 ) ;
#363 = AXIS2_PLACEMENT_3D ( 'NONE', #495, #21, #827 ) ;
#364 = AXIS2_PLACEMENT_3D ( 'NONE', #77, #211, #85 ) ;
#365 = AXIS2_PLACEMENT_3D ( 'NONE', #709, #596, #439 ) ;
#366 = FACE_OUTER_BOUND ( 'NONE', #416, .T. ) ;
#367 = EDGE_LOOP ( 'NONE', ( #214, #547, #401, #688 ) ) ;
#368 = CARTESIAN_POINT ( 'NONE',  ( 2.700000000000000107E-13, 32.00000000000053291, 2.250000000000000000 ) ) ;
#369 = EDGE_CURVE ( 'NONE', #129, #471, #164, .T. ) ;
#370 = ORIENTED_EDGE ( 'NONE', *, *, #516, .T. ) ;
#371 = ORIENTED_EDGE ( 'NONE', *, *, #575, .F. ) ;
#372 = DIRECTION ( 'NONE',  ( 0.000000000000000000, -0.7071067811864402142, -0.7071067811866548203 ) ) ;
#373 = ADVANCED_FACE ( 'NONE', ( #735 ), #70, .T. ) ;
#374 = AXIS2_PLACEMENT_3D ( 'NONE', #273, #765, #605 ) ;
#375 = EDGE_CURVE ( 'NONE', #360, #704, #870, .T. ) ;
#376 = DIRECTION ( 'NONE',  ( -0.000000000000000000, 1.000000000000000000, -0.000000000000000000 ) ) ;
#377 = CIRCLE ( 'NONE', #498, 2.000000000000112799 ) ;
#378 = DIRECTION ( 'NONE',  ( 0.000000000000000000, -1.000000000000000000, 0.000000000000000000 ) ) ;
#379 = CLOSED_SHELL ( 'NONE', ( #567, #174, #794, #151, #472, #485, #71, #533, #834, #450, #260, #776, #255, #504, #310, #190, #373, #248, #249, #699, #279, #710, #347, #715, #431, #199, #303, #585, #846, #44, #385, #194, #484 ) ) ;
#380 = AXIS2_PLACEMENT_3D ( 'NONE', #730, #852, #329 ) ;
#381 = ORIENTED_EDGE ( 'NONE', *, *, #866, .F. ) ;
#382 = CYLINDRICAL_SURFACE ( 'NONE', #123, 4.000000000000112799 ) ;
#383 = DIRECTION ( 'NONE',  ( 0.000000000000000000, 0.3255681544571519259, 0.9455185755993184005 ) ) ;
#384 = PLANE ( 'NONE',  #578 ) ;
#385 = ADVANCED_FACE ( 'NONE', ( #215 ), #80, .T. ) ;
#386 = LINE ( 'NONE', #455, #503 ) ;
#387 = DIRECTION ( 'NONE',  ( 0.000000000000000000, 0.000000000000000000, 1.000000000000000000 ) ) ;
#388 = FACE_OUTER_BOUND ( 'NONE', #869, .T. ) ;
#389 = VERTEX_POINT ( 'NONE', #351 ) ;
#390 = EDGE_LOOP ( 'NONE', ( #371, #150, #314, #693 ) ) ;
#391 = CARTESIAN_POINT ( 'NONE',  ( 2.703122849337825588E-13, 21.82679491924363546, -2.400000000000082956 ) ) ;
#392 = DIRECTION ( 'NONE',  ( -0.000000000000000000, 1.000000000000000000, -0.000000000000000000 ) ) ;
#393 = VECTOR ( 'NONE', #223, 1000.000000000000000 ) ;
#394 = CIRCLE ( 'NONE', #811, 4.000000000000112799 ) ;
#395 = ORIENTED_EDGE ( 'NONE', *, *, #630, .T. ) ;
#396 = DIRECTION ( 'NONE',  ( -0.000000000000000000, 1.000000000000000000, -0.000000000000000000 ) ) ;
#397 = VERTEX_POINT ( 'NONE', #229 ) ;
#398 = LINE ( 'NONE', #417, #136 ) ;
#399 = LINE ( 'NONE', #722, #269 ) ;
#400 = FACE_OUTER_BOUND ( 'NONE', #817, .T. ) ;
#401 = ORIENTED_EDGE ( 'NONE', *, *, #99, .T. ) ;
#402 = LINE ( 'NONE', #675, #311 ) ;
#403 = EDGE_CURVE ( 'NONE', #360, #397, #344, .T. ) ;
#404 = EDGE_LOOP ( 'NONE', ( #220, #227, #307, #424 ) ) ;
#405 = DIRECTION ( 'NONE',  ( -0.000000000000000000, 1.000000000000000000, -0.000000000000000000 ) ) ;
#406 = ORIENTED_EDGE ( 'NONE', *, *, #182, .T. ) ;
#407 = DIRECTION ( 'NONE',  ( -0.000000000000000000, 1.000000000000000000, -0.000000000000000000 ) ) ;
#408 = LINE ( 'NONE', #602, #184 ) ;
#409 = CIRCLE ( 'NONE', #509, 0.1999999999999996503 ) ;
#410 = DIRECTION ( 'NONE',  ( 0.000000000000000000, 0.000000000000000000, 1.000000000000000000 ) ) ;
#411 = CIRCLE ( 'NONE', #267, 3.900000000000090061 ) ;
#412 = ORIENTED_EDGE ( 'NONE', *, *, #762, .F. ) ;
#413 = DIRECTION ( 'NONE',  ( 0.000000000000000000, 0.000000000000000000, 1.000000000000000000 ) ) ;
#414 = CIRCLE ( 'NONE', #625, 2.999999999997839062 ) ;
#415 = CIRCLE ( 'NONE', #814, 2.100000000000000089 ) ;
#416 = EDGE_LOOP ( 'NONE', ( #172, #135, #513, #758 ) ) ;
#417 = CARTESIAN_POINT ( 'NONE',  ( 2.700000000000000107E-13, 32.00000000000053291, 1.650000000000203970 ) ) ;
#418 = SURFACE_STYLE_FILL_AREA ( #552 ) ;
#419 = CARTESIAN_POINT ( 'NONE',  ( 2.700000000000000107E-13, 32.00000000000053291, 2.999999999997846167 ) ) ;
#420 = ORIENTED_EDGE ( 'NONE', *, *, #855, .T. ) ;
#421 = EDGE_CURVE ( 'NONE', #336, #233, #252, .T. ) ;
#422 = VERTEX_POINT ( 'NONE', #819 ) ;
#423 = CARTESIAN_POINT ( 'NONE',  ( 2.700000000000000107E-13, 32.00000000000053291, 0.000000000000000000 ) ) ;
#424 = ORIENTED_EDGE ( 'NONE', *, *, #720, .F. ) ;
#425 = ORIENTED_EDGE ( 'NONE', *, *, #107, .F. ) ;
#426 = EDGE_CURVE ( 'NONE', #422, #397, #331, .T. ) ;
#427 = CARTESIAN_POINT ( 'NONE',  ( 2.700000000000000107E-13, 22.00000000000051159, -3.900000000000090061 ) ) ;
#428 = FACE_OUTER_BOUND ( 'NONE', #763, .T. ) ;
#429 = CIRCLE ( 'NONE', #683, 2.999999999997839062 ) ;
#430 = ORIENTED_EDGE ( 'NONE', *, *, #99, .F. ) ;
#431 = ADVANCED_FACE ( 'NONE', ( #490 ), #448, .F. ) ;
#432 = AXIS2_PLACEMENT_3D ( 'NONE', #250, #202, #111 ) ;
#433 = AXIS2_PLACEMENT_3D ( 'NONE', #315, #434, #45 ) ;
#434 = DIRECTION ( 'NONE',  ( 0.000000000000000000, 0.000000000000000000, 1.000000000000000000 ) ) ;
#435 = CARTESIAN_POINT ( 'NONE',  ( 2.700000000000000107E-13, 25.40000000000052438, 0.000000000000000000 ) ) ;
#436 = ORIENTED_EDGE ( 'NONE', *, *, #727, .F. ) ;
#437 = CARTESIAN_POINT ( 'NONE',  ( 2.700000000000000107E-13, 1000.500000042850388, 0.000000000000000000 ) ) ;
#438 =( NAMED_UNIT ( * ) PLANE_ANGLE_UNIT ( ) SI_UNIT ( $, .RADIAN. ) );
#439 = DIRECTION ( 'NONE',  ( 0.000000000000000000, -0.000000000000000000, -1.000000000000000000 ) ) ;
#440 = UNCERTAINTY_MEASURE_WITH_UNIT (LENGTH_MEASURE( 1.000000000000000082E-05 ), #524, 'distance_accuracy_value', 'NONE');
#441 = CIRCLE ( 'NONE', #183, 2.217157287525381104 ) ;
#442 = CIRCLE ( 'NONE', #64, 0.1999999999999996503 ) ;
#443 = VERTEX_POINT ( 'NONE', #810 ) ;
#444 = EDGE_CURVE ( 'NONE', #729, #803, #701, .T. ) ;
#445 = CARTESIAN_POINT ( 'NONE',  ( 2.700000000000000107E-13, 32.00000000000053291, 0.000000000000000000 ) ) ;
#446 = EDGE_CURVE ( 'NONE', #34, #258, #409, .T. ) ;
#447 = DIRECTION ( 'NONE',  ( 0.000000000000000000, -1.000000000000000000, 0.000000000000000000 ) ) ;
#448 = TOROIDAL_SURFACE ( 'NONE', #647, 2.500000000000000000, 0.4000000000000001887 ) ;
#449 = CARTESIAN_POINT ( 'NONE',  ( 2.700000000000000107E-13, 21.90000000000052083, -4.000000000000112799 ) ) ;
#450 = ADVANCED_FACE ( 'NONE', ( #752 ), #779, .F. ) ;
#451 = CIRCLE ( 'NONE', #791, 2.100000000000021405 ) ;
#452 = CARTESIAN_POINT ( 'NONE',  ( 2.702449293598294810E-13, 31.50000000000054001, 2.000000000000112799 ) ) ;
#453 = CIRCLE ( 'NONE', #26, 1.650000000000203970 ) ;
#454 = EDGE_CURVE ( 'NONE', #91, #836, #398, .T. ) ;
#455 = CARTESIAN_POINT ( 'NONE',  ( 2.702755455298081206E-13, 32.00000000000053291, -2.250000000000000000 ) ) ;
#456 = DIRECTION ( 'NONE',  ( 0.000000000000000000, 0.000000000000000000, 1.000000000000000000 ) ) ;
#457 = CARTESIAN_POINT ( 'NONE',  ( 2.700000000000000107E-13, 21.82679491924363546, 2.400000000000082956 ) ) ;
#458 = ORIENTED_EDGE ( 'NONE', *, *, #652, .F. ) ;
#459 = FACE_OUTER_BOUND ( 'NONE', #805, .T. ) ;
#460 = ORIENTED_EDGE ( 'NONE', *, *, #16, .F. ) ;
#461 = FACE_BOUND ( 'NONE', #87, .T. ) ;
#462 = CARTESIAN_POINT ( 'NONE',  ( 2.700000000000000107E-13, 22.96715728752589669, 0.000000000000000000 ) ) ;
#463 = ORIENTED_EDGE ( 'NONE', *, *, #19, .F. ) ;
#464 = EDGE_CURVE ( 'NONE', #258, #514, #157, .T. ) ;
#465 = CARTESIAN_POINT ( 'NONE',  ( 2.700000000000000107E-13, 26.00000000000054001, 0.000000000000000000 ) ) ;
#466 = ORIENTED_EDGE ( 'NONE', *, *, #851, .F. ) ;
#467 = DIRECTION ( 'NONE',  ( 1.224646799146982936E-16, 0.000000000000000000, -1.000000000000000000 ) ) ;
#468 = VECTOR ( 'NONE', #854, 1000.000000000000114 ) ;
#469 = AXIS2_PLACEMENT_3D ( 'NONE', #36, #94, #308 ) ;
#470 = DIRECTION ( 'NONE',  ( -1.000000000000000000, 0.000000000000000000, 0.000000000000000000 ) ) ;
#471 = VERTEX_POINT ( 'NONE', #282 ) ;
#472 = ADVANCED_FACE ( 'NONE', ( #146 ), #235, .T. ) ;
#473 = DIRECTION ( 'NONE',  ( -0.000000000000000000, 1.000000000000000000, -0.000000000000000000 ) ) ;
#474 = SURFACE_STYLE_FILL_AREA ( #589 ) ;
#475 = DIRECTION ( 'NONE',  ( 1.224646799146980224E-16, 0.000000000000000000, -1.000000000000000000 ) ) ;
#476 = VERTEX_POINT ( 'NONE', #24 ) ;
#477 = DIRECTION ( 'NONE',  ( -0.000000000000000000, 1.000000000000000000, -0.000000000000000000 ) ) ;
#478 = EDGE_CURVE ( 'NONE', #209, #681, #98, .T. ) ;
#479 =( LENGTH_UNIT ( ) NAMED_UNIT ( * ) SI_UNIT ( .MILLI., .METRE. ) );
#480 = CYLINDRICAL_SURFACE ( 'NONE', #510, 2.000000000000112799 ) ;
#481 = VERTEX_POINT ( 'NONE', #427 ) ;
#482 = FACE_OUTER_BOUND ( 'NONE', #554, .T. ) ;
#483 = DIRECTION ( 'NONE',  ( -0.000000000000000000, 1.000000000000000000, -0.000000000000000000 ) ) ;
#484 = ADVANCED_FACE ( 'NONE', ( #698 ), #623, .F. ) ;
#485 = ADVANCED_FACE ( 'NONE', ( #128 ), #39, .T. ) ;
#486 = AXIS2_PLACEMENT_3D ( 'NONE', #445, #582, #781 ) ;
#487 = DIRECTION ( 'NONE',  ( -0.000000000000000000, 1.000000000000000000, -0.000000000000000000 ) ) ;
#488 = EDGE_LOOP ( 'NONE', ( #145, #697, #773, #420 ) ) ;
#489 = EDGE_LOOP ( 'NONE', ( #635, #790, #540 ) ) ;
#490 = FACE_OUTER_BOUND ( 'NONE', #171, .T. ) ;
#491 = CARTESIAN_POINT ( 'NONE',  ( 2.703673940397439385E-13, 1.532982882718685103, -2.999999999997852385 ) ) ;
#492 = ORIENTED_EDGE ( 'NONE', *, *, #609, .T. ) ;
#493 = ORIENTED_EDGE ( 'NONE', *, *, #611, .F. ) ;
#494 = CARTESIAN_POINT ( 'NONE',  ( 2.700000000000000107E-13, 32.00000000000053291, 0.000000000000000000 ) ) ;
#495 = CARTESIAN_POINT ( 'NONE',  ( 2.700000000000000107E-13, 26.00000000000054001, 0.000000000000000000 ) ) ;
#496 = ORIENTED_EDGE ( 'NONE', *, *, #54, .T. ) ;
#497 = CARTESIAN_POINT ( 'NONE',  ( 2.700000000000000107E-13, 22.00000000000051159, 0.000000000000000000 ) ) ;
#498 = AXIS2_PLACEMENT_3D ( 'NONE', #118, #376, #47 ) ;
#499 = ORIENTED_EDGE ( 'NONE', *, *, #369, .T. ) ;
#500 = AXIS2_PLACEMENT_3D ( 'NONE', #465, #534, #137 ) ;
#501 = ORIENTED_EDGE ( 'NONE', *, *, #787, .F. ) ;
#502 = VECTOR ( 'NONE', #732, 999.9999999999998863 ) ;
#503 = VECTOR ( 'NONE', #127, 1000.000000000000000 ) ;
#504 = ADVANCED_FACE ( 'NONE', ( #716 ), #518, .T. ) ;
#505 = CARTESIAN_POINT ( 'NONE',  ( 2.700000000000000107E-13, 32.00000000000053291, 0.000000000000000000 ) ) ;
#506 = ORIENTED_EDGE ( 'NONE', *, *, #708, .F. ) ;
#507 = CARTESIAN_POINT ( 'NONE',  ( 2.700000000000000107E-13, 31.50000000000054001, -2.000000000000112799 ) ) ;
#508 = EDGE_CURVE ( 'NONE', #222, #240, #316, .T. ) ;
#509 = AXIS2_PLACEMENT_3D ( 'NONE', #531, #88, #467 ) ;
#510 = AXIS2_PLACEMENT_3D ( 'NONE', #748, #154, #410 ) ;
#511 = AXIS2_PLACEMENT_3D ( 'NONE', #848, #566, #304 ) ;
#512 = LINE ( 'NONE', #452, #114 ) ;
#513 = ORIENTED_EDGE ( 'NONE', *, *, #866, .T. ) ;
#514 = VERTEX_POINT ( 'NONE', #457 ) ;
#515 = DIRECTION ( 'NONE',  ( -0.000000000000000000, 1.000000000000000000, -0.000000000000000000 ) ) ;
#516 = EDGE_CURVE ( 'NONE', #238, #561, #809, .T. ) ;
#517 = FACE_OUTER_BOUND ( 'NONE', #295, .T. ) ;
#518 = CYLINDRICAL_SURFACE ( 'NONE', #5, 2.999999999997846167 ) ;
#519 = DIRECTION ( 'NONE',  ( -0.000000000000000000, 1.000000000000000000, -0.000000000000000000 ) ) ;
#520 = AXIS2_PLACEMENT_3D ( 'NONE', #133, #724, #387 ) ;
#521 = DIRECTION ( 'NONE',  ( -0.000000000000000000, 1.000000000000000000, -0.000000000000000000 ) ) ;
#522 = CARTESIAN_POINT ( 'NONE',  ( 2.700000000000000107E-13, 23.00000000000054001, 0.000000000000000000 ) ) ;
#523 = VECTOR ( 'NONE', #68, 1000.000000000000114 ) ;
#524 =( LENGTH_UNIT ( ) NAMED_UNIT ( * ) SI_UNIT ( .MILLI., .METRE. ) );
#525 = DIRECTION ( 'NONE',  ( -0.000000000000000000, 1.000000000000000000, -0.000000000000000000 ) ) ;
#526 = CARTESIAN_POINT ( 'NONE',  ( 2.700000000000000107E-13, 32.00000000000054001, -1.500000000000113021 ) ) ;
#527 = CARTESIAN_POINT ( 'NONE',  ( 2.700000000000000107E-13, 22.96715728752589669, 0.000000000000000000 ) ) ;
#528 = DIRECTION ( 'NONE',  ( 0.000000000000000000, 0.000000000000000000, 1.000000000000000000 ) ) ;
#529 = CARTESIAN_POINT ( 'NONE',  ( 2.700000000000000107E-13, 8.708218385331374378, 0.000000000000000000 ) ) ;
#530 = ORIENTED_EDGE ( 'NONE', *, *, #369, .F. ) ;
#531 = CARTESIAN_POINT ( 'NONE',  ( 2.704648501471916135E-13, 22.00000000000048672, -2.300000000000022027 ) ) ;
#532 = CARTESIAN_POINT ( 'NONE',  ( 2.700000000000000107E-13, 5.900000000002222578, 0.000000000000000000 ) ) ;
#533 = ADVANCED_FACE ( 'NONE', ( #725 ), #253, .T. ) ;
#534 = DIRECTION ( 'NONE',  ( -0.000000000000000000, 1.000000000000000000, -0.000000000000000000 ) ) ;
#535 = VERTEX_POINT ( 'NONE', #864 ) ;
#536 = CARTESIAN_POINT ( 'NONE',  ( 2.700000000000000107E-13, 31.50000000000054001, 0.000000000000000000 ) ) ;
#537 = CARTESIAN_POINT ( 'NONE',  ( 2.700000000000000107E-13, 22.00000000000051159, 0.000000000000000000 ) ) ;
#538 = AXIS2_PLACEMENT_3D ( 'NONE', #529, #4, #144 ) ;
#539 =( GEOMETRIC_REPRESENTATION_CONTEXT ( 3 ) GLOBAL_UNCERTAINTY_ASSIGNED_CONTEXT ( ( #828 ) ) GLOBAL_UNIT_ASSIGNED_CONTEXT ( ( #479, #93, #831 ) ) REPRESENTATION_CONTEXT ( 'NONE', 'WORKASPACE' ) );
#540 = ORIENTED_EDGE ( 'NONE', *, *, #153, .F. ) ;
#541 = VECTOR ( 'NONE', #181, 1000.000000000000000 ) ;
#542 = APPLICATION_CONTEXT ( 'automotive_design' ) ;
#543 = LINE ( 'NONE', #276, #559 ) ;
#544 = ORIENTED_EDGE ( 'NONE', *, *, #797, .F. ) ;
#545 = DIRECTION ( 'NONE',  ( -0.000000000000000000, 1.000000000000000000, -0.000000000000000000 ) ) ;
#546 = SURFACE_STYLE_USAGE ( .BOTH. , #608 ) ;
#547 = ORIENTED_EDGE ( 'NONE', *, *, #855, .F. ) ;
#548 = DIRECTION ( 'NONE',  ( 0.000000000000000000, 0.000000000000000000, 1.000000000000000000 ) ) ;
#549 = ORIENTED_EDGE ( 'NONE', *, *, #802, .F. ) ;
#550 = DIRECTION ( 'NONE',  ( -0.000000000000000000, 1.000000000000000000, -0.000000000000000000 ) ) ;
#551 = EDGE_CURVE ( 'NONE', #729, #422, #512, .T. ) ;
#552 = FILL_AREA_STYLE ('',( #676 ) ) ;
#553 = FACE_OUTER_BOUND ( 'NONE', #97, .T. ) ;
#554 = EDGE_LOOP ( 'NONE', ( #501, #616, #786, #381 ) ) ;
#555 = ORIENTED_EDGE ( 'NONE', *, *, #652, .T. ) ;
#556 = CARTESIAN_POINT ( 'NONE',  ( 2.700000000000000107E-13, 26.65000000000054925, 0.000000000000000000 ) ) ;
#557 = LINE ( 'NONE', #338, #138 ) ;
#558 = VECTOR ( 'NONE', #562, 1000.000000000000000 ) ;
#559 = VECTOR ( 'NONE', #73, 1000.000000000000000 ) ;
#560 = VECTOR ( 'NONE', #633, 1000.000000000000000 ) ;
#561 = VERTEX_POINT ( 'NONE', #873 ) ;
#562 = DIRECTION ( 'NONE',  ( -0.000000000000000000, 1.000000000000000000, -0.000000000000000000 ) ) ;
#563 = CARTESIAN_POINT ( 'NONE',  ( 2.700000000000000107E-13, 26.65000000000054925, 0.000000000000000000 ) ) ;
#564 = ORIENTED_EDGE ( 'NONE', *, *, #630, .F. ) ;
#565 = ORIENTED_EDGE ( 'NONE', *, *, #783, .F. ) ;
#566 = DIRECTION ( 'NONE',  ( -0.000000000000000000, 1.000000000000000000, -0.000000000000000000 ) ) ;
#567 = ADVANCED_FACE ( 'NONE', ( #388 ), #856, .T. ) ;
#568 = ORIENTED_EDGE ( 'NONE', *, *, #205, .T. ) ;
#569 = DIRECTION ( 'NONE',  ( 0.000000000000000000, -1.000000000000000000, 0.000000000000000000 ) ) ;
#570 = AXIS2_PLACEMENT_3D ( 'NONE', #838, #378, #651 ) ;
#571 = CIRCLE ( 'NONE', #538, 4.000000000000112799 ) ;
#572 = ORIENTED_EDGE ( 'NONE', *, *, #841, .T. ) ;
#573 = CIRCLE ( 'NONE', #302, 3.900000000000090061 ) ;
#574 = LINE ( 'NONE', #507, #541 ) ;
#575 = EDGE_CURVE ( 'NONE', #91, #389, #588, .T. ) ;
#576 = DIRECTION ( 'NONE',  ( 0.000000000000000000, 0.000000000000000000, 1.000000000000000000 ) ) ;
#577 = AXIS2_PLACEMENT_3D ( 'NONE', #556, #407, #75 ) ;
#578 = AXIS2_PLACEMENT_3D ( 'NONE', #201, #333, #528 ) ;
#579 = CONICAL_SURFACE ( 'NONE', #626, 2.700000000000045031, 1.047197551196502374 ) ;
#580 = CONICAL_SURFACE ( 'NONE', #176, 2.217157287525381104, 0.7853981633970720244 ) ;
#581 = MECHANICAL_DESIGN_GEOMETRIC_PRESENTATION_REPRESENTATION (  '', ( #257 ), #685 ) ;
#582 = DIRECTION ( 'NONE',  ( -0.000000000000000000, 1.000000000000000000, -0.000000000000000000 ) ) ;
#583 = CARTESIAN_POINT ( 'NONE',  ( 2.704547048409251544E-13, 22.96715728752589669, -2.217157287525381104 ) ) ;
#584 = DIRECTION ( 'NONE',  ( 0.000000000000000000, 0.000000000000000000, 1.000000000000000000 ) ) ;
#585 = ADVANCED_FACE ( 'NONE', ( #801 ), #283, .T. ) ;
#586 = CARTESIAN_POINT ( 'NONE',  ( 2.700000000000000107E-13, 5.900000000002222578, 0.000000000000000000 ) ) ;
#587 = CARTESIAN_POINT ( 'NONE',  ( 2.701831813833877050E-13, 22.00000000000048672, 0.000000000000000000 ) ) ;
#588 = LINE ( 'NONE', #721, #468 ) ;
#589 = FILL_AREA_STYLE ('',( #655 ) ) ;
#590 = ADVANCED_BREP_SHAPE_REPRESENTATION ( '99688-SI06-M04+S9MT06T1-142', ( #35, #433 ), #539 ) ;
#591 = FACE_OUTER_BOUND ( 'NONE', #595, .T. ) ;
#592 = DIRECTION ( 'NONE',  ( 8.659560562351676342E-17, 0.7071067811868136932, -0.7071067811862814523 ) ) ;
#593 = EDGE_LOOP ( 'NONE', ( #843, #857, #191, #148 ) ) ;
#594 = CARTESIAN_POINT ( 'NONE',  ( 2.700000000000000107E-13, 32.00000000000053291, 0.000000000000000000 ) ) ;
#595 = EDGE_LOOP ( 'NONE', ( #460, #660, #696, #615 ) ) ;
#596 = DIRECTION ( 'NONE',  ( 0.000000000000000000, -1.000000000000000000, 0.000000000000000000 ) ) ;
#597 = EDGE_CURVE ( 'NONE', #356, #443, #868, .T. ) ;
#598 = CARTESIAN_POINT ( 'NONE',  ( 2.703673940397439385E-13, 5.900000000002222578, -2.999999999997839062 ) ) ;
#599 = CYLINDRICAL_SURFACE ( 'NONE', #254, 2.100000000000010747 ) ;
#600 = ORIENTED_EDGE ( 'NONE', *, *, #661, .T. ) ;
#601 = DIRECTION ( 'NONE',  ( -0.000000000000000000, 1.000000000000000000, -0.000000000000000000 ) ) ;
#602 = CARTESIAN_POINT ( 'NONE',  ( 2.700000000000000107E-13, 5.900000000002222578, 2.999999999997839062 ) ) ;
#603 = EDGE_LOOP ( 'NONE', ( #167, #113, #751, #674 ) ) ;
#604 = DIRECTION ( 'NONE',  ( 0.000000000000000000, 0.000000000000000000, 1.000000000000000000 ) ) ;
#605 = DIRECTION ( 'NONE',  ( 0.000000000000000000, 0.000000000000000000, 1.000000000000000000 ) ) ;
#606 = VECTOR ( 'NONE', #293, 1000.000000000000000 ) ;
#607 = AXIS2_PLACEMENT_3D ( 'NONE', #435, #306, #844 ) ;
#608 = SURFACE_SIDE_STYLE ('',( #474 ) ) ;
#609 = EDGE_CURVE ( 'NONE', #222, #95, #330, .T. ) ;
#610 = DIRECTION ( 'NONE',  ( 0.000000000000000000, 0.000000000000000000, 1.000000000000000000 ) ) ;
#611 = EDGE_CURVE ( 'NONE', #535, #95, #226, .T. ) ;
#612 = ORIENTED_EDGE ( 'NONE', *, *, #678, .F. ) ;
#613 = CARTESIAN_POINT ( 'NONE',  ( 2.700000000000000107E-13, 22.00000000000054001, 0.000000000000000000 ) ) ;
#614 = DIRECTION ( 'NONE',  ( 0.000000000000000000, 0.000000000000000000, 1.000000000000000000 ) ) ;
#615 = ORIENTED_EDGE ( 'NONE', *, *, #768, .F. ) ;
#616 = ORIENTED_EDGE ( 'NONE', *, *, #851, .T. ) ;
#617 = DIRECTION ( 'NONE',  ( -0.000000000000000000, 1.000000000000000000, -0.000000000000000000 ) ) ;
#618 = SURFACE_SIDE_STYLE ('',( #418 ) ) ;
#619 = CARTESIAN_POINT ( 'NONE',  ( 2.700000000000000107E-13, 22.68431457505125692, 2.100000000000000089 ) ) ;
#620 = DIRECTION ( 'NONE',  ( 0.000000000000000000, 0.000000000000000000, 1.000000000000000000 ) ) ;
#621 = ORIENTED_EDGE ( 'NONE', *, *, #611, .T. ) ;
#622 = ORIENTED_EDGE ( 'NONE', *, *, #508, .T. ) ;
#623 = PLANE ( 'NONE',  #570 ) ;
#624 = CARTESIAN_POINT ( 'NONE',  ( 2.700000000000000107E-13, 25.40000000000052438, 0.000000000000000000 ) ) ;
#625 = AXIS2_PLACEMENT_3D ( 'NONE', #532, #291, #667 ) ;
#626 = AXIS2_PLACEMENT_3D ( 'NONE', #750, #396, #413 ) ;
#627 = AXIS2_PLACEMENT_3D ( 'NONE', #124, #519, #313 ) ;
#628 = VECTOR ( 'NONE', #169, 1000.000000000000000 ) ;
#629 = VERTEX_POINT ( 'NONE', #121 ) ;
#630 = EDGE_CURVE ( 'NONE', #632, #637, #326, .T. ) ;
#631 = CARTESIAN_POINT ( 'NONE',  ( 2.700000000000000107E-13, 22.00000000000054001, 2.700000000000045031 ) ) ;
#632 = VERTEX_POINT ( 'NONE', #67 ) ;
#633 = DIRECTION ( 'NONE',  ( -0.000000000000000000, 1.000000000000000000, -0.000000000000000000 ) ) ;
#634 = EDGE_LOOP ( 'NONE', ( #131, #268, #207, #823 ) ) ;
#635 = ORIENTED_EDGE ( 'NONE', *, *, #597, .F. ) ;
#636 = DIRECTION ( 'NONE',  ( 0.000000000000000000, 0.000000000000000000, 1.000000000000000000 ) ) ;
#637 = VERTEX_POINT ( 'NONE', #714 ) ;
#638 = CIRCLE ( 'NONE', #871, 2.100000000000021405 ) ;
#639 = EDGE_CURVE ( 'NONE', #240, #222, #441, .T. ) ;
#640 = CARTESIAN_POINT ( 'NONE',  ( 2.704837354856632537E-13, 22.00000000000051159, 3.900000000000090061 ) ) ;
#641 = SHAPE_DEFINITION_REPRESENTATION ( #874, #590 ) ;
#642 = ORIENTED_EDGE ( 'NONE', *, *, #86, .F. ) ;
#643 =( NAMED_UNIT ( * ) SI_UNIT ( $, .STERADIAN. ) SOLID_ANGLE_UNIT ( ) );
#644 = EDGE_CURVE ( 'NONE', #704, #360, #377, .T. ) ;
#645 = EDGE_LOOP ( 'NONE', ( #466, #72, #65, #23 ) ) ;
#646 = DIRECTION ( 'NONE',  ( -0.000000000000000000, 1.000000000000000000, -0.000000000000000000 ) ) ;
#647 = AXIS2_PLACEMENT_3D ( 'NONE', #12, #550, #92 ) ;
#648 = AXIS2_PLACEMENT_3D ( 'NONE', #594, #680, #876 ) ;
#649 = MECHANICAL_DESIGN_GEOMETRIC_PRESENTATION_REPRESENTATION (  '', ( #318 ), #42 ) ;
#650 = DIRECTION ( 'NONE',  ( -0.000000000000000000, 1.000000000000000000, -0.000000000000000000 ) ) ;
#651 = DIRECTION ( 'NONE',  ( 0.000000000000000000, -0.000000000000000000, -1.000000000000000000 ) ) ;
#652 = EDGE_CURVE ( 'NONE', #803, #729, #122, .T. ) ;
#653 = DIRECTION ( 'NONE',  ( 0.000000000000000000, 0.000000000000000000, 1.000000000000000000 ) ) ;
#654 = DIRECTION ( 'NONE',  ( 0.000000000000000000, 0.000000000000000000, 1.000000000000000000 ) ) ;
#655 = FILL_AREA_STYLE_COLOUR ( '', #849 ) ;
#656 = DIRECTION ( 'NONE',  ( 0.000000000000000000, 0.000000000000000000, 1.000000000000000000 ) ) ;
#657 = FACE_OUTER_BOUND ( 'NONE', #741, .T. ) ;
#658 = CARTESIAN_POINT ( 'NONE',  ( 2.700000000000000107E-13, 31.50000000000054001, 0.000000000000000000 ) ) ;
#659 = DIRECTION ( 'NONE',  ( 1.000000000000000000, 0.000000000000000000, 1.224646799147353207E-16 ) ) ;
#660 = ORIENTED_EDGE ( 'NONE', *, *, #3, .T. ) ;
#661 = EDGE_CURVE ( 'NONE', #129, #443, #770, .T. ) ;
#662 = CONICAL_SURFACE ( 'NONE', #298, 2904.210877675870051, 1.239183768915979034 ) ;
#663 = FACE_OUTER_BOUND ( 'NONE', #15, .T. ) ;
#664 = CARTESIAN_POINT ( 'NONE',  ( 2.702715234575374602E-13, 22.96715728752589669, -2.217157287525381104 ) ) ;
#665 = VECTOR ( 'NONE', #108, 1000.000000000000000 ) ;
#666 = PRESENTATION_LAYER_ASSIGNMENT (  '', '', ( #257 ) ) ;
#667 = DIRECTION ( 'NONE',  ( 0.000000000000000000, 0.000000000000000000, 1.000000000000000000 ) ) ;
#668 = LINE ( 'NONE', #69, #7 ) ;
#669 = ORIENTED_EDGE ( 'NONE', *, *, #421, .F. ) ;
#670 = DIRECTION ( 'NONE',  ( -0.000000000000000000, 1.000000000000000000, -0.000000000000000000 ) ) ;
#671 = DIRECTION ( 'NONE',  ( 0.000000000000000000, 0.000000000000000000, 1.000000000000000000 ) ) ;
#672 = DIRECTION ( 'NONE',  ( -0.000000000000000000, 1.000000000000000000, -0.000000000000000000 ) ) ;
#673 = FACE_OUTER_BOUND ( 'NONE', #247, .T. ) ;
#674 = ORIENTED_EDGE ( 'NONE', *, *, #747, .F. ) ;
#675 = CARTESIAN_POINT ( 'NONE',  ( 2.700000000000000107E-13, 32.00000000000053291, 4.000000000000112799 ) ) ;
#676 = FILL_AREA_STYLE_COLOUR ( '', #792 ) ;
#677 = EDGE_CURVE ( 'NONE', #561, #238, #394, .T. ) ;
#678 = EDGE_CURVE ( 'NONE', #109, #189, #408, .T. ) ;
#679 = ORIENTED_EDGE ( 'NONE', *, *, #639, .F. ) ;
#680 = DIRECTION ( 'NONE',  ( -0.000000000000000000, 1.000000000000000000, -0.000000000000000000 ) ) ;
#681 = VERTEX_POINT ( 'NONE', #619 ) ;
#682 = CARTESIAN_POINT ( 'NONE',  ( 2.701831813833877050E-13, 22.00000000000048672, 0.000000000000000000 ) ) ;
#683 = AXIS2_PLACEMENT_3D ( 'NONE', #586, #324, #867 ) ;
#684 = CIRCLE ( 'NONE', #469, 2.000000000000112799 ) ;
#685 =( GEOMETRIC_REPRESENTATION_CONTEXT ( 3 ) GLOBAL_UNCERTAINTY_ASSIGNED_CONTEXT ( ( #761 ) ) GLOBAL_UNIT_ASSIGNED_CONTEXT ( ( #753, #438, #643 ) ) REPRESENTATION_CONTEXT ( 'NONE', 'WORKASPACE' ) );
#686 = DIRECTION ( 'NONE',  ( 0.000000000000000000, 0.000000000000000000, 1.000000000000000000 ) ) ;
#687 = EDGE_CURVE ( 'NONE', #258, #233, #557, .T. ) ;
#688 = ORIENTED_EDGE ( 'NONE', *, *, #421, .T. ) ;
#689 = CARTESIAN_POINT ( 'NONE',  ( 2.700000000000000107E-13, 32.00000000000053291, 0.000000000000000000 ) ) ;
#690 = EDGE_LOOP ( 'NONE', ( #187, #492, #493, #463 ) ) ;
#691 = DIRECTION ( 'NONE',  ( -0.000000000000000000, 1.000000000000000000, -0.000000000000000000 ) ) ;
#692 = DIRECTION ( 'NONE',  ( -0.000000000000000000, 1.000000000000000000, -0.000000000000000000 ) ) ;
#693 = ORIENTED_EDGE ( 'NONE', *, *, #747, .T. ) ;
#694 = DIRECTION ( 'NONE',  ( 0.000000000000000000, 0.000000000000000000, 1.000000000000000000 ) ) ;
#695 = DIRECTION ( 'NONE',  ( -0.000000000000000000, 1.000000000000000000, -0.000000000000000000 ) ) ;
#696 = ORIENTED_EDGE ( 'NONE', *, *, #678, .T. ) ;
#697 = ORIENTED_EDGE ( 'NONE', *, *, #818, .F. ) ;
#698 = FACE_OUTER_BOUND ( 'NONE', #877, .T. ) ;
#699 = ADVANCED_FACE ( 'NONE', ( #459 ), #348, .T. ) ;
#700 = DIRECTION ( 'NONE',  ( 0.000000000000000000, 0.000000000000000000, 1.000000000000000000 ) ) ;
#701 = CIRCLE ( 'NONE', #847, 1.500000000000113021 ) ;
#702 = FACE_OUTER_BOUND ( 'NONE', #119, .T. ) ;
#703 = ORIENTED_EDGE ( 'NONE', *, *, #597, .T. ) ;
#704 = VERTEX_POINT ( 'NONE', #270 ) ;
#705 = EDGE_CURVE ( 'NONE', #240, #681, #300, .T. ) ;
#706 = DIRECTION ( 'NONE',  ( 0.000000000000000000, 0.000000000000000000, 1.000000000000000000 ) ) ;
#707 = ORIENTED_EDGE ( 'NONE', *, *, #865, .T. ) ;
#708 = EDGE_CURVE ( 'NONE', #356, #129, #668, .T. ) ;
#709 = CARTESIAN_POINT ( 'NONE',  ( 2.700000000000315037, 22.00000000000052580, 0.000000000000000000 ) ) ;
#710 = ADVANCED_FACE ( 'NONE', ( #156 ), #579, .F. ) ;
#711 = FACE_OUTER_BOUND ( 'NONE', #603, .T. ) ;
#712 = VECTOR ( 'NONE', #200, 1000.000000000000000 ) ;
#713 = ORIENTED_EDGE ( 'NONE', *, *, #865, .F. ) ;
#714 = CARTESIAN_POINT ( 'NONE',  ( 2.702020667218593452E-13, 26.65000000000054925, -1.650000000000203970 ) ) ;
#715 = ADVANCED_FACE ( 'NONE', ( #482 ), #599, .T. ) ;
#716 = FACE_OUTER_BOUND ( 'NONE', #824, .T. ) ;
#717 = AXIS2_PLACEMENT_3D ( 'NONE', #658, #61, #188 ) ;
#718 = AXIS2_PLACEMENT_3D ( 'NONE', #738, #521, #671 ) ;
#719 = DIRECTION ( 'NONE',  ( 0.000000000000000000, 0.000000000000000000, 1.000000000000000000 ) ) ;
#720 = EDGE_CURVE ( 'NONE', #704, #422, #816, .T. ) ;
#721 = CARTESIAN_POINT ( 'NONE',  ( 2.702755455298081206E-13, 25.40000000000052438, 2.250000000000000000 ) ) ;
#722 = CARTESIAN_POINT ( 'NONE',  ( 2.700000000000000107E-13, 25.40000000000052438, -2.250000000000000000 ) ) ;
#723 = DIRECTION ( 'NONE',  ( -0.000000000000000000, 1.000000000000000000, -0.000000000000000000 ) ) ;
#724 = DIRECTION ( 'NONE',  ( -0.000000000000000000, 1.000000000000000000, -0.000000000000000000 ) ) ;
#725 = FACE_OUTER_BOUND ( 'NONE', #634, .T. ) ;
#726 = ORIENTED_EDGE ( 'NONE', *, *, #444, .F. ) ;
#727 = EDGE_CURVE ( 'NONE', #91, #632, #212, .T. ) ;
#728 = DIRECTION ( 'NONE',  ( 0.000000000000000000, 0.000000000000000000, -1.000000000000000000 ) ) ;
#729 = VERTEX_POINT ( 'NONE', #807 ) ;
#730 = CARTESIAN_POINT ( 'NONE',  ( 2.700000000000000107E-13, 23.00000000000054001, 0.000000000000000000 ) ) ;
#731 = DIRECTION ( 'NONE',  ( 0.000000000000000000, 0.000000000000000000, 1.000000000000000000 ) ) ;
#732 = DIRECTION ( 'NONE',  ( 0.000000000000000000, 0.7071067811868136932, 0.7071067811862814523 ) ) ;
#733 = CARTESIAN_POINT ( 'NONE',  ( 2.701831813833877050E-13, 22.68431457505127824, 2.500000000000000000 ) ) ;
#734 = AXIS2_PLACEMENT_3D ( 'NONE', #462, #134, #796 ) ;
#735 = FACE_OUTER_BOUND ( 'NONE', #110, .T. ) ;
#736 = CIRCLE ( 'NONE', #287, 1.650000000000203970 ) ;
#737 = CIRCLE ( 'NONE', #364, 2.250000000000000000 ) ;
#738 = CARTESIAN_POINT ( 'NONE',  ( 2.700000000000000107E-13, 22.00000000000054001, 0.000000000000000000 ) ) ;
#739 = ORIENTED_EDGE ( 'NONE', *, *, #141, .T. ) ;
#740 = CARTESIAN_POINT ( 'NONE',  ( 2.704893430831745554E-13, 22.68431457505127824, -2.500000000000000000 ) ) ;
#741 = EDGE_LOOP ( 'NONE', ( #564, #496, #143, #837 ) ) ;
#742 = DIRECTION ( 'NONE',  ( -0.000000000000000000, 1.000000000000000000, -0.000000000000000000 ) ) ;
#743 = CARTESIAN_POINT ( 'NONE',  ( 2.704587269131958653E-13, 22.00000000000051159, -2.100000000000021405 ) ) ;
#744 = DIRECTION ( 'NONE',  ( -0.000000000000000000, 1.000000000000000000, -0.000000000000000000 ) ) ;
#745 = ORIENTED_EDGE ( 'NONE', *, *, #239, .T. ) ;
#746 = DIRECTION ( 'NONE',  ( -0.000000000000000000, 1.000000000000000000, -0.000000000000000000 ) ) ;
#747 = EDGE_CURVE ( 'NONE', #629, #389, #737, .T. ) ;
#748 = CARTESIAN_POINT ( 'NONE',  ( 2.700000000000000107E-13, 32.00000000000053291, 0.000000000000000000 ) ) ;
#749 = ORIENTED_EDGE ( 'NONE', *, *, #802, .T. ) ;
#750 = CARTESIAN_POINT ( 'NONE',  ( 2.700000000000000107E-13, 22.00000000000054001, 0.000000000000000000 ) ) ;
#751 = ORIENTED_EDGE ( 'NONE', *, *, #117, .T. ) ;
#752 = FACE_OUTER_BOUND ( 'NONE', #775, .T. ) ;
#753 =( LENGTH_UNIT ( ) NAMED_UNIT ( * ) SI_UNIT ( .MILLI., .METRE. ) );
#754 = AXIS2_PLACEMENT_3D ( 'NONE', #296, #691, #878 ) ;
#755 = PRODUCT_DEFINITION ( 'UNKNOWN', '', #861, #96 ) ;
#756 = CIRCLE ( 'NONE', #607, 2.250000000000000000 ) ;
#757 = LINE ( 'NONE', #631, #665 ) ;
#758 = ORIENTED_EDGE ( 'NONE', *, *, #705, .F. ) ;
#759 = CARTESIAN_POINT ( 'NONE',  ( 2.704898587196589513E-13, 8.708218385331374378, -4.000000000000112799 ) ) ;
#760 = FACE_OUTER_BOUND ( 'NONE', #242, .T. ) ;
#761 = UNCERTAINTY_MEASURE_WITH_UNIT (LENGTH_MEASURE( 1.000000000000000082E-05 ), #753, 'distance_accuracy_value', 'NONE');
#762 = EDGE_CURVE ( 'NONE', #222, #476, #859, .T. ) ;
#763 = EDGE_LOOP ( 'NONE', ( #216, #458, #74, #739 ) ) ;
#764 = DIRECTION ( 'NONE',  ( -0.000000000000000000, 1.000000000000000000, -0.000000000000000000 ) ) ;
#765 = DIRECTION ( 'NONE',  ( -0.000000000000000000, 1.000000000000000000, -0.000000000000000000 ) ) ;
#766 = LINE ( 'NONE', #419, #160 ) ;
#767 = ORIENTED_EDGE ( 'NONE', *, *, #153, .T. ) ;
#768 = EDGE_CURVE ( 'NONE', #362, #189, #571, .T. ) ;
#769 = AXIS2_PLACEMENT_3D ( 'NONE', #423, #545, #830 ) ;
#770 = CIRCLE ( 'NONE', #63, 2.999999999997852829 ) ;
#771 = DIRECTION ( 'NONE',  ( 0.000000000000000000, 0.000000000000000000, 1.000000000000000000 ) ) ;
#772 = CONICAL_SURFACE ( 'NONE', #197, 2.000000000000112799, 0.7853981633974476129 ) ;
#773 = ORIENTED_EDGE ( 'NONE', *, *, #112, .T. ) ;
#774 = CIRCLE ( 'NONE', #9, 4.000000000000112799 ) ;
#775 = EDGE_LOOP ( 'NONE', ( #6, #33, #22, #430 ) ) ;
#776 = ADVANCED_FACE ( 'NONE', ( #400 ), #335, .T. ) ;
#777 = DIRECTION ( 'NONE',  ( -0.000000000000000000, 1.000000000000000000, -0.000000000000000000 ) ) ;
#778 = ORIENTED_EDGE ( 'NONE', *, *, #426, .T. ) ;
#779 = CONICAL_SURFACE ( 'NONE', #25, 2.700000000000045031, 1.047197551196502374 ) ;
#780 = AXIS2_PLACEMENT_3D ( 'NONE', #317, #862, #785 ) ;
#781 = DIRECTION ( 'NONE',  ( 0.000000000000000000, 0.000000000000000000, 1.000000000000000000 ) ) ;
#782 = ORIENTED_EDGE ( 'NONE', *, *, #609, .F. ) ;
#783 = EDGE_CURVE ( 'NONE', #263, #238, #543, .T. ) ;
#784 = ORIENTED_EDGE ( 'NONE', *, *, #37, .F. ) ;
#785 = DIRECTION ( 'NONE',  ( 0.000000000000000000, 0.000000000000000000, 1.000000000000000000 ) ) ;
#786 = ORIENTED_EDGE ( 'NONE', *, *, #478, .T. ) ;
#787 = EDGE_CURVE ( 'NONE', #34, #476, #149, .T. ) ;
#788 = LINE ( 'NONE', #449, #49 ) ;
#789 = CARTESIAN_POINT ( 'NONE',  ( 2.700000000000000107E-13, 22.96715728752589669, 0.000000000000000000 ) ) ;
#790 = ORIENTED_EDGE ( 'NONE', *, *, #708, .T. ) ;
#791 = AXIS2_PLACEMENT_3D ( 'NONE', #537, #650, #322 ) ;
#792 = COLOUR_RGB ( '',0.7921568627450980005, 0.8196078431372548767, 0.9333333333333333481 ) ;
#793 = FACE_OUTER_BOUND ( 'NONE', #488, .T. ) ;
#794 = ADVANCED_FACE ( 'NONE', ( #343 ), #286, .T. ) ;
#795 = DIRECTION ( 'NONE',  ( -0.000000000000000000, 1.000000000000000000, -0.000000000000000000 ) ) ;
#796 = DIRECTION ( 'NONE',  ( 0.000000000000000000, 0.000000000000000000, 1.000000000000000000 ) ) ;
#797 = EDGE_CURVE ( 'NONE', #233, #336, #244, .T. ) ;
#798 = CARTESIAN_POINT ( 'NONE',  ( 2.700000000000000107E-13, 21.90000000000052083, 0.000000000000000000 ) ) ;
#799 = DIRECTION ( 'NONE',  ( 0.000000000000000000, 0.000000000000000000, 1.000000000000000000 ) ) ;
#800 = CARTESIAN_POINT ( 'NONE',  ( 2.700000000000000107E-13, 22.00000000000051159, 0.000000000000000000 ) ) ;
#801 = FACE_OUTER_BOUND ( 'NONE', #390, .T. ) ;
#802 = EDGE_CURVE ( 'NONE', #263, #481, #411, .T. ) ;
#803 = VERTEX_POINT ( 'NONE', #526 ) ;
#804 = CARTESIAN_POINT ( 'NONE',  ( 2.702571758278209773E-13, 32.00000000000053291, -2.100000000000010747 ) ) ;
#805 = EDGE_LOOP ( 'NONE', ( #565, #425, #43, #299 ) ) ;
#806 = CARTESIAN_POINT ( 'NONE',  ( 2.700000000000000107E-13, 0.5000000428504450811, 0.000000000000000000 ) ) ;
#807 = CARTESIAN_POINT ( 'NONE',  ( 2.702143131898507909E-13, 32.00000000000054001, 1.500000000000113021 ) ) ;
#808 = ORIENTED_EDGE ( 'NONE', *, *, #454, .F. ) ;
#809 = CIRCLE ( 'NONE', #266, 4.000000000000112799 ) ;
#810 = CARTESIAN_POINT ( 'NONE',  ( 2.700000000000000107E-13, 1.532982882718685103, 2.999999999997852385 ) ) ;
#811 = AXIS2_PLACEMENT_3D ( 'NONE', #821, #746, #152 ) ;
#812 = FACE_OUTER_BOUND ( 'NONE', #645, .T. ) ;
#813 = AXIS2_PLACEMENT_3D ( 'NONE', #505, #179, #719 ) ;
#814 = AXIS2_PLACEMENT_3D ( 'NONE', #231, #219, #700 ) ;
#815 = EDGE_LOOP ( 'NONE', ( #549, #105, #370, #350 ) ) ;
#816 = LINE ( 'NONE', #281, #332 ) ;
#817 = EDGE_LOOP ( 'NONE', ( #745, #707, #76, #277 ) ) ;
#818 = EDGE_CURVE ( 'NONE', #209, #34, #451, .T. ) ;
#819 = CARTESIAN_POINT ( 'NONE',  ( 2.700000000000000107E-13, 31.50000000000054001, 2.000000000000112799 ) ) ;
#820 = CARTESIAN_POINT ( 'NONE',  ( 2.700000000000000107E-13, 22.00000000000051159, 0.000000000000000000 ) ) ;
#821 = CARTESIAN_POINT ( 'NONE',  ( 2.700000000000000107E-13, 21.90000000000052083, 0.000000000000000000 ) ) ;
#822 =( NAMED_UNIT ( * ) SI_UNIT ( $, .STERADIAN. ) SOLID_ANGLE_UNIT ( ) );
#823 = ORIENTED_EDGE ( 'NONE', *, *, #478, .F. ) ;
#824 = EDGE_LOOP ( 'NONE', ( #767, #499, #204, #850 ) ) ;
#825 = DIRECTION ( 'NONE',  ( 0.000000000000000000, 0.000000000000000000, 1.000000000000000000 ) ) ;
#826 = SURFACE_STYLE_USAGE ( .BOTH. , #618 ) ;
#827 = DIRECTION ( 'NONE',  ( 0.000000000000000000, 0.000000000000000000, 1.000000000000000000 ) ) ;
#828 = UNCERTAINTY_MEASURE_WITH_UNIT (LENGTH_MEASURE( 1.000000000000000082E-05 ), #479, 'distance_accuracy_value', 'NONE');
#829 = ORIENTED_EDGE ( 'NONE', *, *, #661, .F. ) ;
#830 = DIRECTION ( 'NONE',  ( 0.000000000000000000, 0.000000000000000000, 1.000000000000000000 ) ) ;
#831 =( NAMED_UNIT ( * ) SI_UNIT ( $, .STERADIAN. ) SOLID_ANGLE_UNIT ( ) );
#832 = VECTOR ( 'NONE', #383, 1000.000000000000000 ) ;
#833 = AXIS2_PLACEMENT_3D ( 'NONE', #740, #659, #475 ) ;
#834 = ADVANCED_FACE ( 'NONE', ( #812 ), #312, .F. ) ;
#835 = DIRECTION ( 'NONE',  ( 0.000000000000000000, 0.000000000000000000, 1.000000000000000000 ) ) ;
#836 = VERTEX_POINT ( 'NONE', #325 ) ;
#837 = ORIENTED_EDGE ( 'NONE', *, *, #182, .F. ) ;
#838 = CARTESIAN_POINT ( 'NONE',  ( 2.700000000000000107E-13, 32.00000000000054001, 0.000000000000000000 ) ) ;
#839 = DIRECTION ( 'NONE',  ( 0.000000000000000000, 0.000000000000000000, 1.000000000000000000 ) ) ;
#840 = CARTESIAN_POINT ( 'NONE',  ( 2.700000000000000107E-13, 1000.500000042850388, 0.000000000000000000 ) ) ;
#841 = EDGE_CURVE ( 'NONE', #681, #476, #40, .T. ) ;
#842 = ORIENTED_EDGE ( 'NONE', *, *, #107, .T. ) ;
#843 = ORIENTED_EDGE ( 'NONE', *, *, #403, .F. ) ;
#844 = DIRECTION ( 'NONE',  ( 0.000000000000000000, 0.000000000000000000, 1.000000000000000000 ) ) ;
#845 = ORIENTED_EDGE ( 'NONE', *, *, #644, .F. ) ;
#846 = ADVANCED_FACE ( 'NONE', ( #657 ), #60, .T. ) ;
#847 = AXIS2_PLACEMENT_3D ( 'NONE', #278, #742, #825 ) ;
#848 = CARTESIAN_POINT ( 'NONE',  ( 2.700000000000000107E-13, 1.532982882718685103, 0.000000000000000000 ) ) ;
#849 = COLOUR_RGB ( '',0.7921568627450980005, 0.8196078431372548767, 0.9333333333333333481 ) ;
#850 = ORIENTED_EDGE ( 'NONE', *, *, #120, .F. ) ;
#851 = EDGE_CURVE ( 'NONE', #34, #209, #638, .T. ) ;
#852 = DIRECTION ( 'NONE',  ( -0.000000000000000000, 1.000000000000000000, -0.000000000000000000 ) ) ;
#853 = APPLICATION_PROTOCOL_DEFINITION ( 'draft international standard', 'automotive_design', 1998, #542 ) ;
#854 = DIRECTION ( 'NONE',  ( 8.659560562353332950E-17, -0.7071067811866780239, 0.7071067811864170105 ) ) ;
#855 = EDGE_CURVE ( 'NONE', #514, #258, #140, .T. ) ;
#856 = CONICAL_SURFACE ( 'NONE', #717, 2.000000000000112799, 0.7853981633974476129 ) ;
#857 = ORIENTED_EDGE ( 'NONE', *, *, #375, .T. ) ;
#858 = CONICAL_SURFACE ( 'NONE', #102, 2904.210877675870051, 1.239183768915979034 ) ;
#859 = CIRCLE ( 'NONE', #833, 0.4000000000000001887 ) ;
#860 = CONICAL_SURFACE ( 'NONE', #432, 4.000000000000112799, 0.7853981633976000465 ) ;
#861 = PRODUCT_DEFINITION_FORMATION_WITH_SPECIFIED_SOURCE ( 'ANY', '', #271, .NOT_KNOWN. ) ;
#862 = DIRECTION ( 'NONE',  ( -0.000000000000000000, 1.000000000000000000, -0.000000000000000000 ) ) ;
#863 = CARTESIAN_POINT ( 'NONE',  ( 2.700000000000000107E-13, 21.90000000000052083, 4.000000000000112799 ) ) ;
#864 = CARTESIAN_POINT ( 'NONE',  ( 2.700000000000000107E-13, 23.00000000000054001, 2.250000000000000000 ) ) ;
#865 = EDGE_CURVE ( 'NONE', #362, #561, #147, .T. ) ;
#866 = EDGE_CURVE ( 'NONE', #476, #681, #415, .T. ) ;
#867 = DIRECTION ( 'NONE',  ( 0.000000000000000000, 0.000000000000000000, 1.000000000000000000 ) ) ;
#868 = LINE ( 'NONE', #259, #832 ) ;
#869 = EDGE_LOOP ( 'NONE', ( #726, #305, #778, #17 ) ) ;
#870 = CIRCLE ( 'NONE', #577, 2.000000000000112799 ) ;
#871 = AXIS2_PLACEMENT_3D ( 'NONE', #820, #236, #839 ) ;
#872 = CARTESIAN_POINT ( 'NONE',  ( 2.700000000000000107E-13, 32.00000000000053291, 0.000000000000000000 ) ) ;
#873 = CARTESIAN_POINT ( 'NONE',  ( 2.704898587196589513E-13, 21.90000000000052083, -4.000000000000112799 ) ) ;
#874 = PRODUCT_DEFINITION_SHAPE ( 'NONE', 'NONE',  #755 ) ;
#875 = ORIENTED_EDGE ( 'NONE', *, *, #358, .T. ) ;
#876 = DIRECTION ( 'NONE',  ( 0.000000000000000000, 0.000000000000000000, 1.000000000000000000 ) ) ;
#877 = EDGE_LOOP ( 'NONE', ( #555, #177 ) ) ;
#878 = DIRECTION ( 'NONE',  ( 0.000000000000000000, 0.000000000000000000, 1.000000000000000000 ) ) ;
ENDSEC;
END-ISO-10303-21;
