ISO-10303-21;
HEADER;
FILE_DESCRIPTION (( 'STEP AP214' ),
    '1' );
FILE_NAME ('99688-SI12-12+S9MT1203-120.STEP',
    '2022-11-03T01:08:00',
    ( 'User' ),
    ( 'GENUINE' ),
    'SwSTEP 2.0',
    'SolidWorks 2012',
    '' );
FILE_SCHEMA (( 'AUTOMOTIVE_DESIGN' ));
ENDSEC;

DATA;
#1 = DIRECTION ( 'NONE',  ( 2.265377428129336200E-014, -1.000000000000000000, -0.0000000000000000000 ) ) ;
#2 = LINE ( 'NONE', #291, #263 ) ;
#3 = CARTESIAN_POINT ( 'NONE',  ( 0.0000000000000000000, 7.105427357601001900E-015, 0.0000000000000000000 ) ) ;
#4 = DIRECTION ( 'NONE',  ( 1.000000000000000000, 2.312964634636151800E-014, 0.0000000000000000000 ) ) ;
#5 = DIRECTION ( 'NONE',  ( 2.265377428129336200E-014, -1.000000000000000000, -0.0000000000000000000 ) ) ;
#6 = DIRECTION ( 'NONE',  ( 2.265377428129336200E-014, -1.000000000000000000, -0.0000000000000000000 ) ) ;
#7 = CARTESIAN_POINT ( 'NONE',  ( 5.999999999999415600, 1.430280730453479300E-013, 0.0000000000000000000 ) ) ;
#8 = LINE ( 'NONE', #7, #266 ) ;
#9 = DIRECTION ( 'NONE',  ( 0.8660254037844908900, 0.4999999999999095200, 1.060575238724984700E-016 ) ) ;
#10 = CARTESIAN_POINT ( 'NONE',  ( 6.719999999998059100, 39.99999999999807400, 8.229626490268947000E-016 ) ) ;
#11 = LINE ( 'NONE', #10, #268 ) ;
#12 = CARTESIAN_POINT ( 'NONE',  ( -9.061509712516874900E-013, 39.99999999999793200, 0.0000000000000000000 ) ) ;
#13 = DIRECTION ( 'NONE',  ( 1.000000000000000000, 0.0000000000000000000, -1.224646799147352000E-016 ) ) ;
#14 = DIRECTION ( 'NONE',  ( 1.224646799147353200E-016, 2.774287216219254600E-030, 1.000000000000000000 ) ) ;
#15 = CARTESIAN_POINT ( 'NONE',  ( -6.239999999999844800, 39.99999999999782600, 7.641796026678183200E-016 ) ) ;
#16 = DIRECTION ( 'NONE',  ( 1.000000000000000000, 2.191229653865461200E-014, 0.0000000000000000000 ) ) ;
#17 = PRODUCT ( '99688-SI12-12+S9MT1203-120', '99688-SI12-12+S9MT1203-120', '', ( #434 ) ) ;
#18 = ORIENTED_EDGE ( 'NONE', *, *, #211, .F. ) ;
#19 = ORIENTED_EDGE ( 'NONE', *, *, #253, .T. ) ;
#20 = EDGE_LOOP ( 'NONE', ( #74, #82, #48, #87 ) ) ;
#21 = EDGE_LOOP ( 'NONE', ( #470, #469, #476, #467 ) ) ;
#22 = ORIENTED_EDGE ( 'NONE', *, *, #206, .F. ) ;
#23 = EDGE_LOOP ( 'NONE', ( #512, #514, #513, #515 ) ) ;
#24 = EDGE_LOOP ( 'NONE', ( #494, #493, #492 ) ) ;
#25 = EDGE_LOOP ( 'NONE', ( #29, #89, #75, #50 ) ) ;
#26 = CARTESIAN_POINT ( 'NONE',  ( 5.699999999998021300, 84.99999999999721500, 0.0000000000000000000 ) ) ;
#27 = CARTESIAN_POINT ( 'NONE',  ( -6.359999999999788000, 39.79215390308952000, 0.0000000000000000000 ) ) ;
#28 = EDGE_LOOP ( 'NONE', ( #497, #495, #496 ) ) ;
#29 = ORIENTED_EDGE ( 'NONE', *, *, #213, .T. ) ;
#30 = EDGE_LOOP ( 'NONE', ( #53, #33, #37, #22 ) ) ;
#31 = VERTEX_POINT ( 'NONE', #34 ) ;
#32 = ORIENTED_EDGE ( 'NONE', *, *, #205, .T. ) ;
#33 = ORIENTED_EDGE ( 'NONE', *, *, #214, .T. ) ;
#34 = CARTESIAN_POINT ( 'NONE',  ( -7.750000000001022300, 16.14262854856482600, 0.0000000000000000000 ) ) ;
#35 = EDGE_LOOP ( 'NONE', ( #482, #481, #483, #479 ) ) ;
#36 = EDGE_LOOP ( 'NONE', ( #78, #51 ) ) ;
#37 = ORIENTED_EDGE ( 'NONE', *, *, #211, .T. ) ;
#38 = ORIENTED_EDGE ( 'NONE', *, *, #218, .F. ) ;
#39 = VERTEX_POINT ( 'NONE', #84 ) ;
#40 = VERTEX_POINT ( 'NONE', #27 ) ;
#41 = VERTEX_POINT ( 'NONE', #70 ) ;
#42 = ORIENTED_EDGE ( 'NONE', *, *, #209, .F. ) ;
#43 = EDGE_LOOP ( 'NONE', ( #67, #64, #63, #76 ) ) ;
#44 = VERTEX_POINT ( 'NONE', #26 ) ;
#45 = VERTEX_POINT ( 'NONE', #546 ) ;
#46 = VERTEX_POINT ( 'NONE', #545 ) ;
#47 = ORIENTED_EDGE ( 'NONE', *, *, #216, .T. ) ;
#48 = ORIENTED_EDGE ( 'NONE', *, *, #217, .F. ) ;
#49 = VERTEX_POINT ( 'NONE', #544 ) ;
#50 = ORIENTED_EDGE ( 'NONE', *, *, #205, .F. ) ;
#51 = ORIENTED_EDGE ( 'NONE', *, *, #234, .F. ) ;
#52 = VERTEX_POINT ( 'NONE', #543 ) ;
#53 = ORIENTED_EDGE ( 'NONE', *, *, #212, .F. ) ;
#54 = VERTEX_POINT ( 'NONE', #542 ) ;
#55 = ORIENTED_EDGE ( 'NONE', *, *, #206, .T. ) ;
#56 = EDGE_LOOP ( 'NONE', ( #508, #503, #19, #502 ) ) ;
#57 = EDGE_LOOP ( 'NONE', ( #471, #472 ) ) ;
#58 = EDGE_LOOP ( 'NONE', ( #474, #473 ) ) ;
#59 = VERTEX_POINT ( 'NONE', #541 ) ;
#60 = EDGE_LOOP ( 'NONE', ( #38, #79, #47, #18 ) ) ;
#61 = VERTEX_POINT ( 'NONE', #540 ) ;
#62 = EDGE_LOOP ( 'NONE', ( #466, #83, #55, #468 ) ) ;
#63 = ORIENTED_EDGE ( 'NONE', *, *, #207, .F. ) ;
#64 = ORIENTED_EDGE ( 'NONE', *, *, #215, .T. ) ;
#65 = VERTEX_POINT ( 'NONE', #539 ) ;
#66 = EDGE_LOOP ( 'NONE', ( #486, #485, #484, #488 ) ) ;
#67 = ORIENTED_EDGE ( 'NONE', *, *, #212, .T. ) ;
#68 = VERTEX_POINT ( 'NONE', #538 ) ;
#69 = EDGE_LOOP ( 'NONE', ( #500, #499, #501, #498 ) ) ;
#70 = CARTESIAN_POINT ( 'NONE',  ( -6.719999999999872700, 39.99999999999776900, 0.0000000000000000000 ) ) ;
#71 = ORIENTED_EDGE ( 'NONE', *, *, #234, .T. ) ;
#72 = EDGE_LOOP ( 'NONE', ( #504, #506, #505, #507 ) ) ;
#73 = VERTEX_POINT ( 'NONE', #537 ) ;
#74 = ORIENTED_EDGE ( 'NONE', *, *, #208, .T. ) ;
#75 = ORIENTED_EDGE ( 'NONE', *, *, #208, .F. ) ;
#76 = ORIENTED_EDGE ( 'NONE', *, *, #255, .F. ) ;
#77 = VERTEX_POINT ( 'NONE', #536 ) ;
#78 = ORIENTED_EDGE ( 'NONE', *, *, #213, .F. ) ;
#79 = ORIENTED_EDGE ( 'NONE', *, *, #235, .T. ) ;
#80 = EDGE_LOOP ( 'NONE', ( #478, #477, #480, #475 ) ) ;
#81 = VERTEX_POINT ( 'NONE', #535 ) ;
#82 = ORIENTED_EDGE ( 'NONE', *, *, #218, .T. ) ;
#83 = ORIENTED_EDGE ( 'NONE', *, *, #236, .F. ) ;
#84 = CARTESIAN_POINT ( 'NONE',  ( -5.999999999999844600, 39.99999999999779700, 7.568317218729310100E-016 ) ) ;
#85 = ORIENTED_EDGE ( 'NONE', *, *, #235, .F. ) ;
#86 = EDGE_LOOP ( 'NONE', ( #490, #489, #491, #487 ) ) ;
#87 = ORIENTED_EDGE ( 'NONE', *, *, #216, .F. ) ;
#88 = EDGE_LOOP ( 'NONE', ( #42, #71, #32, #85 ) ) ;
#89 = ORIENTED_EDGE ( 'NONE', *, *, #209, .T. ) ;
#90 = VERTEX_POINT ( 'NONE', #534 ) ;
#91 = AXIS2_PLACEMENT_3D ( 'NONE', #296, #297, #298 ) ;
#92 = AXIS2_PLACEMENT_3D ( 'NONE', #320, #321, #322 ) ;
#93 = PRODUCT_DEFINITION_FORMATION_WITH_SPECIFIED_SOURCE ( 'ANY', '', #17, .NOT_KNOWN. ) ;
#94 = AXIS2_PLACEMENT_3D ( 'NONE', #293, #294, #295 ) ;
#95 = FACE_OUTER_BOUND ( 'NONE', #80, .T. ) ;
#96 = FACE_OUTER_BOUND ( 'NONE', #35, .T. ) ;
#97 = AXIS2_PLACEMENT_3D ( 'NONE', #323, #324, #325 ) ;
#98 = AXIS2_PLACEMENT_3D ( 'NONE', #430, #431, #432 ) ;
#99 = MECHANICAL_DESIGN_GEOMETRIC_PRESENTATION_REPRESENTATION (  '', ( #102 ), #161 ) ;
#100 = PRESENTATION_LAYER_ASSIGNMENT (  '', '', ( #102 ) ) ;
#101 = CYLINDRICAL_SURFACE ( 'NONE', #92, 6.000000000000649300 ) ;
#102 = STYLED_ITEM ( 'NONE', ( #426 ), #155 ) ;
#103 = FACE_OUTER_BOUND ( 'NONE', #43, .T. ) ;
#104 = MECHANICAL_DESIGN_GEOMETRIC_PRESENTATION_REPRESENTATION (  '', ( #115 ), #159 ) ;
#105 = VECTOR ( 'NONE', #405, 1000.000000000000000 ) ;
#106 = AXIS2_PLACEMENT_3D ( 'NONE', #317, #318, #319 ) ;
#107 = PRESENTATION_LAYER_ASSIGNMENT (  '', '', ( #115 ) ) ;
#108 = FACE_OUTER_BOUND ( 'NONE', #23, .T. ) ;
#109 = FACE_OUTER_BOUND ( 'NONE', #56, .T. ) ;
#110 = VECTOR ( 'NONE', #402, 1000.000000000000000 ) ;
#111 = AXIS2_PLACEMENT_3D ( 'NONE', #299, #300, #301 ) ;
#112 = VECTOR ( 'NONE', #399, 1000.000000000000000 ) ;
#113 = VECTOR ( 'NONE', #393, 1000.000000000000000 ) ;
#114 = FACE_OUTER_BOUND ( 'NONE', #72, .T. ) ;
#115 = STYLED_ITEM ( 'NONE', ( #411 ), #464 ) ;
#116 = AXIS2_PLACEMENT_3D ( 'NONE', #302, #303, #304 ) ;
#117 = AXIS2_PLACEMENT_3D ( 'NONE', #305, #306, #307 ) ;
#118 = VECTOR ( 'NONE', #389, 1000.000000000000000 ) ;
#119 = AXIS2_PLACEMENT_3D ( 'NONE', #390, #394, #395 ) ;
#120 = AXIS2_PLACEMENT_3D ( 'NONE', #384, #385, #386 ) ;
#121 = CYLINDRICAL_SURFACE ( 'NONE', #117, 7.750000000000933500 ) ;
#122 = AXIS2_PLACEMENT_3D ( 'NONE', #375, #382, #383 ) ;
#123 = AXIS2_PLACEMENT_3D ( 'NONE', #311, #312, #313 ) ;
#124 = VECTOR ( 'NONE', #381, 1000.000000000000300 ) ;
#125 = VECTOR ( 'NONE', #378, 1000.000000000000000 ) ;
#126 = VECTOR ( 'NONE', #372, 1000.000000000000000 ) ;
#127 = FACE_OUTER_BOUND ( 'NONE', #28, .T. ) ;
#128 = AXIS2_PLACEMENT_3D ( 'NONE', #308, #309, #310 ) ;
#129 = FACE_OUTER_BOUND ( 'NONE', #62, .T. ) ;
#130 = VECTOR ( 'NONE', #369, 1000.000000000000100 ) ;
#131 = AXIS2_PLACEMENT_3D ( 'NONE', #363, #373, #374 ) ;
#132 = VECTOR ( 'NONE', #366, 1000.000000000000000 ) ;
#133 = CYLINDRICAL_SURFACE ( 'NONE', #123, 6.000000000000649300 ) ;
#134 = FACE_OUTER_BOUND ( 'NONE', #69, .T. ) ;
#135 = AXIS2_PLACEMENT_3D ( 'NONE', #360, #361, #362 ) ;
#136 = AXIS2_PLACEMENT_3D ( 'NONE', #357, #358, #359 ) ;
#137 = FACE_OUTER_BOUND ( 'NONE', #21, .T. ) ;
#138 = FACE_OUTER_BOUND ( 'NONE', #24, .T. ) ;
#139 = AXIS2_PLACEMENT_3D ( 'NONE', #351, #352, #353 ) ;
#140 = FACE_OUTER_BOUND ( 'NONE', #66, .T. ) ;
#141 = AXIS2_PLACEMENT_3D ( 'NONE', #354, #355, #356 ) ;
#142 = AXIS2_PLACEMENT_3D ( 'NONE', #345, #346, #347 ) ;
#143 = AXIS2_PLACEMENT_3D ( 'NONE', #348, #349, #350 ) ;
#144 = AXIS2_PLACEMENT_3D ( 'NONE', #333, #334, #335 ) ;
#145 = AXIS2_PLACEMENT_3D ( 'NONE', #336, #337, #338 ) ;
#146 = AXIS2_PLACEMENT_3D ( 'NONE', #339, #340, #341 ) ;
#147 = FACE_OUTER_BOUND ( 'NONE', #57, .T. ) ;
#148 = AXIS2_PLACEMENT_3D ( 'NONE', #329, #330, #331 ) ;
#149 = FACE_BOUND ( 'NONE', #58, .T. ) ;
#150 = AXIS2_PLACEMENT_3D ( 'NONE', #342, #343, #344 ) ;
#151 = AXIS2_PLACEMENT_3D ( 'NONE', #314, #315, #316 ) ;
#152 = CYLINDRICAL_SURFACE ( 'NONE', #153, 7.750000000000933500 ) ;
#153 = AXIS2_PLACEMENT_3D ( 'NONE', #326, #327, #328 ) ;
#154 = FACE_OUTER_BOUND ( 'NONE', #86, .T. ) ;
#155 = ADVANCED_BREP_SHAPE_REPRESENTATION ( '99688-SI12-12+S9MT1203-120', ( #464, #98 ), #160 ) ;
#156 = UNCERTAINTY_MEASURE_WITH_UNIT (LENGTH_MEASURE( 1.000000000000000100E-005 ), #412, 'distance_accuracy_value', 'NONE');
#157 = UNCERTAINTY_MEASURE_WITH_UNIT (LENGTH_MEASURE( 1.000000000000000100E-005 ), #417, 'distance_accuracy_value', 'NONE');
#158 = UNCERTAINTY_MEASURE_WITH_UNIT (LENGTH_MEASURE( 1.000000000000000100E-005 ), #427, 'distance_accuracy_value', 'NONE');
#159 =( GEOMETRIC_REPRESENTATION_CONTEXT ( 3 ) GLOBAL_UNCERTAINTY_ASSIGNED_CONTEXT ( ( #156 ) ) GLOBAL_UNIT_ASSIGNED_CONTEXT ( ( #412, #413, #414 ) ) REPRESENTATION_CONTEXT ( 'NONE', 'WORKASPACE' ) );
#160 =( GEOMETRIC_REPRESENTATION_CONTEXT ( 3 ) GLOBAL_UNCERTAINTY_ASSIGNED_CONTEXT ( ( #157 ) ) GLOBAL_UNIT_ASSIGNED_CONTEXT ( ( #417, #418, #419 ) ) REPRESENTATION_CONTEXT ( 'NONE', 'WORKASPACE' ) );
#161 =( GEOMETRIC_REPRESENTATION_CONTEXT ( 3 ) GLOBAL_UNCERTAINTY_ASSIGNED_CONTEXT ( ( #158 ) ) GLOBAL_UNIT_ASSIGNED_CONTEXT ( ( #427, #428, #429 ) ) REPRESENTATION_CONTEXT ( 'NONE', 'WORKASPACE' ) );
#162 = EDGE_CURVE ( 'NONE', #81, #65, #198, .T. ) ;
#163 = EDGE_CURVE ( 'NONE', #46, #59, #256, .T. ) ;
#164 = COLOUR_RGB ( '',0.7921568627450980000, 0.8196078431372548800, 0.9333333333333333500 ) ;
#165 = PRODUCT_RELATED_PRODUCT_CATEGORY ( 'part', '', ( #17 ) ) ;
#166 = PRODUCT_DEFINITION ( 'UNKNOWN', '', #93, #463 ) ;
#167 = TOROIDAL_SURFACE ( 'NONE', #120, 6.239999999998938000, 0.2399999999999996000 ) ;
#168 = CIRCLE ( 'NONE', #119, 7.750000000000657300 ) ;
#169 = COLOUR_RGB ( '',0.7921568627450980000, 0.8196078431372548800, 0.9333333333333333500 ) ;
#170 = CONICAL_SURFACE ( 'NONE', #122, 6.719999999998965900, 1.047197551196724900 ) ;
#171 = CIRCLE ( 'NONE', #131, 5.999999999999921800 ) ;
#172 = CIRCLE ( 'NONE', #135, 5.999999999999921800 ) ;
#173 = CIRCLE ( 'NONE', #136, 6.000000000001376700 ) ;
#174 = CIRCLE ( 'NONE', #141, 7.750000000000657300 ) ;
#175 = CIRCLE ( 'NONE', #139, 7.750000000001209700 ) ;
#176 = CIRCLE ( 'NONE', #143, 7.630000000001192700 ) ;
#177 = CIRCLE ( 'NONE', #142, 6.719999999998965900 ) ;
#178 = CIRCLE ( 'NONE', #150, 6.359999999998886500 ) ;
#179 = CIRCLE ( 'NONE', #145, 5.699999999999946000 ) ;
#180 = CONICAL_SURFACE ( 'NONE', #148, 7.750000000001209700, 0.7853981633971917100 ) ;
#181 = CONICAL_SURFACE ( 'NONE', #97, 6.000000000001376700, 0.4124839038990536500 ) ;
#182 = CIRCLE ( 'NONE', #146, 5.999999999999893400 ) ;
#183 = CONICAL_SURFACE ( 'NONE', #151, 1732.050807568146600, 1.047197551196415100 ) ;
#184 = CONICAL_SURFACE ( 'NONE', #128, 6.000000000001376700, 0.4124839038990536500 ) ;
#185 = CONICAL_SURFACE ( 'NONE', #106, 1732.050807568146600, 1.047197551196415100 ) ;
#186 = TOROIDAL_SURFACE ( 'NONE', #91, 6.239999999998938000, 0.2399999999999996000 ) ;
#187 = CONICAL_SURFACE ( 'NONE', #111, 6.719999999998965900, 1.047197551196724900 ) ;
#188 = CONICAL_SURFACE ( 'NONE', #94, 5.999999999999893400, 0.7853981633973224900 ) ;
#189 = CONICAL_SURFACE ( 'NONE', #116, 7.750000000001209700, 0.7853981633971917100 ) ;
#190 = CIRCLE ( 'NONE', #267, 5.999999999998938600 ) ;
#191 = CIRCLE ( 'NONE', #281, 0.2399999999999997700 ) ;
#192 = CIRCLE ( 'NONE', #269, 5.699999999999946000 ) ;
#193 = CIRCLE ( 'NONE', #271, 6.359999999998886500 ) ;
#194 = CIRCLE ( 'NONE', #274, 5.999999999998938600 ) ;
#195 = CIRCLE ( 'NONE', #277, 5.999999999999893400 ) ;
#196 = CIRCLE ( 'NONE', #278, 6.719999999998965900 ) ;
#197 = CIRCLE ( 'NONE', #285, 6.000000000001376700 ) ;
#198 = CIRCLE ( 'NONE', #270, 7.630000000001192700 ) ;
#199 = CONICAL_SURFACE ( 'NONE', #286, 5.999999999999893400, 0.7853981633973224900 ) ;
#200 = CIRCLE ( 'NONE', #280, 0.2399999999999997700 ) ;
#201 = ADVANCED_FACE ( 'NONE', ( #282 ), #289, .T. ) ;
#202 = ADVANCED_FACE ( 'NONE', ( #260 ), #199, .T. ) ;
#203 = ADVANCED_FACE ( 'NONE', ( #287 ), #521, .T. ) ;
#204 = EDGE_CURVE ( 'NONE', #45, #61, #197, .T. ) ;
#205 = EDGE_CURVE ( 'NONE', #44, #510, #460, .T. ) ;
#206 = EDGE_CURVE ( 'NONE', #77, #509, #200, .T. ) ;
#207 = EDGE_CURVE ( 'NONE', #41, #68, #196, .T. ) ;
#208 = EDGE_CURVE ( 'NONE', #510, #511, #195, .T. ) ;
#209 = EDGE_CURVE ( 'NONE', #49, #511, #448, .T. ) ;
#210 = EDGE_CURVE ( 'NONE', #46, #73, #445, .T. ) ;
#211 = EDGE_CURVE ( 'NONE', #39, #509, #194, .T. ) ;
#212 = EDGE_CURVE ( 'NONE', #40, #77, #193, .T. ) ;
#213 = EDGE_CURVE ( 'NONE', #44, #49, #192, .T. ) ;
#214 = EDGE_CURVE ( 'NONE', #40, #39, #191, .T. ) ;
#215 = EDGE_CURVE ( 'NONE', #77, #68, #11, .T. ) ;
#216 = EDGE_CURVE ( 'NONE', #510, #509, #8, .T. ) ;
#217 = EDGE_CURVE ( 'NONE', #509, #39, #190, .T. ) ;
#218 = EDGE_CURVE ( 'NONE', #511, #39, #2, .T. ) ;
#219 = ADVANCED_FACE ( 'NONE', ( #276 ), #262, .T. ) ;
#220 = ADVANCED_FACE ( 'NONE', ( #264 ), #188, .T. ) ;
#221 = ADVANCED_FACE ( 'NONE', ( #273 ), #186, .F. ) ;
#222 = ADVANCED_FACE ( 'NONE', ( #103 ), #187, .F. ) ;
#223 = ADVANCED_FACE ( 'NONE', ( #108 ), #189, .T. ) ;
#224 = ADVANCED_FACE ( 'NONE', ( #114 ), #121, .T. ) ;
#225 = ADVANCED_FACE ( 'NONE', ( #109 ), #184, .T. ) ;
#226 = ADVANCED_FACE ( 'NONE', ( #134 ), #133, .T. ) ;
#227 = ADVANCED_FACE ( 'NONE', ( #127 ), #183, .T. ) ;
#228 = ADVANCED_FACE ( 'NONE', ( #138 ), #185, .T. ) ;
#229 = ADVANCED_FACE ( 'NONE', ( #154 ), #101, .T. ) ;
#230 = ADVANCED_FACE ( 'NONE', ( #140 ), #181, .T. ) ;
#231 = ADVANCED_FACE ( 'NONE', ( #96 ), #152, .T. ) ;
#232 = ADVANCED_FACE ( 'NONE', ( #95 ), #180, .T. ) ;
#233 = ADVANCED_FACE ( 'NONE', ( #149, #147 ), #332, .T. ) ;
#234 = EDGE_CURVE ( 'NONE', #49, #44, #179, .T. ) ;
#235 = EDGE_CURVE ( 'NONE', #511, #510, #182, .T. ) ;
#236 = EDGE_CURVE ( 'NONE', #77, #40, #178, .T. ) ;
#237 = EDGE_CURVE ( 'NONE', #68, #41, #177, .T. ) ;
#238 = EDGE_CURVE ( 'NONE', #65, #81, #176, .T. ) ;
#239 = EDGE_CURVE ( 'NONE', #59, #46, #175, .T. ) ;
#240 = EDGE_CURVE ( 'NONE', #31, #73, #174, .T. ) ;
#241 = EDGE_CURVE ( 'NONE', #61, #45, #173, .T. ) ;
#242 = EDGE_CURVE ( 'NONE', #90, #52, #172, .T. ) ;
#243 = EDGE_CURVE ( 'NONE', #54, #90, #364, .T. ) ;
#244 = EDGE_CURVE ( 'NONE', #54, #52, #367, .T. ) ;
#245 = EDGE_CURVE ( 'NONE', #45, #52, #370, .T. ) ;
#246 = EDGE_CURVE ( 'NONE', #52, #90, #171, .T. ) ;
#247 = EDGE_CURVE ( 'NONE', #61, #90, #376, .T. ) ;
#248 = EDGE_CURVE ( 'NONE', #61, #31, #379, .T. ) ;
#249 = ADVANCED_FACE ( 'NONE', ( #137 ), #170, .F. ) ;
#250 = ADVANCED_FACE ( 'NONE', ( #129 ), #167, .F. ) ;
#251 = EDGE_CURVE ( 'NONE', #81, #46, #387, .T. ) ;
#252 = EDGE_CURVE ( 'NONE', #59, #31, #391, .T. ) ;
#253 = EDGE_CURVE ( 'NONE', #73, #31, #168, .T. ) ;
#254 = EDGE_CURVE ( 'NONE', #45, #73, #397, .T. ) ;
#255 = EDGE_CURVE ( 'NONE', #40, #41, #400, .T. ) ;
#256 = CIRCLE ( 'NONE', #261, 7.750000000001209700 ) ;
#257 = EDGE_CURVE ( 'NONE', #65, #59, #403, .T. ) ;
#258 = APPLICATION_CONTEXT ( 'automotive_design' ) ;
#259 = APPLICATION_CONTEXT ( 'automotive_design' ) ;
#260 = FACE_OUTER_BOUND ( 'NONE', #88, .T. ) ;
#261 = AXIS2_PLACEMENT_3D ( 'NONE', #530, #529, #528 ) ;
#262 = CYLINDRICAL_SURFACE ( 'NONE', #283, 5.999999999999415600 ) ;
#263 = VECTOR ( 'NONE', #290, 1000.000000000000000 ) ;
#264 = FACE_OUTER_BOUND ( 'NONE', #25, .T. ) ;
#265 = CLOSED_SHELL ( 'NONE', ( #220, #219, #221, #222, #223, #224, #225, #226, #227, #228, #229, #230, #231, #232, #233, #249, #250, #201, #202, #203 ) ) ;
#266 = VECTOR ( 'NONE', #6, 1000.000000000000000 ) ;
#267 = AXIS2_PLACEMENT_3D ( 'NONE', #12, #5, #4 ) ;
#268 = VECTOR ( 'NONE', #9, 1000.000000000000000 ) ;
#269 = AXIS2_PLACEMENT_3D ( 'NONE', #437, #436, #16 ) ;
#270 = AXIS2_PLACEMENT_3D ( 'NONE', #533, #532, #531 ) ;
#271 = AXIS2_PLACEMENT_3D ( 'NONE', #440, #439, #438 ) ;
#272 = VECTOR ( 'NONE', #443, 1000.000000000000000 ) ;
#273 = FACE_OUTER_BOUND ( 'NONE', #30, .T. ) ;
#274 = AXIS2_PLACEMENT_3D ( 'NONE', #449, #442, #441 ) ;
#275 = VECTOR ( 'NONE', #446, 999.9999999999998900 ) ;
#276 = FACE_OUTER_BOUND ( 'NONE', #20, .T. ) ;
#277 = AXIS2_PLACEMENT_3D ( 'NONE', #452, #451, #450 ) ;
#278 = AXIS2_PLACEMENT_3D ( 'NONE', #455, #454, #453 ) ;
#279 = VECTOR ( 'NONE', #458, 1000.000000000000000 ) ;
#280 = AXIS2_PLACEMENT_3D ( 'NONE', #461, #457, #456 ) ;
#281 = AXIS2_PLACEMENT_3D ( 'NONE', #15, #14, #13 ) ;
#282 = FACE_OUTER_BOUND ( 'NONE', #60, .T. ) ;
#283 = AXIS2_PLACEMENT_3D ( 'NONE', #3, #1, #292 ) ;
#284 = AXIS2_PLACEMENT_3D ( 'NONE', #520, #519, #518 ) ;
#285 = AXIS2_PLACEMENT_3D ( 'NONE', #517, #516, #462 ) ;
#286 = AXIS2_PLACEMENT_3D ( 'NONE', #524, #523, #522 ) ;
#287 = FACE_OUTER_BOUND ( 'NONE', #36, .T. ) ;
#288 = AXIS2_PLACEMENT_3D ( 'NONE', #527, #526, #525 ) ;
#289 = CYLINDRICAL_SURFACE ( 'NONE', #288, 5.999999999999415600 ) ;
#290 = DIRECTION ( 'NONE',  ( 2.265377428129336200E-014, -1.000000000000000000, -0.0000000000000000000 ) ) ;
#291 = CARTESIAN_POINT ( 'NONE',  ( -5.999999999999415600, -1.288172183301459200E-013, 7.347880794883403800E-016 ) ) ;
#292 = DIRECTION ( 'NONE',  ( 1.000000000000000000, 2.265377428129336200E-014, 0.0000000000000000000 ) ) ;
#293 = CARTESIAN_POINT ( 'NONE',  ( -1.918774681625481000E-012, 84.69999999999707500, 0.0000000000000000000 ) ) ;
#294 = DIRECTION ( 'NONE',  ( 2.265377428129336200E-014, -1.000000000000000000, -0.0000000000000000000 ) ) ;
#295 = DIRECTION ( 'NONE',  ( 1.000000000000000000, 2.312964634635783900E-014, 0.0000000000000000000 ) ) ;
#296 = CARTESIAN_POINT ( 'NONE',  ( -9.063930161978817100E-013, 39.99999999999796800, 0.0000000000000000000 ) ) ;
#297 = DIRECTION ( 'NONE',  ( 2.265377428129336200E-014, -1.000000000000000000, -0.0000000000000000000 ) ) ;
#298 = DIRECTION ( 'NONE',  ( 1.000000000000000000, 2.265377428129336200E-014, 0.0000000000000000000 ) ) ;
#299 = CARTESIAN_POINT ( 'NONE',  ( -9.061509712516871800E-013, 39.99999999999791800, 0.0000000000000000000 ) ) ;
#300 = DIRECTION ( 'NONE',  ( -2.265377428129336200E-014, 1.000000000000000000, 0.0000000000000000000 ) ) ;
#301 = DIRECTION ( 'NONE',  ( -1.000000000000000000, -2.271661694731882800E-014, 0.0000000000000000000 ) ) ;
#302 = CARTESIAN_POINT ( 'NONE',  ( -9.034325183379315300E-013, 39.87999999999789900, 0.0000000000000000000 ) ) ;
#303 = DIRECTION ( 'NONE',  ( 2.265377428129336200E-014, -1.000000000000000000, -0.0000000000000000000 ) ) ;
#304 = DIRECTION ( 'NONE',  ( 1.000000000000000000, 2.238352872227788700E-014, 0.0000000000000000000 ) ) ;
#305 = CARTESIAN_POINT ( 'NONE',  ( 0.0000000000000000000, 7.105427357601001900E-015, 0.0000000000000000000 ) ) ;
#306 = DIRECTION ( 'NONE',  ( 2.265377428129336200E-014, -1.000000000000000000, -0.0000000000000000000 ) ) ;
#307 = DIRECTION ( 'NONE',  ( 1.000000000000000000, 2.265377428129336200E-014, 0.0000000000000000000 ) ) ;
#308 = CARTESIAN_POINT ( 'NONE',  ( -2.750944911528700300E-013, 12.14342862858102000, 0.0000000000000000000 ) ) ;
#309 = DIRECTION ( 'NONE',  ( -2.265377428129336200E-014, 1.000000000000000000, 0.0000000000000000000 ) ) ;
#310 = DIRECTION ( 'NONE',  ( -1.000000000000000000, -2.255140518769331700E-014, 0.0000000000000000000 ) ) ;
#311 = CARTESIAN_POINT ( 'NONE',  ( 0.0000000000000000000, 7.105427357601001900E-015, 0.0000000000000000000 ) ) ;
#312 = DIRECTION ( 'NONE',  ( 2.265377428129336200E-014, -1.000000000000000000, -0.0000000000000000000 ) ) ;
#313 = DIRECTION ( 'NONE',  ( 1.000000000000000000, 2.265377428129335800E-014, 0.0000000000000000000 ) ) ;
#314 = CARTESIAN_POINT ( 'NONE',  ( -2.265377428129336100E-011, 1000.000000000000000, 0.0000000000000000000 ) ) ;
#315 = DIRECTION ( 'NONE',  ( -2.265377428129336200E-014, 1.000000000000000000, 0.0000000000000000000 ) ) ;
#316 = DIRECTION ( 'NONE',  ( -1.000000000000000000, -2.262686094312281400E-014, 0.0000000000000000000 ) ) ;
#317 = CARTESIAN_POINT ( 'NONE',  ( -2.265377428129336100E-011, 1000.000000000000000, 0.0000000000000000000 ) ) ;
#318 = DIRECTION ( 'NONE',  ( -2.265377428129336200E-014, 1.000000000000000000, 0.0000000000000000000 ) ) ;
#319 = DIRECTION ( 'NONE',  ( -1.000000000000000000, -2.262686094312281400E-014, 0.0000000000000000000 ) ) ;
#320 = CARTESIAN_POINT ( 'NONE',  ( 0.0000000000000000000, 7.105427357601001900E-015, 0.0000000000000000000 ) ) ;
#321 = DIRECTION ( 'NONE',  ( 2.265377428129336200E-014, -1.000000000000000000, -0.0000000000000000000 ) ) ;
#322 = DIRECTION ( 'NONE',  ( 1.000000000000000000, 2.265377428129335800E-014, 0.0000000000000000000 ) ) ;
#323 = CARTESIAN_POINT ( 'NONE',  ( -2.750944911528700300E-013, 12.14342862858102000, 0.0000000000000000000 ) ) ;
#324 = DIRECTION ( 'NONE',  ( -2.265377428129336200E-014, 1.000000000000000000, 0.0000000000000000000 ) ) ;
#325 = DIRECTION ( 'NONE',  ( -1.000000000000000000, -2.255140518769331700E-014, 0.0000000000000000000 ) ) ;
#326 = CARTESIAN_POINT ( 'NONE',  ( 0.0000000000000000000, 7.105427357601001900E-015, 0.0000000000000000000 ) ) ;
#327 = DIRECTION ( 'NONE',  ( 2.265377428129336200E-014, -1.000000000000000000, -0.0000000000000000000 ) ) ;
#328 = DIRECTION ( 'NONE',  ( 1.000000000000000000, 2.265377428129336200E-014, 0.0000000000000000000 ) ) ;
#329 = CARTESIAN_POINT ( 'NONE',  ( -9.034325183379315300E-013, 39.87999999999789900, 0.0000000000000000000 ) ) ;
#330 = DIRECTION ( 'NONE',  ( 2.265377428129336200E-014, -1.000000000000000000, -0.0000000000000000000 ) ) ;
#331 = DIRECTION ( 'NONE',  ( 1.000000000000000000, 2.238352872227788700E-014, 0.0000000000000000000 ) ) ;
#332 = PLANE ( 'NONE',  #144 ) ;
#333 = CARTESIAN_POINT ( 'NONE',  ( 6.719999999998059100, 39.99999999999810300, 0.0000000000000000000 ) ) ;
#334 = DIRECTION ( 'NONE',  ( -2.265377428129336200E-014, 1.000000000000000000, 0.0000000000000000000 ) ) ;
#335 = DIRECTION ( 'NONE',  ( -1.000000000000000000, -2.265377428129336200E-014, 0.0000000000000000000 ) ) ;
#336 = CARTESIAN_POINT ( 'NONE',  ( -1.925570813909869500E-012, 84.99999999999708700, 0.0000000000000000000 ) ) ;
#337 = DIRECTION ( 'NONE',  ( 2.265377428129336200E-014, -1.000000000000000000, -0.0000000000000000000 ) ) ;
#338 = DIRECTION ( 'NONE',  ( 1.000000000000000000, 2.191229653865461200E-014, 0.0000000000000000000 ) ) ;
#339 = CARTESIAN_POINT ( 'NONE',  ( -1.918774681625481000E-012, 84.69999999999707500, 0.0000000000000000000 ) ) ;
#340 = DIRECTION ( 'NONE',  ( 2.265377428129336200E-014, -1.000000000000000000, -0.0000000000000000000 ) ) ;
#341 = DIRECTION ( 'NONE',  ( 1.000000000000000000, 2.312964634635783900E-014, 0.0000000000000000000 ) ) ;
#342 = CARTESIAN_POINT ( 'NONE',  ( -9.014424726870797800E-013, 39.79215390308967000, 0.0000000000000000000 ) ) ;
#343 = DIRECTION ( 'NONE',  ( 2.265377428129336200E-014, -1.000000000000000000, -0.0000000000000000000 ) ) ;
#344 = DIRECTION ( 'NONE',  ( 1.000000000000000000, 2.291144213554674700E-014, 0.0000000000000000000 ) ) ;
#345 = CARTESIAN_POINT ( 'NONE',  ( -9.061509712516871800E-013, 39.99999999999791800, 0.0000000000000000000 ) ) ;
#346 = DIRECTION ( 'NONE',  ( 2.265377428129336200E-014, -1.000000000000000000, -0.0000000000000000000 ) ) ;
#347 = DIRECTION ( 'NONE',  ( 1.000000000000000000, 2.271661694731882800E-014, 0.0000000000000000000 ) ) ;
#348 = CARTESIAN_POINT ( 'NONE',  ( -9.061509712516885000E-013, 39.99999999999797500, 0.0000000000000000000 ) ) ;
#349 = DIRECTION ( 'NONE',  ( 2.265377428129336200E-014, -1.000000000000000000, -0.0000000000000000000 ) ) ;
#350 = DIRECTION ( 'NONE',  ( 1.000000000000000000, 2.273556325002013000E-014, 0.0000000000000000000 ) ) ;
#351 = CARTESIAN_POINT ( 'NONE',  ( -9.034325183379315300E-013, 39.87999999999789900, 0.0000000000000000000 ) ) ;
#352 = DIRECTION ( 'NONE',  ( 2.265377428129336200E-014, -1.000000000000000000, -0.0000000000000000000 ) ) ;
#353 = DIRECTION ( 'NONE',  ( 1.000000000000000000, 2.238352872227788700E-014, 0.0000000000000000000 ) ) ;
#354 = CARTESIAN_POINT ( 'NONE',  ( -3.656914634459536500E-013, 16.14262854856500000, 0.0000000000000000000 ) ) ;
#355 = DIRECTION ( 'NONE',  ( 2.265377428129336200E-014, -1.000000000000000000, -0.0000000000000000000 ) ) ;
#356 = DIRECTION ( 'NONE',  ( 1.000000000000000000, 2.283119929672507300E-014, 0.0000000000000000000 ) ) ;
#357 = CARTESIAN_POINT ( 'NONE',  ( -2.750944911528700300E-013, 12.14342862858102000, 0.0000000000000000000 ) ) ;
#358 = DIRECTION ( 'NONE',  ( 2.265377428129336200E-014, -1.000000000000000000, -0.0000000000000000000 ) ) ;
#359 = DIRECTION ( 'NONE',  ( 1.000000000000000000, 2.255140518769331700E-014, 0.0000000000000000000 ) ) ;
#360 = CARTESIAN_POINT ( 'NONE',  ( -7.847497607682652600E-014, 3.464101615139177200, 0.0000000000000000000 ) ) ;
#361 = DIRECTION ( 'NONE',  ( 2.265377428129336200E-014, -1.000000000000000000, -0.0000000000000000000 ) ) ;
#362 = DIRECTION ( 'NONE',  ( 1.000000000000000000, 2.262368533253115500E-014, 0.0000000000000000000 ) ) ;
#363 = CARTESIAN_POINT ( 'NONE',  ( -7.847497607682652600E-014, 3.464101615139177200, 0.0000000000000000000 ) ) ;
#364 = LINE ( 'NONE', #365, #132 ) ;
#365 = CARTESIAN_POINT ( 'NONE',  ( 0.0000000000000000000, 7.105427357601001900E-015, 0.0000000000000000000 ) ) ;
#366 = DIRECTION ( 'NONE',  ( -0.8660254037843586600, 0.5000000000001385600, 0.0000000000000000000 ) ) ;
#367 = LINE ( 'NONE', #368, #130 ) ;
#368 = CARTESIAN_POINT ( 'NONE',  ( 0.0000000000000000000, 7.105427357601001900E-015, 0.0000000000000000000 ) ) ;
#369 = DIRECTION ( 'NONE',  ( 0.8660254037843359000, 0.5000000000001778600, 1.060575238724795000E-016 ) ) ;
#370 = LINE ( 'NONE', #371, #126 ) ;
#371 = CARTESIAN_POINT ( 'NONE',  ( 6.000000000000649300, 1.430280730453758900E-013, 0.0000000000000000000 ) ) ;
#372 = DIRECTION ( 'NONE',  ( 2.265377428129336200E-014, -1.000000000000000000, -0.0000000000000000000 ) ) ;
#373 = DIRECTION ( 'NONE',  ( 2.265377428129336200E-014, -1.000000000000000000, -0.0000000000000000000 ) ) ;
#374 = DIRECTION ( 'NONE',  ( 1.000000000000000000, 2.262368533253115500E-014, 0.0000000000000000000 ) ) ;
#375 = CARTESIAN_POINT ( 'NONE',  ( -9.061509712516871800E-013, 39.99999999999791800, 0.0000000000000000000 ) ) ;
#376 = LINE ( 'NONE', #377, #125 ) ;
#377 = CARTESIAN_POINT ( 'NONE',  ( -6.000000000000649300, -1.288172183301738700E-013, 7.347880794884913500E-016 ) ) ;
#378 = DIRECTION ( 'NONE',  ( 2.265377428129336200E-014, -1.000000000000000000, -0.0000000000000000000 ) ) ;
#379 = LINE ( 'NONE', #380, #124 ) ;
#380 = CARTESIAN_POINT ( 'NONE',  ( -6.000000000001652000, 12.14342862858088500, 0.0000000000000000000 ) ) ;
#381 = DIRECTION ( 'NONE',  ( -0.4008861359646269100, 0.9161278873559906000, 0.0000000000000000000 ) ) ;
#382 = DIRECTION ( 'NONE',  ( -2.265377428129336200E-014, 1.000000000000000000, 0.0000000000000000000 ) ) ;
#383 = DIRECTION ( 'NONE',  ( -1.000000000000000000, -2.271661694731882800E-014, 0.0000000000000000000 ) ) ;
#384 = CARTESIAN_POINT ( 'NONE',  ( -9.063930161978817100E-013, 39.99999999999796800, 0.0000000000000000000 ) ) ;
#385 = DIRECTION ( 'NONE',  ( 2.265377428129336200E-014, -1.000000000000000000, -0.0000000000000000000 ) ) ;
#386 = DIRECTION ( 'NONE',  ( 1.000000000000000000, 2.265377428129336200E-014, 0.0000000000000000000 ) ) ;
#387 = LINE ( 'NONE', #388, #118 ) ;
#388 = CARTESIAN_POINT ( 'NONE',  ( 7.750000000000306400, 39.87999999999807000, 0.0000000000000000000 ) ) ;
#389 = DIRECTION ( 'NONE',  ( 0.7071067811863820400, -0.7071067811867130000, 0.0000000000000000000 ) ) ;
#390 = CARTESIAN_POINT ( 'NONE',  ( -3.656914634459536500E-013, 16.14262854856500000, 0.0000000000000000000 ) ) ;
#391 = LINE ( 'NONE', #392, #113 ) ;
#392 = CARTESIAN_POINT ( 'NONE',  ( -7.750000000000933500, -1.684613233224436900E-013, 9.491012693393129700E-016 ) ) ;
#393 = DIRECTION ( 'NONE',  ( 2.265377428129336200E-014, -1.000000000000000000, -0.0000000000000000000 ) ) ;
#394 = DIRECTION ( 'NONE',  ( 2.265377428129336200E-014, -1.000000000000000000, -0.0000000000000000000 ) ) ;
#395 = DIRECTION ( 'NONE',  ( 1.000000000000000000, 2.283119929672507300E-014, 0.0000000000000000000 ) ) ;
#396 = CARTESIAN_POINT ( 'NONE',  ( 5.999999999998031800, 39.99999999999807400, 0.0000000000000000000 ) ) ;
#397 = LINE ( 'NONE', #398, #112 ) ;
#398 = CARTESIAN_POINT ( 'NONE',  ( 6.000000000001101300, 12.14342862858115500, 7.347880794885805900E-016 ) ) ;
#399 = DIRECTION ( 'NONE',  ( 0.4008861359645853900, 0.9161278873560088100, 4.909439232316055600E-017 ) ) ;
#400 = LINE ( 'NONE', #401, #110 ) ;
#401 = CARTESIAN_POINT ( 'NONE',  ( -6.719999999999871900, 39.99999999999776900, 0.0000000000000000000 ) ) ;
#402 = DIRECTION ( 'NONE',  ( -0.8660254037845135400, 0.4999999999998703300, 0.0000000000000000000 ) ) ;
#403 = LINE ( 'NONE', #404, #105 ) ;
#404 = CARTESIAN_POINT ( 'NONE',  ( -7.750000000002113900, 39.87999999999772200, 9.491012693393468900E-016 ) ) ;
#405 = DIRECTION ( 'NONE',  ( -0.7071067811863500600, -0.7071067811867449700, 8.659560562352710500E-017 ) ) ;
#406 = FILL_AREA_STYLE_COLOUR ( '', #169 ) ;
#407 = FILL_AREA_STYLE ('',( #406 ) ) ;
#408 = SURFACE_STYLE_FILL_AREA ( #407 ) ;
#409 = SURFACE_SIDE_STYLE ('',( #408 ) ) ;
#410 = SURFACE_STYLE_USAGE ( .BOTH. , #409 ) ;
#411 = PRESENTATION_STYLE_ASSIGNMENT (( #410 ) ) ;
#412 =( LENGTH_UNIT ( ) NAMED_UNIT ( * ) SI_UNIT ( .MILLI., .METRE. ) );
#413 =( NAMED_UNIT ( * ) PLANE_ANGLE_UNIT ( ) SI_UNIT ( $, .RADIAN. ) );
#414 =( NAMED_UNIT ( * ) SI_UNIT ( $, .STERADIAN. ) SOLID_ANGLE_UNIT ( ) );
#415 = CARTESIAN_POINT ( 'NONE',  ( 5.999999999997975000, 84.69999999999720300, 0.0000000000000000000 ) ) ;
#416 = CARTESIAN_POINT ( 'NONE',  ( -6.000000000001811900, 84.69999999999693300, 7.347880794884609800E-016 ) ) ;
#417 =( LENGTH_UNIT ( ) NAMED_UNIT ( * ) SI_UNIT ( .MILLI., .METRE. ) );
#418 =( NAMED_UNIT ( * ) PLANE_ANGLE_UNIT ( ) SI_UNIT ( $, .RADIAN. ) );
#419 =( NAMED_UNIT ( * ) SI_UNIT ( $, .STERADIAN. ) SOLID_ANGLE_UNIT ( ) );
#420 = APPLICATION_PROTOCOL_DEFINITION ( 'draft international standard', 'automotive_design', 1998, #258 ) ;
#421 = FILL_AREA_STYLE_COLOUR ( '', #164 ) ;
#422 = FILL_AREA_STYLE ('',( #421 ) ) ;
#423 = SURFACE_STYLE_FILL_AREA ( #422 ) ;
#424 = SURFACE_SIDE_STYLE ('',( #423 ) ) ;
#425 = SURFACE_STYLE_USAGE ( .BOTH. , #424 ) ;
#426 = PRESENTATION_STYLE_ASSIGNMENT (( #425 ) ) ;
#427 =( LENGTH_UNIT ( ) NAMED_UNIT ( * ) SI_UNIT ( .MILLI., .METRE. ) );
#428 =( NAMED_UNIT ( * ) PLANE_ANGLE_UNIT ( ) SI_UNIT ( $, .RADIAN. ) );
#429 =( NAMED_UNIT ( * ) SI_UNIT ( $, .STERADIAN. ) SOLID_ANGLE_UNIT ( ) );
#430 = CARTESIAN_POINT ( 'NONE',  ( 0.0000000000000000000, 0.0000000000000000000, 0.0000000000000000000 ) ) ;
#431 = DIRECTION ( 'NONE',  ( 0.0000000000000000000, 0.0000000000000000000, 1.000000000000000000 ) ) ;
#432 = DIRECTION ( 'NONE',  ( 1.000000000000000000, 0.0000000000000000000, 0.0000000000000000000 ) ) ;
#433 = SHAPE_DEFINITION_REPRESENTATION ( #465, #155 ) ;
#434 = PRODUCT_CONTEXT ( 'NONE', #258, 'mechanical' ) ;
#435 = APPLICATION_PROTOCOL_DEFINITION ( 'draft international standard', 'automotive_design', 1998, #259 ) ;
#436 = DIRECTION ( 'NONE',  ( 2.265377428129336200E-014, -1.000000000000000000, -0.0000000000000000000 ) ) ;
#437 = CARTESIAN_POINT ( 'NONE',  ( -1.925570813909869500E-012, 84.99999999999708700, 0.0000000000000000000 ) ) ;
#438 = DIRECTION ( 'NONE',  ( 1.000000000000000000, 2.291144213554674700E-014, 0.0000000000000000000 ) ) ;
#439 = DIRECTION ( 'NONE',  ( 2.265377428129336200E-014, -1.000000000000000000, -0.0000000000000000000 ) ) ;
#440 = CARTESIAN_POINT ( 'NONE',  ( -9.014424726870797800E-013, 39.79215390308967000, 0.0000000000000000000 ) ) ;
#441 = DIRECTION ( 'NONE',  ( 1.000000000000000000, 2.312964634636151800E-014, 0.0000000000000000000 ) ) ;
#442 = DIRECTION ( 'NONE',  ( 2.265377428129336200E-014, -1.000000000000000000, -0.0000000000000000000 ) ) ;
#443 = DIRECTION ( 'NONE',  ( 2.265377428129336200E-014, -1.000000000000000000, -0.0000000000000000000 ) ) ;
#444 = CARTESIAN_POINT ( 'NONE',  ( 7.750000000000933500, 1.826721780376457000E-013, 0.0000000000000000000 ) ) ;
#445 = LINE ( 'NONE', #444, #272 ) ;
#446 = DIRECTION ( 'NONE',  ( -0.7071067811864425500, -0.7071067811866526000, 8.659560562353844500E-017 ) ) ;
#447 = CARTESIAN_POINT ( 'NONE',  ( -6.000000000001811900, 84.69999999999693300, 7.347880794883988600E-016 ) ) ;
#448 = LINE ( 'NONE', #447, #275 ) ;
#449 = CARTESIAN_POINT ( 'NONE',  ( -9.061509712516874900E-013, 39.99999999999793200, 0.0000000000000000000 ) ) ;
#450 = DIRECTION ( 'NONE',  ( 1.000000000000000000, 2.312964634635783900E-014, 0.0000000000000000000 ) ) ;
#451 = DIRECTION ( 'NONE',  ( 2.265377428129336200E-014, -1.000000000000000000, -0.0000000000000000000 ) ) ;
#452 = CARTESIAN_POINT ( 'NONE',  ( -1.918774681625481000E-012, 84.69999999999707500, 0.0000000000000000000 ) ) ;
#453 = DIRECTION ( 'NONE',  ( 1.000000000000000000, 2.271661694731882800E-014, 0.0000000000000000000 ) ) ;
#454 = DIRECTION ( 'NONE',  ( 2.265377428129336200E-014, -1.000000000000000000, -0.0000000000000000000 ) ) ;
#455 = CARTESIAN_POINT ( 'NONE',  ( -9.061509712516871800E-013, 39.99999999999791800, 0.0000000000000000000 ) ) ;
#456 = DIRECTION ( 'NONE',  ( -1.000000000000000000, 0.0000000000000000000, 0.0000000000000000000 ) ) ;
#457 = DIRECTION ( 'NONE',  ( 0.0000000000000000000, 0.0000000000000000000, -1.000000000000000000 ) ) ;
#458 = DIRECTION ( 'NONE',  ( 0.7071067811864745200, -0.7071067811866205100, 0.0000000000000000000 ) ) ;
#459 = CARTESIAN_POINT ( 'NONE',  ( 5.999999999997975000, 84.69999999999720300, 0.0000000000000000000 ) ) ;
#460 = LINE ( 'NONE', #459, #279 ) ;
#461 = CARTESIAN_POINT ( 'NONE',  ( 6.239999999998032000, 39.99999999999811000, 0.0000000000000000000 ) ) ;
#462 = DIRECTION ( 'NONE',  ( 1.000000000000000000, 2.255140518769331700E-014, 0.0000000000000000000 ) ) ;
#463 = PRODUCT_DEFINITION_CONTEXT ( 'detailed design', #259, 'design' ) ;
#464 = MANIFOLD_SOLID_BREP ( '±ÛÂà1', #265 ) ;
#465 = PRODUCT_DEFINITION_SHAPE ( 'NONE', 'NONE',  #166 ) ;
#466 = ORIENTED_EDGE ( 'NONE', *, *, #214, .F. ) ;
#467 = ORIENTED_EDGE ( 'NONE', *, *, #237, .F. ) ;
#468 = ORIENTED_EDGE ( 'NONE', *, *, #217, .T. ) ;
#469 = ORIENTED_EDGE ( 'NONE', *, *, #236, .T. ) ;
#470 = ORIENTED_EDGE ( 'NONE', *, *, #215, .F. ) ;
#471 = ORIENTED_EDGE ( 'NONE', *, *, #162, .F. ) ;
#472 = ORIENTED_EDGE ( 'NONE', *, *, #238, .F. ) ;
#473 = ORIENTED_EDGE ( 'NONE', *, *, #237, .T. ) ;
#474 = ORIENTED_EDGE ( 'NONE', *, *, #207, .T. ) ;
#475 = ORIENTED_EDGE ( 'NONE', *, *, #239, .F. ) ;
#476 = ORIENTED_EDGE ( 'NONE', *, *, #255, .T. ) ;
#477 = ORIENTED_EDGE ( 'NONE', *, *, #238, .T. ) ;
#478 = ORIENTED_EDGE ( 'NONE', *, *, #257, .F. ) ;
#479 = ORIENTED_EDGE ( 'NONE', *, *, #240, .F. ) ;
#480 = ORIENTED_EDGE ( 'NONE', *, *, #251, .T. ) ;
#481 = ORIENTED_EDGE ( 'NONE', *, *, #239, .T. ) ;
#482 = ORIENTED_EDGE ( 'NONE', *, *, #252, .F. ) ;
#483 = ORIENTED_EDGE ( 'NONE', *, *, #210, .T. ) ;
#484 = ORIENTED_EDGE ( 'NONE', *, *, #248, .T. ) ;
#485 = ORIENTED_EDGE ( 'NONE', *, *, #241, .F. ) ;
#486 = ORIENTED_EDGE ( 'NONE', *, *, #254, .F. ) ;
#487 = ORIENTED_EDGE ( 'NONE', *, *, #242, .F. ) ;
#488 = ORIENTED_EDGE ( 'NONE', *, *, #240, .T. ) ;
#489 = ORIENTED_EDGE ( 'NONE', *, *, #241, .T. ) ;
#490 = ORIENTED_EDGE ( 'NONE', *, *, #247, .F. ) ;
#491 = ORIENTED_EDGE ( 'NONE', *, *, #245, .T. ) ;
#492 = ORIENTED_EDGE ( 'NONE', *, *, #242, .T. ) ;
#493 = ORIENTED_EDGE ( 'NONE', *, *, #243, .T. ) ;
#494 = ORIENTED_EDGE ( 'NONE', *, *, #244, .F. ) ;
#495 = ORIENTED_EDGE ( 'NONE', *, *, #244, .T. ) ;
#496 = ORIENTED_EDGE ( 'NONE', *, *, #246, .T. ) ;
#497 = ORIENTED_EDGE ( 'NONE', *, *, #243, .F. ) ;
#498 = ORIENTED_EDGE ( 'NONE', *, *, #245, .F. ) ;
#499 = ORIENTED_EDGE ( 'NONE', *, *, #247, .T. ) ;
#500 = ORIENTED_EDGE ( 'NONE', *, *, #204, .T. ) ;
#501 = ORIENTED_EDGE ( 'NONE', *, *, #246, .F. ) ;
#502 = ORIENTED_EDGE ( 'NONE', *, *, #248, .F. ) ;
#503 = ORIENTED_EDGE ( 'NONE', *, *, #254, .T. ) ;
#504 = ORIENTED_EDGE ( 'NONE', *, *, #163, .T. ) ;
#505 = ORIENTED_EDGE ( 'NONE', *, *, #253, .F. ) ;
#506 = ORIENTED_EDGE ( 'NONE', *, *, #252, .T. ) ;
#507 = ORIENTED_EDGE ( 'NONE', *, *, #210, .F. ) ;
#508 = ORIENTED_EDGE ( 'NONE', *, *, #204, .F. ) ;
#509 = VERTEX_POINT ( 'NONE', #396 ) ;
#510 = VERTEX_POINT ( 'NONE', #415 ) ;
#511 = VERTEX_POINT ( 'NONE', #416 ) ;
#512 = ORIENTED_EDGE ( 'NONE', *, *, #162, .T. ) ;
#513 = ORIENTED_EDGE ( 'NONE', *, *, #163, .F. ) ;
#514 = ORIENTED_EDGE ( 'NONE', *, *, #257, .T. ) ;
#515 = ORIENTED_EDGE ( 'NONE', *, *, #251, .F. ) ;
#516 = DIRECTION ( 'NONE',  ( 2.265377428129336200E-014, -1.000000000000000000, -0.0000000000000000000 ) ) ;
#517 = CARTESIAN_POINT ( 'NONE',  ( -2.750944911528700300E-013, 12.14342862858102000, 0.0000000000000000000 ) ) ;
#518 = DIRECTION ( 'NONE',  ( -1.000000000000000000, -2.265377428129336200E-014, 0.0000000000000000000 ) ) ;
#519 = DIRECTION ( 'NONE',  ( -2.265377428129336200E-014, 1.000000000000000000, 0.0000000000000000000 ) ) ;
#520 = CARTESIAN_POINT ( 'NONE',  ( -1.925570813909870300E-012, 84.99999999999712900, 0.0000000000000000000 ) ) ;
#521 = PLANE ( 'NONE',  #284 ) ;
#522 = DIRECTION ( 'NONE',  ( 1.000000000000000000, 2.312964634635783900E-014, 0.0000000000000000000 ) ) ;
#523 = DIRECTION ( 'NONE',  ( 2.265377428129336200E-014, -1.000000000000000000, -0.0000000000000000000 ) ) ;
#524 = CARTESIAN_POINT ( 'NONE',  ( -1.918774681625481000E-012, 84.69999999999707500, 0.0000000000000000000 ) ) ;
#525 = DIRECTION ( 'NONE',  ( 1.000000000000000000, 2.265377428129336200E-014, 0.0000000000000000000 ) ) ;
#526 = DIRECTION ( 'NONE',  ( 2.265377428129336200E-014, -1.000000000000000000, -0.0000000000000000000 ) ) ;
#527 = CARTESIAN_POINT ( 'NONE',  ( 0.0000000000000000000, 7.105427357601001900E-015, 0.0000000000000000000 ) ) ;
#528 = DIRECTION ( 'NONE',  ( 1.000000000000000000, 2.238352872227788700E-014, 0.0000000000000000000 ) ) ;
#529 = DIRECTION ( 'NONE',  ( 2.265377428129336200E-014, -1.000000000000000000, -0.0000000000000000000 ) ) ;
#530 = CARTESIAN_POINT ( 'NONE',  ( -9.034325183379315300E-013, 39.87999999999789900, 0.0000000000000000000 ) ) ;
#531 = DIRECTION ( 'NONE',  ( 1.000000000000000000, 2.273556325002013000E-014, 0.0000000000000000000 ) ) ;
#532 = DIRECTION ( 'NONE',  ( 2.265377428129336200E-014, -1.000000000000000000, -0.0000000000000000000 ) ) ;
#533 = CARTESIAN_POINT ( 'NONE',  ( -9.061509712516885000E-013, 39.99999999999797500, 0.0000000000000000000 ) ) ;
#534 = CARTESIAN_POINT ( 'NONE',  ( -6.000000000000000000, 3.464101615139040900, 0.0000000000000000000 ) ) ;
#535 = CARTESIAN_POINT ( 'NONE',  ( 7.630000000000286800, 39.99999999999814500, 0.0000000000000000000 ) ) ;
#536 = CARTESIAN_POINT ( 'NONE',  ( 6.359999999997985000, 39.79215390308981200, 8.009190066422375100E-016 ) ) ;
#537 = CARTESIAN_POINT ( 'NONE',  ( 7.750000000000292200, 16.14262854856517700, 9.491012693392792400E-016 ) ) ;
#538 = CARTESIAN_POINT ( 'NONE',  ( 6.719999999998058200, 39.99999999999807400, 8.229626490268946000E-016 ) ) ;
#539 = CARTESIAN_POINT ( 'NONE',  ( -7.630000000002100400, 39.99999999999780400, 9.417533885444620400E-016 ) ) ;
#540 = CARTESIAN_POINT ( 'NONE',  ( -6.000000000001652000, 12.14342862858088500, 7.347880794885925200E-016 ) ) ;
#541 = CARTESIAN_POINT ( 'NONE',  ( -7.750000000002113900, 39.87999999999772200, 9.491012693393798200E-016 ) ) ;
#542 = CARTESIAN_POINT ( 'NONE',  ( 0.0000000000000000000, 7.105427357601001900E-015, 0.0000000000000000000 ) ) ;
#543 = CARTESIAN_POINT ( 'NONE',  ( 5.999999999999842800, 3.464101615139313600, 7.347880794884023100E-016 ) ) ;
#544 = CARTESIAN_POINT ( 'NONE',  ( -5.700000000001871600, 84.99999999999697300, 7.164183775011920800E-016 ) ) ;
#545 = CARTESIAN_POINT ( 'NONE',  ( 7.750000000000306400, 39.87999999999807000, 0.0000000000000000000 ) ) ;
#546 = CARTESIAN_POINT ( 'NONE',  ( 6.000000000001101300, 12.14342862858115500, 0.0000000000000000000 ) ) ;
ENDSEC;
END-ISO-10303-21;
