ISO-10303-21;
HEADER;
FILE_DESCRIPTION (( 'STEP AP214' ),
    '1' );
FILE_NAME ('99688-SI16-16+S9MT1604-090.STEP',
    '2022-11-03T01:08:21',
    ( 'User' ),
    ( 'GENUINE' ),
    'SwSTEP 2.0',
    'SolidWorks 2012',
    '' );
FILE_SCHEMA (( 'AUTOMOTIVE_DESIGN' ));
ENDSEC;

DATA;
#1 = CARTESIAN_POINT ( 'NONE',  ( 8.319999999995566500, 52.00000000000288500, 0.0000000000000000000 ) ) ;
#2 = DIRECTION ( 'NONE',  ( 0.0000000000000000000, 0.0000000000000000000, -1.000000000000000000 ) ) ;
#3 = DIRECTION ( 'NONE',  ( 1.000000000000000000, 4.414251702263444800E-014, 0.0000000000000000000 ) ) ;
#4 = DIRECTION ( 'NONE',  ( 4.419575816427695500E-014, -1.000000000000000000, -0.0000000000000000000 ) ) ;
#5 = DIRECTION ( 'NONE',  ( -0.7071067811862441500, -0.7071067811868510000, 8.659560562351599900E-017 ) ) ;
#6 = CARTESIAN_POINT ( 'NONE',  ( -10.50000000000299100, 51.84000000000195000, 1.285879139104806600E-015 ) ) ;
#7 = LINE ( 'NONE', #6, #404 ) ;
#8 = DIRECTION ( 'NONE',  ( -0.7071067811864713000, -0.7071067811866238500, 8.659560562354381900E-017 ) ) ;
#9 = CARTESIAN_POINT ( 'NONE',  ( -8.000000000004350300, 99.70000000000237600, 9.797174393178758600E-016 ) ) ;
#10 = LINE ( 'NONE', #9, #402 ) ;
#11 = DIRECTION ( 'NONE',  ( 0.8660254037844904400, 0.4999999999999102900, 1.060575238724997400E-016 ) ) ;
#12 = CARTESIAN_POINT ( 'NONE',  ( 8.959999999995602600, 52.00000000000284200, 1.097283532035771400E-015 ) ) ;
#13 = LINE ( 'NONE', #12, #401 ) ;
#14 = CARTESIAN_POINT ( 'NONE',  ( -2.298179424542510000E-012, 52.00000000000244400, 0.0000000000000000000 ) ) ;
#15 = DIRECTION ( 'NONE',  ( 1.000000000000000000, 4.505775262277435800E-014, 0.0000000000000000000 ) ) ;
#16 = DIRECTION ( 'NONE',  ( 4.419575816427695500E-014, -1.000000000000000000, -0.0000000000000000000 ) ) ;
#17 = EDGE_LOOP ( 'NONE', ( #587, #533, #588, #532 ) ) ;
#18 = EDGE_LOOP ( 'NONE', ( #531, #529, #530, #528 ) ) ;
#19 = EDGE_LOOP ( 'NONE', ( #527, #525, #526 ) ) ;
#20 = EDGE_LOOP ( 'NONE', ( #524, #523, #522 ) ) ;
#21 = EDGE_LOOP ( 'NONE', ( #520, #519, #518, #521 ) ) ;
#22 = EDGE_LOOP ( 'NONE', ( #89, #88, #517, #86 ) ) ;
#23 = EDGE_LOOP ( 'NONE', ( #85, #84, #83, #87 ) ) ;
#24 = EDGE_LOOP ( 'NONE', ( #81, #80, #82, #78 ) ) ;
#25 = EDGE_LOOP ( 'NONE', ( #77, #76, #79, #74 ) ) ;
#26 = EDGE_LOOP ( 'NONE', ( #73, #72 ) ) ;
#27 = EDGE_LOOP ( 'NONE', ( #552, #553 ) ) ;
#28 = EDGE_LOOP ( 'NONE', ( #551, #550, #75, #548 ) ) ;
#29 = EDGE_LOOP ( 'NONE', ( #547, #546, #545, #549 ) ) ;
#30 = EDGE_LOOP ( 'NONE', ( #543, #542, #544, #540 ) ) ;
#31 = EDGE_LOOP ( 'NONE', ( #539, #538, #541, #537 ) ) ;
#32 = EDGE_LOOP ( 'NONE', ( #536, #535 ) ) ;
#33 = ORIENTED_EDGE ( 'NONE', *, *, #335, .T. ) ;
#34 = ORIENTED_EDGE ( 'NONE', *, *, #335, .F. ) ;
#35 = ORIENTED_EDGE ( 'NONE', *, *, #330, .T. ) ;
#36 = ORIENTED_EDGE ( 'NONE', *, *, #339, .F. ) ;
#37 = ORIENTED_EDGE ( 'NONE', *, *, #340, .F. ) ;
#38 = ORIENTED_EDGE ( 'NONE', *, *, #325, .T. ) ;
#39 = ORIENTED_EDGE ( 'NONE', *, *, #338, .F. ) ;
#40 = ORIENTED_EDGE ( 'NONE', *, *, #327, .F. ) ;
#41 = ORIENTED_EDGE ( 'NONE', *, *, #328, .T. ) ;
#42 = ORIENTED_EDGE ( 'NONE', *, *, #332, .F. ) ;
#43 = ORIENTED_EDGE ( 'NONE', *, *, #333, .F. ) ;
#44 = ORIENTED_EDGE ( 'NONE', *, *, #336, .T. ) ;
#45 = ORIENTED_EDGE ( 'NONE', *, *, #337, .T. ) ;
#46 = ORIENTED_EDGE ( 'NONE', *, *, #334, .T. ) ;
#47 = ORIENTED_EDGE ( 'NONE', *, *, #326, .T. ) ;
#48 = ORIENTED_EDGE ( 'NONE', *, *, #336, .F. ) ;
#49 = ORIENTED_EDGE ( 'NONE', *, *, #377, .F. ) ;
#50 = ORIENTED_EDGE ( 'NONE', *, *, #329, .T. ) ;
#51 = VERTEX_POINT ( 'NONE', #586 ) ;
#52 = VERTEX_POINT ( 'NONE', #585 ) ;
#53 = VERTEX_POINT ( 'NONE', #584 ) ;
#54 = VERTEX_POINT ( 'NONE', #583 ) ;
#55 = VERTEX_POINT ( 'NONE', #582 ) ;
#56 = VERTEX_POINT ( 'NONE', #581 ) ;
#57 = VERTEX_POINT ( 'NONE', #580 ) ;
#58 = VERTEX_POINT ( 'NONE', #579 ) ;
#59 = VERTEX_POINT ( 'NONE', #578 ) ;
#60 = VERTEX_POINT ( 'NONE', #577 ) ;
#61 = VERTEX_POINT ( 'NONE', #576 ) ;
#62 = VERTEX_POINT ( 'NONE', #575 ) ;
#63 = VERTEX_POINT ( 'NONE', #574 ) ;
#64 = VERTEX_POINT ( 'NONE', #573 ) ;
#65 = VERTEX_POINT ( 'NONE', #572 ) ;
#66 = VERTEX_POINT ( 'NONE', #571 ) ;
#67 = VERTEX_POINT ( 'NONE', #570 ) ;
#68 = VERTEX_POINT ( 'NONE', #569 ) ;
#69 = VERTEX_POINT ( 'NONE', #568 ) ;
#70 = VERTEX_POINT ( 'NONE', #567 ) ;
#71 = VERTEX_POINT ( 'NONE', #566 ) ;
#72 = ORIENTED_EDGE ( 'NONE', *, *, #341, .T. ) ;
#73 = ORIENTED_EDGE ( 'NONE', *, *, #332, .T. ) ;
#74 = ORIENTED_EDGE ( 'NONE', *, *, #343, .F. ) ;
#75 = ORIENTED_EDGE ( 'NONE', *, *, #327, .T. ) ;
#76 = ORIENTED_EDGE ( 'NONE', *, *, #342, .T. ) ;
#77 = ORIENTED_EDGE ( 'NONE', *, *, #331, .F. ) ;
#78 = ORIENTED_EDGE ( 'NONE', *, *, #344, .F. ) ;
#79 = ORIENTED_EDGE ( 'NONE', *, *, #378, .T. ) ;
#80 = ORIENTED_EDGE ( 'NONE', *, *, #343, .T. ) ;
#81 = ORIENTED_EDGE ( 'NONE', *, *, #379, .F. ) ;
#82 = ORIENTED_EDGE ( 'NONE', *, *, #382, .T. ) ;
#83 = ORIENTED_EDGE ( 'NONE', *, *, #380, .T. ) ;
#84 = ORIENTED_EDGE ( 'NONE', *, *, #345, .F. ) ;
#85 = ORIENTED_EDGE ( 'NONE', *, *, #383, .F. ) ;
#86 = ORIENTED_EDGE ( 'NONE', *, *, #346, .F. ) ;
#87 = ORIENTED_EDGE ( 'NONE', *, *, #344, .T. ) ;
#88 = ORIENTED_EDGE ( 'NONE', *, *, #345, .T. ) ;
#89 = ORIENTED_EDGE ( 'NONE', *, *, #355, .F. ) ;
#90 = UNCERTAINTY_MEASURE_WITH_UNIT (LENGTH_MEASURE( 1.000000000000000100E-005 ), #249, 'distance_accuracy_value', 'NONE');
#91 = UNCERTAINTY_MEASURE_WITH_UNIT (LENGTH_MEASURE( 1.000000000000000100E-005 ), #253, 'distance_accuracy_value', 'NONE');
#92 = ADVANCED_BREP_SHAPE_REPRESENTATION ( '99688-SI16-16+S9MT1604-090', ( #514, #482 ), #276 ) ;
#93 = UNCERTAINTY_MEASURE_WITH_UNIT (LENGTH_MEASURE( 1.000000000000000100E-005 ), #263, 'distance_accuracy_value', 'NONE');
#94 = DIRECTION ( 'NONE',  ( 4.419575816427695500E-014, -1.000000000000000000, -0.0000000000000000000 ) ) ;
#95 = DIRECTION ( 'NONE',  ( 1.000000000000000000, 4.423544863742037600E-014, 0.0000000000000000000 ) ) ;
#96 = CARTESIAN_POINT ( 'NONE',  ( -4.406317088978532500E-012, 99.70000000000271700, 0.0000000000000000000 ) ) ;
#97 = DIRECTION ( 'NONE',  ( 4.419575816427695500E-014, -1.000000000000000000, -0.0000000000000000000 ) ) ;
#98 = DIRECTION ( 'NONE',  ( 1.000000000000000000, 4.336808689942047400E-014, 0.0000000000000000000 ) ) ;
#99 = CARTESIAN_POINT ( 'NONE',  ( -2.285931536763382600E-012, 51.72287187079145800, 0.0000000000000000000 ) ) ;
#100 = DIRECTION ( 'NONE',  ( 4.419575816427695500E-014, -1.000000000000000000, -0.0000000000000000000 ) ) ;
#101 = DIRECTION ( 'NONE',  ( 1.000000000000000000, 4.418635268998679500E-014, 0.0000000000000000000 ) ) ;
#102 = CARTESIAN_POINT ( 'NONE',  ( -8.320000000000163700, 52.00000000000214600, 1.018906136890336500E-015 ) ) ;
#103 = DIRECTION ( 'NONE',  ( 1.224646799147353200E-016, 5.412419377177227200E-030, 1.000000000000000000 ) ) ;
#104 = DIRECTION ( 'NONE',  ( 1.000000000000000000, 0.0000000000000000000, -1.224646799147350000E-016 ) ) ;
#105 = CARTESIAN_POINT ( 'NONE',  ( -2.298179424542511600E-012, 52.00000000000248700, 0.0000000000000000000 ) ) ;
#106 = LINE ( 'NONE', #107, #410 ) ;
#107 = CARTESIAN_POINT ( 'NONE',  ( 7.999999999998905800, 3.535660653141672700E-013, 0.0000000000000000000 ) ) ;
#108 = DIRECTION ( 'NONE',  ( 4.419575816427695500E-014, -1.000000000000000000, -0.0000000000000000000 ) ) ;
#109 = DIRECTION ( 'NONE',  ( 4.419575816427695500E-014, -1.000000000000000000, -0.0000000000000000000 ) ) ;
#110 = DIRECTION ( 'NONE',  ( 1.000000000000000000, 4.423544863742037600E-014, 0.0000000000000000000 ) ) ;
#111 = CARTESIAN_POINT ( 'NONE',  ( -2.298179424542510000E-012, 52.00000000000244400, 0.0000000000000000000 ) ) ;
#112 = LINE ( 'NONE', #113, #412 ) ;
#113 = CARTESIAN_POINT ( 'NONE',  ( 7.999999999995538700, 99.70000000000305800, 0.0000000000000000000 ) ) ;
#114 = DIRECTION ( 'NONE',  ( 0.7071067811865336900, -0.7071067811865613400, 0.0000000000000000000 ) ) ;
#115 = DIRECTION ( 'NONE',  ( 4.419575816427695500E-014, -1.000000000000000000, -0.0000000000000000000 ) ) ;
#116 = DIRECTION ( 'NONE',  ( 1.000000000000000000, 4.414251702263444800E-014, 0.0000000000000000000 ) ) ;
#117 = CARTESIAN_POINT ( 'NONE',  ( -2.298179424542512000E-012, 52.00000000000249400, 0.0000000000000000000 ) ) ;
#118 = DIRECTION ( 'NONE',  ( 4.419575816427695500E-014, -1.000000000000000000, -0.0000000000000000000 ) ) ;
#119 = DIRECTION ( 'NONE',  ( 1.000000000000000000, 4.429081215259616700E-014, 0.0000000000000000000 ) ) ;
#120 = CARTESIAN_POINT ( 'NONE',  ( -2.291108103236223800E-012, 51.84000000000241200, 0.0000000000000000000 ) ) ;
#121 = DIRECTION ( 'NONE',  ( 4.419575816427695500E-014, -1.000000000000000000, -0.0000000000000000000 ) ) ;
#122 = DIRECTION ( 'NONE',  ( 1.000000000000000000, 4.427675157730984200E-014, 0.0000000000000000000 ) ) ;
#123 = CARTESIAN_POINT ( 'NONE',  ( -9.919313804509297800E-013, 22.44404037065935500, 0.0000000000000000000 ) ) ;
#124 = DIRECTION ( 'NONE',  ( 4.419575816427695500E-014, -1.000000000000000000, -0.0000000000000000000 ) ) ;
#125 = DIRECTION ( 'NONE',  ( 1.000000000000000000, 4.427675157731532000E-014, 0.0000000000000000000 ) ) ;
#126 = CARTESIAN_POINT ( 'NONE',  ( -7.218908375379731100E-013, 16.33393944402273200, 0.0000000000000000000 ) ) ;
#127 = DIRECTION ( 'NONE',  ( 4.419575816427695500E-014, -1.000000000000000000, -0.0000000000000000000 ) ) ;
#128 = DIRECTION ( 'NONE',  ( 1.000000000000000000, 4.423544863740113400E-014, 0.0000000000000000000 ) ) ;
#129 = CARTESIAN_POINT ( 'NONE',  ( -3.236791448487014900E-013, 7.323760430708675900, 0.0000000000000000000 ) ) ;
#130 = DIRECTION ( 'NONE',  ( 4.419575816427695500E-014, -1.000000000000000000, -0.0000000000000000000 ) ) ;
#131 = DIRECTION ( 'NONE',  ( 1.000000000000000000, 4.423544863739108100E-014, 0.0000000000000000000 ) ) ;
#132 = CARTESIAN_POINT ( 'NONE',  ( -4.082629259722564500E-014, 0.9237604307063382900, 0.0000000000000000000 ) ) ;
#133 = DIRECTION ( 'NONE',  ( 4.419575816427695500E-014, -1.000000000000000000, -0.0000000000000000000 ) ) ;
#134 = DIRECTION ( 'NONE',  ( 1.000000000000000000, 4.418123852877548900E-014, 0.0000000000000000000 ) ) ;
#135 = CARTESIAN_POINT ( 'NONE',  ( -4.082629259722564500E-014, 0.9237604307063382900, 0.0000000000000000000 ) ) ;
#136 = LINE ( 'NONE', #137, #418 ) ;
#137 = CARTESIAN_POINT ( 'NONE',  ( 0.0000000000000000000, 0.0000000000000000000, 0.0000000000000000000 ) ) ;
#138 = DIRECTION ( 'NONE',  ( -0.8660254037838155400, 0.5000000000010792500, 0.0000000000000000000 ) ) ;
#139 = LINE ( 'NONE', #140, #420 ) ;
#140 = CARTESIAN_POINT ( 'NONE',  ( 0.0000000000000000000, 0.0000000000000000000, 0.0000000000000000000 ) ) ;
#141 = DIRECTION ( 'NONE',  ( 0.8660254037837712400, 0.5000000000011557400, 1.060575238724116600E-016 ) ) ;
#142 = LINE ( 'NONE', #143, #422 ) ;
#143 = CARTESIAN_POINT ( 'NONE',  ( -1.600000000000360000, 0.9237604307062675700, 0.0000000000000000000 ) ) ;
#144 = DIRECTION ( 'NONE',  ( -0.7071067811866068600, 0.7071067811864881800, 0.0000000000000000000 ) ) ;
#145 = DIRECTION ( 'NONE',  ( 4.419575816427695500E-014, -1.000000000000000000, -0.0000000000000000000 ) ) ;
#146 = DIRECTION ( 'NONE',  ( 1.000000000000000000, 4.418123852877548900E-014, 0.0000000000000000000 ) ) ;
#147 = CARTESIAN_POINT ( 'NONE',  ( -3.236791448487014900E-013, 7.323760430708675900, 0.0000000000000000000 ) ) ;
#148 = LINE ( 'NONE', #149, #424 ) ;
#149 = CARTESIAN_POINT ( 'NONE',  ( 1.600000000000278500, 0.9237604307064089000, 1.959434878636156200E-016 ) ) ;
#150 = DIRECTION ( 'NONE',  ( 0.7071067811865444600, 0.7071067811865505700, 8.659560562355278000E-017 ) ) ;
#151 = LINE ( 'NONE', #152, #426 ) ;
#152 = CARTESIAN_POINT ( 'NONE',  ( 8.000000000002256000, 3.535660653143153500E-013, 0.0000000000000000000 ) ) ;
#153 = DIRECTION ( 'NONE',  ( 4.419575816427695500E-014, -1.000000000000000000, -0.0000000000000000000 ) ) ;
#154 = DIRECTION ( 'NONE',  ( 4.419575816427695500E-014, -1.000000000000000000, -0.0000000000000000000 ) ) ;
#155 = DIRECTION ( 'NONE',  ( 1.000000000000000000, 4.423544863739108100E-014, 0.0000000000000000000 ) ) ;
#156 = CARTESIAN_POINT ( 'NONE',  ( -4.406317088978532500E-012, 99.70000000000271700, 0.0000000000000000000 ) ) ;
#157 = LINE ( 'NONE', #158, #428 ) ;
#158 = CARTESIAN_POINT ( 'NONE',  ( -8.000000000002256000, -3.535660653143153500E-013, 9.797174393181586700E-016 ) ) ;
#159 = DIRECTION ( 'NONE',  ( 4.419575816427695500E-014, -1.000000000000000000, -0.0000000000000000000 ) ) ;
#160 = DIRECTION ( 'NONE',  ( 4.419575816427695500E-014, -1.000000000000000000, -0.0000000000000000000 ) ) ;
#161 = DIRECTION ( 'NONE',  ( 1.000000000000000000, 4.336808689942047400E-014, 0.0000000000000000000 ) ) ;
#162 = CARTESIAN_POINT ( 'NONE',  ( 0.0000000000000000000, 0.0000000000000000000, 0.0000000000000000000 ) ) ;
#163 = DIRECTION ( 'NONE',  ( 4.419575816427695500E-014, -1.000000000000000000, -0.0000000000000000000 ) ) ;
#164 = DIRECTION ( 'NONE',  ( 1.000000000000000000, 4.419575816427695500E-014, 0.0000000000000000000 ) ) ;
#165 = CARTESIAN_POINT ( 'NONE',  ( -2.298508605669269400E-012, 52.00000000000251500, 0.0000000000000000000 ) ) ;
#166 = DIRECTION ( 'NONE',  ( 4.419575816427695500E-014, -1.000000000000000000, -0.0000000000000000000 ) ) ;
#167 = DIRECTION ( 'NONE',  ( 1.000000000000000000, 4.419575816427695500E-014, 0.0000000000000000000 ) ) ;
#168 = CARTESIAN_POINT ( 'NONE',  ( -2.298179424542510000E-012, 52.00000000000244400, 0.0000000000000000000 ) ) ;
#169 = DIRECTION ( 'NONE',  ( -4.419575816427695500E-014, 1.000000000000000000, 0.0000000000000000000 ) ) ;
#170 = DIRECTION ( 'NONE',  ( -1.000000000000000000, -4.414251702263444800E-014, 0.0000000000000000000 ) ) ;
#171 = CARTESIAN_POINT ( 'NONE',  ( -2.291108103236223800E-012, 51.84000000000241200, 0.0000000000000000000 ) ) ;
#172 = DIRECTION ( 'NONE',  ( 4.419575816427695500E-014, -1.000000000000000000, -0.0000000000000000000 ) ) ;
#173 = DIRECTION ( 'NONE',  ( 1.000000000000000000, 4.427675157730984200E-014, 0.0000000000000000000 ) ) ;
#174 = CARTESIAN_POINT ( 'NONE',  ( 0.0000000000000000000, 0.0000000000000000000, 0.0000000000000000000 ) ) ;
#175 = DIRECTION ( 'NONE',  ( 4.419575816427695500E-014, -1.000000000000000000, -0.0000000000000000000 ) ) ;
#176 = DIRECTION ( 'NONE',  ( 1.000000000000000000, 4.419575816427694900E-014, 0.0000000000000000000 ) ) ;
#177 = CARTESIAN_POINT ( 'NONE',  ( -7.218908375379731100E-013, 16.33393944402273200, 0.0000000000000000000 ) ) ;
#178 = DIRECTION ( 'NONE',  ( -4.419575816427695500E-014, 1.000000000000000000, 0.0000000000000000000 ) ) ;
#179 = DIRECTION ( 'NONE',  ( -1.000000000000000000, -4.423544863740113400E-014, 0.0000000000000000000 ) ) ;
#180 = CARTESIAN_POINT ( 'NONE',  ( 0.0000000000000000000, 0.0000000000000000000, 0.0000000000000000000 ) ) ;
#181 = DIRECTION ( 'NONE',  ( 4.419575816427695500E-014, -1.000000000000000000, -0.0000000000000000000 ) ) ;
#182 = DIRECTION ( 'NONE',  ( 1.000000000000000000, 4.419575816427695500E-014, 0.0000000000000000000 ) ) ;
#183 = CARTESIAN_POINT ( 'NONE',  ( -4.082629259722564500E-014, 0.9237604307063382900, 0.0000000000000000000 ) ) ;
#184 = DIRECTION ( 'NONE',  ( -4.419575816427695500E-014, 1.000000000000000000, 0.0000000000000000000 ) ) ;
#185 = DIRECTION ( 'NONE',  ( -1.000000000000000000, -4.418123852877548900E-014, 0.0000000000000000000 ) ) ;
#186 = PLANE ( 'NONE',  #450 ) ;
#187 = CARTESIAN_POINT ( 'NONE',  ( -4.419575816427819100E-012, 100.0000000000028300, 0.0000000000000000000 ) ) ;
#188 = DIRECTION ( 'NONE',  ( -4.419575816427695500E-014, 1.000000000000000000, 0.0000000000000000000 ) ) ;
#189 = DIRECTION ( 'NONE',  ( -1.000000000000000000, -4.419575816427695500E-014, 0.0000000000000000000 ) ) ;
#190 = CARTESIAN_POINT ( 'NONE',  ( -4.406317088978532500E-012, 99.70000000000271700, 0.0000000000000000000 ) ) ;
#191 = DIRECTION ( 'NONE',  ( 4.419575816427695500E-014, -1.000000000000000000, -0.0000000000000000000 ) ) ;
#192 = DIRECTION ( 'NONE',  ( 1.000000000000000000, 4.336808689942047400E-014, 0.0000000000000000000 ) ) ;
#193 = CARTESIAN_POINT ( 'NONE',  ( 0.0000000000000000000, 0.0000000000000000000, 0.0000000000000000000 ) ) ;
#194 = DIRECTION ( 'NONE',  ( 4.419575816427695500E-014, -1.000000000000000000, -0.0000000000000000000 ) ) ;
#195 = DIRECTION ( 'NONE',  ( 1.000000000000000000, 4.419575816427695500E-014, 0.0000000000000000000 ) ) ;
#196 = CARTESIAN_POINT ( 'NONE',  ( -2.298508605669269400E-012, 52.00000000000251500, 0.0000000000000000000 ) ) ;
#197 = DIRECTION ( 'NONE',  ( 4.419575816427695500E-014, -1.000000000000000000, -0.0000000000000000000 ) ) ;
#198 = DIRECTION ( 'NONE',  ( 1.000000000000000000, 4.419575816427695500E-014, 0.0000000000000000000 ) ) ;
#199 = CARTESIAN_POINT ( 'NONE',  ( -2.298179424542510000E-012, 52.00000000000244400, 0.0000000000000000000 ) ) ;
#200 = DIRECTION ( 'NONE',  ( -4.419575816427695500E-014, 1.000000000000000000, 0.0000000000000000000 ) ) ;
#201 = DIRECTION ( 'NONE',  ( -1.000000000000000000, -4.414251702263444800E-014, 0.0000000000000000000 ) ) ;
#202 = PLANE ( 'NONE',  #464 ) ;
#203 = CARTESIAN_POINT ( 'NONE',  ( 8.959999999995602600, 52.00000000000287100, 0.0000000000000000000 ) ) ;
#204 = DIRECTION ( 'NONE',  ( -4.419575816427695500E-014, 1.000000000000000000, 0.0000000000000000000 ) ) ;
#205 = DIRECTION ( 'NONE',  ( -1.000000000000000000, -4.419575816427695500E-014, 0.0000000000000000000 ) ) ;
#206 = CARTESIAN_POINT ( 'NONE',  ( -4.419575816427815900E-012, 100.0000000000027300, 0.0000000000000000000 ) ) ;
#207 = DIRECTION ( 'NONE',  ( 4.419575816427695500E-014, -1.000000000000000000, -0.0000000000000000000 ) ) ;
#208 = DIRECTION ( 'NONE',  ( 1.000000000000000000, 4.505775262277435800E-014, 0.0000000000000000000 ) ) ;
#209 = CARTESIAN_POINT ( 'NONE',  ( -4.406317088978532500E-012, 99.70000000000271700, 0.0000000000000000000 ) ) ;
#210 = DIRECTION ( 'NONE',  ( 4.419575816427695500E-014, -1.000000000000000000, -0.0000000000000000000 ) ) ;
#211 = DIRECTION ( 'NONE',  ( 1.000000000000000000, 4.336808689942047400E-014, 0.0000000000000000000 ) ) ;
#212 = CARTESIAN_POINT ( 'NONE',  ( -2.285931536763382600E-012, 51.72287187079145800, 0.0000000000000000000 ) ) ;
#213 = DIRECTION ( 'NONE',  ( 4.419575816427695500E-014, -1.000000000000000000, -0.0000000000000000000 ) ) ;
#214 = DIRECTION ( 'NONE',  ( 1.000000000000000000, 4.418635268998679500E-014, 0.0000000000000000000 ) ) ;
#215 = CARTESIAN_POINT ( 'NONE',  ( 0.0000000000000000000, 0.0000000000000000000, 0.0000000000000000000 ) ) ;
#216 = DIRECTION ( 'NONE',  ( 4.419575816427695500E-014, -1.000000000000000000, -0.0000000000000000000 ) ) ;
#217 = DIRECTION ( 'NONE',  ( 1.000000000000000000, 4.419575816427694900E-014, 0.0000000000000000000 ) ) ;
#218 = CARTESIAN_POINT ( 'NONE',  ( -2.291108103236223800E-012, 51.84000000000241200, 0.0000000000000000000 ) ) ;
#219 = DIRECTION ( 'NONE',  ( 4.419575816427695500E-014, -1.000000000000000000, -0.0000000000000000000 ) ) ;
#220 = DIRECTION ( 'NONE',  ( 1.000000000000000000, 4.427675157730984200E-014, 0.0000000000000000000 ) ) ;
#221 = CARTESIAN_POINT ( 'NONE',  ( -2.291108103236223800E-012, 51.84000000000241200, 0.0000000000000000000 ) ) ;
#222 = DIRECTION ( 'NONE',  ( 4.419575816427695500E-014, -1.000000000000000000, -0.0000000000000000000 ) ) ;
#223 = DIRECTION ( 'NONE',  ( 1.000000000000000000, 4.427675157730984200E-014, 0.0000000000000000000 ) ) ;
#224 = CARTESIAN_POINT ( 'NONE',  ( -9.919313804509297800E-013, 22.44404037065935500, 0.0000000000000000000 ) ) ;
#225 = LINE ( 'NONE', #226, #471 ) ;
#226 = CARTESIAN_POINT ( 'NONE',  ( 10.49999999999840800, 51.84000000000287400, 0.0000000000000000000 ) ) ;
#227 = DIRECTION ( 'NONE',  ( 0.7071067811863065400, -0.7071067811867884900, 0.0000000000000000000 ) ) ;
#228 = LINE ( 'NONE', #229, #472 ) ;
#229 = CARTESIAN_POINT ( 'NONE',  ( -10.50000000000005200, -4.640554607249102400E-013, 1.285879139104727100E-015 ) ) ;
#230 = DIRECTION ( 'NONE',  ( 4.419575816427695500E-014, -1.000000000000000000, -0.0000000000000000000 ) ) ;
#231 = LINE ( 'NONE', #232, #474 ) ;
#232 = CARTESIAN_POINT ( 'NONE',  ( -8.000000000002067700, 16.33393944402238100, 0.0000000000000000000 ) ) ;
#233 = DIRECTION ( 'NONE',  ( -0.3786864688383792500, 0.9255250176622559200, 0.0000000000000000000 ) ) ;
#234 = DIRECTION ( 'NONE',  ( 4.419575816427695500E-014, -1.000000000000000000, -0.0000000000000000000 ) ) ;
#235 = DIRECTION ( 'NONE',  ( 1.000000000000000000, 4.427675157731532000E-014, 0.0000000000000000000 ) ) ;
#236 = CARTESIAN_POINT ( 'NONE',  ( -8.000000000004350300, 99.70000000000237600, 9.797174393180048400E-016 ) ) ;
#237 = LINE ( 'NONE', #238, #475 ) ;
#238 = CARTESIAN_POINT ( 'NONE',  ( 10.50000000000005200, 4.640554607249102400E-013, 0.0000000000000000000 ) ) ;
#239 = DIRECTION ( 'NONE',  ( 4.419575816427695500E-014, -1.000000000000000000, -0.0000000000000000000 ) ) ;
#240 = LINE ( 'NONE', #241, #477 ) ;
#241 = CARTESIAN_POINT ( 'NONE',  ( 8.000000000000625300, 16.33393944402308800, 9.797174393180474400E-016 ) ) ;
#242 = DIRECTION ( 'NONE',  ( 0.3786864688382973700, 0.9255250176622894500, 4.637571719432848700E-017 ) ) ;
#243 = FILL_AREA_STYLE_COLOUR ( '', #280 ) ;
#244 = FILL_AREA_STYLE ('',( #243 ) ) ;
#245 = SURFACE_STYLE_FILL_AREA ( #244 ) ;
#246 = SURFACE_SIDE_STYLE ('',( #245 ) ) ;
#247 = SURFACE_STYLE_USAGE ( .BOTH. , #246 ) ;
#248 = PRESENTATION_STYLE_ASSIGNMENT (( #247 ) ) ;
#249 =( LENGTH_UNIT ( ) NAMED_UNIT ( * ) SI_UNIT ( .MILLI., .METRE. ) );
#250 =( NAMED_UNIT ( * ) PLANE_ANGLE_UNIT ( ) SI_UNIT ( $, .RADIAN. ) );
#251 =( NAMED_UNIT ( * ) SI_UNIT ( $, .STERADIAN. ) SOLID_ANGLE_UNIT ( ) );
#252 = CARTESIAN_POINT ( 'NONE',  ( -7.700000000004393100, 100.0000000000023700, 9.613477373306676000E-016 ) ) ;
#253 =( LENGTH_UNIT ( ) NAMED_UNIT ( * ) SI_UNIT ( .MILLI., .METRE. ) );
#254 =( NAMED_UNIT ( * ) PLANE_ANGLE_UNIT ( ) SI_UNIT ( $, .RADIAN. ) );
#255 =( NAMED_UNIT ( * ) SI_UNIT ( $, .STERADIAN. ) SOLID_ANGLE_UNIT ( ) );
#256 = APPLICATION_PROTOCOL_DEFINITION ( 'draft international standard', 'automotive_design', 1998, #485 ) ;
#257 = FILL_AREA_STYLE_COLOUR ( '', #282 ) ;
#258 = FILL_AREA_STYLE ('',( #257 ) ) ;
#259 = SURFACE_STYLE_FILL_AREA ( #258 ) ;
#260 = SURFACE_SIDE_STYLE ('',( #259 ) ) ;
#261 = SURFACE_STYLE_USAGE ( .BOTH. , #260 ) ;
#262 = PRESENTATION_STYLE_ASSIGNMENT (( #261 ) ) ;
#263 =( LENGTH_UNIT ( ) NAMED_UNIT ( * ) SI_UNIT ( .MILLI., .METRE. ) );
#264 =( NAMED_UNIT ( * ) PLANE_ANGLE_UNIT ( ) SI_UNIT ( $, .RADIAN. ) );
#265 =( NAMED_UNIT ( * ) SI_UNIT ( $, .STERADIAN. ) SOLID_ANGLE_UNIT ( ) );
#266 = CARTESIAN_POINT ( 'NONE',  ( 0.0000000000000000000, 0.0000000000000000000, 0.0000000000000000000 ) ) ;
#267 = DIRECTION ( 'NONE',  ( 0.0000000000000000000, 0.0000000000000000000, 1.000000000000000000 ) ) ;
#268 = DIRECTION ( 'NONE',  ( 1.000000000000000000, 0.0000000000000000000, 0.0000000000000000000 ) ) ;
#269 = SHAPE_DEFINITION_REPRESENTATION ( #516, #92 ) ;
#270 = PRODUCT_CONTEXT ( 'NONE', #485, 'mechanical' ) ;
#271 = APPLICATION_PROTOCOL_DEFINITION ( 'draft international standard', 'automotive_design', 1998, #486 ) ;
#272 = AXIS2_PLACEMENT_3D ( 'NONE', #511, #510, #509 ) ;
#273 = AXIS2_PLACEMENT_3D ( 'NONE', #496, #495, #494 ) ;
#274 = CLOSED_SHELL ( 'NONE', ( #356, #358, #359, #360, #361, #362, #363, #364, #365, #320, #321, #322, #323, #324, #375, #376, #371, #370, #369, #368, #367, #366 ) ) ;
#275 =( GEOMETRIC_REPRESENTATION_CONTEXT ( 3 ) GLOBAL_UNCERTAINTY_ASSIGNED_CONTEXT ( ( #90 ) ) GLOBAL_UNIT_ASSIGNED_CONTEXT ( ( #249, #250, #251 ) ) REPRESENTATION_CONTEXT ( 'NONE', 'WORKASPACE' ) );
#276 =( GEOMETRIC_REPRESENTATION_CONTEXT ( 3 ) GLOBAL_UNCERTAINTY_ASSIGNED_CONTEXT ( ( #91 ) ) GLOBAL_UNIT_ASSIGNED_CONTEXT ( ( #253, #254, #255 ) ) REPRESENTATION_CONTEXT ( 'NONE', 'WORKASPACE' ) );
#277 =( GEOMETRIC_REPRESENTATION_CONTEXT ( 3 ) GLOBAL_UNCERTAINTY_ASSIGNED_CONTEXT ( ( #93 ) ) GLOBAL_UNIT_ASSIGNED_CONTEXT ( ( #263, #264, #265 ) ) REPRESENTATION_CONTEXT ( 'NONE', 'WORKASPACE' ) );
#278 = PRODUCT_RELATED_PRODUCT_CATEGORY ( 'part', '', ( #483 ) ) ;
#279 = PRODUCT_DEFINITION ( 'UNKNOWN', '', #596, #515 ) ;
#280 = COLOUR_RGB ( '',0.7921568627450980000, 0.8196078431372548800, 0.9333333333333333500 ) ;
#281 = EDGE_CURVE ( 'NONE', #58, #57, #319, .T. ) ;
#282 = COLOUR_RGB ( '',0.7921568627450980000, 0.8196078431372548800, 0.9333333333333333500 ) ;
#283 = CIRCLE ( 'NONE', #470, 10.49999999999940000 ) ;
#284 = CONICAL_SURFACE ( 'NONE', #469, 10.50000000000070000, 0.7853981633970633600 ) ;
#285 = CIRCLE ( 'NONE', #457, 10.50000000000070000 ) ;
#286 = CIRCLE ( 'NONE', #449, 8.479999999997788900 ) ;
#287 = CIRCLE ( 'NONE', #463, 7.699999999999974400 ) ;
#288 = TOROIDAL_SURFACE ( 'NONE', #458, 8.319999999997865100, 0.3199999999999986700 ) ;
#289 = CIRCLE ( 'NONE', #462, 7.999999999999944900 ) ;
#290 = CONICAL_SURFACE ( 'NONE', #452, 7.999999999999944900, 0.7853981633973846600 ) ;
#291 = CONICAL_SURFACE ( 'NONE', #448, 1.600000000000319200, 0.7853981633974881400 ) ;
#292 = CONICAL_SURFACE ( 'NONE', #443, 8.000000000001346500, 0.3883766555391121000 ) ;
#293 = CONICAL_SURFACE ( 'NONE', #460, 8.959999999997901200, 1.047197551196745500 ) ;
#294 = TOROIDAL_SURFACE ( 'NONE', #433, 8.319999999997865100, 0.3199999999999986700 ) ;
#295 = CONICAL_SURFACE ( 'NONE', #436, 10.50000000000070000, 0.7853981633970633600 ) ;
#296 = CONICAL_SURFACE ( 'NONE', #434, 8.959999999997901200, 1.047197551196745500 ) ;
#297 = CONICAL_SURFACE ( 'NONE', #429, 7.999999999999944900, 0.7853981633973846600 ) ;
#298 = CIRCLE ( 'NONE', #423, 8.000000000003165500 ) ;
#299 = CIRCLE ( 'NONE', #419, 1.600000000000319200 ) ;
#300 = CIRCLE ( 'NONE', #417, 1.600000000000319200 ) ;
#301 = CIRCLE ( 'NONE', #416, 8.000000000003165500 ) ;
#302 = CIRCLE ( 'NONE', #415, 8.000000000001346500 ) ;
#303 = CIRCLE ( 'NONE', #414, 10.49999999999940000 ) ;
#304 = CIRCLE ( 'NONE', #413, 10.50000000000070000 ) ;
#305 = CIRCLE ( 'NONE', #394, 10.34000000000073900 ) ;
#306 = CIRCLE ( 'NONE', #411, 8.959999999997901200 ) ;
#307 = CIRCLE ( 'NONE', #409, 7.999999999997866600 ) ;
#308 = CIRCLE ( 'NONE', #396, 0.3199999999999991200 ) ;
#309 = CIRCLE ( 'NONE', #403, 8.479999999997788900 ) ;
#310 = CIRCLE ( 'NONE', #407, 7.999999999999944900 ) ;
#311 = CIRCLE ( 'NONE', #406, 7.999999999997866600 ) ;
#312 = CIRCLE ( 'NONE', #405, 0.3199999999999991200 ) ;
#313 = CIRCLE ( 'NONE', #400, 8.959999999997901200 ) ;
#314 = CIRCLE ( 'NONE', #398, 7.699999999999974400 ) ;
#315 = CONICAL_SURFACE ( 'NONE', #395, 8.000000000001346500, 0.3883766555391121000 ) ;
#316 = CIRCLE ( 'NONE', #273, 10.34000000000073900 ) ;
#317 = CONICAL_SURFACE ( 'NONE', #391, 1.600000000000319200, 0.7853981633974881400 ) ;
#318 = CONICAL_SURFACE ( 'NONE', #389, 1732.050807563715600, 1.047197551195307300 ) ;
#319 = CIRCLE ( 'NONE', #384, 8.000000000001346500 ) ;
#320 = ADVANCED_FACE ( 'NONE', ( #385 ), #357, .T. ) ;
#321 = ADVANCED_FACE ( 'NONE', ( #386 ), #318, .T. ) ;
#322 = ADVANCED_FACE ( 'NONE', ( #388 ), #317, .T. ) ;
#323 = ADVANCED_FACE ( 'NONE', ( #390 ), #393, .T. ) ;
#324 = ADVANCED_FACE ( 'NONE', ( #387 ), #315, .T. ) ;
#325 = EDGE_CURVE ( 'NONE', #64, #63, #316, .T. ) ;
#326 = EDGE_CURVE ( 'NONE', #534, #70, #492, .T. ) ;
#327 = EDGE_CURVE ( 'NONE', #68, #65, #489, .T. ) ;
#328 = EDGE_CURVE ( 'NONE', #51, #559, #314, .T. ) ;
#329 = EDGE_CURVE ( 'NONE', #67, #66, #13, .T. ) ;
#330 = EDGE_CURVE ( 'NONE', #559, #534, #10, .T. ) ;
#331 = EDGE_CURVE ( 'NONE', #63, #62, #7, .T. ) ;
#332 = EDGE_CURVE ( 'NONE', #65, #66, #313, .T. ) ;
#333 = EDGE_CURVE ( 'NONE', #67, #69, #312, .T. ) ;
#334 = EDGE_CURVE ( 'NONE', #70, #69, #311, .T. ) ;
#335 = EDGE_CURVE ( 'NONE', #71, #534, #310, .T. ) ;
#336 = EDGE_CURVE ( 'NONE', #68, #67, #309, .T. ) ;
#337 = EDGE_CURVE ( 'NONE', #68, #70, #308, .T. ) ;
#338 = EDGE_CURVE ( 'NONE', #71, #69, #106, .T. ) ;
#339 = EDGE_CURVE ( 'NONE', #69, #70, #307, .T. ) ;
#340 = EDGE_CURVE ( 'NONE', #51, #71, #112, .T. ) ;
#341 = EDGE_CURVE ( 'NONE', #66, #65, #306, .T. ) ;
#342 = EDGE_CURVE ( 'NONE', #63, #64, #305, .T. ) ;
#343 = EDGE_CURVE ( 'NONE', #62, #61, #304, .T. ) ;
#344 = EDGE_CURVE ( 'NONE', #60, #59, #303, .T. ) ;
#345 = EDGE_CURVE ( 'NONE', #57, #58, #302, .T. ) ;
#346 = EDGE_CURVE ( 'NONE', #56, #55, #301, .T. ) ;
#347 = EDGE_CURVE ( 'NONE', #53, #54, #300, .T. ) ;
#348 = EDGE_CURVE ( 'NONE', #52, #53, #136, .T. ) ;
#349 = EDGE_CURVE ( 'NONE', #52, #54, #139, .T. ) ;
#350 = EDGE_CURVE ( 'NONE', #53, #56, #142, .T. ) ;
#351 = EDGE_CURVE ( 'NONE', #54, #53, #299, .T. ) ;
#352 = EDGE_CURVE ( 'NONE', #54, #55, #148, .T. ) ;
#353 = EDGE_CURVE ( 'NONE', #58, #55, #151, .T. ) ;
#354 = EDGE_CURVE ( 'NONE', #55, #56, #298, .T. ) ;
#355 = EDGE_CURVE ( 'NONE', #57, #56, #157, .T. ) ;
#356 = ADVANCED_FACE ( 'NONE', ( #408 ), #297, .T. ) ;
#357 = CONICAL_SURFACE ( 'NONE', #272, 1732.050807563715600, 1.047197551195307300 ) ;
#358 = ADVANCED_FACE ( 'NONE', ( #425 ), #431, .T. ) ;
#359 = ADVANCED_FACE ( 'NONE', ( #427 ), #294, .F. ) ;
#360 = ADVANCED_FACE ( 'NONE', ( #432 ), #296, .F. ) ;
#361 = ADVANCED_FACE ( 'NONE', ( #421 ), #295, .T. ) ;
#362 = ADVANCED_FACE ( 'NONE', ( #437 ), #440, .T. ) ;
#363 = ADVANCED_FACE ( 'NONE', ( #438 ), #292, .T. ) ;
#364 = ADVANCED_FACE ( 'NONE', ( #442 ), #445, .T. ) ;
#365 = ADVANCED_FACE ( 'NONE', ( #441 ), #291, .T. ) ;
#366 = ADVANCED_FACE ( 'NONE', ( #447 ), #186, .T. ) ;
#367 = ADVANCED_FACE ( 'NONE', ( #446 ), #290, .T. ) ;
#368 = ADVANCED_FACE ( 'NONE', ( #451 ), #455, .T. ) ;
#369 = ADVANCED_FACE ( 'NONE', ( #453 ), #288, .F. ) ;
#370 = ADVANCED_FACE ( 'NONE', ( #456 ), #293, .F. ) ;
#371 = ADVANCED_FACE ( 'NONE', ( #459, #461 ), #202, .T. ) ;
#372 = EDGE_CURVE ( 'NONE', #559, #51, #287, .T. ) ;
#373 = EDGE_CURVE ( 'NONE', #534, #71, #289, .T. ) ;
#374 = EDGE_CURVE ( 'NONE', #67, #68, #286, .T. ) ;
#375 = ADVANCED_FACE ( 'NONE', ( #465 ), #468, .T. ) ;
#376 = ADVANCED_FACE ( 'NONE', ( #467 ), #284, .T. ) ;
#377 = EDGE_CURVE ( 'NONE', #61, #62, #285, .T. ) ;
#378 = EDGE_CURVE ( 'NONE', #64, #61, #225, .T. ) ;
#379 = EDGE_CURVE ( 'NONE', #62, #60, #228, .T. ) ;
#380 = EDGE_CURVE ( 'NONE', #57, #60, #231, .T. ) ;
#381 = EDGE_CURVE ( 'NONE', #59, #60, #283, .T. ) ;
#382 = EDGE_CURVE ( 'NONE', #61, #59, #237, .T. ) ;
#383 = EDGE_CURVE ( 'NONE', #58, #59, #240, .T. ) ;
#384 = AXIS2_PLACEMENT_3D ( 'NONE', #565, #513, #512 ) ;
#385 = FACE_OUTER_BOUND ( 'NONE', #19, .T. ) ;
#386 = FACE_OUTER_BOUND ( 'NONE', #20, .T. ) ;
#387 = FACE_OUTER_BOUND ( 'NONE', #23, .T. ) ;
#388 = FACE_OUTER_BOUND ( 'NONE', #21, .T. ) ;
#389 = AXIS2_PLACEMENT_3D ( 'NONE', #508, #507, #506 ) ;
#390 = FACE_OUTER_BOUND ( 'NONE', #22, .T. ) ;
#391 = AXIS2_PLACEMENT_3D ( 'NONE', #505, #504, #503 ) ;
#392 = AXIS2_PLACEMENT_3D ( 'NONE', #502, #501, #500 ) ;
#393 = CYLINDRICAL_SURFACE ( 'NONE', #392, 8.000000000002256000 ) ;
#394 = AXIS2_PLACEMENT_3D ( 'NONE', #117, #118, #119 ) ;
#395 = AXIS2_PLACEMENT_3D ( 'NONE', #499, #498, #497 ) ;
#396 = AXIS2_PLACEMENT_3D ( 'NONE', #102, #103, #104 ) ;
#397 = VECTOR ( 'NONE', #490, 1000.000000000000000 ) ;
#398 = AXIS2_PLACEMENT_3D ( 'NONE', #493, #16, #15 ) ;
#399 = VECTOR ( 'NONE', #487, 1000.000000000000100 ) ;
#400 = AXIS2_PLACEMENT_3D ( 'NONE', #14, #4, #3 ) ;
#401 = VECTOR ( 'NONE', #11, 1000.000000000000000 ) ;
#402 = VECTOR ( 'NONE', #8, 999.9999999999998900 ) ;
#403 = AXIS2_PLACEMENT_3D ( 'NONE', #99, #100, #101 ) ;
#404 = VECTOR ( 'NONE', #5, 999.9999999999998900 ) ;
#405 = AXIS2_PLACEMENT_3D ( 'NONE', #1, #2, #435 ) ;
#406 = AXIS2_PLACEMENT_3D ( 'NONE', #484, #94, #95 ) ;
#407 = AXIS2_PLACEMENT_3D ( 'NONE', #96, #97, #98 ) ;
#408 = FACE_OUTER_BOUND ( 'NONE', #589, .T. ) ;
#409 = AXIS2_PLACEMENT_3D ( 'NONE', #105, #109, #110 ) ;
#410 = VECTOR ( 'NONE', #108, 1000.000000000000000 ) ;
#411 = AXIS2_PLACEMENT_3D ( 'NONE', #111, #115, #116 ) ;
#412 = VECTOR ( 'NONE', #114, 1000.000000000000000 ) ;
#413 = AXIS2_PLACEMENT_3D ( 'NONE', #120, #121, #122 ) ;
#414 = AXIS2_PLACEMENT_3D ( 'NONE', #123, #124, #125 ) ;
#415 = AXIS2_PLACEMENT_3D ( 'NONE', #126, #127, #128 ) ;
#416 = AXIS2_PLACEMENT_3D ( 'NONE', #129, #130, #131 ) ;
#417 = AXIS2_PLACEMENT_3D ( 'NONE', #132, #133, #134 ) ;
#418 = VECTOR ( 'NONE', #138, 1000.000000000000000 ) ;
#419 = AXIS2_PLACEMENT_3D ( 'NONE', #135, #145, #146 ) ;
#420 = VECTOR ( 'NONE', #141, 1000.000000000000100 ) ;
#421 = FACE_OUTER_BOUND ( 'NONE', #593, .T. ) ;
#422 = VECTOR ( 'NONE', #144, 1000.000000000000000 ) ;
#423 = AXIS2_PLACEMENT_3D ( 'NONE', #147, #154, #155 ) ;
#424 = VECTOR ( 'NONE', #150, 1000.000000000000000 ) ;
#425 = FACE_OUTER_BOUND ( 'NONE', #590, .T. ) ;
#426 = VECTOR ( 'NONE', #153, 1000.000000000000000 ) ;
#427 = FACE_OUTER_BOUND ( 'NONE', #591, .T. ) ;
#428 = VECTOR ( 'NONE', #159, 1000.000000000000000 ) ;
#429 = AXIS2_PLACEMENT_3D ( 'NONE', #156, #160, #161 ) ;
#430 = AXIS2_PLACEMENT_3D ( 'NONE', #162, #163, #164 ) ;
#431 = CYLINDRICAL_SURFACE ( 'NONE', #430, 7.999999999998905800 ) ;
#432 = FACE_OUTER_BOUND ( 'NONE', #592, .T. ) ;
#433 = AXIS2_PLACEMENT_3D ( 'NONE', #165, #166, #167 ) ;
#434 = AXIS2_PLACEMENT_3D ( 'NONE', #168, #169, #170 ) ;
#435 = DIRECTION ( 'NONE',  ( -1.000000000000000000, 0.0000000000000000000, 0.0000000000000000000 ) ) ;
#436 = AXIS2_PLACEMENT_3D ( 'NONE', #171, #172, #173 ) ;
#437 = FACE_OUTER_BOUND ( 'NONE', #594, .T. ) ;
#438 = FACE_OUTER_BOUND ( 'NONE', #595, .T. ) ;
#439 = AXIS2_PLACEMENT_3D ( 'NONE', #174, #175, #176 ) ;
#440 = CYLINDRICAL_SURFACE ( 'NONE', #439, 10.50000000000005200 ) ;
#441 = FACE_OUTER_BOUND ( 'NONE', #18, .T. ) ;
#442 = FACE_OUTER_BOUND ( 'NONE', #17, .T. ) ;
#443 = AXIS2_PLACEMENT_3D ( 'NONE', #177, #178, #179 ) ;
#444 = AXIS2_PLACEMENT_3D ( 'NONE', #180, #181, #182 ) ;
#445 = CYLINDRICAL_SURFACE ( 'NONE', #444, 8.000000000002256000 ) ;
#446 = FACE_OUTER_BOUND ( 'NONE', #31, .T. ) ;
#447 = FACE_OUTER_BOUND ( 'NONE', #32, .T. ) ;
#448 = AXIS2_PLACEMENT_3D ( 'NONE', #183, #184, #185 ) ;
#449 = AXIS2_PLACEMENT_3D ( 'NONE', #212, #213, #214 ) ;
#450 = AXIS2_PLACEMENT_3D ( 'NONE', #187, #188, #189 ) ;
#451 = FACE_OUTER_BOUND ( 'NONE', #30, .T. ) ;
#452 = AXIS2_PLACEMENT_3D ( 'NONE', #190, #191, #192 ) ;
#453 = FACE_OUTER_BOUND ( 'NONE', #29, .T. ) ;
#454 = AXIS2_PLACEMENT_3D ( 'NONE', #193, #194, #195 ) ;
#455 = CYLINDRICAL_SURFACE ( 'NONE', #454, 7.999999999998905800 ) ;
#456 = FACE_OUTER_BOUND ( 'NONE', #28, .T. ) ;
#457 = AXIS2_PLACEMENT_3D ( 'NONE', #221, #222, #223 ) ;
#458 = AXIS2_PLACEMENT_3D ( 'NONE', #196, #197, #198 ) ;
#459 = FACE_BOUND ( 'NONE', #26, .T. ) ;
#460 = AXIS2_PLACEMENT_3D ( 'NONE', #199, #200, #201 ) ;
#461 = FACE_OUTER_BOUND ( 'NONE', #27, .T. ) ;
#462 = AXIS2_PLACEMENT_3D ( 'NONE', #209, #210, #211 ) ;
#463 = AXIS2_PLACEMENT_3D ( 'NONE', #206, #207, #208 ) ;
#464 = AXIS2_PLACEMENT_3D ( 'NONE', #203, #204, #205 ) ;
#465 = FACE_OUTER_BOUND ( 'NONE', #24, .T. ) ;
#466 = AXIS2_PLACEMENT_3D ( 'NONE', #215, #216, #217 ) ;
#467 = FACE_OUTER_BOUND ( 'NONE', #25, .T. ) ;
#468 = CYLINDRICAL_SURFACE ( 'NONE', #466, 10.50000000000005200 ) ;
#469 = AXIS2_PLACEMENT_3D ( 'NONE', #218, #219, #220 ) ;
#470 = AXIS2_PLACEMENT_3D ( 'NONE', #224, #234, #235 ) ;
#471 = VECTOR ( 'NONE', #227, 1000.000000000000000 ) ;
#472 = VECTOR ( 'NONE', #230, 1000.000000000000000 ) ;
#473 = STYLED_ITEM ( 'NONE', ( #248 ), #514 ) ;
#474 = VECTOR ( 'NONE', #233, 1000.000000000000200 ) ;
#475 = VECTOR ( 'NONE', #239, 1000.000000000000000 ) ;
#476 = PRESENTATION_LAYER_ASSIGNMENT (  '', '', ( #473 ) ) ;
#477 = VECTOR ( 'NONE', #242, 1000.000000000000000 ) ;
#478 = MECHANICAL_DESIGN_GEOMETRIC_PRESENTATION_REPRESENTATION (  '', ( #473 ), #275 ) ;
#479 = STYLED_ITEM ( 'NONE', ( #262 ), #92 ) ;
#480 = PRESENTATION_LAYER_ASSIGNMENT (  '', '', ( #479 ) ) ;
#481 = MECHANICAL_DESIGN_GEOMETRIC_PRESENTATION_REPRESENTATION (  '', ( #479 ), #277 ) ;
#482 = AXIS2_PLACEMENT_3D ( 'NONE', #266, #267, #268 ) ;
#483 = PRODUCT ( '99688-SI16-16+S9MT1604-090', '99688-SI16-16+S9MT1604-090', '', ( #270 ) ) ;
#484 = CARTESIAN_POINT ( 'NONE',  ( -2.298179424542511600E-012, 52.00000000000248700, 0.0000000000000000000 ) ) ;
#485 = APPLICATION_CONTEXT ( 'automotive_design' ) ;
#486 = APPLICATION_CONTEXT ( 'automotive_design' ) ;
#487 = DIRECTION ( 'NONE',  ( -0.8660254037845345200, 0.4999999999998337400, 0.0000000000000000000 ) ) ;
#488 = CARTESIAN_POINT ( 'NONE',  ( -8.960000000000199800, 52.00000000000205300, 0.0000000000000000000 ) ) ;
#489 = LINE ( 'NONE', #488, #399 ) ;
#490 = DIRECTION ( 'NONE',  ( 4.419575816427695500E-014, -1.000000000000000000, -0.0000000000000000000 ) ) ;
#491 = CARTESIAN_POINT ( 'NONE',  ( -7.999999999998905800, -3.535660653141672700E-013, 9.797174393177484600E-016 ) ) ;
#492 = LINE ( 'NONE', #491, #397 ) ;
#493 = CARTESIAN_POINT ( 'NONE',  ( -4.419575816427815900E-012, 100.0000000000027300, 0.0000000000000000000 ) ) ;
#494 = DIRECTION ( 'NONE',  ( 1.000000000000000000, 4.429081215259616700E-014, 0.0000000000000000000 ) ) ;
#495 = DIRECTION ( 'NONE',  ( 4.419575816427695500E-014, -1.000000000000000000, -0.0000000000000000000 ) ) ;
#496 = CARTESIAN_POINT ( 'NONE',  ( -2.298179424542512000E-012, 52.00000000000249400, 0.0000000000000000000 ) ) ;
#497 = DIRECTION ( 'NONE',  ( -1.000000000000000000, -4.423544863740113400E-014, 0.0000000000000000000 ) ) ;
#498 = DIRECTION ( 'NONE',  ( -4.419575816427695500E-014, 1.000000000000000000, 0.0000000000000000000 ) ) ;
#499 = CARTESIAN_POINT ( 'NONE',  ( -7.218908375379731100E-013, 16.33393944402273200, 0.0000000000000000000 ) ) ;
#500 = DIRECTION ( 'NONE',  ( 1.000000000000000000, 4.419575816427695500E-014, 0.0000000000000000000 ) ) ;
#501 = DIRECTION ( 'NONE',  ( 4.419575816427695500E-014, -1.000000000000000000, -0.0000000000000000000 ) ) ;
#502 = CARTESIAN_POINT ( 'NONE',  ( 0.0000000000000000000, 0.0000000000000000000, 0.0000000000000000000 ) ) ;
#503 = DIRECTION ( 'NONE',  ( -1.000000000000000000, -4.418123852877548900E-014, 0.0000000000000000000 ) ) ;
#504 = DIRECTION ( 'NONE',  ( -4.419575816427695500E-014, 1.000000000000000000, 0.0000000000000000000 ) ) ;
#505 = CARTESIAN_POINT ( 'NONE',  ( -4.082629259722564500E-014, 0.9237604307063382900, 0.0000000000000000000 ) ) ;
#506 = DIRECTION ( 'NONE',  ( -1.000000000000000000, -4.416404303074080100E-014, 0.0000000000000000000 ) ) ;
#507 = DIRECTION ( 'NONE',  ( -4.419575816427695500E-014, 1.000000000000000000, 0.0000000000000000000 ) ) ;
#508 = CARTESIAN_POINT ( 'NONE',  ( -4.419575816427695200E-011, 1000.000000000000000, 0.0000000000000000000 ) ) ;
#509 = DIRECTION ( 'NONE',  ( -1.000000000000000000, -4.416404303074080100E-014, 0.0000000000000000000 ) ) ;
#510 = DIRECTION ( 'NONE',  ( -4.419575816427695500E-014, 1.000000000000000000, 0.0000000000000000000 ) ) ;
#511 = CARTESIAN_POINT ( 'NONE',  ( -4.419575816427695200E-011, 1000.000000000000000, 0.0000000000000000000 ) ) ;
#512 = DIRECTION ( 'NONE',  ( 1.000000000000000000, 4.423544863740113400E-014, 0.0000000000000000000 ) ) ;
#513 = DIRECTION ( 'NONE',  ( 4.419575816427695500E-014, -1.000000000000000000, -0.0000000000000000000 ) ) ;
#514 = MANIFOLD_SOLID_BREP ( '±ÛÂà1', #274 ) ;
#515 = PRODUCT_DEFINITION_CONTEXT ( 'detailed design', #486, 'design' ) ;
#516 = PRODUCT_DEFINITION_SHAPE ( 'NONE', 'NONE',  #279 ) ;
#517 = ORIENTED_EDGE ( 'NONE', *, *, #353, .T. ) ;
#518 = ORIENTED_EDGE ( 'NONE', *, *, #350, .T. ) ;
#519 = ORIENTED_EDGE ( 'NONE', *, *, #347, .F. ) ;
#520 = ORIENTED_EDGE ( 'NONE', *, *, #352, .F. ) ;
#521 = ORIENTED_EDGE ( 'NONE', *, *, #346, .T. ) ;
#522 = ORIENTED_EDGE ( 'NONE', *, *, #347, .T. ) ;
#523 = ORIENTED_EDGE ( 'NONE', *, *, #348, .T. ) ;
#524 = ORIENTED_EDGE ( 'NONE', *, *, #349, .F. ) ;
#525 = ORIENTED_EDGE ( 'NONE', *, *, #349, .T. ) ;
#526 = ORIENTED_EDGE ( 'NONE', *, *, #351, .T. ) ;
#527 = ORIENTED_EDGE ( 'NONE', *, *, #348, .F. ) ;
#528 = ORIENTED_EDGE ( 'NONE', *, *, #350, .F. ) ;
#529 = ORIENTED_EDGE ( 'NONE', *, *, #352, .T. ) ;
#530 = ORIENTED_EDGE ( 'NONE', *, *, #354, .T. ) ;
#531 = ORIENTED_EDGE ( 'NONE', *, *, #351, .F. ) ;
#532 = ORIENTED_EDGE ( 'NONE', *, *, #353, .F. ) ;
#533 = ORIENTED_EDGE ( 'NONE', *, *, #355, .T. ) ;
#534 = VERTEX_POINT ( 'NONE', #236 ) ;
#535 = ORIENTED_EDGE ( 'NONE', *, *, #372, .F. ) ;
#536 = ORIENTED_EDGE ( 'NONE', *, *, #328, .F. ) ;
#537 = ORIENTED_EDGE ( 'NONE', *, *, #373, .F. ) ;
#538 = ORIENTED_EDGE ( 'NONE', *, *, #372, .T. ) ;
#539 = ORIENTED_EDGE ( 'NONE', *, *, #330, .F. ) ;
#540 = ORIENTED_EDGE ( 'NONE', *, *, #334, .F. ) ;
#541 = ORIENTED_EDGE ( 'NONE', *, *, #340, .T. ) ;
#542 = ORIENTED_EDGE ( 'NONE', *, *, #373, .T. ) ;
#543 = ORIENTED_EDGE ( 'NONE', *, *, #326, .F. ) ;
#544 = ORIENTED_EDGE ( 'NONE', *, *, #338, .T. ) ;
#545 = ORIENTED_EDGE ( 'NONE', *, *, #333, .T. ) ;
#546 = ORIENTED_EDGE ( 'NONE', *, *, #374, .F. ) ;
#547 = ORIENTED_EDGE ( 'NONE', *, *, #337, .F. ) ;
#548 = ORIENTED_EDGE ( 'NONE', *, *, #341, .F. ) ;
#549 = ORIENTED_EDGE ( 'NONE', *, *, #339, .T. ) ;
#550 = ORIENTED_EDGE ( 'NONE', *, *, #374, .T. ) ;
#551 = ORIENTED_EDGE ( 'NONE', *, *, #329, .F. ) ;
#552 = ORIENTED_EDGE ( 'NONE', *, *, #325, .F. ) ;
#553 = ORIENTED_EDGE ( 'NONE', *, *, #342, .F. ) ;
#554 = ORIENTED_EDGE ( 'NONE', *, *, #331, .T. ) ;
#555 = ORIENTED_EDGE ( 'NONE', *, *, #378, .F. ) ;
#556 = ORIENTED_EDGE ( 'NONE', *, *, #377, .T. ) ;
#557 = ORIENTED_EDGE ( 'NONE', *, *, #381, .F. ) ;
#558 = ORIENTED_EDGE ( 'NONE', *, *, #379, .T. ) ;
#559 = VERTEX_POINT ( 'NONE', #252 ) ;
#560 = ORIENTED_EDGE ( 'NONE', *, *, #380, .F. ) ;
#561 = ORIENTED_EDGE ( 'NONE', *, *, #382, .F. ) ;
#562 = ORIENTED_EDGE ( 'NONE', *, *, #281, .F. ) ;
#563 = ORIENTED_EDGE ( 'NONE', *, *, #381, .T. ) ;
#564 = ORIENTED_EDGE ( 'NONE', *, *, #383, .T. ) ;
#565 = CARTESIAN_POINT ( 'NONE',  ( -7.218908375379731100E-013, 16.33393944402273200, 0.0000000000000000000 ) ) ;
#566 = CARTESIAN_POINT ( 'NONE',  ( 7.999999999995538700, 99.70000000000305800, 0.0000000000000000000 ) ) ;
#567 = CARTESIAN_POINT ( 'NONE',  ( -8.000000000000165200, 52.00000000000213200, 1.009108962497153300E-015 ) ) ;
#568 = CARTESIAN_POINT ( 'NONE',  ( 7.999999999995568000, 52.00000000000284200, 0.0000000000000000000 ) ) ;
#569 = CARTESIAN_POINT ( 'NONE',  ( -8.480000000000076800, 51.72287187079108200, 0.0000000000000000000 ) ) ;
#570 = CARTESIAN_POINT ( 'NONE',  ( 8.479999999995502700, 51.72287187079183500, 1.067892008856228100E-015 ) ) ;
#571 = CARTESIAN_POINT ( 'NONE',  ( 8.959999999995602600, 52.00000000000284200, 1.097283532035771600E-015 ) ) ;
#572 = CARTESIAN_POINT ( 'NONE',  ( -8.960000000000199800, 52.00000000000205300, 0.0000000000000000000 ) ) ;
#573 = CARTESIAN_POINT ( 'NONE',  ( 10.33999999999844000, 52.00000000000295600, 0.0000000000000000000 ) ) ;
#574 = CARTESIAN_POINT ( 'NONE',  ( -10.34000000000303700, 52.00000000000203900, 1.276081964711630200E-015 ) ) ;
#575 = CARTESIAN_POINT ( 'NONE',  ( -10.50000000000299100, 51.84000000000195000, 1.285879139104886100E-015 ) ) ;
#576 = CARTESIAN_POINT ( 'NONE',  ( 10.49999999999840800, 51.84000000000287400, 0.0000000000000000000 ) ) ;
#577 = CARTESIAN_POINT ( 'NONE',  ( -10.50000000000039300, 22.44404037065889000, 0.0000000000000000000 ) ) ;
#578 = CARTESIAN_POINT ( 'NONE',  ( 10.49999999999841000, 22.44404037065982000, 1.285879139104647300E-015 ) ) ;
#579 = CARTESIAN_POINT ( 'NONE',  ( 8.000000000000625300, 16.33393944402308800, 0.0000000000000000000 ) ) ;
#580 = CARTESIAN_POINT ( 'NONE',  ( -8.000000000002067700, 16.33393944402238100, 9.797174393181273100E-016 ) ) ;
#581 = CARTESIAN_POINT ( 'NONE',  ( -8.000000000003488800, 7.323760430708322400, 0.0000000000000000000 ) ) ;
#582 = CARTESIAN_POINT ( 'NONE',  ( 8.000000000002843900, 7.323760430709029400, 9.797174393182706900E-016 ) ) ;
#583 = CARTESIAN_POINT ( 'NONE',  ( 1.600000000000278100, 0.9237604307064090100, 1.959434878636155700E-016 ) ) ;
#584 = CARTESIAN_POINT ( 'NONE',  ( -1.600000000000359800, 0.9237604307062675700, 0.0000000000000000000 ) ) ;
#585 = CARTESIAN_POINT ( 'NONE',  ( 0.0000000000000000000, 0.0000000000000000000, 0.0000000000000000000 ) ) ;
#586 = CARTESIAN_POINT ( 'NONE',  ( 7.699999999995554800, 100.0000000000030700, 0.0000000000000000000 ) ) ;
#587 = ORIENTED_EDGE ( 'NONE', *, *, #281, .T. ) ;
#588 = ORIENTED_EDGE ( 'NONE', *, *, #354, .F. ) ;
#589 = EDGE_LOOP ( 'NONE', ( #41, #35, #34, #37 ) ) ;
#590 = EDGE_LOOP ( 'NONE', ( #33, #47, #36, #39 ) ) ;
#591 = EDGE_LOOP ( 'NONE', ( #48, #45, #46, #43 ) ) ;
#592 = EDGE_LOOP ( 'NONE', ( #44, #50, #42, #40 ) ) ;
#593 = EDGE_LOOP ( 'NONE', ( #38, #554, #49, #555 ) ) ;
#594 = EDGE_LOOP ( 'NONE', ( #556, #558, #557, #561 ) ) ;
#595 = EDGE_LOOP ( 'NONE', ( #562, #564, #563, #560 ) ) ;
#596 = PRODUCT_DEFINITION_FORMATION_WITH_SPECIFIED_SOURCE ( 'ANY', '', #483, .NOT_KNOWN. ) ;
ENDSEC;
END-ISO-10303-21;
