ISO-10303-21;
HEADER;
FILE_DESCRIPTION (( 'STEP AP214' ),
    '1' );
FILE_NAME ('99688-SI08-08+S9MT0802-120.STEP',
    '2022-11-03T01:06:49',
    ( 'User' ),
    ( 'GENUINE' ),
    'SwSTEP 2.0',
    'SolidWorks 2012',
    '' );
FILE_SCHEMA (( 'AUTOMOTIVE_DESIGN' ));
ENDSEC;

DATA;
#1 = DIRECTION ( 'NONE',  ( -8.745141363201133000E-016, 1.000000000000000000, -0.0000000000000000000 ) ) ;
#2 = CARTESIAN_POINT ( 'NONE',  ( -2.523973372000040600E-014, 28.86143593539519600, 0.0000000000000000000 ) ) ;
#3 = DIRECTION ( 'NONE',  ( -1.000000000000000000, 0.0000000000000000000, 0.0000000000000000000 ) ) ;
#4 = DIRECTION ( 'NONE',  ( -8.745141363201133000E-016, 1.000000000000000000, -0.0000000000000000000 ) ) ;
#5 = CARTESIAN_POINT ( 'NONE',  ( -5.684341886080801500E-014, 65.00000000000075300, 0.0000000000000000000 ) ) ;
#6 = DIRECTION ( 'NONE',  ( -1.000000000000000000, -8.745141363201133000E-016, 0.0000000000000000000 ) ) ;
#7 = DIRECTION ( 'NONE',  ( -8.745141363201133000E-016, 1.000000000000000000, -0.0000000000000000000 ) ) ;
#8 = CARTESIAN_POINT ( 'NONE',  ( -2.602085213965210600E-014, 29.00000000000072800, 0.0000000000000000000 ) ) ;
#9 = DIRECTION ( 'NONE',  ( -1.000000000000000000, -7.744301232043468100E-016, 0.0000000000000000000 ) ) ;
#10 = DIRECTION ( 'NONE',  ( -8.745141363201133000E-016, 1.000000000000000000, -0.0000000000000000000 ) ) ;
#11 = CARTESIAN_POINT ( 'NONE',  ( -2.536090995328389600E-014, 29.00000000000070700, 0.0000000000000000000 ) ) ;
#12 = DIRECTION ( 'NONE',  ( 1.000000000000000000, 8.745141363201133000E-016, 0.0000000000000000000 ) ) ;
#13 = DIRECTION ( 'NONE',  ( 8.745141363201133000E-016, -1.000000000000000000, 0.0000000000000000000 ) ) ;
#14 = CARTESIAN_POINT ( 'NONE',  ( 4.479999999997573900, 29.00000000000074600, 0.0000000000000000000 ) ) ;
#15 = PLANE ( 'NONE',  #22 ) ;
#16 = UNCERTAINTY_MEASURE_WITH_UNIT (LENGTH_MEASURE( 1.000000000000000100E-005 ), #280, 'distance_accuracy_value', 'NONE');
#17 = PRODUCT ( '99688-SI08-08+S9MT0802-120', '99688-SI08-08+S9MT0802-120', '', ( #320 ) ) ;
#18 = DIRECTION ( 'NONE',  ( -1.000000000000000000, -8.182657905555704300E-016, 0.0000000000000000000 ) ) ;
#19 = FACE_BOUND ( 'NONE', #413, .T. ) ;
#20 = AXIS2_PLACEMENT_3D ( 'NONE', #358, #357, #356 ) ;
#21 = FACE_OUTER_BOUND ( 'NONE', #414, .T. ) ;
#22 = AXIS2_PLACEMENT_3D ( 'NONE', #14, #13, #12 ) ;
#23 = AXIS2_PLACEMENT_3D ( 'NONE', #11, #10, #9 ) ;
#24 = AXIS2_PLACEMENT_3D ( 'NONE', #2, #1, #18 ) ;
#25 = AXIS2_PLACEMENT_3D ( 'NONE', #8, #7, #6 ) ;
#26 = FACE_OUTER_BOUND ( 'NONE', #417, .T. ) ;
#27 = PRODUCT_DEFINITION_FORMATION_WITH_SPECIFIED_SOURCE ( 'ANY', '', #17, .NOT_KNOWN. ) ;
#28 = AXIS2_PLACEMENT_3D ( 'NONE', #373, #372, #371 ) ;
#29 = FACE_OUTER_BOUND ( 'NONE', #408, .T. ) ;
#30 = FACE_OUTER_BOUND ( 'NONE', #409, .T. ) ;
#31 = AXIS2_PLACEMENT_3D ( 'NONE', #316, #317, #318 ) ;
#32 = FACE_OUTER_BOUND ( 'NONE', #410, .T. ) ;
#33 = AXIS2_PLACEMENT_3D ( 'NONE', #367, #366, #365 ) ;
#34 = FACE_OUTER_BOUND ( 'NONE', #415, .T. ) ;
#35 = MECHANICAL_DESIGN_GEOMETRIC_PRESENTATION_REPRESENTATION (  '', ( #38 ), #84 ) ;
#36 = CYLINDRICAL_SURFACE ( 'NONE', #33, 3.999999999996992200 ) ;
#37 = PRESENTATION_LAYER_ASSIGNMENT (  '', '', ( #38 ) ) ;
#38 = STYLED_ITEM ( 'NONE', ( #312 ), #182 ) ;
#39 = AXIS2_PLACEMENT_3D ( 'NONE', #195, #196, #197 ) ;
#40 = FACE_OUTER_BOUND ( 'NONE', #411, .T. ) ;
#41 = AXIS2_PLACEMENT_3D ( 'NONE', #361, #360, #359 ) ;
#42 = CYLINDRICAL_SURFACE ( 'NONE', #41, 5.250000000000017800 ) ;
#43 = MECHANICAL_DESIGN_GEOMETRIC_PRESENTATION_REPRESENTATION (  '', ( #46 ), #82 ) ;
#44 = PRESENTATION_LAYER_ASSIGNMENT (  '', '', ( #46 ) ) ;
#45 = VECTOR ( 'NONE', #267, 1000.000000000000000 ) ;
#46 = STYLED_ITEM ( 'NONE', ( #279 ), #383 ) ;
#47 = VECTOR ( 'NONE', #261, 1000.000000000000000 ) ;
#48 = VECTOR ( 'NONE', #258, 1000.000000000000000 ) ;
#49 = AXIS2_PLACEMENT_3D ( 'NONE', #255, #262, #263 ) ;
#50 = AXIS2_PLACEMENT_3D ( 'NONE', #264, #268, #269 ) ;
#51 = AXIS2_PLACEMENT_3D ( 'NONE', #270, #271, #272 ) ;
#52 = VECTOR ( 'NONE', #246, 1000.000000000000000 ) ;
#53 = AXIS2_PLACEMENT_3D ( 'NONE', #243, #247, #248 ) ;
#54 = AXIS2_PLACEMENT_3D ( 'NONE', #249, #250, #251 ) ;
#55 = AXIS2_PLACEMENT_3D ( 'NONE', #364, #363, #362 ) ;
#56 = FACE_OUTER_BOUND ( 'NONE', #412, .T. ) ;
#57 = FACE_OUTER_BOUND ( 'NONE', #416, .T. ) ;
#58 = VECTOR ( 'NONE', #237, 1000.000000000000000 ) ;
#59 = AXIS2_PLACEMENT_3D ( 'NONE', #231, #238, #239 ) ;
#60 = VECTOR ( 'NONE', #234, 1000.000000000000000 ) ;
#61 = AXIS2_PLACEMENT_3D ( 'NONE', #252, #253, #254 ) ;
#62 = VECTOR ( 'NONE', #225, 1000.000000000000000 ) ;
#63 = AXIS2_PLACEMENT_3D ( 'NONE', #240, #241, #242 ) ;
#64 = VECTOR ( 'NONE', #222, 1000.000000000000000 ) ;
#65 = AXIS2_PLACEMENT_3D ( 'NONE', #213, #226, #227 ) ;
#66 = VECTOR ( 'NONE', #219, 1000.000000000000100 ) ;
#67 = VECTOR ( 'NONE', #216, 999.9999999999998900 ) ;
#68 = VECTOR ( 'NONE', #210, 1000.000000000000000 ) ;
#69 = AXIS2_PLACEMENT_3D ( 'NONE', #228, #229, #230 ) ;
#70 = AXIS2_PLACEMENT_3D ( 'NONE', #207, #211, #212 ) ;
#71 = AXIS2_PLACEMENT_3D ( 'NONE', #204, #205, #206 ) ;
#72 = AXIS2_PLACEMENT_3D ( 'NONE', #201, #202, #203 ) ;
#73 = AXIS2_PLACEMENT_3D ( 'NONE', #192, #193, #194 ) ;
#74 = AXIS2_PLACEMENT_3D ( 'NONE', #189, #190, #191 ) ;
#75 = AXIS2_PLACEMENT_3D ( 'NONE', #186, #187, #188 ) ;
#76 = AXIS2_PLACEMENT_3D ( 'NONE', #355, #184, #185 ) ;
#77 = AXIS2_PLACEMENT_3D ( 'NONE', #198, #199, #200 ) ;
#78 = CYLINDRICAL_SURFACE ( 'NONE', #79, 3.999999999997593000 ) ;
#79 = AXIS2_PLACEMENT_3D ( 'NONE', #5, #4, #3 ) ;
#80 = APPLICATION_CONTEXT ( 'automotive_design' ) ;
#81 = APPLICATION_CONTEXT ( 'automotive_design' ) ;
#82 =( GEOMETRIC_REPRESENTATION_CONTEXT ( 3 ) GLOBAL_UNCERTAINTY_ASSIGNED_CONTEXT ( ( #16 ) ) GLOBAL_UNIT_ASSIGNED_CONTEXT ( ( #280, #281, #282 ) ) REPRESENTATION_CONTEXT ( 'NONE', 'WORKASPACE' ) );
#83 =( GEOMETRIC_REPRESENTATION_CONTEXT ( 3 ) GLOBAL_UNCERTAINTY_ASSIGNED_CONTEXT ( ( #181 ) ) GLOBAL_UNIT_ASSIGNED_CONTEXT ( ( #303, #304, #305 ) ) REPRESENTATION_CONTEXT ( 'NONE', 'WORKASPACE' ) );
#84 =( GEOMETRIC_REPRESENTATION_CONTEXT ( 3 ) GLOBAL_UNCERTAINTY_ASSIGNED_CONTEXT ( ( #183 ) ) GLOBAL_UNIT_ASSIGNED_CONTEXT ( ( #313, #314, #315 ) ) REPRESENTATION_CONTEXT ( 'NONE', 'WORKASPACE' ) );
#85 = CIRCLE ( 'NONE', #354, 3.999999999997008600 ) ;
#86 = EDGE_CURVE ( 'NONE', #484, #486, #397, .T. ) ;
#87 = EDGE_CURVE ( 'NONE', #485, #484, #85, .T. ) ;
#88 = EDGE_CURVE ( 'NONE', #427, #420, #390, .T. ) ;
#89 = EDGE_CURVE ( 'NONE', #424, #508, #127, .T. ) ;
#90 = EDGE_CURVE ( 'NONE', #424, #421, #545, .T. ) ;
#91 = COLOUR_RGB ( '',0.7921568627450980000, 0.8196078431372548800, 0.9333333333333333500 ) ;
#92 = PRODUCT_DEFINITION ( 'UNKNOWN', '', #27, #384 ) ;
#93 = PRODUCT_RELATED_PRODUCT_CATEGORY ( 'part', '', ( #17 ) ) ;
#94 = COLOUR_RGB ( '',0.7921568627450980000, 0.8196078431372548800, 0.9333333333333333500 ) ;
#95 = CIRCLE ( 'NONE', #51, 3.999999999997581900 ) ;
#96 = CIRCLE ( 'NONE', #50, 4.239999999997550600 ) ;
#97 = CIRCLE ( 'NONE', #49, 3.999999999997581900 ) ;
#98 = CIRCLE ( 'NONE', #61, 3.999999999997606400 ) ;
#99 = CIRCLE ( 'NONE', #54, 0.1600000000000004200 ) ;
#100 = CIRCLE ( 'NONE', #53, 4.479999999997599700 ) ;
#101 = CIRCLE ( 'NONE', #63, 5.170000000000021200 ) ;
#102 = CIRCLE ( 'NONE', #59, 5.250000000000010700 ) ;
#103 = CIRCLE ( 'NONE', #69, 5.250000000000026600 ) ;
#104 = CIRCLE ( 'NONE', #65, 3.999999999996975800 ) ;
#105 = CIRCLE ( 'NONE', #70, 3.799999999997602600 ) ;
#106 = CIRCLE ( 'NONE', #71, 3.799999999997602600 ) ;
#107 = CIRCLE ( 'NONE', #72, 3.999999999997606400 ) ;
#108 = CIRCLE ( 'NONE', #77, 3.999999999996975800 ) ;
#109 = CIRCLE ( 'NONE', #39, 3.999999999997008600 ) ;
#110 = CIRCLE ( 'NONE', #73, 5.250000000000010700 ) ;
#111 = CIRCLE ( 'NONE', #74, 5.250000000000026600 ) ;
#112 = CIRCLE ( 'NONE', #75, 5.170000000000021200 ) ;
#113 = TOROIDAL_SURFACE ( 'NONE', #25, 4.159999999997582500, 0.1600000000000008400 ) ;
#114 = CIRCLE ( 'NONE', #76, 4.479999999997599700 ) ;
#115 = CONICAL_SURFACE ( 'NONE', #23, 4.479999999997598800, 1.047197551196689600 ) ;
#116 = CONICAL_SURFACE ( 'NONE', #20, 5.250000000000025800, 0.7853981633971122100 ) ;
#117 = CONICAL_SURFACE ( 'NONE', #55, 3.999999999997008600, 0.3474164168820158500 ) ;
#118 = CONICAL_SURFACE ( 'NONE', #331, 1732.050807568273700, 1.047197551196446900 ) ;
#119 = CIRCLE ( 'NONE', #24, 4.239999999997550600 ) ;
#120 = CONICAL_SURFACE ( 'NONE', #349, 3.999999999997605500, 0.7853981633974407300 ) ;
#121 = CONICAL_SURFACE ( 'NONE', #329, 1732.050807568273700, 1.047197551196446900 ) ;
#122 = CONICAL_SURFACE ( 'NONE', #334, 3.999999999997008600, 0.3474164168820158500 ) ;
#123 = CONICAL_SURFACE ( 'NONE', #327, 3.999999999997605500, 0.7853981633974407300 ) ;
#124 = TOROIDAL_SURFACE ( 'NONE', #352, 4.159999999997582500, 0.1600000000000008400 ) ;
#125 = CONICAL_SURFACE ( 'NONE', #340, 5.250000000000025800, 0.7853981633971122100 ) ;
#126 = CONICAL_SURFACE ( 'NONE', #342, 4.479999999997598800, 1.047197551196689600 ) ;
#127 = CIRCLE ( 'NONE', #348, 0.1600000000000004200 ) ;
#128 = EDGE_CURVE ( 'NONE', #482, #484, #542, .T. ) ;
#129 = EDGE_CURVE ( 'NONE', #485, #427, #539, .T. ) ;
#130 = ADVANCED_FACE ( 'NONE', ( #322 ), #124, .F. ) ;
#131 = ADVANCED_FACE ( 'NONE', ( #323 ), #345, .T. ) ;
#132 = ADVANCED_FACE ( 'NONE', ( #350 ), #126, .F. ) ;
#133 = ADVANCED_FACE ( 'NONE', ( #343 ), #125, .T. ) ;
#134 = ADVANCED_FACE ( 'NONE', ( #341 ), #338, .T. ) ;
#135 = ADVANCED_FACE ( 'NONE', ( #344 ), #122, .T. ) ;
#136 = ADVANCED_FACE ( 'NONE', ( #335 ), #332, .T. ) ;
#137 = ADVANCED_FACE ( 'NONE', ( #337 ), #121, .T. ) ;
#138 = ADVANCED_FACE ( 'NONE', ( #330 ), #123, .T. ) ;
#139 = ADVANCED_FACE ( 'NONE', ( #328 ), #120, .T. ) ;
#140 = ADVANCED_FACE ( 'NONE', ( #326 ), #374, .F. ) ;
#141 = ADVANCED_FACE ( 'NONE', ( #29 ), #118, .T. ) ;
#142 = ADVANCED_FACE ( 'NONE', ( #30 ), #36, .T. ) ;
#143 = ADVANCED_FACE ( 'NONE', ( #32 ), #117, .T. ) ;
#144 = ADVANCED_FACE ( 'NONE', ( #40 ), #42, .T. ) ;
#145 = ADVANCED_FACE ( 'NONE', ( #56 ), #116, .T. ) ;
#146 = ADVANCED_FACE ( 'NONE', ( #19, #21 ), #15, .F. ) ;
#147 = ADVANCED_FACE ( 'NONE', ( #34 ), #115, .F. ) ;
#148 = ADVANCED_FACE ( 'NONE', ( #57 ), #113, .F. ) ;
#149 = ADVANCED_FACE ( 'NONE', ( #26 ), #78, .T. ) ;
#150 = EDGE_CURVE ( 'NONE', #507, #508, #119, .T. ) ;
#151 = EDGE_CURVE ( 'NONE', #509, #506, #114, .T. ) ;
#152 = EDGE_CURVE ( 'NONE', #419, #510, #112, .T. ) ;
#153 = EDGE_CURVE ( 'NONE', #491, #420, #111, .T. ) ;
#154 = EDGE_CURVE ( 'NONE', #486, #427, #110, .T. ) ;
#155 = EDGE_CURVE ( 'NONE', #484, #485, #109, .T. ) ;
#156 = EDGE_CURVE ( 'NONE', #482, #483, #108, .T. ) ;
#157 = EDGE_CURVE ( 'NONE', #421, #422, #107, .T. ) ;
#158 = EDGE_CURVE ( 'NONE', #479, #480, #106, .T. ) ;
#159 = EDGE_CURVE ( 'NONE', #479, #421, #208, .T. ) ;
#160 = EDGE_CURVE ( 'NONE', #480, #479, #105, .T. ) ;
#161 = EDGE_CURVE ( 'NONE', #480, #422, #214, .T. ) ;
#162 = EDGE_CURVE ( 'NONE', #481, #483, #217, .T. ) ;
#163 = EDGE_CURVE ( 'NONE', #481, #482, #220, .T. ) ;
#164 = EDGE_CURVE ( 'NONE', #483, #485, #223, .T. ) ;
#165 = EDGE_CURVE ( 'NONE', #483, #482, #104, .T. ) ;
#166 = EDGE_CURVE ( 'NONE', #420, #491, #103, .T. ) ;
#167 = EDGE_CURVE ( 'NONE', #419, #491, #232, .T. ) ;
#168 = EDGE_CURVE ( 'NONE', #486, #491, #235, .T. ) ;
#169 = EDGE_CURVE ( 'NONE', #427, #486, #102, .T. ) ;
#170 = EDGE_CURVE ( 'NONE', #510, #419, #101, .T. ) ;
#171 = EDGE_CURVE ( 'NONE', #508, #506, #244, .T. ) ;
#172 = EDGE_CURVE ( 'NONE', #506, #509, #100, .T. ) ;
#173 = EDGE_CURVE ( 'NONE', #423, #507, #99, .T. ) ;
#174 = EDGE_CURVE ( 'NONE', #422, #421, #98, .T. ) ;
#175 = EDGE_CURVE ( 'NONE', #423, #422, #256, .T. ) ;
#176 = EDGE_CURVE ( 'NONE', #507, #509, #259, .T. ) ;
#177 = EDGE_CURVE ( 'NONE', #424, #423, #97, .T. ) ;
#178 = EDGE_CURVE ( 'NONE', #510, #420, #265, .T. ) ;
#179 = EDGE_CURVE ( 'NONE', #508, #507, #96, .T. ) ;
#180 = EDGE_CURVE ( 'NONE', #423, #424, #95, .T. ) ;
#181 = UNCERTAINTY_MEASURE_WITH_UNIT (LENGTH_MEASURE( 1.000000000000000100E-005 ), #303, 'distance_accuracy_value', 'NONE');
#182 = ADVANCED_BREP_SHAPE_REPRESENTATION ( '99688-SI08-08+S9MT0802-120', ( #383, #31 ), #83 ) ;
#183 = UNCERTAINTY_MEASURE_WITH_UNIT (LENGTH_MEASURE( 1.000000000000000100E-005 ), #313, 'distance_accuracy_value', 'NONE');
#184 = DIRECTION ( 'NONE',  ( -8.745141363201133000E-016, 1.000000000000000000, -0.0000000000000000000 ) ) ;
#185 = DIRECTION ( 'NONE',  ( -1.000000000000000000, -7.744301232043467100E-016, 0.0000000000000000000 ) ) ;
#186 = CARTESIAN_POINT ( 'NONE',  ( -2.536090995328395600E-014, 29.00000000000077400, 0.0000000000000000000 ) ) ;
#187 = DIRECTION ( 'NONE',  ( -8.745141363201133000E-016, 1.000000000000000000, -0.0000000000000000000 ) ) ;
#188 = DIRECTION ( 'NONE',  ( -1.000000000000000000, -6.710729114030173700E-016, 0.0000000000000000000 ) ) ;
#189 = CARTESIAN_POINT ( 'NONE',  ( -2.529094882237829700E-014, 28.92000000000071600, 0.0000000000000000000 ) ) ;
#190 = DIRECTION ( 'NONE',  ( -8.745141363201133000E-016, 1.000000000000000000, -0.0000000000000000000 ) ) ;
#191 = DIRECTION ( 'NONE',  ( -1.000000000000000000, -6.608470384673517500E-016, 0.0000000000000000000 ) ) ;
#192 = CARTESIAN_POINT ( 'NONE',  ( -9.952688857754908000E-015, 11.38082101180781800, 0.0000000000000000000 ) ) ;
#193 = DIRECTION ( 'NONE',  ( -8.745141363201133000E-016, 1.000000000000000000, -0.0000000000000000000 ) ) ;
#194 = DIRECTION ( 'NONE',  ( -1.000000000000000000, -9.912705577010306800E-016, 0.0000000000000000000 ) ) ;
#195 = CARTESIAN_POINT ( 'NONE',  ( -6.933820121364855900E-015, 7.928768482281863200, 0.0000000000000000000 ) ) ;
#196 = DIRECTION ( 'NONE',  ( -8.745141363201133000E-016, 1.000000000000000000, -0.0000000000000000000 ) ) ;
#197 = DIRECTION ( 'NONE',  ( -1.000000000000000000, -8.673617379890521900E-016, 0.0000000000000000000 ) ) ;
#198 = CARTESIAN_POINT ( 'NONE',  ( -2.019603888057373600E-015, 2.309401076757561500, 0.0000000000000000000 ) ) ;
#199 = DIRECTION ( 'NONE',  ( -8.745141363201133000E-016, 1.000000000000000000, -0.0000000000000000000 ) ) ;
#200 = DIRECTION ( 'NONE',  ( -1.000000000000000000, -8.673617379890592900E-016, 0.0000000000000000000 ) ) ;
#201 = CARTESIAN_POINT ( 'NONE',  ( -5.666851603354400200E-014, 64.80000000000076500, 0.0000000000000000000 ) ) ;
#202 = DIRECTION ( 'NONE',  ( -8.745141363201133000E-016, 1.000000000000000000, -0.0000000000000000000 ) ) ;
#203 = DIRECTION ( 'NONE',  ( -1.000000000000000000, 0.0000000000000000000, 0.0000000000000000000 ) ) ;
#204 = CARTESIAN_POINT ( 'NONE',  ( -5.684341886080802700E-014, 65.00000000000076700, 0.0000000000000000000 ) ) ;
#205 = DIRECTION ( 'NONE',  ( -8.745141363201133000E-016, 1.000000000000000000, -0.0000000000000000000 ) ) ;
#206 = DIRECTION ( 'NONE',  ( -1.000000000000000000, 0.0000000000000000000, 0.0000000000000000000 ) ) ;
#207 = CARTESIAN_POINT ( 'NONE',  ( -5.684341886080802700E-014, 65.00000000000076700, 0.0000000000000000000 ) ) ;
#208 = LINE ( 'NONE', #209, #68 ) ;
#209 = CARTESIAN_POINT ( 'NONE',  ( 3.999999999997549100, 64.80000000000076500, 0.0000000000000000000 ) ) ;
#210 = DIRECTION ( 'NONE',  ( 0.7071067811865428000, -0.7071067811865522400, 0.0000000000000000000 ) ) ;
#211 = DIRECTION ( 'NONE',  ( -8.745141363201133000E-016, 1.000000000000000000, -0.0000000000000000000 ) ) ;
#212 = DIRECTION ( 'NONE',  ( -1.000000000000000000, 0.0000000000000000000, 0.0000000000000000000 ) ) ;
#213 = CARTESIAN_POINT ( 'NONE',  ( -2.019603888057373600E-015, 2.309401076757561500, 0.0000000000000000000 ) ) ;
#214 = LINE ( 'NONE', #215, #67 ) ;
#215 = CARTESIAN_POINT ( 'NONE',  ( -3.999999999997661900, 64.80000000000076500, 4.898587196586480200E-016 ) ) ;
#216 = DIRECTION ( 'NONE',  ( -0.7071067811865414700, -0.7071067811865536800, 8.659560562354868800E-017 ) ) ;
#217 = LINE ( 'NONE', #218, #66 ) ;
#218 = CARTESIAN_POINT ( 'NONE',  ( 0.0000000000000000000, 0.0000000000000000000, 0.0000000000000000000 ) ) ;
#219 = DIRECTION ( 'NONE',  ( -0.8660254037843635500, 0.5000000000001297900, 0.0000000000000000000 ) ) ;
#220 = LINE ( 'NONE', #221, #64 ) ;
#221 = CARTESIAN_POINT ( 'NONE',  ( 0.0000000000000000000, 0.0000000000000000000, 0.0000000000000000000 ) ) ;
#222 = DIRECTION ( 'NONE',  ( 0.8660254037843627700, 0.5000000000001314500, 1.060575238724814500E-016 ) ) ;
#223 = LINE ( 'NONE', #224, #62 ) ;
#224 = CARTESIAN_POINT ( 'NONE',  ( -3.999999999997049500, 65.00000000000075300, 0.0000000000000000000 ) ) ;
#225 = DIRECTION ( 'NONE',  ( -8.745141363201133000E-016, 1.000000000000000000, -0.0000000000000000000 ) ) ;
#226 = DIRECTION ( 'NONE',  ( -8.745141363201133000E-016, 1.000000000000000000, -0.0000000000000000000 ) ) ;
#227 = DIRECTION ( 'NONE',  ( -1.000000000000000000, -8.673617379890592900E-016, 0.0000000000000000000 ) ) ;
#228 = CARTESIAN_POINT ( 'NONE',  ( -2.529094882237829700E-014, 28.92000000000071600, 0.0000000000000000000 ) ) ;
#229 = DIRECTION ( 'NONE',  ( -8.745141363201133000E-016, 1.000000000000000000, -0.0000000000000000000 ) ) ;
#230 = DIRECTION ( 'NONE',  ( -1.000000000000000000, -6.608470384673517500E-016, 0.0000000000000000000 ) ) ;
#231 = CARTESIAN_POINT ( 'NONE',  ( -9.952688857754908000E-015, 11.38082101180781800, 0.0000000000000000000 ) ) ;
#232 = LINE ( 'NONE', #233, #60 ) ;
#233 = CARTESIAN_POINT ( 'NONE',  ( 5.250000000000000000, 28.92000000000071900, 0.0000000000000000000 ) ) ;
#234 = DIRECTION ( 'NONE',  ( 0.7071067811863105400, -0.7071067811867844900, 0.0000000000000000000 ) ) ;
#235 = LINE ( 'NONE', #236, #58 ) ;
#236 = CARTESIAN_POINT ( 'NONE',  ( 5.249999999999960000, 65.00000000000075300, 6.429395695523625800E-016 ) ) ;
#237 = DIRECTION ( 'NONE',  ( -8.745141363201133000E-016, 1.000000000000000000, -0.0000000000000000000 ) ) ;
#238 = DIRECTION ( 'NONE',  ( -8.745141363201133000E-016, 1.000000000000000000, -0.0000000000000000000 ) ) ;
#239 = DIRECTION ( 'NONE',  ( -1.000000000000000000, -9.912705577010306800E-016, 0.0000000000000000000 ) ) ;
#240 = CARTESIAN_POINT ( 'NONE',  ( -2.536090995328395600E-014, 29.00000000000077400, 0.0000000000000000000 ) ) ;
#241 = DIRECTION ( 'NONE',  ( -8.745141363201133000E-016, 1.000000000000000000, -0.0000000000000000000 ) ) ;
#242 = DIRECTION ( 'NONE',  ( -1.000000000000000000, -6.710729114030173700E-016, 0.0000000000000000000 ) ) ;
#243 = CARTESIAN_POINT ( 'NONE',  ( -2.536090995328389600E-014, 29.00000000000070700, 0.0000000000000000000 ) ) ;
#244 = LINE ( 'NONE', #245, #52 ) ;
#245 = CARTESIAN_POINT ( 'NONE',  ( 4.479999999997573900, 29.00000000000071100, 5.486417660177201600E-016 ) ) ;
#246 = DIRECTION ( 'NONE',  ( 0.8660254037844841200, 0.4999999999999212900, 1.060575238724963100E-016 ) ) ;
#247 = DIRECTION ( 'NONE',  ( -8.745141363201133000E-016, 1.000000000000000000, -0.0000000000000000000 ) ) ;
#248 = DIRECTION ( 'NONE',  ( -1.000000000000000000, -7.744301232043467100E-016, 0.0000000000000000000 ) ) ;
#249 = CARTESIAN_POINT ( 'NONE',  ( -4.159999999997608300, 29.00000000000072500, 0.0000000000000000000 ) ) ;
#250 = DIRECTION ( 'NONE',  ( 0.0000000000000000000, -0.0000000000000000000, -1.000000000000000000 ) ) ;
#251 = DIRECTION ( 'NONE',  ( -1.000000000000000000, 0.0000000000000000000, 0.0000000000000000000 ) ) ;
#252 = CARTESIAN_POINT ( 'NONE',  ( -5.666851603354400200E-014, 64.80000000000076500, 0.0000000000000000000 ) ) ;
#253 = DIRECTION ( 'NONE',  ( -8.745141363201133000E-016, 1.000000000000000000, -0.0000000000000000000 ) ) ;
#254 = DIRECTION ( 'NONE',  ( -1.000000000000000000, 0.0000000000000000000, 0.0000000000000000000 ) ) ;
#255 = CARTESIAN_POINT ( 'NONE',  ( -2.536090995328389600E-014, 29.00000000000070700, 0.0000000000000000000 ) ) ;
#256 = LINE ( 'NONE', #257, #48 ) ;
#257 = CARTESIAN_POINT ( 'NONE',  ( -3.999999999997650300, 65.00000000000075300, 0.0000000000000000000 ) ) ;
#258 = DIRECTION ( 'NONE',  ( -8.745141363201133000E-016, 1.000000000000000000, -0.0000000000000000000 ) ) ;
#259 = LINE ( 'NONE', #260, #47 ) ;
#260 = CARTESIAN_POINT ( 'NONE',  ( -4.479999999997623700, 29.00000000000070300, 0.0000000000000000000 ) ) ;
#261 = DIRECTION ( 'NONE',  ( -0.8660254037844850000, 0.4999999999999197300, 0.0000000000000000000 ) ) ;
#262 = DIRECTION ( 'NONE',  ( -8.745141363201133000E-016, 1.000000000000000000, -0.0000000000000000000 ) ) ;
#263 = DIRECTION ( 'NONE',  ( -1.000000000000000000, -8.673617379889278400E-016, 0.0000000000000000000 ) ) ;
#264 = CARTESIAN_POINT ( 'NONE',  ( -2.523973372000040600E-014, 28.86143593539519600, 0.0000000000000000000 ) ) ;
#265 = LINE ( 'NONE', #266, #45 ) ;
#266 = CARTESIAN_POINT ( 'NONE',  ( -5.250000000000050600, 28.92000000000071200, 6.429395695523635700E-016 ) ) ;
#267 = DIRECTION ( 'NONE',  ( -0.7071067811863092100, -0.7071067811867858300, 8.659560562352022700E-017 ) ) ;
#268 = DIRECTION ( 'NONE',  ( -8.745141363201133000E-016, 1.000000000000000000, -0.0000000000000000000 ) ) ;
#269 = DIRECTION ( 'NONE',  ( -1.000000000000000000, -8.182657905555704300E-016, 0.0000000000000000000 ) ) ;
#270 = CARTESIAN_POINT ( 'NONE',  ( -2.536090995328389600E-014, 29.00000000000070700, 0.0000000000000000000 ) ) ;
#271 = DIRECTION ( 'NONE',  ( -8.745141363201133000E-016, 1.000000000000000000, -0.0000000000000000000 ) ) ;
#272 = DIRECTION ( 'NONE',  ( -1.000000000000000000, -8.673617379889278400E-016, 0.0000000000000000000 ) ) ;
#273 = CARTESIAN_POINT ( 'NONE',  ( -5.250000000000051500, 28.92000000000071200, 0.0000000000000000000 ) ) ;
#274 = FILL_AREA_STYLE_COLOUR ( '', #94 ) ;
#275 = FILL_AREA_STYLE ('',( #274 ) ) ;
#276 = SURFACE_STYLE_FILL_AREA ( #275 ) ;
#277 = SURFACE_SIDE_STYLE ('',( #276 ) ) ;
#278 = SURFACE_STYLE_USAGE ( .BOTH. , #277 ) ;
#279 = PRESENTATION_STYLE_ASSIGNMENT (( #278 ) ) ;
#280 =( LENGTH_UNIT ( ) NAMED_UNIT ( * ) SI_UNIT ( .MILLI., .METRE. ) );
#281 =( NAMED_UNIT ( * ) PLANE_ANGLE_UNIT ( ) SI_UNIT ( $, .RADIAN. ) );
#282 =( NAMED_UNIT ( * ) SI_UNIT ( $, .STERADIAN. ) SOLID_ANGLE_UNIT ( ) );
#283 = CARTESIAN_POINT ( 'NONE',  ( 5.169999999999995500, 29.00000000000077800, 0.0000000000000000000 ) ) ;
#284 = CARTESIAN_POINT ( 'NONE',  ( 3.999999999997545500, 64.80000000000076500, 0.0000000000000000000 ) ) ;
#285 = CARTESIAN_POINT ( 'NONE',  ( -3.999999999997665000, 64.80000000000076500, 4.898587196586484200E-016 ) ) ;
#286 = CARTESIAN_POINT ( 'NONE',  ( -3.999999999997607200, 29.00000000000070300, 0.0000000000000000000 ) ) ;
#287 = CARTESIAN_POINT ( 'NONE',  ( 3.999999999997556600, 29.00000000000071100, 5.045544812484116000E-016 ) ) ;
#288 = CARTESIAN_POINT ( 'NONE',  ( -5.250000000000019500, 11.38082101180781300, 0.0000000000000000000 ) ) ;
#289 = CARTESIAN_POINT ( 'NONE',  ( 3.799999999997545800, 65.00000000000076700, 0.0000000000000000000 ) ) ;
#290 = CARTESIAN_POINT ( 'NONE',  ( -3.799999999997659500, 65.00000000000076700, 4.776122516671740800E-016 ) ) ;
#291 = CARTESIAN_POINT ( 'NONE',  ( 0.0000000000000000000, 0.0000000000000000000, 0.0000000000000000000 ) ) ;
#292 = CARTESIAN_POINT ( 'NONE',  ( 3.999999999996973100, 2.309401076757564600, 4.898587196585708100E-016 ) ) ;
#293 = CARTESIAN_POINT ( 'NONE',  ( -3.999999999996976600, 2.309401076757557500, 0.0000000000000000000 ) ) ;
#294 = CARTESIAN_POINT ( 'NONE',  ( 3.999999999997001500, 7.928768482281866700, 4.898587196585746600E-016 ) ) ;
#295 = CARTESIAN_POINT ( 'NONE',  ( -3.999999999997015300, 7.928768482281859600, 0.0000000000000000000 ) ) ;
#296 = CARTESIAN_POINT ( 'NONE',  ( 5.250000000000000000, 11.38082101180782100, 6.429395695523617000E-016 ) ) ;
#297 = CARTESIAN_POINT ( 'NONE',  ( 5.250000000000000900, 28.92000000000071900, 6.429395695523631800E-016 ) ) ;
#298 = CARTESIAN_POINT ( 'NONE',  ( 4.479999999997574800, 29.00000000000071100, 5.486417660177202600E-016 ) ) ;
#299 = CARTESIAN_POINT ( 'NONE',  ( -4.239999999997575500, 28.86143593539519300, 0.0000000000000000000 ) ) ;
#300 = CARTESIAN_POINT ( 'NONE',  ( 4.239999999997524900, 28.86143593539520000, 5.339460044279490900E-016 ) ) ;
#301 = CARTESIAN_POINT ( 'NONE',  ( -4.479999999997622800, 29.00000000000070300, 0.0000000000000000000 ) ) ;
#302 = CARTESIAN_POINT ( 'NONE',  ( -5.170000000000046100, 29.00000000000077100, 6.380409823557739700E-016 ) ) ;
#303 =( LENGTH_UNIT ( ) NAMED_UNIT ( * ) SI_UNIT ( .MILLI., .METRE. ) );
#304 =( NAMED_UNIT ( * ) PLANE_ANGLE_UNIT ( ) SI_UNIT ( $, .RADIAN. ) );
#305 =( NAMED_UNIT ( * ) SI_UNIT ( $, .STERADIAN. ) SOLID_ANGLE_UNIT ( ) );
#306 = APPLICATION_PROTOCOL_DEFINITION ( 'draft international standard', 'automotive_design', 1998, #80 ) ;
#307 = FILL_AREA_STYLE_COLOUR ( '', #91 ) ;
#308 = FILL_AREA_STYLE ('',( #307 ) ) ;
#309 = SURFACE_STYLE_FILL_AREA ( #308 ) ;
#310 = SURFACE_SIDE_STYLE ('',( #309 ) ) ;
#311 = SURFACE_STYLE_USAGE ( .BOTH. , #310 ) ;
#312 = PRESENTATION_STYLE_ASSIGNMENT (( #311 ) ) ;
#313 =( LENGTH_UNIT ( ) NAMED_UNIT ( * ) SI_UNIT ( .MILLI., .METRE. ) );
#314 =( NAMED_UNIT ( * ) PLANE_ANGLE_UNIT ( ) SI_UNIT ( $, .RADIAN. ) );
#315 =( NAMED_UNIT ( * ) SI_UNIT ( $, .STERADIAN. ) SOLID_ANGLE_UNIT ( ) );
#316 = CARTESIAN_POINT ( 'NONE',  ( 0.0000000000000000000, 0.0000000000000000000, 0.0000000000000000000 ) ) ;
#317 = DIRECTION ( 'NONE',  ( 0.0000000000000000000, 0.0000000000000000000, 1.000000000000000000 ) ) ;
#318 = DIRECTION ( 'NONE',  ( 1.000000000000000000, 0.0000000000000000000, 0.0000000000000000000 ) ) ;
#319 = SHAPE_DEFINITION_REPRESENTATION ( #385, #182 ) ;
#320 = PRODUCT_CONTEXT ( 'NONE', #80, 'mechanical' ) ;
#321 = APPLICATION_PROTOCOL_DEFINITION ( 'draft international standard', 'automotive_design', 1998, #81 ) ;
#322 = FACE_OUTER_BOUND ( 'NONE', #425, .T. ) ;
#323 = FACE_OUTER_BOUND ( 'NONE', #426, .T. ) ;
#324 = CLOSED_SHELL ( 'NONE', ( #131, #130, #132, #133, #134, #135, #136, #137, #138, #139, #140, #141, #142, #143, #144, #145, #146, #147, #148, #149 ) ) ;
#325 = VECTOR ( 'NONE', #395, 1000.000000000000100 ) ;
#326 = FACE_OUTER_BOUND ( 'NONE', #407, .T. ) ;
#327 = AXIS2_PLACEMENT_3D ( 'NONE', #380, #379, #378 ) ;
#328 = FACE_OUTER_BOUND ( 'NONE', #406, .T. ) ;
#329 = AXIS2_PLACEMENT_3D ( 'NONE', #516, #382, #381 ) ;
#330 = FACE_OUTER_BOUND ( 'NONE', #405, .T. ) ;
#331 = AXIS2_PLACEMENT_3D ( 'NONE', #370, #369, #368 ) ;
#332 = CYLINDRICAL_SURFACE ( 'NONE', #333, 3.999999999996992200 ) ;
#333 = AXIS2_PLACEMENT_3D ( 'NONE', #519, #518, #517 ) ;
#334 = AXIS2_PLACEMENT_3D ( 'NONE', #522, #521, #520 ) ;
#335 = FACE_OUTER_BOUND ( 'NONE', #403, .T. ) ;
#336 = VECTOR ( 'NONE', #388, 1000.000000000000000 ) ;
#337 = FACE_OUTER_BOUND ( 'NONE', #404, .T. ) ;
#338 = CYLINDRICAL_SURFACE ( 'NONE', #339, 5.250000000000017800 ) ;
#339 = AXIS2_PLACEMENT_3D ( 'NONE', #525, #524, #523 ) ;
#340 = AXIS2_PLACEMENT_3D ( 'NONE', #528, #527, #526 ) ;
#341 = FACE_OUTER_BOUND ( 'NONE', #401, .T. ) ;
#342 = AXIS2_PLACEMENT_3D ( 'NONE', #531, #530, #529 ) ;
#343 = FACE_OUTER_BOUND ( 'NONE', #400, .T. ) ;
#344 = FACE_OUTER_BOUND ( 'NONE', #402, .T. ) ;
#345 = CYLINDRICAL_SURFACE ( 'NONE', #346, 3.999999999997593000 ) ;
#346 = AXIS2_PLACEMENT_3D ( 'NONE', #534, #533, #532 ) ;
#347 = VECTOR ( 'NONE', #537, 1000.000000000000200 ) ;
#348 = AXIS2_PLACEMENT_3D ( 'NONE', #391, #387, #386 ) ;
#349 = AXIS2_PLACEMENT_3D ( 'NONE', #377, #376, #375 ) ;
#350 = FACE_OUTER_BOUND ( 'NONE', #399, .T. ) ;
#351 = VECTOR ( 'NONE', #540, 1000.000000000000000 ) ;
#352 = AXIS2_PLACEMENT_3D ( 'NONE', #546, #536, #535 ) ;
#353 = VECTOR ( 'NONE', #543, 1000.000000000000000 ) ;
#354 = AXIS2_PLACEMENT_3D ( 'NONE', #394, #393, #392 ) ;
#355 = CARTESIAN_POINT ( 'NONE',  ( -2.536090995328389600E-014, 29.00000000000070700, 0.0000000000000000000 ) ) ;
#356 = DIRECTION ( 'NONE',  ( 1.000000000000000000, 6.608470384673518500E-016, 0.0000000000000000000 ) ) ;
#357 = DIRECTION ( 'NONE',  ( 8.745141363201133000E-016, -1.000000000000000000, 0.0000000000000000000 ) ) ;
#358 = CARTESIAN_POINT ( 'NONE',  ( -2.529094882237829700E-014, 28.92000000000071600, 0.0000000000000000000 ) ) ;
#359 = DIRECTION ( 'NONE',  ( -1.000000000000000000, 0.0000000000000000000, 0.0000000000000000000 ) ) ;
#360 = DIRECTION ( 'NONE',  ( -8.745141363201133000E-016, 1.000000000000000000, -0.0000000000000000000 ) ) ;
#361 = CARTESIAN_POINT ( 'NONE',  ( -5.684341886080801500E-014, 65.00000000000075300, 0.0000000000000000000 ) ) ;
#362 = DIRECTION ( 'NONE',  ( -1.000000000000000000, -8.673617379890521900E-016, 0.0000000000000000000 ) ) ;
#363 = DIRECTION ( 'NONE',  ( -8.745141363201133000E-016, 1.000000000000000000, -0.0000000000000000000 ) ) ;
#364 = CARTESIAN_POINT ( 'NONE',  ( -6.933820121364855900E-015, 7.928768482281863200, 0.0000000000000000000 ) ) ;
#365 = DIRECTION ( 'NONE',  ( -1.000000000000000000, 0.0000000000000000000, 0.0000000000000000000 ) ) ;
#366 = DIRECTION ( 'NONE',  ( -8.745141363201133000E-016, 1.000000000000000000, -0.0000000000000000000 ) ) ;
#367 = CARTESIAN_POINT ( 'NONE',  ( -5.684341886080801500E-014, 65.00000000000075300, 0.0000000000000000000 ) ) ;
#368 = DIRECTION ( 'NONE',  ( -1.000000000000000000, -8.973825869793091300E-016, 0.0000000000000000000 ) ) ;
#369 = DIRECTION ( 'NONE',  ( -8.745141363201133000E-016, 1.000000000000000000, -0.0000000000000000000 ) ) ;
#370 = CARTESIAN_POINT ( 'NONE',  ( -8.745141363201133300E-013, 1000.000000000000000, 0.0000000000000000000 ) ) ;
#371 = DIRECTION ( 'NONE',  ( 1.000000000000000000, 8.745141363201133000E-016, 0.0000000000000000000 ) ) ;
#372 = DIRECTION ( 'NONE',  ( 8.745141363201133000E-016, -1.000000000000000000, 0.0000000000000000000 ) ) ;
#373 = CARTESIAN_POINT ( 'NONE',  ( -5.684341886080801500E-014, 65.00000000000075300, 0.0000000000000000000 ) ) ;
#374 = PLANE ( 'NONE',  #28 ) ;
#375 = DIRECTION ( 'NONE',  ( 1.000000000000000000, 0.0000000000000000000, 0.0000000000000000000 ) ) ;
#376 = DIRECTION ( 'NONE',  ( 8.745141363201133000E-016, -1.000000000000000000, 0.0000000000000000000 ) ) ;
#377 = CARTESIAN_POINT ( 'NONE',  ( -5.666851603354400200E-014, 64.80000000000076500, 0.0000000000000000000 ) ) ;
#378 = DIRECTION ( 'NONE',  ( 1.000000000000000000, 0.0000000000000000000, 0.0000000000000000000 ) ) ;
#379 = DIRECTION ( 'NONE',  ( 8.745141363201133000E-016, -1.000000000000000000, 0.0000000000000000000 ) ) ;
#380 = CARTESIAN_POINT ( 'NONE',  ( -5.666851603354400200E-014, 64.80000000000076500, 0.0000000000000000000 ) ) ;
#381 = DIRECTION ( 'NONE',  ( -1.000000000000000000, -8.973825869793091300E-016, 0.0000000000000000000 ) ) ;
#382 = DIRECTION ( 'NONE',  ( -8.745141363201133000E-016, 1.000000000000000000, -0.0000000000000000000 ) ) ;
#383 = MANIFOLD_SOLID_BREP ( '±ÛÂà1', #324 ) ;
#384 = PRODUCT_DEFINITION_CONTEXT ( 'detailed design', #81, 'design' ) ;
#385 = PRODUCT_DEFINITION_SHAPE ( 'NONE', 'NONE',  #92 ) ;
#386 = DIRECTION ( 'NONE',  ( 1.000000000000000000, 0.0000000000000000000, 1.224646799147355400E-016 ) ) ;
#387 = DIRECTION ( 'NONE',  ( -1.224646799147353200E-016, -1.070970937853538800E-031, 1.000000000000000000 ) ) ;
#388 = DIRECTION ( 'NONE',  ( -8.745141363201133000E-016, 1.000000000000000000, -0.0000000000000000000 ) ) ;
#389 = CARTESIAN_POINT ( 'NONE',  ( -5.250000000000074600, 65.00000000000075300, 0.0000000000000000000 ) ) ;
#390 = LINE ( 'NONE', #389, #336 ) ;
#391 = CARTESIAN_POINT ( 'NONE',  ( 4.159999999997555900, 29.00000000000072800, 5.094530684450028700E-016 ) ) ;
#392 = DIRECTION ( 'NONE',  ( -1.000000000000000000, -8.673617379890521900E-016, 0.0000000000000000000 ) ) ;
#393 = DIRECTION ( 'NONE',  ( -8.745141363201133000E-016, 1.000000000000000000, -0.0000000000000000000 ) ) ;
#394 = CARTESIAN_POINT ( 'NONE',  ( -6.933820121364855900E-015, 7.928768482281863200, 0.0000000000000000000 ) ) ;
#395 = DIRECTION ( 'NONE',  ( 0.3404697182690343300, 0.9402554817398324200, 4.169551506847750700E-017 ) ) ;
#396 = CARTESIAN_POINT ( 'NONE',  ( 3.999999999997001500, 7.928768482281866700, 4.898587196585749600E-016 ) ) ;
#397 = LINE ( 'NONE', #396, #325 ) ;
#398 = ORIENTED_EDGE ( 'NONE', *, *, #165, .T. ) ;
#399 = EDGE_LOOP ( 'NONE', ( #493, #494, #495, #492 ) ) ;
#400 = EDGE_LOOP ( 'NONE', ( #502, #487, #501, #488 ) ) ;
#401 = EDGE_LOOP ( 'NONE', ( #489, #511, #490, #512 ) ) ;
#402 = EDGE_LOOP ( 'NONE', ( #513, #515, #514, #418 ) ) ;
#403 = EDGE_LOOP ( 'NONE', ( #398, #477, #478, #476 ) ) ;
#404 = EDGE_LOOP ( 'NONE', ( #475, #473, #474 ) ) ;
#405 = EDGE_LOOP ( 'NONE', ( #472, #470, #471, #469 ) ) ;
#406 = EDGE_LOOP ( 'NONE', ( #467, #466, #468, #465 ) ) ;
#407 = EDGE_LOOP ( 'NONE', ( #464, #463 ) ) ;
#408 = EDGE_LOOP ( 'NONE', ( #462, #461, #460 ) ) ;
#409 = EDGE_LOOP ( 'NONE', ( #458, #457, #456, #459 ) ) ;
#410 = EDGE_LOOP ( 'NONE', ( #454, #453, #452, #455 ) ) ;
#411 = EDGE_LOOP ( 'NONE', ( #450, #449, #448, #451 ) ) ;
#412 = EDGE_LOOP ( 'NONE', ( #446, #445, #447, #443 ) ) ;
#413 = EDGE_LOOP ( 'NONE', ( #442, #440 ) ) ;
#414 = EDGE_LOOP ( 'NONE', ( #444, #439 ) ) ;
#415 = EDGE_LOOP ( 'NONE', ( #438, #437, #441, #435 ) ) ;
#416 = EDGE_LOOP ( 'NONE', ( #434, #433, #432, #436 ) ) ;
#417 = EDGE_LOOP ( 'NONE', ( #430, #429, #428, #431 ) ) ;
#418 = ORIENTED_EDGE ( 'NONE', *, *, #129, .F. ) ;
#419 = VERTEX_POINT ( 'NONE', #283 ) ;
#420 = VERTEX_POINT ( 'NONE', #273 ) ;
#421 = VERTEX_POINT ( 'NONE', #284 ) ;
#422 = VERTEX_POINT ( 'NONE', #285 ) ;
#423 = VERTEX_POINT ( 'NONE', #286 ) ;
#424 = VERTEX_POINT ( 'NONE', #287 ) ;
#425 = EDGE_LOOP ( 'NONE', ( #497, #504, #505, #503 ) ) ;
#426 = EDGE_LOOP ( 'NONE', ( #499, #496, #498, #500 ) ) ;
#427 = VERTEX_POINT ( 'NONE', #288 ) ;
#428 = ORIENTED_EDGE ( 'NONE', *, *, #175, .T. ) ;
#429 = ORIENTED_EDGE ( 'NONE', *, *, #177, .T. ) ;
#430 = ORIENTED_EDGE ( 'NONE', *, *, #90, .F. ) ;
#431 = ORIENTED_EDGE ( 'NONE', *, *, #157, .F. ) ;
#432 = ORIENTED_EDGE ( 'NONE', *, *, #173, .T. ) ;
#433 = ORIENTED_EDGE ( 'NONE', *, *, #180, .F. ) ;
#434 = ORIENTED_EDGE ( 'NONE', *, *, #89, .F. ) ;
#435 = ORIENTED_EDGE ( 'NONE', *, *, #151, .T. ) ;
#436 = ORIENTED_EDGE ( 'NONE', *, *, #150, .T. ) ;
#437 = ORIENTED_EDGE ( 'NONE', *, *, #150, .F. ) ;
#438 = ORIENTED_EDGE ( 'NONE', *, *, #171, .F. ) ;
#439 = ORIENTED_EDGE ( 'NONE', *, *, #170, .T. ) ;
#440 = ORIENTED_EDGE ( 'NONE', *, *, #172, .F. ) ;
#441 = ORIENTED_EDGE ( 'NONE', *, *, #176, .T. ) ;
#442 = ORIENTED_EDGE ( 'NONE', *, *, #151, .F. ) ;
#443 = ORIENTED_EDGE ( 'NONE', *, *, #153, .T. ) ;
#444 = ORIENTED_EDGE ( 'NONE', *, *, #152, .T. ) ;
#445 = ORIENTED_EDGE ( 'NONE', *, *, #152, .F. ) ;
#446 = ORIENTED_EDGE ( 'NONE', *, *, #178, .F. ) ;
#447 = ORIENTED_EDGE ( 'NONE', *, *, #167, .T. ) ;
#448 = ORIENTED_EDGE ( 'NONE', *, *, #88, .T. ) ;
#449 = ORIENTED_EDGE ( 'NONE', *, *, #154, .T. ) ;
#450 = ORIENTED_EDGE ( 'NONE', *, *, #168, .F. ) ;
#451 = ORIENTED_EDGE ( 'NONE', *, *, #153, .F. ) ;
#452 = ORIENTED_EDGE ( 'NONE', *, *, #129, .T. ) ;
#453 = ORIENTED_EDGE ( 'NONE', *, *, #155, .T. ) ;
#454 = ORIENTED_EDGE ( 'NONE', *, *, #86, .F. ) ;
#455 = ORIENTED_EDGE ( 'NONE', *, *, #154, .F. ) ;
#456 = ORIENTED_EDGE ( 'NONE', *, *, #164, .T. ) ;
#457 = ORIENTED_EDGE ( 'NONE', *, *, #156, .T. ) ;
#458 = ORIENTED_EDGE ( 'NONE', *, *, #128, .F. ) ;
#459 = ORIENTED_EDGE ( 'NONE', *, *, #155, .F. ) ;
#460 = ORIENTED_EDGE ( 'NONE', *, *, #156, .F. ) ;
#461 = ORIENTED_EDGE ( 'NONE', *, *, #162, .T. ) ;
#462 = ORIENTED_EDGE ( 'NONE', *, *, #163, .F. ) ;
#463 = ORIENTED_EDGE ( 'NONE', *, *, #160, .T. ) ;
#464 = ORIENTED_EDGE ( 'NONE', *, *, #158, .T. ) ;
#465 = ORIENTED_EDGE ( 'NONE', *, *, #157, .T. ) ;
#466 = ORIENTED_EDGE ( 'NONE', *, *, #158, .F. ) ;
#467 = ORIENTED_EDGE ( 'NONE', *, *, #161, .F. ) ;
#468 = ORIENTED_EDGE ( 'NONE', *, *, #159, .T. ) ;
#469 = ORIENTED_EDGE ( 'NONE', *, *, #159, .F. ) ;
#470 = ORIENTED_EDGE ( 'NONE', *, *, #161, .T. ) ;
#471 = ORIENTED_EDGE ( 'NONE', *, *, #174, .T. ) ;
#472 = ORIENTED_EDGE ( 'NONE', *, *, #160, .F. ) ;
#473 = ORIENTED_EDGE ( 'NONE', *, *, #163, .T. ) ;
#474 = ORIENTED_EDGE ( 'NONE', *, *, #165, .F. ) ;
#475 = ORIENTED_EDGE ( 'NONE', *, *, #162, .F. ) ;
#476 = ORIENTED_EDGE ( 'NONE', *, *, #164, .F. ) ;
#477 = ORIENTED_EDGE ( 'NONE', *, *, #128, .T. ) ;
#478 = ORIENTED_EDGE ( 'NONE', *, *, #87, .F. ) ;
#479 = VERTEX_POINT ( 'NONE', #289 ) ;
#480 = VERTEX_POINT ( 'NONE', #290 ) ;
#481 = VERTEX_POINT ( 'NONE', #291 ) ;
#482 = VERTEX_POINT ( 'NONE', #292 ) ;
#483 = VERTEX_POINT ( 'NONE', #293 ) ;
#484 = VERTEX_POINT ( 'NONE', #294 ) ;
#485 = VERTEX_POINT ( 'NONE', #295 ) ;
#486 = VERTEX_POINT ( 'NONE', #296 ) ;
#487 = ORIENTED_EDGE ( 'NONE', *, *, #178, .T. ) ;
#488 = ORIENTED_EDGE ( 'NONE', *, *, #167, .F. ) ;
#489 = ORIENTED_EDGE ( 'NONE', *, *, #169, .T. ) ;
#490 = ORIENTED_EDGE ( 'NONE', *, *, #166, .F. ) ;
#491 = VERTEX_POINT ( 'NONE', #297 ) ;
#492 = ORIENTED_EDGE ( 'NONE', *, *, #176, .F. ) ;
#493 = ORIENTED_EDGE ( 'NONE', *, *, #179, .F. ) ;
#494 = ORIENTED_EDGE ( 'NONE', *, *, #171, .T. ) ;
#495 = ORIENTED_EDGE ( 'NONE', *, *, #172, .T. ) ;
#496 = ORIENTED_EDGE ( 'NONE', *, *, #90, .T. ) ;
#497 = ORIENTED_EDGE ( 'NONE', *, *, #177, .F. ) ;
#498 = ORIENTED_EDGE ( 'NONE', *, *, #174, .F. ) ;
#499 = ORIENTED_EDGE ( 'NONE', *, *, #180, .T. ) ;
#500 = ORIENTED_EDGE ( 'NONE', *, *, #175, .F. ) ;
#501 = ORIENTED_EDGE ( 'NONE', *, *, #166, .T. ) ;
#502 = ORIENTED_EDGE ( 'NONE', *, *, #170, .F. ) ;
#503 = ORIENTED_EDGE ( 'NONE', *, *, #173, .F. ) ;
#504 = ORIENTED_EDGE ( 'NONE', *, *, #89, .T. ) ;
#505 = ORIENTED_EDGE ( 'NONE', *, *, #179, .T. ) ;
#506 = VERTEX_POINT ( 'NONE', #298 ) ;
#507 = VERTEX_POINT ( 'NONE', #299 ) ;
#508 = VERTEX_POINT ( 'NONE', #300 ) ;
#509 = VERTEX_POINT ( 'NONE', #301 ) ;
#510 = VERTEX_POINT ( 'NONE', #302 ) ;
#511 = ORIENTED_EDGE ( 'NONE', *, *, #168, .T. ) ;
#512 = ORIENTED_EDGE ( 'NONE', *, *, #88, .F. ) ;
#513 = ORIENTED_EDGE ( 'NONE', *, *, #87, .T. ) ;
#514 = ORIENTED_EDGE ( 'NONE', *, *, #169, .F. ) ;
#515 = ORIENTED_EDGE ( 'NONE', *, *, #86, .T. ) ;
#516 = CARTESIAN_POINT ( 'NONE',  ( -8.745141363201133300E-013, 1000.000000000000000, 0.0000000000000000000 ) ) ;
#517 = DIRECTION ( 'NONE',  ( -1.000000000000000000, 0.0000000000000000000, 0.0000000000000000000 ) ) ;
#518 = DIRECTION ( 'NONE',  ( -8.745141363201133000E-016, 1.000000000000000000, -0.0000000000000000000 ) ) ;
#519 = CARTESIAN_POINT ( 'NONE',  ( -5.684341886080801500E-014, 65.00000000000075300, 0.0000000000000000000 ) ) ;
#520 = DIRECTION ( 'NONE',  ( -1.000000000000000000, -8.673617379890521900E-016, 0.0000000000000000000 ) ) ;
#521 = DIRECTION ( 'NONE',  ( -8.745141363201133000E-016, 1.000000000000000000, -0.0000000000000000000 ) ) ;
#522 = CARTESIAN_POINT ( 'NONE',  ( -6.933820121364855900E-015, 7.928768482281863200, 0.0000000000000000000 ) ) ;
#523 = DIRECTION ( 'NONE',  ( -1.000000000000000000, 0.0000000000000000000, 0.0000000000000000000 ) ) ;
#524 = DIRECTION ( 'NONE',  ( -8.745141363201133000E-016, 1.000000000000000000, -0.0000000000000000000 ) ) ;
#525 = CARTESIAN_POINT ( 'NONE',  ( -5.684341886080801500E-014, 65.00000000000075300, 0.0000000000000000000 ) ) ;
#526 = DIRECTION ( 'NONE',  ( 1.000000000000000000, 6.608470384673518500E-016, 0.0000000000000000000 ) ) ;
#527 = DIRECTION ( 'NONE',  ( 8.745141363201133000E-016, -1.000000000000000000, 0.0000000000000000000 ) ) ;
#528 = CARTESIAN_POINT ( 'NONE',  ( -2.529094882237829700E-014, 28.92000000000071600, 0.0000000000000000000 ) ) ;
#529 = DIRECTION ( 'NONE',  ( -1.000000000000000000, -7.744301232043468100E-016, 0.0000000000000000000 ) ) ;
#530 = DIRECTION ( 'NONE',  ( -8.745141363201133000E-016, 1.000000000000000000, -0.0000000000000000000 ) ) ;
#531 = CARTESIAN_POINT ( 'NONE',  ( -2.536090995328389600E-014, 29.00000000000070700, 0.0000000000000000000 ) ) ;
#532 = DIRECTION ( 'NONE',  ( -1.000000000000000000, 0.0000000000000000000, 0.0000000000000000000 ) ) ;
#533 = DIRECTION ( 'NONE',  ( -8.745141363201133000E-016, 1.000000000000000000, -0.0000000000000000000 ) ) ;
#534 = CARTESIAN_POINT ( 'NONE',  ( -5.684341886080801500E-014, 65.00000000000075300, 0.0000000000000000000 ) ) ;
#535 = DIRECTION ( 'NONE',  ( -1.000000000000000000, -8.745141363201133000E-016, 0.0000000000000000000 ) ) ;
#536 = DIRECTION ( 'NONE',  ( -8.745141363201133000E-016, 1.000000000000000000, -0.0000000000000000000 ) ) ;
#537 = DIRECTION ( 'NONE',  ( -0.3404697182690359900, 0.9402554817398317600, 0.0000000000000000000 ) ) ;
#538 = CARTESIAN_POINT ( 'NONE',  ( -3.999999999997015300, 7.928768482281859600, 0.0000000000000000000 ) ) ;
#539 = LINE ( 'NONE', #538, #347 ) ;
#540 = DIRECTION ( 'NONE',  ( -8.745141363201133000E-016, 1.000000000000000000, -0.0000000000000000000 ) ) ;
#541 = CARTESIAN_POINT ( 'NONE',  ( 3.999999999996934900, 65.00000000000075300, 4.898587196585728800E-016 ) ) ;
#542 = LINE ( 'NONE', #541, #351 ) ;
#543 = DIRECTION ( 'NONE',  ( -8.745141363201133000E-016, 1.000000000000000000, -0.0000000000000000000 ) ) ;
#544 = CARTESIAN_POINT ( 'NONE',  ( 3.999999999997535700, 65.00000000000075300, 4.898587196586464500E-016 ) ) ;
#545 = LINE ( 'NONE', #544, #353 ) ;
#546 = CARTESIAN_POINT ( 'NONE',  ( -2.602085213965210600E-014, 29.00000000000072800, 0.0000000000000000000 ) ) ;
ENDSEC;
END-ISO-10303-21;
