ISO-10303-21;
HEADER;
FILE_DESCRIPTION (( 'STEP AP214' ),
    '1' );
FILE_NAME ('99688-SI08-M05+S9MT0802-120.STEP',
    '2023-09-26T05:29:04',
    ( '' ),
    ( '' ),
    'SwSTEP 2.0',
    'SolidWorks 2020',
    '' );
FILE_SCHEMA (( 'AUTOMOTIVE_DESIGN' ));
ENDSEC;

DATA;
#1 = AXIS2_PLACEMENT_3D ( 'NONE', #404, #732, #463 ) ;
#2 = EDGE_CURVE ( 'NONE', #318, #602, #71, .T. ) ;
#3 = CIRCLE ( 'NONE', #102, 2.999999999999885425 ) ;
#4 = ORIENTED_EDGE ( 'NONE', *, *, #758, .T. ) ;
#5 = PRESENTATION_LAYER_ASSIGNMENT (  '', '', ( #304 ) ) ;
#6 = LINE ( 'NONE', #89, #594 ) ;
#7 = DIRECTION ( 'NONE',  ( 1.000000000000000000, 0.000000000000000000, 0.000000000000000000 ) ) ;
#8 = ADVANCED_FACE ( 'NONE', ( #702 ), #270, .T. ) ;
#9 = DIRECTION ( 'NONE',  ( -5.071428571428576922E-16, -1.000000000000000000, -0.000000000000000000 ) ) ;
#10 = DIRECTION ( 'NONE',  ( -5.071428571428576922E-16, -1.000000000000000000, -0.000000000000000000 ) ) ;
#11 = ORIENTED_EDGE ( 'NONE', *, *, #715, .T. ) ;
#12 = AXIS2_PLACEMENT_3D ( 'NONE', #183, #730, #119 ) ;
#13 = CARTESIAN_POINT ( 'NONE',  ( 0.000000000000000000, 0.000000000000000000, 0.000000000000000000 ) ) ;
#14 = CARTESIAN_POINT ( 'NONE',  ( 2.649999999999938627, 29.02886699999993425, 0.000000000000000000 ) ) ;
#15 = ORIENTED_EDGE ( 'NONE', *, *, #33, .F. ) ;
#16 = CARTESIAN_POINT ( 'NONE',  ( 2.749999999999900080, 33.34999999999999432, 0.000000000000000000 ) ) ;
#17 = DIRECTION ( 'NONE',  ( -5.071428571428576922E-16, -1.000000000000000000, -0.000000000000000000 ) ) ;
#18 = EDGE_LOOP ( 'NONE', ( #591, #309, #377, #549 ) ) ;
#19 = DIRECTION ( 'NONE',  ( 1.000000000000000000, 0.000000000000000000, 0.000000000000000000 ) ) ;
#20 = DIRECTION ( 'NONE',  ( -1.000000000000000000, 0.000000000000000000, 0.000000000000000000 ) ) ;
#21 = AXIS2_PLACEMENT_3D ( 'NONE', #453, #647, #258 ) ;
#22 = ORIENTED_EDGE ( 'NONE', *, *, #758, .F. ) ;
#23 = DIRECTION ( 'NONE',  ( -5.071428571428576922E-16, -1.000000000000000000, -0.000000000000000000 ) ) ;
#24 = LINE ( 'NONE', #576, #269 ) ;
#25 = ORIENTED_EDGE ( 'NONE', *, *, #563, .T. ) ;
#26 = VECTOR ( 'NONE', #446, 1000.000000000000000 ) ;
#27 = DIRECTION ( 'NONE',  ( 1.000000000000000000, 0.000000000000000000, 0.000000000000000000 ) ) ;
#28 = CIRCLE ( 'NONE', #236, 4.999999999999991118 ) ;
#29 = CARTESIAN_POINT ( 'NONE',  ( 2.449999999999915357, 29.53431400000005169, 0.000000000000000000 ) ) ;
#30 = ORIENTED_EDGE ( 'NONE', *, *, #715, .F. ) ;
#31 = ORIENTED_EDGE ( 'NONE', *, *, #815, .T. ) ;
#32 = LINE ( 'NONE', #584, #42 ) ;
#33 = EDGE_CURVE ( 'NONE', #248, #684, #315, .T. ) ;
#34 = AXIS2_PLACEMENT_3D ( 'NONE', #628, #496, #152 ) ;
#35 = EDGE_CURVE ( 'NONE', #602, #814, #50, .T. ) ;
#36 = ORIENTED_EDGE ( 'NONE', *, *, #235, .F. ) ;
#37 = CARTESIAN_POINT ( 'NONE',  ( 1.497811638571432969E-14, 29.53431400000005169, 0.000000000000000000 ) ) ;
#38 = CIRCLE ( 'NONE', #794, 3.999999999997039701 ) ;
#39 = AXIS2_PLACEMENT_3D ( 'NONE', #739, #495, #826 ) ;
#40 = ORIENTED_EDGE ( 'NONE', *, *, #693, .F. ) ;
#41 = DIRECTION ( 'NONE',  ( 1.000000000000000000, -5.071428571428575936E-16, 0.000000000000000000 ) ) ;
#42 = VECTOR ( 'NONE', #767, 1000.000000000000000 ) ;
#43 = EDGE_CURVE ( 'NONE', #292, #558, #427, .T. ) ;
#44 = DIRECTION ( 'NONE',  ( -5.071428571428576922E-16, -1.000000000000000000, -0.000000000000000000 ) ) ;
#45 = DIRECTION ( 'NONE',  ( -5.071428571428576922E-16, -1.000000000000000000, -0.000000000000000000 ) ) ;
#46 = ORIENTED_EDGE ( 'NONE', *, *, #802, .T. ) ;
#47 = CIRCLE ( 'NONE', #566, 2.749999999999884981 ) ;
#48 = STYLED_ITEM ( 'NONE', ( #832 ), #460 ) ;
#49 =( LENGTH_UNIT ( ) NAMED_UNIT ( * ) SI_UNIT ( .MILLI., .METRE. ) );
#50 = LINE ( 'NONE', #455, #177 ) ;
#51 = DIRECTION ( 'NONE',  ( 1.000000000000000000, -5.071428571428575936E-16, 0.000000000000000000 ) ) ;
#52 = ORIENTED_EDGE ( 'NONE', *, *, #485, .F. ) ;
#53 = ADVANCED_FACE ( 'NONE', ( #532 ), #763, .F. ) ;
#54 = DIRECTION ( 'NONE',  ( -5.071428571428576922E-16, -1.000000000000000000, -0.000000000000000000 ) ) ;
#55 = CARTESIAN_POINT ( 'NONE',  ( -2.099999999999898836, 1.064999999999949858E-15, 2.571758278209317711E-16 ) ) ;
#56 = ORIENTED_EDGE ( 'NONE', *, *, #563, .F. ) ;
#57 = CARTESIAN_POINT ( 'NONE',  ( 0.000000000000000000, 0.000000000000000000, 0.000000000000000000 ) ) ;
#58 = CARTESIAN_POINT ( 'NONE',  ( 2.749999999999898748, 29.99999999999997158, 3.367778697655079017E-16 ) ) ;
#59 = VERTEX_POINT ( 'NONE', #656 ) ;
#60 = CIRCLE ( 'NONE', #787, 1.499999999999877653 ) ;
#61 = ADVANCED_FACE ( 'NONE', ( #393 ), #87, .T. ) ;
#62 = AXIS2_PLACEMENT_3D ( 'NONE', #305, #769, #582 ) ;
#63 = FACE_OUTER_BOUND ( 'NONE', #282, .T. ) ;
#64 = ADVANCED_FACE ( 'NONE', ( #474 ), #835, .F. ) ;
#65 = CARTESIAN_POINT ( 'NONE',  ( 2.099999999999916156, 33.99999999999997158, 0.000000000000000000 ) ) ;
#66 = ORIENTED_EDGE ( 'NONE', *, *, #849, .F. ) ;
#67 = AXIS2_PLACEMENT_3D ( 'NONE', #343, #547, #480 ) ;
#68 = EDGE_CURVE ( 'NONE', #79, #688, #801, .T. ) ;
#69 = DIRECTION ( 'NONE',  ( -5.071428571428576922E-16, -1.000000000000000000, -0.000000000000000000 ) ) ;
#70 = DIRECTION ( 'NONE',  ( -5.071428571428576922E-16, -1.000000000000000000, -0.000000000000000000 ) ) ;
#71 = CIRCLE ( 'NONE', #491, 0.4000000000000010214 ) ;
#72 = ORIENTED_EDGE ( 'NONE', *, *, #512, .F. ) ;
#73 = VERTEX_POINT ( 'NONE', #115 ) ;
#74 = AXIS2_PLACEMENT_3D ( 'NONE', #637, #592, #41 ) ;
#75 = CARTESIAN_POINT ( 'NONE',  ( 3.999999999997041478, -2.028571428569930750E-15, 0.000000000000000000 ) ) ;
#76 = PLANE ( 'NONE',  #155 ) ;
#77 = APPLICATION_CONTEXT ( 'automotive_design' ) ;
#78 = ORIENTED_EDGE ( 'NONE', *, *, #399, .T. ) ;
#79 = VERTEX_POINT ( 'NONE', #322 ) ;
#80 = DIRECTION ( 'NONE',  ( -5.071428571428576922E-16, -1.000000000000000000, -0.000000000000000000 ) ) ;
#81 = EDGE_LOOP ( 'NONE', ( #851, #653, #150, #528 ) ) ;
#82 = EDGE_CURVE ( 'NONE', #395, #423, #559, .T. ) ;
#83 = ORIENTED_EDGE ( 'NONE', *, *, #815, .F. ) ;
#84 = CARTESIAN_POINT ( 'NONE',  ( 2.749999999999884093, -1.394642857142799834E-15, 0.000000000000000000 ) ) ;
#85 = CARTESIAN_POINT ( 'NONE',  ( 2.499999999999879208, 40.99999999999995737, 0.000000000000000000 ) ) ;
#86 = EDGE_LOOP ( 'NONE', ( #438, #499 ) ) ;
#87 = CONICAL_SURFACE ( 'NONE', #412, 4.999999999999991118, 0.7853981633965267939 ) ;
#88 = CONICAL_SURFACE ( 'NONE', #114, 1732.050807568888331, 1.047197551196600518 ) ;
#89 = CARTESIAN_POINT ( 'NONE',  ( -2.999999999999870770, 28.99999999999997513, 0.000000000000000000 ) ) ;
#90 = FACE_OUTER_BOUND ( 'NONE', #126, .T. ) ;
#91 = EDGE_CURVE ( 'NONE', #292, #441, #536, .T. ) ;
#92 = AXIS2_PLACEMENT_3D ( 'NONE', #440, #710, #370 ) ;
#93 = DIRECTION ( 'NONE',  ( 0.8660254037844402619, 0.4999999999999971689, 1.060575238724908640E-16 ) ) ;
#94 = CARTESIAN_POINT ( 'NONE',  ( 0.000000000000000000, 0.000000000000000000, 0.000000000000000000 ) ) ;
#95 = ORIENTED_EDGE ( 'NONE', *, *, #788, .T. ) ;
#96 = DIRECTION ( 'NONE',  ( -5.071428571428576922E-16, -1.000000000000000000, -0.000000000000000000 ) ) ;
#97 = EDGE_CURVE ( 'NONE', #73, #159, #28, .T. ) ;
#98 = DIRECTION ( 'NONE',  ( 1.000000000000000000, 0.000000000000000000, 0.000000000000000000 ) ) ;
#99 = VERTEX_POINT ( 'NONE', #127 ) ;
#100 = CARTESIAN_POINT ( 'NONE',  ( 0.000000000000000000, 0.000000000000000000, 0.000000000000000000 ) ) ;
#101 = UNCERTAINTY_MEASURE_WITH_UNIT (LENGTH_MEASURE( 1.000000000000000082E-05 ), #642, 'distance_accuracy_value', 'NONE');
#102 = AXIS2_PLACEMENT_3D ( 'NONE', #413, #346, #556 ) ;
#103 = DIRECTION ( 'NONE',  ( -5.071428571428576922E-16, -1.000000000000000000, -0.000000000000000000 ) ) ;
#104 = ORIENTED_EDGE ( 'NONE', *, *, #256, .F. ) ;
#105 = SURFACE_STYLE_FILL_AREA ( #828 ) ;
#106 = EDGE_LOOP ( 'NONE', ( #643, #555, #471, #344 ) ) ;
#107 = DIRECTION ( 'NONE',  ( -5.071428571428576922E-16, -1.000000000000000000, -0.000000000000000000 ) ) ;
#108 = AXIS2_PLACEMENT_3D ( 'NONE', #842, #565, #561 ) ;
#109 =( NAMED_UNIT ( * ) SI_UNIT ( $, .STERADIAN. ) SOLID_ANGLE_UNIT ( ) );
#110 = ORIENTED_EDGE ( 'NONE', *, *, #579, .T. ) ;
#111 = FACE_OUTER_BOUND ( 'NONE', #515, .T. ) ;
#112 = ORIENTED_EDGE ( 'NONE', *, *, #82, .T. ) ;
#113 = VECTOR ( 'NONE', #70, 1000.000000000000000 ) ;
#114 = AXIS2_PLACEMENT_3D ( 'NONE', #795, #191, #664 ) ;
#115 = CARTESIAN_POINT ( 'NONE',  ( 5.000000000000006217, 28.92000000000005500, 0.000000000000000000 ) ) ;
#116 = FACE_OUTER_BOUND ( 'NONE', #18, .T. ) ;
#117 = CIRCLE ( 'NONE', #840, 4.999999999999874767 ) ;
#118 = DIRECTION ( 'NONE',  ( -1.000000000000000000, 0.000000000000000000, 0.000000000000000000 ) ) ;
#119 = DIRECTION ( 'NONE',  ( 1.000000000000000000, -5.071428571428575936E-16, 0.000000000000000000 ) ) ;
#120 = VERTEX_POINT ( 'NONE', #670 ) ;
#121 = DIRECTION ( 'NONE',  ( -5.071428571428576922E-16, -1.000000000000000000, -0.000000000000000000 ) ) ;
#122 = DIRECTION ( 'NONE',  ( -5.071428571428576922E-16, -1.000000000000000000, -0.000000000000000000 ) ) ;
#123 = VERTEX_POINT ( 'NONE', #259 ) ;
#124 = AXIS2_PLACEMENT_3D ( 'NONE', #870, #812, #405 ) ;
#125 = ORIENTED_EDGE ( 'NONE', *, *, #256, .T. ) ;
#126 = EDGE_LOOP ( 'NONE', ( #494, #683, #622, #252 ) ) ;
#127 = CARTESIAN_POINT ( 'NONE',  ( 1.499999999999898970, 41.99999999999996447, 0.000000000000000000 ) ) ;
#128 = DIRECTION ( 'NONE',  ( -1.000000000000000000, 5.127900497022804303E-16, 0.000000000000000000 ) ) ;
#129 = ORIENTED_EDGE ( 'NONE', *, *, #543, .F. ) ;
#130 = AXIS2_PLACEMENT_3D ( 'NONE', #459, #121, #877 ) ;
#131 = ADVANCED_FACE ( 'NONE', ( #63 ), #88, .T. ) ;
#132 = ADVANCED_FACE ( 'NONE', ( #337 ), #358, .T. ) ;
#133 = CARTESIAN_POINT ( 'NONE',  ( 4.999999999999879208, 10.69041050590347908, 6.123233995736611468E-16 ) ) ;
#134 = DIRECTION ( 'NONE',  ( 5.071428571428576922E-16, 1.000000000000000000, 0.000000000000000000 ) ) ;
#135 = AXIS2_PLACEMENT_3D ( 'NONE', #700, #237, #841 ) ;
#136 = ADVANCED_FACE ( 'NONE', ( #598 ), #765, .F. ) ;
#137 = CIRCLE ( 'NONE', #872, 2.449999999999900258 ) ;
#138 = CARTESIAN_POINT ( 'NONE',  ( 5.000000000000006217, 28.92000000000005500, 0.000000000000000000 ) ) ;
#139 = CARTESIAN_POINT ( 'NONE',  ( 1.517883041479706208E-14, 29.53431457505076096, 0.000000000000000000 ) ) ;
#140 = VERTEX_POINT ( 'NONE', #133 ) ;
#141 = ORIENTED_EDGE ( 'NONE', *, *, #355, .F. ) ;
#142 = VECTOR ( 'NONE', #475, 1000.000000000000000 ) ;
#143 = DIRECTION ( 'NONE',  ( 1.000000000000000000, -5.071428571428576922E-16, 0.000000000000000000 ) ) ;
#144 = FACE_OUTER_BOUND ( 'NONE', #372, .T. ) ;
#145 = EDGE_LOOP ( 'NONE', ( #804, #95, #524, #737 ) ) ;
#146 = EDGE_LOOP ( 'NONE', ( #761, #865, #110, #66 ) ) ;
#147 = FACE_OUTER_BOUND ( 'NONE', #81, .T. ) ;
#148 = CARTESIAN_POINT ( 'NONE',  ( 1.774999999999999379E-14, 34.99999999999995026, 0.000000000000000000 ) ) ;
#149 = EDGE_CURVE ( 'NONE', #73, #140, #798, .T. ) ;
#150 = ORIENTED_EDGE ( 'NONE', *, *, #180, .F. ) ;
#151 = CARTESIAN_POINT ( 'NONE',  ( 2.079285714285714586E-14, 40.99999999999995737, 0.000000000000000000 ) ) ;
#152 = DIRECTION ( 'NONE',  ( 1.000000000000000000, 0.000000000000000000, -1.224646799147350989E-16 ) ) ;
#153 = AXIS2_PLACEMENT_3D ( 'NONE', #707, #17, #98 ) ;
#154 = DIRECTION ( 'NONE',  ( 5.071428571428576922E-16, 1.000000000000000000, 0.000000000000000000 ) ) ;
#155 = AXIS2_PLACEMENT_3D ( 'NONE', #409, #338, #611 ) ;
#156 = DIRECTION ( 'NONE',  ( -0.8660246941625429073, 0.5000012290991634467, 0.000000000000000000 ) ) ;
#157 = DIRECTION ( 'NONE',  ( -1.000000000000000000, 0.000000000000000000, 0.000000000000000000 ) ) ;
#158 = CYLINDRICAL_SURFACE ( 'NONE', #164, 2.449999999999911360 ) ;
#159 = VERTEX_POINT ( 'NONE', #869 ) ;
#160 = EDGE_CURVE ( 'NONE', #263, #140, #696, .T. ) ;
#161 = AXIS2_PLACEMENT_3D ( 'NONE', #624, #752, #218 ) ;
#162 = ADVANCED_FACE ( 'NONE', ( #293 ), #360, .T. ) ;
#163 = CARTESIAN_POINT ( 'NONE',  ( -3.999999999997041478, 2.028571428569930750E-15, 4.898587196585789985E-16 ) ) ;
#164 = AXIS2_PLACEMENT_3D ( 'NONE', #502, #222, #428 ) ;
#165 = LINE ( 'NONE', #221, #257 ) ;
#166 = DIRECTION ( 'NONE',  ( -5.071428571428576922E-16, -1.000000000000000000, -0.000000000000000000 ) ) ;
#167 = ADVANCED_FACE ( 'NONE', ( #560 ), #429, .T. ) ;
#168 = DIRECTION ( 'NONE',  ( 1.000000000000000000, 0.000000000000000000, 0.000000000000000000 ) ) ;
#169 = DIRECTION ( 'NONE',  ( -5.071428571428576922E-16, -1.000000000000000000, -0.000000000000000000 ) ) ;
#170 = VERTEX_POINT ( 'NONE', #408 ) ;
#171 = ADVANCED_FACE ( 'NONE', ( #342 ), #501, .T. ) ;
#172 = APPLICATION_CONTEXT ( 'automotive_design' ) ;
#173 = DIRECTION ( 'NONE',  ( 1.000000000000000000, -7.051721447059957677E-16, 0.000000000000000000 ) ) ;
#174 = LINE ( 'NONE', #701, #500 ) ;
#175 = ORIENTED_EDGE ( 'NONE', *, *, #290, .T. ) ;
#176 = CARTESIAN_POINT ( 'NONE',  ( -3.999999999997035260, 7.928768482281131291, 4.898587196585788999E-16 ) ) ;
#177 = VECTOR ( 'NONE', #873, 1000.000000000000114 ) ;
#178 = VERTEX_POINT ( 'NONE', #492 ) ;
#179 = CARTESIAN_POINT ( 'NONE',  ( -4.920000000000148255, 29.00000000000003553, 6.074248123770967912E-16 ) ) ;
#180 = EDGE_CURVE ( 'NONE', #618, #266, #473, .T. ) ;
#181 = AXIS2_PLACEMENT_3D ( 'NONE', #100, #839, #572 ) ;
#182 = ORIENTED_EDGE ( 'NONE', *, *, #320, .T. ) ;
#183 = CARTESIAN_POINT ( 'NONE',  ( 0.000000000000000000, 0.000000000000000000, 0.000000000000000000 ) ) ;
#184 = ORIENTED_EDGE ( 'NONE', *, *, #548, .F. ) ;
#185 = VECTOR ( 'NONE', #220, 999.9999999999998863 ) ;
#186 = DIRECTION ( 'NONE',  ( 1.000000000000000000, 0.000000000000000000, -1.224646799147353207E-16 ) ) ;
#187 = DIRECTION ( 'NONE',  ( -5.071428571428576922E-16, -1.000000000000000000, -0.000000000000000000 ) ) ;
#188 = ORIENTED_EDGE ( 'NONE', *, *, #2, .T. ) ;
#189 = CIRCLE ( 'NONE', #638, 4.999999999999991118 ) ;
#190 = AXIS2_PLACEMENT_3D ( 'NONE', #274, #389, #118 ) ;
#191 = DIRECTION ( 'NONE',  ( 5.071428571428576922E-16, 1.000000000000000000, 0.000000000000000000 ) ) ;
#192 = DIRECTION ( 'NONE',  ( -1.000000000000000000, 4.336808689945227414E-16, 0.000000000000000000 ) ) ;
#193 = ORIENTED_EDGE ( 'NONE', *, *, #160, .T. ) ;
#194 = AXIS2_PLACEMENT_3D ( 'NONE', #533, #45, #657 ) ;
#195 = DIRECTION ( 'NONE',  ( -5.071428571428576922E-16, -1.000000000000000000, -0.000000000000000000 ) ) ;
#196 = CARTESIAN_POINT ( 'NONE',  ( 1.521428571428571617E-14, 29.99999999999997158, 0.000000000000000000 ) ) ;
#197 = EDGE_LOOP ( 'NONE', ( #129, #188, #868, #452 ) ) ;
#198 = DIRECTION ( 'NONE',  ( -5.071428571428576922E-16, -1.000000000000000000, -0.000000000000000000 ) ) ;
#199 = FACE_OUTER_BOUND ( 'NONE', #444, .T. ) ;
#200 = EDGE_LOOP ( 'NONE', ( #313, #4, #853, #202 ) ) ;
#201 = EDGE_CURVE ( 'NONE', #742, #658, #3, .T. ) ;
#202 = ORIENTED_EDGE ( 'NONE', *, *, #160, .F. ) ;
#203 = DIRECTION ( 'NONE',  ( -5.071428571428576922E-16, -1.000000000000000000, -0.000000000000000000 ) ) ;
#204 = CARTESIAN_POINT ( 'NONE',  ( 2.130000000000000138E-14, 41.99999999999996447, 0.000000000000000000 ) ) ;
#205 = ORIENTED_EDGE ( 'NONE', *, *, #721, .T. ) ;
#206 = EDGE_CURVE ( 'NONE', #423, #178, #614, .T. ) ;
#207 = DIRECTION ( 'NONE',  ( 1.000000000000000000, -5.071428571428576922E-16, 0.000000000000000000 ) ) ;
#208 = CARTESIAN_POINT ( 'NONE',  ( 1.774999999999999379E-14, 34.99999999999995026, 0.000000000000000000 ) ) ;
#209 = CIRCLE ( 'NONE', #553, 2.099999999999898392 ) ;
#210 = ORIENTED_EDGE ( 'NONE', *, *, #548, .T. ) ;
#211 = EDGE_LOOP ( 'NONE', ( #403, #410 ) ) ;
#212 = CIRCLE ( 'NONE', #608, 2.750000017484295345 ) ;
#213 = DIRECTION ( 'NONE',  ( 1.000000000000000000, -5.071428571428576922E-16, 0.000000000000000000 ) ) ;
#214 = FACE_OUTER_BOUND ( 'NONE', #747, .T. ) ;
#215 = ORIENTED_EDGE ( 'NONE', *, *, #407, .F. ) ;
#216 = ORIENTED_EDGE ( 'NONE', *, *, #68, .F. ) ;
#217 = ADVANCED_FACE ( 'NONE', ( #147 ), #472, .T. ) ;
#218 = DIRECTION ( 'NONE',  ( 1.000000000000000000, -5.071428571428576922E-16, 0.000000000000000000 ) ) ;
#219 = CARTESIAN_POINT ( 'NONE',  ( 5.071428571428576938E-13, 1000.000000000000000, 0.000000000000000000 ) ) ;
#220 = DIRECTION ( 'NONE',  ( 0.7071067811865473507, -0.7071067811865477948, 0.000000000000000000 ) ) ;
#221 = CARTESIAN_POINT ( 'NONE',  ( 0.000000000000000000, 0.000000000000000000, 0.000000000000000000 ) ) ;
#222 = DIRECTION ( 'NONE',  ( -5.071428571428576922E-16, -1.000000000000000000, -0.000000000000000000 ) ) ;
#223 = ORIENTED_EDGE ( 'NONE', *, *, #871, .T. ) ;
#224 = LINE ( 'NONE', #84, #483 ) ;
#225 = DIRECTION ( 'NONE',  ( 1.000000000000000000, 0.000000000000000000, 0.000000000000000000 ) ) ;
#226 = TOROIDAL_SURFACE ( 'NONE', #646, 2.849999999999488054, 0.4000000000000011324 ) ;
#227 = ADVANCED_FACE ( 'NONE', ( #417 ), #569, .T. ) ;
#228 = DIRECTION ( 'NONE',  ( -5.071428571428576922E-16, -1.000000000000000000, -0.000000000000000000 ) ) ;
#229 = ORIENTED_EDGE ( 'NONE', *, *, #788, .F. ) ;
#230 = EDGE_CURVE ( 'NONE', #362, #73, #695, .T. ) ;
#231 = AXIS2_PLACEMENT_3D ( 'NONE', #219, #268, #128 ) ;
#232 = DIRECTION ( 'NONE',  ( -5.071428571428576922E-16, -1.000000000000000000, -0.000000000000000000 ) ) ;
#233 = FACE_OUTER_BOUND ( 'NONE', #297, .T. ) ;
#234 = CARTESIAN_POINT ( 'NONE',  ( 1.691321428571429953E-14, 33.34999999999999432, 0.000000000000000000 ) ) ;
#235 = EDGE_CURVE ( 'NONE', #666, #178, #821, .T. ) ;
#236 = AXIS2_PLACEMENT_3D ( 'NONE', #609, #595, #661 ) ;
#237 = DIRECTION ( 'NONE',  ( -5.071428571428576922E-16, -1.000000000000000000, -0.000000000000000000 ) ) ;
#238 =( GEOMETRIC_REPRESENTATION_CONTEXT ( 3 ) GLOBAL_UNCERTAINTY_ASSIGNED_CONTEXT ( ( #101 ) ) GLOBAL_UNIT_ASSIGNED_CONTEXT ( ( #642, #698, #578 ) ) REPRESENTATION_CONTEXT ( 'NONE', 'WORKASPACE' ) );
#239 = DIRECTION ( 'NONE',  ( 0.8660246941625433514, 0.5000012290991625585, 1.060574369688723989E-16 ) ) ;
#240 = ORIENTED_EDGE ( 'NONE', *, *, #604, .F. ) ;
#241 = EDGE_CURVE ( 'NONE', #250, #718, #224, .T. ) ;
#242 = DIRECTION ( 'NONE',  ( 1.000000000000000000, 0.000000000000000000, 0.000000000000000000 ) ) ;
#243 = CARTESIAN_POINT ( 'NONE',  ( 0.000000000000000000, 0.000000000000000000, 0.000000000000000000 ) ) ;
#244 =( LENGTH_UNIT ( ) NAMED_UNIT ( * ) SI_UNIT ( .MILLI., .METRE. ) );
#245 = ORIENTED_EDGE ( 'NONE', *, *, #871, .F. ) ;
#246 = EDGE_CURVE ( 'NONE', #688, #250, #551, .T. ) ;
#247 = CIRCLE ( 'NONE', #354, 3.999999999997043254 ) ;
#248 = VERTEX_POINT ( 'NONE', #685 ) ;
#249 = DIRECTION ( 'NONE',  ( -5.071428571428576922E-16, -1.000000000000000000, -0.000000000000000000 ) ) ;
#250 = VERTEX_POINT ( 'NONE', #677 ) ;
#251 = CARTESIAN_POINT ( 'NONE',  ( -2.499999999999837463, 40.99999999999995737, 3.061616997868209592E-16 ) ) ;
#252 = ORIENTED_EDGE ( 'NONE', *, *, #411, .T. ) ;
#253 = VECTOR ( 'NONE', #93, 1000.000000000000000 ) ;
#254 = EDGE_LOOP ( 'NONE', ( #306, #743, #400, #830 ) ) ;
#255 = DIRECTION ( 'NONE',  ( 1.000000000000000000, -5.071428571428576922E-16, 0.000000000000000000 ) ) ;
#256 = EDGE_CURVE ( 'NONE', #170, #742, #6, .T. ) ;
#257 = VECTOR ( 'NONE', #426, 1000.000000000000114 ) ;
#258 = DIRECTION ( 'NONE',  ( 1.000000000000000000, 0.000000000000000000, 0.000000000000000000 ) ) ;
#259 = CARTESIAN_POINT ( 'NONE',  ( -2.749999999999866329, 33.34999999999999432, 3.367778697655079017E-16 ) ) ;
#260 = CARTESIAN_POINT ( 'NONE',  ( 0.000000000000000000, 0.000000000000000000, 0.000000000000000000 ) ) ;
#261 = CIRCLE ( 'NONE', #369, 2.499999999999861444 ) ;
#262 = EDGE_CURVE ( 'NONE', #59, #170, #212, .T. ) ;
#263 = VERTEX_POINT ( 'NONE', #811 ) ;
#264 = DIRECTION ( 'NONE',  ( -5.071428571428576922E-16, -1.000000000000000000, -0.000000000000000000 ) ) ;
#265 = DIRECTION ( 'NONE',  ( 1.000000000000000000, -5.071428571428576922E-16, 0.000000000000000000 ) ) ;
#266 = VERTEX_POINT ( 'NONE', #486 ) ;
#267 = DIRECTION ( 'NONE',  ( -5.071428571428576922E-16, -1.000000000000000000, -0.000000000000000000 ) ) ;
#268 = DIRECTION ( 'NONE',  ( 5.071428571428576922E-16, 1.000000000000000000, 0.000000000000000000 ) ) ;
#269 = VECTOR ( 'NONE', #239, 1000.000000000000000 ) ;
#270 = CYLINDRICAL_SURFACE ( 'NONE', #273, 3.999999999997041478 ) ;
#271 = DIRECTION ( 'NONE',  ( -5.071428571428576922E-16, -1.000000000000000000, -0.000000000000000000 ) ) ;
#272 = AXIS2_PLACEMENT_3D ( 'NONE', #461, #852, #192 ) ;
#273 = AXIS2_PLACEMENT_3D ( 'NONE', #57, #195, #674 ) ;
#274 = CARTESIAN_POINT ( 'NONE',  ( 1.470714285714285749E-14, 28.99999999999997513, 0.000000000000000000 ) ) ;
#275 = DIRECTION ( 'NONE',  ( 1.000000000000000000, -5.421010862431529583E-16, 0.000000000000000000 ) ) ;
#276 = CARTESIAN_POINT ( 'NONE',  ( 1.463394285607035565E-14, 28.85566196971615938, 0.000000000000000000 ) ) ;
#277 = LINE ( 'NONE', #55, #142 ) ;
#278 = ORIENTED_EDGE ( 'NONE', *, *, #381, .T. ) ;
#279 = VERTEX_POINT ( 'NONE', #351 ) ;
#280 = CARTESIAN_POINT ( 'NONE',  ( 1.724285714285714773E-14, 33.99999999999997158, 0.000000000000000000 ) ) ;
#281 = FACE_BOUND ( 'NONE', #86, .T. ) ;
#282 = EDGE_LOOP ( 'NONE', ( #863, #523, #11 ) ) ;
#283 = AXIS2_PLACEMENT_3D ( 'NONE', #525, #663, #791 ) ;
#284 = CYLINDRICAL_SURFACE ( 'NONE', #809, 2.749999999999884093 ) ;
#285 =( NAMED_UNIT ( * ) SI_UNIT ( $, .STERADIAN. ) SOLID_ANGLE_UNIT ( ) );
#286 = EDGE_LOOP ( 'NONE', ( #229, #782, #353, #478 ) ) ;
#287 = ADVANCED_FACE ( 'NONE', ( #564 ), #284, .T. ) ;
#288 = DIRECTION ( 'NONE',  ( 1.000000000000000000, 0.000000000000000000, 0.000000000000000000 ) ) ;
#289 = DIRECTION ( 'NONE',  ( -5.071428571428576922E-16, -1.000000000000000000, -0.000000000000000000 ) ) ;
#290 = EDGE_CURVE ( 'NONE', #713, #688, #659, .T. ) ;
#291 = FILL_AREA_STYLE_COLOUR ( '', #431 ) ;
#292 = VERTEX_POINT ( 'NONE', #29 ) ;
#293 = FACE_OUTER_BOUND ( 'NONE', #254, .T. ) ;
#294 = SURFACE_SIDE_STYLE ('',( #823 ) ) ;
#295 =( GEOMETRIC_REPRESENTATION_CONTEXT ( 3 ) GLOBAL_UNCERTAINTY_ASSIGNED_CONTEXT ( ( #449 ) ) GLOBAL_UNIT_ASSIGNED_CONTEXT ( ( #49, #518, #109 ) ) REPRESENTATION_CONTEXT ( 'NONE', 'WORKASPACE' ) );
#296 = DIRECTION ( 'NONE',  ( -5.071428571428576922E-16, -1.000000000000000000, -0.000000000000000000 ) ) ;
#297 = EDGE_LOOP ( 'NONE', ( #668, #568, #419, #22 ) ) ;
#298 = AXIS2_PLACEMENT_3D ( 'NONE', #280, #103, #764 ) ;
#299 = CARTESIAN_POINT ( 'NONE',  ( 1.774999999999999379E-14, 34.99999999999995026, 0.000000000000000000 ) ) ;
#300 = DIRECTION ( 'NONE',  ( 1.000000000000000000, -5.071428571428576922E-16, 0.000000000000000000 ) ) ;
#301 = EDGE_LOOP ( 'NONE', ( #240, #385, #25, #786 ) ) ;
#302 = DIRECTION ( 'NONE',  ( -5.071428571428576922E-16, -1.000000000000000000, -0.000000000000000000 ) ) ;
#303 = CARTESIAN_POINT ( 'NONE',  ( -2.449999999999885159, 29.53431400000005169, 3.000384657910899506E-16 ) ) ;
#304 = STYLED_ITEM ( 'NONE', ( #439 ), #443 ) ;
#305 = CARTESIAN_POINT ( 'NONE',  ( 1.466657142857147323E-14, 28.92000000000005855, 0.000000000000000000 ) ) ;
#306 = ORIENTED_EDGE ( 'NONE', *, *, #399, .F. ) ;
#307 = LINE ( 'NONE', #567, #415 ) ;
#308 = EDGE_CURVE ( 'NONE', #395, #666, #575, .T. ) ;
#309 = ORIENTED_EDGE ( 'NONE', *, *, #748, .T. ) ;
#310 = FACE_BOUND ( 'NONE', #211, .T. ) ;
#311 = CONICAL_SURFACE ( 'NONE', #153, 2.749999999999883205, 0.7853981633974485010 ) ;
#312 = AXIS2_PLACEMENT_3D ( 'NONE', #378, #397, #324 ) ;
#313 = ORIENTED_EDGE ( 'NONE', *, *, #748, .F. ) ;
#314 = LINE ( 'NONE', #652, #26 ) ;
#315 = CIRCLE ( 'NONE', #797, 2.499999999999861444 ) ;
#316 = AXIS2_PLACEMENT_3D ( 'NONE', #600, #267, #479 ) ;
#317 = EDGE_CURVE ( 'NONE', #423, #140, #505, .T. ) ;
#318 = VERTEX_POINT ( 'NONE', #303 ) ;
#319 = LINE ( 'NONE', #857, #531 ) ;
#320 = EDGE_CURVE ( 'NONE', #279, #99, #60, .T. ) ;
#321 = CIRCLE ( 'NONE', #527, 2.499999999999858336 ) ;
#322 = CARTESIAN_POINT ( 'NONE',  ( 2.099999999999916156, 34.99999999999995026, 0.000000000000000000 ) ) ;
#323 = EDGE_CURVE ( 'NONE', #266, #618, #321, .T. ) ;
#324 = DIRECTION ( 'NONE',  ( 1.000000000000000000, 0.000000000000000000, 0.000000000000000000 ) ) ;
#325 = ORIENTED_EDGE ( 'NONE', *, *, #246, .T. ) ;
#326 = AXIS2_PLACEMENT_3D ( 'NONE', #14, #510, #157 ) ;
#327 = ADVANCED_FACE ( 'NONE', ( #364 ), #481, .F. ) ;
#328 = CARTESIAN_POINT ( 'NONE',  ( 2.849999999999503153, 29.53431457505076096, 0.000000000000000000 ) ) ;
#329 = CARTESIAN_POINT ( 'NONE',  ( 4.021018301728291218E-15, 7.928768482281129515, 0.000000000000000000 ) ) ;
#330 = ORIENTED_EDGE ( 'NONE', *, *, #308, .T. ) ;
#331 = DIRECTION ( 'NONE',  ( 1.000000000000000000, 0.000000000000000000, 0.000000000000000000 ) ) ;
#332 = DIRECTION ( 'NONE',  ( 1.000000000000000000, 0.000000000000000000, 0.000000000000000000 ) ) ;
#333 = PRODUCT_RELATED_PRODUCT_CATEGORY ( 'part', '', ( #740 ) ) ;
#334 = DIRECTION ( 'NONE',  ( -1.000000000000000000, 0.000000000000000000, 0.000000000000000000 ) ) ;
#335 = PLANE ( 'NONE',  #124 ) ;
#336 = ORIENTED_EDGE ( 'NONE', *, *, #230, .F. ) ;
#337 = FACE_OUTER_BOUND ( 'NONE', #838, .T. ) ;
#338 = DIRECTION ( 'NONE',  ( 5.071428571428576922E-16, 1.000000000000000000, 0.000000000000000000 ) ) ;
#339 = AXIS2_PLACEMENT_3D ( 'NONE', #615, #803, #7 ) ;
#340 = EDGE_LOOP ( 'NONE', ( #83, #391, #125, #72 ) ) ;
#341 = EDGE_LOOP ( 'NONE', ( #519, #175, #325, #52 ) ) ;
#342 = FACE_OUTER_BOUND ( 'NONE', #489, .T. ) ;
#343 = CARTESIAN_POINT ( 'NONE',  ( 1.474514954580286030E-14, 29.02886699999993425, 0.000000000000000000 ) ) ;
#344 = ORIENTED_EDGE ( 'NONE', *, *, #753, .T. ) ;
#345 = CIRCLE ( 'NONE', #194, 2.999999999999885425 ) ;
#346 = DIRECTION ( 'NONE',  ( -5.071428571428576922E-16, -1.000000000000000000, -0.000000000000000000 ) ) ;
#347 = CARTESIAN_POINT ( 'NONE',  ( 1.463394285607035565E-14, 28.85566196971615938, 0.000000000000000000 ) ) ;
#348 = EDGE_CURVE ( 'NONE', #441, #819, #630, .T. ) ;
#349 = ORIENTED_EDGE ( 'NONE', *, *, #323, .F. ) ;
#350 = ORIENTED_EDGE ( 'NONE', *, *, #634, .T. ) ;
#351 = CARTESIAN_POINT ( 'NONE',  ( -1.499999999999856559, 41.99999999999996447, 2.449293598294544205E-16 ) ) ;
#352 = CYLINDRICAL_SURFACE ( 'NONE', #539, 4.999999999999933387 ) ;
#353 = ORIENTED_EDGE ( 'NONE', *, *, #91, .T. ) ;
#354 = AXIS2_PLACEMENT_3D ( 'NONE', #537, #552, #275 ) ;
#355 = EDGE_CURVE ( 'NONE', #488, #178, #836, .T. ) ;
#356 = DIRECTION ( 'NONE',  ( -5.071428571428576922E-16, -1.000000000000000000, -0.000000000000000000 ) ) ;
#357 = CARTESIAN_POINT ( 'NONE',  ( 3.999999999997044142, 7.928768482281127739, 0.000000000000000000 ) ) ;
#358 = CONICAL_SURFACE ( 'NONE', #806, 2.499999999999858336, 0.7853981633974380649 ) ;
#359 = ORIENTED_EDGE ( 'NONE', *, *, #392, .T. ) ;
#360 = CYLINDRICAL_SURFACE ( 'NONE', #654, 2.749999999999884093 ) ;
#361 = DIRECTION ( 'NONE',  ( 1.000000000000000000, 0.000000000000000000, 0.000000000000000000 ) ) ;
#362 = VERTEX_POINT ( 'NONE', #513 ) ;
#363 = AXIS2_PLACEMENT_3D ( 'NONE', #633, #772, #173 ) ;
#364 = FACE_OUTER_BOUND ( 'NONE', #340, .T. ) ;
#365 = DIRECTION ( 'NONE',  ( 1.000000000000000000, -5.071428571428575936E-16, 0.000000000000000000 ) ) ;
#366 =( GEOMETRIC_REPRESENTATION_CONTEXT ( 3 ) GLOBAL_UNCERTAINTY_ASSIGNED_CONTEXT ( ( #762 ) ) GLOBAL_UNIT_ASSIGNED_CONTEXT ( ( #244, #371, #285 ) ) REPRESENTATION_CONTEXT ( 'NONE', 'WORKASPACE' ) );
#367 = ORIENTED_EDGE ( 'NONE', *, *, #407, .T. ) ;
#368 = CYLINDRICAL_SURFACE ( 'NONE', #74, 2.499999999999860112 ) ;
#369 = AXIS2_PLACEMENT_3D ( 'NONE', #148, #271, #733 ) ;
#370 = DIRECTION ( 'NONE',  ( -1.000000000000000000, 0.000000000000000000, 0.000000000000000000 ) ) ;
#371 =( NAMED_UNIT ( * ) PLANE_ANGLE_UNIT ( ) SI_UNIT ( $, .RADIAN. ) );
#372 = EDGE_LOOP ( 'NONE', ( #245, #825 ) ) ;
#373 = CARTESIAN_POINT ( 'NONE',  ( -2.749999999999884093, 1.394642857142799834E-15, 3.367778697655079510E-16 ) ) ;
#374 = EDGE_CURVE ( 'NONE', #538, #362, #593, .T. ) ;
#375 = ORIENTED_EDGE ( 'NONE', *, *, #97, .F. ) ;
#376 = DIRECTION ( 'NONE',  ( 1.000000000000000000, -3.469446951953700964E-16, 0.000000000000000000 ) ) ;
#377 = ORIENTED_EDGE ( 'NONE', *, *, #447, .F. ) ;
#378 = CARTESIAN_POINT ( 'NONE',  ( 1.472178254999999557E-14, 29.02886699999995912, 0.000000000000000000 ) ) ;
#379 = CIRCLE ( 'NONE', #108, 4.920000000000163354 ) ;
#380 = EDGE_CURVE ( 'NONE', #79, #120, #209, .T. ) ;
#381 = EDGE_CURVE ( 'NONE', #99, #618, #435, .T. ) ;
#382 = AXIS2_PLACEMENT_3D ( 'NONE', #260, #847, #255 ) ;
#383 = ORIENTED_EDGE ( 'NONE', *, *, #693, .T. ) ;
#384 = DIRECTION ( 'NONE',  ( -0.7071067811865480168, -0.7071067811865470176, 8.659560562354935323E-17 ) ) ;
#385 = ORIENTED_EDGE ( 'NONE', *, *, #323, .T. ) ;
#386 = AXIS2_PLACEMENT_3D ( 'NONE', #151, #749, #19 ) ;
#387 = ADVANCED_FACE ( 'NONE', ( #422 ), #844, .T. ) ;
#388 = AXIS2_PLACEMENT_3D ( 'NONE', #586, #529, #265 ) ;
#389 = DIRECTION ( 'NONE',  ( 5.071428571428576922E-16, 1.000000000000000000, 0.000000000000000000 ) ) ;
#390 = CARTESIAN_POINT ( 'NONE',  ( 0.000000000000000000, 0.000000000000000000, 0.000000000000000000 ) ) ;
#391 = ORIENTED_EDGE ( 'NONE', *, *, #262, .T. ) ;
#392 = EDGE_CURVE ( 'NONE', #688, #713, #673, .T. ) ;
#393 = FACE_OUTER_BOUND ( 'NONE', #632, .T. ) ;
#394 = CYLINDRICAL_SURFACE ( 'NONE', #587, 4.999999999999933387 ) ;
#395 = VERTEX_POINT ( 'NONE', #176 ) ;
#396 = CARTESIAN_POINT ( 'NONE',  ( 4.999999999999933387, -2.535714285714254343E-15, 0.000000000000000000 ) ) ;
#397 = DIRECTION ( 'NONE',  ( -5.071428571428576922E-16, -1.000000000000000000, -0.000000000000000000 ) ) ;
#398 = ORIENTED_EDGE ( 'NONE', *, *, #719, .T. ) ;
#399 = EDGE_CURVE ( 'NONE', #123, #814, #644, .T. ) ;
#400 = ORIENTED_EDGE ( 'NONE', *, *, #241, .T. ) ;
#401 = CARTESIAN_POINT ( 'NONE',  ( 4.021018301728291218E-15, 7.928768482281129515, 0.000000000000000000 ) ) ;
#402 = FACE_OUTER_BOUND ( 'NONE', #526, .T. ) ;
#403 = ORIENTED_EDGE ( 'NONE', *, *, #380, .F. ) ;
#404 = CARTESIAN_POINT ( 'NONE',  ( 1.474514954580286030E-14, 29.02886699999993425, 0.000000000000000000 ) ) ;
#405 = DIRECTION ( 'NONE',  ( -1.000000000000000000, 5.071428571428576922E-16, 0.000000000000000000 ) ) ;
#406 = VECTOR ( 'NONE', #640, 1000.000000000000114 ) ;
#407 = EDGE_CURVE ( 'NONE', #250, #123, #810, .T. ) ;
#408 = CARTESIAN_POINT ( 'NONE',  ( -2.750000017484280690, 28.85566196971615938, 0.000000000000000000 ) ) ;
#409 = CARTESIAN_POINT ( 'NONE',  ( 2.130000000000000138E-14, 41.99999999999996447, 0.000000000000000000 ) ) ;
#410 = ORIENTED_EDGE ( 'NONE', *, *, #721, .F. ) ;
#411 = EDGE_CURVE ( 'NONE', #814, #718, #47, .T. ) ;
#412 = AXIS2_PLACEMENT_3D ( 'NONE', #805, #203, #729 ) ;
#413 = CARTESIAN_POINT ( 'NONE',  ( 1.470714285714285749E-14, 28.99999999999997513, 0.000000000000000000 ) ) ;
#414 = CARTESIAN_POINT ( 'NONE',  ( 2.999999999999897859, 28.99999999999997513, 3.673940397441916394E-16 ) ) ;
#415 = VECTOR ( 'NONE', #824, 1000.000000000000000 ) ;
#416 = ORIENTED_EDGE ( 'NONE', *, *, #35, .F. ) ;
#417 = FACE_OUTER_BOUND ( 'NONE', #770, .T. ) ;
#418 = CARTESIAN_POINT ( 'NONE',  ( -2.499999999999843681, 34.99999999999995026, 3.061616997868215015E-16 ) ) ;
#419 = ORIENTED_EDGE ( 'NONE', *, *, #230, .T. ) ;
#420 = DIRECTION ( 'NONE',  ( -5.071428571428576922E-16, -1.000000000000000000, -0.000000000000000000 ) ) ;
#421 = DIRECTION ( 'NONE',  ( -5.071428571428576922E-16, -1.000000000000000000, -0.000000000000000000 ) ) ;
#422 = FACE_OUTER_BOUND ( 'NONE', #651, .T. ) ;
#423 = VERTEX_POINT ( 'NONE', #357 ) ;
#424 = CIRCLE ( 'NONE', #312, 2.449999999999923350 ) ;
#425 = DIRECTION ( 'NONE',  ( -5.071428571428576922E-16, -1.000000000000000000, -0.000000000000000000 ) ) ;
#426 = DIRECTION ( 'NONE',  ( -0.8660254037844397068, 0.4999999999999980016, 0.000000000000000000 ) ) ;
#427 = CIRCLE ( 'NONE', #820, 0.4000000000000010214 ) ;
#428 = DIRECTION ( 'NONE',  ( 1.000000000000000000, -5.071428571428576922E-16, 0.000000000000000000 ) ) ;
#429 = CONICAL_SURFACE ( 'NONE', #39, 2.749999999999883205, 0.7853981633974485010 ) ;
#430 = ORIENTED_EDGE ( 'NONE', *, *, #308, .F. ) ;
#431 = COLOUR_RGB ( '',0.7921568627450980005, 0.8196078431372548767, 0.9333333333333333481 ) ;
#432 = CARTESIAN_POINT ( 'NONE',  ( 3.999999999997044142, 7.928768482281127739, 4.898587196585788013E-16 ) ) ;
#433 = DIRECTION ( 'NONE',  ( 1.000000000000000000, 0.000000000000000000, 0.000000000000000000 ) ) ;
#434 = AXIS2_PLACEMENT_3D ( 'NONE', #834, #296, #442 ) ;
#435 = LINE ( 'NONE', #85, #738 ) ;
#436 = DIRECTION ( 'NONE',  ( -5.071428571428576922E-16, -1.000000000000000000, -0.000000000000000000 ) ) ;
#437 = COLOUR_RGB ( '',0.7921568627450980005, 0.8196078431372548767, 0.9333333333333333481 ) ;
#438 = ORIENTED_EDGE ( 'NONE', *, *, #201, .T. ) ;
#439 = PRESENTATION_STYLE_ASSIGNMENT (( #562 ) ) ;
#440 = CARTESIAN_POINT ( 'NONE',  ( 1.470714285714285749E-14, 28.99999999999997513, 0.000000000000000000 ) ) ;
#441 = VERTEX_POINT ( 'NONE', #631 ) ;
#442 = DIRECTION ( 'NONE',  ( 1.000000000000000000, 0.000000000000000000, 0.000000000000000000 ) ) ;
#443 = MANIFOLD_SOLID_BREP ( '±ÛÂà1', #544 ) ;
#444 = EDGE_LOOP ( 'NONE', ( #577, #545, #462, #648 ) ) ;
#445 = EDGE_CURVE ( 'NONE', #538, #159, #307, .T. ) ;
#446 = DIRECTION ( 'NONE',  ( -0.3404697182689918611, 0.9402554817398478537, 0.000000000000000000 ) ) ;
#447 = EDGE_CURVE ( 'NONE', #140, #263, #117, .T. ) ;
#448 = EDGE_CURVE ( 'NONE', #558, #718, #32, .T. ) ;
#449 = UNCERTAINTY_MEASURE_WITH_UNIT (LENGTH_MEASURE( 1.000000000000000082E-05 ), #49, 'distance_accuracy_value', 'NONE');
#450 = ORIENTED_EDGE ( 'NONE', *, *, #392, .F. ) ;
#451 = CARTESIAN_POINT ( 'NONE',  ( 2.567156999999837375, 29.81715700000004077, 0.000000000000000000 ) ) ;
#452 = ORIENTED_EDGE ( 'NONE', *, *, #43, .F. ) ;
#453 = CARTESIAN_POINT ( 'NONE',  ( 0.000000000000000000, 0.000000000000000000, 0.000000000000000000 ) ) ;
#454 = TOROIDAL_SURFACE ( 'NONE', #67, 2.649999999999923528, 0.1999999650311921340 ) ;
#455 = CARTESIAN_POINT ( 'NONE',  ( -2.567156999999806732, 29.81715700000004077, 0.000000000000000000 ) ) ;
#456 = LINE ( 'NONE', #251, #745 ) ;
#457 = VECTOR ( 'NONE', #232, 1000.000000000000000 ) ;
#458 = AXIS2_PLACEMENT_3D ( 'NONE', #755, #154, #20 ) ;
#459 = CARTESIAN_POINT ( 'NONE',  ( 1.517883041479706208E-14, 29.53431457505076096, 0.000000000000000000 ) ) ;
#460 = ADVANCED_BREP_SHAPE_REPRESENTATION ( '99688-SI08-M05+S9MT0802-120', ( #443, #21 ), #366 ) ;
#461 = CARTESIAN_POINT ( 'NONE',  ( 4.021018301728291218E-15, 7.928768482281129515, 0.000000000000000000 ) ) ;
#462 = ORIENTED_EDGE ( 'NONE', *, *, #849, .T. ) ;
#463 = DIRECTION ( 'NONE',  ( 1.000000000000000000, -5.071428571428576922E-16, 0.000000000000000000 ) ) ;
#464 = CARTESIAN_POINT ( 'NONE',  ( 2.499999999999879208, 40.99999999999995737, 0.000000000000000000 ) ) ;
#465 = CIRCLE ( 'NONE', #34, 0.1999999650311923005 ) ;
#466 = ORIENTED_EDGE ( 'NONE', *, *, #766, .T. ) ;
#467 = ORIENTED_EDGE ( 'NONE', *, *, #445, .T. ) ;
#468 = CARTESIAN_POINT ( 'NONE',  ( 2.449999999999911360, -1.242499999999956391E-15, 0.000000000000000000 ) ) ;
#469 = CIRCLE ( 'NONE', #504, 2.099999999999898392 ) ;
#470 = CARTESIAN_POINT ( 'NONE',  ( 1.466657142857147323E-14, 28.92000000000005855, 0.000000000000000000 ) ) ;
#471 = ORIENTED_EDGE ( 'NONE', *, *, #43, .T. ) ;
#472 = CONICAL_SURFACE ( 'NONE', #734, 2.499999999999858336, 0.7853981633974380649 ) ;
#473 = CIRCLE ( 'NONE', #386, 2.499999999999858336 ) ;
#474 = FACE_OUTER_BOUND ( 'NONE', #511, .T. ) ;
#475 = DIRECTION ( 'NONE',  ( -5.071428571428576922E-16, -1.000000000000000000, -0.000000000000000000 ) ) ;
#476 = ADVANCED_FACE ( 'NONE', ( #507 ), #158, .T. ) ;
#477 = ADVANCED_FACE ( 'NONE', ( #90 ), #508, .T. ) ;
#478 = ORIENTED_EDGE ( 'NONE', *, *, #579, .F. ) ;
#479 = DIRECTION ( 'NONE',  ( 1.000000000000000000, -3.469446951953700964E-16, 0.000000000000000000 ) ) ;
#480 = DIRECTION ( 'NONE',  ( 1.000000000000000000, -5.071428571428576922E-16, 0.000000000000000000 ) ) ;
#481 = CONICAL_SURFACE ( 'NONE', #92, 2.999999999999885425, 1.047196131954551079 ) ;
#482 = PRODUCT_DEFINITION_SHAPE ( 'NONE', 'NONE',  #497 ) ;
#483 = VECTOR ( 'NONE', #356, 1000.000000000000000 ) ;
#484 = ORIENTED_EDGE ( 'NONE', *, *, #785, .F. ) ;
#485 = EDGE_CURVE ( 'NONE', #123, #250, #725, .T. ) ;
#486 = CARTESIAN_POINT ( 'NONE',  ( -2.499999999999837463, 40.99999999999995737, 3.061616997868210578E-16 ) ) ;
#487 = ADVANCED_FACE ( 'NONE', ( #704 ), #368, .T. ) ;
#488 = VERTEX_POINT ( 'NONE', #390 ) ;
#489 = EDGE_LOOP ( 'NONE', ( #672, #383, #450, #216 ) ) ;
#490 = ORIENTED_EDGE ( 'NONE', *, *, #201, .F. ) ;
#491 = AXIS2_PLACEMENT_3D ( 'NONE', #790, #716, #186 ) ;
#492 = CARTESIAN_POINT ( 'NONE',  ( 3.999999999997043254, 2.309401076756778970, 4.898587196585790971E-16 ) ) ;
#493 = CARTESIAN_POINT ( 'NONE',  ( -2.999999999999873435, 28.99999999999997513, 0.000000000000000000 ) ) ;
#494 = ORIENTED_EDGE ( 'NONE', *, *, #448, .F. ) ;
#495 = DIRECTION ( 'NONE',  ( -5.071428571428576922E-16, -1.000000000000000000, -0.000000000000000000 ) ) ;
#496 = DIRECTION ( 'NONE',  ( 1.224646799147353207E-16, -6.210708767104441324E-32, 1.000000000000000000 ) ) ;
#497 = PRODUCT_DEFINITION ( 'UNKNOWN', '', #789, #705 ) ;
#498 = SURFACE_SIDE_STYLE ('',( #105 ) ) ;
#499 = ORIENTED_EDGE ( 'NONE', *, *, #512, .T. ) ;
#500 = VECTOR ( 'NONE', #289, 1000.000000000000000 ) ;
#501 = CYLINDRICAL_SURFACE ( 'NONE', #161, 2.099999999999898836 ) ;
#502 = CARTESIAN_POINT ( 'NONE',  ( 0.000000000000000000, 0.000000000000000000, 0.000000000000000000 ) ) ;
#503 = ORIENTED_EDGE ( 'NONE', *, *, #68, .T. ) ;
#504 = AXIS2_PLACEMENT_3D ( 'NONE', #208, #601, #617 ) ;
#505 = LINE ( 'NONE', #432, #406 ) ;
#506 = VECTOR ( 'NONE', #722, 1000.000000000000000 ) ;
#507 = FACE_OUTER_BOUND ( 'NONE', #286, .T. ) ;
#508 = CONICAL_SURFACE ( 'NONE', #458, 2.567156999999821831, 0.7853981633978147636 ) ;
#509 = DIRECTION ( 'NONE',  ( -5.071428571428576922E-16, -1.000000000000000000, -0.000000000000000000 ) ) ;
#510 = DIRECTION ( 'NONE',  ( 0.000000000000000000, 0.000000000000000000, -1.000000000000000000 ) ) ;
#511 = EDGE_LOOP ( 'NONE', ( #398, #31, #490, #104 ) ) ;
#512 = EDGE_CURVE ( 'NONE', #658, #742, #345, .T. ) ;
#513 = CARTESIAN_POINT ( 'NONE',  ( 4.920000000000177565, 29.00000000000002842, 0.000000000000000000 ) ) ;
#514 = APPLICATION_PROTOCOL_DEFINITION ( 'draft international standard', 'automotive_design', 1998, #77 ) ;
#515 = EDGE_LOOP ( 'NONE', ( #550, #708, #210, #193 ) ) ;
#516 = DIRECTION ( 'NONE',  ( 0.7071067811865398012, -0.7071067811865551223, 0.000000000000000000 ) ) ;
#517 = AXIS2_PLACEMENT_3D ( 'NONE', #196, #122, #671 ) ;
#518 =( NAMED_UNIT ( * ) PLANE_ANGLE_UNIT ( ) SI_UNIT ( $, .RADIAN. ) );
#519 = ORIENTED_EDGE ( 'NONE', *, *, #521, .F. ) ;
#520 = LINE ( 'NONE', #589, #682 ) ;
#521 = EDGE_CURVE ( 'NONE', #713, #123, #520, .T. ) ;
#522 = APPLICATION_PROTOCOL_DEFINITION ( 'draft international standard', 'automotive_design', 1998, #172 ) ;
#523 = ORIENTED_EDGE ( 'NONE', *, *, #355, .T. ) ;
#524 = ORIENTED_EDGE ( 'NONE', *, *, #348, .F. ) ;
#525 = CARTESIAN_POINT ( 'NONE',  ( 1.512155819285717991E-14, 29.81715700000004077, 0.000000000000000000 ) ) ;
#526 = EDGE_LOOP ( 'NONE', ( #484, #679 ) ) ;
#527 = AXIS2_PLACEMENT_3D ( 'NONE', #581, #96, #706 ) ;
#528 = ORIENTED_EDGE ( 'NONE', *, *, #381, .F. ) ;
#529 = DIRECTION ( 'NONE',  ( -5.071428571428576922E-16, -1.000000000000000000, 0.000000000000000000 ) ) ;
#530 = CIRCLE ( 'NONE', #845, 1.499999999999877653 ) ;
#531 = VECTOR ( 'NONE', #107, 1000.000000000000000 ) ;
#532 = FACE_OUTER_BOUND ( 'NONE', #146, .T. ) ;
#533 = CARTESIAN_POINT ( 'NONE',  ( 1.470714285714285749E-14, 28.99999999999997513, 0.000000000000000000 ) ) ;
#534 = ADVANCED_FACE ( 'NONE', ( #649, #310 ), #599, .T. ) ;
#535 = DIRECTION ( 'NONE',  ( -5.071428571428576922E-16, -1.000000000000000000, -0.000000000000000000 ) ) ;
#536 = LINE ( 'NONE', #468, #612 ) ;
#537 = CARTESIAN_POINT ( 'NONE',  ( 1.171196260355225903E-15, 2.309401076756781190, 0.000000000000000000 ) ) ;
#538 = VERTEX_POINT ( 'NONE', #179 ) ;
#539 = AXIS2_PLACEMENT_3D ( 'NONE', #94, #436, #365 ) ;
#540 = ADVANCED_FACE ( 'NONE', ( #665 ), #714, .T. ) ;
#541 = CIRCLE ( 'NONE', #517, 2.749999999999884981 ) ;
#542 = FACE_OUTER_BOUND ( 'NONE', #197, .T. ) ;
#543 = EDGE_CURVE ( 'NONE', #318, #292, #864, .T. ) ;
#544 = CLOSED_SHELL ( 'NONE', ( #217, #626, #171, #856, #287, #699, #783, #540, #53, #64, #61, #629, #662, #387, #131, #726, #8, #603, #793, #854, #645, #327, #754, #476, #136, #477, #162, #167, #227, #534, #487, #132, #694 ) ) ;
#545 = ORIENTED_EDGE ( 'NONE', *, *, #262, .F. ) ;
#546 = DIRECTION ( 'NONE',  ( 1.000000000000000000, 0.000000000000000000, 0.000000000000000000 ) ) ;
#547 = DIRECTION ( 'NONE',  ( -5.071428571428576922E-16, -1.000000000000000000, -0.000000000000000000 ) ) ;
#548 = EDGE_CURVE ( 'NONE', #395, #263, #314, .T. ) ;
#549 = ORIENTED_EDGE ( 'NONE', *, *, #149, .F. ) ;
#550 = ORIENTED_EDGE ( 'NONE', *, *, #317, .F. ) ;
#551 = LINE ( 'NONE', #16, #185 ) ;
#552 = DIRECTION ( 'NONE',  ( -5.071428571428576922E-16, -1.000000000000000000, -0.000000000000000000 ) ) ;
#553 = AXIS2_PLACEMENT_3D ( 'NONE', #299, #509, #168 ) ;
#554 = MECHANICAL_DESIGN_GEOMETRIC_PRESENTATION_REPRESENTATION (  '', ( #48 ), #295 ) ;
#555 = ORIENTED_EDGE ( 'NONE', *, *, #876, .F. ) ;
#556 = DIRECTION ( 'NONE',  ( 1.000000000000000000, 0.000000000000000000, 0.000000000000000000 ) ) ;
#557 = CARTESIAN_POINT ( 'NONE',  ( 4.021018301728291218E-15, 7.928768482281129515, 0.000000000000000000 ) ) ;
#558 = VERTEX_POINT ( 'NONE', #451 ) ;
#559 = CIRCLE ( 'NONE', #724, 3.999999999997039701 ) ;
#560 = FACE_OUTER_BOUND ( 'NONE', #341, .T. ) ;
#561 = DIRECTION ( 'NONE',  ( 1.000000000000000000, -7.051721447059957677E-16, 0.000000000000000000 ) ) ;
#562 = SURFACE_STYLE_USAGE ( .BOTH. , #498 ) ;
#563 = EDGE_CURVE ( 'NONE', #618, #248, #319, .T. ) ;
#564 = FACE_OUTER_BOUND ( 'NONE', #711, .T. ) ;
#565 = DIRECTION ( 'NONE',  ( -5.071428571428576922E-16, -1.000000000000000000, -0.000000000000000000 ) ) ;
#566 = AXIS2_PLACEMENT_3D ( 'NONE', #771, #302, #27 ) ;
#567 = CARTESIAN_POINT ( 'NONE',  ( -4.999999999999976907, 28.92000000000005855, 6.123233995736755436E-16 ) ) ;
#568 = ORIENTED_EDGE ( 'NONE', *, *, #374, .T. ) ;
#569 = CYLINDRICAL_SURFACE ( 'NONE', #778, 2.099999999999898836 ) ;
#570 = SURFACE_STYLE_USAGE ( .BOTH. , #294 ) ;
#571 = EDGE_CURVE ( 'NONE', #602, #558, #833, .T. ) ;
#572 = DIRECTION ( 'NONE',  ( 1.000000000000000000, -5.071428571428577908E-16, 0.000000000000000000 ) ) ;
#573 = EDGE_LOOP ( 'NONE', ( #641, #687, #15, #56 ) ) ;
#574 = CONICAL_SURFACE ( 'NONE', #875, 2.567156999999821831, 0.7853981633978147636 ) ;
#575 = LINE ( 'NONE', #163, #457 ) ;
#576 = CARTESIAN_POINT ( 'NONE',  ( 2.999999999999900524, 28.99999999999997513, 3.673940397441919352E-16 ) ) ;
#577 = ORIENTED_EDGE ( 'NONE', *, *, #860, .F. ) ;
#578 =( NAMED_UNIT ( * ) SI_UNIT ( $, .STERADIAN. ) SOLID_ANGLE_UNIT ( ) );
#579 = EDGE_CURVE ( 'NONE', #819, #441, #424, .T. ) ;
#580 = AXIS2_PLACEMENT_3D ( 'NONE', #234, #166, #433 ) ;
#581 = CARTESIAN_POINT ( 'NONE',  ( 2.079285714285714586E-14, 40.99999999999995737, 0.000000000000000000 ) ) ;
#582 = DIRECTION ( 'NONE',  ( 1.000000000000000000, -6.938893903907241197E-16, 0.000000000000000000 ) ) ;
#583 = EDGE_LOOP ( 'NONE', ( #585, #466 ) ) ;
#584 = CARTESIAN_POINT ( 'NONE',  ( 2.567156999999836930, 29.81715700000004077, 3.143860602958503866E-16 ) ) ;
#585 = ORIENTED_EDGE ( 'NONE', *, *, #33, .T. ) ;
#586 = CARTESIAN_POINT ( 'NONE',  ( 2.099999999999916156, 34.99999999999995026, 0.000000000000000000 ) ) ;
#587 = AXIS2_PLACEMENT_3D ( 'NONE', #596, #862, #51 ) ;
#588 = ORIENTED_EDGE ( 'NONE', *, *, #606, .F. ) ;
#589 = CARTESIAN_POINT ( 'NONE',  ( -2.749999999999866329, 33.34999999999999432, 3.367778697655078031E-16 ) ) ;
#590 = VECTOR ( 'NONE', #54, 1000.000000000000000 ) ;
#591 = ORIENTED_EDGE ( 'NONE', *, *, #97, .T. ) ;
#592 = DIRECTION ( 'NONE',  ( -5.071428571428576922E-16, -1.000000000000000000, -0.000000000000000000 ) ) ;
#593 = CIRCLE ( 'NONE', #363, 4.920000000000163354 ) ;
#594 = VECTOR ( 'NONE', #156, 1000.000000000000000 ) ;
#595 = DIRECTION ( 'NONE',  ( -5.071428571428576922E-16, -1.000000000000000000, -0.000000000000000000 ) ) ;
#596 = CARTESIAN_POINT ( 'NONE',  ( 0.000000000000000000, 0.000000000000000000, 0.000000000000000000 ) ) ;
#597 = ORIENTED_EDGE ( 'NONE', *, *, #241, .F. ) ;
#598 = FACE_OUTER_BOUND ( 'NONE', #106, .T. ) ;
#599 = PLANE ( 'NONE',  #388 ) ;
#600 = CARTESIAN_POINT ( 'NONE',  ( 5.421565327993915192E-15, 10.69041050590348263, 0.000000000000000000 ) ) ;
#601 = DIRECTION ( 'NONE',  ( -5.071428571428576922E-16, -1.000000000000000000, -0.000000000000000000 ) ) ;
#602 = VERTEX_POINT ( 'NONE', #796 ) ;
#603 = ADVANCED_FACE ( 'NONE', ( #111 ), #691, .T. ) ;
#604 = EDGE_CURVE ( 'NONE', #266, #684, #728, .T. ) ;
#605 = CARTESIAN_POINT ( 'NONE',  ( 2.099999999999898836, -1.064999999999949858E-15, 0.000000000000000000 ) ) ;
#606 = EDGE_CURVE ( 'NONE', #279, #266, #456, .T. ) ;
#607 = FACE_OUTER_BOUND ( 'NONE', #660, .T. ) ;
#608 = AXIS2_PLACEMENT_3D ( 'NONE', #276, #80, #288 ) ;
#609 = CARTESIAN_POINT ( 'NONE',  ( 1.466657142857147323E-14, 28.92000000000005855, 0.000000000000000000 ) ) ;
#610 = CONICAL_SURFACE ( 'NONE', #231, 1732.050807568888331, 1.047197551196600518 ) ;
#611 = DIRECTION ( 'NONE',  ( -1.000000000000000000, 5.071428571428576922E-16, 0.000000000000000000 ) ) ;
#612 = VECTOR ( 'NONE', #198, 1000.000000000000000 ) ;
#613 = EDGE_LOOP ( 'NONE', ( #757, #751, #846, #184 ) ) ;
#614 = LINE ( 'NONE', #75, #623 ) ;
#615 = CARTESIAN_POINT ( 'NONE',  ( 1.512155819285717991E-14, 29.81715700000004077, 0.000000000000000000 ) ) ;
#616 = CARTESIAN_POINT ( 'NONE',  ( 1.171196260355225903E-15, 2.309401076756781190, 0.000000000000000000 ) ) ;
#617 = DIRECTION ( 'NONE',  ( 1.000000000000000000, 0.000000000000000000, 0.000000000000000000 ) ) ;
#618 = VERTEX_POINT ( 'NONE', #464 ) ;
#619 = DIRECTION ( 'NONE',  ( -5.071428571428576922E-16, -1.000000000000000000, -0.000000000000000000 ) ) ;
#620 = CARTESIAN_POINT ( 'NONE',  ( -2.449999999999908251, 29.02886699999995912, 3.184081687178162159E-16 ) ) ;
#621 = CONICAL_SURFACE ( 'NONE', #731, 3.999999999997039701, 0.3474164168819702803 ) ;
#622 = ORIENTED_EDGE ( 'NONE', *, *, #35, .T. ) ;
#623 = VECTOR ( 'NONE', #420, 1000.000000000000000 ) ;
#624 = CARTESIAN_POINT ( 'NONE',  ( 0.000000000000000000, 0.000000000000000000, 0.000000000000000000 ) ) ;
#625 = ORIENTED_EDGE ( 'NONE', *, *, #206, .F. ) ;
#626 = ADVANCED_FACE ( 'NONE', ( #867 ), #784, .T. ) ;
#627 = CARTESIAN_POINT ( 'NONE',  ( 0.000000000000000000, 0.000000000000000000, 0.000000000000000000 ) ) ;
#628 = CARTESIAN_POINT ( 'NONE',  ( -2.649999999999908873, 29.02886699999993425, 3.245314017740392285E-16 ) ) ;
#629 = ADVANCED_FACE ( 'NONE', ( #116 ), #394, .T. ) ;
#630 = CIRCLE ( 'NONE', #135, 2.449999999999923350 ) ;
#631 = CARTESIAN_POINT ( 'NONE',  ( 2.449999999999938005, 29.02886699999995912, 0.000000000000000000 ) ) ;
#632 = EDGE_LOOP ( 'NONE', ( #223, #467, #375, #336 ) ) ;
#633 = CARTESIAN_POINT ( 'NONE',  ( 1.470714285714288905E-14, 29.00000000000003197, 0.000000000000000000 ) ) ;
#634 = EDGE_CURVE ( 'NONE', #423, #395, #38, .T. ) ;
#635 = FACE_OUTER_BOUND ( 'NONE', #200, .T. ) ;
#636 = EDGE_LOOP ( 'NONE', ( #359, #779, #215, #774 ) ) ;
#637 = CARTESIAN_POINT ( 'NONE',  ( 0.000000000000000000, 0.000000000000000000, 0.000000000000000000 ) ) ;
#638 = AXIS2_PLACEMENT_3D ( 'NONE', #470, #750, #741 ) ;
#639 = EDGE_CURVE ( 'NONE', #718, #814, #541, .T. ) ;
#640 = DIRECTION ( 'NONE',  ( 0.3404697182689928603, 0.9402554817398475207, 4.169551506847226849E-17 ) ) ;
#641 = ORIENTED_EDGE ( 'NONE', *, *, #180, .T. ) ;
#642 =( LENGTH_UNIT ( ) NAMED_UNIT ( * ) SI_UNIT ( .MILLI., .METRE. ) );
#643 = ORIENTED_EDGE ( 'NONE', *, *, #2, .F. ) ;
#644 = LINE ( 'NONE', #373, #703 ) ;
#645 = ADVANCED_FACE ( 'NONE', ( #281, #144 ), #335, .T. ) ;
#646 = AXIS2_PLACEMENT_3D ( 'NONE', #139, #421, #300 ) ;
#647 = DIRECTION ( 'NONE',  ( 0.000000000000000000, 0.000000000000000000, 1.000000000000000000 ) ) ;
#648 = ORIENTED_EDGE ( 'NONE', *, *, #348, .T. ) ;
#649 = FACE_OUTER_BOUND ( 'NONE', #583, .T. ) ;
#650 = VECTOR ( 'NONE', #187, 1000.000000000000000 ) ;
#651 = EDGE_LOOP ( 'NONE', ( #350, #330, #30, #625 ) ) ;
#652 = CARTESIAN_POINT ( 'NONE',  ( -3.999999999997035260, 7.928768482281131291, 0.000000000000000000 ) ) ;
#653 = ORIENTED_EDGE ( 'NONE', *, *, #606, .T. ) ;
#654 = AXIS2_PLACEMENT_3D ( 'NONE', #627, #69, #213 ) ;
#655 = MECHANICAL_DESIGN_GEOMETRIC_PRESENTATION_REPRESENTATION (  '', ( #304 ), #238 ) ;
#656 = CARTESIAN_POINT ( 'NONE',  ( 2.750000017484310444, 28.85566196971615938, 3.520859558254613460E-16 ) ) ;
#657 = DIRECTION ( 'NONE',  ( 1.000000000000000000, 0.000000000000000000, 0.000000000000000000 ) ) ;
#658 = VERTEX_POINT ( 'NONE', #414 ) ;
#659 = CIRCLE ( 'NONE', #298, 2.099999999999898836 ) ;
#660 = EDGE_LOOP ( 'NONE', ( #858, #843, #816, #416 ) ) ;
#661 = DIRECTION ( 'NONE',  ( 1.000000000000000000, -6.938893903907241197E-16, 0.000000000000000000 ) ) ;
#662 = ADVANCED_FACE ( 'NONE', ( #675 ), #621, .T. ) ;
#663 = DIRECTION ( 'NONE',  ( -5.071428571428576922E-16, -1.000000000000000000, -0.000000000000000000 ) ) ;
#664 = DIRECTION ( 'NONE',  ( -1.000000000000000000, 5.127900497022804303E-16, 0.000000000000000000 ) ) ;
#665 = FACE_OUTER_BOUND ( 'NONE', #145, .T. ) ;
#666 = VERTEX_POINT ( 'NONE', #681 ) ;
#667 = AXIS2_PLACEMENT_3D ( 'NONE', #616, #9, #689 ) ;
#668 = ORIENTED_EDGE ( 'NONE', *, *, #445, .F. ) ;
#669 = EDGE_LOOP ( 'NONE', ( #430, #112, #800, #36 ) ) ;
#670 = CARTESIAN_POINT ( 'NONE',  ( -2.099999999999880629, 34.99999999999995026, 2.571758278209317711E-16 ) ) ;
#671 = DIRECTION ( 'NONE',  ( 1.000000000000000000, 0.000000000000000000, 0.000000000000000000 ) ) ;
#672 = ORIENTED_EDGE ( 'NONE', *, *, #380, .T. ) ;
#673 = CIRCLE ( 'NONE', #859, 2.099999999999898836 ) ;
#674 = DIRECTION ( 'NONE',  ( 1.000000000000000000, -5.071428571428577908E-16, 0.000000000000000000 ) ) ;
#675 = FACE_OUTER_BOUND ( 'NONE', #613, .T. ) ;
#676 = ORIENTED_EDGE ( 'NONE', *, *, #639, .F. ) ;
#677 = CARTESIAN_POINT ( 'NONE',  ( 2.749999999999900080, 33.34999999999999432, 0.000000000000000000 ) ) ;
#678 = CARTESIAN_POINT ( 'NONE',  ( 1.512155819285717991E-14, 29.81715700000004077, 0.000000000000000000 ) ) ;
#679 = ORIENTED_EDGE ( 'NONE', *, *, #320, .F. ) ;
#680 = DIRECTION ( 'NONE',  ( 0.7071067811858955388, -0.7071067811871994957, 0.000000000000000000 ) ) ;
#681 = CARTESIAN_POINT ( 'NONE',  ( -3.999999999997041478, 2.309401076756782967, 0.000000000000000000 ) ) ;
#682 = VECTOR ( 'NONE', #384, 1000.000000000000000 ) ;
#683 = ORIENTED_EDGE ( 'NONE', *, *, #571, .F. ) ;
#684 = VERTEX_POINT ( 'NONE', #418 ) ;
#685 = CARTESIAN_POINT ( 'NONE',  ( 2.499999999999879208, 34.99999999999995026, 0.000000000000000000 ) ) ;
#686 = FILL_AREA_STYLE ('',( #773 ) ) ;
#687 = ORIENTED_EDGE ( 'NONE', *, *, #604, .T. ) ;
#688 = VERTEX_POINT ( 'NONE', #65 ) ;
#689 = DIRECTION ( 'NONE',  ( 1.000000000000000000, -5.421010862431529583E-16, 0.000000000000000000 ) ) ;
#690 = FACE_OUTER_BOUND ( 'NONE', #636, .T. ) ;
#691 = CONICAL_SURFACE ( 'NONE', #272, 3.999999999997039701, 0.3474164168819702803 ) ;
#692 = CARTESIAN_POINT ( 'NONE',  ( 1.724285714285714773E-14, 33.99999999999997158, 0.000000000000000000 ) ) ;
#693 = EDGE_CURVE ( 'NONE', #120, #713, #277, .T. ) ;
#694 = ADVANCED_FACE ( 'NONE', ( #402 ), #76, .T. ) ;
#695 = LINE ( 'NONE', #138, #850 ) ;
#696 = CIRCLE ( 'NONE', #316, 4.999999999999874767 ) ;
#697 = CARTESIAN_POINT ( 'NONE',  ( 1.497811638571432969E-14, 29.53431400000005169, 0.000000000000000000 ) ) ;
#698 =( NAMED_UNIT ( * ) PLANE_ANGLE_UNIT ( ) SI_UNIT ( $, .RADIAN. ) );
#699 = ADVANCED_FACE ( 'NONE', ( #607 ), #574, .T. ) ;
#700 = CARTESIAN_POINT ( 'NONE',  ( 1.472178254999999557E-14, 29.02886699999995912, 0.000000000000000000 ) ) ;
#701 = CARTESIAN_POINT ( 'NONE',  ( -2.449999999999911360, 1.242499999999956391E-15, 3.000384657910906902E-16 ) ) ;
#702 = FACE_OUTER_BOUND ( 'NONE', #669, .T. ) ;
#703 = VECTOR ( 'NONE', #712, 1000.000000000000000 ) ;
#704 = FACE_OUTER_BOUND ( 'NONE', #301, .T. ) ;
#705 = PRODUCT_DEFINITION_CONTEXT ( 'detailed design', #172, 'design' ) ;
#706 = DIRECTION ( 'NONE',  ( 1.000000000000000000, 0.000000000000000000, 0.000000000000000000 ) ) ;
#707 = CARTESIAN_POINT ( 'NONE',  ( 1.691321428571429953E-14, 33.34999999999999432, 0.000000000000000000 ) ) ;
#708 = ORIENTED_EDGE ( 'NONE', *, *, #82, .F. ) ;
#709 = CARTESIAN_POINT ( 'NONE',  ( 5.421565327993915192E-15, 10.69041050590348263, 0.000000000000000000 ) ) ;
#710 = DIRECTION ( 'NONE',  ( 5.071428571428576922E-16, 1.000000000000000000, 0.000000000000000000 ) ) ;
#711 = EDGE_LOOP ( 'NONE', ( #367, #78, #676, #597 ) ) ;
#712 = DIRECTION ( 'NONE',  ( -5.071428571428576922E-16, -1.000000000000000000, -0.000000000000000000 ) ) ;
#713 = VERTEX_POINT ( 'NONE', #808 ) ;
#714 = CYLINDRICAL_SURFACE ( 'NONE', #382, 2.449999999999911360 ) ;
#715 = EDGE_CURVE ( 'NONE', #178, #666, #247, .T. ) ;
#716 = DIRECTION ( 'NONE',  ( 1.224646799147353207E-16, -6.210708767104441324E-32, 1.000000000000000000 ) ) ;
#717 = CARTESIAN_POINT ( 'NONE',  ( -2.499999999999860112, 1.267857142857073134E-15, 3.061616997868211564E-16 ) ) ;
#718 = VERTEX_POINT ( 'NONE', #58 ) ;
#719 = EDGE_CURVE ( 'NONE', #170, #59, #848, .T. ) ;
#720 = CIRCLE ( 'NONE', #339, 2.567156999999821831 ) ;
#721 = EDGE_CURVE ( 'NONE', #120, #79, #469, .T. ) ;
#722 = DIRECTION ( 'NONE',  ( -5.071428571428576922E-16, -1.000000000000000000, -0.000000000000000000 ) ) ;
#723 = DIRECTION ( 'NONE',  ( -0.7071067811865405783, -0.7071067811865544561, 8.659560562354844111E-17 ) ) ;
#724 = AXIS2_PLACEMENT_3D ( 'NONE', #401, #264, #735 ) ;
#725 = CIRCLE ( 'NONE', #580, 2.749999999999883205 ) ;
#726 = ADVANCED_FACE ( 'NONE', ( #214 ), #610, .T. ) ;
#727 = CARTESIAN_POINT ( 'NONE',  ( 1.774999999999999379E-14, 34.99999999999995026, 0.000000000000000000 ) ) ;
#728 = LINE ( 'NONE', #717, #650 ) ;
#729 = DIRECTION ( 'NONE',  ( 1.000000000000000000, -6.938893903907241197E-16, 0.000000000000000000 ) ) ;
#730 = DIRECTION ( 'NONE',  ( -5.071428571428576922E-16, -1.000000000000000000, -0.000000000000000000 ) ) ;
#731 = AXIS2_PLACEMENT_3D ( 'NONE', #557, #818, #746 ) ;
#732 = DIRECTION ( 'NONE',  ( -5.071428571428576922E-16, -1.000000000000000000, -0.000000000000000000 ) ) ;
#733 = DIRECTION ( 'NONE',  ( 1.000000000000000000, 0.000000000000000000, 0.000000000000000000 ) ) ;
#734 = AXIS2_PLACEMENT_3D ( 'NONE', #817, #619, #822 ) ;
#735 = DIRECTION ( 'NONE',  ( 1.000000000000000000, -4.336808689945227414E-16, 0.000000000000000000 ) ) ;
#736 = LINE ( 'NONE', #874, #113 ) ;
#737 = ORIENTED_EDGE ( 'NONE', *, *, #91, .F. ) ;
#738 = VECTOR ( 'NONE', #516, 1000.000000000000114 ) ;
#739 = CARTESIAN_POINT ( 'NONE',  ( 1.691321428571429953E-14, 33.34999999999999432, 0.000000000000000000 ) ) ;
#740 = PRODUCT ( '99688-SI08-M05+S9MT0802-120', '99688-SI08-M05+S9MT0802-120', '', ( #777 ) ) ;
#741 = DIRECTION ( 'NONE',  ( 1.000000000000000000, -6.938893903907241197E-16, 0.000000000000000000 ) ) ;
#742 = VERTEX_POINT ( 'NONE', #493 ) ;
#743 = ORIENTED_EDGE ( 'NONE', *, *, #485, .T. ) ;
#744 = CARTESIAN_POINT ( 'NONE',  ( 0.000000000000000000, 0.000000000000000000, 0.000000000000000000 ) ) ;
#745 = VECTOR ( 'NONE', #723, 1000.000000000000000 ) ;
#746 = DIRECTION ( 'NONE',  ( -1.000000000000000000, 4.336808689945227414E-16, 0.000000000000000000 ) ) ;
#747 = EDGE_LOOP ( 'NONE', ( #141, #46, #855 ) ) ;
#748 = EDGE_CURVE ( 'NONE', #159, #263, #736, .T. ) ;
#749 = DIRECTION ( 'NONE',  ( -5.071428571428576922E-16, -1.000000000000000000, -0.000000000000000000 ) ) ;
#750 = DIRECTION ( 'NONE',  ( -5.071428571428576922E-16, -1.000000000000000000, -0.000000000000000000 ) ) ;
#751 = ORIENTED_EDGE ( 'NONE', *, *, #317, .T. ) ;
#752 = DIRECTION ( 'NONE',  ( -5.071428571428576922E-16, -1.000000000000000000, -0.000000000000000000 ) ) ;
#753 = EDGE_CURVE ( 'NONE', #558, #602, #720, .T. ) ;
#754 = ADVANCED_FACE ( 'NONE', ( #199 ), #454, .F. ) ;
#755 = CARTESIAN_POINT ( 'NONE',  ( 1.512155819285717991E-14, 29.81715700000004077, 0.000000000000000000 ) ) ;
#756 = CIRCLE ( 'NONE', #326, 0.1999999650311923005 ) ;
#757 = ORIENTED_EDGE ( 'NONE', *, *, #634, .F. ) ;
#758 = EDGE_CURVE ( 'NONE', #159, #73, #189, .T. ) ;
#759 = DIRECTION ( 'NONE',  ( -5.071428571428576922E-16, -1.000000000000000000, -0.000000000000000000 ) ) ;
#760 = AXIS2_PLACEMENT_3D ( 'NONE', #347, #10, #332 ) ;
#761 = ORIENTED_EDGE ( 'NONE', *, *, #719, .F. ) ;
#762 = UNCERTAINTY_MEASURE_WITH_UNIT (LENGTH_MEASURE( 1.000000000000000082E-05 ), #244, 'distance_accuracy_value', 'NONE');
#763 = TOROIDAL_SURFACE ( 'NONE', #1, 2.649999999999923528, 0.1999999650311921340 ) ;
#764 = DIRECTION ( 'NONE',  ( 1.000000000000000000, 0.000000000000000000, 0.000000000000000000 ) ) ;
#765 = TOROIDAL_SURFACE ( 'NONE', #130, 2.849999999999488054, 0.4000000000000011324 ) ;
#766 = EDGE_CURVE ( 'NONE', #684, #248, #261, .T. ) ;
#767 = DIRECTION ( 'NONE',  ( 0.7071067811868070319, 0.7071067811862881136, 8.659560562358106791E-17 ) ) ;
#768 = DIRECTION ( 'NONE',  ( 1.000000000000000000, 0.000000000000000000, 0.000000000000000000 ) ) ;
#769 = DIRECTION ( 'NONE',  ( -5.071428571428576922E-16, -1.000000000000000000, -0.000000000000000000 ) ) ;
#770 = EDGE_LOOP ( 'NONE', ( #40, #205, #503, #792 ) ) ;
#771 = CARTESIAN_POINT ( 'NONE',  ( 1.521428571428571617E-14, 29.99999999999997158, 0.000000000000000000 ) ) ;
#772 = DIRECTION ( 'NONE',  ( -5.071428571428576922E-16, -1.000000000000000000, -0.000000000000000000 ) ) ;
#773 = FILL_AREA_STYLE_COLOUR ( '', #437 ) ;
#774 = ORIENTED_EDGE ( 'NONE', *, *, #246, .F. ) ;
#775 = DIRECTION ( 'NONE',  ( -5.071428571428576922E-16, -1.000000000000000000, -0.000000000000000000 ) ) ;
#776 = AXIS2_PLACEMENT_3D ( 'NONE', #37, #249, #780 ) ;
#777 = PRODUCT_CONTEXT ( 'NONE', #77, 'mechanical' ) ;
#778 = AXIS2_PLACEMENT_3D ( 'NONE', #13, #425, #207 ) ;
#779 = ORIENTED_EDGE ( 'NONE', *, *, #521, .T. ) ;
#780 = DIRECTION ( 'NONE',  ( 1.000000000000000000, 0.000000000000000000, 0.000000000000000000 ) ) ;
#781 = SHAPE_DEFINITION_REPRESENTATION ( #482, #460 ) ;
#782 = ORIENTED_EDGE ( 'NONE', *, *, #543, .T. ) ;
#783 = ADVANCED_FACE ( 'NONE', ( #542 ), #226, .F. ) ;
#784 = CYLINDRICAL_SURFACE ( 'NONE', #12, 2.499999999999860112 ) ;
#785 = EDGE_CURVE ( 'NONE', #99, #279, #530, .T. ) ;
#786 = ORIENTED_EDGE ( 'NONE', *, *, #766, .F. ) ;
#787 = AXIS2_PLACEMENT_3D ( 'NONE', #831, #23, #768 ) ;
#788 = EDGE_CURVE ( 'NONE', #318, #819, #174, .T. ) ;
#789 = PRODUCT_DEFINITION_FORMATION_WITH_SPECIFIED_SOURCE ( 'ANY', '', #740, .NOT_KNOWN. ) ;
#790 = CARTESIAN_POINT ( 'NONE',  ( -2.849999999999472955, 29.53431457505076096, 3.490243377569329410E-16 ) ) ;
#791 = DIRECTION ( 'NONE',  ( 1.000000000000000000, 0.000000000000000000, 0.000000000000000000 ) ) ;
#792 = ORIENTED_EDGE ( 'NONE', *, *, #290, .F. ) ;
#793 = ADVANCED_FACE ( 'NONE', ( #635 ), #352, .T. ) ;
#794 = AXIS2_PLACEMENT_3D ( 'NONE', #329, #535, #799 ) ;
#795 = CARTESIAN_POINT ( 'NONE',  ( 5.071428571428576938E-13, 1000.000000000000000, 0.000000000000000000 ) ) ;
#796 = CARTESIAN_POINT ( 'NONE',  ( -2.567156999999807176, 29.81715700000004077, 3.143860602958504359E-16 ) ) ;
#797 = AXIS2_PLACEMENT_3D ( 'NONE', #727, #44, #546 ) ;
#798 = LINE ( 'NONE', #396, #590 ) ;
#799 = DIRECTION ( 'NONE',  ( 1.000000000000000000, -4.336808689945227414E-16, 0.000000000000000000 ) ) ;
#800 = ORIENTED_EDGE ( 'NONE', *, *, #206, .T. ) ;
#801 = LINE ( 'NONE', #605, #506 ) ;
#802 = EDGE_CURVE ( 'NONE', #488, #666, #165, .T. ) ;
#803 = DIRECTION ( 'NONE',  ( -5.071428571428576922E-16, -1.000000000000000000, -0.000000000000000000 ) ) ;
#804 = ORIENTED_EDGE ( 'NONE', *, *, #876, .T. ) ;
#805 = CARTESIAN_POINT ( 'NONE',  ( 1.466657142857147323E-14, 28.92000000000005855, 0.000000000000000000 ) ) ;
#806 = AXIS2_PLACEMENT_3D ( 'NONE', #807, #866, #331 ) ;
#807 = CARTESIAN_POINT ( 'NONE',  ( 2.079285714285714586E-14, 40.99999999999995737, 0.000000000000000000 ) ) ;
#808 = CARTESIAN_POINT ( 'NONE',  ( -2.099999999999881517, 33.99999999999997158, 2.969768487932197871E-16 ) ) ;
#809 = AXIS2_PLACEMENT_3D ( 'NONE', #744, #759, #143 ) ;
#810 = CIRCLE ( 'NONE', #434, 2.749999999999883205 ) ;
#811 = CARTESIAN_POINT ( 'NONE',  ( -4.999999999999869438, 10.69041050590348618, 0.000000000000000000 ) ) ;
#812 = DIRECTION ( 'NONE',  ( 5.071428571428576922E-16, 1.000000000000000000, 0.000000000000000000 ) ) ;
#813 = CONICAL_SURFACE ( 'NONE', #62, 4.999999999999991118, 0.7853981633965267939 ) ;
#814 = VERTEX_POINT ( 'NONE', #837 ) ;
#815 = EDGE_CURVE ( 'NONE', #59, #658, #24, .T. ) ;
#816 = ORIENTED_EDGE ( 'NONE', *, *, #639, .T. ) ;
#817 = CARTESIAN_POINT ( 'NONE',  ( 2.079285714285714586E-14, 40.99999999999995737, 0.000000000000000000 ) ) ;
#818 = DIRECTION ( 'NONE',  ( 5.071428571428576922E-16, 1.000000000000000000, 0.000000000000000000 ) ) ;
#819 = VERTEX_POINT ( 'NONE', #620 ) ;
#820 = AXIS2_PLACEMENT_3D ( 'NONE', #328, #861, #334 ) ;
#821 = CIRCLE ( 'NONE', #667, 3.999999999997043254 ) ;
#822 = DIRECTION ( 'NONE',  ( 1.000000000000000000, 0.000000000000000000, 0.000000000000000000 ) ) ;
#823 = SURFACE_STYLE_FILL_AREA ( #686 ) ;
#824 = DIRECTION ( 'NONE',  ( -0.7071067811858962049, -0.7071067811871988296, 8.659560562346953037E-17 ) ) ;
#825 = ORIENTED_EDGE ( 'NONE', *, *, #374, .F. ) ;
#826 = DIRECTION ( 'NONE',  ( 1.000000000000000000, 0.000000000000000000, 0.000000000000000000 ) ) ;
#827 = DIRECTION ( 'NONE',  ( -5.071428571428576922E-16, -1.000000000000000000, -0.000000000000000000 ) ) ;
#828 = FILL_AREA_STYLE ('',( #291 ) ) ;
#829 = PRESENTATION_LAYER_ASSIGNMENT (  '', '', ( #48 ) ) ;
#830 = ORIENTED_EDGE ( 'NONE', *, *, #411, .F. ) ;
#831 = CARTESIAN_POINT ( 'NONE',  ( 2.130000000000000138E-14, 41.99999999999996447, 0.000000000000000000 ) ) ;
#832 = PRESENTATION_STYLE_ASSIGNMENT (( #570 ) ) ;
#833 = CIRCLE ( 'NONE', #283, 2.567156999999821831 ) ;
#834 = CARTESIAN_POINT ( 'NONE',  ( 1.691321428571429953E-14, 33.34999999999999432, 0.000000000000000000 ) ) ;
#835 = CONICAL_SURFACE ( 'NONE', #190, 2.999999999999885425, 1.047196131954551079 ) ;
#836 = LINE ( 'NONE', #243, #253 ) ;
#837 = CARTESIAN_POINT ( 'NONE',  ( -2.749999999999871214, 29.99999999999997158, 0.000000000000000000 ) ) ;
#838 = EDGE_LOOP ( 'NONE', ( #588, #182, #278, #349 ) ) ;
#839 = DIRECTION ( 'NONE',  ( -5.071428571428576922E-16, -1.000000000000000000, -0.000000000000000000 ) ) ;
#840 = AXIS2_PLACEMENT_3D ( 'NONE', #709, #228, #376 ) ;
#841 = DIRECTION ( 'NONE',  ( 1.000000000000000000, 0.000000000000000000, 0.000000000000000000 ) ) ;
#842 = CARTESIAN_POINT ( 'NONE',  ( 1.470714285714288905E-14, 29.00000000000003197, 0.000000000000000000 ) ) ;
#843 = ORIENTED_EDGE ( 'NONE', *, *, #448, .T. ) ;
#844 = CYLINDRICAL_SURFACE ( 'NONE', #181, 3.999999999997041478 ) ;
#845 = AXIS2_PLACEMENT_3D ( 'NONE', #204, #169, #361 ) ;
#846 = ORIENTED_EDGE ( 'NONE', *, *, #447, .T. ) ;
#847 = DIRECTION ( 'NONE',  ( -5.071428571428576922E-16, -1.000000000000000000, -0.000000000000000000 ) ) ;
#848 = CIRCLE ( 'NONE', #760, 2.750000017484295345 ) ;
#849 = EDGE_CURVE ( 'NONE', #59, #441, #756, .T. ) ;
#850 = VECTOR ( 'NONE', #680, 1000.000000000000000 ) ;
#851 = ORIENTED_EDGE ( 'NONE', *, *, #785, .T. ) ;
#852 = DIRECTION ( 'NONE',  ( 5.071428571428576922E-16, 1.000000000000000000, 0.000000000000000000 ) ) ;
#853 = ORIENTED_EDGE ( 'NONE', *, *, #149, .T. ) ;
#854 = ADVANCED_FACE ( 'NONE', ( #233 ), #813, .T. ) ;
#855 = ORIENTED_EDGE ( 'NONE', *, *, #235, .T. ) ;
#856 = ADVANCED_FACE ( 'NONE', ( #690 ), #311, .T. ) ;
#857 = CARTESIAN_POINT ( 'NONE',  ( 2.499999999999860112, -1.267857142857073134E-15, 0.000000000000000000 ) ) ;
#858 = ORIENTED_EDGE ( 'NONE', *, *, #753, .F. ) ;
#859 = AXIS2_PLACEMENT_3D ( 'NONE', #692, #775, #242 ) ;
#860 = EDGE_CURVE ( 'NONE', #170, #819, #465, .T. ) ;
#861 = DIRECTION ( 'NONE',  ( 0.000000000000000000, 0.000000000000000000, -1.000000000000000000 ) ) ;
#862 = DIRECTION ( 'NONE',  ( -5.071428571428576922E-16, -1.000000000000000000, -0.000000000000000000 ) ) ;
#863 = ORIENTED_EDGE ( 'NONE', *, *, #802, .F. ) ;
#864 = CIRCLE ( 'NONE', #776, 2.449999999999900258 ) ;
#865 = ORIENTED_EDGE ( 'NONE', *, *, #860, .T. ) ;
#866 = DIRECTION ( 'NONE',  ( -5.071428571428576922E-16, -1.000000000000000000, -0.000000000000000000 ) ) ;
#867 = FACE_OUTER_BOUND ( 'NONE', #573, .T. ) ;
#868 = ORIENTED_EDGE ( 'NONE', *, *, #571, .T. ) ;
#869 = CARTESIAN_POINT ( 'NONE',  ( -4.999999999999976019, 28.92000000000005855, 6.123233995736749519E-16 ) ) ;
#870 = CARTESIAN_POINT ( 'NONE',  ( 2.999999999999900524, 29.00000000000000000, 0.000000000000000000 ) ) ;
#871 = EDGE_CURVE ( 'NONE', #362, #538, #379, .T. ) ;
#872 = AXIS2_PLACEMENT_3D ( 'NONE', #697, #827, #225 ) ;
#873 = DIRECTION ( 'NONE',  ( -0.7071067811868063657, 0.7071067811862886687, 0.000000000000000000 ) ) ;
#874 = CARTESIAN_POINT ( 'NONE',  ( -4.999999999999933387, 2.535714285714254343E-15, 6.123233995736684438E-16 ) ) ;
#875 = AXIS2_PLACEMENT_3D ( 'NONE', #678, #134, #878 ) ;
#876 = EDGE_CURVE ( 'NONE', #292, #318, #137, .T. ) ;
#877 = DIRECTION ( 'NONE',  ( 1.000000000000000000, -5.071428571428576922E-16, 0.000000000000000000 ) ) ;
#878 = DIRECTION ( 'NONE',  ( -1.000000000000000000, 0.000000000000000000, 0.000000000000000000 ) ) ;
ENDSEC;
END-ISO-10303-21;
