ISO-10303-21;
HEADER;
FILE_DESCRIPTION (( 'STEP AP214' ),
    '1' );
FILE_NAME ('99688-SI20-M12+S9MT2004-142.STEP',
    '2023-09-26T06:33:41',
    ( '' ),
    ( '' ),
    'SwSTEP 2.0',
    'SolidWorks 2020',
    '' );
FILE_SCHEMA (( 'AUTOMOTIVE_DESIGN' ));
ENDSEC;

DATA;
#1 = AXIS2_PLACEMENT_3D ( 'NONE', #540, #697, #151 ) ;
#2 = DIRECTION ( 'NONE',  ( 8.607594936709185439E-17, 1.000000000000000000, -0.000000000000000000 ) ) ;
#3 = FACE_OUTER_BOUND ( 'NONE', #955, .T. ) ;
#4 = LINE ( 'NONE', #369, #374 ) ;
#5 = ADVANCED_FACE ( 'NONE', ( #357 ), #208, .T. ) ;
#6 = DIRECTION ( 'NONE',  ( -0.7071067811864648611, -0.7071067811866301733, 8.659560562353918432E-17 ) ) ;
#7 = DIRECTION ( 'NONE',  ( 8.607594936709185439E-17, 1.000000000000000000, -0.000000000000000000 ) ) ;
#8 = DIRECTION ( 'NONE',  ( -1.000000000000000000, 0.000000000000000000, 0.000000000000000000 ) ) ;
#9 = CONICAL_SURFACE ( 'NONE', #273, 10.00000000000028777, 0.4205343352856598105 ) ;
#10 = FACE_OUTER_BOUND ( 'NONE', #792, .T. ) ;
#11 = AXIS2_PLACEMENT_3D ( 'NONE', #588, #435, #127 ) ;
#12 = CARTESIAN_POINT ( 'NONE',  ( 6.841772151898724646E-15, 78.99999999999805311, 0.000000000000000000 ) ) ;
#13 = VERTEX_POINT ( 'NONE', #835 ) ;
#14 = ORIENTED_EDGE ( 'NONE', *, *, #846, .F. ) ;
#15 = CIRCLE ( 'NONE', #404, 12.49999999999998579 ) ;
#16 = DIRECTION ( 'NONE',  ( 8.607594936709185439E-17, 1.000000000000000000, -0.000000000000000000 ) ) ;
#17 = EDGE_CURVE ( 'NONE', #270, #574, #274, .T. ) ;
#18 = AXIS2_PLACEMENT_3D ( 'NONE', #699, #373, #991 ) ;
#19 = CARTESIAN_POINT ( 'NONE',  ( 5.791510944350692473E-15, 66.79843597113166709, 0.000000000000000000 ) ) ;
#20 = CARTESIAN_POINT ( 'NONE',  ( 0.000000000000000000, 0.000000000000000000, 0.000000000000000000 ) ) ;
#21 = ORIENTED_EDGE ( 'NONE', *, *, #322, .F. ) ;
#22 = AXIS2_PLACEMENT_3D ( 'NONE', #654, #57, #659 ) ;
#23 = ORIENTED_EDGE ( 'NONE', *, *, #17, .T. ) ;
#24 = CARTESIAN_POINT ( 'NONE',  ( 5.204170427930421283E-15, 66.79843597113166709, 0.000000000000000000 ) ) ;
#25 = CYLINDRICAL_SURFACE ( 'NONE', #568, 5.000000000000004441 ) ;
#26 = ORIENTED_EDGE ( 'NONE', *, *, #814, .T. ) ;
#27 = CARTESIAN_POINT ( 'NONE',  ( 5.949999999999993960, 81.99999999999806732, 7.286648454926736188E-16 ) ) ;
#28 = ADVANCED_FACE ( 'NONE', ( #43 ), #687, .F. ) ;
#29 = CYLINDRICAL_SURFACE ( 'NONE', #825, 5.949999999999987743 ) ;
#30 = VECTOR ( 'NONE', #576, 1000.000000000000000 ) ;
#31 = ORIENTED_EDGE ( 'NONE', *, *, #466, .T. ) ;
#32 = DIRECTION ( 'NONE',  ( 8.607594936709185439E-17, 1.000000000000000000, -0.000000000000000000 ) ) ;
#33 = PRESENTATION_LAYER_ASSIGNMENT (  '', '', ( #681 ) ) ;
#34 = CARTESIAN_POINT ( 'NONE',  ( 7.000000000000162537, 59.99999999999818812, 8.572527594031665475E-16 ) ) ;
#35 = EDGE_CURVE ( 'NONE', #98, #433, #509, .T. ) ;
#36 = ORIENTED_EDGE ( 'NONE', *, *, #452, .T. ) ;
#37 = CIRCLE ( 'NONE', #165, 6.000000000000000000 ) ;
#38 = ORIENTED_EDGE ( 'NONE', *, *, #684, .F. ) ;
#39 = FACE_OUTER_BOUND ( 'NONE', #883, .T. ) ;
#40 = EDGE_CURVE ( 'NONE', #171, #574, #718, .T. ) ;
#41 = CARTESIAN_POINT ( 'NONE',  ( 1.808727538050647155E-15, 20.52786404500053763, 0.000000000000000000 ) ) ;
#42 = APPLICATION_PROTOCOL_DEFINITION ( 'draft international standard', 'automotive_design', 1998, #519 ) ;
#43 = FACE_OUTER_BOUND ( 'NONE', #605, .T. ) ;
#44 = VERTEX_POINT ( 'NONE', #62 ) ;
#45 = DIRECTION ( 'NONE',  ( 8.607594936709185439E-17, 1.000000000000000000, -0.000000000000000000 ) ) ;
#46 = AXIS2_PLACEMENT_3D ( 'NONE', #988, #604, #760 ) ;
#47 = EDGE_CURVE ( 'NONE', #378, #422, #125, .T. ) ;
#48 = DIRECTION ( 'NONE',  ( 0.7071067811865265895, -0.7071067811865684449, 0.000000000000000000 ) ) ;
#49 = DIRECTION ( 'NONE',  ( 8.607594936709185439E-17, 1.000000000000000000, -0.000000000000000000 ) ) ;
#50 = AXIS2_PLACEMENT_3D ( 'NONE', #803, #965, #663 ) ;
#51 = ORIENTED_EDGE ( 'NONE', *, *, #253, .T. ) ;
#52 = DIRECTION ( 'NONE',  ( -1.000000000000000000, 0.000000000000000000, 0.000000000000000000 ) ) ;
#53 = CARTESIAN_POINT ( 'NONE',  ( -5.249999999999990230, 67.99999999999812417, 0.000000000000000000 ) ) ;
#54 = EDGE_CURVE ( 'NONE', #538, #155, #426, .T. ) ;
#55 = VERTEX_POINT ( 'NONE', #911 ) ;
#56 = ORIENTED_EDGE ( 'NONE', *, *, #258, .T. ) ;
#57 = DIRECTION ( 'NONE',  ( 8.607594936709185439E-17, 1.000000000000000000, -0.000000000000000000 ) ) ;
#58 = CARTESIAN_POINT ( 'NONE',  ( 8.637594936709185068E-14, 1003.000000000001023, 0.000000000000000000 ) ) ;
#59 = EDGE_LOOP ( 'NONE', ( #203, #651, #523, #984 ) ) ;
#60 = EDGE_CURVE ( 'NONE', #89, #336, #363, .T. ) ;
#61 = DIRECTION ( 'NONE',  ( 8.607594936709185439E-17, 1.000000000000000000, -0.000000000000000000 ) ) ;
#62 = CARTESIAN_POINT ( 'NONE',  ( 5.949999999999973532, 60.53431457504895263, 7.286648454926725341E-16 ) ) ;
#63 = ORIENTED_EDGE ( 'NONE', *, *, #747, .T. ) ;
#64 = CIRCLE ( 'NONE', #79, 5.000000000000009770 ) ;
#65 = DIRECTION ( 'NONE',  ( 1.000000000000000000, 0.000000000000000000, 0.000000000000000000 ) ) ;
#66 = AXIS2_PLACEMENT_3D ( 'NONE', #390, #781, #922 ) ;
#67 = FACE_OUTER_BOUND ( 'NONE', #898, .T. ) ;
#68 = EDGE_CURVE ( 'NONE', #171, #828, #969, .T. ) ;
#69 = CONICAL_SURFACE ( 'NONE', #552, 10.00000000000028777, 0.4205343352856598105 ) ;
#70 = DIRECTION ( 'NONE',  ( -1.000000000000000000, 0.000000000000000000, 0.000000000000000000 ) ) ;
#71 = DIRECTION ( 'NONE',  ( -1.000000000000000000, 8.607594936709185439E-17, 0.000000000000000000 ) ) ;
#72 = EDGE_LOOP ( 'NONE', ( #642, #513, #26, #877 ) ) ;
#73 = AXIS2_PLACEMENT_3D ( 'NONE', #118, #905, #735 ) ;
#74 = FACE_OUTER_BOUND ( 'NONE', #411, .T. ) ;
#75 = CARTESIAN_POINT ( 'NONE',  ( 7.100000000000000986E-15, 81.99999999999806732, 0.000000000000000000 ) ) ;
#76 = ADVANCED_FACE ( 'NONE', ( #983 ), #655, .T. ) ;
#77 = LINE ( 'NONE', #774, #629 ) ;
#78 = VECTOR ( 'NONE', #130, 1000.000000000000114 ) ;
#79 = AXIS2_PLACEMENT_3D ( 'NONE', #161, #582, #182 ) ;
#80 = CARTESIAN_POINT ( 'NONE',  ( 5.894936708860720078E-15, 67.99999999999812417, 0.000000000000000000 ) ) ;
#81 = DIRECTION ( 'NONE',  ( -1.000000000000000000, 0.000000000000000000, 0.000000000000000000 ) ) ;
#82 = CARTESIAN_POINT ( 'NONE',  ( -12.49999999999998046, 59.79999999999815685, 1.530808498934189746E-15 ) ) ;
#83 = CYLINDRICAL_SURFACE ( 'NONE', #340, 12.50000000000002132 ) ;
#84 = FACE_OUTER_BOUND ( 'NONE', #623, .T. ) ;
#85 = ORIENTED_EDGE ( 'NONE', *, *, #882, .F. ) ;
#86 = CARTESIAN_POINT ( 'NONE',  ( 5.000000000000007105, 67.41905249806704603, 6.123233995736770227E-16 ) ) ;
#87 = VERTEX_POINT ( 'NONE', #974 ) ;
#88 = AXIS2_PLACEMENT_3D ( 'NONE', #862, #329, #396 ) ;
#89 = VERTEX_POINT ( 'NONE', #902 ) ;
#90 = ADVANCED_FACE ( 'NONE', ( #286 ), #976, .F. ) ;
#91 = CARTESIAN_POINT ( 'NONE',  ( 5.189113924050570114E-15, 59.79999999999815685, 0.000000000000000000 ) ) ;
#92 = DIRECTION ( 'NONE',  ( -1.224646799147353207E-16, 1.054126358759786809E-32, 1.000000000000000000 ) ) ;
#93 = EDGE_LOOP ( 'NONE', ( #580, #783, #362, #248 ) ) ;
#94 = ORIENTED_EDGE ( 'NONE', *, *, #948, .T. ) ;
#95 = ADVANCED_FACE ( 'NONE', ( #361 ), #149, .T. ) ;
#96 = DIRECTION ( 'NONE',  ( 1.000000000000000000, 0.000000000000000000, 1.224646799147351235E-16 ) ) ;
#97 = SURFACE_STYLE_USAGE ( .BOTH. , #108 ) ;
#98 = VERTEX_POINT ( 'NONE', #443 ) ;
#99 = ORIENTED_EDGE ( 'NONE', *, *, #212, .F. ) ;
#100 = CARTESIAN_POINT ( 'NONE',  ( 7.100000000000002563E-15, 81.99999999999806732, 0.000000000000000000 ) ) ;
#101 = APPLICATION_CONTEXT ( 'automotive_design' ) ;
#102 = DIRECTION ( 'NONE',  ( -1.000000000000000000, 0.000000000000000000, 0.000000000000000000 ) ) ;
#103 = VERTEX_POINT ( 'NONE', #154 ) ;
#104 = EDGE_LOOP ( 'NONE', ( #289, #863, #761, #36 ) ) ;
#105 = CARTESIAN_POINT ( 'NONE',  ( 2.999999999999999937E-16, 3.000000000001032063, 0.000000000000000000 ) ) ;
#106 = DIRECTION ( 'NONE',  ( 1.000000000000000000, 0.000000000000000000, 0.000000000000000000 ) ) ;
#107 = AXIS2_PLACEMENT_3D ( 'NONE', #250, #852, #553 ) ;
#108 = SURFACE_SIDE_STYLE ('',( #195 ) ) ;
#109 = ORIENTED_EDGE ( 'NONE', *, *, #54, .F. ) ;
#110 = CIRCLE ( 'NONE', #451, 5.950000000000006395 ) ;
#111 = EDGE_LOOP ( 'NONE', ( #133, #845, #587, #489 ) ) ;
#112 = EDGE_CURVE ( 'NONE', #13, #517, #239, .T. ) ;
#113 = CARTESIAN_POINT ( 'NONE',  ( -12.50000000000001421, 81.99999999999806732, 0.000000000000000000 ) ) ;
#114 = UNCERTAINTY_MEASURE_WITH_UNIT (LENGTH_MEASURE( 1.000000000000000082E-05 ), #730, 'distance_accuracy_value', 'NONE');
#115 = CIRCLE ( 'NONE', #776, 5.749999999999974243 ) ;
#116 = LINE ( 'NONE', #505, #288 ) ;
#117 = AXIS2_PLACEMENT_3D ( 'NONE', #147, #525, #458 ) ;
#118 = CARTESIAN_POINT ( 'NONE',  ( 7.100000000000002563E-15, 81.99999999999806732, 0.000000000000000000 ) ) ;
#119 = CIRCLE ( 'NONE', #251, 5.949999999999968203 ) ;
#120 = ORIENTED_EDGE ( 'NONE', *, *, #854, .T. ) ;
#121 = DIRECTION ( 'NONE',  ( 1.000000000000000000, 0.000000000000000000, 1.224646799147352961E-16 ) ) ;
#122 = EDGE_CURVE ( 'NONE', #13, #507, #537, .T. ) ;
#123 = CLOSED_SHELL ( 'NONE', ( #763, #5, #437, #925, #918, #869, #975, #942, #564, #76, #95, #407, #278, #174, #480, #608, #678, #223, #375, #502, #143, #510, #90, #892, #579, #28, #304, #592, #533, #309, #392, #615, #430, #545, #385, #528, #228, #775 ) ) ;
#124 = CARTESIAN_POINT ( 'NONE',  ( 6.249999999999950262, 65.49999999999810996, 0.000000000000000000 ) ) ;
#125 = LINE ( 'NONE', #432, #639 ) ;
#126 = ORIENTED_EDGE ( 'NONE', *, *, #823, .T. ) ;
#127 = DIRECTION ( 'NONE',  ( -1.000000000000000000, 0.000000000000000000, 0.000000000000000000 ) ) ;
#128 = EDGE_CURVE ( 'NONE', #732, #87, #849, .T. ) ;
#129 = AXIS2_PLACEMENT_3D ( 'NONE', #24, #256, #958 ) ;
#130 = DIRECTION ( 'NONE',  ( -0.7071067811865489050, 0.7071067811865460184, 0.000000000000000000 ) ) ;
#131 = EDGE_LOOP ( 'NONE', ( #833, #715, #992, #977 ) ) ;
#132 = CIRCLE ( 'NONE', #598, 12.50000000000006040 ) ;
#133 = ORIENTED_EDGE ( 'NONE', *, *, #204, .T. ) ;
#134 = DIRECTION ( 'NONE',  ( -1.000000000000000000, 0.000000000000000000, 0.000000000000000000 ) ) ;
#135 = DIRECTION ( 'NONE',  ( -0.4082482904654100020, 0.9128709291745850107, 0.000000000000000000 ) ) ;
#136 = ORIENTED_EDGE ( 'NONE', *, *, #287, .F. ) ;
#137 = DIRECTION ( 'NONE',  ( 1.000000000000000000, -8.607594936709185439E-17, 0.000000000000000000 ) ) ;
#138 = DIRECTION ( 'NONE',  ( 8.607594936709185439E-17, 1.000000000000000000, -0.000000000000000000 ) ) ;
#139 = ORIENTED_EDGE ( 'NONE', *, *, #995, .T. ) ;
#140 = EDGE_CURVE ( 'NONE', #87, #538, #4, .T. ) ;
#141 = CYLINDRICAL_SURFACE ( 'NONE', #945, 6.249999999999944933 ) ;
#142 = SURFACE_STYLE_USAGE ( .BOTH. , #449 ) ;
#143 = ADVANCED_FACE ( 'NONE', ( #315 ), #326, .T. ) ;
#144 = CIRCLE ( 'NONE', #416, 6.550000000000012257 ) ;
#145 = DIRECTION ( 'NONE',  ( -8.607594936709185439E-17, -1.000000000000000000, 0.000000000000000000 ) ) ;
#146 = AXIS2_PLACEMENT_3D ( 'NONE', #534, #932, #847 ) ;
#147 = CARTESIAN_POINT ( 'NONE',  ( 5.189113924050570114E-15, 59.79999999999815685, 0.000000000000000000 ) ) ;
#148 = EDGE_LOOP ( 'NONE', ( #964, #352, #427, #366 ) ) ;
#149 = CONICAL_SURFACE ( 'NONE', #504, 6.067157287525335008, 0.7853981633972965115 ) ;
#150 = EDGE_CURVE ( 'NONE', #780, #538, #682, .T. ) ;
#151 = DIRECTION ( 'NONE',  ( -1.000000000000000000, 0.000000000000000000, 0.000000000000000000 ) ) ;
#152 = AXIS2_PLACEMENT_3D ( 'NONE', #967, #364, #819 ) ;
#153 = FACE_OUTER_BOUND ( 'NONE', #337, .T. ) ;
#154 = CARTESIAN_POINT ( 'NONE',  ( 10.00000000000011191, 6.443276132898703601, 1.224646799147367062E-15 ) ) ;
#155 = VERTEX_POINT ( 'NONE', #765 ) ;
#156 = AXIS2_PLACEMENT_3D ( 'NONE', #279, #138, #601 ) ;
#157 = DIRECTION ( 'NONE',  ( -8.607594936709185439E-17, -1.000000000000000000, 0.000000000000000000 ) ) ;
#158 =( NAMED_UNIT ( * ) SI_UNIT ( $, .STERADIAN. ) SOLID_ANGLE_UNIT ( ) );
#159 = VECTOR ( 'NONE', #345, 1000.000000000000000 ) ;
#160 = CARTESIAN_POINT ( 'NONE',  ( 5.204170427930421283E-15, 66.79843597113166709, 0.000000000000000000 ) ) ;
#161 = CARTESIAN_POINT ( 'NONE',  ( 5.791510944350692473E-15, 66.79843597113166709, 0.000000000000000000 ) ) ;
#162 = SURFACE_STYLE_FILL_AREA ( #685 ) ;
#163 = CIRCLE ( 'NONE', #812, 5.950000000000006395 ) ;
#164 = CARTESIAN_POINT ( 'NONE',  ( -5.999999999999994671, 68.74999999999812417, 0.000000000000000000 ) ) ;
#165 = AXIS2_PLACEMENT_3D ( 'NONE', #12, #638, #799 ) ;
#166 = DIRECTION ( 'NONE',  ( -1.224646799147353207E-16, 1.054126358759786809E-32, 1.000000000000000000 ) ) ;
#167 = ORIENTED_EDGE ( 'NONE', *, *, #60, .F. ) ;
#168 = DIRECTION ( 'NONE',  ( 8.607594936709185439E-17, 1.000000000000000000, -0.000000000000000000 ) ) ;
#169 = EDGE_CURVE ( 'NONE', #378, #494, #940, .T. ) ;
#170 = CARTESIAN_POINT ( 'NONE',  ( 2.289906723080033614E-15, 26.11803398872407911, 0.000000000000000000 ) ) ;
#171 = VERTEX_POINT ( 'NONE', #622 ) ;
#172 = CIRCLE ( 'NONE', #611, 0.7999999999999926059 ) ;
#173 = VERTEX_POINT ( 'NONE', #769 ) ;
#174 = ADVANCED_FACE ( 'NONE', ( #919 ), #285, .F. ) ;
#175 = AXIS2_PLACEMENT_3D ( 'NONE', #272, #578, #664 ) ;
#176 = UNCERTAINTY_MEASURE_WITH_UNIT (LENGTH_MEASURE( 1.000000000000000082E-05 ), #331, 'distance_accuracy_value', 'NONE');
#177 = AXIS2_PLACEMENT_3D ( 'NONE', #503, #817, #565 ) ;
#178 = CARTESIAN_POINT ( 'NONE',  ( -6.067157287525329679, 60.81715728752354266, 0.000000000000000000 ) ) ;
#179 = DIRECTION ( 'NONE',  ( -1.000000000000000000, 0.000000000000000000, 0.000000000000000000 ) ) ;
#180 = VERTEX_POINT ( 'NONE', #996 ) ;
#181 = EDGE_LOOP ( 'NONE', ( #667, #946, #139, #641 ) ) ;
#182 = DIRECTION ( 'NONE',  ( -1.000000000000000000, 0.000000000000000000, 0.000000000000000000 ) ) ;
#183 = CARTESIAN_POINT ( 'NONE',  ( 5.959493670886038571E-15, 68.74999999999812417, 0.000000000000000000 ) ) ;
#184 = DIRECTION ( 'NONE',  ( -1.000000000000000000, 0.000000000000000000, 0.000000000000000000 ) ) ;
#185 = ORIENTED_EDGE ( 'NONE', *, *, #993, .F. ) ;
#186 = ORIENTED_EDGE ( 'NONE', *, *, #321, .F. ) ;
#187 = LINE ( 'NONE', #490, #907 ) ;
#188 = CARTESIAN_POINT ( 'NONE',  ( 5.800000000000017586, 67.41905249806701761, 7.102951435054662456E-16 ) ) ;
#189 = EDGE_CURVE ( 'NONE', #433, #325, #77, .T. ) ;
#190 = ORIENTED_EDGE ( 'NONE', *, *, #749, .T. ) ;
#191 = ORIENTED_EDGE ( 'NONE', *, *, #40, .T. ) ;
#192 = CARTESIAN_POINT ( 'NONE',  ( 5.292405063291083963E-15, 60.99999999999820943, 0.000000000000000000 ) ) ;
#193 = CARTESIAN_POINT ( 'NONE',  ( -6.550000000000006928, 59.74019237886277267, 0.000000000000000000 ) ) ;
#194 = VECTOR ( 'NONE', #778, 1000.000000000000000 ) ;
#195 = SURFACE_STYLE_FILL_AREA ( #805 ) ;
#196 = CARTESIAN_POINT ( 'NONE',  ( -6.067157287525329679, 60.81715728752354266, 0.000000000000000000 ) ) ;
#197 = AXIS2_PLACEMENT_3D ( 'NONE', #931, #695, #546 ) ;
#198 = ORIENTED_EDGE ( 'NONE', *, *, #54, .T. ) ;
#199 = CARTESIAN_POINT ( 'NONE',  ( 2.289906723080033614E-15, 26.11803398872407911, 0.000000000000000000 ) ) ;
#200 = VECTOR ( 'NONE', #394, 1000.000000000000000 ) ;
#201 = DIRECTION ( 'NONE',  ( 8.607594936709185439E-17, 1.000000000000000000, -0.000000000000000000 ) ) ;
#202 = AXIS2_PLACEMENT_3D ( 'NONE', #591, #512, #748 ) ;
#203 = ORIENTED_EDGE ( 'NONE', *, *, #747, .F. ) ;
#204 = EDGE_CURVE ( 'NONE', #645, #55, #110, .T. ) ;
#205 = CIRCLE ( 'NONE', #425, 5.000000000000000888 ) ;
#206 = ORIENTED_EDGE ( 'NONE', *, *, #968, .F. ) ;
#207 = CARTESIAN_POINT ( 'NONE',  ( 5.206329113923992638E-15, 59.99999999999820943, 0.000000000000000000 ) ) ;
#208 = CONICAL_SURFACE ( 'NONE', #488, 2904.210877674993299, 1.239183768915885997 ) ;
#209 = DIRECTION ( 'NONE',  ( 8.607594936709185439E-17, 1.000000000000000000, -0.000000000000000000 ) ) ;
#210 = ORIENTED_EDGE ( 'NONE', *, *, #566, .T. ) ;
#211 = LINE ( 'NONE', #886, #78 ) ;
#212 = EDGE_CURVE ( 'NONE', #87, #103, #810, .T. ) ;
#213 = DIRECTION ( 'NONE',  ( -1.000000000000000000, 0.000000000000000000, 0.000000000000000000 ) ) ;
#214 = CONICAL_SURFACE ( 'NONE', #461, 12.49999999999998579, 0.7853981633973312615 ) ;
#215 = MANIFOLD_SOLID_BREP ( '±ÛÂà1', #123 ) ;
#216 = ORIENTED_EDGE ( 'NONE', *, *, #909, .F. ) ;
#217 = TOROIDAL_SURFACE ( 'NONE', #146, 5.800000000000011369, 0.8000000000000067057 ) ;
#218 = FACE_OUTER_BOUND ( 'NONE', #131, .T. ) ;
#219 = CARTESIAN_POINT ( 'NONE',  ( 5.189113924050570114E-15, 59.79999999999815685, 0.000000000000000000 ) ) ;
#220 = ORIENTED_EDGE ( 'NONE', *, *, #924, .F. ) ;
#221 = EDGE_CURVE ( 'NONE', #332, #770, #526, .T. ) ;
#222 = DIRECTION ( 'NONE',  ( 8.607594936709185439E-17, 1.000000000000000000, -0.000000000000000000 ) ) ;
#223 = ADVANCED_FACE ( 'NONE', ( #67 ), #9, .T. ) ;
#224 = CARTESIAN_POINT ( 'NONE',  ( 7.100000000000000986E-15, 81.99999999999806732, 0.000000000000000000 ) ) ;
#225 = AXIS2_PLACEMENT_3D ( 'NONE', #183, #267, #8 ) ;
#226 = AXIS2_PLACEMENT_3D ( 'NONE', #764, #61, #460 ) ;
#227 = ORIENTED_EDGE ( 'NONE', *, *, #738, .T. ) ;
#228 = ADVANCED_FACE ( 'NONE', ( #643 ), #624, .T. ) ;
#229 = CARTESIAN_POINT ( 'NONE',  ( 10.00000000000028955, 20.52786404500053763, 1.224646799147388361E-15 ) ) ;
#230 = CARTESIAN_POINT ( 'NONE',  ( 5.206329113923991061E-15, 59.99999999999818812, 0.000000000000000000 ) ) ;
#231 = CARTESIAN_POINT ( 'NONE',  ( 5.250000000000002665, 67.99999999999812417, 6.429395695523600208E-16 ) ) ;
#232 = EDGE_CURVE ( 'NONE', #306, #44, #491, .T. ) ;
#233 = CYLINDRICAL_SURFACE ( 'NONE', #1, 6.000000000000000000 ) ;
#234 = CYLINDRICAL_SURFACE ( 'NONE', #788, 6.000000000000000000 ) ;
#235 = DIRECTION ( 'NONE',  ( 8.607594936709185439E-17, 1.000000000000000000, -0.000000000000000000 ) ) ;
#236 = VECTOR ( 'NONE', #980, 1000.000000000000000 ) ;
#237 = LINE ( 'NONE', #379, #478 ) ;
#238 = CARTESIAN_POINT ( 'NONE',  ( -4.999999999999994671, 67.41905249806704603, 0.000000000000000000 ) ) ;
#239 = LINE ( 'NONE', #231, #249 ) ;
#240 = ORIENTED_EDGE ( 'NONE', *, *, #706, .T. ) ;
#241 = AXIS2_PLACEMENT_3D ( 'NONE', #917, #453, #457 ) ;
#242 = LINE ( 'NONE', #229, #985 ) ;
#243 = DIRECTION ( 'NONE',  ( -1.000000000000000000, 0.000000000000000000, 0.000000000000000000 ) ) ;
#244 = LINE ( 'NONE', #789, #840 ) ;
#245 = MECHANICAL_DESIGN_GEOMETRIC_PRESENTATION_REPRESENTATION (  '', ( #681 ), #388 ) ;
#246 = ORIENTED_EDGE ( 'NONE', *, *, #455, .T. ) ;
#247 = EDGE_CURVE ( 'NONE', #959, #325, #37, .T. ) ;
#248 = ORIENTED_EDGE ( 'NONE', *, *, #258, .F. ) ;
#249 = VECTOR ( 'NONE', #305, 1000.000000000000000 ) ;
#250 = CARTESIAN_POINT ( 'NONE',  ( 5.206329113923991061E-15, 59.99999999999818812, 0.000000000000000000 ) ) ;
#251 = AXIS2_PLACEMENT_3D ( 'NONE', #431, #346, #739 ) ;
#252 = DIRECTION ( 'NONE',  ( 8.607594936709185439E-17, 1.000000000000000000, -0.000000000000000000 ) ) ;
#253 = EDGE_CURVE ( 'NONE', #13, #332, #467, .T. ) ;
#254 = ORIENTED_EDGE ( 'NONE', *, *, #367, .T. ) ;
#255 = VERTEX_POINT ( 'NONE', #876 ) ;
#256 = DIRECTION ( 'NONE',  ( 8.607594936709185439E-17, 1.000000000000000000, -0.000000000000000000 ) ) ;
#257 = ORIENTED_EDGE ( 'NONE', *, *, #455, .F. ) ;
#258 = EDGE_CURVE ( 'NONE', #44, #501, #691, .T. ) ;
#259 = EDGE_LOOP ( 'NONE', ( #675, #280, #707, #506 ) ) ;
#260 = AXIS2_PLACEMENT_3D ( 'NONE', #772, #990, #65 ) ;
#261 = CIRCLE ( 'NONE', #438, 0.4000000000000270561 ) ;
#262 = APPLICATION_PROTOCOL_DEFINITION ( 'draft international standard', 'automotive_design', 1998, #101 ) ;
#263 = ORIENTED_EDGE ( 'NONE', *, *, #882, .T. ) ;
#264 = AXIS2_PLACEMENT_3D ( 'NONE', #701, #767, #316 ) ;
#265 = ORIENTED_EDGE ( 'NONE', *, *, #640, .T. ) ;
#266 = DIRECTION ( 'NONE',  ( 8.607594936709185439E-17, 1.000000000000000000, -0.000000000000000000 ) ) ;
#267 = DIRECTION ( 'NONE',  ( 8.607594936709185439E-17, 1.000000000000000000, -0.000000000000000000 ) ) ;
#268 =( NAMED_UNIT ( * ) SI_UNIT ( $, .STERADIAN. ) SOLID_ANGLE_UNIT ( ) );
#269 = VERTEX_POINT ( 'NONE', #880 ) ;
#270 = VERTEX_POINT ( 'NONE', #178 ) ;
#271 = CARTESIAN_POINT ( 'NONE',  ( 7.100000000000000986E-15, 81.99999999999806732, 0.000000000000000000 ) ) ;
#272 = CARTESIAN_POINT ( 'NONE',  ( 5.206329113923991061E-15, 59.99999999999818812, 0.000000000000000000 ) ) ;
#273 = AXIS2_PLACEMENT_3D ( 'NONE', #690, #794, #318 ) ;
#274 = LINE ( 'NONE', #196, #594 ) ;
#275 = ORIENTED_EDGE ( 'NONE', *, *, #367, .F. ) ;
#276 = DIRECTION ( 'NONE',  ( 8.607594936709185439E-17, 1.000000000000000000, -0.000000000000000000 ) ) ;
#277 = CARTESIAN_POINT ( 'NONE',  ( 5.276666703229974029E-15, 60.81715728752354266, 0.000000000000000000 ) ) ;
#278 = ADVANCED_FACE ( 'NONE', ( #703 ), #29, .T. ) ;
#279 = CARTESIAN_POINT ( 'NONE',  ( 5.204170427930421283E-15, 60.53431457504893842, 0.000000000000000000 ) ) ;
#280 = ORIENTED_EDGE ( 'NONE', *, *, #631, .T. ) ;
#281 = DIRECTION ( 'NONE',  ( -1.000000000000000000, 0.000000000000000000, 0.000000000000000000 ) ) ;
#282 = COLOUR_RGB ( '',0.7921568627450980005, 0.8196078431372548767, 0.9333333333333333481 ) ;
#283 = FACE_OUTER_BOUND ( 'NONE', #714, .T. ) ;
#284 = PRODUCT ( '99688-SI20-M12+S9MT2004-142', '99688-SI20-M12+S9MT2004-142', '', ( #867 ) ) ;
#285 = TOROIDAL_SURFACE ( 'NONE', #859, 6.350000000000033396, 0.4000000000000267231 ) ;
#286 = FACE_OUTER_BOUND ( 'NONE', #878, .T. ) ;
#287 = EDGE_CURVE ( 'NONE', #180, #255, #172, .T. ) ;
#288 = VECTOR ( 'NONE', #746, 1000.000000000000000 ) ;
#289 = ORIENTED_EDGE ( 'NONE', *, *, #253, .F. ) ;
#290 = ADVANCED_BREP_SHAPE_REPRESENTATION ( '99688-SI20-M12+S9MT2004-142', ( #215, #421 ), #910 ) ;
#291 = EDGE_CURVE ( 'NONE', #98, #959, #244, .T. ) ;
#292 = AXIS2_PLACEMENT_3D ( 'NONE', #820, #209, #365 ) ;
#293 = DIRECTION ( 'NONE',  ( -8.607594936709185439E-17, -1.000000000000000000, 0.000000000000000000 ) ) ;
#294 = DIRECTION ( 'NONE',  ( -1.000000000000000000, 7.645608885770451365E-17, 0.000000000000000000 ) ) ;
#295 = ORIENTED_EDGE ( 'NONE', *, *, #287, .T. ) ;
#296 = CARTESIAN_POINT ( 'NONE',  ( -4.267949192431138350, 81.99999999999806732, 6.287305556159226380E-16 ) ) ;
#297 = ORIENTED_EDGE ( 'NONE', *, *, #710, .F. ) ;
#298 = AXIS2_PLACEMENT_3D ( 'NONE', #617, #809, #652 ) ;
#299 = ORIENTED_EDGE ( 'NONE', *, *, #689, .F. ) ;
#300 = DIRECTION ( 'NONE',  ( 8.607594936709185439E-17, 1.000000000000000000, -0.000000000000000000 ) ) ;
#301 = EDGE_CURVE ( 'NONE', #494, #269, #402, .T. ) ;
#302 = ORIENTED_EDGE ( 'NONE', *, *, #600, .T. ) ;
#303 = FACE_OUTER_BOUND ( 'NONE', #104, .T. ) ;
#304 = ADVANCED_FACE ( 'NONE', ( #84 ), #381, .T. ) ;
#305 = DIRECTION ( 'NONE',  ( 0.7071067811865492381, 0.7071067811865457964, 8.659560562354952580E-17 ) ) ;
#306 = VERTEX_POINT ( 'NONE', #717 ) ;
#307 = CARTESIAN_POINT ( 'NONE',  ( 5.679746835442989400E-15, 65.49999999999810996, 0.000000000000000000 ) ) ;
#308 = CIRCLE ( 'NONE', #225, 6.000000000000000888 ) ;
#309 = ADVANCED_FACE ( 'NONE', ( #393 ), #434, .F. ) ;
#310 = AXIS2_PLACEMENT_3D ( 'NONE', #744, #899, #52 ) ;
#311 = FACE_OUTER_BOUND ( 'NONE', #837, .T. ) ;
#312 = CYLINDRICAL_SURFACE ( 'NONE', #951, 5.949999999999987743 ) ;
#313 = DIRECTION ( 'NONE',  ( -1.000000000000000000, 0.000000000000000000, 0.000000000000000000 ) ) ;
#314 = CARTESIAN_POINT ( 'NONE',  ( 6.000000000000007105, 68.74999999999812417, 7.347880794884120722E-16 ) ) ;
#315 = FACE_OUTER_BOUND ( 'NONE', #479, .T. ) ;
#316 = DIRECTION ( 'NONE',  ( -1.000000000000000000, 0.000000000000000000, 0.000000000000000000 ) ) ;
#317 = CARTESIAN_POINT ( 'NONE',  ( 2.902085213965210783E-15, 3.000000000001029399, 3.186635328391150800E-31 ) ) ;
#318 = DIRECTION ( 'NONE',  ( -1.000000000000000000, 0.000000000000000000, 0.000000000000000000 ) ) ;
#319 = CARTESIAN_POINT ( 'NONE',  ( -12.29999999999997939, 59.99999999999820943, 1.518562030942716192E-15 ) ) ;
#320 = PRESENTATION_LAYER_ASSIGNMENT (  '', '', ( #843 ) ) ;
#321 = EDGE_CURVE ( 'NONE', #173, #180, #740, .T. ) ;
#322 = EDGE_CURVE ( 'NONE', #890, #517, #308, .T. ) ;
#323 = DIRECTION ( 'NONE',  ( -1.000000000000000000, 0.000000000000000000, 0.000000000000000000 ) ) ;
#324 = ORIENTED_EDGE ( 'NONE', *, *, #749, .F. ) ;
#325 = VERTEX_POINT ( 'NONE', #627 ) ;
#326 = CONICAL_SURFACE ( 'NONE', #117, 12.49999999999998579, 0.7853981633973312615 ) ;
#327 = DIRECTION ( 'NONE',  ( -1.000000000000000000, 0.000000000000000000, 0.000000000000000000 ) ) ;
#328 = TOROIDAL_SURFACE ( 'NONE', #900, 6.349999999999965894, 0.3999999999999981348 ) ;
#329 = DIRECTION ( 'NONE',  ( -0.000000000000000000, 0.000000000000000000, -1.000000000000000000 ) ) ;
#330 = EDGE_CURVE ( 'NONE', #538, #780, #997, .T. ) ;
#331 =( LENGTH_UNIT ( ) NAMED_UNIT ( * ) SI_UNIT ( .MILLI., .METRE. ) );
#332 = VERTEX_POINT ( 'NONE', #86 ) ;
#333 = VECTOR ( 'NONE', #135, 1000.000000000000000 ) ;
#334 = ORIENTED_EDGE ( 'NONE', *, *, #658, .T. ) ;
#335 = CARTESIAN_POINT ( 'NONE',  ( 6.349999999999971223, 60.53431457504893842, 7.776507174585650748E-16 ) ) ;
#336 = VERTEX_POINT ( 'NONE', #866 ) ;
#337 = EDGE_LOOP ( 'NONE', ( #206, #265, #551, #796 ) ) ;
#338 = DIRECTION ( 'NONE',  ( -1.000000000000000000, 0.000000000000000000, 0.000000000000000000 ) ) ;
#339 = PRODUCT_DEFINITION_CONTEXT ( 'detailed design', #101, 'design' ) ;
#340 = AXIS2_PLACEMENT_3D ( 'NONE', #271, #32, #702 ) ;
#341 = CARTESIAN_POINT ( 'NONE',  ( 7.100000000000000986E-15, 81.99999999999806732, 0.000000000000000000 ) ) ;
#342 = ORIENTED_EDGE ( 'NONE', *, *, #522, .T. ) ;
#343 = CIRCLE ( 'NONE', #894, 0.7999999999999926059 ) ;
#344 = EDGE_LOOP ( 'NONE', ( #210, #227, #297, #708 ) ) ;
#345 = DIRECTION ( 'NONE',  ( 8.607594936709185439E-17, 1.000000000000000000, -0.000000000000000000 ) ) ;
#346 = DIRECTION ( 'NONE',  ( 8.607594936709185439E-17, 1.000000000000000000, -0.000000000000000000 ) ) ;
#347 = ORIENTED_EDGE ( 'NONE', *, *, #486, .F. ) ;
#348 = ORIENTED_EDGE ( 'NONE', *, *, #842, .F. ) ;
#349 = CYLINDRICAL_SURFACE ( 'NONE', #384, 10.00000000000019895 ) ;
#350 = DIRECTION ( 'NONE',  ( -1.000000000000000000, 8.607594936709185439E-17, 0.000000000000000000 ) ) ;
#351 = ORIENTED_EDGE ( 'NONE', *, *, #400, .T. ) ;
#352 = ORIENTED_EDGE ( 'NONE', *, *, #122, .T. ) ;
#353 = VECTOR ( 'NONE', #952, 1000.000000000000114 ) ;
#354 = DIRECTION ( 'NONE',  ( 8.607594936709185439E-17, 1.000000000000000000, -0.000000000000000000 ) ) ;
#355 = FACE_OUTER_BOUND ( 'NONE', #414, .T. ) ;
#356 = EDGE_CURVE ( 'NONE', #155, #937, #871, .T. ) ;
#357 = FACE_OUTER_BOUND ( 'NONE', #944, .T. ) ;
#358 = EDGE_LOOP ( 'NONE', ( #801, #351, #662, #299 ) ) ;
#359 = CARTESIAN_POINT ( 'NONE',  ( 6.249999999999952038, 65.49999999999810996, 7.654042494670891539E-16 ) ) ;
#360 = FACE_OUTER_BOUND ( 'NONE', #487, .T. ) ;
#361 = FACE_OUTER_BOUND ( 'NONE', #344, .T. ) ;
#362 = ORIENTED_EDGE ( 'NONE', *, *, #586, .T. ) ;
#363 = CIRCLE ( 'NONE', #672, 12.49999999999998579 ) ;
#364 = DIRECTION ( 'NONE',  ( -8.607594936709185439E-17, -1.000000000000000000, 0.000000000000000000 ) ) ;
#365 = DIRECTION ( 'NONE',  ( -1.000000000000000000, 0.000000000000000000, 0.000000000000000000 ) ) ;
#366 = ORIENTED_EDGE ( 'NONE', *, *, #640, .F. ) ;
#367 = EDGE_CURVE ( 'NONE', #270, #501, #527, .T. ) ;
#368 = FACE_OUTER_BOUND ( 'NONE', #868, .T. ) ;
#369 = CARTESIAN_POINT ( 'NONE',  ( -10.00000000000019362, 81.99999999999806732, 0.000000000000000000 ) ) ;
#370 = VECTOR ( 'NONE', #266, 1000.000000000000000 ) ;
#371 = ORIENTED_EDGE ( 'NONE', *, *, #968, .T. ) ;
#372 = FACE_OUTER_BOUND ( 'NONE', #93, .T. ) ;
#373 = DIRECTION ( 'NONE',  ( 8.607594936709185439E-17, 1.000000000000000000, -0.000000000000000000 ) ) ;
#374 = VECTOR ( 'NONE', #235, 1000.000000000000000 ) ;
#375 = ADVANCED_FACE ( 'NONE', ( #705 ), #69, .T. ) ;
#376 = DIRECTION ( 'NONE',  ( -1.000000000000000000, 0.000000000000000000, 0.000000000000000000 ) ) ;
#377 = DIRECTION ( 'NONE',  ( -1.000000000000000000, 0.000000000000000000, 0.000000000000000000 ) ) ;
#378 = VERTEX_POINT ( 'NONE', #515 ) ;
#379 = CARTESIAN_POINT ( 'NONE',  ( 12.49999999999999112, 59.79999999999815685, 0.000000000000000000 ) ) ;
#380 = FACE_OUTER_BOUND ( 'NONE', #556, .T. ) ;
#381 = CONICAL_SURFACE ( 'NONE', #473, 6.067157287525335008, 0.7853981633972965115 ) ;
#382 = VECTOR ( 'NONE', #754, 1000.000000000000000 ) ;
#383 = DIRECTION ( 'NONE',  ( -1.000000000000000000, 0.000000000000000000, 0.000000000000000000 ) ) ;
#384 = AXIS2_PLACEMENT_3D ( 'NONE', #657, #276, #243 ) ;
#385 = ADVANCED_FACE ( 'NONE', ( #218 ), #716, .T. ) ;
#386 = DIRECTION ( 'NONE',  ( 8.607594936709185439E-17, 1.000000000000000000, -0.000000000000000000 ) ) ;
#387 = DIRECTION ( 'NONE',  ( 1.000000000000000000, 0.000000000000000000, 0.000000000000000000 ) ) ;
#388 =( GEOMETRIC_REPRESENTATION_CONTEXT ( 3 ) GLOBAL_UNCERTAINTY_ASSIGNED_CONTEXT ( ( #114 ) ) GLOBAL_UNIT_ASSIGNED_CONTEXT ( ( #730, #800, #887 ) ) REPRESENTATION_CONTEXT ( 'NONE', 'WORKASPACE' ) );
#389 = DIRECTION ( 'NONE',  ( 8.607594936709185439E-17, 1.000000000000000000, -0.000000000000000000 ) ) ;
#390 = CARTESIAN_POINT ( 'NONE',  ( 5.204170427930421283E-15, 60.08660254037662440, 0.000000000000000000 ) ) ;
#391 = FACE_OUTER_BOUND ( 'NONE', #358, .T. ) ;
#392 = ADVANCED_FACE ( 'NONE', ( #418 ), #728, .T. ) ;
#393 = FACE_OUTER_BOUND ( 'NONE', #410, .T. ) ;
#394 = DIRECTION ( 'NONE',  ( -0.7071067811865268116, -0.7071067811865682229, 8.659560562354677711E-17 ) ) ;
#395 = AXIS2_PLACEMENT_3D ( 'NONE', #19, #554, #567 ) ;
#396 = DIRECTION ( 'NONE',  ( -1.000000000000000000, 0.000000000000000000, 0.000000000000000000 ) ) ;
#397 = ORIENTED_EDGE ( 'NONE', *, *, #40, .F. ) ;
#398 = ORIENTED_EDGE ( 'NONE', *, *, #631, .F. ) ;
#399 = DIRECTION ( 'NONE',  ( 8.607594936709185439E-17, 1.000000000000000000, -0.000000000000000000 ) ) ;
#400 = EDGE_CURVE ( 'NONE', #937, #89, #116, .T. ) ;
#401 =( GEOMETRIC_REPRESENTATION_CONTEXT ( 3 ) GLOBAL_UNCERTAINTY_ASSIGNED_CONTEXT ( ( #429 ) ) GLOBAL_UNIT_ASSIGNED_CONTEXT ( ( #1002, #858, #158 ) ) REPRESENTATION_CONTEXT ( 'NONE', 'WORKASPACE' ) );
#402 = LINE ( 'NONE', #712, #353 ) ;
#403 = DIRECTION ( 'NONE',  ( 0.000000000000000000, 0.000000000000000000, 1.000000000000000000 ) ) ;
#404 = AXIS2_PLACEMENT_3D ( 'NONE', #91, #2, #313 ) ;
#405 = ORIENTED_EDGE ( 'NONE', *, *, #330, .T. ) ;
#406 = ORIENTED_EDGE ( 'NONE', *, *, #935, .T. ) ;
#407 = ADVANCED_FACE ( 'NONE', ( #283 ), #328, .F. ) ;
#408 = AXIS2_PLACEMENT_3D ( 'NONE', #277, #201, #584 ) ;
#409 = CARTESIAN_POINT ( 'NONE',  ( 5.276666703229974029E-15, 60.81715728752354266, 0.000000000000000000 ) ) ;
#410 = EDGE_LOOP ( 'NONE', ( #136, #186, #550, #446 ) ) ;
#411 = EDGE_LOOP ( 'NONE', ( #731, #725, #240, #956 ) ) ;
#412 = DIRECTION ( 'NONE',  ( -1.224646799147353207E-16, 1.054126358759786809E-32, 1.000000000000000000 ) ) ;
#413 = DIRECTION ( 'NONE',  ( -1.000000000000000000, 7.645608885770451365E-17, 0.000000000000000000 ) ) ;
#414 = EDGE_LOOP ( 'NONE', ( #420, #802, #120, #832 ) ) ;
#415 = LINE ( 'NONE', #27, #628 ) ;
#416 = AXIS2_PLACEMENT_3D ( 'NONE', #822, #548, #939 ) ;
#417 = MECHANICAL_DESIGN_GEOMETRIC_PRESENTATION_REPRESENTATION (  '', ( #843 ), #401 ) ;
#418 = FACE_OUTER_BOUND ( 'NONE', #895, .T. ) ;
#419 = PRESENTATION_STYLE_ASSIGNMENT (( #97 ) ) ;
#420 = ORIENTED_EDGE ( 'NONE', *, *, #169, .F. ) ;
#421 = AXIS2_PLACEMENT_3D ( 'NONE', #20, #403, #644 ) ;
#422 = VERTEX_POINT ( 'NONE', #34 ) ;
#423 = CARTESIAN_POINT ( 'NONE',  ( 6.067157287525340337, 60.81715728752354266, 7.430124752091439530E-16 ) ) ;
#424 = DIRECTION ( 'NONE',  ( -8.607594936709185439E-17, -1.000000000000000000, 0.000000000000000000 ) ) ;
#425 = AXIS2_PLACEMENT_3D ( 'NONE', #908, #599, #804 ) ;
#426 = LINE ( 'NONE', #440, #333 ) ;
#427 = ORIENTED_EDGE ( 'NONE', *, *, #486, .T. ) ;
#428 = LINE ( 'NONE', #495, #159 ) ;
#429 = UNCERTAINTY_MEASURE_WITH_UNIT (LENGTH_MEASURE( 1.000000000000000082E-05 ), #1002, 'distance_accuracy_value', 'NONE');
#430 = ADVANCED_FACE ( 'NONE', ( #511 ), #637, .T. ) ;
#431 = CARTESIAN_POINT ( 'NONE',  ( 5.252320748232159539E-15, 60.53431457504895263, 0.000000000000000000 ) ) ;
#432 = CARTESIAN_POINT ( 'NONE',  ( 7.000000000000163425, 59.99999999999818812, 8.572527594031666461E-16 ) ) ;
#433 = VERTEX_POINT ( 'NONE', #296 ) ;
#434 = TOROIDAL_SURFACE ( 'NONE', #129, 5.800000000000002487, 0.7999999999999927169 ) ;
#435 = DIRECTION ( 'NONE',  ( 8.607594936709185439E-17, 1.000000000000000000, -0.000000000000000000 ) ) ;
#436 = CIRCLE ( 'NONE', #226, 12.29999999999998472 ) ;
#437 = ADVANCED_FACE ( 'NONE', ( #893 ), #978, .T. ) ;
#438 = AXIS2_PLACEMENT_3D ( 'NONE', #648, #412, #121 ) ;
#439 = CYLINDRICAL_SURFACE ( 'NONE', #514, 12.50000000000002132 ) ;
#440 = CARTESIAN_POINT ( 'NONE',  ( -10.00000000000028599, 20.52786404500053763, 0.000000000000000000 ) ) ;
#441 = ORIENTED_EDGE ( 'NONE', *, *, #400, .F. ) ;
#442 = DIRECTION ( 'NONE',  ( 8.607594936709185439E-17, 1.000000000000000000, -0.000000000000000000 ) ) ;
#443 = CARTESIAN_POINT ( 'NONE',  ( 4.267949192431152561, 81.99999999999806732, 0.000000000000000000 ) ) ;
#444 = EDGE_LOOP ( 'NONE', ( #912, #532, #499, #220 ) ) ;
#445 = CARTESIAN_POINT ( 'NONE',  ( -10.00000000000028599, 20.52786404500053763, 0.000000000000000000 ) ) ;
#446 = ORIENTED_EDGE ( 'NONE', *, *, #864, .T. ) ;
#447 = ORIENTED_EDGE ( 'NONE', *, *, #212, .T. ) ;
#448 = DIRECTION ( 'NONE',  ( 8.607594936709185439E-17, 1.000000000000000000, -0.000000000000000000 ) ) ;
#449 = SURFACE_SIDE_STYLE ('',( #162 ) ) ;
#450 = AXIS2_PLACEMENT_3D ( 'NONE', #100, #733, #933 ) ;
#451 = AXIS2_PLACEMENT_3D ( 'NONE', #454, #465, #377 ) ;
#452 = EDGE_CURVE ( 'NONE', #770, #332, #205, .T. ) ;
#453 = DIRECTION ( 'NONE',  ( 8.607594936709185439E-17, 1.000000000000000000, -0.000000000000000000 ) ) ;
#454 = CARTESIAN_POINT ( 'NONE',  ( 5.213783509804665663E-15, 60.08660254037661019, 0.000000000000000000 ) ) ;
#455 = EDGE_CURVE ( 'NONE', #306, #270, #850, .T. ) ;
#456 = DIRECTION ( 'NONE',  ( 0.4082482904654100575, 0.9128709291745848997, 4.999599621758432979E-17 ) ) ;
#457 = DIRECTION ( 'NONE',  ( -1.000000000000000000, 8.607594936709185439E-17, 0.000000000000000000 ) ) ;
#458 = DIRECTION ( 'NONE',  ( 1.000000000000000000, 0.000000000000000000, 0.000000000000000000 ) ) ;
#459 = FACE_OUTER_BOUND ( 'NONE', #806, .T. ) ;
#460 = DIRECTION ( 'NONE',  ( -1.000000000000000000, 0.000000000000000000, 0.000000000000000000 ) ) ;
#461 = AXIS2_PLACEMENT_3D ( 'NONE', #927, #145, #387 ) ;
#462 = DIRECTION ( 'NONE',  ( 8.607594936709185439E-17, 1.000000000000000000, -0.000000000000000000 ) ) ;
#463 = DIRECTION ( 'NONE',  ( -1.000000000000000000, 0.000000000000000000, 0.000000000000000000 ) ) ;
#464 = TOROIDAL_SURFACE ( 'NONE', #66, 6.350000000000033396, 0.4000000000000267231 ) ;
#465 = DIRECTION ( 'NONE',  ( 8.607594936709185439E-17, 1.000000000000000000, -0.000000000000000000 ) ) ;
#466 = EDGE_CURVE ( 'NONE', #255, #828, #824, .T. ) ;
#467 = CIRCLE ( 'NONE', #621, 0.8000000000000064837 ) ;
#468 = CARTESIAN_POINT ( 'NONE',  ( 5.722784810126535062E-15, 65.99999999999810996, 0.000000000000000000 ) ) ;
#469 = DIRECTION ( 'NONE',  ( -1.000000000000000000, 0.000000000000000000, 0.000000000000000000 ) ) ;
#470 = ORIENTED_EDGE ( 'NONE', *, *, #112, .T. ) ;
#471 = EDGE_CURVE ( 'NONE', #501, #44, #119, .T. ) ;
#472 = LINE ( 'NONE', #787, #500 ) ;
#473 = AXIS2_PLACEMENT_3D ( 'NONE', #409, #252, #469 ) ;
#474 = DIRECTION ( 'NONE',  ( -1.000000000000000000, 0.000000000000000000, 0.000000000000000000 ) ) ;
#475 = SHAPE_DEFINITION_REPRESENTATION ( #589, #290 ) ;
#476 = CONICAL_SURFACE ( 'NONE', #560, 6.249999999999944045, 0.7853981633974188581 ) ;
#477 = ORIENTED_EDGE ( 'NONE', *, *, #128, .T. ) ;
#478 = VECTOR ( 'NONE', #771, 1000.000000000000000 ) ;
#479 = EDGE_LOOP ( 'NONE', ( #602, #753, #593, #841 ) ) ;
#480 = ADVANCED_FACE ( 'NONE', ( #355 ), #786, .F. ) ;
#481 = DIRECTION ( 'NONE',  ( 8.607594936709185439E-17, 1.000000000000000000, -0.000000000000000000 ) ) ;
#482 = ORIENTED_EDGE ( 'NONE', *, *, #766, .T. ) ;
#483 = EDGE_LOOP ( 'NONE', ( #723, #650 ) ) ;
#484 = CARTESIAN_POINT ( 'NONE',  ( -5.800000000000006040, 67.41905249806701761, 0.000000000000000000 ) ) ;
#485 = DIRECTION ( 'NONE',  ( 8.607594936709185439E-17, 1.000000000000000000, -0.000000000000000000 ) ) ;
#486 = EDGE_CURVE ( 'NONE', #507, #890, #211, .T. ) ;
#487 = EDGE_LOOP ( 'NONE', ( #873, #342 ) ) ;
#488 = AXIS2_PLACEMENT_3D ( 'NONE', #58, #666, #294 ) ;
#489 = ORIENTED_EDGE ( 'NONE', *, *, #586, .F. ) ;
#490 = CARTESIAN_POINT ( 'NONE',  ( -5.999999999999992895, 81.99999999999806732, 0.000000000000000000 ) ) ;
#491 = CIRCLE ( 'NONE', #913, 0.3999999999999984679 ) ;
#492 = DIRECTION ( 'NONE',  ( 8.607594936709185439E-17, 1.000000000000000000, -0.000000000000000000 ) ) ;
#493 = ORIENTED_EDGE ( 'NONE', *, *, #471, .T. ) ;
#494 = VERTEX_POINT ( 'NONE', #193 ) ;
#495 = CARTESIAN_POINT ( 'NONE',  ( -4.999999999999997335, 81.99999999999806732, 0.000000000000000000 ) ) ;
#496 = VECTOR ( 'NONE', #1001, 1000.000000000000000 ) ;
#497 = CARTESIAN_POINT ( 'NONE',  ( -5.949999999999962874, 60.53431457504895263, 0.000000000000000000 ) ) ;
#498 = DIRECTION ( 'NONE',  ( 8.607594936709185439E-17, 1.000000000000000000, -0.000000000000000000 ) ) ;
#499 = ORIENTED_EDGE ( 'NONE', *, *, #814, .F. ) ;
#500 = VECTOR ( 'NONE', #399, 1000.000000000000000 ) ;
#501 = VERTEX_POINT ( 'NONE', #497 ) ;
#502 = ADVANCED_FACE ( 'NONE', ( #972 ), #439, .T. ) ;
#503 = CARTESIAN_POINT ( 'NONE',  ( 7.100000000000000986E-15, 81.99999999999806732, 0.000000000000000000 ) ) ;
#504 = AXIS2_PLACEMENT_3D ( 'NONE', #670, #596, #516 ) ;
#505 = CARTESIAN_POINT ( 'NONE',  ( 12.50000000000002842, 81.99999999999806732, 1.530808498934194085E-15 ) ) ;
#506 = ORIENTED_EDGE ( 'NONE', *, *, #726, .F. ) ;
#507 = VERTEX_POINT ( 'NONE', #53 ) ;
#508 = DIRECTION ( 'NONE',  ( 8.607594936709185439E-17, 1.000000000000000000, -0.000000000000000000 ) ) ;
#509 = CIRCLE ( 'NONE', #73, 4.267949192431145455 ) ;
#510 = ADVANCED_FACE ( 'NONE', ( #595, #360 ), #669, .F. ) ;
#511 = FACE_OUTER_BOUND ( 'NONE', #148, .T. ) ;
#512 = DIRECTION ( 'NONE',  ( 8.607594936709185439E-17, 1.000000000000000000, -0.000000000000000000 ) ) ;
#513 = ORIENTED_EDGE ( 'NONE', *, *, #896, .T. ) ;
#514 = AXIS2_PLACEMENT_3D ( 'NONE', #590, #904, #901 ) ;
#515 = CARTESIAN_POINT ( 'NONE',  ( 6.550000000000017586, 59.74019237886277267, 8.296982064223422250E-16 ) ) ;
#516 = DIRECTION ( 'NONE',  ( -1.000000000000000000, 0.000000000000000000, 0.000000000000000000 ) ) ;
#517 = VERTEX_POINT ( 'NONE', #314 ) ;
#518 = VECTOR ( 'NONE', #6, 1000.000000000000114 ) ;
#519 = APPLICATION_CONTEXT ( 'automotive_design' ) ;
#520 = FACE_OUTER_BOUND ( 'NONE', #72, .T. ) ;
#521 = ORIENTED_EDGE ( 'NONE', *, *, #738, .F. ) ;
#522 = EDGE_CURVE ( 'NONE', #950, #813, #436, .T. ) ;
#523 = ORIENTED_EDGE ( 'NONE', *, *, #140, .T. ) ;
#524 = CARTESIAN_POINT ( 'NONE',  ( -5.949999999999980638, 81.99999999999806732, 0.000000000000000000 ) ) ;
#525 = DIRECTION ( 'NONE',  ( -8.607594936709185439E-17, -1.000000000000000000, 0.000000000000000000 ) ) ;
#526 = CIRCLE ( 'NONE', #46, 5.000000000000000888 ) ;
#527 = CIRCLE ( 'NONE', #88, 0.3999999999999984679 ) ;
#528 = ADVANCED_FACE ( 'NONE', ( #368 ), #530, .F. ) ;
#529 = AXIS2_PLACEMENT_3D ( 'NONE', #923, #683, #688 ) ;
#530 = PLANE ( 'NONE',  #661 ) ;
#531 = CARTESIAN_POINT ( 'NONE',  ( 5.204170427930421283E-15, 60.08660254037662440, 0.000000000000000000 ) ) ;
#532 = ORIENTED_EDGE ( 'NONE', *, *, #68, .T. ) ;
#533 = ADVANCED_FACE ( 'NONE', ( #380 ), #476, .T. ) ;
#534 = CARTESIAN_POINT ( 'NONE',  ( 6.071532165918824830E-15, 67.41905249806701761, 0.000000000000000000 ) ) ;
#535 = CARTESIAN_POINT ( 'NONE',  ( 5.679746835442989400E-15, 65.49999999999810996, 0.000000000000000000 ) ) ;
#536 = DIRECTION ( 'NONE',  ( -0.9455185755992880914, 0.3255681544572399111, 0.000000000000000000 ) ) ;
#537 = CIRCLE ( 'NONE', #634, 5.249999999999996447 ) ;
#538 = VERTEX_POINT ( 'NONE', #445 ) ;
#539 = ORIENTED_EDGE ( 'NONE', *, *, #555, .F. ) ;
#540 = CARTESIAN_POINT ( 'NONE',  ( 7.100000000000000986E-15, 81.99999999999806732, 0.000000000000000000 ) ) ;
#541 = CARTESIAN_POINT ( 'NONE',  ( -6.249999999999940492, 60.99999999999820943, 0.000000000000000000 ) ) ;
#542 = PRESENTATION_STYLE_ASSIGNMENT (( #142 ) ) ;
#543 = FACE_OUTER_BOUND ( 'NONE', #784, .T. ) ;
#544 = FACE_OUTER_BOUND ( 'NONE', #59, .T. ) ;
#545 = ADVANCED_FACE ( 'NONE', ( #153 ), #234, .T. ) ;
#546 = DIRECTION ( 'NONE',  ( -1.000000000000000000, 8.673617379883940562E-17, 0.000000000000000000 ) ) ;
#547 = AXIS2_PLACEMENT_3D ( 'NONE', #484, #721, #338 ) ;
#548 = DIRECTION ( 'NONE',  ( 8.607594936709185439E-17, 1.000000000000000000, -0.000000000000000000 ) ) ;
#549 = DIRECTION ( 'NONE',  ( 8.607594936709185439E-17, 1.000000000000000000, -0.000000000000000000 ) ) ;
#550 = ORIENTED_EDGE ( 'NONE', *, *, #993, .T. ) ;
#551 = ORIENTED_EDGE ( 'NONE', *, *, #684, .T. ) ;
#552 = AXIS2_PLACEMENT_3D ( 'NONE', #41, #442, #962 ) ;
#553 = DIRECTION ( 'NONE',  ( -1.000000000000000000, 0.000000000000000000, 0.000000000000000000 ) ) ;
#554 = DIRECTION ( 'NONE',  ( 8.607594936709185439E-17, 1.000000000000000000, -0.000000000000000000 ) ) ;
#555 = EDGE_CURVE ( 'NONE', #103, #87, #612, .T. ) ;
#556 = EDGE_LOOP ( 'NONE', ( #821, #85, #31, #680 ) ) ;
#557 = AXIS2_PLACEMENT_3D ( 'NONE', #170, #485, #474 ) ;
#558 = DIRECTION ( 'NONE',  ( 8.607594936709185439E-17, 1.000000000000000000, -0.000000000000000000 ) ) ;
#559 = FILL_AREA_STYLE_COLOUR ( '', #282 ) ;
#560 = AXIS2_PLACEMENT_3D ( 'NONE', #307, #986, #607 ) ;
#561 = ORIENTED_EDGE ( 'NONE', *, *, #653, .T. ) ;
#562 = VECTOR ( 'NONE', #45, 1000.000000000000000 ) ;
#563 = ORIENTED_EDGE ( 'NONE', *, *, #47, .F. ) ;
#564 = ADVANCED_FACE ( 'NONE', ( #520 ), #827, .T. ) ;
#565 = DIRECTION ( 'NONE',  ( -1.000000000000000000, 0.000000000000000000, 0.000000000000000000 ) ) ;
#566 = EDGE_CURVE ( 'NONE', #270, #306, #742, .T. ) ;
#567 = DIRECTION ( 'NONE',  ( -1.000000000000000000, 0.000000000000000000, 0.000000000000000000 ) ) ;
#568 = AXIS2_PLACEMENT_3D ( 'NONE', #795, #498, #573 ) ;
#569 = VERTEX_POINT ( 'NONE', #694 ) ;
#570 = ORIENTED_EDGE ( 'NONE', *, *, #522, .F. ) ;
#571 = LINE ( 'NONE', #856, #562 ) ;
#572 = DIRECTION ( 'NONE',  ( 1.000000000000000000, 0.000000000000000000, 1.224646799147353454E-16 ) ) ;
#573 = DIRECTION ( 'NONE',  ( -1.000000000000000000, 0.000000000000000000, 0.000000000000000000 ) ) ;
#574 = VERTEX_POINT ( 'NONE', #541 ) ;
#575 = ORIENTED_EDGE ( 'NONE', *, *, #566, .F. ) ;
#576 = DIRECTION ( 'NONE',  ( 0.7071067811864403252, 0.7071067811866547093, 8.659560562353618912E-17 ) ) ;
#577 = AXIS2_PLACEMENT_3D ( 'NONE', #722, #558, #413 ) ;
#578 = DIRECTION ( 'NONE',  ( 8.607594936709185439E-17, 1.000000000000000000, -0.000000000000000000 ) ) ;
#579 = ADVANCED_FACE ( 'NONE', ( #372 ), #312, .T. ) ;
#580 = ORIENTED_EDGE ( 'NONE', *, *, #665, .F. ) ;
#581 = ORIENTED_EDGE ( 'NONE', *, *, #785, .F. ) ;
#582 = DIRECTION ( 'NONE',  ( 8.607594936709185439E-17, 1.000000000000000000, -0.000000000000000000 ) ) ;
#583 = CIRCLE ( 'NONE', #310, 5.249999999999996447 ) ;
#584 = DIRECTION ( 'NONE',  ( -1.000000000000000000, 0.000000000000000000, 0.000000000000000000 ) ) ;
#585 = DIRECTION ( 'NONE',  ( -0.7071067811864401031, 0.7071067811866549313, 0.000000000000000000 ) ) ;
#586 = EDGE_CURVE ( 'NONE', #645, #501, #914, .T. ) ;
#587 = ORIENTED_EDGE ( 'NONE', *, *, #471, .F. ) ;
#588 = CARTESIAN_POINT ( 'NONE',  ( 5.679746835442989400E-15, 65.49999999999810996, 0.000000000000000000 ) ) ;
#589 = PRODUCT_DEFINITION_SHAPE ( 'NONE', 'NONE',  #700 ) ;
#590 = CARTESIAN_POINT ( 'NONE',  ( 7.100000000000000986E-15, 81.99999999999806732, 0.000000000000000000 ) ) ;
#591 = CARTESIAN_POINT ( 'NONE',  ( 5.206329113923991061E-15, 59.99999999999818812, 0.000000000000000000 ) ) ;
#592 = ADVANCED_FACE ( 'NONE', ( #838 ), #141, .T. ) ;
#593 = ORIENTED_EDGE ( 'NONE', *, *, #846, .T. ) ;
#594 = VECTOR ( 'NONE', #585, 1000.000000000000000 ) ;
#595 = FACE_BOUND ( 'NONE', #483, .T. ) ;
#596 = DIRECTION ( 'NONE',  ( 8.607594936709185439E-17, 1.000000000000000000, -0.000000000000000000 ) ) ;
#597 = ORIENTED_EDGE ( 'NONE', *, *, #842, .T. ) ;
#598 = AXIS2_PLACEMENT_3D ( 'NONE', #199, #885, #463 ) ;
#599 = DIRECTION ( 'NONE',  ( 8.607594936709185439E-17, 1.000000000000000000, -0.000000000000000000 ) ) ;
#600 = EDGE_CURVE ( 'NONE', #269, #422, #998, .T. ) ;
#601 = DIRECTION ( 'NONE',  ( -1.000000000000000000, 8.607594936709185439E-17, 0.000000000000000000 ) ) ;
#602 = ORIENTED_EDGE ( 'NONE', *, *, #948, .F. ) ;
#603 = DIRECTION ( 'NONE',  ( -1.000000000000000000, 0.000000000000000000, 0.000000000000000000 ) ) ;
#604 = DIRECTION ( 'NONE',  ( 8.607594936709185439E-17, 1.000000000000000000, -0.000000000000000000 ) ) ;
#605 = EDGE_LOOP ( 'NONE', ( #719, #575, #254, #493 ) ) ;
#606 = EDGE_CURVE ( 'NONE', #828, #569, #614, .T. ) ;
#607 = DIRECTION ( 'NONE',  ( 1.000000000000000000, 0.000000000000000000, 0.000000000000000000 ) ) ;
#608 = ADVANCED_FACE ( 'NONE', ( #3 ), #214, .T. ) ;
#609 = CARTESIAN_POINT ( 'NONE',  ( 5.894936708860720078E-15, 67.99999999999812417, 0.000000000000000000 ) ) ;
#610 = ORIENTED_EDGE ( 'NONE', *, *, #140, .F. ) ;
#611 = AXIS2_PLACEMENT_3D ( 'NONE', #649, #782, #936 ) ;
#612 = CIRCLE ( 'NONE', #921, 10.00000000000011013 ) ;
#613 = DIRECTION ( 'NONE',  ( 8.607594936709185439E-17, 1.000000000000000000, -0.000000000000000000 ) ) ;
#614 = CIRCLE ( 'NONE', #953, 6.249999999999944933 ) ;
#615 = ADVANCED_FACE ( 'NONE', ( #303 ), #807, .F. ) ;
#616 = DIRECTION ( 'NONE',  ( -1.000000000000000000, 0.000000000000000000, 0.000000000000000000 ) ) ;
#617 = CARTESIAN_POINT ( 'NONE',  ( 5.959493670886038571E-15, 68.74999999999812417, 0.000000000000000000 ) ) ;
#618 = DIRECTION ( 'NONE',  ( 8.607594936709185439E-17, 1.000000000000000000, -0.000000000000000000 ) ) ;
#619 = CARTESIAN_POINT ( 'NONE',  ( 12.50000000000006217, 26.11803398872407911, 1.530808498934198621E-15 ) ) ;
#620 = CARTESIAN_POINT ( 'NONE',  ( 5.963832620722159600E-16, 6.443276132898703601, 0.000000000000000000 ) ) ;
#621 = AXIS2_PLACEMENT_3D ( 'NONE', #188, #92, #572 ) ;
#622 = CARTESIAN_POINT ( 'NONE',  ( 6.249999999999949374, 60.99999999999820943, 7.654042494670889567E-16 ) ) ;
#623 = EDGE_LOOP ( 'NONE', ( #521, #246, #23, #397 ) ) ;
#624 = CONICAL_SURFACE ( 'NONE', #577, 2904.210877674993299, 1.239183768915885997 ) ;
#625 = DIRECTION ( 'NONE',  ( -1.000000000000000000, 0.000000000000000000, 0.000000000000000000 ) ) ;
#626 = CARTESIAN_POINT ( 'NONE',  ( -5.749999999999968026, 65.99999999999810996, 7.347880794884069446E-16 ) ) ;
#627 = CARTESIAN_POINT ( 'NONE',  ( -5.999999999999992895, 78.99999999999805311, 0.000000000000000000 ) ) ;
#628 = VECTOR ( 'NONE', #354, 1000.000000000000000 ) ;
#629 = VECTOR ( 'NONE', #844, 1000.000000000000000 ) ;
#630 = CARTESIAN_POINT ( 'NONE',  ( 6.000000000000007105, 78.99999999999805311, 7.347880794884119736E-16 ) ) ;
#631 = EDGE_CURVE ( 'NONE', #180, #332, #994, .T. ) ;
#632 = CIRCLE ( 'NONE', #264, 5.749999999999974243 ) ;
#633 = CARTESIAN_POINT ( 'NONE',  ( 1.808727538050647155E-15, 20.52786404500053763, 0.000000000000000000 ) ) ;
#634 = AXIS2_PLACEMENT_3D ( 'NONE', #609, #389, #383 ) ;
#635 = EDGE_LOOP ( 'NONE', ( #441, #190, #797, #167 ) ) ;
#636 = ORIENTED_EDGE ( 'NONE', *, *, #766, .F. ) ;
#637 = CONICAL_SURFACE ( 'NONE', #22, 5.249999999999996447, 0.7853981633974506105 ) ;
#638 = DIRECTION ( 'NONE',  ( 8.607594936709185439E-17, 1.000000000000000000, -0.000000000000000000 ) ) ;
#639 = VECTOR ( 'NONE', #888, 1000.000000000000000 ) ;
#640 = EDGE_CURVE ( 'NONE', #517, #890, #773, .T. ) ;
#641 = ORIENTED_EDGE ( 'NONE', *, *, #291, .F. ) ;
#642 = ORIENTED_EDGE ( 'NONE', *, *, #864, .F. ) ;
#643 = FACE_OUTER_BOUND ( 'NONE', #671, .T. ) ;
#644 = DIRECTION ( 'NONE',  ( 1.000000000000000000, 0.000000000000000000, 0.000000000000000000 ) ) ;
#645 = VERTEX_POINT ( 'NONE', #879 ) ;
#646 = AXIS2_PLACEMENT_3D ( 'NONE', #230, #448, #698 ) ;
#647 = ORIENTED_EDGE ( 'NONE', *, *, #658, .F. ) ;
#648 = CARTESIAN_POINT ( 'NONE',  ( 6.350000000000038725, 60.08660254037662440, 7.776507174585733578E-16 ) ) ;
#649 = CARTESIAN_POINT ( 'NONE',  ( 5.800000000000007816, 66.79843597113166709, 7.102951435054650623E-16 ) ) ;
#650 = ORIENTED_EDGE ( 'NONE', *, *, #854, .F. ) ;
#651 = ORIENTED_EDGE ( 'NONE', *, *, #555, .T. ) ;
#652 = DIRECTION ( 'NONE',  ( -1.000000000000000000, 0.000000000000000000, 0.000000000000000000 ) ) ;
#653 = EDGE_CURVE ( 'NONE', #55, #378, #261, .T. ) ;
#654 = CARTESIAN_POINT ( 'NONE',  ( 5.894936708860720078E-15, 67.99999999999812417, 0.000000000000000000 ) ) ;
#655 = CYLINDRICAL_SURFACE ( 'NONE', #815, 6.249999999999944933 ) ;
#656 = ORIENTED_EDGE ( 'NONE', *, *, #35, .T. ) ;
#657 = CARTESIAN_POINT ( 'NONE',  ( 7.100000000000000986E-15, 81.99999999999806732, 0.000000000000000000 ) ) ;
#658 = EDGE_CURVE ( 'NONE', #732, #103, #961, .T. ) ;
#659 = DIRECTION ( 'NONE',  ( -1.000000000000000000, 0.000000000000000000, 0.000000000000000000 ) ) ;
#660 = DIRECTION ( 'NONE',  ( -1.000000000000000000, 0.000000000000000000, 0.000000000000000000 ) ) ;
#661 = AXIS2_PLACEMENT_3D ( 'NONE', #758, #157, #677 ) ;
#662 = ORIENTED_EDGE ( 'NONE', *, *, #935, .F. ) ;
#663 = DIRECTION ( 'NONE',  ( -1.000000000000000000, 0.000000000000000000, 0.000000000000000000 ) ) ;
#664 = DIRECTION ( 'NONE',  ( -1.000000000000000000, 0.000000000000000000, 0.000000000000000000 ) ) ;
#665 = EDGE_CURVE ( 'NONE', #55, #44, #415, .T. ) ;
#666 = DIRECTION ( 'NONE',  ( 8.607594936709185439E-17, 1.000000000000000000, -0.000000000000000000 ) ) ;
#667 = ORIENTED_EDGE ( 'NONE', *, *, #756, .F. ) ;
#668 = VECTOR ( 'NONE', #536, 1000.000000000000114 ) ;
#669 = PLANE ( 'NONE',  #692 ) ;
#670 = CARTESIAN_POINT ( 'NONE',  ( 5.276666703229974029E-15, 60.81715728752354266, 0.000000000000000000 ) ) ;
#671 = EDGE_LOOP ( 'NONE', ( #647, #477, #539 ) ) ;
#672 = AXIS2_PLACEMENT_3D ( 'NONE', #219, #674, #660 ) ;
#673 = PRODUCT_RELATED_PRODUCT_CATEGORY ( 'part', '', ( #284 ) ) ;
#674 = DIRECTION ( 'NONE',  ( 8.607594936709185439E-17, 1.000000000000000000, -0.000000000000000000 ) ) ;
#675 = ORIENTED_EDGE ( 'NONE', *, *, #321, .T. ) ;
#676 = CIRCLE ( 'NONE', #107, 7.000000000000158096 ) ;
#677 = DIRECTION ( 'NONE',  ( 1.000000000000000000, -8.607594936709185439E-17, 0.000000000000000000 ) ) ;
#678 = ADVANCED_FACE ( 'NONE', ( #391 ), #83, .T. ) ;
#679 = DIRECTION ( 'NONE',  ( -1.000000000000000000, 0.000000000000000000, 0.000000000000000000 ) ) ;
#680 = ORIENTED_EDGE ( 'NONE', *, *, #606, .T. ) ;
#681 = STYLED_ITEM ( 'NONE', ( #419 ), #290 ) ;
#682 = CIRCLE ( 'NONE', #897, 10.00000000000028777 ) ;
#683 = DIRECTION ( 'NONE',  ( 8.607594936709185439E-17, 1.000000000000000000, -0.000000000000000000 ) ) ;
#684 = EDGE_CURVE ( 'NONE', #890, #325, #187, .T. ) ;
#685 = FILL_AREA_STYLE ('',( #779 ) ) ;
#686 = AXIS2_PLACEMENT_3D ( 'NONE', #830, #734, #134 ) ;
#687 = TOROIDAL_SURFACE ( 'NONE', #156, 6.349999999999965894, 0.3999999999999981348 ) ;
#688 = DIRECTION ( 'NONE',  ( -1.000000000000000000, 0.000000000000000000, 0.000000000000000000 ) ) ;
#689 = EDGE_CURVE ( 'NONE', #155, #336, #957, .T. ) ;
#690 = CARTESIAN_POINT ( 'NONE',  ( 1.808727538050647155E-15, 20.52786404500053763, 0.000000000000000000 ) ) ;
#691 = CIRCLE ( 'NONE', #920, 5.949999999999968203 ) ;
#692 = AXIS2_PLACEMENT_3D ( 'NONE', #979, #293, #137 ) ;
#693 = CARTESIAN_POINT ( 'NONE',  ( -6.249999999999937828, 65.49999999999810996, 7.654042494670888581E-16 ) ) ;
#694 = CARTESIAN_POINT ( 'NONE',  ( -6.249999999999938716, 65.49999999999810996, 0.000000000000000000 ) ) ;
#695 = DIRECTION ( 'NONE',  ( 8.607594936709185439E-17, 1.000000000000000000, -0.000000000000000000 ) ) ;
#696 = AXIS2_PLACEMENT_3D ( 'NONE', #80, #168, #616 ) ;
#697 = DIRECTION ( 'NONE',  ( 8.607594936709185439E-17, 1.000000000000000000, -0.000000000000000000 ) ) ;
#698 = DIRECTION ( 'NONE',  ( -1.000000000000000000, 0.000000000000000000, 0.000000000000000000 ) ) ;
#699 = CARTESIAN_POINT ( 'NONE',  ( 5.183965926281953844E-15, 59.74019237886277267, 0.000000000000000000 ) ) ;
#700 = PRODUCT_DEFINITION ( 'UNKNOWN', '', #973, #339 ) ;
#701 = CARTESIAN_POINT ( 'NONE',  ( 5.722784810126535062E-15, 65.99999999999810996, 0.000000000000000000 ) ) ;
#702 = DIRECTION ( 'NONE',  ( -1.000000000000000000, 0.000000000000000000, 0.000000000000000000 ) ) ;
#703 = FACE_OUTER_BOUND ( 'NONE', #111, .T. ) ;
#704 = CARTESIAN_POINT ( 'NONE',  ( -6.249999999999937828, 81.99999999999806732, 0.000000000000000000 ) ) ;
#705 = FACE_OUTER_BOUND ( 'NONE', #736, .T. ) ;
#706 = EDGE_CURVE ( 'NONE', #645, #494, #829, .T. ) ;
#707 = ORIENTED_EDGE ( 'NONE', *, *, #452, .F. ) ;
#708 = ORIENTED_EDGE ( 'NONE', *, *, #17, .F. ) ;
#709 = FACE_OUTER_BOUND ( 'NONE', #259, .T. ) ;
#710 = EDGE_CURVE ( 'NONE', #574, #171, #999, .T. ) ;
#711 = AXIS2_PLACEMENT_3D ( 'NONE', #881, #943, #179 ) ;
#712 = CARTESIAN_POINT ( 'NONE',  ( -7.000000000000152767, 59.99999999999818812, 0.000000000000000000 ) ) ;
#713 =( NAMED_UNIT ( * ) PLANE_ANGLE_UNIT ( ) SI_UNIT ( $, .RADIAN. ) );
#714 = EDGE_LOOP ( 'NONE', ( #257, #960, #56, #275 ) ) ;
#715 = ORIENTED_EDGE ( 'NONE', *, *, #35, .F. ) ;
#716 = CONICAL_SURFACE ( 'NONE', #989, 6.000000000000000000, 0.5235987755982907110 ) ;
#717 = CARTESIAN_POINT ( 'NONE',  ( 6.067157287525340337, 60.81715728752354266, 7.430124752091440516E-16 ) ) ;
#718 = CIRCLE ( 'NONE', #292, 6.249999999999944933 ) ;
#719 = ORIENTED_EDGE ( 'NONE', *, *, #232, .F. ) ;
#720 = ORIENTED_EDGE ( 'NONE', *, *, #68, .F. ) ;
#721 = DIRECTION ( 'NONE',  ( -0.000000000000000000, 0.000000000000000000, -1.000000000000000000 ) ) ;
#722 = CARTESIAN_POINT ( 'NONE',  ( 8.637594936709185068E-14, 1003.000000000001023, 0.000000000000000000 ) ) ;
#723 = ORIENTED_EDGE ( 'NONE', *, *, #600, .F. ) ;
#724 = CIRCLE ( 'NONE', #857, 12.29999999999998472 ) ;
#725 = ORIENTED_EDGE ( 'NONE', *, *, #204, .F. ) ;
#726 = EDGE_CURVE ( 'NONE', #173, #770, #428, .T. ) ;
#727 = DIRECTION ( 'NONE',  ( 8.607594936709185439E-17, 1.000000000000000000, -0.000000000000000000 ) ) ;
#728 = CYLINDRICAL_SURFACE ( 'NONE', #686, 5.000000000000004441 ) ;
#729 = CONICAL_SURFACE ( 'NONE', #696, 5.249999999999996447, 0.7853981633974506105 ) ;
#730 =( LENGTH_UNIT ( ) NAMED_UNIT ( * ) SI_UNIT ( .MILLI., .METRE. ) );
#731 = ORIENTED_EDGE ( 'NONE', *, *, #653, .F. ) ;
#732 = VERTEX_POINT ( 'NONE', #105 ) ;
#733 = DIRECTION ( 'NONE',  ( 8.607594936709185439E-17, 1.000000000000000000, -0.000000000000000000 ) ) ;
#734 = DIRECTION ( 'NONE',  ( 8.607594936709185439E-17, 1.000000000000000000, -0.000000000000000000 ) ) ;
#735 = DIRECTION ( 'NONE',  ( -1.000000000000000000, 0.000000000000000000, 0.000000000000000000 ) ) ;
#736 = EDGE_LOOP ( 'NONE', ( #348, #916, #198, #324 ) ) ;
#737 = LINE ( 'NONE', #423, #30 ) ;
#738 = EDGE_CURVE ( 'NONE', #306, #171, #737, .T. ) ;
#739 = DIRECTION ( 'NONE',  ( -1.000000000000000000, 0.000000000000000000, 0.000000000000000000 ) ) ;
#740 = CIRCLE ( 'NONE', #395, 5.000000000000009770 ) ;
#741 = CARTESIAN_POINT ( 'NONE',  ( 6.249999999999952038, 81.99999999999806732, 7.654042494670889567E-16 ) ) ;
#742 = CIRCLE ( 'NONE', #529, 6.067157287525335008 ) ;
#743 = ORIENTED_EDGE ( 'NONE', *, *, #995, .F. ) ;
#744 = CARTESIAN_POINT ( 'NONE',  ( 5.894936708860720078E-15, 67.99999999999812417, 0.000000000000000000 ) ) ;
#745 = CIRCLE ( 'NONE', #11, 6.249999999999944933 ) ;
#746 = DIRECTION ( 'NONE',  ( 8.607594936709185439E-17, 1.000000000000000000, -0.000000000000000000 ) ) ;
#747 = EDGE_CURVE ( 'NONE', #103, #780, #571, .T. ) ;
#748 = DIRECTION ( 'NONE',  ( -1.000000000000000000, 0.000000000000000000, 0.000000000000000000 ) ) ;
#749 = EDGE_CURVE ( 'NONE', #937, #155, #132, .T. ) ;
#750 = ORIENTED_EDGE ( 'NONE', *, *, #924, .T. ) ;
#751 = DIRECTION ( 'NONE',  ( 8.607594936709185439E-17, 1.000000000000000000, -0.000000000000000000 ) ) ;
#752 = VERTEX_POINT ( 'NONE', #626 ) ;
#753 = ORIENTED_EDGE ( 'NONE', *, *, #793, .F. ) ;
#754 = DIRECTION ( 'NONE',  ( 8.607594936709185439E-17, 1.000000000000000000, -0.000000000000000000 ) ) ;
#755 = EDGE_LOOP ( 'NONE', ( #720, #191, #750, #903 ) ) ;
#756 = EDGE_CURVE ( 'NONE', #433, #98, #934, .T. ) ;
#757 = AXIS2_PLACEMENT_3D ( 'NONE', #192, #727, #798 ) ;
#758 = CARTESIAN_POINT ( 'NONE',  ( 7.100000000000002563E-15, 81.99999999999806732, 0.000000000000000000 ) ) ;
#759 = COLOUR_RGB ( '',0.7921568627450980005, 0.8196078431372548767, 0.9333333333333333481 ) ;
#760 = DIRECTION ( 'NONE',  ( -1.000000000000000000, 0.000000000000000000, 0.000000000000000000 ) ) ;
#761 = ORIENTED_EDGE ( 'NONE', *, *, #785, .T. ) ;
#762 = VECTOR ( 'NONE', #386, 1000.000000000000000 ) ;
#763 = ADVANCED_FACE ( 'NONE', ( #39 ), #349, .T. ) ;
#764 = CARTESIAN_POINT ( 'NONE',  ( 5.206329113923992638E-15, 59.99999999999820943, 0.000000000000000000 ) ) ;
#765 = CARTESIAN_POINT ( 'NONE',  ( -12.50000000000005862, 26.11803398872407911, 0.000000000000000000 ) ) ;
#766 = EDGE_CURVE ( 'NONE', #180, #173, #64, .T. ) ;
#767 = DIRECTION ( 'NONE',  ( 8.607594936709185439E-17, 1.000000000000000000, -0.000000000000000000 ) ) ;
#768 = CARTESIAN_POINT ( 'NONE',  ( 5.000000000000011546, 81.99999999999806732, 6.123233995736772199E-16 ) ) ;
#769 = CARTESIAN_POINT ( 'NONE',  ( -5.000000000000003553, 66.79843597113166709, 0.000000000000000000 ) ) ;
#770 = VERTEX_POINT ( 'NONE', #238 ) ;
#771 = DIRECTION ( 'NONE',  ( 0.7071067811864646391, -0.7071067811866303954, 0.000000000000000000 ) ) ;
#772 = CARTESIAN_POINT ( 'NONE',  ( 5.679746835442989400E-15, 65.49999999999810996, 0.000000000000000000 ) ) ;
#773 = CIRCLE ( 'NONE', #298, 6.000000000000000888 ) ;
#774 = CARTESIAN_POINT ( 'NONE',  ( -5.999999999999992895, 78.99999999999805311, 7.347880794884119736E-16 ) ) ;
#775 = ADVANCED_FACE ( 'NONE', ( #544 ), #891, .T. ) ;
#776 = AXIS2_PLACEMENT_3D ( 'NONE', #468, #16, #327 ) ;
#777 = DIRECTION ( 'NONE',  ( -1.000000000000000000, 8.607594936709185439E-17, 0.000000000000000000 ) ) ;
#778 = DIRECTION ( 'NONE',  ( 0.9455185755992882024, 0.3255681544572398001, 1.157926297142033104E-16 ) ) ;
#779 = FILL_AREA_STYLE_COLOUR ( '', #759 ) ;
#780 = VERTEX_POINT ( 'NONE', #875 ) ;
#781 = DIRECTION ( 'NONE',  ( 8.607594936709185439E-17, 1.000000000000000000, -0.000000000000000000 ) ) ;
#782 = DIRECTION ( 'NONE',  ( -1.224646799147353207E-16, 1.054126358759786809E-32, 1.000000000000000000 ) ) ;
#783 = ORIENTED_EDGE ( 'NONE', *, *, #909, .T. ) ;
#784 = EDGE_LOOP ( 'NONE', ( #636, #295, #263, #185 ) ) ;
#785 = EDGE_CURVE ( 'NONE', #507, #770, #889, .T. ) ;
#786 = CONICAL_SURFACE ( 'NONE', #175, 7.000000000000158096, 1.047197551196599408 ) ;
#787 = CARTESIAN_POINT ( 'NONE',  ( 6.000000000000007105, 81.99999999999806732, 7.347880794884119736E-16 ) ) ;
#788 = AXIS2_PLACEMENT_3D ( 'NONE', #930, #300, #70 ) ;
#789 = CARTESIAN_POINT ( 'NONE',  ( 6.000000000000007105, 78.99999999999805311, 0.000000000000000000 ) ) ;
#790 = CARTESIAN_POINT ( 'NONE',  ( -5.799999999999997158, 66.79843597113166709, 0.000000000000000000 ) ) ;
#791 = ORIENTED_EDGE ( 'NONE', *, *, #169, .T. ) ;
#792 = EDGE_LOOP ( 'NONE', ( #808, #371, #743, #38 ) ) ;
#793 = EDGE_CURVE ( 'NONE', #813, #950, #724, .T. ) ;
#794 = DIRECTION ( 'NONE',  ( 8.607594936709185439E-17, 1.000000000000000000, -0.000000000000000000 ) ) ;
#795 = CARTESIAN_POINT ( 'NONE',  ( 7.100000000000000986E-15, 81.99999999999806732, 0.000000000000000000 ) ) ;
#796 = ORIENTED_EDGE ( 'NONE', *, *, #247, .F. ) ;
#797 = ORIENTED_EDGE ( 'NONE', *, *, #689, .T. ) ;
#798 = DIRECTION ( 'NONE',  ( -1.000000000000000000, 0.000000000000000000, 0.000000000000000000 ) ) ;
#799 = DIRECTION ( 'NONE',  ( -1.000000000000000000, 0.000000000000000000, 0.000000000000000000 ) ) ;
#800 =( NAMED_UNIT ( * ) PLANE_ANGLE_UNIT ( ) SI_UNIT ( $, .RADIAN. ) );
#801 = ORIENTED_EDGE ( 'NONE', *, *, #356, .T. ) ;
#802 = ORIENTED_EDGE ( 'NONE', *, *, #47, .T. ) ;
#803 = CARTESIAN_POINT ( 'NONE',  ( -6.350000000000028066, 60.08660254037662440, 0.000000000000000000 ) ) ;
#804 = DIRECTION ( 'NONE',  ( -1.000000000000000000, 0.000000000000000000, 0.000000000000000000 ) ) ;
#805 = FILL_AREA_STYLE ('',( #559 ) ) ;
#806 = EDGE_LOOP ( 'NONE', ( #851, #51, #981, #581 ) ) ;
#807 = TOROIDAL_SURFACE ( 'NONE', #241, 5.800000000000011369, 0.8000000000000067057 ) ;
#808 = ORIENTED_EDGE ( 'NONE', *, *, #322, .T. ) ;
#809 = DIRECTION ( 'NONE',  ( 8.607594936709185439E-17, 1.000000000000000000, -0.000000000000000000 ) ) ;
#810 = CIRCLE ( 'NONE', #197, 10.00000000000011013 ) ;
#811 = CARTESIAN_POINT ( 'NONE',  ( 6.841772151898724646E-15, 78.99999999999805311, 0.000000000000000000 ) ) ;
#812 = AXIS2_PLACEMENT_3D ( 'NONE', #1000, #865, #625 ) ;
#813 = VERTEX_POINT ( 'NONE', #971 ) ;
#814 = EDGE_CURVE ( 'NONE', #569, #828, #745, .T. ) ;
#815 = AXIS2_PLACEMENT_3D ( 'NONE', #963, #49, #213 ) ;
#816 = ORIENTED_EDGE ( 'NONE', *, *, #356, .F. ) ;
#817 = DIRECTION ( 'NONE',  ( 8.607594936709185439E-17, 1.000000000000000000, -0.000000000000000000 ) ) ;
#818 = VECTOR ( 'NONE', #48, 1000.000000000000000 ) ;
#819 = DIRECTION ( 'NONE',  ( 1.000000000000000000, 0.000000000000000000, 0.000000000000000000 ) ) ;
#820 = CARTESIAN_POINT ( 'NONE',  ( 5.292405063291083963E-15, 60.99999999999820943, 0.000000000000000000 ) ) ;
#821 = ORIENTED_EDGE ( 'NONE', *, *, #896, .F. ) ;
#822 = CARTESIAN_POINT ( 'NONE',  ( 5.183965926281953844E-15, 59.74019237886277267, 0.000000000000000000 ) ) ;
#823 = EDGE_CURVE ( 'NONE', #507, #13, #583, .T. ) ;
#824 = LINE ( 'NONE', #124, #818 ) ;
#825 = AXIS2_PLACEMENT_3D ( 'NONE', #341, #481, #941 ) ;
#826 = ORIENTED_EDGE ( 'NONE', *, *, #706, .F. ) ;
#827 = CONICAL_SURFACE ( 'NONE', #260, 6.249999999999944045, 0.7853981633974188581 ) ;
#828 = VERTEX_POINT ( 'NONE', #359 ) ;
#829 = CIRCLE ( 'NONE', #50, 0.4000000000000270561 ) ;
#830 = CARTESIAN_POINT ( 'NONE',  ( 7.100000000000000986E-15, 81.99999999999806732, 0.000000000000000000 ) ) ;
#831 = CIRCLE ( 'NONE', #711, 6.000000000000000000 ) ;
#832 = ORIENTED_EDGE ( 'NONE', *, *, #301, .F. ) ;
#833 = ORIENTED_EDGE ( 'NONE', *, *, #189, .F. ) ;
#834 = DIRECTION ( 'NONE',  ( -1.000000000000000000, 8.673617379883940562E-17, 0.000000000000000000 ) ) ;
#835 = CARTESIAN_POINT ( 'NONE',  ( 5.250000000000001776, 67.99999999999812417, 6.429395695523600208E-16 ) ) ;
#836 = EDGE_CURVE ( 'NONE', #494, #378, #144, .T. ) ;
#837 = EDGE_LOOP ( 'NONE', ( #126, #470, #21, #347 ) ) ;
#838 = FACE_OUTER_BOUND ( 'NONE', #755, .T. ) ;
#839 = CARTESIAN_POINT ( 'NONE',  ( 1.808727538050647155E-15, 20.52786404500053763, 0.000000000000000000 ) ) ;
#840 = VECTOR ( 'NONE', #947, 1000.000000000000227 ) ;
#841 = ORIENTED_EDGE ( 'NONE', *, *, #60, .T. ) ;
#842 = EDGE_CURVE ( 'NONE', #780, #937, #242, .T. ) ;
#843 = STYLED_ITEM ( 'NONE', ( #542 ), #215 ) ;
#844 = DIRECTION ( 'NONE',  ( -0.4999999999999930056, -0.8660254037844427044, 6.123233995736679754E-17 ) ) ;
#845 = ORIENTED_EDGE ( 'NONE', *, *, #665, .T. ) ;
#846 = EDGE_CURVE ( 'NONE', #813, #89, #237, .T. ) ;
#847 = DIRECTION ( 'NONE',  ( -1.000000000000000000, 8.607594936709185439E-17, 0.000000000000000000 ) ) ;
#848 = DIRECTION ( 'NONE',  ( 8.607594936709185439E-17, 1.000000000000000000, -0.000000000000000000 ) ) ;
#849 = LINE ( 'NONE', #928, #668 ) ;
#850 = CIRCLE ( 'NONE', #408, 6.067157287525335008 ) ;
#851 = ORIENTED_EDGE ( 'NONE', *, *, #122, .F. ) ;
#852 = DIRECTION ( 'NONE',  ( 8.607594936709185439E-17, 1.000000000000000000, -0.000000000000000000 ) ) ;
#853 = DIRECTION ( 'NONE',  ( 8.607594936709185439E-17, 1.000000000000000000, -0.000000000000000000 ) ) ;
#854 = EDGE_CURVE ( 'NONE', #422, #269, #676, .T. ) ;
#855 = LINE ( 'NONE', #82, #518 ) ;
#856 = CARTESIAN_POINT ( 'NONE',  ( 10.00000000000020606, 81.99999999999806732, 1.224646799147377711E-15 ) ) ;
#857 = AXIS2_PLACEMENT_3D ( 'NONE', #207, #508, #281 ) ;
#858 =( NAMED_UNIT ( * ) PLANE_ANGLE_UNIT ( ) SI_UNIT ( $, .RADIAN. ) );
#859 = AXIS2_PLACEMENT_3D ( 'NONE', #531, #915, #71 ) ;
#860 = ORIENTED_EDGE ( 'NONE', *, *, #726, .T. ) ;
#861 = LINE ( 'NONE', #693, #200 ) ;
#862 = CARTESIAN_POINT ( 'NONE',  ( -6.349999999999960565, 60.53431457504893842, 0.000000000000000000 ) ) ;
#863 = ORIENTED_EDGE ( 'NONE', *, *, #823, .F. ) ;
#864 = EDGE_CURVE ( 'NONE', #752, #255, #115, .T. ) ;
#865 = DIRECTION ( 'NONE',  ( 8.607594936709185439E-17, 1.000000000000000000, -0.000000000000000000 ) ) ;
#866 = CARTESIAN_POINT ( 'NONE',  ( -12.49999999999998046, 59.79999999999815685, 0.000000000000000000 ) ) ;
#867 = PRODUCT_CONTEXT ( 'NONE', #519, 'mechanical' ) ;
#868 = EDGE_LOOP ( 'NONE', ( #656, #929 ) ) ;
#869 = ADVANCED_FACE ( 'NONE', ( #459 ), #217, .F. ) ;
#870 = ORIENTED_EDGE ( 'NONE', *, *, #301, .T. ) ;
#871 = CIRCLE ( 'NONE', #557, 12.50000000000006040 ) ;
#872 = CARTESIAN_POINT ( 'NONE',  ( 5.252320748232159539E-15, 60.53431457504895263, 0.000000000000000000 ) ) ;
#873 = ORIENTED_EDGE ( 'NONE', *, *, #793, .T. ) ;
#874 = ORIENTED_EDGE ( 'NONE', *, *, #836, .F. ) ;
#875 = CARTESIAN_POINT ( 'NONE',  ( 10.00000000000028955, 20.52786404500053763, 1.377727649040793491E-15 ) ) ;
#876 = CARTESIAN_POINT ( 'NONE',  ( 5.749999999999979572, 65.99999999999810996, 0.000000000000000000 ) ) ;
#877 = ORIENTED_EDGE ( 'NONE', *, *, #466, .F. ) ;
#878 = EDGE_LOOP ( 'NONE', ( #563, #874, #870, #302 ) ) ;
#879 = CARTESIAN_POINT ( 'NONE',  ( -5.950000000000001066, 60.08660254037661019, 0.000000000000000000 ) ) ;
#880 = CARTESIAN_POINT ( 'NONE',  ( -7.000000000000153655, 59.99999999999818812, 0.000000000000000000 ) ) ;
#881 = CARTESIAN_POINT ( 'NONE',  ( 6.841772151898724646E-15, 78.99999999999805311, 0.000000000000000000 ) ) ;
#882 = EDGE_CURVE ( 'NONE', #255, #752, #632, .T. ) ;
#883 = EDGE_LOOP ( 'NONE', ( #447, #63, #970, #610 ) ) ;
#884 = ORIENTED_EDGE ( 'NONE', *, *, #128, .F. ) ;
#885 = DIRECTION ( 'NONE',  ( 8.607594936709185439E-17, 1.000000000000000000, -0.000000000000000000 ) ) ;
#886 = CARTESIAN_POINT ( 'NONE',  ( -5.249999999999991118, 67.99999999999812417, 0.000000000000000000 ) ) ;
#887 =( NAMED_UNIT ( * ) SI_UNIT ( $, .STERADIAN. ) SOLID_ANGLE_UNIT ( ) );
#888 = DIRECTION ( 'NONE',  ( 0.8660254037844394848, 0.4999999999999985012, 1.060575238724907901E-16 ) ) ;
#889 = CIRCLE ( 'NONE', #547, 0.8000000000000064837 ) ;
#890 = VERTEX_POINT ( 'NONE', #164 ) ;
#891 = CYLINDRICAL_SURFACE ( 'NONE', #177, 10.00000000000019895 ) ;
#892 = ADVANCED_FACE ( 'NONE', ( #74 ), #464, .F. ) ;
#893 = FACE_OUTER_BOUND ( 'NONE', #181, .T. ) ;
#894 = AXIS2_PLACEMENT_3D ( 'NONE', #790, #954, #184 ) ;
#895 = EDGE_LOOP ( 'NONE', ( #398, #482, #860, #906 ) ) ;
#896 = EDGE_CURVE ( 'NONE', #752, #569, #861, .T. ) ;
#897 = AXIS2_PLACEMENT_3D ( 'NONE', #839, #618, #679 ) ;
#898 = EDGE_LOOP ( 'NONE', ( #405, #597, #816, #109 ) ) ;
#899 = DIRECTION ( 'NONE',  ( 8.607594936709185439E-17, 1.000000000000000000, -0.000000000000000000 ) ) ;
#900 = AXIS2_PLACEMENT_3D ( 'NONE', #982, #751, #350 ) ;
#901 = DIRECTION ( 'NONE',  ( -1.000000000000000000, 0.000000000000000000, 0.000000000000000000 ) ) ;
#902 = CARTESIAN_POINT ( 'NONE',  ( 12.49999999999999112, 59.79999999999815685, 1.530808498934191916E-15 ) ) ;
#903 = ORIENTED_EDGE ( 'NONE', *, *, #606, .F. ) ;
#904 = DIRECTION ( 'NONE',  ( 8.607594936709185439E-17, 1.000000000000000000, -0.000000000000000000 ) ) ;
#905 = DIRECTION ( 'NONE',  ( 8.607594936709185439E-17, 1.000000000000000000, -0.000000000000000000 ) ) ;
#906 = ORIENTED_EDGE ( 'NONE', *, *, #221, .F. ) ;
#907 = VECTOR ( 'NONE', #7, 1000.000000000000000 ) ;
#908 = CARTESIAN_POINT ( 'NONE',  ( 5.844931101099561561E-15, 67.41905249806704603, 0.000000000000000000 ) ) ;
#909 = EDGE_CURVE ( 'NONE', #55, #645, #163, .T. ) ;
#910 =( GEOMETRIC_REPRESENTATION_CONTEXT ( 3 ) GLOBAL_UNCERTAINTY_ASSIGNED_CONTEXT ( ( #176 ) ) GLOBAL_UNIT_ASSIGNED_CONTEXT ( ( #331, #713, #268 ) ) REPRESENTATION_CONTEXT ( 'NONE', 'WORKASPACE' ) );
#911 = CARTESIAN_POINT ( 'NONE',  ( 5.950000000000011724, 60.08660254037661019, 7.654042494670961551E-16 ) ) ;
#912 = ORIENTED_EDGE ( 'NONE', *, *, #710, .T. ) ;
#913 = AXIS2_PLACEMENT_3D ( 'NONE', #335, #166, #96 ) ;
#914 = LINE ( 'NONE', #524, #382 ) ;
#915 = DIRECTION ( 'NONE',  ( 8.607594936709185439E-17, 1.000000000000000000, -0.000000000000000000 ) ) ;
#916 = ORIENTED_EDGE ( 'NONE', *, *, #150, .T. ) ;
#917 = CARTESIAN_POINT ( 'NONE',  ( 6.071532165918824830E-15, 67.41905249806701761, 0.000000000000000000 ) ) ;
#918 = ADVANCED_FACE ( 'NONE', ( #311 ), #729, .T. ) ;
#919 = FACE_OUTER_BOUND ( 'NONE', #949, .T. ) ;
#920 = AXIS2_PLACEMENT_3D ( 'NONE', #872, #492, #102 ) ;
#921 = AXIS2_PLACEMENT_3D ( 'NONE', #620, #222, #834 ) ;
#922 = DIRECTION ( 'NONE',  ( -1.000000000000000000, 8.607594936709185439E-17, 0.000000000000000000 ) ) ;
#923 = CARTESIAN_POINT ( 'NONE',  ( 5.276666703229974029E-15, 60.81715728752354266, 0.000000000000000000 ) ) ;
#924 = EDGE_CURVE ( 'NONE', #574, #569, #926, .T. ) ;
#925 = ADVANCED_FACE ( 'NONE', ( #10 ), #233, .T. ) ;
#926 = LINE ( 'NONE', #704, #762 ) ;
#927 = CARTESIAN_POINT ( 'NONE',  ( 5.189113924050570114E-15, 59.79999999999815685, 0.000000000000000000 ) ) ;
#928 = CARTESIAN_POINT ( 'NONE',  ( -2.302085213965210500E-15, 3.000000000001029399, 0.000000000000000000 ) ) ;
#929 = ORIENTED_EDGE ( 'NONE', *, *, #756, .T. ) ;
#930 = CARTESIAN_POINT ( 'NONE',  ( 7.100000000000000986E-15, 81.99999999999806732, 0.000000000000000000 ) ) ;
#931 = CARTESIAN_POINT ( 'NONE',  ( 5.963832620722159600E-16, 6.443276132898703601, 0.000000000000000000 ) ) ;
#932 = DIRECTION ( 'NONE',  ( 8.607594936709185439E-17, 1.000000000000000000, -0.000000000000000000 ) ) ;
#933 = DIRECTION ( 'NONE',  ( -1.000000000000000000, 0.000000000000000000, 0.000000000000000000 ) ) ;
#934 = CIRCLE ( 'NONE', #450, 4.267949192431145455 ) ;
#935 = EDGE_CURVE ( 'NONE', #336, #89, #15, .T. ) ;
#936 = DIRECTION ( 'NONE',  ( 1.000000000000000000, 0.000000000000000000, 1.224646799147353207E-16 ) ) ;
#937 = VERTEX_POINT ( 'NONE', #619 ) ;
#938 = TOROIDAL_SURFACE ( 'NONE', #987, 5.800000000000002487, 0.7999999999999927169 ) ;
#939 = DIRECTION ( 'NONE',  ( -1.000000000000000000, 0.000000000000000000, 0.000000000000000000 ) ) ;
#940 = CIRCLE ( 'NONE', #18, 6.550000000000012257 ) ;
#941 = DIRECTION ( 'NONE',  ( -1.000000000000000000, 0.000000000000000000, 0.000000000000000000 ) ) ;
#942 = ADVANCED_FACE ( 'NONE', ( #543 ), #938, .F. ) ;
#943 = DIRECTION ( 'NONE',  ( 8.607594936709185439E-17, 1.000000000000000000, -0.000000000000000000 ) ) ;
#944 = EDGE_LOOP ( 'NONE', ( #884, #334, #99 ) ) ;
#945 = AXIS2_PLACEMENT_3D ( 'NONE', #224, #853, #81 ) ;
#946 = ORIENTED_EDGE ( 'NONE', *, *, #189, .T. ) ;
#947 = DIRECTION ( 'NONE',  ( 0.4999999999999928946, -0.8660254037844427044, 0.000000000000000000 ) ) ;
#948 = EDGE_CURVE ( 'NONE', #950, #336, #855, .T. ) ;
#949 = EDGE_LOOP ( 'NONE', ( #216, #561, #791, #826 ) ) ;
#950 = VERTEX_POINT ( 'NONE', #319 ) ;
#951 = AXIS2_PLACEMENT_3D ( 'NONE', #75, #613, #603 ) ;
#952 = DIRECTION ( 'NONE',  ( -0.8660254037844393737, 0.4999999999999985567, 0.000000000000000000 ) ) ;
#953 = AXIS2_PLACEMENT_3D ( 'NONE', #535, #848, #376 ) ;
#954 = DIRECTION ( 'NONE',  ( -0.000000000000000000, 0.000000000000000000, -1.000000000000000000 ) ) ;
#955 = EDGE_LOOP ( 'NONE', ( #570, #94, #406, #14 ) ) ;
#956 = ORIENTED_EDGE ( 'NONE', *, *, #836, .T. ) ;
#957 = LINE ( 'NONE', #113, #370 ) ;
#958 = DIRECTION ( 'NONE',  ( -1.000000000000000000, 8.607594936709185439E-17, 0.000000000000000000 ) ) ;
#959 = VERTEX_POINT ( 'NONE', #630 ) ;
#960 = ORIENTED_EDGE ( 'NONE', *, *, #232, .T. ) ;
#961 = LINE ( 'NONE', #317, #194 ) ;
#962 = DIRECTION ( 'NONE',  ( -1.000000000000000000, 0.000000000000000000, 0.000000000000000000 ) ) ;
#963 = CARTESIAN_POINT ( 'NONE',  ( 7.100000000000000986E-15, 81.99999999999806732, 0.000000000000000000 ) ) ;
#964 = ORIENTED_EDGE ( 'NONE', *, *, #112, .F. ) ;
#965 = DIRECTION ( 'NONE',  ( -0.000000000000000000, 0.000000000000000000, -1.000000000000000000 ) ) ;
#966 = AXIS2_PLACEMENT_3D ( 'NONE', #633, #549, #323 ) ;
#967 = CARTESIAN_POINT ( 'NONE',  ( 6.841772151898724646E-15, 78.99999999999805311, 0.000000000000000000 ) ) ;
#968 = EDGE_CURVE ( 'NONE', #517, #959, #472, .T. ) ;
#969 = LINE ( 'NONE', #741, #236 ) ;
#970 = ORIENTED_EDGE ( 'NONE', *, *, #330, .F. ) ;
#971 = CARTESIAN_POINT ( 'NONE',  ( 12.29999999999999005, 59.99999999999820943, 0.000000000000000000 ) ) ;
#972 = FACE_OUTER_BOUND ( 'NONE', #635, .T. ) ;
#973 = PRODUCT_DEFINITION_FORMATION_WITH_SPECIFIED_SOURCE ( 'ANY', '', #284, .NOT_KNOWN. ) ;
#974 = CARTESIAN_POINT ( 'NONE',  ( -10.00000000000011369, 6.443276132898703601, 0.000000000000000000 ) ) ;
#975 = ADVANCED_FACE ( 'NONE', ( #709 ), #25, .T. ) ;
#976 = CONICAL_SURFACE ( 'NONE', #202, 7.000000000000158096, 1.047197551196599408 ) ;
#977 = ORIENTED_EDGE ( 'NONE', *, *, #247, .T. ) ;
#978 = CONICAL_SURFACE ( 'NONE', #152, 6.000000000000000000, 0.5235987755982907110 ) ;
#979 = CARTESIAN_POINT ( 'NONE',  ( 7.000000000000163425, 59.99999999999819522, 0.000000000000000000 ) ) ;
#980 = DIRECTION ( 'NONE',  ( 8.607594936709185439E-17, 1.000000000000000000, -0.000000000000000000 ) ) ;
#981 = ORIENTED_EDGE ( 'NONE', *, *, #221, .T. ) ;
#982 = CARTESIAN_POINT ( 'NONE',  ( 5.204170427930421283E-15, 60.53431457504893842, 0.000000000000000000 ) ) ;
#983 = FACE_OUTER_BOUND ( 'NONE', #444, .T. ) ;
#984 = ORIENTED_EDGE ( 'NONE', *, *, #150, .F. ) ;
#985 = VECTOR ( 'NONE', #456, 1000.000000000000114 ) ;
#986 = DIRECTION ( 'NONE',  ( -8.607594936709185439E-17, -1.000000000000000000, 0.000000000000000000 ) ) ;
#987 = AXIS2_PLACEMENT_3D ( 'NONE', #160, #462, #777 ) ;
#988 = CARTESIAN_POINT ( 'NONE',  ( 5.844931101099561561E-15, 67.41905249806704603, 0.000000000000000000 ) ) ;
#989 = AXIS2_PLACEMENT_3D ( 'NONE', #811, #424, #106 ) ;
#990 = DIRECTION ( 'NONE',  ( -8.607594936709185439E-17, -1.000000000000000000, 0.000000000000000000 ) ) ;
#991 = DIRECTION ( 'NONE',  ( -1.000000000000000000, 0.000000000000000000, 0.000000000000000000 ) ) ;
#992 = ORIENTED_EDGE ( 'NONE', *, *, #291, .T. ) ;
#993 = EDGE_CURVE ( 'NONE', #173, #752, #343, .T. ) ;
#994 = LINE ( 'NONE', #768, #496 ) ;
#995 = EDGE_CURVE ( 'NONE', #325, #959, #831, .T. ) ;
#996 = CARTESIAN_POINT ( 'NONE',  ( 5.000000000000015987, 66.79843597113166709, 6.582476545417014213E-16 ) ) ;
#997 = CIRCLE ( 'NONE', #966, 10.00000000000028777 ) ;
#998 = CIRCLE ( 'NONE', #646, 7.000000000000158096 ) ;
#999 = CIRCLE ( 'NONE', #757, 6.249999999999944933 ) ;
#1000 = CARTESIAN_POINT ( 'NONE',  ( 5.213783509804665663E-15, 60.08660254037661019, 0.000000000000000000 ) ) ;
#1001 = DIRECTION ( 'NONE',  ( 8.607594936709185439E-17, 1.000000000000000000, -0.000000000000000000 ) ) ;
#1002 =( LENGTH_UNIT ( ) NAMED_UNIT ( * ) SI_UNIT ( .MILLI., .METRE. ) );
ENDSEC;
END-ISO-10303-21;
