ISO-10303-21;
HEADER;
FILE_DESCRIPTION (( 'STEP AP214' ),
    '1' );
FILE_NAME ('99688-SI08-M05+S9MT0802-090.STEP',
    '2023-09-26T05:28:14',
    ( '' ),
    ( '' ),
    'SwSTEP 2.0',
    'SolidWorks 2020',
    '' );
FILE_SCHEMA (( 'AUTOMOTIVE_DESIGN' ));
ENDSEC;

DATA;
#1 = CARTESIAN_POINT ( 'NONE',  ( 2.099999999999916156, 34.99999999999995026, 0.000000000000000000 ) ) ;
#2 = DIRECTION ( 'NONE',  ( -5.071428571428576922E-16, -1.000000000000000000, 0.000000000000000000 ) ) ;
#3 = EDGE_LOOP ( 'NONE', ( #862, #541 ) ) ;
#4 = ADVANCED_FACE ( 'NONE', ( #546 ), #388, .T. ) ;
#5 = CARTESIAN_POINT ( 'NONE',  ( -2.999999999999873435, 28.99999999999997513, 0.000000000000000000 ) ) ;
#6 = DIRECTION ( 'NONE',  ( -1.000000000000000000, 0.000000000000000000, 0.000000000000000000 ) ) ;
#7 = ORIENTED_EDGE ( 'NONE', *, *, #188, .T. ) ;
#8 = EDGE_CURVE ( 'NONE', #536, #219, #602, .T. ) ;
#9 = VECTOR ( 'NONE', #902, 1000.000000000000000 ) ;
#10 = FACE_OUTER_BOUND ( 'NONE', #117, .T. ) ;
#11 = DIRECTION ( 'NONE',  ( -1.000000000000000000, 0.000000000000000000, 0.000000000000000000 ) ) ;
#12 = CIRCLE ( 'NONE', #107, 2.567156999999821831 ) ;
#13 = DIRECTION ( 'NONE',  ( 1.224646799147353207E-16, -6.210708767104441324E-32, 1.000000000000000000 ) ) ;
#14 = ADVANCED_FACE ( 'NONE', ( #597 ), #432, .T. ) ;
#15 = FACE_BOUND ( 'NONE', #765, .T. ) ;
#16 = VERTEX_POINT ( 'NONE', #26 ) ;
#17 = ORIENTED_EDGE ( 'NONE', *, *, #53, .F. ) ;
#18 = CARTESIAN_POINT ( 'NONE',  ( -2.750000017484280690, 28.85566196971615938, 0.000000000000000000 ) ) ;
#19 = FACE_OUTER_BOUND ( 'NONE', #178, .T. ) ;
#20 = EDGE_CURVE ( 'NONE', #718, #772, #738, .T. ) ;
#21 = DIRECTION ( 'NONE',  ( -5.071428571428576922E-16, -1.000000000000000000, -0.000000000000000000 ) ) ;
#22 = ORIENTED_EDGE ( 'NONE', *, *, #572, .F. ) ;
#23 = CARTESIAN_POINT ( 'NONE',  ( 1.774999999999999379E-14, 34.99999999999995026, 0.000000000000000000 ) ) ;
#24 = CARTESIAN_POINT ( 'NONE',  ( 5.421565327993915192E-15, 10.69041050590348263, 0.000000000000000000 ) ) ;
#25 = EDGE_CURVE ( 'NONE', #669, #320, #307, .T. ) ;
#26 = CARTESIAN_POINT ( 'NONE',  ( -2.499999999999843681, 34.99999999999995026, 3.061616997868215015E-16 ) ) ;
#27 = ORIENTED_EDGE ( 'NONE', *, *, #652, .T. ) ;
#28 = ORIENTED_EDGE ( 'NONE', *, *, #526, .T. ) ;
#29 = AXIS2_PLACEMENT_3D ( 'NONE', #889, #628, #242 ) ;
#30 = AXIS2_PLACEMENT_3D ( 'NONE', #460, #95, #32 ) ;
#31 = AXIS2_PLACEMENT_3D ( 'NONE', #879, #817, #175 ) ;
#32 = DIRECTION ( 'NONE',  ( -1.000000000000000000, 4.336808689945227414E-16, 0.000000000000000000 ) ) ;
#33 = ORIENTED_EDGE ( 'NONE', *, *, #380, .F. ) ;
#34 = EDGE_CURVE ( 'NONE', #691, #202, #454, .T. ) ;
#35 = DIRECTION ( 'NONE',  ( -5.071428571428576922E-16, -1.000000000000000000, -0.000000000000000000 ) ) ;
#36 = FACE_OUTER_BOUND ( 'NONE', #586, .T. ) ;
#37 = ORIENTED_EDGE ( 'NONE', *, *, #237, .T. ) ;
#38 = ORIENTED_EDGE ( 'NONE', *, *, #260, .F. ) ;
#39 = DIRECTION ( 'NONE',  ( 1.000000000000000000, 0.000000000000000000, 0.000000000000000000 ) ) ;
#40 = ADVANCED_FACE ( 'NONE', ( #303 ), #319, .T. ) ;
#41 = CARTESIAN_POINT ( 'NONE',  ( -2.567156999999806732, 29.81715700000004077, 0.000000000000000000 ) ) ;
#42 = ORIENTED_EDGE ( 'NONE', *, *, #459, .F. ) ;
#43 = DIRECTION ( 'NONE',  ( -5.071428571428576922E-16, -1.000000000000000000, -0.000000000000000000 ) ) ;
#44 = CARTESIAN_POINT ( 'NONE',  ( 2.999999999999897859, 28.99999999999997513, 3.673940397441916394E-16 ) ) ;
#45 = AXIS2_PLACEMENT_3D ( 'NONE', #582, #903, #914 ) ;
#46 = ORIENTED_EDGE ( 'NONE', *, *, #473, .T. ) ;
#47 = AXIS2_PLACEMENT_3D ( 'NONE', #887, #884, #317 ) ;
#48 = FACE_OUTER_BOUND ( 'NONE', #598, .T. ) ;
#49 = VERTEX_POINT ( 'NONE', #451 ) ;
#50 = LINE ( 'NONE', #750, #149 ) ;
#51 = DIRECTION ( 'NONE',  ( -5.071428571428576922E-16, -1.000000000000000000, -0.000000000000000000 ) ) ;
#52 = LINE ( 'NONE', #41, #192 ) ;
#53 = EDGE_CURVE ( 'NONE', #320, #83, #381, .T. ) ;
#54 = VERTEX_POINT ( 'NONE', #99 ) ;
#55 = EDGE_CURVE ( 'NONE', #772, #521, #803, .T. ) ;
#56 = SURFACE_STYLE_USAGE ( .BOTH. , #410 ) ;
#57 = CARTESIAN_POINT ( 'NONE',  ( 1.463394285607035565E-14, 28.85566196971615938, 0.000000000000000000 ) ) ;
#58 = VERTEX_POINT ( 'NONE', #161 ) ;
#59 = DIRECTION ( 'NONE',  ( -0.8660246941625429073, 0.5000012290991634467, 0.000000000000000000 ) ) ;
#60 = AXIS2_PLACEMENT_3D ( 'NONE', #347, #271, #568 ) ;
#61 = CIRCLE ( 'NONE', #591, 2.099999999999898392 ) ;
#62 = CIRCLE ( 'NONE', #483, 4.999999999999874767 ) ;
#63 = AXIS2_PLACEMENT_3D ( 'NONE', #180, #383, #468 ) ;
#64 = EDGE_CURVE ( 'NONE', #890, #691, #924, .T. ) ;
#65 = VERTEX_POINT ( 'NONE', #530 ) ;
#66 = DIRECTION ( 'NONE',  ( 5.071428571428576922E-16, 1.000000000000000000, 0.000000000000000000 ) ) ;
#67 = ORIENTED_EDGE ( 'NONE', *, *, #55, .T. ) ;
#68 = FACE_OUTER_BOUND ( 'NONE', #576, .T. ) ;
#69 = VERTEX_POINT ( 'NONE', #235 ) ;
#70 = FACE_BOUND ( 'NONE', #567, .T. ) ;
#71 = DIRECTION ( 'NONE',  ( -5.071428571428576922E-16, -1.000000000000000000, -0.000000000000000000 ) ) ;
#72 = EDGE_CURVE ( 'NONE', #516, #772, #74, .T. ) ;
#73 = AXIS2_PLACEMENT_3D ( 'NONE', #217, #573, #696 ) ;
#74 = CIRCLE ( 'NONE', #699, 0.7999999999991158628 ) ;
#75 = CIRCLE ( 'NONE', #500, 4.999999999999874767 ) ;
#76 = ORIENTED_EDGE ( 'NONE', *, *, #911, .T. ) ;
#77 = PLANE ( 'NONE',  #906 ) ;
#78 = DIRECTION ( 'NONE',  ( 1.000000000000000000, 0.000000000000000000, 0.000000000000000000 ) ) ;
#79 = DIRECTION ( 'NONE',  ( -0.8660254037843165831, 0.5000000000002112754, 0.000000000000000000 ) ) ;
#80 = ORIENTED_EDGE ( 'NONE', *, *, #601, .F. ) ;
#81 = CARTESIAN_POINT ( 'NONE',  ( 2.749999999999900080, 33.34999999999999432, 0.000000000000000000 ) ) ;
#82 = CARTESIAN_POINT ( 'NONE',  ( -3.999999999997035260, 7.928768482281131291, 0.000000000000000000 ) ) ;
#83 = VERTEX_POINT ( 'NONE', #822 ) ;
#84 = ORIENTED_EDGE ( 'NONE', *, *, #911, .F. ) ;
#85 = CIRCLE ( 'NONE', #326, 2.499999999999858336 ) ;
#86 = AXIS2_PLACEMENT_3D ( 'NONE', #214, #66, #493 ) ;
#87 = VECTOR ( 'NONE', #299, 1000.000000000000114 ) ;
#88 = ADVANCED_FACE ( 'NONE', ( #314 ), #173, .T. ) ;
#89 = AXIS2_PLACEMENT_3D ( 'NONE', #577, #212, #422 ) ;
#90 = CARTESIAN_POINT ( 'NONE',  ( 0.000000000000000000, 0.000000000000000000, 0.000000000000000000 ) ) ;
#91 = DIRECTION ( 'NONE',  ( 1.000000000000000000, 0.000000000000000000, 0.000000000000000000 ) ) ;
#92 = DIRECTION ( 'NONE',  ( -5.071428571428576922E-16, -1.000000000000000000, -0.000000000000000000 ) ) ;
#93 = DIRECTION ( 'NONE',  ( 0.7071067811865398012, -0.7071067811865551223, 0.000000000000000000 ) ) ;
#94 = LINE ( 'NONE', #225, #312 ) ;
#95 = DIRECTION ( 'NONE',  ( 5.071428571428576922E-16, 1.000000000000000000, 0.000000000000000000 ) ) ;
#96 = CARTESIAN_POINT ( 'NONE',  ( 2.499999999999879208, 40.99999999999995737, 0.000000000000000000 ) ) ;
#97 = DIRECTION ( 'NONE',  ( 1.000000000000000000, 0.000000000000000000, 0.000000000000000000 ) ) ;
#98 = ADVANCED_FACE ( 'NONE', ( #557 ), #647, .T. ) ;
#99 = CARTESIAN_POINT ( 'NONE',  ( 2.099999999999916156, 33.99999999999997158, 0.000000000000000000 ) ) ;
#100 = ORIENTED_EDGE ( 'NONE', *, *, #849, .F. ) ;
#101 = DIRECTION ( 'NONE',  ( 1.224646799147353207E-16, -6.210708767104441324E-32, 1.000000000000000000 ) ) ;
#102 = AXIS2_PLACEMENT_3D ( 'NONE', #407, #116, #186 ) ;
#103 = SURFACE_STYLE_FILL_AREA ( #741 ) ;
#104 = CONICAL_SURFACE ( 'NONE', #60, 2.749999999999883205, 0.7853981633974485010 ) ;
#105 = LINE ( 'NONE', #888, #794 ) ;
#106 = DIRECTION ( 'NONE',  ( -5.071428571428576922E-16, -1.000000000000000000, -0.000000000000000000 ) ) ;
#107 = AXIS2_PLACEMENT_3D ( 'NONE', #262, #51, #554 ) ;
#108 = EDGE_CURVE ( 'NONE', #912, #252, #328, .T. ) ;
#109 = ORIENTED_EDGE ( 'NONE', *, *, #34, .T. ) ;
#110 =( LENGTH_UNIT ( ) NAMED_UNIT ( * ) SI_UNIT ( .MILLI., .METRE. ) );
#111 = LINE ( 'NONE', #391, #384 ) ;
#112 = CARTESIAN_POINT ( 'NONE',  ( 1.466657142857147323E-14, 28.92000000000005855, 0.000000000000000000 ) ) ;
#113 = ORIENTED_EDGE ( 'NONE', *, *, #916, .T. ) ;
#114 = ORIENTED_EDGE ( 'NONE', *, *, #380, .T. ) ;
#115 = PRODUCT_DEFINITION ( 'UNKNOWN', '', #403, #804 ) ;
#116 = DIRECTION ( 'NONE',  ( -5.071428571428576922E-16, -1.000000000000000000, -0.000000000000000000 ) ) ;
#117 = EDGE_LOOP ( 'NONE', ( #269, #274, #438, #494 ) ) ;
#118 = EDGE_CURVE ( 'NONE', #224, #443, #543, .T. ) ;
#119 = CONICAL_SURFACE ( 'NONE', #374, 2.999999999999885425, 1.047196131954551079 ) ;
#120 = FACE_OUTER_BOUND ( 'NONE', #366, .T. ) ;
#121 = AXIS2_PLACEMENT_3D ( 'NONE', #826, #184, #734 ) ;
#122 = CIRCLE ( 'NONE', #748, 4.999999999999991118 ) ;
#123 = CIRCLE ( 'NONE', #209, 3.999999999997039701 ) ;
#124 = EDGE_LOOP ( 'NONE', ( #22, #413, #574, #492 ) ) ;
#125 = DIRECTION ( 'NONE',  ( 5.071428571428576922E-16, 1.000000000000000000, 0.000000000000000000 ) ) ;
#126 = DIRECTION ( 'NONE',  ( -5.071428571428576922E-16, -1.000000000000000000, -0.000000000000000000 ) ) ;
#127 = DIRECTION ( 'NONE',  ( -5.071428571428576922E-16, -1.000000000000000000, -0.000000000000000000 ) ) ;
#128 = DIRECTION ( 'NONE',  ( -5.071428571428576922E-16, -1.000000000000000000, -0.000000000000000000 ) ) ;
#129 = VERTEX_POINT ( 'NONE', #469 ) ;
#130 = FACE_OUTER_BOUND ( 'NONE', #3, .T. ) ;
#131 = EDGE_LOOP ( 'NONE', ( #197, #169, #339, #236 ) ) ;
#132 = DIRECTION ( 'NONE',  ( -5.071428571428576922E-16, -1.000000000000000000, -0.000000000000000000 ) ) ;
#133 = ORIENTED_EDGE ( 'NONE', *, *, #865, .F. ) ;
#134 = CARTESIAN_POINT ( 'NONE',  ( -2.499999999999837463, 40.99999999999995737, 3.061616997868210578E-16 ) ) ;
#135 = AXIS2_PLACEMENT_3D ( 'NONE', #624, #92, #172 ) ;
#136 = CIRCLE ( 'NONE', #908, 2.499999999999861444 ) ;
#137 = CIRCLE ( 'NONE', #362, 0.1999999650311923005 ) ;
#138 = ORIENTED_EDGE ( 'NONE', *, *, #237, .F. ) ;
#139 = LINE ( 'NONE', #420, #792 ) ;
#140 = ORIENTED_EDGE ( 'NONE', *, *, #502, .F. ) ;
#141 = ORIENTED_EDGE ( 'NONE', *, *, #639, .T. ) ;
#142 = CARTESIAN_POINT ( 'NONE',  ( -2.099999999999880629, 34.99999999999995026, 2.571758278209317711E-16 ) ) ;
#143 = PRODUCT ( '99688-SI08-M05+S9MT0802-090', '99688-SI08-M05+S9MT0802-090', '', ( #618 ) ) ;
#144 = ORIENTED_EDGE ( 'NONE', *, *, #273, .T. ) ;
#145 = EDGE_LOOP ( 'NONE', ( #467, #67, #797, #904 ) ) ;
#146 = EDGE_CURVE ( 'NONE', #691, #521, #245, .T. ) ;
#147 = DIRECTION ( 'NONE',  ( 1.000000000000000000, -5.071428571428576922E-16, 0.000000000000000000 ) ) ;
#148 = ORIENTED_EDGE ( 'NONE', *, *, #408, .T. ) ;
#149 = VECTOR ( 'NONE', #321, 1000.000000000000000 ) ;
#150 = VECTOR ( 'NONE', #126, 1000.000000000000000 ) ;
#151 = EDGE_CURVE ( 'NONE', #369, #16, #136, .T. ) ;
#152 = CARTESIAN_POINT ( 'NONE',  ( -3.999999999997040590, 2.028571428569929961E-15, 4.898587196585788999E-16 ) ) ;
#153 = ADVANCED_FACE ( 'NONE', ( #334 ), #746, .T. ) ;
#154 = ORIENTED_EDGE ( 'NONE', *, *, #414, .F. ) ;
#155 = CARTESIAN_POINT ( 'NONE',  ( 2.099999999999898836, -1.064999999999949858E-15, 0.000000000000000000 ) ) ;
#156 = DIRECTION ( 'NONE',  ( -5.071428571428576922E-16, -1.000000000000000000, -0.000000000000000000 ) ) ;
#157 = ORIENTED_EDGE ( 'NONE', *, *, #188, .F. ) ;
#158 = ADVANCED_FACE ( 'NONE', ( #325 ), #405, .T. ) ;
#159 = CARTESIAN_POINT ( 'NONE',  ( 2.342392520710926502E-16, 0.4618802153514497966, 0.000000000000000000 ) ) ;
#160 = DIRECTION ( 'NONE',  ( 1.000000000000000000, 0.000000000000000000, 0.000000000000000000 ) ) ;
#161 = CARTESIAN_POINT ( 'NONE',  ( -2.749999999999871214, 29.99999999999997158, 0.000000000000000000 ) ) ;
#162 = TOROIDAL_SURFACE ( 'NONE', #878, 2.649999999999923528, 0.1999999650311921340 ) ;
#163 = AXIS2_PLACEMENT_3D ( 'NONE', #599, #740, #870 ) ;
#164 = AXIS2_PLACEMENT_3D ( 'NONE', #367, #510, #518 ) ;
#165 = DIRECTION ( 'NONE',  ( 1.000000000000000000, -4.743384504629323879E-16, 0.000000000000000000 ) ) ;
#166 = CIRCLE ( 'NONE', #250, 1.499999999999877653 ) ;
#167 = CARTESIAN_POINT ( 'NONE',  ( 2.449999999999938005, 29.02886699999995912, 0.000000000000000000 ) ) ;
#168 = DIRECTION ( 'NONE',  ( 1.000000000000000000, -4.743384504629323879E-16, 0.000000000000000000 ) ) ;
#169 = ORIENTED_EDGE ( 'NONE', *, *, #53, .T. ) ;
#170 = CARTESIAN_POINT ( 'NONE',  ( 0.000000000000000000, 0.000000000000000000, 0.000000000000000000 ) ) ;
#171 = EDGE_CURVE ( 'NONE', #83, #58, #50, .T. ) ;
#172 = DIRECTION ( 'NONE',  ( 1.000000000000000000, -5.071428571428575936E-16, 0.000000000000000000 ) ) ;
#173 = CYLINDRICAL_SURFACE ( 'NONE', #208, 2.099999999999898836 ) ;
#174 = ORIENTED_EDGE ( 'NONE', *, *, #551, .F. ) ;
#175 = DIRECTION ( 'NONE',  ( 1.000000000000000000, 0.000000000000000000, 0.000000000000000000 ) ) ;
#176 = EDGE_CURVE ( 'NONE', #571, #195, #616, .T. ) ;
#177 = CARTESIAN_POINT ( 'NONE',  ( -2.449999999999911360, 1.242499999999956391E-15, 3.000384657910906902E-16 ) ) ;
#178 = EDGE_LOOP ( 'NONE', ( #295, #27, #426, #491 ) ) ;
#179 = ORIENTED_EDGE ( 'NONE', *, *, #737, .T. ) ;
#180 = CARTESIAN_POINT ( 'NONE',  ( 1.497811638571432969E-14, 29.53431400000005169, 0.000000000000000000 ) ) ;
#181 = TOROIDAL_SURFACE ( 'NONE', #294, 2.649999999999923528, 0.1999999650311921340 ) ;
#182 = CIRCLE ( 'NONE', #590, 0.4000000000000010214 ) ;
#183 = DIRECTION ( 'NONE',  ( -5.071428571428576922E-16, -1.000000000000000000, -0.000000000000000000 ) ) ;
#184 = DIRECTION ( 'NONE',  ( -5.071428571428576922E-16, -1.000000000000000000, -0.000000000000000000 ) ) ;
#185 = DIRECTION ( 'NONE',  ( -5.071428571428576922E-16, -1.000000000000000000, -0.000000000000000000 ) ) ;
#186 = DIRECTION ( 'NONE',  ( 1.000000000000000000, 0.000000000000000000, 0.000000000000000000 ) ) ;
#187 = ORIENTED_EDGE ( 'NONE', *, *, #674, .F. ) ;
#188 = EDGE_CURVE ( 'NONE', #58, #593, #267, .T. ) ;
#189 = ORIENTED_EDGE ( 'NONE', *, *, #176, .F. ) ;
#190 = DIRECTION ( 'NONE',  ( -5.071428571428576922E-16, -1.000000000000000000, -0.000000000000000000 ) ) ;
#191 = CIRCLE ( 'NONE', #581, 2.449999999999900258 ) ;
#192 = VECTOR ( 'NONE', #193, 1000.000000000000114 ) ;
#193 = DIRECTION ( 'NONE',  ( -0.7071067811868063657, 0.7071067811862886687, 0.000000000000000000 ) ) ;
#194 = PRESENTATION_LAYER_ASSIGNMENT (  '', '', ( #827 ) ) ;
#195 = VERTEX_POINT ( 'NONE', #409 ) ;
#196 = CARTESIAN_POINT ( 'NONE',  ( 1.466657142857147323E-14, 28.92000000000005855, 0.000000000000000000 ) ) ;
#197 = ORIENTED_EDGE ( 'NONE', *, *, #215, .T. ) ;
#198 = ADVANCED_FACE ( 'NONE', ( #757 ), #834, .T. ) ;
#199 = DIRECTION ( 'NONE',  ( 1.000000000000000000, -5.071428571428576922E-16, 0.000000000000000000 ) ) ;
#200 = ORIENTED_EDGE ( 'NONE', *, *, #338, .F. ) ;
#201 = LINE ( 'NONE', #640, #150 ) ;
#202 = VERTEX_POINT ( 'NONE', #751 ) ;
#203 = DIRECTION ( 'NONE',  ( 1.000000000000000000, 0.000000000000000000, 0.000000000000000000 ) ) ;
#204 = ORIENTED_EDGE ( 'NONE', *, *, #34, .F. ) ;
#205 = FACE_OUTER_BOUND ( 'NONE', #552, .T. ) ;
#206 = CIRCLE ( 'NONE', #327, 0.4000000000000010214 ) ;
#207 = EDGE_CURVE ( 'NONE', #516, #129, #111, .T. ) ;
#208 = AXIS2_PLACEMENT_3D ( 'NONE', #608, #885, #239 ) ;
#209 = AXIS2_PLACEMENT_3D ( 'NONE', #570, #43, #481 ) ;
#210 = AXIS2_PLACEMENT_3D ( 'NONE', #159, #371, #165 ) ;
#211 = EDGE_LOOP ( 'NONE', ( #244, #509, #727, #154 ) ) ;
#212 = DIRECTION ( 'NONE',  ( -5.071428571428576922E-16, -1.000000000000000000, -0.000000000000000000 ) ) ;
#213 = ORIENTED_EDGE ( 'NONE', *, *, #118, .T. ) ;
#214 = CARTESIAN_POINT ( 'NONE',  ( 5.071428571428576938E-13, 1000.000000000000000, 0.000000000000000000 ) ) ;
#215 = EDGE_CURVE ( 'NONE', #54, #320, #515, .T. ) ;
#216 = ORIENTED_EDGE ( 'NONE', *, *, #254, .F. ) ;
#217 = CARTESIAN_POINT ( 'NONE',  ( 0.000000000000000000, 0.000000000000000000, 0.000000000000000000 ) ) ;
#218 = EDGE_LOOP ( 'NONE', ( #860, #42, #785, #828 ) ) ;
#219 = VERTEX_POINT ( 'NONE', #96 ) ;
#220 = CIRCLE ( 'NONE', #661, 2.749999999999884981 ) ;
#221 = ORIENTED_EDGE ( 'NONE', *, *, #72, .T. ) ;
#222 = AXIS2_PLACEMENT_3D ( 'NONE', #760, #185, #39 ) ;
#223 = ADVANCED_FACE ( 'NONE', ( #10 ), #297, .T. ) ;
#224 = VERTEX_POINT ( 'NONE', #802 ) ;
#225 = CARTESIAN_POINT ( 'NONE',  ( 2.567156999999836930, 29.81715700000004077, 3.143860602958503866E-16 ) ) ;
#226 = CARTESIAN_POINT ( 'NONE',  ( 3.999999999997044142, 7.928768482281127739, 4.898587196585788013E-16 ) ) ;
#227 = CYLINDRICAL_SURFACE ( 'NONE', #135, 4.999999999999933387 ) ;
#228 = CARTESIAN_POINT ( 'NONE',  ( 1.512155819285717991E-14, 29.81715700000004077, 0.000000000000000000 ) ) ;
#229 = DIRECTION ( 'NONE',  ( -5.071428571428576922E-16, -1.000000000000000000, -0.000000000000000000 ) ) ;
#230 = DIRECTION ( 'NONE',  ( 1.000000000000000000, -4.336808689945227414E-16, 0.000000000000000000 ) ) ;
#231 = VECTOR ( 'NONE', #93, 1000.000000000000114 ) ;
#232 = AXIS2_PLACEMENT_3D ( 'NONE', #453, #156, #893 ) ;
#233 = FACE_OUTER_BOUND ( 'NONE', #324, .T. ) ;
#234 = FACE_OUTER_BOUND ( 'NONE', #218, .T. ) ;
#235 = CARTESIAN_POINT ( 'NONE',  ( -4.999999999999869438, 10.69041050590348618, 0.000000000000000000 ) ) ;
#236 = ORIENTED_EDGE ( 'NONE', *, *, #897, .F. ) ;
#237 = EDGE_CURVE ( 'NONE', #890, #69, #721, .T. ) ;
#238 = DIRECTION ( 'NONE',  ( 1.000000000000000000, -5.071428571428576922E-16, 0.000000000000000000 ) ) ;
#239 = DIRECTION ( 'NONE',  ( 1.000000000000000000, -5.071428571428576922E-16, 0.000000000000000000 ) ) ;
#240 = FACE_OUTER_BOUND ( 'NONE', #289, .T. ) ;
#241 = EDGE_CURVE ( 'NONE', #813, #669, #61, .T. ) ;
#242 = DIRECTION ( 'NONE',  ( 1.000000000000000000, -5.071428571428576922E-16, 0.000000000000000000 ) ) ;
#243 = ORIENTED_EDGE ( 'NONE', *, *, #538, .T. ) ;
#244 = ORIENTED_EDGE ( 'NONE', *, *, #779, .T. ) ;
#245 = LINE ( 'NONE', #462, #445 ) ;
#246 = VECTOR ( 'NONE', #470, 1000.000000000000000 ) ;
#247 = VECTOR ( 'NONE', #613, 1000.000000000000000 ) ;
#248 = AXIS2_PLACEMENT_3D ( 'NONE', #434, #2, #377 ) ;
#249 = CARTESIAN_POINT ( 'NONE',  ( -2.499999999999860112, 1.267857142857073134E-15, 3.061616997868211564E-16 ) ) ;
#250 = AXIS2_PLACEMENT_3D ( 'NONE', #656, #866, #300 ) ;
#251 = EDGE_CURVE ( 'NONE', #49, #819, #182, .T. ) ;
#252 = VERTEX_POINT ( 'NONE', #167 ) ;
#253 = FACE_OUTER_BOUND ( 'NONE', #355, .T. ) ;
#254 = EDGE_CURVE ( 'NONE', #890, #129, #528, .T. ) ;
#255 = ORIENTED_EDGE ( 'NONE', *, *, #502, .T. ) ;
#256 = CARTESIAN_POINT ( 'NONE',  ( 5.071428571428576938E-13, 1000.000000000000000, 0.000000000000000000 ) ) ;
#257 = CARTESIAN_POINT ( 'NONE',  ( 1.474514954580286030E-14, 29.02886699999993425, 0.000000000000000000 ) ) ;
#258 = ORIENTED_EDGE ( 'NONE', *, *, #251, .F. ) ;
#259 = DIRECTION ( 'NONE',  ( -1.000000000000000000, 5.127900497025720130E-16, 0.000000000000000000 ) ) ;
#260 = EDGE_CURVE ( 'NONE', #718, #516, #372, .T. ) ;
#261 =( LENGTH_UNIT ( ) NAMED_UNIT ( * ) SI_UNIT ( .MILLI., .METRE. ) );
#262 = CARTESIAN_POINT ( 'NONE',  ( 1.512155819285717991E-14, 29.81715700000004077, 0.000000000000000000 ) ) ;
#263 = AXIS2_PLACEMENT_3D ( 'NONE', #683, #476, #550 ) ;
#264 = ORIENTED_EDGE ( 'NONE', *, *, #511, .T. ) ;
#265 = CARTESIAN_POINT ( 'NONE',  ( 0.000000000000000000, 0.000000000000000000, 0.000000000000000000 ) ) ;
#266 = AXIS2_PLACEMENT_3D ( 'NONE', #848, #917, #203 ) ;
#267 = CIRCLE ( 'NONE', #793, 2.749999999999884981 ) ;
#268 = COLOUR_RGB ( '',0.7921568627450980005, 0.8196078431372548767, 0.9333333333333333481 ) ;
#269 = ORIENTED_EDGE ( 'NONE', *, *, #25, .F. ) ;
#270 = ORIENTED_EDGE ( 'NONE', *, *, #551, .T. ) ;
#271 = DIRECTION ( 'NONE',  ( -5.071428571428576922E-16, -1.000000000000000000, -0.000000000000000000 ) ) ;
#272 = DIRECTION ( 'NONE',  ( 5.071428571428576922E-16, 1.000000000000000000, 0.000000000000000000 ) ) ;
#273 = EDGE_CURVE ( 'NONE', #202, #69, #75, .T. ) ;
#274 = ORIENTED_EDGE ( 'NONE', *, *, #876, .T. ) ;
#275 = CYLINDRICAL_SURFACE ( 'NONE', #73, 2.749999999999884093 ) ;
#276 = EDGE_CURVE ( 'NONE', #320, #54, #549, .T. ) ;
#277 = ADVANCED_BREP_SHAPE_REPRESENTATION ( '99688-SI08-M05+S9MT0802-090', ( #337, #47 ), #867 ) ;
#278 = ORIENTED_EDGE ( 'NONE', *, *, #639, .F. ) ;
#279 = ORIENTED_EDGE ( 'NONE', *, *, #439, .F. ) ;
#280 = DIRECTION ( 'NONE',  ( -1.000000000000000000, 5.071428571428576922E-16, 0.000000000000000000 ) ) ;
#281 = ADVANCED_FACE ( 'NONE', ( #441, #15 ), #651, .T. ) ;
#282 = CONICAL_SURFACE ( 'NONE', #810, 2.999999999999885425, 1.047196131954551079 ) ;
#283 = AXIS2_PLACEMENT_3D ( 'NONE', #603, #728, #97 ) ;
#284 = EDGE_LOOP ( 'NONE', ( #641, #397 ) ) ;
#285 = ORIENTED_EDGE ( 'NONE', *, *, #544, .F. ) ;
#286 = FACE_OUTER_BOUND ( 'NONE', #124, .T. ) ;
#287 = DIRECTION ( 'NONE',  ( 1.000000000000000000, 0.000000000000000000, 0.000000000000000000 ) ) ;
#288 = ADVANCED_FACE ( 'NONE', ( #301 ), #910, .T. ) ;
#289 = EDGE_LOOP ( 'NONE', ( #522, #114, #712, #100 ) ) ;
#290 = FACE_OUTER_BOUND ( 'NONE', #427, .T. ) ;
#291 = ORIENTED_EDGE ( 'NONE', *, *, #459, .T. ) ;
#292 = DIRECTION ( 'NONE',  ( 5.071428571428576922E-16, 1.000000000000000000, 0.000000000000000000 ) ) ;
#293 = DIRECTION ( 'NONE',  ( -5.071428571428576922E-16, -1.000000000000000000, -0.000000000000000000 ) ) ;
#294 = AXIS2_PLACEMENT_3D ( 'NONE', #257, #341, #769 ) ;
#295 = ORIENTED_EDGE ( 'NONE', *, *, #854, .T. ) ;
#296 = CIRCLE ( 'NONE', #164, 3.999999999997042366 ) ;
#297 = CYLINDRICAL_SURFACE ( 'NONE', #864, 2.099999999999898836 ) ;
#298 = LINE ( 'NONE', #155, #689 ) ;
#299 = DIRECTION ( 'NONE',  ( 0.3404697182689928603, 0.9402554817398475207, 4.169551506847226849E-17 ) ) ;
#300 = DIRECTION ( 'NONE',  ( 1.000000000000000000, 0.000000000000000000, 0.000000000000000000 ) ) ;
#301 = FACE_OUTER_BOUND ( 'NONE', #915, .T. ) ;
#302 = ADVANCED_FACE ( 'NONE', ( #379 ), #464, .T. ) ;
#303 = FACE_OUTER_BOUND ( 'NONE', #211, .T. ) ;
#304 = ORIENTED_EDGE ( 'NONE', *, *, #681, .T. ) ;
#305 = DIRECTION ( 'NONE',  ( 5.071428571428576922E-16, 1.000000000000000000, 0.000000000000000000 ) ) ;
#306 = DIRECTION ( 'NONE',  ( 1.000000000000000000, 0.000000000000000000, -1.224646799147353207E-16 ) ) ;
#307 = LINE ( 'NONE', #393, #375 ) ;
#308 = ADVANCED_FACE ( 'NONE', ( #234 ), #517, .F. ) ;
#309 = AXIS2_PLACEMENT_3D ( 'NONE', #555, #485, #821 ) ;
#310 = EDGE_LOOP ( 'NONE', ( #333, #28, #789, #80 ) ) ;
#311 = AXIS2_PLACEMENT_3D ( 'NONE', #837, #190, #563 ) ;
#312 = VECTOR ( 'NONE', #877, 1000.000000000000000 ) ;
#313 = AXIS2_PLACEMENT_3D ( 'NONE', #228, #292, #436 ) ;
#314 = FACE_OUTER_BOUND ( 'NONE', #419, .T. ) ;
#315 = DIRECTION ( 'NONE',  ( 1.000000000000000000, 0.000000000000000000, 0.000000000000000000 ) ) ;
#316 = DIRECTION ( 'NONE',  ( -0.7071067811865587860, 0.7071067811865362485, 0.000000000000000000 ) ) ;
#317 = DIRECTION ( 'NONE',  ( 1.000000000000000000, 0.000000000000000000, 0.000000000000000000 ) ) ;
#318 = CYLINDRICAL_SURFACE ( 'NONE', #29, 2.449999999999911360 ) ;
#319 = CYLINDRICAL_SURFACE ( 'NONE', #361, 2.499999999999860112 ) ;
#320 = VERTEX_POINT ( 'NONE', #850 ) ;
#321 = DIRECTION ( 'NONE',  ( -5.071428571428576922E-16, -1.000000000000000000, -0.000000000000000000 ) ) ;
#322 = EDGE_CURVE ( 'NONE', #49, #252, #495, .T. ) ;
#323 = CARTESIAN_POINT ( 'NONE',  ( 1.466657142857147323E-14, 28.92000000000005855, 0.000000000000000000 ) ) ;
#324 = EDGE_LOOP ( 'NONE', ( #836, #346, #416, #255 ) ) ;
#325 = FACE_OUTER_BOUND ( 'NONE', #695, .T. ) ;
#326 = AXIS2_PLACEMENT_3D ( 'NONE', #835, #693, #336 ) ;
#327 = AXIS2_PLACEMENT_3D ( 'NONE', #786, #13, #306 ) ;
#328 = CIRCLE ( 'NONE', #855, 2.449999999999923350 ) ;
#329 = DIRECTION ( 'NONE',  ( 1.000000000000000000, 0.000000000000000000, 0.000000000000000000 ) ) ;
#330 = CIRCLE ( 'NONE', #749, 1.499999999999877653 ) ;
#331 = CARTESIAN_POINT ( 'NONE',  ( 1.512155819285717991E-14, 29.81715700000004077, 0.000000000000000000 ) ) ;
#332 = AXIS2_PLACEMENT_3D ( 'NONE', #90, #376, #450 ) ;
#333 = ORIENTED_EDGE ( 'NONE', *, *, #118, .F. ) ;
#334 = FACE_OUTER_BOUND ( 'NONE', #605, .T. ) ;
#335 = FILL_AREA_STYLE_COLOUR ( '', #649 ) ;
#336 = DIRECTION ( 'NONE',  ( 1.000000000000000000, 0.000000000000000000, 0.000000000000000000 ) ) ;
#337 = MANIFOLD_SOLID_BREP ( '±ÛÂà1', #498 ) ;
#338 = EDGE_CURVE ( 'NONE', #521, #129, #688, .T. ) ;
#339 = ORIENTED_EDGE ( 'NONE', *, *, #585, .F. ) ;
#340 = DIRECTION ( 'NONE',  ( -5.071428571428576922E-16, -1.000000000000000000, -0.000000000000000000 ) ) ;
#341 = DIRECTION ( 'NONE',  ( -5.071428571428576922E-16, -1.000000000000000000, -0.000000000000000000 ) ) ;
#342 = ORIENTED_EDGE ( 'NONE', *, *, #897, .T. ) ;
#343 = DIRECTION ( 'NONE',  ( -5.071428571428576922E-16, -1.000000000000000000, -0.000000000000000000 ) ) ;
#344 = DIRECTION ( 'NONE',  ( -5.071428571428576922E-16, -1.000000000000000000, -0.000000000000000000 ) ) ;
#345 = CIRCLE ( 'NONE', #839, 4.920000000000163354 ) ;
#346 = ORIENTED_EDGE ( 'NONE', *, *, #72, .F. ) ;
#347 = CARTESIAN_POINT ( 'NONE',  ( 1.691321428571429953E-14, 33.34999999999999432, 0.000000000000000000 ) ) ;
#348 = AXIS2_PLACEMENT_3D ( 'NONE', #482, #631, #635 ) ;
#349 = CIRCLE ( 'NONE', #63, 2.449999999999900258 ) ;
#350 = CARTESIAN_POINT ( 'NONE',  ( -0.7999999999991155297, 0.4618802153514501851, 0.000000000000000000 ) ) ;
#351 = ADVANCED_FACE ( 'NONE', ( #488 ), #816, .T. ) ;
#352 = ORIENTED_EDGE ( 'NONE', *, *, #108, .F. ) ;
#353 = ORIENTED_EDGE ( 'NONE', *, *, #356, .T. ) ;
#354 =( NAMED_UNIT ( * ) SI_UNIT ( $, .STERADIAN. ) SOLID_ANGLE_UNIT ( ) );
#355 = EDGE_LOOP ( 'NONE', ( #643, #506, #843, #258 ) ) ;
#356 = EDGE_CURVE ( 'NONE', #632, #607, #627, .T. ) ;
#357 = DIRECTION ( 'NONE',  ( -5.071428571428576922E-16, -1.000000000000000000, -0.000000000000000000 ) ) ;
#358 = ORIENTED_EDGE ( 'NONE', *, *, #544, .T. ) ;
#359 = LINE ( 'NONE', #575, #529 ) ;
#360 = CIRCLE ( 'NONE', #684, 4.999999999999991118 ) ;
#361 = AXIS2_PLACEMENT_3D ( 'NONE', #745, #535, #525 ) ;
#362 = AXIS2_PLACEMENT_3D ( 'NONE', #415, #768, #846 ) ;
#363 = PRODUCT_DEFINITION_SHAPE ( 'NONE', 'NONE',  #115 ) ;
#364 = FACE_OUTER_BOUND ( 'NONE', #709, .T. ) ;
#365 = DIRECTION ( 'NONE',  ( -5.071428571428576922E-16, -1.000000000000000000, -0.000000000000000000 ) ) ;
#366 = EDGE_LOOP ( 'NONE', ( #84, #841, #270, #7 ) ) ;
#367 = CARTESIAN_POINT ( 'NONE',  ( 1.857096394927132525E-15, 3.661880215349271328, 0.000000000000000000 ) ) ;
#368 = CARTESIAN_POINT ( 'NONE',  ( 1.466657142857147323E-14, 28.92000000000005855, 0.000000000000000000 ) ) ;
#369 = VERTEX_POINT ( 'NONE', #742 ) ;
#370 = EDGE_CURVE ( 'NONE', #900, #593, #105, .T. ) ;
#371 = DIRECTION ( 'NONE',  ( -5.071428571428576922E-16, -1.000000000000000000, -0.000000000000000000 ) ) ;
#372 = LINE ( 'NONE', #809, #385 ) ;
#373 = VECTOR ( 'NONE', #644, 1000.000000000000000 ) ;
#374 = AXIS2_PLACEMENT_3D ( 'NONE', #720, #905, #710 ) ;
#375 = VECTOR ( 'NONE', #21, 1000.000000000000000 ) ;
#376 = DIRECTION ( 'NONE',  ( -5.071428571428576922E-16, -1.000000000000000000, -0.000000000000000000 ) ) ;
#377 = DIRECTION ( 'NONE',  ( 1.000000000000000000, -5.071428571428576922E-16, 0.000000000000000000 ) ) ;
#378 = DIRECTION ( 'NONE',  ( -5.071428571428576922E-16, -1.000000000000000000, -0.000000000000000000 ) ) ;
#379 = FACE_OUTER_BOUND ( 'NONE', #131, .T. ) ;
#380 = EDGE_CURVE ( 'NONE', #632, #497, #566, .T. ) ;
#381 = LINE ( 'NONE', #875, #247 ) ;
#382 = AXIS2_PLACEMENT_3D ( 'NONE', #425, #584, #790 ) ;
#383 = DIRECTION ( 'NONE',  ( -5.071428571428576922E-16, -1.000000000000000000, -0.000000000000000000 ) ) ;
#384 = VECTOR ( 'NONE', #316, 1000.000000000000114 ) ;
#385 = VECTOR ( 'NONE', #79, 1000.000000000000114 ) ;
#386 = PRESENTATION_STYLE_ASSIGNMENT (( #675 ) ) ;
#387 = FACE_OUTER_BOUND ( 'NONE', #503, .T. ) ;
#388 = CYLINDRICAL_SURFACE ( 'NONE', #121, 3.999999999997040590 ) ;
#389 = EDGE_CURVE ( 'NONE', #691, #890, #123, .T. ) ;
#390 = DIRECTION ( 'NONE',  ( 1.000000000000000000, -6.938893903907241197E-16, 0.000000000000000000 ) ) ;
#391 = CARTESIAN_POINT ( 'NONE',  ( -0.7999999999991156407, 0.4618802153514501851, 0.000000000000000000 ) ) ;
#392 = CARTESIAN_POINT ( 'NONE',  ( 1.499999999999898970, 41.99999999999996447, 0.000000000000000000 ) ) ;
#393 = CARTESIAN_POINT ( 'NONE',  ( -2.099999999999898836, 1.064999999999949858E-15, 2.571758278209317711E-16 ) ) ;
#394 = ORIENTED_EDGE ( 'NONE', *, *, #171, .F. ) ;
#395 = DIRECTION ( 'NONE',  ( -5.071428571428576922E-16, -1.000000000000000000, -0.000000000000000000 ) ) ;
#396 = FACE_OUTER_BOUND ( 'NONE', #455, .T. ) ;
#397 = ORIENTED_EDGE ( 'NONE', *, *, #423, .F. ) ;
#398 = VECTOR ( 'NONE', #458, 1000.000000000000000 ) ;
#399 = AXIS2_PLACEMENT_3D ( 'NONE', #874, #437, #723 ) ;
#400 = SURFACE_SIDE_STYLE ('',( #103 ) ) ;
#401 = CIRCLE ( 'NONE', #636, 0.1999999650311923005 ) ;
#402 = DIRECTION ( 'NONE',  ( 5.071428571428576922E-16, 1.000000000000000000, 0.000000000000000000 ) ) ;
#403 = PRODUCT_DEFINITION_FORMATION_WITH_SPECIFIED_SOURCE ( 'ANY', '', #143, .NOT_KNOWN. ) ;
#404 = ORIENTED_EDGE ( 'NONE', *, *, #151, .T. ) ;
#405 = CYLINDRICAL_SURFACE ( 'NONE', #311, 2.499999999999860112 ) ;
#406 = FACE_OUTER_BOUND ( 'NONE', #145, .T. ) ;
#407 = CARTESIAN_POINT ( 'NONE',  ( 1.463394285607035565E-14, 28.85566196971615938, 0.000000000000000000 ) ) ;
#408 = EDGE_CURVE ( 'NONE', #632, #252, #137, .T. ) ;
#409 = CARTESIAN_POINT ( 'NONE',  ( 5.000000000000006217, 28.92000000000005500, 0.000000000000000000 ) ) ;
#410 = SURFACE_SIDE_STYLE ('',( #771 ) ) ;
#411 = ORIENTED_EDGE ( 'NONE', *, *, #928, .T. ) ;
#412 = DIRECTION ( 'NONE',  ( -5.071428571428576922E-16, -1.000000000000000000, -0.000000000000000000 ) ) ;
#413 = ORIENTED_EDGE ( 'NONE', *, *, #435, .T. ) ;
#414 = EDGE_CURVE ( 'NONE', #219, #369, #201, .T. ) ;
#415 = CARTESIAN_POINT ( 'NONE',  ( 2.649999999999938627, 29.02886699999993425, 0.000000000000000000 ) ) ;
#416 = ORIENTED_EDGE ( 'NONE', *, *, #207, .T. ) ;
#417 = DIRECTION ( 'NONE',  ( 1.000000000000000000, -7.051721447059957677E-16, 0.000000000000000000 ) ) ;
#418 = ADVANCED_FACE ( 'NONE', ( #406 ), #842, .T. ) ;
#419 = EDGE_LOOP ( 'NONE', ( #869, #655, #471, #133 ) ) ;
#420 = CARTESIAN_POINT ( 'NONE',  ( 4.999999999999933387, -2.535714285714254343E-15, 0.000000000000000000 ) ) ;
#421 = EDGE_LOOP ( 'NONE', ( #204, #694, #37, #411 ) ) ;
#422 = DIRECTION ( 'NONE',  ( 1.000000000000000000, -5.421010862431530570E-16, 0.000000000000000000 ) ) ;
#423 = EDGE_CURVE ( 'NONE', #739, #536, #330, .T. ) ;
#424 = ORIENTED_EDGE ( 'NONE', *, *, #825, .T. ) ;
#425 = CARTESIAN_POINT ( 'NONE',  ( 1.470714285714285749E-14, 28.99999999999997513, 0.000000000000000000 ) ) ;
#426 = ORIENTED_EDGE ( 'NONE', *, *, #779, .F. ) ;
#427 = EDGE_LOOP ( 'NONE', ( #291, #141, #279, #560 ) ) ;
#428 = FACE_OUTER_BOUND ( 'NONE', #886, .T. ) ;
#429 = CIRCLE ( 'NONE', #102, 2.750000017484295345 ) ;
#430 = CIRCLE ( 'NONE', #382, 2.999999999999885425 ) ;
#431 = EDGE_CURVE ( 'NONE', #65, #819, #12, .T. ) ;
#432 = CONICAL_SURFACE ( 'NONE', #30, 3.999999999997039701, 0.3474164168819702803 ) ;
#433 = CIRCLE ( 'NONE', #650, 2.499999999999861444 ) ;
#434 = CARTESIAN_POINT ( 'NONE',  ( 2.099999999999916156, 34.99999999999995026, 0.000000000000000000 ) ) ;
#435 = EDGE_CURVE ( 'NONE', #497, #912, #401, .T. ) ;
#436 = DIRECTION ( 'NONE',  ( -1.000000000000000000, 0.000000000000000000, 0.000000000000000000 ) ) ;
#437 = DIRECTION ( 'NONE',  ( 5.071428571428576922E-16, 1.000000000000000000, 0.000000000000000000 ) ) ;
#438 = ORIENTED_EDGE ( 'NONE', *, *, #865, .T. ) ;
#439 = EDGE_CURVE ( 'NONE', #252, #912, #730, .T. ) ;
#440 = CYLINDRICAL_SURFACE ( 'NONE', #332, 2.449999999999911360 ) ;
#441 = FACE_OUTER_BOUND ( 'NONE', #805, .T. ) ;
#442 = AXIS2_PLACEMENT_3D ( 'NONE', #744, #183, #238 ) ;
#443 = VERTEX_POINT ( 'NONE', #542 ) ;
#444 = CIRCLE ( 'NONE', #266, 2.499999999999858336 ) ;
#445 = VECTOR ( 'NONE', #340, 1000.000000000000000 ) ;
#446 = EDGE_LOOP ( 'NONE', ( #615, #704, #722, #508 ) ) ;
#447 = AXIS2_PLACEMENT_3D ( 'NONE', #692, #272, #851 ) ;
#448 = PRESENTATION_LAYER_ASSIGNMENT (  '', '', ( #856 ) ) ;
#449 = EDGE_CURVE ( 'NONE', #923, #49, #349, .T. ) ;
#450 = DIRECTION ( 'NONE',  ( 1.000000000000000000, -5.071428571428576922E-16, 0.000000000000000000 ) ) ;
#451 = CARTESIAN_POINT ( 'NONE',  ( 2.449999999999915357, 29.53431400000005169, 0.000000000000000000 ) ) ;
#452 =( NAMED_UNIT ( * ) PLANE_ANGLE_UNIT ( ) SI_UNIT ( $, .RADIAN. ) );
#453 = CARTESIAN_POINT ( 'NONE',  ( 0.000000000000000000, 0.000000000000000000, 0.000000000000000000 ) ) ;
#454 = LINE ( 'NONE', #226, #87 ) ;
#455 = EDGE_LOOP ( 'NONE', ( #800, #33, #148, #609 ) ) ;
#456 = DIRECTION ( 'NONE',  ( -5.071428571428576922E-16, -1.000000000000000000, -0.000000000000000000 ) ) ;
#457 = APPLICATION_PROTOCOL_DEFINITION ( 'draft international standard', 'automotive_design', 1998, #706 ) ;
#458 = DIRECTION ( 'NONE',  ( -5.071428571428576922E-16, -1.000000000000000000, -0.000000000000000000 ) ) ;
#459 = EDGE_CURVE ( 'NONE', #49, #923, #191, .T. ) ;
#460 = CARTESIAN_POINT ( 'NONE',  ( 4.021018301728291218E-15, 7.928768482281129515, 0.000000000000000000 ) ) ;
#461 = VECTOR ( 'NONE', #514, 1000.000000000000000 ) ;
#462 = CARTESIAN_POINT ( 'NONE',  ( 3.999999999997040590, -2.028571428569929961E-15, 0.000000000000000000 ) ) ;
#463 = MECHANICAL_DESIGN_GEOMETRIC_PRESENTATION_REPRESENTATION (  '', ( #856 ), #703 ) ;
#464 = CONICAL_SURFACE ( 'NONE', #31, 2.749999999999883205, 0.7853981633974485010 ) ;
#465 = DIRECTION ( 'NONE',  ( -5.071428571428576922E-16, -1.000000000000000000, -0.000000000000000000 ) ) ;
#466 = CARTESIAN_POINT ( 'NONE',  ( 0.000000000000000000, 0.000000000000000000, 0.000000000000000000 ) ) ;
#467 = ORIENTED_EDGE ( 'NONE', *, *, #825, .F. ) ;
#468 = DIRECTION ( 'NONE',  ( 1.000000000000000000, 0.000000000000000000, 0.000000000000000000 ) ) ;
#469 = CARTESIAN_POINT ( 'NONE',  ( -3.999999999997040590, 3.661880215349272660, 0.000000000000000000 ) ) ;
#470 = DIRECTION ( 'NONE',  ( -5.071428571428576922E-16, -1.000000000000000000, -0.000000000000000000 ) ) ;
#471 = ORIENTED_EDGE ( 'NONE', *, *, #215, .F. ) ;
#472 = DIRECTION ( 'NONE',  ( -0.7071067811858962049, -0.7071067811871988296, 8.659560562346953037E-17 ) ) ;
#473 = EDGE_CURVE ( 'NONE', #83, #900, #662, .T. ) ;
#474 = DIRECTION ( 'NONE',  ( 0.8660246941625433514, 0.5000012290991625585, 1.060574369688723989E-16 ) ) ;
#475 = DIRECTION ( 'NONE',  ( -5.071428571428576922E-16, -1.000000000000000000, -0.000000000000000000 ) ) ;
#476 = DIRECTION ( 'NONE',  ( 5.071428571428576922E-16, 1.000000000000000000, 0.000000000000000000 ) ) ;
#477 = ORIENTED_EDGE ( 'NONE', *, *, #322, .T. ) ;
#478 = CARTESIAN_POINT ( 'NONE',  ( 1.472178254999999557E-14, 29.02886699999995912, 0.000000000000000000 ) ) ;
#479 = AXIS2_PLACEMENT_3D ( 'NONE', #665, #731, #230 ) ;
#480 = ADVANCED_FACE ( 'NONE', ( #240 ), #282, .F. ) ;
#481 = DIRECTION ( 'NONE',  ( 1.000000000000000000, -4.336808689945227414E-16, 0.000000000000000000 ) ) ;
#482 = CARTESIAN_POINT ( 'NONE',  ( 2.130000000000000138E-14, 41.99999999999996447, 0.000000000000000000 ) ) ;
#483 = AXIS2_PLACEMENT_3D ( 'NONE', #24, #378, #663 ) ;
#484 = CONICAL_SURFACE ( 'NONE', #313, 2.567156999999821831, 0.7853981633978147636 ) ;
#485 = DIRECTION ( 'NONE',  ( -5.071428571428576922E-16, -1.000000000000000000, -0.000000000000000000 ) ) ;
#486 = EDGE_LOOP ( 'NONE', ( #677, #76, #243, #174 ) ) ;
#487 = DIRECTION ( 'NONE',  ( 1.000000000000000000, 0.000000000000000000, 0.000000000000000000 ) ) ;
#488 = FACE_OUTER_BOUND ( 'NONE', #569, .T. ) ;
#489 = ORIENTED_EDGE ( 'NONE', *, *, #916, .F. ) ;
#490 = CARTESIAN_POINT ( 'NONE',  ( 1.474514954580286030E-14, 29.02886699999993425, 0.000000000000000000 ) ) ;
#491 = ORIENTED_EDGE ( 'NONE', *, *, #8, .F. ) ;
#492 = ORIENTED_EDGE ( 'NONE', *, *, #408, .F. ) ;
#493 = DIRECTION ( 'NONE',  ( -1.000000000000000000, 5.127900497025720130E-16, 0.000000000000000000 ) ) ;
#494 = ORIENTED_EDGE ( 'NONE', *, *, #276, .F. ) ;
#495 = LINE ( 'NONE', #707, #780 ) ;
#496 = AXIS2_PLACEMENT_3D ( 'NONE', #265, #844, #199 ) ;
#497 = VERTEX_POINT ( 'NONE', #18 ) ;
#498 = CLOSED_SHELL ( 'NONE', ( #901, #40, #88, #302, #697, #505, #623, #921, #658, #788, #98, #351, #596, #796, #418, #153, #799, #814, #4, #14, #520, #610, #755, #480, #588, #562, #308, #619, #606, #777, #223, #281, #158, #288, #198 ) ) ;
#499 = CARTESIAN_POINT ( 'NONE',  ( 0.7999999999991159738, 0.4618802153514493525, 9.797174393167996569E-17 ) ) ;
#500 = AXIS2_PLACEMENT_3D ( 'NONE', #715, #589, #664 ) ;
#501 = AXIS2_PLACEMENT_3D ( 'NONE', #660, #229, #78 ) ;
#502 = EDGE_CURVE ( 'NONE', #129, #521, #296, .T. ) ;
#503 = EDGE_LOOP ( 'NONE', ( #754, #109, #144, #138 ) ) ;
#504 = CARTESIAN_POINT ( 'NONE',  ( 1.470714285714288905E-14, 29.00000000000003197, 0.000000000000000000 ) ) ;
#505 = ADVANCED_FACE ( 'NONE', ( #873 ), #484, .T. ) ;
#506 = ORIENTED_EDGE ( 'NONE', *, *, #806, .T. ) ;
#507 = LINE ( 'NONE', #705, #561 ) ;
#508 = ORIENTED_EDGE ( 'NONE', *, *, #928, .F. ) ;
#509 = ORIENTED_EDGE ( 'NONE', *, *, #617, .T. ) ;
#510 = DIRECTION ( 'NONE',  ( -5.071428571428576922E-16, -1.000000000000000000, -0.000000000000000000 ) ) ;
#511 = EDGE_CURVE ( 'NONE', #16, #369, #433, .T. ) ;
#512 = DIRECTION ( 'NONE',  ( -5.071428571428576922E-16, -1.000000000000000000, -0.000000000000000000 ) ) ;
#513 = AXIS2_PLACEMENT_3D ( 'NONE', #112, #758, #831 ) ;
#514 = DIRECTION ( 'NONE',  ( -0.3404697182689918611, 0.9402554817398478537, 0.000000000000000000 ) ) ;
#515 = CIRCLE ( 'NONE', #163, 2.099999999999898836 ) ;
#516 = VERTEX_POINT ( 'NONE', #350 ) ;
#517 = TOROIDAL_SURFACE ( 'NONE', #45, 2.849999999999488054, 0.4000000000000011324 ) ;
#518 = DIRECTION ( 'NONE',  ( 1.000000000000000000, -5.421010862431530570E-16, 0.000000000000000000 ) ) ;
#519 = DIRECTION ( 'NONE',  ( 1.000000000000000000, 0.000000000000000000, 0.000000000000000000 ) ) ;
#520 = ADVANCED_FACE ( 'NONE', ( #724 ), #227, .T. ) ;
#521 = VERTEX_POINT ( 'NONE', #783 ) ;
#522 = ORIENTED_EDGE ( 'NONE', *, *, #356, .F. ) ;
#523 = CARTESIAN_POINT ( 'NONE',  ( -2.449999999999908251, 29.02886699999995912, 3.184081687178162159E-16 ) ) ;
#524 = DIRECTION ( 'NONE',  ( -5.071428571428576922E-16, -1.000000000000000000, -0.000000000000000000 ) ) ;
#525 = DIRECTION ( 'NONE',  ( 1.000000000000000000, -5.071428571428575936E-16, 0.000000000000000000 ) ) ;
#526 = EDGE_CURVE ( 'NONE', #224, #571, #698, .T. ) ;
#527 =( LENGTH_UNIT ( ) NAMED_UNIT ( * ) SI_UNIT ( .MILLI., .METRE. ) );
#528 = LINE ( 'NONE', #152, #687 ) ;
#529 = VECTOR ( 'NONE', #59, 1000.000000000000000 ) ;
#530 = CARTESIAN_POINT ( 'NONE',  ( -2.567156999999807176, 29.81715700000004077, 3.143860602958504359E-16 ) ) ;
#531 = ORIENTED_EDGE ( 'NONE', *, *, #572, .T. ) ;
#532 = CIRCLE ( 'NONE', #829, 2.099999999999898392 ) ;
#533 = AXIS2_PLACEMENT_3D ( 'NONE', #791, #365, #287 ) ;
#534 = CARTESIAN_POINT ( 'NONE',  ( -3.999999999997035260, 7.928768482281131291, 4.898587196585788999E-16 ) ) ;
#535 = DIRECTION ( 'NONE',  ( -5.071428571428576922E-16, -1.000000000000000000, -0.000000000000000000 ) ) ;
#536 = VERTEX_POINT ( 'NONE', #392 ) ;
#537 =( NAMED_UNIT ( * ) SI_UNIT ( $, .STERADIAN. ) SOLID_ANGLE_UNIT ( ) );
#538 = EDGE_CURVE ( 'NONE', #593, #58, #220, .T. ) ;
#539 = LINE ( 'NONE', #177, #398 ) ;
#540 = UNCERTAINTY_MEASURE_WITH_UNIT (LENGTH_MEASURE( 1.000000000000000082E-05 ), #110, 'distance_accuracy_value', 'NONE');
#541 = ORIENTED_EDGE ( 'NONE', *, *, #526, .F. ) ;
#542 = CARTESIAN_POINT ( 'NONE',  ( -4.999999999999976019, 28.92000000000005855, 6.123233995736749519E-16 ) ) ;
#543 = LINE ( 'NONE', #626, #719 ) ;
#544 = EDGE_CURVE ( 'NONE', #781, #219, #85, .T. ) ;
#545 = DIRECTION ( 'NONE',  ( 1.000000000000000000, 0.000000000000000000, 0.000000000000000000 ) ) ;
#546 = FACE_OUTER_BOUND ( 'NONE', #587, .T. ) ;
#547 = CONICAL_SURFACE ( 'NONE', #513, 4.999999999999991118, 0.7853981633965267939 ) ;
#548 = ORIENTED_EDGE ( 'NONE', *, *, #276, .T. ) ;
#549 = CIRCLE ( 'NONE', #670, 2.099999999999898836 ) ;
#550 = DIRECTION ( 'NONE',  ( -1.000000000000000000, 4.336808689945227414E-16, 0.000000000000000000 ) ) ;
#551 = EDGE_CURVE ( 'NONE', #65, #58, #52, .T. ) ;
#552 = EDGE_LOOP ( 'NONE', ( #883, #919, #774, #556 ) ) ;
#553 = DIRECTION ( 'NONE',  ( 1.000000000000000000, 0.000000000000000000, 0.000000000000000000 ) ) ;
#554 = DIRECTION ( 'NONE',  ( 1.000000000000000000, 0.000000000000000000, 0.000000000000000000 ) ) ;
#555 = CARTESIAN_POINT ( 'NONE',  ( 1.517883041479706208E-14, 29.53431457505076096, 0.000000000000000000 ) ) ;
#556 = ORIENTED_EDGE ( 'NONE', *, *, #370, .F. ) ;
#557 = FACE_OUTER_BOUND ( 'NONE', #832, .T. ) ;
#558 = SHAPE_DEFINITION_REPRESENTATION ( #363, #277 ) ;
#559 = APPLICATION_CONTEXT ( 'automotive_design' ) ;
#560 = ORIENTED_EDGE ( 'NONE', *, *, #322, .F. ) ;
#561 = VECTOR ( 'NONE', #776, 1000.000000000000000 ) ;
#562 = ADVANCED_FACE ( 'NONE', ( #48 ), #318, .T. ) ;
#563 = DIRECTION ( 'NONE',  ( 1.000000000000000000, -5.071428571428575936E-16, 0.000000000000000000 ) ) ;
#564 = FILL_AREA_STYLE_COLOUR ( '', #268 ) ;
#565 = VECTOR ( 'NONE', #872, 1000.000000000000227 ) ;
#566 = CIRCLE ( 'NONE', #881, 2.750000017484295345 ) ;
#567 = EDGE_LOOP ( 'NONE', ( #775, #686 ) ) ;
#568 = DIRECTION ( 'NONE',  ( 1.000000000000000000, 0.000000000000000000, 0.000000000000000000 ) ) ;
#569 = EDGE_LOOP ( 'NONE', ( #113, #304, #927, #759 ) ) ;
#570 = CARTESIAN_POINT ( 'NONE',  ( 4.021018301728291218E-15, 7.928768482281129515, 0.000000000000000000 ) ) ;
#571 = VERTEX_POINT ( 'NONE', #899 ) ;
#572 = EDGE_CURVE ( 'NONE', #497, #632, #429, .T. ) ;
#573 = DIRECTION ( 'NONE',  ( -5.071428571428576922E-16, -1.000000000000000000, -0.000000000000000000 ) ) ;
#574 = ORIENTED_EDGE ( 'NONE', *, *, #108, .T. ) ;
#575 = CARTESIAN_POINT ( 'NONE',  ( -2.999999999999870770, 28.99999999999997513, 0.000000000000000000 ) ) ;
#576 = EDGE_LOOP ( 'NONE', ( #820, #711, #200, #747 ) ) ;
#577 = CARTESIAN_POINT ( 'NONE',  ( 1.857096394927132525E-15, 3.661880215349271328, 0.000000000000000000 ) ) ;
#578 = ORIENTED_EDGE ( 'NONE', *, *, #260, .T. ) ;
#579 = AXIS2_PLACEMENT_3D ( 'NONE', #256, #125, #259 ) ;
#580 = CYLINDRICAL_SURFACE ( 'NONE', #496, 3.999999999997040590 ) ;
#581 = AXIS2_PLACEMENT_3D ( 'NONE', #756, #395, #679 ) ;
#582 = CARTESIAN_POINT ( 'NONE',  ( 1.517883041479706208E-14, 29.53431457505076096, 0.000000000000000000 ) ) ;
#583 = ORIENTED_EDGE ( 'NONE', *, *, #511, .F. ) ;
#584 = DIRECTION ( 'NONE',  ( -5.071428571428576922E-16, -1.000000000000000000, -0.000000000000000000 ) ) ;
#585 = EDGE_CURVE ( 'NONE', #900, #83, #645, .T. ) ;
#586 = EDGE_LOOP ( 'NONE', ( #394, #46, #657, #157 ) ) ;
#587 = EDGE_LOOP ( 'NONE', ( #216, #625, #857, #140 ) ) ;
#588 = ADVANCED_FACE ( 'NONE', ( #396 ), #181, .F. ) ;
#589 = DIRECTION ( 'NONE',  ( -5.071428571428576922E-16, -1.000000000000000000, -0.000000000000000000 ) ) ;
#590 = AXIS2_PLACEMENT_3D ( 'NONE', #795, #600, #6 ) ;
#591 = AXIS2_PLACEMENT_3D ( 'NONE', #726, #868, #91 ) ;
#592 = CIRCLE ( 'NONE', #501, 2.999999999999885425 ) ;
#593 = VERTEX_POINT ( 'NONE', #620 ) ;
#594 = DIRECTION ( 'NONE',  ( -5.071428571428576922E-16, -1.000000000000000000, -0.000000000000000000 ) ) ;
#595 = DIRECTION ( 'NONE',  ( -5.071428571428576922E-16, -1.000000000000000000, -0.000000000000000000 ) ) ;
#596 = ADVANCED_FACE ( 'NONE', ( #387 ), #823, .T. ) ;
#597 = FACE_OUTER_BOUND ( 'NONE', #421, .T. ) ;
#598 = EDGE_LOOP ( 'NONE', ( #278, #770, #477, #352 ) ) ;
#599 = CARTESIAN_POINT ( 'NONE',  ( 1.724285714285714773E-14, 33.99999999999997158, 0.000000000000000000 ) ) ;
#600 = DIRECTION ( 'NONE',  ( 0.000000000000000000, 0.000000000000000000, -1.000000000000000000 ) ) ;
#601 = EDGE_CURVE ( 'NONE', #443, #195, #360, .T. ) ;
#602 = LINE ( 'NONE', #668, #231 ) ;
#603 = CARTESIAN_POINT ( 'NONE',  ( 2.079285714285714586E-14, 40.99999999999995737, 0.000000000000000000 ) ) ;
#604 = AXIS2_PLACEMENT_3D ( 'NONE', #690, #612, #763 ) ;
#605 = EDGE_LOOP ( 'NONE', ( #38, #907, #424 ) ) ;
#606 = ADVANCED_FACE ( 'NONE', ( #36 ), #752, .T. ) ;
#607 = VERTEX_POINT ( 'NONE', #44 ) ;
#608 = CARTESIAN_POINT ( 'NONE',  ( 0.000000000000000000, 0.000000000000000000, 0.000000000000000000 ) ) ;
#609 = ORIENTED_EDGE ( 'NONE', *, *, #439, .T. ) ;
#610 = ADVANCED_FACE ( 'NONE', ( #824 ), #547, .T. ) ;
#611 = CARTESIAN_POINT ( 'NONE',  ( 2.999999999999900524, 28.99999999999997513, 3.673940397441919352E-16 ) ) ;
#612 = DIRECTION ( 'NONE',  ( -5.071428571428576922E-16, -1.000000000000000000, -0.000000000000000000 ) ) ;
#613 = DIRECTION ( 'NONE',  ( -0.7071067811865480168, -0.7071067811865470176, 8.659560562354935323E-17 ) ) ;
#614 = UNCERTAINTY_MEASURE_WITH_UNIT (LENGTH_MEASURE( 1.000000000000000082E-05 ), #527, 'distance_accuracy_value', 'NONE');
#615 = ORIENTED_EDGE ( 'NONE', *, *, #681, .F. ) ;
#616 = LINE ( 'NONE', #629, #9 ) ;
#617 = EDGE_CURVE ( 'NONE', #781, #16, #894, .T. ) ;
#618 = PRODUCT_CONTEXT ( 'NONE', #559, 'mechanical' ) ;
#619 = ADVANCED_FACE ( 'NONE', ( #120 ), #840, .T. ) ;
#620 = CARTESIAN_POINT ( 'NONE',  ( 2.749999999999898748, 29.99999999999997158, 3.367778697655079017E-16 ) ) ;
#621 = CARTESIAN_POINT ( 'NONE',  ( 1.521428571428571617E-14, 29.99999999999997158, 0.000000000000000000 ) ) ;
#622 = DIRECTION ( 'NONE',  ( -1.000000000000000000, 0.000000000000000000, 0.000000000000000000 ) ) ;
#623 = ADVANCED_FACE ( 'NONE', ( #253 ), #743, .F. ) ;
#624 = CARTESIAN_POINT ( 'NONE',  ( 0.000000000000000000, 0.000000000000000000, 0.000000000000000000 ) ) ;
#625 = ORIENTED_EDGE ( 'NONE', *, *, #64, .T. ) ;
#626 = CARTESIAN_POINT ( 'NONE',  ( -4.999999999999976907, 28.92000000000005855, 6.123233995736755436E-16 ) ) ;
#627 = LINE ( 'NONE', #611, #766 ) ;
#628 = DIRECTION ( 'NONE',  ( -5.071428571428576922E-16, -1.000000000000000000, -0.000000000000000000 ) ) ;
#629 = CARTESIAN_POINT ( 'NONE',  ( 5.000000000000006217, 28.92000000000005500, 0.000000000000000000 ) ) ;
#630 = DIRECTION ( 'NONE',  ( -5.071428571428576922E-16, -1.000000000000000000, -0.000000000000000000 ) ) ;
#631 = DIRECTION ( 'NONE',  ( 5.071428571428576922E-16, 1.000000000000000000, 0.000000000000000000 ) ) ;
#632 = VERTEX_POINT ( 'NONE', #838 ) ;
#633 = DIRECTION ( 'NONE',  ( 1.000000000000000000, -6.938893903907241197E-16, 0.000000000000000000 ) ) ;
#634 = EDGE_LOOP ( 'NONE', ( #891, #578, #221 ) ) ;
#635 = DIRECTION ( 'NONE',  ( -1.000000000000000000, 5.071428571428576922E-16, 0.000000000000000000 ) ) ;
#636 = AXIS2_PLACEMENT_3D ( 'NONE', #762, #101, #833 ) ;
#637 = ORIENTED_EDGE ( 'NONE', *, *, #473, .F. ) ;
#638 = CARTESIAN_POINT ( 'NONE',  ( -1.499999999999856559, 41.99999999999996447, 2.449293598294544205E-16 ) ) ;
#639 = EDGE_CURVE ( 'NONE', #923, #912, #539, .T. ) ;
#640 = CARTESIAN_POINT ( 'NONE',  ( 2.499999999999860112, -1.267857142857073134E-15, 0.000000000000000000 ) ) ;
#641 = ORIENTED_EDGE ( 'NONE', *, *, #854, .F. ) ;
#642 = LINE ( 'NONE', #648, #373 ) ;
#643 = ORIENTED_EDGE ( 'NONE', *, *, #449, .F. ) ;
#644 = DIRECTION ( 'NONE',  ( -0.7071067811865405783, -0.7071067811865544561, 8.659560562354844111E-17 ) ) ;
#645 = CIRCLE ( 'NONE', #807, 2.749999999999883205 ) ;
#646 = ORIENTED_EDGE ( 'NONE', *, *, #241, .F. ) ;
#647 = CONICAL_SURFACE ( 'NONE', #729, 4.999999999999991118, 0.7853981633965267939 ) ;
#648 = CARTESIAN_POINT ( 'NONE',  ( -2.499999999999837463, 40.99999999999995737, 3.061616997868209592E-16 ) ) ;
#649 = COLOUR_RGB ( '',0.7921568627450980005, 0.8196078431372548767, 0.9333333333333333481 ) ;
#650 = AXIS2_PLACEMENT_3D ( 'NONE', #23, #456, #918 ) ;
#651 = PLANE ( 'NONE',  #248 ) ;
#652 = EDGE_CURVE ( 'NONE', #739, #781, #642, .T. ) ;
#653 = CARTESIAN_POINT ( 'NONE',  ( 1.724285714285714773E-14, 33.99999999999997158, 0.000000000000000000 ) ) ;
#654 = ORIENTED_EDGE ( 'NONE', *, *, #8, .T. ) ;
#655 = ORIENTED_EDGE ( 'NONE', *, *, #25, .T. ) ;
#656 = CARTESIAN_POINT ( 'NONE',  ( 2.130000000000000138E-14, 41.99999999999996447, 0.000000000000000000 ) ) ;
#657 = ORIENTED_EDGE ( 'NONE', *, *, #370, .T. ) ;
#658 = ADVANCED_FACE ( 'NONE', ( #286 ), #162, .F. ) ;
#659 = CARTESIAN_POINT ( 'NONE',  ( 1.470714285714285749E-14, 28.99999999999997513, 0.000000000000000000 ) ) ;
#660 = CARTESIAN_POINT ( 'NONE',  ( 1.470714285714285749E-14, 28.99999999999997513, 0.000000000000000000 ) ) ;
#661 = AXIS2_PLACEMENT_3D ( 'NONE', #676, #127, #896 ) ;
#662 = CIRCLE ( 'NONE', #716, 2.749999999999883205 ) ;
#663 = DIRECTION ( 'NONE',  ( 1.000000000000000000, -3.469446951953700964E-16, 0.000000000000000000 ) ) ;
#664 = DIRECTION ( 'NONE',  ( 1.000000000000000000, -3.469446951953700964E-16, 0.000000000000000000 ) ) ;
#665 = CARTESIAN_POINT ( 'NONE',  ( 4.021018301728291218E-15, 7.928768482281129515, 0.000000000000000000 ) ) ;
#666 = CARTESIAN_POINT ( 'NONE',  ( 2.749999999999900080, 33.34999999999999432, 0.000000000000000000 ) ) ;
#667 = EDGE_CURVE ( 'NONE', #819, #65, #717, .T. ) ;
#668 = CARTESIAN_POINT ( 'NONE',  ( 2.499999999999879208, 40.99999999999995737, 0.000000000000000000 ) ) ;
#669 = VERTEX_POINT ( 'NONE', #142 ) ;
#670 = AXIS2_PLACEMENT_3D ( 'NONE', #653, #71, #160 ) ;
#671 = CARTESIAN_POINT ( 'NONE',  ( 1.691321428571429953E-14, 33.34999999999999432, 0.000000000000000000 ) ) ;
#672 = CARTESIAN_POINT ( 'NONE',  ( 1.691321428571429953E-14, 33.34999999999999432, 0.000000000000000000 ) ) ;
#673 = DIRECTION ( 'NONE',  ( 0.7071067811865595631, 0.7071067811865355823, 8.659560562355074607E-17 ) ) ;
#674 = EDGE_CURVE ( 'NONE', #497, #898, #359, .T. ) ;
#675 = SURFACE_STYLE_USAGE ( .BOTH. , #400 ) ;
#676 = CARTESIAN_POINT ( 'NONE',  ( 1.521428571428571617E-14, 29.99999999999997158, 0.000000000000000000 ) ) ;
#677 = ORIENTED_EDGE ( 'NONE', *, *, #667, .F. ) ;
#678 = ORIENTED_EDGE ( 'NONE', *, *, #652, .F. ) ;
#679 = DIRECTION ( 'NONE',  ( 1.000000000000000000, 0.000000000000000000, 0.000000000000000000 ) ) ;
#680 = DIRECTION ( 'NONE',  ( 1.000000000000000000, 0.000000000000000000, 0.000000000000000000 ) ) ;
#681 = EDGE_CURVE ( 'NONE', #443, #69, #507, .T. ) ;
#682 = CARTESIAN_POINT ( 'NONE',  ( 2.130000000000000138E-14, 41.99999999999996447, 0.000000000000000000 ) ) ;
#683 = CARTESIAN_POINT ( 'NONE',  ( 4.021018301728291218E-15, 7.928768482281129515, 0.000000000000000000 ) ) ;
#684 = AXIS2_PLACEMENT_3D ( 'NONE', #323, #465, #633 ) ;
#685 = CIRCLE ( 'NONE', #210, 0.7999999999991158628 ) ;
#686 = ORIENTED_EDGE ( 'NONE', *, *, #849, .T. ) ;
#687 = VECTOR ( 'NONE', #524, 1000.000000000000000 ) ;
#688 = CIRCLE ( 'NONE', #89, 3.999999999997042366 ) ;
#689 = VECTOR ( 'NONE', #595, 1000.000000000000000 ) ;
#690 = CARTESIAN_POINT ( 'NONE',  ( 1.470714285714288905E-14, 29.00000000000003197, 0.000000000000000000 ) ) ;
#691 = VERTEX_POINT ( 'NONE', #926 ) ;
#692 = CARTESIAN_POINT ( 'NONE',  ( 2.342392520710926502E-16, 0.4618802153514497966, 0.000000000000000000 ) ) ;
#693 = DIRECTION ( 'NONE',  ( -5.071428571428576922E-16, -1.000000000000000000, -0.000000000000000000 ) ) ;
#694 = ORIENTED_EDGE ( 'NONE', *, *, #64, .F. ) ;
#695 = EDGE_LOOP ( 'NONE', ( #925, #358, #732, #583 ) ) ;
#696 = DIRECTION ( 'NONE',  ( 1.000000000000000000, -5.071428571428576922E-16, 0.000000000000000000 ) ) ;
#697 = ADVANCED_FACE ( 'NONE', ( #205 ), #275, .T. ) ;
#698 = CIRCLE ( 'NONE', #604, 4.920000000000163354 ) ;
#699 = AXIS2_PLACEMENT_3D ( 'NONE', #811, #818, #168 ) ;
#700 = PRESENTATION_STYLE_ASSIGNMENT (( #56 ) ) ;
#701 = MECHANICAL_DESIGN_GEOMETRIC_PRESENTATION_REPRESENTATION (  '', ( #827 ), #895 ) ;
#702 = DIRECTION ( 'NONE',  ( 1.000000000000000000, 0.000000000000000000, 0.000000000000000000 ) ) ;
#703 =( GEOMETRIC_REPRESENTATION_CONTEXT ( 3 ) GLOBAL_UNCERTAINTY_ASSIGNED_CONTEXT ( ( #540 ) ) GLOBAL_UNIT_ASSIGNED_CONTEXT ( ( #110, #830, #537 ) ) REPRESENTATION_CONTEXT ( 'NONE', 'WORKASPACE' ) );
#704 = ORIENTED_EDGE ( 'NONE', *, *, #601, .T. ) ;
#705 = CARTESIAN_POINT ( 'NONE',  ( -4.999999999999933387, 2.535714285714254343E-15, 6.123233995736684438E-16 ) ) ;
#706 = APPLICATION_CONTEXT ( 'automotive_design' ) ;
#707 = CARTESIAN_POINT ( 'NONE',  ( 2.449999999999911360, -1.242499999999956391E-15, 0.000000000000000000 ) ) ;
#708 = PRODUCT_RELATED_PRODUCT_CATEGORY ( 'part', '', ( #143 ) ) ;
#709 = EDGE_LOOP ( 'NONE', ( #17, #548, #342, #637 ) ) ;
#710 = DIRECTION ( 'NONE',  ( -1.000000000000000000, 0.000000000000000000, 0.000000000000000000 ) ) ;
#711 = ORIENTED_EDGE ( 'NONE', *, *, #254, .T. ) ;
#712 = ORIENTED_EDGE ( 'NONE', *, *, #674, .T. ) ;
#713 = EDGE_CURVE ( 'NONE', #898, #607, #430, .T. ) ;
#714 = DIRECTION ( 'NONE',  ( -5.071428571428576922E-16, -1.000000000000000000, -0.000000000000000000 ) ) ;
#715 = CARTESIAN_POINT ( 'NONE',  ( 5.421565327993915192E-15, 10.69041050590348263, 0.000000000000000000 ) ) ;
#716 = AXIS2_PLACEMENT_3D ( 'NONE', #671, #35, #315 ) ;
#717 = CIRCLE ( 'NONE', #922, 2.567156999999821831 ) ;
#718 = VERTEX_POINT ( 'NONE', #773 ) ;
#719 = VECTOR ( 'NONE', #472, 1000.000000000000000 ) ;
#720 = CARTESIAN_POINT ( 'NONE',  ( 1.470714285714285749E-14, 28.99999999999997513, 0.000000000000000000 ) ) ;
#721 = LINE ( 'NONE', #82, #461 ) ;
#722 = ORIENTED_EDGE ( 'NONE', *, *, #784, .T. ) ;
#723 = DIRECTION ( 'NONE',  ( -1.000000000000000000, 4.743384504629323879E-16, 0.000000000000000000 ) ) ;
#724 = FACE_OUTER_BOUND ( 'NONE', #446, .T. ) ;
#725 = LINE ( 'NONE', #666, #812 ) ;
#726 = CARTESIAN_POINT ( 'NONE',  ( 1.774999999999999379E-14, 34.99999999999995026, 0.000000000000000000 ) ) ;
#727 = ORIENTED_EDGE ( 'NONE', *, *, #151, .F. ) ;
#728 = DIRECTION ( 'NONE',  ( -5.071428571428576922E-16, -1.000000000000000000, -0.000000000000000000 ) ) ;
#729 = AXIS2_PLACEMENT_3D ( 'NONE', #196, #343, #390 ) ;
#730 = CIRCLE ( 'NONE', #222, 2.449999999999923350 ) ;
#731 = DIRECTION ( 'NONE',  ( -5.071428571428576922E-16, -1.000000000000000000, -0.000000000000000000 ) ) ;
#732 = ORIENTED_EDGE ( 'NONE', *, *, #414, .T. ) ;
#733 = CARTESIAN_POINT ( 'NONE',  ( 2.567156999999837375, 29.81715700000004077, 0.000000000000000000 ) ) ;
#734 = DIRECTION ( 'NONE',  ( 1.000000000000000000, -5.071428571428576922E-16, 0.000000000000000000 ) ) ;
#735 = UNCERTAINTY_MEASURE_WITH_UNIT (LENGTH_MEASURE( 1.000000000000000082E-05 ), #261, 'distance_accuracy_value', 'NONE');
#736 = CARTESIAN_POINT ( 'NONE',  ( 1.774999999999999379E-14, 34.99999999999995026, 0.000000000000000000 ) ) ;
#737 = EDGE_CURVE ( 'NONE', #571, #224, #345, .T. ) ;
#738 = LINE ( 'NONE', #466, #565 ) ;
#739 = VERTEX_POINT ( 'NONE', #638 ) ;
#740 = DIRECTION ( 'NONE',  ( -5.071428571428576922E-16, -1.000000000000000000, -0.000000000000000000 ) ) ;
#741 = FILL_AREA_STYLE ('',( #335 ) ) ;
#742 = CARTESIAN_POINT ( 'NONE',  ( 2.499999999999879208, 34.99999999999995026, 0.000000000000000000 ) ) ;
#743 = TOROIDAL_SURFACE ( 'NONE', #309, 2.849999999999488054, 0.4000000000000011324 ) ;
#744 = CARTESIAN_POINT ( 'NONE',  ( 0.000000000000000000, 0.000000000000000000, 0.000000000000000000 ) ) ;
#745 = CARTESIAN_POINT ( 'NONE',  ( 0.000000000000000000, 0.000000000000000000, 0.000000000000000000 ) ) ;
#746 = CONICAL_SURFACE ( 'NONE', #579, 1732.050807567903576, 1.047197551196354270 ) ;
#747 = ORIENTED_EDGE ( 'NONE', *, *, #146, .F. ) ;
#748 = AXIS2_PLACEMENT_3D ( 'NONE', #368, #512, #801 ) ;
#749 = AXIS2_PLACEMENT_3D ( 'NONE', #682, #475, #329 ) ;
#750 = CARTESIAN_POINT ( 'NONE',  ( -2.749999999999884093, 1.394642857142799834E-15, 3.367778697655079510E-16 ) ) ;
#751 = CARTESIAN_POINT ( 'NONE',  ( 4.999999999999879208, 10.69041050590347908, 6.123233995736611468E-16 ) ) ;
#752 = CYLINDRICAL_SURFACE ( 'NONE', #442, 2.749999999999884093 ) ;
#753 = ORIENTED_EDGE ( 'NONE', *, *, #423, .T. ) ;
#754 = ORIENTED_EDGE ( 'NONE', *, *, #389, .F. ) ;
#755 = ADVANCED_FACE ( 'NONE', ( #70, #130 ), #77, .T. ) ;
#756 = CARTESIAN_POINT ( 'NONE',  ( 1.497811638571432969E-14, 29.53431400000005169, 0.000000000000000000 ) ) ;
#757 = FACE_OUTER_BOUND ( 'NONE', #284, .T. ) ;
#758 = DIRECTION ( 'NONE',  ( -5.071428571428576922E-16, -1.000000000000000000, -0.000000000000000000 ) ) ;
#759 = ORIENTED_EDGE ( 'NONE', *, *, #784, .F. ) ;
#760 = CARTESIAN_POINT ( 'NONE',  ( 1.472178254999999557E-14, 29.02886699999995912, 0.000000000000000000 ) ) ;
#761 = DIRECTION ( 'NONE',  ( -5.071428571428576922E-16, -1.000000000000000000, -0.000000000000000000 ) ) ;
#762 = CARTESIAN_POINT ( 'NONE',  ( -2.649999999999908873, 29.02886699999993425, 3.245314017740392285E-16 ) ) ;
#763 = DIRECTION ( 'NONE',  ( 1.000000000000000000, -7.051721447059957677E-16, 0.000000000000000000 ) ) ;
#764 = CONICAL_SURFACE ( 'NONE', #86, 1732.050807567903576, 1.047197551196354270 ) ;
#765 = EDGE_LOOP ( 'NONE', ( #646, #847 ) ) ;
#766 = VECTOR ( 'NONE', #474, 1000.000000000000000 ) ;
#767 = CARTESIAN_POINT ( 'NONE',  ( 1.774999999999999379E-14, 34.99999999999995026, 0.000000000000000000 ) ) ;
#768 = DIRECTION ( 'NONE',  ( 0.000000000000000000, 0.000000000000000000, -1.000000000000000000 ) ) ;
#769 = DIRECTION ( 'NONE',  ( 1.000000000000000000, -5.071428571428576922E-16, 0.000000000000000000 ) ) ;
#770 = ORIENTED_EDGE ( 'NONE', *, *, #449, .T. ) ;
#771 = SURFACE_STYLE_FILL_AREA ( #859 ) ;
#772 = VERTEX_POINT ( 'NONE', #499 ) ;
#773 = CARTESIAN_POINT ( 'NONE',  ( 0.000000000000000000, 0.000000000000000000, 0.000000000000000000 ) ) ;
#774 = ORIENTED_EDGE ( 'NONE', *, *, #538, .F. ) ;
#775 = ORIENTED_EDGE ( 'NONE', *, *, #713, .T. ) ;
#776 = DIRECTION ( 'NONE',  ( -5.071428571428576922E-16, -1.000000000000000000, -0.000000000000000000 ) ) ;
#777 = ADVANCED_FACE ( 'NONE', ( #364 ), #104, .T. ) ;
#778 = AXIS2_PLACEMENT_3D ( 'NONE', #331, #402, #622 ) ;
#779 = EDGE_CURVE ( 'NONE', #219, #781, #444, .T. ) ;
#780 = VECTOR ( 'NONE', #132, 1000.000000000000000 ) ;
#781 = VERTEX_POINT ( 'NONE', #134 ) ;
#782 = DIRECTION ( 'NONE',  ( 5.071428571428576922E-16, 1.000000000000000000, 0.000000000000000000 ) ) ;
#783 = CARTESIAN_POINT ( 'NONE',  ( 3.999999999997044142, 3.661880215349269108, 4.898587196585790971E-16 ) ) ;
#784 = EDGE_CURVE ( 'NONE', #195, #202, #139, .T. ) ;
#785 = ORIENTED_EDGE ( 'NONE', *, *, #251, .T. ) ;
#786 = CARTESIAN_POINT ( 'NONE',  ( -2.849999999999472955, 29.53431457505076096, 3.490243377569329410E-16 ) ) ;
#787 = DIRECTION ( 'NONE',  ( 1.000000000000000000, -5.071428571428576922E-16, 0.000000000000000000 ) ) ;
#788 = ADVANCED_FACE ( 'NONE', ( #428 ), #119, .F. ) ;
#789 = ORIENTED_EDGE ( 'NONE', *, *, #176, .T. ) ;
#790 = DIRECTION ( 'NONE',  ( 1.000000000000000000, 0.000000000000000000, 0.000000000000000000 ) ) ;
#791 = CARTESIAN_POINT ( 'NONE',  ( 2.079285714285714586E-14, 40.99999999999995737, 0.000000000000000000 ) ) ;
#792 = VECTOR ( 'NONE', #357, 1000.000000000000000 ) ;
#793 = AXIS2_PLACEMENT_3D ( 'NONE', #621, #128, #553 ) ;
#794 = VECTOR ( 'NONE', #630, 1000.000000000000000 ) ;
#795 = CARTESIAN_POINT ( 'NONE',  ( 2.849999999999503153, 29.53431457505076096, 0.000000000000000000 ) ) ;
#796 = ADVANCED_FACE ( 'NONE', ( #68 ), #580, .T. ) ;
#797 = ORIENTED_EDGE ( 'NONE', *, *, #338, .T. ) ;
#798 = APPLICATION_PROTOCOL_DEFINITION ( 'draft international standard', 'automotive_design', 1998, #559 ) ;
#799 = ADVANCED_FACE ( 'NONE', ( #858 ), #764, .T. ) ;
#800 = ORIENTED_EDGE ( 'NONE', *, *, #435, .F. ) ;
#801 = DIRECTION ( 'NONE',  ( 1.000000000000000000, -6.938893903907241197E-16, 0.000000000000000000 ) ) ;
#802 = CARTESIAN_POINT ( 'NONE',  ( -4.920000000000148255, 29.00000000000003553, 6.074248123770967912E-16 ) ) ;
#803 = LINE ( 'NONE', #882, #880 ) ;
#804 = PRODUCT_DEFINITION_CONTEXT ( 'detailed design', #706, 'design' ) ;
#805 = EDGE_LOOP ( 'NONE', ( #404, #264 ) ) ;
#806 = EDGE_CURVE ( 'NONE', #923, #65, #206, .T. ) ;
#807 = AXIS2_PLACEMENT_3D ( 'NONE', #672, #106, #545 ) ;
#808 = CONICAL_SURFACE ( 'NONE', #399, 0.7999999999991158628, 0.7853981633974648213 ) ;
#809 = CARTESIAN_POINT ( 'NONE',  ( 0.000000000000000000, 0.000000000000000000, 0.000000000000000000 ) ) ;
#810 = AXIS2_PLACEMENT_3D ( 'NONE', #659, #305, #11 ) ;
#811 = CARTESIAN_POINT ( 'NONE',  ( 2.342392520710926502E-16, 0.4618802153514497966, 0.000000000000000000 ) ) ;
#812 = VECTOR ( 'NONE', #871, 999.9999999999998863 ) ;
#813 = VERTEX_POINT ( 'NONE', #1 ) ;
#814 = ADVANCED_FACE ( 'NONE', ( #233 ), #808, .T. ) ;
#815 = CARTESIAN_POINT ( 'NONE',  ( -2.449999999999885159, 29.53431400000005169, 3.000384657910899506E-16 ) ) ;
#816 = CYLINDRICAL_SURFACE ( 'NONE', #232, 4.999999999999933387 ) ;
#817 = DIRECTION ( 'NONE',  ( -5.071428571428576922E-16, -1.000000000000000000, -0.000000000000000000 ) ) ;
#818 = DIRECTION ( 'NONE',  ( -5.071428571428576922E-16, -1.000000000000000000, -0.000000000000000000 ) ) ;
#819 = VERTEX_POINT ( 'NONE', #733 ) ;
#820 = ORIENTED_EDGE ( 'NONE', *, *, #389, .T. ) ;
#821 = DIRECTION ( 'NONE',  ( 1.000000000000000000, -5.071428571428576922E-16, 0.000000000000000000 ) ) ;
#822 = CARTESIAN_POINT ( 'NONE',  ( -2.749999999999866329, 33.34999999999999432, 3.367778697655079017E-16 ) ) ;
#823 = CONICAL_SURFACE ( 'NONE', #263, 3.999999999997039701, 0.3474164168819702803 ) ;
#824 = FACE_OUTER_BOUND ( 'NONE', #310, .T. ) ;
#825 = EDGE_CURVE ( 'NONE', #772, #516, #685, .T. ) ;
#826 = CARTESIAN_POINT ( 'NONE',  ( 0.000000000000000000, 0.000000000000000000, 0.000000000000000000 ) ) ;
#827 = STYLED_ITEM ( 'NONE', ( #700 ), #337 ) ;
#828 = ORIENTED_EDGE ( 'NONE', *, *, #667, .T. ) ;
#829 = AXIS2_PLACEMENT_3D ( 'NONE', #736, #293, #519 ) ;
#830 =( NAMED_UNIT ( * ) PLANE_ANGLE_UNIT ( ) SI_UNIT ( $, .RADIAN. ) );
#831 = DIRECTION ( 'NONE',  ( 1.000000000000000000, -6.938893903907241197E-16, 0.000000000000000000 ) ) ;
#832 = EDGE_LOOP ( 'NONE', ( #179, #213, #489, #189 ) ) ;
#833 = DIRECTION ( 'NONE',  ( 1.000000000000000000, 0.000000000000000000, -1.224646799147350989E-16 ) ) ;
#834 = PLANE ( 'NONE',  #348 ) ;
#835 = CARTESIAN_POINT ( 'NONE',  ( 2.079285714285714586E-14, 40.99999999999995737, 0.000000000000000000 ) ) ;
#836 = ORIENTED_EDGE ( 'NONE', *, *, #55, .F. ) ;
#837 = CARTESIAN_POINT ( 'NONE',  ( 0.000000000000000000, 0.000000000000000000, 0.000000000000000000 ) ) ;
#838 = CARTESIAN_POINT ( 'NONE',  ( 2.750000017484310444, 28.85566196971615938, 3.520859558254613460E-16 ) ) ;
#839 = AXIS2_PLACEMENT_3D ( 'NONE', #504, #913, #417 ) ;
#840 = CONICAL_SURFACE ( 'NONE', #778, 2.567156999999821831, 0.7853981633978147636 ) ;
#841 = ORIENTED_EDGE ( 'NONE', *, *, #431, .F. ) ;
#842 = CONICAL_SURFACE ( 'NONE', #447, 0.7999999999991158628, 0.7853981633974648213 ) ;
#843 = ORIENTED_EDGE ( 'NONE', *, *, #431, .T. ) ;
#844 = DIRECTION ( 'NONE',  ( -5.071428571428576922E-16, -1.000000000000000000, -0.000000000000000000 ) ) ;
#845 =( NAMED_UNIT ( * ) PLANE_ANGLE_UNIT ( ) SI_UNIT ( $, .RADIAN. ) );
#846 = DIRECTION ( 'NONE',  ( -1.000000000000000000, 0.000000000000000000, 0.000000000000000000 ) ) ;
#847 = ORIENTED_EDGE ( 'NONE', *, *, #876, .F. ) ;
#848 = CARTESIAN_POINT ( 'NONE',  ( 2.079285714285714586E-14, 40.99999999999995737, 0.000000000000000000 ) ) ;
#849 = EDGE_CURVE ( 'NONE', #607, #898, #592, .T. ) ;
#850 = CARTESIAN_POINT ( 'NONE',  ( -2.099999999999881517, 33.99999999999997158, 2.969768487932197871E-16 ) ) ;
#851 = DIRECTION ( 'NONE',  ( -1.000000000000000000, 4.743384504629323879E-16, 0.000000000000000000 ) ) ;
#852 = ORIENTED_EDGE ( 'NONE', *, *, #713, .F. ) ;
#853 = CARTESIAN_POINT ( 'NONE',  ( 2.999999999999900524, 29.00000000000000000, 0.000000000000000000 ) ) ;
#854 = EDGE_CURVE ( 'NONE', #536, #739, #166, .T. ) ;
#855 = AXIS2_PLACEMENT_3D ( 'NONE', #478, #892, #680 ) ;
#856 = STYLED_ITEM ( 'NONE', ( #386 ), #277 ) ;
#857 = ORIENTED_EDGE ( 'NONE', *, *, #146, .T. ) ;
#858 = FACE_OUTER_BOUND ( 'NONE', #634, .T. ) ;
#859 = FILL_AREA_STYLE ('',( #564 ) ) ;
#860 = ORIENTED_EDGE ( 'NONE', *, *, #806, .F. ) ;
#861 = DIRECTION ( 'NONE',  ( 1.000000000000000000, 0.000000000000000000, 0.000000000000000000 ) ) ;
#862 = ORIENTED_EDGE ( 'NONE', *, *, #737, .F. ) ;
#863 =( NAMED_UNIT ( * ) SI_UNIT ( $, .STERADIAN. ) SOLID_ANGLE_UNIT ( ) );
#864 = AXIS2_PLACEMENT_3D ( 'NONE', #170, #594, #787 ) ;
#865 = EDGE_CURVE ( 'NONE', #813, #54, #298, .T. ) ;
#866 = DIRECTION ( 'NONE',  ( -5.071428571428576922E-16, -1.000000000000000000, -0.000000000000000000 ) ) ;
#867 =( GEOMETRIC_REPRESENTATION_CONTEXT ( 3 ) GLOBAL_UNCERTAINTY_ASSIGNED_CONTEXT ( ( #614 ) ) GLOBAL_UNIT_ASSIGNED_CONTEXT ( ( #527, #452, #863 ) ) REPRESENTATION_CONTEXT ( 'NONE', 'WORKASPACE' ) );
#868 = DIRECTION ( 'NONE',  ( -5.071428571428576922E-16, -1.000000000000000000, -0.000000000000000000 ) ) ;
#869 = ORIENTED_EDGE ( 'NONE', *, *, #241, .T. ) ;
#870 = DIRECTION ( 'NONE',  ( 1.000000000000000000, 0.000000000000000000, 0.000000000000000000 ) ) ;
#871 = DIRECTION ( 'NONE',  ( 0.7071067811865473507, -0.7071067811865477948, 0.000000000000000000 ) ) ;
#872 = DIRECTION ( 'NONE',  ( 0.8660254037843172492, 0.5000000000002103873, 1.060575238724757771E-16 ) ) ;
#873 = FACE_OUTER_BOUND ( 'NONE', #486, .T. ) ;
#874 = CARTESIAN_POINT ( 'NONE',  ( 2.342392520710926502E-16, 0.4618802153514497966, 0.000000000000000000 ) ) ;
#875 = CARTESIAN_POINT ( 'NONE',  ( -2.749999999999866329, 33.34999999999999432, 3.367778697655078031E-16 ) ) ;
#876 = EDGE_CURVE ( 'NONE', #669, #813, #532, .T. ) ;
#877 = DIRECTION ( 'NONE',  ( 0.7071067811868070319, 0.7071067811862881136, 8.659560562358106791E-17 ) ) ;
#878 = AXIS2_PLACEMENT_3D ( 'NONE', #490, #714, #147 ) ;
#879 = CARTESIAN_POINT ( 'NONE',  ( 1.691321428571429953E-14, 33.34999999999999432, 0.000000000000000000 ) ) ;
#880 = VECTOR ( 'NONE', #673, 1000.000000000000114 ) ;
#881 = AXIS2_PLACEMENT_3D ( 'NONE', #57, #344, #702 ) ;
#882 = CARTESIAN_POINT ( 'NONE',  ( 0.7999999999991160848, 0.4618802153514494080, 9.797174393167999035E-17 ) ) ;
#883 = ORIENTED_EDGE ( 'NONE', *, *, #585, .T. ) ;
#884 = DIRECTION ( 'NONE',  ( 0.000000000000000000, 0.000000000000000000, 1.000000000000000000 ) ) ;
#885 = DIRECTION ( 'NONE',  ( -5.071428571428576922E-16, -1.000000000000000000, -0.000000000000000000 ) ) ;
#886 = EDGE_LOOP ( 'NONE', ( #531, #353, #852, #187 ) ) ;
#887 = CARTESIAN_POINT ( 'NONE',  ( 0.000000000000000000, 0.000000000000000000, 0.000000000000000000 ) ) ;
#888 = CARTESIAN_POINT ( 'NONE',  ( 2.749999999999884093, -1.394642857142799834E-15, 0.000000000000000000 ) ) ;
#889 = CARTESIAN_POINT ( 'NONE',  ( 0.000000000000000000, 0.000000000000000000, 0.000000000000000000 ) ) ;
#890 = VERTEX_POINT ( 'NONE', #534 ) ;
#891 = ORIENTED_EDGE ( 'NONE', *, *, #20, .F. ) ;
#892 = DIRECTION ( 'NONE',  ( -5.071428571428576922E-16, -1.000000000000000000, -0.000000000000000000 ) ) ;
#893 = DIRECTION ( 'NONE',  ( 1.000000000000000000, -5.071428571428575936E-16, 0.000000000000000000 ) ) ;
#894 = LINE ( 'NONE', #249, #246 ) ;
#895 =( GEOMETRIC_REPRESENTATION_CONTEXT ( 3 ) GLOBAL_UNCERTAINTY_ASSIGNED_CONTEXT ( ( #735 ) ) GLOBAL_UNIT_ASSIGNED_CONTEXT ( ( #261, #845, #354 ) ) REPRESENTATION_CONTEXT ( 'NONE', 'WORKASPACE' ) );
#896 = DIRECTION ( 'NONE',  ( 1.000000000000000000, 0.000000000000000000, 0.000000000000000000 ) ) ;
#897 = EDGE_CURVE ( 'NONE', #54, #900, #725, .T. ) ;
#898 = VERTEX_POINT ( 'NONE', #5 ) ;
#899 = CARTESIAN_POINT ( 'NONE',  ( 4.920000000000177565, 29.00000000000002842, 0.000000000000000000 ) ) ;
#900 = VERTEX_POINT ( 'NONE', #81 ) ;
#901 = ADVANCED_FACE ( 'NONE', ( #19 ), #909, .T. ) ;
#902 = DIRECTION ( 'NONE',  ( 0.7071067811858955388, -0.7071067811871994957, 0.000000000000000000 ) ) ;
#903 = DIRECTION ( 'NONE',  ( -5.071428571428576922E-16, -1.000000000000000000, -0.000000000000000000 ) ) ;
#904 = ORIENTED_EDGE ( 'NONE', *, *, #207, .F. ) ;
#905 = DIRECTION ( 'NONE',  ( 5.071428571428576922E-16, 1.000000000000000000, 0.000000000000000000 ) ) ;
#906 = AXIS2_PLACEMENT_3D ( 'NONE', #853, #782, #280 ) ;
#907 = ORIENTED_EDGE ( 'NONE', *, *, #20, .T. ) ;
#908 = AXIS2_PLACEMENT_3D ( 'NONE', #767, #761, #487 ) ;
#909 = CONICAL_SURFACE ( 'NONE', #283, 2.499999999999858336, 0.7853981633974380649 ) ;
#910 = CONICAL_SURFACE ( 'NONE', #533, 2.499999999999858336, 0.7853981633974380649 ) ;
#911 = EDGE_CURVE ( 'NONE', #819, #593, #94, .T. ) ;
#912 = VERTEX_POINT ( 'NONE', #523 ) ;
#913 = DIRECTION ( 'NONE',  ( -5.071428571428576922E-16, -1.000000000000000000, -0.000000000000000000 ) ) ;
#914 = DIRECTION ( 'NONE',  ( 1.000000000000000000, -5.071428571428576922E-16, 0.000000000000000000 ) ) ;
#915 = EDGE_LOOP ( 'NONE', ( #678, #753, #654, #285 ) ) ;
#916 = EDGE_CURVE ( 'NONE', #195, #443, #122, .T. ) ;
#917 = DIRECTION ( 'NONE',  ( -5.071428571428576922E-16, -1.000000000000000000, -0.000000000000000000 ) ) ;
#918 = DIRECTION ( 'NONE',  ( 1.000000000000000000, 0.000000000000000000, 0.000000000000000000 ) ) ;
#919 = ORIENTED_EDGE ( 'NONE', *, *, #171, .T. ) ;
#920 = CARTESIAN_POINT ( 'NONE',  ( 1.512155819285717991E-14, 29.81715700000004077, 0.000000000000000000 ) ) ;
#921 = ADVANCED_FACE ( 'NONE', ( #290 ), #440, .T. ) ;
#922 = AXIS2_PLACEMENT_3D ( 'NONE', #920, #412, #861 ) ;
#923 = VERTEX_POINT ( 'NONE', #815 ) ;
#924 = CIRCLE ( 'NONE', #479, 3.999999999997039701 ) ;
#925 = ORIENTED_EDGE ( 'NONE', *, *, #617, .F. ) ;
#926 = CARTESIAN_POINT ( 'NONE',  ( 3.999999999997044142, 7.928768482281127739, 0.000000000000000000 ) ) ;
#927 = ORIENTED_EDGE ( 'NONE', *, *, #273, .F. ) ;
#928 = EDGE_CURVE ( 'NONE', #69, #202, #62, .T. ) ;
ENDSEC;
END-ISO-10303-21;
