ISO-10303-21;
HEADER;
FILE_DESCRIPTION (( 'STEP AP214' ),
    '1' );
FILE_NAME ('99688-SI20-M12+S9MT2004-120.STEP',
    '2023-09-26T06:32:59',
    ( '' ),
    ( '' ),
    'SwSTEP 2.0',
    'SolidWorks 2020',
    '' );
FILE_SCHEMA (( 'AUTOMOTIVE_DESIGN' ));
ENDSEC;

DATA;
#1 = CARTESIAN_POINT ( 'NONE',  ( 6.249999999999952038, 81.99999999999806732, 7.654042494670889567E-16 ) ) ;
#2 = ORIENTED_EDGE ( 'NONE', *, *, #117, .T. ) ;
#3 = CARTESIAN_POINT ( 'NONE',  ( 6.249999999999952038, 65.49999999999810996, 7.654042494670891539E-16 ) ) ;
#4 = FILL_AREA_STYLE ('',( #308 ) ) ;
#5 = ORIENTED_EDGE ( 'NONE', *, *, #954, .F. ) ;
#6 = EDGE_CURVE ( 'NONE', #345, #33, #597, .T. ) ;
#7 = CARTESIAN_POINT ( 'NONE',  ( 7.100000000000000986E-15, 81.99999999999806732, 0.000000000000000000 ) ) ;
#8 = CARTESIAN_POINT ( 'NONE',  ( 5.241385774181192090E-15, 60.53431457504895263, 0.000000000000000000 ) ) ;
#9 = AXIS2_PLACEMENT_3D ( 'NONE', #648, #340, #603 ) ;
#10 = AXIS2_PLACEMENT_3D ( 'NONE', #214, #834, #217 ) ;
#11 = CIRCLE ( 'NONE', #580, 5.749999999999974243 ) ;
#12 = CIRCLE ( 'NONE', #921, 5.249999999999996447 ) ;
#13 = ADVANCED_FACE ( 'NONE', ( #905, #430 ), #212, .F. ) ;
#14 = CARTESIAN_POINT ( 'NONE',  ( -6.249999999999938716, 65.49999999999810996, 0.000000000000000000 ) ) ;
#15 = VERTEX_POINT ( 'NONE', #436 ) ;
#16 = DIRECTION ( 'NONE',  ( 8.658536585366059171E-17, 1.000000000000000000, -0.000000000000000000 ) ) ;
#17 = DIRECTION ( 'NONE',  ( -1.000000000000000000, 0.000000000000000000, 0.000000000000000000 ) ) ;
#18 = VERTEX_POINT ( 'NONE', #350 ) ;
#19 = CARTESIAN_POINT ( 'NONE',  ( 6.071532165918824830E-15, 67.41905249806701761, 0.000000000000000000 ) ) ;
#20 = DIRECTION ( 'NONE',  ( -1.000000000000000000, 0.000000000000000000, 0.000000000000000000 ) ) ;
#21 = ORIENTED_EDGE ( 'NONE', *, *, #720, .T. ) ;
#22 = DIRECTION ( 'NONE',  ( 8.658536585366059171E-17, 1.000000000000000000, -0.000000000000000000 ) ) ;
#23 = AXIS2_PLACEMENT_3D ( 'NONE', #455, #329, #934 ) ;
#24 = AXIS2_PLACEMENT_3D ( 'NONE', #195, #204, #502 ) ;
#25 = AXIS2_PLACEMENT_3D ( 'NONE', #523, #816, #839 ) ;
#26 = CARTESIAN_POINT ( 'NONE',  ( -10.00000000000019362, 81.99999999999806732, 0.000000000000000000 ) ) ;
#27 = MECHANICAL_DESIGN_GEOMETRIC_PRESENTATION_REPRESENTATION (  '', ( #257 ), #596 ) ;
#28 = VECTOR ( 'NONE', #262, 1000.000000000000000 ) ;
#29 = ORIENTED_EDGE ( 'NONE', *, *, #943, .T. ) ;
#30 = ADVANCED_FACE ( 'NONE', ( #202 ), #708, .F. ) ;
#31 = DIRECTION ( 'NONE',  ( 8.658536585366059171E-17, 1.000000000000000000, -0.000000000000000000 ) ) ;
#32 = ORIENTED_EDGE ( 'NONE', *, *, #151, .F. ) ;
#33 = VERTEX_POINT ( 'NONE', #505 ) ;
#34 = CARTESIAN_POINT ( 'NONE',  ( 6.067157287525340337, 60.81715728752354266, 7.430124752091439530E-16 ) ) ;
#35 = CARTESIAN_POINT ( 'NONE',  ( 5.195121951219479111E-15, 59.99999999999818812, 0.000000000000000000 ) ) ;
#36 = PRODUCT_DEFINITION ( 'UNKNOWN', '', #435, #490 ) ;
#37 = VERTEX_POINT ( 'NONE', #817 ) ;
#38 = ORIENTED_EDGE ( 'NONE', *, *, #803, .T. ) ;
#39 = CARTESIAN_POINT ( 'NONE',  ( -10.00000000000028599, 20.52786404500053763, 0.000000000000000000 ) ) ;
#40 = EDGE_CURVE ( 'NONE', #374, #975, #821, .T. ) ;
#41 = DIRECTION ( 'NONE',  ( -1.000000000000000000, 0.000000000000000000, 0.000000000000000000 ) ) ;
#42 = DIRECTION ( 'NONE',  ( 8.658536585366059171E-17, 1.000000000000000000, -0.000000000000000000 ) ) ;
#43 = EDGE_CURVE ( 'NONE', #553, #154, #731, .T. ) ;
#44 = CIRCLE ( 'NONE', #612, 5.950000000000006395 ) ;
#45 = EDGE_LOOP ( 'NONE', ( #764, #270, #175, #631 ) ) ;
#46 = CARTESIAN_POINT ( 'NONE',  ( 2.261439528292016751E-15, 26.11803398872407911, 0.000000000000000000 ) ) ;
#47 = DIRECTION ( 'NONE',  ( 1.000000000000000000, -8.658536585366059171E-17, 0.000000000000000000 ) ) ;
#48 = ORIENTED_EDGE ( 'NONE', *, *, #433, .T. ) ;
#49 = DIRECTION ( 'NONE',  ( -1.000000000000000000, 0.000000000000000000, 0.000000000000000000 ) ) ;
#50 = DIRECTION ( 'NONE',  ( -0.7071067811865489050, 0.7071067811865460184, 0.000000000000000000 ) ) ;
#51 = ADVANCED_FACE ( 'NONE', ( #747 ), #221, .F. ) ;
#52 = FACE_OUTER_BOUND ( 'NONE', #684, .T. ) ;
#53 = ORIENTED_EDGE ( 'NONE', *, *, #135, .T. ) ;
#54 = ADVANCED_FACE ( 'NONE', ( #344 ), #789, .T. ) ;
#55 = CARTESIAN_POINT ( 'NONE',  ( -10.00000000000028599, 20.52786404500053763, 0.000000000000000000 ) ) ;
#56 = CARTESIAN_POINT ( 'NONE',  ( 5.202620463862000338E-15, 60.08660254037661019, 0.000000000000000000 ) ) ;
#57 = VECTOR ( 'NONE', #946, 1000.000000000000114 ) ;
#58 = AXIS2_PLACEMENT_3D ( 'NONE', #333, #562, #857 ) ;
#59 = EDGE_LOOP ( 'NONE', ( #503, #748, #870, #524 ) ) ;
#60 = TOROIDAL_SURFACE ( 'NONE', #903, 6.350000000000033396, 0.4000000000000267231 ) ;
#61 = AXIS2_PLACEMENT_3D ( 'NONE', #142, #539, #831 ) ;
#62 = VECTOR ( 'NONE', #571, 1000.000000000000227 ) ;
#63 = AXIS2_PLACEMENT_3D ( 'NONE', #936, #376, #170 ) ;
#64 = CARTESIAN_POINT ( 'NONE',  ( 5.195121951219479111E-15, 59.99999999999818812, 0.000000000000000000 ) ) ;
#65 = DIRECTION ( 'NONE',  ( 8.658536585366059171E-17, 1.000000000000000000, -0.000000000000000000 ) ) ;
#66 = ORIENTED_EDGE ( 'NONE', *, *, #838, .F. ) ;
#67 = EDGE_LOOP ( 'NONE', ( #393, #721, #259, #792 ) ) ;
#68 = DIRECTION ( 'NONE',  ( 8.658536585366059171E-17, 1.000000000000000000, -0.000000000000000000 ) ) ;
#69 = VERTEX_POINT ( 'NONE', #961 ) ;
#70 = CARTESIAN_POINT ( 'NONE',  ( 5.671341463414605832E-15, 65.49999999999810996, 0.000000000000000000 ) ) ;
#71 = EDGE_CURVE ( 'NONE', #877, #442, #874, .T. ) ;
#72 = EDGE_CURVE ( 'NONE', #442, #877, #950, .T. ) ;
#73 = VECTOR ( 'NONE', #155, 1000.000000000000114 ) ;
#74 = DIRECTION ( 'NONE',  ( 8.658536585366059171E-17, 1.000000000000000000, -0.000000000000000000 ) ) ;
#75 = ORIENTED_EDGE ( 'NONE', *, *, #985, .T. ) ;
#76 = CIRCLE ( 'NONE', #645, 6.249999999999944933 ) ;
#77 = CARTESIAN_POINT ( 'NONE',  ( -12.50000000000001421, 81.99999999999806732, 0.000000000000000000 ) ) ;
#78 = DIRECTION ( 'NONE',  ( 8.658536585366059171E-17, 1.000000000000000000, -0.000000000000000000 ) ) ;
#79 = EDGE_LOOP ( 'NONE', ( #361, #263, #303, #687 ) ) ;
#80 = DIRECTION ( 'NONE',  ( 1.000000000000000000, 0.000000000000000000, 0.000000000000000000 ) ) ;
#81 = CARTESIAN_POINT ( 'NONE',  ( 7.100000000000002563E-15, 81.99999999999806732, 0.000000000000000000 ) ) ;
#82 = DIRECTION ( 'NONE',  ( 8.658536585366059171E-17, 1.000000000000000000, -0.000000000000000000 ) ) ;
#83 = EDGE_CURVE ( 'NONE', #999, #947, #916, .T. ) ;
#84 = ORIENTED_EDGE ( 'NONE', *, *, #117, .F. ) ;
#85 = APPLICATION_PROTOCOL_DEFINITION ( 'draft international standard', 'automotive_design', 1998, #146 ) ;
#86 = DIRECTION ( 'NONE',  ( 0.7071067811864646391, -0.7071067811866303954, 0.000000000000000000 ) ) ;
#87 = ADVANCED_FACE ( 'NONE', ( #511 ), #352, .F. ) ;
#88 = FACE_OUTER_BOUND ( 'NONE', #399, .T. ) ;
#89 = EDGE_LOOP ( 'NONE', ( #277, #506, #2, #209 ) ) ;
#90 = AXIS2_PLACEMENT_3D ( 'NONE', #583, #972, #586 ) ;
#91 = FACE_OUTER_BOUND ( 'NONE', #673, .T. ) ;
#92 = CARTESIAN_POINT ( 'NONE',  ( -5.999999999999992895, 78.99999999999805311, 0.000000000000000000 ) ) ;
#93 = ADVANCED_BREP_SHAPE_REPRESENTATION ( '99688-SI20-M12+S9MT2004-120', ( #444, #162 ), #579 ) ;
#94 = DIRECTION ( 'NONE',  ( 8.658536585366059171E-17, 1.000000000000000000, -0.000000000000000000 ) ) ;
#95 = ORIENTED_EDGE ( 'NONE', *, *, #582, .T. ) ;
#96 = FACE_OUTER_BOUND ( 'NONE', #203, .T. ) ;
#97 = EDGE_LOOP ( 'NONE', ( #768, #237, #716, #288 ) ) ;
#98 = DIRECTION ( 'NONE',  ( 8.658536585366059171E-17, 1.000000000000000000, -0.000000000000000000 ) ) ;
#99 = DIRECTION ( 'NONE',  ( -8.658536585366059171E-17, -1.000000000000000000, 0.000000000000000000 ) ) ;
#100 = CYLINDRICAL_SURFACE ( 'NONE', #581, 5.000000000000004441 ) ;
#101 = EDGE_CURVE ( 'NONE', #877, #693, #305, .T. ) ;
#102 = ORIENTED_EDGE ( 'NONE', *, *, #552, .F. ) ;
#103 = DIRECTION ( 'NONE',  ( -1.000000000000000000, 0.000000000000000000, 0.000000000000000000 ) ) ;
#104 = DIRECTION ( 'NONE',  ( 8.658536585366059171E-17, 1.000000000000000000, -0.000000000000000000 ) ) ;
#105 = AXIS2_PLACEMENT_3D ( 'NONE', #787, #868, #395 ) ;
#106 = VECTOR ( 'NONE', #893, 1000.000000000000000 ) ;
#107 = CIRCLE ( 'NONE', #300, 6.000000000000000000 ) ;
#108 = DIRECTION ( 'NONE',  ( -1.000000000000000000, 8.658536585366060403E-17, 0.000000000000000000 ) ) ;
#109 = MECHANICAL_DESIGN_GEOMETRIC_PRESENTATION_REPRESENTATION (  '', ( #144 ), #403 ) ;
#110 = AXIS2_PLACEMENT_3D ( 'NONE', #289, #294, #602 ) ;
#111 = CARTESIAN_POINT ( 'NONE',  ( 5.281707317073141527E-15, 60.99999999999820943, 0.000000000000000000 ) ) ;
#112 = DIRECTION ( 'NONE',  ( 8.658536585366059171E-17, 1.000000000000000000, -0.000000000000000000 ) ) ;
#113 = ORIENTED_EDGE ( 'NONE', *, *, #829, .T. ) ;
#114 = EDGE_CURVE ( 'NONE', #911, #773, #769, .T. ) ;
#115 = CARTESIAN_POINT ( 'NONE',  ( 5.195121951219480688E-15, 59.99999999999820943, 0.000000000000000000 ) ) ;
#116 = DIRECTION ( 'NONE',  ( 8.658536585366059171E-17, 1.000000000000000000, -0.000000000000000000 ) ) ;
#117 = EDGE_CURVE ( 'NONE', #737, #37, #230, .T. ) ;
#118 = DIRECTION ( 'NONE',  ( 8.658536585366059171E-17, 1.000000000000000000, -0.000000000000000000 ) ) ;
#119 = ORIENTED_EDGE ( 'NONE', *, *, #225, .F. ) ;
#120 = AXIS2_PLACEMENT_3D ( 'NONE', #899, #657, #894 ) ;
#121 = ORIENTED_EDGE ( 'NONE', *, *, #766, .T. ) ;
#122 = VECTOR ( 'NONE', #86, 1000.000000000000000 ) ;
#123 = AXIS2_PLACEMENT_3D ( 'NONE', #676, #428, #285 ) ;
#124 = VERTEX_POINT ( 'NONE', #55 ) ;
#125 = AXIS2_PLACEMENT_3D ( 'NONE', #942, #245, #41 ) ;
#126 = CYLINDRICAL_SURFACE ( 'NONE', #208, 6.000000000000000000 ) ;
#127 = EDGE_LOOP ( 'NONE', ( #833, #797, #215, #989 ) ) ;
#128 = EDGE_CURVE ( 'NONE', #938, #826, #594, .T. ) ;
#129 = ORIENTED_EDGE ( 'NONE', *, *, #193, .T. ) ;
#130 = EDGE_LOOP ( 'NONE', ( #995, #536, #531, #738 ) ) ;
#131 = FACE_OUTER_BOUND ( 'NONE', #59, .T. ) ;
#132 = CARTESIAN_POINT ( 'NONE',  ( 5.204170427930421283E-15, 60.53431457504893842, 0.000000000000000000 ) ) ;
#133 = DIRECTION ( 'NONE',  ( 8.658536585366059171E-17, 1.000000000000000000, -0.000000000000000000 ) ) ;
#134 = ORIENTED_EDGE ( 'NONE', *, *, #838, .T. ) ;
#135 = EDGE_CURVE ( 'NONE', #431, #975, #432, .T. ) ;
#136 = DIRECTION ( 'NONE',  ( 8.658536585366059171E-17, 1.000000000000000000, -0.000000000000000000 ) ) ;
#137 = DIRECTION ( 'NONE',  ( 8.658536585366059171E-17, 1.000000000000000000, -0.000000000000000000 ) ) ;
#138 = CONICAL_SURFACE ( 'NONE', #980, 6.000000000000000000, 0.5235987755982907110 ) ;
#139 = VERTEX_POINT ( 'NONE', #150 ) ;
#140 = CIRCLE ( 'NONE', #920, 5.749999999999974243 ) ;
#141 = VECTOR ( 'NONE', #417, 1000.000000000000000 ) ;
#142 = CARTESIAN_POINT ( 'NONE',  ( 5.837503326052285314E-15, 67.41905249806704603, 0.000000000000000000 ) ) ;
#143 = ORIENTED_EDGE ( 'NONE', *, *, #829, .F. ) ;
#144 = STYLED_ITEM ( 'NONE', ( #153 ), #93 ) ;
#145 = CARTESIAN_POINT ( 'NONE',  ( -4.999999999999994671, 67.41905249806704603, 0.000000000000000000 ) ) ;
#146 = APPLICATION_CONTEXT ( 'automotive_design' ) ;
#147 = EDGE_CURVE ( 'NONE', #139, #877, #994, .T. ) ;
#148 = DIRECTION ( 'NONE',  ( 8.658536585366059171E-17, 1.000000000000000000, -0.000000000000000000 ) ) ;
#149 = ORIENTED_EDGE ( 'NONE', *, *, #691, .T. ) ;
#150 = CARTESIAN_POINT ( 'NONE',  ( 5.950000000000011724, 60.08660254037661019, 7.654042494670961551E-16 ) ) ;
#151 = EDGE_CURVE ( 'NONE', #617, #198, #415, .T. ) ;
#152 = DIRECTION ( 'NONE',  ( -1.000000000000000000, 0.000000000000000000, 0.000000000000000000 ) ) ;
#153 = PRESENTATION_STYLE_ASSIGNMENT (( #287 ) ) ;
#154 = VERTEX_POINT ( 'NONE', #469 ) ;
#155 = DIRECTION ( 'NONE',  ( -0.8660254037843970742, 0.5000000000000719425, 0.000000000000000000 ) ) ;
#156 = DIRECTION ( 'NONE',  ( -0.7071067811864648611, -0.7071067811866301733, 8.659560562353918432E-17 ) ) ;
#157 = CARTESIAN_POINT ( 'NONE',  ( 5.177804878048744419E-15, 59.79999999999815685, 0.000000000000000000 ) ) ;
#158 = ORIENTED_EDGE ( 'NONE', *, *, #40, .T. ) ;
#159 = DIRECTION ( 'NONE',  ( 8.658536585366059171E-17, 1.000000000000000000, -0.000000000000000000 ) ) ;
#160 = AXIS2_PLACEMENT_3D ( 'NONE', #923, #913, #370 ) ;
#161 = CIRCLE ( 'NONE', #63, 6.249999999999944933 ) ;
#162 = AXIS2_PLACEMENT_3D ( 'NONE', #310, #400, #80 ) ;
#163 = AXIS2_PLACEMENT_3D ( 'NONE', #570, #556, #477 ) ;
#164 = ADVANCED_FACE ( 'NONE', ( #91 ), #381, .T. ) ;
#165 = CARTESIAN_POINT ( 'NONE',  ( 5.783767017012756761E-15, 66.79843597113166709, 0.000000000000000000 ) ) ;
#166 = EDGE_CURVE ( 'NONE', #426, #822, #706, .T. ) ;
#167 = ORIENTED_EDGE ( 'NONE', *, *, #971, .T. ) ;
#168 = CYLINDRICAL_SURFACE ( 'NONE', #844, 5.949999999999987743 ) ;
#169 = DIRECTION ( 'NONE',  ( -1.000000000000000000, 0.000000000000000000, 0.000000000000000000 ) ) ;
#170 = DIRECTION ( 'NONE',  ( -1.000000000000000000, 0.000000000000000000, 0.000000000000000000 ) ) ;
#171 = ORIENTED_EDGE ( 'NONE', *, *, #720, .F. ) ;
#172 = DIRECTION ( 'NONE',  ( 1.000000000000000000, 0.000000000000000000, 0.000000000000000000 ) ) ;
#173 = CARTESIAN_POINT ( 'NONE',  ( -5.999999999999992895, 78.99999999999805311, 7.347880794884119736E-16 ) ) ;
#174 = CARTESIAN_POINT ( 'NONE',  ( 5.204170427930421283E-15, 66.79843597113166709, 0.000000000000000000 ) ) ;
#175 = ORIENTED_EDGE ( 'NONE', *, *, #151, .T. ) ;
#176 = LINE ( 'NONE', #253, #666 ) ;
#177 = CARTESIAN_POINT ( 'NONE',  ( -7.000000000000152767, 59.99999999999818812, 0.000000000000000000 ) ) ;
#178 = VECTOR ( 'NONE', #159, 1000.000000000000000 ) ;
#179 = AXIS2_PLACEMENT_3D ( 'NONE', #373, #68, #314 ) ;
#180 = TOROIDAL_SURFACE ( 'NONE', #849, 6.349999999999965894, 0.3999999999999981348 ) ;
#181 = CARTESIAN_POINT ( 'NONE',  ( 5.949999999999993960, 81.99999999999806732, 7.286648454926736188E-16 ) ) ;
#182 = EDGE_LOOP ( 'NONE', ( #815, #987 ) ) ;
#183 = ADVANCED_FACE ( 'NONE', ( #871 ), #824, .T. ) ;
#184 = DIRECTION ( 'NONE',  ( -0.000000000000000000, 0.000000000000000000, -1.000000000000000000 ) ) ;
#185 = EDGE_CURVE ( 'NONE', #590, #646, #860, .T. ) ;
#186 = FACE_OUTER_BOUND ( 'NONE', #587, .T. ) ;
#187 = ORIENTED_EDGE ( 'NONE', *, *, #699, .T. ) ;
#188 = CYLINDRICAL_SURFACE ( 'NONE', #848, 12.50000000000002132 ) ;
#189 = CARTESIAN_POINT ( 'NONE',  ( 6.000000000000007105, 81.99999999999806732, 7.347880794884119736E-16 ) ) ;
#190 = DIRECTION ( 'NONE',  ( 8.658536585366059171E-17, 1.000000000000000000, -0.000000000000000000 ) ) ;
#191 = VERTEX_POINT ( 'NONE', #717 ) ;
#192 = DIRECTION ( 'NONE',  ( -1.000000000000000000, 0.000000000000000000, 0.000000000000000000 ) ) ;
#193 = EDGE_CURVE ( 'NONE', #646, #154, #496, .T. ) ;
#194 = CARTESIAN_POINT ( 'NONE',  ( -5.000000000000003553, 66.79843597113166709, 0.000000000000000000 ) ) ;
#195 = CARTESIAN_POINT ( 'NONE',  ( 5.172626413291898864E-15, 59.74019237886277267, 0.000000000000000000 ) ) ;
#196 = CIRCLE ( 'NONE', #419, 12.50000000000006040 ) ;
#197 = CIRCLE ( 'NONE', #482, 10.00000000000028777 ) ;
#198 = VERTEX_POINT ( 'NONE', #3 ) ;
#199 = ADVANCED_FACE ( 'NONE', ( #713 ), #315, .T. ) ;
#200 = FACE_OUTER_BOUND ( 'NONE', #127, .T. ) ;
#201 = DIRECTION ( 'NONE',  ( 8.658536585366059171E-17, 1.000000000000000000, -0.000000000000000000 ) ) ;
#202 = FACE_OUTER_BOUND ( 'NONE', #243, .T. ) ;
#203 = EDGE_LOOP ( 'NONE', ( #167, #835, #782, #653 ) ) ;
#204 = DIRECTION ( 'NONE',  ( 8.658536585366059171E-17, 1.000000000000000000, -0.000000000000000000 ) ) ;
#205 = ORIENTED_EDGE ( 'NONE', *, *, #863, .F. ) ;
#206 = CIRCLE ( 'NONE', #669, 5.949999999999968203 ) ;
#207 = ORIENTED_EDGE ( 'NONE', *, *, #845, .F. ) ;
#208 = AXIS2_PLACEMENT_3D ( 'NONE', #902, #440, #508 ) ;
#209 = ORIENTED_EDGE ( 'NONE', *, *, #628, .F. ) ;
#210 = AXIS2_PLACEMENT_3D ( 'NONE', #796, #951, #20 ) ;
#211 = CARTESIAN_POINT ( 'NONE',  ( 5.800000000000017586, 67.41905249806701761, 7.102951435054662456E-16 ) ) ;
#212 = PLANE ( 'NONE',  #610 ) ;
#213 = EDGE_CURVE ( 'NONE', #658, #69, #933, .T. ) ;
#214 = CARTESIAN_POINT ( 'NONE',  ( 7.100000000000000986E-15, 81.99999999999806732, 0.000000000000000000 ) ) ;
#215 = ORIENTED_EDGE ( 'NONE', *, *, #869, .F. ) ;
#216 = SURFACE_SIDE_STYLE ('',( #982 ) ) ;
#217 = DIRECTION ( 'NONE',  ( -1.000000000000000000, 0.000000000000000000, 0.000000000000000000 ) ) ;
#218 = ORIENTED_EDGE ( 'NONE', *, *, #372, .F. ) ;
#219 = DIRECTION ( 'NONE',  ( -1.000000000000000000, 0.000000000000000000, 0.000000000000000000 ) ) ;
#220 = DIRECTION ( 'NONE',  ( 0.8660254037844394848, 0.4999999999999985012, 1.060575238724907901E-16 ) ) ;
#221 = TOROIDAL_SURFACE ( 'NONE', #365, 5.800000000000011369, 0.8000000000000067057 ) ;
#222 = CARTESIAN_POINT ( 'NONE',  ( -4.267949192431138350, 81.99999999999806732, 6.287305556159226380E-16 ) ) ;
#223 = EDGE_LOOP ( 'NONE', ( #574, #121, #895, #854 ) ) ;
#224 = AXIS2_PLACEMENT_3D ( 'NONE', #408, #719, #343 ) ;
#225 = EDGE_CURVE ( 'NONE', #191, #693, #627, .T. ) ;
#226 = PRODUCT_DEFINITION_SHAPE ( 'NONE', 'NONE',  #36 ) ;
#227 = FACE_OUTER_BOUND ( 'NONE', #279, .T. ) ;
#228 = LINE ( 'NONE', #993, #808 ) ;
#229 = EDGE_LOOP ( 'NONE', ( #843, #851, #883, #66 ) ) ;
#230 = LINE ( 'NONE', #77, #478 ) ;
#231 = SURFACE_STYLE_USAGE ( .BOTH. , #389 ) ;
#232 = CARTESIAN_POINT ( 'NONE',  ( 4.999008428350333127E-16, 5.773502691897427930, 0.000000000000000000 ) ) ;
#233 = ORIENTED_EDGE ( 'NONE', *, *, #795, .T. ) ;
#234 = ADVANCED_FACE ( 'NONE', ( #637 ), #743, .T. ) ;
#235 = DIRECTION ( 'NONE',  ( -8.658536585366059171E-17, -1.000000000000000000, 0.000000000000000000 ) ) ;
#236 = ADVANCED_FACE ( 'NONE', ( #929 ), #466, .F. ) ;
#237 = ORIENTED_EDGE ( 'NONE', *, *, #493, .F. ) ;
#238 = DIRECTION ( 'NONE',  ( -1.000000000000000000, 0.000000000000000000, 0.000000000000000000 ) ) ;
#239 = CARTESIAN_POINT ( 'NONE',  ( 6.249999999999950262, 65.49999999999810996, 0.000000000000000000 ) ) ;
#240 = CONICAL_SURFACE ( 'NONE', #160, 6.067157287525335008, 0.7853981633972965115 ) ;
#241 = AXIS2_PLACEMENT_3D ( 'NONE', #46, #82, #545 ) ;
#242 = PRESENTATION_STYLE_ASSIGNMENT (( #231 ) ) ;
#243 = EDGE_LOOP ( 'NONE', ( #589, #316, #38, #494 ) ) ;
#244 = FACE_OUTER_BOUND ( 'NONE', #529, .T. ) ;
#245 = DIRECTION ( 'NONE',  ( 8.658536585366059171E-17, 1.000000000000000000, -0.000000000000000000 ) ) ;
#246 = ORIENTED_EDGE ( 'NONE', *, *, #128, .T. ) ;
#247 = UNCERTAINTY_MEASURE_WITH_UNIT (LENGTH_MEASURE( 1.000000000000000082E-05 ), #988, 'distance_accuracy_value', 'NONE');
#248 = FACE_OUTER_BOUND ( 'NONE', #665, .T. ) ;
#249 = DIRECTION ( 'NONE',  ( -1.000000000000000000, 0.000000000000000000, 0.000000000000000000 ) ) ;
#250 = CARTESIAN_POINT ( 'NONE',  ( 7.100000000000000986E-15, 81.99999999999806732, 0.000000000000000000 ) ) ;
#251 = ADVANCED_FACE ( 'NONE', ( #248 ), #168, .T. ) ;
#252 = ORIENTED_EDGE ( 'NONE', *, *, #718, .F. ) ;
#253 = CARTESIAN_POINT ( 'NONE',  ( 6.000000000000007105, 78.99999999999805311, 0.000000000000000000 ) ) ;
#254 = FACE_OUTER_BOUND ( 'NONE', #45, .T. ) ;
#255 = AXIS2_PLACEMENT_3D ( 'NONE', #722, #16, #323 ) ;
#256 = EDGE_CURVE ( 'NONE', #947, #938, #176, .T. ) ;
#257 = STYLED_ITEM ( 'NONE', ( #242 ), #444 ) ;
#258 = CARTESIAN_POINT ( 'NONE',  ( 5.241385774181192090E-15, 60.53431457504895263, 0.000000000000000000 ) ) ;
#259 = ORIENTED_EDGE ( 'NONE', *, *, #845, .T. ) ;
#260 = LINE ( 'NONE', #577, #62 ) ;
#261 = CARTESIAN_POINT ( 'NONE',  ( 10.00000000000028955, 20.52786404500053763, 1.224646799147388361E-15 ) ) ;
#262 = DIRECTION ( 'NONE',  ( 8.658536585366059171E-17, 1.000000000000000000, -0.000000000000000000 ) ) ;
#263 = ORIENTED_EDGE ( 'NONE', *, *, #763, .F. ) ;
#264 = DIRECTION ( 'NONE',  ( 8.658536585366059171E-17, 1.000000000000000000, -0.000000000000000000 ) ) ;
#265 = LINE ( 'NONE', #39, #336 ) ;
#266 = ADVANCED_FACE ( 'NONE', ( #244 ), #138, .T. ) ;
#267 = DIRECTION ( 'NONE',  ( 8.658536585366059171E-17, 1.000000000000000000, -0.000000000000000000 ) ) ;
#268 = CARTESIAN_POINT ( 'NONE',  ( 5.000000000000011546, 81.99999999999806732, 6.123233995736772199E-16 ) ) ;
#269 = ADVANCED_FACE ( 'NONE', ( #794 ), #335, .F. ) ;
#270 = ORIENTED_EDGE ( 'NONE', *, *, #1000, .T. ) ;
#271 = CARTESIAN_POINT ( 'NONE',  ( 6.349999999999971223, 60.53431457504893842, 7.776507174585650748E-16 ) ) ;
#272 = FACE_OUTER_BOUND ( 'NONE', #89, .T. ) ;
#273 = AXIS2_PLACEMENT_3D ( 'NONE', #132, #118, #814 ) ;
#274 = AXIS2_PLACEMENT_3D ( 'NONE', #81, #235, #392 ) ;
#275 = VECTOR ( 'NONE', #672, 1000.000000000000114 ) ;
#276 = DIRECTION ( 'NONE',  ( -1.000000000000000000, 8.658536585366059171E-17, 0.000000000000000000 ) ) ;
#277 = ORIENTED_EDGE ( 'NONE', *, *, #416, .F. ) ;
#278 = DIRECTION ( 'NONE',  ( -1.000000000000000000, 8.658536585366059171E-17, 0.000000000000000000 ) ) ;
#279 = EDGE_LOOP ( 'NONE', ( #700, #233, #309, #674 ) ) ;
#280 = DIRECTION ( 'NONE',  ( -8.658536585366059171E-17, -1.000000000000000000, 0.000000000000000000 ) ) ;
#281 = ORIENTED_EDGE ( 'NONE', *, *, #661, .F. ) ;
#282 = ADVANCED_FACE ( 'NONE', ( #407 ), #353, .T. ) ;
#283 = ORIENTED_EDGE ( 'NONE', *, *, #326, .F. ) ;
#284 = CONICAL_SURFACE ( 'NONE', #462, 6.249999999999944045, 0.7853981633974188581 ) ;
#285 = DIRECTION ( 'NONE',  ( 1.000000000000000000, 0.000000000000000000, 1.224646799147353207E-16 ) ) ;
#286 = AXIS2_PLACEMENT_3D ( 'NONE', #412, #321, #634 ) ;
#287 = SURFACE_STYLE_USAGE ( .BOTH. , #216 ) ;
#288 = ORIENTED_EDGE ( 'NONE', *, *, #628, .T. ) ;
#289 = CARTESIAN_POINT ( 'NONE',  ( 5.204170427930421283E-15, 60.08660254037662440, 0.000000000000000000 ) ) ;
#290 = FACE_OUTER_BOUND ( 'NONE', #229, .T. ) ;
#291 = EDGE_LOOP ( 'NONE', ( #828, #385, #887, #351 ) ) ;
#292 = DIRECTION ( 'NONE',  ( 8.658536585366059171E-17, 1.000000000000000000, -0.000000000000000000 ) ) ;
#293 = ORIENTED_EDGE ( 'NONE', *, *, #803, .F. ) ;
#294 = DIRECTION ( 'NONE',  ( 8.658536585366059171E-17, 1.000000000000000000, -0.000000000000000000 ) ) ;
#295 = CARTESIAN_POINT ( 'NONE',  ( 5.265875813919846932E-15, 60.81715728752354266, 0.000000000000000000 ) ) ;
#296 = ORIENTED_EDGE ( 'NONE', *, *, #445, .T. ) ;
#297 = ADVANCED_FACE ( 'NONE', ( #955 ), #451, .T. ) ;
#298 = CARTESIAN_POINT ( 'NONE',  ( 2.261439528292016751E-15, 26.11803398872407911, 0.000000000000000000 ) ) ;
#299 = AXIS2_PLACEMENT_3D ( 'NONE', #358, #919, #914 ) ;
#300 = AXIS2_PLACEMENT_3D ( 'NONE', #346, #133, #103 ) ;
#301 = CONICAL_SURFACE ( 'NONE', #827, 12.49999999999998579, 0.7853981633973312615 ) ;
#302 = COLOUR_RGB ( '',0.7921568627450980005, 0.8196078431372548767, 0.9333333333333333481 ) ;
#303 = ORIENTED_EDGE ( 'NONE', *, *, #313, .T. ) ;
#304 = CIRCLE ( 'NONE', #125, 12.49999999999998579 ) ;
#305 = LINE ( 'NONE', #925, #664 ) ;
#306 = ORIENTED_EDGE ( 'NONE', *, *, #663, .T. ) ;
#307 = DIRECTION ( 'NONE',  ( -1.000000000000000000, 0.000000000000000000, 0.000000000000000000 ) ) ;
#308 = FILL_AREA_STYLE_COLOUR ( '', #302 ) ;
#309 = ORIENTED_EDGE ( 'NONE', *, *, #325, .F. ) ;
#310 = CARTESIAN_POINT ( 'NONE',  ( 0.000000000000000000, 0.000000000000000000, 0.000000000000000000 ) ) ;
#311 = CARTESIAN_POINT ( 'NONE',  ( 5.265875813919846932E-15, 60.81715728752354266, 0.000000000000000000 ) ) ;
#312 = DIRECTION ( 'NONE',  ( -1.000000000000000000, 0.000000000000000000, 0.000000000000000000 ) ) ;
#313 = EDGE_CURVE ( 'NONE', #553, #442, #901, .T. ) ;
#314 = DIRECTION ( 'NONE',  ( -1.000000000000000000, 0.000000000000000000, 0.000000000000000000 ) ) ;
#315 = CONICAL_SURFACE ( 'NONE', #434, 1732.050807568545451, 1.047197551196514809 ) ;
#316 = ORIENTED_EDGE ( 'NONE', *, *, #391, .T. ) ;
#317 = CIRCLE ( 'NONE', #809, 0.3999999999999984679 ) ;
#318 = DIRECTION ( 'NONE',  ( 1.000000000000000000, 0.000000000000000000, 0.000000000000000000 ) ) ;
#319 = DIRECTION ( 'NONE',  ( 8.658536585366059171E-17, 1.000000000000000000, -0.000000000000000000 ) ) ;
#320 = AXIS2_PLACEMENT_3D ( 'NONE', #232, #605, #530 ) ;
#321 = DIRECTION ( 'NONE',  ( 8.658536585366059171E-17, 1.000000000000000000, -0.000000000000000000 ) ) ;
#322 = ORIENTED_EDGE ( 'NONE', *, *, #763, .T. ) ;
#323 = DIRECTION ( 'NONE',  ( -1.000000000000000000, 0.000000000000000000, 0.000000000000000000 ) ) ;
#324 = CARTESIAN_POINT ( 'NONE',  ( 5.837503326052285314E-15, 67.41905249806704603, 0.000000000000000000 ) ) ;
#325 = EDGE_CURVE ( 'NONE', #826, #938, #107, .T. ) ;
#326 = EDGE_CURVE ( 'NONE', #566, #426, #680, .T. ) ;
#327 = ORIENTED_EDGE ( 'NONE', *, *, #793, .T. ) ;
#328 = DIRECTION ( 'NONE',  ( 8.658536585366059171E-17, 1.000000000000000000, -0.000000000000000000 ) ) ;
#329 = DIRECTION ( 'NONE',  ( 8.658536585366059171E-17, 1.000000000000000000, -0.000000000000000000 ) ) ;
#330 = DIRECTION ( 'NONE',  ( -1.000000000000000000, 0.000000000000000000, 0.000000000000000000 ) ) ;
#331 = EDGE_LOOP ( 'NONE', ( #509, #378, #327, #900 ) ) ;
#332 = CIRCLE ( 'NONE', #813, 6.067157287525335008 ) ;
#333 = CARTESIAN_POINT ( 'NONE',  ( 8.658536585366058579E-14, 1000.000000000000000, 0.000000000000000000 ) ) ;
#334 = DIRECTION ( 'NONE',  ( -0.000000000000000000, 0.000000000000000000, -1.000000000000000000 ) ) ;
#335 = TOROIDAL_SURFACE ( 'NONE', #515, 5.800000000000011369, 0.8000000000000067057 ) ;
#336 = VECTOR ( 'NONE', #728, 1000.000000000000000 ) ;
#337 = CYLINDRICAL_SURFACE ( 'NONE', #517, 10.00000000000019895 ) ;
#338 = ORIENTED_EDGE ( 'NONE', *, *, #448, .T. ) ;
#339 = EDGE_CURVE ( 'NONE', #840, #15, #76, .T. ) ;
#340 = DIRECTION ( 'NONE',  ( -8.658536585366059171E-17, -1.000000000000000000, 0.000000000000000000 ) ) ;
#341 = CARTESIAN_POINT ( 'NONE',  ( 6.000000000000007105, 78.99999999999805311, 7.347880794884119736E-16 ) ) ;
#342 = ADVANCED_FACE ( 'NONE', ( #52 ), #188, .T. ) ;
#343 = DIRECTION ( 'NONE',  ( -1.000000000000000000, 0.000000000000000000, 0.000000000000000000 ) ) ;
#344 = FACE_OUTER_BOUND ( 'NONE', #677, .T. ) ;
#345 = VERTEX_POINT ( 'NONE', #654 ) ;
#346 = CARTESIAN_POINT ( 'NONE',  ( 6.840243902439019260E-15, 78.99999999999805311, 0.000000000000000000 ) ) ;
#347 = CARTESIAN_POINT ( 'NONE',  ( 5.177804878048744419E-15, 59.79999999999815685, 0.000000000000000000 ) ) ;
#348 = EDGE_CURVE ( 'NONE', #124, #69, #197, .T. ) ;
#349 = CARTESIAN_POINT ( 'NONE',  ( -6.067157287525329679, 60.81715728752354266, 0.000000000000000000 ) ) ;
#350 = CARTESIAN_POINT ( 'NONE',  ( 5.949999999999973532, 60.53431457504895263, 7.286648454926725341E-16 ) ) ;
#351 = ORIENTED_EDGE ( 'NONE', *, *, #810, .T. ) ;
#352 = CONICAL_SURFACE ( 'NONE', #299, 7.000000000000158096, 1.047197551196599408 ) ;
#353 = CONICAL_SURFACE ( 'NONE', #918, 5.249999999999996447, 0.7853981633974506105 ) ;
#354 = CARTESIAN_POINT ( 'NONE',  ( 5.172626413291898864E-15, 59.74019237886277267, 0.000000000000000000 ) ) ;
#355 = CIRCLE ( 'NONE', #286, 5.249999999999996447 ) ;
#356 = ORIENTED_EDGE ( 'NONE', *, *, #1000, .F. ) ;
#357 = ADVANCED_FACE ( 'NONE', ( #290 ), #963, .T. ) ;
#358 = CARTESIAN_POINT ( 'NONE',  ( 5.195121951219479111E-15, 59.99999999999818812, 0.000000000000000000 ) ) ;
#359 = EDGE_LOOP ( 'NONE', ( #892, #48, #32, #678 ) ) ;
#360 = EDGE_CURVE ( 'NONE', #374, #688, #935, .T. ) ;
#361 = ORIENTED_EDGE ( 'NONE', *, *, #147, .F. ) ;
#362 = DIRECTION ( 'NONE',  ( -1.000000000000000000, 0.000000000000000000, 0.000000000000000000 ) ) ;
#363 = ORIENTED_EDGE ( 'NONE', *, *, #525, .F. ) ;
#364 = DIRECTION ( 'NONE',  ( 1.000000000000000000, 0.000000000000000000, 1.224646799147352961E-16 ) ) ;
#365 = AXIS2_PLACEMENT_3D ( 'NONE', #516, #670, #276 ) ;
#366 = DIRECTION ( 'NONE',  ( -1.224646799147353207E-16, 1.060364911456879714E-32, 1.000000000000000000 ) ) ;
#367 = ORIENTED_EDGE ( 'NONE', *, *, #326, .T. ) ;
#368 = CIRCLE ( 'NONE', #937, 10.00000000000011013 ) ;
#369 = EDGE_CURVE ( 'NONE', #590, #15, #749, .T. ) ;
#370 = DIRECTION ( 'NONE',  ( -1.000000000000000000, 0.000000000000000000, 0.000000000000000000 ) ) ;
#371 = DIRECTION ( 'NONE',  ( 8.658536585366059171E-17, 1.000000000000000000, -0.000000000000000000 ) ) ;
#372 = EDGE_CURVE ( 'NONE', #139, #553, #44, .T. ) ;
#373 = CARTESIAN_POINT ( 'NONE',  ( 7.100000000000000986E-15, 81.99999999999806732, 0.000000000000000000 ) ) ;
#374 = VERTEX_POINT ( 'NONE', #986 ) ;
#375 = PRODUCT ( '99688-SI20-M12+S9MT2004-120', '99688-SI20-M12+S9MT2004-120', '', ( #624 ) ) ;
#376 = DIRECTION ( 'NONE',  ( 8.658536585366059171E-17, 1.000000000000000000, -0.000000000000000000 ) ) ;
#377 = FILL_AREA_STYLE_COLOUR ( '', #563 ) ;
#378 = ORIENTED_EDGE ( 'NONE', *, *, #185, .T. ) ;
#379 = DIRECTION ( 'NONE',  ( -1.000000000000000000, 0.000000000000000000, 0.000000000000000000 ) ) ;
#380 = DIRECTION ( 'NONE',  ( 8.658536585366059171E-17, 1.000000000000000000, -0.000000000000000000 ) ) ;
#381 = CONICAL_SURFACE ( 'NONE', #968, 6.067157287525335008, 0.7853981633972965115 ) ;
#382 = CIRCLE ( 'NONE', #694, 10.00000000000028777 ) ;
#383 = PRESENTATION_LAYER_ASSIGNMENT (  '', '', ( #257 ) ) ;
#384 = CARTESIAN_POINT ( 'NONE',  ( 5.000000000000007105, 67.41905249806704603, 6.123233995736770227E-16 ) ) ;
#385 = ORIENTED_EDGE ( 'NONE', *, *, #448, .F. ) ;
#386 = CIRCLE ( 'NONE', #774, 12.29999999999998472 ) ;
#387 = APPLICATION_PROTOCOL_DEFINITION ( 'draft international standard', 'automotive_design', 1998, #770 ) ;
#388 = CARTESIAN_POINT ( 'NONE',  ( 6.000000000000007105, 68.74999999999812417, 7.347880794884120722E-16 ) ) ;
#389 = SURFACE_SIDE_STYLE ('',( #622 ) ) ;
#390 = ORIENTED_EDGE ( 'NONE', *, *, #43, .T. ) ;
#391 = EDGE_CURVE ( 'NONE', #590, #18, #317, .T. ) ;
#392 = DIRECTION ( 'NONE',  ( 1.000000000000000000, -8.658536585366059171E-17, 0.000000000000000000 ) ) ;
#393 = ORIENTED_EDGE ( 'NONE', *, *, #101, .F. ) ;
#394 = SHAPE_DEFINITION_REPRESENTATION ( #226, #93 ) ;
#395 = DIRECTION ( 'NONE',  ( -1.000000000000000000, 0.000000000000000000, 0.000000000000000000 ) ) ;
#396 = CARTESIAN_POINT ( 'NONE',  ( -6.067157287525329679, 60.81715728752354266, 0.000000000000000000 ) ) ;
#397 = DIRECTION ( 'NONE',  ( -8.658536585366059171E-17, -1.000000000000000000, 0.000000000000000000 ) ) ;
#398 = VECTOR ( 'NONE', #42, 1000.000000000000000 ) ;
#399 = EDGE_LOOP ( 'NONE', ( #283, #149, #750, #962 ) ) ;
#400 = DIRECTION ( 'NONE',  ( 0.000000000000000000, 0.000000000000000000, 1.000000000000000000 ) ) ;
#401 = EDGE_CURVE ( 'NONE', #911, #658, #260, .T. ) ;
#402 = DIRECTION ( 'NONE',  ( -1.000000000000000000, 0.000000000000000000, 0.000000000000000000 ) ) ;
#403 =( GEOMETRIC_REPRESENTATION_CONTEXT ( 3 ) GLOBAL_UNCERTAINTY_ASSIGNED_CONTEXT ( ( #636 ) ) GLOBAL_UNIT_ASSIGNED_CONTEXT ( ( #526, #752, #601 ) ) REPRESENTATION_CONTEXT ( 'NONE', 'WORKASPACE' ) );
#404 = CARTESIAN_POINT ( 'NONE',  ( 1.777412618530576708E-15, 20.52786404500053763, 0.000000000000000000 ) ) ;
#405 = ADVANCED_FACE ( 'NONE', ( #200 ), #420, .T. ) ;
#406 = DIRECTION ( 'NONE',  ( 8.658536585366059171E-17, 1.000000000000000000, -0.000000000000000000 ) ) ;
#407 = FACE_OUTER_BOUND ( 'NONE', #953, .T. ) ;
#408 = CARTESIAN_POINT ( 'NONE',  ( 5.952743902439002373E-15, 68.74999999999812417, 0.000000000000000000 ) ) ;
#409 = DIRECTION ( 'NONE',  ( -1.000000000000000000, 0.000000000000000000, 0.000000000000000000 ) ) ;
#410 = CARTESIAN_POINT ( 'NONE',  ( -12.50000000000005862, 26.11803398872407911, 0.000000000000000000 ) ) ;
#411 = ADVANCED_FACE ( 'NONE', ( #906 ), #910, .T. ) ;
#412 = CARTESIAN_POINT ( 'NONE',  ( 5.887804878048757139E-15, 67.99999999999812417, 0.000000000000000000 ) ) ;
#413 = EDGE_LOOP ( 'NONE', ( #932, #830, #978 ) ) ;
#414 = CIRCLE ( 'NONE', #23, 4.267949192431145455 ) ;
#415 = CIRCLE ( 'NONE', #105, 6.249999999999944933 ) ;
#416 = EDGE_CURVE ( 'NONE', #427, #822, #802, .T. ) ;
#417 = DIRECTION ( 'NONE',  ( 8.658536585366059171E-17, 1.000000000000000000, -0.000000000000000000 ) ) ;
#418 = CIRCLE ( 'NONE', #595, 5.949999999999968203 ) ;
#419 = AXIS2_PLACEMENT_3D ( 'NONE', #298, #74, #219 ) ;
#420 = CONICAL_SURFACE ( 'NONE', #463, 5.249999999999996447, 0.7853981633974506105 ) ;
#421 = CIRCLE ( 'NONE', #241, 12.50000000000006040 ) ;
#422 = CYLINDRICAL_SURFACE ( 'NONE', #760, 6.249999999999944933 ) ;
#423 = EDGE_LOOP ( 'NONE', ( #356, #879, #584, #306 ) ) ;
#424 = CARTESIAN_POINT ( 'NONE',  ( 1.777412618530576708E-15, 20.52786404500053763, 0.000000000000000000 ) ) ;
#425 = DIRECTION ( 'NONE',  ( 8.658536585366059171E-17, 1.000000000000000000, -0.000000000000000000 ) ) ;
#426 = VERTEX_POINT ( 'NONE', #727 ) ;
#427 = VERTEX_POINT ( 'NONE', #959 ) ;
#428 = DIRECTION ( 'NONE',  ( -1.224646799147353207E-16, 1.060364911456879714E-32, 1.000000000000000000 ) ) ;
#429 = CARTESIAN_POINT ( 'NONE',  ( 5.952743902439002373E-15, 68.74999999999812417, 0.000000000000000000 ) ) ;
#430 = FACE_OUTER_BOUND ( 'NONE', #856, .T. ) ;
#431 = VERTEX_POINT ( 'NONE', #884 ) ;
#432 = CIRCLE ( 'NONE', #724, 0.8000000000000064837 ) ;
#433 = EDGE_CURVE ( 'NONE', #15, #198, #629, .T. ) ;
#434 = AXIS2_PLACEMENT_3D ( 'NONE', #783, #474, #549 ) ;
#435 = PRODUCT_DEFINITION_FORMATION_WITH_SPECIFIED_SOURCE ( 'ANY', '', #375, .NOT_KNOWN. ) ;
#436 = CARTESIAN_POINT ( 'NONE',  ( 6.249999999999949374, 60.99999999999820943, 7.654042494670889567E-16 ) ) ;
#437 = AXIS2_PLACEMENT_3D ( 'NONE', #858, #371, #1002 ) ;
#438 = ADVANCED_FACE ( 'NONE', ( #686 ), #456, .T. ) ;
#439 = ORIENTED_EDGE ( 'NONE', *, *, #663, .F. ) ;
#440 = DIRECTION ( 'NONE',  ( 8.658536585366059171E-17, 1.000000000000000000, -0.000000000000000000 ) ) ;
#441 = DIRECTION ( 'NONE',  ( 8.658536585366059171E-17, 1.000000000000000000, -0.000000000000000000 ) ) ;
#442 = VERTEX_POINT ( 'NONE', #543 ) ;
#443 = DIRECTION ( 'NONE',  ( -1.224646799147353207E-16, 1.060364911456879714E-32, 1.000000000000000000 ) ) ;
#444 = MANIFOLD_SOLID_BREP ( '±ÛÂà1', #755 ) ;
#445 = EDGE_CURVE ( 'NONE', #15, #840, #161, .T. ) ;
#446 = DIRECTION ( 'NONE',  ( -1.000000000000000000, 0.000000000000000000, 0.000000000000000000 ) ) ;
#447 = EDGE_LOOP ( 'NONE', ( #779, #540, #129, #95 ) ) ;
#448 = EDGE_CURVE ( 'NONE', #606, #374, #615, .T. ) ;
#449 = CARTESIAN_POINT ( 'NONE',  ( 10.00000000000011369, 5.773502691897427042, 1.224646799147367062E-15 ) ) ;
#450 = CIRCLE ( 'NONE', #576, 5.950000000000006395 ) ;
#451 = CONICAL_SURFACE ( 'NONE', #9, 6.249999999999944045, 0.7853981633974188581 ) ;
#452 = DIRECTION ( 'NONE',  ( 8.658536585366059171E-17, 1.000000000000000000, -0.000000000000000000 ) ) ;
#453 = ORIENTED_EDGE ( 'NONE', *, *, #372, .T. ) ;
#454 =( NAMED_UNIT ( * ) PLANE_ANGLE_UNIT ( ) SI_UNIT ( $, .RADIAN. ) );
#455 = CARTESIAN_POINT ( 'NONE',  ( 7.100000000000002563E-15, 81.99999999999806732, 0.000000000000000000 ) ) ;
#456 = CYLINDRICAL_SURFACE ( 'NONE', #179, 10.00000000000019895 ) ;
#457 = EDGE_LOOP ( 'NONE', ( #544, #296, #187, #439 ) ) ;
#458 = ORIENTED_EDGE ( 'NONE', *, *, #476, .T. ) ;
#459 = VECTOR ( 'NONE', #136, 1000.000000000000000 ) ;
#460 =( NAMED_UNIT ( * ) SI_UNIT ( $, .STERADIAN. ) SOLID_ANGLE_UNIT ( ) );
#461 = EDGE_CURVE ( 'NONE', #606, #600, #682, .T. ) ;
#462 = AXIS2_PLACEMENT_3D ( 'NONE', #564, #99, #799 ) ;
#463 = AXIS2_PLACEMENT_3D ( 'NONE', #683, #264, #753 ) ;
#464 = ORIENTED_EDGE ( 'NONE', *, *, #101, .T. ) ;
#465 = TOROIDAL_SURFACE ( 'NONE', #534, 5.800000000000002487, 0.7999999999999927169 ) ;
#466 = PLANE ( 'NONE',  #274 ) ;
#467 = CARTESIAN_POINT ( 'NONE',  ( 5.195121951219480688E-15, 59.99999999999820943, 0.000000000000000000 ) ) ;
#468 = ORIENTED_EDGE ( 'NONE', *, *, #493, .T. ) ;
#469 = CARTESIAN_POINT ( 'NONE',  ( -5.949999999999962874, 60.53431457504895263, 0.000000000000000000 ) ) ;
#470 = DIRECTION ( 'NONE',  ( -0.4999999999999930056, -0.8660254037844427044, 6.123233995736679754E-17 ) ) ;
#471 =( NAMED_UNIT ( * ) PLANE_ANGLE_UNIT ( ) SI_UNIT ( $, .RADIAN. ) );
#472 = EDGE_CURVE ( 'NONE', #37, #822, #598, .T. ) ;
#473 = ORIENTED_EDGE ( 'NONE', *, *, #552, .T. ) ;
#474 = DIRECTION ( 'NONE',  ( 8.658536585366059171E-17, 1.000000000000000000, -0.000000000000000000 ) ) ;
#475 = DIRECTION ( 'NONE',  ( -1.000000000000000000, 0.000000000000000000, 0.000000000000000000 ) ) ;
#476 = EDGE_CURVE ( 'NONE', #646, #590, #332, .T. ) ;
#477 = DIRECTION ( 'NONE',  ( -1.000000000000000000, 0.000000000000000000, 0.000000000000000000 ) ) ;
#478 = VECTOR ( 'NONE', #621, 1000.000000000000000 ) ;
#479 = CIRCLE ( 'NONE', #593, 0.8000000000000064837 ) ;
#480 = ORIENTED_EDGE ( 'NONE', *, *, #71, .F. ) ;
#481 = TOROIDAL_SURFACE ( 'NONE', #777, 5.800000000000002487, 0.7999999999999927169 ) ;
#482 = AXIS2_PLACEMENT_3D ( 'NONE', #424, #659, #567 ) ;
#483 = CARTESIAN_POINT ( 'NONE',  ( 6.840243902439019260E-15, 78.99999999999805311, 0.000000000000000000 ) ) ;
#484 = LINE ( 'NONE', #239, #495 ) ;
#485 = CARTESIAN_POINT ( 'NONE',  ( -12.29999999999997939, 59.99999999999820943, 1.518562030942716192E-15 ) ) ;
#486 = DIRECTION ( 'NONE',  ( -8.658536585366059171E-17, -1.000000000000000000, 0.000000000000000000 ) ) ;
#487 = DIRECTION ( 'NONE',  ( 0.7071067811865265895, -0.7071067811865684449, 0.000000000000000000 ) ) ;
#488 = CARTESIAN_POINT ( 'NONE',  ( 7.100000000000000986E-15, 81.99999999999806732, 0.000000000000000000 ) ) ;
#489 = ORIENTED_EDGE ( 'NONE', *, *, #43, .F. ) ;
#490 = PRODUCT_DEFINITION_CONTEXT ( 'detailed design', #146, 'design' ) ;
#491 = CARTESIAN_POINT ( 'NONE',  ( 7.100000000000000986E-15, 81.99999999999806732, 0.000000000000000000 ) ) ;
#492 = FACE_OUTER_BOUND ( 'NONE', #712, .T. ) ;
#493 = EDGE_CURVE ( 'NONE', #426, #566, #386, .T. ) ;
#494 = ORIENTED_EDGE ( 'NONE', *, *, #193, .F. ) ;
#495 = VECTOR ( 'NONE', #487, 1000.000000000000000 ) ;
#496 = CIRCLE ( 'NONE', #611, 0.3999999999999984679 ) ;
#497 = CARTESIAN_POINT ( 'NONE',  ( 7.100000000000000986E-15, 81.99999999999806732, 0.000000000000000000 ) ) ;
#498 = CIRCLE ( 'NONE', #61, 5.000000000000000888 ) ;
#499 = VECTOR ( 'NONE', #889, 1000.000000000000000 ) ;
#500 = VECTOR ( 'NONE', #156, 1000.000000000000114 ) ;
#501 = DIRECTION ( 'NONE',  ( -1.000000000000000000, 0.000000000000000000, 0.000000000000000000 ) ) ;
#502 = DIRECTION ( 'NONE',  ( -1.000000000000000000, 0.000000000000000000, 0.000000000000000000 ) ) ;
#503 = ORIENTED_EDGE ( 'NONE', *, *, #348, .T. ) ;
#504 = DIRECTION ( 'NONE',  ( 8.658536585366059171E-17, 1.000000000000000000, -0.000000000000000000 ) ) ;
#505 = CARTESIAN_POINT ( 'NONE',  ( -5.999999999999994671, 68.74999999999812417, 0.000000000000000000 ) ) ;
#506 = ORIENTED_EDGE ( 'NONE', *, *, #954, .T. ) ;
#507 = ADVANCED_FACE ( 'NONE', ( #537 ), #180, .F. ) ;
#508 = DIRECTION ( 'NONE',  ( -1.000000000000000000, 0.000000000000000000, 0.000000000000000000 ) ) ;
#509 = ORIENTED_EDGE ( 'NONE', *, *, #369, .F. ) ;
#510 = ADVANCED_FACE ( 'NONE', ( #227 ), #790, .T. ) ;
#511 = FACE_OUTER_BOUND ( 'NONE', #514, .T. ) ;
#512 = ORIENTED_EDGE ( 'NONE', *, *, #793, .F. ) ;
#513 = DIRECTION ( 'NONE',  ( -1.000000000000000000, 0.000000000000000000, 0.000000000000000000 ) ) ;
#514 = EDGE_LOOP ( 'NONE', ( #480, #464, #907, #207 ) ) ;
#515 = AXIS2_PLACEMENT_3D ( 'NONE', #19, #328, #641 ) ;
#516 = CARTESIAN_POINT ( 'NONE',  ( 6.071532165918824830E-15, 67.41905249806701761, 0.000000000000000000 ) ) ;
#517 = AXIS2_PLACEMENT_3D ( 'NONE', #250, #406, #501 ) ;
#518 = EDGE_LOOP ( 'NONE', ( #119, #818 ) ) ;
#519 = DIRECTION ( 'NONE',  ( -1.000000000000000000, 0.000000000000000000, 0.000000000000000000 ) ) ;
#520 = DIRECTION ( 'NONE',  ( 1.000000000000000000, 0.000000000000000000, 1.224646799147353454E-16 ) ) ;
#521 = ADVANCED_FACE ( 'NONE', ( #492 ), #100, .T. ) ;
#522 = CARTESIAN_POINT ( 'NONE',  ( 7.000000000000163425, 59.99999999999819522, 0.000000000000000000 ) ) ;
#523 = CARTESIAN_POINT ( 'NONE',  ( -6.350000000000028066, 60.08660254037662440, 0.000000000000000000 ) ) ;
#524 = ORIENTED_EDGE ( 'NONE', *, *, #912, .F. ) ;
#525 = EDGE_CURVE ( 'NONE', #345, #431, #12, .T. ) ;
#526 =( LENGTH_UNIT ( ) NAMED_UNIT ( * ) SI_UNIT ( .MILLI., .METRE. ) );
#527 = LINE ( 'NONE', #990, #500 ) ;
#528 = CARTESIAN_POINT ( 'NONE',  ( 12.50000000000002842, 81.99999999999806732, 1.530808498934194085E-15 ) ) ;
#529 = EDGE_LOOP ( 'NONE', ( #864, #252, #928, #246 ) ) ;
#530 = DIRECTION ( 'NONE',  ( -1.000000000000000000, 8.673617379883940562E-17, 0.000000000000000000 ) ) ;
#531 = ORIENTED_EDGE ( 'NONE', *, *, #733, .T. ) ;
#532 = CARTESIAN_POINT ( 'NONE',  ( 0.000000000000000000, 0.000000000000000000, 0.000000000000000000 ) ) ;
#533 = DIRECTION ( 'NONE',  ( 8.658536585366059171E-17, 1.000000000000000000, -0.000000000000000000 ) ) ;
#534 = AXIS2_PLACEMENT_3D ( 'NONE', #174, #652, #108 ) ;
#535 = CARTESIAN_POINT ( 'NONE',  ( -6.249999999999937828, 65.49999999999810996, 7.654042494670888581E-16 ) ) ;
#536 = ORIENTED_EDGE ( 'NONE', *, *, #591, .T. ) ;
#537 = FACE_OUTER_BOUND ( 'NONE', #447, .T. ) ;
#538 = ADVANCED_FACE ( 'NONE', ( #96 ), #337, .T. ) ;
#539 = DIRECTION ( 'NONE',  ( 8.658536585366059171E-17, 1.000000000000000000, -0.000000000000000000 ) ) ;
#540 = ORIENTED_EDGE ( 'NONE', *, *, #476, .F. ) ;
#541 = CARTESIAN_POINT ( 'NONE',  ( 5.749999999999979572, 65.99999999999810996, 0.000000000000000000 ) ) ;
#542 = EDGE_CURVE ( 'NONE', #773, #124, #957, .T. ) ;
#543 = CARTESIAN_POINT ( 'NONE',  ( -6.550000000000006928, 59.74019237886277267, 0.000000000000000000 ) ) ;
#544 = ORIENTED_EDGE ( 'NONE', *, *, #433, .F. ) ;
#545 = DIRECTION ( 'NONE',  ( -1.000000000000000000, 0.000000000000000000, 0.000000000000000000 ) ) ;
#546 = CIRCLE ( 'NONE', #320, 10.00000000000011013 ) ;
#547 = ORIENTED_EDGE ( 'NONE', *, *, #369, .T. ) ;
#548 = AXIS2_PLACEMENT_3D ( 'NONE', #157, #991, #619 ) ;
#549 = DIRECTION ( 'NONE',  ( -1.000000000000000000, 1.281975124255954990E-16, 0.000000000000000000 ) ) ;
#550 = LINE ( 'NONE', #261, #57 ) ;
#551 = ADVANCED_FACE ( 'NONE', ( #186 ), #465, .F. ) ;
#552 = EDGE_CURVE ( 'NONE', #139, #18, #560, .T. ) ;
#553 = VERTEX_POINT ( 'NONE', #886 ) ;
#554 = DIRECTION ( 'NONE',  ( -8.658536585366059171E-17, -1.000000000000000000, 0.000000000000000000 ) ) ;
#555 = DIRECTION ( 'NONE',  ( 8.658536585366059171E-17, 1.000000000000000000, -0.000000000000000000 ) ) ;
#556 = DIRECTION ( 'NONE',  ( 8.658536585366059171E-17, 1.000000000000000000, -0.000000000000000000 ) ) ;
#557 = ORIENTED_EDGE ( 'NONE', *, *, #213, .F. ) ;
#558 = DIRECTION ( 'NONE',  ( 8.658536585366059171E-17, 1.000000000000000000, -0.000000000000000000 ) ) ;
#559 = CARTESIAN_POINT ( 'NONE',  ( -6.249999999999940492, 60.99999999999820943, 0.000000000000000000 ) ) ;
#560 = LINE ( 'NONE', #181, #28 ) ;
#561 = ORIENTED_EDGE ( 'NONE', *, *, #618, .T. ) ;
#562 = DIRECTION ( 'NONE',  ( 8.658536585366059171E-17, 1.000000000000000000, -0.000000000000000000 ) ) ;
#563 = COLOUR_RGB ( '',0.7921568627450980005, 0.8196078431372548767, 0.9333333333333333481 ) ;
#564 = CARTESIAN_POINT ( 'NONE',  ( 5.671341463414605832E-15, 65.49999999999810996, 0.000000000000000000 ) ) ;
#565 = CARTESIAN_POINT ( 'NONE',  ( 6.067157287525340337, 60.81715728752354266, 7.430124752091440516E-16 ) ) ;
#566 = VERTEX_POINT ( 'NONE', #485 ) ;
#567 = DIRECTION ( 'NONE',  ( -1.000000000000000000, 0.000000000000000000, 0.000000000000000000 ) ) ;
#568 = CARTESIAN_POINT ( 'NONE',  ( -10.00000000000011369, 5.773502691897429706, 0.000000000000000000 ) ) ;
#569 = ADVANCED_FACE ( 'NONE', ( #881 ), #804, .T. ) ;
#570 = CARTESIAN_POINT ( 'NONE',  ( 7.100000000000000986E-15, 81.99999999999806732, 0.000000000000000000 ) ) ;
#571 = DIRECTION ( 'NONE',  ( 0.8660254037843972963, 0.5000000000000717204, 1.060575238724856132E-16 ) ) ;
#572 = FACE_OUTER_BOUND ( 'NONE', #79, .T. ) ;
#573 = DIRECTION ( 'NONE',  ( -1.000000000000000000, 0.000000000000000000, 0.000000000000000000 ) ) ;
#574 = ORIENTED_EDGE ( 'NONE', *, *, #83, .F. ) ;
#575 = ORIENTED_EDGE ( 'NONE', *, *, #618, .F. ) ;
#576 = AXIS2_PLACEMENT_3D ( 'NONE', #866, #642, #169 ) ;
#577 = CARTESIAN_POINT ( 'NONE',  ( 0.000000000000000000, 0.000000000000000000, 0.000000000000000000 ) ) ;
#578 = LINE ( 'NONE', #588, #106 ) ;
#579 =( GEOMETRIC_REPRESENTATION_CONTEXT ( 3 ) GLOBAL_UNCERTAINTY_ASSIGNED_CONTEXT ( ( #247 ) ) GLOBAL_UNIT_ASSIGNED_CONTEXT ( ( #988, #454, #908 ) ) REPRESENTATION_CONTEXT ( 'NONE', 'WORKASPACE' ) );
#580 = AXIS2_PLACEMENT_3D ( 'NONE', #767, #148, #616 ) ;
#581 = AXIS2_PLACEMENT_3D ( 'NONE', #875, #94, #730 ) ;
#582 = EDGE_CURVE ( 'NONE', #154, #18, #206, .T. ) ;
#583 = CARTESIAN_POINT ( 'NONE',  ( 7.100000000000002563E-15, 81.99999999999806732, 0.000000000000000000 ) ) ;
#584 = ORIENTED_EDGE ( 'NONE', *, *, #736, .T. ) ;
#585 = ADVANCED_FACE ( 'NONE', ( #643 ), #422, .T. ) ;
#586 = DIRECTION ( 'NONE',  ( -1.000000000000000000, 0.000000000000000000, 0.000000000000000000 ) ) ;
#587 = EDGE_LOOP ( 'NONE', ( #281, #762, #29, #620 ) ) ;
#588 = CARTESIAN_POINT ( 'NONE',  ( -4.999999999999997335, 81.99999999999806732, 0.000000000000000000 ) ) ;
#589 = ORIENTED_EDGE ( 'NONE', *, *, #185, .F. ) ;
#590 = VERTEX_POINT ( 'NONE', #565 ) ;
#591 = EDGE_CURVE ( 'NONE', #698, #33, #746, .T. ) ;
#592 = CARTESIAN_POINT ( 'NONE',  ( 0.000000000000000000, 0.000000000000000000, 0.000000000000000000 ) ) ;
#593 = AXIS2_PLACEMENT_3D ( 'NONE', #702, #334, #312 ) ;
#594 = CIRCLE ( 'NONE', #741, 6.000000000000000000 ) ;
#595 = AXIS2_PLACEMENT_3D ( 'NONE', #8, #319, #633 ) ;
#596 =( GEOMETRIC_REPRESENTATION_CONTEXT ( 3 ) GLOBAL_UNCERTAINTY_ASSIGNED_CONTEXT ( ( #819 ) ) GLOBAL_UNIT_ASSIGNED_CONTEXT ( ( #931, #471, #460 ) ) REPRESENTATION_CONTEXT ( 'NONE', 'WORKASPACE' ) );
#597 = LINE ( 'NONE', #662, #885 ) ;
#598 = CIRCLE ( 'NONE', #548, 12.49999999999998579 ) ;
#599 = DIRECTION ( 'NONE',  ( -1.000000000000000000, 0.000000000000000000, 0.000000000000000000 ) ) ;
#600 = VERTEX_POINT ( 'NONE', #960 ) ;
#601 =( NAMED_UNIT ( * ) SI_UNIT ( $, .STERADIAN. ) SOLID_ANGLE_UNIT ( ) );
#602 = DIRECTION ( 'NONE',  ( -1.000000000000000000, 8.658536585366059171E-17, 0.000000000000000000 ) ) ;
#603 = DIRECTION ( 'NONE',  ( 1.000000000000000000, 0.000000000000000000, 0.000000000000000000 ) ) ;
#604 = ORIENTED_EDGE ( 'NONE', *, *, #582, .F. ) ;
#605 = DIRECTION ( 'NONE',  ( 8.658536585366059171E-17, 1.000000000000000000, -0.000000000000000000 ) ) ;
#606 = VERTEX_POINT ( 'NONE', #194 ) ;
#607 = LINE ( 'NONE', #765, #459 ) ;
#608 = CARTESIAN_POINT ( 'NONE',  ( 1.777412618530576708E-15, 20.52786404500053763, 0.000000000000000000 ) ) ;
#609 = ORIENTED_EDGE ( 'NONE', *, *, #542, .T. ) ;
#610 = AXIS2_PLACEMENT_3D ( 'NONE', #522, #280, #47 ) ;
#611 = AXIS2_PLACEMENT_3D ( 'NONE', #625, #184, #238 ) ;
#612 = AXIS2_PLACEMENT_3D ( 'NONE', #56, #504, #599 ) ;
#613 = ADVANCED_FACE ( 'NONE', ( #88 ), #729, .T. ) ;
#614 = DIRECTION ( 'NONE',  ( -1.000000000000000000, 0.000000000000000000, 0.000000000000000000 ) ) ;
#615 = CIRCLE ( 'NONE', #644, 5.000000000000009770 ) ;
#616 = DIRECTION ( 'NONE',  ( -1.000000000000000000, 0.000000000000000000, 0.000000000000000000 ) ) ;
#617 = VERTEX_POINT ( 'NONE', #14 ) ;
#618 = EDGE_CURVE ( 'NONE', #431, #345, #355, .T. ) ;
#619 = DIRECTION ( 'NONE',  ( -1.000000000000000000, 0.000000000000000000, 0.000000000000000000 ) ) ;
#620 = ORIENTED_EDGE ( 'NONE', *, *, #461, .F. ) ;
#621 = DIRECTION ( 'NONE',  ( 8.658536585366059171E-17, 1.000000000000000000, -0.000000000000000000 ) ) ;
#622 = SURFACE_STYLE_FILL_AREA ( #4 ) ;
#623 = ORIENTED_EDGE ( 'NONE', *, *, #313, .F. ) ;
#624 = PRODUCT_CONTEXT ( 'NONE', #770, 'mechanical' ) ;
#625 = CARTESIAN_POINT ( 'NONE',  ( -6.349999999999960565, 60.53431457504893842, 0.000000000000000000 ) ) ;
#626 = CARTESIAN_POINT ( 'NONE',  ( -5.999999999999992895, 81.99999999999806732, 0.000000000000000000 ) ) ;
#627 = CIRCLE ( 'NONE', #255, 7.000000000000158096 ) ;
#628 = EDGE_CURVE ( 'NONE', #822, #37, #304, .T. ) ;
#629 = LINE ( 'NONE', #1, #969 ) ;
#630 = VECTOR ( 'NONE', #692, 1000.000000000000000 ) ;
#631 = ORIENTED_EDGE ( 'NONE', *, *, #736, .F. ) ;
#632 = DIRECTION ( 'NONE',  ( -1.000000000000000000, 0.000000000000000000, 0.000000000000000000 ) ) ;
#633 = DIRECTION ( 'NONE',  ( -1.000000000000000000, 0.000000000000000000, 0.000000000000000000 ) ) ;
#634 = DIRECTION ( 'NONE',  ( -1.000000000000000000, 0.000000000000000000, 0.000000000000000000 ) ) ;
#635 = ORIENTED_EDGE ( 'NONE', *, *, #689, .T. ) ;
#636 = UNCERTAINTY_MEASURE_WITH_UNIT (LENGTH_MEASURE( 1.000000000000000082E-05 ), #526, 'distance_accuracy_value', 'NONE');
#637 = FACE_OUTER_BOUND ( 'NONE', #223, .T. ) ;
#638 = DIRECTION ( 'NONE',  ( 8.658536585366059171E-17, 1.000000000000000000, -0.000000000000000000 ) ) ;
#639 = CARTESIAN_POINT ( 'NONE',  ( 5.887804878048757139E-15, 67.99999999999812417, 0.000000000000000000 ) ) ;
#640 = EDGE_LOOP ( 'NONE', ( #575, #53, #134, #171 ) ) ;
#641 = DIRECTION ( 'NONE',  ( -1.000000000000000000, 8.658536585366059171E-17, 0.000000000000000000 ) ) ;
#642 = DIRECTION ( 'NONE',  ( 8.658536585366059171E-17, 1.000000000000000000, -0.000000000000000000 ) ) ;
#643 = FACE_OUTER_BOUND ( 'NONE', #359, .T. ) ;
#644 = AXIS2_PLACEMENT_3D ( 'NONE', #165, #853, #922 ) ;
#645 = AXIS2_PLACEMENT_3D ( 'NONE', #111, #452, #192 ) ;
#646 = VERTEX_POINT ( 'NONE', #349 ) ;
#647 = VECTOR ( 'NONE', #707, 1000.000000000000000 ) ;
#648 = CARTESIAN_POINT ( 'NONE',  ( 5.671341463414605832E-15, 65.49999999999810996, 0.000000000000000000 ) ) ;
#649 = LINE ( 'NONE', #626, #805 ) ;
#650 = AXIS2_PLACEMENT_3D ( 'NONE', #800, #397, #710 ) ;
#651 = EDGE_CURVE ( 'NONE', #737, #427, #421, .T. ) ;
#652 = DIRECTION ( 'NONE',  ( 8.658536585366059171E-17, 1.000000000000000000, -0.000000000000000000 ) ) ;
#653 = ORIENTED_EDGE ( 'NONE', *, *, #542, .F. ) ;
#654 = CARTESIAN_POINT ( 'NONE',  ( -5.249999999999990230, 67.99999999999812417, 0.000000000000000000 ) ) ;
#655 = CARTESIAN_POINT ( 'NONE',  ( 6.550000000000017586, 59.74019237886277267, 8.296982064223422250E-16 ) ) ;
#656 = DIRECTION ( 'NONE',  ( -1.000000000000000000, 0.000000000000000000, 0.000000000000000000 ) ) ;
#657 = DIRECTION ( 'NONE',  ( 8.658536585366059171E-17, 1.000000000000000000, -0.000000000000000000 ) ) ;
#658 = VERTEX_POINT ( 'NONE', #449 ) ;
#659 = DIRECTION ( 'NONE',  ( 8.658536585366059171E-17, 1.000000000000000000, -0.000000000000000000 ) ) ;
#660 = FACE_OUTER_BOUND ( 'NONE', #97, .T. ) ;
#661 = EDGE_CURVE ( 'NONE', #374, #606, #876, .T. ) ;
#662 = CARTESIAN_POINT ( 'NONE',  ( -5.249999999999991118, 67.99999999999812417, 0.000000000000000000 ) ) ;
#663 = EDGE_CURVE ( 'NONE', #198, #617, #778, .T. ) ;
#664 = VECTOR ( 'NONE', #220, 1000.000000000000000 ) ;
#665 = EDGE_LOOP ( 'NONE', ( #102, #453, #390, #293 ) ) ;
#666 = VECTOR ( 'NONE', #939, 1000.000000000000227 ) ;
#667 = CARTESIAN_POINT ( 'NONE',  ( 5.204170427930421283E-15, 60.08660254037662440, 0.000000000000000000 ) ) ;
#668 = AXIS2_PLACEMENT_3D ( 'NONE', #890, #425, #519 ) ;
#669 = AXIS2_PLACEMENT_3D ( 'NONE', #258, #190, #330 ) ;
#670 = DIRECTION ( 'NONE',  ( 8.658536585366059171E-17, 1.000000000000000000, -0.000000000000000000 ) ) ;
#671 = ORIENTED_EDGE ( 'NONE', *, *, #591, .F. ) ;
#672 = DIRECTION ( 'NONE',  ( -0.8660254037844393737, 0.4999999999999985567, 0.000000000000000000 ) ) ;
#673 = EDGE_LOOP ( 'NONE', ( #458, #547, #807, #512 ) ) ;
#674 = ORIENTED_EDGE ( 'NONE', *, *, #733, .F. ) ;
#675 = FACE_OUTER_BOUND ( 'NONE', #291, .T. ) ;
#676 = CARTESIAN_POINT ( 'NONE',  ( 5.800000000000007816, 66.79843597113166709, 7.102951435054650623E-16 ) ) ;
#677 = EDGE_LOOP ( 'NONE', ( #742, #113, #976, #5 ) ) ;
#678 = ORIENTED_EDGE ( 'NONE', *, *, #699, .F. ) ;
#679 = AXIS2_PLACEMENT_3D ( 'NONE', #429, #739, #513 ) ;
#680 = CIRCLE ( 'NONE', #996, 12.29999999999998472 ) ;
#681 = ADVANCED_FACE ( 'NONE', ( #997 ), #984, .F. ) ;
#682 = CIRCLE ( 'NONE', #904, 0.7999999999999926059 ) ;
#683 = CARTESIAN_POINT ( 'NONE',  ( 5.887804878048757139E-15, 67.99999999999812417, 0.000000000000000000 ) ) ;
#684 = EDGE_LOOP ( 'NONE', ( #970, #786, #888, #84 ) ) ;
#685 = DIRECTION ( 'NONE',  ( -1.000000000000000000, 0.000000000000000000, 0.000000000000000000 ) ) ;
#686 = FACE_OUTER_BOUND ( 'NONE', #983, .T. ) ;
#687 = ORIENTED_EDGE ( 'NONE', *, *, #72, .T. ) ;
#688 = VERTEX_POINT ( 'NONE', #541 ) ;
#689 = EDGE_CURVE ( 'NONE', #658, #773, #368, .T. ) ;
#690 = DIRECTION ( 'NONE',  ( -1.000000000000000000, 0.000000000000000000, 0.000000000000000000 ) ) ;
#691 = EDGE_CURVE ( 'NONE', #566, #37, #527, .T. ) ;
#692 = DIRECTION ( 'NONE',  ( -0.7071067811865268116, -0.7071067811865682229, 8.659560562354677711E-17 ) ) ;
#693 = VERTEX_POINT ( 'NONE', #837 ) ;
#694 = AXIS2_PLACEMENT_3D ( 'NONE', #404, #714, #17 ) ;
#695 = DIRECTION ( 'NONE',  ( 8.658536585366059171E-17, 1.000000000000000000, -0.000000000000000000 ) ) ;
#696 = AXIS2_PLACEMENT_3D ( 'NONE', #70, #78, #379 ) ;
#697 = DIRECTION ( 'NONE',  ( 0.7071067811865492381, 0.7071067811865457964, 8.659560562354952580E-17 ) ) ;
#698 = VERTEX_POINT ( 'NONE', #388 ) ;
#699 = EDGE_CURVE ( 'NONE', #840, #617, #607, .T. ) ;
#700 = ORIENTED_EDGE ( 'NONE', *, *, #869, .T. ) ;
#701 = CARTESIAN_POINT ( 'NONE',  ( 12.49999999999999112, 59.79999999999815685, 0.000000000000000000 ) ) ;
#702 = CARTESIAN_POINT ( 'NONE',  ( -5.800000000000006040, 67.41905249806701761, 0.000000000000000000 ) ) ;
#703 = EDGE_CURVE ( 'NONE', #693, #191, #756, .T. ) ;
#704 = DIRECTION ( 'NONE',  ( 8.658536585366059171E-17, 1.000000000000000000, -0.000000000000000000 ) ) ;
#705 = VERTEX_POINT ( 'NONE', #145 ) ;
#706 = LINE ( 'NONE', #701, #122 ) ;
#707 = DIRECTION ( 'NONE',  ( 8.658536585366059171E-17, 1.000000000000000000, -0.000000000000000000 ) ) ;
#708 = TOROIDAL_SURFACE ( 'NONE', #273, 6.349999999999965894, 0.3999999999999981348 ) ;
#709 = VECTOR ( 'NONE', #470, 1000.000000000000000 ) ;
#710 = DIRECTION ( 'NONE',  ( 1.000000000000000000, 0.000000000000000000, 0.000000000000000000 ) ) ;
#711 = VECTOR ( 'NONE', #715, 1000.000000000000000 ) ;
#712 = EDGE_LOOP ( 'NONE', ( #338, #158, #801, #205 ) ) ;
#713 = FACE_OUTER_BOUND ( 'NONE', #413, .T. ) ;
#714 = DIRECTION ( 'NONE',  ( 8.658536585366059171E-17, 1.000000000000000000, -0.000000000000000000 ) ) ;
#715 = DIRECTION ( 'NONE',  ( 8.658536585366059171E-17, 1.000000000000000000, -0.000000000000000000 ) ) ;
#716 = ORIENTED_EDGE ( 'NONE', *, *, #166, .T. ) ;
#717 = CARTESIAN_POINT ( 'NONE',  ( -7.000000000000153655, 59.99999999999818812, 0.000000000000000000 ) ) ;
#718 = EDGE_CURVE ( 'NONE', #947, #999, #414, .T. ) ;
#719 = DIRECTION ( 'NONE',  ( 8.658536585366059171E-17, 1.000000000000000000, -0.000000000000000000 ) ) ;
#720 = EDGE_CURVE ( 'NONE', #345, #705, #479, .T. ) ;
#721 = ORIENTED_EDGE ( 'NONE', *, *, #72, .F. ) ;
#722 = CARTESIAN_POINT ( 'NONE',  ( 5.195121951219479111E-15, 59.99999999999818812, 0.000000000000000000 ) ) ;
#723 = DIRECTION ( 'NONE',  ( -0.7071067811864401031, 0.7071067811866549313, 0.000000000000000000 ) ) ;
#724 = AXIS2_PLACEMENT_3D ( 'NONE', #211, #846, #520 ) ;
#725 = AXIS2_PLACEMENT_3D ( 'NONE', #324, #638, #249 ) ;
#726 = CONICAL_SURFACE ( 'NONE', #759, 10.00000000000028777, 0.4205343352856598105 ) ;
#727 = CARTESIAN_POINT ( 'NONE',  ( 12.29999999999999005, 59.99999999999820943, 0.000000000000000000 ) ) ;
#728 = DIRECTION ( 'NONE',  ( -0.4082482904654100020, 0.9128709291745850107, 0.000000000000000000 ) ) ;
#729 = CONICAL_SURFACE ( 'NONE', #650, 12.49999999999998579, 0.7853981633973312615 ) ;
#730 = DIRECTION ( 'NONE',  ( -1.000000000000000000, 0.000000000000000000, 0.000000000000000000 ) ) ;
#731 = LINE ( 'NONE', #740, #398 ) ;
#732 = ORIENTED_EDGE ( 'NONE', *, *, #114, .T. ) ;
#733 = EDGE_CURVE ( 'NONE', #33, #826, #649, .T. ) ;
#734 = DIRECTION ( 'NONE',  ( 8.658536585366059171E-17, 1.000000000000000000, -0.000000000000000000 ) ) ;
#735 = FACE_OUTER_BOUND ( 'NONE', #67, .T. ) ;
#736 = EDGE_CURVE ( 'NONE', #688, #198, #484, .T. ) ;
#737 = VERTEX_POINT ( 'NONE', #410 ) ;
#738 = ORIENTED_EDGE ( 'NONE', *, *, #128, .F. ) ;
#739 = DIRECTION ( 'NONE',  ( 8.658536585366059171E-17, 1.000000000000000000, -0.000000000000000000 ) ) ;
#740 = CARTESIAN_POINT ( 'NONE',  ( -5.949999999999980638, 81.99999999999806732, 0.000000000000000000 ) ) ;
#741 = AXIS2_PLACEMENT_3D ( 'NONE', #852, #1001, #307 ) ;
#742 = ORIENTED_EDGE ( 'NONE', *, *, #751, .F. ) ;
#743 = CONICAL_SURFACE ( 'NONE', #757, 6.000000000000000000, 0.5235987755982907110 ) ;
#744 = FACE_OUTER_BOUND ( 'NONE', #130, .T. ) ;
#745 = CONICAL_SURFACE ( 'NONE', #952, 7.000000000000158096, 1.047197551196599408 ) ;
#746 = CIRCLE ( 'NONE', #224, 6.000000000000000888 ) ;
#747 = FACE_OUTER_BOUND ( 'NONE', #754, .T. ) ;
#748 = ORIENTED_EDGE ( 'NONE', *, *, #751, .T. ) ;
#749 = LINE ( 'NONE', #34, #499 ) ;
#750 = ORIENTED_EDGE ( 'NONE', *, *, #472, .T. ) ;
#751 = EDGE_CURVE ( 'NONE', #69, #427, #550, .T. ) ;
#752 =( NAMED_UNIT ( * ) PLANE_ANGLE_UNIT ( ) SI_UNIT ( $, .RADIAN. ) );
#753 = DIRECTION ( 'NONE',  ( -1.000000000000000000, 0.000000000000000000, 0.000000000000000000 ) ) ;
#754 = EDGE_LOOP ( 'NONE', ( #944, #363, #21, #75 ) ) ;
#755 = CLOSED_SHELL ( 'NONE', ( #538, #199, #234, #510, #405, #269, #521, #551, #776, #585, #164, #30, #411, #681, #87, #613, #342, #941, #54, #873, #898, #13, #896, #930, #251, #507, #974, #569, #297, #909, #357, #51, #282, #882, #266, #236, #183, #438 ) ) ;
#756 = CIRCLE ( 'NONE', #823, 7.000000000000158096 ) ;
#757 = AXIS2_PLACEMENT_3D ( 'NONE', #865, #486, #318 ) ;
#758 = CARTESIAN_POINT ( 'NONE',  ( 4.999008428350333127E-16, 5.773502691897427930, 0.000000000000000000 ) ) ;
#759 = AXIS2_PLACEMENT_3D ( 'NONE', #608, #292, #917 ) ;
#760 = AXIS2_PLACEMENT_3D ( 'NONE', #488, #31, #656 ) ;
#761 = DIRECTION ( 'NONE',  ( -1.000000000000000000, 0.000000000000000000, 0.000000000000000000 ) ) ;
#762 = ORIENTED_EDGE ( 'NONE', *, *, #360, .T. ) ;
#763 = EDGE_CURVE ( 'NONE', #553, #139, #450, .T. ) ;
#764 = ORIENTED_EDGE ( 'NONE', *, *, #810, .F. ) ;
#765 = CARTESIAN_POINT ( 'NONE',  ( -6.249999999999937828, 81.99999999999806732, 0.000000000000000000 ) ) ;
#766 = EDGE_CURVE ( 'NONE', #999, #826, #949, .T. ) ;
#767 = CARTESIAN_POINT ( 'NONE',  ( 5.714634146341436251E-15, 65.99999999999810996, 0.000000000000000000 ) ) ;
#768 = ORIENTED_EDGE ( 'NONE', *, *, #691, .F. ) ;
#769 = LINE ( 'NONE', #532, #73 ) ;
#770 = APPLICATION_CONTEXT ( 'automotive_design' ) ;
#771 = DIRECTION ( 'NONE',  ( 8.658536585366059171E-17, 1.000000000000000000, -0.000000000000000000 ) ) ;
#772 = CARTESIAN_POINT ( 'NONE',  ( 4.267949192431152561, 81.99999999999806732, 0.000000000000000000 ) ) ;
#773 = VERTEX_POINT ( 'NONE', #568 ) ;
#774 = AXIS2_PLACEMENT_3D ( 'NONE', #467, #771, #614 ) ;
#775 = AXIS2_PLACEMENT_3D ( 'NONE', #311, #22, #945 ) ;
#776 = ADVANCED_FACE ( 'NONE', ( #254 ), #284, .T. ) ;
#777 = AXIS2_PLACEMENT_3D ( 'NONE', #964, #116, #977 ) ;
#778 = CIRCLE ( 'NONE', #696, 6.249999999999944933 ) ;
#779 = ORIENTED_EDGE ( 'NONE', *, *, #391, .F. ) ;
#780 = CARTESIAN_POINT ( 'NONE',  ( 5.265875813919846932E-15, 60.81715728752354266, 0.000000000000000000 ) ) ;
#781 = CARTESIAN_POINT ( 'NONE',  ( 5.204170427930421283E-15, 60.53431457504893842, 0.000000000000000000 ) ) ;
#782 = ORIENTED_EDGE ( 'NONE', *, *, #348, .F. ) ;
#783 = CARTESIAN_POINT ( 'NONE',  ( 8.658536585366058579E-14, 1000.000000000000000, 0.000000000000000000 ) ) ;
#784 = LINE ( 'NONE', #396, #967 ) ;
#785 = DIRECTION ( 'NONE',  ( -0.000000000000000000, 0.000000000000000000, -1.000000000000000000 ) ) ;
#786 = ORIENTED_EDGE ( 'NONE', *, *, #416, .T. ) ;
#787 = CARTESIAN_POINT ( 'NONE',  ( 5.671341463414605832E-15, 65.49999999999810996, 0.000000000000000000 ) ) ;
#788 = CARTESIAN_POINT ( 'NONE',  ( 12.49999999999999112, 59.79999999999815685, 1.530808498934191916E-15 ) ) ;
#789 = CONICAL_SURFACE ( 'NONE', #120, 10.00000000000028777, 0.4205343352856598105 ) ;
#790 = CYLINDRICAL_SURFACE ( 'NONE', #163, 6.000000000000000000 ) ;
#791 = PRESENTATION_LAYER_ASSIGNMENT (  '', '', ( #144 ) ) ;
#792 = ORIENTED_EDGE ( 'NONE', *, *, #225, .T. ) ;
#793 = EDGE_CURVE ( 'NONE', #646, #840, #784, .T. ) ;
#794 = FACE_OUTER_BOUND ( 'NONE', #640, .T. ) ;
#795 = EDGE_CURVE ( 'NONE', #698, #938, #880, .T. ) ;
#796 = CARTESIAN_POINT ( 'NONE',  ( 7.100000000000000986E-15, 81.99999999999806732, 0.000000000000000000 ) ) ;
#797 = ORIENTED_EDGE ( 'NONE', *, *, #981, .T. ) ;
#798 = CARTESIAN_POINT ( 'NONE',  ( 5.887804878048757139E-15, 67.99999999999812417, 0.000000000000000000 ) ) ;
#799 = DIRECTION ( 'NONE',  ( 1.000000000000000000, 0.000000000000000000, 0.000000000000000000 ) ) ;
#800 = CARTESIAN_POINT ( 'NONE',  ( 5.177804878048744419E-15, 59.79999999999815685, 0.000000000000000000 ) ) ;
#801 = ORIENTED_EDGE ( 'NONE', *, *, #985, .F. ) ;
#802 = LINE ( 'NONE', #528, #141 ) ;
#803 = EDGE_CURVE ( 'NONE', #18, #154, #418, .T. ) ;
#804 = CYLINDRICAL_SURFACE ( 'NONE', #210, 6.249999999999944933 ) ;
#805 = VECTOR ( 'NONE', #956, 1000.000000000000000 ) ;
#806 = CIRCLE ( 'NONE', #725, 5.000000000000000888 ) ;
#807 = ORIENTED_EDGE ( 'NONE', *, *, #339, .F. ) ;
#808 = VECTOR ( 'NONE', #697, 1000.000000000000000 ) ;
#809 = AXIS2_PLACEMENT_3D ( 'NONE', #271, #366, #811 ) ;
#810 = EDGE_CURVE ( 'NONE', #600, #688, #140, .T. ) ;
#811 = DIRECTION ( 'NONE',  ( 1.000000000000000000, 0.000000000000000000, 1.224646799147351235E-16 ) ) ;
#812 = DIRECTION ( 'NONE',  ( -8.658536585366059171E-17, -1.000000000000000000, 0.000000000000000000 ) ) ;
#813 = AXIS2_PLACEMENT_3D ( 'NONE', #295, #380, #690 ) ;
#814 = DIRECTION ( 'NONE',  ( -1.000000000000000000, 8.658536585366059171E-17, 0.000000000000000000 ) ) ;
#815 = ORIENTED_EDGE ( 'NONE', *, *, #718, .T. ) ;
#816 = DIRECTION ( 'NONE',  ( -0.000000000000000000, 0.000000000000000000, -1.000000000000000000 ) ) ;
#817 = CARTESIAN_POINT ( 'NONE',  ( -12.49999999999998046, 59.79999999999815685, 0.000000000000000000 ) ) ;
#818 = ORIENTED_EDGE ( 'NONE', *, *, #703, .F. ) ;
#819 = UNCERTAINTY_MEASURE_WITH_UNIT (LENGTH_MEASURE( 1.000000000000000082E-05 ), #931, 'distance_accuracy_value', 'NONE');
#820 = DIRECTION ( 'NONE',  ( 1.000000000000000000, 0.000000000000000000, 0.000000000000000000 ) ) ;
#821 = LINE ( 'NONE', #268, #841 ) ;
#822 = VERTEX_POINT ( 'NONE', #788 ) ;
#823 = AXIS2_PLACEMENT_3D ( 'NONE', #64, #533, #685 ) ;
#824 = CONICAL_SURFACE ( 'NONE', #58, 1732.050807568545451, 1.047197551196514809 ) ;
#825 = CYLINDRICAL_SURFACE ( 'NONE', #668, 12.50000000000002132 ) ;
#826 = VERTEX_POINT ( 'NONE', #92 ) ;
#827 = AXIS2_PLACEMENT_3D ( 'NONE', #347, #812, #820 ) ;
#828 = ORIENTED_EDGE ( 'NONE', *, *, #360, .F. ) ;
#829 = EDGE_CURVE ( 'NONE', #69, #124, #382, .T. ) ;
#830 = ORIENTED_EDGE ( 'NONE', *, *, #401, .T. ) ;
#831 = DIRECTION ( 'NONE',  ( -1.000000000000000000, 0.000000000000000000, 0.000000000000000000 ) ) ;
#832 = CARTESIAN_POINT ( 'NONE',  ( 6.350000000000038725, 60.08660254037662440, 7.776507174585733578E-16 ) ) ;
#833 = ORIENTED_EDGE ( 'NONE', *, *, #525, .T. ) ;
#834 = DIRECTION ( 'NONE',  ( 8.658536585366059171E-17, 1.000000000000000000, -0.000000000000000000 ) ) ;
#835 = ORIENTED_EDGE ( 'NONE', *, *, #213, .T. ) ;
#836 = ORIENTED_EDGE ( 'NONE', *, *, #71, .T. ) ;
#837 = CARTESIAN_POINT ( 'NONE',  ( 7.000000000000162537, 59.99999999999818812, 8.572527594031665475E-16 ) ) ;
#838 = EDGE_CURVE ( 'NONE', #975, #705, #806, .T. ) ;
#839 = DIRECTION ( 'NONE',  ( -1.000000000000000000, 0.000000000000000000, 0.000000000000000000 ) ) ;
#840 = VERTEX_POINT ( 'NONE', #559 ) ;
#841 = VECTOR ( 'NONE', #441, 1000.000000000000000 ) ;
#842 = LINE ( 'NONE', #535, #630 ) ;
#843 = ORIENTED_EDGE ( 'NONE', *, *, #40, .F. ) ;
#844 = AXIS2_PLACEMENT_3D ( 'NONE', #7, #558, #632 ) ;
#845 = EDGE_CURVE ( 'NONE', #442, #191, #872, .T. ) ;
#846 = DIRECTION ( 'NONE',  ( -1.224646799147353207E-16, 1.060364911456879714E-32, 1.000000000000000000 ) ) ;
#847 = CIRCLE ( 'NONE', #679, 6.000000000000000888 ) ;
#848 = AXIS2_PLACEMENT_3D ( 'NONE', #491, #65, #761 ) ;
#849 = AXIS2_PLACEMENT_3D ( 'NONE', #781, #695, #998 ) ;
#850 = FILL_AREA_STYLE ('',( #377 ) ) ;
#851 = ORIENTED_EDGE ( 'NONE', *, *, #661, .T. ) ;
#852 = CARTESIAN_POINT ( 'NONE',  ( 6.840243902439019260E-15, 78.99999999999805311, 0.000000000000000000 ) ) ;
#853 = DIRECTION ( 'NONE',  ( 8.658536585366059171E-17, 1.000000000000000000, -0.000000000000000000 ) ) ;
#854 = ORIENTED_EDGE ( 'NONE', *, *, #256, .F. ) ;
#855 = DIRECTION ( 'NONE',  ( -1.000000000000000000, 8.673617379883940562E-17, 0.000000000000000000 ) ) ;
#856 = EDGE_LOOP ( 'NONE', ( #468, #367 ) ) ;
#857 = DIRECTION ( 'NONE',  ( -1.000000000000000000, 1.281975124255954990E-16, 0.000000000000000000 ) ) ;
#858 = CARTESIAN_POINT ( 'NONE',  ( 5.783767017012756761E-15, 66.79843597113166709, 0.000000000000000000 ) ) ;
#859 = AXIS2_PLACEMENT_3D ( 'NONE', #832, #443, #364 ) ;
#860 = CIRCLE ( 'NONE', #775, 6.067157287525335008 ) ;
#861 = AXIS2_PLACEMENT_3D ( 'NONE', #497, #734, #446 ) ;
#862 = CARTESIAN_POINT ( 'NONE',  ( -5.799999999999997158, 66.79843597113166709, 0.000000000000000000 ) ) ;
#863 = EDGE_CURVE ( 'NONE', #606, #705, #578, .T. ) ;
#864 = ORIENTED_EDGE ( 'NONE', *, *, #766, .F. ) ;
#865 = CARTESIAN_POINT ( 'NONE',  ( 6.840243902439019260E-15, 78.99999999999805311, 0.000000000000000000 ) ) ;
#866 = CARTESIAN_POINT ( 'NONE',  ( 5.202620463862000338E-15, 60.08660254037661019, 0.000000000000000000 ) ) ;
#867 = ORIENTED_EDGE ( 'NONE', *, *, #6, .T. ) ;
#868 = DIRECTION ( 'NONE',  ( 8.658536585366059171E-17, 1.000000000000000000, -0.000000000000000000 ) ) ;
#869 = EDGE_CURVE ( 'NONE', #33, #698, #847, .T. ) ;
#870 = ORIENTED_EDGE ( 'NONE', *, *, #651, .F. ) ;
#871 = FACE_OUTER_BOUND ( 'NONE', #958, .T. ) ;
#872 = LINE ( 'NONE', #177, #275 ) ;
#873 = ADVANCED_FACE ( 'NONE', ( #272 ), #825, .T. ) ;
#874 = CIRCLE ( 'NONE', #24, 6.550000000000012257 ) ;
#875 = CARTESIAN_POINT ( 'NONE',  ( 7.100000000000000986E-15, 81.99999999999806732, 0.000000000000000000 ) ) ;
#876 = CIRCLE ( 'NONE', #437, 5.000000000000009770 ) ;
#877 = VERTEX_POINT ( 'NONE', #655 ) ;
#878 = DIRECTION ( 'NONE',  ( 8.658536585366059171E-17, 1.000000000000000000, -0.000000000000000000 ) ) ;
#879 = ORIENTED_EDGE ( 'NONE', *, *, #943, .F. ) ;
#880 = LINE ( 'NONE', #189, #647 ) ;
#881 = FACE_OUTER_BOUND ( 'NONE', #457, .T. ) ;
#882 = ADVANCED_FACE ( 'NONE', ( #744 ), #126, .T. ) ;
#883 = ORIENTED_EDGE ( 'NONE', *, *, #863, .T. ) ;
#884 = CARTESIAN_POINT ( 'NONE',  ( 5.250000000000001776, 67.99999999999812417, 6.429395695523600208E-16 ) ) ;
#885 = VECTOR ( 'NONE', #50, 1000.000000000000114 ) ;
#886 = CARTESIAN_POINT ( 'NONE',  ( -5.950000000000001066, 60.08660254037661019, 0.000000000000000000 ) ) ;
#887 = ORIENTED_EDGE ( 'NONE', *, *, #461, .T. ) ;
#888 = ORIENTED_EDGE ( 'NONE', *, *, #472, .F. ) ;
#889 = DIRECTION ( 'NONE',  ( 0.7071067811864403252, 0.7071067811866547093, 8.659560562353618912E-17 ) ) ;
#890 = CARTESIAN_POINT ( 'NONE',  ( 7.100000000000000986E-15, 81.99999999999806732, 0.000000000000000000 ) ) ;
#891 = ORIENTED_EDGE ( 'NONE', *, *, #401, .F. ) ;
#892 = ORIENTED_EDGE ( 'NONE', *, *, #339, .T. ) ;
#893 = DIRECTION ( 'NONE',  ( 8.658536585366059171E-17, 1.000000000000000000, -0.000000000000000000 ) ) ;
#894 = DIRECTION ( 'NONE',  ( -1.000000000000000000, 0.000000000000000000, 0.000000000000000000 ) ) ;
#895 = ORIENTED_EDGE ( 'NONE', *, *, #325, .T. ) ;
#896 = ADVANCED_FACE ( 'NONE', ( #735 ), #745, .F. ) ;
#897 = ORIENTED_EDGE ( 'NONE', *, *, #981, .F. ) ;
#898 = ADVANCED_FACE ( 'NONE', ( #660 ), #301, .T. ) ;
#899 = CARTESIAN_POINT ( 'NONE',  ( 1.777412618530576708E-15, 20.52786404500053763, 0.000000000000000000 ) ) ;
#900 = ORIENTED_EDGE ( 'NONE', *, *, #445, .F. ) ;
#901 = CIRCLE ( 'NONE', #25, 0.4000000000000270561 ) ;
#902 = CARTESIAN_POINT ( 'NONE',  ( 7.100000000000000986E-15, 81.99999999999806732, 0.000000000000000000 ) ) ;
#903 = AXIS2_PLACEMENT_3D ( 'NONE', #667, #201, #278 ) ;
#904 = AXIS2_PLACEMENT_3D ( 'NONE', #862, #785, #152 ) ;
#905 = FACE_BOUND ( 'NONE', #518, .T. ) ;
#906 = FACE_OUTER_BOUND ( 'NONE', #924, .T. ) ;
#907 = ORIENTED_EDGE ( 'NONE', *, *, #703, .T. ) ;
#908 =( NAMED_UNIT ( * ) SI_UNIT ( $, .STERADIAN. ) SOLID_ANGLE_UNIT ( ) );
#909 = ADVANCED_FACE ( 'NONE', ( #675 ), #481, .F. ) ;
#910 = CYLINDRICAL_SURFACE ( 'NONE', #10, 5.949999999999987743 ) ;
#911 = VERTEX_POINT ( 'NONE', #592 ) ;
#912 = EDGE_CURVE ( 'NONE', #124, #737, #265, .T. ) ;
#913 = DIRECTION ( 'NONE',  ( 8.658536585366059171E-17, 1.000000000000000000, -0.000000000000000000 ) ) ;
#914 = DIRECTION ( 'NONE',  ( -1.000000000000000000, 0.000000000000000000, 0.000000000000000000 ) ) ;
#915 = PRODUCT_RELATED_PRODUCT_CATEGORY ( 'part', '', ( #375 ) ) ;
#916 = CIRCLE ( 'NONE', #90, 4.267949192431145455 ) ;
#917 = DIRECTION ( 'NONE',  ( -1.000000000000000000, 0.000000000000000000, 0.000000000000000000 ) ) ;
#918 = AXIS2_PLACEMENT_3D ( 'NONE', #798, #98, #409 ) ;
#919 = DIRECTION ( 'NONE',  ( 8.658536585366059171E-17, 1.000000000000000000, -0.000000000000000000 ) ) ;
#920 = AXIS2_PLACEMENT_3D ( 'NONE', #940, #555, #475 ) ;
#921 = AXIS2_PLACEMENT_3D ( 'NONE', #639, #267, #573 ) ;
#922 = DIRECTION ( 'NONE',  ( -1.000000000000000000, 0.000000000000000000, 0.000000000000000000 ) ) ;
#923 = CARTESIAN_POINT ( 'NONE',  ( 5.265875813919846932E-15, 60.81715728752354266, 0.000000000000000000 ) ) ;
#924 = EDGE_LOOP ( 'NONE', ( #322, #473, #604, #489 ) ) ;
#925 = CARTESIAN_POINT ( 'NONE',  ( 7.000000000000163425, 59.99999999999818812, 8.572527594031666461E-16 ) ) ;
#926 = DIRECTION ( 'NONE',  ( 8.658536585366059171E-17, 1.000000000000000000, -0.000000000000000000 ) ) ;
#927 = FACE_OUTER_BOUND ( 'NONE', #331, .T. ) ;
#928 = ORIENTED_EDGE ( 'NONE', *, *, #256, .T. ) ;
#929 = FACE_OUTER_BOUND ( 'NONE', #182, .T. ) ;
#930 = ADVANCED_FACE ( 'NONE', ( #572 ), #60, .F. ) ;
#931 =( LENGTH_UNIT ( ) NAMED_UNIT ( * ) SI_UNIT ( .MILLI., .METRE. ) );
#932 = ORIENTED_EDGE ( 'NONE', *, *, #114, .F. ) ;
#933 = LINE ( 'NONE', #948, #178 ) ;
#934 = DIRECTION ( 'NONE',  ( -1.000000000000000000, 0.000000000000000000, 0.000000000000000000 ) ) ;
#935 = CIRCLE ( 'NONE', #123, 0.7999999999999926059 ) ;
#936 = CARTESIAN_POINT ( 'NONE',  ( 5.281707317073141527E-15, 60.99999999999820943, 0.000000000000000000 ) ) ;
#937 = AXIS2_PLACEMENT_3D ( 'NONE', #758, #926, #855 ) ;
#938 = VERTEX_POINT ( 'NONE', #341 ) ;
#939 = DIRECTION ( 'NONE',  ( 0.4999999999999928946, -0.8660254037844427044, 0.000000000000000000 ) ) ;
#940 = CARTESIAN_POINT ( 'NONE',  ( 5.714634146341436251E-15, 65.99999999999810996, 0.000000000000000000 ) ) ;
#941 = ADVANCED_FACE ( 'NONE', ( #131 ), #726, .T. ) ;
#942 = CARTESIAN_POINT ( 'NONE',  ( 5.177804878048744419E-15, 59.79999999999815685, 0.000000000000000000 ) ) ;
#943 = EDGE_CURVE ( 'NONE', #688, #600, #11, .T. ) ;
#944 = ORIENTED_EDGE ( 'NONE', *, *, #135, .F. ) ;
#945 = DIRECTION ( 'NONE',  ( -1.000000000000000000, 0.000000000000000000, 0.000000000000000000 ) ) ;
#946 = DIRECTION ( 'NONE',  ( 0.4082482904654100575, 0.9128709291745848997, 4.999599621758432979E-17 ) ) ;
#947 = VERTEX_POINT ( 'NONE', #772 ) ;
#948 = CARTESIAN_POINT ( 'NONE',  ( 10.00000000000020606, 81.99999999999806732, 1.224646799147377711E-15 ) ) ;
#949 = LINE ( 'NONE', #173, #709 ) ;
#950 = CIRCLE ( 'NONE', #965, 6.550000000000012257 ) ;
#951 = DIRECTION ( 'NONE',  ( 8.658536585366059171E-17, 1.000000000000000000, -0.000000000000000000 ) ) ;
#952 = AXIS2_PLACEMENT_3D ( 'NONE', #35, #104, #49 ) ;
#953 = EDGE_LOOP ( 'NONE', ( #897, #561, #867, #671 ) ) ;
#954 = EDGE_CURVE ( 'NONE', #427, #737, #196, .T. ) ;
#955 = FACE_OUTER_BOUND ( 'NONE', #423, .T. ) ;
#956 = DIRECTION ( 'NONE',  ( 8.658536585366059171E-17, 1.000000000000000000, -0.000000000000000000 ) ) ;
#957 = LINE ( 'NONE', #26, #711 ) ;
#958 = EDGE_LOOP ( 'NONE', ( #891, #732, #992 ) ) ;
#959 = CARTESIAN_POINT ( 'NONE',  ( 12.50000000000006217, 26.11803398872407911, 1.530808498934198621E-15 ) ) ;
#960 = CARTESIAN_POINT ( 'NONE',  ( -5.749999999999968026, 65.99999999999810996, 7.347880794884069446E-16 ) ) ;
#961 = CARTESIAN_POINT ( 'NONE',  ( 10.00000000000028955, 20.52786404500053763, 1.377727649040793491E-15 ) ) ;
#962 = ORIENTED_EDGE ( 'NONE', *, *, #166, .F. ) ;
#963 = CYLINDRICAL_SURFACE ( 'NONE', #861, 5.000000000000004441 ) ;
#964 = CARTESIAN_POINT ( 'NONE',  ( 5.204170427930421283E-15, 66.79843597113166709, 0.000000000000000000 ) ) ;
#965 = AXIS2_PLACEMENT_3D ( 'NONE', #354, #112, #966 ) ;
#966 = DIRECTION ( 'NONE',  ( -1.000000000000000000, 0.000000000000000000, 0.000000000000000000 ) ) ;
#967 = VECTOR ( 'NONE', #723, 1000.000000000000000 ) ;
#968 = AXIS2_PLACEMENT_3D ( 'NONE', #780, #878, #402 ) ;
#969 = VECTOR ( 'NONE', #704, 1000.000000000000000 ) ;
#970 = ORIENTED_EDGE ( 'NONE', *, *, #651, .T. ) ;
#971 = EDGE_CURVE ( 'NONE', #773, #658, #546, .T. ) ;
#972 = DIRECTION ( 'NONE',  ( 8.658536585366059171E-17, 1.000000000000000000, -0.000000000000000000 ) ) ;
#973 = ORIENTED_EDGE ( 'NONE', *, *, #147, .T. ) ;
#974 = ADVANCED_FACE ( 'NONE', ( #927 ), #240, .T. ) ;
#975 = VERTEX_POINT ( 'NONE', #384 ) ;
#976 = ORIENTED_EDGE ( 'NONE', *, *, #912, .T. ) ;
#977 = DIRECTION ( 'NONE',  ( -1.000000000000000000, 8.658536585366060403E-17, 0.000000000000000000 ) ) ;
#978 = ORIENTED_EDGE ( 'NONE', *, *, #971, .F. ) ;
#979 = EDGE_LOOP ( 'NONE', ( #218, #973, #836, #623 ) ) ;
#980 = AXIS2_PLACEMENT_3D ( 'NONE', #483, #554, #172 ) ;
#981 = EDGE_CURVE ( 'NONE', #431, #698, #228, .T. ) ;
#982 = SURFACE_STYLE_FILL_AREA ( #850 ) ;
#983 = EDGE_LOOP ( 'NONE', ( #557, #635, #609, #143 ) ) ;
#984 = TOROIDAL_SURFACE ( 'NONE', #110, 6.350000000000033396, 0.4000000000000267231 ) ;
#985 = EDGE_CURVE ( 'NONE', #705, #975, #498, .T. ) ;
#986 = CARTESIAN_POINT ( 'NONE',  ( 5.000000000000015987, 66.79843597113166709, 6.582476545417014213E-16 ) ) ;
#987 = ORIENTED_EDGE ( 'NONE', *, *, #83, .T. ) ;
#988 =( LENGTH_UNIT ( ) NAMED_UNIT ( * ) SI_UNIT ( .MILLI., .METRE. ) );
#989 = ORIENTED_EDGE ( 'NONE', *, *, #6, .F. ) ;
#990 = CARTESIAN_POINT ( 'NONE',  ( -12.49999999999998046, 59.79999999999815685, 1.530808498934189746E-15 ) ) ;
#991 = DIRECTION ( 'NONE',  ( 8.658536585366059171E-17, 1.000000000000000000, -0.000000000000000000 ) ) ;
#992 = ORIENTED_EDGE ( 'NONE', *, *, #689, .F. ) ;
#993 = CARTESIAN_POINT ( 'NONE',  ( 5.250000000000002665, 67.99999999999812417, 6.429395695523600208E-16 ) ) ;
#994 = CIRCLE ( 'NONE', #859, 0.4000000000000270561 ) ;
#995 = ORIENTED_EDGE ( 'NONE', *, *, #795, .F. ) ;
#996 = AXIS2_PLACEMENT_3D ( 'NONE', #115, #137, #362 ) ;
#997 = FACE_OUTER_BOUND ( 'NONE', #979, .T. ) ;
#998 = DIRECTION ( 'NONE',  ( -1.000000000000000000, 8.658536585366059171E-17, 0.000000000000000000 ) ) ;
#999 = VERTEX_POINT ( 'NONE', #222 ) ;
#1000 = EDGE_CURVE ( 'NONE', #600, #617, #842, .T. ) ;
#1001 = DIRECTION ( 'NONE',  ( 8.658536585366059171E-17, 1.000000000000000000, -0.000000000000000000 ) ) ;
#1002 = DIRECTION ( 'NONE',  ( -1.000000000000000000, 0.000000000000000000, 0.000000000000000000 ) ) ;
ENDSEC;
END-ISO-10303-21;
