ISO-10303-21;
HEADER;
FILE_DESCRIPTION (( 'STEP AP214' ),
    '1' );
FILE_NAME ('99688-SI08-08+S9MT0802-090.STEP',
    '2022-11-03T01:06:37',
    ( 'User' ),
    ( 'GENUINE' ),
    'SwSTEP 2.0',
    'SolidWorks 2012',
    '' );
FILE_SCHEMA (( 'AUTOMOTIVE_DESIGN' ));
ENDSEC;

DATA;
#1 = DIRECTION ( 'NONE',  ( 1.000000000000000000, 8.745141363201125100E-016, 0.0000000000000000000 ) ) ;
#2 = CARTESIAN_POINT ( 'NONE',  ( 4.618527782440651200E-013, 65.00000000000105200, 0.0000000000000000000 ) ) ;
#3 = PLANE ( 'NONE',  #75 ) ;
#4 = DIRECTION ( 'NONE',  ( 1.000000000000000000, 0.0000000000000000000, 0.0000000000000000000 ) ) ;
#5 = DIRECTION ( 'NONE',  ( 8.745141363201125100E-016, -1.000000000000000000, 0.0000000000000000000 ) ) ;
#6 = CARTESIAN_POINT ( 'NONE',  ( 4.620276810713291700E-013, 64.80000000000106300, 0.0000000000000000000 ) ) ;
#7 = DIRECTION ( 'NONE',  ( 1.000000000000000000, 0.0000000000000000000, 0.0000000000000000000 ) ) ;
#8 = DIRECTION ( 'NONE',  ( 8.745141363201125100E-016, -1.000000000000000000, 0.0000000000000000000 ) ) ;
#9 = CARTESIAN_POINT ( 'NONE',  ( 4.620276810713291700E-013, 64.80000000000106300, 0.0000000000000000000 ) ) ;
#10 = DIRECTION ( 'NONE',  ( -1.000000000000000000, -8.332838307662218800E-016, 0.0000000000000000000 ) ) ;
#11 = DIRECTION ( 'NONE',  ( -8.745141363201125100E-016, 1.000000000000000000, -0.0000000000000000000 ) ) ;
#12 = CARTESIAN_POINT ( 'NONE',  ( -3.558179392152393900E-013, 1000.000000000000200, 0.0000000000000000000 ) ) ;
#13 = DIRECTION ( 'NONE',  ( -1.000000000000000000, -8.809142651449679500E-016, 0.0000000000000000000 ) ) ;
#14 = DIRECTION ( 'NONE',  ( -8.745141363201125100E-016, 1.000000000000000000, -0.0000000000000000000 ) ) ;
#15 = CARTESIAN_POINT ( 'NONE',  ( 5.182922763272616900E-013, 0.4618802153517481700, 0.0000000000000000000 ) ) ;
#16 = PRODUCT ( '99688-SI08-08+S9MT0802-090', '99688-SI08-08+S9MT0802-090', '', ( #370 ) ) ;
#17 = CARTESIAN_POINT ( 'NONE',  ( -3.558179392152393900E-013, 1000.000000000000200, 0.0000000000000000000 ) ) ;
#18 = AXIS2_PLACEMENT_3D ( 'NONE', #366, #367, #368 ) ;
#19 = MECHANICAL_DESIGN_GEOMETRIC_PRESENTATION_REPRESENTATION (  '', ( #21 ), #374 ) ;
#20 = PRESENTATION_LAYER_ASSIGNMENT (  '', '', ( #21 ) ) ;
#21 = STYLED_ITEM ( 'NONE', ( #362 ), #199 ) ;
#22 = MECHANICAL_DESIGN_GEOMETRIC_PRESENTATION_REPRESENTATION (  '', ( #47 ), #372 ) ;
#23 = VECTOR ( 'NONE', #321, 1000.000000000000100 ) ;
#24 = PRESENTATION_LAYER_ASSIGNMENT (  '', '', ( #47 ) ) ;
#25 = VECTOR ( 'NONE', #315, 1000.000000000000100 ) ;
#26 = AXIS2_PLACEMENT_3D ( 'NONE', #306, #316, #317 ) ;
#27 = VECTOR ( 'NONE', #312, 1000.000000000000000 ) ;
#28 = VECTOR ( 'NONE', #309, 1000.000000000000000 ) ;
#29 = VECTOR ( 'NONE', #303, 1000.000000000000000 ) ;
#30 = AXIS2_PLACEMENT_3D ( 'NONE', #297, #304, #305 ) ;
#31 = VECTOR ( 'NONE', #300, 1000.000000000000000 ) ;
#32 = AXIS2_PLACEMENT_3D ( 'NONE', #17, #201, #202 ) ;
#33 = VECTOR ( 'NONE', #294, 1000.000000000000000 ) ;
#34 = VECTOR ( 'NONE', #291, 1000.000000000000000 ) ;
#35 = AXIS2_PLACEMENT_3D ( 'NONE', #288, #295, #296 ) ;
#36 = FACE_OUTER_BOUND ( 'NONE', #447, .T. ) ;
#37 = VECTOR ( 'NONE', #285, 1000.000000000000000 ) ;
#38 = VECTOR ( 'NONE', #282, 1000.000000000000100 ) ;
#39 = AXIS2_PLACEMENT_3D ( 'NONE', #273, #286, #287 ) ;
#40 = VECTOR ( 'NONE', #279, 1000.000000000000000 ) ;
#41 = VECTOR ( 'NONE', #276, 999.9999999999998900 ) ;
#42 = PRODUCT_DEFINITION_FORMATION_WITH_SPECIFIED_SOURCE ( 'ANY', '', #16, .NOT_KNOWN. ) ;
#43 = VECTOR ( 'NONE', #270, 1000.000000000000000 ) ;
#44 = FACE_OUTER_BOUND ( 'NONE', #449, .T. ) ;
#45 = FACE_OUTER_BOUND ( 'NONE', #448, .T. ) ;
#46 = AXIS2_PLACEMENT_3D ( 'NONE', #203, #204, #205 ) ;
#47 = STYLED_ITEM ( 'NONE', ( #327 ), #436 ) ;
#48 = AXIS2_PLACEMENT_3D ( 'NONE', #267, #271, #272 ) ;
#49 = AXIS2_PLACEMENT_3D ( 'NONE', #264, #265, #266 ) ;
#50 = AXIS2_PLACEMENT_3D ( 'NONE', #261, #262, #263 ) ;
#51 = AXIS2_PLACEMENT_3D ( 'NONE', #258, #259, #260 ) ;
#52 = FACE_OUTER_BOUND ( 'NONE', #446, .T. ) ;
#53 = FACE_OUTER_BOUND ( 'NONE', #451, .T. ) ;
#54 = AXIS2_PLACEMENT_3D ( 'NONE', #206, #207, #208 ) ;
#55 = CYLINDRICAL_SURFACE ( 'NONE', #54, 3.999999999998189900 ) ;
#56 = AXIS2_PLACEMENT_3D ( 'NONE', #255, #256, #257 ) ;
#57 = AXIS2_PLACEMENT_3D ( 'NONE', #252, #253, #254 ) ;
#58 = AXIS2_PLACEMENT_3D ( 'NONE', #249, #250, #251 ) ;
#59 = AXIS2_PLACEMENT_3D ( 'NONE', #246, #247, #248 ) ;
#60 = AXIS2_PLACEMENT_3D ( 'NONE', #234, #235, #236 ) ;
#61 = AXIS2_PLACEMENT_3D ( 'NONE', #237, #238, #239 ) ;
#62 = AXIS2_PLACEMENT_3D ( 'NONE', #243, #244, #245 ) ;
#63 = CYLINDRICAL_SURFACE ( 'NONE', #64, 3.999999999997593000 ) ;
#64 = AXIS2_PLACEMENT_3D ( 'NONE', #231, #232, #233 ) ;
#65 = FACE_OUTER_BOUND ( 'NONE', #480, .T. ) ;
#66 = CYLINDRICAL_SURFACE ( 'NONE', #68, 3.999999999997593000 ) ;
#67 = FACE_OUTER_BOUND ( 'NONE', #444, .T. ) ;
#68 = AXIS2_PLACEMENT_3D ( 'NONE', #228, #229, #230 ) ;
#69 = AXIS2_PLACEMENT_3D ( 'NONE', #9, #8, #7 ) ;
#70 = AXIS2_PLACEMENT_3D ( 'NONE', #6, #5, #4 ) ;
#71 = AXIS2_PLACEMENT_3D ( 'NONE', #225, #226, #227 ) ;
#72 = AXIS2_PLACEMENT_3D ( 'NONE', #240, #241, #242 ) ;
#73 = AXIS2_PLACEMENT_3D ( 'NONE', #222, #223, #224 ) ;
#74 = FACE_OUTER_BOUND ( 'NONE', #456, .T. ) ;
#75 = AXIS2_PLACEMENT_3D ( 'NONE', #2, #406, #1 ) ;
#76 = AXIS2_PLACEMENT_3D ( 'NONE', #219, #220, #221 ) ;
#77 = FACE_OUTER_BOUND ( 'NONE', #482, .T. ) ;
#78 = AXIS2_PLACEMENT_3D ( 'NONE', #12, #11, #10 ) ;
#79 = FACE_OUTER_BOUND ( 'NONE', #454, .T. ) ;
#80 = FACE_OUTER_BOUND ( 'NONE', #453, .T. ) ;
#81 = AXIS2_PLACEMENT_3D ( 'NONE', #215, #216, #217 ) ;
#82 = FACE_BOUND ( 'NONE', #452, .T. ) ;
#83 = FACE_OUTER_BOUND ( 'NONE', #445, .T. ) ;
#84 = FACE_OUTER_BOUND ( 'NONE', #455, .T. ) ;
#85 = CYLINDRICAL_SURFACE ( 'NONE', #86, 5.250000000000024900 ) ;
#86 = AXIS2_PLACEMENT_3D ( 'NONE', #212, #213, #214 ) ;
#87 = AXIS2_PLACEMENT_3D ( 'NONE', #209, #210, #211 ) ;
#88 = FACE_OUTER_BOUND ( 'NONE', #450, .T. ) ;
#89 = APPLICATION_CONTEXT ( 'automotive_design' ) ;
#90 = APPLICATION_CONTEXT ( 'automotive_design' ) ;
#91 = CIRCLE ( 'NONE', #378, 3.999999999999371200 ) ;
#92 = PRODUCT_RELATED_PRODUCT_CATEGORY ( 'part', '', ( #16 ) ) ;
#93 = PRODUCT_DEFINITION ( 'UNKNOWN', '', #42, #435 ) ;
#94 = COLOUR_RGB ( '',0.7921568627450980000, 0.8196078431372548800, 0.9333333333333333500 ) ;
#95 = CIRCLE ( 'NONE', #26, 3.999999999997008600 ) ;
#96 = CIRCLE ( 'NONE', #30, 5.250000000000024900 ) ;
#97 = CIRCLE ( 'NONE', #35, 5.250000000000026600 ) ;
#98 = CIRCLE ( 'NONE', #39, 0.7999999999995498500 ) ;
#99 = CIRCLE ( 'NONE', #48, 3.799999999997602600 ) ;
#100 = CIRCLE ( 'NONE', #49, 3.799999999997602600 ) ;
#101 = CIRCLE ( 'NONE', #50, 3.999999999997606400 ) ;
#102 = CIRCLE ( 'NONE', #51, 0.7999999999995498500 ) ;
#103 = CIRCLE ( 'NONE', #56, 3.999999999999371200 ) ;
#104 = CIRCLE ( 'NONE', #57, 3.999999999997008600 ) ;
#105 = CIRCLE ( 'NONE', #58, 5.250000000000024900 ) ;
#106 = CIRCLE ( 'NONE', #59, 5.250000000000026600 ) ;
#107 = CIRCLE ( 'NONE', #62, 5.170000000000021200 ) ;
#108 = TOROIDAL_SURFACE ( 'NONE', #60, 4.159999999997582500, 0.1600000000000008400 ) ;
#109 = TOROIDAL_SURFACE ( 'NONE', #71, 4.159999999997582500, 0.1600000000000008400 ) ;
#110 = CIRCLE ( 'NONE', #72, 4.479999999997599700 ) ;
#111 = CONICAL_SURFACE ( 'NONE', #73, 4.479999999997598800, 1.047197551196689600 ) ;
#112 = CONICAL_SURFACE ( 'NONE', #81, 5.250000000000025800, 0.7853981633971555100 ) ;
#113 = CONICAL_SURFACE ( 'NONE', #87, 3.999999999997008600, 0.3474164168820199100 ) ;
#114 = CIRCLE ( 'NONE', #61, 4.239999999997550600 ) ;
#115 = CONICAL_SURFACE ( 'NONE', #32, 1732.050807568854700, 1.047197551196592100 ) ;
#116 = CONICAL_SURFACE ( 'NONE', #46, 0.7999999999995499600, 0.7853981633972835200 ) ;
#117 = CONICAL_SURFACE ( 'NONE', #70, 3.999999999997605500, 0.7853981633974407300 ) ;
#118 = CONICAL_SURFACE ( 'NONE', #69, 3.999999999997605500, 0.7853981633974407300 ) ;
#119 = CONICAL_SURFACE ( 'NONE', #376, 0.7999999999995499600, 0.7853981633972835200 ) ;
#120 = CONICAL_SURFACE ( 'NONE', #388, 3.999999999997008600, 0.3474164168820199100 ) ;
#121 = CONICAL_SURFACE ( 'NONE', #78, 1732.050807568854700, 1.047197551196592100 ) ;
#122 = CONICAL_SURFACE ( 'NONE', #394, 5.250000000000025800, 0.7853981633971555100 ) ;
#123 = CONICAL_SURFACE ( 'NONE', #400, 4.479999999997598800, 1.047197551196689600 ) ;
#124 = CIRCLE ( 'NONE', #397, 5.170000000000021200 ) ;
#125 = CIRCLE ( 'NONE', #402, 3.999999999997606400 ) ;
#126 = CIRCLE ( 'NONE', #405, 4.479999999997599700 ) ;
#127 = CIRCLE ( 'NONE', #387, 0.1600000000000004200 ) ;
#128 = CIRCLE ( 'NONE', #404, 3.999999999997581900 ) ;
#129 = CIRCLE ( 'NONE', #380, 4.239999999997550600 ) ;
#130 = CIRCLE ( 'NONE', #381, 3.999999999997581900 ) ;
#131 = CIRCLE ( 'NONE', #379, 0.1600000000000004200 ) ;
#132 = EDGE_CURVE ( 'NONE', #549, #548, #91, .T. ) ;
#133 = EDGE_CURVE ( 'NONE', #474, #477, #131, .T. ) ;
#134 = EDGE_CURVE ( 'NONE', #474, #475, #130, .T. ) ;
#135 = EDGE_CURVE ( 'NONE', #477, #473, #129, .T. ) ;
#136 = EDGE_CURVE ( 'NONE', #475, #474, #128, .T. ) ;
#137 = EDGE_CURVE ( 'NONE', #474, #472, #576, .T. ) ;
#138 = EDGE_CURVE ( 'NONE', #477, #561, #573, .T. ) ;
#139 = EDGE_CURVE ( 'NONE', #475, #473, #127, .T. ) ;
#140 = EDGE_CURVE ( 'NONE', #561, #560, #126, .T. ) ;
#141 = EDGE_CURVE ( 'NONE', #473, #560, #584, .T. ) ;
#142 = EDGE_CURVE ( 'NONE', #479, #558, #432, .T. ) ;
#143 = EDGE_CURVE ( 'NONE', #475, #476, #429, .T. ) ;
#144 = EDGE_CURVE ( 'NONE', #476, #472, #125, .T. ) ;
#145 = EDGE_CURVE ( 'NONE', #479, #478, #124, .T. ) ;
#146 = ADVANCED_FACE ( 'NONE', ( #398 ), #123, .F. ) ;
#147 = ADVANCED_FACE ( 'NONE', ( #396 ), #122, .T. ) ;
#148 = ADVANCED_FACE ( 'NONE', ( #395 ), #392, .T. ) ;
#149 = ADVANCED_FACE ( 'NONE', ( #375 ), #120, .T. ) ;
#150 = ADVANCED_FACE ( 'NONE', ( #389 ), #384, .T. ) ;
#151 = ADVANCED_FACE ( 'NONE', ( #390 ), #119, .T. ) ;
#152 = ADVANCED_FACE ( 'NONE', ( #382 ), #121, .T. ) ;
#153 = ADVANCED_FACE ( 'NONE', ( #383 ), #118, .T. ) ;
#154 = ADVANCED_FACE ( 'NONE', ( #67 ), #117, .T. ) ;
#155 = ADVANCED_FACE ( 'NONE', ( #83 ), #3, .F. ) ;
#156 = ADVANCED_FACE ( 'NONE', ( #52 ), #115, .T. ) ;
#157 = ADVANCED_FACE ( 'NONE', ( #36 ), #116, .T. ) ;
#158 = ADVANCED_FACE ( 'NONE', ( #45 ), #55, .T. ) ;
#159 = ADVANCED_FACE ( 'NONE', ( #44 ), #113, .T. ) ;
#160 = ADVANCED_FACE ( 'NONE', ( #88 ), #85, .T. ) ;
#161 = ADVANCED_FACE ( 'NONE', ( #53 ), #112, .T. ) ;
#162 = ADVANCED_FACE ( 'NONE', ( #82, #80 ), #218, .F. ) ;
#163 = ADVANCED_FACE ( 'NONE', ( #79 ), #111, .F. ) ;
#164 = ADVANCED_FACE ( 'NONE', ( #84 ), #109, .F. ) ;
#165 = ADVANCED_FACE ( 'NONE', ( #74 ), #66, .T. ) ;
#166 = ADVANCED_FACE ( 'NONE', ( #77 ), #63, .T. ) ;
#167 = ADVANCED_FACE ( 'NONE', ( #65 ), #108, .F. ) ;
#168 = EDGE_CURVE ( 'NONE', #473, #477, #114, .T. ) ;
#169 = EDGE_CURVE ( 'NONE', #560, #561, #110, .T. ) ;
#170 = EDGE_CURVE ( 'NONE', #478, #479, #107, .T. ) ;
#171 = EDGE_CURVE ( 'NONE', #559, #558, #106, .T. ) ;
#172 = EDGE_CURVE ( 'NONE', #556, #483, #105, .T. ) ;
#173 = EDGE_CURVE ( 'NONE', #550, #551, #104, .T. ) ;
#174 = EDGE_CURVE ( 'NONE', #548, #549, #103, .T. ) ;
#175 = EDGE_CURVE ( 'NONE', #546, #547, #102, .T. ) ;
#176 = EDGE_CURVE ( 'NONE', #472, #476, #101, .T. ) ;
#177 = EDGE_CURVE ( 'NONE', #543, #544, #100, .T. ) ;
#178 = EDGE_CURVE ( 'NONE', #543, #472, #268, .T. ) ;
#179 = EDGE_CURVE ( 'NONE', #544, #543, #99, .T. ) ;
#180 = EDGE_CURVE ( 'NONE', #544, #476, #274, .T. ) ;
#181 = EDGE_CURVE ( 'NONE', #545, #547, #277, .T. ) ;
#182 = EDGE_CURVE ( 'NONE', #545, #546, #280, .T. ) ;
#183 = EDGE_CURVE ( 'NONE', #547, #549, #283, .T. ) ;
#184 = EDGE_CURVE ( 'NONE', #547, #546, #98, .T. ) ;
#185 = EDGE_CURVE ( 'NONE', #546, #548, #289, .T. ) ;
#186 = EDGE_CURVE ( 'NONE', #549, #551, #292, .T. ) ;
#187 = EDGE_CURVE ( 'NONE', #558, #559, #97, .T. ) ;
#188 = EDGE_CURVE ( 'NONE', #478, #559, #298, .T. ) ;
#189 = EDGE_CURVE ( 'NONE', #556, #559, #301, .T. ) ;
#190 = EDGE_CURVE ( 'NONE', #483, #556, #96, .T. ) ;
#191 = EDGE_CURVE ( 'NONE', #548, #550, #307, .T. ) ;
#192 = EDGE_CURVE ( 'NONE', #483, #558, #310, .T. ) ;
#193 = EDGE_CURVE ( 'NONE', #550, #556, #313, .T. ) ;
#194 = EDGE_CURVE ( 'NONE', #551, #550, #95, .T. ) ;
#195 = EDGE_CURVE ( 'NONE', #551, #483, #319, .T. ) ;
#196 = COLOUR_RGB ( '',0.7921568627450980000, 0.8196078431372548800, 0.9333333333333333500 ) ;
#197 = UNCERTAINTY_MEASURE_WITH_UNIT (LENGTH_MEASURE( 1.000000000000000100E-005 ), #363, 'distance_accuracy_value', 'NONE');
#198 = UNCERTAINTY_MEASURE_WITH_UNIT (LENGTH_MEASURE( 1.000000000000000100E-005 ), #328, 'distance_accuracy_value', 'NONE');
#199 = ADVANCED_BREP_SHAPE_REPRESENTATION ( '99688-SI08-08+S9MT0802-090', ( #436, #18 ), #373 ) ;
#200 = UNCERTAINTY_MEASURE_WITH_UNIT (LENGTH_MEASURE( 1.000000000000000100E-005 ), #353, 'distance_accuracy_value', 'NONE');
#201 = DIRECTION ( 'NONE',  ( -8.745141363201125100E-016, 1.000000000000000000, -0.0000000000000000000 ) ) ;
#202 = DIRECTION ( 'NONE',  ( -1.000000000000000000, -8.332838307662218800E-016, 0.0000000000000000000 ) ) ;
#203 = CARTESIAN_POINT ( 'NONE',  ( 5.182922763272616900E-013, 0.4618802153517481700, 0.0000000000000000000 ) ) ;
#204 = DIRECTION ( 'NONE',  ( -8.745141363201125100E-016, 1.000000000000000000, -0.0000000000000000000 ) ) ;
#205 = DIRECTION ( 'NONE',  ( -1.000000000000000000, -8.809142651449679500E-016, 0.0000000000000000000 ) ) ;
#206 = CARTESIAN_POINT ( 'NONE',  ( 4.618527782440651200E-013, 65.00000000000105200, 0.0000000000000000000 ) ) ;
#207 = DIRECTION ( 'NONE',  ( -8.745141363201125100E-016, 1.000000000000000000, -0.0000000000000000000 ) ) ;
#208 = DIRECTION ( 'NONE',  ( -1.000000000000000000, 0.0000000000000000000, 0.0000000000000000000 ) ) ;
#209 = CARTESIAN_POINT ( 'NONE',  ( 5.117623769835082200E-013, 7.928768482282161600, 0.0000000000000000000 ) ) ;
#210 = DIRECTION ( 'NONE',  ( -8.745141363201125100E-016, 1.000000000000000000, -0.0000000000000000000 ) ) ;
#211 = DIRECTION ( 'NONE',  ( -1.000000000000000000, -8.673617379890521900E-016, 0.0000000000000000000 ) ) ;
#212 = CARTESIAN_POINT ( 'NONE',  ( 4.618527782440651200E-013, 65.00000000000105200, 0.0000000000000000000 ) ) ;
#213 = DIRECTION ( 'NONE',  ( -8.745141363201125100E-016, 1.000000000000000000, -0.0000000000000000000 ) ) ;
#214 = DIRECTION ( 'NONE',  ( -1.000000000000000000, 0.0000000000000000000, 0.0000000000000000000 ) ) ;
#215 = CARTESIAN_POINT ( 'NONE',  ( 4.934052482824948600E-013, 28.92000000000102100, 0.0000000000000000000 ) ) ;
#216 = DIRECTION ( 'NONE',  ( 8.745141363201125100E-016, -1.000000000000000000, 0.0000000000000000000 ) ) ;
#217 = DIRECTION ( 'NONE',  ( 1.000000000000000000, 6.608470384673518500E-016, 0.0000000000000000000 ) ) ;
#218 = PLANE ( 'NONE',  #76 ) ;
#219 = CARTESIAN_POINT ( 'NONE',  ( 4.479999999998092600, 29.00000000000104400, 0.0000000000000000000 ) ) ;
#220 = DIRECTION ( 'NONE',  ( 8.745141363201125100E-016, -1.000000000000000000, 0.0000000000000000000 ) ) ;
#221 = DIRECTION ( 'NONE',  ( 1.000000000000000000, 8.745141363201125100E-016, 0.0000000000000000000 ) ) ;
#222 = CARTESIAN_POINT ( 'NONE',  ( 4.933352871515892500E-013, 29.00000000000100500, 0.0000000000000000000 ) ) ;
#223 = DIRECTION ( 'NONE',  ( -8.745141363201125100E-016, 1.000000000000000000, -0.0000000000000000000 ) ) ;
#224 = DIRECTION ( 'NONE',  ( -1.000000000000000000, -7.744301232043468100E-016, 0.0000000000000000000 ) ) ;
#225 = CARTESIAN_POINT ( 'NONE',  ( 4.926614671774132100E-013, 29.00000000000102300, 0.0000000000000000000 ) ) ;
#226 = DIRECTION ( 'NONE',  ( -8.745141363201125100E-016, 1.000000000000000000, -0.0000000000000000000 ) ) ;
#227 = DIRECTION ( 'NONE',  ( -1.000000000000000000, -8.745141363201126100E-016, 0.0000000000000000000 ) ) ;
#228 = CARTESIAN_POINT ( 'NONE',  ( 4.618527782440651200E-013, 65.00000000000105200, 0.0000000000000000000 ) ) ;
#229 = DIRECTION ( 'NONE',  ( -8.745141363201125100E-016, 1.000000000000000000, -0.0000000000000000000 ) ) ;
#230 = DIRECTION ( 'NONE',  ( -1.000000000000000000, 0.0000000000000000000, 0.0000000000000000000 ) ) ;
#231 = CARTESIAN_POINT ( 'NONE',  ( 4.618527782440651200E-013, 65.00000000000105200, 0.0000000000000000000 ) ) ;
#232 = DIRECTION ( 'NONE',  ( -8.745141363201125100E-016, 1.000000000000000000, -0.0000000000000000000 ) ) ;
#233 = DIRECTION ( 'NONE',  ( -1.000000000000000000, 0.0000000000000000000, 0.0000000000000000000 ) ) ;
#234 = CARTESIAN_POINT ( 'NONE',  ( 4.926614671774132100E-013, 29.00000000000102300, 0.0000000000000000000 ) ) ;
#235 = DIRECTION ( 'NONE',  ( -8.745141363201125100E-016, 1.000000000000000000, -0.0000000000000000000 ) ) ;
#236 = DIRECTION ( 'NONE',  ( -1.000000000000000000, -8.745141363201126100E-016, 0.0000000000000000000 ) ) ;
#237 = CARTESIAN_POINT ( 'NONE',  ( 4.934564633848728000E-013, 28.86143593539549500, 0.0000000000000000000 ) ) ;
#238 = DIRECTION ( 'NONE',  ( -8.745141363201125100E-016, 1.000000000000000000, -0.0000000000000000000 ) ) ;
#239 = DIRECTION ( 'NONE',  ( -1.000000000000000000, -8.182657905555704300E-016, 0.0000000000000000000 ) ) ;
#240 = CARTESIAN_POINT ( 'NONE',  ( 4.933352871515892500E-013, 29.00000000000100500, 0.0000000000000000000 ) ) ;
#241 = DIRECTION ( 'NONE',  ( -8.745141363201125100E-016, 1.000000000000000000, -0.0000000000000000000 ) ) ;
#242 = DIRECTION ( 'NONE',  ( -1.000000000000000000, -7.744301232043467100E-016, 0.0000000000000000000 ) ) ;
#243 = CARTESIAN_POINT ( 'NONE',  ( 4.933352871515891500E-013, 29.00000000000107300, 0.0000000000000000000 ) ) ;
#244 = DIRECTION ( 'NONE',  ( -8.745141363201125100E-016, 1.000000000000000000, -0.0000000000000000000 ) ) ;
#245 = DIRECTION ( 'NONE',  ( -1.000000000000000000, -6.710729114030173700E-016, 0.0000000000000000000 ) ) ;
#246 = CARTESIAN_POINT ( 'NONE',  ( 4.934052482824948600E-013, 28.92000000000102100, 0.0000000000000000000 ) ) ;
#247 = DIRECTION ( 'NONE',  ( -8.745141363201125100E-016, 1.000000000000000000, -0.0000000000000000000 ) ) ;
#248 = DIRECTION ( 'NONE',  ( -1.000000000000000000, -6.608470384673517500E-016, 0.0000000000000000000 ) ) ;
#249 = CARTESIAN_POINT ( 'NONE',  ( 5.087435082471182500E-013, 11.38082101180810900, 0.0000000000000000000 ) ) ;
#250 = DIRECTION ( 'NONE',  ( -8.745141363201125100E-016, 1.000000000000000000, -0.0000000000000000000 ) ) ;
#251 = DIRECTION ( 'NONE',  ( -1.000000000000000000, -9.912705577010279200E-016, 0.0000000000000000000 ) ) ;
#252 = CARTESIAN_POINT ( 'NONE',  ( 5.117623769835082200E-013, 7.928768482282161600, 0.0000000000000000000 ) ) ;
#253 = DIRECTION ( 'NONE',  ( -8.745141363201125100E-016, 1.000000000000000000, -0.0000000000000000000 ) ) ;
#254 = DIRECTION ( 'NONE',  ( -1.000000000000000000, -8.673617379890521900E-016, 0.0000000000000000000 ) ) ;
#255 = CARTESIAN_POINT ( 'NONE',  ( 5.154938310910365700E-013, 3.661880215352623800, 0.0000000000000000000 ) ) ;
#256 = DIRECTION ( 'NONE',  ( -8.745141363201125100E-016, 1.000000000000000000, -0.0000000000000000000 ) ) ;
#257 = DIRECTION ( 'NONE',  ( -1.000000000000000000, -8.673617379885399200E-016, 0.0000000000000000000 ) ) ;
#258 = CARTESIAN_POINT ( 'NONE',  ( 5.182922763272616900E-013, 0.4618802153517481700, 0.0000000000000000000 ) ) ;
#259 = DIRECTION ( 'NONE',  ( -8.745141363201125100E-016, 1.000000000000000000, -0.0000000000000000000 ) ) ;
#260 = DIRECTION ( 'NONE',  ( -1.000000000000000000, -8.809142651449680500E-016, 0.0000000000000000000 ) ) ;
#261 = CARTESIAN_POINT ( 'NONE',  ( 4.620276810713291700E-013, 64.80000000000106300, 0.0000000000000000000 ) ) ;
#262 = DIRECTION ( 'NONE',  ( -8.745141363201125100E-016, 1.000000000000000000, -0.0000000000000000000 ) ) ;
#263 = DIRECTION ( 'NONE',  ( -1.000000000000000000, 0.0000000000000000000, 0.0000000000000000000 ) ) ;
#264 = CARTESIAN_POINT ( 'NONE',  ( 4.618527782440651200E-013, 65.00000000000106600, 0.0000000000000000000 ) ) ;
#265 = DIRECTION ( 'NONE',  ( -8.745141363201125100E-016, 1.000000000000000000, -0.0000000000000000000 ) ) ;
#266 = DIRECTION ( 'NONE',  ( -1.000000000000000000, 0.0000000000000000000, 0.0000000000000000000 ) ) ;
#267 = CARTESIAN_POINT ( 'NONE',  ( 4.618527782440651200E-013, 65.00000000000106600, 0.0000000000000000000 ) ) ;
#268 = LINE ( 'NONE', #269, #43 ) ;
#269 = CARTESIAN_POINT ( 'NONE',  ( 3.999999999998067800, 64.80000000000106300, 0.0000000000000000000 ) ) ;
#270 = DIRECTION ( 'NONE',  ( 0.7071067811865428000, -0.7071067811865522400, 0.0000000000000000000 ) ) ;
#271 = DIRECTION ( 'NONE',  ( -8.745141363201125100E-016, 1.000000000000000000, -0.0000000000000000000 ) ) ;
#272 = DIRECTION ( 'NONE',  ( -1.000000000000000000, 0.0000000000000000000, 0.0000000000000000000 ) ) ;
#273 = CARTESIAN_POINT ( 'NONE',  ( 5.182922763272616900E-013, 0.4618802153517481700, 0.0000000000000000000 ) ) ;
#274 = LINE ( 'NONE', #275, #41 ) ;
#275 = CARTESIAN_POINT ( 'NONE',  ( -3.999999999997143200, 64.80000000000106300, 4.898587196586480200E-016 ) ) ;
#276 = DIRECTION ( 'NONE',  ( -0.7071067811865414700, -0.7071067811865536800, 8.659560562354868800E-017 ) ) ;
#277 = LINE ( 'NONE', #278, #40 ) ;
#278 = CARTESIAN_POINT ( 'NONE',  ( 5.118128143521970600E-013, 3.053113317719180500E-013, 0.0000000000000000000 ) ) ;
#279 = DIRECTION ( 'NONE',  ( -0.8660254037844363800, 0.5000000000000041100, 0.0000000000000000000 ) ) ;
#280 = LINE ( 'NONE', #281, #38 ) ;
#281 = CARTESIAN_POINT ( 'NONE',  ( 5.255795798575491100E-013, 3.053113317719180500E-013, 8.429712655370702200E-031 ) ) ;
#282 = DIRECTION ( 'NONE',  ( 0.8660254037844352700, 0.5000000000000056600, 1.060575238724903300E-016 ) ) ;
#283 = LINE ( 'NONE', #284, #37 ) ;
#284 = CARTESIAN_POINT ( 'NONE',  ( -0.7999999999990317100, 0.4618802153517474500, 0.0000000000000000000 ) ) ;
#285 = DIRECTION ( 'NONE',  ( -0.7071067811864316700, 0.7071067811866633700, 0.0000000000000000000 ) ) ;
#286 = DIRECTION ( 'NONE',  ( -8.745141363201125100E-016, 1.000000000000000000, -0.0000000000000000000 ) ) ;
#287 = DIRECTION ( 'NONE',  ( -1.000000000000000000, -8.809142651449680500E-016, 0.0000000000000000000 ) ) ;
#288 = CARTESIAN_POINT ( 'NONE',  ( 4.934052482824948600E-013, 28.92000000000102100, 0.0000000000000000000 ) ) ;
#289 = LINE ( 'NONE', #290, #34 ) ;
#290 = CARTESIAN_POINT ( 'NONE',  ( 0.8000000000000682100, 0.4618802153517488900, 9.797174393173314000E-017 ) ) ;
#291 = DIRECTION ( 'NONE',  ( 0.7071067811864303300, 0.7071067811866647000, 8.659560562353505500E-017 ) ) ;
#292 = LINE ( 'NONE', #293, #33 ) ;
#293 = CARTESIAN_POINT ( 'NONE',  ( -3.999999999997728500, 65.00000000000105200, 0.0000000000000000000 ) ) ;
#294 = DIRECTION ( 'NONE',  ( -8.745141363201125100E-016, 1.000000000000000000, -0.0000000000000000000 ) ) ;
#295 = DIRECTION ( 'NONE',  ( -8.745141363201125100E-016, 1.000000000000000000, -0.0000000000000000000 ) ) ;
#296 = DIRECTION ( 'NONE',  ( -1.000000000000000000, -6.608470384673517500E-016, 0.0000000000000000000 ) ) ;
#297 = CARTESIAN_POINT ( 'NONE',  ( 5.087435082471182500E-013, 11.38082101180810900, 0.0000000000000000000 ) ) ;
#298 = LINE ( 'NONE', #299, #31 ) ;
#299 = CARTESIAN_POINT ( 'NONE',  ( 5.250000000000518700, 28.92000000000102500, 0.0000000000000000000 ) ) ;
#300 = DIRECTION ( 'NONE',  ( 0.7071067811863411800, -0.7071067811867538500, 0.0000000000000000000 ) ) ;
#301 = LINE ( 'NONE', #302, #29 ) ;
#302 = CARTESIAN_POINT ( 'NONE',  ( 5.250000000000485800, 65.00000000000105200, 6.429395695523634700E-016 ) ) ;
#303 = DIRECTION ( 'NONE',  ( -8.745141363201125100E-016, 1.000000000000000000, -0.0000000000000000000 ) ) ;
#304 = DIRECTION ( 'NONE',  ( -8.745141363201125100E-016, 1.000000000000000000, -0.0000000000000000000 ) ) ;
#305 = DIRECTION ( 'NONE',  ( -1.000000000000000000, -9.912705577010279200E-016, 0.0000000000000000000 ) ) ;
#306 = CARTESIAN_POINT ( 'NONE',  ( 5.117623769835082200E-013, 7.928768482282161600, 0.0000000000000000000 ) ) ;
#307 = LINE ( 'NONE', #308, #28 ) ;
#308 = CARTESIAN_POINT ( 'NONE',  ( 3.999999999998651300, 65.00000000000105200, 4.898587196587196100E-016 ) ) ;
#309 = DIRECTION ( 'NONE',  ( -8.745141363201125100E-016, 1.000000000000000000, -0.0000000000000000000 ) ) ;
#310 = LINE ( 'NONE', #311, #27 ) ;
#311 = CARTESIAN_POINT ( 'NONE',  ( -5.249999999999563000, 65.00000000000105200, 0.0000000000000000000 ) ) ;
#312 = DIRECTION ( 'NONE',  ( -8.745141363201125100E-016, 1.000000000000000000, -0.0000000000000000000 ) ) ;
#313 = LINE ( 'NONE', #314, #25 ) ;
#314 = CARTESIAN_POINT ( 'NONE',  ( 3.999999999997520200, 7.928768482282165100, 4.898587196585749600E-016 ) ) ;
#315 = DIRECTION ( 'NONE',  ( 0.3404697182690382100, 0.9402554817398309800, 4.169551506847798200E-017 ) ) ;
#316 = DIRECTION ( 'NONE',  ( -8.745141363201125100E-016, 1.000000000000000000, -0.0000000000000000000 ) ) ;
#317 = DIRECTION ( 'NONE',  ( -1.000000000000000000, -8.673617379890521900E-016, 0.0000000000000000000 ) ) ;
#318 = CARTESIAN_POINT ( 'NONE',  ( 3.999999999998064200, 64.80000000000106300, 0.0000000000000000000 ) ) ;
#319 = LINE ( 'NONE', #320, #23 ) ;
#320 = CARTESIAN_POINT ( 'NONE',  ( -3.999999999996497000, 7.928768482282158000, 0.0000000000000000000 ) ) ;
#321 = DIRECTION ( 'NONE',  ( -0.3404697182690399300, 0.9402554817398303100, 0.0000000000000000000 ) ) ;
#322 = FILL_AREA_STYLE_COLOUR ( '', #94 ) ;
#323 = FILL_AREA_STYLE ('',( #322 ) ) ;
#324 = SURFACE_STYLE_FILL_AREA ( #323 ) ;
#325 = SURFACE_SIDE_STYLE ('',( #324 ) ) ;
#326 = SURFACE_STYLE_USAGE ( .BOTH. , #325 ) ;
#327 = PRESENTATION_STYLE_ASSIGNMENT (( #326 ) ) ;
#328 =( LENGTH_UNIT ( ) NAMED_UNIT ( * ) SI_UNIT ( .MILLI., .METRE. ) );
#329 =( NAMED_UNIT ( * ) PLANE_ANGLE_UNIT ( ) SI_UNIT ( $, .RADIAN. ) );
#330 =( NAMED_UNIT ( * ) SI_UNIT ( $, .STERADIAN. ) SOLID_ANGLE_UNIT ( ) );
#331 = CARTESIAN_POINT ( 'NONE',  ( -4.239999999997056800, 28.86143593539549100, 0.0000000000000000000 ) ) ;
#332 = CARTESIAN_POINT ( 'NONE',  ( 3.999999999998075300, 29.00000000000100900, 5.045544812484116000E-016 ) ) ;
#333 = CARTESIAN_POINT ( 'NONE',  ( -3.999999999997088600, 29.00000000000100200, 0.0000000000000000000 ) ) ;
#334 = CARTESIAN_POINT ( 'NONE',  ( -3.999999999997146300, 64.80000000000106300, 4.898587196586484200E-016 ) ) ;
#335 = CARTESIAN_POINT ( 'NONE',  ( 4.239999999998043600, 28.86143593539549800, 5.339460044279490900E-016 ) ) ;
#336 = CARTESIAN_POINT ( 'NONE',  ( 5.170000000000514200, 29.00000000000107600, 0.0000000000000000000 ) ) ;
#337 = CARTESIAN_POINT ( 'NONE',  ( -5.169999999999527400, 29.00000000000106900, 6.380409823557739700E-016 ) ) ;
#338 = CARTESIAN_POINT ( 'NONE',  ( -5.249999999999514200, 11.38082101180810400, 0.0000000000000000000 ) ) ;
#339 = CARTESIAN_POINT ( 'NONE',  ( 3.799999999998064500, 65.00000000000106600, 0.0000000000000000000 ) ) ;
#340 = CARTESIAN_POINT ( 'NONE',  ( -3.799999999997140800, 65.00000000000106600, 4.776122516671740800E-016 ) ) ;
#341 = CARTESIAN_POINT ( 'NONE',  ( 5.186961971048731400E-013, 2.984279490192420800E-013, 0.0000000000000000000 ) ) ;
#342 = CARTESIAN_POINT ( 'NONE',  ( 0.8000000000000682100, 0.4618802153517488900, 9.797174393173315200E-017 ) ) ;
#343 = CARTESIAN_POINT ( 'NONE',  ( -0.7999999999990318200, 0.4618802153517474500, 0.0000000000000000000 ) ) ;
#344 = CARTESIAN_POINT ( 'NONE',  ( 3.999999999999885400, 3.661880215352627800, 4.898587196588641700E-016 ) ) ;
#345 = CARTESIAN_POINT ( 'NONE',  ( -3.999999999998856000, 3.661880215352620200, 0.0000000000000000000 ) ) ;
#346 = CARTESIAN_POINT ( 'NONE',  ( 3.999999999997520200, 7.928768482282165100, 4.898587196586472300E-016 ) ) ;
#347 = CARTESIAN_POINT ( 'NONE',  ( -3.999999999996497000, 7.928768482282158000, 0.0000000000000000000 ) ) ;
#348 = CARTESIAN_POINT ( 'NONE',  ( 5.250000000000532000, 11.38082101180811300, 6.429395695523633700E-016 ) ) ;
#349 = CARTESIAN_POINT ( 'NONE',  ( -5.249999999999532800, 28.92000000000101800, 0.0000000000000000000 ) ) ;
#350 = CARTESIAN_POINT ( 'NONE',  ( 5.250000000000519600, 28.92000000000102500, 6.429395695523635700E-016 ) ) ;
#351 = CARTESIAN_POINT ( 'NONE',  ( -4.479999999997104100, 29.00000000000100200, 0.0000000000000000000 ) ) ;
#352 = CARTESIAN_POINT ( 'NONE',  ( 4.479999999998093500, 29.00000000000100900, 5.486417660177202600E-016 ) ) ;
#353 =( LENGTH_UNIT ( ) NAMED_UNIT ( * ) SI_UNIT ( .MILLI., .METRE. ) );
#354 =( NAMED_UNIT ( * ) PLANE_ANGLE_UNIT ( ) SI_UNIT ( $, .RADIAN. ) );
#355 =( NAMED_UNIT ( * ) SI_UNIT ( $, .STERADIAN. ) SOLID_ANGLE_UNIT ( ) );
#356 = APPLICATION_PROTOCOL_DEFINITION ( 'draft international standard', 'automotive_design', 1998, #89 ) ;
#357 = FILL_AREA_STYLE_COLOUR ( '', #196 ) ;
#358 = FILL_AREA_STYLE ('',( #357 ) ) ;
#359 = SURFACE_STYLE_FILL_AREA ( #358 ) ;
#360 = SURFACE_SIDE_STYLE ('',( #359 ) ) ;
#361 = SURFACE_STYLE_USAGE ( .BOTH. , #360 ) ;
#362 = PRESENTATION_STYLE_ASSIGNMENT (( #361 ) ) ;
#363 =( LENGTH_UNIT ( ) NAMED_UNIT ( * ) SI_UNIT ( .MILLI., .METRE. ) );
#364 =( NAMED_UNIT ( * ) PLANE_ANGLE_UNIT ( ) SI_UNIT ( $, .RADIAN. ) );
#365 =( NAMED_UNIT ( * ) SI_UNIT ( $, .STERADIAN. ) SOLID_ANGLE_UNIT ( ) );
#366 = CARTESIAN_POINT ( 'NONE',  ( 0.0000000000000000000, 0.0000000000000000000, 0.0000000000000000000 ) ) ;
#367 = DIRECTION ( 'NONE',  ( 0.0000000000000000000, 0.0000000000000000000, 1.000000000000000000 ) ) ;
#368 = DIRECTION ( 'NONE',  ( 1.000000000000000000, 0.0000000000000000000, 0.0000000000000000000 ) ) ;
#369 = SHAPE_DEFINITION_REPRESENTATION ( #434, #199 ) ;
#370 = PRODUCT_CONTEXT ( 'NONE', #89, 'mechanical' ) ;
#371 = APPLICATION_PROTOCOL_DEFINITION ( 'draft international standard', 'automotive_design', 1998, #90 ) ;
#372 =( GEOMETRIC_REPRESENTATION_CONTEXT ( 3 ) GLOBAL_UNCERTAINTY_ASSIGNED_CONTEXT ( ( #198 ) ) GLOBAL_UNIT_ASSIGNED_CONTEXT ( ( #328, #329, #330 ) ) REPRESENTATION_CONTEXT ( 'NONE', 'WORKASPACE' ) );
#373 =( GEOMETRIC_REPRESENTATION_CONTEXT ( 3 ) GLOBAL_UNCERTAINTY_ASSIGNED_CONTEXT ( ( #200 ) ) GLOBAL_UNIT_ASSIGNED_CONTEXT ( ( #353, #354, #355 ) ) REPRESENTATION_CONTEXT ( 'NONE', 'WORKASPACE' ) );
#374 =( GEOMETRIC_REPRESENTATION_CONTEXT ( 3 ) GLOBAL_UNCERTAINTY_ASSIGNED_CONTEXT ( ( #197 ) ) GLOBAL_UNIT_ASSIGNED_CONTEXT ( ( #363, #364, #365 ) ) REPRESENTATION_CONTEXT ( 'NONE', 'WORKASPACE' ) );
#375 = FACE_OUTER_BOUND ( 'NONE', #439, .T. ) ;
#376 = AXIS2_PLACEMENT_3D ( 'NONE', #15, #14, #13 ) ;
#377 = CLOSED_SHELL ( 'NONE', ( #166, #167, #146, #147, #148, #149, #150, #151, #152, #153, #154, #155, #156, #157, #158, #159, #160, #161, #162, #163, #164, #165 ) ) ;
#378 = AXIS2_PLACEMENT_3D ( 'NONE', #596, #594, #593 ) ;
#379 = AXIS2_PLACEMENT_3D ( 'NONE', #592, #589, #590 ) ;
#380 = AXIS2_PLACEMENT_3D ( 'NONE', #588, #582, #581 ) ;
#381 = AXIS2_PLACEMENT_3D ( 'NONE', #591, #586, #587 ) ;
#382 = FACE_OUTER_BOUND ( 'NONE', #442, .T. ) ;
#383 = FACE_OUTER_BOUND ( 'NONE', #443, .T. ) ;
#384 = CYLINDRICAL_SURFACE ( 'NONE', #385, 3.999999999998189900 ) ;
#385 = AXIS2_PLACEMENT_3D ( 'NONE', #409, #408, #407 ) ;
#386 = VECTOR ( 'NONE', #571, 1000.000000000000000 ) ;
#387 = AXIS2_PLACEMENT_3D ( 'NONE', #577, #570, #569 ) ;
#388 = AXIS2_PLACEMENT_3D ( 'NONE', #412, #411, #410 ) ;
#389 = FACE_OUTER_BOUND ( 'NONE', #440, .T. ) ;
#390 = FACE_OUTER_BOUND ( 'NONE', #441, .T. ) ;
#391 = VECTOR ( 'NONE', #574, 1000.000000000000000 ) ;
#392 = CYLINDRICAL_SURFACE ( 'NONE', #393, 5.250000000000024900 ) ;
#393 = AXIS2_PLACEMENT_3D ( 'NONE', #415, #414, #413 ) ;
#394 = AXIS2_PLACEMENT_3D ( 'NONE', #418, #417, #416 ) ;
#395 = FACE_OUTER_BOUND ( 'NONE', #438, .T. ) ;
#396 = FACE_OUTER_BOUND ( 'NONE', #437, .T. ) ;
#397 = AXIS2_PLACEMENT_3D ( 'NONE', #424, #423, #422 ) ;
#398 = FACE_OUTER_BOUND ( 'NONE', #481, .T. ) ;
#399 = VECTOR ( 'NONE', #427, 1000.000000000000000 ) ;
#400 = AXIS2_PLACEMENT_3D ( 'NONE', #421, #420, #419 ) ;
#401 = VECTOR ( 'NONE', #430, 999.9999999999998900 ) ;
#402 = AXIS2_PLACEMENT_3D ( 'NONE', #585, #426, #425 ) ;
#403 = VECTOR ( 'NONE', #433, 1000.000000000000000 ) ;
#404 = AXIS2_PLACEMENT_3D ( 'NONE', #580, #579, #578 ) ;
#405 = AXIS2_PLACEMENT_3D ( 'NONE', #568, #567, #566 ) ;
#406 = DIRECTION ( 'NONE',  ( 8.745141363201125100E-016, -1.000000000000000000, 0.0000000000000000000 ) ) ;
#407 = DIRECTION ( 'NONE',  ( -1.000000000000000000, 0.0000000000000000000, 0.0000000000000000000 ) ) ;
#408 = DIRECTION ( 'NONE',  ( -8.745141363201125100E-016, 1.000000000000000000, -0.0000000000000000000 ) ) ;
#409 = CARTESIAN_POINT ( 'NONE',  ( 4.618527782440651200E-013, 65.00000000000105200, 0.0000000000000000000 ) ) ;
#410 = DIRECTION ( 'NONE',  ( -1.000000000000000000, -8.673617379890521900E-016, 0.0000000000000000000 ) ) ;
#411 = DIRECTION ( 'NONE',  ( -8.745141363201125100E-016, 1.000000000000000000, -0.0000000000000000000 ) ) ;
#412 = CARTESIAN_POINT ( 'NONE',  ( 5.117623769835082200E-013, 7.928768482282161600, 0.0000000000000000000 ) ) ;
#413 = DIRECTION ( 'NONE',  ( -1.000000000000000000, 0.0000000000000000000, 0.0000000000000000000 ) ) ;
#414 = DIRECTION ( 'NONE',  ( -8.745141363201125100E-016, 1.000000000000000000, -0.0000000000000000000 ) ) ;
#415 = CARTESIAN_POINT ( 'NONE',  ( 4.618527782440651200E-013, 65.00000000000105200, 0.0000000000000000000 ) ) ;
#416 = DIRECTION ( 'NONE',  ( 1.000000000000000000, 6.608470384673518500E-016, 0.0000000000000000000 ) ) ;
#417 = DIRECTION ( 'NONE',  ( 8.745141363201125100E-016, -1.000000000000000000, 0.0000000000000000000 ) ) ;
#418 = CARTESIAN_POINT ( 'NONE',  ( 4.934052482824948600E-013, 28.92000000000102100, 0.0000000000000000000 ) ) ;
#419 = DIRECTION ( 'NONE',  ( -1.000000000000000000, -7.744301232043468100E-016, 0.0000000000000000000 ) ) ;
#420 = DIRECTION ( 'NONE',  ( -8.745141363201125100E-016, 1.000000000000000000, -0.0000000000000000000 ) ) ;
#421 = CARTESIAN_POINT ( 'NONE',  ( 4.933352871515892500E-013, 29.00000000000100500, 0.0000000000000000000 ) ) ;
#422 = DIRECTION ( 'NONE',  ( -1.000000000000000000, -6.710729114030173700E-016, 0.0000000000000000000 ) ) ;
#423 = DIRECTION ( 'NONE',  ( -8.745141363201125100E-016, 1.000000000000000000, -0.0000000000000000000 ) ) ;
#424 = CARTESIAN_POINT ( 'NONE',  ( 4.933352871515891500E-013, 29.00000000000107300, 0.0000000000000000000 ) ) ;
#425 = DIRECTION ( 'NONE',  ( -1.000000000000000000, 0.0000000000000000000, 0.0000000000000000000 ) ) ;
#426 = DIRECTION ( 'NONE',  ( -8.745141363201125100E-016, 1.000000000000000000, -0.0000000000000000000 ) ) ;
#427 = DIRECTION ( 'NONE',  ( -8.745141363201125100E-016, 1.000000000000000000, -0.0000000000000000000 ) ) ;
#428 = CARTESIAN_POINT ( 'NONE',  ( -3.999999999997131600, 65.00000000000105200, 0.0000000000000000000 ) ) ;
#429 = LINE ( 'NONE', #428, #399 ) ;
#430 = DIRECTION ( 'NONE',  ( -0.7071067811863399600, -0.7071067811867551800, 8.659560562352398600E-017 ) ) ;
#431 = CARTESIAN_POINT ( 'NONE',  ( -5.249999999999531900, 28.92000000000101800, 6.429395695523635700E-016 ) ) ;
#432 = LINE ( 'NONE', #431, #401 ) ;
#433 = DIRECTION ( 'NONE',  ( -0.8660254037844850000, 0.4999999999999197300, 0.0000000000000000000 ) ) ;
#434 = PRODUCT_DEFINITION_SHAPE ( 'NONE', 'NONE',  #93 ) ;
#435 = PRODUCT_DEFINITION_CONTEXT ( 'detailed design', #90, 'design' ) ;
#436 = MANIFOLD_SOLID_BREP ( '±ÛÂà1', #377 ) ;
#437 = EDGE_LOOP ( 'NONE', ( #464, #467, #466, #552 ) ) ;
#438 = EDGE_LOOP ( 'NONE', ( #553, #555, #554, #562 ) ) ;
#439 = EDGE_LOOP ( 'NONE', ( #563, #565, #564, #557 ) ) ;
#440 = EDGE_LOOP ( 'NONE', ( #595, #541, #542, #540 ) ) ;
#441 = EDGE_LOOP ( 'NONE', ( #539, #537, #538, #536 ) ) ;
#442 = EDGE_LOOP ( 'NONE', ( #535, #533, #534 ) ) ;
#443 = EDGE_LOOP ( 'NONE', ( #532, #530, #531, #529 ) ) ;
#444 = EDGE_LOOP ( 'NONE', ( #527, #526, #528, #525 ) ) ;
#445 = EDGE_LOOP ( 'NONE', ( #524, #523 ) ) ;
#446 = EDGE_LOOP ( 'NONE', ( #522, #521, #520 ) ) ;
#447 = EDGE_LOOP ( 'NONE', ( #518, #517, #516, #519 ) ) ;
#448 = EDGE_LOOP ( 'NONE', ( #514, #513, #512, #515 ) ) ;
#449 = EDGE_LOOP ( 'NONE', ( #510, #509, #508, #511 ) ) ;
#450 = EDGE_LOOP ( 'NONE', ( #506, #505, #504, #507 ) ) ;
#451 = EDGE_LOOP ( 'NONE', ( #502, #501, #503, #499 ) ) ;
#452 = EDGE_LOOP ( 'NONE', ( #498, #496 ) ) ;
#453 = EDGE_LOOP ( 'NONE', ( #500, #495 ) ) ;
#454 = EDGE_LOOP ( 'NONE', ( #494, #493, #497, #491 ) ) ;
#455 = EDGE_LOOP ( 'NONE', ( #490, #489, #488, #492 ) ) ;
#456 = EDGE_LOOP ( 'NONE', ( #486, #485, #484, #487 ) ) ;
#457 = ORIENTED_EDGE ( 'NONE', *, *, #135, .T. ) ;
#458 = ORIENTED_EDGE ( 'NONE', *, *, #133, .T. ) ;
#459 = ORIENTED_EDGE ( 'NONE', *, *, #139, .F. ) ;
#460 = ORIENTED_EDGE ( 'NONE', *, *, #136, .T. ) ;
#461 = ORIENTED_EDGE ( 'NONE', *, *, #135, .F. ) ;
#462 = ORIENTED_EDGE ( 'NONE', *, *, #140, .T. ) ;
#463 = ORIENTED_EDGE ( 'NONE', *, *, #138, .T. ) ;
#464 = ORIENTED_EDGE ( 'NONE', *, *, #145, .F. ) ;
#465 = ORIENTED_EDGE ( 'NONE', *, *, #141, .F. ) ;
#466 = ORIENTED_EDGE ( 'NONE', *, *, #187, .T. ) ;
#467 = ORIENTED_EDGE ( 'NONE', *, *, #142, .T. ) ;
#468 = ORIENTED_EDGE ( 'NONE', *, *, #134, .F. ) ;
#469 = ORIENTED_EDGE ( 'NONE', *, *, #143, .F. ) ;
#470 = ORIENTED_EDGE ( 'NONE', *, *, #144, .F. ) ;
#471 = ORIENTED_EDGE ( 'NONE', *, *, #137, .T. ) ;
#472 = VERTEX_POINT ( 'NONE', #318 ) ;
#473 = VERTEX_POINT ( 'NONE', #331 ) ;
#474 = VERTEX_POINT ( 'NONE', #332 ) ;
#475 = VERTEX_POINT ( 'NONE', #333 ) ;
#476 = VERTEX_POINT ( 'NONE', #334 ) ;
#477 = VERTEX_POINT ( 'NONE', #335 ) ;
#478 = VERTEX_POINT ( 'NONE', #336 ) ;
#479 = VERTEX_POINT ( 'NONE', #337 ) ;
#480 = EDGE_LOOP ( 'NONE', ( #468, #458, #457, #459 ) ) ;
#481 = EDGE_LOOP ( 'NONE', ( #461, #463, #462, #465 ) ) ;
#482 = EDGE_LOOP ( 'NONE', ( #460, #471, #470, #469 ) ) ;
#483 = VERTEX_POINT ( 'NONE', #338 ) ;
#484 = ORIENTED_EDGE ( 'NONE', *, *, #143, .T. ) ;
#485 = ORIENTED_EDGE ( 'NONE', *, *, #134, .T. ) ;
#486 = ORIENTED_EDGE ( 'NONE', *, *, #137, .F. ) ;
#487 = ORIENTED_EDGE ( 'NONE', *, *, #176, .F. ) ;
#488 = ORIENTED_EDGE ( 'NONE', *, *, #139, .T. ) ;
#489 = ORIENTED_EDGE ( 'NONE', *, *, #136, .F. ) ;
#490 = ORIENTED_EDGE ( 'NONE', *, *, #133, .F. ) ;
#491 = ORIENTED_EDGE ( 'NONE', *, *, #169, .T. ) ;
#492 = ORIENTED_EDGE ( 'NONE', *, *, #168, .T. ) ;
#493 = ORIENTED_EDGE ( 'NONE', *, *, #168, .F. ) ;
#494 = ORIENTED_EDGE ( 'NONE', *, *, #138, .F. ) ;
#495 = ORIENTED_EDGE ( 'NONE', *, *, #145, .T. ) ;
#496 = ORIENTED_EDGE ( 'NONE', *, *, #140, .F. ) ;
#497 = ORIENTED_EDGE ( 'NONE', *, *, #141, .T. ) ;
#498 = ORIENTED_EDGE ( 'NONE', *, *, #169, .F. ) ;
#499 = ORIENTED_EDGE ( 'NONE', *, *, #171, .T. ) ;
#500 = ORIENTED_EDGE ( 'NONE', *, *, #170, .T. ) ;
#501 = ORIENTED_EDGE ( 'NONE', *, *, #170, .F. ) ;
#502 = ORIENTED_EDGE ( 'NONE', *, *, #142, .F. ) ;
#503 = ORIENTED_EDGE ( 'NONE', *, *, #188, .T. ) ;
#504 = ORIENTED_EDGE ( 'NONE', *, *, #192, .T. ) ;
#505 = ORIENTED_EDGE ( 'NONE', *, *, #172, .T. ) ;
#506 = ORIENTED_EDGE ( 'NONE', *, *, #189, .F. ) ;
#507 = ORIENTED_EDGE ( 'NONE', *, *, #171, .F. ) ;
#508 = ORIENTED_EDGE ( 'NONE', *, *, #195, .T. ) ;
#509 = ORIENTED_EDGE ( 'NONE', *, *, #173, .T. ) ;
#510 = ORIENTED_EDGE ( 'NONE', *, *, #193, .F. ) ;
#511 = ORIENTED_EDGE ( 'NONE', *, *, #172, .F. ) ;
#512 = ORIENTED_EDGE ( 'NONE', *, *, #186, .T. ) ;
#513 = ORIENTED_EDGE ( 'NONE', *, *, #174, .T. ) ;
#514 = ORIENTED_EDGE ( 'NONE', *, *, #191, .F. ) ;
#515 = ORIENTED_EDGE ( 'NONE', *, *, #173, .F. ) ;
#516 = ORIENTED_EDGE ( 'NONE', *, *, #183, .T. ) ;
#517 = ORIENTED_EDGE ( 'NONE', *, *, #175, .T. ) ;
#518 = ORIENTED_EDGE ( 'NONE', *, *, #185, .F. ) ;
#519 = ORIENTED_EDGE ( 'NONE', *, *, #174, .F. ) ;
#520 = ORIENTED_EDGE ( 'NONE', *, *, #175, .F. ) ;
#521 = ORIENTED_EDGE ( 'NONE', *, *, #181, .T. ) ;
#522 = ORIENTED_EDGE ( 'NONE', *, *, #182, .F. ) ;
#523 = ORIENTED_EDGE ( 'NONE', *, *, #179, .T. ) ;
#524 = ORIENTED_EDGE ( 'NONE', *, *, #177, .T. ) ;
#525 = ORIENTED_EDGE ( 'NONE', *, *, #176, .T. ) ;
#526 = ORIENTED_EDGE ( 'NONE', *, *, #177, .F. ) ;
#527 = ORIENTED_EDGE ( 'NONE', *, *, #180, .F. ) ;
#528 = ORIENTED_EDGE ( 'NONE', *, *, #178, .T. ) ;
#529 = ORIENTED_EDGE ( 'NONE', *, *, #178, .F. ) ;
#530 = ORIENTED_EDGE ( 'NONE', *, *, #180, .T. ) ;
#531 = ORIENTED_EDGE ( 'NONE', *, *, #144, .T. ) ;
#532 = ORIENTED_EDGE ( 'NONE', *, *, #179, .F. ) ;
#533 = ORIENTED_EDGE ( 'NONE', *, *, #182, .T. ) ;
#534 = ORIENTED_EDGE ( 'NONE', *, *, #184, .F. ) ;
#535 = ORIENTED_EDGE ( 'NONE', *, *, #181, .F. ) ;
#536 = ORIENTED_EDGE ( 'NONE', *, *, #183, .F. ) ;
#537 = ORIENTED_EDGE ( 'NONE', *, *, #185, .T. ) ;
#538 = ORIENTED_EDGE ( 'NONE', *, *, #132, .F. ) ;
#539 = ORIENTED_EDGE ( 'NONE', *, *, #184, .T. ) ;
#540 = ORIENTED_EDGE ( 'NONE', *, *, #186, .F. ) ;
#541 = ORIENTED_EDGE ( 'NONE', *, *, #191, .T. ) ;
#542 = ORIENTED_EDGE ( 'NONE', *, *, #194, .F. ) ;
#543 = VERTEX_POINT ( 'NONE', #339 ) ;
#544 = VERTEX_POINT ( 'NONE', #340 ) ;
#545 = VERTEX_POINT ( 'NONE', #341 ) ;
#546 = VERTEX_POINT ( 'NONE', #342 ) ;
#547 = VERTEX_POINT ( 'NONE', #343 ) ;
#548 = VERTEX_POINT ( 'NONE', #344 ) ;
#549 = VERTEX_POINT ( 'NONE', #345 ) ;
#550 = VERTEX_POINT ( 'NONE', #346 ) ;
#551 = VERTEX_POINT ( 'NONE', #347 ) ;
#552 = ORIENTED_EDGE ( 'NONE', *, *, #188, .F. ) ;
#553 = ORIENTED_EDGE ( 'NONE', *, *, #190, .T. ) ;
#554 = ORIENTED_EDGE ( 'NONE', *, *, #187, .F. ) ;
#555 = ORIENTED_EDGE ( 'NONE', *, *, #189, .T. ) ;
#556 = VERTEX_POINT ( 'NONE', #348 ) ;
#557 = ORIENTED_EDGE ( 'NONE', *, *, #195, .F. ) ;
#558 = VERTEX_POINT ( 'NONE', #349 ) ;
#559 = VERTEX_POINT ( 'NONE', #350 ) ;
#560 = VERTEX_POINT ( 'NONE', #351 ) ;
#561 = VERTEX_POINT ( 'NONE', #352 ) ;
#562 = ORIENTED_EDGE ( 'NONE', *, *, #192, .F. ) ;
#563 = ORIENTED_EDGE ( 'NONE', *, *, #194, .T. ) ;
#564 = ORIENTED_EDGE ( 'NONE', *, *, #190, .F. ) ;
#565 = ORIENTED_EDGE ( 'NONE', *, *, #193, .T. ) ;
#566 = DIRECTION ( 'NONE',  ( -1.000000000000000000, -7.744301232043467100E-016, 0.0000000000000000000 ) ) ;
#567 = DIRECTION ( 'NONE',  ( -8.745141363201125100E-016, 1.000000000000000000, -0.0000000000000000000 ) ) ;
#568 = CARTESIAN_POINT ( 'NONE',  ( 4.933352871515892500E-013, 29.00000000000100500, 0.0000000000000000000 ) ) ;
#569 = DIRECTION ( 'NONE',  ( -1.000000000000000000, 0.0000000000000000000, 0.0000000000000000000 ) ) ;
#570 = DIRECTION ( 'NONE',  ( 0.0000000000000000000, -0.0000000000000000000, -1.000000000000000000 ) ) ;
#571 = DIRECTION ( 'NONE',  ( 0.8660254037844841200, 0.4999999999999212900, 1.060575238724963100E-016 ) ) ;
#572 = CARTESIAN_POINT ( 'NONE',  ( 4.479999999998092600, 29.00000000000100900, 5.486417660177201600E-016 ) ) ;
#573 = LINE ( 'NONE', #572, #386 ) ;
#574 = DIRECTION ( 'NONE',  ( -8.745141363201125100E-016, 1.000000000000000000, -0.0000000000000000000 ) ) ;
#575 = CARTESIAN_POINT ( 'NONE',  ( 3.999999999998054400, 65.00000000000105200, 4.898587196586464500E-016 ) ) ;
#576 = LINE ( 'NONE', #575, #391 ) ;
#577 = CARTESIAN_POINT ( 'NONE',  ( -4.159999999997089600, 29.00000000000102300, 0.0000000000000000000 ) ) ;
#578 = DIRECTION ( 'NONE',  ( -1.000000000000000000, -8.673617379889278400E-016, 0.0000000000000000000 ) ) ;
#579 = DIRECTION ( 'NONE',  ( -8.745141363201125100E-016, 1.000000000000000000, -0.0000000000000000000 ) ) ;
#580 = CARTESIAN_POINT ( 'NONE',  ( 4.933352871515892500E-013, 29.00000000000100500, 0.0000000000000000000 ) ) ;
#581 = DIRECTION ( 'NONE',  ( -1.000000000000000000, -8.182657905555704300E-016, 0.0000000000000000000 ) ) ;
#582 = DIRECTION ( 'NONE',  ( -8.745141363201125100E-016, 1.000000000000000000, -0.0000000000000000000 ) ) ;
#583 = CARTESIAN_POINT ( 'NONE',  ( -4.479999999997105000, 29.00000000000100200, 0.0000000000000000000 ) ) ;
#584 = LINE ( 'NONE', #583, #403 ) ;
#585 = CARTESIAN_POINT ( 'NONE',  ( 4.620276810713291700E-013, 64.80000000000106300, 0.0000000000000000000 ) ) ;
#586 = DIRECTION ( 'NONE',  ( -8.745141363201125100E-016, 1.000000000000000000, -0.0000000000000000000 ) ) ;
#587 = DIRECTION ( 'NONE',  ( -1.000000000000000000, -8.673617379889278400E-016, 0.0000000000000000000 ) ) ;
#588 = CARTESIAN_POINT ( 'NONE',  ( 4.934564633848728000E-013, 28.86143593539549500, 0.0000000000000000000 ) ) ;
#589 = DIRECTION ( 'NONE',  ( -1.224646799147353200E-016, -1.070970937853538000E-031, 1.000000000000000000 ) ) ;
#590 = DIRECTION ( 'NONE',  ( 1.000000000000000000, 0.0000000000000000000, 1.224646799147355400E-016 ) ) ;
#591 = CARTESIAN_POINT ( 'NONE',  ( 4.933352871515892500E-013, 29.00000000000100500, 0.0000000000000000000 ) ) ;
#592 = CARTESIAN_POINT ( 'NONE',  ( 4.159999999998074600, 29.00000000000102700, 5.094530684450028700E-016 ) ) ;
#593 = DIRECTION ( 'NONE',  ( -1.000000000000000000, -8.673617379885399200E-016, 0.0000000000000000000 ) ) ;
#594 = DIRECTION ( 'NONE',  ( -8.745141363201125100E-016, 1.000000000000000000, -0.0000000000000000000 ) ) ;
#595 = ORIENTED_EDGE ( 'NONE', *, *, #132, .T. ) ;
#596 = CARTESIAN_POINT ( 'NONE',  ( 5.154938310910365700E-013, 3.661880215352623800, 0.0000000000000000000 ) ) ;
ENDSEC;
END-ISO-10303-21;
