ISO-10303-21;
HEADER;
FILE_DESCRIPTION (( 'STEP AP214' ),
    '1' );
FILE_NAME ('99688-SI06-06+S9MT06T1-120.STEP',
    '2023-07-20T00:52:58',
    ( '' ),
    ( '' ),
    'SwSTEP 2.0',
    'SolidWorks 2020',
    '' );
FILE_SCHEMA (( 'AUTOMOTIVE_DESIGN' ));
ENDSEC;

DATA;
#1 = AXIS2_PLACEMENT_3D ( 'NONE', #286, #66, #146 ) ;
#2 = CARTESIAN_POINT ( 'NONE',  ( 3.765876499528530985E-13, 48.50000000000055422, 0.000000000000000000 ) ) ;
#3 = ORIENTED_EDGE ( 'NONE', *, *, #211, .F. ) ;
#4 = ADVANCED_FACE ( 'NONE', ( #469 ), #422, .T. ) ;
#5 = DIRECTION ( 'NONE',  ( 1.060575238724909133E-16, 0.4999999999999965583, -0.8660254037844405950 ) ) ;
#6 =( LENGTH_UNIT ( ) NAMED_UNIT ( * ) SI_UNIT ( .MILLI., .METRE. ) );
#7 = MECHANICAL_DESIGN_GEOMETRIC_PRESENTATION_REPRESENTATION (  '', ( #257 ), #464 ) ;
#8 = CARTESIAN_POINT ( 'NONE',  ( 3.765876499528530985E-13, 21.50000000000054001, 3.000000000000014211 ) ) ;
#9 = FILL_AREA_STYLE ('',( #544 ) ) ;
#10 = CARTESIAN_POINT ( 'NONE',  ( 3.764349942869671395E-13, 21.50000000000054001, 0.000000000000000000 ) ) ;
#11 = EDGE_CURVE ( 'NONE', #432, #287, #284, .T. ) ;
#12 = DIRECTION ( 'NONE',  ( 0.000000000000000000, 0.000000000000000000, 1.000000000000000000 ) ) ;
#13 = CARTESIAN_POINT ( 'NONE',  ( 3.765876499528530985E-13, 5.900000000002222578, 2.999999999997769340 ) ) ;
#14 = CARTESIAN_POINT ( 'NONE',  ( 3.769550439925970263E-13, 5.900000000002222578, -2.999999999997769784 ) ) ;
#15 = DIRECTION ( 'NONE',  ( -0.000000000000000000, 1.000000000000000000, -0.000000000000000000 ) ) ;
#16 = ADVANCED_FACE ( 'NONE', ( #528 ), #497, .F. ) ;
#17 = LINE ( 'NONE', #151, #23 ) ;
#18 = DIRECTION ( 'NONE',  ( -0.000000000000000000, 1.000000000000000000, -0.000000000000000000 ) ) ;
#19 = DIRECTION ( 'NONE',  ( 0.000000000000000000, 0.000000000000000000, 1.000000000000000000 ) ) ;
#20 = VECTOR ( 'NONE', #108, 1000.000000000000000 ) ;
#21 = DIRECTION ( 'NONE',  ( -0.000000000000000000, 1.000000000000000000, -0.000000000000000000 ) ) ;
#22 = DIRECTION ( 'NONE',  ( 0.000000000000000000, 0.000000000000000000, 1.000000000000000000 ) ) ;
#23 = VECTOR ( 'NONE', #59, 1000.000000000000114 ) ;
#24 = FACE_OUTER_BOUND ( 'NONE', #298, .T. ) ;
#25 = EDGE_LOOP ( 'NONE', ( #343, #442, #206, #262 ) ) ;
#26 = ORIENTED_EDGE ( 'NONE', *, *, #174, .T. ) ;
#27 = APPLICATION_CONTEXT ( 'automotive_design' ) ;
#28 = AXIS2_PLACEMENT_3D ( 'NONE', #518, #421, #201 ) ;
#29 = EDGE_CURVE ( 'NONE', #478, #254, #569, .T. ) ;
#30 = ORIENTED_EDGE ( 'NONE', *, *, #367, .T. ) ;
#31 = ORIENTED_EDGE ( 'NONE', *, *, #546, .T. ) ;
#32 = ORIENTED_EDGE ( 'NONE', *, *, #380, .T. ) ;
#33 = EDGE_LOOP ( 'NONE', ( #336, #26, #213, #130 ) ) ;
#34 = ORIENTED_EDGE ( 'NONE', *, *, #494, .F. ) ;
#35 = EDGE_CURVE ( 'NONE', #83, #523, #65, .T. ) ;
#36 = CIRCLE ( 'NONE', #495, 3.000000000000014211 ) ;
#37 = EDGE_LOOP ( 'NONE', ( #38, #522, #129, #92 ) ) ;
#38 = ORIENTED_EDGE ( 'NONE', *, *, #475, .F. ) ;
#39 = DIRECTION ( 'NONE',  ( 0.000000000000000000, 0.000000000000000000, 1.000000000000000000 ) ) ;
#40 = CONICAL_SURFACE ( 'NONE', #417, 2.999999999997769340, 0.3420966728675769453 ) ;
#41 = ADVANCED_FACE ( 'NONE', ( #300, #239 ), #329, .F. ) ;
#42 = FACE_OUTER_BOUND ( 'NONE', #25, .T. ) ;
#43 = DIRECTION ( 'NONE',  ( 0.000000000000000000, 0.000000000000000000, 1.000000000000000000 ) ) ;
#44 = EDGE_LOOP ( 'NONE', ( #473, #482, #479, #32 ) ) ;
#45 = ADVANCED_FACE ( 'NONE', ( #281 ), #252, .T. ) ;
#46 = DIRECTION ( 'NONE',  ( 8.659560562354708526E-17, -0.7071067811865658914, 0.7071067811865292541 ) ) ;
#47 = VECTOR ( 'NONE', #62, 1000.000000000000000 ) ;
#48 = LINE ( 'NONE', #225, #400 ) ;
#49 = CARTESIAN_POINT ( 'NONE',  ( 3.765876499528530985E-13, 1000.000000000000227, 0.000000000000000000 ) ) ;
#50 = LINE ( 'NONE', #132, #309 ) ;
#51 = DIRECTION ( 'NONE',  ( 1.224646799146164739E-16, 0.000000000000000000, -1.000000000000000000 ) ) ;
#52 = ADVANCED_FACE ( 'NONE', ( #157 ), #420, .T. ) ;
#53 = CARTESIAN_POINT ( 'NONE',  ( 3.765876499528530985E-13, 5.900000000002222578, 0.000000000000000000 ) ) ;
#54 = SURFACE_STYLE_FILL_AREA ( #9 ) ;
#55 = DIRECTION ( 'NONE',  ( 0.000000000000000000, 0.000000000000000000, 1.000000000000000000 ) ) ;
#56 =( LENGTH_UNIT ( ) NAMED_UNIT ( * ) SI_UNIT ( .MILLI., .METRE. ) );
#57 = SURFACE_STYLE_USAGE ( .BOTH. , #267 ) ;
#58 = EDGE_CURVE ( 'NONE', #435, #517, #177, .T. ) ;
#59 = DIRECTION ( 'NONE',  ( 0.000000000000000000, 0.4999999999999965583, 0.8660254037844405950 ) ) ;
#60 = AXIS2_PLACEMENT_3D ( 'NONE', #10, #15, #193 ) ;
#61 = SURFACE_STYLE_USAGE ( .BOTH. , #425 ) ;
#62 = DIRECTION ( 'NONE',  ( 4.108236962975966997E-17, 0.9420533805113717740, -0.3354630058100246948 ) ) ;
#63 = FACE_OUTER_BOUND ( 'NONE', #571, .T. ) ;
#64 =( NAMED_UNIT ( * ) PLANE_ANGLE_UNIT ( ) SI_UNIT ( $, .RADIAN. ) );
#65 = CIRCLE ( 'NONE', #230, 2.999999999997769340 ) ;
#66 = DIRECTION ( 'NONE',  ( -0.000000000000000000, 1.000000000000000000, -0.000000000000000000 ) ) ;
#67 = MANIFOLD_SOLID_BREP ( '±ÛÂà1', #396 ) ;
#68 =( GEOMETRIC_REPRESENTATION_CONTEXT ( 3 ) GLOBAL_UNCERTAINTY_ASSIGNED_CONTEXT ( ( #389 ) ) GLOBAL_UNIT_ASSIGNED_CONTEXT ( ( #467, #513, #458 ) ) REPRESENTATION_CONTEXT ( 'NONE', 'WORKASPACE' ) );
#69 = CARTESIAN_POINT ( 'NONE',  ( 3.765876499528530985E-13, 1.732050807567789175, 0.000000000000000000 ) ) ;
#70 = CARTESIAN_POINT ( 'NONE',  ( 3.765876499528530985E-13, 21.50000000000054001, 3.359999999999992326 ) ) ;
#71 = DIRECTION ( 'NONE',  ( 0.000000000000000000, 0.000000000000000000, 1.000000000000000000 ) ) ;
#72 = VECTOR ( 'NONE', #328, 999.9999999999998863 ) ;
#73 = LINE ( 'NONE', #327, #552 ) ;
#74 = CARTESIAN_POINT ( 'NONE',  ( 3.765876499528530985E-13, 5.900000000002222578, 0.000000000000000000 ) ) ;
#75 = EDGE_CURVE ( 'NONE', #530, #435, #17, .T. ) ;
#76 = DIRECTION ( 'NONE',  ( 0.000000000000000000, 0.000000000000000000, 1.000000000000000000 ) ) ;
#77 = ORIENTED_EDGE ( 'NONE', *, *, #106, .F. ) ;
#78 = EDGE_CURVE ( 'NONE', #216, #212, #460, .T. ) ;
#79 = ORIENTED_EDGE ( 'NONE', *, *, #382, .F. ) ;
#80 = ORIENTED_EDGE ( 'NONE', *, *, #312, .T. ) ;
#81 = AXIS2_PLACEMENT_3D ( 'NONE', #153, #374, #333 ) ;
#82 = EDGE_LOOP ( 'NONE', ( #477, #86, #118, #438 ) ) ;
#83 = VERTEX_POINT ( 'NONE', #13 ) ;
#84 = AXIS2_PLACEMENT_3D ( 'NONE', #69, #368, #272 ) ;
#85 = ADVANCED_FACE ( 'NONE', ( #237 ), #500, .T. ) ;
#86 = ORIENTED_EDGE ( 'NONE', *, *, #447, .T. ) ;
#87 = AXIS2_PLACEMENT_3D ( 'NONE', #49, #188, #228 ) ;
#88 = DIRECTION ( 'NONE',  ( 0.000000000000000000, 0.000000000000000000, 1.000000000000000000 ) ) ;
#89 = PRODUCT_RELATED_PRODUCT_CATEGORY ( 'part', '', ( #341 ) ) ;
#90 = CYLINDRICAL_SURFACE ( 'NONE', #234, 4.000000000000010658 ) ;
#91 = DIRECTION ( 'NONE',  ( 0.000000000000000000, 0.000000000000000000, -1.000000000000000000 ) ) ;
#92 = ORIENTED_EDGE ( 'NONE', *, *, #232, .F. ) ;
#93 = CARTESIAN_POINT ( 'NONE',  ( 3.765876499528530985E-13, 21.50000000000054001, 0.000000000000000000 ) ) ;
#94 = FILL_AREA_STYLE_COLOUR ( '', #214 ) ;
#95 = DIRECTION ( 'NONE',  ( 0.000000000000000000, 0.000000000000000000, 1.000000000000000000 ) ) ;
#96 = CARTESIAN_POINT ( 'NONE',  ( 3.765876499528530985E-13, 21.50000000000054001, 0.000000000000000000 ) ) ;
#97 = CIRCLE ( 'NONE', #320, 3.900000000000012790 ) ;
#98 = DIRECTION ( 'NONE',  ( 0.000000000000000000, 0.000000000000000000, 1.000000000000000000 ) ) ;
#99 = CARTESIAN_POINT ( 'NONE',  ( 3.769991312773665945E-13, 21.50000000000054001, -3.359999999999992326 ) ) ;
#100 =( NAMED_UNIT ( * ) SI_UNIT ( $, .STERADIAN. ) SOLID_ANGLE_UNIT ( ) );
#101 = DIRECTION ( 'NONE',  ( 0.000000000000000000, 0.000000000000000000, 1.000000000000000000 ) ) ;
#102 = AXIS2_PLACEMENT_3D ( 'NONE', #112, #107, #276 ) ;
#103 = CARTESIAN_POINT ( 'NONE',  ( 3.765876499528530985E-13, 8.708218385331381484, 4.000000000000022204 ) ) ;
#104 = CARTESIAN_POINT ( 'NONE',  ( 3.769550439925970263E-13, 48.50000000000055422, -2.999999999997758682 ) ) ;
#105 = CONICAL_SURFACE ( 'NONE', #260, 2.999999999997769340, 0.3420966728675769453 ) ;
#106 = EDGE_CURVE ( 'NONE', #249, #485, #512, .T. ) ;
#107 = DIRECTION ( 'NONE',  ( 0.000000000000000000, -1.000000000000000000, 0.000000000000000000 ) ) ;
#108 = DIRECTION ( 'NONE',  ( -0.000000000000000000, 1.000000000000000000, -0.000000000000000000 ) ) ;
#109 = CONICAL_SURFACE ( 'NONE', #87, 1732.050807568892878, 1.047197551196601628 ) ;
#110 = DIRECTION ( 'NONE',  ( -0.000000000000000000, 1.000000000000000000, -0.000000000000000000 ) ) ;
#111 = ORIENTED_EDGE ( 'NONE', *, *, #152, .T. ) ;
#112 = CARTESIAN_POINT ( 'NONE',  ( 3.360000000000368914, 21.50000000000054001, 0.000000000000000000 ) ) ;
#113 = CARTESIAN_POINT ( 'NONE',  ( 3.765876499528530985E-13, 48.50000000000056843, 0.000000000000000000 ) ) ;
#114 = SURFACE_STYLE_USAGE ( .BOTH. , #443 ) ;
#115 = DIRECTION ( 'NONE',  ( 0.000000000000000000, 0.000000000000000000, -1.000000000000000000 ) ) ;
#116 = ADVANCED_FACE ( 'NONE', ( #270 ), #40, .T. ) ;
#117 = VECTOR ( 'NONE', #319, 1000.000000000000000 ) ;
#118 = ORIENTED_EDGE ( 'NONE', *, *, #306, .T. ) ;
#119 = ORIENTED_EDGE ( 'NONE', *, *, #302, .F. ) ;
#120 = ADVANCED_FACE ( 'NONE', ( #63 ), #445, .F. ) ;
#121 = ORIENTED_EDGE ( 'NONE', *, *, #447, .F. ) ;
#122 = ORIENTED_EDGE ( 'NONE', *, *, #78, .F. ) ;
#123 = CIRCLE ( 'NONE', #81, 2.999999999997748024 ) ;
#124 = DIRECTION ( 'NONE',  ( -0.000000000000000000, 1.000000000000000000, -0.000000000000000000 ) ) ;
#125 = VERTEX_POINT ( 'NONE', #504 ) ;
#126 = ORIENTED_EDGE ( 'NONE', *, *, #211, .T. ) ;
#127 = CIRCLE ( 'NONE', #461, 4.000000000000022204 ) ;
#128 =( LENGTH_UNIT ( ) NAMED_UNIT ( * ) SI_UNIT ( .MILLI., .METRE. ) );
#129 = ORIENTED_EDGE ( 'NONE', *, *, #429, .T. ) ;
#130 = ORIENTED_EDGE ( 'NONE', *, *, #483, .F. ) ;
#131 = CARTESIAN_POINT ( 'NONE',  ( 3.765876499528530985E-13, 48.30000000000049454, -3.000000000000021760 ) ) ;
#132 = CARTESIAN_POINT ( 'NONE',  ( 3.770775086725120391E-13, 48.50000000000055422, -4.000000000000010658 ) ) ;
#133 =( NAMED_UNIT ( * ) PLANE_ANGLE_UNIT ( ) SI_UNIT ( $, .RADIAN. ) );
#134 = CONICAL_SURFACE ( 'NONE', #490, 3.000000000000021760, 0.7853981633974277399 ) ;
#135 = DIRECTION ( 'NONE',  ( 0.000000000000000000, -1.000000000000000000, 0.000000000000000000 ) ) ;
#136 = ORIENTED_EDGE ( 'NONE', *, *, #11, .T. ) ;
#137 = ADVANCED_FACE ( 'NONE', ( #280 ), #105, .T. ) ;
#138 = CARTESIAN_POINT ( 'NONE',  ( 3.765876499528530985E-13, 21.50000000000054001, 0.000000000000000000 ) ) ;
#139 =( LENGTH_UNIT ( ) NAMED_UNIT ( * ) SI_UNIT ( .MILLI., .METRE. ) );
#140 = DIRECTION ( 'NONE',  ( -0.000000000000000000, 1.000000000000000000, -0.000000000000000000 ) ) ;
#141 = DIRECTION ( 'NONE',  ( 1.000000000000000000, 0.000000000000000000, 1.224646799147353207E-16 ) ) ;
#142 = TOROIDAL_SURFACE ( 'NONE', #278, 3.120000000000014317, 0.1199999999999995237 ) ;
#143 = LINE ( 'NONE', #324, #351 ) ;
#144 = DIRECTION ( 'NONE',  ( -0.000000000000000000, 1.000000000000000000, -0.000000000000000000 ) ) ;
#145 = CARTESIAN_POINT ( 'NONE',  ( 3.769427975246058330E-13, 48.50000000000056843, 2.799999999999954969 ) ) ;
#146 = DIRECTION ( 'NONE',  ( 0.000000000000000000, 0.000000000000000000, 1.000000000000000000 ) ) ;
#147 = AXIS2_PLACEMENT_3D ( 'NONE', #424, #240, #22 ) ;
#148 = ADVANCED_FACE ( 'NONE', ( #229 ), #364, .T. ) ;
#149 = LINE ( 'NONE', #104, #181 ) ;
#150 = COLOUR_RGB ( '',0.7921568627450980005, 0.8196078431372548767, 0.9333333333333333481 ) ;
#151 = CARTESIAN_POINT ( 'NONE',  ( 3.765876499528530985E-13, 2.289834988289385365E-13, 1.609823385706472250E-15 ) ) ;
#152 = EDGE_CURVE ( 'NONE', #523, #83, #244, .T. ) ;
#153 = CARTESIAN_POINT ( 'NONE',  ( 3.765876499528530985E-13, 1.732050807567789175, 0.000000000000000000 ) ) ;
#154 = DIRECTION ( 'NONE',  ( 0.000000000000000000, -1.000000000000000000, 0.000000000000000000 ) ) ;
#155 = CIRCLE ( 'NONE', #282, 3.359999999999992326 ) ;
#156 = EDGE_CURVE ( 'NONE', #534, #394, #143, .T. ) ;
#157 = FACE_OUTER_BOUND ( 'NONE', #82, .T. ) ;
#158 = CARTESIAN_POINT ( 'NONE',  ( 3.769991312773665945E-13, 21.50000000000054001, -3.359999999999992326 ) ) ;
#159 = VERTEX_POINT ( 'NONE', #271 ) ;
#160 = ORIENTED_EDGE ( 'NONE', *, *, #390, .T. ) ;
#161 = AXIS2_PLACEMENT_3D ( 'NONE', #419, #140, #98 ) ;
#162 = EDGE_CURVE ( 'NONE', #517, #523, #149, .T. ) ;
#163 = ORIENTED_EDGE ( 'NONE', *, *, #312, .F. ) ;
#164 = EDGE_LOOP ( 'NONE', ( #347, #80 ) ) ;
#165 = EDGE_LOOP ( 'NONE', ( #79, #428, #397, #568 ) ) ;
#166 = DIRECTION ( 'NONE',  ( -0.000000000000000000, 1.000000000000000000, -0.000000000000000000 ) ) ;
#167 = AXIS2_PLACEMENT_3D ( 'NONE', #202, #337, #115 ) ;
#168 = ORIENTED_EDGE ( 'NONE', *, *, #566, .T. ) ;
#169 = EDGE_LOOP ( 'NONE', ( #406, #313, #291, #381 ) ) ;
#170 = ORIENTED_EDGE ( 'NONE', *, *, #35, .T. ) ;
#171 = AXIS2_PLACEMENT_3D ( 'NONE', #366, #231, #548 ) ;
#172 = DIRECTION ( 'NONE',  ( -0.000000000000000000, 1.000000000000000000, -0.000000000000000000 ) ) ;
#173 = MECHANICAL_DESIGN_GEOMETRIC_PRESENTATION_REPRESENTATION (  '', ( #503 ), #352 ) ;
#174 = EDGE_CURVE ( 'NONE', #287, #432, #127, .T. ) ;
#175 = DIRECTION ( 'NONE',  ( -0.000000000000000000, 1.000000000000000000, -0.000000000000000000 ) ) ;
#176 = AXIS2_PLACEMENT_3D ( 'NONE', #468, #514, #510 ) ;
#177 = CIRCLE ( 'NONE', #84, 2.999999999997748024 ) ;
#178 = DIRECTION ( 'NONE',  ( 0.000000000000000000, 0.000000000000000000, 1.000000000000000000 ) ) ;
#179 = EDGE_CURVE ( 'NONE', #125, #180, #375, .T. ) ;
#180 = VERTEX_POINT ( 'NONE', #145 ) ;
#181 = VECTOR ( 'NONE', #545, 1000.000000000000000 ) ;
#182 = DIRECTION ( 'NONE',  ( 0.000000000000000000, 0.9420533805113717740, 0.3354630058100246948 ) ) ;
#183 = CONICAL_SURFACE ( 'NONE', #393, 3.359999999999992326, 1.047197551196549004 ) ;
#184 =( NAMED_UNIT ( * ) PLANE_ANGLE_UNIT ( ) SI_UNIT ( $, .RADIAN. ) );
#185 = CARTESIAN_POINT ( 'NONE',  ( 3.765876499528530985E-13, 21.40000000000054570, 0.000000000000000000 ) ) ;
#186 = CARTESIAN_POINT ( 'NONE',  ( 3.768170840883011253E-13, 21.50000000000054001, -3.120000000000014317 ) ) ;
#187 = DIRECTION ( 'NONE',  ( -0.000000000000000000, 1.000000000000000000, -0.000000000000000000 ) ) ;
#188 = DIRECTION ( 'NONE',  ( -0.000000000000000000, 1.000000000000000000, -0.000000000000000000 ) ) ;
#189 = CIRCLE ( 'NONE', #340, 3.000000000000014211 ) ;
#190 = CARTESIAN_POINT ( 'NONE',  ( 3.765876499528530985E-13, 5.900000000002222578, 0.000000000000000000 ) ) ;
#191 = DIRECTION ( 'NONE',  ( -0.000000000000000000, 1.000000000000000000, -0.000000000000000000 ) ) ;
#192 = EDGE_CURVE ( 'NONE', #530, #517, #492, .T. ) ;
#193 = DIRECTION ( 'NONE',  ( 0.000000000000000000, 0.000000000000000000, 1.000000000000000000 ) ) ;
#194 = FILL_AREA_STYLE_COLOUR ( '', #274 ) ;
#195 = CARTESIAN_POINT ( 'NONE',  ( 3.765876499528530985E-13, 21.50000000000054001, -3.900000000000012790 ) ) ;
#196 = PRESENTATION_STYLE_ASSIGNMENT (( #334 ) ) ;
#197 = DIRECTION ( 'NONE',  ( -0.000000000000000000, 1.000000000000000000, -0.000000000000000000 ) ) ;
#198 = AXIS2_PLACEMENT_3D ( 'NONE', #222, #175, #178 ) ;
#199 = ADVANCED_FACE ( 'NONE', ( #355 ), #134, .T. ) ;
#200 = FILL_AREA_STYLE ('',( #285 ) ) ;
#201 = DIRECTION ( 'NONE',  ( 0.000000000000000000, 0.000000000000000000, 1.000000000000000000 ) ) ;
#202 = CARTESIAN_POINT ( 'NONE',  ( 3.765876499528530985E-13, 48.30000000000049454, 0.000000000000000000 ) ) ;
#203 =( GEOMETRIC_REPRESENTATION_CONTEXT ( 3 ) GLOBAL_UNCERTAINTY_ASSIGNED_CONTEXT ( ( #412 ) ) GLOBAL_UNIT_ASSIGNED_CONTEXT ( ( #6, #184, #415 ) ) REPRESENTATION_CONTEXT ( 'NONE', 'WORKASPACE' ) );
#204 = APPLICATION_PROTOCOL_DEFINITION ( 'draft international standard', 'automotive_design', 1998, #491 ) ;
#205 = ORIENTED_EDGE ( 'NONE', *, *, #58, .F. ) ;
#206 = ORIENTED_EDGE ( 'NONE', *, *, #382, .T. ) ;
#207 = ORIENTED_EDGE ( 'NONE', *, *, #174, .F. ) ;
#208 = ORIENTED_EDGE ( 'NONE', *, *, #75, .T. ) ;
#209 = VECTOR ( 'NONE', #446, 1000.000000000000000 ) ;
#210 = CARTESIAN_POINT ( 'NONE',  ( 3.765876499528530985E-13, 8.708218385331381484, 0.000000000000000000 ) ) ;
#211 = EDGE_CURVE ( 'NONE', #344, #216, #189, .T. ) ;
#212 = VERTEX_POINT ( 'NONE', #131 ) ;
#213 = ORIENTED_EDGE ( 'NONE', *, *, #494, .T. ) ;
#214 = COLOUR_RGB ( '',1.000000000000000000, 0.000000000000000000, 0.000000000000000000 ) ;
#215 = ORIENTED_EDGE ( 'NONE', *, *, #367, .F. ) ;
#216 = VERTEX_POINT ( 'NONE', #317 ) ;
#217 = FACE_OUTER_BOUND ( 'NONE', #256, .T. ) ;
#218 = AXIS2_PLACEMENT_3D ( 'NONE', #444, #268, #227 ) ;
#219 = DIRECTION ( 'NONE',  ( -0.000000000000000000, 1.000000000000000000, -0.000000000000000000 ) ) ;
#220 = PRESENTATION_LAYER_ASSIGNMENT (  '', '', ( #503 ) ) ;
#221 = ADVANCED_FACE ( 'NONE', ( #489 ), #90, .T. ) ;
#222 = CARTESIAN_POINT ( 'NONE',  ( 3.765876499528530985E-13, 21.40000000000054570, 0.000000000000000000 ) ) ;
#223 = ORIENTED_EDGE ( 'NONE', *, *, #29, .T. ) ;
#224 = CIRCLE ( 'NONE', #299, 2.799999999999954969 ) ;
#225 = CARTESIAN_POINT ( 'NONE',  ( 3.765876499528530985E-13, 5.900000000002222578, 2.999999999997769340 ) ) ;
#226 = PRESENTATION_STYLE_ASSIGNMENT (( #57 ) ) ;
#227 = DIRECTION ( 'NONE',  ( 0.000000000000000000, 0.000000000000000000, 1.000000000000000000 ) ) ;
#228 = DIRECTION ( 'NONE',  ( 0.000000000000000000, 0.000000000000000000, 1.000000000000000000 ) ) ;
#229 = FACE_OUTER_BOUND ( 'NONE', #169, .T. ) ;
#230 = AXIS2_PLACEMENT_3D ( 'NONE', #74, #166, #293 ) ;
#231 = DIRECTION ( 'NONE',  ( -0.000000000000000000, 1.000000000000000000, -0.000000000000000000 ) ) ;
#232 = EDGE_CURVE ( 'NONE', #125, #212, #536, .T. ) ;
#233 = FACE_OUTER_BOUND ( 'NONE', #563, .T. ) ;
#234 = AXIS2_PLACEMENT_3D ( 'NONE', #407, #172, #265 ) ;
#235 = CARTESIAN_POINT ( 'NONE',  ( 3.769550439925972787E-13, 48.50000000000055422, -3.000000000000018208 ) ) ;
#236 = CARTESIAN_POINT ( 'NONE',  ( 3.765876499528530985E-13, 48.50000000000056133, 0.000000000000000000 ) ) ;
#237 = FACE_OUTER_BOUND ( 'NONE', #531, .T. ) ;
#238 = EDGE_CURVE ( 'NONE', #287, #254, #50, .T. ) ;
#239 = FACE_OUTER_BOUND ( 'NONE', #164, .T. ) ;
#240 = DIRECTION ( 'NONE',  ( -0.000000000000000000, 1.000000000000000000, -0.000000000000000000 ) ) ;
#241 = FILL_AREA_STYLE ('',( #194 ) ) ;
#242 = CARTESIAN_POINT ( 'NONE',  ( 3.765876499528530985E-13, 48.30000000000049454, 0.000000000000000000 ) ) ;
#243 = VERTEX_POINT ( 'NONE', #403 ) ;
#244 = CIRCLE ( 'NONE', #440, 2.999999999997769340 ) ;
#245 = FACE_OUTER_BOUND ( 'NONE', #441, .T. ) ;
#246 = DIRECTION ( 'NONE',  ( -0.000000000000000000, 1.000000000000000000, -0.000000000000000000 ) ) ;
#247 = COLOUR_RGB ( '',0.7921568627450980005, 0.8196078431372548767, 0.9333333333333333481 ) ;
#248 = ORIENTED_EDGE ( 'NONE', *, *, #322, .T. ) ;
#249 = VERTEX_POINT ( 'NONE', #308 ) ;
#250 = ORIENTED_EDGE ( 'NONE', *, *, #546, .F. ) ;
#251 = CIRCLE ( 'NONE', #1, 3.000000000000021760 ) ;
#252 = CONICAL_SURFACE ( 'NONE', #356, 1732.050807568892878, 1.047197551196601628 ) ;
#253 = PRODUCT_CONTEXT ( 'NONE', #491, 'mechanical' ) ;
#254 = VERTEX_POINT ( 'NONE', #405 ) ;
#255 = ORIENTED_EDGE ( 'NONE', *, *, #29, .F. ) ;
#256 = EDGE_LOOP ( 'NONE', ( #163, #31, #388, #255 ) ) ;
#257 = STYLED_ITEM ( 'NONE', ( #226 ), #537 ) ;
#258 = LINE ( 'NONE', #549, #326 ) ;
#259 = CARTESIAN_POINT ( 'NONE',  ( 3.765876499528530985E-13, 21.50000000000054001, 0.000000000000000000 ) ) ;
#260 = AXIS2_PLACEMENT_3D ( 'NONE', #423, #187, #101 ) ;
#261 = ADVANCED_FACE ( 'NONE', ( #42 ), #142, .F. ) ;
#262 = ORIENTED_EDGE ( 'NONE', *, *, #409, .F. ) ;
#263 = LINE ( 'NONE', #273, #410 ) ;
#264 = VECTOR ( 'NONE', #379, 999.9999999999998863 ) ;
#265 = DIRECTION ( 'NONE',  ( 0.000000000000000000, 0.000000000000000000, 1.000000000000000000 ) ) ;
#266 = CIRCLE ( 'NONE', #176, 0.1199999999999994404 ) ;
#267 = SURFACE_SIDE_STYLE ('',( #498 ) ) ;
#268 = DIRECTION ( 'NONE',  ( -0.000000000000000000, 1.000000000000000000, -0.000000000000000000 ) ) ;
#269 = VECTOR ( 'NONE', #496, 1000.000000000000000 ) ;
#270 = FACE_OUTER_BOUND ( 'NONE', #342, .T. ) ;
#271 = CARTESIAN_POINT ( 'NONE',  ( 3.770713854385163415E-13, 21.50000000000054001, 3.900000000000012790 ) ) ;
#272 = DIRECTION ( 'NONE',  ( 0.000000000000000000, 0.000000000000000000, 1.000000000000000000 ) ) ;
#273 = CARTESIAN_POINT ( 'NONE',  ( 3.770775086725120391E-13, 21.40000000000054570, 4.000000000000000000 ) ) ;
#274 = COLOUR_RGB ( '',1.000000000000000000, 0.000000000000000000, 0.000000000000000000 ) ;
#275 = DIRECTION ( 'NONE',  ( 0.000000000000000000, 0.5000000000000421885, 0.8660254037844143937 ) ) ;
#276 = DIRECTION ( 'NONE',  ( 0.000000000000000000, -0.000000000000000000, -1.000000000000000000 ) ) ;
#277 = DIRECTION ( 'NONE',  ( 0.000000000000000000, -0.000000000000000000, -1.000000000000000000 ) ) ;
#278 = AXIS2_PLACEMENT_3D ( 'NONE', #576, #543, #39 ) ;
#279 = ADVANCED_FACE ( 'NONE', ( #217 ), #387, .T. ) ;
#280 = FACE_OUTER_BOUND ( 'NONE', #399, .T. ) ;
#281 = FACE_OUTER_BOUND ( 'NONE', #570, .T. ) ;
#282 = AXIS2_PLACEMENT_3D ( 'NONE', #413, #408, #314 ) ;
#283 = FACE_OUTER_BOUND ( 'NONE', #386, .T. ) ;
#284 = CIRCLE ( 'NONE', #361, 4.000000000000022204 ) ;
#285 = FILL_AREA_STYLE_COLOUR ( '', #150 ) ;
#286 = CARTESIAN_POINT ( 'NONE',  ( 3.765876499528530985E-13, 48.30000000000049454, 0.000000000000000000 ) ) ;
#287 = VERTEX_POINT ( 'NONE', #535 ) ;
#288 =( NAMED_UNIT ( * ) SI_UNIT ( $, .STERADIAN. ) SOLID_ANGLE_UNIT ( ) );
#289 = DIRECTION ( 'NONE',  ( 0.000000000000000000, 0.000000000000000000, 1.000000000000000000 ) ) ;
#290 =( NAMED_UNIT ( * ) SI_UNIT ( $, .STERADIAN. ) SOLID_ANGLE_UNIT ( ) );
#291 = ORIENTED_EDGE ( 'NONE', *, *, #35, .F. ) ;
#292 = AXIS2_PLACEMENT_3D ( 'NONE', #138, #499, #95 ) ;
#293 = DIRECTION ( 'NONE',  ( 0.000000000000000000, 0.000000000000000000, 1.000000000000000000 ) ) ;
#294 = ORIENTED_EDGE ( 'NONE', *, *, #75, .F. ) ;
#295 = ADVANCED_FACE ( 'NONE', ( #411 ), #360, .T. ) ;
#296 = PRESENTATION_LAYER_ASSIGNMENT (  '', '', ( #315 ) ) ;
#297 = ORIENTED_EDGE ( 'NONE', *, *, #322, .F. ) ;
#298 = EDGE_LOOP ( 'NONE', ( #136, #350, #119, #34 ) ) ;
#299 = AXIS2_PLACEMENT_3D ( 'NONE', #113, #18, #559 ) ;
#300 = FACE_BOUND ( 'NONE', #385, .T. ) ;
#301 = ORIENTED_EDGE ( 'NONE', *, *, #78, .T. ) ;
#302 = EDGE_CURVE ( 'NONE', #524, #254, #573, .T. ) ;
#303 = ORIENTED_EDGE ( 'NONE', *, *, #483, .T. ) ;
#304 = DIRECTION ( 'NONE',  ( 0.000000000000000000, -1.000000000000000000, 0.000000000000000000 ) ) ;
#305 = DIRECTION ( 'NONE',  ( 0.000000000000000000, 0.000000000000000000, -1.000000000000000000 ) ) ;
#306 = EDGE_CURVE ( 'NONE', #435, #83, #357, .T. ) ;
#307 = STYLED_ITEM ( 'NONE', ( #465 ), #45 ) ;
#308 = CARTESIAN_POINT ( 'NONE',  ( 3.769881094561742782E-13, 21.39607695154640510, -3.180000000000007709 ) ) ;
#309 = VECTOR ( 'NONE', #353, 1000.000000000000000 ) ;
#310 = CONICAL_SURFACE ( 'NONE', #359, 4.000000000000000000, 0.7853981633974222998 ) ;
#311 = CARTESIAN_POINT ( 'NONE',  ( 3.765876499528530985E-13, 48.50000000000055422, 2.999999999997758682 ) ) ;
#312 = EDGE_CURVE ( 'NONE', #159, #478, #97, .T. ) ;
#313 = ORIENTED_EDGE ( 'NONE', *, *, #162, .T. ) ;
#314 = DIRECTION ( 'NONE',  ( 0.000000000000000000, 0.000000000000000000, 1.000000000000000000 ) ) ;
#315 = STYLED_ITEM ( 'NONE', ( #196 ), #67 ) ;
#316 = AXIS2_PLACEMENT_3D ( 'NONE', #476, #124, #521 ) ;
#317 = CARTESIAN_POINT ( 'NONE',  ( 3.768134101479036360E-13, 21.50000000000054001, -3.000000000000014211 ) ) ;
#318 = FACE_OUTER_BOUND ( 'NONE', #481, .T. ) ;
#319 = DIRECTION ( 'NONE',  ( -0.000000000000000000, 1.000000000000000000, -0.000000000000000000 ) ) ;
#320 = AXIS2_PLACEMENT_3D ( 'NONE', #93, #542, #453 ) ;
#321 = FILL_AREA_STYLE ('',( #94 ) ) ;
#322 = EDGE_CURVE ( 'NONE', #83, #432, #48, .T. ) ;
#323 = CARTESIAN_POINT ( 'NONE',  ( 3.765876499528530985E-13, 8.708218385331381484, 0.000000000000000000 ) ) ;
#324 = CARTESIAN_POINT ( 'NONE',  ( 3.765876499528530985E-13, 21.50000000000054001, 3.359999999999992326 ) ) ;
#325 = EDGE_CURVE ( 'NONE', #478, #159, #520, .T. ) ;
#326 = VECTOR ( 'NONE', #471, 1000.000000000000000 ) ;
#327 = CARTESIAN_POINT ( 'NONE',  ( 3.765876499528530985E-13, 48.50000000000055422, 3.000000000000018208 ) ) ;
#328 = DIRECTION ( 'NONE',  ( 1.060575238724877209E-16, 0.5000000000000421885, -0.8660254037844143937 ) ) ;
#329 = PLANE ( 'NONE',  #102 ) ;
#330 = CARTESIAN_POINT ( 'NONE',  ( 3.765876499528530985E-13, 48.50000000000055422, 4.000000000000010658 ) ) ;
#331 = CARTESIAN_POINT ( 'NONE',  ( 3.765876499528530985E-13, 1000.000000000000227, 0.000000000000000000 ) ) ;
#332 = AXIS2_PLACEMENT_3D ( 'NONE', #186, #141, #51 ) ;
#333 = DIRECTION ( 'NONE',  ( 0.000000000000000000, 0.000000000000000000, 1.000000000000000000 ) ) ;
#334 = SURFACE_STYLE_USAGE ( .BOTH. , #515 ) ;
#335 = CARTESIAN_POINT ( 'NONE',  ( 3.765876499528530985E-13, 1.732050807567789175, 2.999999999997747580 ) ) ;
#336 = ORIENTED_EDGE ( 'NONE', *, *, #238, .F. ) ;
#337 = DIRECTION ( 'NONE',  ( 0.000000000000000000, -1.000000000000000000, 0.000000000000000000 ) ) ;
#338 = EDGE_CURVE ( 'NONE', #534, #249, #472, .T. ) ;
#339 = ORIENTED_EDGE ( 'NONE', *, *, #338, .F. ) ;
#340 = AXIS2_PLACEMENT_3D ( 'NONE', #259, #454, #402 ) ;
#341 = PRODUCT ( '99688-SI06-06+S9MT06T1-120', '99688-SI06-06+S9MT06T1-120', '', ( #253 ) ) ;
#342 = EDGE_LOOP ( 'NONE', ( #170, #30, #539, #297 ) ) ;
#343 = ORIENTED_EDGE ( 'NONE', *, *, #572, .F. ) ;
#344 = VERTEX_POINT ( 'NONE', #8 ) ;
#345 = EDGE_CURVE ( 'NONE', #485, #394, #434, .T. ) ;
#346 = ORIENTED_EDGE ( 'NONE', *, *, #192, .T. ) ;
#347 = ORIENTED_EDGE ( 'NONE', *, *, #325, .T. ) ;
#348 = UNCERTAINTY_MEASURE_WITH_UNIT (LENGTH_MEASURE( 1.000000000000000082E-05 ), #56, 'distance_accuracy_value', 'NONE');
#349 = ORIENTED_EDGE ( 'NONE', *, *, #390, .F. ) ;
#350 = ORIENTED_EDGE ( 'NONE', *, *, #238, .T. ) ;
#351 = VECTOR ( 'NONE', #275, 999.9999999999998863 ) ;
#352 =( GEOMETRIC_REPRESENTATION_CONTEXT ( 3 ) GLOBAL_UNCERTAINTY_ASSIGNED_CONTEXT ( ( #527 ) ) GLOBAL_UNIT_ASSIGNED_CONTEXT ( ( #128, #562, #290 ) ) REPRESENTATION_CONTEXT ( 'NONE', 'WORKASPACE' ) );
#353 = DIRECTION ( 'NONE',  ( -0.000000000000000000, 1.000000000000000000, -0.000000000000000000 ) ) ;
#354 = CIRCLE ( 'NONE', #147, 3.180000000000007709 ) ;
#355 = FACE_OUTER_BOUND ( 'NONE', #37, .T. ) ;
#356 = AXIS2_PLACEMENT_3D ( 'NONE', #331, #21, #558 ) ;
#357 = LINE ( 'NONE', #311, #269 ) ;
#358 = ORIENTED_EDGE ( 'NONE', *, *, #192, .F. ) ;
#359 = AXIS2_PLACEMENT_3D ( 'NONE', #466, #154, #369 ) ;
#360 = CYLINDRICAL_SURFACE ( 'NONE', #533, 3.000000000000018208 ) ;
#361 = AXIS2_PLACEMENT_3D ( 'NONE', #210, #246, #71 ) ;
#362 = CARTESIAN_POINT ( 'NONE',  ( 3.765876499528530985E-13, 21.50000000000054001, 0.000000000000000000 ) ) ;
#363 = EDGE_CURVE ( 'NONE', #180, #243, #258, .T. ) ;
#364 = CYLINDRICAL_SURFACE ( 'NONE', #427, 2.999999999997758682 ) ;
#365 = VECTOR ( 'NONE', #5, 1000.000000000000114 ) ;
#366 = CARTESIAN_POINT ( 'NONE',  ( 3.765876499528530985E-13, 48.50000000000056843, 0.000000000000000000 ) ) ;
#367 = EDGE_CURVE ( 'NONE', #523, #287, #516, .T. ) ;
#368 = DIRECTION ( 'NONE',  ( -0.000000000000000000, 1.000000000000000000, -0.000000000000000000 ) ) ;
#369 = DIRECTION ( 'NONE',  ( 0.000000000000000000, 0.000000000000000000, -1.000000000000000000 ) ) ;
#370 = CARTESIAN_POINT ( 'NONE',  ( 3.765876499528530985E-13, 48.50000000000055422, 0.000000000000000000 ) ) ;
#371 = AXIS2_PLACEMENT_3D ( 'NONE', #236, #430, #277 ) ;
#372 = LINE ( 'NONE', #330, #20 ) ;
#373 = DIRECTION ( 'NONE',  ( 0.000000000000000000, 0.000000000000000000, 1.000000000000000000 ) ) ;
#374 = DIRECTION ( 'NONE',  ( -0.000000000000000000, 1.000000000000000000, -0.000000000000000000 ) ) ;
#375 = CIRCLE ( 'NONE', #171, 2.799999999999954969 ) ;
#376 = SURFACE_STYLE_FILL_AREA ( #241 ) ;
#377 = DIRECTION ( 'NONE',  ( -0.000000000000000000, 1.000000000000000000, -0.000000000000000000 ) ) ;
#378 = DIRECTION ( 'NONE',  ( 1.000000000000000000, 0.000000000000000000, 0.000000000000000000 ) ) ;
#379 = DIRECTION ( 'NONE',  ( 0.000000000000000000, -0.7071067811865658914, -0.7071067811865292541 ) ) ;
#380 = EDGE_CURVE ( 'NONE', #212, #243, #251, .T. ) ;
#381 = ORIENTED_EDGE ( 'NONE', *, *, #306, .F. ) ;
#382 = EDGE_CURVE ( 'NONE', #249, #534, #354, .T. ) ;
#383 =( GEOMETRIC_REPRESENTATION_CONTEXT ( 3 ) GLOBAL_UNCERTAINTY_ASSIGNED_CONTEXT ( ( #348 ) ) GLOBAL_UNIT_ASSIGNED_CONTEXT ( ( #56, #64, #288 ) ) REPRESENTATION_CONTEXT ( 'NONE', 'WORKASPACE' ) );
#384 = SHAPE_DEFINITION_REPRESENTATION ( #456, #401 ) ;
#385 = EDGE_LOOP ( 'NONE', ( #449, #532 ) ) ;
#386 = EDGE_LOOP ( 'NONE', ( #250, #437, #223, #303 ) ) ;
#387 = CONICAL_SURFACE ( 'NONE', #455, 4.000000000000000000, 0.7853981633974222998 ) ;
#388 = ORIENTED_EDGE ( 'NONE', *, *, #302, .T. ) ;
#389 = UNCERTAINTY_MEASURE_WITH_UNIT (LENGTH_MEASURE( 1.000000000000000082E-05 ), #467, 'distance_accuracy_value', 'NONE');
#390 = EDGE_CURVE ( 'NONE', #344, #243, #73, .T. ) ;
#391 = CARTESIAN_POINT ( 'NONE',  ( 0.000000000000000000, 0.000000000000000000, 0.000000000000000000 ) ) ;
#392 = ORIENTED_EDGE ( 'NONE', *, *, #429, .F. ) ;
#393 = AXIS2_PLACEMENT_3D ( 'NONE', #96, #191, #12 ) ;
#394 = VERTEX_POINT ( 'NONE', #70 ) ;
#395 = ORIENTED_EDGE ( 'NONE', *, *, #156, .T. ) ;
#396 = CLOSED_SHELL ( 'NONE', ( #295, #261, #16, #279, #451, #116, #148, #537, #199, #4, #436, #45, #52, #137, #221, #506, #41, #526, #120, #85 ) ) ;
#397 = ORIENTED_EDGE ( 'NONE', *, *, #345, .T. ) ;
#398 = PRODUCT_DEFINITION_CONTEXT ( 'detailed design', #27, 'design' ) ;
#399 = EDGE_LOOP ( 'NONE', ( #215, #111, #248, #207 ) ) ;
#400 = VECTOR ( 'NONE', #182, 1000.000000000000000 ) ;
#401 = ADVANCED_BREP_SHAPE_REPRESENTATION ( '99688-SI06-06+S9MT06T1-120', ( #67, #474 ), #203 ) ;
#402 = DIRECTION ( 'NONE',  ( 0.000000000000000000, 0.000000000000000000, 1.000000000000000000 ) ) ;
#403 = CARTESIAN_POINT ( 'NONE',  ( 3.769550439925972787E-13, 48.30000000000049454, 3.000000000000021760 ) ) ;
#404 = AXIS2_PLACEMENT_3D ( 'NONE', #362, #488, #88 ) ;
#405 = CARTESIAN_POINT ( 'NONE',  ( 3.770775086725120391E-13, 21.40000000000054570, -4.000000000000000000 ) ) ;
#406 = ORIENTED_EDGE ( 'NONE', *, *, #58, .T. ) ;
#407 = CARTESIAN_POINT ( 'NONE',  ( 3.765876499528530985E-13, 48.50000000000055422, 0.000000000000000000 ) ) ;
#408 = DIRECTION ( 'NONE',  ( -0.000000000000000000, 1.000000000000000000, -0.000000000000000000 ) ) ;
#409 = EDGE_CURVE ( 'NONE', #344, #534, #266, .T. ) ;
#410 = VECTOR ( 'NONE', #46, 999.9999999999998863 ) ;
#411 = FACE_OUTER_BOUND ( 'NONE', #433, .T. ) ;
#412 = UNCERTAINTY_MEASURE_WITH_UNIT (LENGTH_MEASURE( 1.000000000000000082E-05 ), #6, 'distance_accuracy_value', 'NONE');
#413 = CARTESIAN_POINT ( 'NONE',  ( 3.765876499528530985E-13, 21.50000000000054001, 0.000000000000000000 ) ) ;
#414 = DIRECTION ( 'NONE',  ( -0.000000000000000000, 1.000000000000000000, -0.000000000000000000 ) ) ;
#415 =( NAMED_UNIT ( * ) SI_UNIT ( $, .STERADIAN. ) SOLID_ANGLE_UNIT ( ) );
#416 = DIRECTION ( 'NONE',  ( 0.000000000000000000, 0.000000000000000000, 1.000000000000000000 ) ) ;
#417 = AXIS2_PLACEMENT_3D ( 'NONE', #53, #507, #463 ) ;
#418 = CARTESIAN_POINT ( 'NONE',  ( 3.769550439925970263E-13, 1.732050807567789175, -2.999999999997747580 ) ) ;
#419 = CARTESIAN_POINT ( 'NONE',  ( 3.765876499528530985E-13, 48.50000000000055422, 0.000000000000000000 ) ) ;
#420 = CYLINDRICAL_SURFACE ( 'NONE', #511, 2.999999999997758682 ) ;
#421 = DIRECTION ( 'NONE',  ( -0.000000000000000000, 1.000000000000000000, -0.000000000000000000 ) ) ;
#422 = CONICAL_SURFACE ( 'NONE', #167, 3.000000000000021760, 0.7853981633974277399 ) ;
#423 = CARTESIAN_POINT ( 'NONE',  ( 3.765876499528530985E-13, 5.900000000002222578, 0.000000000000000000 ) ) ;
#424 = CARTESIAN_POINT ( 'NONE',  ( 3.765876499528530985E-13, 21.39607695154640510, 0.000000000000000000 ) ) ;
#425 = SURFACE_SIDE_STYLE ('',( #376 ) ) ;
#426 = PLANE ( 'NONE',  #371 ) ;
#427 = AXIS2_PLACEMENT_3D ( 'NONE', #370, #551, #19 ) ;
#428 = ORIENTED_EDGE ( 'NONE', *, *, #106, .T. ) ;
#429 = EDGE_CURVE ( 'NONE', #243, #212, #452, .T. ) ;
#430 = DIRECTION ( 'NONE',  ( 0.000000000000000000, -1.000000000000000000, 0.000000000000000000 ) ) ;
#431 = PRESENTATION_STYLE_ASSIGNMENT (( #114 ) ) ;
#432 = VERTEX_POINT ( 'NONE', #103 ) ;
#433 = EDGE_LOOP ( 'NONE', ( #126, #301, #392, #349 ) ) ;
#434 = CIRCLE ( 'NONE', #404, 3.359999999999992326 ) ;
#435 = VERTEX_POINT ( 'NONE', #335 ) ;
#436 = ADVANCED_FACE ( 'NONE', ( #245 ), #426, .F. ) ;
#437 = ORIENTED_EDGE ( 'NONE', *, *, #325, .F. ) ;
#438 = ORIENTED_EDGE ( 'NONE', *, *, #152, .F. ) ;
#439 = ORIENTED_EDGE ( 'NONE', *, *, #380, .F. ) ;
#440 = AXIS2_PLACEMENT_3D ( 'NONE', #190, #414, #416 ) ;
#441 = EDGE_LOOP ( 'NONE', ( #484, #565 ) ) ;
#442 = ORIENTED_EDGE ( 'NONE', *, *, #553, .T. ) ;
#443 = SURFACE_SIDE_STYLE ('',( #54 ) ) ;
#444 = CARTESIAN_POINT ( 'NONE',  ( 3.765876499528530985E-13, 21.39607695154640510, 0.000000000000000000 ) ) ;
#445 = TOROIDAL_SURFACE ( 'NONE', #60, 3.120000000000014317, 0.1199999999999995237 ) ;
#446 = DIRECTION ( 'NONE',  ( 0.000000000000000000, -0.7071067811865621167, -0.7071067811865330288 ) ) ;
#447 = EDGE_CURVE ( 'NONE', #517, #435, #123, .T. ) ;
#448 = CARTESIAN_POINT ( 'NONE',  ( 3.765876499528530985E-13, 2.289834988289385365E-13, -1.609823385706472250E-15 ) ) ;
#449 = ORIENTED_EDGE ( 'NONE', *, *, #566, .F. ) ;
#450 = DIRECTION ( 'NONE',  ( 0.000000000000000000, 0.000000000000000000, 1.000000000000000000 ) ) ;
#451 = ADVANCED_FACE ( 'NONE', ( #24 ), #550, .T. ) ;
#452 = CIRCLE ( 'NONE', #480, 3.000000000000021760 ) ;
#453 = DIRECTION ( 'NONE',  ( 0.000000000000000000, 0.000000000000000000, 1.000000000000000000 ) ) ;
#454 = DIRECTION ( 'NONE',  ( -0.000000000000000000, 1.000000000000000000, -0.000000000000000000 ) ) ;
#455 = AXIS2_PLACEMENT_3D ( 'NONE', #185, #135, #91 ) ;
#456 = PRODUCT_DEFINITION_SHAPE ( 'NONE', 'NONE',  #501 ) ;
#457 = DIRECTION ( 'NONE',  ( -0.000000000000000000, 1.000000000000000000, -0.000000000000000000 ) ) ;
#458 =( NAMED_UNIT ( * ) SI_UNIT ( $, .STERADIAN. ) SOLID_ANGLE_UNIT ( ) );
#459 = MECHANICAL_DESIGN_GEOMETRIC_PRESENTATION_REPRESENTATION (  '', ( #307 ), #383 ) ;
#460 = LINE ( 'NONE', #235, #117 ) ;
#461 = AXIS2_PLACEMENT_3D ( 'NONE', #323, #457, #55 ) ;
#462 = CARTESIAN_POINT ( 'NONE',  ( 3.769550439925970263E-13, 5.900000000002222578, -2.999999999997769340 ) ) ;
#463 = DIRECTION ( 'NONE',  ( 0.000000000000000000, 0.000000000000000000, 1.000000000000000000 ) ) ;
#464 =( GEOMETRIC_REPRESENTATION_CONTEXT ( 3 ) GLOBAL_UNCERTAINTY_ASSIGNED_CONTEXT ( ( #557 ) ) GLOBAL_UNIT_ASSIGNED_CONTEXT ( ( #139, #133, #100 ) ) REPRESENTATION_CONTEXT ( 'NONE', 'WORKASPACE' ) );
#465 = PRESENTATION_STYLE_ASSIGNMENT (( #61 ) ) ;
#466 = CARTESIAN_POINT ( 'NONE',  ( 3.765876499528530985E-13, 21.40000000000054570, 0.000000000000000000 ) ) ;
#467 =( LENGTH_UNIT ( ) NAMED_UNIT ( * ) SI_UNIT ( .MILLI., .METRE. ) );
#468 = CARTESIAN_POINT ( 'NONE',  ( 3.764349942869671395E-13, 21.50000000000054001, 3.120000000000014317 ) ) ;
#469 = FACE_OUTER_BOUND ( 'NONE', #44, .T. ) ;
#470 = CARTESIAN_POINT ( 'NONE',  ( 3.765876499528530985E-13, 48.50000000000055422, 0.000000000000000000 ) ) ;
#471 = DIRECTION ( 'NONE',  ( 8.659560562354755364E-17, -0.7071067811865621167, 0.7071067811865330288 ) ) ;
#472 = CIRCLE ( 'NONE', #218, 3.180000000000007709 ) ;
#473 = ORIENTED_EDGE ( 'NONE', *, *, #363, .F. ) ;
#474 = AXIS2_PLACEMENT_3D ( 'NONE', #391, #76, #378 ) ;
#475 = EDGE_CURVE ( 'NONE', #180, #125, #224, .T. ) ;
#476 = CARTESIAN_POINT ( 'NONE',  ( 3.765876499528530985E-13, 21.50000000000054001, 0.000000000000000000 ) ) ;
#477 = ORIENTED_EDGE ( 'NONE', *, *, #162, .F. ) ;
#478 = VERTEX_POINT ( 'NONE', #195 ) ;
#479 = ORIENTED_EDGE ( 'NONE', *, *, #232, .T. ) ;
#480 = AXIS2_PLACEMENT_3D ( 'NONE', #242, #197, #289 ) ;
#481 = EDGE_LOOP ( 'NONE', ( #77, #339, #395, #168 ) ) ;
#482 = ORIENTED_EDGE ( 'NONE', *, *, #179, .F. ) ;
#483 = EDGE_CURVE ( 'NONE', #254, #524, #508, .T. ) ;
#484 = ORIENTED_EDGE ( 'NONE', *, *, #179, .T. ) ;
#485 = VERTEX_POINT ( 'NONE', #158 ) ;
#486 = PRESENTATION_LAYER_ASSIGNMENT (  '', '', ( #257 ) ) ;
#487 = ORIENTED_EDGE ( 'NONE', *, *, #409, .T. ) ;
#488 = DIRECTION ( 'NONE',  ( -0.000000000000000000, 1.000000000000000000, -0.000000000000000000 ) ) ;
#489 = FACE_OUTER_BOUND ( 'NONE', #33, .T. ) ;
#490 = AXIS2_PLACEMENT_3D ( 'NONE', #575, #304, #305 ) ;
#491 = APPLICATION_CONTEXT ( 'automotive_design' ) ;
#492 = LINE ( 'NONE', #448, #365 ) ;
#493 = CARTESIAN_POINT ( 'NONE',  ( 3.765876499528530985E-13, 21.50000000000054001, 0.000000000000000000 ) ) ;
#494 = EDGE_CURVE ( 'NONE', #432, #524, #372, .T. ) ;
#495 = AXIS2_PLACEMENT_3D ( 'NONE', #493, #144, #450 ) ;
#496 = DIRECTION ( 'NONE',  ( -0.000000000000000000, 1.000000000000000000, -0.000000000000000000 ) ) ;
#497 = CONICAL_SURFACE ( 'NONE', #316, 3.359999999999992326, 1.047197551196549004 ) ;
#498 = SURFACE_STYLE_FILL_AREA ( #321 ) ;
#499 = DIRECTION ( 'NONE',  ( -0.000000000000000000, 1.000000000000000000, -0.000000000000000000 ) ) ;
#500 = CYLINDRICAL_SURFACE ( 'NONE', #161, 3.000000000000018208 ) ;
#501 = PRODUCT_DEFINITION ( 'UNKNOWN', '', #547, #398 ) ;
#502 = CARTESIAN_POINT ( 'NONE',  ( 3.765876499528530985E-13, 21.40000000000054570, 4.000000000000000000 ) ) ;
#503 = STYLED_ITEM ( 'NONE', ( #431 ), #401 ) ;
#504 = CARTESIAN_POINT ( 'NONE',  ( 3.765876499528530985E-13, 48.50000000000056843, -2.799999999999954969 ) ) ;
#505 = CARTESIAN_POINT ( 'NONE',  ( 3.765876499528530985E-13, 2.273736754432320595E-13, 0.000000000000000000 ) ) ;
#506 = ADVANCED_FACE ( 'NONE', ( #283 ), #310, .T. ) ;
#507 = DIRECTION ( 'NONE',  ( -0.000000000000000000, 1.000000000000000000, -0.000000000000000000 ) ) ;
#508 = CIRCLE ( 'NONE', #529, 4.000000000000000000 ) ;
#509 = DIRECTION ( 'NONE',  ( -0.000000000000000000, 1.000000000000000000, -0.000000000000000000 ) ) ;
#510 = DIRECTION ( 'NONE',  ( 0.000000000000000000, 0.000000000000000000, 1.000000000000000000 ) ) ;
#511 = AXIS2_PLACEMENT_3D ( 'NONE', #470, #509, #373 ) ;
#512 = LINE ( 'NONE', #99, #72 ) ;
#513 =( NAMED_UNIT ( * ) PLANE_ANGLE_UNIT ( ) SI_UNIT ( $, .RADIAN. ) );
#514 = DIRECTION ( 'NONE',  ( -1.000000000000000000, 0.000000000000000000, 0.000000000000000000 ) ) ;
#515 = SURFACE_SIDE_STYLE ('',( #554 ) ) ;
#516 = LINE ( 'NONE', #462, #47 ) ;
#517 = VERTEX_POINT ( 'NONE', #418 ) ;
#518 = CARTESIAN_POINT ( 'NONE',  ( 3.765876499528530985E-13, 48.50000000000055422, 0.000000000000000000 ) ) ;
#519 = ORIENTED_EDGE ( 'NONE', *, *, #572, .T. ) ;
#520 = CIRCLE ( 'NONE', #292, 3.900000000000012790 ) ;
#521 = DIRECTION ( 'NONE',  ( 0.000000000000000000, 0.000000000000000000, 1.000000000000000000 ) ) ;
#522 = ORIENTED_EDGE ( 'NONE', *, *, #363, .T. ) ;
#523 = VERTEX_POINT ( 'NONE', #14 ) ;
#524 = VERTEX_POINT ( 'NONE', #502 ) ;
#525 = MECHANICAL_DESIGN_GEOMETRIC_PRESENTATION_REPRESENTATION (  '', ( #315 ), #68 ) ;
#526 = ADVANCED_FACE ( 'NONE', ( #318 ), #183, .F. ) ;
#527 = UNCERTAINTY_MEASURE_WITH_UNIT (LENGTH_MEASURE( 1.000000000000000082E-05 ), #128, 'distance_accuracy_value', 'NONE');
#528 = FACE_OUTER_BOUND ( 'NONE', #165, .T. ) ;
#529 = AXIS2_PLACEMENT_3D ( 'NONE', #555, #377, #556 ) ;
#530 = VERTEX_POINT ( 'NONE', #505 ) ;
#531 = EDGE_LOOP ( 'NONE', ( #122, #519, #160, #439 ) ) ;
#532 = ORIENTED_EDGE ( 'NONE', *, *, #345, .F. ) ;
#533 = AXIS2_PLACEMENT_3D ( 'NONE', #2, #219, #43 ) ;
#534 = VERTEX_POINT ( 'NONE', #540 ) ;
#535 = CARTESIAN_POINT ( 'NONE',  ( 3.770775086725120391E-13, 8.708218385331381484, -4.000000000000022204 ) ) ;
#536 = LINE ( 'NONE', #538, #209 ) ;
#537 = ADVANCED_FACE ( 'NONE', ( #233 ), #109, .T. ) ;
#538 = CARTESIAN_POINT ( 'NONE',  ( 3.765876499528530985E-13, 48.30000000000049454, -3.000000000000021760 ) ) ;
#539 = ORIENTED_EDGE ( 'NONE', *, *, #11, .F. ) ;
#540 = CARTESIAN_POINT ( 'NONE',  ( 3.765876499528530985E-13, 21.39607695154640510, 3.180000000000007709 ) ) ;
#541 = CIRCLE ( 'NONE', #332, 0.1199999999999994404 ) ;
#542 = DIRECTION ( 'NONE',  ( -0.000000000000000000, 1.000000000000000000, -0.000000000000000000 ) ) ;
#543 = DIRECTION ( 'NONE',  ( -0.000000000000000000, 1.000000000000000000, -0.000000000000000000 ) ) ;
#544 = FILL_AREA_STYLE_COLOUR ( '', #247 ) ;
#545 = DIRECTION ( 'NONE',  ( -0.000000000000000000, 1.000000000000000000, -0.000000000000000000 ) ) ;
#546 = EDGE_CURVE ( 'NONE', #159, #524, #263, .T. ) ;
#547 = PRODUCT_DEFINITION_FORMATION_WITH_SPECIFIED_SOURCE ( 'ANY', '', #341, .NOT_KNOWN. ) ;
#548 = DIRECTION ( 'NONE',  ( 0.000000000000000000, 0.000000000000000000, 1.000000000000000000 ) ) ;
#549 = CARTESIAN_POINT ( 'NONE',  ( 3.769550439925972787E-13, 48.30000000000049454, 3.000000000000021760 ) ) ;
#550 = CYLINDRICAL_SURFACE ( 'NONE', #28, 4.000000000000010658 ) ;
#551 = DIRECTION ( 'NONE',  ( -0.000000000000000000, 1.000000000000000000, -0.000000000000000000 ) ) ;
#552 = VECTOR ( 'NONE', #110, 1000.000000000000000 ) ;
#553 = EDGE_CURVE ( 'NONE', #216, #249, #541, .T. ) ;
#554 = SURFACE_STYLE_FILL_AREA ( #200 ) ;
#555 = CARTESIAN_POINT ( 'NONE',  ( 3.765876499528530985E-13, 21.40000000000054570, 0.000000000000000000 ) ) ;
#556 = DIRECTION ( 'NONE',  ( 0.000000000000000000, 0.000000000000000000, 1.000000000000000000 ) ) ;
#557 = UNCERTAINTY_MEASURE_WITH_UNIT (LENGTH_MEASURE( 1.000000000000000082E-05 ), #139, 'distance_accuracy_value', 'NONE');
#558 = DIRECTION ( 'NONE',  ( 0.000000000000000000, 0.000000000000000000, 1.000000000000000000 ) ) ;
#559 = DIRECTION ( 'NONE',  ( 0.000000000000000000, 0.000000000000000000, 1.000000000000000000 ) ) ;
#560 = APPLICATION_PROTOCOL_DEFINITION ( 'draft international standard', 'automotive_design', 1998, #27 ) ;
#561 = CARTESIAN_POINT ( 'NONE',  ( 3.765876499528530985E-13, 21.40000000000054570, -4.000000000000000000 ) ) ;
#562 =( NAMED_UNIT ( * ) PLANE_ANGLE_UNIT ( ) SI_UNIT ( $, .RADIAN. ) );
#563 = EDGE_LOOP ( 'NONE', ( #294, #346, #205 ) ) ;
#564 = PRESENTATION_LAYER_ASSIGNMENT (  '', '', ( #307 ) ) ;
#565 = ORIENTED_EDGE ( 'NONE', *, *, #475, .T. ) ;
#566 = EDGE_CURVE ( 'NONE', #394, #485, #155, .T. ) ;
#567 = ORIENTED_EDGE ( 'NONE', *, *, #553, .F. ) ;
#568 = ORIENTED_EDGE ( 'NONE', *, *, #156, .F. ) ;
#569 = LINE ( 'NONE', #561, #264 ) ;
#570 = EDGE_LOOP ( 'NONE', ( #358, #208, #121 ) ) ;
#571 = EDGE_LOOP ( 'NONE', ( #567, #3, #487, #574 ) ) ;
#572 = EDGE_CURVE ( 'NONE', #216, #344, #36, .T. ) ;
#573 = CIRCLE ( 'NONE', #198, 4.000000000000000000 ) ;
#574 = ORIENTED_EDGE ( 'NONE', *, *, #338, .T. ) ;
#575 = CARTESIAN_POINT ( 'NONE',  ( 3.765876499528530985E-13, 48.30000000000049454, 0.000000000000000000 ) ) ;
#576 = CARTESIAN_POINT ( 'NONE',  ( 3.764349942869671395E-13, 21.50000000000054001, 0.000000000000000000 ) ) ;
ENDSEC;
END-ISO-10303-21;
