ISO-10303-21;
HEADER;
FILE_DESCRIPTION (( 'STEP AP214' ),
    '1' );
FILE_NAME ('99688-SI10-M06+S9MT1003-142.STEP',
    '2023-09-26T05:47:06',
    ( '' ),
    ( '' ),
    'SwSTEP 2.0',
    'SolidWorks 2020',
    '' );
FILE_SCHEMA (( 'AUTOMOTIVE_DESIGN' ));
ENDSEC;

DATA;
#1 = CARTESIAN_POINT ( 'NONE',  ( -2.950000000000045475, 35.03431457505081426, 0.000000000000000000 ) ) ;
#2 = ORIENTED_EDGE ( 'NONE', *, *, #69, .T. ) ;
#3 = EDGE_CURVE ( 'NONE', #103, #544, #380, .T. ) ;
#4 = DIRECTION ( 'NONE',  ( -4.495833333333385121E-15, 1.000000000000000000, -0.000000000000000000 ) ) ;
#5 = DIRECTION ( 'NONE',  ( -4.495833333333385121E-15, 1.000000000000000000, -0.000000000000000000 ) ) ;
#6 = CARTESIAN_POINT ( 'NONE',  ( 2.949999999999730615, 35.03431457505084268, 3.612708057484556511E-16 ) ) ;
#7 = CYLINDRICAL_SURFACE ( 'NONE', #155, 2.999999999999967137 ) ;
#8 = EDGE_CURVE ( 'NONE', #510, #674, #726, .T. ) ;
#9 = AXIS2_PLACEMENT_3D ( 'NONE', #781, #729, #392 ) ;
#10 = CONICAL_SURFACE ( 'NONE', #582, 3.500000000000034195, 1.047197551196563436 ) ;
#11 = CIRCLE ( 'NONE', #987, 5.000000000004812151 ) ;
#12 = DIRECTION ( 'NONE',  ( -1.000000000000000000, -4.510281037535357344E-15, 0.000000000000000000 ) ) ;
#13 = AXIS2_PLACEMENT_3D ( 'NONE', #54, #343, #430 ) ;
#14 = DIRECTION ( 'NONE',  ( -1.000000000000000000, -4.625929269271550009E-15, 0.000000000000000000 ) ) ;
#15 = ORIENTED_EDGE ( 'NONE', *, *, #536, .T. ) ;
#16 = CARTESIAN_POINT ( 'NONE',  ( -2.203000000000000054E-13, 48.99999999999995026, 0.000000000000000000 ) ) ;
#17 = DIRECTION ( 'NONE',  ( 0.000000000000000000, -0.000000000000000000, -1.000000000000000000 ) ) ;
#18 = CARTESIAN_POINT ( 'NONE',  ( -5.801042606982604290E-15, 1.000000000000507372, 0.000000000000000000 ) ) ;
#19 = ORIENTED_EDGE ( 'NONE', *, *, #512, .F. ) ;
#20 = CARTESIAN_POINT ( 'NONE',  ( -3.500000000000186517, 34.50000000000009237, 0.000000000000000000 ) ) ;
#21 = CARTESIAN_POINT ( 'NONE',  ( -3.000000000000187406, 47.00000000000002132, 3.673940397442030286E-16 ) ) ;
#22 = EDGE_CURVE ( 'NONE', #853, #85, #632, .T. ) ;
#23 = ORIENTED_EDGE ( 'NONE', *, *, #590, .F. ) ;
#24 = UNCERTAINTY_MEASURE_WITH_UNIT (LENGTH_MEASURE( 1.000000000000000082E-05 ), #675, 'distance_accuracy_value', 'NONE');
#25 = DIRECTION ( 'NONE',  ( 0.7071067811861369012, -0.7071067811869582442, 0.000000000000000000 ) ) ;
#26 = AXIS2_PLACEMENT_3D ( 'NONE', #854, #628, #463 ) ;
#27 = CIRCLE ( 'NONE', #886, 2.249999999999964917 ) ;
#28 = CARTESIAN_POINT ( 'NONE',  ( 3.249999999999706901, 40.00000000000002132, 3.980102097228753771E-16 ) ) ;
#29 = AXIS2_PLACEMENT_3D ( 'NONE', #925, #388, #313 ) ;
#30 = ORIENTED_EDGE ( 'NONE', *, *, #623, .T. ) ;
#31 = ORIENTED_EDGE ( 'NONE', *, *, #143, .T. ) ;
#32 = DIRECTION ( 'NONE',  ( 0.9455185755992888685, 0.3255681544572378572, 1.157926297142035569E-16 ) ) ;
#33 = FACE_OUTER_BOUND ( 'NONE', #457, .T. ) ;
#34 = VERTEX_POINT ( 'NONE', #879 ) ;
#35 = ADVANCED_FACE ( 'NONE', ( #174 ), #166, .T. ) ;
#36 = DIRECTION ( 'NONE',  ( -1.000000000000000000, -4.270088556250777024E-15, 0.000000000000000000 ) ) ;
#37 = ORIENTED_EDGE ( 'NONE', *, *, #754, .F. ) ;
#38 = ADVANCED_FACE ( 'NONE', ( #320 ), #926, .T. ) ;
#39 = DIRECTION ( 'NONE',  ( -4.495833333333385121E-15, 1.000000000000000000, -0.000000000000000000 ) ) ;
#40 = ORIENTED_EDGE ( 'NONE', *, *, #22, .F. ) ;
#41 = CARTESIAN_POINT ( 'NONE',  ( -1.798374999999997878E-13, 40.00000000000000711, 0.000000000000000000 ) ) ;
#42 = VECTOR ( 'NONE', #603, 999.9999999999998863 ) ;
#43 = EDGE_LOOP ( 'NONE', ( #23, #666, #643, #522 ) ) ;
#44 = VECTOR ( 'NONE', #563, 1000.000000000000000 ) ;
#45 = CIRCLE ( 'NONE', #305, 1.845299461620725223 ) ;
#46 = SURFACE_STYLE_FILL_AREA ( #587 ) ;
#47 = EDGE_CURVE ( 'NONE', #321, #544, #162, .T. ) ;
#48 = CARTESIAN_POINT ( 'NONE',  ( -1.596062499999999188E-13, 35.50000000000009237, 0.000000000000000000 ) ) ;
#49 = ORIENTED_EDGE ( 'NONE', *, *, #431, .F. ) ;
#50 =( NAMED_UNIT ( * ) SI_UNIT ( $, .STERADIAN. ) SOLID_ANGLE_UNIT ( ) );
#51 = CARTESIAN_POINT ( 'NONE',  ( 5.899999999999725908, 34.50000000000012079, 0.000000000000000000 ) ) ;
#52 = EDGE_CURVE ( 'NONE', #846, #103, #935, .T. ) ;
#53 = ORIENTED_EDGE ( 'NONE', *, *, #878, .F. ) ;
#54 = CARTESIAN_POINT ( 'NONE',  ( -2.203000000000000054E-13, 48.99999999999995026, 0.000000000000000000 ) ) ;
#55 = DIRECTION ( 'NONE',  ( -4.495833333333385121E-15, 1.000000000000000000, -0.000000000000000000 ) ) ;
#56 = DIRECTION ( 'NONE',  ( -1.000000000000000000, -4.510909242604470730E-15, 0.000000000000000000 ) ) ;
#57 = AXIS2_PLACEMENT_3D ( 'NONE', #148, #847, #453 ) ;
#58 = AXIS2_PLACEMENT_3D ( 'NONE', #466, #158, #951 ) ;
#59 = ORIENTED_EDGE ( 'NONE', *, *, #890, .T. ) ;
#60 = CIRCLE ( 'NONE', #170, 3.249999999999866773 ) ;
#61 = AXIS2_PLACEMENT_3D ( 'NONE', #980, #70, #141 ) ;
#62 = CARTESIAN_POINT ( 'NONE',  ( 3.249999999999706901, 40.00000000000002132, 0.000000000000000000 ) ) ;
#63 = DIRECTION ( 'NONE',  ( -1.000000000000000000, -4.495833333333385121E-15, 0.000000000000000000 ) ) ;
#64 = DIRECTION ( 'NONE',  ( -4.495833333333385121E-15, 1.000000000000000000, -0.000000000000000000 ) ) ;
#65 = EDGE_CURVE ( 'NONE', #625, #973, #284, .T. ) ;
#66 = CARTESIAN_POINT ( 'NONE',  ( 2.999999999999765521, 47.00000000000004974, 3.673940397442024862E-16 ) ) ;
#67 = EDGE_LOOP ( 'NONE', ( #936, #147, #179, #830 ) ) ;
#68 = CARTESIAN_POINT ( 'NONE',  ( -1.551104166666666118E-13, 34.50000000000010658, 0.000000000000000000 ) ) ;
#69 = EDGE_CURVE ( 'NONE', #946, #674, #311, .T. ) ;
#70 = DIRECTION ( 'NONE',  ( 4.495833333333385121E-15, -1.000000000000000000, 0.000000000000000000 ) ) ;
#71 = EDGE_LOOP ( 'NONE', ( #882, #15, #427, #840 ) ) ;
#72 = MECHANICAL_DESIGN_GEOMETRIC_PRESENTATION_REPRESENTATION (  '', ( #218 ), #92 ) ;
#73 = AXIS2_PLACEMENT_3D ( 'NONE', #585, #190, #960 ) ;
#74 = DIRECTION ( 'NONE',  ( -1.000000000000000000, -3.965082230804091960E-15, 0.000000000000000000 ) ) ;
#75 = ORIENTED_EDGE ( 'NONE', *, *, #22, .T. ) ;
#76 = CIRCLE ( 'NONE', #843, 5.999999999999919176 ) ;
#77 = AXIS2_PLACEMENT_3D ( 'NONE', #866, #932, #12 ) ;
#78 = DIRECTION ( 'NONE',  ( 0.7071067811865936470, 0.7071067811865014985, 8.659560562355538062E-17 ) ) ;
#79 = ADVANCED_FACE ( 'NONE', ( #231 ), #720, .T. ) ;
#80 = CARTESIAN_POINT ( 'NONE',  ( -1.575126059436655118E-13, 35.03431457505082847, 0.000000000000000000 ) ) ;
#81 = CARTESIAN_POINT ( 'NONE',  ( -1.798374999999997878E-13, 40.00000000000000711, 0.000000000000000000 ) ) ;
#82 = DIRECTION ( 'NONE',  ( -4.495833333333385121E-15, 1.000000000000000000, -0.000000000000000000 ) ) ;
#83 = EDGE_CURVE ( 'NONE', #34, #923, #549, .T. ) ;
#84 = CARTESIAN_POINT ( 'NONE',  ( -2.203000000000000054E-13, 48.99999999999995026, 0.000000000000000000 ) ) ;
#85 = VERTEX_POINT ( 'NONE', #945 ) ;
#86 = DIRECTION ( 'NONE',  ( -1.000000000000000000, -4.270088556250717070E-15, 0.000000000000000000 ) ) ;
#87 = ORIENTED_EDGE ( 'NONE', *, *, #444, .F. ) ;
#88 = LINE ( 'NONE', #700, #551 ) ;
#89 = DIRECTION ( 'NONE',  ( -1.000000000000000000, -4.510281037535357344E-15, 0.000000000000000000 ) ) ;
#90 = EDGE_LOOP ( 'NONE', ( #308, #869, #644, #749 ) ) ;
#91 = CARTESIAN_POINT ( 'NONE',  ( -5.000000000004858336, 10.26393202249704117, 0.000000000000000000 ) ) ;
#92 =( GEOMETRIC_REPRESENTATION_CONTEXT ( 3 ) GLOBAL_UNCERTAINTY_ASSIGNED_CONTEXT ( ( #638 ) ) GLOBAL_UNIT_ASSIGNED_CONTEXT ( ( #353, #979, #50 ) ) REPRESENTATION_CONTEXT ( 'NONE', 'WORKASPACE' ) );
#93 = CIRCLE ( 'NONE', #497, 5.999999999999821476 ) ;
#94 = CIRCLE ( 'NONE', #694, 2.949999999999894484 ) ;
#95 = CARTESIAN_POINT ( 'NONE',  ( 2.749999999999789502, 40.50000000000007105, 0.000000000000000000 ) ) ;
#96 = CIRCLE ( 'NONE', #382, 0.3999999999999997446 ) ;
#97 = DIRECTION ( 'NONE',  ( -1.000000000000000000, -4.625929269271623373E-15, 0.000000000000000000 ) ) ;
#98 = ORIENTED_EDGE ( 'NONE', *, *, #226, .T. ) ;
#99 = DIRECTION ( 'NONE',  ( -4.495833333333385121E-15, 1.000000000000000000, -0.000000000000000000 ) ) ;
#100 = ADVANCED_FACE ( 'NONE', ( #702 ), #514, .F. ) ;
#101 = CYLINDRICAL_SURFACE ( 'NONE', #350, 5.000000000004805045 ) ;
#102 = DIRECTION ( 'NONE',  ( -1.000000000000000000, -4.704334850106769541E-15, 0.000000000000000000 ) ) ;
#103 = VERTEX_POINT ( 'NONE', #6 ) ;
#104 = DIRECTION ( 'NONE',  ( -4.495833333333385121E-15, 1.000000000000000000, -0.000000000000000000 ) ) ;
#105 = CYLINDRICAL_SURFACE ( 'NONE', #251, 2.949999999999890932 ) ;
#106 = ORIENTED_EDGE ( 'NONE', *, *, #536, .F. ) ;
#107 = ORIENTED_EDGE ( 'NONE', *, *, #953, .T. ) ;
#108 = CARTESIAN_POINT ( 'NONE',  ( 5.999999999999764633, 34.39999999999996305, 0.000000000000000000 ) ) ;
#109 = AXIS2_PLACEMENT_3D ( 'NONE', #160, #369, #295 ) ;
#110 = CONICAL_SURFACE ( 'NONE', #61, 5.999999999999919176, 0.7853981633968628584 ) ;
#111 = LINE ( 'NONE', #114, #433 ) ;
#112 = EDGE_CURVE ( 'NONE', #216, #683, #314, .T. ) ;
#113 = ORIENTED_EDGE ( 'NONE', *, *, #701, .T. ) ;
#114 = CARTESIAN_POINT ( 'NONE',  ( -3.000000000000187406, 48.99999999999993605, 0.000000000000000000 ) ) ;
#115 = EDGE_CURVE ( 'NONE', #961, #142, #233, .T. ) ;
#116 = ORIENTED_EDGE ( 'NONE', *, *, #115, .F. ) ;
#117 = PLANE ( 'NONE',  #983 ) ;
#118 = ORIENTED_EDGE ( 'NONE', *, *, #454, .F. ) ;
#119 = PRESENTATION_STYLE_ASSIGNMENT (( #196 ) ) ;
#120 = AXIS2_PLACEMENT_3D ( 'NONE', #688, #299, #915 ) ;
#121 = DIRECTION ( 'NONE',  ( -1.000000000000000000, -4.704334850106769541E-15, 0.000000000000000000 ) ) ;
#122 = VECTOR ( 'NONE', #193, 1000.000000000000000 ) ;
#123 = VECTOR ( 'NONE', #865, 1000.000000000000114 ) ;
#124 = ORIENTED_EDGE ( 'NONE', *, *, #616, .F. ) ;
#125 = AXIS2_PLACEMENT_3D ( 'NONE', #719, #635, #782 ) ;
#126 = EDGE_CURVE ( 'NONE', #923, #752, #347, .T. ) ;
#127 = DIRECTION ( 'NONE',  ( -4.495833333333385121E-15, 1.000000000000000000, -0.000000000000000000 ) ) ;
#128 = VERTEX_POINT ( 'NONE', #636 ) ;
#129 = FILL_AREA_STYLE_COLOUR ( '', #271 ) ;
#130 = CARTESIAN_POINT ( 'NONE',  ( -3.250000000000067057, 34.35566243270260145, 0.000000000000000000 ) ) ;
#131 = ORIENTED_EDGE ( 'NONE', *, *, #642, .F. ) ;
#132 = DIRECTION ( 'NONE',  ( -1.000000000000000000, -4.495833333333385121E-15, 0.000000000000000000 ) ) ;
#133 = ORIENTED_EDGE ( 'NONE', *, *, #819, .F. ) ;
#134 = DIRECTION ( 'NONE',  ( -1.224646799147353207E-16, -5.505807901166705309E-31, 1.000000000000000000 ) ) ;
#135 = CARTESIAN_POINT ( 'NONE',  ( -1.856154119295183591E-13, 41.24161984870963238, 0.000000000000000000 ) ) ;
#136 = AXIS2_PLACEMENT_3D ( 'NONE', #796, #406, #560 ) ;
#137 = EDGE_CURVE ( 'NONE', #339, #421, #496, .T. ) ;
#138 = ORIENTED_EDGE ( 'NONE', *, *, #470, .T. ) ;
#139 = AXIS2_PLACEMENT_3D ( 'NONE', #574, #492, #420 ) ;
#140 = DIRECTION ( 'NONE',  ( -1.000000000000000000, -4.524641714416864339E-15, 0.000000000000000000 ) ) ;
#141 = DIRECTION ( 'NONE',  ( 1.000000000000000000, 4.625929269271547642E-15, 0.000000000000000000 ) ) ;
#142 = VERTEX_POINT ( 'NONE', #822 ) ;
#143 = EDGE_CURVE ( 'NONE', #537, #529, #60, .T. ) ;
#144 = CYLINDRICAL_SURFACE ( 'NONE', #202, 3.249999999999876987 ) ;
#145 = PRODUCT_RELATED_PRODUCT_CATEGORY ( 'part', '', ( #897 ) ) ;
#146 = FACE_OUTER_BOUND ( 'NONE', #640, .T. ) ;
#147 = ORIENTED_EDGE ( 'NONE', *, *, #65, .F. ) ;
#148 = CARTESIAN_POINT ( 'NONE',  ( -1.910770833333318058E-13, 42.49999999999968736, 0.000000000000000000 ) ) ;
#149 = EDGE_LOOP ( 'NONE', ( #906, #49, #374, #301 ) ) ;
#150 = EDGE_CURVE ( 'NONE', #85, #853, #93, .T. ) ;
#151 = DIRECTION ( 'NONE',  ( -4.495833333333385121E-15, 1.000000000000000000, -0.000000000000000000 ) ) ;
#152 = VERTEX_POINT ( 'NONE', #344 ) ;
#153 = DIRECTION ( 'NONE',  ( -1.000000000000000000, 0.000000000000000000, 0.000000000000000000 ) ) ;
#154 = VECTOR ( 'NONE', #319, 1000.000000000000000 ) ;
#155 = AXIS2_PLACEMENT_3D ( 'NONE', #408, #798, #793 ) ;
#156 = ADVANCED_FACE ( 'NONE', ( #668 ), #903, .T. ) ;
#157 = DIRECTION ( 'NONE',  ( -4.495833333333385121E-15, 1.000000000000000000, -0.000000000000000000 ) ) ;
#158 = DIRECTION ( 'NONE',  ( -4.495833333333385121E-15, 1.000000000000000000, -0.000000000000000000 ) ) ;
#159 = EDGE_LOOP ( 'NONE', ( #757, #296 ) ) ;
#160 = CARTESIAN_POINT ( 'NONE',  ( -1.574261554448952438E-13, 35.03431457505080004, 0.000000000000000000 ) ) ;
#161 = CARTESIAN_POINT ( 'NONE',  ( 3.249999999999758415, 34.35566243270262987, 4.133182947122284133E-16 ) ) ;
#162 = LINE ( 'NONE', #247, #613 ) ;
#163 = ORIENTED_EDGE ( 'NONE', *, *, #291, .T. ) ;
#164 = DIRECTION ( 'NONE',  ( -0.7071067811864497621, -0.7071067811866452724, 8.659560562353775451E-17 ) ) ;
#165 = CARTESIAN_POINT ( 'NONE',  ( 2.499999999999417799, 42.49999999999969447, 3.061616997867904401E-16 ) ) ;
#166 = CYLINDRICAL_SURFACE ( 'NONE', #598, 2.949999999999890932 ) ;
#167 = EDGE_CURVE ( 'NONE', #923, #733, #111, .T. ) ;
#168 = ORIENTED_EDGE ( 'NONE', *, *, #773, .F. ) ;
#169 = DIRECTION ( 'NONE',  ( 1.000000000000000000, 4.625929269271522399E-15, 0.000000000000000000 ) ) ;
#170 = AXIS2_PLACEMENT_3D ( 'NONE', #48, #658, #36 ) ;
#171 = VECTOR ( 'NONE', #779, 1000.000000000000114 ) ;
#172 = AXIS2_PLACEMENT_3D ( 'NONE', #290, #907, #426 ) ;
#173 = CARTESIAN_POINT ( 'NONE',  ( 5.000000000004786394, 2.721638066450962956, 6.123233995742643296E-16 ) ) ;
#174 = FACE_OUTER_BOUND ( 'NONE', #90, .T. ) ;
#175 = DIRECTION ( 'NONE',  ( -0.7071067811861303509, -0.7071067811869646835, 8.659560562349863194E-17 ) ) ;
#176 = ADVANCED_FACE ( 'NONE', ( #33 ), #105, .T. ) ;
#177 = DIRECTION ( 'NONE',  ( -1.000000000000000000, -5.046468293750763469E-15, 0.000000000000000000 ) ) ;
#178 = EDGE_LOOP ( 'NONE', ( #220, #133 ) ) ;
#179 = ORIENTED_EDGE ( 'NONE', *, *, #338, .T. ) ;
#180 = CARTESIAN_POINT ( 'NONE',  ( -3.250000000000067057, 39.99999999999999289, 3.980102097228759688E-16 ) ) ;
#181 = ORIENTED_EDGE ( 'NONE', *, *, #324, .F. ) ;
#182 = ADVANCED_FACE ( 'NONE', ( #976 ), #565, .F. ) ;
#183 = CARTESIAN_POINT ( 'NONE',  ( -5.620208333328622268E-14, 12.49999999998989431, 0.000000000000000000 ) ) ;
#184 = ORIENTED_EDGE ( 'NONE', *, *, #390, .F. ) ;
#185 = DIRECTION ( 'NONE',  ( -4.495833333333385121E-15, 1.000000000000000000, -0.000000000000000000 ) ) ;
#186 = CIRCLE ( 'NONE', #693, 3.249999999999887201 ) ;
#187 = VECTOR ( 'NONE', #996, 1000.000000000000000 ) ;
#188 = EDGE_CURVE ( 'NONE', #510, #142, #270, .T. ) ;
#189 = AXIS2_PLACEMENT_3D ( 'NONE', #885, #731, #889 ) ;
#190 = DIRECTION ( 'NONE',  ( -1.224646799147353207E-16, -5.505807901166705309E-31, 1.000000000000000000 ) ) ;
#191 = SHAPE_DEFINITION_REPRESENTATION ( #293, #275 ) ;
#192 = CARTESIAN_POINT ( 'NONE',  ( -1.551104166666665613E-13, 34.50000000000009237, 0.000000000000000000 ) ) ;
#193 = DIRECTION ( 'NONE',  ( -0.8660254037844237196, 0.5000000000000258682, 0.000000000000000000 ) ) ;
#194 = ORIENTED_EDGE ( 'NONE', *, *, #291, .F. ) ;
#195 = PLANE ( 'NONE',  #791 ) ;
#196 = SURFACE_STYLE_USAGE ( .BOTH. , #892 ) ;
#197 = EDGE_LOOP ( 'NONE', ( #887, #745, #113, #896 ) ) ;
#198 = CARTESIAN_POINT ( 'NONE',  ( -2.250000000000136335, 41.24161984870963238, 0.000000000000000000 ) ) ;
#199 = ORIENTED_EDGE ( 'NONE', *, *, #126, .T. ) ;
#200 = CARTESIAN_POINT ( 'NONE',  ( 3.499999999999879208, 34.50000000000011369, 0.000000000000000000 ) ) ;
#201 = EDGE_CURVE ( 'NONE', #846, #477, #203, .T. ) ;
#202 = AXIS2_PLACEMENT_3D ( 'NONE', #542, #924, #545 ) ;
#203 = CIRCLE ( 'NONE', #73, 0.1999999999999996503 ) ;
#204 = DIRECTION ( 'NONE',  ( -4.495833333333385121E-15, 1.000000000000000000, -0.000000000000000000 ) ) ;
#205 = ORIENTED_EDGE ( 'NONE', *, *, #150, .T. ) ;
#206 = CARTESIAN_POINT ( 'NONE',  ( 0.000000000000000000, 0.000000000000000000, 0.000000000000000000 ) ) ;
#207 = DIRECTION ( 'NONE',  ( -1.000000000000000000, 0.000000000000000000, 0.000000000000000000 ) ) ;
#208 = ORIENTED_EDGE ( 'NONE', *, *, #862, .F. ) ;
#209 = CARTESIAN_POINT ( 'NONE',  ( 3.499999999999879208, 34.50000000000012079, 4.286263797015778010E-16 ) ) ;
#210 = ORIENTED_EDGE ( 'NONE', *, *, #65, .T. ) ;
#211 = DIRECTION ( 'NONE',  ( -1.000000000000000000, -3.965082230804091960E-15, 0.000000000000000000 ) ) ;
#212 = ADVANCED_FACE ( 'NONE', ( #279 ), #857, .T. ) ;
#213 = LINE ( 'NONE', #359, #187 ) ;
#214 = EDGE_LOOP ( 'NONE', ( #194, #75, #437, #891 ) ) ;
#215 = DIRECTION ( 'NONE',  ( -4.495833333333385121E-15, 1.000000000000000000, -0.000000000000000000 ) ) ;
#216 = VERTEX_POINT ( 'NONE', #198 ) ;
#217 = DIRECTION ( 'NONE',  ( -4.495833333333385121E-15, 1.000000000000000000, -0.000000000000000000 ) ) ;
#218 = STYLED_ITEM ( 'NONE', ( #119 ), #682 ) ;
#219 = VECTOR ( 'NONE', #483, 1000.000000000000227 ) ;
#220 = ORIENTED_EDGE ( 'NONE', *, *, #696, .F. ) ;
#221 = AXIS2_PLACEMENT_3D ( 'NONE', #405, #861, #858 ) ;
#222 = FACE_OUTER_BOUND ( 'NONE', #71, .T. ) ;
#223 = CONICAL_SURFACE ( 'NONE', #828, 2.999999999999976019, 0.5235987755983178005 ) ;
#224 = VERTEX_POINT ( 'NONE', #972 ) ;
#225 = CARTESIAN_POINT ( 'NONE',  ( -1.552402001959277470E-13, 34.52886751345948824, 0.000000000000000000 ) ) ;
#226 = EDGE_CURVE ( 'NONE', #575, #956, #266, .T. ) ;
#227 = CARTESIAN_POINT ( 'NONE',  ( 2.499999999999419131, 42.49999999999969447, 3.061616997867906373E-16 ) ) ;
#228 = DIRECTION ( 'NONE',  ( -1.000000000000000000, -5.551115123126647294E-15, 0.000000000000000000 ) ) ;
#229 = EDGE_CURVE ( 'NONE', #488, #823, #76, .T. ) ;
#230 = LINE ( 'NONE', #708, #44 ) ;
#231 = FACE_OUTER_BOUND ( 'NONE', #214, .T. ) ;
#232 = ORIENTED_EDGE ( 'NONE', *, *, #438, .F. ) ;
#233 = CIRCLE ( 'NONE', #965, 5.000000000004812151 ) ;
#234 = DIRECTION ( 'NONE',  ( -4.495833333333385121E-15, 1.000000000000000000, -0.000000000000000000 ) ) ;
#235 = AXIS2_PLACEMENT_3D ( 'NONE', #206, #750, #809 ) ;
#236 = CIRCLE ( 'NONE', #917, 0.7999999999999994893 ) ;
#237 = CARTESIAN_POINT ( 'NONE',  ( -3.250000000000026201, 35.50000000000007816, 0.000000000000000000 ) ) ;
#238 = ORIENTED_EDGE ( 'NONE', *, *, #725, .T. ) ;
#239 = DIRECTION ( 'NONE',  ( -4.495833333333385121E-15, 1.000000000000000000, -0.000000000000000000 ) ) ;
#240 = FACE_OUTER_BOUND ( 'NONE', #801, .T. ) ;
#241 = ADVANCED_FACE ( 'NONE', ( #336 ), #117, .F. ) ;
#242 = DIRECTION ( 'NONE',  ( -4.495833333333385121E-15, 1.000000000000000000, -0.000000000000000000 ) ) ;
#243 = VERTEX_POINT ( 'NONE', #28 ) ;
#244 = FACE_OUTER_BOUND ( 'NONE', #736, .T. ) ;
#245 = CARTESIAN_POINT ( 'NONE',  ( 5.999999999999764633, 34.39999999999996305, 7.347880794883991546E-16 ) ) ;
#246 = ADVANCED_FACE ( 'NONE', ( #957 ), #630, .T. ) ;
#247 = CARTESIAN_POINT ( 'NONE',  ( -2.950000000000111200, 48.99999999999993605, 0.000000000000000000 ) ) ;
#248 = EDGE_LOOP ( 'NONE', ( #914, #442, #716, #19 ) ) ;
#249 = FACE_OUTER_BOUND ( 'NONE', #401, .T. ) ;
#250 = AXIS2_PLACEMENT_3D ( 'NONE', #605, #703, #921 ) ;
#251 = AXIS2_PLACEMENT_3D ( 'NONE', #806, #894, #121 ) ;
#252 = EDGE_CURVE ( 'NONE', #421, #339, #728, .T. ) ;
#253 = VECTOR ( 'NONE', #918, 1000.000000000000000 ) ;
#254 = VECTOR ( 'NONE', #756, 1000.000000000000000 ) ;
#255 = CARTESIAN_POINT ( 'NONE',  ( -1.596062499999999188E-13, 35.50000000000009237, 0.000000000000000000 ) ) ;
#256 = ORIENTED_EDGE ( 'NONE', *, *, #890, .F. ) ;
#257 = ORIENTED_EDGE ( 'NONE', *, *, #425, .F. ) ;
#258 = ORIENTED_EDGE ( 'NONE', *, *, #137, .F. ) ;
#259 = CARTESIAN_POINT ( 'NONE',  ( -4.499999999999999758E-15, 1.000000000000506040, 0.000000000000000000 ) ) ;
#260 = EDGE_CURVE ( 'NONE', #561, #34, #365, .T. ) ;
#261 = ORIENTED_EDGE ( 'NONE', *, *, #486, .T. ) ;
#262 = DIRECTION ( 'NONE',  ( -4.495833333333385121E-15, 1.000000000000000000, -0.000000000000000000 ) ) ;
#263 = ORIENTED_EDGE ( 'NONE', *, *, #425, .T. ) ;
#264 = CARTESIAN_POINT ( 'NONE',  ( -3.000000000000154543, 42.99999999999995026, 0.000000000000000000 ) ) ;
#265 = ADVANCED_FACE ( 'NONE', ( #812 ), #422, .T. ) ;
#266 = LINE ( 'NONE', #881, #122 ) ;
#267 = APPLICATION_PROTOCOL_DEFINITION ( 'draft international standard', 'automotive_design', 1998, #941 ) ;
#268 = TOROIDAL_SURFACE ( 'NONE', #109, 3.349999999999887734, 0.3999999999999996336 ) ;
#269 = AXIS2_PLACEMENT_3D ( 'NONE', #835, #217, #455 ) ;
#270 = LINE ( 'NONE', #667, #378 ) ;
#271 = COLOUR_RGB ( '',0.7921568627450980005, 0.8196078431372548767, 0.9333333333333333481 ) ;
#272 = EDGE_LOOP ( 'NONE', ( #31, #503, #618, #232 ) ) ;
#273 = FACE_OUTER_BOUND ( 'NONE', #294, .T. ) ;
#274 = ORIENTED_EDGE ( 'NONE', *, *, #862, .T. ) ;
#275 = ADVANCED_BREP_SHAPE_REPRESENTATION ( '99688-SI10-M06+S9MT1003-142', ( #682, #235 ), #462 ) ;
#276 = DIRECTION ( 'NONE',  ( -4.495833333333385121E-15, 1.000000000000000000, -0.000000000000000000 ) ) ;
#277 = ADVANCED_FACE ( 'NONE', ( #439 ), #539, .T. ) ;
#278 = ORIENTED_EDGE ( 'NONE', *, *, #819, .T. ) ;
#279 = FACE_OUTER_BOUND ( 'NONE', #880, .T. ) ;
#280 = ORIENTED_EDGE ( 'NONE', *, *, #743, .T. ) ;
#281 = DIRECTION ( 'NONE',  ( -1.000000000000000000, -4.510281037535370755E-15, 0.000000000000000000 ) ) ;
#282 = CIRCLE ( 'NONE', #120, 0.7999999999999986011 ) ;
#283 = AXIS2_PLACEMENT_3D ( 'NONE', #564, #571, #627 ) ;
#284 = CIRCLE ( 'NONE', #136, 1.845299461620725223 ) ;
#285 = LINE ( 'NONE', #209, #381 ) ;
#286 = AXIS2_PLACEMENT_3D ( 'NONE', #479, #485, #803 ) ;
#287 = ORIENTED_EDGE ( 'NONE', *, *, #502, .F. ) ;
#288 = CIRCLE ( 'NONE', #697, 2.949999999999887823 ) ;
#289 = FACE_OUTER_BOUND ( 'NONE', #159, .T. ) ;
#290 = CARTESIAN_POINT ( 'NONE',  ( -1.587842196384991295E-13, 35.31715728752541139, 0.000000000000000000 ) ) ;
#291 = EDGE_CURVE ( 'NONE', #853, #488, #534, .T. ) ;
#292 = ORIENTED_EDGE ( 'NONE', *, *, #799, .F. ) ;
#293 = PRODUCT_DEFINITION_SHAPE ( 'NONE', 'NONE',  #734 ) ;
#294 = EDGE_LOOP ( 'NONE', ( #280, #620, #402, #706 ) ) ;
#295 = DIRECTION ( 'NONE',  ( -1.000000000000000000, -4.495833333333385121E-15, 0.000000000000000000 ) ) ;
#296 = ORIENTED_EDGE ( 'NONE', *, *, #590, .T. ) ;
#297 = DIRECTION ( 'NONE',  ( -4.495833333333385121E-15, 1.000000000000000000, -0.000000000000000000 ) ) ;
#298 = VERTEX_POINT ( 'NONE', #51 ) ;
#299 = DIRECTION ( 'NONE',  ( 0.000000000000000000, -0.000000000000000000, -1.000000000000000000 ) ) ;
#300 = VECTOR ( 'NONE', #234, 1000.000000000000000 ) ;
#301 = ORIENTED_EDGE ( 'NONE', *, *, #137, .T. ) ;
#302 = CIRCLE ( 'NONE', #776, 0.7999999999999986011 ) ;
#303 = AXIS2_PLACEMENT_3D ( 'NONE', #432, #827, #207 ) ;
#304 = CARTESIAN_POINT ( 'NONE',  ( -1.910770833333318058E-13, 42.49999999999968736, 0.000000000000000000 ) ) ;
#305 = AXIS2_PLACEMENT_3D ( 'NONE', #877, #185, #656 ) ;
#306 = CARTESIAN_POINT ( 'NONE',  ( 3.499999999999882316, 34.50000000000012079, 4.286263797015781954E-16 ) ) ;
#307 = ADVANCED_FACE ( 'NONE', ( #695 ), #931, .T. ) ;
#308 = ORIENTED_EDGE ( 'NONE', *, *, #52, .F. ) ;
#309 = LINE ( 'NONE', #990, #300 ) ;
#310 = DIRECTION ( 'NONE',  ( -1.224646799147353207E-16, -5.505807901166705309E-31, 1.000000000000000000 ) ) ;
#311 = LINE ( 'NONE', #18, #219 ) ;
#312 = DIRECTION ( 'NONE',  ( -1.000000000000000000, -3.083952846181048065E-15, 0.000000000000000000 ) ) ;
#313 = DIRECTION ( 'NONE',  ( -1.000000000000000000, -4.510281037535357344E-15, 0.000000000000000000 ) ) ;
#314 = LINE ( 'NONE', #631, #930 ) ;
#315 = ORIENTED_EDGE ( 'NONE', *, *, #743, .F. ) ;
#316 = LINE ( 'NONE', #562, #759 ) ;
#317 = CIRCLE ( 'NONE', #303, 0.1999999999999996503 ) ;
#318 = EDGE_CURVE ( 'NONE', #674, #961, #213, .T. ) ;
#319 = DIRECTION ( 'NONE',  ( -4.495833333333385121E-15, 1.000000000000000000, -0.000000000000000000 ) ) ;
#320 = FACE_OUTER_BOUND ( 'NONE', #423, .T. ) ;
#321 = VERTEX_POINT ( 'NONE', #377 ) ;
#322 = DIRECTION ( 'NONE',  ( -1.000000000000000000, -4.625929269271536598E-15, 0.000000000000000000 ) ) ;
#323 = ORIENTED_EDGE ( 'NONE', *, *, #390, .T. ) ;
#324 = EDGE_CURVE ( 'NONE', #846, #321, #94, .T. ) ;
#325 = LINE ( 'NONE', #704, #599 ) ;
#326 = DIRECTION ( 'NONE',  ( -4.495833333333385121E-15, 1.000000000000000000, -0.000000000000000000 ) ) ;
#327 = EDGE_LOOP ( 'NONE', ( #572, #849, #168, #525 ) ) ;
#328 = FACE_OUTER_BOUND ( 'NONE', #864, .T. ) ;
#329 = CARTESIAN_POINT ( 'NONE',  ( -1.587842196384991295E-13, 35.31715728752541139, 0.000000000000000000 ) ) ;
#330 = CARTESIAN_POINT ( 'NONE',  ( -2.203000000000000054E-13, 48.99999999999995026, 0.000000000000000000 ) ) ;
#331 = ADVANCED_FACE ( 'NONE', ( #146 ), #418, .F. ) ;
#332 = ORIENTED_EDGE ( 'NONE', *, *, #348, .F. ) ;
#333 = CARTESIAN_POINT ( 'NONE',  ( -1.546608333333325213E-13, 34.39999999999993463, 0.000000000000000000 ) ) ;
#334 = CIRCLE ( 'NONE', #676, 2.499999999999610534 ) ;
#335 = AXIS2_PLACEMENT_3D ( 'NONE', #913, #17, #787 ) ;
#336 = FACE_OUTER_BOUND ( 'NONE', #591, .T. ) ;
#337 = ORIENTED_EDGE ( 'NONE', *, *, #438, .T. ) ;
#338 = EDGE_CURVE ( 'NONE', #625, #389, #524, .T. ) ;
#339 = VERTEX_POINT ( 'NONE', #673 ) ;
#340 = LINE ( 'NONE', #959, #875 ) ;
#341 = DIRECTION ( 'NONE',  ( -4.495833333333385121E-15, 1.000000000000000000, -0.000000000000000000 ) ) ;
#342 = ORIENTED_EDGE ( 'NONE', *, *, #112, .T. ) ;
#343 = DIRECTION ( 'NONE',  ( -4.495833333333385121E-15, 1.000000000000000000, -0.000000000000000000 ) ) ;
#344 = CARTESIAN_POINT ( 'NONE',  ( -3.067157287525414944, 35.31715728752539718, 0.000000000000000000 ) ) ;
#345 = ORIENTED_EDGE ( 'NONE', *, *, #3, .T. ) ;
#346 = DIRECTION ( 'NONE',  ( -4.495833333333385121E-15, 1.000000000000000000, -0.000000000000000000 ) ) ;
#347 = CIRCLE ( 'NONE', #416, 2.999999999999958256 ) ;
#348 = EDGE_CURVE ( 'NONE', #733, #389, #614, .T. ) ;
#349 = CIRCLE ( 'NONE', #916, 5.899999999999881339 ) ;
#350 = AXIS2_PLACEMENT_3D ( 'NONE', #469, #458, #474 ) ;
#351 = ORIENTED_EDGE ( 'NONE', *, *, #338, .F. ) ;
#352 = DIRECTION ( 'NONE',  ( 1.000000000000000000, 4.495833333333385121E-15, 0.000000000000000000 ) ) ;
#353 =( LENGTH_UNIT ( ) NAMED_UNIT ( * ) SI_UNIT ( .MILLI., .METRE. ) );
#354 = ADVANCED_FACE ( 'NONE', ( #767 ), #110, .T. ) ;
#355 = CARTESIAN_POINT ( 'NONE',  ( -1.820854166666667064E-13, 40.50000000000005684, 0.000000000000000000 ) ) ;
#356 = ORIENTED_EDGE ( 'NONE', *, *, #839, .T. ) ;
#357 = DIRECTION ( 'NONE',  ( 1.000000000000000000, 0.000000000000000000, 1.224646799147352221E-16 ) ) ;
#358 = CARTESIAN_POINT ( 'NONE',  ( -2.250000000000153655, 41.91905249806890765, 0.000000000000000000 ) ) ;
#359 = CARTESIAN_POINT ( 'NONE',  ( -5.000000000005025313, 48.99999999999992895, 0.000000000000000000 ) ) ;
#360 = ADVANCED_FACE ( 'NONE', ( #451 ), #774, .T. ) ;
#361 = PRODUCT_CONTEXT ( 'NONE', #941, 'mechanical' ) ;
#362 = CARTESIAN_POINT ( 'NONE',  ( 1.845299461620504955, 48.99999999999995026, 0.000000000000000000 ) ) ;
#363 = AXIS2_PLACEMENT_3D ( 'NONE', #940, #800, #724 ) ;
#364 = CARTESIAN_POINT ( 'NONE',  ( -1.551104166666666118E-13, 34.50000000000010658, 0.000000000000000000 ) ) ;
#365 = CIRCLE ( 'NONE', #139, 2.499999999999610534 ) ;
#366 = VERTEX_POINT ( 'NONE', #306 ) ;
#367 = AXIS2_PLACEMENT_3D ( 'NONE', #255, #888, #815 ) ;
#368 = EDGE_CURVE ( 'NONE', #477, #366, #285, .T. ) ;
#369 = DIRECTION ( 'NONE',  ( -4.495833333333385121E-15, 1.000000000000000000, -0.000000000000000000 ) ) ;
#370 = DIRECTION ( 'NONE',  ( -1.000000000000000000, -4.163336342340335924E-15, 0.000000000000000000 ) ) ;
#371 = DIRECTION ( 'NONE',  ( -1.000000000000000000, -4.495833333333384332E-15, 0.000000000000000000 ) ) ;
#372 = ORIENTED_EDGE ( 'NONE', *, *, #465, .F. ) ;
#373 = CARTESIAN_POINT ( 'NONE',  ( -2.113083333333336185E-13, 47.00000000000003553, 0.000000000000000000 ) ) ;
#374 = ORIENTED_EDGE ( 'NONE', *, *, #799, .T. ) ;
#375 = DIRECTION ( 'NONE',  ( -4.495833333333385121E-15, 1.000000000000000000, -0.000000000000000000 ) ) ;
#376 = EDGE_CURVE ( 'NONE', #152, #537, #829, .T. ) ;
#377 = CARTESIAN_POINT ( 'NONE',  ( -2.950000000000049916, 34.52886751345947403, 0.000000000000000000 ) ) ;
#378 = VECTOR ( 'NONE', #506, 1000.000000000000000 ) ;
#379 = ORIENTED_EDGE ( 'NONE', *, *, #115, .T. ) ;
#380 = CIRCLE ( 'NONE', #597, 2.949999999999887823 ) ;
#381 = VECTOR ( 'NONE', #443, 1000.000000000000114 ) ;
#382 = AXIS2_PLACEMENT_3D ( 'NONE', #586, #974, #357 ) ;
#383 = CIRCLE ( 'NONE', #788, 2.999999999999976019 ) ;
#384 = FACE_OUTER_BOUND ( 'NONE', #197, .T. ) ;
#385 = DIRECTION ( 'NONE',  ( -1.000000000000000000, -3.083952846181057925E-15, 0.000000000000000000 ) ) ;
#386 = DIRECTION ( 'NONE',  ( -1.000000000000000000, -4.704334850106774274E-15, 0.000000000000000000 ) ) ;
#387 = CARTESIAN_POINT ( 'NONE',  ( 2.999999999999762412, 42.99999999999997868, 3.673940397442005634E-16 ) ) ;
#388 = DIRECTION ( 'NONE',  ( -4.495833333333385121E-15, 1.000000000000000000, -0.000000000000000000 ) ) ;
#389 = VERTEX_POINT ( 'NONE', #66 ) ;
#390 = EDGE_CURVE ( 'NONE', #752, #923, #742, .T. ) ;
#391 = ORIENTED_EDGE ( 'NONE', *, *, #669, .F. ) ;
#392 = DIRECTION ( 'NONE',  ( -1.000000000000000000, -4.704334850106764019E-15, 0.000000000000000000 ) ) ;
#393 = FACE_OUTER_BOUND ( 'NONE', #989, .T. ) ;
#394 = DIRECTION ( 'NONE',  ( -4.495833333333385121E-15, 1.000000000000000000, -0.000000000000000000 ) ) ;
#395 = VECTOR ( 'NONE', #783, 1000.000000000000000 ) ;
#396 = EDGE_LOOP ( 'NONE', ( #208, #2, #738 ) ) ;
#397 = CIRCLE ( 'NONE', #967, 2.249999999999950706 ) ;
#398 = CYLINDRICAL_SURFACE ( 'NONE', #933, 2.999999999999967137 ) ;
#399 = ADVANCED_FACE ( 'NONE', ( #528 ), #10, .F. ) ;
#400 = CARTESIAN_POINT ( 'NONE',  ( -4.614909438447457668E-14, 10.26393202249706249, 0.000000000000000000 ) ) ;
#401 = EDGE_LOOP ( 'NONE', ( #686, #552, #958, #901 ) ) ;
#402 = ORIENTED_EDGE ( 'NONE', *, *, #143, .F. ) ;
#403 = CARTESIAN_POINT ( 'NONE',  ( 2.949999999999739497, 34.52886751345950245, 3.796405077356677575E-16 ) ) ;
#404 = ADVANCED_FACE ( 'NONE', ( #988 ), #789, .F. ) ;
#405 = CARTESIAN_POINT ( 'NONE',  ( -1.546608333333325213E-13, 34.39999999999993463, 0.000000000000000000 ) ) ;
#406 = DIRECTION ( 'NONE',  ( -4.495833333333385121E-15, 1.000000000000000000, -0.000000000000000000 ) ) ;
#407 = VERTEX_POINT ( 'NONE', #838 ) ;
#408 = CARTESIAN_POINT ( 'NONE',  ( -2.203000000000000054E-13, 48.99999999999995026, 0.000000000000000000 ) ) ;
#409 = EDGE_LOOP ( 'NONE', ( #37, #261, #637, #292 ) ) ;
#410 = EDGE_CURVE ( 'NONE', #34, #683, #515, .T. ) ;
#411 = ORIENTED_EDGE ( 'NONE', *, *, #732, .T. ) ;
#412 = CARTESIAN_POINT ( 'NONE',  ( -1.856154119295183591E-13, 41.24161984870963238, 0.000000000000000000 ) ) ;
#413 = ORIENTED_EDGE ( 'NONE', *, *, #732, .F. ) ;
#414 = CARTESIAN_POINT ( 'NONE',  ( 5.999999999999764633, 12.49999999998992273, 7.347880794883900827E-16 ) ) ;
#415 = CONICAL_SURFACE ( 'NONE', #57, 2.499999999999610534, 0.7853981633975181120 ) ;
#416 = AXIS2_PLACEMENT_3D ( 'NONE', #475, #394, #14 ) ;
#417 = AXIS2_PLACEMENT_3D ( 'NONE', #873, #715, #97 ) ;
#418 = TOROIDAL_SURFACE ( 'NONE', #478, 3.349999999999887734, 0.3999999999999996336 ) ;
#419 = STYLED_ITEM ( 'NONE', ( #831 ), #275 ) ;
#420 = DIRECTION ( 'NONE',  ( -1.000000000000000000, -5.551115123126647294E-15, 0.000000000000000000 ) ) ;
#421 = VERTEX_POINT ( 'NONE', #95 ) ;
#422 = CYLINDRICAL_SURFACE ( 'NONE', #950, 5.000000000004805045 ) ;
#423 = EDGE_LOOP ( 'NONE', ( #205, #163, #118, #287 ) ) ;
#424 =( NAMED_UNIT ( * ) PLANE_ANGLE_UNIT ( ) SI_UNIT ( $, .RADIAN. ) );
#425 = EDGE_CURVE ( 'NONE', #224, #683, #27, .T. ) ;
#426 = DIRECTION ( 'NONE',  ( -1.000000000000000000, -4.524641714416864339E-15, 0.000000000000000000 ) ) ;
#427 = ORIENTED_EDGE ( 'NONE', *, *, #126, .F. ) ;
#428 = DIRECTION ( 'NONE',  ( -1.000000000000000000, -4.495833333333385121E-15, 0.000000000000000000 ) ) ;
#429 = EDGE_LOOP ( 'NONE', ( #258, #107, #981, #588 ) ) ;
#430 = DIRECTION ( 'NONE',  ( -1.000000000000000000, -3.083952846181048065E-15, 0.000000000000000000 ) ) ;
#431 = EDGE_CURVE ( 'NONE', #216, #407, #397, .T. ) ;
#432 = CARTESIAN_POINT ( 'NONE',  ( -3.150000000000050093, 34.52886751345948113, 0.000000000000000000 ) ) ;
#433 = VECTOR ( 'NONE', #966, 1000.000000000000000 ) ;
#434 = VECTOR ( 'NONE', #32, 1000.000000000000000 ) ;
#435 = AXIS2_PLACEMENT_3D ( 'NONE', #737, #820, #281 ) ;
#436 = CARTESIAN_POINT ( 'NONE',  ( -2.202999999999999802E-13, 48.99999999999994316, 0.000000000000000000 ) ) ;
#437 = ORIENTED_EDGE ( 'NONE', *, *, #502, .T. ) ;
#438 = EDGE_CURVE ( 'NONE', #537, #519, #325, .T. ) ;
#439 = FACE_OUTER_BOUND ( 'NONE', #272, .T. ) ;
#440 = ORIENTED_EDGE ( 'NONE', *, *, #167, .F. ) ;
#441 = CARTESIAN_POINT ( 'NONE',  ( -1.575126059436655118E-13, 35.03431457505082847, 0.000000000000000000 ) ) ;
#442 = ORIENTED_EDGE ( 'NONE', *, *, #8, .T. ) ;
#443 = DIRECTION ( 'NONE',  ( 0.8660254037844191677, 0.5000000000000336398, 1.060575238724885714E-16 ) ) ;
#444 = EDGE_CURVE ( 'NONE', #407, #224, #871, .T. ) ;
#445 = DIRECTION ( 'NONE',  ( -4.495833333333385121E-15, 1.000000000000000000, -0.000000000000000000 ) ) ;
#446 = ORIENTED_EDGE ( 'NONE', *, *, #754, .T. ) ;
#447 = AXIS2_PLACEMENT_3D ( 'NONE', #699, #624, #955 ) ;
#448 = DIRECTION ( 'NONE',  ( -4.495833333333385121E-15, 1.000000000000000000, -0.000000000000000000 ) ) ;
#449 = AXIS2_PLACEMENT_3D ( 'NONE', #333, #473, #786 ) ;
#450 = EDGE_LOOP ( 'NONE', ( #106, #484, #489, #184 ) ) ;
#451 = FACE_OUTER_BOUND ( 'NONE', #396, .T. ) ;
#452 = ORIENTED_EDGE ( 'NONE', *, *, #318, .F. ) ;
#453 = DIRECTION ( 'NONE',  ( -1.000000000000000000, -5.551115123126647294E-15, 0.000000000000000000 ) ) ;
#454 = EDGE_CURVE ( 'NONE', #823, #488, #533, .T. ) ;
#455 = DIRECTION ( 'NONE',  ( -1.000000000000000000, -4.270088556250763613E-15, 0.000000000000000000 ) ) ;
#456 = DIRECTION ( 'NONE',  ( -1.000000000000000000, -3.083952846181038598E-15, 0.000000000000000000 ) ) ;
#457 = EDGE_LOOP ( 'NONE', ( #356, #768, #721, #927 ) ) ;
#458 = DIRECTION ( 'NONE',  ( -4.495833333333385121E-15, 1.000000000000000000, -0.000000000000000000 ) ) ;
#459 = AXIS2_PLACEMENT_3D ( 'NONE', #329, #898, #526 ) ;
#460 = DIRECTION ( 'NONE',  ( -4.495833333333385121E-15, 1.000000000000000000, -0.000000000000000000 ) ) ;
#461 = AXIS2_PLACEMENT_3D ( 'NONE', #135, #448, #63 ) ;
#462 =( GEOMETRIC_REPRESENTATION_CONTEXT ( 3 ) GLOBAL_UNCERTAINTY_ASSIGNED_CONTEXT ( ( #24 ) ) GLOBAL_UNIT_ASSIGNED_CONTEXT ( ( #675, #424, #824 ) ) REPRESENTATION_CONTEXT ( 'NONE', 'WORKASPACE' ) );
#463 = DIRECTION ( 'NONE',  ( -1.000000000000000000, -3.965082230804091960E-15, 0.000000000000000000 ) ) ;
#464 = DIRECTION ( 'NONE',  ( -4.495833333333385121E-15, 1.000000000000000000, -0.000000000000000000 ) ) ;
#465 = EDGE_CURVE ( 'NONE', #298, #910, #349, .T. ) ;
#466 = CARTESIAN_POINT ( 'NONE',  ( -2.203000000000000054E-13, 48.99999999999995026, 0.000000000000000000 ) ) ;
#467 = EDGE_LOOP ( 'NONE', ( #833, #655, #920, #710 ) ) ;
#468 = DIRECTION ( 'NONE',  ( -4.495833333333385121E-15, 1.000000000000000000, -0.000000000000000000 ) ) ;
#469 = CARTESIAN_POINT ( 'NONE',  ( -2.203000000000000054E-13, 48.99999999999995026, 0.000000000000000000 ) ) ;
#470 = EDGE_CURVE ( 'NONE', #973, #733, #641, .T. ) ;
#471 = CARTESIAN_POINT ( 'NONE',  ( -4.614909438447457668E-14, 10.26393202249706249, 0.000000000000000000 ) ) ;
#472 = EDGE_LOOP ( 'NONE', ( #413, #323, #604, #893 ) ) ;
#473 = DIRECTION ( 'NONE',  ( 4.495833333333385121E-15, -1.000000000000000000, 0.000000000000000000 ) ) ;
#474 = DIRECTION ( 'NONE',  ( -1.000000000000000000, -4.163336342340335924E-15, 0.000000000000000000 ) ) ;
#475 = CARTESIAN_POINT ( 'NONE',  ( -1.933249999999997089E-13, 42.99999999999996447, 0.000000000000000000 ) ) ;
#476 = CIRCLE ( 'NONE', #250, 2.249999999999950706 ) ;
#477 = VERTEX_POINT ( 'NONE', #161 ) ;
#478 = AXIS2_PLACEMENT_3D ( 'NONE', #909, #204, #132 ) ;
#479 = CARTESIAN_POINT ( 'NONE',  ( -1.544614990203583105E-13, 34.35566243270261566, 0.000000000000000000 ) ) ;
#480 = TOROIDAL_SURFACE ( 'NONE', #647, 3.049999999999964739, 0.7999999999999992673 ) ;
#481 = VECTOR ( 'NONE', #25, 999.9999999999998863 ) ;
#482 = DIRECTION ( 'NONE',  ( -1.000000000000000000, -3.083952846181038598E-15, 0.000000000000000000 ) ) ;
#483 = DIRECTION ( 'NONE',  ( -0.9455185755992917551, 0.3255681544572292530, 0.000000000000000000 ) ) ;
#484 = ORIENTED_EDGE ( 'NONE', *, *, #260, .T. ) ;
#485 = DIRECTION ( 'NONE',  ( -4.495833333333385121E-15, 1.000000000000000000, -0.000000000000000000 ) ) ;
#486 = EDGE_CURVE ( 'NONE', #407, #421, #302, .T. ) ;
#487 = DIRECTION ( 'NONE',  ( 1.000000000000000000, 4.270088556250750202E-15, 0.000000000000000000 ) ) ;
#488 = VERTEX_POINT ( 'NONE', #245 ) ;
#489 = ORIENTED_EDGE ( 'NONE', *, *, #83, .T. ) ;
#490 = UNCERTAINTY_MEASURE_WITH_UNIT (LENGTH_MEASURE( 1.000000000000000082E-05 ), #494, 'distance_accuracy_value', 'NONE');
#491 = DIRECTION ( 'NONE',  ( -0.4082482904632280252, 0.9128709291755608968, 0.000000000000000000 ) ) ;
#492 = DIRECTION ( 'NONE',  ( -4.495833333333385121E-15, 1.000000000000000000, -0.000000000000000000 ) ) ;
#493 = ORIENTED_EDGE ( 'NONE', *, *, #938, .T. ) ;
#494 =( LENGTH_UNIT ( ) NAMED_UNIT ( * ) SI_UNIT ( .MILLI., .METRE. ) );
#495 = AXIS2_PLACEMENT_3D ( 'NONE', #998, #530, #153 ) ;
#496 = CIRCLE ( 'NONE', #363, 2.749999999999971578 ) ;
#497 = AXIS2_PLACEMENT_3D ( 'NONE', #183, #276, #661 ) ;
#498 = AXIS2_PLACEMENT_3D ( 'NONE', #608, #753, #760 ) ;
#499 = CIRCLE ( 'NONE', #286, 3.249999999999912514 ) ;
#500 = CONICAL_SURFACE ( 'NONE', #125, 3.067157287525256848, 0.7853981633972407783 ) ;
#501 = CARTESIAN_POINT ( 'NONE',  ( -1.546608333333325213E-13, 34.39999999999993463, 0.000000000000000000 ) ) ;
#502 = EDGE_CURVE ( 'NONE', #85, #823, #230, .T. ) ;
#503 = ORIENTED_EDGE ( 'NONE', *, *, #541, .T. ) ;
#504 = PRODUCT_DEFINITION_CONTEXT ( 'detailed design', #821, 'design' ) ;
#505 = DIRECTION ( 'NONE',  ( -1.000000000000000000, -4.704334850106774274E-15, 0.000000000000000000 ) ) ;
#506 = DIRECTION ( 'NONE',  ( -4.495833333333385121E-15, 1.000000000000000000, -0.000000000000000000 ) ) ;
#507 = ADVANCED_FACE ( 'NONE', ( #559 ), #101, .T. ) ;
#508 = ORIENTED_EDGE ( 'NONE', *, *, #260, .F. ) ;
#509 = DIRECTION ( 'NONE',  ( 4.495833333333385121E-15, -1.000000000000000000, 0.000000000000000000 ) ) ;
#510 = VERTEX_POINT ( 'NONE', #173 ) ;
#511 = FILL_AREA_STYLE ('',( #129 ) ) ;
#512 = EDGE_CURVE ( 'NONE', #142, #961, #11, .T. ) ;
#513 = AXIS2_PLACEMENT_3D ( 'NONE', #602, #39, #211 ) ;
#514 = TOROIDAL_SURFACE ( 'NONE', #856, 3.149999999999894662, 0.1999999999999995948 ) ;
#515 = CIRCLE ( 'NONE', #335, 0.7999999999999994893 ) ;
#516 = AXIS2_PLACEMENT_3D ( 'NONE', #711, #104, #576 ) ;
#517 = CONICAL_SURFACE ( 'NONE', #29, 5.000000000004812151, 0.4205343352832650039 ) ;
#518 = DIRECTION ( 'NONE',  ( -4.495833333333385121E-15, 1.000000000000000000, -0.000000000000000000 ) ) ;
#519 = VERTEX_POINT ( 'NONE', #629 ) ;
#520 = SURFACE_STYLE_FILL_AREA ( #511 ) ;
#521 = FACE_OUTER_BOUND ( 'NONE', #327, .T. ) ;
#522 = ORIENTED_EDGE ( 'NONE', *, *, #851, .F. ) ;
#523 = ADVANCED_FACE ( 'NONE', ( #714 ), #500, .T. ) ;
#524 = LINE ( 'NONE', #748, #42 ) ;
#525 = ORIENTED_EDGE ( 'NONE', *, *, #112, .F. ) ;
#526 = DIRECTION ( 'NONE',  ( -1.000000000000000000, -4.524641714416864339E-15, 0.000000000000000000 ) ) ;
#527 = ORIENTED_EDGE ( 'NONE', *, *, #368, .T. ) ;
#528 = FACE_OUTER_BOUND ( 'NONE', #540, .T. ) ;
#529 = VERTEX_POINT ( 'NONE', #795 ) ;
#530 = DIRECTION ( 'NONE',  ( 0.000000000000000000, -0.000000000000000000, -1.000000000000000000 ) ) ;
#531 = EDGE_LOOP ( 'NONE', ( #181, #770, #792, #124 ) ) ;
#532 = AXIS2_PLACEMENT_3D ( 'NONE', #684, #468, #312 ) ;
#533 = CIRCLE ( 'NONE', #221, 5.999999999999919176 ) ;
#534 = LINE ( 'NONE', #615, #253 ) ;
#535 = VECTOR ( 'NONE', #78, 999.9999999999998863 ) ;
#536 = EDGE_CURVE ( 'NONE', #561, #752, #922, .T. ) ;
#537 = VERTEX_POINT ( 'NONE', #237 ) ;
#538 = CARTESIAN_POINT ( 'NONE',  ( -3.000000000000187406, 47.00000000000002132, 0.000000000000000000 ) ) ;
#539 = CYLINDRICAL_SURFACE ( 'NONE', #269, 3.249999999999876987 ) ;
#540 = EDGE_LOOP ( 'NONE', ( #611, #813, #98, #807 ) ) ;
#541 = EDGE_CURVE ( 'NONE', #529, #243, #88, .T. ) ;
#542 = CARTESIAN_POINT ( 'NONE',  ( -2.203000000000000054E-13, 48.99999999999995026, 0.000000000000000000 ) ) ;
#543 = CARTESIAN_POINT ( 'NONE',  ( -1.884652401892346574E-13, 41.91905249806891476, 0.000000000000000000 ) ) ;
#544 = VERTEX_POINT ( 'NONE', #1 ) ;
#545 = DIRECTION ( 'NONE',  ( -1.000000000000000000, -4.270088556250763613E-15, 0.000000000000000000 ) ) ;
#546 = ADVANCED_FACE ( 'NONE', ( #393 ), #517, .T. ) ;
#547 = DIRECTION ( 'NONE',  ( -4.495833333333385121E-15, 1.000000000000000000, -0.000000000000000000 ) ) ;
#548 = CONICAL_SURFACE ( 'NONE', #447, 3.249999999999887201, 0.7853981633973147192 ) ;
#549 = LINE ( 'NONE', #709, #395 ) ;
#550 = AXIS2_PLACEMENT_3D ( 'NONE', #744, #262, #739 ) ;
#551 = VECTOR ( 'NONE', #5, 1000.000000000000000 ) ;
#552 = ORIENTED_EDGE ( 'NONE', *, *, #690, .F. ) ;
#553 = CARTESIAN_POINT ( 'NONE',  ( -1.884652401892346574E-13, 41.91905249806891476, 0.000000000000000000 ) ) ;
#554 = ADVANCED_FACE ( 'NONE', ( #240 ), #600, .T. ) ;
#555 = CARTESIAN_POINT ( 'NONE',  ( 2.249999999999737543, 48.99999999999995737, 2.755455298081493009E-16 ) ) ;
#556 = DIRECTION ( 'NONE',  ( -1.000000000000000000, -4.495833333333384332E-15, 0.000000000000000000 ) ) ;
#557 = ORIENTED_EDGE ( 'NONE', *, *, #584, .T. ) ;
#558 = CARTESIAN_POINT ( 'NONE',  ( 5.000000000004765965, 10.26393202249708558, 6.123233995742659073E-16 ) ) ;
#559 = FACE_OUTER_BOUND ( 'NONE', #978, .T. ) ;
#560 = DIRECTION ( 'NONE',  ( -1.000000000000000000, -3.760307770215682624E-15, 0.000000000000000000 ) ) ;
#561 = VERTEX_POINT ( 'NONE', #165 ) ;
#562 = CARTESIAN_POINT ( 'NONE',  ( -6.000000000000073719, 34.39999999999991331, 7.347880794884020142E-16 ) ) ;
#563 = DIRECTION ( 'NONE',  ( -4.495833333333385121E-15, 1.000000000000000000, -0.000000000000000000 ) ) ;
#564 = CARTESIAN_POINT ( 'NONE',  ( -1.224019780708349996E-14, 2.721638066450940308, 0.000000000000000000 ) ) ;
#565 = TOROIDAL_SURFACE ( 'NONE', #825, 3.049999999999950973, 0.7999999999999986011 ) ;
#566 = EDGE_CURVE ( 'NONE', #561, #224, #236, .T. ) ;
#567 = ORIENTED_EDGE ( 'NONE', *, *, #188, .T. ) ;
#568 = CARTESIAN_POINT ( 'NONE',  ( -2.113083333333336185E-13, 47.00000000000003553, 0.000000000000000000 ) ) ;
#569 = TOROIDAL_SURFACE ( 'NONE', #516, 3.049999999999964739, 0.7999999999999992673 ) ;
#570 = FILL_AREA_STYLE_COLOUR ( '', #949 ) ;
#571 = DIRECTION ( 'NONE',  ( -4.495833333333385121E-15, 1.000000000000000000, -0.000000000000000000 ) ) ;
#572 = ORIENTED_EDGE ( 'NONE', *, *, #431, .T. ) ;
#573 = LINE ( 'NONE', #180, #680 ) ;
#574 = CARTESIAN_POINT ( 'NONE',  ( -1.910770833333318058E-13, 42.49999999999968736, 0.000000000000000000 ) ) ;
#575 = VERTEX_POINT ( 'NONE', #130 ) ;
#576 = DIRECTION ( 'NONE',  ( -1.000000000000000000, -4.495833333333385121E-15, 0.000000000000000000 ) ) ;
#577 = EDGE_CURVE ( 'NONE', #529, #537, #730, .T. ) ;
#578 = DIRECTION ( 'NONE',  ( 1.000000000000000000, 4.495833333333385121E-15, 0.000000000000000000 ) ) ;
#579 = EDGE_LOOP ( 'NONE', ( #802, #527, #278, #740 ) ) ;
#580 = SURFACE_SIDE_STYLE ('',( #520 ) ) ;
#581 = CONICAL_SURFACE ( 'NONE', #513, 3.500000000000034195, 1.047197551196563436 ) ;
#582 = AXIS2_PLACEMENT_3D ( 'NONE', #364, #127, #681 ) ;
#583 = AXIS2_PLACEMENT_3D ( 'NONE', #653, #239, #86 ) ;
#584 = EDGE_CURVE ( 'NONE', #544, #103, #288, .T. ) ;
#585 = CARTESIAN_POINT ( 'NONE',  ( 3.149999999999739231, 34.52886751345950955, 3.857637417314033513E-16 ) ) ;
#586 = CARTESIAN_POINT ( 'NONE',  ( 3.349999999999730527, 35.03431457505081426, 4.102566777143495723E-16 ) ) ;
#587 = FILL_AREA_STYLE ('',( #570 ) ) ;
#588 = ORIENTED_EDGE ( 'NONE', *, *, #701, .F. ) ;
#589 = DIRECTION ( 'NONE',  ( -1.000000000000000000, -4.625929269271547642E-15, 0.000000000000000000 ) ) ;
#590 = EDGE_CURVE ( 'NONE', #910, #298, #811, .T. ) ;
#591 = EDGE_LOOP ( 'NONE', ( #210, #670 ) ) ;
#592 = DIRECTION ( 'NONE',  ( 1.000000000000000000, 0.000000000000000000, 1.224646799147353454E-16 ) ) ;
#593 = DIRECTION ( 'NONE',  ( -4.495833333333385121E-15, 1.000000000000000000, -0.000000000000000000 ) ) ;
#594 = ADVANCED_FACE ( 'NONE', ( #747 ), #480, .F. ) ;
#595 = TOROIDAL_SURFACE ( 'NONE', #723, 3.149999999999894662, 0.1999999999999995948 ) ;
#596 = DIRECTION ( 'NONE',  ( -1.000000000000000000, -4.704334850106689866E-15, 0.000000000000000000 ) ) ;
#597 = AXIS2_PLACEMENT_3D ( 'NONE', #80, #326, #386 ) ;
#598 = AXIS2_PLACEMENT_3D ( 'NONE', #84, #460, #102 ) ;
#599 = VECTOR ( 'NONE', #464, 1000.000000000000000 ) ;
#600 = CONICAL_SURFACE ( 'NONE', #77, 5.000000000004812151, 0.4205343352832650039 ) ;
#601 = CARTESIAN_POINT ( 'NONE',  ( -4.500333333333385008E-12, 1001.000000000000568, 0.000000000000000000 ) ) ;
#602 = CARTESIAN_POINT ( 'NONE',  ( -1.551104166666666118E-13, 34.50000000000010658, 0.000000000000000000 ) ) ;
#603 = DIRECTION ( 'NONE',  ( 0.5000000000000203171, -0.8660254037844269392, 0.000000000000000000 ) ) ;
#604 = ORIENTED_EDGE ( 'NONE', *, *, #167, .T. ) ;
#605 = CARTESIAN_POINT ( 'NONE',  ( -1.854196159031568857E-13, 41.24161984870963948, 0.000000000000000000 ) ) ;
#606 = EDGE_LOOP ( 'NONE', ( #508, #942, #263, #689 ) ) ;
#607 = ADVANCED_FACE ( 'NONE', ( #273 ), #617, .T. ) ;
#608 = CARTESIAN_POINT ( 'NONE',  ( -1.933249999999997089E-13, 42.99999999999996447, 0.000000000000000000 ) ) ;
#609 = ORIENTED_EDGE ( 'NONE', *, *, #982, .T. ) ;
#610 = DIRECTION ( 'NONE',  ( 0.7071067811864562014, -0.7071067811866387220, 0.000000000000000000 ) ) ;
#611 = ORIENTED_EDGE ( 'NONE', *, *, #368, .F. ) ;
#612 = CIRCLE ( 'NONE', #855, 3.500000000000034195 ) ;
#613 = VECTOR ( 'NONE', #780, 1000.000000000000000 ) ;
#614 = CIRCLE ( 'NONE', #758, 2.999999999999976019 ) ;
#615 = CARTESIAN_POINT ( 'NONE',  ( 5.999999999999650058, 48.99999999999997868, 7.347880794883959992E-16 ) ) ;
#616 = EDGE_CURVE ( 'NONE', #321, #575, #317, .T. ) ;
#617 = CONICAL_SURFACE ( 'NONE', #172, 3.067157287525256848, 0.7853981633972407783 ) ;
#618 = ORIENTED_EDGE ( 'NONE', *, *, #713, .F. ) ;
#619 = DIRECTION ( 'NONE',  ( -4.495833333333385121E-15, 1.000000000000000000, -0.000000000000000000 ) ) ;
#620 = ORIENTED_EDGE ( 'NONE', *, *, #642, .T. ) ;
#621 = DIRECTION ( 'NONE',  ( -1.000000000000000000, -4.704334850106689866E-15, 0.000000000000000000 ) ) ;
#622 = ORIENTED_EDGE ( 'NONE', *, *, #623, .F. ) ;
#623 = EDGE_CURVE ( 'NONE', #674, #510, #874, .T. ) ;
#624 = DIRECTION ( 'NONE',  ( 4.495833333333385121E-15, -1.000000000000000000, 0.000000000000000000 ) ) ;
#625 = VERTEX_POINT ( 'NONE', #362 ) ;
#626 = DIRECTION ( 'NONE',  ( 1.000000000000000000, 0.000000000000000000, 1.224646799147353454E-16 ) ) ;
#627 = DIRECTION ( 'NONE',  ( -1.000000000000000000, -4.510281037535370755E-15, 0.000000000000000000 ) ) ;
#628 = DIRECTION ( 'NONE',  ( -4.495833333333385121E-15, 1.000000000000000000, -0.000000000000000000 ) ) ;
#629 = CARTESIAN_POINT ( 'NONE',  ( -3.250000000000067057, 39.99999999999999289, 0.000000000000000000 ) ) ;
#630 = CONICAL_SURFACE ( 'NONE', #550, 2.499999999999610534, 0.7853981633975181120 ) ;
#631 = CARTESIAN_POINT ( 'NONE',  ( -2.250000000000178080, 48.99999999999994316, 0.000000000000000000 ) ) ;
#632 = CIRCLE ( 'NONE', #417, 5.999999999999821476 ) ;
#633 =( GEOMETRIC_REPRESENTATION_CONTEXT ( 3 ) GLOBAL_UNCERTAINTY_ASSIGNED_CONTEXT ( ( #490 ) ) GLOBAL_UNIT_ASSIGNED_CONTEXT ( ( #494, #818, #746 ) ) REPRESENTATION_CONTEXT ( 'NONE', 'WORKASPACE' ) );
#634 = CARTESIAN_POINT ( 'NONE',  ( -5.900000000000035882, 34.50000000000006395, 7.286648454926629691E-16 ) ) ;
#635 = DIRECTION ( 'NONE',  ( -4.495833333333385121E-15, 1.000000000000000000, -0.000000000000000000 ) ) ;
#636 = CARTESIAN_POINT ( 'NONE',  ( 3.067157287525097420, 35.31715728752541850, 3.756184354649283026E-16 ) ) ;
#637 = ORIENTED_EDGE ( 'NONE', *, *, #252, .T. ) ;
#638 = UNCERTAINTY_MEASURE_WITH_UNIT (LENGTH_MEASURE( 1.000000000000000082E-05 ), #353, 'distance_accuracy_value', 'NONE');
#639 = FACE_OUTER_BOUND ( 'NONE', #472, .T. ) ;
#640 = EDGE_LOOP ( 'NONE', ( #391, #609, #345, #968 ) ) ;
#641 = LINE ( 'NONE', #21, #171 ) ;
#642 = EDGE_CURVE ( 'NONE', #128, #529, #832, .T. ) ;
#643 = ORIENTED_EDGE ( 'NONE', *, *, #454, .T. ) ;
#644 = ORIENTED_EDGE ( 'NONE', *, *, #47, .T. ) ;
#645 = CYLINDRICAL_SURFACE ( 'NONE', #13, 2.249999999999957812 ) ;
#646 = CARTESIAN_POINT ( 'NONE',  ( 3.049999999999776001, 41.91905249806892186, 3.735172737399384252E-16 ) ) ;
#647 = AXIS2_PLACEMENT_3D ( 'NONE', #970, #55, #984 ) ;
#648 = DIRECTION ( 'NONE',  ( -1.000000000000000000, -4.625929269271585507E-15, 0.000000000000000000 ) ) ;
#649 = VECTOR ( 'NONE', #610, 1000.000000000000114 ) ;
#650 = ORIENTED_EDGE ( 'NONE', *, *, #577, .T. ) ;
#651 = CLOSED_SHELL ( 'NONE', ( #212, #908, #804, #594, #685, #182, #156, #277, #607, #331, #176, #100, #657, #929, #38, #554, #507, #307, #360, #265, #546, #79, #354, #995, #399, #794, #35, #784, #523, #718, #834, #404, #977, #919, #246, #963, #971, #241 ) ) ;
#652 = AXIS2_PLACEMENT_3D ( 'NONE', #691, #992, #56 ) ;
#653 = CARTESIAN_POINT ( 'NONE',  ( -1.544614990203583105E-13, 34.35566243270261566, 0.000000000000000000 ) ) ;
#654 = DIRECTION ( 'NONE',  ( 4.495833333333385121E-15, -1.000000000000000000, 0.000000000000000000 ) ) ;
#655 = ORIENTED_EDGE ( 'NONE', *, *, #839, .F. ) ;
#656 = DIRECTION ( 'NONE',  ( -1.000000000000000000, -3.760307770215682624E-15, 0.000000000000000000 ) ) ;
#657 = ADVANCED_FACE ( 'NONE', ( #975 ), #581, .F. ) ;
#658 = DIRECTION ( 'NONE',  ( -4.495833333333385121E-15, 1.000000000000000000, -0.000000000000000000 ) ) ;
#659 = FACE_BOUND ( 'NONE', #178, .T. ) ;
#660 = EDGE_CURVE ( 'NONE', #389, #733, #383, .T. ) ;
#661 = DIRECTION ( 'NONE',  ( -1.000000000000000000, -4.625929269271623373E-15, 0.000000000000000000 ) ) ;
#662 = ORIENTED_EDGE ( 'NONE', *, *, #938, .F. ) ;
#663 = APPLICATION_PROTOCOL_DEFINITION ( 'draft international standard', 'automotive_design', 1998, #821 ) ;
#664 = CIRCLE ( 'NONE', #805, 3.249999999999887201 ) ;
#665 = DIRECTION ( 'NONE',  ( -1.000000000000000000, -4.625929269271522399E-15, 0.000000000000000000 ) ) ;
#666 = ORIENTED_EDGE ( 'NONE', *, *, #878, .T. ) ;
#667 = CARTESIAN_POINT ( 'NONE',  ( 5.000000000004584777, 48.99999999999997158, 6.123233995742650199E-16 ) ) ;
#668 = FACE_OUTER_BOUND ( 'NONE', #429, .T. ) ;
#669 = EDGE_CURVE ( 'NONE', #128, #152, #755, .T. ) ;
#670 = ORIENTED_EDGE ( 'NONE', *, *, #867, .T. ) ;
#671 = SURFACE_STYLE_USAGE ( .BOTH. , #580 ) ;
#672 = CARTESIAN_POINT ( 'NONE',  ( -2.113083333333336185E-13, 47.00000000000003553, 0.000000000000000000 ) ) ;
#673 = CARTESIAN_POINT ( 'NONE',  ( -2.750000000000153655, 40.50000000000004263, 3.673940397441973093E-16 ) ) ;
#674 = VERTEX_POINT ( 'NONE', #837 ) ;
#675 =( LENGTH_UNIT ( ) NAMED_UNIT ( * ) SI_UNIT ( .MILLI., .METRE. ) );
#676 = AXIS2_PLACEMENT_3D ( 'NONE', #304, #994, #228 ) ;
#677 = CARTESIAN_POINT ( 'NONE',  ( 3.067157287525097864, 35.31715728752541850, 3.756184354649284012E-16 ) ) ;
#678 = VECTOR ( 'NONE', #242, 1000.000000000000000 ) ;
#679 = VECTOR ( 'NONE', #764, 1000.000000000000000 ) ;
#680 = VECTOR ( 'NONE', #164, 1000.000000000000114 ) ;
#681 = DIRECTION ( 'NONE',  ( -1.000000000000000000, -3.965082230804091960E-15, 0.000000000000000000 ) ) ;
#682 = MANIFOLD_SOLID_BREP ( '±ÛÂà1', #651 ) ;
#683 = VERTEX_POINT ( 'NONE', #358 ) ;
#684 = CARTESIAN_POINT ( 'NONE',  ( -2.203000000000000054E-13, 48.99999999999995026, 0.000000000000000000 ) ) ;
#685 = ADVANCED_FACE ( 'NONE', ( #521 ), #948, .T. ) ;
#686 = ORIENTED_EDGE ( 'NONE', *, *, #566, .F. ) ;
#687 = DIRECTION ( 'NONE',  ( -1.000000000000000000, -4.704334850106764019E-15, 0.000000000000000000 ) ) ;
#688 = CARTESIAN_POINT ( 'NONE',  ( -3.050000000000136158, 41.24161984870961817, 0.000000000000000000 ) ) ;
#689 = ORIENTED_EDGE ( 'NONE', *, *, #410, .F. ) ;
#690 = EDGE_CURVE ( 'NONE', #34, #561, #334, .T. ) ;
#691 = CARTESIAN_POINT ( 'NONE',  ( -4.500333333333385008E-12, 1001.000000000000568, 0.000000000000000000 ) ) ;
#692 = CARTESIAN_POINT ( 'NONE',  ( -6.000000000000073719, 34.39999999999991331, 0.000000000000000000 ) ) ;
#693 = AXIS2_PLACEMENT_3D ( 'NONE', #842, #64, #763 ) ;
#694 = AXIS2_PLACEMENT_3D ( 'NONE', #225, #848, #687 ) ;
#695 = FACE_OUTER_BOUND ( 'NONE', #912, .T. ) ;
#696 = EDGE_CURVE ( 'NONE', #956, #366, #741, .T. ) ;
#697 = AXIS2_PLACEMENT_3D ( 'NONE', #441, #445, #505 ) ;
#698 = EDGE_LOOP ( 'NONE', ( #993, #650, #337, #836 ) ) ;
#699 = CARTESIAN_POINT ( 'NONE',  ( -1.798374999999997878E-13, 40.00000000000000711, 0.000000000000000000 ) ) ;
#700 = CARTESIAN_POINT ( 'NONE',  ( 3.249999999999656719, 48.99999999999996447, 3.980102097228747362E-16 ) ) ;
#701 = EDGE_CURVE ( 'NONE', #421, #243, #778, .T. ) ;
#702 = FACE_OUTER_BOUND ( 'NONE', #531, .T. ) ;
#703 = DIRECTION ( 'NONE',  ( -4.495833333333385121E-15, 1.000000000000000000, -0.000000000000000000 ) ) ;
#704 = CARTESIAN_POINT ( 'NONE',  ( -3.250000000000097256, 48.99999999999993605, 0.000000000000000000 ) ) ;
#705 = DIRECTION ( 'NONE',  ( -4.495833333333385121E-15, 1.000000000000000000, -0.000000000000000000 ) ) ;
#706 = ORIENTED_EDGE ( 'NONE', *, *, #376, .F. ) ;
#707 = LINE ( 'NONE', #108, #481 ) ;
#708 = CARTESIAN_POINT ( 'NONE',  ( -6.000000000000090594, 48.99999999999992895, 0.000000000000000000 ) ) ;
#709 = CARTESIAN_POINT ( 'NONE',  ( -2.499999999999801936, 42.49999999999967315, 0.000000000000000000 ) ) ;
#710 = ORIENTED_EDGE ( 'NONE', *, *, #904, .T. ) ;
#711 = CARTESIAN_POINT ( 'NONE',  ( -1.886511780124777715E-13, 41.91905249806890765, 0.000000000000000000 ) ) ;
#712 = ORIENTED_EDGE ( 'NONE', *, *, #669, .T. ) ;
#713 = EDGE_CURVE ( 'NONE', #519, #243, #664, .T. ) ;
#714 = FACE_OUTER_BOUND ( 'NONE', #876, .T. ) ;
#715 = DIRECTION ( 'NONE',  ( -4.495833333333385121E-15, 1.000000000000000000, -0.000000000000000000 ) ) ;
#716 = ORIENTED_EDGE ( 'NONE', *, *, #318, .T. ) ;
#717 = CARTESIAN_POINT ( 'NONE',  ( -1.845299461620945491, 48.99999999999993605, 2.966890238292093493E-16 ) ) ;
#718 = ADVANCED_FACE ( 'NONE', ( #911 ), #144, .T. ) ;
#719 = CARTESIAN_POINT ( 'NONE',  ( -1.587842196384991295E-13, 35.31715728752541139, 0.000000000000000000 ) ) ;
#720 = CYLINDRICAL_SURFACE ( 'NONE', #841, 5.999999999999870326 ) ;
#721 = ORIENTED_EDGE ( 'NONE', *, *, #584, .F. ) ;
#722 = LINE ( 'NONE', #947, #434 ) ;
#723 = AXIS2_PLACEMENT_3D ( 'NONE', #769, #850, #371 ) ;
#724 = DIRECTION ( 'NONE',  ( -1.000000000000000000, -5.046468293750763469E-15, 0.000000000000000000 ) ) ;
#725 = EDGE_CURVE ( 'NONE', #152, #544, #771, .T. ) ;
#726 = CIRCLE ( 'NONE', #283, 5.000000000004797940 ) ;
#727 = ORIENTED_EDGE ( 'NONE', *, *, #512, .T. ) ;
#728 = CIRCLE ( 'NONE', #808, 2.749999999999971578 ) ;
#729 = DIRECTION ( 'NONE',  ( -4.495833333333385121E-15, 1.000000000000000000, -0.000000000000000000 ) ) ;
#730 = CIRCLE ( 'NONE', #367, 3.249999999999866773 ) ;
#731 = DIRECTION ( 'NONE',  ( 4.495833333333385121E-15, -1.000000000000000000, 0.000000000000000000 ) ) ;
#732 = EDGE_CURVE ( 'NONE', #752, #389, #309, .T. ) ;
#733 = VERTEX_POINT ( 'NONE', #538 ) ;
#734 = PRODUCT_DEFINITION ( 'UNKNOWN', '', #969, #504 ) ;
#735 = CARTESIAN_POINT ( 'NONE',  ( -2.203000000000000054E-13, 48.99999999999995026, 0.000000000000000000 ) ) ;
#736 = EDGE_LOOP ( 'NONE', ( #199, #411, #332, #440 ) ) ;
#737 = CARTESIAN_POINT ( 'NONE',  ( -1.224019780708349996E-14, 2.721638066450940308, 0.000000000000000000 ) ) ;
#738 = ORIENTED_EDGE ( 'NONE', *, *, #8, .F. ) ;
#739 = DIRECTION ( 'NONE',  ( -1.000000000000000000, -5.551115123126647294E-15, 0.000000000000000000 ) ) ;
#740 = ORIENTED_EDGE ( 'NONE', *, *, #226, .F. ) ;
#741 = CIRCLE ( 'NONE', #26, 3.500000000000034195 ) ;
#742 = CIRCLE ( 'NONE', #498, 2.999999999999958256 ) ;
#743 = EDGE_CURVE ( 'NONE', #152, #128, #902, .T. ) ;
#744 = CARTESIAN_POINT ( 'NONE',  ( -1.910770833333318058E-13, 42.49999999999968736, 0.000000000000000000 ) ) ;
#745 = ORIENTED_EDGE ( 'NONE', *, *, #252, .F. ) ;
#746 =( NAMED_UNIT ( * ) SI_UNIT ( $, .STERADIAN. ) SOLID_ANGLE_UNIT ( ) );
#747 = FACE_OUTER_BOUND ( 'NONE', #606, .T. ) ;
#748 = CARTESIAN_POINT ( 'NONE',  ( 2.999999999999765077, 47.00000000000004974, 0.000000000000000000 ) ) ;
#749 = ORIENTED_EDGE ( 'NONE', *, *, #3, .F. ) ;
#750 = DIRECTION ( 'NONE',  ( 0.000000000000000000, 0.000000000000000000, 1.000000000000000000 ) ) ;
#751 = DIRECTION ( 'NONE',  ( -4.495833333333385121E-15, 1.000000000000000000, -0.000000000000000000 ) ) ;
#752 = VERTEX_POINT ( 'NONE', #387 ) ;
#753 = DIRECTION ( 'NONE',  ( -4.495833333333385121E-15, 1.000000000000000000, -0.000000000000000000 ) ) ;
#754 = EDGE_CURVE ( 'NONE', #407, #216, #476, .T. ) ;
#755 = CIRCLE ( 'NONE', #459, 3.067157287525256848 ) ;
#756 = DIRECTION ( 'NONE',  ( 0.7071067811863975816, 0.7071067811866974528, 8.659560562353135734E-17 ) ) ;
#757 = ORIENTED_EDGE ( 'NONE', *, *, #465, .T. ) ;
#758 = AXIS2_PLACEMENT_3D ( 'NONE', #373, #297, #845 ) ;
#759 = VECTOR ( 'NONE', #175, 1000.000000000000000 ) ;
#760 = DIRECTION ( 'NONE',  ( -1.000000000000000000, -4.625929269271550009E-15, 0.000000000000000000 ) ) ;
#761 = EDGE_LOOP ( 'NONE', ( #53, #372, #797, #954 ) ) ;
#762 = EDGE_CURVE ( 'NONE', #243, #519, #186, .T. ) ;
#763 = DIRECTION ( 'NONE',  ( -1.000000000000000000, -4.270088556250750202E-15, 0.000000000000000000 ) ) ;
#764 = DIRECTION ( 'NONE',  ( -0.7071067811864041319, 0.7071067811866910136, 0.000000000000000000 ) ) ;
#765 = ORIENTED_EDGE ( 'NONE', *, *, #69, .F. ) ;
#766 = FACE_OUTER_BOUND ( 'NONE', #467, .T. ) ;
#767 = FACE_OUTER_BOUND ( 'NONE', #761, .T. ) ;
#768 = ORIENTED_EDGE ( 'NONE', *, *, #52, .T. ) ;
#769 = CARTESIAN_POINT ( 'NONE',  ( -1.552577510999242349E-13, 34.52886751345949534, 0.000000000000000000 ) ) ;
#770 = ORIENTED_EDGE ( 'NONE', *, *, #201, .T. ) ;
#771 = CIRCLE ( 'NONE', #495, 0.3999999999999997446 ) ;
#772 = AXIS2_PLACEMENT_3D ( 'NONE', #41, #654, #487 ) ;
#773 = EDGE_CURVE ( 'NONE', #683, #224, #997, .T. ) ;
#774 = CONICAL_SURFACE ( 'NONE', #826, 2904.210877675055144, 1.239183768915892658 ) ;
#775 = DIRECTION ( 'NONE',  ( -1.000000000000000000, -4.510281037535357344E-15, 0.000000000000000000 ) ) ;
#776 = AXIS2_PLACEMENT_3D ( 'NONE', #939, #310, #626 ) ;
#777 = CARTESIAN_POINT ( 'NONE',  ( 2.949999999999670663, 48.99999999999996447, 3.612708057484558483E-16 ) ) ;
#778 = LINE ( 'NONE', #62, #649 ) ;
#779 = DIRECTION ( 'NONE',  ( -0.5000000000000125455, -0.8660254037844313801, 6.123233995736965716E-17 ) ) ;
#780 = DIRECTION ( 'NONE',  ( -4.495833333333385121E-15, 1.000000000000000000, -0.000000000000000000 ) ) ;
#781 = CARTESIAN_POINT ( 'NONE',  ( -1.552402001959277470E-13, 34.52886751345948824, 0.000000000000000000 ) ) ;
#782 = DIRECTION ( 'NONE',  ( -1.000000000000000000, -4.524641714416864339E-15, 0.000000000000000000 ) ) ;
#783 = DIRECTION ( 'NONE',  ( -0.7071067811866000863, 0.7071067811864949482, 0.000000000000000000 ) ) ;
#784 = ADVANCED_FACE ( 'NONE', ( #860 ), #268, .F. ) ;
#785 = ORIENTED_EDGE ( 'NONE', *, *, #150, .F. ) ;
#786 = DIRECTION ( 'NONE',  ( 1.000000000000000000, 4.625929269271547642E-15, 0.000000000000000000 ) ) ;
#787 = DIRECTION ( 'NONE',  ( -1.000000000000000000, 0.000000000000000000, 0.000000000000000000 ) ) ;
#788 = AXIS2_PLACEMENT_3D ( 'NONE', #672, #346, #665 ) ;
#789 = TOROIDAL_SURFACE ( 'NONE', #461, 3.049999999999950973, 0.7999999999999986011 ) ;
#790 = DIRECTION ( 'NONE',  ( -4.495833333333385121E-15, 1.000000000000000000, -0.000000000000000000 ) ) ;
#791 = AXIS2_PLACEMENT_3D ( 'NONE', #200, #814, #352 ) ;
#792 = ORIENTED_EDGE ( 'NONE', *, *, #895, .T. ) ;
#793 = DIRECTION ( 'NONE',  ( -1.000000000000000000, -4.625929269271536598E-15, 0.000000000000000000 ) ) ;
#794 = ADVANCED_FACE ( 'NONE', ( #766 ), #595, .F. ) ;
#795 = CARTESIAN_POINT ( 'NONE',  ( 3.249999999999706901, 35.50000000000010658, 3.980102097228734543E-16 ) ) ;
#796 = CARTESIAN_POINT ( 'NONE',  ( -2.202999999999999549E-13, 48.99999999999994316, 0.000000000000000000 ) ) ;
#797 = ORIENTED_EDGE ( 'NONE', *, *, #851, .T. ) ;
#798 = DIRECTION ( 'NONE',  ( -4.495833333333385121E-15, 1.000000000000000000, -0.000000000000000000 ) ) ;
#799 = EDGE_CURVE ( 'NONE', #216, #339, #282, .T. ) ;
#800 = DIRECTION ( 'NONE',  ( -4.495833333333385121E-15, 1.000000000000000000, -0.000000000000000000 ) ) ;
#801 = EDGE_LOOP ( 'NONE', ( #379, #493, #785, #256 ) ) ;
#802 = ORIENTED_EDGE ( 'NONE', *, *, #895, .F. ) ;
#803 = DIRECTION ( 'NONE',  ( -1.000000000000000000, -4.270088556250717070E-15, 0.000000000000000000 ) ) ;
#804 = ADVANCED_FACE ( 'NONE', ( #222 ), #415, .T. ) ;
#805 = AXIS2_PLACEMENT_3D ( 'NONE', #81, #215, #928 ) ;
#806 = CARTESIAN_POINT ( 'NONE',  ( -2.203000000000000054E-13, 48.99999999999995026, 0.000000000000000000 ) ) ;
#807 = ORIENTED_EDGE ( 'NONE', *, *, #696, .T. ) ;
#808 = AXIS2_PLACEMENT_3D ( 'NONE', #355, #593, #177 ) ;
#809 = DIRECTION ( 'NONE',  ( 1.000000000000000000, 0.000000000000000000, 0.000000000000000000 ) ) ;
#810 = PRESENTATION_LAYER_ASSIGNMENT (  '', '', ( #419 ) ) ;
#811 = CIRCLE ( 'NONE', #934, 5.899999999999881339 ) ;
#812 = FACE_OUTER_BOUND ( 'NONE', #248, .T. ) ;
#813 = ORIENTED_EDGE ( 'NONE', *, *, #904, .F. ) ;
#814 = DIRECTION ( 'NONE',  ( 4.495833333333385121E-15, -1.000000000000000000, 0.000000000000000000 ) ) ;
#815 = DIRECTION ( 'NONE',  ( -1.000000000000000000, -4.270088556250777024E-15, 0.000000000000000000 ) ) ;
#816 = DIRECTION ( 'NONE',  ( -4.495833333333385121E-15, 1.000000000000000000, -0.000000000000000000 ) ) ;
#817 = ORIENTED_EDGE ( 'NONE', *, *, #867, .F. ) ;
#818 =( NAMED_UNIT ( * ) PLANE_ANGLE_UNIT ( ) SI_UNIT ( $, .RADIAN. ) );
#819 = EDGE_CURVE ( 'NONE', #366, #956, #612, .T. ) ;
#820 = DIRECTION ( 'NONE',  ( -4.495833333333385121E-15, 1.000000000000000000, -0.000000000000000000 ) ) ;
#821 = APPLICATION_CONTEXT ( 'automotive_design' ) ;
#822 = CARTESIAN_POINT ( 'NONE',  ( 5.000000000004765965, 10.26393202249708558, 6.123233995742654143E-16 ) ) ;
#823 = VERTEX_POINT ( 'NONE', #692 ) ;
#824 =( NAMED_UNIT ( * ) SI_UNIT ( $, .STERADIAN. ) SOLID_ANGLE_UNIT ( ) );
#825 = AXIS2_PLACEMENT_3D ( 'NONE', #412, #341, #428 ) ;
#826 = AXIS2_PLACEMENT_3D ( 'NONE', #601, #905, #999 ) ;
#827 = DIRECTION ( 'NONE',  ( 0.000000000000000000, -0.000000000000000000, -1.000000000000000000 ) ) ;
#828 = AXIS2_PLACEMENT_3D ( 'NONE', #568, #870, #169 ) ;
#829 = LINE ( 'NONE', #899, #679 ) ;
#830 = ORIENTED_EDGE ( 'NONE', *, *, #660, .T. ) ;
#831 = PRESENTATION_STYLE_ASSIGNMENT (( #671 ) ) ;
#832 = LINE ( 'NONE', #677, #254 ) ;
#833 = ORIENTED_EDGE ( 'NONE', *, *, #201, .F. ) ;
#834 = ADVANCED_FACE ( 'NONE', ( #384 ), #548, .T. ) ;
#835 = CARTESIAN_POINT ( 'NONE',  ( -2.203000000000000054E-13, 48.99999999999995026, 0.000000000000000000 ) ) ;
#836 = ORIENTED_EDGE ( 'NONE', *, *, #762, .F. ) ;
#837 = CARTESIAN_POINT ( 'NONE',  ( -5.000000000004810374, 2.721638066450917659, 0.000000000000000000 ) ) ;
#838 = CARTESIAN_POINT ( 'NONE',  ( 2.249999999999765077, 41.24161984870964659, 3.061616997868334823E-16 ) ) ;
#839 = EDGE_CURVE ( 'NONE', #321, #846, #884, .T. ) ;
#840 = ORIENTED_EDGE ( 'NONE', *, *, #83, .F. ) ;
#841 = AXIS2_PLACEMENT_3D ( 'NONE', #330, #868, #648 ) ;
#842 = CARTESIAN_POINT ( 'NONE',  ( -1.798374999999997878E-13, 40.00000000000000711, 0.000000000000000000 ) ) ;
#843 = AXIS2_PLACEMENT_3D ( 'NONE', #501, #816, #589 ) ;
#844 = CIRCLE ( 'NONE', #583, 3.249999999999912514 ) ;
#845 = DIRECTION ( 'NONE',  ( -1.000000000000000000, -4.625929269271522399E-15, 0.000000000000000000 ) ) ;
#846 = VERTEX_POINT ( 'NONE', #403 ) ;
#847 = DIRECTION ( 'NONE',  ( -4.495833333333385121E-15, 1.000000000000000000, -0.000000000000000000 ) ) ;
#848 = DIRECTION ( 'NONE',  ( -4.495833333333385121E-15, 1.000000000000000000, -0.000000000000000000 ) ) ;
#849 = ORIENTED_EDGE ( 'NONE', *, *, #444, .T. ) ;
#850 = DIRECTION ( 'NONE',  ( -4.495833333333385121E-15, 1.000000000000000000, -0.000000000000000000 ) ) ;
#851 = EDGE_CURVE ( 'NONE', #298, #488, #707, .T. ) ;
#852 = CARTESIAN_POINT ( 'NONE',  ( -1.854196159031568857E-13, 41.24161984870963948, 0.000000000000000000 ) ) ;
#853 = VERTEX_POINT ( 'NONE', #414 ) ;
#854 = CARTESIAN_POINT ( 'NONE',  ( -1.551104166666666118E-13, 34.50000000000010658, 0.000000000000000000 ) ) ;
#855 = AXIS2_PLACEMENT_3D ( 'NONE', #68, #375, #74 ) ;
#856 = AXIS2_PLACEMENT_3D ( 'NONE', #859, #705, #556 ) ;
#857 = CONICAL_SURFACE ( 'NONE', #189, 2.999999999999976019, 0.5235987755983178005 ) ;
#858 = DIRECTION ( 'NONE',  ( -1.000000000000000000, -4.625929269271547642E-15, 0.000000000000000000 ) ) ;
#859 = CARTESIAN_POINT ( 'NONE',  ( -1.552577510999242349E-13, 34.52886751345949534, 0.000000000000000000 ) ) ;
#860 = FACE_OUTER_BOUND ( 'NONE', #991, .T. ) ;
#861 = DIRECTION ( 'NONE',  ( -4.495833333333385121E-15, 1.000000000000000000, -0.000000000000000000 ) ) ;
#862 = EDGE_CURVE ( 'NONE', #946, #510, #722, .T. ) ;
#863 = DIRECTION ( 'NONE',  ( -4.495833333333385121E-15, 1.000000000000000000, -0.000000000000000000 ) ) ;
#864 = EDGE_LOOP ( 'NONE', ( #87, #446, #342, #257 ) ) ;
#865 = DIRECTION ( 'NONE',  ( 0.4082482904632196985, 0.9128709291755644495, 4.999599621731659779E-17 ) ) ;
#866 = CARTESIAN_POINT ( 'NONE',  ( -4.614909438447457668E-14, 10.26393202249706249, 0.000000000000000000 ) ) ;
#867 = EDGE_CURVE ( 'NONE', #973, #625, #45, .T. ) ;
#868 = DIRECTION ( 'NONE',  ( -4.495833333333385121E-15, 1.000000000000000000, -0.000000000000000000 ) ) ;
#869 = ORIENTED_EDGE ( 'NONE', *, *, #324, .T. ) ;
#870 = DIRECTION ( 'NONE',  ( 4.495833333333385121E-15, -1.000000000000000000, 0.000000000000000000 ) ) ;
#871 = LINE ( 'NONE', #555, #154 ) ;
#872 = AXIS2_PLACEMENT_3D ( 'NONE', #553, #4, #456 ) ;
#873 = CARTESIAN_POINT ( 'NONE',  ( -5.620208333328622268E-14, 12.49999999998989431, 0.000000000000000000 ) ) ;
#874 = CIRCLE ( 'NONE', #435, 5.000000000004797940 ) ;
#875 = VECTOR ( 'NONE', #491, 1000.000000000000227 ) ;
#876 = EDGE_LOOP ( 'NONE', ( #131, #712, #986, #1002 ) ) ;
#877 = CARTESIAN_POINT ( 'NONE',  ( -2.202999999999999549E-13, 48.99999999999994316, 0.000000000000000000 ) ) ;
#878 = EDGE_CURVE ( 'NONE', #910, #823, #316, .T. ) ;
#879 = CARTESIAN_POINT ( 'NONE',  ( -2.499999999999800160, 42.49999999999967315, 0.000000000000000000 ) ) ;
#880 = EDGE_LOOP ( 'NONE', ( #817, #138, #962, #351 ) ) ;
#881 = CARTESIAN_POINT ( 'NONE',  ( -3.500000000000189626, 34.50000000000009237, 0.000000000000000000 ) ) ;
#882 = ORIENTED_EDGE ( 'NONE', *, *, #690, .T. ) ;
#883 = FACE_OUTER_BOUND ( 'NONE', #43, .T. ) ;
#884 = CIRCLE ( 'NONE', #9, 2.949999999999894484 ) ;
#885 = CARTESIAN_POINT ( 'NONE',  ( -2.113083333333336185E-13, 47.00000000000003553, 0.000000000000000000 ) ) ;
#886 = AXIS2_PLACEMENT_3D ( 'NONE', #543, #547, #482 ) ;
#887 = ORIENTED_EDGE ( 'NONE', *, *, #953, .F. ) ;
#888 = DIRECTION ( 'NONE',  ( -4.495833333333385121E-15, 1.000000000000000000, -0.000000000000000000 ) ) ;
#889 = DIRECTION ( 'NONE',  ( 1.000000000000000000, 4.625929269271522399E-15, 0.000000000000000000 ) ) ;
#890 = EDGE_CURVE ( 'NONE', #961, #85, #340, .T. ) ;
#891 = ORIENTED_EDGE ( 'NONE', *, *, #229, .F. ) ;
#892 = SURFACE_SIDE_STYLE ('',( #46 ) ) ;
#893 = ORIENTED_EDGE ( 'NONE', *, *, #660, .F. ) ;
#894 = DIRECTION ( 'NONE',  ( -4.495833333333385121E-15, 1.000000000000000000, -0.000000000000000000 ) ) ;
#895 = EDGE_CURVE ( 'NONE', #477, #575, #844, .T. ) ;
#896 = ORIENTED_EDGE ( 'NONE', *, *, #762, .T. ) ;
#897 = PRODUCT ( '99688-SI10-M06+S9MT1003-142', '99688-SI10-M06+S9MT1003-142', '', ( #361 ) ) ;
#898 = DIRECTION ( 'NONE',  ( -4.495833333333385121E-15, 1.000000000000000000, -0.000000000000000000 ) ) ;
#899 = CARTESIAN_POINT ( 'NONE',  ( -3.067157287525415388, 35.31715728752539718, 0.000000000000000000 ) ) ;
#900 = AXIS2_PLACEMENT_3D ( 'NONE', #1001, #619, #140 ) ;
#901 = ORIENTED_EDGE ( 'NONE', *, *, #773, .T. ) ;
#902 = CIRCLE ( 'NONE', #900, 3.067157287525256848 ) ;
#903 = CONICAL_SURFACE ( 'NONE', #772, 3.249999999999887201, 0.7853981633973147192 ) ;
#904 = EDGE_CURVE ( 'NONE', #575, #477, #499, .T. ) ;
#905 = DIRECTION ( 'NONE',  ( -4.495833333333385121E-15, 1.000000000000000000, -0.000000000000000000 ) ) ;
#906 = ORIENTED_EDGE ( 'NONE', *, *, #486, .F. ) ;
#907 = DIRECTION ( 'NONE',  ( -4.495833333333385121E-15, 1.000000000000000000, -0.000000000000000000 ) ) ;
#908 = ADVANCED_FACE ( 'NONE', ( #244 ), #7, .T. ) ;
#909 = CARTESIAN_POINT ( 'NONE',  ( -1.574261554448952438E-13, 35.03431457505080004, 0.000000000000000000 ) ) ;
#910 = VERTEX_POINT ( 'NONE', #634 ) ;
#911 = FACE_OUTER_BOUND ( 'NONE', #698, .T. ) ;
#912 = EDGE_LOOP ( 'NONE', ( #765, #274, #622 ) ) ;
#913 = CARTESIAN_POINT ( 'NONE',  ( -3.050000000000153477, 41.91905249806889344, 0.000000000000000000 ) ) ;
#914 = ORIENTED_EDGE ( 'NONE', *, *, #188, .F. ) ;
#915 = DIRECTION ( 'NONE',  ( -1.000000000000000000, 0.000000000000000000, 0.000000000000000000 ) ) ;
#916 = AXIS2_PLACEMENT_3D ( 'NONE', #944, #82, #621 ) ;
#917 = AXIS2_PLACEMENT_3D ( 'NONE', #646, #134, #592 ) ;
#918 = DIRECTION ( 'NONE',  ( -4.495833333333385121E-15, 1.000000000000000000, -0.000000000000000000 ) ) ;
#919 = ADVANCED_FACE ( 'NONE', ( #249 ), #569, .F. ) ;
#920 = ORIENTED_EDGE ( 'NONE', *, *, #616, .T. ) ;
#921 = DIRECTION ( 'NONE',  ( -1.000000000000000000, -3.083952846181057925E-15, 0.000000000000000000 ) ) ;
#922 = LINE ( 'NONE', #227, #535 ) ;
#923 = VERTEX_POINT ( 'NONE', #264 ) ;
#924 = DIRECTION ( 'NONE',  ( -4.495833333333385121E-15, 1.000000000000000000, -0.000000000000000000 ) ) ;
#925 = CARTESIAN_POINT ( 'NONE',  ( -4.614909438447457668E-14, 10.26393202249706249, 0.000000000000000000 ) ) ;
#926 = CYLINDRICAL_SURFACE ( 'NONE', #58, 5.999999999999870326 ) ;
#927 = ORIENTED_EDGE ( 'NONE', *, *, #47, .F. ) ;
#928 = DIRECTION ( 'NONE',  ( -1.000000000000000000, -4.270088556250750202E-15, 0.000000000000000000 ) ) ;
#929 = ADVANCED_FACE ( 'NONE', ( #883 ), #952, .T. ) ;
#930 = VECTOR ( 'NONE', #863, 1000.000000000000000 ) ;
#931 = CONICAL_SURFACE ( 'NONE', #652, 2904.210877675055144, 1.239183768915892658 ) ;
#932 = DIRECTION ( 'NONE',  ( -4.495833333333385121E-15, 1.000000000000000000, -0.000000000000000000 ) ) ;
#933 = AXIS2_PLACEMENT_3D ( 'NONE', #16, #99, #322 ) ;
#934 = AXIS2_PLACEMENT_3D ( 'NONE', #192, #751, #596 ) ;
#935 = LINE ( 'NONE', #777, #678 ) ;
#936 = ORIENTED_EDGE ( 'NONE', *, *, #470, .F. ) ;
#937 = LINE ( 'NONE', #558, #123 ) ;
#938 = EDGE_CURVE ( 'NONE', #142, #853, #937, .T. ) ;
#939 = CARTESIAN_POINT ( 'NONE',  ( 3.049999999999765343, 41.24161984870964659, 3.735172737399366996E-16 ) ) ;
#940 = CARTESIAN_POINT ( 'NONE',  ( -1.820854166666667064E-13, 40.50000000000005684, 0.000000000000000000 ) ) ;
#941 = APPLICATION_CONTEXT ( 'automotive_design' ) ;
#942 = ORIENTED_EDGE ( 'NONE', *, *, #566, .T. ) ;
#943 = FACE_OUTER_BOUND ( 'NONE', #67, .T. ) ;
#944 = CARTESIAN_POINT ( 'NONE',  ( -1.551104166666665613E-13, 34.50000000000009237, 0.000000000000000000 ) ) ;
#945 = CARTESIAN_POINT ( 'NONE',  ( -5.999999999999877431, 12.49999999998986588, 0.000000000000000000 ) ) ;
#946 = VERTEX_POINT ( 'NONE', #259 ) ;
#947 = CARTESIAN_POINT ( 'NONE',  ( -3.198957393017393648E-15, 1.000000000000507372, 1.593317664195575400E-31 ) ) ;
#948 = CYLINDRICAL_SURFACE ( 'NONE', #532, 2.249999999999957812 ) ;
#949 = COLOUR_RGB ( '',0.7921568627450980005, 0.8196078431372548767, 0.9333333333333333481 ) ;
#950 = AXIS2_PLACEMENT_3D ( 'NONE', #735, #518, #370 ) ;
#951 = DIRECTION ( 'NONE',  ( -1.000000000000000000, -4.625929269271585507E-15, 0.000000000000000000 ) ) ;
#952 = CONICAL_SURFACE ( 'NONE', #449, 5.999999999999919176, 0.7853981633968628584 ) ;
#953 = EDGE_CURVE ( 'NONE', #339, #519, #573, .T. ) ;
#954 = ORIENTED_EDGE ( 'NONE', *, *, #229, .T. ) ;
#955 = DIRECTION ( 'NONE',  ( 1.000000000000000000, 4.270088556250750202E-15, 0.000000000000000000 ) ) ;
#956 = VERTEX_POINT ( 'NONE', #20 ) ;
#957 = FACE_OUTER_BOUND ( 'NONE', #450, .T. ) ;
#958 = ORIENTED_EDGE ( 'NONE', *, *, #410, .T. ) ;
#959 = CARTESIAN_POINT ( 'NONE',  ( -5.000000000004858336, 10.26393202249704117, 0.000000000000000000 ) ) ;
#960 = DIRECTION ( 'NONE',  ( 1.000000000000000000, 0.000000000000000000, 1.224646799147353454E-16 ) ) ;
#961 = VERTEX_POINT ( 'NONE', #91 ) ;
#962 = ORIENTED_EDGE ( 'NONE', *, *, #348, .T. ) ;
#963 = ADVANCED_FACE ( 'NONE', ( #639 ), #398, .T. ) ;
#964 = PRESENTATION_LAYER_ASSIGNMENT (  '', '', ( #218 ) ) ;
#965 = AXIS2_PLACEMENT_3D ( 'NONE', #471, #790, #89 ) ;
#966 = DIRECTION ( 'NONE',  ( -4.495833333333385121E-15, 1.000000000000000000, -0.000000000000000000 ) ) ;
#967 = AXIS2_PLACEMENT_3D ( 'NONE', #852, #157, #385 ) ;
#968 = ORIENTED_EDGE ( 'NONE', *, *, #725, .F. ) ;
#969 = PRODUCT_DEFINITION_FORMATION_WITH_SPECIFIED_SOURCE ( 'ANY', '', #897, .NOT_KNOWN. ) ;
#970 = CARTESIAN_POINT ( 'NONE',  ( -1.886511780124777715E-13, 41.91905249806890765, 0.000000000000000000 ) ) ;
#971 = ADVANCED_FACE ( 'NONE', ( #943 ), #223, .T. ) ;
#972 = CARTESIAN_POINT ( 'NONE',  ( 2.249999999999776623, 41.91905249806892186, 2.755455298081499911E-16 ) ) ;
#973 = VERTEX_POINT ( 'NONE', #717 ) ;
#974 = DIRECTION ( 'NONE',  ( -1.224646799147353207E-16, -5.505807901166705309E-31, 1.000000000000000000 ) ) ;
#975 = FACE_OUTER_BOUND ( 'NONE', #579, .T. ) ;
#976 = FACE_OUTER_BOUND ( 'NONE', #409, .T. ) ;
#977 = ADVANCED_FACE ( 'NONE', ( #328 ), #645, .T. ) ;
#978 = EDGE_LOOP ( 'NONE', ( #30, #567, #116, #452 ) ) ;
#979 =( NAMED_UNIT ( * ) PLANE_ANGLE_UNIT ( ) SI_UNIT ( $, .RADIAN. ) );
#980 = CARTESIAN_POINT ( 'NONE',  ( -1.546608333333325213E-13, 34.39999999999993463, 0.000000000000000000 ) ) ;
#981 = ORIENTED_EDGE ( 'NONE', *, *, #713, .T. ) ;
#982 = EDGE_CURVE ( 'NONE', #128, #103, #96, .T. ) ;
#983 = AXIS2_PLACEMENT_3D ( 'NONE', #436, #509, #578 ) ;
#984 = DIRECTION ( 'NONE',  ( -1.000000000000000000, -4.495833333333385121E-15, 0.000000000000000000 ) ) ;
#985 = MECHANICAL_DESIGN_GEOMETRIC_PRESENTATION_REPRESENTATION (  '', ( #419 ), #633 ) ;
#986 = ORIENTED_EDGE ( 'NONE', *, *, #376, .T. ) ;
#987 = AXIS2_PLACEMENT_3D ( 'NONE', #400, #151, #775 ) ;
#988 = FACE_OUTER_BOUND ( 'NONE', #149, .T. ) ;
#989 = EDGE_LOOP ( 'NONE', ( #662, #727, #59, #40 ) ) ;
#990 = CARTESIAN_POINT ( 'NONE',  ( 2.999999999999746869, 48.99999999999996447, 3.673940397442019439E-16 ) ) ;
#991 = EDGE_LOOP ( 'NONE', ( #1000, #315, #238, #557 ) ) ;
#992 = DIRECTION ( 'NONE',  ( -4.495833333333385121E-15, 1.000000000000000000, -0.000000000000000000 ) ) ;
#993 = ORIENTED_EDGE ( 'NONE', *, *, #541, .F. ) ;
#994 = DIRECTION ( 'NONE',  ( -4.495833333333385121E-15, 1.000000000000000000, -0.000000000000000000 ) ) ;
#995 = ADVANCED_FACE ( 'NONE', ( #659, #289 ), #195, .F. ) ;
#996 = DIRECTION ( 'NONE',  ( -4.495833333333385121E-15, 1.000000000000000000, -0.000000000000000000 ) ) ;
#997 = CIRCLE ( 'NONE', #872, 2.249999999999964917 ) ;
#998 = CARTESIAN_POINT ( 'NONE',  ( -3.350000000000045386, 35.03431457505078583, 0.000000000000000000 ) ) ;
#999 = DIRECTION ( 'NONE',  ( -1.000000000000000000, -4.510909242604470730E-15, 0.000000000000000000 ) ) ;
#1000 = ORIENTED_EDGE ( 'NONE', *, *, #982, .F. ) ;
#1001 = CARTESIAN_POINT ( 'NONE',  ( -1.587842196384991295E-13, 35.31715728752541139, 0.000000000000000000 ) ) ;
#1002 = ORIENTED_EDGE ( 'NONE', *, *, #577, .F. ) ;
ENDSEC;
END-ISO-10303-21;
