ISO-10303-21;
HEADER;
FILE_DESCRIPTION (( 'STEP AP214' ),
    '1' );
FILE_NAME ('99688-SI06-M04+S9MT06T1-120.STEP',
    '2023-09-26T05:17:24',
    ( '' ),
    ( '' ),
    'SwSTEP 2.0',
    'SolidWorks 2020',
    '' );
FILE_SCHEMA (( 'AUTOMOTIVE_DESIGN' ));
ENDSEC;

DATA;
#1 = VECTOR ( 'NONE', #596, 1000.000000000000000 ) ;
#2 = DIRECTION ( 'NONE',  ( -0.000000000000000000, 1.000000000000000000, -0.000000000000000000 ) ) ;
#3 = DIRECTION ( 'NONE',  ( 0.000000000000000000, 0.000000000000000000, 1.000000000000000000 ) ) ;
#4 = CARTESIAN_POINT ( 'NONE',  ( 2.700000000000000107E-13, 21.82679489317836286, 2.400000049794983603 ) ) ;
#5 = ORIENTED_EDGE ( 'NONE', *, *, #645, .T. ) ;
#6 = VECTOR ( 'NONE', #732, 999.9999999999998863 ) ;
#7 = CIRCLE ( 'NONE', #514, 3.900000049795007140 ) ;
#8 = PRESENTATION_STYLE_ASSIGNMENT (( #734 ) ) ;
#9 = CARTESIAN_POINT ( 'NONE',  ( 2.700000000000000107E-13, 25.39999997393523401, -2.250000049794935286 ) ) ;
#10 = DIRECTION ( 'NONE',  ( -0.000000000000000000, 1.000000000000000000, -0.000000000000000000 ) ) ;
#11 = CARTESIAN_POINT ( 'NONE',  ( 2.700000000000000107E-13, 1000.000000000000227, 0.000000000000000000 ) ) ;
#12 = DIRECTION ( 'NONE',  ( -0.000000000000000000, 1.000000000000000000, -0.000000000000000000 ) ) ;
#13 = VERTEX_POINT ( 'NONE', #810 ) ;
#14 = EDGE_CURVE ( 'NONE', #382, #138, #620, .T. ) ;
#15 = DIRECTION ( 'NONE',  ( 0.000000000000000000, 0.9420533805113692205, 0.3354630058100313561 ) ) ;
#16 = EDGE_LOOP ( 'NONE', ( #182, #75, #276, #789 ) ) ;
#17 = CARTESIAN_POINT ( 'NONE',  ( 2.704898587257570859E-13, 32.00000000000053291, -4.000000049795015222 ) ) ;
#18 = CARTESIAN_POINT ( 'NONE',  ( 2.702020667279574798E-13, 26.64999997393515230, -1.650000049795028900 ) ) ;
#19 = ORIENTED_EDGE ( 'NONE', *, *, #570, .T. ) ;
#20 = DIRECTION ( 'NONE',  ( -0.000000000000000000, 1.000000000000000000, -0.000000000000000000 ) ) ;
#21 = CIRCLE ( 'NONE', #782, 0.4000000000000001887 ) ;
#22 = DIRECTION ( 'NONE',  ( -0.000000000000000000, 1.000000000000000000, -0.000000000000000000 ) ) ;
#23 = AXIS2_PLACEMENT_3D ( 'NONE', #476, #748, #818 ) ;
#24 = DIRECTION ( 'NONE',  ( -0.000000000000000000, 1.000000000000000000, -0.000000000000000000 ) ) ;
#25 = AXIS2_PLACEMENT_3D ( 'NONE', #304, #365, #501 ) ;
#26 = DIRECTION ( 'NONE',  ( -0.000000000000000000, 1.000000000000000000, -0.000000000000000000 ) ) ;
#27 = ADVANCED_FACE ( 'NONE', ( #867 ), #159, .T. ) ;
#28 = FACE_OUTER_BOUND ( 'NONE', #719, .T. ) ;
#29 = LINE ( 'NONE', #301, #401 ) ;
#30 = EDGE_LOOP ( 'NONE', ( #144, #19, #147, #43 ) ) ;
#31 = CARTESIAN_POINT ( 'NONE',  ( 2.703122849398807439E-13, 21.82679489317836286, -2.400000049794983603 ) ) ;
#32 = CIRCLE ( 'NONE', #329, 4.000000049795015222 ) ;
#33 = EDGE_CURVE ( 'NONE', #586, #378, #194, .T. ) ;
#34 = PRODUCT_DEFINITION_CONTEXT ( 'detailed design', #573, 'design' ) ;
#35 = AXIS2_PLACEMENT_3D ( 'NONE', #460, #736, #726 ) ;
#36 = VERTEX_POINT ( 'NONE', #665 ) ;
#37 = VERTEX_POINT ( 'NONE', #263 ) ;
#38 = CONICAL_SURFACE ( 'NONE', #513, 1732.050807568878554, 1.047197551196598075 ) ;
#39 = EDGE_CURVE ( 'NONE', #303, #13, #330, .T. ) ;
#40 = DIRECTION ( 'NONE',  ( -0.000000000000000000, 1.000000000000000000, -0.000000000000000000 ) ) ;
#41 = AXIS2_PLACEMENT_3D ( 'NONE', #222, #155, #762 ) ;
#42 = ORIENTED_EDGE ( 'NONE', *, *, #806, .F. ) ;
#43 = ORIENTED_EDGE ( 'NONE', *, *, #549, .F. ) ;
#44 = DIRECTION ( 'NONE',  ( 0.000000000000000000, 0.000000000000000000, 1.000000000000000000 ) ) ;
#45 = ORIENTED_EDGE ( 'NONE', *, *, #117, .F. ) ;
#46 = CARTESIAN_POINT ( 'NONE',  ( 2.700000000000000107E-13, 5.899999973936930431, 0.000000000000000000 ) ) ;
#47 = DIRECTION ( 'NONE',  ( 1.224646799146985401E-16, 0.000000000000000000, -1.000000000000000000 ) ) ;
#48 = LINE ( 'NONE', #652, #429 ) ;
#49 = VECTOR ( 'NONE', #285, 1000.000000000000000 ) ;
#50 = EDGE_CURVE ( 'NONE', #251, #215, #89, .T. ) ;
#51 = ORIENTED_EDGE ( 'NONE', *, *, #712, .T. ) ;
#52 = DIRECTION ( 'NONE',  ( -0.000000000000000000, 1.000000000000000000, -0.000000000000000000 ) ) ;
#53 = DIRECTION ( 'NONE',  ( 0.000000000000000000, 0.000000000000000000, 1.000000000000000000 ) ) ;
#54 = ADVANCED_FACE ( 'NONE', ( #526 ), #426, .F. ) ;
#55 = FACE_OUTER_BOUND ( 'NONE', #321, .T. ) ;
#56 = ORIENTED_EDGE ( 'NONE', *, *, #785, .F. ) ;
#57 = EDGE_CURVE ( 'NONE', #98, #508, #662, .T. ) ;
#58 = CIRCLE ( 'NONE', #547, 2.250000049794935286 ) ;
#59 = FACE_OUTER_BOUND ( 'NONE', #218, .T. ) ;
#60 = DIRECTION ( 'NONE',  ( -0.000000000000000000, 1.000000000000000000, -0.000000000000000000 ) ) ;
#61 = ORIENTED_EDGE ( 'NONE', *, *, #117, .T. ) ;
#62 = CARTESIAN_POINT ( 'NONE',  ( 2.701831813833877050E-13, 22.68431454898600208, 0.000000000000000000 ) ) ;
#63 = AXIS2_PLACEMENT_3D ( 'NONE', #862, #536, #394 ) ;
#64 = EDGE_LOOP ( 'NONE', ( #284, #558, #580, #863 ) ) ;
#65 = CARTESIAN_POINT ( 'NONE',  ( 2.700000000000000107E-13, 1.563000000000000004E-13, 0.000000000000000000 ) ) ;
#66 = ORIENTED_EDGE ( 'NONE', *, *, #873, .T. ) ;
#67 = DIRECTION ( 'NONE',  ( 0.000000000000000000, 0.000000000000000000, 1.000000000000000000 ) ) ;
#68 = ORIENTED_EDGE ( 'NONE', *, *, #458, .T. ) ;
#69 = CARTESIAN_POINT ( 'NONE',  ( 2.700000000000000107E-13, 26.64999997393515230, 0.000000000000000000 ) ) ;
#70 = VERTEX_POINT ( 'NONE', #875 ) ;
#71 = FACE_OUTER_BOUND ( 'NONE', #122, .T. ) ;
#72 = UNCERTAINTY_MEASURE_WITH_UNIT (LENGTH_MEASURE( 1.000000000000000082E-05 ), #614, 'distance_accuracy_value', 'NONE');
#73 = EDGE_CURVE ( 'NONE', #413, #138, #624, .T. ) ;
#74 = DIRECTION ( 'NONE',  ( -0.000000000000000000, 1.000000000000000000, -0.000000000000000000 ) ) ;
#75 = ORIENTED_EDGE ( 'NONE', *, *, #192, .T. ) ;
#76 = ADVANCED_FACE ( 'NONE', ( #268 ), #708, .T. ) ;
#77 = AXIS2_PLACEMENT_3D ( 'NONE', #198, #267, #278 ) ;
#78 = CARTESIAN_POINT ( 'NONE',  ( 2.700000000000000107E-13, 21.99999997393523898, 0.000000000000000000 ) ) ;
#79 = VERTEX_POINT ( 'NONE', #450 ) ;
#80 = LINE ( 'NONE', #351, #438 ) ;
#81 = CARTESIAN_POINT ( 'NONE',  ( 2.700000000000000107E-13, 32.00000000000053291, 0.000000000000000000 ) ) ;
#82 = FILL_AREA_STYLE_COLOUR ( '', #167 ) ;
#83 = DIRECTION ( 'NONE',  ( 0.000000000000000000, 0.000000000000000000, 1.000000000000000000 ) ) ;
#84 = ORIENTED_EDGE ( 'NONE', *, *, #33, .F. ) ;
#85 = CARTESIAN_POINT ( 'NONE',  ( 2.700000000000000107E-13, 22.68431454898598076, 0.000000000000000000 ) ) ;
#86 = DIRECTION ( 'NONE',  ( 0.000000000000000000, -1.000000000000000000, 0.000000000000000000 ) ) ;
#87 = CIRCLE ( 'NONE', #424, 4.000000049795015222 ) ;
#88 = CARTESIAN_POINT ( 'NONE',  ( 2.700000000000000107E-13, 32.00000000000054001, 0.000000000000000000 ) ) ;
#89 = CIRCLE ( 'NONE', #584, 2.217157337320304400 ) ;
#90 = DIRECTION ( 'NONE',  ( 0.000000000000000000, 0.000000000000000000, 1.000000000000000000 ) ) ;
#91 = EDGE_CURVE ( 'NONE', #303, #524, #219, .T. ) ;
#92 = AXIS2_PLACEMENT_3D ( 'NONE', #800, #389, #667 ) ;
#93 = EDGE_CURVE ( 'NONE', #79, #473, #591, .T. ) ;
#94 = CARTESIAN_POINT ( 'NONE',  ( 2.700000000000000107E-13, 5.899999973936930431, 0.000000000000000000 ) ) ;
#95 = CIRCLE ( 'NONE', #130, 2.250000049794935286 ) ;
#96 = LINE ( 'NONE', #170, #153 ) ;
#97 = CARTESIAN_POINT ( 'NONE',  ( 2.702755455359063057E-13, 25.39999997393523401, 2.250000049794935286 ) ) ;
#98 = VERTEX_POINT ( 'NONE', #189 ) ;
#99 = CARTESIAN_POINT ( 'NONE',  ( 2.700000000000000107E-13, 8.708218359266085784, 0.000000000000000000 ) ) ;
#100 = VECTOR ( 'NONE', #793, 1000.000000000000000 ) ;
#101 = VERTEX_POINT ( 'NONE', #743 ) ;
#102 = EDGE_CURVE ( 'NONE', #215, #13, #174, .T. ) ;
#103 = CONICAL_SURFACE ( 'NONE', #173, 3.000000049792741486, 0.3420966728675840507 ) ;
#104 = ORIENTED_EDGE ( 'NONE', *, *, #238, .F. ) ;
#105 = VERTEX_POINT ( 'NONE', #249 ) ;
#106 = CARTESIAN_POINT ( 'NONE',  ( 2.700000000000000107E-13, 26.64999997393515230, 0.000000000000000000 ) ) ;
#107 = CLOSED_SHELL ( 'NONE', ( #379, #396, #246, #227, #554, #76, #168, #693, #618, #54, #27, #502, #747, #868, #437, #363, #583, #635, #791, #244, #298, #566, #258, #306, #516, #850, #333, #203, #713, #417, #178, #369, #511 ) ) ;
#108 = ORIENTED_EDGE ( 'NONE', *, *, #528, .T. ) ;
#109 = ORIENTED_EDGE ( 'NONE', *, *, #241, .T. ) ;
#110 = AXIS2_PLACEMENT_3D ( 'NONE', #718, #252, #790 ) ;
#111 = DIRECTION ( 'NONE',  ( 0.000000000000000000, 0.000000000000000000, 1.000000000000000000 ) ) ;
#112 = CIRCLE ( 'NONE', #626, 3.900000049795007140 ) ;
#113 = ORIENTED_EDGE ( 'NONE', *, *, #93, .F. ) ;
#114 = ORIENTED_EDGE ( 'NONE', *, *, #570, .F. ) ;
#115 = CARTESIAN_POINT ( 'NONE',  ( 2.700000000000000107E-13, 1.595945597898662527E-13, 3.294559789866256988E-15 ) ) ;
#116 = DIRECTION ( 'NONE',  ( -0.000000000000000000, 1.000000000000000000, -0.000000000000000000 ) ) ;
#117 = EDGE_CURVE ( 'NONE', #242, #101, #816, .T. ) ;
#118 = EDGE_LOOP ( 'NONE', ( #395, #420, #309, #366 ) ) ;
#119 = CARTESIAN_POINT ( 'NONE',  ( 2.700000000000000107E-13, 22.99999997393525319, 0.000000000000000000 ) ) ;
#120 = VERTEX_POINT ( 'NONE', #331 ) ;
#121 = CARTESIAN_POINT ( 'NONE',  ( 2.700000000000000107E-13, 1.732050836316886055, 0.000000000000000000 ) ) ;
#122 = EDGE_LOOP ( 'NONE', ( #855, #859, #515, #723 ) ) ;
#123 = VERTEX_POINT ( 'NONE', #593 ) ;
#124 = CIRCLE ( 'NONE', #709, 1.650000049795028900 ) ;
#125 = DIRECTION ( 'NONE',  ( 0.000000000000000000, 0.000000000000000000, 1.000000000000000000 ) ) ;
#126 = CARTESIAN_POINT ( 'NONE',  ( 2.700000000000000107E-13, 21.89999997393522690, 0.000000000000000000 ) ) ;
#127 = VECTOR ( 'NONE', #619, 1000.000000000000000 ) ;
#128 = DIRECTION ( 'NONE',  ( 0.000000000000000000, 0.000000000000000000, 1.000000000000000000 ) ) ;
#129 = ORIENTED_EDGE ( 'NONE', *, *, #241, .F. ) ;
#130 = AXIS2_PLACEMENT_3D ( 'NONE', #491, #688, #289 ) ;
#131 = CARTESIAN_POINT ( 'NONE',  ( 0.000000000000000000, 0.000000000000000000, 0.000000000000000000 ) ) ;
#132 = DIRECTION ( 'NONE',  ( 0.000000000000000000, 0.000000000000000000, 1.000000000000000000 ) ) ;
#133 = EDGE_LOOP ( 'NONE', ( #787, #577, #113, #135 ) ) ;
#134 = LINE ( 'NONE', #281, #784 ) ;
#135 = ORIENTED_EDGE ( 'NONE', *, *, #164, .F. ) ;
#136 = EDGE_CURVE ( 'NONE', #534, #413, #574, .T. ) ;
#137 = CARTESIAN_POINT ( 'NONE',  ( 2.700000000000000107E-13, 32.00000000000053291, 2.100000049794923385 ) ) ;
#138 = VERTEX_POINT ( 'NONE', #527 ) ;
#139 = PLANE ( 'NONE',  #390 ) ;
#140 = DIRECTION ( 'NONE',  ( -0.000000000000000000, 1.000000000000000000, -0.000000000000000000 ) ) ;
#141 = EDGE_LOOP ( 'NONE', ( #84, #150, #477 ) ) ;
#142 = DIRECTION ( 'NONE',  ( -0.000000000000000000, 1.000000000000000000, -0.000000000000000000 ) ) ;
#143 = CARTESIAN_POINT ( 'NONE',  ( 2.703673940458420226E-13, 32.00000000000053291, -3.000000049792741486 ) ) ;
#144 = ORIENTED_EDGE ( 'NONE', *, *, #812, .F. ) ;
#145 = CARTESIAN_POINT ( 'NONE',  ( 2.701831813833877050E-13, 22.68431454898600208, 2.500000049794923296 ) ) ;
#146 = FACE_OUTER_BOUND ( 'NONE', #724, .T. ) ;
#147 = ORIENTED_EDGE ( 'NONE', *, *, #585, .T. ) ;
#148 = CARTESIAN_POINT ( 'NONE',  ( 2.700000000000000107E-13, 32.00000000000053291, 0.000000000000000000 ) ) ;
#149 = CARTESIAN_POINT ( 'NONE',  ( 2.700000000000000107E-13, 21.99999997393523898, 0.000000000000000000 ) ) ;
#150 = ORIENTED_EDGE ( 'NONE', *, *, #857, .T. ) ;
#151 = LINE ( 'NONE', #17, #49 ) ;
#152 = LINE ( 'NONE', #471, #587 ) ;
#153 = VECTOR ( 'NONE', #234, 1000.000000000000000 ) ;
#154 = EDGE_CURVE ( 'NONE', #37, #79, #376, .T. ) ;
#155 = DIRECTION ( 'NONE',  ( -0.000000000000000000, 1.000000000000000000, -0.000000000000000000 ) ) ;
#156 = DIRECTION ( 'NONE',  ( 0.000000000000000000, -1.000000000000000000, 0.000000000000000000 ) ) ;
#157 = EDGE_CURVE ( 'NONE', #378, #101, #656, .T. ) ;
#158 = DIRECTION ( 'NONE',  ( 0.000000000000000000, 0.000000000000000000, 1.000000000000000000 ) ) ;
#159 = CONICAL_SURFACE ( 'NONE', #503, 4.000000049795015222, 0.7853981633974396193 ) ;
#160 = CARTESIAN_POINT ( 'NONE',  ( 2.700000000000000107E-13, 21.82679489317836286, 0.000000000000000000 ) ) ;
#161 = AXIS2_PLACEMENT_3D ( 'NONE', #770, #423, #698 ) ;
#162 = DIRECTION ( 'NONE',  ( 0.000000000000000000, 0.000000000000000000, 1.000000000000000000 ) ) ;
#163 = EDGE_LOOP ( 'NONE', ( #668, #760, #129 ) ) ;
#164 = EDGE_CURVE ( 'NONE', #70, #79, #48, .T. ) ;
#165 = DIRECTION ( 'NONE',  ( 8.659560562354926695E-17, -0.7071067811865480168, 0.7071067811865470176 ) ) ;
#166 = PRODUCT_DEFINITION_SHAPE ( 'NONE', 'NONE',  #488 ) ;
#167 = COLOUR_RGB ( '',0.7921568627450980005, 0.8196078431372548767, 0.9333333333333333481 ) ;
#168 = ADVANCED_FACE ( 'NONE', ( #860 ), #183, .F. ) ;
#169 = ORIENTED_EDGE ( 'NONE', *, *, #381, .T. ) ;
#170 = CARTESIAN_POINT ( 'NONE',  ( 2.700000000000000107E-13, 31.50000000000054001, -2.000000000000112799 ) ) ;
#171 = MECHANICAL_DESIGN_GEOMETRIC_PRESENTATION_REPRESENTATION (  '', ( #489 ), #253 ) ;
#172 = AXIS2_PLACEMENT_3D ( 'NONE', #539, #275, #813 ) ;
#173 = AXIS2_PLACEMENT_3D ( 'NONE', #46, #2, #874 ) ;
#174 = CIRCLE ( 'NONE', #608, 0.4000000000000001887 ) ;
#175 = VECTOR ( 'NONE', #823, 1000.000000000000114 ) ;
#176 = ORIENTED_EDGE ( 'NONE', *, *, #357, .T. ) ;
#177 = DIRECTION ( 'NONE',  ( 0.000000000000000000, -1.000000000000000000, 0.000000000000000000 ) ) ;
#178 = ADVANCED_FACE ( 'NONE', ( #738 ), #788, .T. ) ;
#179 = EDGE_LOOP ( 'NONE', ( #239, #655, #5, #492 ) ) ;
#180 = LINE ( 'NONE', #185, #6 ) ;
#181 = EDGE_LOOP ( 'NONE', ( #627, #827, #374, #56 ) ) ;
#182 = ORIENTED_EDGE ( 'NONE', *, *, #725, .T. ) ;
#183 = TOROIDAL_SURFACE ( 'NONE', #686, 2.500000049794923296, 0.4000000000000001887 ) ;
#184 = CARTESIAN_POINT ( 'NONE',  ( 2.700000000000000107E-13, 22.96715726146062408, 0.000000000000000000 ) ) ;
#185 = CARTESIAN_POINT ( 'NONE',  ( 2.700000000000000107E-13, 21.99999997393523898, 2.700000049794962109 ) ) ;
#186 = CIRCLE ( 'NONE', #817, 2.250000049794935286 ) ;
#187 = ORIENTED_EDGE ( 'NONE', *, *, #650, .F. ) ;
#188 = DIRECTION ( 'NONE',  ( 0.000000000000000000, 0.000000000000000000, 1.000000000000000000 ) ) ;
#189 = CARTESIAN_POINT ( 'NONE',  ( 2.700000000000000107E-13, 32.00000000000054001, -1.500000000000113021 ) ) ;
#190 = CARTESIAN_POINT ( 'NONE',  ( 2.700000000000000107E-13, 25.39999997393523401, 0.000000000000000000 ) ) ;
#191 = ORIENTED_EDGE ( 'NONE', *, *, #230, .F. ) ;
#192 = EDGE_CURVE ( 'NONE', #260, #120, #612, .T. ) ;
#193 = DIRECTION ( 'NONE',  ( 0.000000000000000000, 0.000000000000000000, 1.000000000000000000 ) ) ;
#194 = LINE ( 'NONE', #115, #464 ) ;
#195 = CARTESIAN_POINT ( 'NONE',  ( 2.700000000000000107E-13, 21.99999997393523898, 0.000000000000000000 ) ) ;
#196 = EDGE_LOOP ( 'NONE', ( #487, #594, #878, #674 ) ) ;
#197 = SHAPE_DEFINITION_REPRESENTATION ( #166, #720 ) ;
#198 = CARTESIAN_POINT ( 'NONE',  ( 2.701831813833877050E-13, 21.99999997393521411, 2.300000049794923118 ) ) ;
#199 = DIRECTION ( 'NONE',  ( -0.000000000000000000, 1.000000000000000000, -0.000000000000000000 ) ) ;
#200 = CIRCLE ( 'NONE', #392, 1.650000049795028900 ) ;
#201 = DIRECTION ( 'NONE',  ( 0.000000000000000000, 0.000000000000000000, 1.000000000000000000 ) ) ;
#202 = CARTESIAN_POINT ( 'NONE',  ( 2.700000000000000107E-13, 21.99999997393523898, 2.700000049794962109 ) ) ;
#203 = ADVANCED_FACE ( 'NONE', ( #456 ), #721, .T. ) ;
#204 = ORIENTED_EDGE ( 'NONE', *, *, #14, .T. ) ;
#205 = EDGE_CURVE ( 'NONE', #215, #251, #448, .T. ) ;
#206 = AXIS2_PLACEMENT_3D ( 'NONE', #94, #499, #158 ) ;
#207 = DIRECTION ( 'NONE',  ( 1.060575238724907161E-16, 0.4999999999999997224, -0.8660254037844388186 ) ) ;
#208 = CARTESIAN_POINT ( 'NONE',  ( 2.700000000000000107E-13, 25.39999997393523401, 0.000000000000000000 ) ) ;
#209 = CARTESIAN_POINT ( 'NONE',  ( 2.700000000000000107E-13, 22.96715726146062408, 0.000000000000000000 ) ) ;
#210 = CARTESIAN_POINT ( 'NONE',  ( 2.700000000000000107E-13, 1.732050836316886055, 3.000000049792741041 ) ) ;
#211 = AXIS2_PLACEMENT_3D ( 'NONE', #324, #319, #3 ) ;
#212 = LINE ( 'NONE', #631, #127 ) ;
#213 = ORIENTED_EDGE ( 'NONE', *, *, #833, .T. ) ;
#214 = LINE ( 'NONE', #468, #361 ) ;
#215 = VERTEX_POINT ( 'NONE', #795 ) ;
#216 = FACE_OUTER_BOUND ( 'NONE', #540, .T. ) ;
#217 = PLANE ( 'NONE',  #466 ) ;
#218 = EDGE_LOOP ( 'NONE', ( #518, #861, #245, #621 ) ) ;
#219 = CIRCLE ( 'NONE', #474, 0.1999999999999992339 ) ;
#220 = AXIS2_PLACEMENT_3D ( 'NONE', #825, #497, #425 ) ;
#221 = DIRECTION ( 'NONE',  ( 1.000000000000000000, 0.000000000000000000, 0.000000000000000000 ) ) ;
#222 = CARTESIAN_POINT ( 'NONE',  ( 2.700000000000000107E-13, 32.00000000000053291, 0.000000000000000000 ) ) ;
#223 = ORIENTED_EDGE ( 'NONE', *, *, #812, .T. ) ;
#224 = FACE_OUTER_BOUND ( 'NONE', #30, .T. ) ;
#225 = DIRECTION ( 'NONE',  ( -0.000000000000000000, 1.000000000000000000, -0.000000000000000000 ) ) ;
#226 = EDGE_CURVE ( 'NONE', #307, #303, #505, .T. ) ;
#227 = ADVANCED_FACE ( 'NONE', ( #443 ), #302, .T. ) ;
#228 = AXIS2_PLACEMENT_3D ( 'NONE', #658, #52, #188 ) ;
#229 = CARTESIAN_POINT ( 'NONE',  ( 2.700000000000000107E-13, 26.64999997393515230, 1.650000049795028900 ) ) ;
#230 = EDGE_CURVE ( 'NONE', #311, #354, #180, .T. ) ;
#231 = DIRECTION ( 'NONE',  ( -0.000000000000000000, 1.000000000000000000, -0.000000000000000000 ) ) ;
#232 = AXIS2_PLACEMENT_3D ( 'NONE', #160, #779, #582 ) ;
#233 = DIRECTION ( 'NONE',  ( 0.000000000000000000, 0.000000000000000000, 1.000000000000000000 ) ) ;
#234 = DIRECTION ( 'NONE',  ( 0.000000000000000000, -0.7071067811865480168, -0.7071067811865470176 ) ) ;
#235 = STYLED_ITEM ( 'NONE', ( #8 ), #720 ) ;
#236 = CARTESIAN_POINT ( 'NONE',  ( 2.702143131898507909E-13, 32.00000000000054001, 1.500000000000113021 ) ) ;
#237 = AXIS2_PLACEMENT_3D ( 'NONE', #121, #313, #660 ) ;
#238 = EDGE_CURVE ( 'NONE', #303, #307, #622, .T. ) ;
#239 = ORIENTED_EDGE ( 'NONE', *, *, #192, .F. ) ;
#240 = DIRECTION ( 'NONE',  ( 0.000000000000000000, 0.000000000000000000, 1.000000000000000000 ) ) ;
#241 = EDGE_CURVE ( 'NONE', #123, #378, #579, .T. ) ;
#242 = VERTEX_POINT ( 'NONE', #600 ) ;
#243 = DIRECTION ( 'NONE',  ( 0.000000000000000000, 0.000000000000000000, 1.000000000000000000 ) ) ;
#244 = ADVANCED_FACE ( 'NONE', ( #864 ), #794, .T. ) ;
#245 = ORIENTED_EDGE ( 'NONE', *, *, #530, .F. ) ;
#246 = ADVANCED_FACE ( 'NONE', ( #55 ), #325, .T. ) ;
#247 = CONICAL_SURFACE ( 'NONE', #206, 3.000000049792741486, 0.3420966728675840507 ) ;
#248 = ORIENTED_EDGE ( 'NONE', *, *, #872, .F. ) ;
#249 = CARTESIAN_POINT ( 'NONE',  ( 2.702388061319318675E-13, 25.99999997393514306, 1.650000049795029122 ) ) ;
#250 = ORIENTED_EDGE ( 'NONE', *, *, #444, .T. ) ;
#251 = VERTEX_POINT ( 'NONE', #751 ) ;
#252 = DIRECTION ( 'NONE',  ( 0.000000000000000000, -1.000000000000000000, 0.000000000000000000 ) ) ;
#253 =( GEOMETRIC_REPRESENTATION_CONTEXT ( 3 ) GLOBAL_UNCERTAINTY_ASSIGNED_CONTEXT ( ( #339 ) ) GLOBAL_UNIT_ASSIGNED_CONTEXT ( ( #756, #565, #750 ) ) REPRESENTATION_CONTEXT ( 'NONE', 'WORKASPACE' ) );
#254 = ORIENTED_EDGE ( 'NONE', *, *, #785, .T. ) ;
#255 = FACE_OUTER_BOUND ( 'NONE', #552, .T. ) ;
#256 = DIRECTION ( 'NONE',  ( -0.000000000000000000, 1.000000000000000000, -0.000000000000000000 ) ) ;
#257 = DIRECTION ( 'NONE',  ( -0.000000000000000000, 1.000000000000000000, -0.000000000000000000 ) ) ;
#258 = ADVANCED_FACE ( 'NONE', ( #820 ), #853, .F. ) ;
#259 = ORIENTED_EDGE ( 'NONE', *, *, #50, .T. ) ;
#260 = VERTEX_POINT ( 'NONE', #697 ) ;
#261 = DIRECTION ( 'NONE',  ( -0.000000000000000000, 1.000000000000000000, -0.000000000000000000 ) ) ;
#262 = VECTOR ( 'NONE', #368, 1000.000000000000114 ) ;
#263 = CARTESIAN_POINT ( 'NONE',  ( 2.704837354917613378E-13, 21.99999997393523898, 3.900000049795007140 ) ) ;
#264 = DIRECTION ( 'NONE',  ( -0.000000000000000000, 1.000000000000000000, -0.000000000000000000 ) ) ;
#265 = VERTEX_POINT ( 'NONE', #765 ) ;
#266 = APPLICATION_PROTOCOL_DEFINITION ( 'draft international standard', 'automotive_design', 1998, #322 ) ;
#267 = DIRECTION ( 'NONE',  ( -1.000000000000000000, 0.000000000000000000, 0.000000000000000000 ) ) ;
#268 = FACE_OUTER_BOUND ( 'NONE', #776, .T. ) ;
#269 = CARTESIAN_POINT ( 'NONE',  ( 2.700000000000000107E-13, 31.50000000000054001, 0.000000000000000000 ) ) ;
#270 = CARTESIAN_POINT ( 'NONE',  ( 2.704898587257570859E-13, 21.89999997393522690, 4.000000049795015222 ) ) ;
#271 = ORIENTED_EDGE ( 'NONE', *, *, #357, .F. ) ;
#272 = DIRECTION ( 'NONE',  ( 0.000000000000000000, -0.7071067811865493491, -0.7071067811865456854 ) ) ;
#273 = CARTESIAN_POINT ( 'NONE',  ( 2.702571758339190614E-13, 32.00000000000053291, -2.100000049794923385 ) ) ;
#274 = VECTOR ( 'NONE', #804, 1000.000000000000000 ) ;
#275 = DIRECTION ( 'NONE',  ( -0.000000000000000000, 1.000000000000000000, -0.000000000000000000 ) ) ;
#276 = ORIENTED_EDGE ( 'NONE', *, *, #692, .F. ) ;
#277 = AXIS2_PLACEMENT_3D ( 'NONE', #88, #829, #292 ) ;
#278 = DIRECTION ( 'NONE',  ( 0.000000000000000000, 0.000000000000000000, 1.000000000000000000 ) ) ;
#279 = ORIENTED_EDGE ( 'NONE', *, *, #57, .T. ) ;
#280 = DIRECTION ( 'NONE',  ( -0.000000000000000000, 1.000000000000000000, -0.000000000000000000 ) ) ;
#281 = CARTESIAN_POINT ( 'NONE',  ( 2.702449293598294810E-13, 32.00000000000053291, -2.000000000000111910 ) ) ;
#282 = ORIENTED_EDGE ( 'NONE', *, *, #772, .T. ) ;
#283 = LINE ( 'NONE', #143, #741 ) ;
#284 = ORIENTED_EDGE ( 'NONE', *, *, #530, .T. ) ;
#285 = DIRECTION ( 'NONE',  ( -0.000000000000000000, 1.000000000000000000, -0.000000000000000000 ) ) ;
#286 = DIRECTION ( 'NONE',  ( 0.000000000000000000, 0.000000000000000000, 1.000000000000000000 ) ) ;
#287 = EDGE_CURVE ( 'NONE', #534, #382, #134, .T. ) ;
#288 = CONICAL_SURFACE ( 'NONE', #637, 2.000000000000112799, 0.7853981633974476129 ) ;
#289 = DIRECTION ( 'NONE',  ( 0.000000000000000000, 0.000000000000000000, 1.000000000000000000 ) ) ;
#290 = FACE_BOUND ( 'NONE', #852, .T. ) ;
#291 = AXIS2_PLACEMENT_3D ( 'NONE', #555, #12, #286 ) ;
#292 = DIRECTION ( 'NONE',  ( 0.000000000000000000, 0.000000000000000000, 1.000000000000000000 ) ) ;
#293 = DIRECTION ( 'NONE',  ( 0.000000000000000000, 0.000000000000000000, 1.000000000000000000 ) ) ;
#294 = AXIS2_PLACEMENT_3D ( 'NONE', #671, #676, #318 ) ;
#295 = CARTESIAN_POINT ( 'NONE',  ( 2.700000000000000107E-13, 22.68431454898598076, 0.000000000000000000 ) ) ;
#296 = AXIS2_PLACEMENT_3D ( 'NONE', #106, #397, #44 ) ;
#297 = DIRECTION ( 'NONE',  ( 0.000000000000000000, 0.000000000000000000, 1.000000000000000000 ) ) ;
#298 = ADVANCED_FACE ( 'NONE', ( #546, #404 ), #217, .F. ) ;
#299 =( GEOMETRIC_REPRESENTATION_CONTEXT ( 3 ) GLOBAL_UNCERTAINTY_ASSIGNED_CONTEXT ( ( #72 ) ) GLOBAL_UNIT_ASSIGNED_CONTEXT ( ( #614, #687, #393 ) ) REPRESENTATION_CONTEXT ( 'NONE', 'WORKASPACE' ) );
#300 = ORIENTED_EDGE ( 'NONE', *, *, #371, .T. ) ;
#301 = CARTESIAN_POINT ( 'NONE',  ( 2.702449293598294810E-13, 31.50000000000054001, 2.000000000000112799 ) ) ;
#302 = CONICAL_SURFACE ( 'NONE', #110, 2.250000049794935286, 0.7853981633974456145 ) ;
#303 = VERTEX_POINT ( 'NONE', #352 ) ;
#304 = CARTESIAN_POINT ( 'NONE',  ( 2.700000000000000107E-13, 32.00000000000054001, 0.000000000000000000 ) ) ;
#305 = EDGE_CURVE ( 'NONE', #480, #473, #212, .T. ) ;
#306 = ADVANCED_FACE ( 'NONE', ( #421 ), #560, .T. ) ;
#307 = VERTEX_POINT ( 'NONE', #494 ) ;
#308 = CIRCLE ( 'NONE', #562, 1.650000049795028900 ) ;
#309 = ORIENTED_EDGE ( 'NONE', *, *, #444, .F. ) ;
#310 = AXIS2_PLACEMENT_3D ( 'NONE', #551, #383, #730 ) ;
#311 = VERTEX_POINT ( 'NONE', #4 ) ;
#312 = ORIENTED_EDGE ( 'NONE', *, *, #848, .F. ) ;
#313 = DIRECTION ( 'NONE',  ( -0.000000000000000000, 1.000000000000000000, -0.000000000000000000 ) ) ;
#314 = EDGE_CURVE ( 'NONE', #251, #265, #152, .T. ) ;
#315 = VECTOR ( 'NONE', #482, 999.9999999999998863 ) ;
#316 = EDGE_LOOP ( 'NONE', ( #696, #749, #445, #685 ) ) ;
#317 = PRODUCT_RELATED_PRODUCT_CATEGORY ( 'part', '', ( #510 ) ) ;
#318 = DIRECTION ( 'NONE',  ( 0.000000000000000000, 0.000000000000000000, 1.000000000000000000 ) ) ;
#319 = DIRECTION ( 'NONE',  ( -0.000000000000000000, 1.000000000000000000, -0.000000000000000000 ) ) ;
#320 = DIRECTION ( 'NONE',  ( 0.000000000000000000, 0.000000000000000000, 1.000000000000000000 ) ) ;
#321 = EDGE_LOOP ( 'NONE', ( #300, #677, #271, #187 ) ) ;
#322 = APPLICATION_CONTEXT ( 'automotive_design' ) ;
#323 = DIRECTION ( 'NONE',  ( 0.000000000000000000, 0.000000000000000000, 1.000000000000000000 ) ) ;
#324 = CARTESIAN_POINT ( 'NONE',  ( 2.700000000000000107E-13, 21.89999997393522690, 0.000000000000000000 ) ) ;
#325 = CYLINDRICAL_SURFACE ( 'NONE', #542, 1.650000049795028900 ) ;
#326 = AXIS2_PLACEMENT_3D ( 'NONE', #459, #525, #754 ) ;
#327 = EDGE_LOOP ( 'NONE', ( #865, #391, #254, #752 ) ) ;
#328 = LINE ( 'NONE', #798, #175 ) ;
#329 = AXIS2_PLACEMENT_3D ( 'NONE', #99, #845, #240 ) ;
#330 = LINE ( 'NONE', #273, #1 ) ;
#331 = CARTESIAN_POINT ( 'NONE',  ( 2.702755455359063057E-13, 25.39999997393523401, -2.250000049794935286 ) ) ;
#332 = ORIENTED_EDGE ( 'NONE', *, *, #647, .F. ) ;
#333 = ADVANCED_FACE ( 'NONE', ( #832 ), #410, .T. ) ;
#334 = CONICAL_SURFACE ( 'NONE', #355, 2.217157337320304400, 0.7853981633974681520 ) ;
#335 = CARTESIAN_POINT ( 'NONE',  ( 2.700000000000000107E-13, 21.89999997393522690, 0.000000000000000000 ) ) ;
#336 = DIRECTION ( 'NONE',  ( -0.000000000000000000, 1.000000000000000000, -0.000000000000000000 ) ) ;
#337 = DIRECTION ( 'NONE',  ( 0.000000000000000000, 0.000000000000000000, 1.000000000000000000 ) ) ;
#338 = DIRECTION ( 'NONE',  ( 0.000000000000000000, 0.000000000000000000, -1.000000000000000000 ) ) ;
#339 = UNCERTAINTY_MEASURE_WITH_UNIT (LENGTH_MEASURE( 1.000000000000000082E-05 ), #756, 'distance_accuracy_value', 'NONE');
#340 = CARTESIAN_POINT ( 'NONE',  ( 2.701831813833877050E-13, 21.99999997393521411, 0.000000000000000000 ) ) ;
#341 = VERTEX_POINT ( 'NONE', #678 ) ;
#342 = FACE_OUTER_BOUND ( 'NONE', #447, .T. ) ;
#343 = EDGE_LOOP ( 'NONE', ( #858, #602, #436, #544 ) ) ;
#344 = VECTOR ( 'NONE', #590, 1000.000000000000000 ) ;
#345 = SURFACE_STYLE_USAGE ( .BOTH. , #630 ) ;
#346 = DIRECTION ( 'NONE',  ( 0.000000000000000000, -0.000000000000000000, -1.000000000000000000 ) ) ;
#347 = ORIENTED_EDGE ( 'NONE', *, *, #57, .F. ) ;
#348 = CIRCLE ( 'NONE', #854, 2.250000049794935286 ) ;
#349 = FACE_OUTER_BOUND ( 'NONE', #64, .T. ) ;
#350 = ORIENTED_EDGE ( 'NONE', *, *, #91, .T. ) ;
#351 = CARTESIAN_POINT ( 'NONE',  ( 2.703306546418679378E-13, 21.99999997393523898, -2.700000049794962109 ) ) ;
#352 = CARTESIAN_POINT ( 'NONE',  ( 2.704587269192940000E-13, 21.99999997393523898, -2.100000049794923385 ) ) ;
#353 = LINE ( 'NONE', #496, #472 ) ;
#354 = VERTEX_POINT ( 'NONE', #202 ) ;
#355 = AXIS2_PLACEMENT_3D ( 'NONE', #639, #22, #233 ) ;
#356 = DIRECTION ( 'NONE',  ( 0.000000000000000000, 0.000000000000000000, 1.000000000000000000 ) ) ;
#357 = EDGE_CURVE ( 'NONE', #739, #731, #200, .T. ) ;
#358 = CARTESIAN_POINT ( 'NONE',  ( 2.700000049795232115, 21.99999997393523898, 0.000000000000000000 ) ) ;
#359 = DIRECTION ( 'NONE',  ( 0.000000000000000000, 0.000000000000000000, 1.000000000000000000 ) ) ;
#360 = DIRECTION ( 'NONE',  ( 0.000000000000000000, 0.000000000000000000, 1.000000000000000000 ) ) ;
#361 = VECTOR ( 'NONE', #483, 1000.000000000000000 ) ;
#362 = CARTESIAN_POINT ( 'NONE',  ( 2.700000000000000107E-13, 1.732050836316886055, 0.000000000000000000 ) ) ;
#363 = ADVANCED_FACE ( 'NONE', ( #479 ), #38, .T. ) ;
#364 = FACE_OUTER_BOUND ( 'NONE', #616, .T. ) ;
#365 = DIRECTION ( 'NONE',  ( 0.000000000000000000, -1.000000000000000000, 0.000000000000000000 ) ) ;
#366 = ORIENTED_EDGE ( 'NONE', *, *, #704, .F. ) ;
#367 = CONICAL_SURFACE ( 'NONE', #597, 1732.050807568878554, 1.047197551196598075 ) ;
#368 = DIRECTION ( 'NONE',  ( 8.659560562354909439E-17, -0.7071067811865493491, 0.7071067811865456854 ) ) ;
#369 = ADVANCED_FACE ( 'NONE', ( #146 ), #430, .T. ) ;
#370 = EDGE_CURVE ( 'NONE', #70, #548, #815, .T. ) ;
#371 = EDGE_CURVE ( 'NONE', #105, #36, #308, .T. ) ;
#372 = AXIS2_PLACEMENT_3D ( 'NONE', #578, #24, #293 ) ;
#373 = AXIS2_PLACEMENT_3D ( 'NONE', #131, #828, #221 ) ;
#374 = ORIENTED_EDGE ( 'NONE', *, *, #704, .T. ) ;
#375 = ORIENTED_EDGE ( 'NONE', *, *, #157, .T. ) ;
#376 = LINE ( 'NONE', #270, #807 ) ;
#377 = AXIS2_PLACEMENT_3D ( 'NONE', #727, #116, #519 ) ;
#378 = VERTEX_POINT ( 'NONE', #210 ) ;
#379 = ADVANCED_FACE ( 'NONE', ( #224 ), #288, .T. ) ;
#380 = DIRECTION ( 'NONE',  ( -0.000000000000000000, 1.000000000000000000, -0.000000000000000000 ) ) ;
#381 = EDGE_CURVE ( 'NONE', #251, #689, #21, .T. ) ;
#382 = VERTEX_POINT ( 'NONE', #683 ) ;
#383 = DIRECTION ( 'NONE',  ( -0.000000000000000000, 1.000000000000000000, -0.000000000000000000 ) ) ;
#384 = DIRECTION ( 'NONE',  ( -0.000000000000000000, 1.000000000000000000, -0.000000000000000000 ) ) ;
#385 = CARTESIAN_POINT ( 'NONE',  ( 2.700000000000000107E-13, 32.00000000000053291, 0.000000000000000000 ) ) ;
#386 = EDGE_LOOP ( 'NONE', ( #42, #109, #375, #45 ) ) ;
#387 = DIRECTION ( 'NONE',  ( -0.000000000000000000, 1.000000000000000000, -0.000000000000000000 ) ) ;
#388 = ORIENTED_EDGE ( 'NONE', *, *, #399, .T. ) ;
#389 = DIRECTION ( 'NONE',  ( 0.000000000000000000, -1.000000000000000000, 0.000000000000000000 ) ) ;
#390 = AXIS2_PLACEMENT_3D ( 'NONE', #634, #478, #356 ) ;
#391 = ORIENTED_EDGE ( 'NONE', *, *, #102, .T. ) ;
#392 = AXIS2_PLACEMENT_3D ( 'NONE', #625, #140, #745 ) ;
#393 =( NAMED_UNIT ( * ) SI_UNIT ( $, .STERADIAN. ) SOLID_ANGLE_UNIT ( ) );
#394 = DIRECTION ( 'NONE',  ( 0.000000000000000000, 0.000000000000000000, 1.000000000000000000 ) ) ;
#395 = ORIENTED_EDGE ( 'NONE', *, *, #226, .T. ) ;
#396 = ADVANCED_FACE ( 'NONE', ( #71 ), #553, .T. ) ;
#397 = DIRECTION ( 'NONE',  ( -0.000000000000000000, 1.000000000000000000, -0.000000000000000000 ) ) ;
#398 = ORIENTED_EDGE ( 'NONE', *, *, #549, .T. ) ;
#399 = EDGE_CURVE ( 'NONE', #36, #105, #124, .T. ) ;
#400 = CARTESIAN_POINT ( 'NONE',  ( 2.700000000000000107E-13, 22.68431454898598076, 2.100000049794923385 ) ) ;
#401 = VECTOR ( 'NONE', #165, 1000.000000000000000 ) ;
#402 = DIRECTION ( 'NONE',  ( 0.000000000000000000, 0.000000000000000000, -1.000000000000000000 ) ) ;
#403 = DIRECTION ( 'NONE',  ( -0.000000000000000000, 1.000000000000000000, -0.000000000000000000 ) ) ;
#404 = FACE_OUTER_BOUND ( 'NONE', #746, .T. ) ;
#405 = ORIENTED_EDGE ( 'NONE', *, *, #638, .F. ) ;
#406 = CARTESIAN_POINT ( 'NONE',  ( 2.702715234636355443E-13, 22.96715726146062408, -2.217157337320304400 ) ) ;
#407 = CARTESIAN_POINT ( 'NONE',  ( 2.700000000000000107E-13, 32.00000000000053291, 2.250000049794935286 ) ) ;
#408 = EDGE_LOOP ( 'NONE', ( #755, #733 ) ) ;
#409 = DIRECTION ( 'NONE',  ( -1.000000000000000000, 0.000000000000000000, 0.000000000000000000 ) ) ;
#410 = CYLINDRICAL_SURFACE ( 'NONE', #172, 2.250000049794935286 ) ;
#411 = ORIENTED_EDGE ( 'NONE', *, *, #481, .T. ) ;
#412 = DIRECTION ( 'NONE',  ( -0.000000000000000000, 1.000000000000000000, -0.000000000000000000 ) ) ;
#413 = VERTEX_POINT ( 'NONE', #690 ) ;
#414 = AXIS2_PLACEMENT_3D ( 'NONE', #195, #264, #533 ) ;
#415 = CARTESIAN_POINT ( 'NONE',  ( 2.700000000000000107E-13, 8.708218359266085784, 0.000000000000000000 ) ) ;
#416 = DIRECTION ( 'NONE',  ( 0.000000000000000000, 0.000000000000000000, 1.000000000000000000 ) ) ;
#417 = ADVANCED_FACE ( 'NONE', ( #216, #290 ), #139, .F. ) ;
#418 = DIRECTION ( 'NONE',  ( 0.000000000000000000, 0.000000000000000000, 1.000000000000000000 ) ) ;
#419 = DIRECTION ( 'NONE',  ( 0.000000000000000000, 0.000000000000000000, 1.000000000000000000 ) ) ;
#420 = ORIENTED_EDGE ( 'NONE', *, *, #39, .T. ) ;
#421 = FACE_OUTER_BOUND ( 'NONE', #181, .T. ) ;
#422 = MANIFOLD_SOLID_BREP ( '±ÛÂà1', #107 ) ;
#423 = DIRECTION ( 'NONE',  ( -0.000000000000000000, 1.000000000000000000, -0.000000000000000000 ) ) ;
#424 = AXIS2_PLACEMENT_3D ( 'NONE', #335, #808, #418 ) ;
#425 = DIRECTION ( 'NONE',  ( 0.000000000000000000, 0.000000000000000000, 1.000000000000000000 ) ) ;
#426 = CONICAL_SURFACE ( 'NONE', #463, 2.700000049794962109, 1.047197551196596077 ) ;
#427 = CARTESIAN_POINT ( 'NONE',  ( 2.700000000000000107E-13, 21.99999997393523898, 0.000000000000000000 ) ) ;
#428 = FACE_OUTER_BOUND ( 'NONE', #16, .T. ) ;
#429 = VECTOR ( 'NONE', #462, 1000.000000000000000 ) ;
#430 = CONICAL_SURFACE ( 'NONE', #700, 2.000000000000112799, 0.7853981633974476129 ) ;
#431 = AXIS2_PLACEMENT_3D ( 'NONE', #295, #564, #419 ) ;
#432 = FACE_OUTER_BOUND ( 'NONE', #133, .T. ) ;
#433 = ORIENTED_EDGE ( 'NONE', *, *, #14, .F. ) ;
#434 = CARTESIAN_POINT ( 'NONE',  ( 2.702449293598294810E-13, 26.64999997393515230, -2.000000000000111022 ) ) ;
#435 = PRESENTATION_LAYER_ASSIGNMENT (  '', '', ( #235 ) ) ;
#436 = ORIENTED_EDGE ( 'NONE', *, *, #305, .T. ) ;
#437 = ADVANCED_FACE ( 'NONE', ( #837 ), #367, .T. ) ;
#438 = VECTOR ( 'NONE', #831, 999.9999999999998863 ) ;
#439 = CARTESIAN_POINT ( 'NONE',  ( 2.700000000000000107E-13, 21.99999997393523898, -3.900000049795007140 ) ) ;
#440 = AXIS2_PLACEMENT_3D ( 'NONE', #149, #412, #359 ) ;
#441 = CIRCLE ( 'NONE', #572, 2.000000000000112799 ) ;
#442 = ORIENTED_EDGE ( 'NONE', *, *, #692, .T. ) ;
#443 = FACE_OUTER_BOUND ( 'NONE', #556, .T. ) ;
#444 = EDGE_CURVE ( 'NONE', #689, #13, #561, .T. ) ;
#445 = ORIENTED_EDGE ( 'NONE', *, *, #314, .T. ) ;
#446 = CARTESIAN_POINT ( 'NONE',  ( 2.700000000000000107E-13, 21.99999997393523898, 0.000000000000000000 ) ) ;
#447 = EDGE_LOOP ( 'NONE', ( #824, #388, #797, #778 ) ) ;
#448 = CIRCLE ( 'NONE', #377, 2.217157337320304400 ) ;
#449 = ORIENTED_EDGE ( 'NONE', *, *, #314, .F. ) ;
#450 = CARTESIAN_POINT ( 'NONE',  ( 2.700000000000000107E-13, 21.89999997393522690, 4.000000049795015222 ) ) ;
#451 = VECTOR ( 'NONE', #272, 1000.000000000000114 ) ;
#452 = CARTESIAN_POINT ( 'NONE',  ( 2.702755455359063057E-13, 32.00000000000053291, -2.250000049794935286 ) ) ;
#453 = ORIENTED_EDGE ( 'NONE', *, *, #796, .T. ) ;
#454 = LINE ( 'NONE', #407, #581 ) ;
#455 = CARTESIAN_POINT ( 'NONE',  ( 2.704893430892726396E-13, 22.68431454898600208, -2.500000049794923296 ) ) ;
#456 = FACE_OUTER_BOUND ( 'NONE', #196, .T. ) ;
#457 = ORIENTED_EDGE ( 'NONE', *, *, #73, .T. ) ;
#458 = EDGE_CURVE ( 'NONE', #524, #341, #80, .T. ) ;
#459 = CARTESIAN_POINT ( 'NONE',  ( 2.700000000000000107E-13, 32.00000000000053291, 0.000000000000000000 ) ) ;
#460 = CARTESIAN_POINT ( 'NONE',  ( 2.700000000000000107E-13, 31.50000000000054001, 0.000000000000000000 ) ) ;
#461 = EDGE_CURVE ( 'NONE', #548, #473, #151, .T. ) ;
#462 = DIRECTION ( 'NONE',  ( -0.000000000000000000, 1.000000000000000000, -0.000000000000000000 ) ) ;
#463 = AXIS2_PLACEMENT_3D ( 'NONE', #611, #10, #682 ) ;
#464 = VECTOR ( 'NONE', #799, 1000.000000000000000 ) ;
#465 = ORIENTED_EDGE ( 'NONE', *, *, #848, .T. ) ;
#466 = AXIS2_PLACEMENT_3D ( 'NONE', #358, #86, #346 ) ;
#467 = CYLINDRICAL_SURFACE ( 'NONE', #803, 3.000000049792741486 ) ;
#468 = CARTESIAN_POINT ( 'NONE',  ( 2.700000000000000107E-13, 32.00000000000053291, 1.650000049795028900 ) ) ;
#469 = CARTESIAN_POINT ( 'NONE',  ( 2.704648501532896976E-13, 21.99999997393521411, -2.300000049794923118 ) ) ;
#470 = DIRECTION ( 'NONE',  ( 0.000000000000000000, 0.000000000000000000, 1.000000000000000000 ) ) ;
#471 = CARTESIAN_POINT ( 'NONE',  ( 2.700000000000000107E-13, 22.96715726146062408, 2.217157337320304400 ) ) ;
#472 = VECTOR ( 'NONE', #15, 1000.000000000000114 ) ;
#473 = VERTEX_POINT ( 'NONE', #648 ) ;
#474 = AXIS2_PLACEMENT_3D ( 'NONE', #469, #659, #47 ) ;
#475 = LINE ( 'NONE', #406, #315 ) ;
#476 = CARTESIAN_POINT ( 'NONE',  ( 2.700000000000000107E-13, 26.64999997393515230, 0.000000000000000000 ) ) ;
#477 = ORIENTED_EDGE ( 'NONE', *, *, #766, .F. ) ;
#478 = DIRECTION ( 'NONE',  ( -0.000000000000000000, 1.000000000000000000, 0.000000000000000000 ) ) ;
#479 = FACE_OUTER_BOUND ( 'NONE', #163, .T. ) ;
#480 = VERTEX_POINT ( 'NONE', #439 ) ;
#481 = EDGE_CURVE ( 'NONE', #524, #311, #666, .T. ) ;
#482 = DIRECTION ( 'NONE',  ( 8.659560562355106654E-17, 0.7071067811865335839, -0.7071067811865615615 ) ) ;
#483 = DIRECTION ( 'NONE',  ( -0.000000000000000000, 1.000000000000000000, -0.000000000000000000 ) ) ;
#484 = EDGE_LOOP ( 'NONE', ( #672, #646, #457, #433 ) ) ;
#485 = SURFACE_STYLE_FILL_AREA ( #811 ) ;
#486 = DIRECTION ( 'NONE',  ( -0.000000000000000000, 1.000000000000000000, -0.000000000000000000 ) ) ;
#487 = ORIENTED_EDGE ( 'NONE', *, *, #568, .F. ) ;
#488 = PRODUCT_DEFINITION ( 'UNKNOWN', '', #876, #34 ) ;
#489 = STYLED_ITEM ( 'NONE', ( #559 ), #422 ) ;
#490 = PRODUCT_CONTEXT ( 'NONE', #322, 'mechanical' ) ;
#491 = CARTESIAN_POINT ( 'NONE',  ( 2.700000000000000107E-13, 22.99999997393525319, 0.000000000000000000 ) ) ;
#492 = ORIENTED_EDGE ( 'NONE', *, *, #728, .F. ) ;
#493 = DIRECTION ( 'NONE',  ( 0.000000000000000000, 0.000000000000000000, 1.000000000000000000 ) ) ;
#494 = CARTESIAN_POINT ( 'NONE',  ( 2.700000000000000107E-13, 21.99999997393523898, 2.100000049794923385 ) ) ;
#495 = VECTOR ( 'NONE', #557, 1000.000000000000000 ) ;
#496 = CARTESIAN_POINT ( 'NONE',  ( 2.700000000000000107E-13, 5.899999973936930431, 3.000000049792741486 ) ) ;
#497 = DIRECTION ( 'NONE',  ( -0.000000000000000000, 1.000000000000000000, -0.000000000000000000 ) ) ;
#498 = AXIS2_PLACEMENT_3D ( 'NONE', #774, #777, #162 ) ;
#499 = DIRECTION ( 'NONE',  ( -0.000000000000000000, 1.000000000000000000, -0.000000000000000000 ) ) ;
#500 =( GEOMETRIC_REPRESENTATION_CONTEXT ( 3 ) GLOBAL_UNCERTAINTY_ASSIGNED_CONTEXT ( ( #599 ) ) GLOBAL_UNIT_ASSIGNED_CONTEXT ( ( #694, #550, #680 ) ) REPRESENTATION_CONTEXT ( 'NONE', 'WORKASPACE' ) );
#501 = DIRECTION ( 'NONE',  ( 0.000000000000000000, -0.000000000000000000, -1.000000000000000000 ) ) ;
#502 = ADVANCED_FACE ( 'NONE', ( #432 ), #571, .T. ) ;
#503 = AXIS2_PLACEMENT_3D ( 'NONE', #126, #532, #402 ) ;
#504 = FACE_OUTER_BOUND ( 'NONE', #805, .T. ) ;
#505 = CIRCLE ( 'NONE', #414, 2.100000049794923385 ) ;
#506 = ORIENTED_EDGE ( 'NONE', *, *, #528, .F. ) ;
#507 = AXIS2_PLACEMENT_3D ( 'NONE', #362, #26, #835 ) ;
#508 = VERTEX_POINT ( 'NONE', #236 ) ;
#509 = CARTESIAN_POINT ( 'NONE',  ( 2.700000000000000107E-13, 32.00000000000053291, 0.000000000000000000 ) ) ;
#510 = PRODUCT ( '99688-SI06-M04+S9MT06T1-120', '99688-SI06-M04+S9MT06T1-120', '', ( #490 ) ) ;
#511 = ADVANCED_FACE ( 'NONE', ( #364 ), #711, .F. ) ;
#512 = COLOUR_RGB ( '',0.7921568627450980005, 0.8196078431372548767, 0.9333333333333333481 ) ;
#513 = AXIS2_PLACEMENT_3D ( 'NONE', #684, #486, #757 ) ;
#514 = AXIS2_PLACEMENT_3D ( 'NONE', #427, #768, #628 ) ;
#515 = ORIENTED_EDGE ( 'NONE', *, *, #585, .F. ) ;
#516 = ADVANCED_FACE ( 'NONE', ( #28 ), #529, .F. ) ;
#517 = CIRCLE ( 'NONE', #609, 3.000000049792741486 ) ;
#518 = ORIENTED_EDGE ( 'NONE', *, *, #766, .T. ) ;
#519 = DIRECTION ( 'NONE',  ( 0.000000000000000000, 0.000000000000000000, 1.000000000000000000 ) ) ;
#520 = ORIENTED_EDGE ( 'NONE', *, *, #458, .F. ) ;
#521 = ORIENTED_EDGE ( 'NONE', *, *, #226, .F. ) ;
#522 = CARTESIAN_POINT ( 'NONE',  ( 2.700000000000000107E-13, 32.00000000000053291, 2.000000000000111910 ) ) ;
#523 = CARTESIAN_POINT ( 'NONE',  ( 2.700000000000000107E-13, 32.00000000000053291, 3.000000049792741486 ) ) ;
#524 = VERTEX_POINT ( 'NONE', #31 ) ;
#525 = DIRECTION ( 'NONE',  ( -0.000000000000000000, 1.000000000000000000, -0.000000000000000000 ) ) ;
#526 = FACE_OUTER_BOUND ( 'NONE', #814, .T. ) ;
#527 = CARTESIAN_POINT ( 'NONE',  ( 2.700000000000000107E-13, 31.50000000000054001, 2.000000000000112799 ) ) ;
#528 = EDGE_CURVE ( 'NONE', #548, #70, #32, .T. ) ;
#529 = TOROIDAL_SURFACE ( 'NONE', #372, 2.500000049794923296, 0.4000000000000001887 ) ;
#530 = EDGE_CURVE ( 'NONE', #101, #242, #517, .T. ) ;
#531 = LINE ( 'NONE', #9, #451 ) ;
#532 = DIRECTION ( 'NONE',  ( 0.000000000000000000, -1.000000000000000000, 0.000000000000000000 ) ) ;
#533 = DIRECTION ( 'NONE',  ( 0.000000000000000000, 0.000000000000000000, 1.000000000000000000 ) ) ;
#534 = VERTEX_POINT ( 'NONE', #434 ) ;
#535 = APPLICATION_PROTOCOL_DEFINITION ( 'draft international standard', 'automotive_design', 1998, #573 ) ;
#536 = DIRECTION ( 'NONE',  ( -0.000000000000000000, 1.000000000000000000, -0.000000000000000000 ) ) ;
#537 = DIRECTION ( 'NONE',  ( 0.000000000000000000, 0.000000000000000000, 1.000000000000000000 ) ) ;
#538 = FILL_AREA_STYLE_COLOUR ( '', #512 ) ;
#539 = CARTESIAN_POINT ( 'NONE',  ( 2.700000000000000107E-13, 32.00000000000053291, 0.000000000000000000 ) ) ;
#540 = EDGE_LOOP ( 'NONE', ( #717, #613 ) ) ;
#541 = AXIS2_PLACEMENT_3D ( 'NONE', #385, #40, #320 ) ;
#542 = AXIS2_PLACEMENT_3D ( 'NONE', #81, #691, #416 ) ;
#543 = FACE_OUTER_BOUND ( 'NONE', #118, .T. ) ;
#544 = ORIENTED_EDGE ( 'NONE', *, *, #872, .T. ) ;
#545 = CARTESIAN_POINT ( 'NONE',  ( 2.700000000000000107E-13, 31.50000000000054001, 0.000000000000000000 ) ) ;
#546 = FACE_BOUND ( 'NONE', #408, .T. ) ;
#547 = AXIS2_PLACEMENT_3D ( 'NONE', #208, #595, #866 ) ;
#548 = VERTEX_POINT ( 'NONE', #644 ) ;
#549 = EDGE_CURVE ( 'NONE', #98, #382, #96, .T. ) ;
#550 =( NAMED_UNIT ( * ) PLANE_ANGLE_UNIT ( ) SI_UNIT ( $, .RADIAN. ) );
#551 = CARTESIAN_POINT ( 'NONE',  ( 2.700000000000000107E-13, 32.00000000000053291, 0.000000000000000000 ) ) ;
#552 = EDGE_LOOP ( 'NONE', ( #716, #61, #282, #506 ) ) ;
#553 = CYLINDRICAL_SURFACE ( 'NONE', #220, 2.000000000000111910 ) ;
#554 = ADVANCED_FACE ( 'NONE', ( #428 ), #771, .T. ) ;
#555 = CARTESIAN_POINT ( 'NONE',  ( 2.700000000000000107E-13, 32.00000000000053291, 0.000000000000000000 ) ) ;
#556 = EDGE_LOOP ( 'NONE', ( #843, #819, #442, #405 ) ) ;
#557 = DIRECTION ( 'NONE',  ( -0.000000000000000000, 1.000000000000000000, -0.000000000000000000 ) ) ;
#558 = ORIENTED_EDGE ( 'NONE', *, *, #598, .T. ) ;
#559 = PRESENTATION_STYLE_ASSIGNMENT (( #345 ) ) ;
#560 = CYLINDRICAL_SURFACE ( 'NONE', #291, 2.100000049794923385 ) ;
#561 = CIRCLE ( 'NONE', #758, 2.100000049794923385 ) ;
#562 = AXIS2_PLACEMENT_3D ( 'NONE', #769, #231, #90 ) ;
#563 = SURFACE_STYLE_FILL_AREA ( #834 ) ;
#564 = DIRECTION ( 'NONE',  ( -0.000000000000000000, 1.000000000000000000, -0.000000000000000000 ) ) ;
#565 =( NAMED_UNIT ( * ) PLANE_ANGLE_UNIT ( ) SI_UNIT ( $, .RADIAN. ) );
#566 = ADVANCED_FACE ( 'NONE', ( #504 ), #870, .F. ) ;
#567 = VECTOR ( 'NONE', #261, 1000.000000000000000 ) ;
#568 = EDGE_CURVE ( 'NONE', #105, #792, #705, .T. ) ;
#569 = FACE_OUTER_BOUND ( 'NONE', #830, .T. ) ;
#570 = EDGE_CURVE ( 'NONE', #508, #138, #29, .T. ) ;
#571 = CYLINDRICAL_SURFACE ( 'NONE', #714, 4.000000049795015222 ) ;
#572 = AXIS2_PLACEMENT_3D ( 'NONE', #809, #60, #323 ) ;
#573 = APPLICATION_CONTEXT ( 'automotive_design' ) ;
#574 = CIRCLE ( 'NONE', #296, 2.000000000000111022 ) ;
#575 = CYLINDRICAL_SURFACE ( 'NONE', #41, 4.000000049795015222 ) ;
#576 = DIRECTION ( 'NONE',  ( -0.000000000000000000, 1.000000000000000000, -0.000000000000000000 ) ) ;
#577 = ORIENTED_EDGE ( 'NONE', *, *, #461, .T. ) ;
#578 = CARTESIAN_POINT ( 'NONE',  ( 2.701831813833877050E-13, 22.68431454898600208, 0.000000000000000000 ) ) ;
#579 = CIRCLE ( 'NONE', #237, 3.000000049792741486 ) ;
#580 = ORIENTED_EDGE ( 'NONE', *, *, #370, .F. ) ;
#581 = VECTOR ( 'NONE', #604, 1000.000000000000000 ) ;
#582 = DIRECTION ( 'NONE',  ( 0.000000000000000000, 0.000000000000000000, 1.000000000000000000 ) ) ;
#583 = ADVANCED_FACE ( 'NONE', ( #707 ), #610, .T. ) ;
#584 = AXIS2_PLACEMENT_3D ( 'NONE', #209, #256, #337 ) ;
#585 = EDGE_CURVE ( 'NONE', #138, #382, #441, .T. ) ;
#586 = VERTEX_POINT ( 'NONE', #65 ) ;
#587 = VECTOR ( 'NONE', #826, 999.9999999999998863 ) ;
#588 = AXIS2_PLACEMENT_3D ( 'NONE', #69, #336, #132 ) ;
#589 = ORIENTED_EDGE ( 'NONE', *, *, #102, .F. ) ;
#590 = DIRECTION ( 'NONE',  ( -0.000000000000000000, 1.000000000000000000, -0.000000000000000000 ) ) ;
#591 = CIRCLE ( 'NONE', #211, 4.000000049795015222 ) ;
#592 = EDGE_LOOP ( 'NONE', ( #312, #629, #649, #710 ) ) ;
#593 = CARTESIAN_POINT ( 'NONE',  ( 2.703673940458420226E-13, 1.732050836316886055, -3.000000049792741041 ) ) ;
#594 = ORIENTED_EDGE ( 'NONE', *, *, #399, .F. ) ;
#595 = DIRECTION ( 'NONE',  ( -0.000000000000000000, 1.000000000000000000, -0.000000000000000000 ) ) ;
#596 = DIRECTION ( 'NONE',  ( -0.000000000000000000, 1.000000000000000000, -0.000000000000000000 ) ) ;
#597 = AXIS2_PLACEMENT_3D ( 'NONE', #11, #20, #493 ) ;
#598 = EDGE_CURVE ( 'NONE', #242, #548, #328, .T. ) ;
#599 = UNCERTAINTY_MEASURE_WITH_UNIT (LENGTH_MEASURE( 1.000000000000000082E-05 ), #694, 'distance_accuracy_value', 'NONE');
#600 = CARTESIAN_POINT ( 'NONE',  ( 2.703673940458420226E-13, 5.899999973936930431, -3.000000049792741486 ) ) ;
#601 = EDGE_LOOP ( 'NONE', ( #657, #521, #706, #729 ) ) ;
#602 = ORIENTED_EDGE ( 'NONE', *, *, #759, .F. ) ;
#603 = CIRCLE ( 'NONE', #431, 2.100000049794923385 ) ;
#604 = DIRECTION ( 'NONE',  ( -0.000000000000000000, 1.000000000000000000, -0.000000000000000000 ) ) ;
#605 = DIRECTION ( 'NONE',  ( 1.000000000000000000, 0.000000000000000000, 1.224646799147353207E-16 ) ) ;
#606 = DIRECTION ( 'NONE',  ( 8.659560562354857670E-17, -0.7071067811865536790, 0.7071067811865414665 ) ) ;
#607 = ORIENTED_EDGE ( 'NONE', *, *, #461, .F. ) ;
#608 = AXIS2_PLACEMENT_3D ( 'NONE', #455, #605, #877 ) ;
#609 = AXIS2_PLACEMENT_3D ( 'NONE', #839, #576, #849 ) ;
#610 = CYLINDRICAL_SURFACE ( 'NONE', #63, 3.000000049792741486 ) ;
#611 = CARTESIAN_POINT ( 'NONE',  ( 2.700000000000000107E-13, 21.99999997393523898, 0.000000000000000000 ) ) ;
#612 = LINE ( 'NONE', #452, #274 ) ;
#613 = ORIENTED_EDGE ( 'NONE', *, *, #136, .F. ) ;
#614 =( LENGTH_UNIT ( ) NAMED_UNIT ( * ) SI_UNIT ( .MILLI., .METRE. ) );
#615 = CYLINDRICAL_SURFACE ( 'NONE', #326, 2.100000049794923385 ) ;
#616 = EDGE_LOOP ( 'NONE', ( #279, #223 ) ) ;
#617 = CARTESIAN_POINT ( 'NONE',  ( 2.700000000000000107E-13, 25.99999997393514306, 0.000000000000000000 ) ) ;
#618 = ADVANCED_FACE ( 'NONE', ( #623 ), #675, .F. ) ;
#619 = DIRECTION ( 'NONE',  ( 0.000000000000000000, -0.7071067811865536790, -0.7071067811865414665 ) ) ;
#620 = CIRCLE ( 'NONE', #35, 2.000000000000112799 ) ;
#621 = ORIENTED_EDGE ( 'NONE', *, *, #157, .F. ) ;
#622 = CIRCLE ( 'NONE', #844, 2.100000049794923385 ) ;
#623 = FACE_OUTER_BOUND ( 'NONE', #821, .T. ) ;
#624 = LINE ( 'NONE', #522, #100 ) ;
#625 = CARTESIAN_POINT ( 'NONE',  ( 2.700000000000000107E-13, 26.64999997393515230, 0.000000000000000000 ) ) ;
#626 = AXIS2_PLACEMENT_3D ( 'NONE', #78, #695, #83 ) ;
#627 = ORIENTED_EDGE ( 'NONE', *, *, #39, .F. ) ;
#628 = DIRECTION ( 'NONE',  ( 0.000000000000000000, 0.000000000000000000, 1.000000000000000000 ) ) ;
#629 = ORIENTED_EDGE ( 'NONE', *, *, #154, .T. ) ;
#630 = SURFACE_SIDE_STYLE ('',( #485 ) ) ;
#631 = CARTESIAN_POINT ( 'NONE',  ( 2.700000000000000107E-13, 21.89999997393522690, -4.000000049795015222 ) ) ;
#632 = DIRECTION ( 'NONE',  ( -0.000000000000000000, 1.000000000000000000, -0.000000000000000000 ) ) ;
#633 = ORIENTED_EDGE ( 'NONE', *, *, #715, .F. ) ;
#634 = CARTESIAN_POINT ( 'NONE',  ( 1.650000049795298906, 26.64999997393515230, 0.000000000000000000 ) ) ;
#635 = ADVANCED_FACE ( 'NONE', ( #255 ), #103, .T. ) ;
#636 = AXIS2_PLACEMENT_3D ( 'NONE', #184, #199, #53 ) ;
#637 = AXIS2_PLACEMENT_3D ( 'NONE', #545, #156, #338 ) ;
#638 = EDGE_CURVE ( 'NONE', #36, #120, #531, .T. ) ;
#639 = CARTESIAN_POINT ( 'NONE',  ( 2.700000000000000107E-13, 22.96715726146062408, 0.000000000000000000 ) ) ;
#640 = DIRECTION ( 'NONE',  ( 0.000000000000000000, 0.000000000000000000, 1.000000000000000000 ) ) ;
#641 = CIRCLE ( 'NONE', #161, 2.700000049794962109 ) ;
#642 = CARTESIAN_POINT ( 'NONE',  ( 2.702020667279574798E-13, 32.00000000000053291, -1.650000049795028900 ) ) ;
#643 = DIRECTION ( 'NONE',  ( -0.000000000000000000, 1.000000000000000000, -0.000000000000000000 ) ) ;
#644 = CARTESIAN_POINT ( 'NONE',  ( 2.704898587257570354E-13, 8.708218359266085784, -4.000000049795015222 ) ) ;
#645 = EDGE_CURVE ( 'NONE', #265, #792, #454, .T. ) ;
#646 = ORIENTED_EDGE ( 'NONE', *, *, #136, .T. ) ;
#647 = EDGE_CURVE ( 'NONE', #307, #311, #786, .T. ) ;
#648 = CARTESIAN_POINT ( 'NONE',  ( 2.704898587257570859E-13, 21.89999997393522690, -4.000000049795015222 ) ) ;
#649 = ORIENTED_EDGE ( 'NONE', *, *, #93, .T. ) ;
#650 = EDGE_CURVE ( 'NONE', #105, #739, #214, .T. ) ;
#651 = ORIENTED_EDGE ( 'NONE', *, *, #759, .T. ) ;
#652 = CARTESIAN_POINT ( 'NONE',  ( 2.700000000000000107E-13, 32.00000000000053291, 4.000000049795015222 ) ) ;
#653 = AXIS2_PLACEMENT_3D ( 'NONE', #869, #257, #128 ) ;
#654 = CIRCLE ( 'NONE', #277, 1.500000000000113021 ) ;
#655 = ORIENTED_EDGE ( 'NONE', *, *, #780, .T. ) ;
#656 = LINE ( 'NONE', #523, #344 ) ;
#657 = ORIENTED_EDGE ( 'NONE', *, *, #91, .F. ) ;
#658 = CARTESIAN_POINT ( 'NONE',  ( 2.700000000000000107E-13, 21.82679489317836286, 0.000000000000000000 ) ) ;
#659 = DIRECTION ( 'NONE',  ( 1.000000000000000000, 0.000000000000000000, 1.224646799147353207E-16 ) ) ;
#660 = DIRECTION ( 'NONE',  ( 0.000000000000000000, 0.000000000000000000, 1.000000000000000000 ) ) ;
#661 = ORIENTED_EDGE ( 'NONE', *, *, #481, .F. ) ;
#662 = CIRCLE ( 'NONE', #781, 1.500000000000113021 ) ;
#663 = EDGE_CURVE ( 'NONE', #413, #534, #670, .T. ) ;
#664 = DIRECTION ( 'NONE',  ( -0.000000000000000000, 1.000000000000000000, -0.000000000000000000 ) ) ;
#665 = CARTESIAN_POINT ( 'NONE',  ( 2.700000000000000107E-13, 25.99999997393514306, -1.650000049795029122 ) ) ;
#666 = CIRCLE ( 'NONE', #232, 2.400000049794983603 ) ;
#667 = DIRECTION ( 'NONE',  ( 0.000000000000000000, 0.000000000000000000, -1.000000000000000000 ) ) ;
#668 = ORIENTED_EDGE ( 'NONE', *, *, #857, .F. ) ;
#669 = AXIS2_PLACEMENT_3D ( 'NONE', #340, #225, #67 ) ;
#670 = CIRCLE ( 'NONE', #588, 2.000000000000111022 ) ;
#671 = CARTESIAN_POINT ( 'NONE',  ( 2.701831813833877050E-13, 21.99999997393521411, 0.000000000000000000 ) ) ;
#672 = ORIENTED_EDGE ( 'NONE', *, *, #287, .F. ) ;
#673 = DIRECTION ( 'NONE',  ( 0.000000000000000000, 0.000000000000000000, 1.000000000000000000 ) ) ;
#674 = ORIENTED_EDGE ( 'NONE', *, *, #728, .T. ) ;
#675 = TOROIDAL_SURFACE ( 'NONE', #294, 2.300000049794923118, 0.1999999999999993727 ) ;
#676 = DIRECTION ( 'NONE',  ( -0.000000000000000000, 1.000000000000000000, -0.000000000000000000 ) ) ;
#677 = ORIENTED_EDGE ( 'NONE', *, *, #783, .T. ) ;
#678 = CARTESIAN_POINT ( 'NONE',  ( 2.703306546418679378E-13, 21.99999997393523898, -2.700000049794962109 ) ) ;
#679 = ORIENTED_EDGE ( 'NONE', *, *, #50, .F. ) ;
#680 =( NAMED_UNIT ( * ) SI_UNIT ( $, .STERADIAN. ) SOLID_ANGLE_UNIT ( ) );
#681 = LINE ( 'NONE', #137, #567 ) ;
#682 = DIRECTION ( 'NONE',  ( 0.000000000000000000, 0.000000000000000000, 1.000000000000000000 ) ) ;
#683 = CARTESIAN_POINT ( 'NONE',  ( 2.702449293598294810E-13, 31.50000000000054001, -2.000000000000112799 ) ) ;
#684 = CARTESIAN_POINT ( 'NONE',  ( 2.700000000000000107E-13, 1000.000000000000227, 0.000000000000000000 ) ) ;
#685 = ORIENTED_EDGE ( 'NONE', *, *, #780, .F. ) ;
#686 = AXIS2_PLACEMENT_3D ( 'NONE', #62, #380, #673 ) ;
#687 =( NAMED_UNIT ( * ) PLANE_ANGLE_UNIT ( ) SI_UNIT ( $, .RADIAN. ) );
#688 = DIRECTION ( 'NONE',  ( -0.000000000000000000, 1.000000000000000000, -0.000000000000000000 ) ) ;
#689 = VERTEX_POINT ( 'NONE', #400 ) ;
#690 = CARTESIAN_POINT ( 'NONE',  ( 2.700000000000000107E-13, 26.64999997393515230, 2.000000000000111022 ) ) ;
#691 = DIRECTION ( 'NONE',  ( -0.000000000000000000, 1.000000000000000000, -0.000000000000000000 ) ) ;
#692 = EDGE_CURVE ( 'NONE', #792, #120, #58, .T. ) ;
#693 = ADVANCED_FACE ( 'NONE', ( #543 ), #615, .T. ) ;
#694 =( LENGTH_UNIT ( ) NAMED_UNIT ( * ) SI_UNIT ( .MILLI., .METRE. ) );
#695 = DIRECTION ( 'NONE',  ( -0.000000000000000000, 1.000000000000000000, -0.000000000000000000 ) ) ;
#696 = ORIENTED_EDGE ( 'NONE', *, *, #873, .F. ) ;
#697 = CARTESIAN_POINT ( 'NONE',  ( 2.702755455359063057E-13, 22.99999997393525319, -2.250000049794935286 ) ) ;
#698 = DIRECTION ( 'NONE',  ( 0.000000000000000000, 0.000000000000000000, 1.000000000000000000 ) ) ;
#699 = DIRECTION ( 'NONE',  ( 0.000000000000000000, 0.000000000000000000, -1.000000000000000000 ) ) ;
#700 = AXIS2_PLACEMENT_3D ( 'NONE', #269, #764, #699 ) ;
#701 = LINE ( 'NONE', #642, #495 ) ;
#702 = CARTESIAN_POINT ( 'NONE',  ( 2.700000000000000107E-13, 32.00000000000053291, 0.000000000000000000 ) ) ;
#703 = CIRCLE ( 'NONE', #23, 1.650000049795028900 ) ;
#704 = EDGE_CURVE ( 'NONE', #307, #689, #681, .T. ) ;
#705 = LINE ( 'NONE', #97, #262 ) ;
#706 = ORIENTED_EDGE ( 'NONE', *, *, #647, .T. ) ;
#707 = FACE_OUTER_BOUND ( 'NONE', #386, .T. ) ;
#708 = CONICAL_SURFACE ( 'NONE', #636, 2.217157337320304400, 0.7853981633974681520 ) ;
#709 = AXIS2_PLACEMENT_3D ( 'NONE', #617, #744, #360 ) ;
#710 = ORIENTED_EDGE ( 'NONE', *, *, #305, .F. ) ;
#711 = PLANE ( 'NONE',  #25 ) ;
#712 = EDGE_CURVE ( 'NONE', #731, #739, #703, .T. ) ;
#713 = ADVANCED_FACE ( 'NONE', ( #342 ), #801, .T. ) ;
#714 = AXIS2_PLACEMENT_3D ( 'NONE', #509, #842, #243 ) ;
#715 = EDGE_CURVE ( 'NONE', #311, #524, #836, .T. ) ;
#716 = ORIENTED_EDGE ( 'NONE', *, *, #598, .F. ) ;
#717 = ORIENTED_EDGE ( 'NONE', *, *, #663, .F. ) ;
#718 = CARTESIAN_POINT ( 'NONE',  ( 2.700000000000000107E-13, 25.39999997393523401, 0.000000000000000000 ) ) ;
#719 = EDGE_LOOP ( 'NONE', ( #589, #679, #169, #250 ) ) ;
#720 = ADVANCED_BREP_SHAPE_REPRESENTATION ( '99688-SI06-M04+S9MT06T1-120', ( #422, #373 ), #500 ) ;
#721 = CONICAL_SURFACE ( 'NONE', #773, 2.250000049794935286, 0.7853981633974456145 ) ;
#722 = DIRECTION ( 'NONE',  ( -0.000000000000000000, 1.000000000000000000, -0.000000000000000000 ) ) ;
#723 = ORIENTED_EDGE ( 'NONE', *, *, #73, .F. ) ;
#724 = EDGE_LOOP ( 'NONE', ( #114, #347, #398, #204 ) ) ;
#725 = EDGE_CURVE ( 'NONE', #265, #260, #186, .T. ) ;
#726 = DIRECTION ( 'NONE',  ( 0.000000000000000000, 0.000000000000000000, 1.000000000000000000 ) ) ;
#727 = CARTESIAN_POINT ( 'NONE',  ( 2.700000000000000107E-13, 22.96715726146062408, 0.000000000000000000 ) ) ;
#728 = EDGE_CURVE ( 'NONE', #120, #792, #348, .T. ) ;
#729 = ORIENTED_EDGE ( 'NONE', *, *, #715, .T. ) ;
#730 = DIRECTION ( 'NONE',  ( 0.000000000000000000, 0.000000000000000000, 1.000000000000000000 ) ) ;
#731 = VERTEX_POINT ( 'NONE', #18 ) ;
#732 = DIRECTION ( 'NONE',  ( 0.000000000000000000, 0.5000000000000014433, 0.8660254037844379305 ) ) ;
#733 = ORIENTED_EDGE ( 'NONE', *, *, #796, .F. ) ;
#734 = SURFACE_STYLE_USAGE ( .BOTH. , #761 ) ;
#735 = CARTESIAN_POINT ( 'NONE',  ( 2.700000000000000107E-13, 25.39999997393523401, 0.000000000000000000 ) ) ;
#736 = DIRECTION ( 'NONE',  ( -0.000000000000000000, 1.000000000000000000, -0.000000000000000000 ) ) ;
#737 = PRESENTATION_LAYER_ASSIGNMENT (  '', '', ( #489 ) ) ;
#738 = FACE_OUTER_BOUND ( 'NONE', #484, .T. ) ;
#739 = VERTEX_POINT ( 'NONE', #229 ) ;
#740 = AXIS2_PLACEMENT_3D ( 'NONE', #415, #403, #470 ) ;
#741 = VECTOR ( 'NONE', #632, 1000.000000000000000 ) ;
#742 = CARTESIAN_POINT ( 'NONE',  ( 2.700000000000000107E-13, 1.595945597898662527E-13, -3.294559789866256988E-15 ) ) ;
#743 = CARTESIAN_POINT ( 'NONE',  ( 2.700000000000000107E-13, 5.899999973936930431, 3.000000049792741486 ) ) ;
#744 = DIRECTION ( 'NONE',  ( -0.000000000000000000, 1.000000000000000000, -0.000000000000000000 ) ) ;
#745 = DIRECTION ( 'NONE',  ( 0.000000000000000000, 0.000000000000000000, 1.000000000000000000 ) ) ;
#746 = EDGE_LOOP ( 'NONE', ( #651, #465 ) ) ;
#747 = ADVANCED_FACE ( 'NONE', ( #349 ), #247, .T. ) ;
#748 = DIRECTION ( 'NONE',  ( -0.000000000000000000, 1.000000000000000000, -0.000000000000000000 ) ) ;
#749 = ORIENTED_EDGE ( 'NONE', *, *, #205, .T. ) ;
#750 =( NAMED_UNIT ( * ) SI_UNIT ( $, .STERADIAN. ) SOLID_ANGLE_UNIT ( ) );
#751 = CARTESIAN_POINT ( 'NONE',  ( 2.701831813833877050E-13, 22.96715726146062408, 2.217157337320304400 ) ) ;
#752 = ORIENTED_EDGE ( 'NONE', *, *, #381, .F. ) ;
#753 = LINE ( 'NONE', #742, #851 ) ;
#754 = DIRECTION ( 'NONE',  ( 0.000000000000000000, 0.000000000000000000, 1.000000000000000000 ) ) ;
#755 = ORIENTED_EDGE ( 'NONE', *, *, #833, .F. ) ;
#756 =( LENGTH_UNIT ( ) NAMED_UNIT ( * ) SI_UNIT ( .MILLI., .METRE. ) );
#757 = DIRECTION ( 'NONE',  ( 0.000000000000000000, 0.000000000000000000, 1.000000000000000000 ) ) ;
#758 = AXIS2_PLACEMENT_3D ( 'NONE', #85, #280, #640 ) ;
#759 = EDGE_CURVE ( 'NONE', #480, #37, #7, .T. ) ;
#760 = ORIENTED_EDGE ( 'NONE', *, *, #33, .T. ) ;
#761 = SURFACE_SIDE_STYLE ('',( #563 ) ) ;
#762 = DIRECTION ( 'NONE',  ( 0.000000000000000000, 0.000000000000000000, 1.000000000000000000 ) ) ;
#763 = ORIENTED_EDGE ( 'NONE', *, *, #164, .T. ) ;
#764 = DIRECTION ( 'NONE',  ( 0.000000000000000000, -1.000000000000000000, 0.000000000000000000 ) ) ;
#765 = CARTESIAN_POINT ( 'NONE',  ( 2.700000000000000107E-13, 22.99999997393525319, 2.250000049794935286 ) ) ;
#766 = EDGE_CURVE ( 'NONE', #378, #123, #846, .T. ) ;
#767 = AXIS2_PLACEMENT_3D ( 'NONE', #702, #643, #297 ) ;
#768 = DIRECTION ( 'NONE',  ( -0.000000000000000000, 1.000000000000000000, -0.000000000000000000 ) ) ;
#769 = CARTESIAN_POINT ( 'NONE',  ( 2.700000000000000107E-13, 25.99999997393514306, 0.000000000000000000 ) ) ;
#770 = CARTESIAN_POINT ( 'NONE',  ( 2.700000000000000107E-13, 21.99999997393523898, 0.000000000000000000 ) ) ;
#771 = CYLINDRICAL_SURFACE ( 'NONE', #767, 2.250000049794935286 ) ;
#772 = EDGE_CURVE ( 'NONE', #101, #70, #353, .T. ) ;
#773 = AXIS2_PLACEMENT_3D ( 'NONE', #190, #177, #856 ) ;
#774 = CARTESIAN_POINT ( 'NONE',  ( 2.700000000000000107E-13, 21.99999997393523898, 0.000000000000000000 ) ) ;
#775 = CIRCLE ( 'NONE', #440, 2.700000049794962109 ) ;
#776 = EDGE_LOOP ( 'NONE', ( #259, #66, #847, #449 ) ) ;
#777 = DIRECTION ( 'NONE',  ( -0.000000000000000000, 1.000000000000000000, -0.000000000000000000 ) ) ;
#778 = ORIENTED_EDGE ( 'NONE', *, *, #712, .F. ) ;
#779 = DIRECTION ( 'NONE',  ( -0.000000000000000000, 1.000000000000000000, -0.000000000000000000 ) ) ;
#780 = EDGE_CURVE ( 'NONE', #260, #265, #95, .T. ) ;
#781 = AXIS2_PLACEMENT_3D ( 'NONE', #802, #384, #537 ) ;
#782 = AXIS2_PLACEMENT_3D ( 'NONE', #145, #409, #201 ) ;
#783 = EDGE_CURVE ( 'NONE', #36, #731, #701, .T. ) ;
#784 = VECTOR ( 'NONE', #74, 1000.000000000000000 ) ;
#785 = EDGE_CURVE ( 'NONE', #13, #689, #603, .T. ) ;
#786 = CIRCLE ( 'NONE', #77, 0.1999999999999992339 ) ;
#787 = ORIENTED_EDGE ( 'NONE', *, *, #370, .T. ) ;
#788 = CYLINDRICAL_SURFACE ( 'NONE', #541, 2.000000000000111910 ) ;
#789 = ORIENTED_EDGE ( 'NONE', *, *, #645, .F. ) ;
#790 = DIRECTION ( 'NONE',  ( 0.000000000000000000, 0.000000000000000000, -1.000000000000000000 ) ) ;
#791 = ADVANCED_FACE ( 'NONE', ( #569 ), #575, .T. ) ;
#792 = VERTEX_POINT ( 'NONE', #841 ) ;
#793 = DIRECTION ( 'NONE',  ( -0.000000000000000000, 1.000000000000000000, -0.000000000000000000 ) ) ;
#794 = CONICAL_SURFACE ( 'NONE', #92, 4.000000049795015222, 0.7853981633974396193 ) ;
#795 = CARTESIAN_POINT ( 'NONE',  ( 2.704547048470232386E-13, 22.96715726146062408, -2.217157337320304400 ) ) ;
#796 = EDGE_CURVE ( 'NONE', #341, #354, #641, .T. ) ;
#797 = ORIENTED_EDGE ( 'NONE', *, *, #650, .T. ) ;
#798 = CARTESIAN_POINT ( 'NONE',  ( 2.703673940458420226E-13, 5.899999973936930431, -3.000000049792741486 ) ) ;
#799 = DIRECTION ( 'NONE',  ( 0.000000000000000000, 0.4999999999999997224, 0.8660254037844388186 ) ) ;
#800 = CARTESIAN_POINT ( 'NONE',  ( 2.700000000000000107E-13, 21.89999997393522690, 0.000000000000000000 ) ) ;
#801 = CYLINDRICAL_SURFACE ( 'NONE', #310, 1.650000049795028900 ) ;
#802 = CARTESIAN_POINT ( 'NONE',  ( 2.700000000000000107E-13, 32.00000000000054001, 0.000000000000000000 ) ) ;
#803 = AXIS2_PLACEMENT_3D ( 'NONE', #148, #142, #822 ) ;
#804 = DIRECTION ( 'NONE',  ( -0.000000000000000000, 1.000000000000000000, -0.000000000000000000 ) ) ;
#805 = EDGE_LOOP ( 'NONE', ( #520, #633, #871, #213 ) ) ;
#806 = EDGE_CURVE ( 'NONE', #123, #242, #283, .T. ) ;
#807 = VECTOR ( 'NONE', #606, 1000.000000000000000 ) ;
#808 = DIRECTION ( 'NONE',  ( -0.000000000000000000, 1.000000000000000000, -0.000000000000000000 ) ) ;
#809 = CARTESIAN_POINT ( 'NONE',  ( 2.700000000000000107E-13, 31.50000000000054001, 0.000000000000000000 ) ) ;
#810 = CARTESIAN_POINT ( 'NONE',  ( 2.702571758339190614E-13, 22.68431454898598076, -2.100000049794923385 ) ) ;
#811 = FILL_AREA_STYLE ('',( #538 ) ) ;
#812 = EDGE_CURVE ( 'NONE', #508, #98, #654, .T. ) ;
#813 = DIRECTION ( 'NONE',  ( 0.000000000000000000, 0.000000000000000000, 1.000000000000000000 ) ) ;
#814 = EDGE_LOOP ( 'NONE', ( #661, #68, #453, #191 ) ) ;
#815 = CIRCLE ( 'NONE', #740, 4.000000049795015222 ) ;
#816 = CIRCLE ( 'NONE', #653, 3.000000049792741486 ) ;
#817 = AXIS2_PLACEMENT_3D ( 'NONE', #119, #387, #193 ) ;
#818 = DIRECTION ( 'NONE',  ( 0.000000000000000000, 0.000000000000000000, 1.000000000000000000 ) ) ;
#819 = ORIENTED_EDGE ( 'NONE', *, *, #568, .T. ) ;
#820 = FACE_OUTER_BOUND ( 'NONE', #601, .T. ) ;
#821 = EDGE_LOOP ( 'NONE', ( #104, #350, #411, #332 ) ) ;
#822 = DIRECTION ( 'NONE',  ( 0.000000000000000000, 0.000000000000000000, 1.000000000000000000 ) ) ;
#823 = DIRECTION ( 'NONE',  ( 4.108236962976048348E-17, 0.9420533805113692205, -0.3354630058100313561 ) ) ;
#824 = ORIENTED_EDGE ( 'NONE', *, *, #783, .F. ) ;
#825 = CARTESIAN_POINT ( 'NONE',  ( 2.700000000000000107E-13, 32.00000000000053291, 0.000000000000000000 ) ) ;
#826 = DIRECTION ( 'NONE',  ( 0.000000000000000000, 0.7071067811865335839, 0.7071067811865615615 ) ) ;
#827 = ORIENTED_EDGE ( 'NONE', *, *, #238, .T. ) ;
#828 = DIRECTION ( 'NONE',  ( 0.000000000000000000, 0.000000000000000000, 1.000000000000000000 ) ) ;
#829 = DIRECTION ( 'NONE',  ( -0.000000000000000000, 1.000000000000000000, -0.000000000000000000 ) ) ;
#830 = EDGE_LOOP ( 'NONE', ( #607, #108, #763, #248 ) ) ;
#831 = DIRECTION ( 'NONE',  ( 1.060575238724906052E-16, 0.5000000000000014433, -0.8660254037844379305 ) ) ;
#832 = FACE_OUTER_BOUND ( 'NONE', #179, .T. ) ;
#833 = EDGE_CURVE ( 'NONE', #354, #341, #775, .T. ) ;
#834 = FILL_AREA_STYLE ('',( #82 ) ) ;
#835 = DIRECTION ( 'NONE',  ( 0.000000000000000000, 0.000000000000000000, 1.000000000000000000 ) ) ;
#836 = CIRCLE ( 'NONE', #228, 2.400000049794983603 ) ;
#837 = FACE_OUTER_BOUND ( 'NONE', #141, .T. ) ;
#838 = FACE_OUTER_BOUND ( 'NONE', #316, .T. ) ;
#839 = CARTESIAN_POINT ( 'NONE',  ( 2.700000000000000107E-13, 5.899999973936930431, 0.000000000000000000 ) ) ;
#840 = MECHANICAL_DESIGN_GEOMETRIC_PRESENTATION_REPRESENTATION (  '', ( #235 ), #299 ) ;
#841 = CARTESIAN_POINT ( 'NONE',  ( 2.700000000000000107E-13, 25.39999997393523401, 2.250000049794935286 ) ) ;
#842 = DIRECTION ( 'NONE',  ( -0.000000000000000000, 1.000000000000000000, -0.000000000000000000 ) ) ;
#843 = ORIENTED_EDGE ( 'NONE', *, *, #371, .F. ) ;
#844 = AXIS2_PLACEMENT_3D ( 'NONE', #446, #722, #111 ) ;
#845 = DIRECTION ( 'NONE',  ( -0.000000000000000000, 1.000000000000000000, -0.000000000000000000 ) ) ;
#846 = CIRCLE ( 'NONE', #507, 3.000000049792741486 ) ;
#847 = ORIENTED_EDGE ( 'NONE', *, *, #725, .F. ) ;
#848 = EDGE_CURVE ( 'NONE', #37, #480, #112, .T. ) ;
#849 = DIRECTION ( 'NONE',  ( 0.000000000000000000, 0.000000000000000000, 1.000000000000000000 ) ) ;
#850 = ADVANCED_FACE ( 'NONE', ( #838 ), #334, .T. ) ;
#851 = VECTOR ( 'NONE', #207, 1000.000000000000000 ) ;
#852 = EDGE_LOOP ( 'NONE', ( #176, #51 ) ) ;
#853 = TOROIDAL_SURFACE ( 'NONE', #669, 2.300000049794923118, 0.1999999999999993727 ) ;
#854 = AXIS2_PLACEMENT_3D ( 'NONE', #735, #664, #125 ) ;
#855 = ORIENTED_EDGE ( 'NONE', *, *, #663, .T. ) ;
#856 = DIRECTION ( 'NONE',  ( 0.000000000000000000, 0.000000000000000000, -1.000000000000000000 ) ) ;
#857 = EDGE_CURVE ( 'NONE', #586, #123, #753, .T. ) ;
#858 = ORIENTED_EDGE ( 'NONE', *, *, #154, .F. ) ;
#859 = ORIENTED_EDGE ( 'NONE', *, *, #287, .T. ) ;
#860 = FACE_OUTER_BOUND ( 'NONE', #327, .T. ) ;
#861 = ORIENTED_EDGE ( 'NONE', *, *, #806, .T. ) ;
#862 = CARTESIAN_POINT ( 'NONE',  ( 2.700000000000000107E-13, 32.00000000000053291, 0.000000000000000000 ) ) ;
#863 = ORIENTED_EDGE ( 'NONE', *, *, #772, .F. ) ;
#864 = FACE_OUTER_BOUND ( 'NONE', #343, .T. ) ;
#865 = ORIENTED_EDGE ( 'NONE', *, *, #205, .F. ) ;
#866 = DIRECTION ( 'NONE',  ( 0.000000000000000000, 0.000000000000000000, 1.000000000000000000 ) ) ;
#867 = FACE_OUTER_BOUND ( 'NONE', #592, .T. ) ;
#868 = ADVANCED_FACE ( 'NONE', ( #59 ), #467, .T. ) ;
#869 = CARTESIAN_POINT ( 'NONE',  ( 2.700000000000000107E-13, 5.899999973936930431, 0.000000000000000000 ) ) ;
#870 = CONICAL_SURFACE ( 'NONE', #498, 2.700000049794962109, 1.047197551196596077 ) ;
#871 = ORIENTED_EDGE ( 'NONE', *, *, #230, .T. ) ;
#872 = EDGE_CURVE ( 'NONE', #473, #79, #87, .T. ) ;
#873 = EDGE_CURVE ( 'NONE', #215, #260, #475, .T. ) ;
#874 = DIRECTION ( 'NONE',  ( 0.000000000000000000, 0.000000000000000000, 1.000000000000000000 ) ) ;
#875 = CARTESIAN_POINT ( 'NONE',  ( 2.700000000000000107E-13, 8.708218359266085784, 4.000000049795015222 ) ) ;
#876 = PRODUCT_DEFINITION_FORMATION_WITH_SPECIFIED_SOURCE ( 'ANY', '', #510, .NOT_KNOWN. ) ;
#877 = DIRECTION ( 'NONE',  ( 1.224646799146980224E-16, 0.000000000000000000, -1.000000000000000000 ) ) ;
#878 = ORIENTED_EDGE ( 'NONE', *, *, #638, .T. ) ;
ENDSEC;
END-ISO-10303-21;
