ISO-10303-21;
HEADER;
FILE_DESCRIPTION (( 'STEP AP214' ),
    '1' );
FILE_NAME ('99688-SI16-16+S9MT1604-142.STEP',
    '2023-07-20T01:14:56',
    ( '' ),
    ( '' ),
    'SwSTEP 2.0',
    'SolidWorks 2020',
    '' );
FILE_SCHEMA (( 'AUTOMOTIVE_DESIGN' ));
ENDSEC;

DATA;
#1 = LINE ( 'NONE', #14, #371 ) ;
#2 = EDGE_LOOP ( 'NONE', ( #421, #507, #8, #495 ) ) ;
#3 = UNCERTAINTY_MEASURE_WITH_UNIT (LENGTH_MEASURE( 1.000000000000000082E-05 ), #122, 'distance_accuracy_value', 'NONE');
#4 = LINE ( 'NONE', #133, #201 ) ;
#5 = AXIS2_PLACEMENT_3D ( 'NONE', #261, #46, #269 ) ;
#6 = CONICAL_SURFACE ( 'NONE', #239, 8.960000000000038156, 1.047197551196691112 ) ;
#7 = FACE_OUTER_BOUND ( 'NONE', #552, .T. ) ;
#8 = ORIENTED_EDGE ( 'NONE', *, *, #258, .T. ) ;
#9 = CARTESIAN_POINT ( 'NONE',  ( 0.2000000000000028422, 1000.000000000000000, 0.000000000000000000 ) ) ;
#10 = PRODUCT_DEFINITION ( 'UNKNOWN', '', #43, #306 ) ;
#11 = CARTESIAN_POINT ( 'NONE',  ( 0.2000000000000028422, 50.00000000000160583, 8.960000000000038156 ) ) ;
#12 = ADVANCED_FACE ( 'NONE', ( #549, #510 ), #200, .F. ) ;
#13 = ORIENTED_EDGE ( 'NONE', *, *, #152, .T. ) ;
#14 = CARTESIAN_POINT ( 'NONE',  ( 0.2000000000000028422, 98.00000000000164846, 7.999999999999986677 ) ) ;
#15 = ORIENTED_EDGE ( 'NONE', *, *, #113, .F. ) ;
#16 = CONICAL_SURFACE ( 'NONE', #58, 10.50000000000284217, 0.7853981633970851250 ) ;
#17 = LINE ( 'NONE', #383, #476 ) ;
#18 =( LENGTH_UNIT ( ) NAMED_UNIT ( * ) SI_UNIT ( .MILLI., .METRE. ) );
#19 = VECTOR ( 'NONE', #50, 999.9999999999998863 ) ;
#20 = ORIENTED_EDGE ( 'NONE', *, *, #278, .F. ) ;
#21 = DIRECTION ( 'NONE',  ( -0.000000000000000000, 1.000000000000000000, -0.000000000000000000 ) ) ;
#22 = ORIENTED_EDGE ( 'NONE', *, *, #501, .T. ) ;
#23 = CARTESIAN_POINT ( 'NONE',  ( 0.2000000000000028422, 98.00000000000183320, 0.000000000000000000 ) ) ;
#24 = AXIS2_PLACEMENT_3D ( 'NONE', #59, #114, #294 ) ;
#25 = CARTESIAN_POINT ( 'NONE',  ( 0.2000000000000028422, 49.84000000000163766, 0.000000000000000000 ) ) ;
#26 = CARTESIAN_POINT ( 'NONE',  ( 0.2000000000000028422, 97.70000000000182183, 0.000000000000000000 ) ) ;
#27 = CIRCLE ( 'NONE', #333, 10.34000000000287400 ) ;
#28 = DIRECTION ( 'NONE',  ( 0.000000000000000000, 0.000000000000000000, 1.000000000000000000 ) ) ;
#29 = DIRECTION ( 'NONE',  ( 0.000000000000000000, -1.000000000000000000, 0.000000000000000000 ) ) ;
#30 = DIRECTION ( 'NONE',  ( -0.000000000000000000, 1.000000000000000000, -0.000000000000000000 ) ) ;
#31 = EDGE_CURVE ( 'NONE', #272, #91, #27, .T. ) ;
#32 = FACE_OUTER_BOUND ( 'NONE', #81, .T. ) ;
#33 = CARTESIAN_POINT ( 'NONE',  ( 0.000000000000000000, 0.000000000000000000, 0.000000000000000000 ) ) ;
#34 = DIRECTION ( 'NONE',  ( 8.659560562354570475E-17, -0.7071067811865771047, 0.7071067811865179298 ) ) ;
#35 = CONICAL_SURFACE ( 'NONE', #262, 8.960000000000038156, 1.047197551196691112 ) ;
#36 = EDGE_LOOP ( 'NONE', ( #392, #493, #544, #20 ) ) ;
#37 = VERTEX_POINT ( 'NONE', #257 ) ;
#38 = CARTESIAN_POINT ( 'NONE',  ( 0.2000000000000028422, 98.00000000000164846, 10.50000000000284217 ) ) ;
#39 = AXIS2_PLACEMENT_3D ( 'NONE', #270, #41, #225 ) ;
#40 = DIRECTION ( 'NONE',  ( 0.000000000000000000, 0.000000000000000000, 1.000000000000000000 ) ) ;
#41 = DIRECTION ( 'NONE',  ( -0.000000000000000000, 1.000000000000000000, -0.000000000000000000 ) ) ;
#42 = ORIENTED_EDGE ( 'NONE', *, *, #300, .F. ) ;
#43 = PRODUCT_DEFINITION_FORMATION_WITH_SPECIFIED_SOURCE ( 'ANY', '', #339, .NOT_KNOWN. ) ;
#44 = CARTESIAN_POINT ( 'NONE',  ( 0.2000000000000028422, 20.44404037065858404, 10.50000000000284217 ) ) ;
#45 = VERTEX_POINT ( 'NONE', #162 ) ;
#46 = DIRECTION ( 'NONE',  ( -1.000000000000000000, 0.000000000000000000, 0.000000000000000000 ) ) ;
#47 = EDGE_CURVE ( 'NONE', #280, #290, #571, .T. ) ;
#48 = AXIS2_PLACEMENT_3D ( 'NONE', #212, #390, #569 ) ;
#49 = EDGE_CURVE ( 'NONE', #37, #179, #156, .T. ) ;
#50 = DIRECTION ( 'NONE',  ( 0.000000000000000000, 0.4999999999999191758, 0.8660254037844854480 ) ) ;
#51 = ORIENTED_EDGE ( 'NONE', *, *, #553, .T. ) ;
#52 = DIRECTION ( 'NONE',  ( -0.000000000000000000, 1.000000000000000000, -0.000000000000000000 ) ) ;
#53 = LINE ( 'NONE', #233, #87 ) ;
#54 = ORIENTED_EDGE ( 'NONE', *, *, #47, .F. ) ;
#55 = COLOUR_RGB ( '',0.7921568627450980005, 0.8196078431372548767, 0.9333333333333333481 ) ;
#56 = CARTESIAN_POINT ( 'NONE',  ( 0.2000000000000039524, 50.00000000000160583, -8.960000000000038156 ) ) ;
#57 = ORIENTED_EDGE ( 'NONE', *, *, #348, .T. ) ;
#58 = AXIS2_PLACEMENT_3D ( 'NONE', #440, #124, #136 ) ;
#59 = CARTESIAN_POINT ( 'NONE',  ( 0.2000000000000028422, 2.754620906320087492, 0.000000000000000000 ) ) ;
#60 = DIRECTION ( 'NONE',  ( 0.000000000000000000, 0.000000000000000000, 1.000000000000000000 ) ) ;
#61 = CIRCLE ( 'NONE', #563, 10.50000000000284217 ) ;
#62 = EDGE_LOOP ( 'NONE', ( #143, #215 ) ) ;
#63 = CARTESIAN_POINT ( 'NONE',  ( 0.2000000000000028422, 98.00000000000183320, 0.000000000000000000 ) ) ;
#64 = ORIENTED_EDGE ( 'NONE', *, *, #482, .T. ) ;
#65 = CARTESIAN_POINT ( 'NONE',  ( 0.2000000000000041189, 49.84000000000163766, 10.50000000000284217 ) ) ;
#66 = AXIS2_PLACEMENT_3D ( 'NONE', #384, #373, #199 ) ;
#67 = EDGE_CURVE ( 'NONE', #78, #457, #205, .T. ) ;
#68 = DIRECTION ( 'NONE',  ( -0.000000000000000000, 1.000000000000000000, -0.000000000000000000 ) ) ;
#69 = ADVANCED_FACE ( 'NONE', ( #32 ), #76, .T. ) ;
#70 = AXIS2_PLACEMENT_3D ( 'NONE', #337, #159, #349 ) ;
#71 = FILL_AREA_STYLE_COLOUR ( '', #167 ) ;
#72 = ADVANCED_FACE ( 'NONE', ( #118 ), #119, .T. ) ;
#73 = CIRCLE ( 'NONE', #271, 10.50000000000284217 ) ;
#74 = DIRECTION ( 'NONE',  ( 0.000000000000000000, -0.000000000000000000, -1.000000000000000000 ) ) ;
#75 = VECTOR ( 'NONE', #34, 1000.000000000000000 ) ;
#76 = CYLINDRICAL_SURFACE ( 'NONE', #312, 10.50000000000284217 ) ;
#77 = DIRECTION ( 'NONE',  ( 0.000000000000000000, 0.000000000000000000, 1.000000000000000000 ) ) ;
#78 = VERTEX_POINT ( 'NONE', #116 ) ;
#79 = CARTESIAN_POINT ( 'NONE',  ( 0.2000000000000028422, 50.00000000000172662, 0.000000000000000000 ) ) ;
#80 = PRESENTATION_LAYER_ASSIGNMENT (  '', '', ( #137 ) ) ;
#81 = EDGE_LOOP ( 'NONE', ( #570, #555, #527, #164 ) ) ;
#82 = ADVANCED_FACE ( 'NONE', ( #477 ), #216, .T. ) ;
#83 = CARTESIAN_POINT ( 'NONE',  ( 0.2000000000000028422, 50.00000000000160583, 8.960000000000038156 ) ) ;
#84 = EDGE_LOOP ( 'NONE', ( #500, #230, #148, #405 ) ) ;
#85 = TOROIDAL_SURFACE ( 'NONE', #48, 8.320000000000000284, 0.3199999999999977862 ) ;
#86 = PRESENTATION_STYLE_ASSIGNMENT (( #321 ) ) ;
#87 = VECTOR ( 'NONE', #316, 1000.000000000000000 ) ;
#88 = DIRECTION ( 'NONE',  ( 1.000000000000000000, 0.000000000000000000, 1.224646799147353207E-16 ) ) ;
#89 = CARTESIAN_POINT ( 'NONE',  ( 0.2000000000000028422, 49.72287187079058413, 8.479999999999936477 ) ) ;
#90 = ADVANCED_FACE ( 'NONE', ( #350 ), #520, .F. ) ;
#91 = VERTEX_POINT ( 'NONE', #558 ) ;
#92 = LINE ( 'NONE', #178, #466 ) ;
#93 = ORIENTED_EDGE ( 'NONE', *, *, #348, .F. ) ;
#94 = DIRECTION ( 'NONE',  ( 0.000000000000000000, 0.000000000000000000, 1.000000000000000000 ) ) ;
#95 = CONICAL_SURFACE ( 'NONE', #487, 2904.210877675120173, 1.239183768915899542 ) ;
#96 = CIRCLE ( 'NONE', #313, 0.3199999999999973976 ) ;
#97 = DIRECTION ( 'NONE',  ( -0.000000000000000000, 1.000000000000000000, -0.000000000000000000 ) ) ;
#98 = ORIENTED_EDGE ( 'NONE', *, *, #545, .T. ) ;
#99 = DIRECTION ( 'NONE',  ( 0.000000000000000000, 0.000000000000000000, 1.000000000000000000 ) ) ;
#100 = ORIENTED_EDGE ( 'NONE', *, *, #561, .T. ) ;
#101 = VECTOR ( 'NONE', #556, 999.9999999999998863 ) ;
#102 = DIRECTION ( 'NONE',  ( 0.000000000000000000, 0.000000000000000000, 1.000000000000000000 ) ) ;
#103 =( NAMED_UNIT ( * ) SI_UNIT ( $, .STERADIAN. ) SOLID_ANGLE_UNIT ( ) );
#104 = EDGE_LOOP ( 'NONE', ( #245, #266, #234, #314 ) ) ;
#105 = MECHANICAL_DESIGN_GEOMETRIC_PRESENTATION_REPRESENTATION (  '', ( #517 ), #464 ) ;
#106 = DIRECTION ( 'NONE',  ( 0.000000000000000000, -1.000000000000000000, 0.000000000000000000 ) ) ;
#107 = DIRECTION ( 'NONE',  ( 0.000000000000000000, 0.000000000000000000, 1.000000000000000000 ) ) ;
#108 = CONICAL_SURFACE ( 'NONE', #360, 8.000000000005060841, 0.3883766555390675834 ) ;
#109 = ORIENTED_EDGE ( 'NONE', *, *, #469, .T. ) ;
#110 = DIRECTION ( 'NONE',  ( 0.000000000000000000, 0.000000000000000000, 1.000000000000000000 ) ) ;
#111 = DIRECTION ( 'NONE',  ( 0.000000000000000000, 0.000000000000000000, 1.000000000000000000 ) ) ;
#112 = ADVANCED_FACE ( 'NONE', ( #382 ), #85, .F. ) ;
#113 = EDGE_CURVE ( 'NONE', #290, #280, #394, .T. ) ;
#114 = DIRECTION ( 'NONE',  ( -0.000000000000000000, 1.000000000000000000, -0.000000000000000000 ) ) ;
#115 = SURFACE_STYLE_FILL_AREA ( #514 ) ;
#116 = CARTESIAN_POINT ( 'NONE',  ( 0.2000000000000038414, 98.00000000000183320, 7.699999999999988631 ) ) ;
#117 = CONICAL_SURFACE ( 'NONE', #442, 7.999999999999972466, 0.7853981633974064236 ) ;
#118 = FACE_OUTER_BOUND ( 'NONE', #327, .T. ) ;
#119 = CYLINDRICAL_SURFACE ( 'NONE', #161, 8.000000000005579537 ) ;
#120 = VERTEX_POINT ( 'NONE', #393 ) ;
#121 = ORIENTED_EDGE ( 'NONE', *, *, #396, .F. ) ;
#122 =( LENGTH_UNIT ( ) NAMED_UNIT ( * ) SI_UNIT ( .MILLI., .METRE. ) );
#123 = ORIENTED_EDGE ( 'NONE', *, *, #385, .F. ) ;
#124 = DIRECTION ( 'NONE',  ( 0.000000000000000000, -1.000000000000000000, 0.000000000000000000 ) ) ;
#125 = DIRECTION ( 'NONE',  ( 0.000000000000000000, 0.000000000000000000, 1.000000000000000000 ) ) ;
#126 = ORIENTED_EDGE ( 'NONE', *, *, #385, .T. ) ;
#127 = VECTOR ( 'NONE', #219, 999.9999999999998863 ) ;
#128 = LINE ( 'NONE', #38, #441 ) ;
#129 = AXIS2_PLACEMENT_3D ( 'NONE', #231, #413, #94 ) ;
#130 = EDGE_CURVE ( 'NONE', #353, #303, #128, .T. ) ;
#131 = DIRECTION ( 'NONE',  ( 0.000000000000000000, 0.000000000000000000, 1.000000000000000000 ) ) ;
#132 = ORIENTED_EDGE ( 'NONE', *, *, #286, .T. ) ;
#133 = CARTESIAN_POINT ( 'NONE',  ( 0.2000000000000028422, 0.000000000000000000, 0.000000000000000000 ) ) ;
#134 = DIRECTION ( 'NONE',  ( -0.000000000000000000, 1.000000000000000000, -0.000000000000000000 ) ) ;
#135 = EDGE_LOOP ( 'NONE', ( #483, #126, #93 ) ) ;
#136 = DIRECTION ( 'NONE',  ( 0.000000000000000000, 0.000000000000000000, -1.000000000000000000 ) ) ;
#137 = STYLED_ITEM ( 'NONE', ( #417 ), #401 ) ;
#138 = DIRECTION ( 'NONE',  ( 0.000000000000000000, 0.000000000000000000, -1.000000000000000000 ) ) ;
#139 = EDGE_LOOP ( 'NONE', ( #260, #484, #98, #412 ) ) ;
#140 =( GEOMETRIC_REPRESENTATION_CONTEXT ( 3 ) GLOBAL_UNCERTAINTY_ASSIGNED_CONTEXT ( ( #574 ) ) GLOBAL_UNIT_ASSIGNED_CONTEXT ( ( #304, #210, #389 ) ) REPRESENTATION_CONTEXT ( 'NONE', 'WORKASPACE' ) );
#141 = AXIS2_PLACEMENT_3D ( 'NONE', #274, #494, #359 ) ;
#142 = LINE ( 'NONE', #83, #19 ) ;
#143 = ORIENTED_EDGE ( 'NONE', *, *, #469, .F. ) ;
#144 = CARTESIAN_POINT ( 'NONE',  ( 0.2000000000000041189, 49.84000000000163766, -10.50000000000284217 ) ) ;
#145 = SURFACE_STYLE_USAGE ( .BOTH. , #285 ) ;
#146 = ORIENTED_EDGE ( 'NONE', *, *, #545, .F. ) ;
#147 = DIRECTION ( 'NONE',  ( 0.000000000000000000, 0.000000000000000000, -1.000000000000000000 ) ) ;
#148 = ORIENTED_EDGE ( 'NONE', *, *, #356, .T. ) ;
#149 = COLOUR_RGB ( '',0.7921568627450980005, 0.8196078431372548767, 0.9333333333333333481 ) ;
#150 = DIRECTION ( 'NONE',  ( 0.000000000000000000, 0.000000000000000000, 1.000000000000000000 ) ) ;
#151 = VECTOR ( 'NONE', #449, 1000.000000000000000 ) ;
#152 = EDGE_CURVE ( 'NONE', #45, #290, #546, .T. ) ;
#153 = EDGE_CURVE ( 'NONE', #361, #365, #4, .T. ) ;
#154 = FACE_OUTER_BOUND ( 'NONE', #529, .T. ) ;
#155 = APPLICATION_PROTOCOL_DEFINITION ( 'draft international standard', 'automotive_design', 1998, #160 ) ;
#156 = LINE ( 'NONE', #251, #497 ) ;
#157 = MANIFOLD_SOLID_BREP ( '±ÛÂà1', #254 ) ;
#158 = DIRECTION ( 'NONE',  ( 0.000000000000000000, 0.000000000000000000, -1.000000000000000000 ) ) ;
#159 = DIRECTION ( 'NONE',  ( 0.000000000000000000, -1.000000000000000000, 0.000000000000000000 ) ) ;
#160 = APPLICATION_CONTEXT ( 'automotive_design' ) ;
#161 = AXIS2_PLACEMENT_3D ( 'NONE', #295, #431, #525 ) ;
#162 = CARTESIAN_POINT ( 'NONE',  ( 0.2000000000000028422, 50.00000000000160583, 8.000000000000000000 ) ) ;
#163 = CIRCLE ( 'NONE', #576, 8.000000000005060841 ) ;
#164 = ORIENTED_EDGE ( 'NONE', *, *, #213, .F. ) ;
#165 = DIRECTION ( 'NONE',  ( -0.000000000000000000, 1.000000000000000000, -0.000000000000000000 ) ) ;
#166 = EDGE_CURVE ( 'NONE', #120, #451, #173, .T. ) ;
#167 = COLOUR_RGB ( '',1.000000000000000000, 0.000000000000000000, 0.000000000000000000 ) ;
#168 = CIRCLE ( 'NONE', #297, 8.000000000006098233 ) ;
#169 = EDGE_CURVE ( 'NONE', #91, #272, #265, .T. ) ;
#170 = ORIENTED_EDGE ( 'NONE', *, *, #130, .F. ) ;
#171 =( NAMED_UNIT ( * ) PLANE_ANGLE_UNIT ( ) SI_UNIT ( $, .RADIAN. ) );
#172 = EDGE_LOOP ( 'NONE', ( #223, #15, #329, #109 ) ) ;
#173 = LINE ( 'NONE', #354, #351 ) ;
#174 = DIRECTION ( 'NONE',  ( -0.000000000000000000, 1.000000000000000000, -0.000000000000000000 ) ) ;
#175 = ORIENTED_EDGE ( 'NONE', *, *, #166, .F. ) ;
#176 = CARTESIAN_POINT ( 'NONE',  ( 0.2000000000000028422, 50.00000000000172662, 0.000000000000000000 ) ) ;
#177 = ADVANCED_FACE ( 'NONE', ( #267 ), #16, .T. ) ;
#178 = CARTESIAN_POINT ( 'NONE',  ( 0.2000000000000028422, 98.00000000000164846, 8.000000000005579537 ) ) ;
#179 = VERTEX_POINT ( 'NONE', #448 ) ;
#180 = AXIS2_PLACEMENT_3D ( 'NONE', #443, #542, #138 ) ;
#181 = CARTESIAN_POINT ( 'NONE',  ( 0.2000000000000028422, 20.44404037065858404, 0.000000000000000000 ) ) ;
#182 = ORIENTED_EDGE ( 'NONE', *, *, #561, .F. ) ;
#183 = FILL_AREA_STYLE ('',( #310 ) ) ;
#184 = DIRECTION ( 'NONE',  ( -0.000000000000000000, 1.000000000000000000, -0.000000000000000000 ) ) ;
#185 = ORIENTED_EDGE ( 'NONE', *, *, #67, .T. ) ;
#186 = AXIS2_PLACEMENT_3D ( 'NONE', #516, #292, #512 ) ;
#187 = DIRECTION ( 'NONE',  ( 0.000000000000000000, 0.000000000000000000, 1.000000000000000000 ) ) ;
#188 = EDGE_CURVE ( 'NONE', #280, #368, #398, .T. ) ;
#189 = ORIENTED_EDGE ( 'NONE', *, *, #523, .F. ) ;
#190 = MECHANICAL_DESIGN_GEOMETRIC_PRESENTATION_REPRESENTATION (  '', ( #475 ), #140 ) ;
#191 = AXIS2_PLACEMENT_3D ( 'NONE', #554, #379, #244 ) ;
#192 = CARTESIAN_POINT ( 'NONE',  ( 0.2000000000000028422, 97.70000000000182183, 0.000000000000000000 ) ) ;
#193 = ORIENTED_EDGE ( 'NONE', *, *, #49, .T. ) ;
#194 = CARTESIAN_POINT ( 'NONE',  ( 0.2000000000000028422, 14.33393944402185127, 0.000000000000000000 ) ) ;
#195 =( NAMED_UNIT ( * ) SI_UNIT ( $, .STERADIAN. ) SOLID_ANGLE_UNIT ( ) );
#196 = EDGE_LOOP ( 'NONE', ( #503, #320, #146, #170 ) ) ;
#197 = ADVANCED_FACE ( 'NONE', ( #307 ), #95, .T. ) ;
#198 = CARTESIAN_POINT ( 'NONE',  ( 0.2000000000000028422, 14.33393944402185127, 8.000000000005060841 ) ) ;
#199 = DIRECTION ( 'NONE',  ( 0.000000000000000000, 0.000000000000000000, 1.000000000000000000 ) ) ;
#200 = PLANE ( 'NONE',  #70 ) ;
#201 = VECTOR ( 'NONE', #572, 1000.000000000000114 ) ;
#202 = DIRECTION ( 'NONE',  ( -0.000000000000000000, 1.000000000000000000, -0.000000000000000000 ) ) ;
#203 = CARTESIAN_POINT ( 'NONE',  ( 0.2000000000000028422, 97.70000000000182183, 7.999999999999972466 ) ) ;
#204 = FILL_AREA_STYLE_COLOUR ( '', #55 ) ;
#205 = LINE ( 'NONE', #565, #75 ) ;
#206 = DIRECTION ( 'NONE',  ( 1.000000000000000000, 0.000000000000000000, 0.000000000000000000 ) ) ;
#207 = DIRECTION ( 'NONE',  ( -0.000000000000000000, 1.000000000000000000, -0.000000000000000000 ) ) ;
#208 = COLOUR_RGB ( '',1.000000000000000000, 0.000000000000000000, 0.000000000000000000 ) ;
#209 = AXIS2_PLACEMENT_3D ( 'NONE', #547, #134, #452 ) ;
#210 =( NAMED_UNIT ( * ) PLANE_ANGLE_UNIT ( ) SI_UNIT ( $, .RADIAN. ) );
#211 = PRODUCT_CONTEXT ( 'NONE', #160, 'mechanical' ) ;
#212 = CARTESIAN_POINT ( 'NONE',  ( 0.2000000000000022593, 50.00000000000164135, 0.000000000000000000 ) ) ;
#213 = EDGE_CURVE ( 'NONE', #468, #303, #276, .T. ) ;
#214 = ADVANCED_FACE ( 'NONE', ( #455 ), #6, .F. ) ;
#215 = ORIENTED_EDGE ( 'NONE', *, *, #286, .F. ) ;
#216 = CONICAL_SURFACE ( 'NONE', #453, 2904.210877675120173, 1.239183768915899542 ) ;
#217 = TOROIDAL_SURFACE ( 'NONE', #434, 8.320000000000000284, 0.3199999999999977862 ) ;
#218 = VERTEX_POINT ( 'NONE', #408 ) ;
#219 = DIRECTION ( 'NONE',  ( 1.060575238724964231E-16, 0.4999999999999191758, -0.8660254037844854480 ) ) ;
#220 = CARTESIAN_POINT ( 'NONE',  ( 0.2000000000000028422, 14.33393944402185127, 8.000000000005060841 ) ) ;
#221 = DIRECTION ( 'NONE',  ( -0.000000000000000000, 1.000000000000000000, -0.000000000000000000 ) ) ;
#222 = CARTESIAN_POINT ( 'NONE',  ( 0.2000000000000038414, 98.00000000000164846, -7.999999999999986677 ) ) ;
#223 = ORIENTED_EDGE ( 'NONE', *, *, #188, .F. ) ;
#224 = SURFACE_STYLE_FILL_AREA ( #528 ) ;
#225 = DIRECTION ( 'NONE',  ( 0.000000000000000000, 0.000000000000000000, 1.000000000000000000 ) ) ;
#226 = ORIENTED_EDGE ( 'NONE', *, *, #553, .F. ) ;
#227 = MECHANICAL_DESIGN_GEOMETRIC_PRESENTATION_REPRESENTATION (  '', ( #534 ), #302 ) ;
#228 =( NAMED_UNIT ( * ) PLANE_ANGLE_UNIT ( ) SI_UNIT ( $, .RADIAN. ) );
#229 = CARTESIAN_POINT ( 'NONE',  ( 0.2000000000000022593, 50.00000000000164135, 0.000000000000000000 ) ) ;
#230 = ORIENTED_EDGE ( 'NONE', *, *, #31, .F. ) ;
#231 = CARTESIAN_POINT ( 'NONE',  ( 0.2000000000000028422, 49.84000000000163766, 0.000000000000000000 ) ) ;
#232 = EDGE_CURVE ( 'NONE', #365, #305, #92, .T. ) ;
#233 = CARTESIAN_POINT ( 'NONE',  ( 0.2000000000000028422, 49.84000000000163766, -10.50000000000284217 ) ) ;
#234 = ORIENTED_EDGE ( 'NONE', *, *, #166, .T. ) ;
#235 = AXIS2_PLACEMENT_3D ( 'NONE', #247, #463, #111 ) ;
#236 = LINE ( 'NONE', #65, #248 ) ;
#237 = ORIENTED_EDGE ( 'NONE', *, *, #169, .T. ) ;
#238 = AXIS2_PLACEMENT_3D ( 'NONE', #521, #165, #406 ) ;
#239 = AXIS2_PLACEMENT_3D ( 'NONE', #318, #174, #125 ) ;
#240 = CARTESIAN_POINT ( 'NONE',  ( 0.2000000000000028422, 2.754620906320087492, 8.000000000006096457 ) ) ;
#241 =( NAMED_UNIT ( * ) PLANE_ANGLE_UNIT ( ) SI_UNIT ( $, .RADIAN. ) );
#242 = ORIENTED_EDGE ( 'NONE', *, *, #31, .T. ) ;
#243 = EDGE_CURVE ( 'NONE', #353, #179, #409, .T. ) ;
#244 = DIRECTION ( 'NONE',  ( 0.000000000000000000, 0.000000000000000000, 1.000000000000000000 ) ) ;
#245 = ORIENTED_EDGE ( 'NONE', *, *, #67, .F. ) ;
#246 = DIRECTION ( 'NONE',  ( 8.659560562351788508E-17, -0.7071067811868043673, 0.7071067811862907782 ) ) ;
#247 = CARTESIAN_POINT ( 'NONE',  ( 0.2000000000000028422, 14.33393944402185127, 0.000000000000000000 ) ) ;
#248 = VECTOR ( 'NONE', #246, 1000.000000000000000 ) ;
#249 = FACE_OUTER_BOUND ( 'NONE', #2, .T. ) ;
#250 = DIRECTION ( 'NONE',  ( -0.000000000000000000, 1.000000000000000000, -0.000000000000000000 ) ) ;
#251 = CARTESIAN_POINT ( 'NONE',  ( 0.2000000000000038414, 14.33393944402185127, -8.000000000005060841 ) ) ;
#252 = CIRCLE ( 'NONE', #293, 8.960000000000038156 ) ;
#253 = SURFACE_STYLE_FILL_AREA ( #429 ) ;
#254 = CLOSED_SHELL ( 'NONE', ( #319, #197, #425, #423, #256, #214, #340, #567, #363, #407, #69, #177, #12, #522, #112, #543, #446, #90, #82, #72 ) ) ;
#255 = CIRCLE ( 'NONE', #191, 8.000000000000000000 ) ;
#256 = ADVANCED_FACE ( 'NONE', ( #7 ), #217, .F. ) ;
#257 = CARTESIAN_POINT ( 'NONE',  ( 0.2000000000000040079, 14.33393944402185127, -8.000000000005060841 ) ) ;
#258 = EDGE_CURVE ( 'NONE', #45, #457, #1, .T. ) ;
#259 = SHAPE_DEFINITION_REPRESENTATION ( #378, #401 ) ;
#260 = ORIENTED_EDGE ( 'NONE', *, *, #169, .F. ) ;
#261 = CARTESIAN_POINT ( 'NONE',  ( 0.2000000000000022593, 50.00000000000164135, 8.320000000000000284 ) ) ;
#262 = AXIS2_PLACEMENT_3D ( 'NONE', #513, #281, #110 ) ;
#263 = ORIENTED_EDGE ( 'NONE', *, *, #258, .F. ) ;
#264 = FACE_OUTER_BOUND ( 'NONE', #139, .T. ) ;
#265 = CIRCLE ( 'NONE', #526, 10.34000000000287400 ) ;
#266 = ORIENTED_EDGE ( 'NONE', *, *, #482, .F. ) ;
#267 = FACE_OUTER_BOUND ( 'NONE', #84, .T. ) ;
#268 = CARTESIAN_POINT ( 'NONE',  ( 0.2000000000000028422, 0.000000000000000000, 0.000000000000000000 ) ) ;
#269 = DIRECTION ( 'NONE',  ( 0.000000000000000000, 0.000000000000000000, 1.000000000000000000 ) ) ;
#270 = CARTESIAN_POINT ( 'NONE',  ( 0.2000000000000028422, 14.33393944402185127, 0.000000000000000000 ) ) ;
#271 = AXIS2_PLACEMENT_3D ( 'NONE', #25, #250, #60 ) ;
#272 = VERTEX_POINT ( 'NONE', #369 ) ;
#273 = PRESENTATION_STYLE_ASSIGNMENT (( #538 ) ) ;
#274 = CARTESIAN_POINT ( 'NONE',  ( 0.2000000000000028422, 20.44404037065858404, 0.000000000000000000 ) ) ;
#275 = ORIENTED_EDGE ( 'NONE', *, *, #232, .F. ) ;
#276 = CIRCLE ( 'NONE', #129, 10.50000000000284217 ) ;
#277 = DIRECTION ( 'NONE',  ( 0.000000000000000000, 0.000000000000000000, 1.000000000000000000 ) ) ;
#278 = EDGE_CURVE ( 'NONE', #179, #353, #61, .T. ) ;
#279 = DIRECTION ( 'NONE',  ( 0.000000000000000000, 0.000000000000000000, 1.000000000000000000 ) ) ;
#280 = VERTEX_POINT ( 'NONE', #575 ) ;
#281 = DIRECTION ( 'NONE',  ( -0.000000000000000000, 1.000000000000000000, -0.000000000000000000 ) ) ;
#282 = DIRECTION ( 'NONE',  ( -0.000000000000000000, 1.000000000000000000, -0.000000000000000000 ) ) ;
#283 = ORIENTED_EDGE ( 'NONE', *, *, #188, .T. ) ;
#284 = DIRECTION ( 'NONE',  ( -0.000000000000000000, 1.000000000000000000, -0.000000000000000000 ) ) ;
#285 = SURFACE_SIDE_STYLE ('',( #115 ) ) ;
#286 = EDGE_CURVE ( 'NONE', #368, #317, #426, .T. ) ;
#287 = ORIENTED_EDGE ( 'NONE', *, *, #396, .T. ) ;
#288 = PRESENTATION_LAYER_ASSIGNMENT (  '', '', ( #475 ) ) ;
#289 = CARTESIAN_POINT ( 'NONE',  ( 0.2000000000000028422, 50.00000000000160583, 0.000000000000000000 ) ) ;
#290 = VERTEX_POINT ( 'NONE', #89 ) ;
#291 = LINE ( 'NONE', #420, #388 ) ;
#292 = DIRECTION ( 'NONE',  ( -0.000000000000000000, 1.000000000000000000, -0.000000000000000000 ) ) ;
#293 = AXIS2_PLACEMENT_3D ( 'NONE', #289, #511, #372 ) ;
#294 = DIRECTION ( 'NONE',  ( 0.000000000000000000, 0.000000000000000000, 1.000000000000000000 ) ) ;
#295 = CARTESIAN_POINT ( 'NONE',  ( 0.2000000000000028422, 98.00000000000164846, 0.000000000000000000 ) ) ;
#296 = EDGE_CURVE ( 'NONE', #457, #451, #345, .T. ) ;
#297 = AXIS2_PLACEMENT_3D ( 'NONE', #492, #403, #279 ) ;
#298 = APPLICATION_PROTOCOL_DEFINITION ( 'draft international standard', 'automotive_design', 1998, #473 ) ;
#299 = SURFACE_STYLE_USAGE ( .BOTH. , #347 ) ;
#300 = EDGE_CURVE ( 'NONE', #290, #317, #142, .T. ) ;
#301 = DIRECTION ( 'NONE',  ( 0.000000000000000000, 0.000000000000000000, 1.000000000000000000 ) ) ;
#302 =( GEOMETRIC_REPRESENTATION_CONTEXT ( 3 ) GLOBAL_UNCERTAINTY_ASSIGNED_CONTEXT ( ( #430 ) ) GLOBAL_UNIT_ASSIGNED_CONTEXT ( ( #436, #228, #541 ) ) REPRESENTATION_CONTEXT ( 'NONE', 'WORKASPACE' ) );
#303 = VERTEX_POINT ( 'NONE', #445 ) ;
#304 =( LENGTH_UNIT ( ) NAMED_UNIT ( * ) SI_UNIT ( .MILLI., .METRE. ) );
#305 = VERTEX_POINT ( 'NONE', #220 ) ;
#306 = PRODUCT_DEFINITION_CONTEXT ( 'detailed design', #473, 'design' ) ;
#307 = FACE_OUTER_BOUND ( 'NONE', #135, .T. ) ;
#308 = AXIS2_PLACEMENT_3D ( 'NONE', #63, #338, #328 ) ;
#309 = ORIENTED_EDGE ( 'NONE', *, *, #47, .T. ) ;
#310 = FILL_AREA_STYLE_COLOUR ( '', #208 ) ;
#311 = FACE_OUTER_BOUND ( 'NONE', #370, .T. ) ;
#312 = AXIS2_PLACEMENT_3D ( 'NONE', #515, #386, #301 ) ;
#313 = AXIS2_PLACEMENT_3D ( 'NONE', #489, #88, #498 ) ;
#314 = ORIENTED_EDGE ( 'NONE', *, *, #458, .T. ) ;
#315 = DIRECTION ( 'NONE',  ( 0.000000000000000000, 0.000000000000000000, 1.000000000000000000 ) ) ;
#316 = DIRECTION ( 'NONE',  ( 0.000000000000000000, -0.7071067811868043673, -0.7071067811862907782 ) ) ;
#317 = VERTEX_POINT ( 'NONE', #11 ) ;
#318 = CARTESIAN_POINT ( 'NONE',  ( 0.2000000000000028422, 50.00000000000160583, 0.000000000000000000 ) ) ;
#319 = ADVANCED_FACE ( 'NONE', ( #311 ), #326, .T. ) ;
#320 = ORIENTED_EDGE ( 'NONE', *, *, #381, .T. ) ;
#321 = SURFACE_STYLE_USAGE ( .BOTH. , #533 ) ;
#322 = EDGE_CURVE ( 'NONE', #218, #451, #366, .T. ) ;
#323 = DIRECTION ( 'NONE',  ( -0.000000000000000000, 1.000000000000000000, -0.000000000000000000 ) ) ;
#324 = ORIENTED_EDGE ( 'NONE', *, *, #509, .F. ) ;
#325 = CONICAL_SURFACE ( 'NONE', #395, 7.999999999999972466, 0.7853981633974064236 ) ;
#326 = CYLINDRICAL_SURFACE ( 'NONE', #518, 8.000000000005579537 ) ;
#327 = EDGE_LOOP ( 'NONE', ( #121, #444, #374, #454 ) ) ;
#328 = DIRECTION ( 'NONE',  ( 0.000000000000000000, 0.000000000000000000, 1.000000000000000000 ) ) ;
#329 = ORIENTED_EDGE ( 'NONE', *, *, #300, .T. ) ;
#330 = CIRCLE ( 'NONE', #460, 7.699999999999988631 ) ;
#331 = CARTESIAN_POINT ( 'NONE',  ( 0.2000000000000038414, 97.70000000000182183, -7.999999999999972466 ) ) ;
#332 = EDGE_LOOP ( 'NONE', ( #54, #283, #132, #42 ) ) ;
#333 = AXIS2_PLACEMENT_3D ( 'NONE', #79, #207, #344 ) ;
#334 = AXIS2_PLACEMENT_3D ( 'NONE', #377, #428, #150 ) ;
#335 = FACE_OUTER_BOUND ( 'NONE', #172, .T. ) ;
#336 = CYLINDRICAL_SURFACE ( 'NONE', #531, 10.50000000000284217 ) ;
#337 = CARTESIAN_POINT ( 'NONE',  ( 9.160000000000039222, 50.00000000000166978, 0.000000000000000000 ) ) ;
#338 = DIRECTION ( 'NONE',  ( -0.000000000000000000, 1.000000000000000000, -0.000000000000000000 ) ) ;
#339 = PRODUCT ( '99688-SI16-16+S9MT1604-142', '99688-SI16-16+S9MT1604-142', '', ( #211 ) ) ;
#340 = ADVANCED_FACE ( 'NONE', ( #264 ), #548, .T. ) ;
#341 = AXIS2_PLACEMENT_3D ( 'NONE', #33, #77, #206 ) ;
#342 = EDGE_CURVE ( 'NONE', #218, #280, #96, .T. ) ;
#343 = DIRECTION ( 'NONE',  ( 4.637571719432344543E-17, 0.9255250176622896729, -0.3786864688382970967 ) ) ;
#344 = DIRECTION ( 'NONE',  ( 0.000000000000000000, 0.000000000000000000, 1.000000000000000000 ) ) ;
#345 = CIRCLE ( 'NONE', #209, 7.999999999999972466 ) ;
#346 = UNCERTAINTY_MEASURE_WITH_UNIT (LENGTH_MEASURE( 1.000000000000000082E-05 ), #18, 'distance_accuracy_value', 'NONE');
#347 = SURFACE_SIDE_STYLE ('',( #253 ) ) ;
#348 = EDGE_CURVE ( 'NONE', #365, #355, #168, .T. ) ;
#349 = DIRECTION ( 'NONE',  ( 0.000000000000000000, -0.000000000000000000, -1.000000000000000000 ) ) ;
#350 = FACE_OUTER_BOUND ( 'NONE', #540, .T. ) ;
#351 = VECTOR ( 'NONE', #496, 1000.000000000000000 ) ;
#352 = AXIS2_PLACEMENT_3D ( 'NONE', #539, #532, #187 ) ;
#353 = VERTEX_POINT ( 'NONE', #44 ) ;
#354 = CARTESIAN_POINT ( 'NONE',  ( 0.2000000000000028422, 97.70000000000182183, -7.999999999999972466 ) ) ;
#355 = VERTEX_POINT ( 'NONE', #456 ) ;
#356 = EDGE_CURVE ( 'NONE', #272, #468, #53, .T. ) ;
#357 = EDGE_LOOP ( 'NONE', ( #524, #226, #13, #410 ) ) ;
#358 = FILL_AREA_STYLE_COLOUR ( '', #149 ) ;
#359 = DIRECTION ( 'NONE',  ( 0.000000000000000000, 0.000000000000000000, 1.000000000000000000 ) ) ;
#360 = AXIS2_PLACEMENT_3D ( 'NONE', #194, #284, #375 ) ;
#361 = VERTEX_POINT ( 'NONE', #268 ) ;
#362 = DIRECTION ( 'NONE',  ( -0.000000000000000000, 1.000000000000000000, -0.000000000000000000 ) ) ;
#363 = ADVANCED_FACE ( 'NONE', ( #414 ), #535, .T. ) ;
#364 = DIRECTION ( 'NONE',  ( 0.000000000000000000, 0.000000000000000000, 1.000000000000000000 ) ) ;
#365 = VERTEX_POINT ( 'NONE', #240 ) ;
#366 = LINE ( 'NONE', #222, #151 ) ;
#367 = CIRCLE ( 'NONE', #24, 8.000000000006098233 ) ;
#368 = VERTEX_POINT ( 'NONE', #56 ) ;
#369 = CARTESIAN_POINT ( 'NONE',  ( 0.2000000000000028422, 50.00000000000172662, -10.34000000000287400 ) ) ;
#370 = EDGE_LOOP ( 'NONE', ( #57, #287, #182, #275 ) ) ;
#371 = VECTOR ( 'NONE', #184, 1000.000000000000000 ) ;
#372 = DIRECTION ( 'NONE',  ( 0.000000000000000000, 0.000000000000000000, 1.000000000000000000 ) ) ;
#373 = DIRECTION ( 'NONE',  ( -0.000000000000000000, 1.000000000000000000, -0.000000000000000000 ) ) ;
#374 = ORIENTED_EDGE ( 'NONE', *, *, #232, .T. ) ;
#375 = DIRECTION ( 'NONE',  ( 0.000000000000000000, 0.000000000000000000, 1.000000000000000000 ) ) ;
#376 = EDGE_LOOP ( 'NONE', ( #123, #465, #189 ) ) ;
#377 = CARTESIAN_POINT ( 'NONE',  ( 0.2000000000000028422, 98.00000000000164846, 0.000000000000000000 ) ) ;
#378 = PRODUCT_DEFINITION_SHAPE ( 'NONE', 'NONE',  #10 ) ;
#379 = DIRECTION ( 'NONE',  ( -0.000000000000000000, 1.000000000000000000, -0.000000000000000000 ) ) ;
#380 = EDGE_CURVE ( 'NONE', #91, #303, #236, .T. ) ;
#381 = EDGE_CURVE ( 'NONE', #179, #468, #291, .T. ) ;
#382 = FACE_OUTER_BOUND ( 'NONE', #357, .T. ) ;
#383 = CARTESIAN_POINT ( 'NONE',  ( 0.2000000000000028422, 0.000000000000000000, 0.000000000000000000 ) ) ;
#384 = CARTESIAN_POINT ( 'NONE',  ( 0.2000000000000028422, 50.00000000000160583, 0.000000000000000000 ) ) ;
#385 = EDGE_CURVE ( 'NONE', #361, #355, #17, .T. ) ;
#386 = DIRECTION ( 'NONE',  ( -0.000000000000000000, 1.000000000000000000, -0.000000000000000000 ) ) ;
#387 = AXIS2_PLACEMENT_3D ( 'NONE', #432, #478, #74 ) ;
#388 = VECTOR ( 'NONE', #21, 1000.000000000000000 ) ;
#389 =( NAMED_UNIT ( * ) SI_UNIT ( $, .STERADIAN. ) SOLID_ANGLE_UNIT ( ) );
#390 = DIRECTION ( 'NONE',  ( -0.000000000000000000, 1.000000000000000000, -0.000000000000000000 ) ) ;
#391 =( GEOMETRIC_REPRESENTATION_CONTEXT ( 3 ) GLOBAL_UNCERTAINTY_ASSIGNED_CONTEXT ( ( #564 ) ) GLOBAL_UNIT_ASSIGNED_CONTEXT ( ( #471, #560, #103 ) ) REPRESENTATION_CONTEXT ( 'NONE', 'WORKASPACE' ) );
#392 = ORIENTED_EDGE ( 'NONE', *, *, #49, .F. ) ;
#393 = CARTESIAN_POINT ( 'NONE',  ( 0.2000000000000028422, 98.00000000000183320, -7.699999999999988631 ) ) ;
#394 = CIRCLE ( 'NONE', #238, 8.479999999999936477 ) ;
#395 = AXIS2_PLACEMENT_3D ( 'NONE', #26, #29, #147 ) ;
#396 = EDGE_CURVE ( 'NONE', #355, #37, #416, .T. ) ;
#397 = ORIENTED_EDGE ( 'NONE', *, *, #501, .F. ) ;
#398 = LINE ( 'NONE', #402, #127 ) ;
#399 = DIRECTION ( 'NONE',  ( -0.000000000000000000, 1.000000000000000000, -0.000000000000000000 ) ) ;
#400 = EDGE_LOOP ( 'NONE', ( #51, #537, #447, #263 ) ) ;
#401 = ADVANCED_BREP_SHAPE_REPRESENTATION ( '99688-SI16-16+S9MT1604-142', ( #157, #341 ), #391 ) ;
#402 = CARTESIAN_POINT ( 'NONE',  ( 0.2000000000000039524, 50.00000000000160583, -8.960000000000038156 ) ) ;
#403 = DIRECTION ( 'NONE',  ( -0.000000000000000000, 1.000000000000000000, -0.000000000000000000 ) ) ;
#404 = MECHANICAL_DESIGN_GEOMETRIC_PRESENTATION_REPRESENTATION (  '', ( #137 ), #472 ) ;
#405 = ORIENTED_EDGE ( 'NONE', *, *, #213, .T. ) ;
#406 = DIRECTION ( 'NONE',  ( 0.000000000000000000, 0.000000000000000000, 1.000000000000000000 ) ) ;
#407 = ADVANCED_FACE ( 'NONE', ( #467 ), #108, .T. ) ;
#408 = CARTESIAN_POINT ( 'NONE',  ( 0.2000000000000032585, 50.00000000000160583, -8.000000000000000000 ) ) ;
#409 = CIRCLE ( 'NONE', #141, 10.50000000000284217 ) ;
#410 = ORIENTED_EDGE ( 'NONE', *, *, #113, .T. ) ;
#411 = DIRECTION ( 'NONE',  ( -0.000000000000000000, 1.000000000000000000, -0.000000000000000000 ) ) ;
#412 = ORIENTED_EDGE ( 'NONE', *, *, #356, .F. ) ;
#413 = DIRECTION ( 'NONE',  ( -0.000000000000000000, 1.000000000000000000, -0.000000000000000000 ) ) ;
#414 = FACE_OUTER_BOUND ( 'NONE', #480, .T. ) ;
#415 = ORIENTED_EDGE ( 'NONE', *, *, #439, .F. ) ;
#416 = LINE ( 'NONE', #559, #499 ) ;
#417 = PRESENTATION_STYLE_ASSIGNMENT (( #145 ) ) ;
#418 = ORIENTED_EDGE ( 'NONE', *, *, #152, .F. ) ;
#419 = CIRCLE ( 'NONE', #506, 7.999999999999972466 ) ;
#420 = CARTESIAN_POINT ( 'NONE',  ( 0.2000000000000041189, 98.00000000000164846, -10.50000000000284217 ) ) ;
#421 = ORIENTED_EDGE ( 'NONE', *, *, #322, .F. ) ;
#422 = DIRECTION ( 'NONE',  ( 0.000000000000000000, 0.000000000000000000, 1.000000000000000000 ) ) ;
#423 = ADVANCED_FACE ( 'NONE', ( #474 ), #550, .T. ) ;
#424 = LINE ( 'NONE', #198, #101 ) ;
#425 = ADVANCED_FACE ( 'NONE', ( #154 ), #117, .T. ) ;
#426 = CIRCLE ( 'NONE', #352, 8.960000000000038156 ) ;
#427 = CARTESIAN_POINT ( 'NONE',  ( 0.2000000000000028422, 1000.000000000000000, 0.000000000000000000 ) ) ;
#428 = DIRECTION ( 'NONE',  ( -0.000000000000000000, 1.000000000000000000, -0.000000000000000000 ) ) ;
#429 = FILL_AREA_STYLE ('',( #71 ) ) ;
#430 = UNCERTAINTY_MEASURE_WITH_UNIT (LENGTH_MEASURE( 1.000000000000000082E-05 ), #436, 'distance_accuracy_value', 'NONE');
#431 = DIRECTION ( 'NONE',  ( -0.000000000000000000, 1.000000000000000000, -0.000000000000000000 ) ) ;
#432 = CARTESIAN_POINT ( 'NONE',  ( 0.2000000000000028422, 98.00000000000173372, 0.000000000000000000 ) ) ;
#433 = PRESENTATION_LAYER_ASSIGNMENT (  '', '', ( #534 ) ) ;
#434 = AXIS2_PLACEMENT_3D ( 'NONE', #229, #399, #40 ) ;
#435 = ORIENTED_EDGE ( 'NONE', *, *, #243, .F. ) ;
#436 =( LENGTH_UNIT ( ) NAMED_UNIT ( * ) SI_UNIT ( .MILLI., .METRE. ) );
#437 = CIRCLE ( 'NONE', #235, 8.000000000005060841 ) ;
#438 = PRODUCT_RELATED_PRODUCT_CATEGORY ( 'part', '', ( #339 ) ) ;
#439 = EDGE_CURVE ( 'NONE', #218, #45, #255, .T. ) ;
#440 = CARTESIAN_POINT ( 'NONE',  ( 0.2000000000000028422, 49.84000000000163766, 0.000000000000000000 ) ) ;
#441 = VECTOR ( 'NONE', #221, 1000.000000000000000 ) ;
#442 = AXIS2_PLACEMENT_3D ( 'NONE', #192, #106, #158 ) ;
#443 = CARTESIAN_POINT ( 'NONE',  ( 0.2000000000000028422, 49.84000000000163766, 0.000000000000000000 ) ) ;
#444 = ORIENTED_EDGE ( 'NONE', *, *, #523, .T. ) ;
#445 = CARTESIAN_POINT ( 'NONE',  ( 0.2000000000000028422, 49.84000000000163766, 10.50000000000284217 ) ) ;
#446 = ADVANCED_FACE ( 'NONE', ( #470 ), #325, .T. ) ;
#447 = ORIENTED_EDGE ( 'NONE', *, *, #296, .F. ) ;
#448 = CARTESIAN_POINT ( 'NONE',  ( 0.2000000000000041189, 20.44404037065858404, -10.50000000000284217 ) ) ;
#449 = DIRECTION ( 'NONE',  ( -0.000000000000000000, 1.000000000000000000, -0.000000000000000000 ) ) ;
#450 = CIRCLE ( 'NONE', #308, 7.699999999999988631 ) ;
#451 = VERTEX_POINT ( 'NONE', #331 ) ;
#452 = DIRECTION ( 'NONE',  ( 0.000000000000000000, 0.000000000000000000, 1.000000000000000000 ) ) ;
#453 = AXIS2_PLACEMENT_3D ( 'NONE', #427, #30, #28 ) ;
#454 = ORIENTED_EDGE ( 'NONE', *, *, #488, .F. ) ;
#455 = FACE_OUTER_BOUND ( 'NONE', #332, .T. ) ;
#456 = CARTESIAN_POINT ( 'NONE',  ( 0.2000000000000038414, 2.754620906320087492, -8.000000000006096457 ) ) ;
#457 = VERTEX_POINT ( 'NONE', #203 ) ;
#458 = EDGE_CURVE ( 'NONE', #451, #457, #419, .T. ) ;
#459 = CYLINDRICAL_SURFACE ( 'NONE', #186, 7.999999999999986677 ) ;
#460 = AXIS2_PLACEMENT_3D ( 'NONE', #23, #557, #99 ) ;
#461 = ORIENTED_EDGE ( 'NONE', *, *, #296, .T. ) ;
#462 = DIRECTION ( 'NONE',  ( -0.000000000000000000, 1.000000000000000000, -0.000000000000000000 ) ) ;
#463 = DIRECTION ( 'NONE',  ( -0.000000000000000000, 1.000000000000000000, -0.000000000000000000 ) ) ;
#464 =( GEOMETRIC_REPRESENTATION_CONTEXT ( 3 ) GLOBAL_UNCERTAINTY_ASSIGNED_CONTEXT ( ( #3 ) ) GLOBAL_UNIT_ASSIGNED_CONTEXT ( ( #122, #171, #530 ) ) REPRESENTATION_CONTEXT ( 'NONE', 'WORKASPACE' ) );
#465 = ORIENTED_EDGE ( 'NONE', *, *, #153, .T. ) ;
#466 = VECTOR ( 'NONE', #97, 1000.000000000000000 ) ;
#467 = FACE_OUTER_BOUND ( 'NONE', #36, .T. ) ;
#468 = VERTEX_POINT ( 'NONE', #144 ) ;
#469 = EDGE_CURVE ( 'NONE', #317, #368, #252, .T. ) ;
#470 = FACE_OUTER_BOUND ( 'NONE', #104, .T. ) ;
#471 =( LENGTH_UNIT ( ) NAMED_UNIT ( * ) SI_UNIT ( .MILLI., .METRE. ) );
#472 =( GEOMETRIC_REPRESENTATION_CONTEXT ( 3 ) GLOBAL_UNCERTAINTY_ASSIGNED_CONTEXT ( ( #346 ) ) GLOBAL_UNIT_ASSIGNED_CONTEXT ( ( #18, #241, #195 ) ) REPRESENTATION_CONTEXT ( 'NONE', 'WORKASPACE' ) );
#473 = APPLICATION_CONTEXT ( 'automotive_design' ) ;
#474 = FACE_OUTER_BOUND ( 'NONE', #400, .T. ) ;
#475 = STYLED_ITEM ( 'NONE', ( #481 ), #82 ) ;
#476 = VECTOR ( 'NONE', #502, 1000.000000000000114 ) ;
#477 = FACE_OUTER_BOUND ( 'NONE', #376, .T. ) ;
#478 = DIRECTION ( 'NONE',  ( 0.000000000000000000, -1.000000000000000000, 0.000000000000000000 ) ) ;
#479 = PRESENTATION_LAYER_ASSIGNMENT (  '', '', ( #517 ) ) ;
#480 = EDGE_LOOP ( 'NONE', ( #100, #193, #435, #324 ) ) ;
#481 = PRESENTATION_STYLE_ASSIGNMENT (( #299 ) ) ;
#482 = EDGE_CURVE ( 'NONE', #120, #78, #450, .T. ) ;
#483 = ORIENTED_EDGE ( 'NONE', *, *, #153, .F. ) ;
#484 = ORIENTED_EDGE ( 'NONE', *, *, #380, .T. ) ;
#485 = SURFACE_SIDE_STYLE ('',( #491 ) ) ;
#486 = AXIS2_PLACEMENT_3D ( 'NONE', #562, #519, #566 ) ;
#487 = AXIS2_PLACEMENT_3D ( 'NONE', #9, #52, #277 ) ;
#488 = EDGE_CURVE ( 'NONE', #37, #305, #163, .T. ) ;
#489 = CARTESIAN_POINT ( 'NONE',  ( 0.2000000000000032863, 50.00000000000164135, -8.320000000000000284 ) ) ;
#490 = ORIENTED_EDGE ( 'NONE', *, *, #342, .T. ) ;
#491 = SURFACE_STYLE_FILL_AREA ( #183 ) ;
#492 = CARTESIAN_POINT ( 'NONE',  ( 0.2000000000000028422, 2.754620906320087492, 0.000000000000000000 ) ) ;
#493 = ORIENTED_EDGE ( 'NONE', *, *, #488, .T. ) ;
#494 = DIRECTION ( 'NONE',  ( -0.000000000000000000, 1.000000000000000000, -0.000000000000000000 ) ) ;
#495 = ORIENTED_EDGE ( 'NONE', *, *, #458, .F. ) ;
#496 = DIRECTION ( 'NONE',  ( 0.000000000000000000, -0.7071067811865771047, -0.7071067811865179298 ) ) ;
#497 = VECTOR ( 'NONE', #343, 999.9999999999998863 ) ;
#498 = DIRECTION ( 'NONE',  ( 8.470329472543072416E-17, 0.000000000000000000, -1.000000000000000000 ) ) ;
#499 = VECTOR ( 'NONE', #462, 1000.000000000000000 ) ;
#500 = ORIENTED_EDGE ( 'NONE', *, *, #380, .F. ) ;
#501 = EDGE_CURVE ( 'NONE', #78, #120, #330, .T. ) ;
#502 = DIRECTION ( 'NONE',  ( 1.157926297142038281E-16, 0.3255681544572270880, -0.9455185755992926433 ) ) ;
#503 = ORIENTED_EDGE ( 'NONE', *, *, #243, .T. ) ;
#504 = CARTESIAN_POINT ( 'NONE',  ( 0.2000000000000028422, 14.33393944402185127, 0.000000000000000000 ) ) ;
#505 = CARTESIAN_POINT ( 'NONE',  ( 0.2000000000000028422, 98.00000000000164846, 0.000000000000000000 ) ) ;
#506 = AXIS2_PLACEMENT_3D ( 'NONE', #508, #68, #422 ) ;
#507 = ORIENTED_EDGE ( 'NONE', *, *, #439, .T. ) ;
#508 = CARTESIAN_POINT ( 'NONE',  ( 0.2000000000000028422, 97.70000000000182183, 0.000000000000000000 ) ) ;
#509 = EDGE_CURVE ( 'NONE', #305, #353, #424, .T. ) ;
#510 = FACE_OUTER_BOUND ( 'NONE', #573, .T. ) ;
#511 = DIRECTION ( 'NONE',  ( -0.000000000000000000, 1.000000000000000000, -0.000000000000000000 ) ) ;
#512 = DIRECTION ( 'NONE',  ( 0.000000000000000000, 0.000000000000000000, 1.000000000000000000 ) ) ;
#513 = CARTESIAN_POINT ( 'NONE',  ( 0.2000000000000028422, 50.00000000000160583, 0.000000000000000000 ) ) ;
#514 = FILL_AREA_STYLE ('',( #204 ) ) ;
#515 = CARTESIAN_POINT ( 'NONE',  ( 0.2000000000000028422, 98.00000000000164846, 0.000000000000000000 ) ) ;
#516 = CARTESIAN_POINT ( 'NONE',  ( 0.2000000000000028422, 98.00000000000164846, 0.000000000000000000 ) ) ;
#517 = STYLED_ITEM ( 'NONE', ( #86 ), #157 ) ;
#518 = AXIS2_PLACEMENT_3D ( 'NONE', #536, #411, #131 ) ;
#519 = DIRECTION ( 'NONE',  ( -0.000000000000000000, 1.000000000000000000, -0.000000000000000000 ) ) ;
#520 = PLANE ( 'NONE',  #387 ) ;
#521 = CARTESIAN_POINT ( 'NONE',  ( 0.2000000000000028422, 49.72287187079058413, 0.000000000000000000 ) ) ;
#522 = ADVANCED_FACE ( 'NONE', ( #335 ), #35, .F. ) ;
#523 = EDGE_CURVE ( 'NONE', #355, #365, #367, .T. ) ;
#524 = ORIENTED_EDGE ( 'NONE', *, *, #342, .F. ) ;
#525 = DIRECTION ( 'NONE',  ( 0.000000000000000000, 0.000000000000000000, 1.000000000000000000 ) ) ;
#526 = AXIS2_PLACEMENT_3D ( 'NONE', #176, #362, #315 ) ;
#527 = ORIENTED_EDGE ( 'NONE', *, *, #130, .T. ) ;
#528 = FILL_AREA_STYLE ('',( #358 ) ) ;
#529 = EDGE_LOOP ( 'NONE', ( #397, #185, #461, #175 ) ) ;
#530 =( NAMED_UNIT ( * ) SI_UNIT ( $, .STERADIAN. ) SOLID_ANGLE_UNIT ( ) );
#531 = AXIS2_PLACEMENT_3D ( 'NONE', #505, #282, #107 ) ;
#532 = DIRECTION ( 'NONE',  ( -0.000000000000000000, 1.000000000000000000, -0.000000000000000000 ) ) ;
#533 = SURFACE_SIDE_STYLE ('',( #224 ) ) ;
#534 = STYLED_ITEM ( 'NONE', ( #273 ), #197 ) ;
#535 = CONICAL_SURFACE ( 'NONE', #39, 8.000000000005060841, 0.3883766555390675834 ) ;
#536 = CARTESIAN_POINT ( 'NONE',  ( 0.2000000000000028422, 98.00000000000164846, 0.000000000000000000 ) ) ;
#537 = ORIENTED_EDGE ( 'NONE', *, *, #322, .T. ) ;
#538 = SURFACE_STYLE_USAGE ( .BOTH. , #485 ) ;
#539 = CARTESIAN_POINT ( 'NONE',  ( 0.2000000000000028422, 50.00000000000160583, 0.000000000000000000 ) ) ;
#540 = EDGE_LOOP ( 'NONE', ( #64, #22 ) ) ;
#541 =( NAMED_UNIT ( * ) SI_UNIT ( $, .STERADIAN. ) SOLID_ANGLE_UNIT ( ) );
#542 = DIRECTION ( 'NONE',  ( 0.000000000000000000, -1.000000000000000000, 0.000000000000000000 ) ) ;
#543 = ADVANCED_FACE ( 'NONE', ( #249 ), #459, .T. ) ;
#544 = ORIENTED_EDGE ( 'NONE', *, *, #509, .T. ) ;
#545 = EDGE_CURVE ( 'NONE', #303, #468, #73, .T. ) ;
#546 = CIRCLE ( 'NONE', #5, 0.3199999999999973976 ) ;
#547 = CARTESIAN_POINT ( 'NONE',  ( 0.2000000000000028422, 97.70000000000182183, 0.000000000000000000 ) ) ;
#548 = CONICAL_SURFACE ( 'NONE', #180, 10.50000000000284217, 0.7853981633970851250 ) ;
#549 = FACE_BOUND ( 'NONE', #62, .T. ) ;
#550 = CYLINDRICAL_SURFACE ( 'NONE', #334, 7.999999999999986677 ) ;
#551 = FACE_OUTER_BOUND ( 'NONE', #196, .T. ) ;
#552 = EDGE_LOOP ( 'NONE', ( #415, #490, #309, #418 ) ) ;
#553 = EDGE_CURVE ( 'NONE', #45, #218, #568, .T. ) ;
#554 = CARTESIAN_POINT ( 'NONE',  ( 0.2000000000000028422, 50.00000000000160583, 0.000000000000000000 ) ) ;
#555 = ORIENTED_EDGE ( 'NONE', *, *, #278, .T. ) ;
#556 = DIRECTION ( 'NONE',  ( 0.000000000000000000, 0.9255250176622896729, 0.3786864688382970967 ) ) ;
#557 = DIRECTION ( 'NONE',  ( -0.000000000000000000, 1.000000000000000000, -0.000000000000000000 ) ) ;
#558 = CARTESIAN_POINT ( 'NONE',  ( 0.2000000000000041189, 50.00000000000172662, 10.34000000000287400 ) ) ;
#559 = CARTESIAN_POINT ( 'NONE',  ( 0.2000000000000038414, 98.00000000000164846, -8.000000000005579537 ) ) ;
#560 =( NAMED_UNIT ( * ) PLANE_ANGLE_UNIT ( ) SI_UNIT ( $, .RADIAN. ) );
#561 = EDGE_CURVE ( 'NONE', #305, #37, #437, .T. ) ;
#562 = CARTESIAN_POINT ( 'NONE',  ( 0.2000000000000028422, 49.72287187079058413, 0.000000000000000000 ) ) ;
#563 = AXIS2_PLACEMENT_3D ( 'NONE', #181, #323, #364 ) ;
#564 = UNCERTAINTY_MEASURE_WITH_UNIT (LENGTH_MEASURE( 1.000000000000000082E-05 ), #471, 'distance_accuracy_value', 'NONE');
#565 = CARTESIAN_POINT ( 'NONE',  ( 0.2000000000000038414, 97.70000000000182183, 7.999999999999972466 ) ) ;
#566 = DIRECTION ( 'NONE',  ( 0.000000000000000000, 0.000000000000000000, 1.000000000000000000 ) ) ;
#567 = ADVANCED_FACE ( 'NONE', ( #551 ), #336, .T. ) ;
#568 = CIRCLE ( 'NONE', #66, 8.000000000000000000 ) ;
#569 = DIRECTION ( 'NONE',  ( 0.000000000000000000, 0.000000000000000000, 1.000000000000000000 ) ) ;
#570 = ORIENTED_EDGE ( 'NONE', *, *, #381, .F. ) ;
#571 = CIRCLE ( 'NONE', #486, 8.479999999999936477 ) ;
#572 = DIRECTION ( 'NONE',  ( 0.000000000000000000, 0.3255681544572270880, 0.9455185755992926433 ) ) ;
#573 = EDGE_LOOP ( 'NONE', ( #242, #237 ) ) ;
#574 = UNCERTAINTY_MEASURE_WITH_UNIT (LENGTH_MEASURE( 1.000000000000000082E-05 ), #304, 'distance_accuracy_value', 'NONE');
#575 = CARTESIAN_POINT ( 'NONE',  ( 0.2000000000000039246, 49.72287187079058413, -8.479999999999936477 ) ) ;
#576 = AXIS2_PLACEMENT_3D ( 'NONE', #504, #202, #102 ) ;
ENDSEC;
END-ISO-10303-21;
