ISO-10303-21;
HEADER;
FILE_DESCRIPTION (( 'STEP AP214' ),
    '1' );
FILE_NAME ('99688-SI20-20+S9MT2004-142.STEP',
    '2023-07-20T01:21:57',
    ( '' ),
    ( '' ),
    'SwSTEP 2.0',
    'SolidWorks 2020',
    '' );
FILE_SCHEMA (( 'AUTOMOTIVE_DESIGN' ));
ENDSEC;

DATA;
#1 = CARTESIAN_POINT ( 'NONE',  ( 0.2000000000000044520, 106.9999999999982947, -13.00000000000085265 ) ) ;
#2 = CARTESIAN_POINT ( 'NONE',  ( 0.2000000000000028422, 106.9999999999982947, 0.000000000000000000 ) ) ;
#3 = EDGE_CURVE ( 'NONE', #285, #380, #244, .T. ) ;
#4 = DIRECTION ( 'NONE',  ( -0.000000000000000000, 1.000000000000000000, -0.000000000000000000 ) ) ;
#5 = ORIENTED_EDGE ( 'NONE', *, *, #375, .T. ) ;
#6 =( NAMED_UNIT ( * ) PLANE_ANGLE_UNIT ( ) SI_UNIT ( $, .RADIAN. ) );
#7 = LINE ( 'NONE', #1, #436 ) ;
#8 = CARTESIAN_POINT ( 'NONE',  ( 0.2000000000000028422, 106.9999999999982947, 0.000000000000000000 ) ) ;
#9 = AXIS2_PLACEMENT_3D ( 'NONE', #393, #574, #210 ) ;
#10 = AXIS2_PLACEMENT_3D ( 'NONE', #569, #396, #45 ) ;
#11 = DIRECTION ( 'NONE',  ( -0.000000000000000000, 1.000000000000000000, -0.000000000000000000 ) ) ;
#12 = APPLICATION_CONTEXT ( 'automotive_design' ) ;
#13 = ORIENTED_EDGE ( 'NONE', *, *, #410, .F. ) ;
#14 = PRODUCT_CONTEXT ( 'NONE', #12, 'mechanical' ) ;
#15 = EDGE_LOOP ( 'NONE', ( #462, #261, #5, #367 ) ) ;
#16 = ORIENTED_EDGE ( 'NONE', *, *, #302, .T. ) ;
#17 = SURFACE_SIDE_STYLE ('',( #238 ) ) ;
#18 = ORIENTED_EDGE ( 'NONE', *, *, #573, .F. ) ;
#19 = AXIS2_PLACEMENT_3D ( 'NONE', #77, #576, #129 ) ;
#20 = EDGE_LOOP ( 'NONE', ( #59, #101 ) ) ;
#21 = EDGE_CURVE ( 'NONE', #497, #470, #100, .T. ) ;
#22 = ORIENTED_EDGE ( 'NONE', *, *, #573, .T. ) ;
#23 = VERTEX_POINT ( 'NONE', #332 ) ;
#24 = CARTESIAN_POINT ( 'NONE',  ( 0.2000000000000028422, 56.99999999999813127, 0.000000000000000000 ) ) ;
#25 = ORIENTED_EDGE ( 'NONE', *, *, #211, .F. ) ;
#26 = ADVANCED_FACE ( 'NONE', ( #381 ), #67, .T. ) ;
#27 = AXIS2_PLACEMENT_3D ( 'NONE', #93, #547, #450 ) ;
#28 = DIRECTION ( 'NONE',  ( -0.000000000000000000, 1.000000000000000000, -0.000000000000000000 ) ) ;
#29 = CARTESIAN_POINT ( 'NONE',  ( 0.2000000000000022593, 56.99999999999814548, 0.000000000000000000 ) ) ;
#30 = MANIFOLD_SOLID_BREP ( '±ÛÂà1', #355 ) ;
#31 = LINE ( 'NONE', #117, #398 ) ;
#32 = SURFACE_STYLE_USAGE ( .BOTH. , #522 ) ;
#33 = DIRECTION ( 'NONE',  ( 4.999599621758378745E-17, 0.9128709291745870091, -0.4082482904654056166 ) ) ;
#34 = DIRECTION ( 'NONE',  ( -0.000000000000000000, 1.000000000000000000, -0.000000000000000000 ) ) ;
#35 =( GEOMETRIC_REPRESENTATION_CONTEXT ( 3 ) GLOBAL_UNCERTAINTY_ASSIGNED_CONTEXT ( ( #400 ) ) GLOBAL_UNIT_ASSIGNED_CONTEXT ( ( #486, #108, #196 ) ) REPRESENTATION_CONTEXT ( 'NONE', 'WORKASPACE' ) );
#36 = DIRECTION ( 'NONE',  ( 0.000000000000000000, 0.000000000000000000, 1.000000000000000000 ) ) ;
#37 = CARTESIAN_POINT ( 'NONE',  ( 0.2000000000000028422, 106.5999999999982037, 0.000000000000000000 ) ) ;
#38 = AXIS2_PLACEMENT_3D ( 'NONE', #529, #130, #354 ) ;
#39 = DIRECTION ( 'NONE',  ( -0.000000000000000000, 1.000000000000000000, -0.000000000000000000 ) ) ;
#40 = EDGE_CURVE ( 'NONE', #23, #207, #85, .T. ) ;
#41 = FACE_OUTER_BOUND ( 'NONE', #312, .T. ) ;
#42 = DIRECTION ( 'NONE',  ( 0.000000000000000000, 0.000000000000000000, 1.000000000000000000 ) ) ;
#43 = CARTESIAN_POINT ( 'NONE',  ( 0.2000000000000042299, 56.99999999999813127, -11.19999999999390816 ) ) ;
#44 = APPLICATION_CONTEXT ( 'automotive_design' ) ;
#45 = DIRECTION ( 'NONE',  ( 0.000000000000000000, 0.000000000000000000, 1.000000000000000000 ) ) ;
#46 = ORIENTED_EDGE ( 'NONE', *, *, #313, .F. ) ;
#47 = CARTESIAN_POINT ( 'NONE',  ( 0.2000000000000028422, 106.9999999999981810, 0.000000000000000000 ) ) ;
#48 = EDGE_CURVE ( 'NONE', #370, #377, #454, .T. ) ;
#49 = CIRCLE ( 'NONE', #304, 10.00000000000028422 ) ;
#50 = CARTESIAN_POINT ( 'NONE',  ( 0.2000000000000028422, 56.79999999999819238, -13.00000000000085265 ) ) ;
#51 = VECTOR ( 'NONE', #90, 1000.000000000000000 ) ;
#52 = CARTESIAN_POINT ( 'NONE',  ( 0.2000000000000028422, 106.9999999999981810, -9.599999999999853983 ) ) ;
#53 = LINE ( 'NONE', #97, #224 ) ;
#54 = CARTESIAN_POINT ( 'NONE',  ( 0.2000000000000028422, 56.79999999999819238, 13.00000000000085265 ) ) ;
#55 = ORIENTED_EDGE ( 'NONE', *, *, #3, .T. ) ;
#56 = VECTOR ( 'NONE', #571, 1000.000000000000000 ) ;
#57 = CARTESIAN_POINT ( 'NONE',  ( 0.2000000000000022593, 56.99999999999814548, 10.39999999999386127 ) ) ;
#58 = AXIS2_PLACEMENT_3D ( 'NONE', #425, #433, #474 ) ;
#59 = ORIENTED_EDGE ( 'NONE', *, *, #288, .F. ) ;
#60 = ADVANCED_FACE ( 'NONE', ( #214 ), #292, .T. ) ;
#61 = DIRECTION ( 'NONE',  ( -0.000000000000000000, 1.000000000000000000, -0.000000000000000000 ) ) ;
#62 = ORIENTED_EDGE ( 'NONE', *, *, #235, .T. ) ;
#63 = ORIENTED_EDGE ( 'NONE', *, *, #205, .F. ) ;
#64 = FILL_AREA_STYLE_COLOUR ( '', #208 ) ;
#65 = EDGE_CURVE ( 'NONE', #553, #468, #572, .T. ) ;
#66 = VERTEX_POINT ( 'NONE', #78 ) ;
#67 = CONICAL_SURFACE ( 'NONE', #282, 10.00000000000028422, 0.4205343352856549255 ) ;
#68 = CIRCLE ( 'NONE', #140, 9.599999999999853983 ) ;
#69 = ORIENTED_EDGE ( 'NONE', *, *, #48, .T. ) ;
#70 = ORIENTED_EDGE ( 'NONE', *, *, #562, .T. ) ;
#71 = DIRECTION ( 'NONE',  ( 0.000000000000000000, 0.000000000000000000, 1.000000000000000000 ) ) ;
#72 = UNCERTAINTY_MEASURE_WITH_UNIT (LENGTH_MEASURE( 1.000000000000000082E-05 ), #343, 'distance_accuracy_value', 'NONE');
#73 = PRESENTATION_LAYER_ASSIGNMENT (  '', '', ( #465 ) ) ;
#74 = CONICAL_SURFACE ( 'NONE', #325, 2904.210877674981930, 1.239183768915884887 ) ;
#75 = DIRECTION ( 'NONE',  ( 0.000000000000000000, 0.000000000000000000, 1.000000000000000000 ) ) ;
#76 = DIRECTION ( 'NONE',  ( -0.000000000000000000, 1.000000000000000000, -0.000000000000000000 ) ) ;
#77 = CARTESIAN_POINT ( 'NONE',  ( 0.2000000000000028422, 106.9999999999982947, 0.000000000000000000 ) ) ;
#78 = CARTESIAN_POINT ( 'NONE',  ( 0.2000000000000028422, 3.443276132897687969, 10.00000000000011369 ) ) ;
#79 = ADVANCED_FACE ( 'NONE', ( #209 ), #519, .T. ) ;
#80 = LINE ( 'NONE', #143, #51 ) ;
#81 = CARTESIAN_POINT ( 'NONE',  ( 0.2000000000000028422, 24.23606797747078545, 13.00000000000085265 ) ) ;
#82 = COLOUR_RGB ( '',1.000000000000000000, 0.000000000000000000, 0.000000000000000000 ) ;
#83 = FACE_OUTER_BOUND ( 'NONE', #329, .T. ) ;
#84 = DIRECTION ( 'NONE',  ( -0.000000000000000000, 1.000000000000000000, -0.000000000000000000 ) ) ;
#85 = CIRCLE ( 'NONE', #549, 10.59999999999383746 ) ;
#86 =( GEOMETRIC_REPRESENTATION_CONTEXT ( 3 ) GLOBAL_UNCERTAINTY_ASSIGNED_CONTEXT ( ( #72 ) ) GLOBAL_UNIT_ASSIGNED_CONTEXT ( ( #343, #479, #212 ) ) REPRESENTATION_CONTEXT ( 'NONE', 'WORKASPACE' ) );
#87 = SURFACE_SIDE_STYLE ('',( #564 ) ) ;
#88 = LINE ( 'NONE', #134, #543 ) ;
#89 = ADVANCED_FACE ( 'NONE', ( #526 ), #185, .T. ) ;
#90 = DIRECTION ( 'NONE',  ( 0.000000000000000000, 0.9128709291745870091, 0.4082482904654056166 ) ) ;
#91 = AXIS2_PLACEMENT_3D ( 'NONE', #478, #350, #71 ) ;
#92 = CONICAL_SURFACE ( 'NONE', #256, 11.19999999999390816, 1.047197551196642262 ) ;
#93 = CARTESIAN_POINT ( 'NONE',  ( 11.39999999999390923, 56.99999999999818101, 0.000000000000000000 ) ) ;
#94 = TOROIDAL_SURFACE ( 'NONE', #10, 10.39999999999386127, 0.4000000000000029643 ) ;
#95 = DIRECTION ( 'NONE',  ( 0.000000000000000000, 0.000000000000000000, 1.000000000000000000 ) ) ;
#96 = EDGE_CURVE ( 'NONE', #468, #467, #199, .T. ) ;
#97 = CARTESIAN_POINT ( 'NONE',  ( 0.2000000000000044520, 56.79999999999819238, 13.00000000000085265 ) ) ;
#98 = ORIENTED_EDGE ( 'NONE', *, *, #3, .F. ) ;
#99 = CARTESIAN_POINT ( 'NONE',  ( 0.2000000000000028422, 106.9999999999981810, 0.000000000000000000 ) ) ;
#100 = CIRCLE ( 'NONE', #423, 9.999999999993860911 ) ;
#101 = ORIENTED_EDGE ( 'NONE', *, *, #546, .F. ) ;
#102 = AXIS2_PLACEMENT_3D ( 'NONE', #565, #213, #384 ) ;
#103 = SURFACE_SIDE_STYLE ('',( #278 ) ) ;
#104 = VERTEX_POINT ( 'NONE', #336 ) ;
#105 = ORIENTED_EDGE ( 'NONE', *, *, #48, .F. ) ;
#106 = UNCERTAINTY_MEASURE_WITH_UNIT (LENGTH_MEASURE( 1.000000000000000082E-05 ), #289, 'distance_accuracy_value', 'NONE');
#107 = ADVANCED_FACE ( 'NONE', ( #301 ), #92, .F. ) ;
#108 =( NAMED_UNIT ( * ) PLANE_ANGLE_UNIT ( ) SI_UNIT ( $, .RADIAN. ) );
#109 = EDGE_LOOP ( 'NONE', ( #276, #70, #309, #245 ) ) ;
#110 = ORIENTED_EDGE ( 'NONE', *, *, #123, .T. ) ;
#111 = ORIENTED_EDGE ( 'NONE', *, *, #21, .F. ) ;
#112 = VERTEX_POINT ( 'NONE', #428 ) ;
#113 = AXIS2_PLACEMENT_3D ( 'NONE', #345, #137, #135 ) ;
#114 = AXIS2_PLACEMENT_3D ( 'NONE', #116, #487, #307 ) ;
#115 = EDGE_LOOP ( 'NONE', ( #155, #16, #283, #221 ) ) ;
#116 = CARTESIAN_POINT ( 'NONE',  ( 0.2000000000000028422, 56.79999999999819238, 0.000000000000000000 ) ) ;
#117 = CARTESIAN_POINT ( 'NONE',  ( 0.2000000000000028422, 106.5999999999982037, -9.999999999993860911 ) ) ;
#118 = AXIS2_PLACEMENT_3D ( 'NONE', #362, #324, #540 ) ;
#119 = VECTOR ( 'NONE', #33, 1000.000000000000000 ) ;
#120 = VECTOR ( 'NONE', #341, 1000.000000000000000 ) ;
#121 = CARTESIAN_POINT ( 'NONE',  ( 0.2000000000000028422, 17.52786404500056250, 0.000000000000000000 ) ) ;
#122 = LINE ( 'NONE', #163, #415 ) ;
#123 = EDGE_CURVE ( 'NONE', #23, #376, #438, .T. ) ;
#124 = FACE_OUTER_BOUND ( 'NONE', #195, .T. ) ;
#125 = CARTESIAN_POINT ( 'NONE',  ( 0.2000000000000028422, 56.65358983848435059, 0.000000000000000000 ) ) ;
#126 = CYLINDRICAL_SURFACE ( 'NONE', #464, 9.999999999993860911 ) ;
#127 = DIRECTION ( 'NONE',  ( 0.000000000000000000, 0.000000000000000000, 1.000000000000000000 ) ) ;
#128 = DIRECTION ( 'NONE',  ( 0.000000000000000000, 0.000000000000000000, 1.000000000000000000 ) ) ;
#129 = DIRECTION ( 'NONE',  ( 0.000000000000000000, 0.000000000000000000, 1.000000000000000000 ) ) ;
#130 = DIRECTION ( 'NONE',  ( -0.000000000000000000, 1.000000000000000000, -0.000000000000000000 ) ) ;
#131 = AXIS2_PLACEMENT_3D ( 'NONE', #121, #162, #75 ) ;
#132 = AXIS2_PLACEMENT_3D ( 'NONE', #399, #361, #537 ) ;
#133 = EDGE_CURVE ( 'NONE', #268, #420, #339, .T. ) ;
#134 = CARTESIAN_POINT ( 'NONE',  ( 0.2000000000000028422, 0.000000000000000000, 0.000000000000000000 ) ) ;
#135 = DIRECTION ( 'NONE',  ( 0.000000000000000000, 0.000000000000000000, 1.000000000000000000 ) ) ;
#136 = LINE ( 'NONE', #50, #559 ) ;
#137 = DIRECTION ( 'NONE',  ( -0.000000000000000000, 1.000000000000000000, -0.000000000000000000 ) ) ;
#138 = DIRECTION ( 'NONE',  ( -1.000000000000000000, 0.000000000000000000, 0.000000000000000000 ) ) ;
#139 = MECHANICAL_DESIGN_GEOMETRIC_PRESENTATION_REPRESENTATION (  '', ( #177 ), #404 ) ;
#140 = AXIS2_PLACEMENT_3D ( 'NONE', #99, #61, #181 ) ;
#141 = DIRECTION ( 'NONE',  ( -0.000000000000000000, 1.000000000000000000, -0.000000000000000000 ) ) ;
#142 = EDGE_CURVE ( 'NONE', #467, #468, #414, .T. ) ;
#143 = CARTESIAN_POINT ( 'NONE',  ( 0.2000000000000028422, 17.52786404500056250, 10.00000000000028422 ) ) ;
#144 = ORIENTED_EDGE ( 'NONE', *, *, #65, .T. ) ;
#145 = CARTESIAN_POINT ( 'NONE',  ( 0.2000000000000028422, 106.5999999999982037, 9.999999999993860911 ) ) ;
#146 = ORIENTED_EDGE ( 'NONE', *, *, #205, .T. ) ;
#147 =( GEOMETRIC_REPRESENTATION_CONTEXT ( 3 ) GLOBAL_UNCERTAINTY_ASSIGNED_CONTEXT ( ( #106 ) ) GLOBAL_UNIT_ASSIGNED_CONTEXT ( ( #289, #254, #294 ) ) REPRESENTATION_CONTEXT ( 'NONE', 'WORKASPACE' ) );
#148 = ADVANCED_FACE ( 'NONE', ( #514 ), #333, .F. ) ;
#149 = AXIS2_PLACEMENT_3D ( 'NONE', #125, #215, #386 ) ;
#150 = ORIENTED_EDGE ( 'NONE', *, *, #546, .T. ) ;
#151 = ORIENTED_EDGE ( 'NONE', *, *, #357, .F. ) ;
#152 = ORIENTED_EDGE ( 'NONE', *, *, #183, .T. ) ;
#153 = ORIENTED_EDGE ( 'NONE', *, *, #357, .T. ) ;
#154 = DIRECTION ( 'NONE',  ( 0.000000000000000000, 0.000000000000000000, 1.000000000000000000 ) ) ;
#155 = ORIENTED_EDGE ( 'NONE', *, *, #477, .T. ) ;
#156 = CIRCLE ( 'NONE', #165, 12.80000000000080718 ) ;
#157 = CIRCLE ( 'NONE', #149, 10.59999999999383746 ) ;
#158 = EDGE_CURVE ( 'NONE', #372, #553, #166, .T. ) ;
#159 = ORIENTED_EDGE ( 'NONE', *, *, #133, .F. ) ;
#160 = DIRECTION ( 'NONE',  ( 0.000000000000000000, -1.000000000000000000, 0.000000000000000000 ) ) ;
#161 = CARTESIAN_POINT ( 'NONE',  ( 0.2000000000000028422, 106.9999999999982947, 9.999999999993860911 ) ) ;
#162 = DIRECTION ( 'NONE',  ( -0.000000000000000000, 1.000000000000000000, -0.000000000000000000 ) ) ;
#163 = CARTESIAN_POINT ( 'NONE',  ( 0.2000000000000040634, 106.9999999999982947, -10.00000000000019895 ) ) ;
#164 = ADVANCED_FACE ( 'NONE', ( #124 ), #317, .T. ) ;
#165 = AXIS2_PLACEMENT_3D ( 'NONE', #310, #442, #42 ) ;
#166 = CIRCLE ( 'NONE', #492, 10.00000000000028422 ) ;
#167 = CARTESIAN_POINT ( 'NONE',  ( 0.2000000000000028422, 106.9999999999982947, 13.00000000000085265 ) ) ;
#168 = MECHANICAL_DESIGN_GEOMETRIC_PRESENTATION_REPRESENTATION (  '', ( #201 ), #86 ) ;
#169 = FACE_OUTER_BOUND ( 'NONE', #502, .T. ) ;
#170 = CARTESIAN_POINT ( 'NONE',  ( 0.2000000000000028422, 24.23606797747078545, 0.000000000000000000 ) ) ;
#171 = CARTESIAN_POINT ( 'NONE',  ( 0.2000000000000040634, 106.5999999999982037, -9.999999999993860911 ) ) ;
#172 = CARTESIAN_POINT ( 'NONE',  ( 0.2000000000000040634, 17.52786404500056250, -10.00000000000028422 ) ) ;
#173 = CARTESIAN_POINT ( 'NONE',  ( 0.2000000000000028422, 106.5999999999982037, 0.000000000000000000 ) ) ;
#174 =( NAMED_UNIT ( * ) PLANE_ANGLE_UNIT ( ) SI_UNIT ( $, .RADIAN. ) );
#175 = CARTESIAN_POINT ( 'NONE',  ( 0.2000000000000028422, 56.99999999999823785, -12.80000000000080718 ) ) ;
#176 = CARTESIAN_POINT ( 'NONE',  ( 0.2000000000000028422, 106.5999999999982037, 0.000000000000000000 ) ) ;
#177 = STYLED_ITEM ( 'NONE', ( #300 ), #511 ) ;
#178 = DIRECTION ( 'NONE',  ( 0.000000000000000000, 0.000000000000000000, 1.000000000000000000 ) ) ;
#179 = CARTESIAN_POINT ( 'NONE',  ( 0.2000000000000028422, 106.9999999999982947, 0.000000000000000000 ) ) ;
#180 = ORIENTED_EDGE ( 'NONE', *, *, #183, .F. ) ;
#181 = DIRECTION ( 'NONE',  ( 0.000000000000000000, 0.000000000000000000, 1.000000000000000000 ) ) ;
#182 = FACE_OUTER_BOUND ( 'NONE', #489, .T. ) ;
#183 = EDGE_CURVE ( 'NONE', #377, #370, #567, .T. ) ;
#184 = CONICAL_SURFACE ( 'NONE', #113, 2904.210877674981930, 1.239183768915884887 ) ;
#185 = CONICAL_SURFACE ( 'NONE', #131, 10.00000000000028422, 0.4205343352856549255 ) ;
#186 = CIRCLE ( 'NONE', #216, 9.999999999993860911 ) ;
#187 = FACE_OUTER_BOUND ( 'NONE', #203, .T. ) ;
#188 = VERTEX_POINT ( 'NONE', #175 ) ;
#189 = APPLICATION_PROTOCOL_DEFINITION ( 'draft international standard', 'automotive_design', 1998, #12 ) ;
#190 = CARTESIAN_POINT ( 'NONE',  ( 0.2000000000000028422, 56.99999999999813127, 0.000000000000000000 ) ) ;
#191 = ORIENTED_EDGE ( 'NONE', *, *, #133, .T. ) ;
#192 = APPLICATION_PROTOCOL_DEFINITION ( 'draft international standard', 'automotive_design', 1998, #44 ) ;
#193 = ADVANCED_FACE ( 'NONE', ( #255 ), #74, .T. ) ;
#194 = CARTESIAN_POINT ( 'NONE',  ( 0.2000000000000028422, 17.52786404500056250, 0.000000000000000000 ) ) ;
#195 = EDGE_LOOP ( 'NONE', ( #548, #153, #152, #397 ) ) ;
#196 =( NAMED_UNIT ( * ) SI_UNIT ( $, .STERADIAN. ) SOLID_ANGLE_UNIT ( ) );
#197 = CARTESIAN_POINT ( 'NONE',  ( 0.2000000000000040634, 106.5999999999982037, 9.999999999993860911 ) ) ;
#198 = STYLED_ITEM ( 'NONE', ( #409 ), #287 ) ;
#199 = CIRCLE ( 'NONE', #263, 13.00000000000085265 ) ;
#200 = EDGE_LOOP ( 'NONE', ( #62, #277 ) ) ;
#201 = STYLED_ITEM ( 'NONE', ( #476 ), #193 ) ;
#202 = ORIENTED_EDGE ( 'NONE', *, *, #410, .T. ) ;
#203 = EDGE_LOOP ( 'NONE', ( #202, #509 ) ) ;
#204 = ORIENTED_EDGE ( 'NONE', *, *, #246, .F. ) ;
#205 = EDGE_CURVE ( 'NONE', #380, #326, #186, .T. ) ;
#206 = DIRECTION ( 'NONE',  ( -0.000000000000000000, 1.000000000000000000, -0.000000000000000000 ) ) ;
#207 = VERTEX_POINT ( 'NONE', #521 ) ;
#208 = COLOUR_RGB ( '',0.7921568627450980005, 0.8196078431372548767, 0.9333333333333333481 ) ;
#209 = FACE_OUTER_BOUND ( 'NONE', #457, .T. ) ;
#210 = DIRECTION ( 'NONE',  ( 0.000000000000000000, 0.000000000000000000, 1.000000000000000000 ) ) ;
#211 = EDGE_CURVE ( 'NONE', #326, #380, #493, .T. ) ;
#212 =( NAMED_UNIT ( * ) SI_UNIT ( $, .STERADIAN. ) SOLID_ANGLE_UNIT ( ) );
#213 = DIRECTION ( 'NONE',  ( 0.000000000000000000, -1.000000000000000000, 0.000000000000000000 ) ) ;
#214 = FACE_OUTER_BOUND ( 'NONE', #463, .T. ) ;
#215 = DIRECTION ( 'NONE',  ( -0.000000000000000000, 1.000000000000000000, -0.000000000000000000 ) ) ;
#216 = AXIS2_PLACEMENT_3D ( 'NONE', #484, #480, #220 ) ;
#217 = DIRECTION ( 'NONE',  ( 0.000000000000000000, 0.3255681544572409103, 0.9455185755992878693 ) ) ;
#218 = FACE_OUTER_BOUND ( 'NONE', #538, .T. ) ;
#219 = DIRECTION ( 'NONE',  ( 1.060575238724934155E-16, 0.4999999999999614197, -0.8660254037844609121 ) ) ;
#220 = DIRECTION ( 'NONE',  ( 0.000000000000000000, 0.000000000000000000, 1.000000000000000000 ) ) ;
#221 = ORIENTED_EDGE ( 'NONE', *, *, #349, .F. ) ;
#222 = DIRECTION ( 'NONE',  ( -0.000000000000000000, 1.000000000000000000, -0.000000000000000000 ) ) ;
#223 = LINE ( 'NONE', #161, #120 ) ;
#224 = VECTOR ( 'NONE', #269, 1000.000000000000000 ) ;
#225 = DIRECTION ( 'NONE',  ( 0.000000000000000000, -0.7071067811865505703, -0.7071067811865444641 ) ) ;
#226 = CARTESIAN_POINT ( 'NONE',  ( 0.2000000000000042577, 17.52786404500056250, -10.00000000000028422 ) ) ;
#227 = DIRECTION ( 'NONE',  ( -0.000000000000000000, 1.000000000000000000, -0.000000000000000000 ) ) ;
#228 = PLANE ( 'NONE',  #27 ) ;
#229 = PRODUCT_RELATED_PRODUCT_CATEGORY ( 'part', '', ( #338 ) ) ;
#230 =( NAMED_UNIT ( * ) SI_UNIT ( $, .STERADIAN. ) SOLID_ANGLE_UNIT ( ) );
#231 = AXIS2_PLACEMENT_3D ( 'NONE', #47, #222, #360 ) ;
#232 = VECTOR ( 'NONE', #566, 1000.000000000000114 ) ;
#233 = CARTESIAN_POINT ( 'NONE',  ( 0.2000000000000028422, 17.52786404500056250, 10.00000000000028422 ) ) ;
#234 = ORIENTED_EDGE ( 'NONE', *, *, #123, .F. ) ;
#235 = EDGE_CURVE ( 'NONE', #188, #104, #265, .T. ) ;
#236 = CARTESIAN_POINT ( 'NONE',  ( 0.2000000000000035361, 56.99999999999814548, -10.39999999999386127 ) ) ;
#237 = EDGE_LOOP ( 'NONE', ( #234, #46, #22, #554 ) ) ;
#238 = SURFACE_STYLE_FILL_AREA ( #458 ) ;
#239 = ORIENTED_EDGE ( 'NONE', *, *, #302, .F. ) ;
#240 = ORIENTED_EDGE ( 'NONE', *, *, #142, .T. ) ;
#241 = ORIENTED_EDGE ( 'NONE', *, *, #246, .T. ) ;
#242 = AXIS2_PLACEMENT_3D ( 'NONE', #57, #138, #456 ) ;
#243 = ORIENTED_EDGE ( 'NONE', *, *, #388, .T. ) ;
#244 = LINE ( 'NONE', #197, #558 ) ;
#245 = ORIENTED_EDGE ( 'NONE', *, *, #96, .F. ) ;
#246 = EDGE_CURVE ( 'NONE', #268, #66, #88, .T. ) ;
#247 = DIRECTION ( 'NONE',  ( 0.000000000000000000, 0.000000000000000000, 1.000000000000000000 ) ) ;
#248 = EDGE_CURVE ( 'NONE', #545, #326, #31, .T. ) ;
#249 = DIRECTION ( 'NONE',  ( -0.000000000000000000, 1.000000000000000000, -0.000000000000000000 ) ) ;
#250 = DIRECTION ( 'NONE',  ( -0.000000000000000000, 1.000000000000000000, -0.000000000000000000 ) ) ;
#251 = CARTESIAN_POINT ( 'NONE',  ( 0.2000000000000035083, 56.99999999999813127, -9.999999999993860911 ) ) ;
#252 = CARTESIAN_POINT ( 'NONE',  ( 0.2000000000000044520, 24.23606797747078545, -13.00000000000085265 ) ) ;
#253 = CARTESIAN_POINT ( 'NONE',  ( 0.2000000000000028422, 17.52786404500056250, 0.000000000000000000 ) ) ;
#254 =( NAMED_UNIT ( * ) PLANE_ANGLE_UNIT ( ) SI_UNIT ( $, .RADIAN. ) );
#255 = FACE_OUTER_BOUND ( 'NONE', #575, .T. ) ;
#256 = AXIS2_PLACEMENT_3D ( 'NONE', #482, #84, #259 ) ;
#257 = DIRECTION ( 'NONE',  ( 0.000000000000000000, 0.000000000000000000, 1.000000000000000000 ) ) ;
#258 = CONICAL_SURFACE ( 'NONE', #293, 9.999999999993860911, 0.7853981633899954629 ) ;
#259 = DIRECTION ( 'NONE',  ( 0.000000000000000000, 0.000000000000000000, 1.000000000000000000 ) ) ;
#260 = ADVANCED_FACE ( 'NONE', ( #347 ), #258, .T. ) ;
#261 = ORIENTED_EDGE ( 'NONE', *, *, #451, .F. ) ;
#262 = DIRECTION ( 'NONE',  ( 1.355252715606871175E-16, 0.000000000000000000, -1.000000000000000000 ) ) ;
#263 = AXIS2_PLACEMENT_3D ( 'NONE', #170, #28, #127 ) ;
#264 = ADVANCED_FACE ( 'NONE', ( #351 ), #94, .F. ) ;
#265 = CIRCLE ( 'NONE', #344, 12.80000000000080718 ) ;
#266 = LINE ( 'NONE', #320, #475 ) ;
#267 = FACE_OUTER_BOUND ( 'NONE', #200, .T. ) ;
#268 = VERTEX_POINT ( 'NONE', #441 ) ;
#269 = DIRECTION ( 'NONE',  ( 8.659560562354895880E-17, -0.7071067811865505703, 0.7071067811865444641 ) ) ;
#270 = EDGE_LOOP ( 'NONE', ( #330, #110, #150, #18 ) ) ;
#271 = AXIS2_PLACEMENT_3D ( 'NONE', #236, #499, #262 ) ;
#272 = CYLINDRICAL_SURFACE ( 'NONE', #466, 10.00000000000019895 ) ;
#273 = ORIENTED_EDGE ( 'NONE', *, *, #388, .F. ) ;
#274 =( LENGTH_UNIT ( ) NAMED_UNIT ( * ) SI_UNIT ( .MILLI., .METRE. ) );
#275 = FILL_AREA_STYLE_COLOUR ( '', #364 ) ;
#276 = ORIENTED_EDGE ( 'NONE', *, *, #65, .F. ) ;
#277 = ORIENTED_EDGE ( 'NONE', *, *, #517, .T. ) ;
#278 = SURFACE_STYLE_FILL_AREA ( #405 ) ;
#279 = ORIENTED_EDGE ( 'NONE', *, *, #477, .F. ) ;
#280 = EDGE_CURVE ( 'NONE', #470, #380, #223, .T. ) ;
#281 = MECHANICAL_DESIGN_GEOMETRIC_PRESENTATION_REPRESENTATION (  '', ( #198 ), #518 ) ;
#282 = AXIS2_PLACEMENT_3D ( 'NONE', #194, #371, #503 ) ;
#283 = ORIENTED_EDGE ( 'NONE', *, *, #158, .F. ) ;
#284 = AXIS2_PLACEMENT_3D ( 'NONE', #291, #250, #426 ) ;
#285 = VERTEX_POINT ( 'NONE', #383 ) ;
#286 = ORIENTED_EDGE ( 'NONE', *, *, #451, .T. ) ;
#287 = ADVANCED_BREP_SHAPE_REPRESENTATION ( '99688-SI20-20+S9MT2004-142', ( #30, #118 ), #35 ) ;
#288 = EDGE_CURVE ( 'NONE', #112, #376, #382, .T. ) ;
#289 =( LENGTH_UNIT ( ) NAMED_UNIT ( * ) SI_UNIT ( .MILLI., .METRE. ) );
#290 = AXIS2_PLACEMENT_3D ( 'NONE', #536, #445, #390 ) ;
#291 = CARTESIAN_POINT ( 'NONE',  ( 0.2000000000000028422, 56.99999999999813127, 0.000000000000000000 ) ) ;
#292 = CONICAL_SURFACE ( 'NONE', #520, 9.999999999993860911, 0.7853981633899954629 ) ;
#293 = AXIS2_PLACEMENT_3D ( 'NONE', #173, #430, #488 ) ;
#294 =( NAMED_UNIT ( * ) SI_UNIT ( $, .STERADIAN. ) SOLID_ANGLE_UNIT ( ) );
#295 = CARTESIAN_POINT ( 'NONE',  ( 0.2000000000000028422, 56.99999999999823785, 0.000000000000000000 ) ) ;
#296 =( LENGTH_UNIT ( ) NAMED_UNIT ( * ) SI_UNIT ( .MILLI., .METRE. ) );
#297 = CYLINDRICAL_SURFACE ( 'NONE', #19, 13.00000000000085265 ) ;
#298 = DIRECTION ( 'NONE',  ( 0.000000000000000000, 0.000000000000000000, -1.000000000000000000 ) ) ;
#299 = DIRECTION ( 'NONE',  ( -0.000000000000000000, 1.000000000000000000, -0.000000000000000000 ) ) ;
#300 = PRESENTATION_STYLE_ASSIGNMENT (( #32 ) ) ;
#301 = FACE_OUTER_BOUND ( 'NONE', #237, .T. ) ;
#302 = EDGE_CURVE ( 'NONE', #420, #553, #122, .T. ) ;
#303 = SURFACE_STYLE_USAGE ( .BOTH. , #87 ) ;
#304 = AXIS2_PLACEMENT_3D ( 'NONE', #253, #432, #36 ) ;
#305 = CIRCLE ( 'NONE', #132, 9.999999999993860911 ) ;
#306 = LINE ( 'NONE', #394, #56 ) ;
#307 = DIRECTION ( 'NONE',  ( 0.000000000000000000, 0.000000000000000000, -1.000000000000000000 ) ) ;
#308 = DIRECTION ( 'NONE',  ( 0.000000000000000000, -0.7071067811918174684, -0.7071067811812775661 ) ) ;
#309 = ORIENTED_EDGE ( 'NONE', *, *, #328, .T. ) ;
#310 = CARTESIAN_POINT ( 'NONE',  ( 0.2000000000000028422, 56.99999999999823785, 0.000000000000000000 ) ) ;
#311 = DIRECTION ( 'NONE',  ( 0.000000000000000000, -0.000000000000000000, -1.000000000000000000 ) ) ;
#312 = EDGE_LOOP ( 'NONE', ( #459, #417, #452, #25 ) ) ;
#313 = EDGE_CURVE ( 'NONE', #207, #23, #157, .T. ) ;
#314 = CYLINDRICAL_SURFACE ( 'NONE', #385, 10.00000000000019895 ) ;
#315 = LINE ( 'NONE', #167, #356 ) ;
#316 = UNCERTAINTY_MEASURE_WITH_UNIT (LENGTH_MEASURE( 1.000000000000000082E-05 ), #296, 'distance_accuracy_value', 'NONE');
#317 = CONICAL_SURFACE ( 'NONE', #114, 13.00000000000085265, 0.7853981633974439491 ) ;
#318 = AXIS2_PLACEMENT_3D ( 'NONE', #369, #366, #95 ) ;
#319 = DIRECTION ( 'NONE',  ( 0.000000000000000000, 0.000000000000000000, 1.000000000000000000 ) ) ;
#320 = CARTESIAN_POINT ( 'NONE',  ( 0.2000000000000028422, 106.9999999999982947, 10.00000000000019895 ) ) ;
#321 = EDGE_LOOP ( 'NONE', ( #473, #144, #416, #419 ) ) ;
#322 = DIRECTION ( 'NONE',  ( 0.000000000000000000, 0.000000000000000000, 1.000000000000000000 ) ) ;
#323 = ORIENTED_EDGE ( 'NONE', *, *, #337, .T. ) ;
#324 = DIRECTION ( 'NONE',  ( 0.000000000000000000, 0.000000000000000000, 1.000000000000000000 ) ) ;
#325 = AXIS2_PLACEMENT_3D ( 'NONE', #527, #39, #391 ) ;
#326 = VERTEX_POINT ( 'NONE', #171 ) ;
#327 = ORIENTED_EDGE ( 'NONE', *, *, #235, .F. ) ;
#328 = EDGE_CURVE ( 'NONE', #372, #467, #80, .T. ) ;
#329 = EDGE_LOOP ( 'NONE', ( #239, #243, #556, #508 ) ) ;
#330 = ORIENTED_EDGE ( 'NONE', *, *, #40, .F. ) ;
#331 = EDGE_CURVE ( 'NONE', #497, #23, #374, .T. ) ;
#332 = CARTESIAN_POINT ( 'NONE',  ( 0.2000000000000042022, 56.65358983848435059, -10.59999999999383746 ) ) ;
#333 = TOROIDAL_SURFACE ( 'NONE', #413, 10.39999999999386127, 0.4000000000000029643 ) ;
#334 = ORIENTED_EDGE ( 'NONE', *, *, #403, .T. ) ;
#335 = CIRCLE ( 'NONE', #242, 0.4000000000000027978 ) ;
#336 = CARTESIAN_POINT ( 'NONE',  ( 0.2000000000000044242, 56.99999999999823785, 12.80000000000080718 ) ) ;
#337 = EDGE_CURVE ( 'NONE', #497, #326, #448, .T. ) ;
#338 = PRODUCT ( '99688-SI20-20+S9MT2004-142', '99688-SI20-20+S9MT2004-142', '', ( #14 ) ) ;
#339 = LINE ( 'NONE', #342, #232 ) ;
#340 = PRODUCT_DEFINITION_CONTEXT ( 'detailed design', #44, 'design' ) ;
#341 = DIRECTION ( 'NONE',  ( -0.000000000000000000, 1.000000000000000000, -0.000000000000000000 ) ) ;
#342 = CARTESIAN_POINT ( 'NONE',  ( 0.2000000000000028422, 0.000000000000000000, 0.000000000000000000 ) ) ;
#343 =( LENGTH_UNIT ( ) NAMED_UNIT ( * ) SI_UNIT ( .MILLI., .METRE. ) );
#344 = AXIS2_PLACEMENT_3D ( 'NONE', #295, #531, #128 ) ;
#345 = CARTESIAN_POINT ( 'NONE',  ( 0.2000000000000028422, 1000.000000000000000, 0.000000000000000000 ) ) ;
#346 = CARTESIAN_POINT ( 'NONE',  ( 0.2000000000000028422, 17.52786404500056250, 0.000000000000000000 ) ) ;
#347 = FACE_OUTER_BOUND ( 'NONE', #515, .T. ) ;
#348 = CARTESIAN_POINT ( 'NONE',  ( 0.2000000000000028422, 106.9999999999982947, 0.000000000000000000 ) ) ;
#349 = EDGE_CURVE ( 'NONE', #66, #372, #266, .T. ) ;
#350 = DIRECTION ( 'NONE',  ( -0.000000000000000000, 1.000000000000000000, -0.000000000000000000 ) ) ;
#351 = FACE_OUTER_BOUND ( 'NONE', #500, .T. ) ;
#352 = UNCERTAINTY_MEASURE_WITH_UNIT (LENGTH_MEASURE( 1.000000000000000082E-05 ), #274, 'distance_accuracy_value', 'NONE');
#353 = DIRECTION ( 'NONE',  ( -0.000000000000000000, 1.000000000000000000, -0.000000000000000000 ) ) ;
#354 = DIRECTION ( 'NONE',  ( 0.000000000000000000, 0.000000000000000000, 1.000000000000000000 ) ) ;
#355 = CLOSED_SHELL ( 'NONE', ( #440, #193, #60, #79, #264, #429, #164, #395, #89, #26, #555, #471, #368, #107, #148, #495, #260, #379, #511, #539 ) ) ;
#356 = VECTOR ( 'NONE', #76, 1000.000000000000000 ) ;
#357 = EDGE_CURVE ( 'NONE', #104, #377, #53, .T. ) ;
#358 = CARTESIAN_POINT ( 'NONE',  ( 0.2000000000000044520, 56.79999999999819238, -13.00000000000085265 ) ) ;
#359 = ORIENTED_EDGE ( 'NONE', *, *, #280, .F. ) ;
#360 = DIRECTION ( 'NONE',  ( 0.000000000000000000, 0.000000000000000000, 1.000000000000000000 ) ) ;
#361 = DIRECTION ( 'NONE',  ( -0.000000000000000000, 1.000000000000000000, -0.000000000000000000 ) ) ;
#362 = CARTESIAN_POINT ( 'NONE',  ( 0.000000000000000000, 0.000000000000000000, 0.000000000000000000 ) ) ;
#363 = CARTESIAN_POINT ( 'NONE',  ( 0.2000000000000028422, 106.9999999999982379, 0.000000000000000000 ) ) ;
#364 = COLOUR_RGB ( '',0.7921568627450980005, 0.8196078431372548767, 0.9333333333333333481 ) ;
#365 = AXIS2_PLACEMENT_3D ( 'NONE', #8, #141, #319 ) ;
#366 = DIRECTION ( 'NONE',  ( -0.000000000000000000, 1.000000000000000000, -0.000000000000000000 ) ) ;
#367 = ORIENTED_EDGE ( 'NONE', *, *, #313, .T. ) ;
#368 = ADVANCED_FACE ( 'NONE', ( #446, #267 ), #228, .F. ) ;
#369 = CARTESIAN_POINT ( 'NONE',  ( 0.2000000000000028422, 3.443276132897687969, 0.000000000000000000 ) ) ;
#370 = VERTEX_POINT ( 'NONE', #358 ) ;
#371 = DIRECTION ( 'NONE',  ( -0.000000000000000000, 1.000000000000000000, -0.000000000000000000 ) ) ;
#372 = VERTEX_POINT ( 'NONE', #233 ) ;
#373 = MECHANICAL_DESIGN_GEOMETRIC_PRESENTATION_REPRESENTATION (  '', ( #465 ), #147 ) ;
#374 = CIRCLE ( 'NONE', #271, 0.4000000000000027978 ) ;
#375 = EDGE_CURVE ( 'NONE', #470, #207, #335, .T. ) ;
#376 = VERTEX_POINT ( 'NONE', #542 ) ;
#377 = VERTEX_POINT ( 'NONE', #54 ) ;
#378 = ORIENTED_EDGE ( 'NONE', *, *, #447, .T. ) ;
#379 = ADVANCED_FACE ( 'NONE', ( #187 ), #501, .F. ) ;
#380 = VERTEX_POINT ( 'NONE', #145 ) ;
#381 = FACE_OUTER_BOUND ( 'NONE', #109, .T. ) ;
#382 = CIRCLE ( 'NONE', #284, 11.19999999999390816 ) ;
#383 = CARTESIAN_POINT ( 'NONE',  ( 0.2000000000000040357, 106.9999999999981810, 9.599999999999853983 ) ) ;
#384 = DIRECTION ( 'NONE',  ( 0.000000000000000000, 0.000000000000000000, -1.000000000000000000 ) ) ;
#385 = AXIS2_PLACEMENT_3D ( 'NONE', #2, #528, #178 ) ;
#386 = DIRECTION ( 'NONE',  ( 0.000000000000000000, 0.000000000000000000, 1.000000000000000000 ) ) ;
#387 = VECTOR ( 'NONE', #544, 1000.000000000000000 ) ;
#388 = EDGE_CURVE ( 'NONE', #420, #66, #444, .T. ) ;
#389 = CARTESIAN_POINT ( 'NONE',  ( 0.2000000000000028422, 56.99999999999813127, 9.999999999993860911 ) ) ;
#390 = DIRECTION ( 'NONE',  ( 0.000000000000000000, 0.000000000000000000, 1.000000000000000000 ) ) ;
#391 = DIRECTION ( 'NONE',  ( 0.000000000000000000, 0.000000000000000000, 1.000000000000000000 ) ) ;
#392 = FILL_AREA_STYLE ('',( #427 ) ) ;
#393 = CARTESIAN_POINT ( 'NONE',  ( 0.2000000000000028422, 24.23606797747078545, 0.000000000000000000 ) ) ;
#394 = CARTESIAN_POINT ( 'NONE',  ( 0.2000000000000028422, 56.99999999999813127, 11.19999999999390816 ) ) ;
#395 = ADVANCED_FACE ( 'NONE', ( #182 ), #401, .T. ) ;
#396 = DIRECTION ( 'NONE',  ( -0.000000000000000000, 1.000000000000000000, -0.000000000000000000 ) ) ;
#397 = ORIENTED_EDGE ( 'NONE', *, *, #447, .F. ) ;
#398 = VECTOR ( 'NONE', #308, 1000.000000000000000 ) ;
#399 = CARTESIAN_POINT ( 'NONE',  ( 0.2000000000000028422, 56.99999999999813127, 0.000000000000000000 ) ) ;
#400 = UNCERTAINTY_MEASURE_WITH_UNIT (LENGTH_MEASURE( 1.000000000000000082E-05 ), #486, 'distance_accuracy_value', 'NONE');
#401 = CYLINDRICAL_SURFACE ( 'NONE', #365, 13.00000000000085265 ) ;
#402 = CARTESIAN_POINT ( 'NONE',  ( 0.2000000000000040634, 3.443276132897687969, -10.00000000000011369 ) ) ;
#403 = EDGE_CURVE ( 'NONE', #468, #370, #7, .T. ) ;
#404 =( GEOMETRIC_REPRESENTATION_CONTEXT ( 3 ) GLOBAL_UNCERTAINTY_ASSIGNED_CONTEXT ( ( #316 ) ) GLOBAL_UNIT_ASSIGNED_CONTEXT ( ( #296, #174, #533 ) ) REPRESENTATION_CONTEXT ( 'NONE', 'WORKASPACE' ) );
#405 = FILL_AREA_STYLE ('',( #64 ) ) ;
#406 = CONICAL_SURFACE ( 'NONE', #485, 11.19999999999390816, 1.047197551196642262 ) ;
#407 = DIRECTION ( 'NONE',  ( 0.000000000000000000, -1.000000000000000000, 0.000000000000000000 ) ) ;
#408 = ORIENTED_EDGE ( 'NONE', *, *, #211, .T. ) ;
#409 = PRESENTATION_STYLE_ASSIGNMENT (( #498 ) ) ;
#410 = EDGE_CURVE ( 'NONE', #545, #285, #68, .T. ) ;
#411 = EDGE_LOOP ( 'NONE', ( #151, #327, #378, #69 ) ) ;
#412 = ORIENTED_EDGE ( 'NONE', *, *, #375, .F. ) ;
#413 = AXIS2_PLACEMENT_3D ( 'NONE', #29, #472, #523 ) ;
#414 = CIRCLE ( 'NONE', #9, 13.00000000000085265 ) ;
#415 = VECTOR ( 'NONE', #34, 1000.000000000000000 ) ;
#416 = ORIENTED_EDGE ( 'NONE', *, *, #142, .F. ) ;
#417 = ORIENTED_EDGE ( 'NONE', *, *, #21, .T. ) ;
#418 = DIRECTION ( 'NONE',  ( 8.659560562290394175E-17, -0.7071067811918174684, 0.7071067811812775661 ) ) ;
#419 = ORIENTED_EDGE ( 'NONE', *, *, #328, .F. ) ;
#420 = VERTEX_POINT ( 'NONE', #402 ) ;
#421 = DIRECTION ( 'NONE',  ( -0.000000000000000000, 1.000000000000000000, -0.000000000000000000 ) ) ;
#422 = CIRCLE ( 'NONE', #231, 9.599999999999853983 ) ;
#423 = AXIS2_PLACEMENT_3D ( 'NONE', #24, #206, #154 ) ;
#424 = AXIS2_PLACEMENT_3D ( 'NONE', #481, #570, #257 ) ;
#425 = CARTESIAN_POINT ( 'NONE',  ( 0.2000000000000028422, 56.79999999999819238, 0.000000000000000000 ) ) ;
#426 = DIRECTION ( 'NONE',  ( 0.000000000000000000, 0.000000000000000000, 1.000000000000000000 ) ) ;
#427 = FILL_AREA_STYLE_COLOUR ( '', #82 ) ;
#428 = CARTESIAN_POINT ( 'NONE',  ( 0.2000000000000028422, 56.99999999999813127, 11.19999999999390816 ) ) ;
#429 = ADVANCED_FACE ( 'NONE', ( #496 ), #406, .F. ) ;
#430 = DIRECTION ( 'NONE',  ( 0.000000000000000000, -1.000000000000000000, 0.000000000000000000 ) ) ;
#431 = SURFACE_STYLE_FILL_AREA ( #392 ) ;
#432 = DIRECTION ( 'NONE',  ( -0.000000000000000000, 1.000000000000000000, -0.000000000000000000 ) ) ;
#433 = DIRECTION ( 'NONE',  ( -0.000000000000000000, 1.000000000000000000, -0.000000000000000000 ) ) ;
#434 = PRODUCT_DEFINITION ( 'UNKNOWN', '', #453, #340 ) ;
#435 = VECTOR ( 'NONE', #219, 1000.000000000000000 ) ;
#436 = VECTOR ( 'NONE', #11, 1000.000000000000000 ) ;
#437 = FACE_OUTER_BOUND ( 'NONE', #411, .T. ) ;
#438 = LINE ( 'NONE', #43, #435 ) ;
#439 = FILL_AREA_STYLE_COLOUR ( '', #568 ) ;
#440 = ADVANCED_FACE ( 'NONE', ( #443 ), #272, .T. ) ;
#441 = CARTESIAN_POINT ( 'NONE',  ( 0.2000000000000028422, 0.000000000000000000, 0.000000000000000000 ) ) ;
#442 = DIRECTION ( 'NONE',  ( -0.000000000000000000, 1.000000000000000000, -0.000000000000000000 ) ) ;
#443 = FACE_OUTER_BOUND ( 'NONE', #115, .T. ) ;
#444 = CIRCLE ( 'NONE', #318, 10.00000000000011546 ) ;
#445 = DIRECTION ( 'NONE',  ( -0.000000000000000000, 1.000000000000000000, -0.000000000000000000 ) ) ;
#446 = FACE_BOUND ( 'NONE', #20, .T. ) ;
#447 = EDGE_CURVE ( 'NONE', #188, #370, #136, .T. ) ;
#448 = LINE ( 'NONE', #491, #387 ) ;
#449 = ORIENTED_EDGE ( 'NONE', *, *, #460, .F. ) ;
#450 = DIRECTION ( 'NONE',  ( 0.000000000000000000, -0.000000000000000000, -1.000000000000000000 ) ) ;
#451 = EDGE_CURVE ( 'NONE', #470, #497, #305, .T. ) ;
#452 = ORIENTED_EDGE ( 'NONE', *, *, #280, .T. ) ;
#453 = PRODUCT_DEFINITION_FORMATION_WITH_SPECIFIED_SOURCE ( 'ANY', '', #338, .NOT_KNOWN. ) ;
#454 = CIRCLE ( 'NONE', #58, 13.00000000000085265 ) ;
#455 = CIRCLE ( 'NONE', #424, 10.00000000000011546 ) ;
#456 = DIRECTION ( 'NONE',  ( 0.000000000000000000, 0.000000000000000000, 1.000000000000000000 ) ) ;
#457 = EDGE_LOOP ( 'NONE', ( #286, #323, #63, #359 ) ) ;
#458 = FILL_AREA_STYLE ('',( #275 ) ) ;
#459 = ORIENTED_EDGE ( 'NONE', *, *, #337, .F. ) ;
#460 = EDGE_CURVE ( 'NONE', #467, #377, #315, .T. ) ;
#461 = CARTESIAN_POINT ( 'NONE',  ( 0.2000000000000028422, 56.65358983848435059, 0.000000000000000000 ) ) ;
#462 = ORIENTED_EDGE ( 'NONE', *, *, #331, .F. ) ;
#463 = EDGE_LOOP ( 'NONE', ( #504, #55, #146, #552 ) ) ;
#464 = AXIS2_PLACEMENT_3D ( 'NONE', #348, #353, #525 ) ;
#465 = STYLED_ITEM ( 'NONE', ( #563 ), #30 ) ;
#466 = AXIS2_PLACEMENT_3D ( 'NONE', #179, #534, #490 ) ;
#467 = VERTEX_POINT ( 'NONE', #81 ) ;
#468 = VERTEX_POINT ( 'NONE', #252 ) ;
#469 = PRODUCT_DEFINITION_SHAPE ( 'NONE', 'NONE',  #434 ) ;
#470 = VERTEX_POINT ( 'NONE', #389 ) ;
#471 = ADVANCED_FACE ( 'NONE', ( #437 ), #532, .T. ) ;
#472 = DIRECTION ( 'NONE',  ( -0.000000000000000000, 1.000000000000000000, -0.000000000000000000 ) ) ;
#473 = ORIENTED_EDGE ( 'NONE', *, *, #158, .T. ) ;
#474 = DIRECTION ( 'NONE',  ( 0.000000000000000000, 0.000000000000000000, 1.000000000000000000 ) ) ;
#475 = VECTOR ( 'NONE', #227, 1000.000000000000000 ) ;
#476 = PRESENTATION_STYLE_ASSIGNMENT (( #303 ) ) ;
#477 = EDGE_CURVE ( 'NONE', #66, #420, #455, .T. ) ;
#478 = CARTESIAN_POINT ( 'NONE',  ( 0.2000000000000028422, 106.9999999999982947, 0.000000000000000000 ) ) ;
#479 =( NAMED_UNIT ( * ) PLANE_ANGLE_UNIT ( ) SI_UNIT ( $, .RADIAN. ) );
#480 = DIRECTION ( 'NONE',  ( -0.000000000000000000, 1.000000000000000000, -0.000000000000000000 ) ) ;
#481 = CARTESIAN_POINT ( 'NONE',  ( 0.2000000000000028422, 3.443276132897687969, 0.000000000000000000 ) ) ;
#482 = CARTESIAN_POINT ( 'NONE',  ( 0.2000000000000028422, 56.99999999999813127, 0.000000000000000000 ) ) ;
#483 = PRESENTATION_LAYER_ASSIGNMENT (  '', '', ( #177 ) ) ;
#484 = CARTESIAN_POINT ( 'NONE',  ( 0.2000000000000028422, 106.5999999999982037, 0.000000000000000000 ) ) ;
#485 = AXIS2_PLACEMENT_3D ( 'NONE', #190, #4, #322 ) ;
#486 =( LENGTH_UNIT ( ) NAMED_UNIT ( * ) SI_UNIT ( .MILLI., .METRE. ) );
#487 = DIRECTION ( 'NONE',  ( 0.000000000000000000, -1.000000000000000000, 0.000000000000000000 ) ) ;
#488 = DIRECTION ( 'NONE',  ( 0.000000000000000000, 0.000000000000000000, -1.000000000000000000 ) ) ;
#489 = EDGE_LOOP ( 'NONE', ( #240, #334, #180, #449 ) ) ;
#490 = DIRECTION ( 'NONE',  ( 0.000000000000000000, 0.000000000000000000, 1.000000000000000000 ) ) ;
#491 = CARTESIAN_POINT ( 'NONE',  ( 0.2000000000000040634, 106.9999999999982947, -9.999999999993860911 ) ) ;
#492 = AXIS2_PLACEMENT_3D ( 'NONE', #346, #421, #561 ) ;
#493 = CIRCLE ( 'NONE', #510, 9.999999999993860911 ) ;
#494 = PRESENTATION_LAYER_ASSIGNMENT (  '', '', ( #201 ) ) ;
#495 = ADVANCED_FACE ( 'NONE', ( #41 ), #126, .T. ) ;
#496 = FACE_OUTER_BOUND ( 'NONE', #270, .T. ) ;
#497 = VERTEX_POINT ( 'NONE', #251 ) ;
#498 = SURFACE_STYLE_USAGE ( .BOTH. , #103 ) ;
#499 = DIRECTION ( 'NONE',  ( 1.000000000000000000, 0.000000000000000000, 1.224646799147353207E-16 ) ) ;
#500 = EDGE_LOOP ( 'NONE', ( #111, #506, #512, #412 ) ) ;
#501 = PLANE ( 'NONE',  #550 ) ;
#502 = EDGE_LOOP ( 'NONE', ( #535, #560, #551, #105 ) ) ;
#503 = DIRECTION ( 'NONE',  ( 0.000000000000000000, 0.000000000000000000, 1.000000000000000000 ) ) ;
#504 = ORIENTED_EDGE ( 'NONE', *, *, #530, .F. ) ;
#505 = SHAPE_DEFINITION_REPRESENTATION ( #469, #287 ) ;
#506 = ORIENTED_EDGE ( 'NONE', *, *, #331, .T. ) ;
#507 = SURFACE_STYLE_USAGE ( .BOTH. , #17 ) ;
#508 = ORIENTED_EDGE ( 'NONE', *, *, #562, .F. ) ;
#509 = ORIENTED_EDGE ( 'NONE', *, *, #530, .T. ) ;
#510 = AXIS2_PLACEMENT_3D ( 'NONE', #176, #299, #516 ) ;
#511 = ADVANCED_FACE ( 'NONE', ( #218 ), #184, .T. ) ;
#512 = ORIENTED_EDGE ( 'NONE', *, *, #40, .T. ) ;
#513 = ORIENTED_EDGE ( 'NONE', *, *, #248, .T. ) ;
#514 = FACE_OUTER_BOUND ( 'NONE', #15, .T. ) ;
#515 = EDGE_LOOP ( 'NONE', ( #98, #13, #513, #408 ) ) ;
#516 = DIRECTION ( 'NONE',  ( 0.000000000000000000, 0.000000000000000000, 1.000000000000000000 ) ) ;
#517 = EDGE_CURVE ( 'NONE', #104, #188, #156, .T. ) ;
#518 =( GEOMETRIC_REPRESENTATION_CONTEXT ( 3 ) GLOBAL_UNCERTAINTY_ASSIGNED_CONTEXT ( ( #352 ) ) GLOBAL_UNIT_ASSIGNED_CONTEXT ( ( #274, #6, #230 ) ) REPRESENTATION_CONTEXT ( 'NONE', 'WORKASPACE' ) );
#519 = CYLINDRICAL_SURFACE ( 'NONE', #91, 9.999999999993860911 ) ;
#520 = AXIS2_PLACEMENT_3D ( 'NONE', #37, #160, #298 ) ;
#521 = CARTESIAN_POINT ( 'NONE',  ( 0.2000000000000028422, 56.65358983848435059, 10.59999999999383746 ) ) ;
#522 = SURFACE_SIDE_STYLE ('',( #431 ) ) ;
#523 = DIRECTION ( 'NONE',  ( 0.000000000000000000, 0.000000000000000000, 1.000000000000000000 ) ) ;
#524 = FILL_AREA_STYLE ('',( #439 ) ) ;
#525 = DIRECTION ( 'NONE',  ( 0.000000000000000000, 0.000000000000000000, 1.000000000000000000 ) ) ;
#526 = FACE_OUTER_BOUND ( 'NONE', #321, .T. ) ;
#527 = CARTESIAN_POINT ( 'NONE',  ( 0.2000000000000028422, 1000.000000000000000, 0.000000000000000000 ) ) ;
#528 = DIRECTION ( 'NONE',  ( -0.000000000000000000, 1.000000000000000000, -0.000000000000000000 ) ) ;
#529 = CARTESIAN_POINT ( 'NONE',  ( 0.2000000000000028422, 56.79999999999819238, 0.000000000000000000 ) ) ;
#530 = EDGE_CURVE ( 'NONE', #285, #545, #422, .T. ) ;
#531 = DIRECTION ( 'NONE',  ( -0.000000000000000000, 1.000000000000000000, -0.000000000000000000 ) ) ;
#532 = CONICAL_SURFACE ( 'NONE', #102, 13.00000000000085265, 0.7853981633974439491 ) ;
#533 =( NAMED_UNIT ( * ) SI_UNIT ( $, .STERADIAN. ) SOLID_ANGLE_UNIT ( ) );
#534 = DIRECTION ( 'NONE',  ( -0.000000000000000000, 1.000000000000000000, -0.000000000000000000 ) ) ;
#535 = ORIENTED_EDGE ( 'NONE', *, *, #403, .F. ) ;
#536 = CARTESIAN_POINT ( 'NONE',  ( 0.2000000000000028422, 56.99999999999813127, 0.000000000000000000 ) ) ;
#537 = DIRECTION ( 'NONE',  ( 0.000000000000000000, 0.000000000000000000, 1.000000000000000000 ) ) ;
#538 = EDGE_LOOP ( 'NONE', ( #159, #241, #273 ) ) ;
#539 = ADVANCED_FACE ( 'NONE', ( #83 ), #314, .T. ) ;
#540 = DIRECTION ( 'NONE',  ( 1.000000000000000000, 0.000000000000000000, 0.000000000000000000 ) ) ;
#541 = PRESENTATION_LAYER_ASSIGNMENT (  '', '', ( #198 ) ) ;
#542 = CARTESIAN_POINT ( 'NONE',  ( 0.2000000000000042299, 56.99999999999813127, -11.19999999999390816 ) ) ;
#543 = VECTOR ( 'NONE', #217, 1000.000000000000114 ) ;
#544 = DIRECTION ( 'NONE',  ( -0.000000000000000000, 1.000000000000000000, -0.000000000000000000 ) ) ;
#545 = VERTEX_POINT ( 'NONE', #52 ) ;
#546 = EDGE_CURVE ( 'NONE', #376, #112, #557, .T. ) ;
#547 = DIRECTION ( 'NONE',  ( 0.000000000000000000, -1.000000000000000000, 0.000000000000000000 ) ) ;
#548 = ORIENTED_EDGE ( 'NONE', *, *, #517, .F. ) ;
#549 = AXIS2_PLACEMENT_3D ( 'NONE', #461, #249, #247 ) ;
#550 = AXIS2_PLACEMENT_3D ( 'NONE', #363, #407, #311 ) ;
#551 = ORIENTED_EDGE ( 'NONE', *, *, #460, .T. ) ;
#552 = ORIENTED_EDGE ( 'NONE', *, *, #248, .F. ) ;
#553 = VERTEX_POINT ( 'NONE', #226 ) ;
#554 = ORIENTED_EDGE ( 'NONE', *, *, #288, .T. ) ;
#555 = ADVANCED_FACE ( 'NONE', ( #169 ), #297, .T. ) ;
#556 = ORIENTED_EDGE ( 'NONE', *, *, #349, .T. ) ;
#557 = CIRCLE ( 'NONE', #290, 11.19999999999390816 ) ;
#558 = VECTOR ( 'NONE', #418, 1000.000000000000000 ) ;
#559 = VECTOR ( 'NONE', #225, 1000.000000000000000 ) ;
#560 = ORIENTED_EDGE ( 'NONE', *, *, #96, .T. ) ;
#561 = DIRECTION ( 'NONE',  ( 0.000000000000000000, 0.000000000000000000, 1.000000000000000000 ) ) ;
#562 = EDGE_CURVE ( 'NONE', #553, #372, #49, .T. ) ;
#563 = PRESENTATION_STYLE_ASSIGNMENT (( #507 ) ) ;
#564 = SURFACE_STYLE_FILL_AREA ( #524 ) ;
#565 = CARTESIAN_POINT ( 'NONE',  ( 0.2000000000000028422, 56.79999999999819238, 0.000000000000000000 ) ) ;
#566 = DIRECTION ( 'NONE',  ( 1.157926297142032611E-16, 0.3255681544572409103, -0.9455185755992878693 ) ) ;
#567 = CIRCLE ( 'NONE', #38, 13.00000000000085265 ) ;
#568 = COLOUR_RGB ( '',1.000000000000000000, 0.000000000000000000, 0.000000000000000000 ) ;
#569 = CARTESIAN_POINT ( 'NONE',  ( 0.2000000000000022593, 56.99999999999814548, 0.000000000000000000 ) ) ;
#570 = DIRECTION ( 'NONE',  ( -0.000000000000000000, 1.000000000000000000, -0.000000000000000000 ) ) ;
#571 = DIRECTION ( 'NONE',  ( 0.000000000000000000, 0.4999999999999614197, 0.8660254037844609121 ) ) ;
#572 = LINE ( 'NONE', #172, #119 ) ;
#573 = EDGE_CURVE ( 'NONE', #207, #112, #306, .T. ) ;
#574 = DIRECTION ( 'NONE',  ( -0.000000000000000000, 1.000000000000000000, -0.000000000000000000 ) ) ;
#575 = EDGE_LOOP ( 'NONE', ( #204, #191, #279 ) ) ;
#576 = DIRECTION ( 'NONE',  ( -0.000000000000000000, 1.000000000000000000, -0.000000000000000000 ) ) ;
ENDSEC;
END-ISO-10303-21;
