ISO-10303-21;
HEADER;
FILE_DESCRIPTION (( 'STEP AP214' ),
    '1' );
FILE_NAME ('99688-SI06-06+S9MT06T1-090.STEP',
    '2023-07-20T00:48:10',
    ( '' ),
    ( '' ),
    'SwSTEP 2.0',
    'SolidWorks 2020',
    '' );
FILE_SCHEMA (( 'AUTOMOTIVE_DESIGN' ));
ENDSEC;

DATA;
#1 = MECHANICAL_DESIGN_GEOMETRIC_PRESENTATION_REPRESENTATION (  '', ( #269 ), #592 ) ;
#2 = CARTESIAN_POINT ( 'NONE',  ( 3.765876499528530985E-13, 48.50000000000056843, 0.000000000000000000 ) ) ;
#3 = CIRCLE ( 'NONE', #28, 2.999999999999538147 ) ;
#4 = CARTESIAN_POINT ( 'NONE',  ( 3.765876499528530985E-13, 48.50000000000055422, 4.000000000000010658 ) ) ;
#5 = CARTESIAN_POINT ( 'NONE',  ( 3.765876499528530985E-13, 5.900000000002222578, 0.000000000000000000 ) ) ;
#6 = CARTESIAN_POINT ( 'NONE',  ( 3.765876499528530985E-13, 48.50000000000056843, 0.000000000000000000 ) ) ;
#7 = CONICAL_SURFACE ( 'NONE', #139, 3.000000000000021760, 0.7853981633974277399 ) ;
#8 =( GEOMETRIC_REPRESENTATION_CONTEXT ( 3 ) GLOBAL_UNCERTAINTY_ASSIGNED_CONTEXT ( ( #306 ) ) GLOBAL_UNIT_ASSIGNED_CONTEXT ( ( #37, #619, #574 ) ) REPRESENTATION_CONTEXT ( 'NONE', 'WORKASPACE' ) );
#9 = CARTESIAN_POINT ( 'NONE',  ( 3.765876499528530985E-13, 1000.000000000000227, 0.000000000000000000 ) ) ;
#10 = EDGE_CURVE ( 'NONE', #297, #505, #153, .T. ) ;
#11 = STYLED_ITEM ( 'NONE', ( #478 ), #449 ) ;
#12 = CIRCLE ( 'NONE', #500, 2.999999999997748024 ) ;
#13 = AXIS2_PLACEMENT_3D ( 'NONE', #325, #633, #636 ) ;
#14 = ADVANCED_FACE ( 'NONE', ( #236 ), #98, .T. ) ;
#15 = EDGE_LOOP ( 'NONE', ( #92, #587 ) ) ;
#16 = PRESENTATION_STYLE_ASSIGNMENT (( #526 ) ) ;
#17 = APPLICATION_CONTEXT ( 'automotive_design' ) ;
#18 = DIRECTION ( 'NONE',  ( 0.000000000000000000, 0.000000000000000000, -1.000000000000000000 ) ) ;
#19 = FILL_AREA_STYLE ('',( #477 ) ) ;
#20 = ORIENTED_EDGE ( 'NONE', *, *, #586, .F. ) ;
#21 = CARTESIAN_POINT ( 'NONE',  ( 3.770713854385163415E-13, 21.50000000000054001, 3.900000000000012790 ) ) ;
#22 = SURFACE_STYLE_FILL_AREA ( #69 ) ;
#23 = DIRECTION ( 'NONE',  ( 0.000000000000000000, 0.000000000000000000, 1.000000000000000000 ) ) ;
#24 = ADVANCED_FACE ( 'NONE', ( #296 ), #641, .T. ) ;
#25 = DIRECTION ( 'NONE',  ( 0.000000000000000000, 0.000000000000000000, 1.000000000000000000 ) ) ;
#26 = AXIS2_PLACEMENT_3D ( 'NONE', #137, #186, #223 ) ;
#27 = SURFACE_STYLE_FILL_AREA ( #19 ) ;
#28 = AXIS2_PLACEMENT_3D ( 'NONE', #157, #301, #57 ) ;
#29 = SURFACE_SIDE_STYLE ('',( #263 ) ) ;
#30 = VERTEX_POINT ( 'NONE', #155 ) ;
#31 = STYLED_ITEM ( 'NONE', ( #44 ), #265 ) ;
#32 = LINE ( 'NONE', #287, #415 ) ;
#33 = APPLICATION_PROTOCOL_DEFINITION ( 'draft international standard', 'automotive_design', 1998, #17 ) ;
#34 = ORIENTED_EDGE ( 'NONE', *, *, #253, .F. ) ;
#35 = DIRECTION ( 'NONE',  ( 0.000000000000000000, 0.000000000000000000, 1.000000000000000000 ) ) ;
#36 = ORIENTED_EDGE ( 'NONE', *, *, #434, .T. ) ;
#37 =( LENGTH_UNIT ( ) NAMED_UNIT ( * ) SI_UNIT ( .MILLI., .METRE. ) );
#38 = VERTEX_POINT ( 'NONE', #597 ) ;
#39 = CARTESIAN_POINT ( 'NONE',  ( 3.765876499528530985E-13, 21.39607695154640510, 3.180000000000007709 ) ) ;
#40 = DIRECTION ( 'NONE',  ( 0.000000000000000000, 0.000000000000000000, 1.000000000000000000 ) ) ;
#41 = AXIS2_PLACEMENT_3D ( 'NONE', #244, #200, #202 ) ;
#42 = PRODUCT_CONTEXT ( 'NONE', #17, 'mechanical' ) ;
#43 = VERTEX_POINT ( 'NONE', #147 ) ;
#44 = PRESENTATION_STYLE_ASSIGNMENT (( #533 ) ) ;
#45 = ORIENTED_EDGE ( 'NONE', *, *, #253, .T. ) ;
#46 = DIRECTION ( 'NONE',  ( 1.000000000000000000, 0.000000000000000000, 0.000000000000000000 ) ) ;
#47 = VERTEX_POINT ( 'NONE', #351 ) ;
#48 = DIRECTION ( 'NONE',  ( -0.000000000000000000, 1.000000000000000000, -0.000000000000000000 ) ) ;
#49 = EDGE_LOOP ( 'NONE', ( #286, #342, #479, #383 ) ) ;
#50 = DIRECTION ( 'NONE',  ( 0.000000000000000000, 0.000000000000000000, -1.000000000000000000 ) ) ;
#51 = ORIENTED_EDGE ( 'NONE', *, *, #368, .F. ) ;
#52 = EDGE_CURVE ( 'NONE', #460, #30, #180, .T. ) ;
#53 = EDGE_CURVE ( 'NONE', #184, #80, #459, .T. ) ;
#54 = COLOUR_RGB ( '',1.000000000000000000, 0.000000000000000000, 0.000000000000000000 ) ;
#55 = AXIS2_PLACEMENT_3D ( 'NONE', #272, #181, #580 ) ;
#56 = AXIS2_PLACEMENT_3D ( 'NONE', #512, #159, #354 ) ;
#57 = DIRECTION ( 'NONE',  ( 0.000000000000000000, 0.000000000000000000, 1.000000000000000000 ) ) ;
#58 = SURFACE_STYLE_FILL_AREA ( #656 ) ;
#59 = CARTESIAN_POINT ( 'NONE',  ( 3.769991312773665945E-13, 21.50000000000054001, -3.359999999999992326 ) ) ;
#60 = UNCERTAINTY_MEASURE_WITH_UNIT (LENGTH_MEASURE( 1.000000000000000082E-05 ), #295, 'distance_accuracy_value', 'NONE');
#61 = CARTESIAN_POINT ( 'NONE',  ( 3.765876499528530985E-13, 5.900000000002222578, 2.999999999997748024 ) ) ;
#62 = AXIS2_PLACEMENT_3D ( 'NONE', #408, #82, #626 ) ;
#63 = AXIS2_PLACEMENT_3D ( 'NONE', #166, #163, #506 ) ;
#64 = VECTOR ( 'NONE', #165, 1000.000000000000000 ) ;
#65 = CARTESIAN_POINT ( 'NONE',  ( 3.765876499528530985E-13, 21.40000000000054570, 0.000000000000000000 ) ) ;
#66 = FACE_OUTER_BOUND ( 'NONE', #436, .T. ) ;
#67 = EDGE_CURVE ( 'NONE', #355, #649, #12, .T. ) ;
#68 = EDGE_CURVE ( 'NONE', #199, #104, #651, .T. ) ;
#69 = FILL_AREA_STYLE ('',( #484 ) ) ;
#70 = EDGE_LOOP ( 'NONE', ( #51, #446 ) ) ;
#71 = CARTESIAN_POINT ( 'NONE',  ( 3.765876499528530985E-13, 8.708218385331381484, 0.000000000000000000 ) ) ;
#72 = AXIS2_PLACEMENT_3D ( 'NONE', #6, #364, #215 ) ;
#73 = FACE_OUTER_BOUND ( 'NONE', #298, .T. ) ;
#74 = LINE ( 'NONE', #475, #440 ) ;
#75 = ORIENTED_EDGE ( 'NONE', *, *, #353, .T. ) ;
#76 = FILL_AREA_STYLE ('',( #264 ) ) ;
#77 = FACE_OUTER_BOUND ( 'NONE', #15, .T. ) ;
#78 = DIRECTION ( 'NONE',  ( -0.000000000000000000, 1.000000000000000000, -0.000000000000000000 ) ) ;
#79 = CARTESIAN_POINT ( 'NONE',  ( 3.765876499528530985E-13, 48.30000000000049454, -3.000000000000021760 ) ) ;
#80 = VERTEX_POINT ( 'NONE', #59 ) ;
#81 = CARTESIAN_POINT ( 'NONE',  ( 3.765876499528530985E-13, 48.30000000000049454, 0.000000000000000000 ) ) ;
#82 = DIRECTION ( 'NONE',  ( 0.000000000000000000, -1.000000000000000000, 0.000000000000000000 ) ) ;
#83 = CIRCLE ( 'NONE', #55, 3.180000000000007709 ) ;
#84 = SURFACE_STYLE_USAGE ( .BOTH. , #227 ) ;
#85 = ORIENTED_EDGE ( 'NONE', *, *, #68, .F. ) ;
#86 = CONICAL_SURFACE ( 'NONE', #589, 0.5999999999996745714, 0.7853981633973954324 ) ;
#87 = DIRECTION ( 'NONE',  ( -0.000000000000000000, 1.000000000000000000, -0.000000000000000000 ) ) ;
#88 = DIRECTION ( 'NONE',  ( 0.000000000000000000, 0.000000000000000000, 1.000000000000000000 ) ) ;
#89 = CARTESIAN_POINT ( 'NONE',  ( 0.000000000000000000, 0.000000000000000000, 0.000000000000000000 ) ) ;
#90 = ORIENTED_EDGE ( 'NONE', *, *, #539, .F. ) ;
#91 = DIRECTION ( 'NONE',  ( 0.000000000000000000, 0.000000000000000000, 1.000000000000000000 ) ) ;
#92 = ORIENTED_EDGE ( 'NONE', *, *, #259, .T. ) ;
#93 = ADVANCED_FACE ( 'NONE', ( #607 ), #427, .F. ) ;
#94 = EDGE_CURVE ( 'NONE', #505, #392, #256, .T. ) ;
#95 = SHAPE_DEFINITION_REPRESENTATION ( #562, #449 ) ;
#96 = ORIENTED_EDGE ( 'NONE', *, *, #168, .F. ) ;
#97 = SURFACE_STYLE_FILL_AREA ( #292 ) ;
#98 = CYLINDRICAL_SURFACE ( 'NONE', #403, 2.999999999998642863 ) ;
#99 = AXIS2_PLACEMENT_3D ( 'NONE', #299, #48, #156 ) ;
#100 = ORIENTED_EDGE ( 'NONE', *, *, #622, .T. ) ;
#101 = CARTESIAN_POINT ( 'NONE',  ( 3.764349942869671395E-13, 21.50000000000054001, 0.000000000000000000 ) ) ;
#102 = ORIENTED_EDGE ( 'NONE', *, *, #281, .F. ) ;
#103 = ADVANCED_FACE ( 'NONE', ( #401 ), #613, .T. ) ;
#104 = VERTEX_POINT ( 'NONE', #456 ) ;
#105 = EDGE_CURVE ( 'NONE', #336, #392, #3, .T. ) ;
#106 = MECHANICAL_DESIGN_GEOMETRIC_PRESENTATION_REPRESENTATION (  '', ( #410 ), #556 ) ;
#107 = AXIS2_PLACEMENT_3D ( 'NONE', #316, #618, #173 ) ;
#108 = AXIS2_PLACEMENT_3D ( 'NONE', #573, #319, #18 ) ;
#109 = AXIS2_PLACEMENT_3D ( 'NONE', #260, #359, #404 ) ;
#110 = FACE_OUTER_BOUND ( 'NONE', #201, .T. ) ;
#111 = AXIS2_PLACEMENT_3D ( 'NONE', #172, #566, #419 ) ;
#112 = ORIENTED_EDGE ( 'NONE', *, *, #367, .F. ) ;
#113 = UNCERTAINTY_MEASURE_WITH_UNIT (LENGTH_MEASURE( 1.000000000000000082E-05 ), #334, 'distance_accuracy_value', 'NONE');
#114 = DIRECTION ( 'NONE',  ( 0.000000000000000000, -1.000000000000000000, 0.000000000000000000 ) ) ;
#115 = FILL_AREA_STYLE_COLOUR ( '', #600 ) ;
#116 = DIRECTION ( 'NONE',  ( 0.000000000000000000, 0.000000000000000000, 1.000000000000000000 ) ) ;
#117 = COLOUR_RGB ( '',1.000000000000000000, 0.000000000000000000, 0.000000000000000000 ) ;
#118 = STYLED_ITEM ( 'NONE', ( #564 ), #141 ) ;
#119 = PRODUCT ( '99688-SI06-06+S9MT06T1-090', '99688-SI06-06+S9MT06T1-090', '', ( #42 ) ) ;
#120 = EDGE_CURVE ( 'NONE', #38, #637, #516, .T. ) ;
#121 = DIRECTION ( 'NONE',  ( -0.000000000000000000, 1.000000000000000000, -0.000000000000000000 ) ) ;
#122 = DIRECTION ( 'NONE',  ( 0.000000000000000000, 0.000000000000000000, 1.000000000000000000 ) ) ;
#123 = CONICAL_SURFACE ( 'NONE', #99, 3.359999999999992326, 1.047197551196549004 ) ;
#124 = CARTESIAN_POINT ( 'NONE',  ( 3.769550439925970263E-13, 5.900000000002222578, -2.999999999997748024 ) ) ;
#125 =( NAMED_UNIT ( * ) SI_UNIT ( $, .STERADIAN. ) SOLID_ANGLE_UNIT ( ) );
#126 = CARTESIAN_POINT ( 'NONE',  ( 3.770775086725120391E-13, 21.40000000000054570, -4.000000000000000000 ) ) ;
#127 = DIRECTION ( 'NONE',  ( -0.000000000000000000, 1.000000000000000000, -0.000000000000000000 ) ) ;
#128 = EDGE_LOOP ( 'NONE', ( #628, #598, #341, #445 ) ) ;
#129 = CARTESIAN_POINT ( 'NONE',  ( 3.765876499528530985E-13, 48.30000000000049454, 0.000000000000000000 ) ) ;
#130 =( NAMED_UNIT ( * ) SI_UNIT ( $, .STERADIAN. ) SOLID_ANGLE_UNIT ( ) );
#131 = LINE ( 'NONE', #124, #396 ) ;
#132 = ORIENTED_EDGE ( 'NONE', *, *, #206, .F. ) ;
#133 = CARTESIAN_POINT ( 'NONE',  ( 3.765876499528530985E-13, 21.40000000000054570, 4.000000000000000000 ) ) ;
#134 = ORIENTED_EDGE ( 'NONE', *, *, #168, .T. ) ;
#135 = CIRCLE ( 'NONE', #270, 2.999999999997748024 ) ;
#136 = AXIS2_PLACEMENT_3D ( 'NONE', #591, #340, #549 ) ;
#137 = CARTESIAN_POINT ( 'NONE',  ( 3.765876499528530985E-13, 48.50000000000056133, 0.000000000000000000 ) ) ;
#138 = ORIENTED_EDGE ( 'NONE', *, *, #605, .T. ) ;
#139 = AXIS2_PLACEMENT_3D ( 'NONE', #209, #114, #614 ) ;
#140 = CARTESIAN_POINT ( 'NONE',  ( 3.766611287608019245E-13, 0.3464101615138007184, -0.5999999999996745714 ) ) ;
#141 = ADVANCED_FACE ( 'NONE', ( #110 ), #164, .T. ) ;
#142 = MANIFOLD_SOLID_BREP ( '±ÛÂà1', #593 ) ;
#143 = EDGE_CURVE ( 'NONE', #80, #468, #365, .T. ) ;
#144 = CARTESIAN_POINT ( 'NONE',  ( 3.765876499528530985E-13, 48.50000000000055422, 0.000000000000000000 ) ) ;
#145 = ORIENTED_EDGE ( 'NONE', *, *, #510, .F. ) ;
#146 = DIRECTION ( 'NONE',  ( 0.000000000000000000, 0.000000000000000000, 1.000000000000000000 ) ) ;
#147 = CARTESIAN_POINT ( 'NONE',  ( 3.769550439925972787E-13, 48.30000000000049454, 3.000000000000021760 ) ) ;
#148 = ORIENTED_EDGE ( 'NONE', *, *, #302, .T. ) ;
#149 = ORIENTED_EDGE ( 'NONE', *, *, #539, .T. ) ;
#150 = EDGE_CURVE ( 'NONE', #47, #594, #612, .T. ) ;
#151 = TOROIDAL_SURFACE ( 'NONE', #356, 3.120000000000014317, 0.1199999999999995237 ) ;
#152 = CARTESIAN_POINT ( 'NONE',  ( 3.765876499528530985E-13, 2.746410161513917814, 2.999999999999538147 ) ) ;
#153 = CIRCLE ( 'NONE', #525, 0.5999999999996745714 ) ;
#154 = VECTOR ( 'NONE', #537, 1000.000000000000000 ) ;
#155 = CARTESIAN_POINT ( 'NONE',  ( 3.768134101479036360E-13, 21.50000000000054001, -3.000000000000014211 ) ) ;
#156 = DIRECTION ( 'NONE',  ( 0.000000000000000000, 0.000000000000000000, 1.000000000000000000 ) ) ;
#157 = CARTESIAN_POINT ( 'NONE',  ( 3.765876499528530985E-13, 2.746410161513917814, 0.000000000000000000 ) ) ;
#158 = UNCERTAINTY_MEASURE_WITH_UNIT (LENGTH_MEASURE( 1.000000000000000082E-05 ), #570, 'distance_accuracy_value', 'NONE');
#159 = DIRECTION ( 'NONE',  ( -0.000000000000000000, 1.000000000000000000, -0.000000000000000000 ) ) ;
#160 = ORIENTED_EDGE ( 'NONE', *, *, #353, .F. ) ;
#161 = AXIS2_PLACEMENT_3D ( 'NONE', #472, #121, #474 ) ;
#162 = COLOUR_RGB ( '',1.000000000000000000, 0.000000000000000000, 0.000000000000000000 ) ;
#163 = DIRECTION ( 'NONE',  ( -0.000000000000000000, 1.000000000000000000, -0.000000000000000000 ) ) ;
#164 = CONICAL_SURFACE ( 'NONE', #218, 1732.050807568951313, 1.047197551196616283 ) ;
#165 = DIRECTION ( 'NONE',  ( -0.000000000000000000, 1.000000000000000000, -0.000000000000000000 ) ) ;
#166 = CARTESIAN_POINT ( 'NONE',  ( 3.765876499528530985E-13, 21.50000000000054001, 0.000000000000000000 ) ) ;
#167 = EDGE_CURVE ( 'NONE', #104, #594, #473, .T. ) ;
#168 = EDGE_CURVE ( 'NONE', #499, #388, #315, .T. ) ;
#169 = ORIENTED_EDGE ( 'NONE', *, *, #509, .T. ) ;
#170 = LINE ( 'NONE', #61, #467 ) ;
#171 = CARTESIAN_POINT ( 'NONE',  ( 3.765876499528530985E-13, 48.50000000000055422, 2.999999999998642863 ) ) ;
#172 = CARTESIAN_POINT ( 'NONE',  ( 3.764349942869671395E-13, 21.50000000000054001, 3.120000000000014317 ) ) ;
#173 = DIRECTION ( 'NONE',  ( 0.000000000000000000, 0.000000000000000000, 1.000000000000000000 ) ) ;
#174 = DIRECTION ( 'NONE',  ( 1.060575238724918255E-16, 0.4999999999999839573, -0.8660254037844479225 ) ) ;
#175 = CARTESIAN_POINT ( 'NONE',  ( 3.765876499528530985E-13, 48.30000000000049454, 0.000000000000000000 ) ) ;
#176 = DIRECTION ( 'NONE',  ( 0.000000000000000000, -0.7071067811865621167, -0.7071067811865330288 ) ) ;
#177 = CARTESIAN_POINT ( 'NONE',  ( 3.769881094561742782E-13, 21.39607695154640510, -3.180000000000007709 ) ) ;
#178 = CIRCLE ( 'NONE', #497, 0.1199999999999994404 ) ;
#179 = COLOUR_RGB ( '',0.7921568627450980005, 0.8196078431372548767, 0.9333333333333333481 ) ;
#180 = CIRCLE ( 'NONE', #63, 3.000000000000014211 ) ;
#181 = DIRECTION ( 'NONE',  ( -0.000000000000000000, 1.000000000000000000, -0.000000000000000000 ) ) ;
#182 = SURFACE_SIDE_STYLE ('',( #22 ) ) ;
#183 = FACE_OUTER_BOUND ( 'NONE', #277, .T. ) ;
#184 = VERTEX_POINT ( 'NONE', #177 ) ;
#185 = DIRECTION ( 'NONE',  ( 0.000000000000000000, 0.5000000000000421885, 0.8660254037844143937 ) ) ;
#186 = DIRECTION ( 'NONE',  ( 0.000000000000000000, -1.000000000000000000, 0.000000000000000000 ) ) ;
#187 = ORIENTED_EDGE ( 'NONE', *, *, #252, .T. ) ;
#188 = DIRECTION ( 'NONE',  ( -0.000000000000000000, 1.000000000000000000, -0.000000000000000000 ) ) ;
#189 = EDGE_CURVE ( 'NONE', #460, #339, #194, .T. ) ;
#190 = DIRECTION ( 'NONE',  ( 0.000000000000000000, 0.000000000000000000, 1.000000000000000000 ) ) ;
#191 = CIRCLE ( 'NONE', #72, 2.799999999999954969 ) ;
#192 = VECTOR ( 'NONE', #176, 1000.000000000000000 ) ;
#193 = ORIENTED_EDGE ( 'NONE', *, *, #490, .F. ) ;
#194 = CIRCLE ( 'NONE', #111, 0.1199999999999994404 ) ;
#195 = DIRECTION ( 'NONE',  ( -0.000000000000000000, 1.000000000000000000, -0.000000000000000000 ) ) ;
#196 = DIRECTION ( 'NONE',  ( -0.000000000000000000, 1.000000000000000000, -0.000000000000000000 ) ) ;
#197 = EDGE_LOOP ( 'NONE', ( #560, #532, #347, #102 ) ) ;
#198 = DIRECTION ( 'NONE',  ( 8.659560562354708526E-17, -0.7071067811865658914, 0.7071067811865292541 ) ) ;
#199 = VERTEX_POINT ( 'NONE', #21 ) ;
#200 = DIRECTION ( 'NONE',  ( -0.000000000000000000, 1.000000000000000000, -0.000000000000000000 ) ) ;
#201 = EDGE_LOOP ( 'NONE', ( #243, #501, #346 ) ) ;
#202 = DIRECTION ( 'NONE',  ( 0.000000000000000000, 0.000000000000000000, 1.000000000000000000 ) ) ;
#203 = ORIENTED_EDGE ( 'NONE', *, *, #52, .F. ) ;
#204 = ORIENTED_EDGE ( 'NONE', *, *, #317, .T. ) ;
#205 = ADVANCED_FACE ( 'NONE', ( #66 ), #7, .T. ) ;
#206 = EDGE_CURVE ( 'NONE', #392, #336, #527, .T. ) ;
#207 = PRESENTATION_LAYER_ASSIGNMENT (  '', '', ( #452 ) ) ;
#208 = SURFACE_SIDE_STYLE ('',( #58 ) ) ;
#209 = CARTESIAN_POINT ( 'NONE',  ( 3.765876499528530985E-13, 48.30000000000049454, 0.000000000000000000 ) ) ;
#210 = CARTESIAN_POINT ( 'NONE',  ( 3.765876499528530985E-13, 48.50000000000055422, 0.000000000000000000 ) ) ;
#211 = EDGE_CURVE ( 'NONE', #47, #499, #357, .T. ) ;
#212 = DIRECTION ( 'NONE',  ( -0.000000000000000000, 1.000000000000000000, -0.000000000000000000 ) ) ;
#213 = CARTESIAN_POINT ( 'NONE',  ( 3.769550439925972787E-13, 48.30000000000049454, 3.000000000000021760 ) ) ;
#214 = UNCERTAINTY_MEASURE_WITH_UNIT (LENGTH_MEASURE( 1.000000000000000082E-05 ), #571, 'distance_accuracy_value', 'NONE');
#215 = DIRECTION ( 'NONE',  ( 0.000000000000000000, 0.000000000000000000, 1.000000000000000000 ) ) ;
#216 = CIRCLE ( 'NONE', #569, 3.900000000000012790 ) ;
#217 = VECTOR ( 'NONE', #585, 1000.000000000000000 ) ;
#218 = AXIS2_PLACEMENT_3D ( 'NONE', #572, #258, #309 ) ;
#219 = FACE_OUTER_BOUND ( 'NONE', #643, .T. ) ;
#220 = EDGE_LOOP ( 'NONE', ( #491, #583, #134, #20 ) ) ;
#221 = CARTESIAN_POINT ( 'NONE',  ( 3.765876499528530985E-13, 21.50000000000054001, 0.000000000000000000 ) ) ;
#222 = CARTESIAN_POINT ( 'NONE',  ( 3.765876499528530985E-13, 48.50000000000056843, -2.799999999999954969 ) ) ;
#223 = DIRECTION ( 'NONE',  ( 0.000000000000000000, -0.000000000000000000, -1.000000000000000000 ) ) ;
#224 = CARTESIAN_POINT ( 'NONE',  ( 3.765876499528530985E-13, 21.50000000000054001, 3.359999999999992326 ) ) ;
#225 = VECTOR ( 'NONE', #374, 1000.000000000000000 ) ;
#226 = AXIS2_PLACEMENT_3D ( 'NONE', #2, #361, #314 ) ;
#227 = SURFACE_SIDE_STYLE ('',( #27 ) ) ;
#228 = EDGE_LOOP ( 'NONE', ( #599, #242, #544, #261 ) ) ;
#229 = EDGE_CURVE ( 'NONE', #355, #499, #170, .T. ) ;
#230 =( NAMED_UNIT ( * ) SI_UNIT ( $, .STERADIAN. ) SOLID_ANGLE_UNIT ( ) );
#231 = ORIENTED_EDGE ( 'NONE', *, *, #502, .T. ) ;
#232 = DIRECTION ( 'NONE',  ( -0.000000000000000000, 1.000000000000000000, -0.000000000000000000 ) ) ;
#233 = EDGE_LOOP ( 'NONE', ( #552, #536, #493, #464 ) ) ;
#234 = ORIENTED_EDGE ( 'NONE', *, *, #281, .T. ) ;
#235 = DIRECTION ( 'NONE',  ( -0.000000000000000000, 1.000000000000000000, -0.000000000000000000 ) ) ;
#236 = FACE_OUTER_BOUND ( 'NONE', #128, .T. ) ;
#237 = CIRCLE ( 'NONE', #577, 3.180000000000007709 ) ;
#238 = PRODUCT_DEFINITION_FORMATION_WITH_SPECIFIED_SOURCE ( 'ANY', '', #119, .NOT_KNOWN. ) ;
#239 = ORIENTED_EDGE ( 'NONE', *, *, #318, .F. ) ;
#240 = COLOUR_RGB ( '',0.7921568627450980005, 0.8196078431372548767, 0.9333333333333333481 ) ;
#241 = CARTESIAN_POINT ( 'NONE',  ( 3.765876499528530985E-13, 21.50000000000054001, 0.000000000000000000 ) ) ;
#242 = ORIENTED_EDGE ( 'NONE', *, *, #10, .T. ) ;
#243 = ORIENTED_EDGE ( 'NONE', *, *, #252, .F. ) ;
#244 = CARTESIAN_POINT ( 'NONE',  ( 3.765876499528530985E-13, 5.900000000002222578, 0.000000000000000000 ) ) ;
#245 = VERTEX_POINT ( 'NONE', #621 ) ;
#246 = DIRECTION ( 'NONE',  ( -0.000000000000000000, 1.000000000000000000, -0.000000000000000000 ) ) ;
#247 = ORIENTED_EDGE ( 'NONE', *, *, #510, .T. ) ;
#248 = AXIS2_PLACEMENT_3D ( 'NONE', #420, #582, #327 ) ;
#249 = MECHANICAL_DESIGN_GEOMETRIC_PRESENTATION_REPRESENTATION (  '', ( #118 ), #397 ) ;
#250 = AXIS2_PLACEMENT_3D ( 'NONE', #81, #78, #430 ) ;
#251 = DIRECTION ( 'NONE',  ( -0.000000000000000000, 1.000000000000000000, -0.000000000000000000 ) ) ;
#252 = EDGE_CURVE ( 'NONE', #433, #297, #312, .T. ) ;
#253 = EDGE_CURVE ( 'NONE', #388, #594, #538, .T. ) ;
#254 =( NAMED_UNIT ( * ) SI_UNIT ( $, .STERADIAN. ) SOLID_ANGLE_UNIT ( ) );
#255 = UNCERTAINTY_MEASURE_WITH_UNIT (LENGTH_MEASURE( 1.000000000000000082E-05 ), #494, 'distance_accuracy_value', 'NONE');
#256 = LINE ( 'NONE', #406, #578 ) ;
#257 = PRESENTATION_LAYER_ASSIGNMENT (  '', '', ( #11 ) ) ;
#258 = DIRECTION ( 'NONE',  ( -0.000000000000000000, 1.000000000000000000, -0.000000000000000000 ) ) ;
#259 = EDGE_CURVE ( 'NONE', #637, #38, #191, .T. ) ;
#260 = CARTESIAN_POINT ( 'NONE',  ( 3.764349942869671395E-13, 21.50000000000054001, 0.000000000000000000 ) ) ;
#261 = ORIENTED_EDGE ( 'NONE', *, *, #105, .F. ) ;
#262 = DIRECTION ( 'NONE',  ( -0.000000000000000000, 1.000000000000000000, -0.000000000000000000 ) ) ;
#263 = SURFACE_STYLE_FILL_AREA ( #363 ) ;
#264 = FILL_AREA_STYLE_COLOUR ( '', #240 ) ;
#265 = ADVANCED_FACE ( 'NONE', ( #414 ), #86, .T. ) ;
#266 = LINE ( 'NONE', #332, #225 ) ;
#267 = DIRECTION ( 'NONE',  ( -0.000000000000000000, 1.000000000000000000, -0.000000000000000000 ) ) ;
#268 = AXIS2_PLACEMENT_3D ( 'NONE', #373, #262, #617 ) ;
#269 = STYLED_ITEM ( 'NONE', ( #271 ), #559 ) ;
#270 = AXIS2_PLACEMENT_3D ( 'NONE', #331, #496, #343 ) ;
#271 = PRESENTATION_STYLE_ASSIGNMENT (( #528 ) ) ;
#272 = CARTESIAN_POINT ( 'NONE',  ( 3.765876499528530985E-13, 21.39607695154640510, 0.000000000000000000 ) ) ;
#273 = CYLINDRICAL_SURFACE ( 'NONE', #362, 3.000000000000018208 ) ;
#274 = CARTESIAN_POINT ( 'NONE',  ( 3.769550439925971273E-13, 48.50000000000055422, -2.999999999998642863 ) ) ;
#275 = CARTESIAN_POINT ( 'NONE',  ( 3.765876499528530985E-13, 5.900000000002222578, 0.000000000000000000 ) ) ;
#276 = DIRECTION ( 'NONE',  ( 4.108236962976044650E-17, 0.9420533805113694426, -0.3354630058100310230 ) ) ;
#277 = EDGE_LOOP ( 'NONE', ( #545, #75, #138, #239 ) ) ;
#278 = CARTESIAN_POINT ( 'NONE',  ( 3.765876499528530985E-13, 21.50000000000054001, 0.000000000000000000 ) ) ;
#279 = EDGE_CURVE ( 'NONE', #43, #245, #439, .T. ) ;
#280 = AXIS2_PLACEMENT_3D ( 'NONE', #9, #581, #630 ) ;
#281 = EDGE_CURVE ( 'NONE', #649, #355, #135, .T. ) ;
#282 = MECHANICAL_DESIGN_GEOMETRIC_PRESENTATION_REPRESENTATION (  '', ( #11 ), #498 ) ;
#283 = CARTESIAN_POINT ( 'NONE',  ( 3.765876499528530985E-13, 48.50000000000055422, 0.000000000000000000 ) ) ;
#284 = PRESENTATION_LAYER_ASSIGNMENT (  '', '', ( #410 ) ) ;
#285 = PRESENTATION_STYLE_ASSIGNMENT (( #84 ) ) ;
#286 = ORIENTED_EDGE ( 'NONE', *, *, #120, .F. ) ;
#287 = CARTESIAN_POINT ( 'NONE',  ( 3.770775086725120391E-13, 21.40000000000054570, 4.000000000000000000 ) ) ;
#288 = EDGE_LOOP ( 'NONE', ( #160, #149, #329, #639 ) ) ;
#289 = DIRECTION ( 'NONE',  ( 1.224646799146164739E-16, 0.000000000000000000, -1.000000000000000000 ) ) ;
#290 = APPLICATION_PROTOCOL_DEFINITION ( 'draft international standard', 'automotive_design', 1998, #344 ) ;
#291 = ORIENTED_EDGE ( 'NONE', *, *, #367, .T. ) ;
#292 = FILL_AREA_STYLE ('',( #543 ) ) ;
#293 = EDGE_LOOP ( 'NONE', ( #112, #548, #308, #595 ) ) ;
#294 = ORIENTED_EDGE ( 'NONE', *, *, #502, .F. ) ;
#295 =( LENGTH_UNIT ( ) NAMED_UNIT ( * ) SI_UNIT ( .MILLI., .METRE. ) );
#296 = FACE_OUTER_BOUND ( 'NONE', #220, .T. ) ;
#297 = VERTEX_POINT ( 'NONE', #596 ) ;
#298 = EDGE_LOOP ( 'NONE', ( #542, #187, #429 ) ) ;
#299 = CARTESIAN_POINT ( 'NONE',  ( 3.765876499528530985E-13, 21.50000000000054001, 0.000000000000000000 ) ) ;
#300 = ORIENTED_EDGE ( 'NONE', *, *, #143, .T. ) ;
#301 = DIRECTION ( 'NONE',  ( -0.000000000000000000, 1.000000000000000000, -0.000000000000000000 ) ) ;
#302 = EDGE_CURVE ( 'NONE', #104, #199, #216, .T. ) ;
#303 = VECTOR ( 'NONE', #407, 999.9999999999998863 ) ;
#304 = AXIS2_PLACEMENT_3D ( 'NONE', #275, #530, #25 ) ;
#305 = VECTOR ( 'NONE', #554, 999.9999999999998863 ) ;
#306 = UNCERTAINTY_MEASURE_WITH_UNIT (LENGTH_MEASURE( 1.000000000000000082E-05 ), #37, 'distance_accuracy_value', 'NONE');
#307 = AXIS2_PLACEMENT_3D ( 'NONE', #129, #188, #35 ) ;
#308 = ORIENTED_EDGE ( 'NONE', *, *, #167, .T. ) ;
#309 = DIRECTION ( 'NONE',  ( 0.000000000000000000, 0.000000000000000000, 1.000000000000000000 ) ) ;
#310 = VECTOR ( 'NONE', #579, 1000.000000000000000 ) ;
#311 = CONICAL_SURFACE ( 'NONE', #453, 3.000000000000021760, 0.7853981633974277399 ) ;
#312 = LINE ( 'NONE', #405, #455 ) ;
#313 = VECTOR ( 'NONE', #212, 1000.000000000000000 ) ;
#314 = DIRECTION ( 'NONE',  ( 0.000000000000000000, 0.000000000000000000, 1.000000000000000000 ) ) ;
#315 = LINE ( 'NONE', #4, #64 ) ;
#316 = CARTESIAN_POINT ( 'NONE',  ( 3.765876499528530985E-13, 8.708218385331381484, 0.000000000000000000 ) ) ;
#317 = EDGE_CURVE ( 'NONE', #297, #336, #546, .T. ) ;
#318 = EDGE_CURVE ( 'NONE', #245, #43, #517, .T. ) ;
#319 = DIRECTION ( 'NONE',  ( 0.000000000000000000, -1.000000000000000000, 0.000000000000000000 ) ) ;
#320 = CARTESIAN_POINT ( 'NONE',  ( 3.765876499528530985E-13, 48.50000000000055422, 0.000000000000000000 ) ) ;
#321 = CARTESIAN_POINT ( 'NONE',  ( 3.765876499528530985E-13, 0.3464101615138007184, 0.000000000000000000 ) ) ;
#322 = AXIS2_PLACEMENT_3D ( 'NONE', #378, #588, #88 ) ;
#323 = MECHANICAL_DESIGN_GEOMETRIC_PRESENTATION_REPRESENTATION (  '', ( #31 ), #638 ) ;
#324 = CARTESIAN_POINT ( 'NONE',  ( 3.765876499528530985E-13, 21.50000000000054001, 3.000000000000014211 ) ) ;
#325 = CARTESIAN_POINT ( 'NONE',  ( 3.765876499528530985E-13, 21.50000000000054001, 0.000000000000000000 ) ) ;
#326 = LINE ( 'NONE', #171, #310 ) ;
#327 = DIRECTION ( 'NONE',  ( 0.000000000000000000, 0.000000000000000000, 1.000000000000000000 ) ) ;
#328 = FILL_AREA_STYLE_COLOUR ( '', #179 ) ;
#329 = ORIENTED_EDGE ( 'NONE', *, *, #490, .T. ) ;
#330 = ADVANCED_FACE ( 'NONE', ( #432 ), #442, .F. ) ;
#331 = CARTESIAN_POINT ( 'NONE',  ( 3.765876499528530985E-13, 5.900000000002222578, 0.000000000000000000 ) ) ;
#332 = CARTESIAN_POINT ( 'NONE',  ( 3.765876499528530985E-13, 48.50000000000055422, 3.000000000000018208 ) ) ;
#333 = CARTESIAN_POINT ( 'NONE',  ( 3.768170840883011253E-13, 21.50000000000054001, -3.120000000000014317 ) ) ;
#334 =( LENGTH_UNIT ( ) NAMED_UNIT ( * ) SI_UNIT ( .MILLI., .METRE. ) );
#335 = EDGE_LOOP ( 'NONE', ( #193, #590, #300, #431 ) ) ;
#336 = VERTEX_POINT ( 'NONE', #640 ) ;
#337 = AXIS2_PLACEMENT_3D ( 'NONE', #241, #195, #480 ) ;
#338 = CARTESIAN_POINT ( 'NONE',  ( 3.765876499528530985E-13, 21.39607695154640510, 0.000000000000000000 ) ) ;
#339 = VERTEX_POINT ( 'NONE', #39 ) ;
#340 = DIRECTION ( 'NONE',  ( 0.000000000000000000, -1.000000000000000000, 0.000000000000000000 ) ) ;
#341 = ORIENTED_EDGE ( 'NONE', *, *, #67, .F. ) ;
#342 = ORIENTED_EDGE ( 'NONE', *, *, #565, .T. ) ;
#343 = DIRECTION ( 'NONE',  ( 0.000000000000000000, 0.000000000000000000, 1.000000000000000000 ) ) ;
#344 = APPLICATION_CONTEXT ( 'automotive_design' ) ;
#345 = ORIENTED_EDGE ( 'NONE', *, *, #53, .F. ) ;
#346 = ORIENTED_EDGE ( 'NONE', *, *, #10, .F. ) ;
#347 = ORIENTED_EDGE ( 'NONE', *, *, #611, .T. ) ;
#348 = CONICAL_SURFACE ( 'NONE', #62, 4.000000000000000000, 0.7853981633974222998 ) ;
#349 = SURFACE_STYLE_USAGE ( .BOTH. , #29 ) ;
#350 = FACE_OUTER_BOUND ( 'NONE', #335, .T. ) ;
#351 = CARTESIAN_POINT ( 'NONE',  ( 3.770775086725120391E-13, 8.708218385331381484, -4.000000000000022204 ) ) ;
#352 = DIRECTION ( 'NONE',  ( 0.000000000000000000, 0.4999999999999839573, 0.8660254037844479225 ) ) ;
#353 = EDGE_CURVE ( 'NONE', #30, #460, #653, .T. ) ;
#354 = DIRECTION ( 'NONE',  ( 0.000000000000000000, 0.000000000000000000, 1.000000000000000000 ) ) ;
#355 = VERTEX_POINT ( 'NONE', #644 ) ;
#356 = AXIS2_PLACEMENT_3D ( 'NONE', #101, #246, #648 ) ;
#357 = CIRCLE ( 'NONE', #483, 4.000000000000022204 ) ;
#358 = CARTESIAN_POINT ( 'NONE',  ( 3.769991312773665945E-13, 21.50000000000054001, -3.359999999999992326 ) ) ;
#359 = DIRECTION ( 'NONE',  ( -0.000000000000000000, 1.000000000000000000, -0.000000000000000000 ) ) ;
#360 = DIRECTION ( 'NONE',  ( 0.000000000000000000, 0.9420533805113694426, 0.3354630058100310230 ) ) ;
#361 = DIRECTION ( 'NONE',  ( -0.000000000000000000, 1.000000000000000000, -0.000000000000000000 ) ) ;
#362 = AXIS2_PLACEMENT_3D ( 'NONE', #320, #376, #382 ) ;
#363 = FILL_AREA_STYLE ('',( #328 ) ) ;
#364 = DIRECTION ( 'NONE',  ( -0.000000000000000000, 1.000000000000000000, -0.000000000000000000 ) ) ;
#365 = CIRCLE ( 'NONE', #471, 3.359999999999992326 ) ;
#366 = FACE_OUTER_BOUND ( 'NONE', #520, .T. ) ;
#367 = EDGE_CURVE ( 'NONE', #199, #388, #32, .T. ) ;
#368 = EDGE_CURVE ( 'NONE', #468, #80, #609, .T. ) ;
#369 = FACE_OUTER_BOUND ( 'NONE', #293, .T. ) ;
#370 = DIRECTION ( 'NONE',  ( 0.000000000000000000, 0.000000000000000000, 1.000000000000000000 ) ) ;
#371 = LINE ( 'NONE', #213, #411 ) ;
#372 = CYLINDRICAL_SURFACE ( 'NONE', #322, 3.000000000000018208 ) ;
#373 = CARTESIAN_POINT ( 'NONE',  ( 3.765876499528530985E-13, 2.746410161513917814, 0.000000000000000000 ) ) ;
#374 = DIRECTION ( 'NONE',  ( -0.000000000000000000, 1.000000000000000000, -0.000000000000000000 ) ) ;
#375 = EDGE_CURVE ( 'NONE', #339, #468, #380, .T. ) ;
#376 = DIRECTION ( 'NONE',  ( -0.000000000000000000, 1.000000000000000000, -0.000000000000000000 ) ) ;
#377 = DIRECTION ( 'NONE',  ( -0.000000000000000000, 1.000000000000000000, -0.000000000000000000 ) ) ;
#378 = CARTESIAN_POINT ( 'NONE',  ( 3.765876499528530985E-13, 48.50000000000055422, 0.000000000000000000 ) ) ;
#379 = ORIENTED_EDGE ( 'NONE', *, *, #150, .T. ) ;
#380 = LINE ( 'NONE', #224, #387 ) ;
#381 = EDGE_CURVE ( 'NONE', #336, #649, #529, .T. ) ;
#382 = DIRECTION ( 'NONE',  ( 0.000000000000000000, 0.000000000000000000, 1.000000000000000000 ) ) ;
#383 = ORIENTED_EDGE ( 'NONE', *, *, #509, .F. ) ;
#384 = FACE_OUTER_BOUND ( 'NONE', #635, .T. ) ;
#385 = CONICAL_SURFACE ( 'NONE', #304, 2.999999999997748024, 0.3420966728675836621 ) ;
#386 = ORIENTED_EDGE ( 'NONE', *, *, #229, .F. ) ;
#387 = VECTOR ( 'NONE', #185, 999.9999999999998863 ) ;
#388 = VERTEX_POINT ( 'NONE', #133 ) ;
#389 = SURFACE_SIDE_STYLE ('',( #97 ) ) ;
#390 = ADVANCED_FACE ( 'NONE', ( #425, #384 ), #486, .F. ) ;
#391 = ADVANCED_FACE ( 'NONE', ( #350 ), #123, .F. ) ;
#392 = VERTEX_POINT ( 'NONE', #152 ) ;
#393 = ORIENTED_EDGE ( 'NONE', *, *, #622, .F. ) ;
#394 = ORIENTED_EDGE ( 'NONE', *, *, #375, .T. ) ;
#395 = CARTESIAN_POINT ( 'NONE',  ( 3.765876499528530985E-13, 48.50000000000055422, 0.000000000000000000 ) ) ;
#396 = VECTOR ( 'NONE', #276, 1000.000000000000000 ) ;
#397 =( GEOMETRIC_REPRESENTATION_CONTEXT ( 3 ) GLOBAL_UNCERTAINTY_ASSIGNED_CONTEXT ( ( #463 ) ) GLOBAL_UNIT_ASSIGNED_CONTEXT ( ( #514, #567, #254 ) ) REPRESENTATION_CONTEXT ( 'NONE', 'WORKASPACE' ) );
#398 = ADVANCED_FACE ( 'NONE', ( #504 ), #151, .F. ) ;
#399 = LINE ( 'NONE', #603, #522 ) ;
#400 = DIRECTION ( 'NONE',  ( -0.000000000000000000, 1.000000000000000000, -0.000000000000000000 ) ) ;
#401 = FACE_OUTER_BOUND ( 'NONE', #197, .T. ) ;
#402 = EDGE_LOOP ( 'NONE', ( #145, #234, #540, #451 ) ) ;
#403 = AXIS2_PLACEMENT_3D ( 'NONE', #144, #503, #40 ) ;
#404 = DIRECTION ( 'NONE',  ( 0.000000000000000000, 0.000000000000000000, 1.000000000000000000 ) ) ;
#405 = CARTESIAN_POINT ( 'NONE',  ( 3.765876499528530985E-13, 2.289834988289385365E-13, -1.609823385706472250E-15 ) ) ;
#406 = CARTESIAN_POINT ( 'NONE',  ( 3.765876499528530985E-13, 0.3464101615138007184, 0.5999999999996745714 ) ) ;
#407 = DIRECTION ( 'NONE',  ( 0.000000000000000000, -0.7071067811865658914, -0.7071067811865292541 ) ) ;
#408 = CARTESIAN_POINT ( 'NONE',  ( 3.765876499528530985E-13, 21.40000000000054570, 0.000000000000000000 ) ) ;
#409 = ADVANCED_FACE ( 'NONE', ( #450 ), #524, .T. ) ;
#410 = STYLED_ITEM ( 'NONE', ( #16 ), #142 ) ;
#411 = VECTOR ( 'NONE', #428, 1000.000000000000000 ) ;
#412 = EDGE_CURVE ( 'NONE', #433, #505, #399, .T. ) ;
#413 = AXIS2_PLACEMENT_3D ( 'NONE', #395, #196, #601 ) ;
#414 = FACE_OUTER_BOUND ( 'NONE', #485, .T. ) ;
#415 = VECTOR ( 'NONE', #198, 999.9999999999998863 ) ;
#416 =( NAMED_UNIT ( * ) PLANE_ANGLE_UNIT ( ) SI_UNIT ( $, .RADIAN. ) );
#417 = CARTESIAN_POINT ( 'NONE',  ( 3.765876499528530985E-13, 21.50000000000054001, 3.359999999999992326 ) ) ;
#418 = ORIENTED_EDGE ( 'NONE', *, *, #94, .F. ) ;
#419 = DIRECTION ( 'NONE',  ( 0.000000000000000000, 0.000000000000000000, 1.000000000000000000 ) ) ;
#420 = CARTESIAN_POINT ( 'NONE',  ( 3.765876499528530985E-13, 0.3464101615138007184, 0.000000000000000000 ) ) ;
#421 = CARTESIAN_POINT ( 'NONE',  ( 3.769550439925970768E-13, 5.900000000002222578, -2.999999999997748024 ) ) ;
#422 = PRODUCT_RELATED_PRODUCT_CATEGORY ( 'part', '', ( #119 ) ) ;
#423 = FACE_OUTER_BOUND ( 'NONE', #652, .T. ) ;
#424 = DIRECTION ( 'NONE',  ( -0.000000000000000000, 1.000000000000000000, -0.000000000000000000 ) ) ;
#425 = FACE_BOUND ( 'NONE', #70, .T. ) ;
#426 = CIRCLE ( 'NONE', #515, 4.000000000000000000 ) ;
#427 = TOROIDAL_SURFACE ( 'NONE', #109, 3.120000000000014317, 0.1199999999999995237 ) ;
#428 = DIRECTION ( 'NONE',  ( 8.659560562354755364E-17, -0.7071067811865621167, 0.7071067811865330288 ) ) ;
#429 = ORIENTED_EDGE ( 'NONE', *, *, #434, .F. ) ;
#430 = DIRECTION ( 'NONE',  ( 0.000000000000000000, 0.000000000000000000, 1.000000000000000000 ) ) ;
#431 = ORIENTED_EDGE ( 'NONE', *, *, #375, .F. ) ;
#432 = FACE_OUTER_BOUND ( 'NONE', #608, .T. ) ;
#433 = VERTEX_POINT ( 'NONE', #655 ) ;
#434 = EDGE_CURVE ( 'NONE', #505, #297, #457, .T. ) ;
#435 = DIRECTION ( 'NONE',  ( 0.000000000000000000, 0.000000000000000000, 1.000000000000000000 ) ) ;
#436 = EDGE_LOOP ( 'NONE', ( #645, #495, #169, #443 ) ) ;
#437 = CARTESIAN_POINT ( 'NONE',  ( 3.765876499528530985E-13, 21.50000000000054001, 0.000000000000000000 ) ) ;
#438 = ADVANCED_FACE ( 'NONE', ( #77 ), #624, .F. ) ;
#439 = CIRCLE ( 'NONE', #307, 3.000000000000021760 ) ;
#440 = VECTOR ( 'NONE', #424, 1000.000000000000000 ) ;
#441 = CARTESIAN_POINT ( 'NONE',  ( 3.765876499528530985E-13, 0.3464101615138007184, 0.000000000000000000 ) ) ;
#442 = CONICAL_SURFACE ( 'NONE', #602, 3.359999999999992326, 1.047197551196549004 ) ;
#443 = ORIENTED_EDGE ( 'NONE', *, *, #318, .T. ) ;
#444 = DIRECTION ( 'NONE',  ( 0.000000000000000000, 0.000000000000000000, 1.000000000000000000 ) ) ;
#445 = ORIENTED_EDGE ( 'NONE', *, *, #611, .F. ) ;
#446 = ORIENTED_EDGE ( 'NONE', *, *, #143, .F. ) ;
#447 = EDGE_LOOP ( 'NONE', ( #90, #203, #521, #231 ) ) ;
#448 = EDGE_CURVE ( 'NONE', #30, #245, #74, .T. ) ;
#449 = ADVANCED_BREP_SHAPE_REPRESENTATION ( '99688-SI06-06+S9MT06T1-090', ( #142, #469 ), #568 ) ;
#450 = FACE_OUTER_BOUND ( 'NONE', #402, .T. ) ;
#451 = ORIENTED_EDGE ( 'NONE', *, *, #211, .F. ) ;
#452 = STYLED_ITEM ( 'NONE', ( #285 ), #555 ) ;
#453 = AXIS2_PLACEMENT_3D ( 'NONE', #175, #489, #50 ) ;
#454 = AXIS2_PLACEMENT_3D ( 'NONE', #210, #251, #557 ) ;
#455 = VECTOR ( 'NONE', #174, 1000.000000000000000 ) ;
#456 = CARTESIAN_POINT ( 'NONE',  ( 3.765876499528530985E-13, 21.50000000000054001, -3.900000000000012790 ) ) ;
#457 = CIRCLE ( 'NONE', #248, 0.5999999999996745714 ) ;
#458 = CARTESIAN_POINT ( 'NONE',  ( 3.765876499528530985E-13, 21.40000000000054570, -4.000000000000000000 ) ) ;
#459 = LINE ( 'NONE', #358, #305 ) ;
#460 = VERTEX_POINT ( 'NONE', #324 ) ;
#461 =( NAMED_UNIT ( * ) SI_UNIT ( $, .STERADIAN. ) SOLID_ANGLE_UNIT ( ) );
#462 = ADVANCED_FACE ( 'NONE', ( #627 ), #372, .T. ) ;
#463 = UNCERTAINTY_MEASURE_WITH_UNIT (LENGTH_MEASURE( 1.000000000000000082E-05 ), #514, 'distance_accuracy_value', 'NONE');
#464 = ORIENTED_EDGE ( 'NONE', *, *, #605, .F. ) ;
#465 = DIRECTION ( 'NONE',  ( -0.000000000000000000, 1.000000000000000000, -0.000000000000000000 ) ) ;
#466 = DIRECTION ( 'NONE',  ( 0.000000000000000000, 0.000000000000000000, 1.000000000000000000 ) ) ;
#467 = VECTOR ( 'NONE', #360, 1000.000000000000000 ) ;
#468 = VERTEX_POINT ( 'NONE', #417 ) ;
#469 = AXIS2_PLACEMENT_3D ( 'NONE', #89, #435, #46 ) ;
#470 = DIRECTION ( 'NONE',  ( -0.000000000000000000, 1.000000000000000000, -0.000000000000000000 ) ) ;
#471 = AXIS2_PLACEMENT_3D ( 'NONE', #221, #465, #122 ) ;
#472 = CARTESIAN_POINT ( 'NONE',  ( 3.765876499528530985E-13, 0.3464101615138007184, 0.000000000000000000 ) ) ;
#473 = LINE ( 'NONE', #458, #303 ) ;
#474 = DIRECTION ( 'NONE',  ( 0.000000000000000000, 0.000000000000000000, 1.000000000000000000 ) ) ;
#475 = CARTESIAN_POINT ( 'NONE',  ( 3.769550439925972787E-13, 48.50000000000055422, -3.000000000000018208 ) ) ;
#476 = DIRECTION ( 'NONE',  ( -0.000000000000000000, 1.000000000000000000, -0.000000000000000000 ) ) ;
#477 = FILL_AREA_STYLE_COLOUR ( '', #117 ) ;
#478 = PRESENTATION_STYLE_ASSIGNMENT (( #349 ) ) ;
#479 = ORIENTED_EDGE ( 'NONE', *, *, #279, .T. ) ;
#480 = DIRECTION ( 'NONE',  ( 0.000000000000000000, 0.000000000000000000, 1.000000000000000000 ) ) ;
#481 = PRESENTATION_LAYER_ASSIGNMENT (  '', '', ( #269 ) ) ;
#482 = PRESENTATION_LAYER_ASSIGNMENT (  '', '', ( #118 ) ) ;
#483 = AXIS2_PLACEMENT_3D ( 'NONE', #71, #267, #116 ) ;
#484 = FILL_AREA_STYLE_COLOUR ( '', #162 ) ;
#485 = EDGE_LOOP ( 'NONE', ( #36, #204, #132, #418 ) ) ;
#486 = PLANE ( 'NONE',  #136 ) ;
#487 = ORIENTED_EDGE ( 'NONE', *, *, #67, .T. ) ;
#488 = ADVANCED_FACE ( 'NONE', ( #183 ), #273, .T. ) ;
#489 = DIRECTION ( 'NONE',  ( 0.000000000000000000, -1.000000000000000000, 0.000000000000000000 ) ) ;
#490 = EDGE_CURVE ( 'NONE', #184, #339, #237, .T. ) ;
#491 = ORIENTED_EDGE ( 'NONE', *, *, #150, .F. ) ;
#492 = DIRECTION ( 'NONE',  ( -0.000000000000000000, 1.000000000000000000, -0.000000000000000000 ) ) ;
#493 = ORIENTED_EDGE ( 'NONE', *, *, #279, .F. ) ;
#494 =( LENGTH_UNIT ( ) NAMED_UNIT ( * ) SI_UNIT ( .MILLI., .METRE. ) );
#495 = ORIENTED_EDGE ( 'NONE', *, *, #259, .F. ) ;
#496 = DIRECTION ( 'NONE',  ( -0.000000000000000000, 1.000000000000000000, -0.000000000000000000 ) ) ;
#497 = AXIS2_PLACEMENT_3D ( 'NONE', #333, #541, #289 ) ;
#498 =( GEOMETRIC_REPRESENTATION_CONTEXT ( 3 ) GLOBAL_UNCERTAINTY_ASSIGNED_CONTEXT ( ( #113 ) ) GLOBAL_UNIT_ASSIGNED_CONTEXT ( ( #334, #646, #230 ) ) REPRESENTATION_CONTEXT ( 'NONE', 'WORKASPACE' ) );
#499 = VERTEX_POINT ( 'NONE', #523 ) ;
#500 = AXIS2_PLACEMENT_3D ( 'NONE', #5, #400, #604 ) ;
#501 = ORIENTED_EDGE ( 'NONE', *, *, #412, .T. ) ;
#502 = EDGE_CURVE ( 'NONE', #339, #184, #83, .T. ) ;
#503 = DIRECTION ( 'NONE',  ( -0.000000000000000000, 1.000000000000000000, -0.000000000000000000 ) ) ;
#504 = FACE_OUTER_BOUND ( 'NONE', #288, .T. ) ;
#505 = VERTEX_POINT ( 'NONE', #531 ) ;
#506 = DIRECTION ( 'NONE',  ( 0.000000000000000000, 0.000000000000000000, 1.000000000000000000 ) ) ;
#507 = CONICAL_SURFACE ( 'NONE', #280, 1732.050807568951313, 1.047197551196616283 ) ;
#508 = PRESENTATION_LAYER_ASSIGNMENT (  '', '', ( #31 ) ) ;
#509 = EDGE_CURVE ( 'NONE', #637, #245, #634, .T. ) ;
#510 = EDGE_CURVE ( 'NONE', #649, #47, #131, .T. ) ;
#511 = PRODUCT_DEFINITION_CONTEXT ( 'detailed design', #344, 'design' ) ;
#512 = CARTESIAN_POINT ( 'NONE',  ( 3.765876499528530985E-13, 21.50000000000054001, 0.000000000000000000 ) ) ;
#513 = CARTESIAN_POINT ( 'NONE',  ( 3.770775086725120391E-13, 48.50000000000055422, -4.000000000000010658 ) ) ;
#514 =( LENGTH_UNIT ( ) NAMED_UNIT ( * ) SI_UNIT ( .MILLI., .METRE. ) );
#515 = AXIS2_PLACEMENT_3D ( 'NONE', #534, #377, #616 ) ;
#516 = CIRCLE ( 'NONE', #226, 2.799999999999954969 ) ;
#517 = CIRCLE ( 'NONE', #250, 3.000000000000021760 ) ;
#518 = SURFACE_STYLE_FILL_AREA ( #76 ) ;
#519 = PRODUCT_DEFINITION ( 'UNKNOWN', '', #238, #511 ) ;
#520 = EDGE_LOOP ( 'NONE', ( #487, #247, #393, #386 ) ) ;
#521 = ORIENTED_EDGE ( 'NONE', *, *, #189, .T. ) ;
#522 = VECTOR ( 'NONE', #352, 1000.000000000000000 ) ;
#523 = CARTESIAN_POINT ( 'NONE',  ( 3.765876499528530985E-13, 8.708218385331381484, 4.000000000000022204 ) ) ;
#524 = CONICAL_SURFACE ( 'NONE', #41, 2.999999999997748024, 0.3420966728675836621 ) ;
#525 = AXIS2_PLACEMENT_3D ( 'NONE', #441, #87, #190 ) ;
#526 = SURFACE_STYLE_USAGE ( .BOTH. , #575 ) ;
#527 = CIRCLE ( 'NONE', #268, 2.999999999999538147 ) ;
#528 = SURFACE_STYLE_USAGE ( .BOTH. , #182 ) ;
#529 = LINE ( 'NONE', #274, #217 ) ;
#530 = DIRECTION ( 'NONE',  ( -0.000000000000000000, 1.000000000000000000, -0.000000000000000000 ) ) ;
#531 = CARTESIAN_POINT ( 'NONE',  ( 3.765876499528530985E-13, 0.3464101615138007184, 0.5999999999996744604 ) ) ;
#532 = ORIENTED_EDGE ( 'NONE', *, *, #105, .T. ) ;
#533 = SURFACE_STYLE_USAGE ( .BOTH. , #389 ) ;
#534 = CARTESIAN_POINT ( 'NONE',  ( 3.765876499528530985E-13, 21.40000000000054570, 0.000000000000000000 ) ) ;
#535 = FACE_OUTER_BOUND ( 'NONE', #228, .T. ) ;
#536 = ORIENTED_EDGE ( 'NONE', *, *, #448, .T. ) ;
#537 = DIRECTION ( 'NONE',  ( 8.659560562354475565E-17, 0.7071067811865848762, -0.7071067811865101582 ) ) ;
#538 = CIRCLE ( 'NONE', #561, 4.000000000000000000 ) ;
#539 = EDGE_CURVE ( 'NONE', #30, #184, #178, .T. ) ;
#540 = ORIENTED_EDGE ( 'NONE', *, *, #229, .T. ) ;
#541 = DIRECTION ( 'NONE',  ( 1.000000000000000000, 0.000000000000000000, 1.224646799147353207E-16 ) ) ;
#542 = ORIENTED_EDGE ( 'NONE', *, *, #412, .F. ) ;
#543 = FILL_AREA_STYLE_COLOUR ( '', #54 ) ;
#544 = ORIENTED_EDGE ( 'NONE', *, *, #94, .T. ) ;
#545 = ORIENTED_EDGE ( 'NONE', *, *, #448, .F. ) ;
#546 = LINE ( 'NONE', #140, #154 ) ;
#547 =( NAMED_UNIT ( * ) SI_UNIT ( $, .STERADIAN. ) SOLID_ANGLE_UNIT ( ) );
#548 = ORIENTED_EDGE ( 'NONE', *, *, #302, .F. ) ;
#549 = DIRECTION ( 'NONE',  ( 0.000000000000000000, -0.000000000000000000, -1.000000000000000000 ) ) ;
#550 = CONICAL_SURFACE ( 'NONE', #161, 0.5999999999996745714, 0.7853981633973954324 ) ;
#551 = CONICAL_SURFACE ( 'NONE', #108, 4.000000000000000000, 0.7853981633974222998 ) ;
#552 = ORIENTED_EDGE ( 'NONE', *, *, #52, .T. ) ;
#553 = ORIENTED_EDGE ( 'NONE', *, *, #68, .T. ) ;
#554 = DIRECTION ( 'NONE',  ( 1.060575238724877209E-16, 0.5000000000000421885, -0.8660254037844143937 ) ) ;
#555 = ADVANCED_FACE ( 'NONE', ( #535 ), #550, .T. ) ;
#556 =( GEOMETRIC_REPRESENTATION_CONTEXT ( 3 ) GLOBAL_UNCERTAINTY_ASSIGNED_CONTEXT ( ( #158 ) ) GLOBAL_UNIT_ASSIGNED_CONTEXT ( ( #570, #625, #461 ) ) REPRESENTATION_CONTEXT ( 'NONE', 'WORKASPACE' ) );
#557 = DIRECTION ( 'NONE',  ( 0.000000000000000000, 0.000000000000000000, 1.000000000000000000 ) ) ;
#558 = MECHANICAL_DESIGN_GEOMETRIC_PRESENTATION_REPRESENTATION (  '', ( #452 ), #8 ) ;
#559 = ADVANCED_FACE ( 'NONE', ( #73 ), #507, .T. ) ;
#560 = ORIENTED_EDGE ( 'NONE', *, *, #381, .F. ) ;
#561 = AXIS2_PLACEMENT_3D ( 'NONE', #65, #470, #370 ) ;
#562 = PRODUCT_DEFINITION_SHAPE ( 'NONE', 'NONE',  #519 ) ;
#563 = DIRECTION ( 'NONE',  ( 0.000000000000000000, 0.7071067811865848762, 0.7071067811865101582 ) ) ;
#564 = PRESENTATION_STYLE_ASSIGNMENT (( #610 ) ) ;
#565 = EDGE_CURVE ( 'NONE', #38, #43, #371, .T. ) ;
#566 = DIRECTION ( 'NONE',  ( -1.000000000000000000, 0.000000000000000000, 0.000000000000000000 ) ) ;
#567 =( NAMED_UNIT ( * ) PLANE_ANGLE_UNIT ( ) SI_UNIT ( $, .RADIAN. ) );
#568 =( GEOMETRIC_REPRESENTATION_CONTEXT ( 3 ) GLOBAL_UNCERTAINTY_ASSIGNED_CONTEXT ( ( #255 ) ) GLOBAL_UNIT_ASSIGNED_CONTEXT ( ( #494, #642, #547 ) ) REPRESENTATION_CONTEXT ( 'NONE', 'WORKASPACE' ) );
#569 = AXIS2_PLACEMENT_3D ( 'NONE', #437, #232, #91 ) ;
#570 =( LENGTH_UNIT ( ) NAMED_UNIT ( * ) SI_UNIT ( .MILLI., .METRE. ) );
#571 =( LENGTH_UNIT ( ) NAMED_UNIT ( * ) SI_UNIT ( .MILLI., .METRE. ) );
#572 = CARTESIAN_POINT ( 'NONE',  ( 3.765876499528530985E-13, 1000.000000000000227, 0.000000000000000000 ) ) ;
#573 = CARTESIAN_POINT ( 'NONE',  ( 3.765876499528530985E-13, 21.40000000000054570, 0.000000000000000000 ) ) ;
#574 =( NAMED_UNIT ( * ) SI_UNIT ( $, .STERADIAN. ) SOLID_ANGLE_UNIT ( ) );
#575 = SURFACE_SIDE_STYLE ('',( #518 ) ) ;
#576 = CYLINDRICAL_SURFACE ( 'NONE', #650, 4.000000000000010658 ) ;
#577 = AXIS2_PLACEMENT_3D ( 'NONE', #338, #127, #23 ) ;
#578 = VECTOR ( 'NONE', #563, 1000.000000000000000 ) ;
#579 = DIRECTION ( 'NONE',  ( -0.000000000000000000, 1.000000000000000000, -0.000000000000000000 ) ) ;
#580 = DIRECTION ( 'NONE',  ( 0.000000000000000000, 0.000000000000000000, 1.000000000000000000 ) ) ;
#581 = DIRECTION ( 'NONE',  ( -0.000000000000000000, 1.000000000000000000, -0.000000000000000000 ) ) ;
#582 = DIRECTION ( 'NONE',  ( -0.000000000000000000, 1.000000000000000000, -0.000000000000000000 ) ) ;
#583 = ORIENTED_EDGE ( 'NONE', *, *, #211, .T. ) ;
#584 = ADVANCED_FACE ( 'NONE', ( #423 ), #348, .T. ) ;
#585 = DIRECTION ( 'NONE',  ( -0.000000000000000000, 1.000000000000000000, -0.000000000000000000 ) ) ;
#586 = EDGE_CURVE ( 'NONE', #594, #388, #426, .T. ) ;
#587 = ORIENTED_EDGE ( 'NONE', *, *, #120, .T. ) ;
#588 = DIRECTION ( 'NONE',  ( -0.000000000000000000, 1.000000000000000000, -0.000000000000000000 ) ) ;
#589 = AXIS2_PLACEMENT_3D ( 'NONE', #321, #235, #146 ) ;
#590 = ORIENTED_EDGE ( 'NONE', *, *, #53, .T. ) ;
#591 = CARTESIAN_POINT ( 'NONE',  ( 3.360000000000368914, 21.50000000000054001, 0.000000000000000000 ) ) ;
#592 =( GEOMETRIC_REPRESENTATION_CONTEXT ( 3 ) GLOBAL_UNCERTAINTY_ASSIGNED_CONTEXT ( ( #214 ) ) GLOBAL_UNIT_ASSIGNED_CONTEXT ( ( #571, #416, #130 ) ) REPRESENTATION_CONTEXT ( 'NONE', 'WORKASPACE' ) );
#593 = CLOSED_SHELL ( 'NONE', ( #462, #398, #391, #584, #606, #620, #14, #265, #559, #654, #205, #438, #141, #555, #103, #409, #24, #631, #390, #330, #93, #488 ) ) ;
#594 = VERTEX_POINT ( 'NONE', #126 ) ;
#595 = ORIENTED_EDGE ( 'NONE', *, *, #586, .T. ) ;
#596 = CARTESIAN_POINT ( 'NONE',  ( 3.766611287608019245E-13, 0.3464101615138007184, -0.5999999999996744604 ) ) ;
#597 = CARTESIAN_POINT ( 'NONE',  ( 3.769427975246058330E-13, 48.50000000000056843, 2.799999999999954969 ) ) ;
#598 = ORIENTED_EDGE ( 'NONE', *, *, #381, .T. ) ;
#599 = ORIENTED_EDGE ( 'NONE', *, *, #317, .F. ) ;
#600 = COLOUR_RGB ( '',1.000000000000000000, 0.000000000000000000, 0.000000000000000000 ) ;
#601 = DIRECTION ( 'NONE',  ( 0.000000000000000000, 0.000000000000000000, 1.000000000000000000 ) ) ;
#602 = AXIS2_PLACEMENT_3D ( 'NONE', #278, #492, #444 ) ;
#603 = CARTESIAN_POINT ( 'NONE',  ( 3.765876499528530985E-13, 2.289834988289385365E-13, 1.609823385706472250E-15 ) ) ;
#604 = DIRECTION ( 'NONE',  ( 0.000000000000000000, 0.000000000000000000, 1.000000000000000000 ) ) ;
#605 = EDGE_CURVE ( 'NONE', #460, #43, #266, .T. ) ;
#606 = ADVANCED_FACE ( 'NONE', ( #219 ), #576, .T. ) ;
#607 = FACE_OUTER_BOUND ( 'NONE', #447, .T. ) ;
#608 = EDGE_LOOP ( 'NONE', ( #345, #294, #394, #632 ) ) ;
#609 = CIRCLE ( 'NONE', #13, 3.359999999999992326 ) ;
#610 = SURFACE_STYLE_USAGE ( .BOTH. , #208 ) ;
#611 = EDGE_CURVE ( 'NONE', #392, #355, #326, .T. ) ;
#612 = LINE ( 'NONE', #513, #313 ) ;
#613 = CYLINDRICAL_SURFACE ( 'NONE', #454, 2.999999999998642863 ) ;
#614 = DIRECTION ( 'NONE',  ( 0.000000000000000000, 0.000000000000000000, -1.000000000000000000 ) ) ;
#615 = CIRCLE ( 'NONE', #107, 4.000000000000022204 ) ;
#616 = DIRECTION ( 'NONE',  ( 0.000000000000000000, 0.000000000000000000, 1.000000000000000000 ) ) ;
#617 = DIRECTION ( 'NONE',  ( 0.000000000000000000, 0.000000000000000000, 1.000000000000000000 ) ) ;
#618 = DIRECTION ( 'NONE',  ( -0.000000000000000000, 1.000000000000000000, -0.000000000000000000 ) ) ;
#619 =( NAMED_UNIT ( * ) PLANE_ANGLE_UNIT ( ) SI_UNIT ( $, .RADIAN. ) );
#620 = ADVANCED_FACE ( 'NONE', ( #366 ), #385, .T. ) ;
#621 = CARTESIAN_POINT ( 'NONE',  ( 3.765876499528530985E-13, 48.30000000000049454, -3.000000000000021760 ) ) ;
#622 = EDGE_CURVE ( 'NONE', #499, #47, #615, .T. ) ;
#623 = FACE_OUTER_BOUND ( 'NONE', #49, .T. ) ;
#624 = PLANE ( 'NONE',  #26 ) ;
#625 =( NAMED_UNIT ( * ) PLANE_ANGLE_UNIT ( ) SI_UNIT ( $, .RADIAN. ) );
#626 = DIRECTION ( 'NONE',  ( 0.000000000000000000, 0.000000000000000000, -1.000000000000000000 ) ) ;
#627 = FACE_OUTER_BOUND ( 'NONE', #233, .T. ) ;
#628 = ORIENTED_EDGE ( 'NONE', *, *, #206, .T. ) ;
#629 =( NAMED_UNIT ( * ) PLANE_ANGLE_UNIT ( ) SI_UNIT ( $, .RADIAN. ) );
#630 = DIRECTION ( 'NONE',  ( 0.000000000000000000, 0.000000000000000000, 1.000000000000000000 ) ) ;
#631 = ADVANCED_FACE ( 'NONE', ( #369 ), #551, .T. ) ;
#632 = ORIENTED_EDGE ( 'NONE', *, *, #368, .T. ) ;
#633 = DIRECTION ( 'NONE',  ( -0.000000000000000000, 1.000000000000000000, -0.000000000000000000 ) ) ;
#634 = LINE ( 'NONE', #79, #192 ) ;
#635 = EDGE_LOOP ( 'NONE', ( #148, #553 ) ) ;
#636 = DIRECTION ( 'NONE',  ( 0.000000000000000000, 0.000000000000000000, 1.000000000000000000 ) ) ;
#637 = VERTEX_POINT ( 'NONE', #222 ) ;
#638 =( GEOMETRIC_REPRESENTATION_CONTEXT ( 3 ) GLOBAL_UNCERTAINTY_ASSIGNED_CONTEXT ( ( #60 ) ) GLOBAL_UNIT_ASSIGNED_CONTEXT ( ( #295, #629, #125 ) ) REPRESENTATION_CONTEXT ( 'NONE', 'WORKASPACE' ) );
#639 = ORIENTED_EDGE ( 'NONE', *, *, #189, .F. ) ;
#640 = CARTESIAN_POINT ( 'NONE',  ( 3.769550439925972282E-13, 2.746410161513917814, -2.999999999999538147 ) ) ;
#641 = CYLINDRICAL_SURFACE ( 'NONE', #413, 4.000000000000010658 ) ;
#642 =( NAMED_UNIT ( * ) PLANE_ANGLE_UNIT ( ) SI_UNIT ( $, .RADIAN. ) );
#643 = EDGE_LOOP ( 'NONE', ( #100, #379, #34, #96 ) ) ;
#644 = CARTESIAN_POINT ( 'NONE',  ( 3.765876499528530985E-13, 5.900000000002222578, 2.999999999997748024 ) ) ;
#645 = ORIENTED_EDGE ( 'NONE', *, *, #565, .F. ) ;
#646 =( NAMED_UNIT ( * ) PLANE_ANGLE_UNIT ( ) SI_UNIT ( $, .RADIAN. ) );
#647 = ORIENTED_EDGE ( 'NONE', *, *, #167, .F. ) ;
#648 = DIRECTION ( 'NONE',  ( 0.000000000000000000, 0.000000000000000000, 1.000000000000000000 ) ) ;
#649 = VERTEX_POINT ( 'NONE', #421 ) ;
#650 = AXIS2_PLACEMENT_3D ( 'NONE', #283, #476, #466 ) ;
#651 = CIRCLE ( 'NONE', #56, 3.900000000000012790 ) ;
#652 = EDGE_LOOP ( 'NONE', ( #85, #291, #45, #647 ) ) ;
#653 = CIRCLE ( 'NONE', #337, 3.000000000000014211 ) ;
#654 = ADVANCED_FACE ( 'NONE', ( #623 ), #311, .T. ) ;
#655 = CARTESIAN_POINT ( 'NONE',  ( 3.765876499528530985E-13, 2.273736754432320595E-13, 0.000000000000000000 ) ) ;
#656 = FILL_AREA_STYLE ('',( #115 ) ) ;
ENDSEC;
END-ISO-10303-21;
