ISO-10303-21;
HEADER;
FILE_DESCRIPTION (( 'STEP AP214' ),
    '1' );
FILE_NAME ('99688-SI16-M10+S9MT1603-090.STEP',
    '2023-09-26T06:30:14',
    ( '' ),
    ( '' ),
    'SwSTEP 2.0',
    'SolidWorks 2020',
    '' );
FILE_SCHEMA (( 'AUTOMOTIVE_DESIGN' ));
ENDSEC;

DATA;
#1 = DIRECTION ( 'NONE',  ( 1.000000000000000000, 4.263285714314104575E-14, 0.000000000000000000 ) ) ;
#2 = ADVANCED_FACE ( 'NONE', ( #778 ), #126, .T. ) ;
#3 = EDGE_LOOP ( 'NONE', ( #1003, #57, #683, #532 ) ) ;
#4 = UNCERTAINTY_MEASURE_WITH_UNIT (LENGTH_MEASURE( 1.000000000000000082E-05 ), #322, 'distance_accuracy_value', 'NONE');
#5 = CARTESIAN_POINT ( 'NONE',  ( -3.860315587625068512E-07, 16.33393940614458018, 0.000000000000000000 ) ) ;
#6 = ORIENTED_EDGE ( 'NONE', *, *, #325, .F. ) ;
#7 = DIRECTION ( 'NONE',  ( 4.263285714314105206E-14, -1.000000000000000000, -0.000000000000000000 ) ) ;
#8 = ORIENTED_EDGE ( 'NONE', *, *, #308, .T. ) ;
#9 = EDGE_CURVE ( 'NONE', #630, #354, #222, .T. ) ;
#10 = FACE_OUTER_BOUND ( 'NONE', #621, .T. ) ;
#11 = AXIS2_PLACEMENT_3D ( 'NONE', #478, #7, #892 ) ;
#12 = VERTEX_POINT ( 'NONE', #295 ) ;
#13 = CIRCLE ( 'NONE', #590, 5.550000000000490097 ) ;
#14 = AXIS2_PLACEMENT_3D ( 'NONE', #41, #48, #529 ) ;
#15 = PRESENTATION_LAYER_ASSIGNMENT (  '', '', ( #906 ) ) ;
#16 = DIRECTION ( 'NONE',  ( 1.000000000000000000, 4.245096388672714226E-14, 0.000000000000000000 ) ) ;
#17 = ADVANCED_FACE ( 'NONE', ( #148 ), #367, .T. ) ;
#18 = DIRECTION ( 'NONE',  ( 1.000000000000000000, 0.000000000000000000, -1.224646799147352961E-16 ) ) ;
#19 = EDGE_LOOP ( 'NONE', ( #626, #8, #94, #986 ) ) ;
#20 = FACE_OUTER_BOUND ( 'NONE', #328, .T. ) ;
#21 = ORIENTED_EDGE ( 'NONE', *, *, #825, .F. ) ;
#22 = EDGE_CURVE ( 'NONE', #191, #910, #376, .T. ) ;
#23 = DIRECTION ( 'NONE',  ( 4.263285714314105206E-14, -1.000000000000000000, -0.000000000000000000 ) ) ;
#24 = ORIENTED_EDGE ( 'NONE', *, *, #891, .F. ) ;
#25 = CARTESIAN_POINT ( 'NONE',  ( -3.860330366757143113E-07, 50.99999996212451236, 0.000000000000000000 ) ) ;
#26 = AXIS2_PLACEMENT_3D ( 'NONE', #711, #1043, #409 ) ;
#27 = CIRCLE ( 'NONE', #939, 8.000000000001817213 ) ;
#28 = AXIS2_PLACEMENT_3D ( 'NONE', #951, #799, #901 ) ;
#29 = CIRCLE ( 'NONE', #806, 4.750000000000676792 ) ;
#30 = SURFACE_STYLE_USAGE ( .BOTH. , #648 ) ;
#31 = EDGE_CURVE ( 'NONE', #537, #907, #851, .T. ) ;
#32 = ORIENTED_EDGE ( 'NONE', *, *, #147, .T. ) ;
#33 = CARTESIAN_POINT ( 'NONE',  ( -3.860315587625068512E-07, 16.33393940614458018, 0.000000000000000000 ) ) ;
#34 = ORIENTED_EDGE ( 'NONE', *, *, #1000, .T. ) ;
#35 = DIRECTION ( 'NONE',  ( 1.000000000000000000, 4.302114220421775406E-14, 0.000000000000000000 ) ) ;
#36 = CARTESIAN_POINT ( 'NONE',  ( -3.860308624000000066E-07, -3.787601340000000210E-08, 0.000000000000000000 ) ) ;
#37 = ORIENTED_EDGE ( 'NONE', *, *, #368, .T. ) ;
#38 = CARTESIAN_POINT ( 'NONE',  ( -3.860333777385714281E-07, 58.99999996212451236, 0.000000000000000000 ) ) ;
#39 = ORIENTED_EDGE ( 'NONE', *, *, #9, .T. ) ;
#40 = DIRECTION ( 'NONE',  ( 4.263285714314105206E-14, -1.000000000000000000, -0.000000000000000000 ) ) ;
#41 = CARTESIAN_POINT ( 'NONE',  ( -3.860333265124638447E-07, 57.79843593325806950, 0.000000000000000000 ) ) ;
#42 = VERTEX_POINT ( 'NONE', #782 ) ;
#43 = LINE ( 'NONE', #820, #855 ) ;
#44 = EDGE_CURVE ( 'NONE', #92, #723, #802, .T. ) ;
#45 = EDGE_CURVE ( 'NONE', #953, #841, #55, .T. ) ;
#46 = DIRECTION ( 'NONE',  ( 4.263285714314105206E-14, -1.000000000000000000, -0.000000000000000000 ) ) ;
#47 = CONICAL_SURFACE ( 'NONE', #920, 1732.050807568796245, 1.047197551196577425 ) ;
#48 = DIRECTION ( 'NONE',  ( 4.263285714314105206E-14, -1.000000000000000000, -0.000000000000000000 ) ) ;
#49 = ORIENTED_EDGE ( 'NONE', *, *, #762, .F. ) ;
#50 = AXIS2_PLACEMENT_3D ( 'NONE', #143, #954, #1036 ) ;
#51 = FACE_OUTER_BOUND ( 'NONE', #642, .T. ) ;
#52 = ADVANCED_FACE ( 'NONE', ( #773 ), #714, .F. ) ;
#53 = DIRECTION ( 'NONE',  ( 4.263285714314105206E-14, -1.000000000000000000, -0.000000000000000000 ) ) ;
#54 = DIRECTION ( 'NONE',  ( 4.263285714314105206E-14, -1.000000000000000000, -0.000000000000000000 ) ) ;
#55 = LINE ( 'NONE', #540, #557 ) ;
#56 = CARTESIAN_POINT ( 'NONE',  ( -3.860330366757143113E-07, 50.99999996212437026, 0.000000000000000000 ) ) ;
#57 = ORIENTED_EDGE ( 'NONE', *, *, #762, .T. ) ;
#58 = DIRECTION ( 'NONE',  ( -4.263285714314105206E-14, 1.000000000000000000, 0.000000000000000000 ) ) ;
#59 = DIRECTION ( 'NONE',  ( 4.263285714314105206E-14, -1.000000000000000000, -0.000000000000000000 ) ) ;
#60 = FACE_OUTER_BOUND ( 'NONE', #645, .T. ) ;
#61 = DIRECTION ( 'NONE',  ( 1.000000000000000000, 4.231032868235399487E-14, 0.000000000000000000 ) ) ;
#62 = CARTESIAN_POINT ( 'NONE',  ( -3.860330715134641655E-07, 51.81715724964990955, 0.000000000000000000 ) ) ;
#63 = CIRCLE ( 'NONE', #285, 8.000000000001817213 ) ;
#64 = CONICAL_SURFACE ( 'NONE', #453, 10.00000000000191136, 0.7853981633979091326 ) ;
#65 = DIRECTION ( 'NONE',  ( 4.263285714314105206E-14, -1.000000000000000000, -0.000000000000000000 ) ) ;
#66 = DIRECTION ( 'NONE',  ( 4.263285714314105206E-14, -1.000000000000000000, -0.000000000000000000 ) ) ;
#67 = VECTOR ( 'NONE', #905, 1000.000000000000000 ) ;
#68 = DIRECTION ( 'NONE',  ( -1.000000000000000000, 0.000000000000000000, 0.000000000000000000 ) ) ;
#69 = EDGE_CURVE ( 'NONE', #317, #42, #179, .T. ) ;
#70 = AXIS2_PLACEMENT_3D ( 'NONE', #598, #59, #1028 ) ;
#71 = CIRCLE ( 'NONE', #150, 4.950000000000478018 ) ;
#72 = CIRCLE ( 'NONE', #961, 9.840000000001664304 ) ;
#73 = DIRECTION ( 'NONE',  ( -0.4999999999999112932, -0.8660254037844898889, 6.123233995736131249E-17 ) ) ;
#74 = ORIENTED_EDGE ( 'NONE', *, *, #44, .F. ) ;
#75 = DIRECTION ( 'NONE',  ( 1.000000000000000000, 4.263285714314105206E-14, 0.000000000000000000 ) ) ;
#76 = EDGE_CURVE ( 'NONE', #107, #191, #785, .T. ) ;
#77 =( LENGTH_UNIT ( ) NAMED_UNIT ( * ) SI_UNIT ( .MILLI., .METRE. ) );
#78 = ORIENTED_EDGE ( 'NONE', *, *, #343, .T. ) ;
#79 = DIRECTION ( 'NONE',  ( -4.263285714314105206E-14, 1.000000000000000000, 0.000000000000000000 ) ) ;
#80 = CIRCLE ( 'NONE', #653, 4.000000000000720313 ) ;
#81 = PRESENTATION_STYLE_ASSIGNMENT (( #546 ) ) ;
#82 = EDGE_LOOP ( 'NONE', ( #461, #878, #934, #999 ) ) ;
#83 = CONICAL_SURFACE ( 'NONE', #655, 5.067157287525802190, 0.7853981633975100074 ) ;
#84 = VECTOR ( 'NONE', #449, 1000.000000000000114 ) ;
#85 = DIRECTION ( 'NONE',  ( 4.263285714314105206E-14, -1.000000000000000000, -0.000000000000000000 ) ) ;
#86 = ORIENTED_EDGE ( 'NONE', *, *, #1016, .F. ) ;
#87 = AXIS2_PLACEMENT_3D ( 'NONE', #364, #914, #195 ) ;
#88 = EDGE_CURVE ( 'NONE', #1005, #846, #701, .T. ) ;
#89 = CARTESIAN_POINT ( 'NONE',  ( -3.860338466999999902E-07, 69.99999996212451947, 0.000000000000000000 ) ) ;
#90 = VERTEX_POINT ( 'NONE', #142 ) ;
#91 = CARTESIAN_POINT ( 'NONE',  ( -4.250000386034137989, 58.99999996212432762, 5.204748896377181555E-16 ) ) ;
#92 = VERTEX_POINT ( 'NONE', #617 ) ;
#93 = FACE_OUTER_BOUND ( 'NONE', #894, .T. ) ;
#94 = ORIENTED_EDGE ( 'NONE', *, *, #511, .T. ) ;
#95 = DIRECTION ( 'NONE',  ( -1.000000000000000000, -4.244970388271895228E-14, 0.000000000000000000 ) ) ;
#96 = ORIENTED_EDGE ( 'NONE', *, *, #44, .T. ) ;
#97 = CARTESIAN_POINT ( 'NONE',  ( -3.860333777385714281E-07, 58.99999996212451236, 0.000000000000000000 ) ) ;
#98 = AXIS2_PLACEMENT_3D ( 'NONE', #305, #1024, #229 ) ;
#99 = CIRCLE ( 'NONE', #1030, 5.000000000000820677 ) ;
#100 = PRODUCT_DEFINITION_FORMATION_WITH_SPECIFIED_SOURCE ( 'ANY', '', #536, .NOT_KNOWN. ) ;
#101 = ORIENTED_EDGE ( 'NONE', *, *, #840, .F. ) ;
#102 = CARTESIAN_POINT ( 'NONE',  ( -5.350000386033537225, 51.53431453717511346, 6.551860375438924439E-16 ) ) ;
#103 = ADVANCED_FACE ( 'NONE', ( #60 ), #942, .F. ) ;
#104 = LINE ( 'NONE', #347, #198 ) ;
#105 = ORIENTED_EDGE ( 'NONE', *, *, #425, .F. ) ;
#106 = DIRECTION ( 'NONE',  ( -4.263285714314105206E-14, 1.000000000000000000, 0.000000000000000000 ) ) ;
#107 = VERTEX_POINT ( 'NONE', #1029 ) ;
#108 = ADVANCED_FACE ( 'NONE', ( #877 ), #257, .T. ) ;
#109 = LINE ( 'NONE', #603, #639 ) ;
#110 = EDGE_LOOP ( 'NONE', ( #49, #748, #902, #204 ) ) ;
#111 = FACE_OUTER_BOUND ( 'NONE', #365, .T. ) ;
#112 = EDGE_LOOP ( 'NONE', ( #575, #808, #549, #713 ) ) ;
#113 = AXIS2_PLACEMENT_3D ( 'NONE', #132, #1022, #434 ) ;
#114 = COLOUR_RGB ( '',0.7921568627450980005, 0.8196078431372548767, 0.9333333333333333481 ) ;
#115 = ADVANCED_FACE ( 'NONE', ( #559 ), #503, .F. ) ;
#116 = AXIS2_PLACEMENT_3D ( 'NONE', #214, #707, #1031 ) ;
#117 = ORIENTED_EDGE ( 'NONE', *, *, #1023, .T. ) ;
#118 = CARTESIAN_POINT ( 'NONE',  ( 7.999999613970642187, 7.323760392829490762, 9.797174393181050245E-16 ) ) ;
#119 = CARTESIAN_POINT ( 'NONE',  ( -3.860317671553548692E-07, 21.22202014745575482, 0.000000000000000000 ) ) ;
#120 =( NAMED_UNIT ( * ) SI_UNIT ( $, .STERADIAN. ) SOLID_ANGLE_UNIT ( ) );
#121 = VERTEX_POINT ( 'NONE', #165 ) ;
#122 = CARTESIAN_POINT ( 'NONE',  ( -3.860734952571431500E-07, 999.9999999621239795, 0.000000000000000000 ) ) ;
#123 = ORIENTED_EDGE ( 'NONE', *, *, #574, .F. ) ;
#124 = DIRECTION ( 'NONE',  ( 1.000000000000000000, 4.267419750902693648E-14, 0.000000000000000000 ) ) ;
#125 = DIRECTION ( 'NONE',  ( -1.000000000000000000, -4.250072516142399880E-14, 0.000000000000000000 ) ) ;
#126 = PLANE ( 'NONE',  #654 ) ;
#127 = CARTESIAN_POINT ( 'NONE',  ( 7.999999613969903223, 16.33393940614492124, 1.102182119232743734E-15 ) ) ;
#128 = EDGE_CURVE ( 'NONE', #331, #561, #237, .T. ) ;
#129 = FACE_OUTER_BOUND ( 'NONE', #406, .T. ) ;
#130 = VECTOR ( 'NONE', #524, 1000.000000000000000 ) ;
#131 = AXIS2_PLACEMENT_3D ( 'NONE', #615, #342, #646 ) ;
#132 = CARTESIAN_POINT ( 'NONE',  ( -3.860330366757143113E-07, 50.99999996212451236, 0.000000000000000000 ) ) ;
#133 = CARTESIAN_POINT ( 'NONE',  ( 4.249999613967384349, 58.99999996212469000, 5.204748896377185499E-16 ) ) ;
#134 = CIRCLE ( 'NONE', #873, 3.845299461622054160 ) ;
#135 = CARTESIAN_POINT ( 'NONE',  ( -3.860337614342857639E-07, 67.99999996212447684, 0.000000000000000000 ) ) ;
#136 = FACE_OUTER_BOUND ( 'NONE', #994, .T. ) ;
#137 = CARTESIAN_POINT ( 'NONE',  ( -3.860333529711195744E-07, 58.41905246019339160, 0.000000000000000000 ) ) ;
#138 = ORIENTED_EDGE ( 'NONE', *, *, #797, .F. ) ;
#139 = CARTESIAN_POINT ( 'NONE',  ( 9.999999613968823198, 21.22202014745618115, 1.224646799147425437E-15 ) ) ;
#140 = CARTESIAN_POINT ( 'NONE',  ( -3.860330255993730977E-07, 50.74019234098913245, 0.000000000000000000 ) ) ;
#141 = DIRECTION ( 'NONE',  ( 4.263285714314105206E-14, -1.000000000000000000, -0.000000000000000000 ) ) ;
#142 = CARTESIAN_POINT ( 'NONE',  ( 9.839999613968627656, 50.99999996212478948, 0.000000000000000000 ) ) ;
#143 = CARTESIAN_POINT ( 'NONE',  ( -3.860334097132142894E-07, 59.74999996212446973, 0.000000000000000000 ) ) ;
#144 = ORIENTED_EDGE ( 'NONE', *, *, #746, .F. ) ;
#145 = AXIS2_PLACEMENT_3D ( 'NONE', #628, #471, #244 ) ;
#146 = CARTESIAN_POINT ( 'NONE',  ( -3.845299847655901271, 69.99999996212436315, 5.416183836588347061E-16 ) ) ;
#147 = EDGE_CURVE ( 'NONE', #42, #317, #607, .T. ) ;
#148 = FACE_OUTER_BOUND ( 'NONE', #19, .T. ) ;
#149 =( GEOMETRIC_REPRESENTATION_CONTEXT ( 3 ) GLOBAL_UNCERTAINTY_ASSIGNED_CONTEXT ( ( #796 ) ) GLOBAL_UNIT_ASSIGNED_CONTEXT ( ( #738, #569, #120 ) ) REPRESENTATION_CONTEXT ( 'NONE', 'WORKASPACE' ) );
#150 = AXIS2_PLACEMENT_3D ( 'NONE', #476, #85, #809 ) ;
#151 = CARTESIAN_POINT ( 'NONE',  ( 4.799999613967395717, 57.79843593325824713, 0.000000000000000000 ) ) ;
#152 = ADVANCED_FACE ( 'NONE', ( #734 ), #64, .T. ) ;
#153 = DIRECTION ( 'NONE',  ( 4.263285714314105206E-14, -1.000000000000000000, -0.000000000000000000 ) ) ;
#154 = DIRECTION ( 'NONE',  ( 4.263285714314105206E-14, -1.000000000000000000, -0.000000000000000000 ) ) ;
#155 = EDGE_LOOP ( 'NONE', ( #883, #1035, #499, #105 ) ) ;
#156 = CARTESIAN_POINT ( 'NONE',  ( 5.999999613967446521, 50.99999996212476816, 7.347880794884709410E-16 ) ) ;
#157 = ADVANCED_FACE ( 'NONE', ( #403 ), #693, .F. ) ;
#158 = APPLICATION_PROTOCOL_DEFINITION ( 'draft international standard', 'automotive_design', 1998, #976 ) ;
#159 = EDGE_LOOP ( 'NONE', ( #988, #1011, #181, #671 ) ) ;
#160 = CONICAL_SURFACE ( 'NONE', #438, 5.250000000000625278, 0.7853981633973979859 ) ;
#161 = CIRCLE ( 'NONE', #253, 0.3999999999999984679 ) ;
#162 = AXIS2_PLACEMENT_3D ( 'NONE', #743, #828, #1013 ) ;
#163 = CARTESIAN_POINT ( 'NONE',  ( -5.550000386033516087, 50.74019234098889086, 0.000000000000000000 ) ) ;
#164 = ORIENTED_EDGE ( 'NONE', *, *, #9, .F. ) ;
#165 = CARTESIAN_POINT ( 'NONE',  ( 4.749999613967384349, 56.99999996212468290, 0.000000000000000000 ) ) ;
#166 = EDGE_LOOP ( 'NONE', ( #24, #277 ) ) ;
#167 = FACE_OUTER_BOUND ( 'NONE', #351, .T. ) ;
#168 = EDGE_LOOP ( 'NONE', ( #1026, #117, #78 ) ) ;
#169 = CARTESIAN_POINT ( 'NONE',  ( -3.860330406030287875E-07, 51.08660250250289891, 0.000000000000000000 ) ) ;
#170 = EDGE_CURVE ( 'NONE', #313, #649, #588, .T. ) ;
#171 =( NAMED_UNIT ( * ) PLANE_ANGLE_UNIT ( ) SI_UNIT ( $, .RADIAN. ) );
#172 = VERTEX_POINT ( 'NONE', #810 ) ;
#173 = CARTESIAN_POINT ( 'NONE',  ( -6.000000386033518929, 50.99999996212424946, 0.000000000000000000 ) ) ;
#174 = ORIENTED_EDGE ( 'NONE', *, *, #308, .F. ) ;
#175 = CARTESIAN_POINT ( 'NONE',  ( -5.067157673558874365, 51.81715724964968928, 6.205477952944659972E-16 ) ) ;
#176 = EDGE_CURVE ( 'NONE', #363, #42, #553, .T. ) ;
#177 = ORIENTED_EDGE ( 'NONE', *, *, #22, .F. ) ;
#178 = CARTESIAN_POINT ( 'NONE',  ( 4.999999613967410994, 59.74999996212468290, 6.123233995737772080E-16 ) ) ;
#179 = CIRCLE ( 'NONE', #542, 5.250000000000625278 ) ;
#180 = CONICAL_SURFACE ( 'NONE', #696, 5.250000000000625278, 0.7853981633973979859 ) ;
#181 = ORIENTED_EDGE ( 'NONE', *, *, #374, .T. ) ;
#182 = AXIS2_PLACEMENT_3D ( 'NONE', #398, #895, #16 ) ;
#183 = VECTOR ( 'NONE', #316, 999.9999999999998863 ) ;
#184 = CYLINDRICAL_SURFACE ( 'NONE', #990, 4.950000000000488676 ) ;
#185 = ORIENTED_EDGE ( 'NONE', *, *, #500, .F. ) ;
#186 = DIRECTION ( 'NONE',  ( 4.263285714314105206E-14, -1.000000000000000000, -0.000000000000000000 ) ) ;
#187 = ADVANCED_FACE ( 'NONE', ( #93 ), #609, .F. ) ;
#188 = CARTESIAN_POINT ( 'NONE',  ( 4.999999613967410106, 67.99999996212469000, 0.000000000000000000 ) ) ;
#189 = ORIENTED_EDGE ( 'NONE', *, *, #821, .T. ) ;
#190 = CARTESIAN_POINT ( 'NONE',  ( -3.860337614342857639E-07, 67.99999996212447684, 0.000000000000000000 ) ) ;
#191 = VERTEX_POINT ( 'NONE', #724 ) ;
#192 = ADVANCED_FACE ( 'NONE', ( #332, #633 ), #240, .T. ) ;
#193 = CYLINDRICAL_SURFACE ( 'NONE', #830, 10.00000000000125056 ) ;
#194 = ORIENTED_EDGE ( 'NONE', *, *, #176, .F. ) ;
#195 = DIRECTION ( 'NONE',  ( 1.000000000000000000, 4.263285714294834912E-14, 0.000000000000000000 ) ) ;
#196 = ORIENTED_EDGE ( 'NONE', *, *, #556, .F. ) ;
#197 = AXIS2_PLACEMENT_3D ( 'NONE', #928, #863, #125 ) ;
#198 = VECTOR ( 'NONE', #981, 1000.000000000000000 ) ;
#199 = AXIS2_PLACEMENT_3D ( 'NONE', #635, #337, #95 ) ;
#200 = CARTESIAN_POINT ( 'NONE',  ( -3.860333528532544634E-07, 58.41905246019339870, 0.000000000000000000 ) ) ;
#201 = LINE ( 'NONE', #512, #67 ) ;
#202 = ORIENTED_EDGE ( 'NONE', *, *, #692, .T. ) ;
#203 = DIRECTION ( 'NONE',  ( 1.000000000000000000, 4.250072516142400511E-14, 0.000000000000000000 ) ) ;
#204 = ORIENTED_EDGE ( 'NONE', *, *, #962, .F. ) ;
#205 = DIRECTION ( 'NONE',  ( 0.3786864688382851618, 0.9255250176622944469, 4.637571719432681042E-17 ) ) ;
#206 = CARTESIAN_POINT ( 'NONE',  ( -4.250000386034140654, 58.99999996212432762, 0.000000000000000000 ) ) ;
#207 = ADVANCED_FACE ( 'NONE', ( #710 ), #472, .F. ) ;
#208 = ORIENTED_EDGE ( 'NONE', *, *, #847, .F. ) ;
#209 = DIRECTION ( 'NONE',  ( 4.263285714314105206E-14, -1.000000000000000000, -0.000000000000000000 ) ) ;
#210 = FACE_OUTER_BOUND ( 'NONE', #526, .T. ) ;
#211 = DIRECTION ( 'NONE',  ( 4.263285714314105206E-14, -1.000000000000000000, -0.000000000000000000 ) ) ;
#212 = ORIENTED_EDGE ( 'NONE', *, *, #430, .T. ) ;
#213 = ADVANCED_FACE ( 'NONE', ( #627 ), #769, .T. ) ;
#214 = CARTESIAN_POINT ( 'NONE',  ( -3.860308624000000066E-07, -3.787601340000000210E-08, 0.000000000000000000 ) ) ;
#215 = ORIENTED_EDGE ( 'NONE', *, *, #643, .F. ) ;
#216 = MANIFOLD_SOLID_BREP ( '±ÛÂà1', #268 ) ;
#217 = VECTOR ( 'NONE', #1001, 1000.000000000000114 ) ;
#218 = CARTESIAN_POINT ( 'NONE',  ( 4.249999613967382572, 58.99999996212469000, 0.000000000000000000 ) ) ;
#219 = VECTOR ( 'NONE', #442, 1000.000000000000114 ) ;
#220 = AXIS2_PLACEMENT_3D ( 'NONE', #494, #106, #995 ) ;
#221 = CARTESIAN_POINT ( 'NONE',  ( -4.750000386033968347, 56.99999996212427789, 6.123233995737564018E-16 ) ) ;
#222 = LINE ( 'NONE', #706, #130 ) ;
#223 = CIRCLE ( 'NONE', #770, 0.3999999999999993006 ) ;
#224 = DIRECTION ( 'NONE',  ( 1.000000000000000000, 4.163336342343361363E-14, 0.000000000000000000 ) ) ;
#225 = ORIENTED_EDGE ( 'NONE', *, *, #343, .F. ) ;
#226 = EDGE_CURVE ( 'NONE', #561, #315, #822, .T. ) ;
#227 = CARTESIAN_POINT ( 'NONE',  ( -4.800000386034128042, 58.41905246019319264, 5.878304635908243802E-16 ) ) ;
#228 = FACE_OUTER_BOUND ( 'NONE', #565, .T. ) ;
#229 = DIRECTION ( 'NONE',  ( 1.000000000000000000, 4.263285714314104575E-14, 0.000000000000000000 ) ) ;
#230 = DIRECTION ( 'NONE',  ( 4.263285714314105206E-14, -1.000000000000000000, -0.000000000000000000 ) ) ;
#231 = ORIENTED_EDGE ( 'NONE', *, *, #232, .F. ) ;
#232 = EDGE_CURVE ( 'NONE', #363, #264, #489, .T. ) ;
#233 = DIRECTION ( 'NONE',  ( 1.000000000000000000, 4.250072516142400511E-14, 0.000000000000000000 ) ) ;
#234 = DIRECTION ( 'NONE',  ( 1.000000000000000000, 4.263285714295151087E-14, 0.000000000000000000 ) ) ;
#235 = DIRECTION ( 'NONE',  ( 1.000000000000000000, 4.232725281382600255E-14, 0.000000000000000000 ) ) ;
#236 = CARTESIAN_POINT ( 'NONE',  ( -3.860330594550712588E-07, 51.53431453717526267, 0.000000000000000000 ) ) ;
#237 = CIRCLE ( 'NONE', #938, 3.845299461622054160 ) ;
#238 = SURFACE_SIDE_STYLE ('',( #893 ) ) ;
#239 = AXIS2_PLACEMENT_3D ( 'NONE', #151, #848, #306 ) ;
#240 = PLANE ( 'NONE',  #747 ) ;
#241 = DIRECTION ( 'NONE',  ( 1.000000000000000000, 4.330831846930461154E-14, 0.000000000000000000 ) ) ;
#242 = ADVANCED_FACE ( 'NONE', ( #755 ), #193, .T. ) ;
#243 = ORIENTED_EDGE ( 'NONE', *, *, #459, .F. ) ;
#244 = DIRECTION ( 'NONE',  ( 1.000000000000000000, 4.245096388672714226E-14, 0.000000000000000000 ) ) ;
#245 = ORIENTED_EDGE ( 'NONE', *, *, #232, .T. ) ;
#246 = LINE ( 'NONE', #173, #473 ) ;
#247 = ORIENTED_EDGE ( 'NONE', *, *, #927, .T. ) ;
#248 = DIRECTION ( 'NONE',  ( 1.000000000000000000, 4.263285714362954629E-14, 0.000000000000000000 ) ) ;
#249 = AXIS2_PLACEMENT_3D ( 'NONE', #137, #362, #700 ) ;
#250 = DIRECTION ( 'NONE',  ( 0.000000000000000000, 0.000000000000000000, 1.000000000000000000 ) ) ;
#251 = ORIENTED_EDGE ( 'NONE', *, *, #288, .T. ) ;
#252 = AXIS2_PLACEMENT_3D ( 'NONE', #586, #826, #18 ) ;
#253 = AXIS2_PLACEMENT_3D ( 'NONE', #379, #1010, #858 ) ;
#254 = FACE_OUTER_BOUND ( 'NONE', #168, .T. ) ;
#255 = ORIENTED_EDGE ( 'NONE', *, *, #491, .F. ) ;
#256 = ADVANCED_FACE ( 'NONE', ( #357 ), #184, .T. ) ;
#257 = CYLINDRICAL_SURFACE ( 'NONE', #675, 5.250000000000530243 ) ;
#258 = FILL_AREA_STYLE ('',( #712 ) ) ;
#259 = ORIENTED_EDGE ( 'NONE', *, *, #718, .F. ) ;
#260 = LINE ( 'NONE', #1051, #394 ) ;
#261 = ORIENTED_EDGE ( 'NONE', *, *, #294, .F. ) ;
#262 = EDGE_CURVE ( 'NONE', #760, #728, #733, .T. ) ;
#263 = ORIENTED_EDGE ( 'NONE', *, *, #128, .T. ) ;
#264 = VERTEX_POINT ( 'NONE', #1002 ) ;
#265 = EDGE_CURVE ( 'NONE', #728, #982, #804, .T. ) ;
#266 = ORIENTED_EDGE ( 'NONE', *, *, #629, .T. ) ;
#267 = DIRECTION ( 'NONE',  ( 4.263285714314105206E-14, -1.000000000000000000, -0.000000000000000000 ) ) ;
#268 = CLOSED_SHELL ( 'NONE', ( #966, #550, #814, #463, #887, #729, #157, #521, #916, #518, #1038, #861, #544, #360, #187, #115, #152, #242, #416, #213, #329, #17, #192, #103, #52, #256, #1049, #657, #108, #568, #207, #985, #495, #665, #709, #879, #2, #619, #581, #393 ) ) ;
#269 = AXIS2_PLACEMENT_3D ( 'NONE', #356, #681, #917 ) ;
#270 = AXIS2_PLACEMENT_3D ( 'NONE', #169, #482, #1 ) ;
#271 = CIRCLE ( 'NONE', #610, 6.000000000000483169 ) ;
#272 = ORIENTED_EDGE ( 'NONE', *, *, #680, .T. ) ;
#273 = EDGE_CURVE ( 'NONE', #315, #907, #993, .T. ) ;
#274 = DIRECTION ( 'NONE',  ( 4.263285714314105206E-14, -1.000000000000000000, -0.000000000000000000 ) ) ;
#275 = ORIENTED_EDGE ( 'NONE', *, *, #840, .T. ) ;
#276 = CARTESIAN_POINT ( 'NONE',  ( 4.999999613967410106, 67.99999996212469000, 0.000000000000000000 ) ) ;
#277 = ORIENTED_EDGE ( 'NONE', *, *, #128, .F. ) ;
#278 = DIRECTION ( 'NONE',  ( 4.263285714314105206E-14, -1.000000000000000000, -0.000000000000000000 ) ) ;
#279 = ORIENTED_EDGE ( 'NONE', *, *, #908, .F. ) ;
#280 = CARTESIAN_POINT ( 'NONE',  ( -3.860308624000000066E-07, -3.787601340000000210E-08, 0.000000000000000000 ) ) ;
#281 = DIRECTION ( 'NONE',  ( 1.000000000000000000, 4.205390244791836411E-14, 0.000000000000000000 ) ) ;
#282 = EDGE_LOOP ( 'NONE', ( #1032, #658, #196, #261 ) ) ;
#283 = CARTESIAN_POINT ( 'NONE',  ( 1.599999613967973744, 0.9237603928268499631, 1.959434878634387682E-16 ) ) ;
#284 = ORIENTED_EDGE ( 'NONE', *, *, #692, .F. ) ;
#285 = AXIS2_PLACEMENT_3D ( 'NONE', #450, #141, #370 ) ;
#286 = VECTOR ( 'NONE', #818, 1000.000000000000000 ) ;
#287 = VECTOR ( 'NONE', #514, 999.9999999999998863 ) ;
#288 = EDGE_CURVE ( 'NONE', #172, #264, #201, .T. ) ;
#289 = DIRECTION ( 'NONE',  ( 4.263285714314105206E-14, -1.000000000000000000, -0.000000000000000000 ) ) ;
#290 = CARTESIAN_POINT ( 'NONE',  ( 4.949999613969626289, -3.787580236735714125E-08, 0.000000000000000000 ) ) ;
#291 = ORIENTED_EDGE ( 'NONE', *, *, #680, .F. ) ;
#292 = DIRECTION ( 'NONE',  ( 1.000000000000000000, 4.163336342343361363E-14, 0.000000000000000000 ) ) ;
#293 = CARTESIAN_POINT ( 'NONE',  ( -3.860337614342857639E-07, 67.99999996212447684, 0.000000000000000000 ) ) ;
#294 = EDGE_CURVE ( 'NONE', #107, #1050, #104, .T. ) ;
#295 = CARTESIAN_POINT ( 'NONE',  ( 3.999999613967395895, 58.41905246019356213, 0.000000000000000000 ) ) ;
#296 = DIRECTION ( 'NONE',  ( 1.000000000000000000, 4.263285714362954629E-14, 0.000000000000000000 ) ) ;
#297 = ORIENTED_EDGE ( 'NONE', *, *, #170, .F. ) ;
#298 = LINE ( 'NONE', #1008, #885 ) ;
#299 = DIRECTION ( 'NONE',  ( 1.000000000000000000, 4.263285714343277282E-14, 0.000000000000000000 ) ) ;
#300 = DIRECTION ( 'NONE',  ( 4.263285714314105206E-14, -1.000000000000000000, -0.000000000000000000 ) ) ;
#301 = FACE_OUTER_BOUND ( 'NONE', #651, .T. ) ;
#302 = EDGE_CURVE ( 'NONE', #317, #92, #996, .T. ) ;
#303 = AXIS2_PLACEMENT_3D ( 'NONE', #140, #53, #667 ) ;
#304 = CARTESIAN_POINT ( 'NONE',  ( 5.999999613967444745, 50.99999996212476816, 7.347880794884707437E-16 ) ) ;
#305 = CARTESIAN_POINT ( 'NONE',  ( -3.860330406030287875E-07, 51.08660250250289891, 0.000000000000000000 ) ) ;
#306 = DIRECTION ( 'NONE',  ( -1.000000000000000000, 0.000000000000000000, 0.000000000000000000 ) ) ;
#307 = UNCERTAINTY_MEASURE_WITH_UNIT (LENGTH_MEASURE( 1.000000000000000082E-05 ), #77, 'distance_accuracy_value', 'NONE');
#308 = EDGE_CURVE ( 'NONE', #640, #90, #871, .T. ) ;
#309 = LINE ( 'NONE', #736, #335 ) ;
#310 = CARTESIAN_POINT ( 'NONE',  ( -3.860317671553548692E-07, 21.22202014745575482, 0.000000000000000000 ) ) ;
#311 = CARTESIAN_POINT ( 'NONE',  ( -10.00000038603211294, -3.787643972857143115E-08, 1.224646799147506493E-15 ) ) ;
#312 = DIRECTION ( 'NONE',  ( 4.263285714314105206E-14, -1.000000000000000000, -0.000000000000000000 ) ) ;
#313 = VERTEX_POINT ( 'NONE', #175 ) ;
#314 = DIRECTION ( 'NONE',  ( -0.7071067811868431141, -0.7071067811862519203, 8.659560562358922769E-17 ) ) ;
#315 = VERTEX_POINT ( 'NONE', #276 ) ;
#316 = DIRECTION ( 'NONE',  ( 0.7071067811865421326, -0.7071067811865530128, 0.000000000000000000 ) ) ;
#317 = VERTEX_POINT ( 'NONE', #487 ) ;
#318 = CONICAL_SURFACE ( 'NONE', #197, 8.000000000001463718, 0.3883766555390972819 ) ;
#319 = EDGE_CURVE ( 'NONE', #42, #723, #109, .T. ) ;
#320 = VECTOR ( 'NONE', #759, 1000.000000000000000 ) ;
#321 = CONICAL_SURFACE ( 'NONE', #834, 4.250000000000762945, 0.7853981633975142262 ) ;
#322 =( LENGTH_UNIT ( ) NAMED_UNIT ( * ) SI_UNIT ( .MILLI., .METRE. ) );
#323 = ORIENTED_EDGE ( 'NONE', *, *, #875, .F. ) ;
#324 = CARTESIAN_POINT ( 'NONE',  ( -3.860315587625068512E-07, 16.33393940614458018, 0.000000000000000000 ) ) ;
#325 = EDGE_CURVE ( 'NONE', #910, #1050, #507, .T. ) ;
#326 = ORIENTED_EDGE ( 'NONE', *, *, #962, .T. ) ;
#327 = SHAPE_DEFINITION_REPRESENTATION ( #462, #704 ) ;
#328 = EDGE_LOOP ( 'NONE', ( #215, #245, #889, #341 ) ) ;
#329 = ADVANCED_FACE ( 'NONE', ( #616 ), #441, .T. ) ;
#330 = DIRECTION ( 'NONE',  ( 4.263285714314105206E-14, -1.000000000000000000, -0.000000000000000000 ) ) ;
#331 = VERTEX_POINT ( 'NONE', #146 ) ;
#332 = FACE_BOUND ( 'NONE', #346, .T. ) ;
#333 = AXIS2_PLACEMENT_3D ( 'NONE', #585, #58, #844 ) ;
#334 = ORIENTED_EDGE ( 'NONE', *, *, #147, .F. ) ;
#335 = VECTOR ( 'NONE', #884, 1000.000000000000000 ) ;
#336 = AXIS2_PLACEMENT_3D ( 'NONE', #612, #952, #234 ) ;
#337 = DIRECTION ( 'NONE',  ( -4.263285714314105206E-14, 1.000000000000000000, 0.000000000000000000 ) ) ;
#338 = ORIENTED_EDGE ( 'NONE', *, *, #374, .F. ) ;
#339 = EDGE_CURVE ( 'NONE', #264, #506, #422, .T. ) ;
#340 = DIRECTION ( 'NONE',  ( 1.224646799147353207E-16, 5.221019203885406531E-30, 1.000000000000000000 ) ) ;
#341 = ORIENTED_EDGE ( 'NONE', *, *, #1006, .F. ) ;
#342 = DIRECTION ( 'NONE',  ( 4.263285714314105206E-14, -1.000000000000000000, -0.000000000000000000 ) ) ;
#343 = EDGE_CURVE ( 'NONE', #837, #841, #592, .T. ) ;
#344 = DIRECTION ( 'NONE',  ( 1.000000000000000000, 4.263285714333123696E-14, 0.000000000000000000 ) ) ;
#345 = EDGE_LOOP ( 'NONE', ( #669, #39, #123, #388 ) ) ;
#346 = EDGE_LOOP ( 'NONE', ( #371, #766 ) ) ;
#347 = CARTESIAN_POINT ( 'NONE',  ( 9.999999613970389944, -3.787558707142857305E-08, 0.000000000000000000 ) ) ;
#348 = ORIENTED_EDGE ( 'NONE', *, *, #439, .T. ) ;
#349 = CONICAL_SURFACE ( 'NONE', #386, 5.000000000001171507, 0.5235987755982390857 ) ;
#350 = DIRECTION ( 'NONE',  ( 1.000000000000000000, 4.250853923113962596E-14, 0.000000000000000000 ) ) ;
#351 = EDGE_LOOP ( 'NONE', ( #432, #297, #272, #721 ) ) ;
#352 = VECTOR ( 'NONE', #353, 1000.000000000000000 ) ;
#353 = DIRECTION ( 'NONE',  ( 4.263285714314105206E-14, -1.000000000000000000, -0.000000000000000000 ) ) ;
#354 = VERTEX_POINT ( 'NONE', #948 ) ;
#355 = CARTESIAN_POINT ( 'NONE',  ( -3.860333529711195744E-07, 58.41905246019339160, 0.000000000000000000 ) ) ;
#356 = CARTESIAN_POINT ( 'NONE',  ( -3.860309017825464322E-07, 0.9237603928267816844, 0.000000000000000000 ) ) ;
#357 = FACE_OUTER_BOUND ( 'NONE', #3, .T. ) ;
#358 = ORIENTED_EDGE ( 'NONE', *, *, #176, .T. ) ;
#359 = CARTESIAN_POINT ( 'NONE',  ( 4.799999613967422363, 58.41905246019359765, 0.000000000000000000 ) ) ;
#360 = ADVANCED_FACE ( 'NONE', ( #1017 ), #539, .T. ) ;
#361 = CARTESIAN_POINT ( 'NONE',  ( 7.999999613969904999, 16.33393940614492124, 9.797174393180618344E-16 ) ) ;
#362 = DIRECTION ( 'NONE',  ( 4.263285714314105206E-14, -1.000000000000000000, -0.000000000000000000 ) ) ;
#363 = VERTEX_POINT ( 'NONE', #221 ) ;
#364 = CARTESIAN_POINT ( 'NONE',  ( -3.860308624000000066E-07, -3.787601340000000210E-08, 0.000000000000000000 ) ) ;
#365 = EDGE_LOOP ( 'NONE', ( #823, #582, #493 ) ) ;
#366 = VECTOR ( 'NONE', #689, 1000.000000000000000 ) ;
#367 = CONICAL_SURFACE ( 'NONE', #918, 10.00000000000191136, 0.7853981633979091326 ) ;
#368 = EDGE_CURVE ( 'NONE', #965, #982, #161, .T. ) ;
#369 = CARTESIAN_POINT ( 'NONE',  ( -8.000000386033022437, 16.33393940614424267, 0.000000000000000000 ) ) ;
#370 = DIRECTION ( 'NONE',  ( 1.000000000000000000, 4.260914537867064336E-14, 0.000000000000000000 ) ) ;
#371 = ORIENTED_EDGE ( 'NONE', *, *, #380, .T. ) ;
#372 = LINE ( 'NONE', #791, #509 ) ;
#373 = LINE ( 'NONE', #361, #919 ) ;
#374 = EDGE_CURVE ( 'NONE', #664, #537, #833, .T. ) ;
#375 = DIRECTION ( 'NONE',  ( 1.000000000000000000, 4.232725281382600886E-14, 0.000000000000000000 ) ) ;
#376 = LINE ( 'NONE', #311, #767 ) ;
#377 = CARTESIAN_POINT ( 'NONE',  ( 5.349999613967417744, 51.53431453717557531, 0.000000000000000000 ) ) ;
#378 = CARTESIAN_POINT ( 'NONE',  ( -3.860332711564285924E-07, 56.49999996212447684, 0.000000000000000000 ) ) ;
#379 = CARTESIAN_POINT ( 'NONE',  ( 5.349999613967455936, 51.08660250250313339, 0.000000000000000000 ) ) ;
#380 = EDGE_CURVE ( 'NONE', #819, #515, #527, .T. ) ;
#381 = DIRECTION ( 'NONE',  ( -1.000000000000000000, -4.278984574075780433E-14, 0.000000000000000000 ) ) ;
#382 = CARTESIAN_POINT ( 'NONE',  ( -5.067157673558873476, 51.81715724964968928, 0.000000000000000000 ) ) ;
#383 = AXIS2_PLACEMENT_3D ( 'NONE', #359, #1004, #431 ) ;
#384 = DIRECTION ( 'NONE',  ( 4.263285714314105206E-14, -1.000000000000000000, -0.000000000000000000 ) ) ;
#385 = DIRECTION ( 'NONE',  ( 1.000000000000000000, 4.229421046190569046E-14, 0.000000000000000000 ) ) ;
#386 = AXIS2_PLACEMENT_3D ( 'NONE', #190, #278, #292 ) ;
#387 = CARTESIAN_POINT ( 'NONE',  ( -3.860308624000000066E-07, -3.787601340000000210E-08, 0.000000000000000000 ) ) ;
#388 = ORIENTED_EDGE ( 'NONE', *, *, #273, .F. ) ;
#389 = FACE_OUTER_BOUND ( 'NONE', #742, .T. ) ;
#390 = DIRECTION ( 'NONE',  ( -4.263285714314105206E-14, 1.000000000000000000, 0.000000000000000000 ) ) ;
#391 = EDGE_CURVE ( 'NONE', #172, #12, #408, .T. ) ;
#392 = ORIENTED_EDGE ( 'NONE', *, *, #718, .T. ) ;
#393 = ADVANCED_FACE ( 'NONE', ( #228 ), #594, .T. ) ;
#394 = VECTOR ( 'NONE', #890, 1000.000000000000000 ) ;
#395 = DIRECTION ( 'NONE',  ( 4.263285714314105206E-14, -1.000000000000000000, -0.000000000000000000 ) ) ;
#396 = CONICAL_SURFACE ( 'NONE', #220, 5.067157287525802190, 0.7853981633975100074 ) ;
#397 = ORIENTED_EDGE ( 'NONE', *, *, #88, .F. ) ;
#398 = CARTESIAN_POINT ( 'NONE',  ( -3.860330715134641655E-07, 51.81715724964990955, 0.000000000000000000 ) ) ;
#399 = CARTESIAN_POINT ( 'NONE',  ( -5.250000386033897293, 56.49999996212425657, 6.429395695524371320E-16 ) ) ;
#400 = EDGE_CURVE ( 'NONE', #846, #464, #63, .T. ) ;
#401 = ORIENTED_EDGE ( 'NONE', *, *, #477, .F. ) ;
#402 = DIRECTION ( 'NONE',  ( -1.000000000000000000, -4.262567288150432634E-14, 0.000000000000000000 ) ) ;
#403 = FACE_OUTER_BOUND ( 'NONE', #159, .T. ) ;
#404 = APPLICATION_PROTOCOL_DEFINITION ( 'draft international standard', 'automotive_design', 1998, #1037 ) ;
#405 = EDGE_CURVE ( 'NONE', #1052, #982, #780, .T. ) ;
#406 = EDGE_LOOP ( 'NONE', ( #247, #358, #613, #86 ) ) ;
#407 = CARTESIAN_POINT ( 'NONE',  ( 5.067156901492730903, 51.81715724965012271, 0.000000000000000000 ) ) ;
#408 = CIRCLE ( 'NONE', #249, 4.000000000000748734 ) ;
#409 = DIRECTION ( 'NONE',  ( -1.000000000000000000, -4.278984574075780433E-14, 0.000000000000000000 ) ) ;
#410 = EDGE_LOOP ( 'NONE', ( #194, #931, #601, #334 ) ) ;
#411 = AXIS2_PLACEMENT_3D ( 'NONE', #839, #898, #577 ) ;
#412 = AXIS2_PLACEMENT_3D ( 'NONE', #377, #614, #68 ) ;
#413 = DIRECTION ( 'NONE',  ( -1.000000000000000000, -4.244970388271895228E-14, 0.000000000000000000 ) ) ;
#414 = ORIENTED_EDGE ( 'NONE', *, *, #319, .T. ) ;
#415 = DIRECTION ( 'NONE',  ( 1.000000000000000000, 0.000000000000000000, -1.224646799147353454E-16 ) ) ;
#416 = ADVANCED_FACE ( 'NONE', ( #535 ), #318, .T. ) ;
#417 = ORIENTED_EDGE ( 'NONE', *, *, #302, .T. ) ;
#418 = DIRECTION ( 'NONE',  ( 4.263285714314105206E-14, -1.000000000000000000, -0.000000000000000000 ) ) ;
#419 = ORIENTED_EDGE ( 'NONE', *, *, #703, .T. ) ;
#420 = DIRECTION ( 'NONE',  ( 1.000000000000000000, 4.336808689941206156E-14, 0.000000000000000000 ) ) ;
#421 = AXIS2_PLACEMENT_3D ( 'NONE', #324, #547, #964 ) ;
#422 = CIRCLE ( 'NONE', #14, 4.000000000000720313 ) ;
#423 = CIRCLE ( 'NONE', #131, 1.599999999998875211 ) ;
#424 = AXIS2_PLACEMENT_3D ( 'NONE', #135, #600, #224 ) ;
#425 = EDGE_CURVE ( 'NONE', #664, #354, #1034, .T. ) ;
#426 = ORIENTED_EDGE ( 'NONE', *, *, #972, .F. ) ;
#427 = CARTESIAN_POINT ( 'NONE',  ( -3.860337614342857639E-07, 67.99999996212447684, 0.000000000000000000 ) ) ;
#428 = DIRECTION ( 'NONE',  ( 4.263285714314105206E-14, -1.000000000000000000, -0.000000000000000000 ) ) ;
#429 = ORIENTED_EDGE ( 'NONE', *, *, #945, .F. ) ;
#430 = EDGE_CURVE ( 'NONE', #506, #264, #80, .T. ) ;
#431 = DIRECTION ( 'NONE',  ( -1.000000000000000000, 0.000000000000000000, 0.000000000000000000 ) ) ;
#432 = ORIENTED_EDGE ( 'NONE', *, *, #629, .F. ) ;
#433 = CARTESIAN_POINT ( 'NONE',  ( 3.845299075588207494, 69.99999996212469000, 0.000000000000000000 ) ) ;
#434 = DIRECTION ( 'NONE',  ( 1.000000000000000000, 4.278984574075779802E-14, 0.000000000000000000 ) ) ;
#435 = ORIENTED_EDGE ( 'NONE', *, *, #891, .T. ) ;
#436 = CARTESIAN_POINT ( 'NONE',  ( -3.860308624000000066E-07, -3.787601340000000210E-08, 0.000000000000000000 ) ) ;
#437 = AXIS2_PLACEMENT_3D ( 'NONE', #227, #685, #593 ) ;
#438 = AXIS2_PLACEMENT_3D ( 'NONE', #378, #289, #857 ) ;
#439 = EDGE_CURVE ( 'NONE', #191, #107, #868, .T. ) ;
#440 = CARTESIAN_POINT ( 'NONE',  ( -8.000000386032990463, 7.323760392828806864, 0.000000000000000000 ) ) ;
#441 = CYLINDRICAL_SURFACE ( 'NONE', #336, 10.00000000000125056 ) ;
#442 = DIRECTION ( 'NONE',  ( 0.7071067811865640040, 0.7071067811865311414, 8.659560562355503550E-17 ) ) ;
#443 = LINE ( 'NONE', #531, #788 ) ;
#444 = EDGE_CURVE ( 'NONE', #640, #191, #686, .T. ) ;
#445 = CARTESIAN_POINT ( 'NONE',  ( -3.860330596849870233E-07, 51.53431453717534083, 0.000000000000000000 ) ) ;
#446 = DIRECTION ( 'NONE',  ( 4.263285714314105206E-14, -1.000000000000000000, -0.000000000000000000 ) ) ;
#447 = DIRECTION ( 'NONE',  ( -4.263285714314105206E-14, 1.000000000000000000, 0.000000000000000000 ) ) ;
#448 = DIRECTION ( 'NONE',  ( 1.000000000000000000, 4.263285714343277282E-14, 0.000000000000000000 ) ) ;
#449 = DIRECTION ( 'NONE',  ( 0.8660254037843730934, 0.5000000000001132427, 1.060575238724852681E-16 ) ) ;
#450 = CARTESIAN_POINT ( 'NONE',  ( -3.860311746328321785E-07, 7.323760392829149701, 0.000000000000000000 ) ) ;
#451 = ORIENTED_EDGE ( 'NONE', *, *, #899, .T. ) ;
#452 = FACE_OUTER_BOUND ( 'NONE', #82, .T. ) ;
#453 = AXIS2_PLACEMENT_3D ( 'NONE', #888, #727, #1048 ) ;
#454 = CIRCLE ( 'NONE', #28, 4.750000000000676792 ) ;
#455 = AXIS2_PLACEMENT_3D ( 'NONE', #777, #65, #517 ) ;
#456 = DIRECTION ( 'NONE',  ( 4.263285714314105206E-14, -1.000000000000000000, -0.000000000000000000 ) ) ;
#457 = DIRECTION ( 'NONE',  ( -1.000000000000000000, -4.263285714314105206E-14, 0.000000000000000000 ) ) ;
#458 = CYLINDRICAL_SURFACE ( 'NONE', #719, 8.000000000001641354 ) ;
#459 = EDGE_CURVE ( 'NONE', #331, #630, #705, .T. ) ;
#460 =( NAMED_UNIT ( * ) SI_UNIT ( $, .STERADIAN. ) SOLID_ANGLE_UNIT ( ) );
#461 = ORIENTED_EDGE ( 'NONE', *, *, #288, .F. ) ;
#462 = PRODUCT_DEFINITION_SHAPE ( 'NONE', 'NONE',  #897 ) ;
#463 = ADVANCED_FACE ( 'NONE', ( #389 ), #764, .T. ) ;
#464 = VERTEX_POINT ( 'NONE', #440 ) ;
#465 = DIRECTION ( 'NONE',  ( -4.263285714314105206E-14, 1.000000000000000000, 0.000000000000000000 ) ) ;
#466 = ORIENTED_EDGE ( 'NONE', *, *, #400, .F. ) ;
#467 = EDGE_CURVE ( 'NONE', #172, #664, #622, .T. ) ;
#468 = VECTOR ( 'NONE', #530, 1000.000000000000000 ) ;
#469 = AXIS2_PLACEMENT_3D ( 'NONE', #200, #849, #672 ) ;
#470 = AXIS2_PLACEMENT_3D ( 'NONE', #859, #447, #381 ) ;
#471 = DIRECTION ( 'NONE',  ( 4.263285714314105206E-14, -1.000000000000000000, -0.000000000000000000 ) ) ;
#472 = TOROIDAL_SURFACE ( 'NONE', #959, 4.800000000000722800, 0.8000000000000024869 ) ;
#473 = VECTOR ( 'NONE', #1033, 1000.000000000000227 ) ;
#474 = AXIS2_PLACEMENT_3D ( 'NONE', #236, #541, #869 ) ;
#475 = EDGE_LOOP ( 'NONE', ( #519, #174 ) ) ;
#476 = CARTESIAN_POINT ( 'NONE',  ( -3.860330594550712588E-07, 51.53431453717526267, 0.000000000000000000 ) ) ;
#477 = EDGE_CURVE ( 'NONE', #563, #910, #772, .T. ) ;
#478 = CARTESIAN_POINT ( 'NONE',  ( -3.860333528532544634E-07, 58.41905246019339870, 0.000000000000000000 ) ) ;
#479 = CARTESIAN_POINT ( 'NONE',  ( 0.000000000000000000, 0.000000000000000000, 0.000000000000000000 ) ) ;
#480 = DIRECTION ( 'NONE',  ( -4.263285714314105206E-14, 1.000000000000000000, 0.000000000000000000 ) ) ;
#481 = ORIENTED_EDGE ( 'NONE', *, *, #972, .T. ) ;
#482 = DIRECTION ( 'NONE',  ( 4.263285714314105206E-14, -1.000000000000000000, -0.000000000000000000 ) ) ;
#483 = ORIENTED_EDGE ( 'NONE', *, *, #899, .F. ) ;
#484 = DIRECTION ( 'NONE',  ( 1.000000000000000000, 4.263285714294834912E-14, 0.000000000000000000 ) ) ;
#485 = AXIS2_PLACEMENT_3D ( 'NONE', #673, #446, #299 ) ;
#486 = AXIS2_PLACEMENT_3D ( 'NONE', #1040, #66, #949 ) ;
#487 = CARTESIAN_POINT ( 'NONE',  ( 5.249999613967354151, 56.49999996212470421, 0.000000000000000000 ) ) ;
#488 = ORIENTED_EDGE ( 'NONE', *, *, #647, .F. ) ;
#489 = CIRCLE ( 'NONE', #252, 0.8000000000000029310 ) ;
#490 = AXIS2_PLACEMENT_3D ( 'NONE', #38, #589, #579 ) ;
#491 = EDGE_CURVE ( 'NONE', #464, #846, #27, .T. ) ;
#492 = DIRECTION ( 'NONE',  ( 1.000000000000000000, 4.330831846930461154E-14, 0.000000000000000000 ) ) ;
#493 = ORIENTED_EDGE ( 'NONE', *, *, #746, .T. ) ;
#494 = CARTESIAN_POINT ( 'NONE',  ( -3.860330715134641655E-07, 51.81715724964990955, 0.000000000000000000 ) ) ;
#495 = ADVANCED_FACE ( 'NONE', ( #862 ), #608, .F. ) ;
#496 = PRESENTATION_STYLE_ASSIGNMENT (( #30 ) ) ;
#497 = ORIENTED_EDGE ( 'NONE', *, *, #467, .F. ) ;
#498 = FACE_OUTER_BOUND ( 'NONE', #345, .T. ) ;
#499 = ORIENTED_EDGE ( 'NONE', *, *, #574, .T. ) ;
#500 = EDGE_CURVE ( 'NONE', #760, #965, #745, .T. ) ;
#501 = CARTESIAN_POINT ( 'NONE',  ( -3.860330403678280669E-07, 51.08660250250290602, 0.000000000000000000 ) ) ;
#502 = ORIENTED_EDGE ( 'NONE', *, *, #956, .T. ) ;
#503 = CONICAL_SURFACE ( 'NONE', #26, 6.000000000000482281, 1.047197551196509480 ) ;
#504 = DIRECTION ( 'NONE',  ( 1.000000000000000000, 4.163336342343361363E-14, 0.000000000000000000 ) ) ;
#505 = AXIS2_PLACEMENT_3D ( 'NONE', #501, #831, #281 ) ;
#506 = VERTEX_POINT ( 'NONE', #937 ) ;
#507 = CIRCLE ( 'NONE', #749, 10.00000000000058975 ) ;
#508 = AXIS2_PLACEMENT_3D ( 'NONE', #979, #566, #484 ) ;
#509 = VECTOR ( 'NONE', #935, 1000.000000000000114 ) ;
#510 = DIRECTION ( 'NONE',  ( 4.263285714314105206E-14, -1.000000000000000000, -0.000000000000000000 ) ) ;
#511 = EDGE_CURVE ( 'NONE', #90, #107, #298, .T. ) ;
#512 = CARTESIAN_POINT ( 'NONE',  ( -4.000000386031596911, -3.787618393142857372E-08, 4.898587196590312130E-16 ) ) ;
#513 = ORIENTED_EDGE ( 'NONE', *, *, #875, .T. ) ;
#514 = DIRECTION ( 'NONE',  ( -0.7071067811866095232, 0.7071067811864856223, 0.000000000000000000 ) ) ;
#515 = VERTEX_POINT ( 'NONE', #304 ) ;
#516 = DIRECTION ( 'NONE',  ( 4.263285714314105206E-14, -1.000000000000000000, -0.000000000000000000 ) ) ;
#517 = DIRECTION ( 'NONE',  ( 1.000000000000000000, 4.262269790586635715E-14, 0.000000000000000000 ) ) ;
#518 = ADVANCED_FACE ( 'NONE', ( #129 ), #160, .T. ) ;
#519 = ORIENTED_EDGE ( 'NONE', *, *, #1042, .F. ) ;
#520 = DIRECTION ( 'NONE',  ( 4.263285714314105206E-14, -1.000000000000000000, -0.000000000000000000 ) ) ;
#521 = ADVANCED_FACE ( 'NONE', ( #210 ), #758, .T. ) ;
#522 = DIRECTION ( 'NONE',  ( 1.000000000000000000, 4.163336342343361363E-14, 0.000000000000000000 ) ) ;
#523 = DIRECTION ( 'NONE',  ( 1.000000000000000000, 4.336808689941237079E-14, 0.000000000000000000 ) ) ;
#524 = DIRECTION ( 'NONE',  ( 4.263285714314105206E-14, -1.000000000000000000, -0.000000000000000000 ) ) ;
#525 = CARTESIAN_POINT ( 'NONE',  ( -3.860333268324023237E-07, 57.79843593325804818, 0.000000000000000000 ) ) ;
#526 = EDGE_LOOP ( 'NONE', ( #275, #251, #829, #936 ) ) ;
#527 = CIRCLE ( 'NONE', #113, 6.000000000000483169 ) ;
#528 = EDGE_CURVE ( 'NONE', #1005, #1050, #373, .T. ) ;
#529 = DIRECTION ( 'NONE',  ( 1.000000000000000000, 4.336808689941237079E-14, 0.000000000000000000 ) ) ;
#530 = DIRECTION ( 'NONE',  ( 4.263285714314105206E-14, -1.000000000000000000, -0.000000000000000000 ) ) ;
#531 = CARTESIAN_POINT ( 'NONE',  ( -3.860308624000000066E-07, -3.787601340000000210E-08, 0.000000000000000000 ) ) ;
#532 = ORIENTED_EDGE ( 'NONE', *, *, #265, .F. ) ;
#533 = CARTESIAN_POINT ( 'NONE',  ( -8.000000386033024213, 16.33393940614424267, 0.000000000000000000 ) ) ;
#534 = FILL_AREA_STYLE ('',( #947 ) ) ;
#535 = FACE_OUTER_BOUND ( 'NONE', #632, .T. ) ;
#536 = PRODUCT ( '99688-SI16-M10+S9MT1603-090', '99688-SI16-M10+S9MT1603-090', '', ( #977 ) ) ;
#537 = VERTEX_POINT ( 'NONE', #218 ) ;
#538 = CARTESIAN_POINT ( 'NONE',  ( -3.860330596849870233E-07, 51.53431453717534083, 0.000000000000000000 ) ) ;
#539 = CYLINDRICAL_SURFACE ( 'NONE', #70, 4.950000000000488676 ) ;
#540 = CARTESIAN_POINT ( 'NONE',  ( -3.860308624000000066E-07, -3.787601340000000210E-08, 0.000000000000000000 ) ) ;
#541 = DIRECTION ( 'NONE',  ( 4.263285714314105206E-14, -1.000000000000000000, -0.000000000000000000 ) ) ;
#542 = AXIS2_PLACEMENT_3D ( 'NONE', #864, #545, #385 ) ;
#543 = CIRCLE ( 'NONE', #424, 5.000000000001171507 ) ;
#544 = ADVANCED_FACE ( 'NONE', ( #1015 ), #853, .F. ) ;
#545 = DIRECTION ( 'NONE',  ( 4.263285714314105206E-14, -1.000000000000000000, -0.000000000000000000 ) ) ;
#546 = SURFACE_STYLE_USAGE ( .BOTH. , #238 ) ;
#547 = DIRECTION ( 'NONE',  ( -4.263285714314105206E-14, 1.000000000000000000, 0.000000000000000000 ) ) ;
#548 =( NAMED_UNIT ( * ) PLANE_ANGLE_UNIT ( ) SI_UNIT ( $, .RADIAN. ) );
#549 = ORIENTED_EDGE ( 'NONE', *, *, #76, .F. ) ;
#550 = ADVANCED_FACE ( 'NONE', ( #136 ), #989, .T. ) ;
#551 = DIRECTION ( 'NONE',  ( -1.000000000000000000, -4.245096388672714226E-14, 0.000000000000000000 ) ) ;
#552 = EDGE_LOOP ( 'NONE', ( #243, #263, #997, #429 ) ) ;
#553 = LINE ( 'NONE', #399, #732 ) ;
#554 = FACE_OUTER_BOUND ( 'NONE', #155, .T. ) ;
#555 = ORIENTED_EDGE ( 'NONE', *, *, #273, .T. ) ;
#556 = EDGE_CURVE ( 'NONE', #1050, #910, #943, .T. ) ;
#557 = VECTOR ( 'NONE', #620, 1000.000000000000000 ) ;
#558 = VECTOR ( 'NONE', #765, 1000.000000000000000 ) ;
#559 = FACE_OUTER_BOUND ( 'NONE', #690, .T. ) ;
#560 = CIRCLE ( 'NONE', #474, 4.950000000000478018 ) ;
#561 = VERTEX_POINT ( 'NONE', #433 ) ;
#562 = CARTESIAN_POINT ( 'NONE',  ( -3.860734952571431500E-07, 999.9999999621239795, 0.000000000000000000 ) ) ;
#563 = VERTEX_POINT ( 'NONE', #369 ) ;
#564 = CARTESIAN_POINT ( 'NONE',  ( -3.860332711564285924E-07, 56.49999996212447684, 0.000000000000000000 ) ) ;
#565 = EDGE_LOOP ( 'NONE', ( #208, #513, #1045, #255 ) ) ;
#566 = DIRECTION ( 'NONE',  ( 4.263285714314105206E-14, -1.000000000000000000, -0.000000000000000000 ) ) ;
#567 = ORIENTED_EDGE ( 'NONE', *, *, #459, .T. ) ;
#568 = ADVANCED_FACE ( 'NONE', ( #763 ), #180, .T. ) ;
#569 =( NAMED_UNIT ( * ) PLANE_ANGLE_UNIT ( ) SI_UNIT ( $, .RADIAN. ) );
#570 = ORIENTED_EDGE ( 'NONE', *, *, #776, .T. ) ;
#571 = CARTESIAN_POINT ( 'NONE',  ( -4.950000386033537758, 51.53431453717504951, 6.062001655780001990E-16 ) ) ;
#572 = ORIENTED_EDGE ( 'NONE', *, *, #302, .F. ) ;
#573 = CARTESIAN_POINT ( 'NONE',  ( -5.350000386033537225, 51.08660250250267154, 6.551860375438948104E-16 ) ) ;
#574 = EDGE_CURVE ( 'NONE', #907, #354, #99, .T. ) ;
#575 = ORIENTED_EDGE ( 'NONE', *, *, #1042, .T. ) ;
#576 = CARTESIAN_POINT ( 'NONE',  ( -3.860330255993730977E-07, 50.74019234098913245, 0.000000000000000000 ) ) ;
#577 = DIRECTION ( 'NONE',  ( 1.000000000000000000, 4.231032868235399487E-14, 0.000000000000000000 ) ) ;
#578 = ORIENTED_EDGE ( 'NONE', *, *, #927, .F. ) ;
#579 = DIRECTION ( 'NONE',  ( 1.000000000000000000, 4.244970388271895228E-14, 0.000000000000000000 ) ) ;
#580 = ORIENTED_EDGE ( 'NONE', *, *, #556, .T. ) ;
#581 = ADVANCED_FACE ( 'NONE', ( #754 ), #886, .T. ) ;
#582 = ORIENTED_EDGE ( 'NONE', *, *, #45, .T. ) ;
#583 = CARTESIAN_POINT ( 'NONE',  ( -1.600000386029776678, 0.9237603928267135167, 0.000000000000000000 ) ) ;
#584 = ORIENTED_EDGE ( 'NONE', *, *, #811, .F. ) ;
#585 = CARTESIAN_POINT ( 'NONE',  ( -3.860309017825464322E-07, 0.9237603928267816844, 0.000000000000000000 ) ) ;
#586 = CARTESIAN_POINT ( 'NONE',  ( -4.800000386034049882, 57.79843593325784923, 5.878304635908180694E-16 ) ) ;
#587 = EDGE_LOOP ( 'NONE', ( #739, #21, #37, #451 ) ) ;
#588 = CIRCLE ( 'NONE', #145, 5.067157287525802190 ) ;
#589 = DIRECTION ( 'NONE',  ( 4.263285714314105206E-14, -1.000000000000000000, -0.000000000000000000 ) ) ;
#590 = AXIS2_PLACEMENT_3D ( 'NONE', #576, #186, #350 ) ;
#591 = ORIENTED_EDGE ( 'NONE', *, *, #825, .T. ) ;
#592 = CIRCLE ( 'NONE', #455, 1.599999999998875211 ) ;
#593 = DIRECTION ( 'NONE',  ( 1.000000000000000000, 0.000000000000000000, -1.224646799147352714E-16 ) ) ;
#594 = CYLINDRICAL_SURFACE ( 'NONE', #485, 8.000000000001641354 ) ;
#595 = ORIENTED_EDGE ( 'NONE', *, *, #945, .T. ) ;
#596 = DIRECTION ( 'NONE',  ( 1.000000000000000000, 4.205390244791836411E-14, 0.000000000000000000 ) ) ;
#597 = VERTEX_POINT ( 'NONE', #571 ) ;
#598 = CARTESIAN_POINT ( 'NONE',  ( -3.860308624000000066E-07, -3.787601340000000210E-08, 0.000000000000000000 ) ) ;
#599 = DIRECTION ( 'NONE',  ( 4.263285714314105206E-14, -1.000000000000000000, -0.000000000000000000 ) ) ;
#600 = DIRECTION ( 'NONE',  ( 4.263285714314105206E-14, -1.000000000000000000, -0.000000000000000000 ) ) ;
#601 = ORIENTED_EDGE ( 'NONE', *, *, #1016, .T. ) ;
#602 = DIRECTION ( 'NONE',  ( 4.263285714314105206E-14, -1.000000000000000000, -0.000000000000000000 ) ) ;
#603 = CARTESIAN_POINT ( 'NONE',  ( -5.250000386031392630, -3.787623722250000484E-08, 6.429395695524253977E-16 ) ) ;
#604 = DIRECTION ( 'NONE',  ( 1.000000000000000000, 4.232725281382600886E-14, 0.000000000000000000 ) ) ;
#605 = DIRECTION ( 'NONE',  ( 1.000000000000000000, 4.263285714314105206E-14, 0.000000000000000000 ) ) ;
#606 = ORIENTED_EDGE ( 'NONE', *, *, #625, .T. ) ;
#607 = CIRCLE ( 'NONE', #744, 5.250000000000625278 ) ;
#608 = TOROIDAL_SURFACE ( 'NONE', #469, 4.800000000000775202, 0.8000000000000122569 ) ;
#609 = TOROIDAL_SURFACE ( 'NONE', #270, 5.350000000000497025, 0.3999999999999980793 ) ;
#610 = AXIS2_PLACEMENT_3D ( 'NONE', #25, #267, #761 ) ;
#611 = DIRECTION ( 'NONE',  ( 1.000000000000000000, 4.229421046190569046E-14, 0.000000000000000000 ) ) ;
#612 = CARTESIAN_POINT ( 'NONE',  ( -3.860308624000000066E-07, -3.787601340000000210E-08, 0.000000000000000000 ) ) ;
#613 = ORIENTED_EDGE ( 'NONE', *, *, #69, .F. ) ;
#614 = DIRECTION ( 'NONE',  ( 0.000000000000000000, 0.000000000000000000, -1.000000000000000000 ) ) ;
#615 = CARTESIAN_POINT ( 'NONE',  ( -3.860309017825464322E-07, 0.9237603928267816844, 0.000000000000000000 ) ) ;
#616 = FACE_OUTER_BOUND ( 'NONE', #798, .T. ) ;
#617 = CARTESIAN_POINT ( 'NONE',  ( 5.249999613967355039, 51.99999996212473974, 6.429395695524136634E-16 ) ) ;
#618 = CARTESIAN_POINT ( 'NONE',  ( -3.860332924728571489E-07, 56.99999996212447684, 0.000000000000000000 ) ) ;
#619 = ADVANCED_FACE ( 'NONE', ( #254 ), #958, .T. ) ;
#620 = DIRECTION ( 'NONE',  ( 0.8660254037844071773, 0.5000000000000545120, 1.060575238724894466E-16 ) ) ;
#621 = EDGE_LOOP ( 'NONE', ( #164, #595, #555, #968 ) ) ;
#622 = CIRCLE ( 'NONE', #437, 0.8000000000000124789 ) ;
#623 = CIRCLE ( 'NONE', #768, 8.000000000001461942 ) ;
#624 = AXIS2_PLACEMENT_3D ( 'NONE', #355, #274, #420 ) ;
#625 = EDGE_CURVE ( 'NONE', #597, #728, #260, .T. ) ;
#626 = ORIENTED_EDGE ( 'NONE', *, *, #444, .F. ) ;
#627 = FACE_OUTER_BOUND ( 'NONE', #812, .T. ) ;
#628 = CARTESIAN_POINT ( 'NONE',  ( -3.860330715134641655E-07, 51.81715724964990955, 0.000000000000000000 ) ) ;
#629 = EDGE_CURVE ( 'NONE', #649, #92, #983, .T. ) ;
#630 = VERTEX_POINT ( 'NONE', #813 ) ;
#631 = DIRECTION ( 'NONE',  ( 0.7071067811865608954, 0.7071067811865340280, 8.659560562355466572E-17 ) ) ;
#632 = EDGE_LOOP ( 'NONE', ( #488, #832, #580, #401 ) ) ;
#633 = FACE_OUTER_BOUND ( 'NONE', #475, .T. ) ;
#634 = ORIENTED_EDGE ( 'NONE', *, *, #847, .T. ) ;
#635 = CARTESIAN_POINT ( 'NONE',  ( -3.860333777385714281E-07, 58.99999996212451236, 0.000000000000000000 ) ) ;
#636 = ORIENTED_EDGE ( 'NONE', *, *, #781, .T. ) ;
#637 = AXIS2_PLACEMENT_3D ( 'NONE', #850, #54, #375 ) ;
#638 = VECTOR ( 'NONE', #631, 1000.000000000000114 ) ;
#639 = VECTOR ( 'NONE', #456, 1000.000000000000000 ) ;
#640 = VERTEX_POINT ( 'NONE', #641 ) ;
#641 = CARTESIAN_POINT ( 'NONE',  ( -9.840000386034702728, 50.99999996212395104, 1.214849624754393164E-15 ) ) ;
#642 = EDGE_LOOP ( 'NONE', ( #735, #634, #466, #397 ) ) ;
#643 = EDGE_CURVE ( 'NONE', #363, #121, #454, .T. ) ;
#644 = DIRECTION ( 'NONE',  ( 1.000000000000000000, 0.000000000000000000, -1.224646799147351235E-16 ) ) ;
#645 = EDGE_LOOP ( 'NONE', ( #980, #591, #392, #1020 ) ) ;
#646 = DIRECTION ( 'NONE',  ( 1.000000000000000000, 4.262269790586635715E-14, 0.000000000000000000 ) ) ;
#647 = EDGE_CURVE ( 'NONE', #1005, #563, #623, .T. ) ;
#648 = SURFACE_SIDE_STYLE ('',( #663 ) ) ;
#649 = VERTEX_POINT ( 'NONE', #407 ) ;
#650 = DIRECTION ( 'NONE',  ( 1.224646799147353207E-16, 5.221019203885406531E-30, 1.000000000000000000 ) ) ;
#651 = EDGE_LOOP ( 'NONE', ( #827, #414, #74, #572 ) ) ;
#652 = AXIS2_PLACEMENT_3D ( 'NONE', #1019, #209, #296 ) ;
#653 = AXIS2_PLACEMENT_3D ( 'NONE', #682, #211, #523 ) ;
#654 = AXIS2_PLACEMENT_3D ( 'NONE', #1018, #390, #457 ) ;
#655 = AXIS2_PLACEMENT_3D ( 'NONE', #62, #480, #551 ) ;
#656 = CARTESIAN_POINT ( 'NONE',  ( 5.249999613969667855, -3.787578957749999937E-08, 0.000000000000000000 ) ) ;
#657 = ADVANCED_FACE ( 'NONE', ( #167 ), #83, .T. ) ;
#658 = ORIENTED_EDGE ( 'NONE', *, *, #22, .T. ) ;
#659 = AXIS2_PLACEMENT_3D ( 'NONE', #573, #340, #644 ) ;
#660 = CIRCLE ( 'NONE', #872, 5.000000000001171507 ) ;
#661 = MECHANICAL_DESIGN_GEOMETRIC_PRESENTATION_REPRESENTATION (  '', ( #906 ), #751 ) ;
#662 = CARTESIAN_POINT ( 'NONE',  ( -1.600000386029776900, 0.9237603928267135167, 0.000000000000000000 ) ) ;
#663 = SURFACE_STYLE_FILL_AREA ( #534 ) ;
#664 = VERTEX_POINT ( 'NONE', #91 ) ;
#665 = ADVANCED_FACE ( 'NONE', ( #722 ), #786, .T. ) ;
#666 = FACE_OUTER_BOUND ( 'NONE', #984, .T. ) ;
#667 = DIRECTION ( 'NONE',  ( 1.000000000000000000, 4.250853923113962596E-14, 0.000000000000000000 ) ) ;
#668 = CARTESIAN_POINT ( 'NONE',  ( -3.860308624000000066E-07, -3.787601340000000210E-08, 0.000000000000000000 ) ) ;
#669 = ORIENTED_EDGE ( 'NONE', *, *, #811, .T. ) ;
#670 = CARTESIAN_POINT ( 'NONE',  ( -3.860330403678280669E-07, 51.08660250250290602, 0.000000000000000000 ) ) ;
#671 = ORIENTED_EDGE ( 'NONE', *, *, #821, .F. ) ;
#672 = DIRECTION ( 'NONE',  ( 1.000000000000000000, 4.263285714314105206E-14, 0.000000000000000000 ) ) ;
#673 = CARTESIAN_POINT ( 'NONE',  ( -3.860308624000000066E-07, -3.787601340000000210E-08, 0.000000000000000000 ) ) ;
#674 = ORIENTED_EDGE ( 'NONE', *, *, #500, .T. ) ;
#675 = AXIS2_PLACEMENT_3D ( 'NONE', #975, #154, #248 ) ;
#676 = AXIS2_PLACEMENT_3D ( 'NONE', #280, #775, #926 ) ;
#677 = DIRECTION ( 'NONE',  ( 4.263285714314105206E-14, -1.000000000000000000, -0.000000000000000000 ) ) ;
#678 = STYLED_ITEM ( 'NONE', ( #496 ), #216 ) ;
#679 = CIRCLE ( 'NONE', #800, 4.950000000000498446 ) ;
#680 = EDGE_CURVE ( 'NONE', #313, #723, #779, .T. ) ;
#681 = DIRECTION ( 'NONE',  ( -4.263285714314105206E-14, 1.000000000000000000, 0.000000000000000000 ) ) ;
#682 = CARTESIAN_POINT ( 'NONE',  ( -3.860333265124638447E-07, 57.79843593325806950, 0.000000000000000000 ) ) ;
#683 = ORIENTED_EDGE ( 'NONE', *, *, #405, .T. ) ;
#684 = CYLINDRICAL_SURFACE ( 'NONE', #116, 4.000000000000733635 ) ;
#685 = DIRECTION ( 'NONE',  ( 1.224646799147353207E-16, 5.221019203885406531E-30, 1.000000000000000000 ) ) ;
#686 = LINE ( 'NONE', #1039, #783 ) ;
#687 = CARTESIAN_POINT ( 'NONE',  ( -3.860330298544571902E-07, 50.83999996212427419, 0.000000000000000000 ) ) ;
#688 = DIRECTION ( 'NONE',  ( 1.000000000000000000, 4.263285714314105206E-14, 0.000000000000000000 ) ) ;
#689 = DIRECTION ( 'NONE',  ( 4.263285714314105206E-14, -1.000000000000000000, -0.000000000000000000 ) ) ;
#690 = EDGE_LOOP ( 'NONE', ( #674, #419, #1014, #259 ) ) ;
#691 = CARTESIAN_POINT ( 'NONE',  ( 5.549999613967464107, 50.74019234098936693, 7.072335265076561834E-16 ) ) ;
#692 = EDGE_CURVE ( 'NONE', #649, #313, #960, .T. ) ;
#693 = TOROIDAL_SURFACE ( 'NONE', #11, 4.800000000000775202, 0.8000000000000122569 ) ;
#694 = PRODUCT_DEFINITION_CONTEXT ( 'detailed design', #1037, 'design' ) ;
#695 = PRESENTATION_LAYER_ASSIGNMENT (  '', '', ( #678 ) ) ;
#696 = AXIS2_PLACEMENT_3D ( 'NONE', #1027, #510, #611 ) ;
#697 = CIRCLE ( 'NONE', #162, 5.250000000000434319 ) ;
#698 = CYLINDRICAL_SURFACE ( 'NONE', #508, 5.000000000000996536 ) ;
#699 = CIRCLE ( 'NONE', #239, 0.8000000000000029310 ) ;
#700 = DIRECTION ( 'NONE',  ( 1.000000000000000000, 4.336808689941206156E-14, 0.000000000000000000 ) ) ;
#701 = LINE ( 'NONE', #941, #468 ) ;
#702 = DIRECTION ( 'NONE',  ( 4.263285714314105206E-14, -1.000000000000000000, -0.000000000000000000 ) ) ;
#703 = EDGE_CURVE ( 'NONE', #965, #515, #967, .T. ) ;
#704 = ADVANCED_BREP_SHAPE_REPRESENTATION ( '99688-SI16-M10+S9MT1603-090', ( #216, #856 ), #904 ) ;
#705 = LINE ( 'NONE', #789, #1007 ) ;
#706 = CARTESIAN_POINT ( 'NONE',  ( -5.000000386031858923, -3.787622656428571332E-08, 6.123233995737987045E-16 ) ) ;
#707 = DIRECTION ( 'NONE',  ( 4.263285714314105206E-14, -1.000000000000000000, -0.000000000000000000 ) ) ;
#708 = PRODUCT_RELATED_PRODUCT_CATEGORY ( 'part', '', ( #536 ) ) ;
#709 = ADVANCED_FACE ( 'NONE', ( #10 ), #698, .T. ) ;
#710 = FACE_OUTER_BOUND ( 'NONE', #867, .T. ) ;
#711 = CARTESIAN_POINT ( 'NONE',  ( -3.860330366757143113E-07, 50.99999996212451236, 0.000000000000000000 ) ) ;
#712 = FILL_AREA_STYLE_COLOUR ( '', #717 ) ;
#713 = ORIENTED_EDGE ( 'NONE', *, *, #511, .F. ) ;
#714 = TOROIDAL_SURFACE ( 'NONE', #98, 5.350000000000497025, 0.3999999999999980793 ) ;
#715 = DIRECTION ( 'NONE',  ( 1.000000000000000000, 4.263285714314105206E-14, 0.000000000000000000 ) ) ;
#716 = MECHANICAL_DESIGN_GEOMETRIC_PRESENTATION_REPRESENTATION (  '', ( #678 ), #149 ) ;
#717 = COLOUR_RGB ( '',0.7921568627450980005, 0.8196078431372548767, 0.9333333333333333481 ) ;
#718 = EDGE_CURVE ( 'NONE', #760, #819, #246, .T. ) ;
#719 = AXIS2_PLACEMENT_3D ( 'NONE', #387, #520, #448 ) ;
#720 = DIRECTION ( 'NONE',  ( 1.000000000000000000, 4.229421046190569046E-14, 0.000000000000000000 ) ) ;
#721 = ORIENTED_EDGE ( 'NONE', *, *, #797, .T. ) ;
#722 = FACE_OUTER_BOUND ( 'NONE', #756, .T. ) ;
#723 = VERTEX_POINT ( 'NONE', #816 ) ;
#724 = CARTESIAN_POINT ( 'NONE',  ( -10.00000038603494090, 50.83999996212384787, 1.224646799147664462E-15 ) ) ;
#725 = ORIENTED_EDGE ( 'NONE', *, *, #31, .F. ) ;
#726 = DIRECTION ( 'NONE',  ( -4.263285714314105206E-14, 1.000000000000000000, 0.000000000000000000 ) ) ;
#727 = DIRECTION ( 'NONE',  ( 4.263285714314105206E-14, -1.000000000000000000, -0.000000000000000000 ) ) ;
#728 = VERTEX_POINT ( 'NONE', #880 ) ;
#729 = ADVANCED_FACE ( 'NONE', ( #554 ), #321, .T. ) ;
#730 = DIRECTION ( 'NONE',  ( -0.7071067811866214026, 0.7071067811864736319, 0.000000000000000000 ) ) ;
#731 = ORIENTED_EDGE ( 'NONE', *, *, #491, .T. ) ;
#732 = VECTOR ( 'NONE', #882, 999.9999999999998863 ) ;
#733 = CIRCLE ( 'NONE', #659, 0.3999999999999984679 ) ;
#734 = FACE_OUTER_BOUND ( 'NONE', #112, .T. ) ;
#735 = ORIENTED_EDGE ( 'NONE', *, *, #647, .T. ) ;
#736 = CARTESIAN_POINT ( 'NONE',  ( 3.999999613969871248, -3.787584286857143048E-08, 0.000000000000000000 ) ) ;
#737 = EDGE_CURVE ( 'NONE', #12, #506, #309, .T. ) ;
#738 =( LENGTH_UNIT ( ) NAMED_UNIT ( * ) SI_UNIT ( .MILLI., .METRE. ) );
#739 = ORIENTED_EDGE ( 'NONE', *, *, #262, .F. ) ;
#740 = CARTESIAN_POINT ( 'NONE',  ( -10.00000038603235808, 21.22202014745532850, 0.000000000000000000 ) ) ;
#741 = DIRECTION ( 'NONE',  ( 4.263285714314105206E-14, -1.000000000000000000, -0.000000000000000000 ) ) ;
#742 = EDGE_LOOP ( 'NONE', ( #435, #567, #584, #815 ) ) ;
#743 = CARTESIAN_POINT ( 'NONE',  ( -3.860330793085714245E-07, 51.99999996212451947, 0.000000000000000000 ) ) ;
#744 = AXIS2_PLACEMENT_3D ( 'NONE', #564, #395, #720 ) ;
#745 = CIRCLE ( 'NONE', #303, 5.550000000000490097 ) ;
#746 = EDGE_CURVE ( 'NONE', #841, #837, #423, .T. ) ;
#747 = AXIS2_PLACEMENT_3D ( 'NONE', #874, #79, #793 ) ;
#748 = ORIENTED_EDGE ( 'NONE', *, *, #908, .T. ) ;
#749 = AXIS2_PLACEMENT_3D ( 'NONE', #310, #940, #845 ) ;
#750 = CIRCLE ( 'NONE', #383, 0.8000000000000124789 ) ;
#751 =( GEOMETRIC_REPRESENTATION_CONTEXT ( 3 ) GLOBAL_UNCERTAINTY_ASSIGNED_CONTEXT ( ( #4 ) ) GLOBAL_UNIT_ASSIGNED_CONTEXT ( ( #322, #171, #460 ) ) REPRESENTATION_CONTEXT ( 'NONE', 'WORKASPACE' ) );
#752 = CIRCLE ( 'NONE', #50, 5.000000000000820677 ) ;
#753 = DIRECTION ( 'NONE',  ( 4.263285714314105206E-14, -1.000000000000000000, -0.000000000000000000 ) ) ;
#754 = FACE_OUTER_BOUND ( 'NONE', #795, .T. ) ;
#755 = FACE_OUTER_BOUND ( 'NONE', #282, .T. ) ;
#756 = EDGE_LOOP ( 'NONE', ( #725, #338, #792, #502 ) ) ;
#757 = DIRECTION ( 'NONE',  ( 4.263285714314105206E-14, -1.000000000000000000, -0.000000000000000000 ) ) ;
#758 = CYLINDRICAL_SURFACE ( 'NONE', #676, 4.000000000000733635 ) ;
#759 = DIRECTION ( 'NONE',  ( 0.4999999999999851230, -0.8660254037844472563, 0.000000000000000000 ) ) ;
#760 = VERTEX_POINT ( 'NONE', #163 ) ;
#761 = DIRECTION ( 'NONE',  ( 1.000000000000000000, 4.278984574075779802E-14, 0.000000000000000000 ) ) ;
#762 = EDGE_CURVE ( 'NONE', #597, #1052, #71, .T. ) ;
#763 = FACE_OUTER_BOUND ( 'NONE', #410, .T. ) ;
#764 = CONICAL_SURFACE ( 'NONE', #903, 5.000000000001171507, 0.5235987755982390857 ) ;
#765 = DIRECTION ( 'NONE',  ( -0.7071067811866244002, 0.7071067811864707453, 0.000000000000000000 ) ) ;
#766 = ORIENTED_EDGE ( 'NONE', *, *, #771, .T. ) ;
#767 = VECTOR ( 'NONE', #957, 1000.000000000000000 ) ;
#768 = AXIS2_PLACEMENT_3D ( 'NONE', #5, #330, #233 ) ;
#769 = CONICAL_SURFACE ( 'NONE', #421, 8.000000000001463718, 0.3883766555390972819 ) ;
#770 = AXIS2_PLACEMENT_3D ( 'NONE', #102, #650, #415 ) ;
#771 = EDGE_CURVE ( 'NONE', #515, #819, #271, .T. ) ;
#772 = LINE ( 'NONE', #533, #217 ) ;
#773 = FACE_OUTER_BOUND ( 'NONE', #587, .T. ) ;
#774 = DIRECTION ( 'NONE',  ( -0.8660254037844498098, 0.4999999999999806266, 0.000000000000000000 ) ) ;
#775 = DIRECTION ( 'NONE',  ( 4.263285714314105206E-14, -1.000000000000000000, -0.000000000000000000 ) ) ;
#776 = EDGE_CURVE ( 'NONE', #837, #464, #909, .T. ) ;
#777 = CARTESIAN_POINT ( 'NONE',  ( -3.860309017825464322E-07, 0.9237603928267816844, 0.000000000000000000 ) ) ;
#778 = FACE_OUTER_BOUND ( 'NONE', #166, .T. ) ;
#779 = LINE ( 'NONE', #382, #974 ) ;
#780 = LINE ( 'NONE', #290, #366 ) ;
#781 = EDGE_CURVE ( 'NONE', #537, #664, #991, .T. ) ;
#782 = CARTESIAN_POINT ( 'NONE',  ( -5.250000386033897293, 56.49999996212425657, 6.429395695524487677E-16 ) ) ;
#783 = VECTOR ( 'NONE', #314, 1000.000000000000114 ) ;
#784 = DIRECTION ( 'NONE',  ( 1.000000000000000000, 4.236377330805914924E-14, 0.000000000000000000 ) ) ;
#785 = CIRCLE ( 'NONE', #852, 10.00000000000190958 ) ;
#786 = CONICAL_SURFACE ( 'NONE', #199, 4.250000000000762945, 0.7853981633975142262 ) ;
#787 = AXIS2_PLACEMENT_3D ( 'NONE', #866, #384, #933 ) ;
#788 = VECTOR ( 'NONE', #774, 1000.000000000000000 ) ;
#789 = CARTESIAN_POINT ( 'NONE',  ( -5.000000386034932909, 67.99999996212427789, 6.123233995738201023E-16 ) ) ;
#790 = CARTESIAN_POINT ( 'NONE',  ( -3.860330298544571902E-07, 50.83999996212427419, 0.000000000000000000 ) ) ;
#791 = CARTESIAN_POINT ( 'NONE',  ( 1.599999613967973300, 0.9237603928268498521, 1.959434878634387189E-16 ) ) ;
#792 = ORIENTED_EDGE ( 'NONE', *, *, #425, .T. ) ;
#793 = DIRECTION ( 'NONE',  ( -1.000000000000000000, -4.263285714314105206E-14, 0.000000000000000000 ) ) ;
#794 =( NAMED_UNIT ( * ) SI_UNIT ( $, .STERADIAN. ) SOLID_ANGLE_UNIT ( ) );
#795 = EDGE_LOOP ( 'NONE', ( #426, #225, #570, #731 ) ) ;
#796 = UNCERTAINTY_MEASURE_WITH_UNIT (LENGTH_MEASURE( 1.000000000000000082E-05 ), #738, 'distance_accuracy_value', 'NONE');
#797 = EDGE_CURVE ( 'NONE', #723, #92, #697, .T. ) ;
#798 = EDGE_LOOP ( 'NONE', ( #177, #348, #971, #6 ) ) ;
#799 = DIRECTION ( 'NONE',  ( 4.263285714314105206E-14, -1.000000000000000000, -0.000000000000000000 ) ) ;
#800 = AXIS2_PLACEMENT_3D ( 'NONE', #670, #677, #596 ) ;
#801 = ORIENTED_EDGE ( 'NONE', *, *, #265, .T. ) ;
#802 = CIRCLE ( 'NONE', #486, 5.250000000000434319 ) ;
#803 = AXIS2_PLACEMENT_3D ( 'NONE', #119, #428, #124 ) ;
#804 = CIRCLE ( 'NONE', #505, 4.950000000000498446 ) ;
#805 = AXIS2_PLACEMENT_3D ( 'NONE', #33, #911, #203 ) ;
#806 = AXIS2_PLACEMENT_3D ( 'NONE', #618, #702, #784 ) ;
#807 = DIRECTION ( 'NONE',  ( 4.263285714314105206E-14, -1.000000000000000000, -0.000000000000000000 ) ) ;
#808 = ORIENTED_EDGE ( 'NONE', *, *, #444, .T. ) ;
#809 = DIRECTION ( 'NONE',  ( 1.000000000000000000, 4.205390244791853450E-14, 0.000000000000000000 ) ) ;
#810 = CARTESIAN_POINT ( 'NONE',  ( -4.000000386034101574, 58.41905246019321396, 4.898587196590345657E-16 ) ) ;
#811 = EDGE_CURVE ( 'NONE', #315, #630, #660, .T. ) ;
#812 = EDGE_LOOP ( 'NONE', ( #870, #323, #978, #896 ) ) ;
#813 = CARTESIAN_POINT ( 'NONE',  ( -5.000000386034932021, 67.99999996212427789, 6.123233995738415988E-16 ) ) ;
#814 = ADVANCED_FACE ( 'NONE', ( #111 ), #47, .T. ) ;
#815 = ORIENTED_EDGE ( 'NONE', *, *, #226, .F. ) ;
#816 = CARTESIAN_POINT ( 'NONE',  ( -5.250000386033512711, 51.99999996212429210, 0.000000000000000000 ) ) ;
#817 = AXIS2_PLACEMENT_3D ( 'NONE', #538, #1025, #605 ) ;
#818 = DIRECTION ( 'NONE',  ( 4.263285714314105206E-14, -1.000000000000000000, -0.000000000000000000 ) ) ;
#819 = VERTEX_POINT ( 'NONE', #987 ) ;
#820 = CARTESIAN_POINT ( 'NONE',  ( -8.000000386032503741, -3.787635446285715196E-08, 9.797174393180835281E-16 ) ) ;
#821 = EDGE_CURVE ( 'NONE', #12, #537, #750, .T. ) ;
#822 = LINE ( 'NONE', #188, #320 ) ;
#823 = ORIENTED_EDGE ( 'NONE', *, *, #1023, .F. ) ;
#824 = DIRECTION ( 'NONE',  ( -4.263285714314105206E-14, 1.000000000000000000, 0.000000000000000000 ) ) ;
#825 = EDGE_CURVE ( 'NONE', #965, #760, #13, .T. ) ;
#826 = DIRECTION ( 'NONE',  ( 1.224646799147353207E-16, 5.221019203885406531E-30, 1.000000000000000000 ) ) ;
#827 = ORIENTED_EDGE ( 'NONE', *, *, #69, .T. ) ;
#828 = DIRECTION ( 'NONE',  ( 4.263285714314105206E-14, -1.000000000000000000, -0.000000000000000000 ) ) ;
#829 = ORIENTED_EDGE ( 'NONE', *, *, #430, .F. ) ;
#830 = AXIS2_PLACEMENT_3D ( 'NONE', #36, #741, #912 ) ;
#831 = DIRECTION ( 'NONE',  ( 4.263285714314105206E-14, -1.000000000000000000, -0.000000000000000000 ) ) ;
#832 = ORIENTED_EDGE ( 'NONE', *, *, #528, .T. ) ;
#833 = CIRCLE ( 'NONE', #787, 4.250000000000762945 ) ;
#834 = AXIS2_PLACEMENT_3D ( 'NONE', #97, #465, #413 ) ;
#835 = TOROIDAL_SURFACE ( 'NONE', #992, 4.800000000000722800, 0.8000000000000024869 ) ;
#836 = CARTESIAN_POINT ( 'NONE',  ( -3.860338466999999902E-07, 69.99999996212451947, 0.000000000000000000 ) ) ;
#837 = VERTEX_POINT ( 'NONE', #662 ) ;
#838 = DIRECTION ( 'NONE',  ( 0.7071067811869035102, -0.7071067811861914132, 0.000000000000000000 ) ) ;
#839 = CARTESIAN_POINT ( 'NONE',  ( -3.860330366757143113E-07, 50.99999996212437026, 0.000000000000000000 ) ) ;
#840 = EDGE_CURVE ( 'NONE', #12, #172, #1009, .T. ) ;
#841 = VERTEX_POINT ( 'NONE', #283 ) ;
#842 = CYLINDRICAL_SURFACE ( 'NONE', #87, 5.000000000000996536 ) ;
#843 = ORIENTED_EDGE ( 'NONE', *, *, #1006, .T. ) ;
#844 = DIRECTION ( 'NONE',  ( -1.000000000000000000, -4.262269790586636347E-14, 0.000000000000000000 ) ) ;
#845 = DIRECTION ( 'NONE',  ( 1.000000000000000000, 4.267419750902693648E-14, 0.000000000000000000 ) ) ;
#846 = VERTEX_POINT ( 'NONE', #118 ) ;
#847 = EDGE_CURVE ( 'NONE', #563, #464, #43, .T. ) ;
#848 = DIRECTION ( 'NONE',  ( 0.000000000000000000, 0.000000000000000000, -1.000000000000000000 ) ) ;
#849 = DIRECTION ( 'NONE',  ( 4.263285714314105206E-14, -1.000000000000000000, -0.000000000000000000 ) ) ;
#850 = CARTESIAN_POINT ( 'NONE',  ( -3.860330298544571902E-07, 50.83999996212427419, 0.000000000000000000 ) ) ;
#851 = LINE ( 'NONE', #133, #219 ) ;
#852 = AXIS2_PLACEMENT_3D ( 'NONE', #687, #300, #604 ) ;
#853 = TOROIDAL_SURFACE ( 'NONE', #1046, 5.350000000000477485, 0.3999999999999996336 ) ;
#854 = CARTESIAN_POINT ( 'NONE',  ( 5.249999613967354151, 56.49999996212470421, 0.000000000000000000 ) ) ;
#855 = VECTOR ( 'NONE', #753, 1000.000000000000000 ) ;
#856 = AXIS2_PLACEMENT_3D ( 'NONE', #479, #250, #1044 ) ;
#857 = DIRECTION ( 'NONE',  ( 1.000000000000000000, 4.229421046190569046E-14, 0.000000000000000000 ) ) ;
#858 = DIRECTION ( 'NONE',  ( -1.000000000000000000, 0.000000000000000000, 0.000000000000000000 ) ) ;
#859 = CARTESIAN_POINT ( 'NONE',  ( -3.860330366757143113E-07, 50.99999996212451236, 0.000000000000000000 ) ) ;
#860 = FACE_OUTER_BOUND ( 'NONE', #944, .T. ) ;
#861 = ADVANCED_FACE ( 'NONE', ( #666 ), #396, .T. ) ;
#862 = FACE_OUTER_BOUND ( 'NONE', #922, .T. ) ;
#863 = DIRECTION ( 'NONE',  ( -4.263285714314105206E-14, 1.000000000000000000, 0.000000000000000000 ) ) ;
#864 = CARTESIAN_POINT ( 'NONE',  ( -3.860332711564285924E-07, 56.49999996212447684, 0.000000000000000000 ) ) ;
#865 = CARTESIAN_POINT ( 'NONE',  ( 4.949999613967418277, 51.53431453717546873, 0.000000000000000000 ) ) ;
#866 = CARTESIAN_POINT ( 'NONE',  ( -3.860333777385714281E-07, 58.99999996212451236, 0.000000000000000000 ) ) ;
#867 = EDGE_LOOP ( 'NONE', ( #231, #578, #843, #212 ) ) ;
#868 = CIRCLE ( 'NONE', #637, 10.00000000000190958 ) ;
#869 = DIRECTION ( 'NONE',  ( 1.000000000000000000, 4.205390244791853450E-14, 0.000000000000000000 ) ) ;
#870 = ORIENTED_EDGE ( 'NONE', *, *, #528, .F. ) ;
#871 = CIRCLE ( 'NONE', #411, 9.840000000001664304 ) ;
#872 = AXIS2_PLACEMENT_3D ( 'NONE', #427, #418, #504 ) ;
#873 = AXIS2_PLACEMENT_3D ( 'NONE', #836, #757, #492 ) ;
#874 = CARTESIAN_POINT ( 'NONE',  ( 5.999999613967446521, 50.99999996212469000, 0.000000000000000000 ) ) ;
#875 = EDGE_CURVE ( 'NONE', #563, #1005, #1047, .T. ) ;
#876 = CARTESIAN_POINT ( 'NONE',  ( -3.860333268324023237E-07, 57.79843593325804818, 0.000000000000000000 ) ) ;
#877 = FACE_OUTER_BOUND ( 'NONE', #881, .T. ) ;
#878 = ORIENTED_EDGE ( 'NONE', *, *, #391, .T. ) ;
#879 = ADVANCED_FACE ( 'NONE', ( #998 ), #349, .T. ) ;
#880 = CARTESIAN_POINT ( 'NONE',  ( -4.950000386033538646, 51.08660250250269996, 6.429395695524210590E-16 ) ) ;
#881 = EDGE_LOOP ( 'NONE', ( #969, #32, #417, #138 ) ) ;
#882 = DIRECTION ( 'NONE',  ( -0.7071067811864818475, -0.7071067811866132979, 8.659560562354498985E-17 ) ) ;
#883 = ORIENTED_EDGE ( 'NONE', *, *, #781, .F. ) ;
#884 = DIRECTION ( 'NONE',  ( 4.263285714314105206E-14, -1.000000000000000000, -0.000000000000000000 ) ) ;
#885 = VECTOR ( 'NONE', #838, 1000.000000000000114 ) ;
#886 = CONICAL_SURFACE ( 'NONE', #269, 1.599999999998874989, 0.7853981633974931320 ) ;
#887 = ADVANCED_FACE ( 'NONE', ( #498 ), #842, .T. ) ;
#888 = CARTESIAN_POINT ( 'NONE',  ( -3.860330298544571902E-07, 50.83999996212427419, 0.000000000000000000 ) ) ;
#889 = ORIENTED_EDGE ( 'NONE', *, *, #339, .T. ) ;
#890 = DIRECTION ( 'NONE',  ( 4.263285714314105206E-14, -1.000000000000000000, -0.000000000000000000 ) ) ;
#891 = EDGE_CURVE ( 'NONE', #561, #331, #134, .T. ) ;
#892 = DIRECTION ( 'NONE',  ( 1.000000000000000000, 4.263285714314105206E-14, 0.000000000000000000 ) ) ;
#893 = SURFACE_STYLE_FILL_AREA ( #258 ) ;
#894 = EDGE_LOOP ( 'NONE', ( #185, #963, #801, #913 ) ) ;
#895 = DIRECTION ( 'NONE',  ( 4.263285714314105206E-14, -1.000000000000000000, -0.000000000000000000 ) ) ;
#896 = ORIENTED_EDGE ( 'NONE', *, *, #325, .T. ) ;
#897 = PRODUCT_DEFINITION ( 'UNKNOWN', '', #100, #694 ) ;
#898 = DIRECTION ( 'NONE',  ( 4.263285714314105206E-14, -1.000000000000000000, -0.000000000000000000 ) ) ;
#899 = EDGE_CURVE ( 'NONE', #982, #728, #679, .T. ) ;
#900 = EDGE_LOOP ( 'NONE', ( #34, #606, #483, #925 ) ) ;
#901 = DIRECTION ( 'NONE',  ( 1.000000000000000000, 4.236377330805914924E-14, 0.000000000000000000 ) ) ;
#902 = ORIENTED_EDGE ( 'NONE', *, *, #170, .T. ) ;
#903 = AXIS2_PLACEMENT_3D ( 'NONE', #293, #602, #522 ) ;
#904 =( GEOMETRIC_REPRESENTATION_CONTEXT ( 3 ) GLOBAL_UNCERTAINTY_ASSIGNED_CONTEXT ( ( #307 ) ) GLOBAL_UNIT_ASSIGNED_CONTEXT ( ( #77, #548, #794 ) ) REPRESENTATION_CONTEXT ( 'NONE', 'WORKASPACE' ) );
#905 = DIRECTION ( 'NONE',  ( 4.263285714314105206E-14, -1.000000000000000000, -0.000000000000000000 ) ) ;
#906 = STYLED_ITEM ( 'NONE', ( #81 ), #704 ) ;
#907 = VERTEX_POINT ( 'NONE', #178 ) ;
#908 = EDGE_CURVE ( 'NONE', #597, #313, #223, .T. ) ;
#909 = LINE ( 'NONE', #583, #287 ) ;
#910 = VERTEX_POINT ( 'NONE', #740 ) ;
#911 = DIRECTION ( 'NONE',  ( 4.263285714314105206E-14, -1.000000000000000000, -0.000000000000000000 ) ) ;
#912 = DIRECTION ( 'NONE',  ( 1.000000000000000000, 4.263285714295151087E-14, 0.000000000000000000 ) ) ;
#913 = ORIENTED_EDGE ( 'NONE', *, *, #368, .F. ) ;
#914 = DIRECTION ( 'NONE',  ( 4.263285714314105206E-14, -1.000000000000000000, -0.000000000000000000 ) ) ;
#915 = ORIENTED_EDGE ( 'NONE', *, *, #776, .F. ) ;
#916 = ADVANCED_FACE ( 'NONE', ( #20 ), #835, .F. ) ;
#917 = DIRECTION ( 'NONE',  ( -1.000000000000000000, -4.262269790586636347E-14, 0.000000000000000000 ) ) ;
#918 = AXIS2_PLACEMENT_3D ( 'NONE', #790, #599, #235 ) ;
#919 = VECTOR ( 'NONE', #205, 1000.000000000000227 ) ;
#920 = AXIS2_PLACEMENT_3D ( 'NONE', #122, #824, #924 ) ;
#921 = CARTESIAN_POINT ( 'NONE',  ( 4.999999613970134149, -3.787580023571428427E-08, 0.000000000000000000 ) ) ;
#922 = EDGE_LOOP ( 'NONE', ( #497, #101, #189, #636 ) ) ;
#923 = CIRCLE ( 'NONE', #412, 0.3999999999999993006 ) ;
#924 = DIRECTION ( 'NONE',  ( -1.000000000000000000, -4.262567288150432634E-14, 0.000000000000000000 ) ) ;
#925 = ORIENTED_EDGE ( 'NONE', *, *, #405, .F. ) ;
#926 = DIRECTION ( 'NONE',  ( 1.000000000000000000, 4.263285714262590696E-14, 0.000000000000000000 ) ) ;
#927 = EDGE_CURVE ( 'NONE', #121, #363, #29, .T. ) ;
#928 = CARTESIAN_POINT ( 'NONE',  ( -3.860315587625068512E-07, 16.33393940614458018, 0.000000000000000000 ) ) ;
#929 = ORIENTED_EDGE ( 'NONE', *, *, #400, .T. ) ;
#930 = CYLINDRICAL_SURFACE ( 'NONE', #652, 5.250000000000530243 ) ;
#931 = ORIENTED_EDGE ( 'NONE', *, *, #643, .T. ) ;
#932 = DIRECTION ( 'NONE',  ( 1.000000000000000000, 4.260914537867064336E-14, 0.000000000000000000 ) ) ;
#933 = DIRECTION ( 'NONE',  ( 1.000000000000000000, 4.244970388271895228E-14, 0.000000000000000000 ) ) ;
#934 = ORIENTED_EDGE ( 'NONE', *, *, #737, .T. ) ;
#935 = DIRECTION ( 'NONE',  ( 0.7071067811865489050, 0.7071067811865460184, 8.659560562355321126E-17 ) ) ;
#936 = ORIENTED_EDGE ( 'NONE', *, *, #737, .F. ) ;
#937 = CARTESIAN_POINT ( 'NONE',  ( 3.999999613967393230, 57.79843593325824713, 0.000000000000000000 ) ) ;
#938 = AXIS2_PLACEMENT_3D ( 'NONE', #89, #807, #241 ) ;
#939 = AXIS2_PLACEMENT_3D ( 'NONE', #1021, #40, #932 ) ;
#940 = DIRECTION ( 'NONE',  ( 4.263285714314105206E-14, -1.000000000000000000, -0.000000000000000000 ) ) ;
#941 = CARTESIAN_POINT ( 'NONE',  ( 7.999999613970779855, -3.787567233714285224E-08, 0.000000000000000000 ) ) ;
#942 = CONICAL_SURFACE ( 'NONE', #470, 6.000000000000482281, 1.047197551196509480 ) ;
#943 = CIRCLE ( 'NONE', #803, 10.00000000000058975 ) ;
#944 = EDGE_LOOP ( 'NONE', ( #279, #955, #326, #202 ) ) ;
#945 = EDGE_CURVE ( 'NONE', #630, #315, #543, .T. ) ;
#946 = CARTESIAN_POINT ( 'NONE',  ( -3.860334097132142894E-07, 59.74999996212446973, 0.000000000000000000 ) ) ;
#947 = FILL_AREA_STYLE_COLOUR ( '', #114 ) ;
#948 = CARTESIAN_POINT ( 'NONE',  ( -5.000000386034229471, 59.74999996212425657, 0.000000000000000000 ) ) ;
#949 = DIRECTION ( 'NONE',  ( 1.000000000000000000, 4.229421046190722401E-14, 0.000000000000000000 ) ) ;
#950 = CARTESIAN_POINT ( 'NONE',  ( 4.949999613967457357, 51.08660250250311918, 0.000000000000000000 ) ) ;
#951 = CARTESIAN_POINT ( 'NONE',  ( -3.860332924728571489E-07, 56.99999996212447684, 0.000000000000000000 ) ) ;
#952 = DIRECTION ( 'NONE',  ( 4.263285714314105206E-14, -1.000000000000000000, -0.000000000000000000 ) ) ;
#953 = VERTEX_POINT ( 'NONE', #436 ) ;
#954 = DIRECTION ( 'NONE',  ( 4.263285714314105206E-14, -1.000000000000000000, -0.000000000000000000 ) ) ;
#955 = ORIENTED_EDGE ( 'NONE', *, *, #1000, .F. ) ;
#956 = EDGE_CURVE ( 'NONE', #354, #907, #752, .T. ) ;
#957 = DIRECTION ( 'NONE',  ( 4.263285714314105206E-14, -1.000000000000000000, -0.000000000000000000 ) ) ;
#958 = CONICAL_SURFACE ( 'NONE', #973, 1732.050807568796245, 1.047197551196577425 ) ;
#959 = AXIS2_PLACEMENT_3D ( 'NONE', #876, #153, #715 ) ;
#960 = CIRCLE ( 'NONE', #182, 5.067157287525802190 ) ;
#961 = AXIS2_PLACEMENT_3D ( 'NONE', #56, #230, #61 ) ;
#962 = EDGE_CURVE ( 'NONE', #1052, #649, #923, .T. ) ;
#963 = ORIENTED_EDGE ( 'NONE', *, *, #262, .T. ) ;
#964 = DIRECTION ( 'NONE',  ( -1.000000000000000000, -4.250072516142399880E-14, 0.000000000000000000 ) ) ;
#965 = VERTEX_POINT ( 'NONE', #691 ) ;
#966 = ADVANCED_FACE ( 'NONE', ( #51 ), #458, .T. ) ;
#967 = LINE ( 'NONE', #156, #84 ) ;
#968 = ORIENTED_EDGE ( 'NONE', *, *, #956, .F. ) ;
#969 = ORIENTED_EDGE ( 'NONE', *, *, #319, .F. ) ;
#970 = CARTESIAN_POINT ( 'NONE',  ( 5.067156901492730015, 51.81715724965012271, 6.205477952944658000E-16 ) ) ;
#971 = ORIENTED_EDGE ( 'NONE', *, *, #294, .T. ) ;
#972 = EDGE_CURVE ( 'NONE', #841, #846, #372, .T. ) ;
#973 = AXIS2_PLACEMENT_3D ( 'NONE', #562, #726, #402 ) ;
#974 = VECTOR ( 'NONE', #730, 1000.000000000000114 ) ;
#975 = CARTESIAN_POINT ( 'NONE',  ( -3.860308624000000066E-07, -3.787601340000000210E-08, 0.000000000000000000 ) ) ;
#976 = APPLICATION_CONTEXT ( 'automotive_design' ) ;
#977 = PRODUCT_CONTEXT ( 'NONE', #976, 'mechanical' ) ;
#978 = ORIENTED_EDGE ( 'NONE', *, *, #477, .T. ) ;
#979 = CARTESIAN_POINT ( 'NONE',  ( -3.860308624000000066E-07, -3.787601340000000210E-08, 0.000000000000000000 ) ) ;
#980 = ORIENTED_EDGE ( 'NONE', *, *, #703, .F. ) ;
#981 = DIRECTION ( 'NONE',  ( 4.263285714314105206E-14, -1.000000000000000000, -0.000000000000000000 ) ) ;
#982 = VERTEX_POINT ( 'NONE', #950 ) ;
#983 = LINE ( 'NONE', #970, #638 ) ;
#984 = EDGE_LOOP ( 'NONE', ( #284, #266, #96, #291 ) ) ;
#985 = ADVANCED_FACE ( 'NONE', ( #452 ), #684, .T. ) ;
#986 = ORIENTED_EDGE ( 'NONE', *, *, #439, .F. ) ;
#987 = CARTESIAN_POINT ( 'NONE',  ( -6.000000386033520705, 50.99999996212424946, 0.000000000000000000 ) ) ;
#988 = ORIENTED_EDGE ( 'NONE', *, *, #391, .F. ) ;
#989 = CONICAL_SURFACE ( 'NONE', #333, 1.599999999998874989, 0.7853981633974931320 ) ;
#990 = AXIS2_PLACEMENT_3D ( 'NONE', #668, #23, #344 ) ;
#991 = CIRCLE ( 'NONE', #490, 4.250000000000762945 ) ;
#992 = AXIS2_PLACEMENT_3D ( 'NONE', #525, #312, #75 ) ;
#993 = LINE ( 'NONE', #921, #352 ) ;
#994 = EDGE_LOOP ( 'NONE', ( #144, #481, #929, #915 ) ) ;
#995 = DIRECTION ( 'NONE',  ( -1.000000000000000000, -4.245096388672714226E-14, 0.000000000000000000 ) ) ;
#996 = LINE ( 'NONE', #656, #286 ) ;
#997 = ORIENTED_EDGE ( 'NONE', *, *, #226, .T. ) ;
#998 = FACE_OUTER_BOUND ( 'NONE', #552, .T. ) ;
#999 = ORIENTED_EDGE ( 'NONE', *, *, #339, .F. ) ;
#1000 = EDGE_CURVE ( 'NONE', #1052, #597, #560, .T. ) ;
#1001 = DIRECTION ( 'NONE',  ( -0.3786864688383639876, 0.9255250176622621394, 0.000000000000000000 ) ) ;
#1002 = CARTESIAN_POINT ( 'NONE',  ( -4.000000386034046507, 57.79843593325789897, 5.357829746270525548E-16 ) ) ;
#1003 = ORIENTED_EDGE ( 'NONE', *, *, #625, .F. ) ;
#1004 = DIRECTION ( 'NONE',  ( 0.000000000000000000, 0.000000000000000000, -1.000000000000000000 ) ) ;
#1005 = VERTEX_POINT ( 'NONE', #127 ) ;
#1006 = EDGE_CURVE ( 'NONE', #121, #506, #699, .T. ) ;
#1007 = VECTOR ( 'NONE', #73, 1000.000000000000000 ) ;
#1008 = CARTESIAN_POINT ( 'NONE',  ( 9.999999613968881818, 50.83999996212469341, 0.000000000000000000 ) ) ;
#1009 = CIRCLE ( 'NONE', #624, 4.000000000000748734 ) ;
#1010 = DIRECTION ( 'NONE',  ( 0.000000000000000000, 0.000000000000000000, -1.000000000000000000 ) ) ;
#1011 = ORIENTED_EDGE ( 'NONE', *, *, #467, .T. ) ;
#1012 = TOROIDAL_SURFACE ( 'NONE', #817, 5.350000000000477485, 0.3999999999999996336 ) ;
#1013 = DIRECTION ( 'NONE',  ( 1.000000000000000000, 4.229421046190722401E-14, 0.000000000000000000 ) ) ;
#1014 = ORIENTED_EDGE ( 'NONE', *, *, #380, .F. ) ;
#1015 = FACE_OUTER_BOUND ( 'NONE', #110, .T. ) ;
#1016 = EDGE_CURVE ( 'NONE', #121, #317, #1041, .T. ) ;
#1017 = FACE_OUTER_BOUND ( 'NONE', #900, .T. ) ;
#1018 = CARTESIAN_POINT ( 'NONE',  ( -3.860338466999999902E-07, 69.99999996212460474, 0.000000000000000000 ) ) ;
#1019 = CARTESIAN_POINT ( 'NONE',  ( -3.860308624000000066E-07, -3.787601340000000210E-08, 0.000000000000000000 ) ) ;
#1020 = ORIENTED_EDGE ( 'NONE', *, *, #771, .F. ) ;
#1021 = CARTESIAN_POINT ( 'NONE',  ( -3.860311746328321785E-07, 7.323760392829149701, 0.000000000000000000 ) ) ;
#1022 = DIRECTION ( 'NONE',  ( 4.263285714314105206E-14, -1.000000000000000000, -0.000000000000000000 ) ) ;
#1023 = EDGE_CURVE ( 'NONE', #953, #837, #443, .T. ) ;
#1024 = DIRECTION ( 'NONE',  ( 4.263285714314105206E-14, -1.000000000000000000, -0.000000000000000000 ) ) ;
#1025 = DIRECTION ( 'NONE',  ( 4.263285714314105206E-14, -1.000000000000000000, -0.000000000000000000 ) ) ;
#1026 = ORIENTED_EDGE ( 'NONE', *, *, #45, .F. ) ;
#1027 = CARTESIAN_POINT ( 'NONE',  ( -3.860332711564285924E-07, 56.49999996212447684, 0.000000000000000000 ) ) ;
#1028 = DIRECTION ( 'NONE',  ( 1.000000000000000000, 4.263285714333123696E-14, 0.000000000000000000 ) ) ;
#1029 = CARTESIAN_POINT ( 'NONE',  ( 9.999999613968880041, 50.83999996212469341, 0.000000000000000000 ) ) ;
#1030 = AXIS2_PLACEMENT_3D ( 'NONE', #946, #46, #35 ) ;
#1031 = DIRECTION ( 'NONE',  ( 1.000000000000000000, 4.263285714262590696E-14, 0.000000000000000000 ) ) ;
#1032 = ORIENTED_EDGE ( 'NONE', *, *, #76, .T. ) ;
#1033 = DIRECTION ( 'NONE',  ( -0.8660254037844158370, 0.5000000000000394129, 0.000000000000000000 ) ) ;
#1034 = LINE ( 'NONE', #206, #558 ) ;
#1035 = ORIENTED_EDGE ( 'NONE', *, *, #31, .T. ) ;
#1036 = DIRECTION ( 'NONE',  ( 1.000000000000000000, 4.302114220421775406E-14, 0.000000000000000000 ) ) ;
#1037 = APPLICATION_CONTEXT ( 'automotive_design' ) ;
#1038 = ADVANCED_FACE ( 'NONE', ( #301 ), #930, .T. ) ;
#1039 = CARTESIAN_POINT ( 'NONE',  ( -10.00000038603494268, 50.83999996212384787, 1.224646799147587351E-15 ) ) ;
#1040 = CARTESIAN_POINT ( 'NONE',  ( -3.860330793085714245E-07, 51.99999996212451947, 0.000000000000000000 ) ) ;
#1041 = LINE ( 'NONE', #854, #183 ) ;
#1042 = EDGE_CURVE ( 'NONE', #90, #640, #72, .T. ) ;
#1043 = DIRECTION ( 'NONE',  ( -4.263285714314105206E-14, 1.000000000000000000, 0.000000000000000000 ) ) ;
#1044 = DIRECTION ( 'NONE',  ( 1.000000000000000000, 0.000000000000000000, 0.000000000000000000 ) ) ;
#1045 = ORIENTED_EDGE ( 'NONE', *, *, #88, .T. ) ;
#1046 = AXIS2_PLACEMENT_3D ( 'NONE', #445, #516, #688 ) ;
#1047 = CIRCLE ( 'NONE', #805, 8.000000000001461942 ) ;
#1048 = DIRECTION ( 'NONE',  ( 1.000000000000000000, 4.232725281382600255E-14, 0.000000000000000000 ) ) ;
#1049 = ADVANCED_FACE ( 'NONE', ( #860 ), #1012, .F. ) ;
#1050 = VERTEX_POINT ( 'NONE', #139 ) ;
#1051 = CARTESIAN_POINT ( 'NONE',  ( -4.950000386031351063, -3.787622443264286296E-08, 6.062001655779997059E-16 ) ) ;
#1052 = VERTEX_POINT ( 'NONE', #865 ) ;
ENDSEC;
END-ISO-10303-21;
