ISO-10303-21;
HEADER;
FILE_DESCRIPTION (( 'STEP AP214' ),
    '1' );
FILE_NAME ('99688-SI12-12+S9MT1203-142.STEP',
    '2023-07-20T01:10:32',
    ( '' ),
    ( '' ),
    'SwSTEP 2.0',
    'SolidWorks 2020',
    '' );
FILE_SCHEMA (( 'AUTOMOTIVE_DESIGN' ));
ENDSEC;

DATA;
#1 = CARTESIAN_POINT ( 'NONE',  ( 0.1999999999771972792, 1000.000000000000000, 0.000000000000000000 ) ) ;
#2 = CIRCLE ( 'NONE', #354, 6.000000000001752376 ) ;
#3 = DIRECTION ( 'NONE',  ( 2.280557593651847682E-14, -1.000000000000000000, -0.000000000000000000 ) ) ;
#4 = EDGE_CURVE ( 'NONE', #108, #264, #121, .T. ) ;
#5 =( NAMED_UNIT ( * ) SI_UNIT ( $, .STERADIAN. ) SOLID_ANGLE_UNIT ( ) );
#6 = SURFACE_STYLE_FILL_AREA ( #131 ) ;
#7 = ORIENTED_EDGE ( 'NONE', *, *, #536, .F. ) ;
#8 = AXIS2_PLACEMENT_3D ( 'NONE', #92, #321, #440 ) ;
#9 = EDGE_LOOP ( 'NONE', ( #345, #98, #300 ) ) ;
#10 = FACE_OUTER_BOUND ( 'NONE', #192, .T. ) ;
#11 = ORIENTED_EDGE ( 'NONE', *, *, #553, .F. ) ;
#12 = DIRECTION ( 'NONE',  ( 1.000000000000000000, 2.312964634635783603E-14, 0.000000000000000000 ) ) ;
#13 = ORIENTED_EDGE ( 'NONE', *, *, #173, .T. ) ;
#14 = CARTESIAN_POINT ( 'NONE',  ( 6.199999999998055067, 38.49999999999803890, 0.000000000000000000 ) ) ;
#15 = EDGE_LOOP ( 'NONE', ( #372, #75 ) ) ;
#16 = VERTEX_POINT ( 'NONE', #164 ) ;
#17 = AXIS2_PLACEMENT_3D ( 'NONE', #279, #456, #144 ) ;
#18 = EDGE_CURVE ( 'NONE', #561, #492, #435, .T. ) ;
#19 = DIRECTION ( 'NONE',  ( 2.280557593651847682E-14, -1.000000000000000000, -0.000000000000000000 ) ) ;
#20 = PRODUCT_CONTEXT ( 'NONE', #400, 'mechanical' ) ;
#21 = ORIENTED_EDGE ( 'NONE', *, *, #26, .F. ) ;
#22 = FILL_AREA_STYLE ('',( #351 ) ) ;
#23 = ORIENTED_EDGE ( 'NONE', *, *, #432, .F. ) ;
#24 = ORIENTED_EDGE ( 'NONE', *, *, #301, .F. ) ;
#25 = DIRECTION ( 'NONE',  ( 1.000000000000000000, 2.271661694731885277E-14, 0.000000000000000000 ) ) ;
#26 = EDGE_CURVE ( 'NONE', #113, #101, #398, .T. ) ;
#27 = CARTESIAN_POINT ( 'NONE',  ( 0.1999999999997601197, 10.64342862858097583, 0.000000000000000000 ) ) ;
#28 = ORIENTED_EDGE ( 'NONE', *, *, #409, .F. ) ;
#29 = MECHANICAL_DESIGN_GEOMETRIC_PRESENTATION_REPRESENTATION (  '', ( #532 ), #132 ) ;
#30 = DIRECTION ( 'NONE',  ( 1.000000000000000000, 2.280557593651847998E-14, 0.000000000000000000 ) ) ;
#31 = STYLED_ITEM ( 'NONE', ( #484 ), #320 ) ;
#32 = ORIENTED_EDGE ( 'NONE', *, *, #288, .F. ) ;
#33 = COLOUR_RGB ( '',0.7921568627450980005, 0.8196078431372548767, 0.9333333333333333481 ) ;
#34 = FACE_BOUND ( 'NONE', #255, .T. ) ;
#35 = LINE ( 'NONE', #469, #443 ) ;
#36 = CARTESIAN_POINT ( 'NONE',  ( 0.1999999999980985876, 83.49999999999705835, 0.000000000000000000 ) ) ;
#37 = EDGE_LOOP ( 'NONE', ( #104, #7 ) ) ;
#38 = PLANE ( 'NONE',  #161 ) ;
#39 = DIRECTION ( 'NONE',  ( 0.8660254037844824504, 0.4999999999999241163, 1.060575238724974584E-16 ) ) ;
#40 = CARTESIAN_POINT ( 'NONE',  ( 0.2000000000000028422, 7.105427357601001859E-15, 0.000000000000000000 ) ) ;
#41 = AXIS2_PLACEMENT_3D ( 'NONE', #254, #3, #225 ) ;
#42 = ADVANCED_FACE ( 'NONE', ( #515 ), #306, .T. ) ;
#43 =( NAMED_UNIT ( * ) PLANE_ANGLE_UNIT ( ) SI_UNIT ( $, .RADIAN. ) );
#44 = CARTESIAN_POINT ( 'NONE',  ( 0.1999999999991248500, 38.49999999999793232, 0.000000000000000000 ) ) ;
#45 = EDGE_CURVE ( 'NONE', #174, #565, #35, .T. ) ;
#46 = PRESENTATION_LAYER_ASSIGNMENT (  '', '', ( #31 ) ) ;
#47 = CIRCLE ( 'NONE', #378, 6.359999999998881215 ) ;
#48 = CARTESIAN_POINT ( 'NONE',  ( 0.1999999999981054155, 83.19999999999704698, 0.000000000000000000 ) ) ;
#49 = VERTEX_POINT ( 'NONE', #568 ) ;
#50 = PRODUCT_DEFINITION_SHAPE ( 'NONE', 'NONE',  #359 ) ;
#51 = DIRECTION ( 'NONE',  ( 1.000000000000000000, 2.312964634636154999E-14, 0.000000000000000000 ) ) ;
#52 = EDGE_LOOP ( 'NONE', ( #32, #119, #13, #501 ) ) ;
#53 = CARTESIAN_POINT ( 'NONE',  ( 0.2000000000000028422, 7.105427357601001859E-15, 0.000000000000000000 ) ) ;
#54 = EDGE_CURVE ( 'NONE', #246, #62, #198, .T. ) ;
#55 = TOROIDAL_SURFACE ( 'NONE', #94, 6.239999999998931735, 0.2400000000000002687 ) ;
#56 = AXIS2_PLACEMENT_3D ( 'NONE', #122, #389, #261 ) ;
#57 = EDGE_LOOP ( 'NONE', ( #353, #234, #417, #326 ) ) ;
#58 = CARTESIAN_POINT ( 'NONE',  ( 0.1999999999999557410, 2.065965679739063088, 0.000000000000000000 ) ) ;
#59 = DIRECTION ( 'NONE',  ( 2.280557593651847682E-14, -1.000000000000000000, -0.000000000000000000 ) ) ;
#60 = ORIENTED_EDGE ( 'NONE', *, *, #54, .T. ) ;
#61 = ADVANCED_FACE ( 'NONE', ( #421 ), #55, .F. ) ;
#62 = VERTEX_POINT ( 'NONE', #312 ) ;
#63 = DIRECTION ( 'NONE',  ( 2.280557593651847682E-14, -1.000000000000000000, -0.000000000000000000 ) ) ;
#64 = AXIS2_PLACEMENT_3D ( 'NONE', #180, #311, #115 ) ;
#65 = UNCERTAINTY_MEASURE_WITH_UNIT (LENGTH_MEASURE( 1.000000000000000082E-05 ), #559, 'distance_accuracy_value', 'NONE');
#66 = ORIENTED_EDGE ( 'NONE', *, *, #455, .F. ) ;
#67 = CONICAL_SURFACE ( 'NONE', #177, 5.999999999999894307, 0.7853981633973239340 ) ;
#68 = CARTESIAN_POINT ( 'NONE',  ( -5.800000000001605649, 10.64342862858083905, 7.347880794886030752E-16 ) ) ;
#69 = DIRECTION ( 'NONE',  ( -1.000000000000000000, -2.280557593651847682E-14, 0.000000000000000000 ) ) ;
#70 = LINE ( 'NONE', #76, #275 ) ;
#71 = FILL_AREA_STYLE ('',( #464 ) ) ;
#72 = DIRECTION ( 'NONE',  ( 1.224646799147353207E-16, 2.792877557336925434E-30, 1.000000000000000000 ) ) ;
#73 = ORIENTED_EDGE ( 'NONE', *, *, #88, .T. ) ;
#74 = DIRECTION ( 'NONE',  ( -0.7071067811863475105, -0.7071067811867476349, 8.659560562352682139E-17 ) ) ;
#75 = ORIENTED_EDGE ( 'NONE', *, *, #414, .F. ) ;
#76 = CARTESIAN_POINT ( 'NONE',  ( -5.800000000001556799, -1.297280282615454020E-13, 7.347880794886028779E-16 ) ) ;
#77 =( LENGTH_UNIT ( ) NAMED_UNIT ( * ) SI_UNIT ( .MILLI., .METRE. ) );
#78 = DIRECTION ( 'NONE',  ( 1.000000000000000000, 2.271661694731885277E-14, 0.000000000000000000 ) ) ;
#79 = EDGE_CURVE ( 'NONE', #396, #264, #70, .T. ) ;
#80 = FACE_OUTER_BOUND ( 'NONE', #257, .T. ) ;
#81 = CYLINDRICAL_SURFACE ( 'NONE', #401, 6.000000000001559641 ) ;
#82 = ORIENTED_EDGE ( 'NONE', *, *, #126, .F. ) ;
#83 = DIRECTION ( 'NONE',  ( 0.000000000000000000, 0.000000000000000000, -1.000000000000000000 ) ) ;
#84 = AXIS2_PLACEMENT_3D ( 'NONE', #44, #404, #576 ) ;
#85 = DIRECTION ( 'NONE',  ( 2.280557593651847682E-14, -1.000000000000000000, -0.000000000000000000 ) ) ;
#86 = DIRECTION ( 'NONE',  ( 0.9455185755992870922, 0.3255681544572430752, 1.157926297142040499E-16 ) ) ;
#87 = LINE ( 'NONE', #273, #339 ) ;
#88 = EDGE_CURVE ( 'NONE', #153, #62, #555, .T. ) ;
#89 = LINE ( 'NONE', #179, #138 ) ;
#90 = SURFACE_STYLE_USAGE ( .BOTH. , #319 ) ;
#91 = ADVANCED_FACE ( 'NONE', ( #80 ), #159, .T. ) ;
#92 = CARTESIAN_POINT ( 'NONE',  ( 0.1999999999991248500, 38.49999999999788258, 0.000000000000000000 ) ) ;
#93 = DIRECTION ( 'NONE',  ( 1.000000000000000000, 2.280557593651847367E-14, 0.000000000000000000 ) ) ;
#94 = AXIS2_PLACEMENT_3D ( 'NONE', #519, #308, #475 ) ;
#95 = AXIS2_PLACEMENT_3D ( 'NONE', #27, #424, #218 ) ;
#96 = CIRCLE ( 'NONE', #213, 5.699999999999945999 ) ;
#97 = EDGE_CURVE ( 'NONE', #113, #561, #338, .T. ) ;
#98 = ORIENTED_EDGE ( 'NONE', *, *, #106, .T. ) ;
#99 = DIRECTION ( 'NONE',  ( 1.000000000000000000, 2.280557593651847367E-14, 0.000000000000000000 ) ) ;
#100 = UNCERTAINTY_MEASURE_WITH_UNIT (LENGTH_MEASURE( 1.000000000000000082E-05 ), #276, 'distance_accuracy_value', 'NONE');
#101 = VERTEX_POINT ( 'NONE', #229 ) ;
#102 = CARTESIAN_POINT ( 'NONE',  ( 0.1999999999991248500, 38.49999999999789679, 0.000000000000000000 ) ) ;
#103 = CIRCLE ( 'NONE', #294, 7.750000000001201705 ) ;
#104 = ORIENTED_EDGE ( 'NONE', *, *, #230, .F. ) ;
#105 = DIRECTION ( 'NONE',  ( 1.000000000000000000, 2.312964634635783603E-14, 0.000000000000000000 ) ) ;
#106 = EDGE_CURVE ( 'NONE', #108, #546, #89, .T. ) ;
#107 = DIRECTION ( 'NONE',  ( 1.000000000000000000, 2.273556325002014909E-14, 0.000000000000000000 ) ) ;
#108 = VERTEX_POINT ( 'NONE', #537 ) ;
#109 = EDGE_LOOP ( 'NONE', ( #280, #243, #259, #124 ) ) ;
#110 = CLOSED_SHELL ( 'NONE', ( #331, #315, #61, #215, #42, #505, #186, #530, #274, #320, #91, #560, #463, #397, #148, #129, #496, #369, #270, #542 ) ) ;
#111 = CIRCLE ( 'NONE', #472, 5.699999999999945999 ) ;
#112 = DIRECTION ( 'NONE',  ( 0.7071067811864756303, -0.7071067811866195152, 0.000000000000000000 ) ) ;
#113 = VERTEX_POINT ( 'NONE', #535 ) ;
#114 = AXIS2_PLACEMENT_3D ( 'NONE', #564, #470, #526 ) ;
#115 = DIRECTION ( 'NONE',  ( -1.000000000000000000, -2.271661694731884962E-14, 0.000000000000000000 ) ) ;
#116 = PRESENTATION_STYLE_ASSIGNMENT (( #510 ) ) ;
#117 = ORIENTED_EDGE ( 'NONE', *, *, #4, .T. ) ;
#118 = DIRECTION ( 'NONE',  ( 2.280557593651847682E-14, -1.000000000000000000, -0.000000000000000000 ) ) ;
#119 = ORIENTED_EDGE ( 'NONE', *, *, #536, .T. ) ;
#120 = DIRECTION ( 'NONE',  ( 2.280557593651847682E-14, -1.000000000000000000, -0.000000000000000000 ) ) ;
#121 = LINE ( 'NONE', #394, #150 ) ;
#122 = CARTESIAN_POINT ( 'NONE',  ( 0.1999999999997601197, 10.64342862858097583, 0.000000000000000000 ) ) ;
#123 = AXIS2_PLACEMENT_3D ( 'NONE', #433, #296, #302 ) ;
#124 = ORIENTED_EDGE ( 'NONE', *, *, #409, .T. ) ;
#125 = DIRECTION ( 'NONE',  ( 2.280557593651847682E-14, -1.000000000000000000, -0.000000000000000000 ) ) ;
#126 = EDGE_CURVE ( 'NONE', #561, #333, #291, .T. ) ;
#127 = DIRECTION ( 'NONE',  ( 1.000000000000000000, 2.283119929672510473E-14, 0.000000000000000000 ) ) ;
#128 = CARTESIAN_POINT ( 'NONE',  ( 0.1999999999771972792, 1000.000000000000000, 0.000000000000000000 ) ) ;
#129 = ADVANCED_FACE ( 'NONE', ( #272 ), #236, .F. ) ;
#130 = VECTOR ( 'NONE', #120, 1000.000000000000000 ) ;
#131 = FILL_AREA_STYLE ('',( #366 ) ) ;
#132 =( GEOMETRIC_REPRESENTATION_CONTEXT ( 3 ) GLOBAL_UNCERTAINTY_ASSIGNED_CONTEXT ( ( #65 ) ) GLOBAL_UNIT_ASSIGNED_CONTEXT ( ( #559, #346, #134 ) ) REPRESENTATION_CONTEXT ( 'NONE', 'WORKASPACE' ) );
#133 = AXIS2_PLACEMENT_3D ( 'NONE', #367, #63, #107 ) ;
#134 =( NAMED_UNIT ( * ) SI_UNIT ( $, .STERADIAN. ) SOLID_ANGLE_UNIT ( ) );
#135 = DIRECTION ( 'NONE',  ( -1.000000000000000000, -2.282214252402337369E-14, 0.000000000000000000 ) ) ;
#136 = PRESENTATION_STYLE_ASSIGNMENT (( #491 ) ) ;
#137 = CYLINDRICAL_SURFACE ( 'NONE', #283, 5.999999999999412914 ) ;
#138 = VECTOR ( 'NONE', #86, 1000.000000000000227 ) ;
#139 = AXIS2_PLACEMENT_3D ( 'NONE', #402, #85, #51 ) ;
#140 = AXIS2_PLACEMENT_3D ( 'NONE', #265, #395, #392 ) ;
#141 = EDGE_CURVE ( 'NONE', #174, #304, #267, .T. ) ;
#142 = ORIENTED_EDGE ( 'NONE', *, *, #239, .T. ) ;
#143 = ORIENTED_EDGE ( 'NONE', *, *, #517, .F. ) ;
#144 = DIRECTION ( 'NONE',  ( 1.000000000000000000, 2.312964634635783603E-14, 0.000000000000000000 ) ) ;
#145 = ORIENTED_EDGE ( 'NONE', *, *, #204, .F. ) ;
#146 = DIRECTION ( 'NONE',  ( 2.280557593651847682E-14, -1.000000000000000000, -0.000000000000000000 ) ) ;
#147 = ORIENTED_EDGE ( 'NONE', *, *, #376, .T. ) ;
#148 = ADVANCED_FACE ( 'NONE', ( #34, #307 ), #38, .T. ) ;
#149 = FACE_OUTER_BOUND ( 'NONE', #57, .T. ) ;
#150 = VECTOR ( 'NONE', #347, 999.9999999999998863 ) ;
#151 = CIRCLE ( 'NONE', #163, 6.719999999998957918 ) ;
#152 = VECTOR ( 'NONE', #548, 1000.000000000000114 ) ;
#153 = VERTEX_POINT ( 'NONE', #567 ) ;
#154 = DIRECTION ( 'NONE',  ( 0.4008861359645853328, 0.9161278873560088076, 4.909439232316056198E-17 ) ) ;
#155 = ORIENTED_EDGE ( 'NONE', *, *, #204, .T. ) ;
#156 = ORIENTED_EDGE ( 'NONE', *, *, #301, .T. ) ;
#157 = ORIENTED_EDGE ( 'NONE', *, *, #79, .F. ) ;
#158 = CARTESIAN_POINT ( 'NONE',  ( 0.1999999999991275701, 38.37999999999785672, 0.000000000000000000 ) ) ;
#159 = CYLINDRICAL_SURFACE ( 'NONE', #248, 6.000000000001559641 ) ;
#160 = SURFACE_SIDE_STYLE ('',( #422 ) ) ;
#161 = AXIS2_PLACEMENT_3D ( 'NONE', #393, #506, #69 ) ;
#162 = EDGE_CURVE ( 'NONE', #214, #101, #468, .T. ) ;
#163 = AXIS2_PLACEMENT_3D ( 'NONE', #297, #480, #25 ) ;
#164 = CARTESIAN_POINT ( 'NONE',  ( 6.200000000001125500, 10.64342862858111260, 0.000000000000000000 ) ) ;
#165 = AXIS2_PLACEMENT_3D ( 'NONE', #371, #146, #99 ) ;
#166 = CARTESIAN_POINT ( 'NONE',  ( 6.559999999998010978, 38.29215390308976907, 8.009190066422366183E-16 ) ) ;
#167 = CARTESIAN_POINT ( 'NONE',  ( 6.200000000001562483, 1.439388829767474309E-13, 0.000000000000000000 ) ) ;
#168 = DIRECTION ( 'NONE',  ( 1.000000000000000000, 0.000000000000000000, -1.224646799147351482E-16 ) ) ;
#169 = PLANE ( 'NONE',  #140 ) ;
#170 = CARTESIAN_POINT ( 'NONE',  ( 7.830000000000310934, 38.49999999999810285, 0.000000000000000000 ) ) ;
#171 = DIRECTION ( 'NONE',  ( 2.280557593651847682E-14, -1.000000000000000000, -0.000000000000000000 ) ) ;
#172 = CARTESIAN_POINT ( 'NONE',  ( 7.950000000000329692, 38.37999999999802725, 0.000000000000000000 ) ) ;
#173 = EDGE_CURVE ( 'NONE', #206, #49, #219, .T. ) ;
#174 = VERTEX_POINT ( 'NONE', #170 ) ;
#175 = CIRCLE ( 'NONE', #399, 6.000000000001752376 ) ;
#176 = CARTESIAN_POINT ( 'NONE',  ( -5.500000000001847411, 83.49999999999694467, 7.164183775011916829E-16 ) ) ;
#177 = AXIS2_PLACEMENT_3D ( 'NONE', #287, #325, #105 ) ;
#178 = UNCERTAINTY_MEASURE_WITH_UNIT (LENGTH_MEASURE( 1.000000000000000082E-05 ), #438, 'distance_accuracy_value', 'NONE');
#179 = CARTESIAN_POINT ( 'NONE',  ( 0.2000000000000028422, 7.105427357601001859E-15, 0.000000000000000000 ) ) ;
#180 = CARTESIAN_POINT ( 'NONE',  ( 0.1999999999991248500, 38.49999999999788258, 0.000000000000000000 ) ) ;
#181 = MANIFOLD_SOLID_BREP ( '±ÛÂà1', #110 ) ;
#182 = DIRECTION ( 'NONE',  ( 2.280557593651847682E-14, -1.000000000000000000, -0.000000000000000000 ) ) ;
#183 = MECHANICAL_DESIGN_GEOMETRIC_PRESENTATION_REPRESENTATION (  '', ( #428 ), #446 ) ;
#184 = CARTESIAN_POINT ( 'NONE',  ( -7.430000000002061178, 38.49999999999775468, 9.417533885444608615E-16 ) ) ;
#185 = FACE_OUTER_BOUND ( 'NONE', #9, .T. ) ;
#186 = ADVANCED_FACE ( 'NONE', ( #262 ), #572, .T. ) ;
#187 = DIRECTION ( 'NONE',  ( 1.000000000000000000, 2.283119929672510473E-14, 0.000000000000000000 ) ) ;
#188 = AXIS2_PLACEMENT_3D ( 'NONE', #485, #83, #406 ) ;
#189 = PRODUCT_DEFINITION_CONTEXT ( 'detailed design', #419, 'design' ) ;
#190 =( GEOMETRIC_REPRESENTATION_CONTEXT ( 3 ) GLOBAL_UNCERTAINTY_ASSIGNED_CONTEXT ( ( #100 ) ) GLOBAL_UNIT_ASSIGNED_CONTEXT ( ( #276, #575, #318 ) ) REPRESENTATION_CONTEXT ( 'NONE', 'WORKASPACE' ) );
#191 = CIRCLE ( 'NONE', #56, 6.000000000001365130 ) ;
#192 = EDGE_LOOP ( 'NONE', ( #385, #498, #527, #66 ) ) ;
#193 = DIRECTION ( 'NONE',  ( 1.000000000000000000, 2.280557593651847998E-14, 0.000000000000000000 ) ) ;
#194 = EDGE_CURVE ( 'NONE', #492, #390, #151, .T. ) ;
#195 = DIRECTION ( 'NONE',  ( 2.280557593651847682E-14, -1.000000000000000000, -0.000000000000000000 ) ) ;
#196 = ORIENTED_EDGE ( 'NONE', *, *, #447, .F. ) ;
#197 = CARTESIAN_POINT ( 'NONE',  ( 0.1999999999991275701, 38.37999999999785672, 0.000000000000000000 ) ) ;
#198 = CIRCLE ( 'NONE', #522, 7.750000000000646594 ) ;
#199 = AXIS2_PLACEMENT_3D ( 'NONE', #158, #545, #328 ) ;
#200 = ORIENTED_EDGE ( 'NONE', *, *, #258, .F. ) ;
#201 = DIRECTION ( 'NONE',  ( 2.280557593651847682E-14, -1.000000000000000000, -0.000000000000000000 ) ) ;
#202 = DIRECTION ( 'NONE',  ( 2.280557593651847682E-14, -1.000000000000000000, -0.000000000000000000 ) ) ;
#203 =( NAMED_UNIT ( * ) SI_UNIT ( $, .STERADIAN. ) SOLID_ANGLE_UNIT ( ) );
#204 = EDGE_CURVE ( 'NONE', #16, #546, #349, .T. ) ;
#205 =( NAMED_UNIT ( * ) SI_UNIT ( $, .STERADIAN. ) SOLID_ANGLE_UNIT ( ) );
#206 = VERTEX_POINT ( 'NONE', #222 ) ;
#207 = DIRECTION ( 'NONE',  ( 1.000000000000000000, 2.280557593651847682E-14, 0.000000000000000000 ) ) ;
#208 = ORIENTED_EDGE ( 'NONE', *, *, #26, .T. ) ;
#209 = ADVANCED_BREP_SHAPE_REPRESENTATION ( '99688-SI12-12+S9MT1203-142', ( #181, #250 ), #317 ) ;
#210 = COLOUR_RGB ( '',0.7921568627450980005, 0.8196078431372548767, 0.9333333333333333481 ) ;
#211 = CONICAL_SURFACE ( 'NONE', #64, 6.719999999998958806, 1.047197551196708210 ) ;
#212 = ORIENTED_EDGE ( 'NONE', *, *, #251, .F. ) ;
#213 = AXIS2_PLACEMENT_3D ( 'NONE', #36, #479, #476 ) ;
#214 = VERTEX_POINT ( 'NONE', #465 ) ;
#215 = ADVANCED_FACE ( 'NONE', ( #571 ), #211, .F. ) ;
#216 = CARTESIAN_POINT ( 'NONE',  ( 0.1999999999996689148, 14.64262854856495899, 0.000000000000000000 ) ) ;
#217 = FACE_OUTER_BOUND ( 'NONE', #37, .T. ) ;
#218 = DIRECTION ( 'NONE',  ( -1.000000000000000000, -2.284052576702276201E-14, 0.000000000000000000 ) ) ;
#219 = LINE ( 'NONE', #298, #451 ) ;
#220 = ORIENTED_EDGE ( 'NONE', *, *, #194, .T. ) ;
#221 = DIRECTION ( 'NONE',  ( 2.280557593651847682E-14, -1.000000000000000000, -0.000000000000000000 ) ) ;
#222 = CARTESIAN_POINT ( 'NONE',  ( 5.899999999998043698, 83.49999999999718625, 0.000000000000000000 ) ) ;
#223 = STYLED_ITEM ( 'NONE', ( #136 ), #274 ) ;
#224 = AXIS2_PLACEMENT_3D ( 'NONE', #128, #235, #377 ) ;
#225 = DIRECTION ( 'NONE',  ( 1.000000000000000000, 2.291144213554676602E-14, 0.000000000000000000 ) ) ;
#226 = DIRECTION ( 'NONE',  ( 1.000000000000000000, 2.284052576702128842E-14, 0.000000000000000000 ) ) ;
#227 = FILL_AREA_STYLE ('',( #529 ) ) ;
#228 = CIRCLE ( 'NONE', #549, 6.000000000001365130 ) ;
#229 = CARTESIAN_POINT ( 'NONE',  ( -5.799999999999807088, 38.49999999999775468, 7.568317218729306199E-16 ) ) ;
#230 = EDGE_CURVE ( 'NONE', #206, #551, #111, .T. ) ;
#231 = FACE_OUTER_BOUND ( 'NONE', #539, .T. ) ;
#232 = ORIENTED_EDGE ( 'NONE', *, *, #88, .F. ) ;
#233 = FACE_OUTER_BOUND ( 'NONE', #412, .T. ) ;
#234 = ORIENTED_EDGE ( 'NONE', *, *, #288, .T. ) ;
#235 = DIRECTION ( 'NONE',  ( -2.280557593651847682E-14, 1.000000000000000000, 0.000000000000000000 ) ) ;
#236 = CONICAL_SURFACE ( 'NONE', #8, 6.719999999998958806, 1.047197551196708210 ) ;
#237 = ORIENTED_EDGE ( 'NONE', *, *, #54, .F. ) ;
#238 = AXIS2_PLACEMENT_3D ( 'NONE', #1, #442, #135 ) ;
#239 = EDGE_CURVE ( 'NONE', #390, #492, #489, .T. ) ;
#240 = PRODUCT_DEFINITION_FORMATION_WITH_SPECIFIED_SOURCE ( 'ANY', '', #544, .NOT_KNOWN. ) ;
#241 = EDGE_LOOP ( 'NONE', ( #266, #525, #420, #23 ) ) ;
#242 = CYLINDRICAL_SURFACE ( 'NONE', #165, 5.999999999999412914 ) ;
#243 = ORIENTED_EDGE ( 'NONE', *, *, #376, .F. ) ;
#244 = DIRECTION ( 'NONE',  ( 1.000000000000000000, 2.238352872227791210E-14, 0.000000000000000000 ) ) ;
#245 = ORIENTED_EDGE ( 'NONE', *, *, #473, .F. ) ;
#246 = VERTEX_POINT ( 'NONE', #528 ) ;
#247 = DIRECTION ( 'NONE',  ( 1.000000000000000000, 2.312964634636154999E-14, 0.000000000000000000 ) ) ;
#248 = AXIS2_PLACEMENT_3D ( 'NONE', #337, #507, #462 ) ;
#249 = CIRCLE ( 'NONE', #309, 7.750000000000646594 ) ;
#250 = AXIS2_PLACEMENT_3D ( 'NONE', #514, #550, #340 ) ;
#251 = EDGE_CURVE ( 'NONE', #546, #264, #175, .T. ) ;
#252 = DIRECTION ( 'NONE',  ( 2.280557593651847682E-14, -1.000000000000000000, -0.000000000000000000 ) ) ;
#253 = CARTESIAN_POINT ( 'NONE',  ( -5.799999999999410072, -1.297280282614964547E-13, 7.347880794883399901E-16 ) ) ;
#254 = CARTESIAN_POINT ( 'NONE',  ( 0.1999999999991295963, 38.29215390308962697, 0.000000000000000000 ) ) ;
#255 = EDGE_LOOP ( 'NONE', ( #142, #220 ) ) ;
#256 = ORIENTED_EDGE ( 'NONE', *, *, #343, .F. ) ;
#257 = EDGE_LOOP ( 'NONE', ( #157, #147, #155, #256 ) ) ;
#258 = EDGE_CURVE ( 'NONE', #333, #101, #268, .T. ) ;
#259 = ORIENTED_EDGE ( 'NONE', *, *, #488, .T. ) ;
#260 = PRESENTATION_LAYER_ASSIGNMENT (  '', '', ( #428 ) ) ;
#261 = DIRECTION ( 'NONE',  ( 1.000000000000000000, 2.284052576702276201E-14, 0.000000000000000000 ) ) ;
#262 = FACE_OUTER_BOUND ( 'NONE', #471, .T. ) ;
#263 = CARTESIAN_POINT ( 'NONE',  ( -7.550000000000921752, -1.696377861504382782E-13, 9.491012693393119802E-16 ) ) ;
#264 = VERTEX_POINT ( 'NONE', #531 ) ;
#265 = CARTESIAN_POINT ( 'NONE',  ( 0.1999999999980985876, 83.49999999999710099, 0.000000000000000000 ) ) ;
#266 = ORIENTED_EDGE ( 'NONE', *, *, #162, .F. ) ;
#267 = CIRCLE ( 'NONE', #84, 7.630000000001186500 ) ;
#268 = CIRCLE ( 'NONE', #139, 5.999999999998930633 ) ;
#269 = AXIS2_PLACEMENT_3D ( 'NONE', #53, #552, #193 ) ;
#270 = ADVANCED_FACE ( 'NONE', ( #365 ), #499, .T. ) ;
#271 = DIRECTION ( 'NONE',  ( 2.280557593651847682E-14, -1.000000000000000000, -0.000000000000000000 ) ) ;
#272 = FACE_OUTER_BOUND ( 'NONE', #407, .T. ) ;
#273 = CARTESIAN_POINT ( 'NONE',  ( -5.800000000001788614, 83.19999999999690488, 7.347880794883989574E-16 ) ) ;
#274 = ADVANCED_FACE ( 'NONE', ( #185 ), #482, .T. ) ;
#275 = VECTOR ( 'NONE', #202, 1000.000000000000000 ) ;
#276 =( LENGTH_UNIT ( ) NAMED_UNIT ( * ) SI_UNIT ( .MILLI., .METRE. ) );
#277 = AXIS2_PLACEMENT_3D ( 'NONE', #40, #310, #30 ) ;
#278 = LINE ( 'NONE', #538, #316 ) ;
#279 = CARTESIAN_POINT ( 'NONE',  ( 0.1999999999981054155, 83.19999999999704698, 0.000000000000000000 ) ) ;
#280 = ORIENTED_EDGE ( 'NONE', *, *, #357, .F. ) ;
#281 = CARTESIAN_POINT ( 'NONE',  ( 0.1999999999997601197, 10.64342862858097583, 0.000000000000000000 ) ) ;
#282 = PRESENTATION_LAYER_ASSIGNMENT (  '', '', ( #532 ) ) ;
#283 = AXIS2_PLACEMENT_3D ( 'NONE', #441, #358, #93 ) ;
#284 = VECTOR ( 'NONE', #118, 1000.000000000000000 ) ;
#285 = EDGE_LOOP ( 'NONE', ( #563, #208, #511, #82 ) ) ;
#286 = DIRECTION ( 'NONE',  ( 2.280557593651847682E-14, -1.000000000000000000, -0.000000000000000000 ) ) ;
#287 = CARTESIAN_POINT ( 'NONE',  ( 0.1999999999981054155, 83.19999999999704698, 0.000000000000000000 ) ) ;
#288 = EDGE_CURVE ( 'NONE', #551, #214, #87, .T. ) ;
#289 = ORIENTED_EDGE ( 'NONE', *, *, #18, .F. ) ;
#290 = DIRECTION ( 'NONE',  ( 2.280557593651847682E-14, -1.000000000000000000, -0.000000000000000000 ) ) ;
#291 = CIRCLE ( 'NONE', #188, 0.2400000000000006295 ) ;
#292 = MECHANICAL_DESIGN_GEOMETRIC_PRESENTATION_REPRESENTATION (  '', ( #223 ), #190 ) ;
#293 =( LENGTH_UNIT ( ) NAMED_UNIT ( * ) SI_UNIT ( .MILLI., .METRE. ) );
#294 = AXIS2_PLACEMENT_3D ( 'NONE', #450, #286, #244 ) ;
#295 = SURFACE_STYLE_FILL_AREA ( #22 ) ;
#296 = DIRECTION ( 'NONE',  ( 2.280557593651847682E-14, -1.000000000000000000, -0.000000000000000000 ) ) ;
#297 = CARTESIAN_POINT ( 'NONE',  ( 0.1999999999991248500, 38.49999999999788258, 0.000000000000000000 ) ) ;
#298 = CARTESIAN_POINT ( 'NONE',  ( 6.199999999998000000, 83.19999999999717488, 0.000000000000000000 ) ) ;
#299 = CARTESIAN_POINT ( 'NONE',  ( -6.039999999999805524, 38.49999999999776890, 7.641796026678174346E-16 ) ) ;
#300 = ORIENTED_EDGE ( 'NONE', *, *, #251, .T. ) ;
#301 = EDGE_CURVE ( 'NONE', #565, #246, #278, .T. ) ;
#302 = DIRECTION ( 'NONE',  ( 1.000000000000000000, 2.238352872227791210E-14, 0.000000000000000000 ) ) ;
#303 = FACE_OUTER_BOUND ( 'NONE', #383, .T. ) ;
#304 = VERTEX_POINT ( 'NONE', #184 ) ;
#305 = DIRECTION ( 'NONE',  ( 2.280557593651847682E-14, -1.000000000000000000, -0.000000000000000000 ) ) ;
#306 = CONICAL_SURFACE ( 'NONE', #123, 7.750000000001201705, 0.7853981633971882648 ) ;
#307 = FACE_OUTER_BOUND ( 'NONE', #15, .T. ) ;
#308 = DIRECTION ( 'NONE',  ( 2.280557593651847682E-14, -1.000000000000000000, -0.000000000000000000 ) ) ;
#309 = AXIS2_PLACEMENT_3D ( 'NONE', #330, #201, #187 ) ;
#310 = DIRECTION ( 'NONE',  ( 2.280557593651847682E-14, -1.000000000000000000, -0.000000000000000000 ) ) ;
#311 = DIRECTION ( 'NONE',  ( -2.280557593651847682E-14, 1.000000000000000000, 0.000000000000000000 ) ) ;
#312 = CARTESIAN_POINT ( 'NONE',  ( -7.550000000000977707, 14.64262854856478135, 0.000000000000000000 ) ) ;
#313 = FACE_OUTER_BOUND ( 'NONE', #431, .T. ) ;
#314 = EDGE_LOOP ( 'NONE', ( #425, #449, #558, #516 ) ) ;
#315 = ADVANCED_FACE ( 'NONE', ( #233 ), #137, .T. ) ;
#316 = VECTOR ( 'NONE', #486, 1000.000000000000000 ) ;
#317 =( GEOMETRIC_REPRESENTATION_CONTEXT ( 3 ) GLOBAL_UNCERTAINTY_ASSIGNED_CONTEXT ( ( #477 ) ) GLOBAL_UNIT_ASSIGNED_CONTEXT ( ( #77, #356, #203 ) ) REPRESENTATION_CONTEXT ( 'NONE', 'WORKASPACE' ) );
#318 =( NAMED_UNIT ( * ) SI_UNIT ( $, .STERADIAN. ) SOLID_ANGLE_UNIT ( ) );
#319 = SURFACE_SIDE_STYLE ('',( #405 ) ) ;
#320 = ADVANCED_FACE ( 'NONE', ( #231 ), #461, .T. ) ;
#321 = DIRECTION ( 'NONE',  ( -2.280557593651847682E-14, 1.000000000000000000, 0.000000000000000000 ) ) ;
#322 = AXIS2_PLACEMENT_3D ( 'NONE', #48, #182, #408 ) ;
#323 = CARTESIAN_POINT ( 'NONE',  ( 0.1999999999999557410, 2.065965679739063088, 0.000000000000000000 ) ) ;
#324 = ORIENTED_EDGE ( 'NONE', *, *, #473, .T. ) ;
#325 = DIRECTION ( 'NONE',  ( 2.280557593651847682E-14, -1.000000000000000000, -0.000000000000000000 ) ) ;
#326 = ORIENTED_EDGE ( 'NONE', *, *, #173, .F. ) ;
#327 = DIRECTION ( 'NONE',  ( 1.000000000000000000, 2.284052576702128842E-14, 0.000000000000000000 ) ) ;
#328 = DIRECTION ( 'NONE',  ( 1.000000000000000000, 2.238352872227791210E-14, 0.000000000000000000 ) ) ;
#329 = VECTOR ( 'NONE', #154, 1000.000000000000000 ) ;
#330 = CARTESIAN_POINT ( 'NONE',  ( 0.1999999999996689148, 14.64262854856495899, 0.000000000000000000 ) ) ;
#331 = ADVANCED_FACE ( 'NONE', ( #149 ), #67, .T. ) ;
#332 = EDGE_LOOP ( 'NONE', ( #391, #493, #212, #145 ) ) ;
#333 = VERTEX_POINT ( 'NONE', #14 ) ;
#334 = CARTESIAN_POINT ( 'NONE',  ( -5.800000000001604761, 10.64342862858083905, 0.000000000000000000 ) ) ;
#335 = APPLICATION_PROTOCOL_DEFINITION ( 'draft international standard', 'automotive_design', 1998, #419 ) ;
#336 = PRODUCT_RELATED_PRODUCT_CATEGORY ( 'part', '', ( #544 ) ) ;
#337 = CARTESIAN_POINT ( 'NONE',  ( 0.2000000000000028422, 7.105427357601001859E-15, 0.000000000000000000 ) ) ;
#338 = CIRCLE ( 'NONE', #41, 6.359999999998881215 ) ;
#339 = VECTOR ( 'NONE', #361, 1000.000000000000000 ) ;
#340 = DIRECTION ( 'NONE',  ( 1.000000000000000000, 0.000000000000000000, 0.000000000000000000 ) ) ;
#341 = VECTOR ( 'NONE', #74, 999.9999999999998863 ) ;
#342 = SURFACE_SIDE_STYLE ('',( #295 ) ) ;
#343 = EDGE_CURVE ( 'NONE', #264, #546, #2, .T. ) ;
#344 = ORIENTED_EDGE ( 'NONE', *, *, #141, .T. ) ;
#345 = ORIENTED_EDGE ( 'NONE', *, *, #4, .F. ) ;
#346 =( NAMED_UNIT ( * ) PLANE_ANGLE_UNIT ( ) SI_UNIT ( $, .RADIAN. ) );
#347 = DIRECTION ( 'NONE',  ( -0.9455185755993019692, 0.3255681544572001096, 0.000000000000000000 ) ) ;
#348 = FACE_OUTER_BOUND ( 'NONE', #109, .T. ) ;
#349 = LINE ( 'NONE', #167, #524 ) ;
#350 = PRESENTATION_STYLE_ASSIGNMENT (( #554 ) ) ;
#351 = FILL_AREA_STYLE_COLOUR ( '', #210 ) ;
#352 = CYLINDRICAL_SURFACE ( 'NONE', #277, 7.750000000000923706 ) ;
#353 = ORIENTED_EDGE ( 'NONE', *, *, #230, .T. ) ;
#354 = AXIS2_PLACEMENT_3D ( 'NONE', #58, #290, #327 ) ;
#355 = DIRECTION ( 'NONE',  ( 0.7071067811863797070, -0.7071067811867152164, 0.000000000000000000 ) ) ;
#356 =( NAMED_UNIT ( * ) PLANE_ANGLE_UNIT ( ) SI_UNIT ( $, .RADIAN. ) );
#357 = EDGE_CURVE ( 'NONE', #16, #246, #494, .T. ) ;
#358 = DIRECTION ( 'NONE',  ( 2.280557593651847682E-14, -1.000000000000000000, -0.000000000000000000 ) ) ;
#359 = PRODUCT_DEFINITION ( 'UNKNOWN', '', #240, #189 ) ;
#360 = UNCERTAINTY_MEASURE_WITH_UNIT (LENGTH_MEASURE( 1.000000000000000082E-05 ), #293, 'distance_accuracy_value', 'NONE');
#361 = DIRECTION ( 'NONE',  ( -0.7071067811864434338, -0.7071067811866516006, 8.659560562353855570E-17 ) ) ;
#362 = MECHANICAL_DESIGN_GEOMETRIC_PRESENTATION_REPRESENTATION (  '', ( #31 ), #509 ) ;
#363 = EDGE_CURVE ( 'NONE', #113, #390, #543, .T. ) ;
#364 = AXIS2_PLACEMENT_3D ( 'NONE', #102, #195, #247 ) ;
#365 = FACE_OUTER_BOUND ( 'NONE', #52, .T. ) ;
#366 = FILL_AREA_STYLE_COLOUR ( '', #452 ) ;
#367 = CARTESIAN_POINT ( 'NONE',  ( 0.1999999999991248500, 38.49999999999793232, 0.000000000000000000 ) ) ;
#368 = CONICAL_SURFACE ( 'NONE', #114, 6.000000000001365130, 0.4124839038990536499 ) ;
#369 = ADVANCED_FACE ( 'NONE', ( #460 ), #242, .T. ) ;
#370 = ORIENTED_EDGE ( 'NONE', *, *, #455, .T. ) ;
#371 = CARTESIAN_POINT ( 'NONE',  ( 0.2000000000000028422, 7.105427357601001859E-15, 0.000000000000000000 ) ) ;
#372 = ORIENTED_EDGE ( 'NONE', *, *, #141, .F. ) ;
#373 = CARTESIAN_POINT ( 'NONE',  ( 0.1999999999991295963, 38.29215390308962697, 0.000000000000000000 ) ) ;
#374 = ORIENTED_EDGE ( 'NONE', *, *, #106, .F. ) ;
#375 = VECTOR ( 'NONE', #39, 1000.000000000000000 ) ;
#376 = EDGE_CURVE ( 'NONE', #396, #16, #228, .T. ) ;
#377 = DIRECTION ( 'NONE',  ( -1.000000000000000000, -2.282214252402337369E-14, 0.000000000000000000 ) ) ;
#378 = AXIS2_PLACEMENT_3D ( 'NONE', #373, #19, #410 ) ;
#379 = ORIENTED_EDGE ( 'NONE', *, *, #447, .T. ) ;
#380 = ORIENTED_EDGE ( 'NONE', *, *, #162, .T. ) ;
#381 = CYLINDRICAL_SURFACE ( 'NONE', #269, 7.750000000000923706 ) ;
#382 = APPLICATION_PROTOCOL_DEFINITION ( 'draft international standard', 'automotive_design', 1998, #400 ) ;
#383 = EDGE_LOOP ( 'NONE', ( #324, #73, #237, #24 ) ) ;
#384 = CARTESIAN_POINT ( 'NONE',  ( -7.550000000002073719, 38.37999999999767908, 9.491012693393459013E-16 ) ) ;
#385 = ORIENTED_EDGE ( 'NONE', *, *, #574, .F. ) ;
#386 = CARTESIAN_POINT ( 'NONE',  ( 6.199999999999415756, 1.439388829766984585E-13, 0.000000000000000000 ) ) ;
#387 = ORIENTED_EDGE ( 'NONE', *, *, #45, .F. ) ;
#388 = ORIENTED_EDGE ( 'NONE', *, *, #126, .T. ) ;
#389 = DIRECTION ( 'NONE',  ( 2.280557593651847682E-14, -1.000000000000000000, -0.000000000000000000 ) ) ;
#390 = VERTEX_POINT ( 'NONE', #497 ) ;
#391 = ORIENTED_EDGE ( 'NONE', *, *, #517, .T. ) ;
#392 = DIRECTION ( 'NONE',  ( -1.000000000000000000, -2.280557593651847682E-14, 0.000000000000000000 ) ) ;
#393 = CARTESIAN_POINT ( 'NONE',  ( 6.919999999998083240, 38.49999999999806022, 0.000000000000000000 ) ) ;
#394 = CARTESIAN_POINT ( 'NONE',  ( 0.2000000000000028422, 7.105427357601001859E-15, 0.000000000000000000 ) ) ;
#395 = DIRECTION ( 'NONE',  ( -2.280557593651847682E-14, 1.000000000000000000, 0.000000000000000000 ) ) ;
#396 = VERTEX_POINT ( 'NONE', #68 ) ;
#397 = ADVANCED_FACE ( 'NONE', ( #10 ), #490, .T. ) ;
#398 = CIRCLE ( 'NONE', #487, 0.2400000000000006295 ) ;
#399 = AXIS2_PLACEMENT_3D ( 'NONE', #323, #271, #226 ) ;
#400 = APPLICATION_CONTEXT ( 'automotive_design' ) ;
#401 = AXIS2_PLACEMENT_3D ( 'NONE', #562, #221, #207 ) ;
#402 = CARTESIAN_POINT ( 'NONE',  ( 0.1999999999991248500, 38.49999999999789679, 0.000000000000000000 ) ) ;
#403 = EDGE_CURVE ( 'NONE', #214, #49, #445, .T. ) ;
#404 = DIRECTION ( 'NONE',  ( 2.280557593651847682E-14, -1.000000000000000000, -0.000000000000000000 ) ) ;
#405 = SURFACE_STYLE_FILL_AREA ( #227 ) ;
#406 = DIRECTION ( 'NONE',  ( -1.000000000000000000, 0.000000000000000000, 0.000000000000000000 ) ) ;
#407 = EDGE_LOOP ( 'NONE', ( #289, #379, #457, #423 ) ) ;
#408 = DIRECTION ( 'NONE',  ( 1.000000000000000000, 2.312964634635783603E-14, 0.000000000000000000 ) ) ;
#409 = EDGE_CURVE ( 'NONE', #62, #246, #249, .T. ) ;
#410 = DIRECTION ( 'NONE',  ( 1.000000000000000000, 2.291144213554676602E-14, 0.000000000000000000 ) ) ;
#411 = TOROIDAL_SURFACE ( 'NONE', #483, 6.239999999998931735, 0.2400000000000002687 ) ;
#412 = EDGE_LOOP ( 'NONE', ( #459, #380, #200, #11 ) ) ;
#413 = CARTESIAN_POINT ( 'NONE',  ( 6.200000000001125500, 10.64342862858111260, 7.347880794885791135E-16 ) ) ;
#414 = EDGE_CURVE ( 'NONE', #304, #174, #534, .T. ) ;
#415 = DIRECTION ( 'NONE',  ( 1.000000000000000000, 2.284052576702276201E-14, 0.000000000000000000 ) ) ;
#416 =( NAMED_UNIT ( * ) PLANE_ANGLE_UNIT ( ) SI_UNIT ( $, .RADIAN. ) );
#417 = ORIENTED_EDGE ( 'NONE', *, *, #439, .F. ) ;
#418 = CARTESIAN_POINT ( 'NONE',  ( -6.519999999999834372, 38.49999999999773337, 0.000000000000000000 ) ) ;
#419 = APPLICATION_CONTEXT ( 'automotive_design' ) ;
#420 = ORIENTED_EDGE ( 'NONE', *, *, #553, .T. ) ;
#421 = FACE_OUTER_BOUND ( 'NONE', #285, .T. ) ;
#422 = SURFACE_STYLE_FILL_AREA ( #71 ) ;
#423 = ORIENTED_EDGE ( 'NONE', *, *, #194, .F. ) ;
#424 = DIRECTION ( 'NONE',  ( -2.280557593651847682E-14, 1.000000000000000000, 0.000000000000000000 ) ) ;
#425 = ORIENTED_EDGE ( 'NONE', *, *, #97, .T. ) ;
#426 = CARTESIAN_POINT ( 'NONE',  ( 0.1999999999991253496, 38.49999999999791811, 0.000000000000000000 ) ) ;
#427 = ORIENTED_EDGE ( 'NONE', *, *, #357, .T. ) ;
#428 = STYLED_ITEM ( 'NONE', ( #350 ), #209 ) ;
#429 = ORIENTED_EDGE ( 'NONE', *, *, #488, .F. ) ;
#430 = DIRECTION ( 'NONE',  ( 1.000000000000000000, 2.280557593651847682E-14, 0.000000000000000000 ) ) ;
#431 = EDGE_LOOP ( 'NONE', ( #21, #196, #388, #495 ) ) ;
#432 = EDGE_CURVE ( 'NONE', #101, #333, #573, .T. ) ;
#433 = CARTESIAN_POINT ( 'NONE',  ( 0.1999999999991275701, 38.37999999999785672, 0.000000000000000000 ) ) ;
#434 = CARTESIAN_POINT ( 'NONE',  ( 6.919999999998084128, 38.49999999999803890, 8.229626490268939069E-16 ) ) ;
#435 = LINE ( 'NONE', #466, #375 ) ;
#436 = AXIS2_PLACEMENT_3D ( 'NONE', #523, #125, #78 ) ;
#437 = AXIS2_PLACEMENT_3D ( 'NONE', #502, #541, #12 ) ;
#438 =( LENGTH_UNIT ( ) NAMED_UNIT ( * ) SI_UNIT ( .MILLI., .METRE. ) );
#439 = EDGE_CURVE ( 'NONE', #49, #214, #540, .T. ) ;
#440 = DIRECTION ( 'NONE',  ( -1.000000000000000000, -2.271661694731884962E-14, 0.000000000000000000 ) ) ;
#441 = CARTESIAN_POINT ( 'NONE',  ( 0.2000000000000028422, 7.105427357601001859E-15, 0.000000000000000000 ) ) ;
#442 = DIRECTION ( 'NONE',  ( -2.280557593651847682E-14, 1.000000000000000000, 0.000000000000000000 ) ) ;
#443 = VECTOR ( 'NONE', #355, 1000.000000000000114 ) ;
#444 = CIRCLE ( 'NONE', #199, 7.750000000001201705 ) ;
#445 = CIRCLE ( 'NONE', #17, 5.999999999999894307 ) ;
#446 =( GEOMETRIC_REPRESENTATION_CONTEXT ( 3 ) GLOBAL_UNCERTAINTY_ASSIGNED_CONTEXT ( ( #360 ) ) GLOBAL_UNIT_ASSIGNED_CONTEXT ( ( #293, #416, #205 ) ) REPRESENTATION_CONTEXT ( 'NONE', 'WORKASPACE' ) );
#447 = EDGE_CURVE ( 'NONE', #561, #113, #47, .T. ) ;
#448 = SURFACE_SIDE_STYLE ('',( #6 ) ) ;
#449 = ORIENTED_EDGE ( 'NONE', *, *, #18, .T. ) ;
#450 = CARTESIAN_POINT ( 'NONE',  ( 0.1999999999991275701, 38.37999999999785672, 0.000000000000000000 ) ) ;
#451 = VECTOR ( 'NONE', #112, 999.9999999999998863 ) ;
#452 = COLOUR_RGB ( '',1.000000000000000000, 0.000000000000000000, 0.000000000000000000 ) ;
#453 = FACE_OUTER_BOUND ( 'NONE', #570, .T. ) ;
#454 = AXIS2_PLACEMENT_3D ( 'NONE', #197, #252, #458 ) ;
#455 = EDGE_CURVE ( 'NONE', #153, #565, #103, .T. ) ;
#456 = DIRECTION ( 'NONE',  ( 2.280557593651847682E-14, -1.000000000000000000, -0.000000000000000000 ) ) ;
#457 = ORIENTED_EDGE ( 'NONE', *, *, #363, .T. ) ;
#458 = DIRECTION ( 'NONE',  ( 1.000000000000000000, 2.238352872227791210E-14, 0.000000000000000000 ) ) ;
#459 = ORIENTED_EDGE ( 'NONE', *, *, #439, .T. ) ;
#460 = FACE_OUTER_BOUND ( 'NONE', #241, .T. ) ;
#461 = CONICAL_SURFACE ( 'NONE', #224, 2904.210877675174743, 1.239183768915905315 ) ;
#462 = DIRECTION ( 'NONE',  ( 1.000000000000000000, 2.280557593651847682E-14, 0.000000000000000000 ) ) ;
#463 = ADVANCED_FACE ( 'NONE', ( #453 ), #381, .T. ) ;
#464 = FILL_AREA_STYLE_COLOUR ( '', #33 ) ;
#465 = CARTESIAN_POINT ( 'NONE',  ( -5.800000000001788614, 83.19999999999690488, 7.347880794884614746E-16 ) ) ;
#466 = CARTESIAN_POINT ( 'NONE',  ( 6.919999999998083240, 38.49999999999803890, 8.229626490268938082E-16 ) ) ;
#467 = EDGE_LOOP ( 'NONE', ( #344, #556, #245, #387 ) ) ;
#468 = LINE ( 'NONE', #253, #130 ) ;
#469 = CARTESIAN_POINT ( 'NONE',  ( 7.950000000000329692, 38.37999999999802725, 0.000000000000000000 ) ) ;
#470 = DIRECTION ( 'NONE',  ( -2.280557593651847682E-14, 1.000000000000000000, 0.000000000000000000 ) ) ;
#471 = EDGE_LOOP ( 'NONE', ( #143, #427, #60, #429 ) ) ;
#472 = AXIS2_PLACEMENT_3D ( 'NONE', #513, #305, #566 ) ;
#473 = EDGE_CURVE ( 'NONE', #565, #153, #444, .T. ) ;
#474 = VECTOR ( 'NONE', #504, 1000.000000000000114 ) ;
#475 = DIRECTION ( 'NONE',  ( 1.000000000000000000, 2.280557593651847682E-14, 0.000000000000000000 ) ) ;
#476 = DIRECTION ( 'NONE',  ( 1.000000000000000000, 2.191229653865461167E-14, 0.000000000000000000 ) ) ;
#477 = UNCERTAINTY_MEASURE_WITH_UNIT (LENGTH_MEASURE( 1.000000000000000082E-05 ), #77, 'distance_accuracy_value', 'NONE');
#478 = DIRECTION ( 'NONE',  ( 2.280557593651847682E-14, -1.000000000000000000, -0.000000000000000000 ) ) ;
#479 = DIRECTION ( 'NONE',  ( 2.280557593651847682E-14, -1.000000000000000000, -0.000000000000000000 ) ) ;
#480 = DIRECTION ( 'NONE',  ( 2.280557593651847682E-14, -1.000000000000000000, -0.000000000000000000 ) ) ;
#481 = VECTOR ( 'NONE', #478, 1000.000000000000000 ) ;
#482 = CONICAL_SURFACE ( 'NONE', #238, 2904.210877675174743, 1.239183768915905315 ) ;
#483 = AXIS2_PLACEMENT_3D ( 'NONE', #426, #508, #430 ) ;
#484 = PRESENTATION_STYLE_ASSIGNMENT (( #90 ) ) ;
#485 = CARTESIAN_POINT ( 'NONE',  ( 6.439999999998057056, 38.49999999999806022, 0.000000000000000000 ) ) ;
#486 = DIRECTION ( 'NONE',  ( 2.280557593651847682E-14, -1.000000000000000000, -0.000000000000000000 ) ) ;
#487 = AXIS2_PLACEMENT_3D ( 'NONE', #299, #72, #168 ) ;
#488 = EDGE_CURVE ( 'NONE', #396, #62, #500, .T. ) ;
#489 = CIRCLE ( 'NONE', #436, 6.719999999998957918 ) ;
#490 = CONICAL_SURFACE ( 'NONE', #454, 7.750000000001201705, 0.7853981633971882648 ) ;
#491 = SURFACE_STYLE_USAGE ( .BOTH. , #448 ) ;
#492 = VERTEX_POINT ( 'NONE', #434 ) ;
#493 = ORIENTED_EDGE ( 'NONE', *, *, #79, .T. ) ;
#494 = LINE ( 'NONE', #413, #329 ) ;
#495 = ORIENTED_EDGE ( 'NONE', *, *, #258, .T. ) ;
#496 = ADVANCED_FACE ( 'NONE', ( #313 ), #411, .F. ) ;
#497 = CARTESIAN_POINT ( 'NONE',  ( -6.519999999999833484, 38.49999999999773337, 0.000000000000000000 ) ) ;
#498 = ORIENTED_EDGE ( 'NONE', *, *, #414, .T. ) ;
#499 = CONICAL_SURFACE ( 'NONE', #322, 5.999999999999894307, 0.7853981633973239340 ) ;
#500 = LINE ( 'NONE', #334, #474 ) ;
#501 = ORIENTED_EDGE ( 'NONE', *, *, #403, .F. ) ;
#502 = CARTESIAN_POINT ( 'NONE',  ( 0.1999999999981054155, 83.19999999999704698, 0.000000000000000000 ) ) ;
#503 = SHAPE_DEFINITION_REPRESENTATION ( #50, #209 ) ;
#504 = DIRECTION ( 'NONE',  ( -0.4008861359646270772, 0.9161278873559906000, 0.000000000000000000 ) ) ;
#505 = ADVANCED_FACE ( 'NONE', ( #303 ), #352, .T. ) ;
#506 = DIRECTION ( 'NONE',  ( -2.280557593651847682E-14, 1.000000000000000000, 0.000000000000000000 ) ) ;
#507 = DIRECTION ( 'NONE',  ( 2.280557593651847682E-14, -1.000000000000000000, -0.000000000000000000 ) ) ;
#508 = DIRECTION ( 'NONE',  ( 2.280557593651847682E-14, -1.000000000000000000, -0.000000000000000000 ) ) ;
#509 =( GEOMETRIC_REPRESENTATION_CONTEXT ( 3 ) GLOBAL_UNCERTAINTY_ASSIGNED_CONTEXT ( ( #178 ) ) GLOBAL_UNIT_ASSIGNED_CONTEXT ( ( #438, #43, #5 ) ) REPRESENTATION_CONTEXT ( 'NONE', 'WORKASPACE' ) );
#510 = SURFACE_STYLE_USAGE ( .BOTH. , #342 ) ;
#511 = ORIENTED_EDGE ( 'NONE', *, *, #432, .T. ) ;
#512 = LINE ( 'NONE', #384, #341 ) ;
#513 = CARTESIAN_POINT ( 'NONE',  ( 0.1999999999980985876, 83.49999999999705835, 0.000000000000000000 ) ) ;
#514 = CARTESIAN_POINT ( 'NONE',  ( 0.000000000000000000, 0.000000000000000000, 0.000000000000000000 ) ) ;
#515 = FACE_OUTER_BOUND ( 'NONE', #467, .T. ) ;
#516 = ORIENTED_EDGE ( 'NONE', *, *, #363, .F. ) ;
#517 = EDGE_CURVE ( 'NONE', #16, #396, #191, .T. ) ;
#518 = DIRECTION ( 'NONE',  ( 2.280557593651847682E-14, -1.000000000000000000, -0.000000000000000000 ) ) ;
#519 = CARTESIAN_POINT ( 'NONE',  ( 0.1999999999991253496, 38.49999999999791811, 0.000000000000000000 ) ) ;
#520 = CARTESIAN_POINT ( 'NONE',  ( 6.200000000001708145, 2.065965679739199867, 7.347880794886265438E-16 ) ) ;
#521 = ORIENTED_EDGE ( 'NONE', *, *, #343, .T. ) ;
#522 = AXIS2_PLACEMENT_3D ( 'NONE', #216, #171, #127 ) ;
#523 = CARTESIAN_POINT ( 'NONE',  ( 0.1999999999991248500, 38.49999999999788258, 0.000000000000000000 ) ) ;
#524 = VECTOR ( 'NONE', #518, 1000.000000000000000 ) ;
#525 = ORIENTED_EDGE ( 'NONE', *, *, #403, .T. ) ;
#526 = DIRECTION ( 'NONE',  ( -1.000000000000000000, -2.284052576702276201E-14, 0.000000000000000000 ) ) ;
#527 = ORIENTED_EDGE ( 'NONE', *, *, #45, .T. ) ;
#528 = CARTESIAN_POINT ( 'NONE',  ( 7.950000000000316369, 14.64262854856513485, 9.491012693392778620E-16 ) ) ;
#529 = FILL_AREA_STYLE_COLOUR ( '', #547 ) ;
#530 = ADVANCED_FACE ( 'NONE', ( #569 ), #81, .T. ) ;
#531 = CARTESIAN_POINT ( 'NONE',  ( -5.800000000001798384, 2.065965679738926308, 0.000000000000000000 ) ) ;
#532 = STYLED_ITEM ( 'NONE', ( #116 ), #181 ) ;
#533 = PRESENTATION_LAYER_ASSIGNMENT (  '', '', ( #223 ) ) ;
#534 = CIRCLE ( 'NONE', #133, 7.630000000001186500 ) ;
#535 = CARTESIAN_POINT ( 'NONE',  ( -6.159999999999751452, 38.29215390308947775, 0.000000000000000000 ) ) ;
#536 = EDGE_CURVE ( 'NONE', #551, #206, #96, .T. ) ;
#537 = CARTESIAN_POINT ( 'NONE',  ( 0.2000000000000028422, 7.105427357601001859E-15, 0.000000000000000000 ) ) ;
#538 = CARTESIAN_POINT ( 'NONE',  ( 7.950000000000926548, 1.838486408656402819E-13, 0.000000000000000000 ) ) ;
#539 = EDGE_LOOP ( 'NONE', ( #374, #117, #521 ) ) ;
#540 = CIRCLE ( 'NONE', #437, 5.999999999999894307 ) ;
#541 = DIRECTION ( 'NONE',  ( 2.280557593651847682E-14, -1.000000000000000000, -0.000000000000000000 ) ) ;
#542 = ADVANCED_FACE ( 'NONE', ( #217 ), #169, .T. ) ;
#543 = LINE ( 'NONE', #418, #152 ) ;
#544 = PRODUCT ( '99688-SI12-12+S9MT1203-142', '99688-SI12-12+S9MT1203-142', '', ( #20 ) ) ;
#545 = DIRECTION ( 'NONE',  ( 2.280557593651847682E-14, -1.000000000000000000, -0.000000000000000000 ) ) ;
#546 = VERTEX_POINT ( 'NONE', #520 ) ;
#547 = COLOUR_RGB ( '',1.000000000000000000, 0.000000000000000000, 0.000000000000000000 ) ;
#548 = DIRECTION ( 'NONE',  ( -0.8660254037845052100, 0.4999999999998845368, 0.000000000000000000 ) ) ;
#549 = AXIS2_PLACEMENT_3D ( 'NONE', #281, #59, #415 ) ;
#550 = DIRECTION ( 'NONE',  ( 0.000000000000000000, 0.000000000000000000, 1.000000000000000000 ) ) ;
#551 = VERTEX_POINT ( 'NONE', #176 ) ;
#552 = DIRECTION ( 'NONE',  ( 2.280557593651847682E-14, -1.000000000000000000, -0.000000000000000000 ) ) ;
#553 = EDGE_CURVE ( 'NONE', #49, #333, #557, .T. ) ;
#554 = SURFACE_STYLE_USAGE ( .BOTH. , #160 ) ;
#555 = LINE ( 'NONE', #263, #481 ) ;
#556 = ORIENTED_EDGE ( 'NONE', *, *, #574, .T. ) ;
#557 = LINE ( 'NONE', #386, #284 ) ;
#558 = ORIENTED_EDGE ( 'NONE', *, *, #239, .F. ) ;
#559 =( LENGTH_UNIT ( ) NAMED_UNIT ( * ) SI_UNIT ( .MILLI., .METRE. ) );
#560 = ADVANCED_FACE ( 'NONE', ( #348 ), #368, .T. ) ;
#561 = VERTEX_POINT ( 'NONE', #166 ) ;
#562 = CARTESIAN_POINT ( 'NONE',  ( 0.2000000000000028422, 7.105427357601001859E-15, 0.000000000000000000 ) ) ;
#563 = ORIENTED_EDGE ( 'NONE', *, *, #97, .F. ) ;
#564 = CARTESIAN_POINT ( 'NONE',  ( 0.1999999999997601197, 10.64342862858097583, 0.000000000000000000 ) ) ;
#565 = VERTEX_POINT ( 'NONE', #172 ) ;
#566 = DIRECTION ( 'NONE',  ( 1.000000000000000000, 2.191229653865461167E-14, 0.000000000000000000 ) ) ;
#567 = CARTESIAN_POINT ( 'NONE',  ( -7.550000000002074607, 38.37999999999767908, 9.491012693393792306E-16 ) ) ;
#568 = CARTESIAN_POINT ( 'NONE',  ( 6.199999999998000000, 83.19999999999717488, 0.000000000000000000 ) ) ;
#569 = FACE_OUTER_BOUND ( 'NONE', #332, .T. ) ;
#570 = EDGE_LOOP ( 'NONE', ( #232, #370, #156, #28 ) ) ;
#571 = FACE_OUTER_BOUND ( 'NONE', #314, .T. ) ;
#572 = CONICAL_SURFACE ( 'NONE', #95, 6.000000000001365130, 0.4124839038990536499 ) ;
#573 = CIRCLE ( 'NONE', #364, 5.999999999998930633 ) ;
#574 = EDGE_CURVE ( 'NONE', #304, #153, #512, .T. ) ;
#575 =( NAMED_UNIT ( * ) PLANE_ANGLE_UNIT ( ) SI_UNIT ( $, .RADIAN. ) );
#576 = DIRECTION ( 'NONE',  ( 1.000000000000000000, 2.273556325002014909E-14, 0.000000000000000000 ) ) ;
ENDSEC;
END-ISO-10303-21;
