ISO-10303-21;
HEADER;
FILE_DESCRIPTION (( 'STEP AP214' ),
    '1' );
FILE_NAME ('99688-SI12-M08+S9MT1203-142.STEP',
    '2023-09-26T06:28:49',
    ( '' ),
    ( '' ),
    'SwSTEP 2.0',
    'SolidWorks 2020',
    '' );
FILE_SCHEMA (( 'AUTOMOTIVE_DESIGN' ));
ENDSEC;

DATA;
#1 = DIRECTION ( 'NONE',  ( 0.000000000000000000, 0.000000000000000000, -1.000000000000000000 ) ) ;
#2 = EDGE_CURVE ( 'NONE', #187, #540, #771, .T. ) ;
#3 = FACE_OUTER_BOUND ( 'NONE', #408, .T. ) ;
#4 = CARTESIAN_POINT ( 'NONE',  ( 5.510910596163089556E-16, 33.50000000000000000, -4.500000000000000888 ) ) ;
#5 = ORIENTED_EDGE ( 'NONE', *, *, #887, .T. ) ;
#6 = DIRECTION ( 'NONE',  ( 1.000000000000000000, 0.000000000000000000, -1.224646799147353207E-16 ) ) ;
#7 = EDGE_CURVE ( 'NONE', #972, #808, #398, .T. ) ;
#8 = VERTEX_POINT ( 'NONE', #399 ) ;
#9 = CARTESIAN_POINT ( 'NONE',  ( 5.357829746269669634E-16, 33.35566200000000947, -4.250000000000000000 ) ) ;
#10 = ORIENTED_EDGE ( 'NONE', *, *, #712, .T. ) ;
#11 = VECTOR ( 'NONE', #648, 1000.000000000000114 ) ;
#12 = CONICAL_SURFACE ( 'NONE', #560, 8.000000000000000000, 0.7853981633974410625 ) ;
#13 = DIRECTION ( 'NONE',  ( 0.000000000000000000, 0.000000000000000000, -1.000000000000000000 ) ) ;
#14 = DIRECTION ( 'NONE',  ( -0.000000000000000000, -1.000000000000000000, -0.000000000000000000 ) ) ;
#15 = DIRECTION ( 'NONE',  ( 8.659570625309520771E-17, 0.7071059594829929296, -0.7071076028891472021 ) ) ;
#16 = EDGE_LOOP ( 'NONE', ( #440, #567, #47, #108 ) ) ;
#17 = TOROIDAL_SURFACE ( 'NONE', #67, 4.049999999999998046, 0.7999999999999989342 ) ;
#18 = CIRCLE ( 'NONE', #493, 4.500000000000000888 ) ;
#19 = DIRECTION ( 'NONE',  ( -0.000000000000000000, -1.000000000000000000, -0.000000000000000000 ) ) ;
#20 = EDGE_LOOP ( 'NONE', ( #261, #391, #128, #700 ) ) ;
#21 = EDGE_CURVE ( 'NONE', #801, #961, #85, .T. ) ;
#22 = DIRECTION ( 'NONE',  ( -1.000000000000000000, 0.000000000000000000, 0.000000000000000000 ) ) ;
#23 = DIRECTION ( 'NONE',  ( -0.000000000000000000, -1.000000000000000000, -0.000000000000000000 ) ) ;
#24 = ORIENTED_EDGE ( 'NONE', *, *, #844, .F. ) ;
#25 = CIRCLE ( 'NONE', #655, 0.7999999999999990452 ) ;
#26 = ADVANCED_FACE ( 'NONE', ( #484 ), #182, .F. ) ;
#27 = VECTOR ( 'NONE', #384, 1000.000000000000000 ) ;
#28 = DIRECTION ( 'NONE',  ( 0.000000000000000000, 0.000000000000000000, -1.000000000000000000 ) ) ;
#29 = PRODUCT_DEFINITION_FORMATION_WITH_SPECIFIED_SOURCE ( 'ANY', '', #462, .NOT_KNOWN. ) ;
#30 = LINE ( 'NONE', #504, #161 ) ;
#31 = VERTEX_POINT ( 'NONE', #694 ) ;
#32 = AXIS2_PLACEMENT_3D ( 'NONE', #799, #647, #152 ) ;
#33 = LINE ( 'NONE', #335, #645 ) ;
#34 = CIRCLE ( 'NONE', #596, 3.949999999999997069 ) ;
#35 = DIRECTION ( 'NONE',  ( 0.000000000000000000, -0.7071068872768641045, -0.7071066750962150538 ) ) ;
#36 = ORIENTED_EDGE ( 'NONE', *, *, #836, .T. ) ;
#37 = DIRECTION ( 'NONE',  ( 0.000000000000000000, 0.000000000000000000, -1.000000000000000000 ) ) ;
#38 = ADVANCED_FACE ( 'NONE', ( #612 ), #324, .F. ) ;
#39 = CARTESIAN_POINT ( 'NONE',  ( 5.204748896376251685E-16, 34.50000000000000000, -4.250000000000000000 ) ) ;
#40 = ORIENTED_EDGE ( 'NONE', *, *, #392, .F. ) ;
#41 = DIRECTION ( 'NONE',  ( -0.000000000000000000, -1.000000000000000000, -0.000000000000000000 ) ) ;
#42 = STYLED_ITEM ( 'NONE', ( #287 ), #577 ) ;
#43 = CARTESIAN_POINT ( 'NONE',  ( 0.000000000000000000, 40.24161999999999750, 0.000000000000000000 ) ) ;
#44 = VERTEX_POINT ( 'NONE', #325 ) ;
#45 = CARTESIAN_POINT ( 'NONE',  ( 0.000000000000000000, -4.999999999998496314, -4.000000000000000000 ) ) ;
#46 = CARTESIAN_POINT ( 'NONE',  ( 0.000000000000000000, 41.49999949768619700, 0.000000000000000000 ) ) ;
#47 = ORIENTED_EDGE ( 'NONE', *, *, #122, .T. ) ;
#48 = CIRCLE ( 'NONE', #644, 4.067157287525378528 ) ;
#49 = TOROIDAL_SURFACE ( 'NONE', #941, 4.049999999999998046, 0.7999999999999988232 ) ;
#50 = CARTESIAN_POINT ( 'NONE',  ( 0.000000000000000000, 33.38000000000000256, -8.000000000000000000 ) ) ;
#51 = VERTEX_POINT ( 'NONE', #922 ) ;
#52 = EDGE_CURVE ( 'NONE', #481, #594, #74, .T. ) ;
#53 = LINE ( 'NONE', #810, #472 ) ;
#54 = DIRECTION ( 'NONE',  ( -0.000000000000000000, -1.000000000000000000, -0.000000000000000000 ) ) ;
#55 = EDGE_LOOP ( 'NONE', ( #113, #448, #92, #834 ) ) ;
#56 = DIRECTION ( 'NONE',  ( -0.000000000000000000, -1.000000000000000000, -0.000000000000000000 ) ) ;
#57 = FACE_OUTER_BOUND ( 'NONE', #202, .T. ) ;
#58 = ORIENTED_EDGE ( 'NONE', *, *, #993, .T. ) ;
#59 = EDGE_CURVE ( 'NONE', #187, #481, #238, .T. ) ;
#60 = CONICAL_SURFACE ( 'NONE', #604, 3.499999995516229756, 0.7853976655676686569 ) ;
#61 = AXIS2_PLACEMENT_3D ( 'NONE', #393, #175, #865 ) ;
#62 = AXIS2_PLACEMENT_3D ( 'NONE', #630, #869, #321 ) ;
#63 = VECTOR ( 'NONE', #777, 1000.000000000000000 ) ;
#64 = DIRECTION ( 'NONE',  ( -0.000000000000000000, -1.000000000000000000, -0.000000000000000000 ) ) ;
#65 = VERTEX_POINT ( 'NONE', #316 ) ;
#66 = CIRCLE ( 'NONE', #199, 0.4000000000000001887 ) ;
#67 = AXIS2_PLACEMENT_3D ( 'NONE', #315, #219, #464 ) ;
#68 = CIRCLE ( 'NONE', #863, 7.879999999999999893 ) ;
#69 = ADVANCED_FACE ( 'NONE', ( #241, #3 ), #168, .T. ) ;
#70 = FACE_OUTER_BOUND ( 'NONE', #265, .T. ) ;
#71 = VERTEX_POINT ( 'NONE', #461 ) ;
#72 = CARTESIAN_POINT ( 'NONE',  ( 0.000000000000000000, 5.643429000000001139, 0.000000000000000000 ) ) ;
#73 = DIRECTION ( 'NONE',  ( -0.000000000000000000, -1.000000000000000000, -0.000000000000000000 ) ) ;
#74 = LINE ( 'NONE', #787, #964 ) ;
#75 = DIRECTION ( 'NONE',  ( -0.000000000000000000, -1.000000000000000000, -0.000000000000000000 ) ) ;
#76 = FACE_OUTER_BOUND ( 'NONE', #688, .T. ) ;
#77 = CARTESIAN_POINT ( 'NONE',  ( 3.838011840034426466E-16, 51.50000000000000711, 2.267949000000000659 ) ) ;
#78 = ORIENTED_EDGE ( 'NONE', *, *, #427, .T. ) ;
#79 = VECTOR ( 'NONE', #114, 1000.000000000000114 ) ;
#80 = SURFACE_STYLE_FILL_AREA ( #672 ) ;
#81 = STYLED_ITEM ( 'NONE', ( #140 ), #164 ) ;
#82 = ORIENTED_EDGE ( 'NONE', *, *, #802, .T. ) ;
#83 = PRODUCT_DEFINITION ( 'UNKNOWN', '', #29, #928 ) ;
#84 = AXIS2_PLACEMENT_3D ( 'NONE', #990, #838, #693 ) ;
#85 = LINE ( 'NONE', #253, #27 ) ;
#86 = AXIS2_PLACEMENT_3D ( 'NONE', #303, #622, #786 ) ;
#87 = EDGE_LOOP ( 'NONE', ( #614, #366, #797, #214 ) ) ;
#88 = EDGE_CURVE ( 'NONE', #31, #588, #617, .T. ) ;
#89 = CARTESIAN_POINT ( 'NONE',  ( 0.000000000000000000, 40.91905200000000775, 0.000000000000000000 ) ) ;
#90 = CARTESIAN_POINT ( 'NONE',  ( 5.510910596163089556E-16, 33.50000000000000000, -4.500000000000000888 ) ) ;
#91 = CARTESIAN_POINT ( 'NONE',  ( 0.000000000000000000, 48.50000000000000000, -4.000000000000000000 ) ) ;
#92 = ORIENTED_EDGE ( 'NONE', *, *, #717, .T. ) ;
#93 = DIRECTION ( 'NONE',  ( -1.000000000000000000, 0.000000000000000000, 0.000000000000000000 ) ) ;
#94 = DIRECTION ( 'NONE',  ( -0.000000000000000000, -1.000000000000000000, -0.000000000000000000 ) ) ;
#95 = DIRECTION ( 'NONE',  ( 0.000000000000000000, 0.000000000000000000, 1.000000000000000000 ) ) ;
#96 = ORIENTED_EDGE ( 'NONE', *, *, #877, .F. ) ;
#97 = CONICAL_SURFACE ( 'NONE', #823, 4.067157287525378528, 0.7853993254610842634 ) ;
#98 = CARTESIAN_POINT ( 'NONE',  ( 0.000000000000000000, 51.50000000000000711, 0.000000000000000000 ) ) ;
#99 = ADVANCED_FACE ( 'NONE', ( #246 ), #97, .T. ) ;
#100 = DIRECTION ( 'NONE',  ( -0.000000000000000000, -1.000000000000000000, -0.000000000000000000 ) ) ;
#101 = ORIENTED_EDGE ( 'NONE', *, *, #499, .F. ) ;
#102 = DIRECTION ( 'NONE',  ( -0.000000000000000000, -1.000000000000000000, -0.000000000000000000 ) ) ;
#103 = CARTESIAN_POINT ( 'NONE',  ( 0.000000000000000000, 34.50000000000000000, 0.000000000000000000 ) ) ;
#104 = LINE ( 'NONE', #333, #142 ) ;
#105 = EDGE_LOOP ( 'NONE', ( #896, #856, #889, #627 ) ) ;
#106 = DIRECTION ( 'NONE',  ( 0.000000000000000000, 0.3255681544572424091, 0.9455185755992873142 ) ) ;
#107 = CYLINDRICAL_SURFACE ( 'NONE', #962, 3.949999999999997069 ) ;
#108 = ORIENTED_EDGE ( 'NONE', *, *, #234, .F. ) ;
#109 = EDGE_CURVE ( 'NONE', #282, #297, #479, .T. ) ;
#110 = AXIS2_PLACEMENT_3D ( 'NONE', #800, #331, #873 ) ;
#111 = DIRECTION ( 'NONE',  ( 0.000000000000000000, 0.000000000000000000, -1.000000000000000000 ) ) ;
#112 = LINE ( 'NONE', #902, #210 ) ;
#113 = ORIENTED_EDGE ( 'NONE', *, *, #228, .F. ) ;
#114 = DIRECTION ( 'NONE',  ( 1.060574443862851195E-16, 0.5000011241930348849, -0.8660247547303143723 ) ) ;
#115 = AXIS2_PLACEMENT_3D ( 'NONE', #880, #706, #556 ) ;
#116 = DIRECTION ( 'NONE',  ( -0.000000000000000000, -1.000000000000000000, -0.000000000000000000 ) ) ;
#117 = CIRCLE ( 'NONE', #371, 4.000000000000000000 ) ;
#118 = ADVANCED_FACE ( 'NONE', ( #511 ), #621, .T. ) ;
#119 = DIRECTION ( 'NONE',  ( 0.000000000000000000, 0.000000000000000000, -1.000000000000000000 ) ) ;
#120 = VERTEX_POINT ( 'NONE', #136 ) ;
#121 = DIRECTION ( 'NONE',  ( 0.000000000000000000, 0.000000000000000000, -1.000000000000000000 ) ) ;
#122 = EDGE_CURVE ( 'NONE', #337, #490, #819, .T. ) ;
#123 = ORIENTED_EDGE ( 'NONE', *, *, #519, .T. ) ;
#124 =( NAMED_UNIT ( * ) PLANE_ANGLE_UNIT ( ) SI_UNIT ( $, .RADIAN. ) );
#125 = ORIENTED_EDGE ( 'NONE', *, *, #361, .T. ) ;
#126 = MECHANICAL_DESIGN_GEOMETRIC_PRESENTATION_REPRESENTATION (  '', ( #42 ), #691 ) ;
#127 = FACE_OUTER_BOUND ( 'NONE', #893, .T. ) ;
#128 = ORIENTED_EDGE ( 'NONE', *, *, #459, .T. ) ;
#129 = ADVANCED_FACE ( 'NONE', ( #543 ), #155, .T. ) ;
#130 = CARTESIAN_POINT ( 'NONE',  ( 5.204748896376250699E-16, 39.00000000000000000, 4.250000000000000000 ) ) ;
#131 = ORIENTED_EDGE ( 'NONE', *, *, #7, .T. ) ;
#132 = CIRCLE ( 'NONE', #203, 8.000000000000000000 ) ;
#133 = FACE_OUTER_BOUND ( 'NONE', #105, .T. ) ;
#134 = ORIENTED_EDGE ( 'NONE', *, *, #868, .F. ) ;
#135 = EDGE_CURVE ( 'NONE', #139, #695, #230, .T. ) ;
#136 = CARTESIAN_POINT ( 'NONE',  ( 0.000000000000000000, 5.643429000000001139, 6.000000000000000000 ) ) ;
#137 = DIRECTION ( 'NONE',  ( 0.000000000000000000, 0.000000000000000000, -1.000000000000000000 ) ) ;
#138 = DIRECTION ( 'NONE',  ( 0.000000000000000000, 0.000000000000000000, 1.000000000000000000 ) ) ;
#139 = VERTEX_POINT ( 'NONE', #918 ) ;
#140 = PRESENTATION_STYLE_ASSIGNMENT (( #768 ) ) ;
#141 = SHAPE_DEFINITION_REPRESENTATION ( #684, #577 ) ;
#142 = VECTOR ( 'NONE', #480, 1000.000000000000000 ) ;
#143 = CONICAL_SURFACE ( 'NONE', #774, 3.499999995516229756, 0.7853976655676686569 ) ;
#144 = DIRECTION ( 'NONE',  ( 0.000000000000000000, 0.000000000000000000, -1.000000000000000000 ) ) ;
#145 = ORIENTED_EDGE ( 'NONE', *, *, #446, .T. ) ;
#146 = DIRECTION ( 'NONE',  ( 0.000000000000000000, 0.000000000000000000, 1.000000000000000000 ) ) ;
#147 = ADVANCED_FACE ( 'NONE', ( #466 ), #533, .T. ) ;
#148 = AXIS2_PLACEMENT_3D ( 'NONE', #924, #157, #173 ) ;
#149 = DIRECTION ( 'NONE',  ( 0.000000000000000000, 0.000000000000000000, -1.000000000000000000 ) ) ;
#150 = DIRECTION ( 'NONE',  ( 0.000000000000000000, 1.000000000000000000, 0.000000000000000000 ) ) ;
#151 = CARTESIAN_POINT ( 'NONE',  ( 0.000000000000000000, 51.50000000000000711, 0.000000000000000000 ) ) ;
#152 = DIRECTION ( 'NONE',  ( 0.000000000000000000, 0.000000000000000000, 1.000000000000000000 ) ) ;
#153 = CARTESIAN_POINT ( 'NONE',  ( 0.000000000000000000, 51.50000000000000711, 0.000000000000000000 ) ) ;
#154 = ORIENTED_EDGE ( 'NONE', *, *, #915, .F. ) ;
#155 = CYLINDRICAL_SURFACE ( 'NONE', #656, 8.000000000000000000 ) ;
#156 = ORIENTED_EDGE ( 'NONE', *, *, #122, .F. ) ;
#157 = DIRECTION ( 'NONE',  ( -0.000000000000000000, -1.000000000000000000, -0.000000000000000000 ) ) ;
#158 = ORIENTED_EDGE ( 'NONE', *, *, #683, .T. ) ;
#159 = AXIS2_PLACEMENT_3D ( 'NONE', #835, #451, #294 ) ;
#160 = DIRECTION ( 'NONE',  ( 0.000000000000000000, 1.000000000000000000, 0.000000000000000000 ) ) ;
#161 = VECTOR ( 'NONE', #423, 1000.000000000000000 ) ;
#162 = ORIENTED_EDGE ( 'NONE', *, *, #172, .F. ) ;
#163 = EDGE_CURVE ( 'NONE', #71, #297, #381, .T. ) ;
#164 = MANIFOLD_SOLID_BREP ( '±ÛÂà1', #673 ) ;
#165 = APPLICATION_CONTEXT ( 'automotive_design' ) ;
#166 = DIRECTION ( 'NONE',  ( -0.000000000000000000, -1.000000000000000000, -0.000000000000000000 ) ) ;
#167 = DIRECTION ( 'NONE',  ( 0.000000000000000000, 0.000000000000000000, -1.000000000000000000 ) ) ;
#168 = PLANE ( 'NONE',  #979 ) ;
#169 = CONICAL_SURFACE ( 'NONE', #86, 4.250000000000000000, 0.7853980133630724669 ) ;
#170 = FACE_OUTER_BOUND ( 'NONE', #322, .T. ) ;
#171 = EDGE_LOOP ( 'NONE', ( #438, #496, #226, #642 ) ) ;
#172 = EDGE_CURVE ( 'NONE', #955, #908, #884, .T. ) ;
#173 = DIRECTION ( 'NONE',  ( 0.000000000000000000, 0.000000000000000000, -1.000000000000000000 ) ) ;
#174 = CARTESIAN_POINT ( 'NONE',  ( 5.021051876505488449E-16, 33.52886800000000278, 3.949999999999997069 ) ) ;
#175 = DIRECTION ( 'NONE',  ( -0.000000000000000000, -1.000000000000000000, -0.000000000000000000 ) ) ;
#176 = UNCERTAINTY_MEASURE_WITH_UNIT (LENGTH_MEASURE( 1.000000000000000082E-05 ), #837, 'distance_accuracy_value', 'NONE');
#177 = CARTESIAN_POINT ( 'NONE',  ( 0.000000000000000000, -2.934034320259895967, 0.000000000000000000 ) ) ;
#178 = ORIENTED_EDGE ( 'NONE', *, *, #702, .F. ) ;
#179 = DIRECTION ( 'NONE',  ( 0.000000000000000000, 0.000000000000000000, 1.000000000000000000 ) ) ;
#180 = DIRECTION ( 'NONE',  ( -0.000000000000000000, -1.000000000000000000, -0.000000000000000000 ) ) ;
#181 = ORIENTED_EDGE ( 'NONE', *, *, #392, .T. ) ;
#182 = TOROIDAL_SURFACE ( 'NONE', #61, 4.349999999999997868, 0.4000000000000003553 ) ;
#183 = COLOUR_RGB ( '',0.7921568627450980005, 0.8196078431372548767, 0.9333333333333333481 ) ;
#184 = DIRECTION ( 'NONE',  ( 0.000000000000000000, 0.000000000000000000, 1.000000000000000000 ) ) ;
#185 = ADVANCED_FACE ( 'NONE', ( #855 ), #143, .T. ) ;
#186 = DIRECTION ( 'NONE',  ( -0.000000000000000000, -1.000000000000000000, -0.000000000000000000 ) ) ;
#187 = VERTEX_POINT ( 'NONE', #473 ) ;
#188 = CONICAL_SURFACE ( 'NONE', #906, 4.500000000000000888, 1.047196253089808682 ) ;
#189 = LINE ( 'NONE', #256, #609 ) ;
#190 = ADVANCED_FACE ( 'NONE', ( #529 ), #981, .T. ) ;
#191 = DIRECTION ( 'NONE',  ( 0.000000000000000000, 0.000000000000000000, -1.000000000000000000 ) ) ;
#192 = ORIENTED_EDGE ( 'NONE', *, *, #998, .T. ) ;
#193 = CARTESIAN_POINT ( 'NONE',  ( 0.000000000000000000, 34.31715771247462499, -4.067157287525378528 ) ) ;
#194 = CARTESIAN_POINT ( 'NONE',  ( 5.327213576290984270E-16, 34.03431499999999943, 4.349999999999997868 ) ) ;
#195 = VERTEX_POINT ( 'NONE', #910 ) ;
#196 = ADVANCED_FACE ( 'NONE', ( #689 ), #274, .T. ) ;
#197 = CIRCLE ( 'NONE', #417, 4.250000000000000000 ) ;
#198 = DIRECTION ( 'NONE',  ( -0.000000000000000000, -1.000000000000000000, -0.000000000000000000 ) ) ;
#199 = AXIS2_PLACEMENT_3D ( 'NONE', #194, #415, #512 ) ;
#200 = PRESENTATION_LAYER_ASSIGNMENT (  '', '', ( #81 ) ) ;
#201 = DIRECTION ( 'NONE',  ( 0.000000000000000000, 0.000000000000000000, -1.000000000000000000 ) ) ;
#202 = EDGE_LOOP ( 'NONE', ( #665, #675, #769, #434 ) ) ;
#203 = AXIS2_PLACEMENT_3D ( 'NONE', #883, #487, #111 ) ;
#204 = EDGE_CURVE ( 'NONE', #870, #209, #25, .T. ) ;
#205 = DIRECTION ( 'NONE',  ( 0.000000000000000000, 0.000000000000000000, -1.000000000000000000 ) ) ;
#206 = ORIENTED_EDGE ( 'NONE', *, *, #427, .F. ) ;
#207 = EDGE_CURVE ( 'NONE', #282, #139, #229, .T. ) ;
#208 = DIRECTION ( 'NONE',  ( 8.659556251366733790E-17, 0.7071071332052729641, -0.7071064291676468772 ) ) ;
#209 = VERTEX_POINT ( 'NONE', #923 ) ;
#210 = VECTOR ( 'NONE', #35, 1000.000000000000114 ) ;
#211 = CARTESIAN_POINT ( 'NONE',  ( 0.000000000000000000, 33.52886800000000278, 0.000000000000000000 ) ) ;
#212 = AXIS2_PLACEMENT_3D ( 'NONE', #561, #411, #866 ) ;
#213 = CARTESIAN_POINT ( 'NONE',  ( 0.000000000000000000, -4.999999999998496314, 0.000000000000000000 ) ) ;
#214 = ORIENTED_EDGE ( 'NONE', *, *, #239, .T. ) ;
#215 = UNCERTAINTY_MEASURE_WITH_UNIT (LENGTH_MEASURE( 1.000000000000000082E-05 ), #521, 'distance_accuracy_value', 'NONE');
#216 = AXIS2_PLACEMENT_3D ( 'NONE', #757, #231, #522 ) ;
#217 = CARTESIAN_POINT ( 'NONE',  ( 0.000000000000000000, 39.00000000000000000, -4.250000000000000000 ) ) ;
#218 = VECTOR ( 'NONE', #323, 1000.000000000000000 ) ;
#219 = DIRECTION ( 'NONE',  ( -0.000000000000000000, -1.000000000000000000, -0.000000000000000000 ) ) ;
#220 = EDGE_LOOP ( 'NONE', ( #416, #825, #879, #652 ) ) ;
#221 = EDGE_CURVE ( 'NONE', #139, #282, #197, .T. ) ;
#222 = DIRECTION ( 'NONE',  ( 1.000000000000000000, 0.000000000000000000, -1.224646799147353207E-16 ) ) ;
#223 = DIRECTION ( 'NONE',  ( -0.000000000000000000, -1.000000000000000000, -0.000000000000000000 ) ) ;
#224 = EDGE_LOOP ( 'NONE', ( #912, #976, #5, #96 ) ) ;
#225 = FACE_OUTER_BOUND ( 'NONE', #429, .T. ) ;
#226 = ORIENTED_EDGE ( 'NONE', *, *, #887, .F. ) ;
#227 = DIRECTION ( 'NONE',  ( 0.000000000000000000, 0.000000000000000000, 1.000000000000000000 ) ) ;
#228 = EDGE_CURVE ( 'NONE', #51, #939, #659, .T. ) ;
#229 = CIRCLE ( 'NONE', #351, 4.250000000000000000 ) ;
#230 = CIRCLE ( 'NONE', #591, 0.2000000000000031197 ) ;
#231 = DIRECTION ( 'NONE',  ( -0.000000000000000000, -1.000000000000000000, -0.000000000000000000 ) ) ;
#232 = DIRECTION ( 'NONE',  ( -0.000000000000000000, -1.000000000000000000, -0.000000000000000000 ) ) ;
#233 = DIRECTION ( 'NONE',  ( -1.224646799147351482E-16, 0.000000000000000000, -1.000000000000000000 ) ) ;
#234 = EDGE_CURVE ( 'NONE', #588, #490, #400, .T. ) ;
#235 = DIRECTION ( 'NONE',  ( -1.224646799147353454E-16, 0.000000000000000000, -1.000000000000000000 ) ) ;
#236 = VECTOR ( 'NONE', #338, 1000.000000000000000 ) ;
#237 = CARTESIAN_POINT ( 'NONE',  ( 0.000000000000000000, -4.999999999998496314, 0.000000000000000000 ) ) ;
#238 = LINE ( 'NONE', #698, #63 ) ;
#239 = EDGE_CURVE ( 'NONE', #65, #209, #309, .T. ) ;
#240 = CARTESIAN_POINT ( 'NONE',  ( 0.000000000000000000, 5.643429000000001139, 0.000000000000000000 ) ) ;
#241 = FACE_BOUND ( 'NONE', #905, .T. ) ;
#242 = EDGE_CURVE ( 'NONE', #955, #850, #104, .T. ) ;
#243 =( NAMED_UNIT ( * ) PLANE_ANGLE_UNIT ( ) SI_UNIT ( $, .RADIAN. ) );
#244 = ORIENTED_EDGE ( 'NONE', *, *, #844, .T. ) ;
#245 = CARTESIAN_POINT ( 'NONE',  ( 0.000000000000000000, -4.999999999998496314, 0.000000000000000000 ) ) ;
#246 = FACE_OUTER_BOUND ( 'NONE', #510, .T. ) ;
#247 = ADVANCED_FACE ( 'NONE', ( #715 ), #690, .T. ) ;
#248 = CONICAL_SURFACE ( 'NONE', #327, 4.500000000000000888, 1.047196253089808682 ) ;
#249 = ORIENTED_EDGE ( 'NONE', *, *, #242, .F. ) ;
#250 = AXIS2_PLACEMENT_3D ( 'NONE', #841, #75, #378 ) ;
#251 = DIRECTION ( 'NONE',  ( -0.000000000000000000, -1.000000000000000000, -0.000000000000000000 ) ) ;
#252 = CIRCLE ( 'NONE', #725, 4.250000000000000000 ) ;
#253 = CARTESIAN_POINT ( 'NONE',  ( 9.797174393178825657E-16, -4.999999999998496314, 8.000000000000000000 ) ) ;
#254 = EDGE_LOOP ( 'NONE', ( #818, #10, #749, #958 ) ) ;
#255 = ADVANCED_FACE ( 'NONE', ( #710 ), #641, .T. ) ;
#256 = CARTESIAN_POINT ( 'NONE',  ( 0.000000000000000000, 34.31715771247462499, 4.067157287525378528 ) ) ;
#257 = DIRECTION ( 'NONE',  ( -0.000000000000000000, -1.000000000000000000, -0.000000000000000000 ) ) ;
#258 = EDGE_CURVE ( 'NONE', #860, #588, #704, .T. ) ;
#259 = DIRECTION ( 'NONE',  ( 0.000000000000000000, 0.000000000000000000, -1.000000000000000000 ) ) ;
#260 = CYLINDRICAL_SURFACE ( 'NONE', #382, 3.949999999999997069 ) ;
#261 = ORIENTED_EDGE ( 'NONE', *, *, #940, .F. ) ;
#262 = AXIS2_PLACEMENT_3D ( 'NONE', #635, #553, #699 ) ;
#263 = FACE_OUTER_BOUND ( 'NONE', #789, .T. ) ;
#264 = DIRECTION ( 'NONE',  ( -0.000000000000000000, -1.000000000000000000, -0.000000000000000000 ) ) ;
#265 = EDGE_LOOP ( 'NONE', ( #154, #36, #538 ) ) ;
#266 = CIRCLE ( 'NONE', #832, 0.7999999999999986011 ) ;
#267 = CARTESIAN_POINT ( 'NONE',  ( 8.572527594031473190E-16, 5.643429000000001139, -6.000000000000000000 ) ) ;
#268 = EDGE_CURVE ( 'NONE', #870, #513, #639, .T. ) ;
#269 = DIRECTION ( 'NONE',  ( 6.123234505955948679E-17, -0.8660253797305482726, 0.5000000416625579591 ) ) ;
#270 = EDGE_LOOP ( 'NONE', ( #334, #851, #754, #785 ) ) ;
#271 = CARTESIAN_POINT ( 'NONE',  ( 4.898587196589412829E-16, 48.50000000000000000, 4.000000000000000000 ) ) ;
#272 = DIRECTION ( 'NONE',  ( -0.000000000000000000, -1.000000000000000000, -0.000000000000000000 ) ) ;
#273 = EDGE_LOOP ( 'NONE', ( #311, #424, #741, #332 ) ) ;
#274 = CONICAL_SURFACE ( 'NONE', #414, 4.067157287525378528, 0.7853993254610842634 ) ;
#275 = DIRECTION ( 'NONE',  ( -0.000000000000000000, -1.000000000000000000, -0.000000000000000000 ) ) ;
#276 = ORIENTED_EDGE ( 'NONE', *, *, #242, .T. ) ;
#277 = CIRCLE ( 'NONE', #295, 8.000000000000000000 ) ;
#278 = VECTOR ( 'NONE', #106, 1000.000000000000000 ) ;
#279 = CARTESIAN_POINT ( 'NONE',  ( 0.000000000000000000, 33.50000000000000000, 4.500000000000000888 ) ) ;
#280 = ORIENTED_EDGE ( 'NONE', *, *, #625, .F. ) ;
#281 = CARTESIAN_POINT ( 'NONE',  ( 0.000000000000000000, -4.999999999998496314, 0.000000000000000000 ) ) ;
#282 = VERTEX_POINT ( 'NONE', #9 ) ;
#283 = EDGE_CURVE ( 'NONE', #850, #695, #289, .T. ) ;
#284 = FACE_OUTER_BOUND ( 'NONE', #580, .T. ) ;
#285 = EDGE_LOOP ( 'NONE', ( #498, #585, #354, #134 ) ) ;
#286 = VECTOR ( 'NONE', #813, 1000.000000000000000 ) ;
#287 = PRESENTATION_STYLE_ASSIGNMENT (( #828 ) ) ;
#288 = ORIENTED_EDGE ( 'NONE', *, *, #319, .F. ) ;
#289 = CIRCLE ( 'NONE', #738, 3.949999999999997069 ) ;
#290 = COLOUR_RGB ( '',0.7921568627450980005, 0.8196078431372548767, 0.9333333333333333481 ) ;
#291 = AXIS2_PLACEMENT_3D ( 'NONE', #526, #620, #534 ) ;
#292 = DIRECTION ( 'NONE',  ( -0.000000000000000000, -1.000000000000000000, -0.000000000000000000 ) ) ;
#293 = EDGE_LOOP ( 'NONE', ( #505, #328, #914, #156 ) ) ;
#294 = DIRECTION ( 'NONE',  ( 0.000000000000000000, 0.000000000000000000, -1.000000000000000000 ) ) ;
#295 = AXIS2_PLACEMENT_3D ( 'NONE', #1000, #593, #611 ) ;
#296 = DIRECTION ( 'NONE',  ( 0.000000000000000000, 0.000000000000000000, -1.000000000000000000 ) ) ;
#297 = VERTEX_POINT ( 'NONE', #4 ) ;
#298 = TOROIDAL_SURFACE ( 'NONE', #457, 4.149999999997887379, 0.2000000000000030642 ) ;
#299 = FACE_OUTER_BOUND ( 'NONE', #285, .T. ) ;
#300 = ORIENTED_EDGE ( 'NONE', *, *, #772, .F. ) ;
#301 = ADVANCED_FACE ( 'NONE', ( #495 ), #260, .T. ) ;
#302 =( NAMED_UNIT ( * ) SI_UNIT ( $, .STERADIAN. ) SOLID_ANGLE_UNIT ( ) );
#303 = CARTESIAN_POINT ( 'NONE',  ( 0.000000000000000000, 39.00000000000000000, 0.000000000000000000 ) ) ;
#304 = CARTESIAN_POINT ( 'NONE',  ( 9.723695585229985121E-16, 33.50000000000000000, 7.879999999999999893 ) ) ;
#305 = ORIENTED_EDGE ( 'NONE', *, *, #361, .F. ) ;
#306 = EDGE_CURVE ( 'NONE', #44, #431, #804, .T. ) ;
#307 = VECTOR ( 'NONE', #269, 1000.000000000000000 ) ;
#308 = AXIS2_PLACEMENT_3D ( 'NONE', #708, #14, #783 ) ;
#309 = CIRCLE ( 'NONE', #842, 3.249999999999999112 ) ;
#310 = DIRECTION ( 'NONE',  ( -0.000000000000000000, -1.000000000000000000, -0.000000000000000000 ) ) ;
#311 = ORIENTED_EDGE ( 'NONE', *, *, #2, .T. ) ;
#312 = CARTESIAN_POINT ( 'NONE',  ( 0.000000000000000000, 34.31715771247462499, 0.000000000000000000 ) ) ;
#313 = CIRCLE ( 'NONE', #216, 6.000000000000000000 ) ;
#314 = CIRCLE ( 'NONE', #565, 3.749999997890719250 ) ;
#315 = CARTESIAN_POINT ( 'NONE',  ( 0.000000000000000000, 40.24161999999999750, 0.000000000000000000 ) ) ;
#316 = CARTESIAN_POINT ( 'NONE',  ( 0.000000000000000000, 40.24161999999999750, -3.249999999999999112 ) ) ;
#317 = FILL_AREA_STYLE_COLOUR ( '', #290 ) ;
#318 = CARTESIAN_POINT ( 'NONE',  ( 3.980102097228896259E-16, -4.999999999998496314, 3.249999999999998668 ) ) ;
#319 = EDGE_CURVE ( 'NONE', #908, #733, #773, .T. ) ;
#320 = DIRECTION ( 'NONE',  ( 0.000000000000000000, 0.000000000000000000, -1.000000000000000000 ) ) ;
#321 = DIRECTION ( 'NONE',  ( 0.000000000000000000, 0.000000000000000000, -1.000000000000000000 ) ) ;
#322 = EDGE_LOOP ( 'NONE', ( #662, #101, #974, #667 ) ) ;
#323 = DIRECTION ( 'NONE',  ( 4.909439407455185099E-17, 0.9161278810979749387, -0.4008861502658013776 ) ) ;
#324 = TOROIDAL_SURFACE ( 'NONE', #308, 4.049999999999998046, 0.7999999999999988232 ) ;
#325 = CARTESIAN_POINT ( 'NONE',  ( 0.000000000000000000, -2.934034320259895967, 6.000000000000000000 ) ) ;
#326 = CARTESIAN_POINT ( 'NONE',  ( 0.000000000000000000, 33.52886800000000278, 0.000000000000000000 ) ) ;
#327 = AXIS2_PLACEMENT_3D ( 'NONE', #549, #788, #95 ) ;
#328 = ORIENTED_EDGE ( 'NONE', *, *, #258, .T. ) ;
#329 = CARTESIAN_POINT ( 'NONE',  ( 0.000000000000000000, -4.999999999998496314, 0.000000000000000000 ) ) ;
#330 = AXIS2_PLACEMENT_3D ( 'NONE', #240, #921, #383 ) ;
#331 = DIRECTION ( 'NONE',  ( -0.000000000000000000, -1.000000000000000000, -0.000000000000000000 ) ) ;
#332 = ORIENTED_EDGE ( 'NONE', *, *, #59, .F. ) ;
#333 = CARTESIAN_POINT ( 'NONE',  ( 0.000000000000000000, -4.999999999998496314, -3.949999999999997069 ) ) ;
#334 = ORIENTED_EDGE ( 'NONE', *, *, #882, .T. ) ;
#335 = CARTESIAN_POINT ( 'NONE',  ( 0.000000000000000000, -4.999999999998496314, -3.249999999999998668 ) ) ;
#336 = DIRECTION ( 'NONE',  ( -0.000000000000000000, -1.000000000000000000, -0.000000000000000000 ) ) ;
#337 = VERTEX_POINT ( 'NONE', #91 ) ;
#338 = DIRECTION ( 'NONE',  ( 0.000000000000000000, 0.9161278810979749387, 0.4008861502658013776 ) ) ;
#339 = ADVANCED_FACE ( 'NONE', ( #170 ), #951, .F. ) ;
#340 = AXIS2_PLACEMENT_3D ( 'NONE', #676, #73, #167 ) ;
#341 = LINE ( 'NONE', #824, #307 ) ;
#342 = VERTEX_POINT ( 'NONE', #394 ) ;
#343 = CIRCLE ( 'NONE', #581, 4.000000000000000000 ) ;
#344 = VECTOR ( 'NONE', #911, 1000.000000000000114 ) ;
#345 = CARTESIAN_POINT ( 'NONE',  ( 4.898587195297850312E-16, 39.50000015214367721, 3.749999997890719250 ) ) ;
#346 = EDGE_CURVE ( 'NONE', #908, #390, #485, .T. ) ;
#347 = CARTESIAN_POINT ( 'NONE',  ( 0.000000000000000000, 51.50000000000000711, -2.267949000000000659 ) ) ;
#348 = ORIENTED_EDGE ( 'NONE', *, *, #822, .T. ) ;
#349 = ORIENTED_EDGE ( 'NONE', *, *, #582, .T. ) ;
#350 = ADVANCED_FACE ( 'NONE', ( #792 ), #248, .F. ) ;
#351 = AXIS2_PLACEMENT_3D ( 'NONE', #759, #608, #685 ) ;
#352 = CARTESIAN_POINT ( 'NONE',  ( 0.000000000000000000, 33.38000000000000256, 0.000000000000000000 ) ) ;
#353 = CARTESIAN_POINT ( 'NONE',  ( 4.898587196589413815E-16, 42.00000000000000000, -4.000000000000000000 ) ) ;
#354 = ORIENTED_EDGE ( 'NONE', *, *, #952, .T. ) ;
#355 = CIRCLE ( 'NONE', #678, 2.267949000000000659 ) ;
#356 = AXIS2_PLACEMENT_3D ( 'NONE', #98, #422, #637 ) ;
#357 = ORIENTED_EDGE ( 'NONE', *, *, #868, .T. ) ;
#358 = DIRECTION ( 'NONE',  ( 0.000000000000000000, 0.000000000000000000, -1.000000000000000000 ) ) ;
#359 = EDGE_LOOP ( 'NONE', ( #744, #793, #125 ) ) ;
#360 = FILL_AREA_STYLE_COLOUR ( '', #183 ) ;
#361 = EDGE_CURVE ( 'NONE', #431, #44, #418, .T. ) ;
#362 = LINE ( 'NONE', #368, #969 ) ;
#363 = EDGE_LOOP ( 'NONE', ( #735, #395, #82, #192 ) ) ;
#364 = CONICAL_SURFACE ( 'NONE', #330, 6.000000000000000000, 0.4124839195095327815 ) ;
#365 = SURFACE_SIDE_STYLE ('',( #897 ) ) ;
#366 = ORIENTED_EDGE ( 'NONE', *, *, #882, .F. ) ;
#367 = EDGE_CURVE ( 'NONE', #139, #71, #666, .T. ) ;
#368 = CARTESIAN_POINT ( 'NONE',  ( 0.000000000000000000, 48.50000000000000000, -4.000000000000000000 ) ) ;
#369 = EDGE_LOOP ( 'NONE', ( #387, #814, #636, #123 ) ) ;
#370 = DIRECTION ( 'NONE',  ( 0.000000000000000000, 0.000000000000000000, -1.000000000000000000 ) ) ;
#371 = AXIS2_PLACEMENT_3D ( 'NONE', #730, #116, #121 ) ;
#372 = CYLINDRICAL_SURFACE ( 'NONE', #425, 4.250000000000000000 ) ;
#373 = EDGE_CURVE ( 'NONE', #120, #44, #30, .T. ) ;
#374 = CARTESIAN_POINT ( 'NONE',  ( 0.000000000000000000, 42.00000000000000000, 4.000000000000000000 ) ) ;
#375 = DIRECTION ( 'NONE',  ( 0.000000000000000000, 0.000000000000000000, -1.000000000000000000 ) ) ;
#376 = DIRECTION ( 'NONE',  ( 0.000000000000000000, 0.000000000000000000, -1.000000000000000000 ) ) ;
#377 = CARTESIAN_POINT ( 'NONE',  ( 0.000000000000000000, 41.49999949768619700, 3.499999995516229756 ) ) ;
#378 = DIRECTION ( 'NONE',  ( 0.000000000000000000, 0.000000000000000000, -1.000000000000000000 ) ) ;
#379 = EDGE_CURVE ( 'NONE', #490, #588, #547, .T. ) ;
#380 = DIRECTION ( 'NONE',  ( 0.000000000000000000, 0.000000000000000000, -1.000000000000000000 ) ) ;
#381 = CIRCLE ( 'NONE', #159, 4.500000000000000888 ) ;
#382 = AXIS2_PLACEMENT_3D ( 'NONE', #719, #23, #859 ) ;
#383 = DIRECTION ( 'NONE',  ( 0.000000000000000000, 0.000000000000000000, 1.000000000000000000 ) ) ;
#384 = DIRECTION ( 'NONE',  ( -0.000000000000000000, -1.000000000000000000, -0.000000000000000000 ) ) ;
#385 = PRESENTATION_LAYER_ASSIGNMENT (  '', '', ( #42 ) ) ;
#386 =( LENGTH_UNIT ( ) NAMED_UNIT ( * ) SI_UNIT ( .MILLI., .METRE. ) );
#387 = ORIENTED_EDGE ( 'NONE', *, *, #750, .F. ) ;
#388 = LINE ( 'NONE', #318, #862 ) ;
#389 = AXIS2_PLACEMENT_3D ( 'NONE', #782, #692, #686 ) ;
#390 = VERTEX_POINT ( 'NONE', #39 ) ;
#391 = ORIENTED_EDGE ( 'NONE', *, *, #268, .T. ) ;
#392 = EDGE_CURVE ( 'NONE', #934, #490, #971, .T. ) ;
#393 = CARTESIAN_POINT ( 'NONE',  ( 0.000000000000000000, 34.03431499999999943, 0.000000000000000000 ) ) ;
#394 = CARTESIAN_POINT ( 'NONE',  ( 4.837354856632042099E-16, 34.03431499999999943, 3.949999999999997957 ) ) ;
#395 = ORIENTED_EDGE ( 'NONE', *, *, #919, .F. ) ;
#396 = CARTESIAN_POINT ( 'NONE',  ( 0.000000000000000000, 33.52886800000000278, -3.949999999999997069 ) ) ;
#397 = ADVANCED_FACE ( 'NONE', ( #579 ), #975, .T. ) ;
#398 = CIRCLE ( 'NONE', #901, 4.250000000000000000 ) ;
#399 = CARTESIAN_POINT ( 'NONE',  ( 0.000000000000000000, -4.999999999998496314, 0.000000000000000000 ) ) ;
#400 = CIRCLE ( 'NONE', #110, 4.000000000000000000 ) ;
#401 = DIRECTION ( 'NONE',  ( 0.000000000000000000, 0.000000000000000000, -1.000000000000000000 ) ) ;
#402 = ORIENTED_EDGE ( 'NONE', *, *, #283, .F. ) ;
#403 = DIRECTION ( 'NONE',  ( 0.000000000000000000, 1.000000000000000000, 0.000000000000000000 ) ) ;
#404 = TOROIDAL_SURFACE ( 'NONE', #84, 4.149999999997887379, 0.2000000000000030642 ) ;
#405 = CIRCLE ( 'NONE', #356, 2.267949000000000659 ) ;
#406 = EDGE_CURVE ( 'NONE', #342, #733, #66, .T. ) ;
#407 = CARTESIAN_POINT ( 'NONE',  ( 0.000000000000000000, -2.934034320259895967, 0.000000000000000000 ) ) ;
#408 = EDGE_LOOP ( 'NONE', ( #528, #945 ) ) ;
#409 = FACE_OUTER_BOUND ( 'NONE', #369, .T. ) ;
#410 = DIRECTION ( 'NONE',  ( -0.000000000000000000, -1.000000000000000000, -0.000000000000000000 ) ) ;
#411 = DIRECTION ( 'NONE',  ( -0.000000000000000000, -1.000000000000000000, -0.000000000000000000 ) ) ;
#412 = EDGE_LOOP ( 'NONE', ( #677, #867, #995, #162 ) ) ;
#413 = CARTESIAN_POINT ( 'NONE',  ( 0.000000000000000000, 5.643429000000001139, 6.000000000000000000 ) ) ;
#414 = AXIS2_PLACEMENT_3D ( 'NONE', #312, #778, #146 ) ;
#415 = DIRECTION ( 'NONE',  ( 1.000000000000000000, 0.000000000000000000, -1.224646799147353207E-16 ) ) ;
#416 = ORIENTED_EDGE ( 'NONE', *, *, #109, .F. ) ;
#417 = AXIS2_PLACEMENT_3D ( 'NONE', #878, #100, #944 ) ;
#418 = CIRCLE ( 'NONE', #575, 5.999999999999999112 ) ;
#419 = MECHANICAL_DESIGN_GEOMETRIC_PRESENTATION_REPRESENTATION (  '', ( #81 ), #827 ) ;
#420 = CIRCLE ( 'NONE', #437, 3.499999995516229756 ) ;
#421 = ADVANCED_FACE ( 'NONE', ( #284 ), #107, .T. ) ;
#422 = DIRECTION ( 'NONE',  ( -0.000000000000000000, -1.000000000000000000, -0.000000000000000000 ) ) ;
#423 = DIRECTION ( 'NONE',  ( -0.000000000000000000, -1.000000000000000000, -0.000000000000000000 ) ) ;
#424 = ORIENTED_EDGE ( 'NONE', *, *, #555, .T. ) ;
#425 = AXIS2_PLACEMENT_3D ( 'NONE', #245, #102, #643 ) ;
#426 = DIRECTION ( 'NONE',  ( -0.000000000000000000, -1.000000000000000000, -0.000000000000000000 ) ) ;
#427 = EDGE_CURVE ( 'NONE', #390, #195, #638, .T. ) ;
#428 = DIRECTION ( 'NONE',  ( -0.000000000000000000, -1.000000000000000000, -0.000000000000000000 ) ) ;
#429 = EDGE_LOOP ( 'NONE', ( #300, #654, #244, #751 ) ) ;
#430 = APPLICATION_PROTOCOL_DEFINITION ( 'draft international standard', 'automotive_design', 1998, #165 ) ;
#431 = VERTEX_POINT ( 'NONE', #584 ) ;
#432 = ADVANCED_FACE ( 'NONE', ( #127 ), #60, .T. ) ;
#433 = FACE_OUTER_BOUND ( 'NONE', #898, .T. ) ;
#434 = ORIENTED_EDGE ( 'NONE', *, *, #712, .F. ) ;
#435 = CONICAL_SURFACE ( 'NONE', #514, 4.250000000000000000, 0.7853980133630724669 ) ;
#436 = AXIS2_PLACEMENT_3D ( 'NONE', #607, #937, #853 ) ;
#437 = AXIS2_PLACEMENT_3D ( 'NONE', #46, #426, #816 ) ;
#438 = ORIENTED_EDGE ( 'NONE', *, *, #551, .T. ) ;
#439 = DIRECTION ( 'NONE',  ( -0.000000000000000000, -1.000000000000000000, -0.000000000000000000 ) ) ;
#440 = ORIENTED_EDGE ( 'NONE', *, *, #258, .F. ) ;
#441 = CIRCLE ( 'NONE', #780, 3.949999999999997957 ) ;
#442 = DIRECTION ( 'NONE',  ( 0.000000000000000000, 0.000000000000000000, -1.000000000000000000 ) ) ;
#443 = CARTESIAN_POINT ( 'NONE',  ( 0.000000000000000000, 34.03431499999999943, 0.000000000000000000 ) ) ;
#444 = EDGE_LOOP ( 'NONE', ( #455, #349, #402, #249 ) ) ;
#445 = DIRECTION ( 'NONE',  ( 0.000000000000000000, 0.000000000000000000, 1.000000000000000000 ) ) ;
#446 = EDGE_CURVE ( 'NONE', #669, #860, #341, .T. ) ;
#447 = CARTESIAN_POINT ( 'NONE',  ( 0.000000000000000000, 41.49999949768619700, -3.499999995516229312 ) ) ;
#448 = ORIENTED_EDGE ( 'NONE', *, *, #726, .T. ) ;
#449 = CARTESIAN_POINT ( 'NONE',  ( 9.797174393178825657E-16, 10.21394300000000399, -8.000000000000000000 ) ) ;
#450 = ORIENTED_EDGE ( 'NONE', *, *, #135, .F. ) ;
#451 = DIRECTION ( 'NONE',  ( -0.000000000000000000, -1.000000000000000000, -0.000000000000000000 ) ) ;
#452 = VECTOR ( 'NONE', #56, 1000.000000000000000 ) ;
#453 = ADVANCED_FACE ( 'NONE', ( #737 ), #435, .T. ) ;
#454 = FACE_OUTER_BOUND ( 'NONE', #87, .T. ) ;
#455 = ORIENTED_EDGE ( 'NONE', *, *, #499, .T. ) ;
#456 = DIRECTION ( 'NONE',  ( -1.224646799147352961E-16, 0.000000000000000000, -1.000000000000000000 ) ) ;
#457 = AXIS2_PLACEMENT_3D ( 'NONE', #936, #999, #989 ) ;
#458 = CYLINDRICAL_SURFACE ( 'NONE', #727, 4.250000000000000000 ) ;
#459 = EDGE_CURVE ( 'NONE', #513, #972, #112, .T. ) ;
#460 = DIRECTION ( 'NONE',  ( -0.000000000000000000, -1.000000000000000000, -0.000000000000000000 ) ) ;
#461 = CARTESIAN_POINT ( 'NONE',  ( 0.000000000000000000, 33.50000000000000000, 4.500000000000000888 ) ) ;
#462 = PRODUCT ( '99688-SI12-M08+S9MT1203-142', '99688-SI12-M08+S9MT1203-142', '', ( #843 ) ) ;
#463 = FACE_OUTER_BOUND ( 'NONE', #363, .T. ) ;
#464 = DIRECTION ( 'NONE',  ( 0.000000000000000000, 0.000000000000000000, -1.000000000000000000 ) ) ;
#465 = ORIENTED_EDGE ( 'NONE', *, *, #664, .T. ) ;
#466 = FACE_OUTER_BOUND ( 'NONE', #600, .T. ) ;
#467 = EDGE_LOOP ( 'NONE', ( #682, #158, #762, #574 ) ) ;
#468 = TOROIDAL_SURFACE ( 'NONE', #589, 4.049999999999998046, 0.7999999999999989342 ) ;
#469 = DIRECTION ( 'NONE',  ( -0.000000000000000000, -1.000000000000000000, -0.000000000000000000 ) ) ;
#470 = AXIS2_PLACEMENT_3D ( 'NONE', #954, #264, #566 ) ;
#471 = VERTEX_POINT ( 'NONE', #347 ) ;
#472 = VECTOR ( 'NONE', #223, 1000.000000000000000 ) ;
#473 = CARTESIAN_POINT ( 'NONE',  ( 0.000000000000000000, 33.50000000000000000, -7.879999999999999893 ) ) ;
#474 = ORIENTED_EDGE ( 'NONE', *, *, #709, .T. ) ;
#475 = CIRCLE ( 'NONE', #32, 0.7999999999999990452 ) ;
#476 = EDGE_CURVE ( 'NONE', #972, #390, #743, .T. ) ;
#477 = DIRECTION ( 'NONE',  ( -0.000000000000000000, -1.000000000000000000, -0.000000000000000000 ) ) ;
#478 = AXIS2_PLACEMENT_3D ( 'NONE', #563, #22, #959 ) ;
#479 = LINE ( 'NONE', #90, #79 ) ;
#480 = DIRECTION ( 'NONE',  ( -0.000000000000000000, -1.000000000000000000, -0.000000000000000000 ) ) ;
#481 = VERTEX_POINT ( 'NONE', #50 ) ;
#482 = ADVANCED_FACE ( 'NONE', ( #433 ), #468, .F. ) ;
#483 = FACE_OUTER_BOUND ( 'NONE', #270, .T. ) ;
#484 = FACE_OUTER_BOUND ( 'NONE', #412, .T. ) ;
#485 = LINE ( 'NONE', #489, #935 ) ;
#486 = ORIENTED_EDGE ( 'NONE', *, *, #707, .T. ) ;
#487 = DIRECTION ( 'NONE',  ( -0.000000000000000000, -1.000000000000000000, -0.000000000000000000 ) ) ;
#488 = AXIS2_PLACEMENT_3D ( 'NONE', #626, #19, #191 ) ;
#489 = CARTESIAN_POINT ( 'NONE',  ( 4.980831153796786857E-16, 34.31715771247462499, -4.067157287525378528 ) ) ;
#490 = VERTEX_POINT ( 'NONE', #353 ) ;
#491 = CARTESIAN_POINT ( 'NONE',  ( 0.000000000000000000, 33.50000000000000000, 0.000000000000000000 ) ) ;
#492 = CONICAL_SURFACE ( 'NONE', #875, 4.000000000000000000, 0.5235988237060776873 ) ;
#493 = AXIS2_PLACEMENT_3D ( 'NONE', #920, #251, #536 ) ;
#494 = EDGE_CURVE ( 'NONE', #808, #195, #573, .T. ) ;
#495 = FACE_OUTER_BOUND ( 'NONE', #444, .T. ) ;
#496 = ORIENTED_EDGE ( 'NONE', *, *, #21, .T. ) ;
#497 = DIRECTION ( 'NONE',  ( 0.000000000000000000, 0.7071059594829929296, 0.7071076028891472021 ) ) ;
#498 = ORIENTED_EDGE ( 'NONE', *, *, #221, .F. ) ;
#499 = EDGE_CURVE ( 'NONE', #955, #342, #978, .T. ) ;
#500 = CARTESIAN_POINT ( 'NONE',  ( 0.000000000000000000, 33.50000000000000000, 0.000000000000000000 ) ) ;
#501 = DIRECTION ( 'NONE',  ( 0.000000000000000000, 0.000000000000000000, -1.000000000000000000 ) ) ;
#502 = ORIENTED_EDGE ( 'NONE', *, *, #809, .F. ) ;
#503 = CARTESIAN_POINT ( 'NONE',  ( 0.000000000000000000, 5.643429000000001139, 0.000000000000000000 ) ) ;
#504 = CARTESIAN_POINT ( 'NONE',  ( 7.347880794884119736E-16, -4.999999999998496314, 6.000000000000000000 ) ) ;
#505 = ORIENTED_EDGE ( 'NONE', *, *, #946, .T. ) ;
#506 = AXIS2_PLACEMENT_3D ( 'NONE', #281, #41, #296 ) ;
#507 = ORIENTED_EDGE ( 'NONE', *, *, #822, .F. ) ;
#508 = ADVANCED_FACE ( 'NONE', ( #984 ), #364, .T. ) ;
#509 = CARTESIAN_POINT ( 'NONE',  ( 0.000000000000000000, 42.00000000000000000, 0.000000000000000000 ) ) ;
#510 = EDGE_LOOP ( 'NONE', ( #550, #758, #348, #603 ) ) ;
#511 = FACE_OUTER_BOUND ( 'NONE', #359, .T. ) ;
#512 = DIRECTION ( 'NONE',  ( -1.224646799147353207E-16, 0.000000000000000000, -1.000000000000000000 ) ) ;
#513 = VERTEX_POINT ( 'NONE', #602 ) ;
#514 = AXIS2_PLACEMENT_3D ( 'NONE', #587, #570, #501 ) ;
#515 = AXIS2_PLACEMENT_3D ( 'NONE', #815, #734, #445 ) ;
#516 = EDGE_LOOP ( 'NONE', ( #131, #558, #206, #983 ) ) ;
#517 = ORIENTED_EDGE ( 'NONE', *, *, #919, .T. ) ;
#518 = AXIS2_PLACEMENT_3D ( 'NONE', #913, #460, #670 ) ;
#519 = EDGE_CURVE ( 'NONE', #961, #594, #890, .T. ) ;
#520 = CIRCLE ( 'NONE', #745, 0.7999999999999986011 ) ;
#521 =( LENGTH_UNIT ( ) NAMED_UNIT ( * ) SI_UNIT ( .MILLI., .METRE. ) );
#522 = DIRECTION ( 'NONE',  ( 0.000000000000000000, 0.000000000000000000, -1.000000000000000000 ) ) ;
#523 = ORIENTED_EDGE ( 'NONE', *, *, #373, .T. ) ;
#524 = ADVANCED_FACE ( 'NONE', ( #299 ), #404, .F. ) ;
#525 = CARTESIAN_POINT ( 'NONE',  ( 5.082284216458927693E-16, 33.52886708075568123, 4.149999999997887379 ) ) ;
#526 = CARTESIAN_POINT ( 'NONE',  ( 0.000000000000000000, 0.000000000000000000, 0.000000000000000000 ) ) ;
#527 = CARTESIAN_POINT ( 'NONE',  ( 9.797174393178825657E-16, 33.38000000000000256, 8.000000000000000000 ) ) ;
#528 = ORIENTED_EDGE ( 'NONE', *, *, #2, .F. ) ;
#529 = FACE_OUTER_BOUND ( 'NONE', #171, .T. ) ;
#530 = ADVANCED_FACE ( 'NONE', ( #225 ), #537, .T. ) ;
#531 = LINE ( 'NONE', #606, #713 ) ;
#532 = CARTESIAN_POINT ( 'NONE',  ( 4.500000000000000888, 33.50000000000000000, 0.000000000000000000 ) ) ;
#533 = PLANE ( 'NONE',  #917 ) ;
#534 = DIRECTION ( 'NONE',  ( 1.000000000000000000, 0.000000000000000000, 0.000000000000000000 ) ) ;
#535 = CIRCLE ( 'NONE', #891, 6.000000000000000000 ) ;
#536 = DIRECTION ( 'NONE',  ( 0.000000000000000000, 0.000000000000000000, -1.000000000000000000 ) ) ;
#537 = CYLINDRICAL_SURFACE ( 'NONE', #696, 3.249999999999998668 ) ;
#538 = ORIENTED_EDGE ( 'NONE', *, *, #306, .T. ) ;
#539 = CARTESIAN_POINT ( 'NONE',  ( 4.959819536546777642E-16, 40.24161999999999750, 4.049999999999998046 ) ) ;
#540 = VERTEX_POINT ( 'NONE', #304 ) ;
#541 = DIRECTION ( 'NONE',  ( -0.000000000000000000, -1.000000000000000000, -0.000000000000000000 ) ) ;
#542 = ORIENTED_EDGE ( 'NONE', *, *, #946, .F. ) ;
#543 = FACE_OUTER_BOUND ( 'NONE', #254, .T. ) ;
#544 = ORIENTED_EDGE ( 'NONE', *, *, #772, .T. ) ;
#545 = AXIS2_PLACEMENT_3D ( 'NONE', #994, #599, #376 ) ;
#546 = CARTESIAN_POINT ( 'NONE',  ( 4.959819536546777642E-16, 40.91905200000000775, 4.049999999999998046 ) ) ;
#547 = CIRCLE ( 'NONE', #805, 4.000000000000000000 ) ;
#548 = CARTESIAN_POINT ( 'NONE',  ( 0.000000000000000000, 34.31715771247462499, 0.000000000000000000 ) ) ;
#549 = CARTESIAN_POINT ( 'NONE',  ( 0.000000000000000000, 33.50000000000000000, 0.000000000000000000 ) ) ;
#550 = ORIENTED_EDGE ( 'NONE', *, *, #346, .F. ) ;
#551 = EDGE_CURVE ( 'NONE', #481, #801, #277, .T. ) ;
#552 = DIRECTION ( 'NONE',  ( -0.000000000000000000, -1.000000000000000000, -0.000000000000000000 ) ) ;
#553 = DIRECTION ( 'NONE',  ( -0.000000000000000000, -1.000000000000000000, -0.000000000000000000 ) ) ;
#554 = EDGE_LOOP ( 'NONE', ( #562, #145, #542, #280 ) ) ;
#555 = EDGE_CURVE ( 'NONE', #540, #801, #681, .T. ) ;
#556 = DIRECTION ( 'NONE',  ( 0.000000000000000000, 0.000000000000000000, -1.000000000000000000 ) ) ;
#557 = DIRECTION ( 'NONE',  ( 0.000000000000000000, 0.000000000000000000, -1.000000000000000000 ) ) ;
#558 = ORIENTED_EDGE ( 'NONE', *, *, #494, .T. ) ;
#559 = FACE_OUTER_BOUND ( 'NONE', #554, .T. ) ;
#560 = AXIS2_PLACEMENT_3D ( 'NONE', #352, #597, #442 ) ;
#561 = CARTESIAN_POINT ( 'NONE',  ( 0.000000000000000000, 39.50000015214367721, 0.000000000000000000 ) ) ;
#562 = ORIENTED_EDGE ( 'NONE', *, *, #616, .T. ) ;
#563 = CARTESIAN_POINT ( 'NONE',  ( 0.000000000000000000, 33.52886708075568123, -4.149999999997887379 ) ) ;
#564 = EDGE_CURVE ( 'NONE', #733, #908, #48, .T. ) ;
#565 = AXIS2_PLACEMENT_3D ( 'NONE', #947, #572, #28 ) ;
#566 = DIRECTION ( 'NONE',  ( 0.000000000000000000, 0.000000000000000000, -1.000000000000000000 ) ) ;
#567 = ORIENTED_EDGE ( 'NONE', *, *, #756, .T. ) ;
#568 = CYLINDRICAL_SURFACE ( 'NONE', #115, 6.000000000000000000 ) ;
#569 = ADVANCED_FACE ( 'NONE', ( #454 ), #17, .F. ) ;
#570 = DIRECTION ( 'NONE',  ( -0.000000000000000000, -1.000000000000000000, -0.000000000000000000 ) ) ;
#571 = ORIENTED_EDGE ( 'NONE', *, *, #88, .F. ) ;
#572 = DIRECTION ( 'NONE',  ( -0.000000000000000000, -1.000000000000000000, -0.000000000000000000 ) ) ;
#573 = LINE ( 'NONE', #661, #286 ) ;
#574 = ORIENTED_EDGE ( 'NONE', *, *, #697, .F. ) ;
#575 = AXIS2_PLACEMENT_3D ( 'NONE', #407, #895, #892 ) ;
#576 = EDGE_CURVE ( 'NONE', #881, #120, #313, .T. ) ;
#577 = ADVANCED_BREP_SHAPE_REPRESENTATION ( '99688-SI12-M08+S9MT1203-142', ( #164, #291 ), #806 ) ;
#578 =( NAMED_UNIT ( * ) SI_UNIT ( $, .STERADIAN. ) SOLID_ANGLE_UNIT ( ) );
#579 = FACE_OUTER_BOUND ( 'NONE', #16, .T. ) ;
#580 = EDGE_LOOP ( 'NONE', ( #886, #465, #276, #927 ) ) ;
#581 = AXIS2_PLACEMENT_3D ( 'NONE', #931, #610, #1 ) ;
#582 = EDGE_CURVE ( 'NONE', #342, #695, #531, .T. ) ;
#583 = CYLINDRICAL_SURFACE ( 'NONE', #506, 6.000000000000000000 ) ;
#584 = CARTESIAN_POINT ( 'NONE',  ( 7.347880794884119736E-16, -2.934034320259895967, -6.000000000000000000 ) ) ;
#585 = ORIENTED_EDGE ( 'NONE', *, *, #135, .T. ) ;
#586 = ADVANCED_FACE ( 'NONE', ( #70 ), #660, .T. ) ;
#587 = CARTESIAN_POINT ( 'NONE',  ( 0.000000000000000000, 39.00000000000000000, 0.000000000000000000 ) ) ;
#588 = VERTEX_POINT ( 'NONE', #374 ) ;
#589 = AXIS2_PLACEMENT_3D ( 'NONE', #43, #885, #201 ) ;
#590 = VECTOR ( 'NONE', #938, 1000.000000000000000 ) ;
#591 = AXIS2_PLACEMENT_3D ( 'NONE', #525, #222, #233 ) ;
#592 = FACE_OUTER_BOUND ( 'NONE', #293, .T. ) ;
#593 = DIRECTION ( 'NONE',  ( -0.000000000000000000, -1.000000000000000000, -0.000000000000000000 ) ) ;
#594 = VERTEX_POINT ( 'NONE', #449 ) ;
#595 = DIRECTION ( 'NONE',  ( 0.000000000000000000, 1.000000000000000000, 0.000000000000000000 ) ) ;
#596 = AXIS2_PLACEMENT_3D ( 'NONE', #211, #973, #820 ) ;
#597 = DIRECTION ( 'NONE',  ( -0.000000000000000000, -1.000000000000000000, -0.000000000000000000 ) ) ;
#598 = EDGE_LOOP ( 'NONE', ( #517, #544, #658, #24 ) ) ;
#599 = DIRECTION ( 'NONE',  ( -0.000000000000000000, -1.000000000000000000, -0.000000000000000000 ) ) ;
#600 = EDGE_LOOP ( 'NONE', ( #649, #502 ) ) ;
#601 = DIRECTION ( 'NONE',  ( -1.000000000000000000, 0.000000000000000000, 0.000000000000000000 ) ) ;
#602 = CARTESIAN_POINT ( 'NONE',  ( 0.000000000000000000, 39.50000015214367721, -3.749999997890719250 ) ) ;
#603 = ORIENTED_EDGE ( 'NONE', *, *, #697, .T. ) ;
#604 = AXIS2_PLACEMENT_3D ( 'NONE', #722, #728, #817 ) ;
#605 = APPLICATION_PROTOCOL_DEFINITION ( 'draft international standard', 'automotive_design', 1998, #872 ) ;
#606 = CARTESIAN_POINT ( 'NONE',  ( 4.837354856632041113E-16, -4.999999999998496314, 3.949999999999997069 ) ) ;
#607 = CARTESIAN_POINT ( 'NONE',  ( 0.000000000000000000, 33.50000000000000000, 0.000000000000000000 ) ) ;
#608 = DIRECTION ( 'NONE',  ( -0.000000000000000000, -1.000000000000000000, -0.000000000000000000 ) ) ;
#609 = VECTOR ( 'NONE', #497, 1000.000000000000114 ) ;
#610 = DIRECTION ( 'NONE',  ( -0.000000000000000000, -1.000000000000000000, -0.000000000000000000 ) ) ;
#611 = DIRECTION ( 'NONE',  ( 0.000000000000000000, 0.000000000000000000, -1.000000000000000000 ) ) ;
#612 = FACE_OUTER_BOUND ( 'NONE', #55, .T. ) ;
#613 = CARTESIAN_POINT ( 'NONE',  ( 0.000000000000000000, -4.999999999998496314, 0.000000000000000000 ) ) ;
#614 = ORIENTED_EDGE ( 'NONE', *, *, #204, .F. ) ;
#615 = FACE_OUTER_BOUND ( 'NONE', #516, .T. ) ;
#616 = EDGE_CURVE ( 'NONE', #471, #669, #355, .T. ) ;
#617 = LINE ( 'NONE', #377, #996 ) ;
#618 = CARTESIAN_POINT ( 'NONE',  ( 0.000000000000000000, 34.31715771247462499, 0.000000000000000000 ) ) ;
#619 = EDGE_LOOP ( 'NONE', ( #1001, #523, #305, #731 ) ) ;
#620 = DIRECTION ( 'NONE',  ( 0.000000000000000000, 0.000000000000000000, 1.000000000000000000 ) ) ;
#621 = CONICAL_SURFACE ( 'NONE', #515, 2904.210877674967378, 1.239183768915883332 ) ;
#622 = DIRECTION ( 'NONE',  ( -0.000000000000000000, -1.000000000000000000, -0.000000000000000000 ) ) ;
#623 = AXIS2_PLACEMENT_3D ( 'NONE', #657, #965, #358 ) ;
#624 = DIRECTION ( 'NONE',  ( 0.000000000000000000, 0.000000000000000000, 1.000000000000000000 ) ) ;
#625 = EDGE_CURVE ( 'NONE', #471, #337, #362, .T. ) ;
#626 = CARTESIAN_POINT ( 'NONE',  ( 0.000000000000000000, 33.38000000000000256, 0.000000000000000000 ) ) ;
#627 = ORIENTED_EDGE ( 'NONE', *, *, #756, .F. ) ;
#628 = CARTESIAN_POINT ( 'NONE',  ( 0.000000000000000000, 40.91905200000000775, 0.000000000000000000 ) ) ;
#629 = CIRCLE ( 'NONE', #389, 3.499999995516229756 ) ;
#630 = CARTESIAN_POINT ( 'NONE',  ( 0.000000000000000000, 40.91905200000000775, 0.000000000000000000 ) ) ;
#631 = ORIENTED_EDGE ( 'NONE', *, *, #109, .T. ) ;
#632 = ADVANCED_FACE ( 'NONE', ( #133 ), #492, .T. ) ;
#633 = PRODUCT_RELATED_PRODUCT_CATEGORY ( 'part', '', ( #462 ) ) ;
#634 = LINE ( 'NONE', #950, #278 ) ;
#635 = CARTESIAN_POINT ( 'NONE',  ( 0.000000000000000000, -4.999999999998496314, 0.000000000000000000 ) ) ;
#636 = ORIENTED_EDGE ( 'NONE', *, *, #877, .T. ) ;
#637 = DIRECTION ( 'NONE',  ( 0.000000000000000000, 0.000000000000000000, -1.000000000000000000 ) ) ;
#638 = CIRCLE ( 'NONE', #736, 4.250000000000000000 ) ;
#639 = CIRCLE ( 'NONE', #212, 3.749999997890719250 ) ;
#640 = AXIS2_PLACEMENT_3D ( 'NONE', #997, #601, #227 ) ;
#641 = CYLINDRICAL_SURFACE ( 'NONE', #262, 3.249999999999998668 ) ;
#642 = ORIENTED_EDGE ( 'NONE', *, *, #52, .F. ) ;
#643 = DIRECTION ( 'NONE',  ( 0.000000000000000000, 0.000000000000000000, -1.000000000000000000 ) ) ;
#644 = AXIS2_PLACEMENT_3D ( 'NONE', #687, #310, #144 ) ;
#645 = VECTOR ( 'NONE', #871, 1000.000000000000000 ) ;
#646 = CIRCLE ( 'NONE', #148, 3.249999999999999112 ) ;
#647 = DIRECTION ( 'NONE',  ( -1.000000000000000000, 0.000000000000000000, 0.000000000000000000 ) ) ;
#648 = DIRECTION ( 'NONE',  ( 0.000000000000000000, 0.5000011241930348849, 0.8660247547303143723 ) ) ;
#649 = ORIENTED_EDGE ( 'NONE', *, *, #616, .F. ) ;
#650 = LINE ( 'NONE', #329, #679 ) ;
#651 = CARTESIAN_POINT ( 'NONE',  ( 4.286263791524701645E-16, 41.49999949768619700, -3.499999995516229756 ) ) ;
#652 = ORIENTED_EDGE ( 'NONE', *, *, #709, .F. ) ;
#653 = DIRECTION ( 'NONE',  ( -0.000000000000000000, -1.000000000000000000, -0.000000000000000000 ) ) ;
#654 = ORIENTED_EDGE ( 'NONE', *, *, #228, .T. ) ;
#655 = AXIS2_PLACEMENT_3D ( 'NONE', #539, #755, #456 ) ;
#656 = AXIS2_PLACEMENT_3D ( 'NONE', #613, #987, #370 ) ;
#657 = CARTESIAN_POINT ( 'NONE',  ( 0.000000000000000000, -4.999999999998496314, 0.000000000000000000 ) ) ;
#658 = ORIENTED_EDGE ( 'NONE', *, *, #239, .F. ) ;
#659 = CIRCLE ( 'NONE', #62, 3.249999999999998224 ) ;
#660 = CONICAL_SURFACE ( 'NONE', #794, 2904.210877674967378, 1.239183768915883332 ) ;
#661 = CARTESIAN_POINT ( 'NONE',  ( 5.204748896376250699E-16, -4.999999999998496314, 4.250000000000000000 ) ) ;
#662 = ORIENTED_EDGE ( 'NONE', *, *, #406, .F. ) ;
#663 = CIRCLE ( 'NONE', #478, 0.2000000000000031197 ) ;
#664 = EDGE_CURVE ( 'NONE', #342, #955, #441, .T. ) ;
#665 = ORIENTED_EDGE ( 'NONE', *, *, #555, .F. ) ;
#666 = LINE ( 'NONE', #279, #11 ) ;
#667 = ORIENTED_EDGE ( 'NONE', *, *, #319, .T. ) ;
#668 = FILL_AREA_STYLE ('',( #360 ) ) ;
#669 = VERTEX_POINT ( 'NONE', #77 ) ;
#670 = DIRECTION ( 'NONE',  ( 0.000000000000000000, 0.000000000000000000, -1.000000000000000000 ) ) ;
#671 = ORIENTED_EDGE ( 'NONE', *, *, #346, .T. ) ;
#672 = FILL_AREA_STYLE ('',( #317 ) ) ;
#673 = CLOSED_SHELL ( 'NONE', ( #957, #118, #925, #977, #432, #38, #255, #482, #770, #791, #196, #26, #301, #524, #848, #247, #190, #508, #854, #129, #967, #69, #350, #752, #421, #339, #99, #739, #453, #569, #530, #746, #185, #397, #632, #147, #586, #899 ) ) ;
#674 = CARTESIAN_POINT ( 'NONE',  ( 0.000000000000000000, 34.03431499999999943, -3.949999999999997957 ) ) ;
#675 = ORIENTED_EDGE ( 'NONE', *, *, #909, .T. ) ;
#676 = CARTESIAN_POINT ( 'NONE',  ( 0.000000000000000000, 39.00000000000000000, 0.000000000000000000 ) ) ;
#677 = ORIENTED_EDGE ( 'NONE', *, *, #664, .F. ) ;
#678 = AXIS2_PLACEMENT_3D ( 'NONE', #153, #766, #830 ) ;
#679 = VECTOR ( 'NONE', #714, 1000.000000000000000 ) ;
#680 = FACE_OUTER_BOUND ( 'NONE', #467, .T. ) ;
#681 = LINE ( 'NONE', #527, #742 ) ;
#682 = ORIENTED_EDGE ( 'NONE', *, *, #494, .F. ) ;
#683 = EDGE_CURVE ( 'NONE', #808, #972, #861, .T. ) ;
#684 = PRODUCT_DEFINITION_SHAPE ( 'NONE', 'NONE',  #83 ) ;
#685 = DIRECTION ( 'NONE',  ( 0.000000000000000000, 0.000000000000000000, -1.000000000000000000 ) ) ;
#686 = DIRECTION ( 'NONE',  ( 0.000000000000000000, 0.000000000000000000, -1.000000000000000000 ) ) ;
#687 = CARTESIAN_POINT ( 'NONE',  ( 0.000000000000000000, 34.31715771247462499, 0.000000000000000000 ) ) ;
#688 = EDGE_LOOP ( 'NONE', ( #450, #874, #357, #839 ) ) ;
#689 = FACE_OUTER_BOUND ( 'NONE', #829, .T. ) ;
#690 = CONICAL_SURFACE ( 'NONE', #488, 8.000000000000000000, 0.7853981633974410625 ) ;
#691 =( GEOMETRIC_REPRESENTATION_CONTEXT ( 3 ) GLOBAL_UNCERTAINTY_ASSIGNED_CONTEXT ( ( #176 ) ) GLOBAL_UNIT_ASSIGNED_CONTEXT ( ( #837, #764, #988 ) ) REPRESENTATION_CONTEXT ( 'NONE', 'WORKASPACE' ) );
#692 = DIRECTION ( 'NONE',  ( -0.000000000000000000, -1.000000000000000000, -0.000000000000000000 ) ) ;
#693 = DIRECTION ( 'NONE',  ( 0.000000000000000000, 0.000000000000000000, -1.000000000000000000 ) ) ;
#694 = CARTESIAN_POINT ( 'NONE',  ( 4.286263791524701152E-16, 41.49999949768619700, 3.499999995516229312 ) ) ;
#695 = VERTEX_POINT ( 'NONE', #174 ) ;
#696 = AXIS2_PLACEMENT_3D ( 'NONE', #237, #292, #849 ) ;
#697 = EDGE_CURVE ( 'NONE', #195, #390, #252, .T. ) ;
#698 = CARTESIAN_POINT ( 'NONE',  ( 0.000000000000000000, 33.38000000000000256, -8.000000000000000000 ) ) ;
#699 = DIRECTION ( 'NONE',  ( 0.000000000000000000, 0.000000000000000000, -1.000000000000000000 ) ) ;
#700 = ORIENTED_EDGE ( 'NONE', *, *, #683, .F. ) ;
#701 = CARTESIAN_POINT ( 'NONE',  ( 0.000000000000000000, 33.38000000000000256, 0.000000000000000000 ) ) ;
#702 = EDGE_CURVE ( 'NONE', #513, #65, #475, .T. ) ;
#703 = DIRECTION ( 'NONE',  ( 0.000000000000000000, -0.000000000000000000, 1.000000000000000000 ) ) ;
#704 = LINE ( 'NONE', #784, #590 ) ;
#705 = ORIENTED_EDGE ( 'NONE', *, *, #204, .T. ) ;
#706 = DIRECTION ( 'NONE',  ( -0.000000000000000000, -1.000000000000000000, -0.000000000000000000 ) ) ;
#707 = EDGE_CURVE ( 'NONE', #120, #881, #535, .T. ) ;
#708 = CARTESIAN_POINT ( 'NONE',  ( 0.000000000000000000, 40.91905200000000775, 0.000000000000000000 ) ) ;
#709 = EDGE_CURVE ( 'NONE', #297, #71, #18, .T. ) ;
#710 = FACE_OUTER_BOUND ( 'NONE', #598, .T. ) ;
#711 = ORIENTED_EDGE ( 'NONE', *, *, #998, .F. ) ;
#712 = EDGE_CURVE ( 'NONE', #801, #481, #811, .T. ) ;
#713 = VECTOR ( 'NONE', #761, 1000.000000000000000 ) ;
#714 = DIRECTION ( 'NONE',  ( 1.157926297142031871E-16, 0.3255681544572424091, -0.9455185755992873142 ) ) ;
#715 = FACE_OUTER_BOUND ( 'NONE', #273, .T. ) ;
#716 = ORIENTED_EDGE ( 'NONE', *, *, #268, .F. ) ;
#717 = EDGE_CURVE ( 'NONE', #31, #934, #629, .T. ) ;
#718 = DIRECTION ( 'NONE',  ( 0.000000000000000000, 0.000000000000000000, 1.000000000000000000 ) ) ;
#719 = CARTESIAN_POINT ( 'NONE',  ( 0.000000000000000000, -4.999999999998496314, 0.000000000000000000 ) ) ;
#720 = ORIENTED_EDGE ( 'NONE', *, *, #379, .T. ) ;
#721 = VECTOR ( 'NONE', #208, 1000.000000000000000 ) ;
#722 = CARTESIAN_POINT ( 'NONE',  ( 0.000000000000000000, 41.49999949768619700, 0.000000000000000000 ) ) ;
#723 = ORIENTED_EDGE ( 'NONE', *, *, #306, .F. ) ;
#724 = FACE_OUTER_BOUND ( 'NONE', #821, .T. ) ;
#725 = AXIS2_PLACEMENT_3D ( 'NONE', #103, #410, #776 ) ;
#726 = EDGE_CURVE ( 'NONE', #51, #31, #266, .T. ) ;
#727 = AXIS2_PLACEMENT_3D ( 'NONE', #775, #541, #380 ) ;
#728 = DIRECTION ( 'NONE',  ( 0.000000000000000000, 1.000000000000000000, 0.000000000000000000 ) ) ;
#729 = ORIENTED_EDGE ( 'NONE', *, *, #367, .F. ) ;
#730 = CARTESIAN_POINT ( 'NONE',  ( 0.000000000000000000, 48.50000000000000000, 0.000000000000000000 ) ) ;
#731 = ORIENTED_EDGE ( 'NONE', *, *, #993, .F. ) ;
#732 = DIRECTION ( 'NONE',  ( 0.000000000000000000, 0.000000000000000000, -1.000000000000000000 ) ) ;
#733 = VERTEX_POINT ( 'NONE', #852 ) ;
#734 = DIRECTION ( 'NONE',  ( 0.000000000000000000, 1.000000000000000000, 0.000000000000000000 ) ) ;
#735 = ORIENTED_EDGE ( 'NONE', *, *, #726, .F. ) ;
#736 = AXIS2_PLACEMENT_3D ( 'NONE', #807, #439, #205 ) ;
#737 = FACE_OUTER_BOUND ( 'NONE', #20, .T. ) ;
#738 = AXIS2_PLACEMENT_3D ( 'NONE', #326, #257, #401 ) ;
#739 = ADVANCED_FACE ( 'NONE', ( #680 ), #458, .T. ) ;
#740 = CARTESIAN_POINT ( 'NONE',  ( 0.000000000000000000, 10.21394300000000399, 8.000000000000000000 ) ) ;
#741 = ORIENTED_EDGE ( 'NONE', *, *, #551, .F. ) ;
#742 = VECTOR ( 'NONE', #907, 1000.000000000000000 ) ;
#743 = LINE ( 'NONE', #960, #900 ) ;
#744 = ORIENTED_EDGE ( 'NONE', *, *, #836, .F. ) ;
#745 = AXIS2_PLACEMENT_3D ( 'NONE', #803, #93, #184 ) ;
#746 = ADVANCED_FACE ( 'NONE', ( #463 ), #49, .F. ) ;
#747 = CARTESIAN_POINT ( 'NONE',  ( 0.000000000000000000, -4.999999999998496314, 0.000000000000000000 ) ) ;
#748 = CARTESIAN_POINT ( 'NONE',  ( 0.000000000000000000, 48.50000000000000000, 0.000000000000000000 ) ) ;
#749 = ORIENTED_EDGE ( 'NONE', *, *, #52, .T. ) ;
#750 = EDGE_CURVE ( 'NONE', #881, #594, #857, .T. ) ;
#751 = ORIENTED_EDGE ( 'NONE', *, *, #760, .F. ) ;
#752 = ADVANCED_FACE ( 'NONE', ( #76 ), #298, .F. ) ;
#753 = DIRECTION ( 'NONE',  ( 0.000000000000000000, 0.000000000000000000, -1.000000000000000000 ) ) ;
#754 = ORIENTED_EDGE ( 'NONE', *, *, #7, .F. ) ;
#755 = DIRECTION ( 'NONE',  ( 1.000000000000000000, 0.000000000000000000, -1.224646799147353207E-16 ) ) ;
#756 = EDGE_CURVE ( 'NONE', #860, #337, #343, .T. ) ;
#757 = CARTESIAN_POINT ( 'NONE',  ( 0.000000000000000000, 5.643429000000001139, 0.000000000000000000 ) ) ;
#758 = ORIENTED_EDGE ( 'NONE', *, *, #564, .F. ) ;
#759 = CARTESIAN_POINT ( 'NONE',  ( 0.000000000000000000, 33.35566200000000947, 0.000000000000000000 ) ) ;
#760 = EDGE_CURVE ( 'NONE', #209, #65, #646, .T. ) ;
#761 = DIRECTION ( 'NONE',  ( -0.000000000000000000, -1.000000000000000000, -0.000000000000000000 ) ) ;
#762 = ORIENTED_EDGE ( 'NONE', *, *, #476, .T. ) ;
#763 = DIRECTION ( 'NONE',  ( 0.000000000000000000, 0.000000000000000000, 1.000000000000000000 ) ) ;
#764 =( NAMED_UNIT ( * ) PLANE_ANGLE_UNIT ( ) SI_UNIT ( $, .RADIAN. ) );
#765 = CARTESIAN_POINT ( 'NONE',  ( 7.347880794884119736E-16, 5.643429000000001139, -6.000000000000000000 ) ) ;
#766 = DIRECTION ( 'NONE',  ( -0.000000000000000000, -1.000000000000000000, -0.000000000000000000 ) ) ;
#767 = CARTESIAN_POINT ( 'NONE',  ( 0.000000000000000000, 39.00000000000000000, 0.000000000000000000 ) ) ;
#768 = SURFACE_STYLE_USAGE ( .BOTH. , #929 ) ;
#769 = ORIENTED_EDGE ( 'NONE', *, *, #59, .T. ) ;
#770 = ADVANCED_FACE ( 'NONE', ( #483 ), #169, .T. ) ;
#771 = CIRCLE ( 'NONE', #436, 7.879999999999999893 ) ;
#772 = EDGE_CURVE ( 'NONE', #51, #209, #388, .T. ) ;
#773 = CIRCLE ( 'NONE', #903, 4.067157287525378528 ) ;
#774 = AXIS2_PLACEMENT_3D ( 'NONE', #992, #160, #763 ) ;
#775 = CARTESIAN_POINT ( 'NONE',  ( 0.000000000000000000, -4.999999999998496314, 0.000000000000000000 ) ) ;
#776 = DIRECTION ( 'NONE',  ( 0.000000000000000000, 0.000000000000000000, -1.000000000000000000 ) ) ;
#777 = DIRECTION ( 'NONE',  ( 0.000000000000000000, -0.7071067811865526798, -0.7071067811865423547 ) ) ;
#778 = DIRECTION ( 'NONE',  ( 0.000000000000000000, 1.000000000000000000, 0.000000000000000000 ) ) ;
#779 = ORIENTED_EDGE ( 'NONE', *, *, #221, .T. ) ;
#780 = AXIS2_PLACEMENT_3D ( 'NONE', #443, #54, #149 ) ;
#781 = AXIS2_PLACEMENT_3D ( 'NONE', #628, #943, #259 ) ;
#782 = CARTESIAN_POINT ( 'NONE',  ( 0.000000000000000000, 41.49999949768619700, 0.000000000000000000 ) ) ;
#783 = DIRECTION ( 'NONE',  ( 0.000000000000000000, 0.000000000000000000, -1.000000000000000000 ) ) ;
#784 = CARTESIAN_POINT ( 'NONE',  ( 4.898587196589412829E-16, -4.999999999998496314, 4.000000000000000000 ) ) ;
#785 = ORIENTED_EDGE ( 'NONE', *, *, #459, .F. ) ;
#786 = DIRECTION ( 'NONE',  ( 0.000000000000000000, 0.000000000000000000, -1.000000000000000000 ) ) ;
#787 = CARTESIAN_POINT ( 'NONE',  ( 0.000000000000000000, -4.999999999998496314, -8.000000000000000000 ) ) ;
#788 = DIRECTION ( 'NONE',  ( 0.000000000000000000, 1.000000000000000000, 0.000000000000000000 ) ) ;
#789 = EDGE_LOOP ( 'NONE', ( #779, #631, #966, #729 ) ) ;
#790 = LINE ( 'NONE', #413, #236 ) ;
#791 = ADVANCED_FACE ( 'NONE', ( #615 ), #372, .T. ) ;
#792 = FACE_OUTER_BOUND ( 'NONE', #220, .T. ) ;
#793 = ORIENTED_EDGE ( 'NONE', *, *, #915, .T. ) ;
#794 = AXIS2_PLACEMENT_3D ( 'NONE', #833, #926, #138 ) ;
#795 = CARTESIAN_POINT ( 'NONE',  ( 9.797174393178825657E-16, 33.38000000000000256, 8.000000000000000000 ) ) ;
#796 = CARTESIAN_POINT ( 'NONE',  ( 0.000000000000000000, 40.24161999999999750, 0.000000000000000000 ) ) ;
#797 = ORIENTED_EDGE ( 'NONE', *, *, #702, .T. ) ;
#798 = CARTESIAN_POINT ( 'NONE',  ( 5.204748896376250699E-16, 39.00000000000000000, 4.250000000000000000 ) ) ;
#799 = CARTESIAN_POINT ( 'NONE',  ( 0.000000000000000000, 40.24161999999999750, -4.049999999999998046 ) ) ;
#800 = CARTESIAN_POINT ( 'NONE',  ( 0.000000000000000000, 42.00000000000000000, 0.000000000000000000 ) ) ;
#801 = VERTEX_POINT ( 'NONE', #795 ) ;
#802 = EDGE_CURVE ( 'NONE', #939, #934, #520, .T. ) ;
#803 = CARTESIAN_POINT ( 'NONE',  ( 0.000000000000000000, 40.91905200000000775, -4.049999999999998046 ) ) ;
#804 = CIRCLE ( 'NONE', #826, 5.999999999999999112 ) ;
#805 = AXIS2_PLACEMENT_3D ( 'NONE', #509, #275, #119 ) ;
#806 =( GEOMETRIC_REPRESENTATION_CONTEXT ( 3 ) GLOBAL_UNCERTAINTY_ASSIGNED_CONTEXT ( ( #215 ) ) GLOBAL_UNIT_ASSIGNED_CONTEXT ( ( #521, #124, #578 ) ) REPRESENTATION_CONTEXT ( 'NONE', 'WORKASPACE' ) );
#807 = CARTESIAN_POINT ( 'NONE',  ( 0.000000000000000000, 34.50000000000000000, 0.000000000000000000 ) ) ;
#808 = VERTEX_POINT ( 'NONE', #798 ) ;
#809 = EDGE_CURVE ( 'NONE', #669, #471, #405, .T. ) ;
#810 = CARTESIAN_POINT ( 'NONE',  ( 0.000000000000000000, -4.999999999998496314, -6.000000000000000000 ) ) ;
#811 = CIRCLE ( 'NONE', #846, 8.000000000000000000 ) ;
#812 = CONICAL_SURFACE ( 'NONE', #986, 4.000000000000000000, 0.5235988237060776873 ) ;
#813 = DIRECTION ( 'NONE',  ( -0.000000000000000000, -1.000000000000000000, -0.000000000000000000 ) ) ;
#814 = ORIENTED_EDGE ( 'NONE', *, *, #707, .F. ) ;
#815 = CARTESIAN_POINT ( 'NONE',  ( 0.000000000000000000, 995.0000000000015916, 0.000000000000000000 ) ) ;
#816 = DIRECTION ( 'NONE',  ( 0.000000000000000000, 0.000000000000000000, -1.000000000000000000 ) ) ;
#817 = DIRECTION ( 'NONE',  ( 0.000000000000000000, 0.000000000000000000, 1.000000000000000000 ) ) ;
#818 = ORIENTED_EDGE ( 'NONE', *, *, #21, .F. ) ;
#819 = LINE ( 'NONE', #45, #452 ) ;
#820 = DIRECTION ( 'NONE',  ( 0.000000000000000000, 0.000000000000000000, -1.000000000000000000 ) ) ;
#821 = EDGE_LOOP ( 'NONE', ( #930, #486, #58, #723 ) ) ;
#822 = EDGE_CURVE ( 'NONE', #733, #195, #189, .T. ) ;
#823 = AXIS2_PLACEMENT_3D ( 'NONE', #548, #858, #624 ) ;
#824 = CARTESIAN_POINT ( 'NONE',  ( 4.898587196589412829E-16, 48.50000000000000000, 4.000000000000000000 ) ) ;
#825 = ORIENTED_EDGE ( 'NONE', *, *, #207, .T. ) ;
#826 = AXIS2_PLACEMENT_3D ( 'NONE', #177, #180, #557 ) ;
#827 =( GEOMETRIC_REPRESENTATION_CONTEXT ( 3 ) GLOBAL_UNCERTAINTY_ASSIGNED_CONTEXT ( ( #840 ) ) GLOBAL_UNIT_ASSIGNED_CONTEXT ( ( #386, #243, #302 ) ) REPRESENTATION_CONTEXT ( 'NONE', 'WORKASPACE' ) );
#828 = SURFACE_STYLE_USAGE ( .BOTH. , #365 ) ;
#829 = EDGE_LOOP ( 'NONE', ( #288, #671, #78, #507 ) ) ;
#830 = DIRECTION ( 'NONE',  ( 0.000000000000000000, 0.000000000000000000, -1.000000000000000000 ) ) ;
#831 = EDGE_LOOP ( 'NONE', ( #40, #949, #985, #991 ) ) ;
#832 = AXIS2_PLACEMENT_3D ( 'NONE', #546, #6, #235 ) ;
#833 = CARTESIAN_POINT ( 'NONE',  ( 0.000000000000000000, 995.0000000000015916, 0.000000000000000000 ) ) ;
#834 = ORIENTED_EDGE ( 'NONE', *, *, #802, .F. ) ;
#835 = CARTESIAN_POINT ( 'NONE',  ( 0.000000000000000000, 33.50000000000000000, 0.000000000000000000 ) ) ;
#836 = EDGE_CURVE ( 'NONE', #8, #44, #634, .T. ) ;
#837 =( LENGTH_UNIT ( ) NAMED_UNIT ( * ) SI_UNIT ( .MILLI., .METRE. ) );
#838 = DIRECTION ( 'NONE',  ( -0.000000000000000000, -1.000000000000000000, -0.000000000000000000 ) ) ;
#839 = ORIENTED_EDGE ( 'NONE', *, *, #283, .T. ) ;
#840 = UNCERTAINTY_MEASURE_WITH_UNIT (LENGTH_MEASURE( 1.000000000000000082E-05 ), #386, 'distance_accuracy_value', 'NONE');
#841 = CARTESIAN_POINT ( 'NONE',  ( 0.000000000000000000, -4.999999999998496314, 0.000000000000000000 ) ) ;
#842 = AXIS2_PLACEMENT_3D ( 'NONE', #796, #186, #948 ) ;
#843 = PRODUCT_CONTEXT ( 'NONE', #165, 'mechanical' ) ;
#844 = EDGE_CURVE ( 'NONE', #939, #65, #33, .T. ) ;
#845 = DIRECTION ( 'NONE',  ( 0.000000000000000000, -0.8660253797305482726, -0.5000000416625579591 ) ) ;
#846 = AXIS2_PLACEMENT_3D ( 'NONE', #701, #469, #864 ) ;
#847 = DIRECTION ( 'NONE',  ( 0.000000000000000000, 0.000000000000000000, -1.000000000000000000 ) ) ;
#848 = ADVANCED_FACE ( 'NONE', ( #263 ), #188, .F. ) ;
#849 = DIRECTION ( 'NONE',  ( 0.000000000000000000, 0.000000000000000000, -1.000000000000000000 ) ) ;
#850 = VERTEX_POINT ( 'NONE', #396 ) ;
#851 = ORIENTED_EDGE ( 'NONE', *, *, #940, .T. ) ;
#852 = CARTESIAN_POINT ( 'NONE',  ( 4.980831153796786857E-16, 34.31715771247462499, 4.067157287525378528 ) ) ;
#853 = DIRECTION ( 'NONE',  ( 0.000000000000000000, 0.000000000000000000, -1.000000000000000000 ) ) ;
#854 = ADVANCED_FACE ( 'NONE', ( #409 ), #970, .T. ) ;
#855 = FACE_OUTER_BOUND ( 'NONE', #831, .T. ) ;
#856 = ORIENTED_EDGE ( 'NONE', *, *, #809, .T. ) ;
#857 = LINE ( 'NONE', #765, #218 ) ;
#858 = DIRECTION ( 'NONE',  ( 0.000000000000000000, 1.000000000000000000, 0.000000000000000000 ) ) ;
#859 = DIRECTION ( 'NONE',  ( 0.000000000000000000, 0.000000000000000000, -1.000000000000000000 ) ) ;
#860 = VERTEX_POINT ( 'NONE', #271 ) ;
#861 = CIRCLE ( 'NONE', #340, 4.250000000000000000 ) ;
#862 = VECTOR ( 'NONE', #166, 1000.000000000000000 ) ;
#863 = AXIS2_PLACEMENT_3D ( 'NONE', #500, #198, #13 ) ;
#864 = DIRECTION ( 'NONE',  ( 0.000000000000000000, 0.000000000000000000, -1.000000000000000000 ) ) ;
#865 = DIRECTION ( 'NONE',  ( 0.000000000000000000, 0.000000000000000000, -1.000000000000000000 ) ) ;
#866 = DIRECTION ( 'NONE',  ( 0.000000000000000000, 0.000000000000000000, -1.000000000000000000 ) ) ;
#867 = ORIENTED_EDGE ( 'NONE', *, *, #406, .T. ) ;
#868 = EDGE_CURVE ( 'NONE', #282, #850, #663, .T. ) ;
#869 = DIRECTION ( 'NONE',  ( -0.000000000000000000, -1.000000000000000000, -0.000000000000000000 ) ) ;
#870 = VERTEX_POINT ( 'NONE', #345 ) ;
#871 = DIRECTION ( 'NONE',  ( -0.000000000000000000, -1.000000000000000000, -0.000000000000000000 ) ) ;
#872 = APPLICATION_CONTEXT ( 'automotive_design' ) ;
#873 = DIRECTION ( 'NONE',  ( 0.000000000000000000, 0.000000000000000000, -1.000000000000000000 ) ) ;
#874 = ORIENTED_EDGE ( 'NONE', *, *, #207, .F. ) ;
#875 = AXIS2_PLACEMENT_3D ( 'NONE', #748, #64, #753 ) ;
#876 = AXIS2_PLACEMENT_3D ( 'NONE', #503, #403, #179 ) ;
#877 = EDGE_CURVE ( 'NONE', #120, #961, #790, .T. ) ;
#878 = CARTESIAN_POINT ( 'NONE',  ( 0.000000000000000000, 33.35566200000000947, 0.000000000000000000 ) ) ;
#879 = ORIENTED_EDGE ( 'NONE', *, *, #367, .T. ) ;
#880 = CARTESIAN_POINT ( 'NONE',  ( 0.000000000000000000, -4.999999999998496314, 0.000000000000000000 ) ) ;
#881 = VERTEX_POINT ( 'NONE', #267 ) ;
#882 = EDGE_CURVE ( 'NONE', #513, #870, #314, .T. ) ;
#883 = CARTESIAN_POINT ( 'NONE',  ( 0.000000000000000000, 10.21394300000000399, 0.000000000000000000 ) ) ;
#884 = CIRCLE ( 'NONE', #640, 0.4000000000000001887 ) ;
#885 = DIRECTION ( 'NONE',  ( -0.000000000000000000, -1.000000000000000000, -0.000000000000000000 ) ) ;
#886 = ORIENTED_EDGE ( 'NONE', *, *, #582, .F. ) ;
#887 = EDGE_CURVE ( 'NONE', #594, #961, #132, .T. ) ;
#888 = DIRECTION ( 'NONE',  ( -0.000000000000000000, -1.000000000000000000, -0.000000000000000000 ) ) ;
#889 = ORIENTED_EDGE ( 'NONE', *, *, #625, .T. ) ;
#890 = CIRCLE ( 'NONE', #518, 8.000000000000000000 ) ;
#891 = AXIS2_PLACEMENT_3D ( 'NONE', #72, #552, #375 ) ;
#892 = DIRECTION ( 'NONE',  ( 0.000000000000000000, 0.000000000000000000, -1.000000000000000000 ) ) ;
#893 = EDGE_LOOP ( 'NONE', ( #711, #181, #720, #571 ) ) ;
#894 = CYLINDRICAL_SURFACE ( 'NONE', #953, 4.000000000000000000 ) ;
#895 = DIRECTION ( 'NONE',  ( -0.000000000000000000, -1.000000000000000000, -0.000000000000000000 ) ) ;
#896 = ORIENTED_EDGE ( 'NONE', *, *, #446, .F. ) ;
#897 = SURFACE_STYLE_FILL_AREA ( #668 ) ;
#898 = EDGE_LOOP ( 'NONE', ( #716, #705, #1002, #178 ) ) ;
#899 = ADVANCED_FACE ( 'NONE', ( #724 ), #568, .T. ) ;
#900 = VECTOR ( 'NONE', #272, 1000.000000000000000 ) ;
#901 = AXIS2_PLACEMENT_3D ( 'NONE', #767, #94, #320 ) ;
#902 = CARTESIAN_POINT ( 'NONE',  ( 0.000000000000000000, 39.00000000000000000, -4.250000000000000000 ) ) ;
#903 = AXIS2_PLACEMENT_3D ( 'NONE', #618, #336, #933 ) ;
#904 = CARTESIAN_POINT ( 'NONE',  ( 0.000000000000000000, 40.91905200000000775, -3.249999999999998224 ) ) ;
#905 = EDGE_LOOP ( 'NONE', ( #980, #474 ) ) ;
#906 = AXIS2_PLACEMENT_3D ( 'NONE', #491, #956, #718 ) ;
#907 = DIRECTION ( 'NONE',  ( 8.659560562354869996E-17, -0.7071067811865526798, 0.7071067811865423547 ) ) ;
#908 = VERTEX_POINT ( 'NONE', #193 ) ;
#909 = EDGE_CURVE ( 'NONE', #540, #187, #68, .T. ) ;
#910 = CARTESIAN_POINT ( 'NONE',  ( 0.000000000000000000, 34.50000000000000000, 4.250000000000000000 ) ) ;
#911 = DIRECTION ( 'NONE',  ( 8.659559263123073087E-17, -0.7071068872768641045, 0.7071066750962150538 ) ) ;
#912 = ORIENTED_EDGE ( 'NONE', *, *, #576, .F. ) ;
#913 = CARTESIAN_POINT ( 'NONE',  ( 0.000000000000000000, 10.21394300000000399, 0.000000000000000000 ) ) ;
#914 = ORIENTED_EDGE ( 'NONE', *, *, #379, .F. ) ;
#915 = EDGE_CURVE ( 'NONE', #8, #431, #650, .T. ) ;
#916 = DIRECTION ( 'NONE',  ( 0.000000000000000000, -0.000000000000000000, 1.000000000000000000 ) ) ;
#917 = AXIS2_PLACEMENT_3D ( 'NONE', #151, #595, #916 ) ;
#918 = CARTESIAN_POINT ( 'NONE',  ( 0.000000000000000000, 33.35566200000000947, 4.250000000000000000 ) ) ;
#919 = EDGE_CURVE ( 'NONE', #939, #51, #942, .T. ) ;
#920 = CARTESIAN_POINT ( 'NONE',  ( 0.000000000000000000, 33.50000000000000000, 0.000000000000000000 ) ) ;
#921 = DIRECTION ( 'NONE',  ( 0.000000000000000000, 1.000000000000000000, 0.000000000000000000 ) ) ;
#922 = CARTESIAN_POINT ( 'NONE',  ( 3.980102097228895766E-16, 40.91905200000000775, 3.249999999999998224 ) ) ;
#923 = CARTESIAN_POINT ( 'NONE',  ( 4.286263795724173585E-16, 40.24161999999999750, 3.249999999999999112 ) ) ;
#924 = CARTESIAN_POINT ( 'NONE',  ( 0.000000000000000000, 40.24161999999999750, 0.000000000000000000 ) ) ;
#925 = ADVANCED_FACE ( 'NONE', ( #559 ), #812, .T. ) ;
#926 = DIRECTION ( 'NONE',  ( 0.000000000000000000, 1.000000000000000000, 0.000000000000000000 ) ) ;
#927 = ORIENTED_EDGE ( 'NONE', *, *, #952, .F. ) ;
#928 = PRODUCT_DEFINITION_CONTEXT ( 'detailed design', #872, 'design' ) ;
#929 = SURFACE_SIDE_STYLE ('',( #80 ) ) ;
#930 = ORIENTED_EDGE ( 'NONE', *, *, #373, .F. ) ;
#931 = CARTESIAN_POINT ( 'NONE',  ( 0.000000000000000000, 48.50000000000000000, 0.000000000000000000 ) ) ;
#932 = DIRECTION ( 'NONE',  ( 0.000000000000000000, 0.7071071332052729641, 0.7071064291676468772 ) ) ;
#933 = DIRECTION ( 'NONE',  ( 0.000000000000000000, 0.000000000000000000, -1.000000000000000000 ) ) ;
#934 = VERTEX_POINT ( 'NONE', #447 ) ;
#935 = VECTOR ( 'NONE', #15, 1000.000000000000114 ) ;
#936 = CARTESIAN_POINT ( 'NONE',  ( 0.000000000000000000, 33.52886708075568123, 0.000000000000000000 ) ) ;
#937 = DIRECTION ( 'NONE',  ( -0.000000000000000000, -1.000000000000000000, -0.000000000000000000 ) ) ;
#938 = DIRECTION ( 'NONE',  ( -0.000000000000000000, -1.000000000000000000, -0.000000000000000000 ) ) ;
#939 = VERTEX_POINT ( 'NONE', #904 ) ;
#940 = EDGE_CURVE ( 'NONE', #870, #808, #963, .T. ) ;
#941 = AXIS2_PLACEMENT_3D ( 'NONE', #89, #477, #847 ) ;
#942 = CIRCLE ( 'NONE', #781, 3.249999999999998224 ) ;
#943 = DIRECTION ( 'NONE',  ( -0.000000000000000000, -1.000000000000000000, -0.000000000000000000 ) ) ;
#944 = DIRECTION ( 'NONE',  ( 0.000000000000000000, 0.000000000000000000, -1.000000000000000000 ) ) ;
#945 = ORIENTED_EDGE ( 'NONE', *, *, #909, .F. ) ;
#946 = EDGE_CURVE ( 'NONE', #337, #860, #117, .T. ) ;
#947 = CARTESIAN_POINT ( 'NONE',  ( 0.000000000000000000, 39.50000015214367721, 0.000000000000000000 ) ) ;
#948 = DIRECTION ( 'NONE',  ( 0.000000000000000000, 0.000000000000000000, -1.000000000000000000 ) ) ;
#949 = ORIENTED_EDGE ( 'NONE', *, *, #717, .F. ) ;
#950 = CARTESIAN_POINT ( 'NONE',  ( 0.000000000000000000, -4.999999999998496314, 0.000000000000000000 ) ) ;
#951 = TOROIDAL_SURFACE ( 'NONE', #470, 4.349999999999997868, 0.4000000000000003553 ) ;
#952 = EDGE_CURVE ( 'NONE', #695, #850, #34, .T. ) ;
#953 = AXIS2_PLACEMENT_3D ( 'NONE', #747, #653, #37 ) ;
#954 = CARTESIAN_POINT ( 'NONE',  ( 0.000000000000000000, 34.03431499999999943, 0.000000000000000000 ) ) ;
#955 = VERTEX_POINT ( 'NONE', #674 ) ;
#956 = DIRECTION ( 'NONE',  ( 0.000000000000000000, 1.000000000000000000, 0.000000000000000000 ) ) ;
#957 = ADVANCED_FACE ( 'NONE', ( #968 ), #583, .T. ) ;
#958 = ORIENTED_EDGE ( 'NONE', *, *, #519, .F. ) ;
#959 = DIRECTION ( 'NONE',  ( 0.000000000000000000, 0.000000000000000000, 1.000000000000000000 ) ) ;
#960 = CARTESIAN_POINT ( 'NONE',  ( 0.000000000000000000, -4.999999999998496314, -4.250000000000000000 ) ) ;
#961 = VERTEX_POINT ( 'NONE', #740 ) ;
#962 = AXIS2_PLACEMENT_3D ( 'NONE', #213, #428, #732 ) ;
#963 = LINE ( 'NONE', #130, #344 ) ;
#964 = VECTOR ( 'NONE', #232, 1000.000000000000000 ) ;
#965 = DIRECTION ( 'NONE',  ( -0.000000000000000000, -1.000000000000000000, -0.000000000000000000 ) ) ;
#966 = ORIENTED_EDGE ( 'NONE', *, *, #163, .F. ) ;
#967 = ADVANCED_FACE ( 'NONE', ( #57 ), #12, .T. ) ;
#968 = FACE_OUTER_BOUND ( 'NONE', #619, .T. ) ;
#969 = VECTOR ( 'NONE', #845, 1000.000000000000000 ) ;
#970 = CONICAL_SURFACE ( 'NONE', #876, 6.000000000000000000, 0.4124839195095327815 ) ;
#971 = LINE ( 'NONE', #651, #721 ) ;
#972 = VERTEX_POINT ( 'NONE', #217 ) ;
#973 = DIRECTION ( 'NONE',  ( -0.000000000000000000, -1.000000000000000000, -0.000000000000000000 ) ) ;
#974 = ORIENTED_EDGE ( 'NONE', *, *, #172, .T. ) ;
#975 = CYLINDRICAL_SURFACE ( 'NONE', #623, 4.000000000000000000 ) ;
#976 = ORIENTED_EDGE ( 'NONE', *, *, #750, .T. ) ;
#977 = ADVANCED_FACE ( 'NONE', ( #592 ), #894, .T. ) ;
#978 = CIRCLE ( 'NONE', #545, 3.949999999999997957 ) ;
#979 = AXIS2_PLACEMENT_3D ( 'NONE', #532, #150, #703 ) ;
#980 = ORIENTED_EDGE ( 'NONE', *, *, #163, .T. ) ;
#981 = CYLINDRICAL_SURFACE ( 'NONE', #250, 8.000000000000000000 ) ;
#982 = CARTESIAN_POINT ( 'NONE',  ( 0.000000000000000000, 48.50000000000000000, 0.000000000000000000 ) ) ;
#983 = ORIENTED_EDGE ( 'NONE', *, *, #476, .F. ) ;
#984 = FACE_OUTER_BOUND ( 'NONE', #224, .T. ) ;
#985 = ORIENTED_EDGE ( 'NONE', *, *, #88, .T. ) ;
#986 = AXIS2_PLACEMENT_3D ( 'NONE', #982, #888, #137 ) ;
#987 = DIRECTION ( 'NONE',  ( -0.000000000000000000, -1.000000000000000000, -0.000000000000000000 ) ) ;
#988 =( NAMED_UNIT ( * ) SI_UNIT ( $, .STERADIAN. ) SOLID_ANGLE_UNIT ( ) );
#989 = DIRECTION ( 'NONE',  ( 0.000000000000000000, 0.000000000000000000, -1.000000000000000000 ) ) ;
#990 = CARTESIAN_POINT ( 'NONE',  ( 0.000000000000000000, 33.52886708075568123, 0.000000000000000000 ) ) ;
#991 = ORIENTED_EDGE ( 'NONE', *, *, #234, .T. ) ;
#992 = CARTESIAN_POINT ( 'NONE',  ( 0.000000000000000000, 41.49999949768619700, 0.000000000000000000 ) ) ;
#993 = EDGE_CURVE ( 'NONE', #881, #431, #53, .T. ) ;
#994 = CARTESIAN_POINT ( 'NONE',  ( 0.000000000000000000, 34.03431499999999943, 0.000000000000000000 ) ) ;
#995 = ORIENTED_EDGE ( 'NONE', *, *, #564, .T. ) ;
#996 = VECTOR ( 'NONE', #932, 1000.000000000000000 ) ;
#997 = CARTESIAN_POINT ( 'NONE',  ( 0.000000000000000000, 34.03431499999999943, -4.349999999999997868 ) ) ;
#998 = EDGE_CURVE ( 'NONE', #934, #31, #420, .T. ) ;
#999 = DIRECTION ( 'NONE',  ( -0.000000000000000000, -1.000000000000000000, -0.000000000000000000 ) ) ;
#1000 = CARTESIAN_POINT ( 'NONE',  ( 0.000000000000000000, 33.38000000000000256, 0.000000000000000000 ) ) ;
#1001 = ORIENTED_EDGE ( 'NONE', *, *, #576, .T. ) ;
#1002 = ORIENTED_EDGE ( 'NONE', *, *, #760, .T. ) ;
ENDSEC;
END-ISO-10303-21;
