ISO-10303-21;
HEADER;
FILE_DESCRIPTION (( 'STEP AP214' ),
    '1' );
FILE_NAME ('99688-SI10-10+S9MT1003-120.STEP',
    '2022-11-03T01:07:28',
    ( 'User' ),
    ( 'GENUINE' ),
    'SwSTEP 2.0',
    'SolidWorks 2012',
    '' );
FILE_SCHEMA (( 'AUTOMOTIVE_DESIGN' ));
ENDSEC;

DATA;
#1 = PRODUCT ( '99688-SI10-10+S9MT1003-120', '99688-SI10-10+S9MT1003-120', '', ( #356 ) ) ;
#2 = CARTESIAN_POINT ( 'NONE',  ( -1.790567694115450900E-013, 34.99999999999998600, 0.0000000000000000000 ) ) ;
#3 = DIRECTION ( 'NONE',  ( -1.000000000000000000, -4.956352788507702000E-015, 0.0000000000000000000 ) ) ;
#4 = DIRECTION ( 'NONE',  ( -5.115907697472721100E-015, 1.000000000000000000, -0.0000000000000000000 ) ) ;
#5 = CARTESIAN_POINT ( 'NONE',  ( -1.790567694115447600E-013, 34.99999999999991500, 0.0000000000000000000 ) ) ;
#6 = DIRECTION ( 'NONE',  ( -1.000000000000000000, -5.236901059555494400E-015, 0.0000000000000000000 ) ) ;
#7 = DIRECTION ( 'NONE',  ( -5.115907697472721100E-015, 1.000000000000000000, -0.0000000000000000000 ) ) ;
#8 = CARTESIAN_POINT ( 'NONE',  ( -1.781706682056592400E-013, 34.82679491924302800, 0.0000000000000000000 ) ) ;
#9 = DIRECTION ( 'NONE',  ( -1.000000000000000000, -5.551115123128828500E-015, 0.0000000000000000000 ) ) ;
#10 = DIRECTION ( 'NONE',  ( -5.115907697472721100E-015, 1.000000000000000000, -0.0000000000000000000 ) ) ;
#11 = CARTESIAN_POINT ( 'NONE',  ( -3.826698957709594700E-013, 74.79999999999999700, 0.0000000000000000000 ) ) ;
#12 = DIRECTION ( 'NONE',  ( -1.000000000000000000, -5.782411586592647600E-015, 0.0000000000000000000 ) ) ;
#13 = DIRECTION ( 'NONE',  ( -5.115907697472721100E-015, 1.000000000000000000, -0.0000000000000000000 ) ) ;
#14 = CARTESIAN_POINT ( 'NONE',  ( -3.836930773104539000E-013, 74.99999999999997200, 0.0000000000000000000 ) ) ;
#15 = DIRECTION ( 'NONE',  ( 1.000000000000000000, 5.337610695312546100E-015, 0.0000000000000000000 ) ) ;
#16 = DIRECTION ( 'NONE',  ( 5.115907697472721100E-015, -1.000000000000000000, 0.0000000000000000000 ) ) ;
#17 = UNCERTAINTY_MEASURE_WITH_UNIT (LENGTH_MEASURE( 1.000000000000000100E-005 ), #316, 'distance_accuracy_value', 'NONE');
#18 = DIRECTION ( 'NONE',  ( -5.115907697472721100E-015, 1.000000000000000000, -0.0000000000000000000 ) ) ;
#19 = AXIS2_PLACEMENT_3D ( 'NONE', #370, #369, #368 ) ;
#20 = VECTOR ( 'NONE', #247, 1000.000000000000000 ) ;
#21 = AXIS2_PLACEMENT_3D ( 'NONE', #364, #363, #362 ) ;
#22 = AXIS2_PLACEMENT_3D ( 'NONE', #266, #270, #271 ) ;
#23 = CYLINDRICAL_SURFACE ( 'NONE', #39, 5.000000000003295100 ) ;
#24 = PRODUCT_DEFINITION_FORMATION_WITH_SPECIFIED_SOURCE ( 'ANY', '', #1, .NOT_KNOWN. ) ;
#25 = FACE_OUTER_BOUND ( 'NONE', #409, .T. ) ;
#26 = AXIS2_PLACEMENT_3D ( 'NONE', #352, #353, #354 ) ;
#27 = VECTOR ( 'NONE', #241, 1000.000000000000000 ) ;
#28 = FACE_OUTER_BOUND ( 'NONE', #419, .T. ) ;
#29 = MECHANICAL_DESIGN_GEOMETRIC_PRESENTATION_REPRESENTATION (  '', ( #32 ), #84 ) ;
#30 = AXIS2_PLACEMENT_3D ( 'NONE', #373, #372, #371 ) ;
#31 = PRESENTATION_LAYER_ASSIGNMENT (  '', '', ( #32 ) ) ;
#32 = STYLED_ITEM ( 'NONE', ( #348 ), #79 ) ;
#33 = VECTOR ( 'NONE', #238, 1000.000000000000100 ) ;
#34 = AXIS2_PLACEMENT_3D ( 'NONE', #229, #242, #243 ) ;
#35 = VECTOR ( 'NONE', #235, 1000.000000000000000 ) ;
#36 = MECHANICAL_DESIGN_GEOMETRIC_PRESENTATION_REPRESENTATION (  '', ( #41 ), #82 ) ;
#37 = VECTOR ( 'NONE', #232, 1000.000000000000000 ) ;
#38 = VECTOR ( 'NONE', #309, 999.9999999999998900 ) ;
#39 = AXIS2_PLACEMENT_3D ( 'NONE', #376, #375, #374 ) ;
#40 = PRESENTATION_LAYER_ASSIGNMENT (  '', '', ( #41 ) ) ;
#41 = STYLED_ITEM ( 'NONE', ( #315 ), #385 ) ;
#42 = VECTOR ( 'NONE', #296, 1000.000000000000000 ) ;
#43 = FACE_OUTER_BOUND ( 'NONE', #408, .T. ) ;
#44 = FACE_OUTER_BOUND ( 'NONE', #410, .T. ) ;
#45 = AXIS2_PLACEMENT_3D ( 'NONE', #293, #297, #298 ) ;
#46 = AXIS2_PLACEMENT_3D ( 'NONE', #290, #291, #292 ) ;
#47 = VECTOR ( 'NONE', #284, 1000.000000000000000 ) ;
#48 = AXIS2_PLACEMENT_3D ( 'NONE', #303, #304, #305 ) ;
#49 = VECTOR ( 'NONE', #281, 1000.000000000000100 ) ;
#50 = AXIS2_PLACEMENT_3D ( 'NONE', #278, #285, #286 ) ;
#51 = VECTOR ( 'NONE', #275, 1000.000000000000100 ) ;
#52 = AXIS2_PLACEMENT_3D ( 'NONE', #287, #288, #289 ) ;
#53 = AXIS2_PLACEMENT_3D ( 'NONE', #272, #276, #277 ) ;
#54 = VECTOR ( 'NONE', #269, 1000.000000000000100 ) ;
#55 = VECTOR ( 'NONE', #263, 1000.000000000000100 ) ;
#56 = AXIS2_PLACEMENT_3D ( 'NONE', #257, #264, #265 ) ;
#57 = VECTOR ( 'NONE', #260, 1000.000000000000100 ) ;
#58 = AXIS2_PLACEMENT_3D ( 'NONE', #226, #227, #228 ) ;
#59 = AXIS2_PLACEMENT_3D ( 'NONE', #251, #252, #253 ) ;
#60 = VECTOR ( 'NONE', #250, 1000.000000000000000 ) ;
#61 = AXIS2_PLACEMENT_3D ( 'NONE', #220, #221, #222 ) ;
#62 = AXIS2_PLACEMENT_3D ( 'NONE', #367, #366, #365 ) ;
#63 = CYLINDRICAL_SURFACE ( 'NONE', #62, 5.000000000003295100 ) ;
#64 = FACE_OUTER_BOUND ( 'NONE', #412, .T. ) ;
#65 = AXIS2_PLACEMENT_3D ( 'NONE', #217, #218, #219 ) ;
#66 = AXIS2_PLACEMENT_3D ( 'NONE', #2, #18, #302 ) ;
#67 = AXIS2_PLACEMENT_3D ( 'NONE', #5, #4, #3 ) ;
#68 = AXIS2_PLACEMENT_3D ( 'NONE', #299, #300, #301 ) ;
#69 = FACE_OUTER_BOUND ( 'NONE', #411, .T. ) ;
#70 = CYLINDRICAL_SURFACE ( 'NONE', #74, 6.500000000000806500 ) ;
#71 = AXIS2_PLACEMENT_3D ( 'NONE', #223, #224, #225 ) ;
#72 = AXIS2_PLACEMENT_3D ( 'NONE', #8, #7, #6 ) ;
#73 = AXIS2_PLACEMENT_3D ( 'NONE', #11, #10, #9 ) ;
#74 = AXIS2_PLACEMENT_3D ( 'NONE', #361, #360, #359 ) ;
#75 = AXIS2_PLACEMENT_3D ( 'NONE', #254, #255, #256 ) ;
#76 = AXIS2_PLACEMENT_3D ( 'NONE', #358, #16, #15 ) ;
#77 = APPLICATION_CONTEXT ( 'automotive_design' ) ;
#78 = APPLICATION_CONTEXT ( 'automotive_design' ) ;
#79 = ADVANCED_BREP_SHAPE_REPRESENTATION ( '99688-SI10-10+S9MT1003-120', ( #385, #26 ), #83 ) ;
#80 = UNCERTAINTY_MEASURE_WITH_UNIT (LENGTH_MEASURE( 1.000000000000000100E-005 ), #339, 'distance_accuracy_value', 'NONE');
#81 = UNCERTAINTY_MEASURE_WITH_UNIT (LENGTH_MEASURE( 1.000000000000000100E-005 ), #349, 'distance_accuracy_value', 'NONE');
#82 =( GEOMETRIC_REPRESENTATION_CONTEXT ( 3 ) GLOBAL_UNCERTAINTY_ASSIGNED_CONTEXT ( ( #17 ) ) GLOBAL_UNIT_ASSIGNED_CONTEXT ( ( #316, #317, #318 ) ) REPRESENTATION_CONTEXT ( 'NONE', 'WORKASPACE' ) );
#83 =( GEOMETRIC_REPRESENTATION_CONTEXT ( 3 ) GLOBAL_UNCERTAINTY_ASSIGNED_CONTEXT ( ( #80 ) ) GLOBAL_UNIT_ASSIGNED_CONTEXT ( ( #339, #340, #341 ) ) REPRESENTATION_CONTEXT ( 'NONE', 'WORKASPACE' ) );
#84 =( GEOMETRIC_REPRESENTATION_CONTEXT ( 3 ) GLOBAL_UNCERTAINTY_ASSIGNED_CONTEXT ( ( #81 ) ) GLOBAL_UNIT_ASSIGNED_CONTEXT ( ( #349, #350, #351 ) ) REPRESENTATION_CONTEXT ( 'NONE', 'WORKASPACE' ) );
#85 = EDGE_CURVE ( 'NONE', #481, #483, #397, .T. ) ;
#86 = CIRCLE ( 'NONE', #204, 6.500000000000751400 ) ;
#87 = EDGE_CURVE ( 'NONE', #481, #480, #86, .T. ) ;
#88 = PRODUCT_DEFINITION ( 'UNKNOWN', '', #24, #386 ) ;
#89 = COLOUR_RGB ( '',0.7921568627450980000, 0.8196078431372548800, 0.9333333333333333500 ) ;
#90 = PRODUCT_RELATED_PRODUCT_CATEGORY ( 'part', '', ( #1 ) ) ;
#91 = COLOUR_RGB ( '',0.7921568627450980000, 0.8196078431372548800, 0.9333333333333333500 ) ;
#92 = CIRCLE ( 'NONE', #48, 6.500000000000859800 ) ;
#93 = CIRCLE ( 'NONE', #68, 5.299999999997096400 ) ;
#94 = CIRCLE ( 'NONE', #45, 0.1999999999999970700 ) ;
#95 = CIRCLE ( 'NONE', #46, 4.999999999997109000 ) ;
#96 = CIRCLE ( 'NONE', #52, 0.1999999999999970700 ) ;
#97 = CIRCLE ( 'NONE', #50, 4.799999999997268700 ) ;
#98 = CIRCLE ( 'NONE', #53, 4.999999999997256400 ) ;
#99 = CIRCLE ( 'NONE', #22, 4.999999999997109000 ) ;
#100 = CIRCLE ( 'NONE', #75, 5.599999999997131700 ) ;
#101 = CIRCLE ( 'NONE', #56, 6.400000000000824600 ) ;
#102 = CIRCLE ( 'NONE', #34, 5.000000000001875800 ) ;
#103 = CIRCLE ( 'NONE', #58, 5.000000000001875800 ) ;
#104 = CIRCLE ( 'NONE', #71, 5.000000000004713600 ) ;
#105 = CIRCLE ( 'NONE', #61, 6.500000000000751400 ) ;
#106 = CIRCLE ( 'NONE', #65, 6.500000000000859800 ) ;
#107 = CIRCLE ( 'NONE', #66, 6.400000000000824600 ) ;
#108 = CIRCLE ( 'NONE', #67, 5.599999999997131700 ) ;
#109 = CIRCLE ( 'NONE', #72, 5.299999999997096400 ) ;
#110 = CIRCLE ( 'NONE', #73, 4.999999999997256400 ) ;
#111 = CONICAL_SURFACE ( 'NONE', #76, 6.500000000000860600, 0.7853981633974439500 ) ;
#112 = CONICAL_SURFACE ( 'NONE', #21, 5.000000000004714500, 0.4205343352832923200 ) ;
#113 = CIRCLE ( 'NONE', #194, 4.799999999997268700 ) ;
#114 = CONICAL_SURFACE ( 'NONE', #30, 1732.050807568105900, 1.047197551196404900 ) ;
#115 = CONICAL_SURFACE ( 'NONE', #189, 5.000000000004714500, 0.4205343352832923200 ) ;
#116 = CONICAL_SURFACE ( 'NONE', #19, 1732.050807568105900, 1.047197551196404900 ) ;
#117 = TOROIDAL_SURFACE ( 'NONE', #193, 5.199999999997110000, 0.1999999999999973700 ) ;
#118 = CONICAL_SURFACE ( 'NONE', #191, 5.599999999997131700, 1.047197551196660700 ) ;
#119 = CONICAL_SURFACE ( 'NONE', #195, 4.999999999997256400, 0.7853981633974743700 ) ;
#120 = CONICAL_SURFACE ( 'NONE', #187, 6.500000000000860600, 0.7853981633974439500 ) ;
#121 = TOROIDAL_SURFACE ( 'NONE', #210, 5.199999999997110000, 0.1999999999999973700 ) ;
#122 = CIRCLE ( 'NONE', #211, 5.000000000004713600 ) ;
#123 = CONICAL_SURFACE ( 'NONE', #212, 5.599999999997131700, 1.047197551196660700 ) ;
#124 = CONICAL_SURFACE ( 'NONE', #205, 4.999999999997256400, 0.7853981633974743700 ) ;
#125 = ADVANCED_FACE ( 'NONE', ( #214, #215 ), #391, .F. ) ;
#126 = ADVANCED_FACE ( 'NONE', ( #216 ), #123, .F. ) ;
#127 = ADVANCED_FACE ( 'NONE', ( #181 ), #121, .F. ) ;
#128 = ADVANCED_FACE ( 'NONE', ( #213 ), #208, .T. ) ;
#129 = ADVANCED_FACE ( 'NONE', ( #190 ), #124, .T. ) ;
#130 = EDGE_CURVE ( 'NONE', #479, #478, #122, .T. ) ;
#131 = EDGE_CURVE ( 'NONE', #478, #480, #530, .T. ) ;
#132 = ADVANCED_FACE ( 'NONE', ( #203 ), #199, .T. ) ;
#133 = ADVANCED_FACE ( 'NONE', ( #201 ), #119, .T. ) ;
#134 = ADVANCED_FACE ( 'NONE', ( #196 ), #117, .F. ) ;
#135 = ADVANCED_FACE ( 'NONE', ( #197 ), #118, .F. ) ;
#136 = ADVANCED_FACE ( 'NONE', ( #192 ), #120, .T. ) ;
#137 = ADVANCED_FACE ( 'NONE', ( #188 ), #184, .T. ) ;
#138 = ADVANCED_FACE ( 'NONE', ( #202 ), #115, .T. ) ;
#139 = ADVANCED_FACE ( 'NONE', ( #182 ), #23, .T. ) ;
#140 = ADVANCED_FACE ( 'NONE', ( #183 ), #114, .T. ) ;
#141 = ADVANCED_FACE ( 'NONE', ( #43 ), #116, .T. ) ;
#142 = ADVANCED_FACE ( 'NONE', ( #25 ), #63, .T. ) ;
#143 = ADVANCED_FACE ( 'NONE', ( #44 ), #112, .T. ) ;
#144 = ADVANCED_FACE ( 'NONE', ( #69 ), #70, .T. ) ;
#145 = ADVANCED_FACE ( 'NONE', ( #64 ), #111, .T. ) ;
#146 = EDGE_CURVE ( 'NONE', #511, #421, #113, .T. ) ;
#147 = EDGE_CURVE ( 'NONE', #423, #512, #110, .T. ) ;
#148 = EDGE_CURVE ( 'NONE', #488, #489, #109, .T. ) ;
#149 = EDGE_CURVE ( 'NONE', #486, #487, #108, .T. ) ;
#150 = EDGE_CURVE ( 'NONE', #484, #485, #107, .T. ) ;
#151 = EDGE_CURVE ( 'NONE', #482, #483, #106, .T. ) ;
#152 = EDGE_CURVE ( 'NONE', #480, #481, #105, .T. ) ;
#153 = EDGE_CURVE ( 'NONE', #478, #479, #104, .T. ) ;
#154 = EDGE_CURVE ( 'NONE', #476, #477, #103, .T. ) ;
#155 = EDGE_CURVE ( 'NONE', #475, #477, #230, .T. ) ;
#156 = EDGE_CURVE ( 'NONE', #480, #482, #233, .T. ) ;
#157 = EDGE_CURVE ( 'NONE', #475, #476, #236, .T. ) ;
#158 = EDGE_CURVE ( 'NONE', #477, #479, #239, .T. ) ;
#159 = EDGE_CURVE ( 'NONE', #477, #476, #102, .T. ) ;
#160 = EDGE_CURVE ( 'NONE', #476, #478, #245, .T. ) ;
#161 = EDGE_CURVE ( 'NONE', #479, #481, #248, .T. ) ;
#162 = ADVANCED_FACE ( 'NONE', ( #28 ), #244, .F. ) ;
#163 = EDGE_CURVE ( 'NONE', #487, #486, #100, .T. ) ;
#164 = EDGE_CURVE ( 'NONE', #488, #486, #258, .T. ) ;
#165 = EDGE_CURVE ( 'NONE', #485, #483, #261, .T. ) ;
#166 = EDGE_CURVE ( 'NONE', #485, #484, #101, .T. ) ;
#167 = EDGE_CURVE ( 'NONE', #489, #487, #267, .T. ) ;
#168 = EDGE_CURVE ( 'NONE', #510, #422, #99, .T. ) ;
#169 = EDGE_CURVE ( 'NONE', #511, #423, #273, .T. ) ;
#170 = EDGE_CURVE ( 'NONE', #512, #423, #98, .T. ) ;
#171 = EDGE_CURVE ( 'NONE', #421, #512, #279, .T. ) ;
#172 = EDGE_CURVE ( 'NONE', #422, #423, #282, .T. ) ;
#173 = EDGE_CURVE ( 'NONE', #421, #511, #97, .T. ) ;
#174 = EDGE_CURVE ( 'NONE', #422, #489, #96, .T. ) ;
#175 = EDGE_CURVE ( 'NONE', #422, #510, #95, .T. ) ;
#176 = EDGE_CURVE ( 'NONE', #510, #512, #294, .T. ) ;
#177 = EDGE_CURVE ( 'NONE', #510, #488, #94, .T. ) ;
#178 = EDGE_CURVE ( 'NONE', #489, #488, #93, .T. ) ;
#179 = EDGE_CURVE ( 'NONE', #483, #482, #92, .T. ) ;
#180 = EDGE_CURVE ( 'NONE', #484, #482, #307, .T. ) ;
#181 = FACE_OUTER_BOUND ( 'NONE', #416, .T. ) ;
#182 = FACE_OUTER_BOUND ( 'NONE', #406, .T. ) ;
#183 = FACE_OUTER_BOUND ( 'NONE', #407, .T. ) ;
#184 = CYLINDRICAL_SURFACE ( 'NONE', #186, 6.500000000000806500 ) ;
#185 = CLOSED_SHELL ( 'NONE', ( #133, #132, #134, #135, #136, #137, #138, #139, #140, #141, #142, #143, #144, #145, #125, #126, #127, #128, #129, #162 ) ) ;
#186 = AXIS2_PLACEMENT_3D ( 'NONE', #382, #381, #380 ) ;
#187 = AXIS2_PLACEMENT_3D ( 'NONE', #516, #384, #383 ) ;
#188 = FACE_OUTER_BOUND ( 'NONE', #404, .T. ) ;
#189 = AXIS2_PLACEMENT_3D ( 'NONE', #379, #378, #377 ) ;
#190 = FACE_OUTER_BOUND ( 'NONE', #418, .T. ) ;
#191 = AXIS2_PLACEMENT_3D ( 'NONE', #519, #518, #517 ) ;
#192 = FACE_OUTER_BOUND ( 'NONE', #403, .T. ) ;
#193 = AXIS2_PLACEMENT_3D ( 'NONE', #522, #521, #520 ) ;
#194 = AXIS2_PLACEMENT_3D ( 'NONE', #14, #13, #12 ) ;
#195 = AXIS2_PLACEMENT_3D ( 'NONE', #525, #524, #523 ) ;
#196 = FACE_OUTER_BOUND ( 'NONE', #401, .T. ) ;
#197 = FACE_OUTER_BOUND ( 'NONE', #402, .T. ) ;
#198 = VECTOR ( 'NONE', #395, 1000.000000000000000 ) ;
#199 = CYLINDRICAL_SURFACE ( 'NONE', #207, 4.999999999997182700 ) ;
#200 = VECTOR ( 'NONE', #528, 1000.000000000000100 ) ;
#201 = FACE_OUTER_BOUND ( 'NONE', #399, .T. ) ;
#202 = FACE_OUTER_BOUND ( 'NONE', #405, .T. ) ;
#203 = FACE_OUTER_BOUND ( 'NONE', #400, .T. ) ;
#204 = AXIS2_PLACEMENT_3D ( 'NONE', #394, #393, #392 ) ;
#205 = AXIS2_PLACEMENT_3D ( 'NONE', #537, #536, #535 ) ;
#206 = AXIS2_PLACEMENT_3D ( 'NONE', #390, #389, #388 ) ;
#207 = AXIS2_PLACEMENT_3D ( 'NONE', #531, #527, #526 ) ;
#208 = CYLINDRICAL_SURFACE ( 'NONE', #209, 4.999999999997182700 ) ;
#209 = AXIS2_PLACEMENT_3D ( 'NONE', #540, #539, #538 ) ;
#210 = AXIS2_PLACEMENT_3D ( 'NONE', #543, #542, #541 ) ;
#211 = AXIS2_PLACEMENT_3D ( 'NONE', #534, #533, #532 ) ;
#212 = AXIS2_PLACEMENT_3D ( 'NONE', #546, #545, #544 ) ;
#213 = FACE_OUTER_BOUND ( 'NONE', #417, .T. ) ;
#214 = FACE_BOUND ( 'NONE', #413, .T. ) ;
#215 = FACE_OUTER_BOUND ( 'NONE', #414, .T. ) ;
#216 = FACE_OUTER_BOUND ( 'NONE', #415, .T. ) ;
#217 = CARTESIAN_POINT ( 'NONE',  ( -1.785451786417976500E-013, 34.89999999999994200, 0.0000000000000000000 ) ) ;
#218 = DIRECTION ( 'NONE',  ( -5.115907697472721100E-015, 1.000000000000000000, -0.0000000000000000000 ) ) ;
#219 = DIRECTION ( 'NONE',  ( -1.000000000000000000, -5.337610695312546900E-015, 0.0000000000000000000 ) ) ;
#220 = CARTESIAN_POINT ( 'NONE',  ( -6.966860490746001500E-014, 13.61803398874390100, 0.0000000000000000000 ) ) ;
#221 = DIRECTION ( 'NONE',  ( -5.115907697472721100E-015, 1.000000000000000000, -0.0000000000000000000 ) ) ;
#222 = DIRECTION ( 'NONE',  ( -1.000000000000000000, -5.070730160547003500E-015, 0.0000000000000000000 ) ) ;
#223 = CARTESIAN_POINT ( 'NONE',  ( -5.250932884022923300E-014, 10.26393202249702200, 0.0000000000000000000 ) ) ;
#224 = DIRECTION ( 'NONE',  ( -5.115907697472721100E-015, 1.000000000000000000, -0.0000000000000000000 ) ) ;
#225 = DIRECTION ( 'NONE',  ( -1.000000000000000000, -5.204170427925515400E-015, 0.0000000000000000000 ) ) ;
#226 = CARTESIAN_POINT ( 'NONE',  ( -1.476835343143784200E-014, 2.886751345950497400, 0.0000000000000000000 ) ) ;
#227 = DIRECTION ( 'NONE',  ( -5.115907697472721100E-015, 1.000000000000000000, -0.0000000000000000000 ) ) ;
#228 = DIRECTION ( 'NONE',  ( -1.000000000000000000, -5.117434254129660800E-015, 0.0000000000000000000 ) ) ;
#229 = CARTESIAN_POINT ( 'NONE',  ( -1.476835343143784200E-014, 2.886751345950497400, 0.0000000000000000000 ) ) ;
#230 = LINE ( 'NONE', #231, #37 ) ;
#231 = CARTESIAN_POINT ( 'NONE',  ( 0.0000000000000000000, -2.522337235784670700E-043, 0.0000000000000000000 ) ) ;
#232 = DIRECTION ( 'NONE',  ( -0.8660254037843447800, 0.5000000000001625400, 0.0000000000000000000 ) ) ;
#233 = LINE ( 'NONE', #234, #35 ) ;
#234 = CARTESIAN_POINT ( 'NONE',  ( 6.500000000000422800, 75.00000000000004300, 7.960204194458783500E-016 ) ) ;
#235 = DIRECTION ( 'NONE',  ( -5.115907697472721100E-015, 1.000000000000000000, -0.0000000000000000000 ) ) ;
#236 = LINE ( 'NONE', #237, #33 ) ;
#237 = CARTESIAN_POINT ( 'NONE',  ( 9.860761315262647600E-029, 2.522337235784670700E-043, 6.037974890946223200E-045 ) ) ;
#238 = DIRECTION ( 'NONE',  ( 0.8660254037843395600, 0.5000000000001714200, 1.060575238724788700E-016 ) ) ;
#239 = LINE ( 'NONE', #240, #27 ) ;
#240 = CARTESIAN_POINT ( 'NONE',  ( -5.000000000003678800, 74.99999999999998600, 0.0000000000000000000 ) ) ;
#241 = DIRECTION ( 'NONE',  ( -5.115907697472721100E-015, 1.000000000000000000, -0.0000000000000000000 ) ) ;
#242 = DIRECTION ( 'NONE',  ( -5.115907697472721100E-015, 1.000000000000000000, -0.0000000000000000000 ) ) ;
#243 = DIRECTION ( 'NONE',  ( -1.000000000000000000, -5.117434254129660800E-015, 0.0000000000000000000 ) ) ;
#244 = PLANE ( 'NONE',  #59 ) ;
#245 = LINE ( 'NONE', #246, #20 ) ;
#246 = CARTESIAN_POINT ( 'NONE',  ( 5.000000000002911400, 75.00000000000004300, 6.123233995740801300E-016 ) ) ;
#247 = DIRECTION ( 'NONE',  ( -5.115907697472721100E-015, 1.000000000000000000, -0.0000000000000000000 ) ) ;
#248 = LINE ( 'NONE', #249, #60 ) ;
#249 = CARTESIAN_POINT ( 'NONE',  ( -5.000000000004766900, 10.26393202249699500, 0.0000000000000000000 ) ) ;
#250 = DIRECTION ( 'NONE',  ( -0.4082482904632535000, 0.9128709291755494600, 0.0000000000000000000 ) ) ;
#251 = CARTESIAN_POINT ( 'NONE',  ( -3.836930773104540500E-013, 75.00000000000000000, 0.0000000000000000000 ) ) ;
#252 = DIRECTION ( 'NONE',  ( 5.115907697472721100E-015, -1.000000000000000000, 0.0000000000000000000 ) ) ;
#253 = DIRECTION ( 'NONE',  ( 1.000000000000000000, 5.115907697472721100E-015, 0.0000000000000000000 ) ) ;
#254 = CARTESIAN_POINT ( 'NONE',  ( -1.790567694115447600E-013, 34.99999999999991500, 0.0000000000000000000 ) ) ;
#255 = DIRECTION ( 'NONE',  ( -5.115907697472721100E-015, 1.000000000000000000, -0.0000000000000000000 ) ) ;
#256 = DIRECTION ( 'NONE',  ( -1.000000000000000000, -4.956352788507702000E-015, 0.0000000000000000000 ) ) ;
#257 = CARTESIAN_POINT ( 'NONE',  ( -1.790567694115450900E-013, 34.99999999999998600, 0.0000000000000000000 ) ) ;
#258 = LINE ( 'NONE', #259, #57 ) ;
#259 = CARTESIAN_POINT ( 'NONE',  ( -5.599999999997310200, 34.99999999999988600, 0.0000000000000000000 ) ) ;
#260 = DIRECTION ( 'NONE',  ( -0.8660254037844725700, 0.4999999999999409900, 0.0000000000000000000 ) ) ;
#261 = LINE ( 'NONE', #262, #55 ) ;
#262 = CARTESIAN_POINT ( 'NONE',  ( -6.500000000001040100, 34.89999999999991300, 7.960204194458849600E-016 ) ) ;
#263 = DIRECTION ( 'NONE',  ( -0.7071067811865408000, -0.7071067811865541200, 8.659560562354895900E-017 ) ) ;
#264 = DIRECTION ( 'NONE',  ( -5.115907697472721100E-015, 1.000000000000000000, -0.0000000000000000000 ) ) ;
#265 = DIRECTION ( 'NONE',  ( -1.000000000000000000, -5.421010862426824000E-015, 0.0000000000000000000 ) ) ;
#266 = CARTESIAN_POINT ( 'NONE',  ( -1.790567694115447600E-013, 34.99999999999991500, 0.0000000000000000000 ) ) ;
#267 = LINE ( 'NONE', #268, #54 ) ;
#268 = CARTESIAN_POINT ( 'NONE',  ( 5.599999999996953200, 34.99999999999994300, 6.858022075221665200E-016 ) ) ;
#269 = DIRECTION ( 'NONE',  ( 0.8660254037844674600, 0.4999999999999498700, 1.060575238724945400E-016 ) ) ;
#270 = DIRECTION ( 'NONE',  ( -5.115907697472721100E-015, 1.000000000000000000, -0.0000000000000000000 ) ) ;
#271 = DIRECTION ( 'NONE',  ( -1.000000000000000000, -5.551115123128992600E-015, 0.0000000000000000000 ) ) ;
#272 = CARTESIAN_POINT ( 'NONE',  ( -3.826698957709594700E-013, 74.79999999999999700, 0.0000000000000000000 ) ) ;
#273 = LINE ( 'NONE', #274, #51 ) ;
#274 = CARTESIAN_POINT ( 'NONE',  ( 4.999999999996874500, 74.80000000000002600, 0.0000000000000000000 ) ) ;
#275 = DIRECTION ( 'NONE',  ( 0.7071067811865696700, -0.7071067811865253700, 0.0000000000000000000 ) ) ;
#276 = DIRECTION ( 'NONE',  ( -5.115907697472721100E-015, 1.000000000000000000, -0.0000000000000000000 ) ) ;
#277 = DIRECTION ( 'NONE',  ( -1.000000000000000000, -5.551115123128828500E-015, 0.0000000000000000000 ) ) ;
#278 = CARTESIAN_POINT ( 'NONE',  ( -3.836930773104539000E-013, 74.99999999999997200, 0.0000000000000000000 ) ) ;
#279 = LINE ( 'NONE', #280, #49 ) ;
#280 = CARTESIAN_POINT ( 'NONE',  ( -4.999999999997639200, 74.79999999999996900, 6.123233995733405700E-016 ) ) ;
#281 = DIRECTION ( 'NONE',  ( -0.7071067811865622300, -0.7071067811865327000, 8.659560562355159700E-017 ) ) ;
#282 = LINE ( 'NONE', #283, #47 ) ;
#283 = CARTESIAN_POINT ( 'NONE',  ( 4.999999999996799900, 75.00000000000004300, 6.123233995733316000E-016 ) ) ;
#284 = DIRECTION ( 'NONE',  ( -5.115907697472721100E-015, 1.000000000000000000, -0.0000000000000000000 ) ) ;
#285 = DIRECTION ( 'NONE',  ( -5.115907697472721100E-015, 1.000000000000000000, -0.0000000000000000000 ) ) ;
#286 = DIRECTION ( 'NONE',  ( -1.000000000000000000, -5.782411586592647600E-015, 0.0000000000000000000 ) ) ;
#287 = CARTESIAN_POINT ( 'NONE',  ( 5.199999999996930600, 34.99999999999995000, 6.368163355562697400E-016 ) ) ;
#288 = DIRECTION ( 'NONE',  ( -1.224646799147353200E-016, -6.265179986443274100E-031, 1.000000000000000000 ) ) ;
#289 = DIRECTION ( 'NONE',  ( 1.000000000000000000, 0.0000000000000000000, 1.224646799147354900E-016 ) ) ;
#290 = CARTESIAN_POINT ( 'NONE',  ( -1.790567694115447600E-013, 34.99999999999991500, 0.0000000000000000000 ) ) ;
#291 = DIRECTION ( 'NONE',  ( -5.115907697472721100E-015, 1.000000000000000000, -0.0000000000000000000 ) ) ;
#292 = DIRECTION ( 'NONE',  ( -1.000000000000000000, -5.551115123128992600E-015, 0.0000000000000000000 ) ) ;
#293 = CARTESIAN_POINT ( 'NONE',  ( -5.199999999997288600, 34.99999999999989300, 0.0000000000000000000 ) ) ;
#294 = LINE ( 'NONE', #295, #42 ) ;
#295 = CARTESIAN_POINT ( 'NONE',  ( -4.999999999997566400, 74.99999999999998600, 0.0000000000000000000 ) ) ;
#296 = DIRECTION ( 'NONE',  ( -5.115907697472721100E-015, 1.000000000000000000, -0.0000000000000000000 ) ) ;
#297 = DIRECTION ( 'NONE',  ( 0.0000000000000000000, -0.0000000000000000000, -1.000000000000000000 ) ) ;
#298 = DIRECTION ( 'NONE',  ( -1.000000000000000000, 0.0000000000000000000, 0.0000000000000000000 ) ) ;
#299 = CARTESIAN_POINT ( 'NONE',  ( -1.781706682056592400E-013, 34.82679491924302800, 0.0000000000000000000 ) ) ;
#300 = DIRECTION ( 'NONE',  ( -5.115907697472721100E-015, 1.000000000000000000, -0.0000000000000000000 ) ) ;
#301 = DIRECTION ( 'NONE',  ( -1.000000000000000000, -5.236901059555494400E-015, 0.0000000000000000000 ) ) ;
#302 = DIRECTION ( 'NONE',  ( -1.000000000000000000, -5.421010862426824000E-015, 0.0000000000000000000 ) ) ;
#303 = CARTESIAN_POINT ( 'NONE',  ( -1.785451786417976500E-013, 34.89999999999994200, 0.0000000000000000000 ) ) ;
#304 = DIRECTION ( 'NONE',  ( -5.115907697472721100E-015, 1.000000000000000000, -0.0000000000000000000 ) ) ;
#305 = DIRECTION ( 'NONE',  ( -1.000000000000000000, -5.337610695312546900E-015, 0.0000000000000000000 ) ) ;
#306 = CARTESIAN_POINT ( 'NONE',  ( 4.999999999996930500, 34.99999999999994300, 6.306931015605321700E-016 ) ) ;
#307 = LINE ( 'NONE', #308, #38 ) ;
#308 = CARTESIAN_POINT ( 'NONE',  ( 6.500000000000682100, 34.89999999999997700, 0.0000000000000000000 ) ) ;
#309 = DIRECTION ( 'NONE',  ( 0.7071067811865482400, -0.7071067811865469100, 0.0000000000000000000 ) ) ;
#310 = FILL_AREA_STYLE_COLOUR ( '', #91 ) ;
#311 = FILL_AREA_STYLE ('',( #310 ) ) ;
#312 = SURFACE_STYLE_FILL_AREA ( #311 ) ;
#313 = SURFACE_SIDE_STYLE ('',( #312 ) ) ;
#314 = SURFACE_STYLE_USAGE ( .BOTH. , #313 ) ;
#315 = PRESENTATION_STYLE_ASSIGNMENT (( #314 ) ) ;
#316 =( LENGTH_UNIT ( ) NAMED_UNIT ( * ) SI_UNIT ( .MILLI., .METRE. ) );
#317 =( NAMED_UNIT ( * ) PLANE_ANGLE_UNIT ( ) SI_UNIT ( $, .RADIAN. ) );
#318 =( NAMED_UNIT ( * ) SI_UNIT ( $, .STERADIAN. ) SOLID_ANGLE_UNIT ( ) );
#319 = CARTESIAN_POINT ( 'NONE',  ( -4.799999999997651500, 74.99999999999994300, 6.000769315818678100E-016 ) ) ;
#320 = CARTESIAN_POINT ( 'NONE',  ( 4.999999999996875400, 74.80000000000002600, 6.123233995733362300E-016 ) ) ;
#321 = CARTESIAN_POINT ( 'NONE',  ( 0.0000000000000000000, 0.0000000000000000000, 0.0000000000000000000 ) ) ;
#322 = CARTESIAN_POINT ( 'NONE',  ( 5.000000000001861600, 2.886751345950522700, 6.123233995739063800E-016 ) ) ;
#323 = CARTESIAN_POINT ( 'NONE',  ( -5.000000000001890900, 2.886751345950471700, 0.0000000000000000000 ) ) ;
#324 = CARTESIAN_POINT ( 'NONE',  ( 5.000000000004660300, 10.26393202249704800, 6.123233995742515100E-016 ) ) ;
#325 = CARTESIAN_POINT ( 'NONE',  ( -5.000000000004766000, 10.26393202249699500, 0.0000000000000000000 ) ) ;
#326 = CARTESIAN_POINT ( 'NONE',  ( 6.500000000000681200, 13.61803398874393300, 7.960204194458716500E-016 ) ) ;
#327 = CARTESIAN_POINT ( 'NONE',  ( -6.500000000000821600, 13.61803398874386800, 0.0000000000000000000 ) ) ;
#328 = CARTESIAN_POINT ( 'NONE',  ( 6.500000000000682100, 34.89999999999997700, 7.960204194458817100E-016 ) ) ;
#329 = CARTESIAN_POINT ( 'NONE',  ( -6.500000000001039200, 34.89999999999991300, 0.0000000000000000000 ) ) ;
#330 = CARTESIAN_POINT ( 'NONE',  ( 6.400000000000646100, 35.00000000000001400, 0.0000000000000000000 ) ) ;
#331 = CARTESIAN_POINT ( 'NONE',  ( -6.400000000001003100, 34.99999999999995000, 7.898971854501460100E-016 ) ) ;
#332 = CARTESIAN_POINT ( 'NONE',  ( -5.599999999997308500, 34.99999999999988600, 0.0000000000000000000 ) ) ;
#333 = CARTESIAN_POINT ( 'NONE',  ( 5.599999999996955000, 34.99999999999994300, 6.858022075221667100E-016 ) ) ;
#334 = CARTESIAN_POINT ( 'NONE',  ( -5.299999999997274000, 34.82679491924300000, 0.0000000000000000000 ) ) ;
#335 = CARTESIAN_POINT ( 'NONE',  ( 5.299999999996918700, 34.82679491924305600, 6.674325055349541100E-016 ) ) ;
#336 = CARTESIAN_POINT ( 'NONE',  ( -4.999999999997287500, 34.99999999999988600, 0.0000000000000000000 ) ) ;
#337 = CARTESIAN_POINT ( 'NONE',  ( 4.799999999996885000, 75.00000000000000000, 0.0000000000000000000 ) ) ;
#338 = CARTESIAN_POINT ( 'NONE',  ( -4.999999999997639200, 74.79999999999996900, 0.0000000000000000000 ) ) ;
#339 =( LENGTH_UNIT ( ) NAMED_UNIT ( * ) SI_UNIT ( .MILLI., .METRE. ) );
#340 =( NAMED_UNIT ( * ) PLANE_ANGLE_UNIT ( ) SI_UNIT ( $, .RADIAN. ) );
#341 =( NAMED_UNIT ( * ) SI_UNIT ( $, .STERADIAN. ) SOLID_ANGLE_UNIT ( ) );
#342 = APPLICATION_PROTOCOL_DEFINITION ( 'draft international standard', 'automotive_design', 1998, #77 ) ;
#343 = FILL_AREA_STYLE_COLOUR ( '', #89 ) ;
#344 = FILL_AREA_STYLE ('',( #343 ) ) ;
#345 = SURFACE_STYLE_FILL_AREA ( #344 ) ;
#346 = SURFACE_SIDE_STYLE ('',( #345 ) ) ;
#347 = SURFACE_STYLE_USAGE ( .BOTH. , #346 ) ;
#348 = PRESENTATION_STYLE_ASSIGNMENT (( #347 ) ) ;
#349 =( LENGTH_UNIT ( ) NAMED_UNIT ( * ) SI_UNIT ( .MILLI., .METRE. ) );
#350 =( NAMED_UNIT ( * ) PLANE_ANGLE_UNIT ( ) SI_UNIT ( $, .RADIAN. ) );
#351 =( NAMED_UNIT ( * ) SI_UNIT ( $, .STERADIAN. ) SOLID_ANGLE_UNIT ( ) );
#352 = CARTESIAN_POINT ( 'NONE',  ( 0.0000000000000000000, 0.0000000000000000000, 0.0000000000000000000 ) ) ;
#353 = DIRECTION ( 'NONE',  ( 0.0000000000000000000, 0.0000000000000000000, 1.000000000000000000 ) ) ;
#354 = DIRECTION ( 'NONE',  ( 1.000000000000000000, 0.0000000000000000000, 0.0000000000000000000 ) ) ;
#355 = SHAPE_DEFINITION_REPRESENTATION ( #387, #79 ) ;
#356 = PRODUCT_CONTEXT ( 'NONE', #77, 'mechanical' ) ;
#357 = APPLICATION_PROTOCOL_DEFINITION ( 'draft international standard', 'automotive_design', 1998, #78 ) ;
#358 = CARTESIAN_POINT ( 'NONE',  ( -1.785451786417976500E-013, 34.89999999999994200, 0.0000000000000000000 ) ) ;
#359 = DIRECTION ( 'NONE',  ( -1.000000000000000000, -4.270088556250072600E-015, 0.0000000000000000000 ) ) ;
#360 = DIRECTION ( 'NONE',  ( -5.115907697472721100E-015, 1.000000000000000000, -0.0000000000000000000 ) ) ;
#361 = CARTESIAN_POINT ( 'NONE',  ( -3.836930773104541000E-013, 75.00000000000001400, 0.0000000000000000000 ) ) ;
#362 = DIRECTION ( 'NONE',  ( -1.000000000000000000, -5.204170427925514600E-015, 0.0000000000000000000 ) ) ;
#363 = DIRECTION ( 'NONE',  ( -5.115907697472721100E-015, 1.000000000000000000, -0.0000000000000000000 ) ) ;
#364 = CARTESIAN_POINT ( 'NONE',  ( -5.250932884022923300E-014, 10.26393202249702200, 0.0000000000000000000 ) ) ;
#365 = DIRECTION ( 'NONE',  ( -1.000000000000000000, -5.551115123122124800E-015, 0.0000000000000000000 ) ) ;
#366 = DIRECTION ( 'NONE',  ( -5.115907697472721100E-015, 1.000000000000000000, -0.0000000000000000000 ) ) ;
#367 = CARTESIAN_POINT ( 'NONE',  ( -3.836930773104541000E-013, 75.00000000000001400, 0.0000000000000000000 ) ) ;
#368 = DIRECTION ( 'NONE',  ( -1.000000000000000000, -5.127900497025120600E-015, 0.0000000000000000000 ) ) ;
#369 = DIRECTION ( 'NONE',  ( -5.115907697472721100E-015, 1.000000000000000000, -0.0000000000000000000 ) ) ;
#370 = CARTESIAN_POINT ( 'NONE',  ( -5.115907697472721300E-012, 1000.000000000000000, 0.0000000000000000000 ) ) ;
#371 = DIRECTION ( 'NONE',  ( -1.000000000000000000, -5.127900497025120600E-015, 0.0000000000000000000 ) ) ;
#372 = DIRECTION ( 'NONE',  ( -5.115907697472721100E-015, 1.000000000000000000, -0.0000000000000000000 ) ) ;
#373 = CARTESIAN_POINT ( 'NONE',  ( -5.115907697472721300E-012, 1000.000000000000000, 0.0000000000000000000 ) ) ;
#374 = DIRECTION ( 'NONE',  ( -1.000000000000000000, -5.551115123122124800E-015, 0.0000000000000000000 ) ) ;
#375 = DIRECTION ( 'NONE',  ( -5.115907697472721100E-015, 1.000000000000000000, -0.0000000000000000000 ) ) ;
#376 = CARTESIAN_POINT ( 'NONE',  ( -3.836930773104541000E-013, 75.00000000000001400, 0.0000000000000000000 ) ) ;
#377 = DIRECTION ( 'NONE',  ( -1.000000000000000000, -5.204170427925514600E-015, 0.0000000000000000000 ) ) ;
#378 = DIRECTION ( 'NONE',  ( -5.115907697472721100E-015, 1.000000000000000000, -0.0000000000000000000 ) ) ;
#379 = CARTESIAN_POINT ( 'NONE',  ( -5.250932884022923300E-014, 10.26393202249702200, 0.0000000000000000000 ) ) ;
#380 = DIRECTION ( 'NONE',  ( -1.000000000000000000, -4.270088556250072600E-015, 0.0000000000000000000 ) ) ;
#381 = DIRECTION ( 'NONE',  ( -5.115907697472721100E-015, 1.000000000000000000, -0.0000000000000000000 ) ) ;
#382 = CARTESIAN_POINT ( 'NONE',  ( -3.836930773104541000E-013, 75.00000000000001400, 0.0000000000000000000 ) ) ;
#383 = DIRECTION ( 'NONE',  ( 1.000000000000000000, 5.337610695312546100E-015, 0.0000000000000000000 ) ) ;
#384 = DIRECTION ( 'NONE',  ( 5.115907697472721100E-015, -1.000000000000000000, 0.0000000000000000000 ) ) ;
#385 = MANIFOLD_SOLID_BREP ( '±ÛÂà1', #185 ) ;
#386 = PRODUCT_DEFINITION_CONTEXT ( 'detailed design', #78, 'design' ) ;
#387 = PRODUCT_DEFINITION_SHAPE ( 'NONE', 'NONE',  #88 ) ;
#388 = DIRECTION ( 'NONE',  ( 1.000000000000000000, 5.115907697472721100E-015, 0.0000000000000000000 ) ) ;
#389 = DIRECTION ( 'NONE',  ( 5.115907697472721100E-015, -1.000000000000000000, 0.0000000000000000000 ) ) ;
#390 = CARTESIAN_POINT ( 'NONE',  ( 5.599999999996953200, 34.99999999999997900, 0.0000000000000000000 ) ) ;
#391 = PLANE ( 'NONE',  #206 ) ;
#392 = DIRECTION ( 'NONE',  ( -1.000000000000000000, -5.070730160547003500E-015, 0.0000000000000000000 ) ) ;
#393 = DIRECTION ( 'NONE',  ( -5.115907697472721100E-015, 1.000000000000000000, -0.0000000000000000000 ) ) ;
#394 = CARTESIAN_POINT ( 'NONE',  ( -6.966860490746001500E-014, 13.61803398874390100, 0.0000000000000000000 ) ) ;
#395 = DIRECTION ( 'NONE',  ( -5.115907697472721100E-015, 1.000000000000000000, -0.0000000000000000000 ) ) ;
#396 = CARTESIAN_POINT ( 'NONE',  ( -6.500000000001190200, 74.99999999999998600, 0.0000000000000000000 ) ) ;
#397 = LINE ( 'NONE', #396, #198 ) ;
#398 = ORIENTED_EDGE ( 'NONE', *, *, #130, .T. ) ;
#399 = EDGE_LOOP ( 'NONE', ( #505, #497, #499, #507 ) ) ;
#400 = EDGE_LOOP ( 'NONE', ( #495, #496, #498, #494 ) ) ;
#401 = EDGE_LOOP ( 'NONE', ( #508, #501, #504, #509 ) ) ;
#402 = EDGE_LOOP ( 'NONE', ( #506, #502, #500, #503 ) ) ;
#403 = EDGE_LOOP ( 'NONE', ( #490, #492, #491, #493 ) ) ;
#404 = EDGE_LOOP ( 'NONE', ( #513, #515, #514, #420 ) ) ;
#405 = EDGE_LOOP ( 'NONE', ( #398, #473, #474, #472 ) ) ;
#406 = EDGE_LOOP ( 'NONE', ( #471, #469, #470, #468 ) ) ;
#407 = EDGE_LOOP ( 'NONE', ( #467, #465, #466 ) ) ;
#408 = EDGE_LOOP ( 'NONE', ( #464, #463, #462 ) ) ;
#409 = EDGE_LOOP ( 'NONE', ( #460, #459, #458, #461 ) ) ;
#410 = EDGE_LOOP ( 'NONE', ( #456, #455, #454, #457 ) ) ;
#411 = EDGE_LOOP ( 'NONE', ( #452, #451, #450, #453 ) ) ;
#412 = EDGE_LOOP ( 'NONE', ( #448, #447, #449, #445 ) ) ;
#413 = EDGE_LOOP ( 'NONE', ( #444, #442 ) ) ;
#414 = EDGE_LOOP ( 'NONE', ( #446, #441 ) ) ;
#415 = EDGE_LOOP ( 'NONE', ( #440, #439, #443, #437 ) ) ;
#416 = EDGE_LOOP ( 'NONE', ( #436, #435, #434, #438 ) ) ;
#417 = EDGE_LOOP ( 'NONE', ( #432, #431, #430, #433 ) ) ;
#418 = EDGE_LOOP ( 'NONE', ( #428, #427, #429, #426 ) ) ;
#419 = EDGE_LOOP ( 'NONE', ( #425, #424 ) ) ;
#420 = ORIENTED_EDGE ( 'NONE', *, *, #85, .F. ) ;
#421 = VERTEX_POINT ( 'NONE', #319 ) ;
#422 = VERTEX_POINT ( 'NONE', #306 ) ;
#423 = VERTEX_POINT ( 'NONE', #320 ) ;
#424 = ORIENTED_EDGE ( 'NONE', *, *, #173, .T. ) ;
#425 = ORIENTED_EDGE ( 'NONE', *, *, #146, .T. ) ;
#426 = ORIENTED_EDGE ( 'NONE', *, *, #147, .T. ) ;
#427 = ORIENTED_EDGE ( 'NONE', *, *, #146, .F. ) ;
#428 = ORIENTED_EDGE ( 'NONE', *, *, #171, .F. ) ;
#429 = ORIENTED_EDGE ( 'NONE', *, *, #169, .T. ) ;
#430 = ORIENTED_EDGE ( 'NONE', *, *, #176, .T. ) ;
#431 = ORIENTED_EDGE ( 'NONE', *, *, #175, .T. ) ;
#432 = ORIENTED_EDGE ( 'NONE', *, *, #172, .F. ) ;
#433 = ORIENTED_EDGE ( 'NONE', *, *, #147, .F. ) ;
#434 = ORIENTED_EDGE ( 'NONE', *, *, #177, .T. ) ;
#435 = ORIENTED_EDGE ( 'NONE', *, *, #168, .F. ) ;
#436 = ORIENTED_EDGE ( 'NONE', *, *, #174, .F. ) ;
#437 = ORIENTED_EDGE ( 'NONE', *, *, #149, .T. ) ;
#438 = ORIENTED_EDGE ( 'NONE', *, *, #148, .T. ) ;
#439 = ORIENTED_EDGE ( 'NONE', *, *, #148, .F. ) ;
#440 = ORIENTED_EDGE ( 'NONE', *, *, #167, .F. ) ;
#441 = ORIENTED_EDGE ( 'NONE', *, *, #166, .T. ) ;
#442 = ORIENTED_EDGE ( 'NONE', *, *, #163, .F. ) ;
#443 = ORIENTED_EDGE ( 'NONE', *, *, #164, .T. ) ;
#444 = ORIENTED_EDGE ( 'NONE', *, *, #149, .F. ) ;
#445 = ORIENTED_EDGE ( 'NONE', *, *, #151, .T. ) ;
#446 = ORIENTED_EDGE ( 'NONE', *, *, #150, .T. ) ;
#447 = ORIENTED_EDGE ( 'NONE', *, *, #150, .F. ) ;
#448 = ORIENTED_EDGE ( 'NONE', *, *, #165, .F. ) ;
#449 = ORIENTED_EDGE ( 'NONE', *, *, #180, .T. ) ;
#450 = ORIENTED_EDGE ( 'NONE', *, *, #85, .T. ) ;
#451 = ORIENTED_EDGE ( 'NONE', *, *, #152, .T. ) ;
#452 = ORIENTED_EDGE ( 'NONE', *, *, #156, .F. ) ;
#453 = ORIENTED_EDGE ( 'NONE', *, *, #151, .F. ) ;
#454 = ORIENTED_EDGE ( 'NONE', *, *, #161, .T. ) ;
#455 = ORIENTED_EDGE ( 'NONE', *, *, #153, .T. ) ;
#456 = ORIENTED_EDGE ( 'NONE', *, *, #131, .F. ) ;
#457 = ORIENTED_EDGE ( 'NONE', *, *, #152, .F. ) ;
#458 = ORIENTED_EDGE ( 'NONE', *, *, #158, .T. ) ;
#459 = ORIENTED_EDGE ( 'NONE', *, *, #154, .T. ) ;
#460 = ORIENTED_EDGE ( 'NONE', *, *, #160, .F. ) ;
#461 = ORIENTED_EDGE ( 'NONE', *, *, #153, .F. ) ;
#462 = ORIENTED_EDGE ( 'NONE', *, *, #154, .F. ) ;
#463 = ORIENTED_EDGE ( 'NONE', *, *, #155, .T. ) ;
#464 = ORIENTED_EDGE ( 'NONE', *, *, #157, .F. ) ;
#465 = ORIENTED_EDGE ( 'NONE', *, *, #157, .T. ) ;
#466 = ORIENTED_EDGE ( 'NONE', *, *, #159, .F. ) ;
#467 = ORIENTED_EDGE ( 'NONE', *, *, #155, .F. ) ;
#468 = ORIENTED_EDGE ( 'NONE', *, *, #158, .F. ) ;
#469 = ORIENTED_EDGE ( 'NONE', *, *, #160, .T. ) ;
#470 = ORIENTED_EDGE ( 'NONE', *, *, #130, .F. ) ;
#471 = ORIENTED_EDGE ( 'NONE', *, *, #159, .T. ) ;
#472 = ORIENTED_EDGE ( 'NONE', *, *, #161, .F. ) ;
#473 = ORIENTED_EDGE ( 'NONE', *, *, #131, .T. ) ;
#474 = ORIENTED_EDGE ( 'NONE', *, *, #87, .F. ) ;
#475 = VERTEX_POINT ( 'NONE', #321 ) ;
#476 = VERTEX_POINT ( 'NONE', #322 ) ;
#477 = VERTEX_POINT ( 'NONE', #323 ) ;
#478 = VERTEX_POINT ( 'NONE', #324 ) ;
#479 = VERTEX_POINT ( 'NONE', #325 ) ;
#480 = VERTEX_POINT ( 'NONE', #326 ) ;
#481 = VERTEX_POINT ( 'NONE', #327 ) ;
#482 = VERTEX_POINT ( 'NONE', #328 ) ;
#483 = VERTEX_POINT ( 'NONE', #329 ) ;
#484 = VERTEX_POINT ( 'NONE', #330 ) ;
#485 = VERTEX_POINT ( 'NONE', #331 ) ;
#486 = VERTEX_POINT ( 'NONE', #332 ) ;
#487 = VERTEX_POINT ( 'NONE', #333 ) ;
#488 = VERTEX_POINT ( 'NONE', #334 ) ;
#489 = VERTEX_POINT ( 'NONE', #335 ) ;
#490 = ORIENTED_EDGE ( 'NONE', *, *, #166, .F. ) ;
#491 = ORIENTED_EDGE ( 'NONE', *, *, #179, .T. ) ;
#492 = ORIENTED_EDGE ( 'NONE', *, *, #165, .T. ) ;
#493 = ORIENTED_EDGE ( 'NONE', *, *, #180, .F. ) ;
#494 = ORIENTED_EDGE ( 'NONE', *, *, #176, .F. ) ;
#495 = ORIENTED_EDGE ( 'NONE', *, *, #168, .T. ) ;
#496 = ORIENTED_EDGE ( 'NONE', *, *, #172, .T. ) ;
#497 = ORIENTED_EDGE ( 'NONE', *, *, #171, .T. ) ;
#498 = ORIENTED_EDGE ( 'NONE', *, *, #170, .F. ) ;
#499 = ORIENTED_EDGE ( 'NONE', *, *, #170, .T. ) ;
#500 = ORIENTED_EDGE ( 'NONE', *, *, #163, .T. ) ;
#501 = ORIENTED_EDGE ( 'NONE', *, *, #174, .T. ) ;
#502 = ORIENTED_EDGE ( 'NONE', *, *, #167, .T. ) ;
#503 = ORIENTED_EDGE ( 'NONE', *, *, #164, .F. ) ;
#504 = ORIENTED_EDGE ( 'NONE', *, *, #178, .T. ) ;
#505 = ORIENTED_EDGE ( 'NONE', *, *, #173, .F. ) ;
#506 = ORIENTED_EDGE ( 'NONE', *, *, #178, .F. ) ;
#507 = ORIENTED_EDGE ( 'NONE', *, *, #169, .F. ) ;
#508 = ORIENTED_EDGE ( 'NONE', *, *, #175, .F. ) ;
#509 = ORIENTED_EDGE ( 'NONE', *, *, #177, .F. ) ;
#510 = VERTEX_POINT ( 'NONE', #336 ) ;
#511 = VERTEX_POINT ( 'NONE', #337 ) ;
#512 = VERTEX_POINT ( 'NONE', #338 ) ;
#513 = ORIENTED_EDGE ( 'NONE', *, *, #87, .T. ) ;
#514 = ORIENTED_EDGE ( 'NONE', *, *, #179, .F. ) ;
#515 = ORIENTED_EDGE ( 'NONE', *, *, #156, .T. ) ;
#516 = CARTESIAN_POINT ( 'NONE',  ( -1.785451786417976500E-013, 34.89999999999994200, 0.0000000000000000000 ) ) ;
#517 = DIRECTION ( 'NONE',  ( -1.000000000000000000, -4.956352788507702000E-015, 0.0000000000000000000 ) ) ;
#518 = DIRECTION ( 'NONE',  ( -5.115907697472721100E-015, 1.000000000000000000, -0.0000000000000000000 ) ) ;
#519 = CARTESIAN_POINT ( 'NONE',  ( -1.790567694115447600E-013, 34.99999999999991500, 0.0000000000000000000 ) ) ;
#520 = DIRECTION ( 'NONE',  ( -1.000000000000000000, -5.115907697472721100E-015, 0.0000000000000000000 ) ) ;
#521 = DIRECTION ( 'NONE',  ( -5.115907697472721100E-015, 1.000000000000000000, -0.0000000000000000000 ) ) ;
#522 = CARTESIAN_POINT ( 'NONE',  ( -1.786765180256111300E-013, 34.99999999999992200, 0.0000000000000000000 ) ) ;
#523 = DIRECTION ( 'NONE',  ( 1.000000000000000000, 5.551115123128828500E-015, 0.0000000000000000000 ) ) ;
#524 = DIRECTION ( 'NONE',  ( 5.115907697472721100E-015, -1.000000000000000000, 0.0000000000000000000 ) ) ;
#525 = CARTESIAN_POINT ( 'NONE',  ( -3.826698957709594700E-013, 74.79999999999999700, 0.0000000000000000000 ) ) ;
#526 = DIRECTION ( 'NONE',  ( -1.000000000000000000, -5.551115123128910500E-015, 0.0000000000000000000 ) ) ;
#527 = DIRECTION ( 'NONE',  ( -5.115907697472721100E-015, 1.000000000000000000, -0.0000000000000000000 ) ) ;
#528 = DIRECTION ( 'NONE',  ( 0.4082482904632441200, 0.9128709291755535700, 4.999599621731965500E-017 ) ) ;
#529 = CARTESIAN_POINT ( 'NONE',  ( 5.000000000004661200, 10.26393202249704800, 6.123233995742538800E-016 ) ) ;
#530 = LINE ( 'NONE', #529, #200 ) ;
#531 = CARTESIAN_POINT ( 'NONE',  ( -3.836930773104541000E-013, 75.00000000000001400, 0.0000000000000000000 ) ) ;
#532 = DIRECTION ( 'NONE',  ( -1.000000000000000000, -5.204170427925515400E-015, 0.0000000000000000000 ) ) ;
#533 = DIRECTION ( 'NONE',  ( -5.115907697472721100E-015, 1.000000000000000000, -0.0000000000000000000 ) ) ;
#534 = CARTESIAN_POINT ( 'NONE',  ( -5.250932884022923300E-014, 10.26393202249702200, 0.0000000000000000000 ) ) ;
#535 = DIRECTION ( 'NONE',  ( 1.000000000000000000, 5.551115123128828500E-015, 0.0000000000000000000 ) ) ;
#536 = DIRECTION ( 'NONE',  ( 5.115907697472721100E-015, -1.000000000000000000, 0.0000000000000000000 ) ) ;
#537 = CARTESIAN_POINT ( 'NONE',  ( -3.826698957709594700E-013, 74.79999999999999700, 0.0000000000000000000 ) ) ;
#538 = DIRECTION ( 'NONE',  ( -1.000000000000000000, -5.551115123128910500E-015, 0.0000000000000000000 ) ) ;
#539 = DIRECTION ( 'NONE',  ( -5.115907697472721100E-015, 1.000000000000000000, -0.0000000000000000000 ) ) ;
#540 = CARTESIAN_POINT ( 'NONE',  ( -3.836930773104541000E-013, 75.00000000000001400, 0.0000000000000000000 ) ) ;
#541 = DIRECTION ( 'NONE',  ( -1.000000000000000000, -5.115907697472721100E-015, 0.0000000000000000000 ) ) ;
#542 = DIRECTION ( 'NONE',  ( -5.115907697472721100E-015, 1.000000000000000000, -0.0000000000000000000 ) ) ;
#543 = CARTESIAN_POINT ( 'NONE',  ( -1.786765180256111300E-013, 34.99999999999992200, 0.0000000000000000000 ) ) ;
#544 = DIRECTION ( 'NONE',  ( -1.000000000000000000, -4.956352788507702000E-015, 0.0000000000000000000 ) ) ;
#545 = DIRECTION ( 'NONE',  ( -5.115907697472721100E-015, 1.000000000000000000, -0.0000000000000000000 ) ) ;
#546 = CARTESIAN_POINT ( 'NONE',  ( -1.790567694115447600E-013, 34.99999999999991500, 0.0000000000000000000 ) ) ;
ENDSEC;
END-ISO-10303-21;
