ISO-10303-21;
HEADER;
FILE_DESCRIPTION (( 'STEP AP214' ),
    '1' );
FILE_NAME ('99688-SI20-20+S9MT2004-090.STEP',
    '2022-11-03T01:08:48',
    ( 'User' ),
    ( 'GENUINE' ),
    'SwSTEP 2.0',
    'SolidWorks 2012',
    '' );
FILE_SCHEMA (( 'AUTOMOTIVE_DESIGN' ));
ENDSEC;

DATA;
#1 = MANIFOLD_SOLID_BREP ( '±ÛÂà1', #96 ) ;
#2 = CARTESIAN_POINT ( 'NONE',  ( 0.0000000000000000000, 110.0000000000000600, 0.0000000000000000000 ) ) ;
#3 = CARTESIAN_POINT ( 'NONE',  ( 0.0000000000000000000, 109.5999999999999700, 0.0000000000000000000 ) ) ;
#4 = DIRECTION ( 'NONE',  ( 0.0000000000000000000, 0.0000000000000000000, 1.000000000000000000 ) ) ;
#5 = DIRECTION ( 'NONE',  ( -0.0000000000000000000, 1.000000000000000000, -0.0000000000000000000 ) ) ;
#6 = DIRECTION ( 'NONE',  ( -0.0000000000000000000, 1.000000000000000000, -0.0000000000000000000 ) ) ;
#7 = CARTESIAN_POINT ( 'NONE',  ( 0.0000000000000000000, 110.0000000000000600, 10.00000000000028400 ) ) ;
#8 = LINE ( 'NONE', #7, #120 ) ;
#9 = CARTESIAN_POINT ( 'NONE',  ( 0.0000000000000000000, 9.154700538387682900, 0.0000000000000000000 ) ) ;
#10 = DIRECTION ( 'NONE',  ( 0.0000000000000000000, 0.0000000000000000000, 1.000000000000000000 ) ) ;
#11 = DIRECTION ( 'NONE',  ( -0.0000000000000000000, 1.000000000000000000, -0.0000000000000000000 ) ) ;
#12 = CARTESIAN_POINT ( 'NONE',  ( 0.0000000000000000000, 59.65358983848611300, 0.0000000000000000000 ) ) ;
#13 = DIRECTION ( 'NONE',  ( 0.0000000000000000000, 0.0000000000000000000, 1.000000000000000000 ) ) ;
#14 = DIRECTION ( 'NONE',  ( -0.0000000000000000000, 1.000000000000000000, -0.0000000000000000000 ) ) ;
#15 = CARTESIAN_POINT ( 'NONE',  ( 0.0000000000000000000, 109.5999999999999700, 0.0000000000000000000 ) ) ;
#16 = DIRECTION ( 'NONE',  ( 0.0000000000000000000, 0.0000000000000000000, 1.000000000000000000 ) ) ;
#17 = DIRECTION ( 'NONE',  ( -0.0000000000000000000, 1.000000000000000000, -0.0000000000000000000 ) ) ;
#18 = ORIENTED_EDGE ( 'NONE', *, *, #235, .T. ) ;
#19 = ORIENTED_EDGE ( 'NONE', *, *, #222, .T. ) ;
#20 = ORIENTED_EDGE ( 'NONE', *, *, #257, .T. ) ;
#21 = EDGE_LOOP ( 'NONE', ( #525, #526, #539, #538 ) ) ;
#22 = EDGE_LOOP ( 'NONE', ( #531, #529, #530, #528 ) ) ;
#23 = EDGE_LOOP ( 'NONE', ( #544, #542, #543, #541 ) ) ;
#24 = EDGE_LOOP ( 'NONE', ( #537, #535, #536, #534 ) ) ;
#25 = EDGE_LOOP ( 'NONE', ( #545, #540, #527, #533 ) ) ;
#26 = EDGE_LOOP ( 'NONE', ( #546, #548, #547, #549 ) ) ;
#27 = EDGE_LOOP ( 'NONE', ( #521, #523, #522, #524 ) ) ;
#28 = EDGE_LOOP ( 'NONE', ( #44, #20, #532, #82 ) ) ;
#29 = EDGE_LOOP ( 'NONE', ( #81, #79, #80, #78 ) ) ;
#30 = EDGE_LOOP ( 'NONE', ( #77, #75, #76 ) ) ;
#31 = EDGE_LOOP ( 'NONE', ( #74, #73, #72 ) ) ;
#32 = EDGE_LOOP ( 'NONE', ( #70, #69, #68, #71 ) ) ;
#33 = EDGE_LOOP ( 'NONE', ( #66, #65, #64, #67 ) ) ;
#34 = EDGE_LOOP ( 'NONE', ( #62, #61, #60, #63 ) ) ;
#35 = EDGE_LOOP ( 'NONE', ( #58, #57, #56, #59 ) ) ;
#36 = EDGE_LOOP ( 'NONE', ( #54, #53, #55, #51 ) ) ;
#37 = EDGE_LOOP ( 'NONE', ( #50, #48 ) ) ;
#38 = EDGE_LOOP ( 'NONE', ( #52, #47 ) ) ;
#39 = EDGE_LOOP ( 'NONE', ( #46, #45, #49, #18 ) ) ;
#40 = EDGE_LOOP ( 'NONE', ( #571, #570, #569, #19 ) ) ;
#41 = EDGE_LOOP ( 'NONE', ( #567, #566, #565, #568 ) ) ;
#42 = EDGE_LOOP ( 'NONE', ( #563, #562, #564, #561 ) ) ;
#43 = EDGE_LOOP ( 'NONE', ( #560, #559 ) ) ;
#44 = ORIENTED_EDGE ( 'NONE', *, *, #224, .T. ) ;
#45 = ORIENTED_EDGE ( 'NONE', *, *, #222, .F. ) ;
#46 = ORIENTED_EDGE ( 'NONE', *, *, #269, .F. ) ;
#47 = ORIENTED_EDGE ( 'NONE', *, *, #268, .T. ) ;
#48 = ORIENTED_EDGE ( 'NONE', *, *, #272, .F. ) ;
#49 = ORIENTED_EDGE ( 'NONE', *, *, #264, .T. ) ;
#50 = ORIENTED_EDGE ( 'NONE', *, *, #235, .F. ) ;
#51 = ORIENTED_EDGE ( 'NONE', *, *, #237, .T. ) ;
#52 = ORIENTED_EDGE ( 'NONE', *, *, #236, .T. ) ;
#53 = ORIENTED_EDGE ( 'NONE', *, *, #236, .F. ) ;
#54 = ORIENTED_EDGE ( 'NONE', *, *, #273, .F. ) ;
#55 = ORIENTED_EDGE ( 'NONE', *, *, #275, .T. ) ;
#56 = ORIENTED_EDGE ( 'NONE', *, *, #186, .T. ) ;
#57 = ORIENTED_EDGE ( 'NONE', *, *, #238, .T. ) ;
#58 = ORIENTED_EDGE ( 'NONE', *, *, #276, .F. ) ;
#59 = ORIENTED_EDGE ( 'NONE', *, *, #237, .F. ) ;
#60 = ORIENTED_EDGE ( 'NONE', *, *, #256, .T. ) ;
#61 = ORIENTED_EDGE ( 'NONE', *, *, #239, .T. ) ;
#62 = ORIENTED_EDGE ( 'NONE', *, *, #254, .F. ) ;
#63 = ORIENTED_EDGE ( 'NONE', *, *, #238, .F. ) ;
#64 = ORIENTED_EDGE ( 'NONE', *, *, #223, .T. ) ;
#65 = ORIENTED_EDGE ( 'NONE', *, *, #240, .T. ) ;
#66 = ORIENTED_EDGE ( 'NONE', *, *, #257, .F. ) ;
#67 = ORIENTED_EDGE ( 'NONE', *, *, #239, .F. ) ;
#68 = ORIENTED_EDGE ( 'NONE', *, *, #244, .T. ) ;
#69 = ORIENTED_EDGE ( 'NONE', *, *, #241, .T. ) ;
#70 = ORIENTED_EDGE ( 'NONE', *, *, #246, .F. ) ;
#71 = ORIENTED_EDGE ( 'NONE', *, *, #240, .F. ) ;
#72 = ORIENTED_EDGE ( 'NONE', *, *, #241, .F. ) ;
#73 = ORIENTED_EDGE ( 'NONE', *, *, #242, .T. ) ;
#74 = ORIENTED_EDGE ( 'NONE', *, *, #243, .F. ) ;
#75 = ORIENTED_EDGE ( 'NONE', *, *, #243, .T. ) ;
#76 = ORIENTED_EDGE ( 'NONE', *, *, #245, .F. ) ;
#77 = ORIENTED_EDGE ( 'NONE', *, *, #242, .F. ) ;
#78 = ORIENTED_EDGE ( 'NONE', *, *, #244, .F. ) ;
#79 = ORIENTED_EDGE ( 'NONE', *, *, #246, .T. ) ;
#80 = ORIENTED_EDGE ( 'NONE', *, *, #224, .F. ) ;
#81 = ORIENTED_EDGE ( 'NONE', *, *, #245, .T. ) ;
#82 = ORIENTED_EDGE ( 'NONE', *, *, #223, .F. ) ;
#83 = VERTEX_POINT ( 'NONE', #503 ) ;
#84 = VERTEX_POINT ( 'NONE', #502 ) ;
#85 = VERTEX_POINT ( 'NONE', #501 ) ;
#86 = VERTEX_POINT ( 'NONE', #500 ) ;
#87 = VERTEX_POINT ( 'NONE', #499 ) ;
#88 = VERTEX_POINT ( 'NONE', #498 ) ;
#89 = VERTEX_POINT ( 'NONE', #497 ) ;
#90 = VERTEX_POINT ( 'NONE', #496 ) ;
#91 = VECTOR ( 'NONE', #380, 1000.000000000000000 ) ;
#92 = AXIS2_PLACEMENT_3D ( 'NONE', #398, #399, #400 ) ;
#93 = VECTOR ( 'NONE', #389, 999.9999999999998900 ) ;
#94 = VECTOR ( 'NONE', #383, 1000.000000000000000 ) ;
#95 = UNCERTAINTY_MEASURE_WITH_UNIT (LENGTH_MEASURE( 1.000000000000000100E-005 ), #552, 'distance_accuracy_value', 'NONE');
#96 = CLOSED_SHELL ( 'NONE', ( #225, #226, #227, #228, #229, #230, #231, #232, #233, #234, #215, #216, #217, #218, #219, #252, #253, #251, #250, #249, #248, #247 ) ) ;
#97 = PRESENTATION_LAYER_ASSIGNMENT (  '', '', ( #99 ) ) ;
#98 = MECHANICAL_DESIGN_GEOMETRIC_PRESENTATION_REPRESENTATION (  '', ( #99 ), #572 ) ;
#99 = STYLED_ITEM ( 'NONE', ( #553 ), #1 ) ;
#100 = FACE_OUTER_BOUND ( 'NONE', #31, .T. ) ;
#101 = FACE_OUTER_BOUND ( 'NONE', #34, .T. ) ;
#102 = AXIS2_PLACEMENT_3D ( 'NONE', #492, #491, #490 ) ;
#103 = VECTOR ( 'NONE', #493, 1000.000000000000000 ) ;
#104 = AXIS2_PLACEMENT_3D ( 'NONE', #477, #17, #16 ) ;
#105 = FACE_OUTER_BOUND ( 'NONE', #32, .T. ) ;
#106 = FACE_OUTER_BOUND ( 'NONE', #33, .T. ) ;
#107 = AXIS2_PLACEMENT_3D ( 'NONE', #489, #488, #487 ) ;
#108 = AXIS2_PLACEMENT_3D ( 'NONE', #486, #485, #484 ) ;
#109 = CYLINDRICAL_SURFACE ( 'NONE', #108, 10.00000000000028400 ) ;
#110 = FACE_OUTER_BOUND ( 'NONE', #35, .T. ) ;
#111 = AXIS2_PLACEMENT_3D ( 'NONE', #483, #482, #481 ) ;
#112 = AXIS2_PLACEMENT_3D ( 'NONE', #480, #479, #478 ) ;
#113 = CYLINDRICAL_SURFACE ( 'NONE', #112, 13.00000000000085300 ) ;
#114 = AXIS2_PLACEMENT_3D ( 'NONE', #3, #280, #369 ) ;
#115 = FACE_OUTER_BOUND ( 'NONE', #23, .T. ) ;
#116 = AXIS2_PLACEMENT_3D ( 'NONE', #15, #14, #13 ) ;
#117 = AXIS2_PLACEMENT_3D ( 'NONE', #12, #11, #10 ) ;
#118 = FACE_OUTER_BOUND ( 'NONE', #21, .T. ) ;
#119 = AXIS2_PLACEMENT_3D ( 'NONE', #9, #5, #4 ) ;
#120 = VECTOR ( 'NONE', #6, 1000.000000000000000 ) ;
#121 = FACE_OUTER_BOUND ( 'NONE', #27, .T. ) ;
#122 = FACE_OUTER_BOUND ( 'NONE', #22, .T. ) ;
#123 = AXIS2_PLACEMENT_3D ( 'NONE', #2, #285, #286 ) ;
#124 = CYLINDRICAL_SURFACE ( 'NONE', #123, 9.999999999993860900 ) ;
#125 = FACE_OUTER_BOUND ( 'NONE', #24, .T. ) ;
#126 = AXIS2_PLACEMENT_3D ( 'NONE', #311, #312, #313 ) ;
#127 = AXIS2_PLACEMENT_3D ( 'NONE', #287, #288, #289 ) ;
#128 = FACE_OUTER_BOUND ( 'NONE', #25, .T. ) ;
#129 = AXIS2_PLACEMENT_3D ( 'NONE', #290, #291, #292 ) ;
#130 = FACE_OUTER_BOUND ( 'NONE', #26, .T. ) ;
#131 = AXIS2_PLACEMENT_3D ( 'NONE', #293, #294, #295 ) ;
#132 = AXIS2_PLACEMENT_3D ( 'NONE', #296, #297, #298 ) ;
#133 = CYLINDRICAL_SURFACE ( 'NONE', #132, 13.00000000000085300 ) ;
#134 = FACE_OUTER_BOUND ( 'NONE', #29, .T. ) ;
#135 = FACE_OUTER_BOUND ( 'NONE', #28, .T. ) ;
#136 = AXIS2_PLACEMENT_3D ( 'NONE', #299, #300, #301 ) ;
#137 = AXIS2_PLACEMENT_3D ( 'NONE', #302, #303, #304 ) ;
#138 = CYLINDRICAL_SURFACE ( 'NONE', #137, 10.00000000000028400 ) ;
#139 = AXIS2_PLACEMENT_3D ( 'NONE', #377, #384, #385 ) ;
#140 = FACE_OUTER_BOUND ( 'NONE', #30, .T. ) ;
#141 = AXIS2_PLACEMENT_3D ( 'NONE', #305, #306, #307 ) ;
#142 = AXIS2_PLACEMENT_3D ( 'NONE', #308, #309, #310 ) ;
#143 = AXIS2_PLACEMENT_3D ( 'NONE', #323, #324, #325 ) ;
#144 = AXIS2_PLACEMENT_3D ( 'NONE', #314, #315, #316 ) ;
#145 = AXIS2_PLACEMENT_3D ( 'NONE', #317, #318, #319 ) ;
#146 = AXIS2_PLACEMENT_3D ( 'NONE', #320, #321, #322 ) ;
#147 = AXIS2_PLACEMENT_3D ( 'NONE', #329, #330, #331 ) ;
#148 = AXIS2_PLACEMENT_3D ( 'NONE', #326, #327, #328 ) ;
#149 = VECTOR ( 'NONE', #335, 1000.000000000000000 ) ;
#150 = AXIS2_PLACEMENT_3D ( 'NONE', #332, #342, #343 ) ;
#151 = VECTOR ( 'NONE', #338, 1000.000000000000000 ) ;
#152 = FACE_OUTER_BOUND ( 'NONE', #43, .T. ) ;
#153 = VECTOR ( 'NONE', #341, 999.9999999999998900 ) ;
#154 = FACE_OUTER_BOUND ( 'NONE', #41, .T. ) ;
#155 = FACE_OUTER_BOUND ( 'NONE', #42, .T. ) ;
#156 = VECTOR ( 'NONE', #347, 999.9999999999998900 ) ;
#157 = AXIS2_PLACEMENT_3D ( 'NONE', #348, #349, #350 ) ;
#158 = FACE_OUTER_BOUND ( 'NONE', #40, .T. ) ;
#159 = AXIS2_PLACEMENT_3D ( 'NONE', #351, #352, #353 ) ;
#160 = AXIS2_PLACEMENT_3D ( 'NONE', #354, #355, #356 ) ;
#161 = CYLINDRICAL_SURFACE ( 'NONE', #160, 9.999999999993860900 ) ;
#162 = FACE_OUTER_BOUND ( 'NONE', #39, .T. ) ;
#163 = AXIS2_PLACEMENT_3D ( 'NONE', #357, #358, #359 ) ;
#164 = FACE_OUTER_BOUND ( 'NONE', #36, .T. ) ;
#165 = AXIS2_PLACEMENT_3D ( 'NONE', #360, #361, #362 ) ;
#166 = FACE_BOUND ( 'NONE', #37, .T. ) ;
#167 = AXIS2_PLACEMENT_3D ( 'NONE', #363, #364, #365 ) ;
#168 = FACE_OUTER_BOUND ( 'NONE', #38, .T. ) ;
#169 = AXIS2_PLACEMENT_3D ( 'NONE', #374, #375, #376 ) ;
#170 = AXIS2_PLACEMENT_3D ( 'NONE', #367, #368, #370 ) ;
#171 = VECTOR ( 'NONE', #373, 1000.000000000000000 ) ;
#172 = PRODUCT_DEFINITION ( 'UNKNOWN', '', #596, #504 ) ;
#173 = COLOUR_RGB ( '',0.7921568627450980000, 0.8196078431372548800, 0.9333333333333333500 ) ;
#174 = CONICAL_SURFACE ( 'NONE', #107, 2.000000000004149600, 0.7853981633968922800 ) ;
#175 = PRODUCT_RELATED_PRODUCT_CATEGORY ( 'part', '', ( #284 ) ) ;
#176 = CIRCLE ( 'NONE', #590, 13.00000000000085300 ) ;
#177 = CIRCLE ( 'NONE', #583, 11.19999999999390600 ) ;
#178 = CIRCLE ( 'NONE', #584, 9.999999999993860900 ) ;
#179 = CIRCLE ( 'NONE', #585, 10.59999999999383700 ) ;
#180 = CIRCLE ( 'NONE', #581, 12.80000000000080700 ) ;
#181 = CIRCLE ( 'NONE', #576, 0.3999999999999993000 ) ;
#182 = CIRCLE ( 'NONE', #579, 9.999999999993860900 ) ;
#183 = CIRCLE ( 'NONE', #580, 9.599999999999852200 ) ;
#184 = CIRCLE ( 'NONE', #92, 0.3999999999999993000 ) ;
#185 = CIRCLE ( 'NONE', #577, 9.999999999993860900 ) ;
#186 = EDGE_CURVE ( 'NONE', #506, #508, #495, .T. ) ;
#187 = CIRCLE ( 'NONE', #169, 10.00000000000028400 ) ;
#188 = CIRCLE ( 'NONE', #139, 13.00000000000085300 ) ;
#189 = TOROIDAL_SURFACE ( 'NONE', #163, 10.39999999999386100, 0.3999999999999995200 ) ;
#190 = CONICAL_SURFACE ( 'NONE', #167, 13.00000000000085300, 0.7853981633974612700 ) ;
#191 = CONICAL_SURFACE ( 'NONE', #159, 9.999999999993860900, 0.7853981633899803600 ) ;
#192 = CONICAL_SURFACE ( 'NONE', #165, 11.19999999999390600, 1.047197551196649600 ) ;
#193 = CIRCLE ( 'NONE', #150, 2.000000000004149600 ) ;
#194 = CIRCLE ( 'NONE', #147, 2.000000000004149600 ) ;
#195 = CIRCLE ( 'NONE', #148, 10.00000000000028400 ) ;
#196 = CIRCLE ( 'NONE', #143, 10.00000000000028400 ) ;
#197 = CIRCLE ( 'NONE', #146, 13.00000000000085300 ) ;
#198 = CIRCLE ( 'NONE', #145, 13.00000000000085300 ) ;
#199 = CIRCLE ( 'NONE', #144, 12.80000000000080700 ) ;
#200 = CIRCLE ( 'NONE', #126, 11.19999999999390600 ) ;
#201 = CONICAL_SURFACE ( 'NONE', #141, 2.000000000004149600, 0.7853981633968922800 ) ;
#202 = CONICAL_SURFACE ( 'NONE', #136, 10.00000000000028400, 0.4205343352856557600 ) ;
#203 = CONICAL_SURFACE ( 'NONE', #142, 1732.050807567369700, 1.047197551196220800 ) ;
#204 = TOROIDAL_SURFACE ( 'NONE', #127, 10.39999999999386100, 0.3999999999999995200 ) ;
#205 = CONICAL_SURFACE ( 'NONE', #131, 13.00000000000085300, 0.7853981633974612700 ) ;
#206 = CONICAL_SURFACE ( 'NONE', #129, 11.19999999999390600, 1.047197551196649600 ) ;
#207 = CONICAL_SURFACE ( 'NONE', #114, 9.999999999993860900, 0.7853981633899803600 ) ;
#208 = CIRCLE ( 'NONE', #119, 10.00000000000028400 ) ;
#209 = CIRCLE ( 'NONE', #117, 10.59999999999383700 ) ;
#210 = CIRCLE ( 'NONE', #116, 9.999999999993860900 ) ;
#211 = CONICAL_SURFACE ( 'NONE', #111, 10.00000000000028400, 0.4205343352856557600 ) ;
#212 = CIRCLE ( 'NONE', #104, 9.599999999999852200 ) ;
#213 = CONICAL_SURFACE ( 'NONE', #102, 1732.050807567369700, 1.047197551196220800 ) ;
#214 = COLOUR_RGB ( '',0.7921568627450980000, 0.8196078431372548800, 0.9333333333333333500 ) ;
#215 = ADVANCED_FACE ( 'NONE', ( #100 ), #213, .T. ) ;
#216 = ADVANCED_FACE ( 'NONE', ( #105 ), #174, .T. ) ;
#217 = ADVANCED_FACE ( 'NONE', ( #106 ), #109, .T. ) ;
#218 = ADVANCED_FACE ( 'NONE', ( #101 ), #211, .T. ) ;
#219 = ADVANCED_FACE ( 'NONE', ( #110 ), #113, .T. ) ;
#220 = EDGE_CURVE ( 'NONE', #519, #520, #212, .T. ) ;
#221 = EDGE_CURVE ( 'NONE', #517, #518, #210, .T. ) ;
#222 = EDGE_CURVE ( 'NONE', #513, #514, #209, .T. ) ;
#223 = EDGE_CURVE ( 'NONE', #87, #89, #8, .T. ) ;
#224 = EDGE_CURVE ( 'NONE', #87, #86, #208, .T. ) ;
#225 = ADVANCED_FACE ( 'NONE', ( #118 ), #207, .T. ) ;
#226 = ADVANCED_FACE ( 'NONE', ( #122 ), #124, .T. ) ;
#227 = ADVANCED_FACE ( 'NONE', ( #115 ), #204, .F. ) ;
#228 = ADVANCED_FACE ( 'NONE', ( #125 ), #206, .F. ) ;
#229 = ADVANCED_FACE ( 'NONE', ( #128 ), #205, .T. ) ;
#230 = ADVANCED_FACE ( 'NONE', ( #130 ), #133, .T. ) ;
#231 = ADVANCED_FACE ( 'NONE', ( #121 ), #202, .T. ) ;
#232 = ADVANCED_FACE ( 'NONE', ( #135 ), #138, .T. ) ;
#233 = ADVANCED_FACE ( 'NONE', ( #134 ), #201, .T. ) ;
#234 = ADVANCED_FACE ( 'NONE', ( #140 ), #203, .T. ) ;
#235 = EDGE_CURVE ( 'NONE', #511, #512, #200, .T. ) ;
#236 = EDGE_CURVE ( 'NONE', #509, #510, #199, .T. ) ;
#237 = EDGE_CURVE ( 'NONE', #507, #508, #198, .T. ) ;
#238 = EDGE_CURVE ( 'NONE', #90, #506, #197, .T. ) ;
#239 = EDGE_CURVE ( 'NONE', #88, #89, #196, .T. ) ;
#240 = EDGE_CURVE ( 'NONE', #86, #87, #195, .T. ) ;
#241 = EDGE_CURVE ( 'NONE', #84, #85, #194, .T. ) ;
#242 = EDGE_CURVE ( 'NONE', #83, #85, #333, .T. ) ;
#243 = EDGE_CURVE ( 'NONE', #83, #84, #336, .T. ) ;
#244 = EDGE_CURVE ( 'NONE', #85, #87, #339, .T. ) ;
#245 = EDGE_CURVE ( 'NONE', #85, #84, #193, .T. ) ;
#246 = EDGE_CURVE ( 'NONE', #84, #86, #345, .T. ) ;
#247 = ADVANCED_FACE ( 'NONE', ( #152 ), #344, .F. ) ;
#248 = ADVANCED_FACE ( 'NONE', ( #155 ), #191, .T. ) ;
#249 = ADVANCED_FACE ( 'NONE', ( #154 ), #161, .T. ) ;
#250 = ADVANCED_FACE ( 'NONE', ( #158 ), #189, .F. ) ;
#251 = ADVANCED_FACE ( 'NONE', ( #162 ), #192, .F. ) ;
#252 = ADVANCED_FACE ( 'NONE', ( #164 ), #190, .T. ) ;
#253 = ADVANCED_FACE ( 'NONE', ( #166, #168 ), #366, .F. ) ;
#254 = EDGE_CURVE ( 'NONE', #88, #90, #371, .T. ) ;
#255 = EDGE_CURVE ( 'NONE', #89, #88, #187, .T. ) ;
#256 = EDGE_CURVE ( 'NONE', #89, #506, #378, .T. ) ;
#257 = EDGE_CURVE ( 'NONE', #86, #88, #381, .T. ) ;
#258 = EDGE_CURVE ( 'NONE', #508, #507, #188, .T. ) ;
#259 = EDGE_CURVE ( 'NONE', #520, #518, #387, .T. ) ;
#260 = EDGE_CURVE ( 'NONE', #515, #517, #390, .T. ) ;
#261 = EDGE_CURVE ( 'NONE', #516, #518, #393, .T. ) ;
#262 = EDGE_CURVE ( 'NONE', #518, #517, #185, .T. ) ;
#263 = EDGE_CURVE ( 'NONE', #515, #514, #184, .T. ) ;
#264 = EDGE_CURVE ( 'NONE', #513, #511, #402, .T. ) ;
#265 = EDGE_CURVE ( 'NONE', #520, #519, #183, .T. ) ;
#266 = EDGE_CURVE ( 'NONE', #516, #515, #182, .T. ) ;
#267 = EDGE_CURVE ( 'NONE', #516, #513, #181, .T. ) ;
#268 = EDGE_CURVE ( 'NONE', #510, #509, #180, .T. ) ;
#269 = EDGE_CURVE ( 'NONE', #514, #512, #417, .T. ) ;
#270 = EDGE_CURVE ( 'NONE', #514, #513, #179, .T. ) ;
#271 = EDGE_CURVE ( 'NONE', #515, #516, #178, .T. ) ;
#272 = EDGE_CURVE ( 'NONE', #512, #511, #177, .T. ) ;
#273 = EDGE_CURVE ( 'NONE', #510, #508, #429, .T. ) ;
#274 = EDGE_CURVE ( 'NONE', #519, #517, #432, .T. ) ;
#275 = EDGE_CURVE ( 'NONE', #509, #507, #435, .T. ) ;
#276 = EDGE_CURVE ( 'NONE', #90, #507, #438, .T. ) ;
#277 = EDGE_CURVE ( 'NONE', #506, #90, #176, .T. ) ;
#278 = APPLICATION_CONTEXT ( 'automotive_design' ) ;
#279 = APPLICATION_CONTEXT ( 'automotive_design' ) ;
#280 = DIRECTION ( 'NONE',  ( 0.0000000000000000000, -1.000000000000000000, 0.0000000000000000000 ) ) ;
#281 = UNCERTAINTY_MEASURE_WITH_UNIT (LENGTH_MEASURE( 1.000000000000000100E-005 ), #468, 'distance_accuracy_value', 'NONE');
#282 = ADVANCED_BREP_SHAPE_REPRESENTATION ( '99688-SI20-20+S9MT2004-090', ( #1, #595 ), #573 ) ;
#283 = UNCERTAINTY_MEASURE_WITH_UNIT (LENGTH_MEASURE( 1.000000000000000100E-005 ), #458, 'distance_accuracy_value', 'NONE');
#284 = PRODUCT ( '99688-SI20-20+S9MT2004-090', '99688-SI20-20+S9MT2004-090', '', ( #475 ) ) ;
#285 = DIRECTION ( 'NONE',  ( -0.0000000000000000000, 1.000000000000000000, -0.0000000000000000000 ) ) ;
#286 = DIRECTION ( 'NONE',  ( 0.0000000000000000000, 0.0000000000000000000, 1.000000000000000000 ) ) ;
#287 = CARTESIAN_POINT ( 'NONE',  ( 0.0000000000000000000, 59.99999999999990100, 0.0000000000000000000 ) ) ;
#288 = DIRECTION ( 'NONE',  ( -0.0000000000000000000, 1.000000000000000000, -0.0000000000000000000 ) ) ;
#289 = DIRECTION ( 'NONE',  ( 0.0000000000000000000, 0.0000000000000000000, 1.000000000000000000 ) ) ;
#290 = CARTESIAN_POINT ( 'NONE',  ( 0.0000000000000000000, 59.99999999999988600, 0.0000000000000000000 ) ) ;
#291 = DIRECTION ( 'NONE',  ( -0.0000000000000000000, 1.000000000000000000, -0.0000000000000000000 ) ) ;
#292 = DIRECTION ( 'NONE',  ( 0.0000000000000000000, 0.0000000000000000000, 1.000000000000000000 ) ) ;
#293 = CARTESIAN_POINT ( 'NONE',  ( 0.0000000000000000000, 59.79999999999995500, 0.0000000000000000000 ) ) ;
#294 = DIRECTION ( 'NONE',  ( 0.0000000000000000000, -1.000000000000000000, 0.0000000000000000000 ) ) ;
#295 = DIRECTION ( 'NONE',  ( 0.0000000000000000000, 0.0000000000000000000, -1.000000000000000000 ) ) ;
#296 = CARTESIAN_POINT ( 'NONE',  ( 0.0000000000000000000, 110.0000000000000600, 0.0000000000000000000 ) ) ;
#297 = DIRECTION ( 'NONE',  ( -0.0000000000000000000, 1.000000000000000000, -0.0000000000000000000 ) ) ;
#298 = DIRECTION ( 'NONE',  ( 0.0000000000000000000, 0.0000000000000000000, 1.000000000000000000 ) ) ;
#299 = CARTESIAN_POINT ( 'NONE',  ( 0.0000000000000000000, 20.52786404500232800, 0.0000000000000000000 ) ) ;
#300 = DIRECTION ( 'NONE',  ( -0.0000000000000000000, 1.000000000000000000, -0.0000000000000000000 ) ) ;
#301 = DIRECTION ( 'NONE',  ( 0.0000000000000000000, 0.0000000000000000000, 1.000000000000000000 ) ) ;
#302 = CARTESIAN_POINT ( 'NONE',  ( 0.0000000000000000000, 110.0000000000000600, 0.0000000000000000000 ) ) ;
#303 = DIRECTION ( 'NONE',  ( -0.0000000000000000000, 1.000000000000000000, -0.0000000000000000000 ) ) ;
#304 = DIRECTION ( 'NONE',  ( 0.0000000000000000000, 0.0000000000000000000, 1.000000000000000000 ) ) ;
#305 = CARTESIAN_POINT ( 'NONE',  ( 0.0000000000000000000, 1.154700538382652500, 0.0000000000000000000 ) ) ;
#306 = DIRECTION ( 'NONE',  ( -0.0000000000000000000, 1.000000000000000000, -0.0000000000000000000 ) ) ;
#307 = DIRECTION ( 'NONE',  ( 0.0000000000000000000, 0.0000000000000000000, 1.000000000000000000 ) ) ;
#308 = CARTESIAN_POINT ( 'NONE',  ( 0.0000000000000000000, 1000.000000000000000, 0.0000000000000000000 ) ) ;
#309 = DIRECTION ( 'NONE',  ( -0.0000000000000000000, 1.000000000000000000, -0.0000000000000000000 ) ) ;
#310 = DIRECTION ( 'NONE',  ( 0.0000000000000000000, 0.0000000000000000000, 1.000000000000000000 ) ) ;
#311 = CARTESIAN_POINT ( 'NONE',  ( 0.0000000000000000000, 59.99999999999988600, 0.0000000000000000000 ) ) ;
#312 = DIRECTION ( 'NONE',  ( -0.0000000000000000000, 1.000000000000000000, -0.0000000000000000000 ) ) ;
#313 = DIRECTION ( 'NONE',  ( 0.0000000000000000000, 0.0000000000000000000, 1.000000000000000000 ) ) ;
#314 = CARTESIAN_POINT ( 'NONE',  ( 0.0000000000000000000, 60.00000000000000000, 0.0000000000000000000 ) ) ;
#315 = DIRECTION ( 'NONE',  ( -0.0000000000000000000, 1.000000000000000000, -0.0000000000000000000 ) ) ;
#316 = DIRECTION ( 'NONE',  ( 0.0000000000000000000, 0.0000000000000000000, 1.000000000000000000 ) ) ;
#317 = CARTESIAN_POINT ( 'NONE',  ( 0.0000000000000000000, 59.79999999999995500, 0.0000000000000000000 ) ) ;
#318 = DIRECTION ( 'NONE',  ( -0.0000000000000000000, 1.000000000000000000, -0.0000000000000000000 ) ) ;
#319 = DIRECTION ( 'NONE',  ( 0.0000000000000000000, 0.0000000000000000000, 1.000000000000000000 ) ) ;
#320 = CARTESIAN_POINT ( 'NONE',  ( 0.0000000000000000000, 27.23606797747253700, 0.0000000000000000000 ) ) ;
#321 = DIRECTION ( 'NONE',  ( -0.0000000000000000000, 1.000000000000000000, -0.0000000000000000000 ) ) ;
#322 = DIRECTION ( 'NONE',  ( 0.0000000000000000000, 0.0000000000000000000, 1.000000000000000000 ) ) ;
#323 = CARTESIAN_POINT ( 'NONE',  ( 0.0000000000000000000, 20.52786404500232800, 0.0000000000000000000 ) ) ;
#324 = DIRECTION ( 'NONE',  ( -0.0000000000000000000, 1.000000000000000000, -0.0000000000000000000 ) ) ;
#325 = DIRECTION ( 'NONE',  ( 0.0000000000000000000, 0.0000000000000000000, 1.000000000000000000 ) ) ;
#326 = CARTESIAN_POINT ( 'NONE',  ( 0.0000000000000000000, 9.154700538387682900, 0.0000000000000000000 ) ) ;
#327 = DIRECTION ( 'NONE',  ( -0.0000000000000000000, 1.000000000000000000, -0.0000000000000000000 ) ) ;
#328 = DIRECTION ( 'NONE',  ( 0.0000000000000000000, 0.0000000000000000000, 1.000000000000000000 ) ) ;
#329 = CARTESIAN_POINT ( 'NONE',  ( 0.0000000000000000000, 1.154700538382652500, 0.0000000000000000000 ) ) ;
#330 = DIRECTION ( 'NONE',  ( -0.0000000000000000000, 1.000000000000000000, -0.0000000000000000000 ) ) ;
#331 = DIRECTION ( 'NONE',  ( 0.0000000000000000000, 0.0000000000000000000, 1.000000000000000000 ) ) ;
#332 = CARTESIAN_POINT ( 'NONE',  ( 0.0000000000000000000, 1.154700538382652500, 0.0000000000000000000 ) ) ;
#333 = LINE ( 'NONE', #334, #149 ) ;
#334 = CARTESIAN_POINT ( 'NONE',  ( 0.0000000000000000000, 0.0000000000000000000, 0.0000000000000000000 ) ) ;
#335 = DIRECTION ( 'NONE',  ( 0.0000000000000000000, 0.5000000000003264100, 0.8660254037842501900 ) ) ;
#336 = LINE ( 'NONE', #337, #151 ) ;
#337 = CARTESIAN_POINT ( 'NONE',  ( 0.0000000000000000000, 0.0000000000000000000, 0.0000000000000000000 ) ) ;
#338 = DIRECTION ( 'NONE',  ( 1.060575238724676000E-016, 0.5000000000003264100, -0.8660254037842501900 ) ) ;
#339 = LINE ( 'NONE', #340, #153 ) ;
#340 = CARTESIAN_POINT ( 'NONE',  ( 0.0000000000000000000, 1.154700538382652500, 2.000000000004149600 ) ) ;
#341 = DIRECTION ( 'NONE',  ( 0.0000000000000000000, 0.7071067811869408100, 0.7071067811861544400 ) ) ;
#342 = DIRECTION ( 'NONE',  ( -0.0000000000000000000, 1.000000000000000000, -0.0000000000000000000 ) ) ;
#343 = DIRECTION ( 'NONE',  ( 0.0000000000000000000, 0.0000000000000000000, 1.000000000000000000 ) ) ;
#344 = PLANE ( 'NONE',  #157 ) ;
#345 = LINE ( 'NONE', #346, #156 ) ;
#346 = CARTESIAN_POINT ( 'NONE',  ( 2.449293598299787700E-016, 1.154700538382652500, -2.000000000004149600 ) ) ;
#347 = DIRECTION ( 'NONE',  ( 8.659560562350119600E-017, 0.7071067811869408100, -0.7071067811861544400 ) ) ;
#348 = CARTESIAN_POINT ( 'NONE',  ( 0.0000000000000000000, 110.0000000000000000, 0.0000000000000000000 ) ) ;
#349 = DIRECTION ( 'NONE',  ( 0.0000000000000000000, -1.000000000000000000, 0.0000000000000000000 ) ) ;
#350 = DIRECTION ( 'NONE',  ( 0.0000000000000000000, -0.0000000000000000000, -1.000000000000000000 ) ) ;
#351 = CARTESIAN_POINT ( 'NONE',  ( 0.0000000000000000000, 109.5999999999999700, 0.0000000000000000000 ) ) ;
#352 = DIRECTION ( 'NONE',  ( 0.0000000000000000000, -1.000000000000000000, 0.0000000000000000000 ) ) ;
#353 = DIRECTION ( 'NONE',  ( 0.0000000000000000000, 0.0000000000000000000, -1.000000000000000000 ) ) ;
#354 = CARTESIAN_POINT ( 'NONE',  ( 0.0000000000000000000, 110.0000000000000600, 0.0000000000000000000 ) ) ;
#355 = DIRECTION ( 'NONE',  ( -0.0000000000000000000, 1.000000000000000000, -0.0000000000000000000 ) ) ;
#356 = DIRECTION ( 'NONE',  ( 0.0000000000000000000, 0.0000000000000000000, 1.000000000000000000 ) ) ;
#357 = CARTESIAN_POINT ( 'NONE',  ( 0.0000000000000000000, 59.99999999999990100, 0.0000000000000000000 ) ) ;
#358 = DIRECTION ( 'NONE',  ( -0.0000000000000000000, 1.000000000000000000, -0.0000000000000000000 ) ) ;
#359 = DIRECTION ( 'NONE',  ( 0.0000000000000000000, 0.0000000000000000000, 1.000000000000000000 ) ) ;
#360 = CARTESIAN_POINT ( 'NONE',  ( 0.0000000000000000000, 59.99999999999988600, 0.0000000000000000000 ) ) ;
#361 = DIRECTION ( 'NONE',  ( -0.0000000000000000000, 1.000000000000000000, -0.0000000000000000000 ) ) ;
#362 = DIRECTION ( 'NONE',  ( 0.0000000000000000000, 0.0000000000000000000, 1.000000000000000000 ) ) ;
#363 = CARTESIAN_POINT ( 'NONE',  ( 0.0000000000000000000, 59.79999999999995500, 0.0000000000000000000 ) ) ;
#364 = DIRECTION ( 'NONE',  ( 0.0000000000000000000, -1.000000000000000000, 0.0000000000000000000 ) ) ;
#365 = DIRECTION ( 'NONE',  ( 0.0000000000000000000, 0.0000000000000000000, -1.000000000000000000 ) ) ;
#366 = PLANE ( 'NONE',  #170 ) ;
#367 = CARTESIAN_POINT ( 'NONE',  ( 11.19999999999390600, 59.99999999999994300, 0.0000000000000000000 ) ) ;
#368 = DIRECTION ( 'NONE',  ( 0.0000000000000000000, -1.000000000000000000, 0.0000000000000000000 ) ) ;
#369 = DIRECTION ( 'NONE',  ( 0.0000000000000000000, 0.0000000000000000000, -1.000000000000000000 ) ) ;
#370 = DIRECTION ( 'NONE',  ( 0.0000000000000000000, -0.0000000000000000000, -1.000000000000000000 ) ) ;
#371 = LINE ( 'NONE', #372, #171 ) ;
#372 = CARTESIAN_POINT ( 'NONE',  ( 1.224646799147388000E-015, 20.52786404500232800, -10.00000000000028400 ) ) ;
#373 = DIRECTION ( 'NONE',  ( 4.999599621758388000E-017, 0.9128709291745866800, -0.4082482904654063400 ) ) ;
#374 = CARTESIAN_POINT ( 'NONE',  ( 0.0000000000000000000, 20.52786404500232800, 0.0000000000000000000 ) ) ;
#375 = DIRECTION ( 'NONE',  ( -0.0000000000000000000, 1.000000000000000000, -0.0000000000000000000 ) ) ;
#376 = DIRECTION ( 'NONE',  ( 0.0000000000000000000, 0.0000000000000000000, 1.000000000000000000 ) ) ;
#377 = CARTESIAN_POINT ( 'NONE',  ( 0.0000000000000000000, 59.79999999999995500, 0.0000000000000000000 ) ) ;
#378 = LINE ( 'NONE', #379, #91 ) ;
#379 = CARTESIAN_POINT ( 'NONE',  ( 0.0000000000000000000, 20.52786404500232800, 10.00000000000028400 ) ) ;
#380 = DIRECTION ( 'NONE',  ( 0.0000000000000000000, 0.9128709291745866800, 0.4082482904654063400 ) ) ;
#381 = LINE ( 'NONE', #382, #94 ) ;
#382 = CARTESIAN_POINT ( 'NONE',  ( 1.224646799147388000E-015, 110.0000000000000600, -10.00000000000028400 ) ) ;
#383 = DIRECTION ( 'NONE',  ( -0.0000000000000000000, 1.000000000000000000, -0.0000000000000000000 ) ) ;
#384 = DIRECTION ( 'NONE',  ( -0.0000000000000000000, 1.000000000000000000, -0.0000000000000000000 ) ) ;
#385 = DIRECTION ( 'NONE',  ( 0.0000000000000000000, 0.0000000000000000000, 1.000000000000000000 ) ) ;
#386 = CARTESIAN_POINT ( 'NONE',  ( 0.0000000000000000000, 109.5999999999999700, 0.0000000000000000000 ) ) ;
#387 = LINE ( 'NONE', #388, #93 ) ;
#388 = CARTESIAN_POINT ( 'NONE',  ( 1.224646799146601300E-015, 109.5999999999999700, 9.999999999993860900 ) ) ;
#389 = DIRECTION ( 'NONE',  ( 8.659560562290264800E-017, -0.7071067811918281300, 0.7071067811812670200 ) ) ;
#390 = LINE ( 'NONE', #391, #575 ) ;
#391 = CARTESIAN_POINT ( 'NONE',  ( 1.224646799146601300E-015, 110.0000000000000600, -9.999999999993860900 ) ) ;
#392 = DIRECTION ( 'NONE',  ( -0.0000000000000000000, 1.000000000000000000, -0.0000000000000000000 ) ) ;
#393 = LINE ( 'NONE', #394, #578 ) ;
#394 = CARTESIAN_POINT ( 'NONE',  ( 0.0000000000000000000, 110.0000000000000600, 9.999999999993860900 ) ) ;
#395 = DIRECTION ( 'NONE',  ( -0.0000000000000000000, 1.000000000000000000, -0.0000000000000000000 ) ) ;
#396 = DIRECTION ( 'NONE',  ( -0.0000000000000000000, 1.000000000000000000, -0.0000000000000000000 ) ) ;
#397 = DIRECTION ( 'NONE',  ( 0.0000000000000000000, 0.0000000000000000000, 1.000000000000000000 ) ) ;
#398 = CARTESIAN_POINT ( 'NONE',  ( 1.273632671112495700E-015, 59.99999999999990100, -10.39999999999386100 ) ) ;
#399 = DIRECTION ( 'NONE',  ( 1.000000000000000000, 0.0000000000000000000, 1.224646799147353200E-016 ) ) ;
#400 = DIRECTION ( 'NONE',  ( 1.224646799147353500E-016, 0.0000000000000000000, -1.000000000000000000 ) ) ;
#401 = CARTESIAN_POINT ( 'NONE',  ( 0.0000000000000000000, 109.9999999999999400, 0.0000000000000000000 ) ) ;
#402 = LINE ( 'NONE', #403, #582 ) ;
#403 = CARTESIAN_POINT ( 'NONE',  ( 0.0000000000000000000, 59.99999999999988600, 11.19999999999390600 ) ) ;
#404 = DIRECTION ( 'NONE',  ( 0.0000000000000000000, 0.4999999999999550400, 0.8660254037844645800 ) ) ;
#405 = DIRECTION ( 'NONE',  ( -0.0000000000000000000, 1.000000000000000000, -0.0000000000000000000 ) ) ;
#406 = DIRECTION ( 'NONE',  ( 0.0000000000000000000, 0.0000000000000000000, 1.000000000000000000 ) ) ;
#407 = CARTESIAN_POINT ( 'NONE',  ( 0.0000000000000000000, 59.99999999999988600, 0.0000000000000000000 ) ) ;
#408 = DIRECTION ( 'NONE',  ( -0.0000000000000000000, 1.000000000000000000, -0.0000000000000000000 ) ) ;
#409 = DIRECTION ( 'NONE',  ( 0.0000000000000000000, 0.0000000000000000000, 1.000000000000000000 ) ) ;
#410 = CARTESIAN_POINT ( 'NONE',  ( 0.0000000000000000000, 59.99999999999990100, 10.39999999999386100 ) ) ;
#411 = DIRECTION ( 'NONE',  ( -1.000000000000000000, 0.0000000000000000000, 0.0000000000000000000 ) ) ;
#412 = DIRECTION ( 'NONE',  ( 0.0000000000000000000, 0.0000000000000000000, 1.000000000000000000 ) ) ;
#413 = CARTESIAN_POINT ( 'NONE',  ( 0.0000000000000000000, 60.00000000000000000, 0.0000000000000000000 ) ) ;
#414 = DIRECTION ( 'NONE',  ( -0.0000000000000000000, 1.000000000000000000, -0.0000000000000000000 ) ) ;
#415 = DIRECTION ( 'NONE',  ( 0.0000000000000000000, 0.0000000000000000000, 1.000000000000000000 ) ) ;
#416 = CARTESIAN_POINT ( 'NONE',  ( 0.0000000000000000000, 59.65358983848611300, 0.0000000000000000000 ) ) ;
#417 = LINE ( 'NONE', #418, #586 ) ;
#418 = CARTESIAN_POINT ( 'NONE',  ( 1.371604415044289300E-015, 59.99999999999988600, -11.19999999999390600 ) ) ;
#419 = DIRECTION ( 'NONE',  ( 1.060575238724938500E-016, 0.4999999999999550400, -0.8660254037844645800 ) ) ;
#420 = DIRECTION ( 'NONE',  ( -0.0000000000000000000, 1.000000000000000000, -0.0000000000000000000 ) ) ;
#421 = DIRECTION ( 'NONE',  ( 0.0000000000000000000, 0.0000000000000000000, 1.000000000000000000 ) ) ;
#422 = CARTESIAN_POINT ( 'NONE',  ( 0.0000000000000000000, 59.99999999999988600, 0.0000000000000000000 ) ) ;
#423 = DIRECTION ( 'NONE',  ( -0.0000000000000000000, 1.000000000000000000, -0.0000000000000000000 ) ) ;
#424 = DIRECTION ( 'NONE',  ( 0.0000000000000000000, 0.0000000000000000000, 1.000000000000000000 ) ) ;
#425 = CARTESIAN_POINT ( 'NONE',  ( 0.0000000000000000000, 59.99999999999988600, 0.0000000000000000000 ) ) ;
#426 = DIRECTION ( 'NONE',  ( -0.0000000000000000000, 1.000000000000000000, -0.0000000000000000000 ) ) ;
#427 = DIRECTION ( 'NONE',  ( 0.0000000000000000000, 0.0000000000000000000, 1.000000000000000000 ) ) ;
#428 = CARTESIAN_POINT ( 'NONE',  ( 0.0000000000000000000, 27.23606797747253700, 0.0000000000000000000 ) ) ;
#429 = LINE ( 'NONE', #430, #587 ) ;
#430 = CARTESIAN_POINT ( 'NONE',  ( 1.592040838891663600E-015, 59.79999999999995500, 13.00000000000085300 ) ) ;
#431 = DIRECTION ( 'NONE',  ( 8.659560562355045000E-017, -0.7071067811865383600, 0.7071067811865566800 ) ) ;
#432 = LINE ( 'NONE', #433, #588 ) ;
#433 = CARTESIAN_POINT ( 'NONE',  ( 0.0000000000000000000, 109.5999999999999700, -9.999999999993860900 ) ) ;
#434 = DIRECTION ( 'NONE',  ( 0.0000000000000000000, -0.7071067811918281300, -0.7071067811812670200 ) ) ;
#435 = LINE ( 'NONE', #436, #589 ) ;
#436 = CARTESIAN_POINT ( 'NONE',  ( 0.0000000000000000000, 59.79999999999995500, -13.00000000000085300 ) ) ;
#437 = DIRECTION ( 'NONE',  ( 0.0000000000000000000, -0.7071067811865383600, -0.7071067811865566800 ) ) ;
#438 = LINE ( 'NONE', #439, #591 ) ;
#439 = CARTESIAN_POINT ( 'NONE',  ( 1.592040838891663600E-015, 110.0000000000000600, -13.00000000000085300 ) ) ;
#440 = DIRECTION ( 'NONE',  ( -0.0000000000000000000, 1.000000000000000000, -0.0000000000000000000 ) ) ;
#441 = DIRECTION ( 'NONE',  ( -0.0000000000000000000, 1.000000000000000000, -0.0000000000000000000 ) ) ;
#442 = DIRECTION ( 'NONE',  ( 0.0000000000000000000, 0.0000000000000000000, 1.000000000000000000 ) ) ;
#443 = CARTESIAN_POINT ( 'NONE',  ( 1.334865011069864600E-015, 59.65358983848611300, -10.59999999999383700 ) ) ;
#444 = CARTESIAN_POINT ( 'NONE',  ( 0.0000000000000000000, 27.23606797747253700, 13.00000000000085300 ) ) ;
#445 = CARTESIAN_POINT ( 'NONE',  ( 1.592040838891663600E-015, 59.79999999999995500, -13.00000000000085300 ) ) ;
#446 = CARTESIAN_POINT ( 'NONE',  ( 0.0000000000000000000, 59.79999999999995500, 13.00000000000085300 ) ) ;
#447 = CARTESIAN_POINT ( 'NONE',  ( 0.0000000000000000000, 60.00000000000000000, -12.80000000000080700 ) ) ;
#448 = CARTESIAN_POINT ( 'NONE',  ( 1.579794370900187300E-015, 60.00000000000000000, 12.80000000000080700 ) ) ;
#449 = CARTESIAN_POINT ( 'NONE',  ( 0.0000000000000000000, 59.99999999999988600, 11.19999999999390600 ) ) ;
#450 = CARTESIAN_POINT ( 'NONE',  ( 1.371604415044289300E-015, 59.99999999999988600, -11.19999999999390600 ) ) ;
#451 = CARTESIAN_POINT ( 'NONE',  ( 0.0000000000000000000, 59.65358983848611300, 10.59999999999383700 ) ) ;
#452 = CARTESIAN_POINT ( 'NONE',  ( 1.261386203121020800E-015, 59.99999999999988600, -9.999999999993860900 ) ) ;
#453 = CARTESIAN_POINT ( 'NONE',  ( 0.0000000000000000000, 59.99999999999988600, 9.999999999993860900 ) ) ;
#454 = CARTESIAN_POINT ( 'NONE',  ( 1.224646799146601300E-015, 109.5999999999999700, -9.999999999993860900 ) ) ;
#455 = CARTESIAN_POINT ( 'NONE',  ( 0.0000000000000000000, 109.5999999999999700, 9.999999999993860900 ) ) ;
#456 = CARTESIAN_POINT ( 'NONE',  ( 0.0000000000000000000, 109.9999999999999400, -9.599999999999852200 ) ) ;
#457 = CARTESIAN_POINT ( 'NONE',  ( 1.200153863164021000E-015, 109.9999999999999400, 9.599999999999852200 ) ) ;
#458 =( LENGTH_UNIT ( ) NAMED_UNIT ( * ) SI_UNIT ( .MILLI., .METRE. ) );
#459 =( NAMED_UNIT ( * ) PLANE_ANGLE_UNIT ( ) SI_UNIT ( $, .RADIAN. ) );
#460 =( NAMED_UNIT ( * ) SI_UNIT ( $, .STERADIAN. ) SOLID_ANGLE_UNIT ( ) );
#461 = APPLICATION_PROTOCOL_DEFINITION ( 'draft international standard', 'automotive_design', 1998, #278 ) ;
#462 = FILL_AREA_STYLE_COLOUR ( '', #173 ) ;
#463 = FILL_AREA_STYLE ('',( #462 ) ) ;
#464 = SURFACE_STYLE_FILL_AREA ( #463 ) ;
#465 = SURFACE_SIDE_STYLE ('',( #464 ) ) ;
#466 = SURFACE_STYLE_USAGE ( .BOTH. , #465 ) ;
#467 = PRESENTATION_STYLE_ASSIGNMENT (( #466 ) ) ;
#468 =( LENGTH_UNIT ( ) NAMED_UNIT ( * ) SI_UNIT ( .MILLI., .METRE. ) );
#469 =( NAMED_UNIT ( * ) PLANE_ANGLE_UNIT ( ) SI_UNIT ( $, .RADIAN. ) );
#470 =( NAMED_UNIT ( * ) SI_UNIT ( $, .STERADIAN. ) SOLID_ANGLE_UNIT ( ) );
#471 = CARTESIAN_POINT ( 'NONE',  ( 0.0000000000000000000, 0.0000000000000000000, 0.0000000000000000000 ) ) ;
#472 = DIRECTION ( 'NONE',  ( 0.0000000000000000000, 0.0000000000000000000, 1.000000000000000000 ) ) ;
#473 = DIRECTION ( 'NONE',  ( 1.000000000000000000, 0.0000000000000000000, 0.0000000000000000000 ) ) ;
#474 = SHAPE_DEFINITION_REPRESENTATION ( #505, #282 ) ;
#475 = PRODUCT_CONTEXT ( 'NONE', #278, 'mechanical' ) ;
#476 = APPLICATION_PROTOCOL_DEFINITION ( 'draft international standard', 'automotive_design', 1998, #279 ) ;
#477 = CARTESIAN_POINT ( 'NONE',  ( 0.0000000000000000000, 109.9999999999999400, 0.0000000000000000000 ) ) ;
#478 = DIRECTION ( 'NONE',  ( 0.0000000000000000000, 0.0000000000000000000, 1.000000000000000000 ) ) ;
#479 = DIRECTION ( 'NONE',  ( -0.0000000000000000000, 1.000000000000000000, -0.0000000000000000000 ) ) ;
#480 = CARTESIAN_POINT ( 'NONE',  ( 0.0000000000000000000, 110.0000000000000600, 0.0000000000000000000 ) ) ;
#481 = DIRECTION ( 'NONE',  ( 0.0000000000000000000, 0.0000000000000000000, 1.000000000000000000 ) ) ;
#482 = DIRECTION ( 'NONE',  ( -0.0000000000000000000, 1.000000000000000000, -0.0000000000000000000 ) ) ;
#483 = CARTESIAN_POINT ( 'NONE',  ( 0.0000000000000000000, 20.52786404500232800, 0.0000000000000000000 ) ) ;
#484 = DIRECTION ( 'NONE',  ( 0.0000000000000000000, 0.0000000000000000000, 1.000000000000000000 ) ) ;
#485 = DIRECTION ( 'NONE',  ( -0.0000000000000000000, 1.000000000000000000, -0.0000000000000000000 ) ) ;
#486 = CARTESIAN_POINT ( 'NONE',  ( 0.0000000000000000000, 110.0000000000000600, 0.0000000000000000000 ) ) ;
#487 = DIRECTION ( 'NONE',  ( 0.0000000000000000000, 0.0000000000000000000, 1.000000000000000000 ) ) ;
#488 = DIRECTION ( 'NONE',  ( -0.0000000000000000000, 1.000000000000000000, -0.0000000000000000000 ) ) ;
#489 = CARTESIAN_POINT ( 'NONE',  ( 0.0000000000000000000, 1.154700538382652500, 0.0000000000000000000 ) ) ;
#490 = DIRECTION ( 'NONE',  ( 0.0000000000000000000, 0.0000000000000000000, 1.000000000000000000 ) ) ;
#491 = DIRECTION ( 'NONE',  ( -0.0000000000000000000, 1.000000000000000000, -0.0000000000000000000 ) ) ;
#492 = CARTESIAN_POINT ( 'NONE',  ( 0.0000000000000000000, 1000.000000000000000, 0.0000000000000000000 ) ) ;
#493 = DIRECTION ( 'NONE',  ( -0.0000000000000000000, 1.000000000000000000, -0.0000000000000000000 ) ) ;
#494 = CARTESIAN_POINT ( 'NONE',  ( 0.0000000000000000000, 110.0000000000000600, 13.00000000000085300 ) ) ;
#495 = LINE ( 'NONE', #494, #103 ) ;
#496 = CARTESIAN_POINT ( 'NONE',  ( 1.592040838891663400E-015, 27.23606797747253700, -13.00000000000085300 ) ) ;
#497 = CARTESIAN_POINT ( 'NONE',  ( 0.0000000000000000000, 20.52786404500232800, 10.00000000000028400 ) ) ;
#498 = CARTESIAN_POINT ( 'NONE',  ( 1.224646799147388000E-015, 20.52786404500232800, -10.00000000000028400 ) ) ;
#499 = CARTESIAN_POINT ( 'NONE',  ( 0.0000000000000000000, 9.154700538387682900, 10.00000000000028200 ) ) ;
#500 = CARTESIAN_POINT ( 'NONE',  ( 1.224646799147387800E-015, 9.154700538387682900, -10.00000000000028200 ) ) ;
#501 = CARTESIAN_POINT ( 'NONE',  ( 0.0000000000000000000, 1.154700538382652500, 2.000000000004150000 ) ) ;
#502 = CARTESIAN_POINT ( 'NONE',  ( 2.449293598299788200E-016, 1.154700538382652500, -2.000000000004150000 ) ) ;
#503 = CARTESIAN_POINT ( 'NONE',  ( 0.0000000000000000000, 0.0000000000000000000, 0.0000000000000000000 ) ) ;
#504 = PRODUCT_DEFINITION_CONTEXT ( 'detailed design', #279, 'design' ) ;
#505 = PRODUCT_DEFINITION_SHAPE ( 'NONE', 'NONE',  #172 ) ;
#506 = VERTEX_POINT ( 'NONE', #444 ) ;
#507 = VERTEX_POINT ( 'NONE', #445 ) ;
#508 = VERTEX_POINT ( 'NONE', #446 ) ;
#509 = VERTEX_POINT ( 'NONE', #447 ) ;
#510 = VERTEX_POINT ( 'NONE', #448 ) ;
#511 = VERTEX_POINT ( 'NONE', #449 ) ;
#512 = VERTEX_POINT ( 'NONE', #450 ) ;
#513 = VERTEX_POINT ( 'NONE', #451 ) ;
#514 = VERTEX_POINT ( 'NONE', #443 ) ;
#515 = VERTEX_POINT ( 'NONE', #452 ) ;
#516 = VERTEX_POINT ( 'NONE', #453 ) ;
#517 = VERTEX_POINT ( 'NONE', #454 ) ;
#518 = VERTEX_POINT ( 'NONE', #455 ) ;
#519 = VERTEX_POINT ( 'NONE', #456 ) ;
#520 = VERTEX_POINT ( 'NONE', #457 ) ;
#521 = ORIENTED_EDGE ( 'NONE', *, *, #255, .T. ) ;
#522 = ORIENTED_EDGE ( 'NONE', *, *, #277, .F. ) ;
#523 = ORIENTED_EDGE ( 'NONE', *, *, #254, .T. ) ;
#524 = ORIENTED_EDGE ( 'NONE', *, *, #256, .F. ) ;
#525 = ORIENTED_EDGE ( 'NONE', *, *, #265, .F. ) ;
#526 = ORIENTED_EDGE ( 'NONE', *, *, #259, .T. ) ;
#527 = ORIENTED_EDGE ( 'NONE', *, *, #258, .T. ) ;
#528 = ORIENTED_EDGE ( 'NONE', *, *, #261, .F. ) ;
#529 = ORIENTED_EDGE ( 'NONE', *, *, #260, .T. ) ;
#530 = ORIENTED_EDGE ( 'NONE', *, *, #262, .F. ) ;
#531 = ORIENTED_EDGE ( 'NONE', *, *, #266, .T. ) ;
#532 = ORIENTED_EDGE ( 'NONE', *, *, #255, .F. ) ;
#533 = ORIENTED_EDGE ( 'NONE', *, *, #275, .F. ) ;
#534 = ORIENTED_EDGE ( 'NONE', *, *, #264, .F. ) ;
#535 = ORIENTED_EDGE ( 'NONE', *, *, #269, .T. ) ;
#536 = ORIENTED_EDGE ( 'NONE', *, *, #272, .T. ) ;
#537 = ORIENTED_EDGE ( 'NONE', *, *, #270, .F. ) ;
#538 = ORIENTED_EDGE ( 'NONE', *, *, #274, .F. ) ;
#539 = ORIENTED_EDGE ( 'NONE', *, *, #262, .T. ) ;
#540 = ORIENTED_EDGE ( 'NONE', *, *, #273, .T. ) ;
#541 = ORIENTED_EDGE ( 'NONE', *, *, #267, .F. ) ;
#542 = ORIENTED_EDGE ( 'NONE', *, *, #263, .T. ) ;
#543 = ORIENTED_EDGE ( 'NONE', *, *, #270, .T. ) ;
#544 = ORIENTED_EDGE ( 'NONE', *, *, #271, .F. ) ;
#545 = ORIENTED_EDGE ( 'NONE', *, *, #268, .F. ) ;
#546 = ORIENTED_EDGE ( 'NONE', *, *, #277, .T. ) ;
#547 = ORIENTED_EDGE ( 'NONE', *, *, #258, .F. ) ;
#548 = ORIENTED_EDGE ( 'NONE', *, *, #276, .T. ) ;
#549 = ORIENTED_EDGE ( 'NONE', *, *, #186, .F. ) ;
#550 =( NAMED_UNIT ( * ) SI_UNIT ( $, .STERADIAN. ) SOLID_ANGLE_UNIT ( ) );
#551 =( NAMED_UNIT ( * ) PLANE_ANGLE_UNIT ( ) SI_UNIT ( $, .RADIAN. ) );
#552 =( LENGTH_UNIT ( ) NAMED_UNIT ( * ) SI_UNIT ( .MILLI., .METRE. ) );
#553 = PRESENTATION_STYLE_ASSIGNMENT (( #554 ) ) ;
#554 = SURFACE_STYLE_USAGE ( .BOTH. , #555 ) ;
#555 = SURFACE_SIDE_STYLE ('',( #556 ) ) ;
#556 = SURFACE_STYLE_FILL_AREA ( #557 ) ;
#557 = FILL_AREA_STYLE ('',( #558 ) ) ;
#558 = FILL_AREA_STYLE_COLOUR ( '', #214 ) ;
#559 = ORIENTED_EDGE ( 'NONE', *, *, #265, .T. ) ;
#560 = ORIENTED_EDGE ( 'NONE', *, *, #220, .T. ) ;
#561 = ORIENTED_EDGE ( 'NONE', *, *, #221, .T. ) ;
#562 = ORIENTED_EDGE ( 'NONE', *, *, #220, .F. ) ;
#563 = ORIENTED_EDGE ( 'NONE', *, *, #259, .F. ) ;
#564 = ORIENTED_EDGE ( 'NONE', *, *, #274, .T. ) ;
#565 = ORIENTED_EDGE ( 'NONE', *, *, #261, .T. ) ;
#566 = ORIENTED_EDGE ( 'NONE', *, *, #271, .T. ) ;
#567 = ORIENTED_EDGE ( 'NONE', *, *, #260, .F. ) ;
#568 = ORIENTED_EDGE ( 'NONE', *, *, #221, .F. ) ;
#569 = ORIENTED_EDGE ( 'NONE', *, *, #267, .T. ) ;
#570 = ORIENTED_EDGE ( 'NONE', *, *, #266, .F. ) ;
#571 = ORIENTED_EDGE ( 'NONE', *, *, #263, .F. ) ;
#572 =( GEOMETRIC_REPRESENTATION_CONTEXT ( 3 ) GLOBAL_UNCERTAINTY_ASSIGNED_CONTEXT ( ( #95 ) ) GLOBAL_UNIT_ASSIGNED_CONTEXT ( ( #552, #551, #550 ) ) REPRESENTATION_CONTEXT ( 'NONE', 'WORKASPACE' ) );
#573 =( GEOMETRIC_REPRESENTATION_CONTEXT ( 3 ) GLOBAL_UNCERTAINTY_ASSIGNED_CONTEXT ( ( #283 ) ) GLOBAL_UNIT_ASSIGNED_CONTEXT ( ( #458, #459, #460 ) ) REPRESENTATION_CONTEXT ( 'NONE', 'WORKASPACE' ) );
#574 =( GEOMETRIC_REPRESENTATION_CONTEXT ( 3 ) GLOBAL_UNCERTAINTY_ASSIGNED_CONTEXT ( ( #281 ) ) GLOBAL_UNIT_ASSIGNED_CONTEXT ( ( #468, #469, #470 ) ) REPRESENTATION_CONTEXT ( 'NONE', 'WORKASPACE' ) );
#575 = VECTOR ( 'NONE', #392, 1000.000000000000000 ) ;
#576 = AXIS2_PLACEMENT_3D ( 'NONE', #410, #411, #412 ) ;
#577 = AXIS2_PLACEMENT_3D ( 'NONE', #386, #396, #397 ) ;
#578 = VECTOR ( 'NONE', #395, 1000.000000000000000 ) ;
#579 = AXIS2_PLACEMENT_3D ( 'NONE', #407, #408, #409 ) ;
#580 = AXIS2_PLACEMENT_3D ( 'NONE', #401, #405, #406 ) ;
#581 = AXIS2_PLACEMENT_3D ( 'NONE', #413, #414, #415 ) ;
#582 = VECTOR ( 'NONE', #404, 1000.000000000000100 ) ;
#583 = AXIS2_PLACEMENT_3D ( 'NONE', #425, #426, #427 ) ;
#584 = AXIS2_PLACEMENT_3D ( 'NONE', #422, #423, #424 ) ;
#585 = AXIS2_PLACEMENT_3D ( 'NONE', #416, #420, #421 ) ;
#586 = VECTOR ( 'NONE', #419, 1000.000000000000100 ) ;
#587 = VECTOR ( 'NONE', #431, 1000.000000000000000 ) ;
#588 = VECTOR ( 'NONE', #434, 999.9999999999998900 ) ;
#589 = VECTOR ( 'NONE', #437, 1000.000000000000000 ) ;
#590 = AXIS2_PLACEMENT_3D ( 'NONE', #428, #441, #442 ) ;
#591 = VECTOR ( 'NONE', #440, 1000.000000000000000 ) ;
#592 = STYLED_ITEM ( 'NONE', ( #467 ), #282 ) ;
#593 = PRESENTATION_LAYER_ASSIGNMENT (  '', '', ( #592 ) ) ;
#594 = MECHANICAL_DESIGN_GEOMETRIC_PRESENTATION_REPRESENTATION (  '', ( #592 ), #574 ) ;
#595 = AXIS2_PLACEMENT_3D ( 'NONE', #471, #472, #473 ) ;
#596 = PRODUCT_DEFINITION_FORMATION_WITH_SPECIFIED_SOURCE ( 'ANY', '', #284, .NOT_KNOWN. ) ;
ENDSEC;
END-ISO-10303-21;
