ISO-10303-21;
HEADER;
FILE_DESCRIPTION (( 'STEP AP214' ),
    '1' );
FILE_NAME ('99688-SI20-20+S9MT2004-060.STEP',
    '2022-11-03T01:08:40',
    ( 'User' ),
    ( 'GENUINE' ),
    'SwSTEP 2.0',
    'SolidWorks 2012',
    '' );
FILE_SCHEMA (( 'AUTOMOTIVE_DESIGN' ));
ENDSEC;

DATA;
#1 = MANIFOLD_SOLID_BREP ( '±ÛÂà1', #503 ) ;
#2 = CARTESIAN_POINT ( 'NONE',  ( 0.0000000000000000000, 109.5999999999999700, -9.999999999993860900 ) ) ;
#3 = CARTESIAN_POINT ( 'NONE',  ( 0.0000000000000000000, 59.99999999999988600, 11.19999999999390600 ) ) ;
#4 = LINE ( 'NONE', #2, #529 ) ;
#5 = CARTESIAN_POINT ( 'NONE',  ( 0.0000000000000000000, 60.00000000000000000, 0.0000000000000000000 ) ) ;
#6 = DIRECTION ( 'NONE',  ( 0.0000000000000000000, 0.0000000000000000000, 1.000000000000000000 ) ) ;
#7 = DIRECTION ( 'NONE',  ( -0.0000000000000000000, 1.000000000000000000, -0.0000000000000000000 ) ) ;
#8 = DIRECTION ( 'NONE',  ( 8.659560562355045000E-017, -0.7071067811865383600, 0.7071067811865566800 ) ) ;
#9 = CARTESIAN_POINT ( 'NONE',  ( 1.592040838891663600E-015, 59.79999999999995500, 13.00000000000085300 ) ) ;
#10 = LINE ( 'NONE', #9, #528 ) ;
#11 = CARTESIAN_POINT ( 'NONE',  ( 0.0000000000000000000, 59.79999999999995500, 0.0000000000000000000 ) ) ;
#12 = DIRECTION ( 'NONE',  ( 1.224646799147353500E-016, 0.0000000000000000000, -1.000000000000000000 ) ) ;
#13 = DIRECTION ( 'NONE',  ( 1.000000000000000000, 0.0000000000000000000, 1.224646799147353200E-016 ) ) ;
#14 = DIRECTION ( 'NONE',  ( -0.0000000000000000000, 1.000000000000000000, -0.0000000000000000000 ) ) ;
#15 = CARTESIAN_POINT ( 'NONE',  ( 1.224646799146601300E-015, 110.0000000000000600, -9.999999999993860900 ) ) ;
#16 = LINE ( 'NONE', #15, #525 ) ;
#17 = CARTESIAN_POINT ( 'NONE',  ( 1.273632671112495700E-015, 59.99999999999990100, -10.39999999999386100 ) ) ;
#18 = EDGE_LOOP ( 'NONE', ( #90, #89, #88, #437 ) ) ;
#19 = EDGE_LOOP ( 'NONE', ( #86, #85, #84, #87 ) ) ;
#20 = EDGE_LOOP ( 'NONE', ( #82, #81, #80, #83 ) ) ;
#21 = EDGE_LOOP ( 'NONE', ( #78, #77, #76, #79 ) ) ;
#22 = EDGE_LOOP ( 'NONE', ( #74, #73, #75, #71 ) ) ;
#23 = EDGE_LOOP ( 'NONE', ( #70, #68 ) ) ;
#24 = EDGE_LOOP ( 'NONE', ( #72, #67 ) ) ;
#25 = EDGE_LOOP ( 'NONE', ( #66, #65, #69, #63 ) ) ;
#26 = EDGE_LOOP ( 'NONE', ( #62, #61, #60, #64 ) ) ;
#27 = EDGE_LOOP ( 'NONE', ( #58, #57, #56, #59 ) ) ;
#28 = EDGE_LOOP ( 'NONE', ( #54, #53, #55, #52 ) ) ;
#29 = EDGE_LOOP ( 'NONE', ( #51, #50 ) ) ;
#30 = ORIENTED_EDGE ( 'NONE', *, *, #150, .T. ) ;
#31 = ORIENTED_EDGE ( 'NONE', *, *, #196, .F. ) ;
#32 = ORIENTED_EDGE ( 'NONE', *, *, #153, .T. ) ;
#33 = ORIENTED_EDGE ( 'NONE', *, *, #149, .F. ) ;
#34 = ORIENTED_EDGE ( 'NONE', *, *, #152, .T. ) ;
#35 = ORIENTED_EDGE ( 'NONE', *, *, #158, .T. ) ;
#36 = ORIENTED_EDGE ( 'NONE', *, *, #160, .F. ) ;
#37 = ORIENTED_EDGE ( 'NONE', *, *, #147, .F. ) ;
#38 = ORIENTED_EDGE ( 'NONE', *, *, #160, .T. ) ;
#39 = ORIENTED_EDGE ( 'NONE', *, *, #157, .F. ) ;
#40 = ORIENTED_EDGE ( 'NONE', *, *, #148, .T. ) ;
#41 = ORIENTED_EDGE ( 'NONE', *, *, #159, .F. ) ;
#42 = ORIENTED_EDGE ( 'NONE', *, *, #155, .F. ) ;
#43 = ORIENTED_EDGE ( 'NONE', *, *, #156, .T. ) ;
#44 = ORIENTED_EDGE ( 'NONE', *, *, #146, .T. ) ;
#45 = ORIENTED_EDGE ( 'NONE', *, *, #154, .F. ) ;
#46 = ORIENTED_EDGE ( 'NONE', *, *, #151, .T. ) ;
#47 = ORIENTED_EDGE ( 'NONE', *, *, #162, .F. ) ;
#48 = ORIENTED_EDGE ( 'NONE', *, *, #161, .F. ) ;
#49 = ORIENTED_EDGE ( 'NONE', *, *, #162, .T. ) ;
#50 = ORIENTED_EDGE ( 'NONE', *, *, #159, .T. ) ;
#51 = ORIENTED_EDGE ( 'NONE', *, *, #163, .T. ) ;
#52 = ORIENTED_EDGE ( 'NONE', *, *, #164, .T. ) ;
#53 = ORIENTED_EDGE ( 'NONE', *, *, #163, .F. ) ;
#54 = ORIENTED_EDGE ( 'NONE', *, *, #146, .F. ) ;
#55 = ORIENTED_EDGE ( 'NONE', *, *, #154, .T. ) ;
#56 = ORIENTED_EDGE ( 'NONE', *, *, #147, .T. ) ;
#57 = ORIENTED_EDGE ( 'NONE', *, *, #149, .T. ) ;
#58 = ORIENTED_EDGE ( 'NONE', *, *, #150, .F. ) ;
#59 = ORIENTED_EDGE ( 'NONE', *, *, #164, .F. ) ;
#60 = ORIENTED_EDGE ( 'NONE', *, *, #161, .T. ) ;
#61 = ORIENTED_EDGE ( 'NONE', *, *, #148, .F. ) ;
#62 = ORIENTED_EDGE ( 'NONE', *, *, #151, .F. ) ;
#63 = ORIENTED_EDGE ( 'NONE', *, *, #166, .T. ) ;
#64 = ORIENTED_EDGE ( 'NONE', *, *, #165, .T. ) ;
#65 = ORIENTED_EDGE ( 'NONE', *, *, #165, .F. ) ;
#66 = ORIENTED_EDGE ( 'NONE', *, *, #156, .F. ) ;
#67 = ORIENTED_EDGE ( 'NONE', *, *, #157, .T. ) ;
#68 = ORIENTED_EDGE ( 'NONE', *, *, #158, .F. ) ;
#69 = ORIENTED_EDGE ( 'NONE', *, *, #155, .T. ) ;
#70 = ORIENTED_EDGE ( 'NONE', *, *, #166, .F. ) ;
#71 = ORIENTED_EDGE ( 'NONE', *, *, #168, .T. ) ;
#72 = ORIENTED_EDGE ( 'NONE', *, *, #167, .T. ) ;
#73 = ORIENTED_EDGE ( 'NONE', *, *, #167, .F. ) ;
#74 = ORIENTED_EDGE ( 'NONE', *, *, #152, .F. ) ;
#75 = ORIENTED_EDGE ( 'NONE', *, *, #196, .T. ) ;
#76 = ORIENTED_EDGE ( 'NONE', *, *, #199, .T. ) ;
#77 = ORIENTED_EDGE ( 'NONE', *, *, #169, .T. ) ;
#78 = ORIENTED_EDGE ( 'NONE', *, *, #197, .F. ) ;
#79 = ORIENTED_EDGE ( 'NONE', *, *, #168, .F. ) ;
#80 = ORIENTED_EDGE ( 'NONE', *, *, #203, .T. ) ;
#81 = ORIENTED_EDGE ( 'NONE', *, *, #170, .T. ) ;
#82 = ORIENTED_EDGE ( 'NONE', *, *, #201, .F. ) ;
#83 = ORIENTED_EDGE ( 'NONE', *, *, #169, .F. ) ;
#84 = ORIENTED_EDGE ( 'NONE', *, *, #178, .T. ) ;
#85 = ORIENTED_EDGE ( 'NONE', *, *, #171, .T. ) ;
#86 = ORIENTED_EDGE ( 'NONE', *, *, #204, .F. ) ;
#87 = ORIENTED_EDGE ( 'NONE', *, *, #170, .F. ) ;
#88 = ORIENTED_EDGE ( 'NONE', *, *, #175, .T. ) ;
#89 = ORIENTED_EDGE ( 'NONE', *, *, #172, .T. ) ;
#90 = ORIENTED_EDGE ( 'NONE', *, *, #177, .F. ) ;
#91 = UNCERTAINTY_MEASURE_WITH_UNIT (LENGTH_MEASURE( 1.000000000000000100E-005 ), #483, 'distance_accuracy_value', 'NONE');
#92 = AXIS2_PLACEMENT_3D ( 'NONE', #329, #330, #331 ) ;
#93 = AXIS2_PLACEMENT_3D ( 'NONE', #323, #324, #325 ) ;
#94 = CYLINDRICAL_SURFACE ( 'NONE', #93, 9.999999999993860900 ) ;
#95 = FACE_OUTER_BOUND ( 'NONE', #26, .T. ) ;
#96 = FACE_OUTER_BOUND ( 'NONE', #28, .T. ) ;
#97 = FACE_OUTER_BOUND ( 'NONE', #27, .T. ) ;
#98 = AXIS2_PLACEMENT_3D ( 'NONE', #317, #318, #319 ) ;
#99 = AXIS2_PLACEMENT_3D ( 'NONE', #326, #327, #328 ) ;
#100 = PRODUCT_DEFINITION ( 'UNKNOWN', '', #596, #435 ) ;
#101 = COLOUR_RGB ( '',0.7921568627450980000, 0.8196078431372548800, 0.9333333333333333500 ) ;
#102 = CONICAL_SURFACE ( 'NONE', #570, 10.00000000000028400, 0.4205343352856557600 ) ;
#103 = CONICAL_SURFACE ( 'NONE', #576, 1732.050807567566600, 1.047197551196270100 ) ;
#104 = PRODUCT_RELATED_PRODUCT_CATEGORY ( 'part', '', ( #215 ) ) ;
#105 = CIRCLE ( 'NONE', #588, 10.00000000000028400 ) ;
#106 = TOROIDAL_SURFACE ( 'NONE', #561, 10.39999999999386100, 0.3999999999999995200 ) ;
#107 = CIRCLE ( 'NONE', #585, 13.00000000000085300 ) ;
#108 = CIRCLE ( 'NONE', #579, 10.00000000000000000 ) ;
#109 = TOROIDAL_SURFACE ( 'NONE', #99, 10.39999999999386100, 0.3999999999999995200 ) ;
#110 = CONICAL_SURFACE ( 'NONE', #581, 13.00000000000085300, 0.7853981633974612700 ) ;
#111 = CONICAL_SURFACE ( 'NONE', #577, 9.999999999993860900, 0.7853981633899803600 ) ;
#112 = CONICAL_SURFACE ( 'NONE', #92, 11.19999999999390600, 1.047197551196649600 ) ;
#113 = CONICAL_SURFACE ( 'NONE', #565, 13.00000000000085300, 0.7853981633974612700 ) ;
#114 = CONICAL_SURFACE ( 'NONE', #563, 11.19999999999390600, 1.047197551196649600 ) ;
#115 = CONICAL_SURFACE ( 'NONE', #556, 9.999999999993860900, 0.7853981633899803600 ) ;
#116 = CONICAL_SURFACE ( 'NONE', #574, 2.000000000004377400, 0.5235987755978148700 ) ;
#117 = CIRCLE ( 'NONE', #548, 2.000000000004377400 ) ;
#118 = CIRCLE ( 'NONE', #546, 2.000000000004377400 ) ;
#119 = CIRCLE ( 'NONE', #545, 10.00000000000000000 ) ;
#120 = CIRCLE ( 'NONE', #544, 10.00000000000028400 ) ;
#121 = CIRCLE ( 'NONE', #543, 13.00000000000085300 ) ;
#122 = CIRCLE ( 'NONE', #541, 13.00000000000085300 ) ;
#123 = CIRCLE ( 'NONE', #540, 12.80000000000080700 ) ;
#124 = CIRCLE ( 'NONE', #539, 11.19999999999390600 ) ;
#125 = CIRCLE ( 'NONE', #526, 10.59999999999383700 ) ;
#126 = CIRCLE ( 'NONE', #524, 9.999999999993860900 ) ;
#127 = CIRCLE ( 'NONE', #537, 9.599999999999852200 ) ;
#128 = CIRCLE ( 'NONE', #538, 10.59999999999383700 ) ;
#129 = CIRCLE ( 'NONE', #535, 0.3999999999999993000 ) ;
#130 = CIRCLE ( 'NONE', #536, 9.999999999993860900 ) ;
#131 = CIRCLE ( 'NONE', #530, 9.599999999999852200 ) ;
#132 = CIRCLE ( 'NONE', #534, 11.19999999999390600 ) ;
#133 = CIRCLE ( 'NONE', #532, 12.80000000000080700 ) ;
#134 = CIRCLE ( 'NONE', #527, 13.00000000000085300 ) ;
#135 = CIRCLE ( 'NONE', #511, 0.3999999999999993000 ) ;
#136 = CONICAL_SURFACE ( 'NONE', #510, 1732.050807567566600, 1.047197551196270100 ) ;
#137 = CIRCLE ( 'NONE', #523, 9.999999999993860900 ) ;
#138 = CONICAL_SURFACE ( 'NONE', #517, 10.00000000000028400, 0.4205343352856557600 ) ;
#139 = CIRCLE ( 'NONE', #521, 9.999999999993860900 ) ;
#140 = COLOUR_RGB ( '',0.7921568627450980000, 0.8196078431372548800, 0.9333333333333333500 ) ;
#141 = ADVANCED_FACE ( 'NONE', ( #507 ), #136, .T. ) ;
#142 = ADVANCED_FACE ( 'NONE', ( #509 ), #205, .T. ) ;
#143 = ADVANCED_FACE ( 'NONE', ( #512 ), #515, .T. ) ;
#144 = ADVANCED_FACE ( 'NONE', ( #508 ), #138, .T. ) ;
#145 = ADVANCED_FACE ( 'NONE', ( #516 ), #519, .T. ) ;
#146 = EDGE_CURVE ( 'NONE', #471, #469, #419, .T. ) ;
#147 = EDGE_CURVE ( 'NONE', #467, #469, #415, .T. ) ;
#148 = EDGE_CURVE ( 'NONE', #467, #466, #139, .T. ) ;
#149 = EDGE_CURVE ( 'NONE', #466, #467, #137, .T. ) ;
#150 = EDGE_CURVE ( 'NONE', #466, #468, #16, .T. ) ;
#151 = EDGE_CURVE ( 'NONE', #466, #465, #135, .T. ) ;
#152 = EDGE_CURVE ( 'NONE', #461, #459, #10, .T. ) ;
#153 = EDGE_CURVE ( 'NONE', #459, #458, #134, .T. ) ;
#154 = EDGE_CURVE ( 'NONE', #470, #468, #4, .T. ) ;
#155 = EDGE_CURVE ( 'NONE', #464, #462, #216, .T. ) ;
#156 = EDGE_CURVE ( 'NONE', #465, #463, #218, .T. ) ;
#157 = EDGE_CURVE ( 'NONE', #461, #460, #133, .T. ) ;
#158 = EDGE_CURVE ( 'NONE', #463, #462, #132, .T. ) ;
#159 = EDGE_CURVE ( 'NONE', #471, #470, #131, .T. ) ;
#160 = EDGE_CURVE ( 'NONE', #469, #468, #130, .T. ) ;
#161 = EDGE_CURVE ( 'NONE', #467, #464, #129, .T. ) ;
#162 = EDGE_CURVE ( 'NONE', #465, #464, #128, .T. ) ;
#163 = EDGE_CURVE ( 'NONE', #470, #471, #127, .T. ) ;
#164 = EDGE_CURVE ( 'NONE', #468, #469, #126, .T. ) ;
#165 = EDGE_CURVE ( 'NONE', #464, #465, #125, .T. ) ;
#166 = EDGE_CURVE ( 'NONE', #462, #463, #124, .T. ) ;
#167 = EDGE_CURVE ( 'NONE', #460, #461, #123, .T. ) ;
#168 = EDGE_CURVE ( 'NONE', #458, #459, #122, .T. ) ;
#169 = EDGE_CURVE ( 'NONE', #456, #457, #121, .T. ) ;
#170 = EDGE_CURVE ( 'NONE', #454, #455, #120, .T. ) ;
#171 = EDGE_CURVE ( 'NONE', #452, #453, #119, .T. ) ;
#172 = EDGE_CURVE ( 'NONE', #450, #451, #118, .T. ) ;
#173 = EDGE_CURVE ( 'NONE', #449, #451, #269, .T. ) ;
#174 = EDGE_CURVE ( 'NONE', #449, #450, #272, .T. ) ;
#175 = EDGE_CURVE ( 'NONE', #451, #453, #275, .T. ) ;
#176 = EDGE_CURVE ( 'NONE', #451, #450, #117, .T. ) ;
#177 = EDGE_CURVE ( 'NONE', #450, #452, #281, .T. ) ;
#178 = EDGE_CURVE ( 'NONE', #453, #455, #284, .T. ) ;
#179 = ADVANCED_FACE ( 'NONE', ( #550 ), #115, .T. ) ;
#180 = ADVANCED_FACE ( 'NONE', ( #542 ), #558, .T. ) ;
#181 = ADVANCED_FACE ( 'NONE', ( #554 ), #106, .F. ) ;
#182 = ADVANCED_FACE ( 'NONE', ( #559 ), #114, .F. ) ;
#183 = ADVANCED_FACE ( 'NONE', ( #562 ), #113, .T. ) ;
#184 = ADVANCED_FACE ( 'NONE', ( #564 ), #567, .T. ) ;
#185 = ADVANCED_FACE ( 'NONE', ( #552 ), #102, .T. ) ;
#186 = ADVANCED_FACE ( 'NONE', ( #569 ), #572, .T. ) ;
#187 = ADVANCED_FACE ( 'NONE', ( #568 ), #116, .T. ) ;
#188 = ADVANCED_FACE ( 'NONE', ( #573 ), #103, .T. ) ;
#189 = ADVANCED_FACE ( 'NONE', ( #575 ), #316, .F. ) ;
#190 = ADVANCED_FACE ( 'NONE', ( #96 ), #111, .T. ) ;
#191 = ADVANCED_FACE ( 'NONE', ( #97 ), #94, .T. ) ;
#192 = ADVANCED_FACE ( 'NONE', ( #95 ), #109, .F. ) ;
#193 = ADVANCED_FACE ( 'NONE', ( #560 ), #112, .F. ) ;
#194 = ADVANCED_FACE ( 'NONE', ( #578 ), #110, .T. ) ;
#195 = ADVANCED_FACE ( 'NONE', ( #580, #582 ), #335, .F. ) ;
#196 = EDGE_CURVE ( 'NONE', #460, #458, #339, .T. ) ;
#197 = EDGE_CURVE ( 'NONE', #456, #458, #343, .T. ) ;
#198 = EDGE_CURVE ( 'NONE', #457, #456, #107, .T. ) ;
#199 = EDGE_CURVE ( 'NONE', #457, #459, #349, .T. ) ;
#200 = EDGE_CURVE ( 'NONE', #453, #452, #108, .T. ) ;
#201 = EDGE_CURVE ( 'NONE', #454, #456, #355, .T. ) ;
#202 = EDGE_CURVE ( 'NONE', #455, #454, #105, .T. ) ;
#203 = EDGE_CURVE ( 'NONE', #455, #457, #361, .T. ) ;
#204 = EDGE_CURVE ( 'NONE', #452, #454, #364, .T. ) ;
#205 = CONICAL_SURFACE ( 'NONE', #513, 2.000000000004377400, 0.5235987755978148700 ) ;
#206 = ADVANCED_BREP_SHAPE_REPRESENTATION ( '99688-SI20-20+S9MT2004-060', ( #1, #595 ), #213 ) ;
#207 = UNCERTAINTY_MEASURE_WITH_UNIT (LENGTH_MEASURE( 1.000000000000000100E-005 ), #389, 'distance_accuracy_value', 'NONE');
#208 = UNCERTAINTY_MEASURE_WITH_UNIT (LENGTH_MEASURE( 1.000000000000000100E-005 ), #399, 'distance_accuracy_value', 'NONE');
#209 = APPLICATION_CONTEXT ( 'automotive_design' ) ;
#210 = APPLICATION_CONTEXT ( 'automotive_design' ) ;
#211 = DIRECTION ( 'NONE',  ( 0.0000000000000000000, -0.7071067811918281300, -0.7071067811812670200 ) ) ;
#212 =( GEOMETRIC_REPRESENTATION_CONTEXT ( 3 ) GLOBAL_UNCERTAINTY_ASSIGNED_CONTEXT ( ( #91 ) ) GLOBAL_UNIT_ASSIGNED_CONTEXT ( ( #483, #482, #481 ) ) REPRESENTATION_CONTEXT ( 'NONE', 'WORKASPACE' ) );
#213 =( GEOMETRIC_REPRESENTATION_CONTEXT ( 3 ) GLOBAL_UNCERTAINTY_ASSIGNED_CONTEXT ( ( #207 ) ) GLOBAL_UNIT_ASSIGNED_CONTEXT ( ( #389, #390, #391 ) ) REPRESENTATION_CONTEXT ( 'NONE', 'WORKASPACE' ) );
#214 =( GEOMETRIC_REPRESENTATION_CONTEXT ( 3 ) GLOBAL_UNCERTAINTY_ASSIGNED_CONTEXT ( ( #208 ) ) GLOBAL_UNIT_ASSIGNED_CONTEXT ( ( #399, #400, #401 ) ) REPRESENTATION_CONTEXT ( 'NONE', 'WORKASPACE' ) );
#215 = PRODUCT ( '99688-SI20-20+S9MT2004-060', '99688-SI20-20+S9MT2004-060', '', ( #406 ) ) ;
#216 = LINE ( 'NONE', #3, #531 ) ;
#217 = DIRECTION ( 'NONE',  ( 0.0000000000000000000, 0.4999999999999550400, 0.8660254037844645800 ) ) ;
#218 = LINE ( 'NONE', #219, #533 ) ;
#219 = CARTESIAN_POINT ( 'NONE',  ( 1.371604415044289300E-015, 59.99999999999988600, -11.19999999999390600 ) ) ;
#220 = DIRECTION ( 'NONE',  ( 1.060575238724938500E-016, 0.4999999999999550400, -0.8660254037844645800 ) ) ;
#221 = DIRECTION ( 'NONE',  ( -0.0000000000000000000, 1.000000000000000000, -0.0000000000000000000 ) ) ;
#222 = DIRECTION ( 'NONE',  ( 0.0000000000000000000, 0.0000000000000000000, 1.000000000000000000 ) ) ;
#223 = CARTESIAN_POINT ( 'NONE',  ( 0.0000000000000000000, 59.99999999999988600, 0.0000000000000000000 ) ) ;
#224 = DIRECTION ( 'NONE',  ( -0.0000000000000000000, 1.000000000000000000, -0.0000000000000000000 ) ) ;
#225 = DIRECTION ( 'NONE',  ( 0.0000000000000000000, 0.0000000000000000000, 1.000000000000000000 ) ) ;
#226 = CARTESIAN_POINT ( 'NONE',  ( 0.0000000000000000000, 109.9999999999999400, 0.0000000000000000000 ) ) ;
#227 = DIRECTION ( 'NONE',  ( -0.0000000000000000000, 1.000000000000000000, -0.0000000000000000000 ) ) ;
#228 = DIRECTION ( 'NONE',  ( 0.0000000000000000000, 0.0000000000000000000, 1.000000000000000000 ) ) ;
#229 = CARTESIAN_POINT ( 'NONE',  ( 0.0000000000000000000, 109.5999999999999700, 0.0000000000000000000 ) ) ;
#230 = DIRECTION ( 'NONE',  ( -0.0000000000000000000, 1.000000000000000000, -0.0000000000000000000 ) ) ;
#231 = DIRECTION ( 'NONE',  ( 0.0000000000000000000, 0.0000000000000000000, 1.000000000000000000 ) ) ;
#232 = CARTESIAN_POINT ( 'NONE',  ( 0.0000000000000000000, 59.99999999999990100, 10.39999999999386100 ) ) ;
#233 = DIRECTION ( 'NONE',  ( -1.000000000000000000, 0.0000000000000000000, 0.0000000000000000000 ) ) ;
#234 = DIRECTION ( 'NONE',  ( 0.0000000000000000000, 0.0000000000000000000, 1.000000000000000000 ) ) ;
#235 = CARTESIAN_POINT ( 'NONE',  ( 0.0000000000000000000, 59.65358983848611300, 0.0000000000000000000 ) ) ;
#236 = DIRECTION ( 'NONE',  ( -0.0000000000000000000, 1.000000000000000000, -0.0000000000000000000 ) ) ;
#237 = DIRECTION ( 'NONE',  ( 0.0000000000000000000, 0.0000000000000000000, 1.000000000000000000 ) ) ;
#238 = CARTESIAN_POINT ( 'NONE',  ( 0.0000000000000000000, 109.9999999999999400, 0.0000000000000000000 ) ) ;
#239 = DIRECTION ( 'NONE',  ( -0.0000000000000000000, 1.000000000000000000, -0.0000000000000000000 ) ) ;
#240 = DIRECTION ( 'NONE',  ( 0.0000000000000000000, 0.0000000000000000000, 1.000000000000000000 ) ) ;
#241 = CARTESIAN_POINT ( 'NONE',  ( 0.0000000000000000000, 109.5999999999999700, 0.0000000000000000000 ) ) ;
#242 = DIRECTION ( 'NONE',  ( -0.0000000000000000000, 1.000000000000000000, -0.0000000000000000000 ) ) ;
#243 = DIRECTION ( 'NONE',  ( 0.0000000000000000000, 0.0000000000000000000, 1.000000000000000000 ) ) ;
#244 = CARTESIAN_POINT ( 'NONE',  ( 0.0000000000000000000, 59.65358983848611300, 0.0000000000000000000 ) ) ;
#245 = DIRECTION ( 'NONE',  ( -0.0000000000000000000, 1.000000000000000000, -0.0000000000000000000 ) ) ;
#246 = DIRECTION ( 'NONE',  ( 0.0000000000000000000, 0.0000000000000000000, 1.000000000000000000 ) ) ;
#247 = CARTESIAN_POINT ( 'NONE',  ( 0.0000000000000000000, 59.99999999999988600, 0.0000000000000000000 ) ) ;
#248 = DIRECTION ( 'NONE',  ( -0.0000000000000000000, 1.000000000000000000, -0.0000000000000000000 ) ) ;
#249 = DIRECTION ( 'NONE',  ( 0.0000000000000000000, 0.0000000000000000000, 1.000000000000000000 ) ) ;
#250 = CARTESIAN_POINT ( 'NONE',  ( 0.0000000000000000000, 60.00000000000000000, 0.0000000000000000000 ) ) ;
#251 = DIRECTION ( 'NONE',  ( -0.0000000000000000000, 1.000000000000000000, -0.0000000000000000000 ) ) ;
#252 = DIRECTION ( 'NONE',  ( 0.0000000000000000000, 0.0000000000000000000, 1.000000000000000000 ) ) ;
#253 = CARTESIAN_POINT ( 'NONE',  ( 0.0000000000000000000, 59.79999999999995500, 0.0000000000000000000 ) ) ;
#254 = DIRECTION ( 'NONE',  ( -0.0000000000000000000, 1.000000000000000000, -0.0000000000000000000 ) ) ;
#255 = DIRECTION ( 'NONE',  ( 0.0000000000000000000, 0.0000000000000000000, 1.000000000000000000 ) ) ;
#256 = CARTESIAN_POINT ( 'NONE',  ( 0.0000000000000000000, 27.23606797747253700, 0.0000000000000000000 ) ) ;
#257 = DIRECTION ( 'NONE',  ( -0.0000000000000000000, 1.000000000000000000, -0.0000000000000000000 ) ) ;
#258 = DIRECTION ( 'NONE',  ( 0.0000000000000000000, 0.0000000000000000000, 1.000000000000000000 ) ) ;
#259 = CARTESIAN_POINT ( 'NONE',  ( 0.0000000000000000000, 20.52786404500232800, 0.0000000000000000000 ) ) ;
#260 = DIRECTION ( 'NONE',  ( -0.0000000000000000000, 1.000000000000000000, -0.0000000000000000000 ) ) ;
#261 = DIRECTION ( 'NONE',  ( 0.0000000000000000000, 0.0000000000000000000, 1.000000000000000000 ) ) ;
#262 = CARTESIAN_POINT ( 'NONE',  ( 0.0000000000000000000, 15.01110699894157800, 0.0000000000000000000 ) ) ;
#263 = DIRECTION ( 'NONE',  ( -0.0000000000000000000, 1.000000000000000000, -0.0000000000000000000 ) ) ;
#264 = DIRECTION ( 'NONE',  ( 0.0000000000000000000, 0.0000000000000000000, 1.000000000000000000 ) ) ;
#265 = CARTESIAN_POINT ( 'NONE',  ( 0.0000000000000000000, 1.154700538382652500, 0.0000000000000000000 ) ) ;
#266 = DIRECTION ( 'NONE',  ( -0.0000000000000000000, 1.000000000000000000, -0.0000000000000000000 ) ) ;
#267 = DIRECTION ( 'NONE',  ( 0.0000000000000000000, 0.0000000000000000000, 1.000000000000000000 ) ) ;
#268 = CARTESIAN_POINT ( 'NONE',  ( 0.0000000000000000000, 1.154700538382652500, 0.0000000000000000000 ) ) ;
#269 = LINE ( 'NONE', #270, #547 ) ;
#270 = CARTESIAN_POINT ( 'NONE',  ( 0.0000000000000000000, 0.0000000000000000000, 0.0000000000000000000 ) ) ;
#271 = DIRECTION ( 'NONE',  ( 0.0000000000000000000, 0.5000000000002836600, 0.8660254037842748400 ) ) ;
#272 = LINE ( 'NONE', #273, #549 ) ;
#273 = CARTESIAN_POINT ( 'NONE',  ( 0.0000000000000000000, 0.0000000000000000000, 0.0000000000000000000 ) ) ;
#274 = DIRECTION ( 'NONE',  ( 1.060575238724706100E-016, 0.5000000000002836600, -0.8660254037842748400 ) ) ;
#275 = LINE ( 'NONE', #276, #551 ) ;
#276 = CARTESIAN_POINT ( 'NONE',  ( 0.0000000000000000000, 1.154700538382652500, 2.000000000004377400 ) ) ;
#277 = DIRECTION ( 'NONE',  ( 0.0000000000000000000, 0.8660254037846806300, 0.4999999999995808400 ) ) ;
#278 = DIRECTION ( 'NONE',  ( -0.0000000000000000000, 1.000000000000000000, -0.0000000000000000000 ) ) ;
#279 = DIRECTION ( 'NONE',  ( 0.0000000000000000000, 0.0000000000000000000, 1.000000000000000000 ) ) ;
#280 = CARTESIAN_POINT ( 'NONE',  ( 0.0000000000000000000, 109.5999999999999700, 0.0000000000000000000 ) ) ;
#281 = LINE ( 'NONE', #282, #553 ) ;
#282 = CARTESIAN_POINT ( 'NONE',  ( 2.449293598300067200E-016, 1.154700538382652500, -2.000000000004377400 ) ) ;
#283 = DIRECTION ( 'NONE',  ( 6.123233995731632300E-017, 0.8660254037846806300, -0.4999999999995808400 ) ) ;
#284 = LINE ( 'NONE', #285, #555 ) ;
#285 = CARTESIAN_POINT ( 'NONE',  ( 0.0000000000000000000, 110.0000000000000600, 10.00000000000014200 ) ) ;
#286 = DIRECTION ( 'NONE',  ( -0.0000000000000000000, 1.000000000000000000, -0.0000000000000000000 ) ) ;
#287 = DIRECTION ( 'NONE',  ( 0.0000000000000000000, -1.000000000000000000, 0.0000000000000000000 ) ) ;
#288 = DIRECTION ( 'NONE',  ( 0.0000000000000000000, 0.0000000000000000000, -1.000000000000000000 ) ) ;
#289 = CARTESIAN_POINT ( 'NONE',  ( 0.0000000000000000000, 110.0000000000000600, 0.0000000000000000000 ) ) ;
#290 = DIRECTION ( 'NONE',  ( -0.0000000000000000000, 1.000000000000000000, -0.0000000000000000000 ) ) ;
#291 = DIRECTION ( 'NONE',  ( 0.0000000000000000000, 0.0000000000000000000, 1.000000000000000000 ) ) ;
#292 = CARTESIAN_POINT ( 'NONE',  ( 0.0000000000000000000, 59.99999999999990100, 0.0000000000000000000 ) ) ;
#293 = DIRECTION ( 'NONE',  ( -0.0000000000000000000, 1.000000000000000000, -0.0000000000000000000 ) ) ;
#294 = DIRECTION ( 'NONE',  ( 0.0000000000000000000, 0.0000000000000000000, 1.000000000000000000 ) ) ;
#295 = CARTESIAN_POINT ( 'NONE',  ( 0.0000000000000000000, 59.99999999999988600, 0.0000000000000000000 ) ) ;
#296 = DIRECTION ( 'NONE',  ( -0.0000000000000000000, 1.000000000000000000, -0.0000000000000000000 ) ) ;
#297 = DIRECTION ( 'NONE',  ( 0.0000000000000000000, 0.0000000000000000000, 1.000000000000000000 ) ) ;
#298 = CARTESIAN_POINT ( 'NONE',  ( 0.0000000000000000000, 59.79999999999995500, 0.0000000000000000000 ) ) ;
#299 = DIRECTION ( 'NONE',  ( 0.0000000000000000000, -1.000000000000000000, 0.0000000000000000000 ) ) ;
#300 = DIRECTION ( 'NONE',  ( 0.0000000000000000000, 0.0000000000000000000, -1.000000000000000000 ) ) ;
#301 = CARTESIAN_POINT ( 'NONE',  ( 0.0000000000000000000, 110.0000000000000600, 0.0000000000000000000 ) ) ;
#302 = DIRECTION ( 'NONE',  ( -0.0000000000000000000, 1.000000000000000000, -0.0000000000000000000 ) ) ;
#303 = DIRECTION ( 'NONE',  ( 0.0000000000000000000, 0.0000000000000000000, 1.000000000000000000 ) ) ;
#304 = CARTESIAN_POINT ( 'NONE',  ( 0.0000000000000000000, 20.52786404500232800, 0.0000000000000000000 ) ) ;
#305 = DIRECTION ( 'NONE',  ( -0.0000000000000000000, 1.000000000000000000, -0.0000000000000000000 ) ) ;
#306 = DIRECTION ( 'NONE',  ( 0.0000000000000000000, 0.0000000000000000000, 1.000000000000000000 ) ) ;
#307 = CARTESIAN_POINT ( 'NONE',  ( 0.0000000000000000000, 110.0000000000000600, 0.0000000000000000000 ) ) ;
#308 = DIRECTION ( 'NONE',  ( -0.0000000000000000000, 1.000000000000000000, -0.0000000000000000000 ) ) ;
#309 = DIRECTION ( 'NONE',  ( 0.0000000000000000000, 0.0000000000000000000, 1.000000000000000000 ) ) ;
#310 = CARTESIAN_POINT ( 'NONE',  ( 0.0000000000000000000, 1.154700538382652500, 0.0000000000000000000 ) ) ;
#311 = DIRECTION ( 'NONE',  ( -0.0000000000000000000, 1.000000000000000000, -0.0000000000000000000 ) ) ;
#312 = DIRECTION ( 'NONE',  ( 0.0000000000000000000, 0.0000000000000000000, 1.000000000000000000 ) ) ;
#313 = CARTESIAN_POINT ( 'NONE',  ( 0.0000000000000000000, 1000.000000000000000, 0.0000000000000000000 ) ) ;
#314 = DIRECTION ( 'NONE',  ( -0.0000000000000000000, 1.000000000000000000, -0.0000000000000000000 ) ) ;
#315 = DIRECTION ( 'NONE',  ( 0.0000000000000000000, 0.0000000000000000000, 1.000000000000000000 ) ) ;
#316 = PLANE ( 'NONE',  #98 ) ;
#317 = CARTESIAN_POINT ( 'NONE',  ( 0.0000000000000000000, 110.0000000000000000, 0.0000000000000000000 ) ) ;
#318 = DIRECTION ( 'NONE',  ( 0.0000000000000000000, -1.000000000000000000, 0.0000000000000000000 ) ) ;
#319 = DIRECTION ( 'NONE',  ( 0.0000000000000000000, -0.0000000000000000000, -1.000000000000000000 ) ) ;
#320 = CARTESIAN_POINT ( 'NONE',  ( 0.0000000000000000000, 109.5999999999999700, 0.0000000000000000000 ) ) ;
#321 = DIRECTION ( 'NONE',  ( 0.0000000000000000000, -1.000000000000000000, 0.0000000000000000000 ) ) ;
#322 = DIRECTION ( 'NONE',  ( 0.0000000000000000000, 0.0000000000000000000, -1.000000000000000000 ) ) ;
#323 = CARTESIAN_POINT ( 'NONE',  ( 0.0000000000000000000, 110.0000000000000600, 0.0000000000000000000 ) ) ;
#324 = DIRECTION ( 'NONE',  ( -0.0000000000000000000, 1.000000000000000000, -0.0000000000000000000 ) ) ;
#325 = DIRECTION ( 'NONE',  ( 0.0000000000000000000, 0.0000000000000000000, 1.000000000000000000 ) ) ;
#326 = CARTESIAN_POINT ( 'NONE',  ( 0.0000000000000000000, 59.99999999999990100, 0.0000000000000000000 ) ) ;
#327 = DIRECTION ( 'NONE',  ( -0.0000000000000000000, 1.000000000000000000, -0.0000000000000000000 ) ) ;
#328 = DIRECTION ( 'NONE',  ( 0.0000000000000000000, 0.0000000000000000000, 1.000000000000000000 ) ) ;
#329 = CARTESIAN_POINT ( 'NONE',  ( 0.0000000000000000000, 59.99999999999988600, 0.0000000000000000000 ) ) ;
#330 = DIRECTION ( 'NONE',  ( -0.0000000000000000000, 1.000000000000000000, -0.0000000000000000000 ) ) ;
#331 = DIRECTION ( 'NONE',  ( 0.0000000000000000000, 0.0000000000000000000, 1.000000000000000000 ) ) ;
#332 = CARTESIAN_POINT ( 'NONE',  ( 0.0000000000000000000, 59.79999999999995500, 0.0000000000000000000 ) ) ;
#333 = DIRECTION ( 'NONE',  ( 0.0000000000000000000, -1.000000000000000000, 0.0000000000000000000 ) ) ;
#334 = DIRECTION ( 'NONE',  ( 0.0000000000000000000, 0.0000000000000000000, -1.000000000000000000 ) ) ;
#335 = PLANE ( 'NONE',  #583 ) ;
#336 = CARTESIAN_POINT ( 'NONE',  ( 11.19999999999390600, 59.99999999999994300, 0.0000000000000000000 ) ) ;
#337 = DIRECTION ( 'NONE',  ( 0.0000000000000000000, -1.000000000000000000, 0.0000000000000000000 ) ) ;
#338 = DIRECTION ( 'NONE',  ( 0.0000000000000000000, -0.0000000000000000000, -1.000000000000000000 ) ) ;
#339 = LINE ( 'NONE', #340, #584 ) ;
#340 = CARTESIAN_POINT ( 'NONE',  ( 0.0000000000000000000, 59.79999999999995500, -13.00000000000085300 ) ) ;
#341 = DIRECTION ( 'NONE',  ( 0.0000000000000000000, -0.7071067811865383600, -0.7071067811865566800 ) ) ;
#342 = CARTESIAN_POINT ( 'NONE',  ( 0.0000000000000000000, 27.23606797747253700, 0.0000000000000000000 ) ) ;
#343 = LINE ( 'NONE', #344, #586 ) ;
#344 = CARTESIAN_POINT ( 'NONE',  ( 1.592040838891663600E-015, 110.0000000000000600, -13.00000000000085300 ) ) ;
#345 = DIRECTION ( 'NONE',  ( -0.0000000000000000000, 1.000000000000000000, -0.0000000000000000000 ) ) ;
#346 = DIRECTION ( 'NONE',  ( -0.0000000000000000000, 1.000000000000000000, -0.0000000000000000000 ) ) ;
#347 = DIRECTION ( 'NONE',  ( 0.0000000000000000000, 0.0000000000000000000, 1.000000000000000000 ) ) ;
#348 = CARTESIAN_POINT ( 'NONE',  ( 0.0000000000000000000, 15.01110699894157800, 0.0000000000000000000 ) ) ;
#349 = LINE ( 'NONE', #350, #587 ) ;
#350 = CARTESIAN_POINT ( 'NONE',  ( 0.0000000000000000000, 110.0000000000000600, 13.00000000000085300 ) ) ;
#351 = DIRECTION ( 'NONE',  ( -0.0000000000000000000, 1.000000000000000000, -0.0000000000000000000 ) ) ;
#352 = DIRECTION ( 'NONE',  ( -0.0000000000000000000, 1.000000000000000000, -0.0000000000000000000 ) ) ;
#353 = DIRECTION ( 'NONE',  ( 0.0000000000000000000, 0.0000000000000000000, 1.000000000000000000 ) ) ;
#354 = CARTESIAN_POINT ( 'NONE',  ( 0.0000000000000000000, 20.52786404500232800, 0.0000000000000000000 ) ) ;
#355 = LINE ( 'NONE', #356, #589 ) ;
#356 = CARTESIAN_POINT ( 'NONE',  ( 1.224646799147388000E-015, 20.52786404500232800, -10.00000000000028400 ) ) ;
#357 = DIRECTION ( 'NONE',  ( 4.999599621758388000E-017, 0.9128709291745866800, -0.4082482904654063400 ) ) ;
#358 = DIRECTION ( 'NONE',  ( -0.0000000000000000000, 1.000000000000000000, -0.0000000000000000000 ) ) ;
#359 = DIRECTION ( 'NONE',  ( 0.0000000000000000000, 0.0000000000000000000, 1.000000000000000000 ) ) ;
#360 = CARTESIAN_POINT ( 'NONE',  ( 0.0000000000000000000, 0.0000000000000000000, 0.0000000000000000000 ) ) ;
#361 = LINE ( 'NONE', #362, #590 ) ;
#362 = CARTESIAN_POINT ( 'NONE',  ( 0.0000000000000000000, 20.52786404500232800, 10.00000000000028400 ) ) ;
#363 = DIRECTION ( 'NONE',  ( 0.0000000000000000000, 0.9128709291745866800, 0.4082482904654063400 ) ) ;
#364 = LINE ( 'NONE', #365, #591 ) ;
#365 = CARTESIAN_POINT ( 'NONE',  ( 1.224646799147370800E-015, 110.0000000000000600, -10.00000000000014200 ) ) ;
#366 = DIRECTION ( 'NONE',  ( -0.0000000000000000000, 1.000000000000000000, -0.0000000000000000000 ) ) ;
#367 = CARTESIAN_POINT ( 'NONE',  ( 2.449293598300067200E-016, 1.154700538382652500, -2.000000000004377400 ) ) ;
#368 = CARTESIAN_POINT ( 'NONE',  ( 0.0000000000000000000, 1.154700538382652500, 2.000000000004377400 ) ) ;
#369 = CARTESIAN_POINT ( 'NONE',  ( 1.224646799147353300E-015, 15.01110699894157800, -10.00000000000000000 ) ) ;
#370 = CARTESIAN_POINT ( 'NONE',  ( 0.0000000000000000000, 15.01110699894157800, 10.00000000000000000 ) ) ;
#371 = CARTESIAN_POINT ( 'NONE',  ( 1.224646799147388000E-015, 20.52786404500232800, -10.00000000000028400 ) ) ;
#372 = CARTESIAN_POINT ( 'NONE',  ( 0.0000000000000000000, 20.52786404500232800, 10.00000000000028400 ) ) ;
#373 = CARTESIAN_POINT ( 'NONE',  ( 1.592040838891663400E-015, 27.23606797747253700, -13.00000000000085300 ) ) ;
#374 = CARTESIAN_POINT ( 'NONE',  ( 0.0000000000000000000, 27.23606797747253700, 13.00000000000085300 ) ) ;
#375 = CARTESIAN_POINT ( 'NONE',  ( 1.592040838891663600E-015, 59.79999999999995500, -13.00000000000085300 ) ) ;
#376 = CARTESIAN_POINT ( 'NONE',  ( 0.0000000000000000000, 59.79999999999995500, 13.00000000000085300 ) ) ;
#377 = CARTESIAN_POINT ( 'NONE',  ( 0.0000000000000000000, 60.00000000000000000, -12.80000000000080700 ) ) ;
#378 = CARTESIAN_POINT ( 'NONE',  ( 1.579794370900187300E-015, 60.00000000000000000, 12.80000000000080700 ) ) ;
#379 = CARTESIAN_POINT ( 'NONE',  ( 0.0000000000000000000, 59.99999999999988600, 11.19999999999390600 ) ) ;
#380 = CARTESIAN_POINT ( 'NONE',  ( 1.371604415044289300E-015, 59.99999999999988600, -11.19999999999390600 ) ) ;
#381 = CARTESIAN_POINT ( 'NONE',  ( 0.0000000000000000000, 59.65358983848611300, 10.59999999999383700 ) ) ;
#382 = CARTESIAN_POINT ( 'NONE',  ( 1.334865011069864600E-015, 59.65358983848611300, -10.59999999999383700 ) ) ;
#383 = CARTESIAN_POINT ( 'NONE',  ( 1.261386203121020800E-015, 59.99999999999988600, -9.999999999993860900 ) ) ;
#384 = CARTESIAN_POINT ( 'NONE',  ( 0.0000000000000000000, 59.99999999999988600, 9.999999999993860900 ) ) ;
#385 = CARTESIAN_POINT ( 'NONE',  ( 1.224646799146601300E-015, 109.5999999999999700, -9.999999999993860900 ) ) ;
#386 = CARTESIAN_POINT ( 'NONE',  ( 0.0000000000000000000, 109.5999999999999700, 9.999999999993860900 ) ) ;
#387 = CARTESIAN_POINT ( 'NONE',  ( 0.0000000000000000000, 109.9999999999999400, -9.599999999999852200 ) ) ;
#388 = CARTESIAN_POINT ( 'NONE',  ( 1.200153863164021000E-015, 109.9999999999999400, 9.599999999999852200 ) ) ;
#389 =( LENGTH_UNIT ( ) NAMED_UNIT ( * ) SI_UNIT ( .MILLI., .METRE. ) );
#390 =( NAMED_UNIT ( * ) PLANE_ANGLE_UNIT ( ) SI_UNIT ( $, .RADIAN. ) );
#391 =( NAMED_UNIT ( * ) SI_UNIT ( $, .STERADIAN. ) SOLID_ANGLE_UNIT ( ) );
#392 = APPLICATION_PROTOCOL_DEFINITION ( 'draft international standard', 'automotive_design', 1998, #209 ) ;
#393 = FILL_AREA_STYLE_COLOUR ( '', #101 ) ;
#394 = FILL_AREA_STYLE ('',( #393 ) ) ;
#395 = SURFACE_STYLE_FILL_AREA ( #394 ) ;
#396 = SURFACE_SIDE_STYLE ('',( #395 ) ) ;
#397 = SURFACE_STYLE_USAGE ( .BOTH. , #396 ) ;
#398 = PRESENTATION_STYLE_ASSIGNMENT (( #397 ) ) ;
#399 =( LENGTH_UNIT ( ) NAMED_UNIT ( * ) SI_UNIT ( .MILLI., .METRE. ) );
#400 =( NAMED_UNIT ( * ) PLANE_ANGLE_UNIT ( ) SI_UNIT ( $, .RADIAN. ) );
#401 =( NAMED_UNIT ( * ) SI_UNIT ( $, .STERADIAN. ) SOLID_ANGLE_UNIT ( ) );
#402 = CARTESIAN_POINT ( 'NONE',  ( 0.0000000000000000000, 0.0000000000000000000, 0.0000000000000000000 ) ) ;
#403 = DIRECTION ( 'NONE',  ( 0.0000000000000000000, 0.0000000000000000000, 1.000000000000000000 ) ) ;
#404 = DIRECTION ( 'NONE',  ( 1.000000000000000000, 0.0000000000000000000, 0.0000000000000000000 ) ) ;
#405 = SHAPE_DEFINITION_REPRESENTATION ( #436, #206 ) ;
#406 = PRODUCT_CONTEXT ( 'NONE', #209, 'mechanical' ) ;
#407 = APPLICATION_PROTOCOL_DEFINITION ( 'draft international standard', 'automotive_design', 1998, #210 ) ;
#408 = DIRECTION ( 'NONE',  ( 0.0000000000000000000, 0.0000000000000000000, 1.000000000000000000 ) ) ;
#409 = DIRECTION ( 'NONE',  ( -0.0000000000000000000, 1.000000000000000000, -0.0000000000000000000 ) ) ;
#410 = CARTESIAN_POINT ( 'NONE',  ( 0.0000000000000000000, 59.99999999999988600, 0.0000000000000000000 ) ) ;
#411 = DIRECTION ( 'NONE',  ( 0.0000000000000000000, 0.0000000000000000000, 1.000000000000000000 ) ) ;
#412 = DIRECTION ( 'NONE',  ( -0.0000000000000000000, 1.000000000000000000, -0.0000000000000000000 ) ) ;
#413 = DIRECTION ( 'NONE',  ( -0.0000000000000000000, 1.000000000000000000, -0.0000000000000000000 ) ) ;
#414 = CARTESIAN_POINT ( 'NONE',  ( 0.0000000000000000000, 110.0000000000000600, 9.999999999993860900 ) ) ;
#415 = LINE ( 'NONE', #414, #522 ) ;
#416 = CARTESIAN_POINT ( 'NONE',  ( 0.0000000000000000000, 59.99999999999988600, 0.0000000000000000000 ) ) ;
#417 = DIRECTION ( 'NONE',  ( 8.659560562290264800E-017, -0.7071067811918281300, 0.7071067811812670200 ) ) ;
#418 = CARTESIAN_POINT ( 'NONE',  ( 1.224646799146601300E-015, 109.5999999999999700, 9.999999999993860900 ) ) ;
#419 = LINE ( 'NONE', #418, #520 ) ;
#420 = DIRECTION ( 'NONE',  ( 0.0000000000000000000, 0.0000000000000000000, 1.000000000000000000 ) ) ;
#421 = DIRECTION ( 'NONE',  ( -0.0000000000000000000, 1.000000000000000000, -0.0000000000000000000 ) ) ;
#422 = CARTESIAN_POINT ( 'NONE',  ( 0.0000000000000000000, 110.0000000000000600, 0.0000000000000000000 ) ) ;
#423 = DIRECTION ( 'NONE',  ( 0.0000000000000000000, 0.0000000000000000000, 1.000000000000000000 ) ) ;
#424 = DIRECTION ( 'NONE',  ( -0.0000000000000000000, 1.000000000000000000, -0.0000000000000000000 ) ) ;
#425 = CARTESIAN_POINT ( 'NONE',  ( 0.0000000000000000000, 20.52786404500232800, 0.0000000000000000000 ) ) ;
#426 = DIRECTION ( 'NONE',  ( 0.0000000000000000000, 0.0000000000000000000, 1.000000000000000000 ) ) ;
#427 = DIRECTION ( 'NONE',  ( -0.0000000000000000000, 1.000000000000000000, -0.0000000000000000000 ) ) ;
#428 = CARTESIAN_POINT ( 'NONE',  ( 0.0000000000000000000, 110.0000000000000600, 0.0000000000000000000 ) ) ;
#429 = DIRECTION ( 'NONE',  ( 0.0000000000000000000, 0.0000000000000000000, 1.000000000000000000 ) ) ;
#430 = DIRECTION ( 'NONE',  ( -0.0000000000000000000, 1.000000000000000000, -0.0000000000000000000 ) ) ;
#431 = CARTESIAN_POINT ( 'NONE',  ( 0.0000000000000000000, 1.154700538382652500, 0.0000000000000000000 ) ) ;
#432 = DIRECTION ( 'NONE',  ( 0.0000000000000000000, 0.0000000000000000000, 1.000000000000000000 ) ) ;
#433 = DIRECTION ( 'NONE',  ( -0.0000000000000000000, 1.000000000000000000, -0.0000000000000000000 ) ) ;
#434 = CARTESIAN_POINT ( 'NONE',  ( 0.0000000000000000000, 1000.000000000000000, 0.0000000000000000000 ) ) ;
#435 = PRODUCT_DEFINITION_CONTEXT ( 'detailed design', #210, 'design' ) ;
#436 = PRODUCT_DEFINITION_SHAPE ( 'NONE', 'NONE',  #100 ) ;
#437 = ORIENTED_EDGE ( 'NONE', *, *, #171, .F. ) ;
#438 = ORIENTED_EDGE ( 'NONE', *, *, #172, .F. ) ;
#439 = ORIENTED_EDGE ( 'NONE', *, *, #173, .T. ) ;
#440 = ORIENTED_EDGE ( 'NONE', *, *, #174, .F. ) ;
#441 = ORIENTED_EDGE ( 'NONE', *, *, #174, .T. ) ;
#442 = ORIENTED_EDGE ( 'NONE', *, *, #176, .F. ) ;
#443 = ORIENTED_EDGE ( 'NONE', *, *, #173, .F. ) ;
#444 = ORIENTED_EDGE ( 'NONE', *, *, #175, .F. ) ;
#445 = ORIENTED_EDGE ( 'NONE', *, *, #177, .T. ) ;
#446 = ORIENTED_EDGE ( 'NONE', *, *, #200, .F. ) ;
#447 = ORIENTED_EDGE ( 'NONE', *, *, #176, .T. ) ;
#448 = ORIENTED_EDGE ( 'NONE', *, *, #178, .F. ) ;
#449 = VERTEX_POINT ( 'NONE', #360 ) ;
#450 = VERTEX_POINT ( 'NONE', #367 ) ;
#451 = VERTEX_POINT ( 'NONE', #368 ) ;
#452 = VERTEX_POINT ( 'NONE', #369 ) ;
#453 = VERTEX_POINT ( 'NONE', #370 ) ;
#454 = VERTEX_POINT ( 'NONE', #371 ) ;
#455 = VERTEX_POINT ( 'NONE', #372 ) ;
#456 = VERTEX_POINT ( 'NONE', #373 ) ;
#457 = VERTEX_POINT ( 'NONE', #374 ) ;
#458 = VERTEX_POINT ( 'NONE', #375 ) ;
#459 = VERTEX_POINT ( 'NONE', #376 ) ;
#460 = VERTEX_POINT ( 'NONE', #377 ) ;
#461 = VERTEX_POINT ( 'NONE', #378 ) ;
#462 = VERTEX_POINT ( 'NONE', #379 ) ;
#463 = VERTEX_POINT ( 'NONE', #380 ) ;
#464 = VERTEX_POINT ( 'NONE', #381 ) ;
#465 = VERTEX_POINT ( 'NONE', #382 ) ;
#466 = VERTEX_POINT ( 'NONE', #383 ) ;
#467 = VERTEX_POINT ( 'NONE', #384 ) ;
#468 = VERTEX_POINT ( 'NONE', #385 ) ;
#469 = VERTEX_POINT ( 'NONE', #386 ) ;
#470 = VERTEX_POINT ( 'NONE', #387 ) ;
#471 = VERTEX_POINT ( 'NONE', #388 ) ;
#472 = ORIENTED_EDGE ( 'NONE', *, *, #198, .T. ) ;
#473 = ORIENTED_EDGE ( 'NONE', *, *, #153, .F. ) ;
#474 = ORIENTED_EDGE ( 'NONE', *, *, #197, .T. ) ;
#475 = ORIENTED_EDGE ( 'NONE', *, *, #199, .F. ) ;
#476 = ORIENTED_EDGE ( 'NONE', *, *, #200, .T. ) ;
#477 = ORIENTED_EDGE ( 'NONE', *, *, #202, .T. ) ;
#478 = ORIENTED_EDGE ( 'NONE', *, *, #198, .F. ) ;
#479 = ORIENTED_EDGE ( 'NONE', *, *, #201, .T. ) ;
#480 = ORIENTED_EDGE ( 'NONE', *, *, #203, .F. ) ;
#481 =( NAMED_UNIT ( * ) SI_UNIT ( $, .STERADIAN. ) SOLID_ANGLE_UNIT ( ) );
#482 =( NAMED_UNIT ( * ) PLANE_ANGLE_UNIT ( ) SI_UNIT ( $, .RADIAN. ) );
#483 =( LENGTH_UNIT ( ) NAMED_UNIT ( * ) SI_UNIT ( .MILLI., .METRE. ) );
#484 = PRESENTATION_STYLE_ASSIGNMENT (( #485 ) ) ;
#485 = SURFACE_STYLE_USAGE ( .BOTH. , #486 ) ;
#486 = SURFACE_SIDE_STYLE ('',( #487 ) ) ;
#487 = SURFACE_STYLE_FILL_AREA ( #488 ) ;
#488 = FILL_AREA_STYLE ('',( #489 ) ) ;
#489 = FILL_AREA_STYLE_COLOUR ( '', #140 ) ;
#490 = ORIENTED_EDGE ( 'NONE', *, *, #204, .T. ) ;
#491 = ORIENTED_EDGE ( 'NONE', *, *, #202, .F. ) ;
#492 = EDGE_LOOP ( 'NONE', ( #41, #44, #38, #45 ) ) ;
#493 = EDGE_LOOP ( 'NONE', ( #40, #30, #36, #37 ) ) ;
#494 = EDGE_LOOP ( 'NONE', ( #33, #46, #49, #48 ) ) ;
#495 = EDGE_LOOP ( 'NONE', ( #47, #43, #35, #42 ) ) ;
#496 = EDGE_LOOP ( 'NONE', ( #39, #34, #32, #31 ) ) ;
#497 = EDGE_LOOP ( 'NONE', ( #472, #474, #473, #475 ) ) ;
#498 = EDGE_LOOP ( 'NONE', ( #477, #479, #478, #480 ) ) ;
#499 = EDGE_LOOP ( 'NONE', ( #476, #490, #491, #448 ) ) ;
#500 = EDGE_LOOP ( 'NONE', ( #447, #445, #446, #444 ) ) ;
#501 = EDGE_LOOP ( 'NONE', ( #443, #441, #442 ) ) ;
#502 = EDGE_LOOP ( 'NONE', ( #440, #439, #438 ) ) ;
#503 = CLOSED_SHELL ( 'NONE', ( #179, #180, #181, #182, #183, #184, #185, #186, #187, #188, #141, #142, #143, #144, #145, #194, #195, #193, #192, #191, #190, #189 ) ) ;
#504 = PRESENTATION_LAYER_ASSIGNMENT (  '', '', ( #506 ) ) ;
#505 = MECHANICAL_DESIGN_GEOMETRIC_PRESENTATION_REPRESENTATION (  '', ( #506 ), #212 ) ;
#506 = STYLED_ITEM ( 'NONE', ( #484 ), #1 ) ;
#507 = FACE_OUTER_BOUND ( 'NONE', #502, .T. ) ;
#508 = FACE_OUTER_BOUND ( 'NONE', #20, .T. ) ;
#509 = FACE_OUTER_BOUND ( 'NONE', #18, .T. ) ;
#510 = AXIS2_PLACEMENT_3D ( 'NONE', #434, #433, #432 ) ;
#511 = AXIS2_PLACEMENT_3D ( 'NONE', #17, #13, #12 ) ;
#512 = FACE_OUTER_BOUND ( 'NONE', #19, .T. ) ;
#513 = AXIS2_PLACEMENT_3D ( 'NONE', #431, #430, #429 ) ;
#514 = AXIS2_PLACEMENT_3D ( 'NONE', #428, #427, #426 ) ;
#515 = CYLINDRICAL_SURFACE ( 'NONE', #514, 10.00000000000014200 ) ;
#516 = FACE_OUTER_BOUND ( 'NONE', #21, .T. ) ;
#517 = AXIS2_PLACEMENT_3D ( 'NONE', #425, #424, #423 ) ;
#518 = AXIS2_PLACEMENT_3D ( 'NONE', #422, #421, #420 ) ;
#519 = CYLINDRICAL_SURFACE ( 'NONE', #518, 13.00000000000085300 ) ;
#520 = VECTOR ( 'NONE', #417, 999.9999999999998900 ) ;
#521 = AXIS2_PLACEMENT_3D ( 'NONE', #416, #412, #411 ) ;
#522 = VECTOR ( 'NONE', #413, 1000.000000000000000 ) ;
#523 = AXIS2_PLACEMENT_3D ( 'NONE', #410, #409, #408 ) ;
#524 = AXIS2_PLACEMENT_3D ( 'NONE', #241, #242, #243 ) ;
#525 = VECTOR ( 'NONE', #14, 1000.000000000000000 ) ;
#526 = AXIS2_PLACEMENT_3D ( 'NONE', #244, #245, #246 ) ;
#527 = AXIS2_PLACEMENT_3D ( 'NONE', #11, #7, #6 ) ;
#528 = VECTOR ( 'NONE', #8, 1000.000000000000000 ) ;
#529 = VECTOR ( 'NONE', #211, 999.9999999999998900 ) ;
#530 = AXIS2_PLACEMENT_3D ( 'NONE', #226, #227, #228 ) ;
#531 = VECTOR ( 'NONE', #217, 1000.000000000000100 ) ;
#532 = AXIS2_PLACEMENT_3D ( 'NONE', #5, #221, #222 ) ;
#533 = VECTOR ( 'NONE', #220, 1000.000000000000100 ) ;
#534 = AXIS2_PLACEMENT_3D ( 'NONE', #223, #224, #225 ) ;
#535 = AXIS2_PLACEMENT_3D ( 'NONE', #232, #233, #234 ) ;
#536 = AXIS2_PLACEMENT_3D ( 'NONE', #229, #230, #231 ) ;
#537 = AXIS2_PLACEMENT_3D ( 'NONE', #238, #239, #240 ) ;
#538 = AXIS2_PLACEMENT_3D ( 'NONE', #235, #236, #237 ) ;
#539 = AXIS2_PLACEMENT_3D ( 'NONE', #247, #248, #249 ) ;
#540 = AXIS2_PLACEMENT_3D ( 'NONE', #250, #251, #252 ) ;
#541 = AXIS2_PLACEMENT_3D ( 'NONE', #253, #254, #255 ) ;
#542 = FACE_OUTER_BOUND ( 'NONE', #493, .T. ) ;
#543 = AXIS2_PLACEMENT_3D ( 'NONE', #256, #257, #258 ) ;
#544 = AXIS2_PLACEMENT_3D ( 'NONE', #259, #260, #261 ) ;
#545 = AXIS2_PLACEMENT_3D ( 'NONE', #262, #263, #264 ) ;
#546 = AXIS2_PLACEMENT_3D ( 'NONE', #265, #266, #267 ) ;
#547 = VECTOR ( 'NONE', #271, 1000.000000000000100 ) ;
#548 = AXIS2_PLACEMENT_3D ( 'NONE', #268, #278, #279 ) ;
#549 = VECTOR ( 'NONE', #274, 1000.000000000000100 ) ;
#550 = FACE_OUTER_BOUND ( 'NONE', #492, .T. ) ;
#551 = VECTOR ( 'NONE', #277, 1000.000000000000000 ) ;
#552 = FACE_OUTER_BOUND ( 'NONE', #498, .T. ) ;
#553 = VECTOR ( 'NONE', #283, 1000.000000000000000 ) ;
#554 = FACE_OUTER_BOUND ( 'NONE', #494, .T. ) ;
#555 = VECTOR ( 'NONE', #286, 1000.000000000000000 ) ;
#556 = AXIS2_PLACEMENT_3D ( 'NONE', #280, #287, #288 ) ;
#557 = AXIS2_PLACEMENT_3D ( 'NONE', #289, #290, #291 ) ;
#558 = CYLINDRICAL_SURFACE ( 'NONE', #557, 9.999999999993860900 ) ;
#559 = FACE_OUTER_BOUND ( 'NONE', #495, .T. ) ;
#560 = FACE_OUTER_BOUND ( 'NONE', #25, .T. ) ;
#561 = AXIS2_PLACEMENT_3D ( 'NONE', #292, #293, #294 ) ;
#562 = FACE_OUTER_BOUND ( 'NONE', #496, .T. ) ;
#563 = AXIS2_PLACEMENT_3D ( 'NONE', #295, #296, #297 ) ;
#564 = FACE_OUTER_BOUND ( 'NONE', #497, .T. ) ;
#565 = AXIS2_PLACEMENT_3D ( 'NONE', #298, #299, #300 ) ;
#566 = AXIS2_PLACEMENT_3D ( 'NONE', #301, #302, #303 ) ;
#567 = CYLINDRICAL_SURFACE ( 'NONE', #566, 13.00000000000085300 ) ;
#568 = FACE_OUTER_BOUND ( 'NONE', #500, .T. ) ;
#569 = FACE_OUTER_BOUND ( 'NONE', #499, .T. ) ;
#570 = AXIS2_PLACEMENT_3D ( 'NONE', #304, #305, #306 ) ;
#571 = AXIS2_PLACEMENT_3D ( 'NONE', #307, #308, #309 ) ;
#572 = CYLINDRICAL_SURFACE ( 'NONE', #571, 10.00000000000014200 ) ;
#573 = FACE_OUTER_BOUND ( 'NONE', #501, .T. ) ;
#574 = AXIS2_PLACEMENT_3D ( 'NONE', #310, #311, #312 ) ;
#575 = FACE_OUTER_BOUND ( 'NONE', #29, .T. ) ;
#576 = AXIS2_PLACEMENT_3D ( 'NONE', #313, #314, #315 ) ;
#577 = AXIS2_PLACEMENT_3D ( 'NONE', #320, #321, #322 ) ;
#578 = FACE_OUTER_BOUND ( 'NONE', #22, .T. ) ;
#579 = AXIS2_PLACEMENT_3D ( 'NONE', #348, #352, #353 ) ;
#580 = FACE_BOUND ( 'NONE', #23, .T. ) ;
#581 = AXIS2_PLACEMENT_3D ( 'NONE', #332, #333, #334 ) ;
#582 = FACE_OUTER_BOUND ( 'NONE', #24, .T. ) ;
#583 = AXIS2_PLACEMENT_3D ( 'NONE', #336, #337, #338 ) ;
#584 = VECTOR ( 'NONE', #341, 1000.000000000000000 ) ;
#585 = AXIS2_PLACEMENT_3D ( 'NONE', #342, #346, #347 ) ;
#586 = VECTOR ( 'NONE', #345, 1000.000000000000000 ) ;
#587 = VECTOR ( 'NONE', #351, 1000.000000000000000 ) ;
#588 = AXIS2_PLACEMENT_3D ( 'NONE', #354, #358, #359 ) ;
#589 = VECTOR ( 'NONE', #357, 1000.000000000000000 ) ;
#590 = VECTOR ( 'NONE', #363, 1000.000000000000000 ) ;
#591 = VECTOR ( 'NONE', #366, 1000.000000000000000 ) ;
#592 = STYLED_ITEM ( 'NONE', ( #398 ), #206 ) ;
#593 = PRESENTATION_LAYER_ASSIGNMENT (  '', '', ( #592 ) ) ;
#594 = MECHANICAL_DESIGN_GEOMETRIC_PRESENTATION_REPRESENTATION (  '', ( #592 ), #214 ) ;
#595 = AXIS2_PLACEMENT_3D ( 'NONE', #402, #403, #404 ) ;
#596 = PRODUCT_DEFINITION_FORMATION_WITH_SPECIFIED_SOURCE ( 'ANY', '', #215, .NOT_KNOWN. ) ;
ENDSEC;
END-ISO-10303-21;
