ISO-10303-21;
HEADER;
FILE_DESCRIPTION (( 'STEP AP214' ),
    '1' );
FILE_NAME ('99688-SI16-M10+S9MT1603-120.STEP',
    '2023-09-26T06:30:58',
    ( '' ),
    ( '' ),
    'SwSTEP 2.0',
    'SolidWorks 2020',
    '' );
FILE_SCHEMA (( 'AUTOMOTIVE_DESIGN' ));
ENDSEC;

DATA;
#1 = ORIENTED_EDGE ( 'NONE', *, *, #133, .F. ) ;
#2 = EDGE_CURVE ( 'NONE', #10, #257, #654, .T. ) ;
#3 = CARTESIAN_POINT ( 'NONE',  ( -3.860334097132142894E-07, 59.74999996212446973, 0.000000000000000000 ) ) ;
#4 = ORIENTED_EDGE ( 'NONE', *, *, #141, .T. ) ;
#5 = FACE_OUTER_BOUND ( 'NONE', #265, .T. ) ;
#6 = AXIS2_PLACEMENT_3D ( 'NONE', #531, #456, #765 ) ;
#7 = VECTOR ( 'NONE', #952, 1000.000000000000000 ) ;
#8 = VECTOR ( 'NONE', #495, 999.9999999999998863 ) ;
#9 = CYLINDRICAL_SURFACE ( 'NONE', #387, 4.000000000000733635 ) ;
#10 = VERTEX_POINT ( 'NONE', #729 ) ;
#11 = ORIENTED_EDGE ( 'NONE', *, *, #317, .F. ) ;
#12 = DIRECTION ( 'NONE',  ( 1.000000000000000000, 4.260914537867006906E-14, 0.000000000000000000 ) ) ;
#13 = EDGE_CURVE ( 'NONE', #30, #444, #584, .T. ) ;
#14 = ORIENTED_EDGE ( 'NONE', *, *, #432, .T. ) ;
#15 = CARTESIAN_POINT ( 'NONE',  ( -9.840000386034702728, 50.99999996212395104, 1.214849624754393164E-15 ) ) ;
#16 = ADVANCED_FACE ( 'NONE', ( #979 ), #145, .T. ) ;
#17 = DIRECTION ( 'NONE',  ( -0.8660254037844438146, 0.4999999999999910627, 0.000000000000000000 ) ) ;
#18 = ORIENTED_EDGE ( 'NONE', *, *, #627, .F. ) ;
#19 = ORIENTED_EDGE ( 'NONE', *, *, #133, .T. ) ;
#20 = LINE ( 'NONE', #881, #841 ) ;
#21 = AXIS2_PLACEMENT_3D ( 'NONE', #288, #301, #589 ) ;
#22 = LINE ( 'NONE', #340, #920 ) ;
#23 = ORIENTED_EDGE ( 'NONE', *, *, #289, .T. ) ;
#24 = EDGE_CURVE ( 'NONE', #424, #447, #482, .T. ) ;
#25 = CARTESIAN_POINT ( 'NONE',  ( 5.549999613967464107, 50.74019234098936693, 7.072335265076561834E-16 ) ) ;
#26 = CARTESIAN_POINT ( 'NONE',  ( 4.949999613967418277, 51.53431453717546873, 0.000000000000000000 ) ) ;
#27 = DIRECTION ( 'NONE',  ( -4.263285714314105206E-14, 1.000000000000000000, 0.000000000000000000 ) ) ;
#28 = DIRECTION ( 'NONE',  ( 4.263285714314105206E-14, -1.000000000000000000, -0.000000000000000000 ) ) ;
#29 = DIRECTION ( 'NONE',  ( -4.263285714314105206E-14, 1.000000000000000000, 0.000000000000000000 ) ) ;
#30 = VERTEX_POINT ( 'NONE', #808 ) ;
#31 = EDGE_CURVE ( 'NONE', #970, #107, #643, .T. ) ;
#32 = DIRECTION ( 'NONE',  ( -4.263285714314105206E-14, 1.000000000000000000, 0.000000000000000000 ) ) ;
#33 = CARTESIAN_POINT ( 'NONE',  ( -4.000000386034046507, 57.79843593325789897, 5.357829746270525548E-16 ) ) ;
#34 = DIRECTION ( 'NONE',  ( 1.000000000000000000, 4.236377330805914924E-14, 0.000000000000000000 ) ) ;
#35 = ORIENTED_EDGE ( 'NONE', *, *, #13, .T. ) ;
#36 = ORIENTED_EDGE ( 'NONE', *, *, #980, .T. ) ;
#37 = DIRECTION ( 'NONE',  ( 1.000000000000000000, 0.000000000000000000, -1.224646799147353454E-16 ) ) ;
#38 = SURFACE_STYLE_USAGE ( .BOTH. , #570 ) ;
#39 = VECTOR ( 'NONE', #437, 1000.000000000000114 ) ;
#40 = DIRECTION ( 'NONE',  ( 1.000000000000000000, 4.163336342343361363E-14, 0.000000000000000000 ) ) ;
#41 = CARTESIAN_POINT ( 'NONE',  ( 5.999999613967444745, 50.99999996212476816, 7.347880794884707437E-16 ) ) ;
#42 = CARTESIAN_POINT ( 'NONE',  ( 3.999999613967395895, 58.41905246019356213, 0.000000000000000000 ) ) ;
#43 = AXIS2_PLACEMENT_3D ( 'NONE', #177, #946, #575 ) ;
#44 = CYLINDRICAL_SURFACE ( 'NONE', #869, 5.000000000000996536 ) ;
#45 =( GEOMETRIC_REPRESENTATION_CONTEXT ( 3 ) GLOBAL_UNCERTAINTY_ASSIGNED_CONTEXT ( ( #735 ) ) GLOBAL_UNIT_ASSIGNED_CONTEXT ( ( #651, #109, #511 ) ) REPRESENTATION_CONTEXT ( 'NONE', 'WORKASPACE' ) );
#46 = UNCERTAINTY_MEASURE_WITH_UNIT (LENGTH_MEASURE( 1.000000000000000082E-05 ), #892, 'distance_accuracy_value', 'NONE');
#47 = FILL_AREA_STYLE ('',( #104 ) ) ;
#48 = ADVANCED_FACE ( 'NONE', ( #205 ), #932, .T. ) ;
#49 = DIRECTION ( 'NONE',  ( 4.263285714314105206E-14, -1.000000000000000000, -0.000000000000000000 ) ) ;
#50 = DIRECTION ( 'NONE',  ( -1.000000000000000000, -4.262567288150550648E-14, 0.000000000000000000 ) ) ;
#51 = FACE_OUTER_BOUND ( 'NONE', #398, .T. ) ;
#52 = EDGE_LOOP ( 'NONE', ( #410, #782 ) ) ;
#53 = DIRECTION ( 'NONE',  ( 4.263285714314105206E-14, -1.000000000000000000, -0.000000000000000000 ) ) ;
#54 = ORIENTED_EDGE ( 'NONE', *, *, #524, .F. ) ;
#55 = EDGE_CURVE ( 'NONE', #608, #336, #719, .T. ) ;
#56 = CARTESIAN_POINT ( 'NONE',  ( -3.860333777385714281E-07, 58.99999996212451236, 0.000000000000000000 ) ) ;
#57 = CYLINDRICAL_SURFACE ( 'NONE', #244, 8.000000000001694644 ) ;
#58 = FACE_OUTER_BOUND ( 'NONE', #610, .T. ) ;
#59 = DIRECTION ( 'NONE',  ( -1.000000000000000000, -4.245096388672714226E-14, 0.000000000000000000 ) ) ;
#60 = CONICAL_SURFACE ( 'NONE', #76, 1732.050807568748269, 1.047197551196565435 ) ;
#61 = DIRECTION ( 'NONE',  ( 1.000000000000000000, 4.267419750902693648E-14, 0.000000000000000000 ) ) ;
#62 = EDGE_LOOP ( 'NONE', ( #18, #149, #174, #491 ) ) ;
#63 = EDGE_CURVE ( 'NONE', #686, #629, #820, .T. ) ;
#64 = VECTOR ( 'NONE', #633, 1000.000000000000000 ) ;
#65 = CIRCLE ( 'NONE', #680, 5.250000000000625278 ) ;
#66 = ADVANCED_BREP_SHAPE_REPRESENTATION ( '99688-SI16-M10+S9MT1603-120', ( #253, #401 ), #565 ) ;
#67 = DIRECTION ( 'NONE',  ( -0.3786864688383639876, 0.9255250176622621394, 0.000000000000000000 ) ) ;
#68 = FACE_OUTER_BOUND ( 'NONE', #62, .T. ) ;
#69 = EDGE_CURVE ( 'NONE', #490, #964, #278, .T. ) ;
#70 = DIRECTION ( 'NONE',  ( 1.000000000000000000, 4.263285714314105206E-14, 0.000000000000000000 ) ) ;
#71 = VERTEX_POINT ( 'NONE', #42 ) ;
#72 = ORIENTED_EDGE ( 'NONE', *, *, #306, .F. ) ;
#73 = FACE_OUTER_BOUND ( 'NONE', #562, .T. ) ;
#74 = TOROIDAL_SURFACE ( 'NONE', #323, 5.350000000000497025, 0.3999999999999980793 ) ;
#75 = VECTOR ( 'NONE', #550, 1000.000000000000000 ) ;
#76 = AXIS2_PLACEMENT_3D ( 'NONE', #122, #27, #116 ) ;
#77 = AXIS2_PLACEMENT_3D ( 'NONE', #630, #693, #542 ) ;
#78 = CARTESIAN_POINT ( 'NONE',  ( 5.249999613967354151, 56.49999996212470421, 0.000000000000000000 ) ) ;
#79 = CONICAL_SURFACE ( 'NONE', #232, 5.067157287525802190, 0.7853981633975100074 ) ;
#80 = ADVANCED_FACE ( 'NONE', ( #51 ), #742, .T. ) ;
#81 = VERTEX_POINT ( 'NONE', #192 ) ;
#82 = CARTESIAN_POINT ( 'NONE',  ( -3.860330715134641655E-07, 51.81715724964990955, 0.000000000000000000 ) ) ;
#83 = DIRECTION ( 'NONE',  ( 4.263285714314105206E-14, -1.000000000000000000, -0.000000000000000000 ) ) ;
#84 = ORIENTED_EDGE ( 'NONE', *, *, #856, .T. ) ;
#85 = VERTEX_POINT ( 'NONE', #200 ) ;
#86 = CARTESIAN_POINT ( 'NONE',  ( -3.860330793085714245E-07, 51.99999996212451947, 0.000000000000000000 ) ) ;
#87 = FACE_OUTER_BOUND ( 'NONE', #639, .T. ) ;
#88 = VERTEX_POINT ( 'NONE', #670 ) ;
#89 = ORIENTED_EDGE ( 'NONE', *, *, #361, .T. ) ;
#90 = AXIS2_PLACEMENT_3D ( 'NONE', #364, #29, #815 ) ;
#91 = EDGE_CURVE ( 'NONE', #81, #486, #371, .T. ) ;
#92 = DIRECTION ( 'NONE',  ( 4.263285714314105206E-14, -1.000000000000000000, -0.000000000000000000 ) ) ;
#93 = AXIS2_PLACEMENT_3D ( 'NONE', #685, #842, #152 ) ;
#94 = AXIS2_PLACEMENT_3D ( 'NONE', #320, #626, #606 ) ;
#95 = CARTESIAN_POINT ( 'NONE',  ( -3.860330298544571902E-07, 50.83999996212427419, 0.000000000000000000 ) ) ;
#96 = DIRECTION ( 'NONE',  ( 1.000000000000000000, 4.330831846930461154E-14, 0.000000000000000000 ) ) ;
#97 = ORIENTED_EDGE ( 'NONE', *, *, #327, .F. ) ;
#98 = EDGE_LOOP ( 'NONE', ( #201, #723, #736, #876 ) ) ;
#99 = DIRECTION ( 'NONE',  ( 4.263285714314105206E-14, -1.000000000000000000, -0.000000000000000000 ) ) ;
#100 = EDGE_CURVE ( 'NONE', #970, #923, #295, .T. ) ;
#101 = ORIENTED_EDGE ( 'NONE', *, *, #571, .F. ) ;
#102 = ORIENTED_EDGE ( 'NONE', *, *, #605, .T. ) ;
#103 = DIRECTION ( 'NONE',  ( 4.263285714314105206E-14, -1.000000000000000000, -0.000000000000000000 ) ) ;
#104 = FILL_AREA_STYLE_COLOUR ( '', #151 ) ;
#105 = EDGE_CURVE ( 'NONE', #483, #629, #600, .T. ) ;
#106 = DIRECTION ( 'NONE',  ( 4.263285714314105206E-14, -1.000000000000000000, -0.000000000000000000 ) ) ;
#107 = VERTEX_POINT ( 'NONE', #140 ) ;
#108 = DIRECTION ( 'NONE',  ( 4.263285714314105206E-14, -1.000000000000000000, -0.000000000000000000 ) ) ;
#109 =( NAMED_UNIT ( * ) PLANE_ANGLE_UNIT ( ) SI_UNIT ( $, .RADIAN. ) );
#110 = AXIS2_PLACEMENT_3D ( 'NONE', #912, #123, #834 ) ;
#111 = CONICAL_SURFACE ( 'NONE', #313, 6.000000000000482281, 1.047197551196509480 ) ;
#112 = AXIS2_PLACEMENT_3D ( 'NONE', #705, #307, #940 ) ;
#113 = ADVANCED_FACE ( 'NONE', ( #983 ), #223, .T. ) ;
#114 = CARTESIAN_POINT ( 'NONE',  ( -4.800000386034049882, 57.79843593325784923, 5.878304635908180694E-16 ) ) ;
#115 = CARTESIAN_POINT ( 'NONE',  ( -3.860338466999999902E-07, 69.99999996212460474, 0.000000000000000000 ) ) ;
#116 = DIRECTION ( 'NONE',  ( -1.000000000000000000, -4.262567288150550648E-14, 0.000000000000000000 ) ) ;
#117 = CARTESIAN_POINT ( 'NONE',  ( -3.860330715134641655E-07, 51.81715724964990955, 0.000000000000000000 ) ) ;
#118 = DIRECTION ( 'NONE',  ( 1.224646799147353207E-16, 5.221019203885406531E-30, 1.000000000000000000 ) ) ;
#119 = UNCERTAINTY_MEASURE_WITH_UNIT (LENGTH_MEASURE( 1.000000000000000082E-05 ), #667, 'distance_accuracy_value', 'NONE');
#120 = CARTESIAN_POINT ( 'NONE',  ( -3.860315587625068512E-07, 16.33393940614458018, 0.000000000000000000 ) ) ;
#121 = CARTESIAN_POINT ( 'NONE',  ( -5.000000386034932909, 67.99999996212427789, 6.123233995738201023E-16 ) ) ;
#122 = CARTESIAN_POINT ( 'NONE',  ( -3.860734952571431500E-07, 999.9999999621239795, 0.000000000000000000 ) ) ;
#123 = DIRECTION ( 'NONE',  ( 4.263285714314105206E-14, -1.000000000000000000, -0.000000000000000000 ) ) ;
#124 = EDGE_LOOP ( 'NONE', ( #684, #823, #176, #241 ) ) ;
#125 = ADVANCED_FACE ( 'NONE', ( #757 ), #57, .T. ) ;
#126 = AXIS2_PLACEMENT_3D ( 'NONE', #287, #962, #275 ) ;
#127 = AXIS2_PLACEMENT_3D ( 'NONE', #673, #304, #984 ) ;
#128 = CARTESIAN_POINT ( 'NONE',  ( -5.250000386033897293, 56.49999996212425657, 6.429395695524371320E-16 ) ) ;
#129 = AXIS2_PLACEMENT_3D ( 'NONE', #755, #92, #389 ) ;
#130 = DIRECTION ( 'NONE',  ( 1.000000000000000000, 4.229421046190569046E-14, 0.000000000000000000 ) ) ;
#131 = AXIS2_PLACEMENT_3D ( 'NONE', #849, #1002, #240 ) ;
#132 = EDGE_LOOP ( 'NONE', ( #35, #14, #54, #228 ) ) ;
#133 = EDGE_CURVE ( 'NONE', #188, #787, #764, .T. ) ;
#134 = CYLINDRICAL_SURFACE ( 'NONE', #126, 4.950000000000488676 ) ;
#135 = CARTESIAN_POINT ( 'NONE',  ( -3.860333265124638447E-07, 57.79843593325806950, 0.000000000000000000 ) ) ;
#136 = DIRECTION ( 'NONE',  ( 1.000000000000000000, 4.231032868235399487E-14, 0.000000000000000000 ) ) ;
#137 = DIRECTION ( 'NONE',  ( 4.263285714314105206E-14, -1.000000000000000000, -0.000000000000000000 ) ) ;
#138 = ORIENTED_EDGE ( 'NONE', *, *, #425, .T. ) ;
#139 =( NAMED_UNIT ( * ) PLANE_ANGLE_UNIT ( ) SI_UNIT ( $, .RADIAN. ) );
#140 = CARTESIAN_POINT ( 'NONE',  ( 9.999999613968823198, 21.22202014745618115, 1.224646799147425437E-15 ) ) ;
#141 = EDGE_CURVE ( 'NONE', #424, #703, #683, .T. ) ;
#142 = DIRECTION ( 'NONE',  ( 4.263285714314105206E-14, -1.000000000000000000, -0.000000000000000000 ) ) ;
#143 = ORIENTED_EDGE ( 'NONE', *, *, #966, .T. ) ;
#144 = DIRECTION ( 'NONE',  ( 1.000000000000000000, 4.336808689941206156E-14, 0.000000000000000000 ) ) ;
#145 = CONICAL_SURFACE ( 'NONE', #357, 4.250000000000762945, 0.7853981633975142262 ) ;
#146 = CIRCLE ( 'NONE', #93, 3.845299461622054160 ) ;
#147 = CARTESIAN_POINT ( 'NONE',  ( -3.860317671553548692E-07, 21.22202014745575482, 0.000000000000000000 ) ) ;
#148 = ADVANCED_FACE ( 'NONE', ( #977 ), #111, .F. ) ;
#149 = ORIENTED_EDGE ( 'NONE', *, *, #91, .T. ) ;
#150 = VECTOR ( 'NONE', #470, 1000.000000000000114 ) ;
#151 = COLOUR_RGB ( '',0.7921568627450980005, 0.8196078431372548767, 0.9333333333333333481 ) ;
#152 = DIRECTION ( 'NONE',  ( 1.000000000000000000, 4.330831846930461154E-14, 0.000000000000000000 ) ) ;
#153 = VERTEX_POINT ( 'NONE', #435 ) ;
#154 = FACE_OUTER_BOUND ( 'NONE', #377, .T. ) ;
#155 = CARTESIAN_POINT ( 'NONE',  ( -3.860333777385714281E-07, 58.99999996212451236, 0.000000000000000000 ) ) ;
#156 = ORIENTED_EDGE ( 'NONE', *, *, #547, .F. ) ;
#157 = EDGE_CURVE ( 'NONE', #459, #153, #195, .T. ) ;
#158 = DIRECTION ( 'NONE',  ( 1.000000000000000000, 4.263285714262590696E-14, 0.000000000000000000 ) ) ;
#159 = ORIENTED_EDGE ( 'NONE', *, *, #802, .F. ) ;
#160 = DIRECTION ( 'NONE',  ( -1.000000000000000000, 0.000000000000000000, 0.000000000000000000 ) ) ;
#161 = EDGE_CURVE ( 'NONE', #88, #897, #655, .T. ) ;
#162 = PRODUCT_DEFINITION_FORMATION_WITH_SPECIFIED_SOURCE ( 'ANY', '', #560, .NOT_KNOWN. ) ;
#163 = VECTOR ( 'NONE', #752, 999.9999999999998863 ) ;
#164 = CYLINDRICAL_SURFACE ( 'NONE', #464, 4.950000000000488676 ) ;
#165 = ORIENTED_EDGE ( 'NONE', *, *, #632, .F. ) ;
#166 = DIRECTION ( 'NONE',  ( 1.000000000000000000, 4.231032868235399487E-14, 0.000000000000000000 ) ) ;
#167 = ORIENTED_EDGE ( 'NONE', *, *, #890, .T. ) ;
#168 = ORIENTED_EDGE ( 'NONE', *, *, #828, .F. ) ;
#169 = FACE_OUTER_BOUND ( 'NONE', #245, .T. ) ;
#170 = ORIENTED_EDGE ( 'NONE', *, *, #55, .F. ) ;
#171 = ORIENTED_EDGE ( 'NONE', *, *, #445, .T. ) ;
#172 = CARTESIAN_POINT ( 'NONE',  ( -10.00000038603211294, -3.787643972857143115E-08, 1.224646799147506493E-15 ) ) ;
#173 = CARTESIAN_POINT ( 'NONE',  ( 9.999999613970389944, -3.787558707142857305E-08, 0.000000000000000000 ) ) ;
#174 = ORIENTED_EDGE ( 'NONE', *, *, #786, .T. ) ;
#175 = EDGE_CURVE ( 'NONE', #486, #483, #647, .T. ) ;
#176 = ORIENTED_EDGE ( 'NONE', *, *, #100, .T. ) ;
#177 = CARTESIAN_POINT ( 'NONE',  ( -3.860333268324023237E-07, 57.79843593325804818, 0.000000000000000000 ) ) ;
#178 = CIRCLE ( 'NONE', #904, 0.8000000000000124789 ) ;
#179 = AXIS2_PLACEMENT_3D ( 'NONE', #86, #618, #699 ) ;
#180 = CONICAL_SURFACE ( 'NONE', #484, 6.000000000000482281, 1.047197551196509480 ) ;
#181 = CIRCLE ( 'NONE', #316, 4.000000000000748734 ) ;
#182 = CARTESIAN_POINT ( 'NONE',  ( -6.000000386033520705, 50.99999996212424946, 0.000000000000000000 ) ) ;
#183 = ORIENTED_EDGE ( 'NONE', *, *, #378, .T. ) ;
#184 = DIRECTION ( 'NONE',  ( 1.000000000000000000, 4.229421046190569046E-14, 0.000000000000000000 ) ) ;
#185 = ADVANCED_FACE ( 'NONE', ( #833 ), #549, .T. ) ;
#186 = CARTESIAN_POINT ( 'NONE',  ( -3.860330594550712588E-07, 51.53431453717526267, 0.000000000000000000 ) ) ;
#187 = ORIENTED_EDGE ( 'NONE', *, *, #409, .F. ) ;
#188 = VERTEX_POINT ( 'NONE', #428 ) ;
#189 = CARTESIAN_POINT ( 'NONE',  ( 9.999999613968880041, 50.83999996212469341, 0.000000000000000000 ) ) ;
#190 = EDGE_CURVE ( 'NONE', #336, #447, #383, .T. ) ;
#191 = DIRECTION ( 'NONE',  ( 4.263285714314105206E-14, -1.000000000000000000, -0.000000000000000000 ) ) ;
#192 = CARTESIAN_POINT ( 'NONE',  ( -4.000000386034101574, 58.41905246019321396, 4.898587196590345657E-16 ) ) ;
#193 = ORIENTED_EDGE ( 'NONE', *, *, #878, .F. ) ;
#194 = CARTESIAN_POINT ( 'NONE',  ( -5.000000386034229471, 59.74999996212425657, 0.000000000000000000 ) ) ;
#195 = CIRCLE ( 'NONE', #824, 5.067157287525802190 ) ;
#196 = CIRCLE ( 'NONE', #466, 4.000000000000720313 ) ;
#197 = TOROIDAL_SURFACE ( 'NONE', #43, 4.800000000000722800, 0.8000000000000024869 ) ;
#198 = DIRECTION ( 'NONE',  ( 4.263285714314105206E-14, -1.000000000000000000, -0.000000000000000000 ) ) ;
#199 = VECTOR ( 'NONE', #202, 1000.000000000000000 ) ;
#200 = CARTESIAN_POINT ( 'NONE',  ( -5.250000386033512711, 51.99999996212429210, 0.000000000000000000 ) ) ;
#201 = ORIENTED_EDGE ( 'NONE', *, *, #157, .F. ) ;
#202 = DIRECTION ( 'NONE',  ( 4.263285714314105206E-14, -1.000000000000000000, -0.000000000000000000 ) ) ;
#203 = APPLICATION_PROTOCOL_DEFINITION ( 'draft international standard', 'automotive_design', 1998, #539 ) ;
#204 = CARTESIAN_POINT ( 'NONE',  ( -3.860734952571431500E-07, 999.9999999621239795, 0.000000000000000000 ) ) ;
#205 = FACE_OUTER_BOUND ( 'NONE', #452, .T. ) ;
#206 = EDGE_CURVE ( 'NONE', #88, #483, #362, .T. ) ;
#207 = ORIENTED_EDGE ( 'NONE', *, *, #488, .T. ) ;
#208 = DIRECTION ( 'NONE',  ( 4.263285714314105206E-14, -1.000000000000000000, -0.000000000000000000 ) ) ;
#209 = DIRECTION ( 'NONE',  ( -4.263285714314105206E-14, 1.000000000000000000, 0.000000000000000000 ) ) ;
#210 = DIRECTION ( 'NONE',  ( 0.000000000000000000, 0.000000000000000000, -1.000000000000000000 ) ) ;
#211 = DIRECTION ( 'NONE',  ( 1.000000000000000000, 4.263285714294834912E-14, 0.000000000000000000 ) ) ;
#212 = ORIENTED_EDGE ( 'NONE', *, *, #2, .T. ) ;
#213 = ADVANCED_FACE ( 'NONE', ( #981 ), #134, .T. ) ;
#214 = VECTOR ( 'NONE', #218, 1000.000000000000000 ) ;
#215 = CARTESIAN_POINT ( 'NONE',  ( -3.860330403678280669E-07, 51.08660250250290602, 0.000000000000000000 ) ) ;
#216 = AXIS2_PLACEMENT_3D ( 'NONE', #780, #691, #380 ) ;
#217 = LINE ( 'NONE', #522, #261 ) ;
#218 = DIRECTION ( 'NONE',  ( 4.263285714314105206E-14, -1.000000000000000000, -0.000000000000000000 ) ) ;
#219 = AXIS2_PLACEMENT_3D ( 'NONE', #569, #485, #184 ) ;
#220 = ORIENTED_EDGE ( 'NONE', *, *, #361, .F. ) ;
#221 = EDGE_CURVE ( 'NONE', #490, #10, #996, .T. ) ;
#222 = CARTESIAN_POINT ( 'NONE',  ( 4.999999613967410994, 59.74999996212468290, 6.123233995737772080E-16 ) ) ;
#223 = CYLINDRICAL_SURFACE ( 'NONE', #854, 8.000000000001694644 ) ;
#224 = ADVANCED_FACE ( 'NONE', ( #739 ), #74, .F. ) ;
#225 = DIRECTION ( 'NONE',  ( 4.263285714314105206E-14, -1.000000000000000000, -0.000000000000000000 ) ) ;
#226 = CARTESIAN_POINT ( 'NONE',  ( -3.860315587625068512E-07, 16.33393940614458018, 0.000000000000000000 ) ) ;
#227 = CARTESIAN_POINT ( 'NONE',  ( -3.860333777385714281E-07, 58.99999996212451236, 0.000000000000000000 ) ) ;
#228 = ORIENTED_EDGE ( 'NONE', *, *, #378, .F. ) ;
#229 = APPLICATION_PROTOCOL_DEFINITION ( 'draft international standard', 'automotive_design', 1998, #331 ) ;
#230 = PRODUCT_RELATED_PRODUCT_CATEGORY ( 'part', '', ( #560 ) ) ;
#231 = ORIENTED_EDGE ( 'NONE', *, *, #24, .F. ) ;
#232 = AXIS2_PLACEMENT_3D ( 'NONE', #117, #969, #423 ) ;
#233 = FACE_OUTER_BOUND ( 'NONE', #386, .T. ) ;
#234 = CARTESIAN_POINT ( 'NONE',  ( -3.860330298544571902E-07, 50.83999996212427419, 0.000000000000000000 ) ) ;
#235 = EDGE_CURVE ( 'NONE', #291, #897, #973, .T. ) ;
#236 = FACE_OUTER_BOUND ( 'NONE', #252, .T. ) ;
#237 = DIRECTION ( 'NONE',  ( 1.000000000000000000, 4.232725281382600255E-14, 0.000000000000000000 ) ) ;
#238 = ORIENTED_EDGE ( 'NONE', *, *, #627, .T. ) ;
#239 = ADVANCED_FACE ( 'NONE', ( #882 ), #60, .T. ) ;
#240 = DIRECTION ( 'NONE',  ( 1.000000000000000000, 4.260914537867006906E-14, 0.000000000000000000 ) ) ;
#241 = ORIENTED_EDGE ( 'NONE', *, *, #370, .F. ) ;
#242 = DIRECTION ( 'NONE',  ( 4.263285714314105206E-14, -1.000000000000000000, -0.000000000000000000 ) ) ;
#243 = ORIENTED_EDGE ( 'NONE', *, *, #828, .T. ) ;
#244 = AXIS2_PLACEMENT_3D ( 'NONE', #365, #598, #375 ) ;
#245 = EDGE_LOOP ( 'NONE', ( #620, #84, #187, #101 ) ) ;
#246 =( GEOMETRIC_REPRESENTATION_CONTEXT ( 3 ) GLOBAL_UNCERTAINTY_ASSIGNED_CONTEXT ( ( #119 ) ) GLOBAL_UNIT_ASSIGNED_CONTEXT ( ( #667, #139, #727 ) ) REPRESENTATION_CONTEXT ( 'NONE', 'WORKASPACE' ) );
#247 = DIRECTION ( 'NONE',  ( 1.000000000000000000, 4.245096388672714226E-14, 0.000000000000000000 ) ) ;
#248 = VECTOR ( 'NONE', #607, 1000.000000000000114 ) ;
#249 = EDGE_CURVE ( 'NONE', #188, #970, #439, .T. ) ;
#250 = CARTESIAN_POINT ( 'NONE',  ( -3.860332711564285924E-07, 56.49999996212447684, 0.000000000000000000 ) ) ;
#251 = ORIENTED_EDGE ( 'NONE', *, *, #471, .T. ) ;
#252 = EDGE_LOOP ( 'NONE', ( #170, #553, #532, #551 ) ) ;
#253 = MANIFOLD_SOLID_BREP ( '±ÛÂà1', #325 ) ;
#254 = DIRECTION ( 'NONE',  ( 1.000000000000000000, 4.205390244791853450E-14, 0.000000000000000000 ) ) ;
#255 = EDGE_CURVE ( 'NONE', #10, #411, #262, .T. ) ;
#256 = DIRECTION ( 'NONE',  ( 4.263285714314105206E-14, -1.000000000000000000, -0.000000000000000000 ) ) ;
#257 = VERTEX_POINT ( 'NONE', #78 ) ;
#258 = CARTESIAN_POINT ( 'NONE',  ( -10.00000038603494090, 50.83999996212384787, 1.224646799147664462E-15 ) ) ;
#259 = ORIENTED_EDGE ( 'NONE', *, *, #161, .T. ) ;
#260 = CARTESIAN_POINT ( 'NONE',  ( -3.860308624000000066E-07, -3.787601340000000210E-08, 0.000000000000000000 ) ) ;
#261 = VECTOR ( 'NONE', #924, 1000.000000000000000 ) ;
#262 = CIRCLE ( 'NONE', #534, 0.8000000000000029310 ) ;
#263 = AXIS2_PLACEMENT_3D ( 'NONE', #234, #614, #237 ) ;
#264 = CARTESIAN_POINT ( 'NONE',  ( -3.860330298544571902E-07, 50.83999996212427419, 0.000000000000000000 ) ) ;
#265 = EDGE_LOOP ( 'NONE', ( #945, #887, #799, #167 ) ) ;
#266 = EDGE_LOOP ( 'NONE', ( #714, #102, #697, #871 ) ) ;
#267 = EDGE_CURVE ( 'NONE', #629, #483, #855, .T. ) ;
#268 = DIRECTION ( 'NONE',  ( -1.000000000000000000, -4.278984574075780433E-14, 0.000000000000000000 ) ) ;
#269 =( NAMED_UNIT ( * ) SI_UNIT ( $, .STERADIAN. ) SOLID_ANGLE_UNIT ( ) );
#270 = DIRECTION ( 'NONE',  ( 0.3786864688382851618, 0.9255250176622944469, 4.637571719432681042E-17 ) ) ;
#271 = ORIENTED_EDGE ( 'NONE', *, *, #502, .F. ) ;
#272 = ORIENTED_EDGE ( 'NONE', *, *, #370, .T. ) ;
#273 = FACE_OUTER_BOUND ( 'NONE', #567, .T. ) ;
#274 = DIRECTION ( 'NONE',  ( -0.4999999999999112932, -0.8660254037844898889, 6.123233995736131249E-17 ) ) ;
#275 = DIRECTION ( 'NONE',  ( 1.000000000000000000, 4.263285714333123696E-14, 0.000000000000000000 ) ) ;
#276 = VERTEX_POINT ( 'NONE', #867 ) ;
#277 = CARTESIAN_POINT ( 'NONE',  ( 3.999999613967393230, 57.79843593325824713, 0.000000000000000000 ) ) ;
#278 = CIRCLE ( 'NONE', #915, 0.8000000000000029310 ) ;
#279 = PRESENTATION_STYLE_ASSIGNMENT (( #38 ) ) ;
#280 = AXIS2_PLACEMENT_3D ( 'NONE', #694, #767, #70 ) ;
#281 = CONICAL_SURFACE ( 'NONE', #219, 5.250000000000625278, 0.7853981633973979859 ) ;
#282 = ADVANCED_FACE ( 'NONE', ( #169 ), #933, .T. ) ;
#283 = SURFACE_STYLE_USAGE ( .BOTH. , #588 ) ;
#284 = DIRECTION ( 'NONE',  ( -4.263285714314105206E-14, 1.000000000000000000, 0.000000000000000000 ) ) ;
#285 = DIRECTION ( 'NONE',  ( 4.263285714314105206E-14, -1.000000000000000000, -0.000000000000000000 ) ) ;
#286 = CARTESIAN_POINT ( 'NONE',  ( -5.350000386033537225, 51.53431453717511346, 6.551860375438924439E-16 ) ) ;
#287 = CARTESIAN_POINT ( 'NONE',  ( -3.860308624000000066E-07, -3.787601340000000210E-08, 0.000000000000000000 ) ) ;
#288 = CARTESIAN_POINT ( 'NONE',  ( -3.860337614342857639E-07, 67.99999996212447684, 0.000000000000000000 ) ) ;
#289 = EDGE_CURVE ( 'NONE', #153, #85, #989, .T. ) ;
#290 = DIRECTION ( 'NONE',  ( -1.000000000000000000, -4.244970388271895228E-14, 0.000000000000000000 ) ) ;
#291 = VERTEX_POINT ( 'NONE', #779 ) ;
#292 = CARTESIAN_POINT ( 'NONE',  ( -3.860330366757143113E-07, 50.99999996212451236, 0.000000000000000000 ) ) ;
#293 = CARTESIAN_POINT ( 'NONE',  ( -3.860337614342857639E-07, 67.99999996212447684, 0.000000000000000000 ) ) ;
#294 = DIRECTION ( 'NONE',  ( 4.263285714314105206E-14, -1.000000000000000000, -0.000000000000000000 ) ) ;
#295 = LINE ( 'NONE', #595, #214 ) ;
#296 = EDGE_CURVE ( 'NONE', #85, #938, #612, .T. ) ;
#297 = CONICAL_SURFACE ( 'NONE', #744, 8.000000000001463718, 0.3883766555390972819 ) ;
#298 = AXIS2_PLACEMENT_3D ( 'NONE', #835, #526, #604 ) ;
#299 = CARTESIAN_POINT ( 'NONE',  ( -3.860332924728571489E-07, 56.99999996212447684, 0.000000000000000000 ) ) ;
#300 = CONICAL_SURFACE ( 'NONE', #263, 10.00000000000191136, 0.7853981633979091326 ) ;
#301 = DIRECTION ( 'NONE',  ( 4.263285714314105206E-14, -1.000000000000000000, -0.000000000000000000 ) ) ;
#302 = PRESENTATION_LAYER_ASSIGNMENT (  '', '', ( #840 ) ) ;
#303 = DIRECTION ( 'NONE',  ( 4.263285714314105206E-14, -1.000000000000000000, -0.000000000000000000 ) ) ;
#304 = DIRECTION ( 'NONE',  ( 4.263285714314105206E-14, -1.000000000000000000, -0.000000000000000000 ) ) ;
#305 = MECHANICAL_DESIGN_GEOMETRIC_PRESENTATION_REPRESENTATION (  '', ( #919 ), #45 ) ;
#306 = EDGE_CURVE ( 'NONE', #541, #787, #696, .T. ) ;
#307 = DIRECTION ( 'NONE',  ( 4.263285714314105206E-14, -1.000000000000000000, -0.000000000000000000 ) ) ;
#308 = LINE ( 'NONE', #509, #248 ) ;
#309 = ORIENTED_EDGE ( 'NONE', *, *, #802, .T. ) ;
#310 = EDGE_LOOP ( 'NONE', ( #165, #838, #212, #349 ) ) ;
#311 = CARTESIAN_POINT ( 'NONE',  ( -3.860308624000000066E-07, -3.787601340000000210E-08, 0.000000000000000000 ) ) ;
#312 = DIRECTION ( 'NONE',  ( 0.8660254037843730934, 0.5000000000001132427, 1.060575238724852681E-16 ) ) ;
#313 = AXIS2_PLACEMENT_3D ( 'NONE', #446, #209, #661 ) ;
#314 = PLANE ( 'NONE',  #216 ) ;
#315 = AXIS2_PLACEMENT_3D ( 'NONE', #870, #708, #963 ) ;
#316 = AXIS2_PLACEMENT_3D ( 'NONE', #648, #404, #144 ) ;
#317 = EDGE_CURVE ( 'NONE', #10, #490, #745, .T. ) ;
#318 = FACE_BOUND ( 'NONE', #538, .T. ) ;
#319 = EDGE_CURVE ( 'NONE', #847, #958, #949, .T. ) ;
#320 = CARTESIAN_POINT ( 'NONE',  ( -3.860308624000000066E-07, -3.787601340000000210E-08, 0.000000000000000000 ) ) ;
#321 = AXIS2_PLACEMENT_3D ( 'NONE', #899, #501, #909 ) ;
#322 = ORIENTED_EDGE ( 'NONE', *, *, #748, .T. ) ;
#323 = AXIS2_PLACEMENT_3D ( 'NONE', #671, #49, #577 ) ;
#324 = AXIS2_PLACEMENT_3D ( 'NONE', #395, #928, #12 ) ;
#325 = CLOSED_SHELL ( 'NONE', ( #125, #239, #185, #954, #48, #844, #927, #681, #80, #282, #638, #848, #213, #224, #148, #576, #414, #695, #994, #759, #922, #872, #530, #754, #774, #352, #591, #738, #463, #516, #769, #334, #16, #821, #720, #537, #669, #113 ) ) ;
#326 = DIRECTION ( 'NONE',  ( 4.263285714314105206E-14, -1.000000000000000000, -0.000000000000000000 ) ) ;
#327 = EDGE_CURVE ( 'NONE', #897, #88, #905, .T. ) ;
#328 = CARTESIAN_POINT ( 'NONE',  ( 7.999999613970869561, 4.618802115642791861, 9.797174393181186324E-16 ) ) ;
#329 = ORIENTED_EDGE ( 'NONE', *, *, #502, .T. ) ;
#330 = ORIENTED_EDGE ( 'NONE', *, *, #206, .F. ) ;
#331 = APPLICATION_CONTEXT ( 'automotive_design' ) ;
#332 = DIRECTION ( 'NONE',  ( 4.263285714314105206E-14, -1.000000000000000000, -0.000000000000000000 ) ) ;
#333 = EDGE_LOOP ( 'NONE', ( #581, #403, #753, #335 ) ) ;
#334 = ADVANCED_FACE ( 'NONE', ( #5 ), #985, .F. ) ;
#335 = ORIENTED_EDGE ( 'NONE', *, *, #445, .F. ) ;
#336 = VERTEX_POINT ( 'NONE', #863 ) ;
#337 = CIRCLE ( 'NONE', #908, 4.950000000000478018 ) ;
#338 = CARTESIAN_POINT ( 'NONE',  ( 4.949999613969626289, -3.787580236735714125E-08, 0.000000000000000000 ) ) ;
#339 = AXIS2_PLACEMENT_3D ( 'NONE', #561, #868, #817 ) ;
#340 = CARTESIAN_POINT ( 'NONE',  ( -4.950000386031351063, -3.787622443264286296E-08, 6.062001655779997059E-16 ) ) ;
#341 = ORIENTED_EDGE ( 'NONE', *, *, #317, .T. ) ;
#342 = ORIENTED_EDGE ( 'NONE', *, *, #934, .T. ) ;
#343 = EDGE_LOOP ( 'NONE', ( #859, #11, #367, #407 ) ) ;
#344 = CARTESIAN_POINT ( 'NONE',  ( 5.349999613967417744, 51.53431453717557531, 0.000000000000000000 ) ) ;
#345 = DIRECTION ( 'NONE',  ( -4.263285714314105206E-14, 1.000000000000000000, 0.000000000000000000 ) ) ;
#346 = FILL_AREA_STYLE ('',( #366 ) ) ;
#347 = DIRECTION ( 'NONE',  ( 1.000000000000000000, 4.250853923113962596E-14, 0.000000000000000000 ) ) ;
#348 = CARTESIAN_POINT ( 'NONE',  ( -3.860332711564285924E-07, 56.49999996212447684, 0.000000000000000000 ) ) ;
#349 = ORIENTED_EDGE ( 'NONE', *, *, #605, .F. ) ;
#350 = DIRECTION ( 'NONE',  ( 4.263285714314105206E-14, -1.000000000000000000, -0.000000000000000000 ) ) ;
#351 = DIRECTION ( 'NONE',  ( -1.000000000000000000, -4.250072516142399880E-14, 0.000000000000000000 ) ) ;
#352 = ADVANCED_FACE ( 'NONE', ( #58 ), #677, .F. ) ;
#353 = DIRECTION ( 'NONE',  ( 4.263285714314105206E-14, -1.000000000000000000, -0.000000000000000000 ) ) ;
#354 = CARTESIAN_POINT ( 'NONE',  ( 5.249999613967354151, 56.49999996212470421, 0.000000000000000000 ) ) ;
#355 = PRODUCT_DEFINITION_CONTEXT ( 'detailed design', #331, 'design' ) ;
#356 = DIRECTION ( 'NONE',  ( -1.000000000000000000, -4.263285714314105206E-14, 0.000000000000000000 ) ) ;
#357 = AXIS2_PLACEMENT_3D ( 'NONE', #56, #586, #290 ) ;
#358 = ORIENTED_EDGE ( 'NONE', *, *, #319, .T. ) ;
#359 = AXIS2_PLACEMENT_3D ( 'NONE', #227, #448, #527 ) ;
#360 = VECTOR ( 'NONE', #441, 1000.000000000000000 ) ;
#361 = EDGE_CURVE ( 'NONE', #923, #504, #400, .T. ) ;
#362 = LINE ( 'NONE', #751, #438 ) ;
#363 = FACE_OUTER_BOUND ( 'NONE', #98, .T. ) ;
#364 = CARTESIAN_POINT ( 'NONE',  ( -3.860333777385714281E-07, 58.99999996212451236, 0.000000000000000000 ) ) ;
#365 = CARTESIAN_POINT ( 'NONE',  ( -3.860308624000000066E-07, -3.787601340000000210E-08, 0.000000000000000000 ) ) ;
#366 = FILL_AREA_STYLE_COLOUR ( '', #637 ) ;
#367 = ORIENTED_EDGE ( 'NONE', *, *, #255, .T. ) ;
#368 = EDGE_CURVE ( 'NONE', #608, #424, #810, .T. ) ;
#369 = DIRECTION ( 'NONE',  ( 1.000000000000000000, 4.250072516142400511E-14, 0.000000000000000000 ) ) ;
#370 = EDGE_CURVE ( 'NONE', #504, #923, #725, .T. ) ;
#371 = CIRCLE ( 'NONE', #465, 0.8000000000000124789 ) ;
#372 = DIRECTION ( 'NONE',  ( 4.263285714314105206E-14, -1.000000000000000000, -0.000000000000000000 ) ) ;
#373 = CARTESIAN_POINT ( 'NONE',  ( -3.860330715134641655E-07, 51.81715724964990955, 0.000000000000000000 ) ) ;
#374 = CIRCLE ( 'NONE', #468, 5.067157287525802190 ) ;
#375 = DIRECTION ( 'NONE',  ( 1.000000000000000000, 4.263285714343248883E-14, 0.000000000000000000 ) ) ;
#376 = CARTESIAN_POINT ( 'NONE',  ( -8.000000386033024213, 16.33393940614424267, 0.000000000000000000 ) ) ;
#377 = EDGE_LOOP ( 'NONE', ( #747, #238, #322, #692 ) ) ;
#378 = EDGE_CURVE ( 'NONE', #30, #405, #462, .T. ) ;
#379 = CARTESIAN_POINT ( 'NONE',  ( -3.860308624000000066E-07, -3.787601340000000210E-08, 0.000000000000000000 ) ) ;
#380 = DIRECTION ( 'NONE',  ( -1.000000000000000000, -4.263285714314105206E-14, 0.000000000000000000 ) ) ;
#381 = ORIENTED_EDGE ( 'NONE', *, *, #368, .F. ) ;
#382 = EDGE_CURVE ( 'NONE', #153, #459, #374, .T. ) ;
#383 = CIRCLE ( 'NONE', #947, 4.950000000000498446 ) ;
#384 = VECTOR ( 'NONE', #449, 1000.000000000000000 ) ;
#385 = FACE_OUTER_BOUND ( 'NONE', #52, .T. ) ;
#386 = EDGE_LOOP ( 'NONE', ( #72, #862, #342, #168 ) ) ;
#387 = AXIS2_PLACEMENT_3D ( 'NONE', #544, #851, #158 ) ;
#388 = VECTOR ( 'NONE', #103, 1000.000000000000000 ) ;
#389 = DIRECTION ( 'NONE',  ( 1.000000000000000000, 4.236377330805914924E-14, 0.000000000000000000 ) ) ;
#390 = EDGE_CURVE ( 'NONE', #411, #964, #858, .T. ) ;
#391 = ORIENTED_EDGE ( 'NONE', *, *, #175, .T. ) ;
#392 = DIRECTION ( 'NONE',  ( 4.263285714314105206E-14, -1.000000000000000000, -0.000000000000000000 ) ) ;
#393 = EDGE_LOOP ( 'NONE', ( #730, #138, #939, #665 ) ) ;
#394 = ORIENTED_EDGE ( 'NONE', *, *, #966, .F. ) ;
#395 = CARTESIAN_POINT ( 'NONE',  ( -3.860310593127323461E-07, 4.618802115642450801, 0.000000000000000000 ) ) ;
#396 = FACE_OUTER_BOUND ( 'NONE', #393, .T. ) ;
#397 = VECTOR ( 'NONE', #270, 1000.000000000000227 ) ;
#398 = EDGE_LOOP ( 'NONE', ( #341, #795, #845, #457 ) ) ;
#399 = EDGE_LOOP ( 'NONE', ( #843, #207, #220, #903 ) ) ;
#400 = CIRCLE ( 'NONE', #324, 8.000000000001925571 ) ;
#401 = AXIS2_PLACEMENT_3D ( 'NONE', #493, #806, #916 ) ;
#402 = CARTESIAN_POINT ( 'NONE',  ( -3.860337614342857639E-07, 67.99999996212447684, 0.000000000000000000 ) ) ;
#403 = ORIENTED_EDGE ( 'NONE', *, *, #609, .T. ) ;
#404 = DIRECTION ( 'NONE',  ( 4.263285714314105206E-14, -1.000000000000000000, -0.000000000000000000 ) ) ;
#405 = VERTEX_POINT ( 'NONE', #189 ) ;
#406 = PRODUCT_DEFINITION_SHAPE ( 'NONE', 'NONE',  #596 ) ;
#407 = ORIENTED_EDGE ( 'NONE', *, *, #390, .T. ) ;
#408 = DIRECTION ( 'NONE',  ( 1.000000000000000000, 4.229421046190722401E-14, 0.000000000000000000 ) ) ;
#409 = EDGE_CURVE ( 'NONE', #938, #85, #421, .T. ) ;
#410 = ORIENTED_EDGE ( 'NONE', *, *, #13, .F. ) ;
#411 = VERTEX_POINT ( 'NONE', #277 ) ;
#412 = FACE_OUTER_BOUND ( 'NONE', #310, .T. ) ;
#413 = CARTESIAN_POINT ( 'NONE',  ( -3.860315587625068512E-07, 16.33393940614458018, 0.000000000000000000 ) ) ;
#414 = ADVANCED_FACE ( 'NONE', ( #956 ), #566, .T. ) ;
#415 = EDGE_LOOP ( 'NONE', ( #864, #811, #926, #880 ) ) ;
#416 = ORIENTED_EDGE ( 'NONE', *, *, #175, .F. ) ;
#417 = AXIS2_PLACEMENT_3D ( 'NONE', #204, #442, #50 ) ;
#418 = VECTOR ( 'NONE', #312, 1000.000000000000114 ) ;
#419 = CARTESIAN_POINT ( 'NONE',  ( 5.067156901492730903, 51.81715724965012271, 0.000000000000000000 ) ) ;
#420 = LINE ( 'NONE', #121, #498 ) ;
#421 = CIRCLE ( 'NONE', #999, 5.250000000000434319 ) ;
#422 = CIRCLE ( 'NONE', #613, 3.845299461622054160 ) ;
#423 = DIRECTION ( 'NONE',  ( -1.000000000000000000, -4.245096388672714226E-14, 0.000000000000000000 ) ) ;
#424 = VERTEX_POINT ( 'NONE', #25 ) ;
#425 = EDGE_CURVE ( 'NONE', #847, #153, #678, .T. ) ;
#426 = ORIENTED_EDGE ( 'NONE', *, *, #63, .T. ) ;
#427 = LINE ( 'NONE', #497, #64 ) ;
#428 = CARTESIAN_POINT ( 'NONE',  ( -8.000000386033022437, 16.33393940614424267, 0.000000000000000000 ) ) ;
#429 = DIRECTION ( 'NONE',  ( 4.263285714314105206E-14, -1.000000000000000000, -0.000000000000000000 ) ) ;
#430 = ORIENTED_EDGE ( 'NONE', *, *, #597, .F. ) ;
#431 = EDGE_LOOP ( 'NONE', ( #381, #768, #772, #231 ) ) ;
#432 = EDGE_CURVE ( 'NONE', #444, #541, #20, .T. ) ;
#433 = PLANE ( 'NONE',  #763 ) ;
#434 = SURFACE_STYLE_FILL_AREA ( #47 ) ;
#435 = CARTESIAN_POINT ( 'NONE',  ( -5.067157673558874365, 51.81715724964968928, 6.205477952944659972E-16 ) ) ;
#436 = DIRECTION ( 'NONE',  ( -1.000000000000000000, -4.250072516142399880E-14, 0.000000000000000000 ) ) ;
#437 = DIRECTION ( 'NONE',  ( 0.7071067811865640040, 0.7071067811865311414, 8.659560562355503550E-17 ) ) ;
#438 = VECTOR ( 'NONE', #829, 1000.000000000000000 ) ;
#439 = CIRCLE ( 'NONE', #454, 8.000000000001461942 ) ;
#440 = CIRCLE ( 'NONE', #641, 8.000000000001461942 ) ;
#441 = DIRECTION ( 'NONE',  ( 0.4999999999999851230, -0.8660254037844472563, 0.000000000000000000 ) ) ;
#442 = DIRECTION ( 'NONE',  ( -4.263285714314105206E-14, 1.000000000000000000, 0.000000000000000000 ) ) ;
#443 = DIRECTION ( 'NONE',  ( 1.000000000000000000, 0.000000000000000000, -1.224646799147352714E-16 ) ) ;
#444 = VERTEX_POINT ( 'NONE', #15 ) ;
#445 = EDGE_CURVE ( 'NONE', #958, #447, #587, .T. ) ;
#446 = CARTESIAN_POINT ( 'NONE',  ( -3.860330366757143113E-07, 50.99999996212451236, 0.000000000000000000 ) ) ;
#447 = VERTEX_POINT ( 'NONE', #650 ) ;
#448 = DIRECTION ( 'NONE',  ( 4.263285714314105206E-14, -1.000000000000000000, -0.000000000000000000 ) ) ;
#449 = DIRECTION ( 'NONE',  ( 4.263285714314105206E-14, -1.000000000000000000, -0.000000000000000000 ) ) ;
#450 = CARTESIAN_POINT ( 'NONE',  ( 4.249999613967382572, 58.99999996212469000, 0.000000000000000000 ) ) ;
#451 = CARTESIAN_POINT ( 'NONE',  ( -3.860308624000000066E-07, -3.787601340000000210E-08, 0.000000000000000000 ) ) ;
#452 = EDGE_LOOP ( 'NONE', ( #741, #426, #528, #416 ) ) ;
#453 = CIRCLE ( 'NONE', #6, 4.000000000000748734 ) ;
#454 = AXIS2_PLACEMENT_3D ( 'NONE', #893, #353, #369 ) ;
#455 = LINE ( 'NONE', #822, #552 ) ;
#456 = DIRECTION ( 'NONE',  ( 4.263285714314105206E-14, -1.000000000000000000, -0.000000000000000000 ) ) ;
#457 = ORIENTED_EDGE ( 'NONE', *, *, #2, .F. ) ;
#458 = CARTESIAN_POINT ( 'NONE',  ( -5.250000386031392630, -3.787623722250000484E-08, 6.429395695524253977E-16 ) ) ;
#459 = VERTEX_POINT ( 'NONE', #419 ) ;
#460 = EDGE_CURVE ( 'NONE', #447, #336, #583, .T. ) ;
#461 = ORIENTED_EDGE ( 'NONE', *, *, #980, .F. ) ;
#462 = LINE ( 'NONE', #853, #150 ) ;
#463 = ADVANCED_FACE ( 'NONE', ( #412 ), #281, .T. ) ;
#464 = AXIS2_PLACEMENT_3D ( 'NONE', #311, #137, #837 ) ;
#465 = AXIS2_PLACEMENT_3D ( 'NONE', #503, #118, #443 ) ;
#466 = AXIS2_PLACEMENT_3D ( 'NONE', #135, #830, #672 ) ;
#467 = ORIENTED_EDGE ( 'NONE', *, *, #547, .T. ) ;
#468 = AXIS2_PLACEMENT_3D ( 'NONE', #82, #392, #247 ) ;
#469 = AXIS2_PLACEMENT_3D ( 'NONE', #373, #284, #59 ) ;
#470 = DIRECTION ( 'NONE',  ( 0.7071067811869035102, -0.7071067811861914132, 0.000000000000000000 ) ) ;
#471 = EDGE_CURVE ( 'NONE', #958, #459, #937, .T. ) ;
#472 = EDGE_LOOP ( 'NONE', ( #574, #886, #23, #477 ) ) ;
#473 = ORIENTED_EDGE ( 'NONE', *, *, #524, .T. ) ;
#474 = DIRECTION ( 'NONE',  ( 4.263285714314105206E-14, -1.000000000000000000, -0.000000000000000000 ) ) ;
#475 = DIRECTION ( 'NONE',  ( 1.000000000000000000, 4.263285714314105206E-14, 0.000000000000000000 ) ) ;
#476 = ORIENTED_EDGE ( 'NONE', *, *, #425, .F. ) ;
#477 = ORIENTED_EDGE ( 'NONE', *, *, #296, .T. ) ;
#478 = DIRECTION ( 'NONE',  ( 0.000000000000000000, 0.000000000000000000, -1.000000000000000000 ) ) ;
#479 = DIRECTION ( 'NONE',  ( 4.263285714314105206E-14, -1.000000000000000000, -0.000000000000000000 ) ) ;
#480 = EDGE_LOOP ( 'NONE', ( #836, #827, #89 ) ) ;
#481 = CARTESIAN_POINT ( 'NONE',  ( -5.550000386033516087, 50.74019234098889086, 0.000000000000000000 ) ) ;
#482 = CIRCLE ( 'NONE', #700, 0.3999999999999984679 ) ;
#483 = VERTEX_POINT ( 'NONE', #194 ) ;
#484 = AXIS2_PLACEMENT_3D ( 'NONE', #505, #32, #268 ) ;
#485 = DIRECTION ( 'NONE',  ( 4.263285714314105206E-14, -1.000000000000000000, -0.000000000000000000 ) ) ;
#486 = VERTEX_POINT ( 'NONE', #877 ) ;
#487 = LINE ( 'NONE', #812, #199 ) ;
#488 = EDGE_CURVE ( 'NONE', #188, #504, #427, .T. ) ;
#489 = LINE ( 'NONE', #712, #519 ) ;
#490 = VERTEX_POINT ( 'NONE', #492 ) ;
#491 = ORIENTED_EDGE ( 'NONE', *, *, #698, .F. ) ;
#492 = CARTESIAN_POINT ( 'NONE',  ( -4.750000386033968347, 56.99999996212427789, 6.123233995737564018E-16 ) ) ;
#493 = CARTESIAN_POINT ( 'NONE',  ( 0.000000000000000000, 0.000000000000000000, 0.000000000000000000 ) ) ;
#494 = DIRECTION ( 'NONE',  ( 1.000000000000000000, 4.229421046190569046E-14, 0.000000000000000000 ) ) ;
#495 = DIRECTION ( 'NONE',  ( 0.7071067811865421326, -0.7071067811865530128, 0.000000000000000000 ) ) ;
#496 = AXIS2_PLACEMENT_3D ( 'NONE', #379, #783, #990 ) ;
#497 = CARTESIAN_POINT ( 'NONE',  ( -8.000000386032557032, -3.787635446285715196E-08, 9.797174393180900362E-16 ) ) ;
#498 = VECTOR ( 'NONE', #274, 1000.000000000000000 ) ;
#499 = AXIS2_PLACEMENT_3D ( 'NONE', #344, #646, #800 ) ;
#500 = CONICAL_SURFACE ( 'NONE', #417, 1732.050807568748269, 1.047197551196565435 ) ;
#501 = DIRECTION ( 'NONE',  ( 4.263285714314105206E-14, -1.000000000000000000, -0.000000000000000000 ) ) ;
#502 = EDGE_CURVE ( 'NONE', #897, #629, #487, .T. ) ;
#503 = CARTESIAN_POINT ( 'NONE',  ( -4.800000386034128042, 58.41905246019319264, 5.878304635908243802E-16 ) ) ;
#504 = VERTEX_POINT ( 'NONE', #642 ) ;
#505 = CARTESIAN_POINT ( 'NONE',  ( -3.860330366757143113E-07, 50.99999996212451236, 0.000000000000000000 ) ) ;
#506 = ORIENTED_EDGE ( 'NONE', *, *, #617, .F. ) ;
#507 = CARTESIAN_POINT ( 'NONE',  ( -6.000000386033518929, 50.99999996212424946, 0.000000000000000000 ) ) ;
#508 = DIRECTION ( 'NONE',  ( 4.263285714314105206E-14, -1.000000000000000000, -0.000000000000000000 ) ) ;
#509 = CARTESIAN_POINT ( 'NONE',  ( 5.067156901492730015, 51.81715724965012271, 6.205477952944658000E-16 ) ) ;
#510 = CARTESIAN_POINT ( 'NONE',  ( -5.350000386033537225, 51.08660250250267154, 6.551860375438948104E-16 ) ) ;
#511 =( NAMED_UNIT ( * ) SI_UNIT ( $, .STERADIAN. ) SOLID_ANGLE_UNIT ( ) );
#512 = PRESENTATION_STYLE_ASSIGNMENT (( #283 ) ) ;
#513 = CYLINDRICAL_SURFACE ( 'NONE', #717, 5.250000000000530243 ) ;
#514 = DIRECTION ( 'NONE',  ( 1.000000000000000000, 0.000000000000000000, -1.224646799147352961E-16 ) ) ;
#515 = AXIS2_PLACEMENT_3D ( 'NONE', #299, #53, #34 ) ;
#516 = ADVANCED_FACE ( 'NONE', ( #658 ), #197, .F. ) ;
#517 = AXIS2_PLACEMENT_3D ( 'NONE', #250, #628, #770 ) ;
#518 = AXIS2_PLACEMENT_3D ( 'NONE', #556, #942, #254 ) ;
#519 = VECTOR ( 'NONE', #17, 1000.000000000000000 ) ;
#520 = AXIS2_PLACEMENT_3D ( 'NONE', #413, #345, #351 ) ;
#521 = DIRECTION ( 'NONE',  ( 1.000000000000000000, 4.205390244791836411E-14, 0.000000000000000000 ) ) ;
#522 = CARTESIAN_POINT ( 'NONE',  ( 3.999999613969871248, -3.787584286857143048E-08, 0.000000000000000000 ) ) ;
#523 = EDGE_LOOP ( 'NONE', ( #852, #831, #704, #156 ) ) ;
#524 = EDGE_CURVE ( 'NONE', #405, #541, #884, .T. ) ;
#525 = FACE_OUTER_BOUND ( 'NONE', #860, .T. ) ;
#526 = DIRECTION ( 'NONE',  ( 4.263285714314105206E-14, -1.000000000000000000, -0.000000000000000000 ) ) ;
#527 = DIRECTION ( 'NONE',  ( 1.000000000000000000, 4.244970388271895228E-14, 0.000000000000000000 ) ) ;
#528 = ORIENTED_EDGE ( 'NONE', *, *, #267, .T. ) ;
#529 = CARTESIAN_POINT ( 'NONE',  ( -3.860308624000000066E-07, -3.787601340000000210E-08, 0.000000000000000000 ) ) ;
#530 = ADVANCED_FACE ( 'NONE', ( #796 ), #180, .F. ) ;
#531 = CARTESIAN_POINT ( 'NONE',  ( -3.860333529711195744E-07, 58.41905246019339160, 0.000000000000000000 ) ) ;
#532 = ORIENTED_EDGE ( 'NONE', *, *, #24, .T. ) ;
#533 = AXIS2_PLACEMENT_3D ( 'NONE', #623, #776, #543 ) ;
#534 = AXIS2_PLACEMENT_3D ( 'NONE', #652, #478, #160 ) ;
#535 = AXIS2_PLACEMENT_3D ( 'NONE', #911, #225, #621 ) ;
#536 = EDGE_CURVE ( 'NONE', #970, #188, #440, .T. ) ;
#537 = ADVANCED_FACE ( 'NONE', ( #273 ), #433, .T. ) ;
#538 = EDGE_LOOP ( 'NONE', ( #143, #467 ) ) ;
#539 = APPLICATION_CONTEXT ( 'automotive_design' ) ;
#540 = DIRECTION ( 'NONE',  ( 1.000000000000000000, 4.263285714262590696E-14, 0.000000000000000000 ) ) ;
#541 = VERTEX_POINT ( 'NONE', #258 ) ;
#542 = DIRECTION ( 'NONE',  ( 1.000000000000000000, 4.250853923113962596E-14, 0.000000000000000000 ) ) ;
#543 = DIRECTION ( 'NONE',  ( 1.000000000000000000, 4.263285714314104575E-14, 0.000000000000000000 ) ) ;
#544 = CARTESIAN_POINT ( 'NONE',  ( -3.860308624000000066E-07, -3.787601340000000210E-08, 0.000000000000000000 ) ) ;
#545 = ORIENTED_EDGE ( 'NONE', *, *, #235, .T. ) ;
#546 = DIRECTION ( 'NONE',  ( -0.7071067811866214026, 0.7071067811864736319, 0.000000000000000000 ) ) ;
#547 = EDGE_CURVE ( 'NONE', #703, #558, #746, .T. ) ;
#548 = CARTESIAN_POINT ( 'NONE',  ( -3.860308624000000066E-07, -3.787601340000000210E-08, 0.000000000000000000 ) ) ;
#549 = CONICAL_SURFACE ( 'NONE', #321, 5.000000000001171507, 0.5235987755982390857 ) ;
#550 = DIRECTION ( 'NONE',  ( 4.263285714314105206E-14, -1.000000000000000000, -0.000000000000000000 ) ) ;
#551 = ORIENTED_EDGE ( 'NONE', *, *, #460, .T. ) ;
#552 = VECTOR ( 'NONE', #585, 1000.000000000000114 ) ;
#553 = ORIENTED_EDGE ( 'NONE', *, *, #619, .F. ) ;
#554 = CARTESIAN_POINT ( 'NONE',  ( -3.860333265124638447E-07, 57.79843593325806950, 0.000000000000000000 ) ) ;
#555 = EDGE_LOOP ( 'NONE', ( #473, #564, #159, #1001 ) ) ;
#556 = CARTESIAN_POINT ( 'NONE',  ( -3.860330594550712588E-07, 51.53431453717526267, 0.000000000000000000 ) ) ;
#557 = LINE ( 'NONE', #173, #809 ) ;
#558 = VERTEX_POINT ( 'NONE', #182 ) ;
#559 = DIRECTION ( 'NONE',  ( 1.000000000000000000, 4.163336342343361363E-14, 0.000000000000000000 ) ) ;
#560 = PRODUCT ( '99688-SI16-M10+S9MT1603-120', '99688-SI16-M10+S9MT1603-120', '', ( #676 ) ) ;
#561 = CARTESIAN_POINT ( 'NONE',  ( -3.860308624000000066E-07, -3.787601340000000210E-08, 0.000000000000000000 ) ) ;
#562 = EDGE_LOOP ( 'NONE', ( #771, #358, #171, #568 ) ) ;
#563 = EDGE_CURVE ( 'NONE', #659, #504, #489, .T. ) ;
#564 = ORIENTED_EDGE ( 'NONE', *, *, #306, .T. ) ;
#565 =( GEOMETRIC_REPRESENTATION_CONTEXT ( 3 ) GLOBAL_UNCERTAINTY_ASSIGNED_CONTEXT ( ( #46 ) ) GLOBAL_UNIT_ASSIGNED_CONTEXT ( ( #892, #660, #269 ) ) REPRESENTATION_CONTEXT ( 'NONE', 'WORKASPACE' ) );
#566 = CYLINDRICAL_SURFACE ( 'NONE', #951, 10.00000000000125056 ) ;
#567 = EDGE_LOOP ( 'NONE', ( #193, #506 ) ) ;
#568 = ORIENTED_EDGE ( 'NONE', *, *, #190, .F. ) ;
#569 = CARTESIAN_POINT ( 'NONE',  ( -3.860332711564285924E-07, 56.49999996212447684, 0.000000000000000000 ) ) ;
#570 = SURFACE_SIDE_STYLE ('',( #434 ) ) ;
#571 = EDGE_CURVE ( 'NONE', #257, #938, #634, .T. ) ;
#572 = DIRECTION ( 'NONE',  ( 1.000000000000000000, 4.205390244791853450E-14, 0.000000000000000000 ) ) ;
#573 = DIRECTION ( 'NONE',  ( 1.000000000000000000, 0.000000000000000000, -1.224646799147351235E-16 ) ) ;
#574 = ORIENTED_EDGE ( 'NONE', *, *, #674, .F. ) ;
#575 = DIRECTION ( 'NONE',  ( 1.000000000000000000, 4.263285714314105206E-14, 0.000000000000000000 ) ) ;
#576 = ADVANCED_FACE ( 'NONE', ( #814 ), #826, .T. ) ;
#577 = DIRECTION ( 'NONE',  ( 1.000000000000000000, 4.263285714314104575E-14, 0.000000000000000000 ) ) ;
#578 = CARTESIAN_POINT ( 'NONE',  ( 7.999999613969904999, 16.33393940614492124, 9.797174393180618344E-16 ) ) ;
#579 = AXIS2_PLACEMENT_3D ( 'NONE', #624, #256, #475 ) ;
#580 = MECHANICAL_DESIGN_GEOMETRIC_PRESENTATION_REPRESENTATION (  '', ( #840 ), #246 ) ;
#581 = ORIENTED_EDGE ( 'NONE', *, *, #597, .T. ) ;
#582 = DIRECTION ( 'NONE',  ( 4.263285714314105206E-14, -1.000000000000000000, -0.000000000000000000 ) ) ;
#583 = CIRCLE ( 'NONE', #602, 4.950000000000498446 ) ;
#584 = CIRCLE ( 'NONE', #724, 9.840000000001664304 ) ;
#585 = DIRECTION ( 'NONE',  ( 0.8660254037844010711, 0.5000000000000649480, 1.060575238724886947E-16 ) ) ;
#586 = DIRECTION ( 'NONE',  ( -4.263285714314105206E-14, 1.000000000000000000, 0.000000000000000000 ) ) ;
#587 = LINE ( 'NONE', #338, #388 ) ;
#588 = SURFACE_SIDE_STYLE ('',( #967 ) ) ;
#589 = DIRECTION ( 'NONE',  ( 1.000000000000000000, 4.163336342343361363E-14, 0.000000000000000000 ) ) ;
#590 = DIRECTION ( 'NONE',  ( 1.224646799147353207E-16, 5.221019203885406531E-30, 1.000000000000000000 ) ) ;
#591 = ADVANCED_FACE ( 'NONE', ( #874 ), #79, .T. ) ;
#592 = EDGE_LOOP ( 'NONE', ( #804, #865, #391, #615 ) ) ;
#593 = LINE ( 'NONE', #507, #775 ) ;
#594 = DIRECTION ( 'NONE',  ( -0.7071067811866244002, 0.7071067811864707453, 0.000000000000000000 ) ) ;
#595 = CARTESIAN_POINT ( 'NONE',  ( 7.999999613970833146, -3.787567233714285224E-08, 0.000000000000000000 ) ) ;
#596 = PRODUCT_DEFINITION ( 'UNKNOWN', '', #162, #355 ) ;
#597 = EDGE_CURVE ( 'NONE', #958, #847, #337, .T. ) ;
#598 = DIRECTION ( 'NONE',  ( 4.263285714314105206E-14, -1.000000000000000000, -0.000000000000000000 ) ) ;
#599 = AXIS2_PLACEMENT_3D ( 'NONE', #147, #142, #61 ) ;
#600 = CIRCLE ( 'NONE', #298, 5.000000000000820677 ) ;
#601 = AXIS2_PLACEMENT_3D ( 'NONE', #402, #326, #559 ) ;
#602 = AXIS2_PLACEMENT_3D ( 'NONE', #965, #582, #972 ) ;
#603 = DIRECTION ( 'NONE',  ( 1.000000000000000000, 4.245096388672714226E-14, 0.000000000000000000 ) ) ;
#604 = DIRECTION ( 'NONE',  ( 1.000000000000000000, 4.302114220421775406E-14, 0.000000000000000000 ) ) ;
#605 = EDGE_CURVE ( 'NONE', #276, #257, #65, .T. ) ;
#606 = DIRECTION ( 'NONE',  ( 1.000000000000000000, 4.263285714362954629E-14, 0.000000000000000000 ) ) ;
#607 = DIRECTION ( 'NONE',  ( 0.7071067811865608954, 0.7071067811865340280, 8.659560562355466572E-17 ) ) ;
#608 = VERTEX_POINT ( 'NONE', #481 ) ;
#609 = EDGE_CURVE ( 'NONE', #847, #336, #22, .T. ) ;
#610 = EDGE_LOOP ( 'NONE', ( #476, #430, #251, #992 ) ) ;
#611 = VECTOR ( 'NONE', #594, 1000.000000000000000 ) ;
#612 = CIRCLE ( 'NONE', #179, 5.250000000000434319 ) ;
#613 = AXIS2_PLACEMENT_3D ( 'NONE', #793, #429, #96 ) ;
#614 = DIRECTION ( 'NONE',  ( 4.263285714314105206E-14, -1.000000000000000000, -0.000000000000000000 ) ) ;
#615 = ORIENTED_EDGE ( 'NONE', *, *, #105, .T. ) ;
#616 = CARTESIAN_POINT ( 'NONE',  ( 4.999999613967410106, 67.99999996212469000, 0.000000000000000000 ) ) ;
#617 = EDGE_CURVE ( 'NONE', #707, #291, #422, .T. ) ;
#618 = DIRECTION ( 'NONE',  ( 4.263285714314105206E-14, -1.000000000000000000, -0.000000000000000000 ) ) ;
#619 = EDGE_CURVE ( 'NONE', #424, #608, #988, .T. ) ;
#620 = ORIENTED_EDGE ( 'NONE', *, *, #861, .T. ) ;
#621 = DIRECTION ( 'NONE',  ( 1.000000000000000000, 4.263285714314105206E-14, 0.000000000000000000 ) ) ;
#622 = VECTOR ( 'NONE', #67, 1000.000000000000114 ) ;
#623 = CARTESIAN_POINT ( 'NONE',  ( -3.860330406030287875E-07, 51.08660250250289891, 0.000000000000000000 ) ) ;
#624 = CARTESIAN_POINT ( 'NONE',  ( -3.860333528532544634E-07, 58.41905246019339870, 0.000000000000000000 ) ) ;
#625 = EDGE_LOOP ( 'NONE', ( #713, #866, #781, #271 ) ) ;
#626 = DIRECTION ( 'NONE',  ( 4.263285714314105206E-14, -1.000000000000000000, -0.000000000000000000 ) ) ;
#627 = EDGE_CURVE ( 'NONE', #81, #71, #181, .T. ) ;
#628 = DIRECTION ( 'NONE',  ( 4.263285714314105206E-14, -1.000000000000000000, -0.000000000000000000 ) ) ;
#629 = VERTEX_POINT ( 'NONE', #222 ) ;
#630 = CARTESIAN_POINT ( 'NONE',  ( -3.860330255993730977E-07, 50.74019234098913245, 0.000000000000000000 ) ) ;
#631 = DIRECTION ( 'NONE',  ( 1.000000000000000000, 4.232725281382600886E-14, 0.000000000000000000 ) ) ;
#632 = EDGE_CURVE ( 'NONE', #490, #276, #682, .T. ) ;
#633 = DIRECTION ( 'NONE',  ( 4.263285714314105206E-14, -1.000000000000000000, -0.000000000000000000 ) ) ;
#634 = LINE ( 'NONE', #653, #7 ) ;
#635 = AXIS2_PLACEMENT_3D ( 'NONE', #510, #590, #573 ) ;
#636 = ORIENTED_EDGE ( 'NONE', *, *, #249, .F. ) ;
#637 = COLOUR_RGB ( '',0.7921568627450980005, 0.8196078431372548767, 0.9333333333333333481 ) ;
#638 = ADVANCED_FACE ( 'NONE', ( #363 ), #690, .T. ) ;
#639 = EDGE_LOOP ( 'NONE', ( #875, #931, #183, #955 ) ) ;
#640 = VECTOR ( 'NONE', #702, 1000.000000000000000 ) ;
#641 = AXIS2_PLACEMENT_3D ( 'NONE', #120, #108, #960 ) ;
#642 = CARTESIAN_POINT ( 'NONE',  ( -8.000000386032986910, 4.618802115642109740, 0.000000000000000000 ) ) ;
#643 = LINE ( 'NONE', #578, #397 ) ;
#644 = ORIENTED_EDGE ( 'NONE', *, *, #961, .F. ) ;
#645 = EDGE_CURVE ( 'NONE', #659, #923, #455, .T. ) ;
#646 = DIRECTION ( 'NONE',  ( 0.000000000000000000, 0.000000000000000000, -1.000000000000000000 ) ) ;
#647 = LINE ( 'NONE', #749, #611 ) ;
#648 = CARTESIAN_POINT ( 'NONE',  ( -3.860333529711195744E-07, 58.41905246019339160, 0.000000000000000000 ) ) ;
#649 = DIRECTION ( 'NONE',  ( 4.263285714314105206E-14, -1.000000000000000000, -0.000000000000000000 ) ) ;
#650 = CARTESIAN_POINT ( 'NONE',  ( 4.949999613967457357, 51.08660250250311918, 0.000000000000000000 ) ) ;
#651 =( LENGTH_UNIT ( ) NAMED_UNIT ( * ) SI_UNIT ( .MILLI., .METRE. ) );
#652 = CARTESIAN_POINT ( 'NONE',  ( 4.799999613967395717, 57.79843593325824713, 0.000000000000000000 ) ) ;
#653 = CARTESIAN_POINT ( 'NONE',  ( 5.249999613969667855, -3.787578957749999937E-08, 0.000000000000000000 ) ) ;
#654 = LINE ( 'NONE', #354, #8 ) ;
#655 = CIRCLE ( 'NONE', #761, 5.000000000001171507 ) ;
#656 = CIRCLE ( 'NONE', #791, 4.250000000000762945 ) ;
#657 = VECTOR ( 'NONE', #546, 1000.000000000000114 ) ;
#658 = FACE_OUTER_BOUND ( 'NONE', #343, .T. ) ;
#659 = VERTEX_POINT ( 'NONE', #529 ) ;
#660 =( NAMED_UNIT ( * ) PLANE_ANGLE_UNIT ( ) SI_UNIT ( $, .RADIAN. ) );
#661 = DIRECTION ( 'NONE',  ( -1.000000000000000000, -4.278984574075780433E-14, 0.000000000000000000 ) ) ;
#662 = CARTESIAN_POINT ( 'NONE',  ( -3.845299847655901271, 69.99999996212436315, 5.416183836588347061E-16 ) ) ;
#663 = ORIENTED_EDGE ( 'NONE', *, *, #221, .F. ) ;
#664 = CARTESIAN_POINT ( 'NONE',  ( -3.860308624000000066E-07, -3.787601340000000210E-08, 0.000000000000000000 ) ) ;
#665 = ORIENTED_EDGE ( 'NONE', *, *, #471, .F. ) ;
#666 = FACE_OUTER_BOUND ( 'NONE', #986, .T. ) ;
#667 =( LENGTH_UNIT ( ) NAMED_UNIT ( * ) SI_UNIT ( .MILLI., .METRE. ) );
#668 = DIRECTION ( 'NONE',  ( -1.000000000000000000, 0.000000000000000000, 0.000000000000000000 ) ) ;
#669 = ADVANCED_FACE ( 'NONE', ( #889 ), #500, .T. ) ;
#670 = CARTESIAN_POINT ( 'NONE',  ( -5.000000386034932021, 67.99999996212427789, 6.123233995738415988E-16 ) ) ;
#671 = CARTESIAN_POINT ( 'NONE',  ( -3.860330406030287875E-07, 51.08660250250289891, 0.000000000000000000 ) ) ;
#672 = DIRECTION ( 'NONE',  ( 1.000000000000000000, 4.336808689941237079E-14, 0.000000000000000000 ) ) ;
#673 = CARTESIAN_POINT ( 'NONE',  ( -3.860317671553548692E-07, 21.22202014745575482, 0.000000000000000000 ) ) ;
#674 = EDGE_CURVE ( 'NONE', #459, #938, #308, .T. ) ;
#675 = CONICAL_SURFACE ( 'NONE', #21, 5.000000000001171507, 0.5235987755982390857 ) ;
#676 = PRODUCT_CONTEXT ( 'NONE', #539, 'mechanical' ) ;
#677 = TOROIDAL_SURFACE ( 'NONE', #535, 5.350000000000477485, 0.3999999999999996336 ) ;
#678 = CIRCLE ( 'NONE', #918, 0.3999999999999993006 ) ;
#679 = DIRECTION ( 'NONE',  ( 1.000000000000000000, 4.302114220421775406E-14, 0.000000000000000000 ) ) ;
#680 = AXIS2_PLACEMENT_3D ( 'NONE', #718, #191, #494 ) ;
#681 = ADVANCED_FACE ( 'NONE', ( #525 ), #968, .F. ) ;
#682 = LINE ( 'NONE', #128, #163 ) ;
#683 = LINE ( 'NONE', #991, #418 ) ;
#684 = ORIENTED_EDGE ( 'NONE', *, *, #488, .F. ) ;
#685 = CARTESIAN_POINT ( 'NONE',  ( -3.860338466999999902E-07, 69.99999996212451947, 0.000000000000000000 ) ) ;
#686 = VERTEX_POINT ( 'NONE', #450 ) ;
#687 = SHAPE_DEFINITION_REPRESENTATION ( #406, #66 ) ;
#688 = TOROIDAL_SURFACE ( 'NONE', #280, 5.350000000000477485, 0.3999999999999996336 ) ;
#689 = CIRCLE ( 'NONE', #950, 10.00000000000190958 ) ;
#690 = CONICAL_SURFACE ( 'NONE', #469, 5.067157287525802190, 0.7853981633975100074 ) ;
#691 = DIRECTION ( 'NONE',  ( -4.263285714314105206E-14, 1.000000000000000000, 0.000000000000000000 ) ) ;
#692 = ORIENTED_EDGE ( 'NONE', *, *, #706, .F. ) ;
#693 = DIRECTION ( 'NONE',  ( 4.263285714314105206E-14, -1.000000000000000000, -0.000000000000000000 ) ) ;
#694 = CARTESIAN_POINT ( 'NONE',  ( -3.860330596849870233E-07, 51.53431453717534083, 0.000000000000000000 ) ) ;
#695 = ADVANCED_FACE ( 'NONE', ( #756 ), #297, .T. ) ;
#696 = LINE ( 'NONE', #172, #384 ) ;
#697 = ORIENTED_EDGE ( 'NONE', *, *, #571, .T. ) ;
#698 = EDGE_CURVE ( 'NONE', #71, #686, #178, .T. ) ;
#699 = DIRECTION ( 'NONE',  ( 1.000000000000000000, 4.229421046190722401E-14, 0.000000000000000000 ) ) ;
#700 = AXIS2_PLACEMENT_3D ( 'NONE', #901, #210, #891 ) ;
#701 = CIRCLE ( 'NONE', #359, 4.250000000000762945 ) ;
#702 = DIRECTION ( 'NONE',  ( 4.263285714314105206E-14, -1.000000000000000000, -0.000000000000000000 ) ) ;
#703 = VERTEX_POINT ( 'NONE', #41 ) ;
#704 = ORIENTED_EDGE ( 'NONE', *, *, #961, .T. ) ;
#705 = CARTESIAN_POINT ( 'NONE',  ( -3.860333528532544634E-07, 58.41905246019339870, 0.000000000000000000 ) ) ;
#706 = EDGE_CURVE ( 'NONE', #964, #411, #196, .T. ) ;
#707 = VERTEX_POINT ( 'NONE', #662 ) ;
#708 = DIRECTION ( 'NONE',  ( 4.263285714314105206E-14, -1.000000000000000000, -0.000000000000000000 ) ) ;
#709 = ORIENTED_EDGE ( 'NONE', *, *, #617, .T. ) ;
#710 = ORIENTED_EDGE ( 'NONE', *, *, #255, .F. ) ;
#711 = CARTESIAN_POINT ( 'NONE',  ( -3.860330298544571902E-07, 50.83999996212427419, 0.000000000000000000 ) ) ;
#712 = CARTESIAN_POINT ( 'NONE',  ( -3.860308624000000066E-07, -3.787601340000000210E-08, 0.000000000000000000 ) ) ;
#713 = ORIENTED_EDGE ( 'NONE', *, *, #327, .T. ) ;
#714 = ORIENTED_EDGE ( 'NONE', *, *, #856, .F. ) ;
#715 = DIRECTION ( 'NONE',  ( 1.000000000000000000, 4.232725281382600886E-14, 0.000000000000000000 ) ) ;
#716 = DIRECTION ( 'NONE',  ( 1.000000000000000000, 4.278984574075779802E-14, 0.000000000000000000 ) ) ;
#717 = AXIS2_PLACEMENT_3D ( 'NONE', #978, #294, #900 ) ;
#718 = CARTESIAN_POINT ( 'NONE',  ( -3.860332711564285924E-07, 56.49999996212447684, 0.000000000000000000 ) ) ;
#719 = CIRCLE ( 'NONE', #635, 0.3999999999999984679 ) ;
#720 = ADVANCED_FACE ( 'NONE', ( #982 ), #675, .T. ) ;
#721 = ORIENTED_EDGE ( 'NONE', *, *, #645, .F. ) ;
#722 = AXIS2_PLACEMENT_3D ( 'NONE', #929, #242, #166 ) ;
#723 = ORIENTED_EDGE ( 'NONE', *, *, #674, .T. ) ;
#724 = AXIS2_PLACEMENT_3D ( 'NONE', #975, #285, #136 ) ;
#725 = CIRCLE ( 'NONE', #131, 8.000000000001925571 ) ;
#726 = CARTESIAN_POINT ( 'NONE',  ( -3.860330793085714245E-07, 51.99999996212451947, 0.000000000000000000 ) ) ;
#727 =( NAMED_UNIT ( * ) SI_UNIT ( $, .STERADIAN. ) SOLID_ANGLE_UNIT ( ) );
#728 = CARTESIAN_POINT ( 'NONE',  ( -3.860330255993730977E-07, 50.74019234098913245, 0.000000000000000000 ) ) ;
#729 = CARTESIAN_POINT ( 'NONE',  ( 4.749999613967384349, 56.99999996212468290, 0.000000000000000000 ) ) ;
#730 = ORIENTED_EDGE ( 'NONE', *, *, #319, .F. ) ;
#731 = DIRECTION ( 'NONE',  ( -4.263285714314105206E-14, 1.000000000000000000, 0.000000000000000000 ) ) ;
#732 = CARTESIAN_POINT ( 'NONE',  ( -3.860330715134641655E-07, 51.81715724964990955, 0.000000000000000000 ) ) ;
#733 = DIRECTION ( 'NONE',  ( 1.000000000000000000, 4.232725281382600255E-14, 0.000000000000000000 ) ) ;
#734 = EDGE_LOOP ( 'NONE', ( #785, #36, #97, #798 ) ) ;
#735 = UNCERTAINTY_MEASURE_WITH_UNIT (LENGTH_MEASURE( 1.000000000000000082E-05 ), #651, 'distance_accuracy_value', 'NONE');
#736 = ORIENTED_EDGE ( 'NONE', *, *, #409, .T. ) ;
#737 = DIRECTION ( 'NONE',  ( 1.000000000000000000, 4.336808689941237079E-14, 0.000000000000000000 ) ) ;
#738 = ADVANCED_FACE ( 'NONE', ( #894 ), #513, .T. ) ;
#739 = FACE_OUTER_BOUND ( 'NONE', #431, .T. ) ;
#740 = DIRECTION ( 'NONE',  ( 0.000000000000000000, 0.000000000000000000, -1.000000000000000000 ) ) ;
#741 = ORIENTED_EDGE ( 'NONE', *, *, #890, .F. ) ;
#742 = CONICAL_SURFACE ( 'NONE', #839, 5.250000000000625278, 0.7853981633973979859 ) ;
#743 = CARTESIAN_POINT ( 'NONE',  ( -10.00000038603235808, 21.22202014745532850, 0.000000000000000000 ) ) ;
#744 = AXIS2_PLACEMENT_3D ( 'NONE', #226, #819, #436 ) ;
#745 = CIRCLE ( 'NONE', #129, 4.750000000000676792 ) ;
#746 = CIRCLE ( 'NONE', #315, 6.000000000000483169 ) ;
#747 = ORIENTED_EDGE ( 'NONE', *, *, #914, .F. ) ;
#748 = EDGE_CURVE ( 'NONE', #71, #411, #217, .T. ) ;
#749 = CARTESIAN_POINT ( 'NONE',  ( -4.250000386034140654, 58.99999996212432762, 0.000000000000000000 ) ) ;
#750 = ORIENTED_EDGE ( 'NONE', *, *, #31, .T. ) ;
#751 = CARTESIAN_POINT ( 'NONE',  ( -5.000000386031858923, -3.787622656428571332E-08, 6.123233995737987045E-16 ) ) ;
#752 = DIRECTION ( 'NONE',  ( -0.7071067811864818475, -0.7071067811866132979, 8.659560562354498985E-17 ) ) ;
#753 = ORIENTED_EDGE ( 'NONE', *, *, #460, .F. ) ;
#754 = ADVANCED_FACE ( 'NONE', ( #236 ), #825, .F. ) ;
#755 = CARTESIAN_POINT ( 'NONE',  ( -3.860332924728571489E-07, 56.99999996212447684, 0.000000000000000000 ) ) ;
#756 = FACE_OUTER_BOUND ( 'NONE', #953, .T. ) ;
#757 = FACE_OUTER_BOUND ( 'NONE', #399, .T. ) ;
#758 = FACE_OUTER_BOUND ( 'NONE', #778, .T. ) ;
#759 = ADVANCED_FACE ( 'NONE', ( #233 ), #936, .T. ) ;
#760 = ORIENTED_EDGE ( 'NONE', *, *, #31, .F. ) ;
#761 = AXIS2_PLACEMENT_3D ( 'NONE', #293, #508, #40 ) ;
#762 = AXIS2_PLACEMENT_3D ( 'NONE', #548, #857, #540 ) ;
#763 = AXIS2_PLACEMENT_3D ( 'NONE', #115, #731, #356 ) ;
#764 = LINE ( 'NONE', #376, #622 ) ;
#765 = DIRECTION ( 'NONE',  ( 1.000000000000000000, 4.336808689941206156E-14, 0.000000000000000000 ) ) ;
#766 = ORIENTED_EDGE ( 'NONE', *, *, #536, .F. ) ;
#767 = DIRECTION ( 'NONE',  ( 4.263285714314105206E-14, -1.000000000000000000, -0.000000000000000000 ) ) ;
#768 = ORIENTED_EDGE ( 'NONE', *, *, #55, .T. ) ;
#769 = ADVANCED_FACE ( 'NONE', ( #154 ), #850, .T. ) ;
#770 = DIRECTION ( 'NONE',  ( 1.000000000000000000, 4.229421046190569046E-14, 0.000000000000000000 ) ) ;
#771 = ORIENTED_EDGE ( 'NONE', *, *, #609, .F. ) ;
#772 = ORIENTED_EDGE ( 'NONE', *, *, #190, .T. ) ;
#773 = TOROIDAL_SURFACE ( 'NONE', #579, 4.800000000000775202, 0.8000000000000122569 ) ;
#774 = ADVANCED_FACE ( 'NONE', ( #73 ), #164, .T. ) ;
#775 = VECTOR ( 'NONE', #801, 1000.000000000000227 ) ;
#776 = DIRECTION ( 'NONE',  ( 4.263285714314105206E-14, -1.000000000000000000, -0.000000000000000000 ) ) ;
#777 = AXIS2_PLACEMENT_3D ( 'NONE', #264, #803, #733 ) ;
#778 = EDGE_LOOP ( 'NONE', ( #330, #259, #329, #993 ) ) ;
#779 = CARTESIAN_POINT ( 'NONE',  ( 3.845299075588207494, 69.99999996212469000, 0.000000000000000000 ) ) ;
#780 = CARTESIAN_POINT ( 'NONE',  ( 5.999999613967446521, 50.99999996212469000, 0.000000000000000000 ) ) ;
#781 = ORIENTED_EDGE ( 'NONE', *, *, #267, .F. ) ;
#782 = ORIENTED_EDGE ( 'NONE', *, *, #907, .F. ) ;
#783 = DIRECTION ( 'NONE',  ( 4.263285714314105206E-14, -1.000000000000000000, -0.000000000000000000 ) ) ;
#784 = LINE ( 'NONE', #925, #640 ) ;
#785 = ORIENTED_EDGE ( 'NONE', *, *, #878, .T. ) ;
#786 = EDGE_CURVE ( 'NONE', #486, #686, #701, .T. ) ;
#787 = VERTEX_POINT ( 'NONE', #743 ) ;
#788 = CARTESIAN_POINT ( 'NONE',  ( -5.067157673558873476, 51.81715724964968928, 0.000000000000000000 ) ) ;
#789 = CARTESIAN_POINT ( 'NONE',  ( 5.249999613967355039, 51.99999996212473974, 6.429395695524136634E-16 ) ) ;
#790 = ORIENTED_EDGE ( 'NONE', *, *, #706, .T. ) ;
#791 = AXIS2_PLACEMENT_3D ( 'NONE', #155, #83, #1000 ) ;
#792 = AXIS2_PLACEMENT_3D ( 'NONE', #554, #474, #737 ) ;
#793 = CARTESIAN_POINT ( 'NONE',  ( -3.860338466999999902E-07, 69.99999996212451947, 0.000000000000000000 ) ) ;
#794 = CONICAL_SURFACE ( 'NONE', #520, 8.000000000001463718, 0.3883766555390972819 ) ;
#795 = ORIENTED_EDGE ( 'NONE', *, *, #632, .T. ) ;
#796 = FACE_OUTER_BOUND ( 'NONE', #523, .T. ) ;
#797 = FACE_OUTER_BOUND ( 'NONE', #625, .T. ) ;
#798 = ORIENTED_EDGE ( 'NONE', *, *, #235, .F. ) ;
#799 = ORIENTED_EDGE ( 'NONE', *, *, #698, .T. ) ;
#800 = DIRECTION ( 'NONE',  ( -1.000000000000000000, 0.000000000000000000, 0.000000000000000000 ) ) ;
#801 = DIRECTION ( 'NONE',  ( -0.8660254037844158370, 0.5000000000000394129, 0.000000000000000000 ) ) ;
#802 = EDGE_CURVE ( 'NONE', #107, #787, #997, .T. ) ;
#803 = DIRECTION ( 'NONE',  ( 4.263285714314105206E-14, -1.000000000000000000, -0.000000000000000000 ) ) ;
#804 = ORIENTED_EDGE ( 'NONE', *, *, #63, .F. ) ;
#805 = DIRECTION ( 'NONE',  ( 4.263285714314105206E-14, -1.000000000000000000, -0.000000000000000000 ) ) ;
#806 = DIRECTION ( 'NONE',  ( 0.000000000000000000, 0.000000000000000000, 1.000000000000000000 ) ) ;
#807 = DIRECTION ( 'NONE',  ( 4.263285714314105206E-14, -1.000000000000000000, -0.000000000000000000 ) ) ;
#808 = CARTESIAN_POINT ( 'NONE',  ( 9.839999613968627656, 50.99999996212478948, 0.000000000000000000 ) ) ;
#809 = VECTOR ( 'NONE', #479, 1000.000000000000000 ) ;
#810 = CIRCLE ( 'NONE', #77, 5.550000000000490097 ) ;
#811 = ORIENTED_EDGE ( 'NONE', *, *, #914, .T. ) ;
#812 = CARTESIAN_POINT ( 'NONE',  ( 4.999999613970134149, -3.787580023571428427E-08, 0.000000000000000000 ) ) ;
#813 = DIRECTION ( 'NONE',  ( 4.263285714314105206E-14, -1.000000000000000000, -0.000000000000000000 ) ) ;
#814 = FACE_OUTER_BOUND ( 'NONE', #132, .T. ) ;
#815 = DIRECTION ( 'NONE',  ( -1.000000000000000000, -4.244970388271895228E-14, 0.000000000000000000 ) ) ;
#816 = DIRECTION ( 'NONE',  ( 1.224646799147353207E-16, 5.221019203885406531E-30, 1.000000000000000000 ) ) ;
#817 = DIRECTION ( 'NONE',  ( 1.000000000000000000, 4.263285714294834912E-14, 0.000000000000000000 ) ) ;
#818 = CARTESIAN_POINT ( 'NONE',  ( 4.999999613967410106, 67.99999996212469000, 0.000000000000000000 ) ) ;
#819 = DIRECTION ( 'NONE',  ( -4.263285714314105206E-14, 1.000000000000000000, 0.000000000000000000 ) ) ;
#820 = LINE ( 'NONE', #879, #39 ) ;
#821 = ADVANCED_FACE ( 'NONE', ( #758 ), #44, .T. ) ;
#822 = CARTESIAN_POINT ( 'NONE',  ( -3.860308624000000066E-07, -3.787601340000000210E-08, 0.000000000000000000 ) ) ;
#823 = ORIENTED_EDGE ( 'NONE', *, *, #249, .T. ) ;
#824 = AXIS2_PLACEMENT_3D ( 'NONE', #732, #198, #603 ) ;
#825 = TOROIDAL_SURFACE ( 'NONE', #533, 5.350000000000497025, 0.3999999999999980793 ) ;
#826 = CONICAL_SURFACE ( 'NONE', #777, 10.00000000000191136, 0.7853981633979091326 ) ;
#827 = ORIENTED_EDGE ( 'NONE', *, *, #645, .T. ) ;
#828 = EDGE_CURVE ( 'NONE', #787, #107, #902, .T. ) ;
#829 = DIRECTION ( 'NONE',  ( 4.263285714314105206E-14, -1.000000000000000000, -0.000000000000000000 ) ) ;
#830 = DIRECTION ( 'NONE',  ( 4.263285714314105206E-14, -1.000000000000000000, -0.000000000000000000 ) ) ;
#831 = ORIENTED_EDGE ( 'NONE', *, *, #619, .T. ) ;
#832 = EDGE_CURVE ( 'NONE', #71, #81, #453, .T. ) ;
#833 = FACE_OUTER_BOUND ( 'NONE', #734, .T. ) ;
#834 = DIRECTION ( 'NONE',  ( 1.000000000000000000, 4.263285714314105206E-14, 0.000000000000000000 ) ) ;
#835 = CARTESIAN_POINT ( 'NONE',  ( -3.860334097132142894E-07, 59.74999996212446973, 0.000000000000000000 ) ) ;
#836 = ORIENTED_EDGE ( 'NONE', *, *, #563, .F. ) ;
#837 = DIRECTION ( 'NONE',  ( 1.000000000000000000, 4.263285714333123696E-14, 0.000000000000000000 ) ) ;
#838 = ORIENTED_EDGE ( 'NONE', *, *, #221, .T. ) ;
#839 = AXIS2_PLACEMENT_3D ( 'NONE', #348, #649, #130 ) ;
#840 = STYLED_ITEM ( 'NONE', ( #512 ), #253 ) ;
#841 = VECTOR ( 'NONE', #888, 1000.000000000000114 ) ;
#842 = DIRECTION ( 'NONE',  ( 4.263285714314105206E-14, -1.000000000000000000, -0.000000000000000000 ) ) ;
#843 = ORIENTED_EDGE ( 'NONE', *, *, #536, .T. ) ;
#844 = ADVANCED_FACE ( 'NONE', ( #68 ), #773, .F. ) ;
#845 = ORIENTED_EDGE ( 'NONE', *, *, #861, .F. ) ;
#846 = LINE ( 'NONE', #458, #75 ) ;
#847 = VERTEX_POINT ( 'NONE', #995 ) ;
#848 = ADVANCED_FACE ( 'NONE', ( #396 ), #688, .F. ) ;
#849 = CARTESIAN_POINT ( 'NONE',  ( -3.860310593127323461E-07, 4.618802115642450801, 0.000000000000000000 ) ) ;
#850 = CYLINDRICAL_SURFACE ( 'NONE', #762, 4.000000000000733635 ) ;
#851 = DIRECTION ( 'NONE',  ( 4.263285714314105206E-14, -1.000000000000000000, -0.000000000000000000 ) ) ;
#852 = ORIENTED_EDGE ( 'NONE', *, *, #141, .F. ) ;
#853 = CARTESIAN_POINT ( 'NONE',  ( 9.999999613968881818, 50.83999996212469341, 0.000000000000000000 ) ) ;
#854 = AXIS2_PLACEMENT_3D ( 'NONE', #451, #303, #910 ) ;
#855 = CIRCLE ( 'NONE', #998, 5.000000000000820677 ) ;
#856 = EDGE_CURVE ( 'NONE', #276, #85, #846, .T. ) ;
#857 = DIRECTION ( 'NONE',  ( 4.263285714314105206E-14, -1.000000000000000000, -0.000000000000000000 ) ) ;
#858 = CIRCLE ( 'NONE', #792, 4.000000000000720313 ) ;
#859 = ORIENTED_EDGE ( 'NONE', *, *, #69, .F. ) ;
#860 = EDGE_LOOP ( 'NONE', ( #663, #930, #790, #710 ) ) ;
#861 = EDGE_CURVE ( 'NONE', #257, #276, #948, .T. ) ;
#862 = ORIENTED_EDGE ( 'NONE', *, *, #944, .T. ) ;
#863 = CARTESIAN_POINT ( 'NONE',  ( -4.950000386033538646, 51.08660250250269996, 6.429395695524210590E-16 ) ) ;
#864 = ORIENTED_EDGE ( 'NONE', *, *, #832, .T. ) ;
#865 = ORIENTED_EDGE ( 'NONE', *, *, #786, .F. ) ;
#866 = ORIENTED_EDGE ( 'NONE', *, *, #206, .T. ) ;
#867 = CARTESIAN_POINT ( 'NONE',  ( -5.250000386033897293, 56.49999996212425657, 6.429395695524487677E-16 ) ) ;
#868 = DIRECTION ( 'NONE',  ( 4.263285714314105206E-14, -1.000000000000000000, -0.000000000000000000 ) ) ;
#869 = AXIS2_PLACEMENT_3D ( 'NONE', #664, #896, #211 ) ;
#870 = CARTESIAN_POINT ( 'NONE',  ( -3.860330366757143113E-07, 50.99999996212451236, 0.000000000000000000 ) ) ;
#871 = ORIENTED_EDGE ( 'NONE', *, *, #296, .F. ) ;
#872 = ADVANCED_FACE ( 'NONE', ( #318, #385 ), #314, .T. ) ;
#873 = DIRECTION ( 'NONE',  ( 1.000000000000000000, 4.263285714295151087E-14, 0.000000000000000000 ) ) ;
#874 = FACE_OUTER_BOUND ( 'NONE', #472, .T. ) ;
#875 = ORIENTED_EDGE ( 'NONE', *, *, #432, .F. ) ;
#876 = ORIENTED_EDGE ( 'NONE', *, *, #289, .F. ) ;
#877 = CARTESIAN_POINT ( 'NONE',  ( -4.250000386034137989, 58.99999996212432762, 5.204748896377181555E-16 ) ) ;
#878 = EDGE_CURVE ( 'NONE', #291, #707, #146, .T. ) ;
#879 = CARTESIAN_POINT ( 'NONE',  ( 4.249999613967384349, 58.99999996212469000, 5.204748896377185499E-16 ) ) ;
#880 = ORIENTED_EDGE ( 'NONE', *, *, #748, .F. ) ;
#881 = CARTESIAN_POINT ( 'NONE',  ( -10.00000038603494268, 50.83999996212384787, 1.224646799147587351E-15 ) ) ;
#882 = FACE_OUTER_BOUND ( 'NONE', #480, .T. ) ;
#883 = DIRECTION ( 'NONE',  ( 1.224646799147353207E-16, 5.221019203885406531E-30, 1.000000000000000000 ) ) ;
#884 = CIRCLE ( 'NONE', #971, 10.00000000000190958 ) ;
#885 = AXIS2_PLACEMENT_3D ( 'NONE', #728, #28, #347 ) ;
#886 = ORIENTED_EDGE ( 'NONE', *, *, #382, .F. ) ;
#887 = ORIENTED_EDGE ( 'NONE', *, *, #832, .F. ) ;
#888 = DIRECTION ( 'NONE',  ( -0.7071067811868431141, -0.7071067811862519203, 8.659560562358922769E-17 ) ) ;
#889 = FACE_OUTER_BOUND ( 'NONE', #976, .T. ) ;
#890 = EDGE_CURVE ( 'NONE', #686, #486, #656, .T. ) ;
#891 = DIRECTION ( 'NONE',  ( -1.000000000000000000, 0.000000000000000000, 0.000000000000000000 ) ) ;
#892 =( LENGTH_UNIT ( ) NAMED_UNIT ( * ) SI_UNIT ( .MILLI., .METRE. ) );
#893 = CARTESIAN_POINT ( 'NONE',  ( -3.860315587625068512E-07, 16.33393940614458018, 0.000000000000000000 ) ) ;
#894 = FACE_OUTER_BOUND ( 'NONE', #266, .T. ) ;
#895 = ORIENTED_EDGE ( 'NONE', *, *, #368, .T. ) ;
#896 = DIRECTION ( 'NONE',  ( 4.263285714314105206E-14, -1.000000000000000000, -0.000000000000000000 ) ) ;
#897 = VERTEX_POINT ( 'NONE', #616 ) ;
#898 = EDGE_LOOP ( 'NONE', ( #461, #709, #545, #941 ) ) ;
#899 = CARTESIAN_POINT ( 'NONE',  ( -3.860337614342857639E-07, 67.99999996212447684, 0.000000000000000000 ) ) ;
#900 = DIRECTION ( 'NONE',  ( 1.000000000000000000, 4.263285714362954629E-14, 0.000000000000000000 ) ) ;
#901 = CARTESIAN_POINT ( 'NONE',  ( 5.349999613967455936, 51.08660250250313339, 0.000000000000000000 ) ) ;
#902 = CIRCLE ( 'NONE', #599, 10.00000000000058975 ) ;
#903 = ORIENTED_EDGE ( 'NONE', *, *, #100, .F. ) ;
#904 = AXIS2_PLACEMENT_3D ( 'NONE', #974, #740, #668 ) ;
#905 = CIRCLE ( 'NONE', #601, 5.000000000001171507 ) ;
#906 = CIRCLE ( 'NONE', #935, 6.000000000000483169 ) ;
#907 = EDGE_CURVE ( 'NONE', #444, #30, #917, .T. ) ;
#908 = AXIS2_PLACEMENT_3D ( 'NONE', #186, #106, #572 ) ;
#909 = DIRECTION ( 'NONE',  ( 1.000000000000000000, 4.163336342343361363E-14, 0.000000000000000000 ) ) ;
#910 = DIRECTION ( 'NONE',  ( 1.000000000000000000, 4.263285714343248883E-14, 0.000000000000000000 ) ) ;
#911 = CARTESIAN_POINT ( 'NONE',  ( -3.860330596849870233E-07, 51.53431453717534083, 0.000000000000000000 ) ) ;
#912 = CARTESIAN_POINT ( 'NONE',  ( -3.860333268324023237E-07, 57.79843593325804818, 0.000000000000000000 ) ) ;
#913 = EDGE_LOOP ( 'NONE', ( #895, #4, #394, #644 ) ) ;
#914 = EDGE_CURVE ( 'NONE', #81, #964, #784, .T. ) ;
#915 = AXIS2_PLACEMENT_3D ( 'NONE', #114, #883, #514 ) ;
#916 = DIRECTION ( 'NONE',  ( 1.000000000000000000, 0.000000000000000000, 0.000000000000000000 ) ) ;
#917 = CIRCLE ( 'NONE', #722, 9.840000000001664304 ) ;
#918 = AXIS2_PLACEMENT_3D ( 'NONE', #286, #816, #37 ) ;
#919 = STYLED_ITEM ( 'NONE', ( #279 ), #66 ) ;
#920 = VECTOR ( 'NONE', #807, 1000.000000000000000 ) ;
#921 = FACE_OUTER_BOUND ( 'NONE', #415, .T. ) ;
#922 = ADVANCED_FACE ( 'NONE', ( #87 ), #300, .T. ) ;
#923 = VERTEX_POINT ( 'NONE', #328 ) ;
#924 = DIRECTION ( 'NONE',  ( 4.263285714314105206E-14, -1.000000000000000000, -0.000000000000000000 ) ) ;
#925 = CARTESIAN_POINT ( 'NONE',  ( -4.000000386031596911, -3.787618393142857372E-08, 4.898587196590312130E-16 ) ) ;
#926 = ORIENTED_EDGE ( 'NONE', *, *, #390, .F. ) ;
#927 = ADVANCED_FACE ( 'NONE', ( #921 ), #9, .T. ) ;
#928 = DIRECTION ( 'NONE',  ( 4.263285714314105206E-14, -1.000000000000000000, -0.000000000000000000 ) ) ;
#929 = CARTESIAN_POINT ( 'NONE',  ( -3.860330366757143113E-07, 50.99999996212437026, 0.000000000000000000 ) ) ;
#930 = ORIENTED_EDGE ( 'NONE', *, *, #69, .T. ) ;
#931 = ORIENTED_EDGE ( 'NONE', *, *, #907, .T. ) ;
#932 = CONICAL_SURFACE ( 'NONE', #90, 4.250000000000762945, 0.7853981633975142262 ) ;
#933 = CYLINDRICAL_SURFACE ( 'NONE', #94, 5.250000000000530243 ) ;
#934 = EDGE_CURVE ( 'NONE', #405, #107, #557, .T. ) ;
#935 = AXIS2_PLACEMENT_3D ( 'NONE', #292, #208, #716 ) ;
#936 = CYLINDRICAL_SURFACE ( 'NONE', #496, 10.00000000000125056 ) ;
#937 = CIRCLE ( 'NONE', #499, 0.3999999999999993006 ) ;
#938 = VERTEX_POINT ( 'NONE', #789 ) ;
#939 = ORIENTED_EDGE ( 'NONE', *, *, #382, .T. ) ;
#940 = DIRECTION ( 'NONE',  ( 1.000000000000000000, 4.263285714314105206E-14, 0.000000000000000000 ) ) ;
#941 = ORIENTED_EDGE ( 'NONE', *, *, #161, .F. ) ;
#942 = DIRECTION ( 'NONE',  ( 4.263285714314105206E-14, -1.000000000000000000, -0.000000000000000000 ) ) ;
#943 = CYLINDRICAL_SURFACE ( 'NONE', #339, 5.000000000000996536 ) ;
#944 = EDGE_CURVE ( 'NONE', #541, #405, #689, .T. ) ;
#945 = ORIENTED_EDGE ( 'NONE', *, *, #91, .F. ) ;
#946 = DIRECTION ( 'NONE',  ( 4.263285714314105206E-14, -1.000000000000000000, -0.000000000000000000 ) ) ;
#947 = AXIS2_PLACEMENT_3D ( 'NONE', #215, #813, #521 ) ;
#948 = CIRCLE ( 'NONE', #517, 5.250000000000625278 ) ;
#949 = CIRCLE ( 'NONE', #518, 4.950000000000478018 ) ;
#950 = AXIS2_PLACEMENT_3D ( 'NONE', #95, #332, #631 ) ;
#951 = AXIS2_PLACEMENT_3D ( 'NONE', #260, #350, #873 ) ;
#952 = DIRECTION ( 'NONE',  ( 4.263285714314105206E-14, -1.000000000000000000, -0.000000000000000000 ) ) ;
#953 = EDGE_LOOP ( 'NONE', ( #766, #750, #309, #1 ) ) ;
#954 = ADVANCED_FACE ( 'NONE', ( #797 ), #943, .T. ) ;
#955 = ORIENTED_EDGE ( 'NONE', *, *, #944, .F. ) ;
#956 = FACE_OUTER_BOUND ( 'NONE', #555, .T. ) ;
#957 = CARTESIAN_POINT ( 'NONE',  ( 7.999999613969903223, 16.33393940614492124, 1.102182119232743734E-15 ) ) ;
#958 = VERTEX_POINT ( 'NONE', #26 ) ;
#959 = ORIENTED_EDGE ( 'NONE', *, *, #563, .T. ) ;
#960 = DIRECTION ( 'NONE',  ( 1.000000000000000000, 4.250072516142400511E-14, 0.000000000000000000 ) ) ;
#961 = EDGE_CURVE ( 'NONE', #608, #558, #593, .T. ) ;
#962 = DIRECTION ( 'NONE',  ( 4.263285714314105206E-14, -1.000000000000000000, -0.000000000000000000 ) ) ;
#963 = DIRECTION ( 'NONE',  ( 1.000000000000000000, 4.278984574075779802E-14, 0.000000000000000000 ) ) ;
#964 = VERTEX_POINT ( 'NONE', #33 ) ;
#965 = CARTESIAN_POINT ( 'NONE',  ( -3.860330403678280669E-07, 51.08660250250290602, 0.000000000000000000 ) ) ;
#966 = EDGE_CURVE ( 'NONE', #558, #703, #906, .T. ) ;
#967 = SURFACE_STYLE_FILL_AREA ( #346 ) ;
#968 = TOROIDAL_SURFACE ( 'NONE', #110, 4.800000000000722800, 0.8000000000000024869 ) ;
#969 = DIRECTION ( 'NONE',  ( -4.263285714314105206E-14, 1.000000000000000000, 0.000000000000000000 ) ) ;
#970 = VERTEX_POINT ( 'NONE', #957 ) ;
#971 = AXIS2_PLACEMENT_3D ( 'NONE', #711, #805, #715 ) ;
#972 = DIRECTION ( 'NONE',  ( 1.000000000000000000, 4.205390244791836411E-14, 0.000000000000000000 ) ) ;
#973 = LINE ( 'NONE', #818, #360 ) ;
#974 = CARTESIAN_POINT ( 'NONE',  ( 4.799999613967422363, 58.41905246019359765, 0.000000000000000000 ) ) ;
#975 = CARTESIAN_POINT ( 'NONE',  ( -3.860330366757143113E-07, 50.99999996212437026, 0.000000000000000000 ) ) ;
#976 = EDGE_LOOP ( 'NONE', ( #721, #959, #272 ) ) ;
#977 = FACE_OUTER_BOUND ( 'NONE', #913, .T. ) ;
#978 = CARTESIAN_POINT ( 'NONE',  ( -3.860308624000000066E-07, -3.787601340000000210E-08, 0.000000000000000000 ) ) ;
#979 = FACE_OUTER_BOUND ( 'NONE', #592, .T. ) ;
#980 = EDGE_CURVE ( 'NONE', #707, #88, #420, .T. ) ;
#981 = FACE_OUTER_BOUND ( 'NONE', #333, .T. ) ;
#982 = FACE_OUTER_BOUND ( 'NONE', #898, .T. ) ;
#983 = FACE_OUTER_BOUND ( 'NONE', #124, .T. ) ;
#984 = DIRECTION ( 'NONE',  ( 1.000000000000000000, 4.267419750902693648E-14, 0.000000000000000000 ) ) ;
#985 = TOROIDAL_SURFACE ( 'NONE', #112, 4.800000000000775202, 0.8000000000000122569 ) ;
#986 = EDGE_LOOP ( 'NONE', ( #760, #636, #19, #243 ) ) ;
#987 = PRESENTATION_LAYER_ASSIGNMENT (  '', '', ( #919 ) ) ;
#988 = CIRCLE ( 'NONE', #885, 5.550000000000490097 ) ;
#989 = LINE ( 'NONE', #788, #657 ) ;
#990 = DIRECTION ( 'NONE',  ( 1.000000000000000000, 4.263285714295151087E-14, 0.000000000000000000 ) ) ;
#991 = CARTESIAN_POINT ( 'NONE',  ( 5.999999613967446521, 50.99999996212476816, 7.347880794884709410E-16 ) ) ;
#992 = ORIENTED_EDGE ( 'NONE', *, *, #157, .T. ) ;
#993 = ORIENTED_EDGE ( 'NONE', *, *, #105, .F. ) ;
#994 = ADVANCED_FACE ( 'NONE', ( #666 ), #794, .T. ) ;
#995 = CARTESIAN_POINT ( 'NONE',  ( -4.950000386033537758, 51.53431453717504951, 6.062001655780001990E-16 ) ) ;
#996 = CIRCLE ( 'NONE', #515, 4.750000000000676792 ) ;
#997 = CIRCLE ( 'NONE', #127, 10.00000000000058975 ) ;
#998 = AXIS2_PLACEMENT_3D ( 'NONE', #3, #372, #679 ) ;
#999 = AXIS2_PLACEMENT_3D ( 'NONE', #726, #99, #408 ) ;
#1000 = DIRECTION ( 'NONE',  ( 1.000000000000000000, 4.244970388271895228E-14, 0.000000000000000000 ) ) ;
#1001 = ORIENTED_EDGE ( 'NONE', *, *, #934, .F. ) ;
#1002 = DIRECTION ( 'NONE',  ( 4.263285714314105206E-14, -1.000000000000000000, -0.000000000000000000 ) ) ;
ENDSEC;
END-ISO-10303-21;
